<svg xmlns="http://www.w3.org/2000/svg" width="366.6" height="23.9"><g aria-label="[ADRPmodel]Min:max m{ TQ (m,i d) +G Q(m,i d) ,T Y(m,i d) +G Y(m,i d) }"><path d="M1.8 18.6v-.5H.5V5.8h1.3v-.5H0v13.3zM11.6 15.3v-.4h-.2c-.8 0-1-.1-1.1-.6L7.4 6c0-.1 0-.2-.3-.2-.2 0-.2 0-.3.2L4 14c-.2.6-.7.9-1.5.9v.4h2.9v-.4c-.6 0-1-.4-1-.7V14l.7-1.8h3.3l.7 2v.3c0 .4-.7.4-1.1.4v.4h2zm-3.4-3.5h-3l1.5-4.3zm13.3-1c0-2.5-1.8-4.6-4-4.6h-5v.4h.4c1 0 1 .2 1 .6v7c0 .5 0 .7-1 .7h-.3v.4h4.8c2.3 0 4-2 4-4.5zm-1.3 0c0 1.5-.3 2.3-.8 3-.2.3-1 1-2.3 1h-1.4c-.6 0-.6 0-.6-.5V7.1c0-.4 0-.5.6-.5H17c.9 0 1.8.3 2.5 1.3.5.7.7 1.9.7 2.9zM32 14.1s0-.2-.2-.2-.2 0-.2.2c0 1-.5 1.2-.8 1.2-.7 0-.8-.7-1-2l-.2-1c-.2-.9-.8-1.3-1.6-1.5 1.3-.4 2.3-1.2 2.3-2.2 0-1.3-1.5-2.4-3.4-2.4h-4.2v.4h.3c1 0 1 .2 1 .6v7c0 .5 0 .7-1 .7h-.3v.4h3.9v-.4h-.3c-1 0-1-.2-1-.7V11h1.4c.3 0 .8 0 1.3.4.5.5.5 1 .5 1.8 0 .9 0 1.4.5 2 .6.4 1.3.5 1.7.5 1 0 1.3-1.1 1.3-1.5zm-3-5.5c0 1-.3 2-2.3 2h-1.5V7c0-.3 0-.4.3-.5h.8c1.2 0 2.7 0 2.7 2zm11.3 0c0-1.2-1.3-2.4-3.1-2.4h-4.7v.4h.3c1 0 1 .2 1 .6v7c0 .5 0 .7-1 .7h-.3v.4h4v-.4H36c-1 0-1-.2-1-.7v-3.1h2.2c1.6 0 3-1 3-2.4zm-1.4 0c0 .7 0 2.1-2 2.1h-2V7.1c0-.4.1-.5.7-.5h1.2C39 6.6 39 8 39 8.6zm17.4 6.7v-.4c-.7 0-1 0-1-.4v-2.6c0-1.1 0-1.5-.5-2-.2-.2-.6-.5-1.4-.5a2 2 0 0 0-1.9 1.3c-.2-1.1-1.2-1.3-1.8-1.3-1 0-1.6.6-2 1.4V9.4l-1.8.2v.4c1 0 1 0 1 .7v3.6c0 .6-.1.6-1 .6v.4h3v-.4c-.9 0-1 0-1-.6v-2.5c0-1.4.9-2.1 1.7-2.1.9 0 1 .7 1 1.5v3c0 .7-.1.7-1 .7v.4h3v-.4c-1 0-1 0-1-.6v-2.5c0-1.4.9-2.1 1.7-2.1.9 0 1 .7 1 1.5v3c0 .7-.1.7-1 .7v.4h1.5zm6.5-2.9c0-1.7-1.3-3-3-3-1.6 0-2.9 1.4-2.9 3a3 3 0 0 0 3 3 3 3 0 0 0 2.9-3zm-1.1 0c0 .4 0 1.1-.3 1.7-.3.6-.9 1-1.5 1s-1.2-.3-1.5-.9c-.4-.6-.4-1.4-.4-1.9s0-1.2.3-1.8c.4-.6 1-.9 1.6-.9.5 0 1.1.3 1.5.9.3.6.3 1.3.3 1.8zm8.9 2.9v-.4c-1 0-1-.1-1-.8v-8l-2 .1v.4c1 0 1 .1 1 .8v2.8c-.3-.5-1-.8-1.6-.8a3 3 0 0 0-3 3c0 1.7 1.3 3 2.8 3 .9 0 1.5-.4 1.8-.9v1zm-2-1.6-.1.5c-.4.6-1 1-1.6 1-.6 0-1-.4-1.4-1-.3-.5-.4-1.2-.4-1.8 0-.5 0-1.3.4-1.9.3-.4.8-.8 1.5-.8.5 0 1 .2 1.5.8l.1.5zm7.9 0-.2-.2-.2.2c-.4 1.4-1.7 1.4-1.8 1.4-.6 0-1.2-.4-1.5-.9-.4-.6-.4-1.5-.4-2h3.7c.3 0 .4 0 .4-.3 0-1.3-.8-2.6-2.4-2.6-1.6 0-2.8 1.4-2.8 3a3 3 0 0 0 3 3.1c1.6 0 2.2-1.5 2.2-1.7zm-1-1.8h-3c0-2 1.1-2.3 1.6-2.3 1.3 0 1.5 1.8 1.5 2.3zm4.7 3.4v-.4c-.9 0-1 0-1-.6V6l-2 .1v.4c1 0 1.1.1 1.1.8v6.9c0 .6-.1.6-1 .6v.4h1.4zM82.6 5.3h-1.8v.5h1.3v12.3h-1.3v.5h1.8zM102.5 15.3v-.4h-.3c-1 0-1-.2-1-.7v-7c0-.4 0-.6 1-.6h.3v-.4h-2.2c-.4 0-.4 0-.4.3l-3 7.4-2.8-7.4c-.2-.3-.2-.3-.5-.3h-2.2v.4h.3c1 0 1 .2 1 .6V14c0 .3 0 1-1.3 1v.4h3.1v-.4c-1.4 0-1.4-.7-1.4-1V6.7l3.2 8.3c0 .1.1.3.3.3.1 0 .2-.1.2-.3l3.3-8.4v7.6c0 .5 0 .7-1 .7h-.4v.4h3.8zm3.8 0v-.4c-.8 0-1-.1-1-.6V9.4l-1.8.2v.4c1 0 1 0 1 .7v3.6c0 .6-.1.6-1 .6v.4h2.8zm-.7-8c0-.4-.3-.7-.7-.7-.5 0-.7.3-.7.7 0 .3.3.7.7.7.4 0 .7-.4.7-.7zm8.3 8v-.4c-.7 0-1 0-1.1-.4v-2.6c0-1.1 0-1.5-.4-2-.2-.2-.6-.5-1.4-.5-1 0-1.6.6-2 1.4V9.4l-1.8.2v.4c.9 0 1 0 1 .7v3.6c0 .6-.1.6-1 .6v.4h2.9v-.4c-.8 0-1 0-1-.6v-2.5c0-1.4 1-2.1 1.8-2.1s1 .7 1 1.5v3c0 .7-.2.7-1 .7v.4h1.5zM120.4 10.3c0-.4-.3-.7-.7-.7-.4 0-.7.3-.7.7 0 .3.3.7.7.7.4 0 .7-.4.7-.7zm0 4.3c0-.4-.3-.7-.7-.7-.4 0-.7.3-.7.7 0 .4.3.7.7.7.4 0 .7-.3.7-.7zm6.2-3.9v3.6c0 .6-.1.6-1 .6v.4h3v-.4c-.9 0-1 0-1-.6v-2.5c0-1.4 1-2.1 1.8-2.1s1 .7 1 1.5v3c0 .7-.2.7-1.1.7v.4h3v-.4c-.9 0-1 0-1-.6v-2.5c0-1.4.9-2.1 1.7-2.1.9 0 1 .7 1 1.5v3c0 .7-.1.7-1 .7v.4h3v-.4c-.7 0-1 0-1-.4v-2.6c0-1.1 0-1.5-.5-2-.1-.2-.6-.5-1.4-.5a2 2 0 0 0-1.9 1.3c-.2-1.1-1.2-1.3-1.8-1.3-1 0-1.5.6-2 1.4V9.4l-1.8.2v.4c1 0 1 0 1 .7zm14 3.6c.1.5.5 1 1.1 1 .3 0 1-.1 1-1.2v-.7h-.2v.7c0 .8-.4.8-.5.8-.5 0-.5-.6-.5-.6v-2.7c0-.5 0-1-.5-1.5-.5-.6-1.2-.8-1.8-.8-1.1 0-2 .6-2 1.5 0 .4.2.6.6.6.4 0 .6-.2.6-.6 0-.1 0-.6-.7-.6.4-.4 1-.6 1.5-.6.6 0 1.4.5 1.4 1.7v.5c-.7 0-1.6 0-2.5.5-1 .4-1.3 1.1-1.3 1.7 0 1 1.3 1.4 2.1 1.4.9 0 1.5-.5 1.8-1.1zm0-2.2v1.3c0 1.3-1 1.7-1.6 1.7-.6 0-1.2-.4-1.2-1.1 0-.7.6-1.8 2.8-2zm6.1 0 1.2-1.5a2 2 0 0 1 1.6-.6v-.4h-2.4v.4c.3 0 .4.2.4.4l-.2.4-.8 1-1-1.3-.2-.2c0-.2.2-.3.5-.3v-.4h-2.7v.4c1 0 1 0 1.6.8l1.3 1.7-1.3 1.6c-.6.7-1.4.8-1.7.8v.4h2.4v-.4c-.3 0-.4-.3-.4-.5s.4-.7 1.2-1.6l1 1.3.3.4c0 .1-.1.4-.5.4v.4h2.7v-.4c-.7 0-1 0-1.2-.5zM136.9 22.5l-.1.5c0 .2.1.3.3.3.1 0 .3 0 .3-.2l.2-.5.2-.9.2-.6c0-.4 0-.4.3-.7.3-.5.7-1 1.4-1 .6 0 .6.4.6.7 0 .5-.4 1.5-.6 2l-.1.4c0 .5.4.8.9.8 1 0 1.3-1.2 1.3-1.4l-.1-.1-.2.1c-.2.8-.6 1.2-1 1.2-.2 0-.2-.2-.2-.4l.2-.7c.1-.3.5-1.3.5-1.8 0-.1 0-.5-.4-.8-.1-.1-.4-.3-.8-.3-.9 0-1.4.6-1.7 1 0-.8-.7-1-1.2-1a2 2 0 0 0-1.6.9c0-.6-.6-.9-1-.9-.3 0-.6.3-.7.5l-.3 1h.1c.2 0 .2 0 .2-.2.2-.5.4-1 .7-1 .3 0 .3.2.3.5l-.1.7-.2.9-.3 1.2-.1.3c0 .2.2.3.3.3.2 0 .3 0 .4-.2l.1-.5.2-.9.2-.6c.1-.4.1-.5.4-.8.3-.4.7-.9 1.4-.9.5 0 .5.5.5.7l-.1.8zM157 15.6v-1.4c-.5-1.2-1.6-1.9-2.5-2.2 1.5-.7 2.3-1.6 2.5-2.5V3c0-1 1-1.9 2.2-2.4.2-.1.2-.1.2-.3 0-.3 0-.3-.3-.3-.4 0-1.3.5-1.9 1-.4.3-1.1 1-1.1 2V8c0 1.2 0 1.7-.7 2.5-.2.2-.6.6-1.5 1-.2.1-.2.1-.2.3 0 .3 0 .3.3.4 1.4.6 2 1.8 2 2.6v5.5c0 .6 0 1.4.7 2.1l1.2 1 1.2.4c.3 0 .3 0 .3-.3l-.1-.2c-.8-.4-2-1-2.2-2.2v-1zM166.7 7.2c0-.4.1-.4.3-.5h.8c1.3 0 2 0 2 1l-.2 1.2V9s0 .2.2.2l.2-.3.3-2.4v-.2l-.3-.1h-7.4c-.3 0-.3 0-.4.3l-.8 2.3-.1.2c0 .1 0 .2.2.2l.2-.3c.7-2 1-2.3 3-2.3h.5c.4 0 .4 0 .4.2V7l-1.8 7.1c-.1.5-.2.7-1.6.7-.5 0-.6 0-.6.2s.2.2.3.2h4.5s.2 0 .2-.3l-.4-.1h-.9c-.4-.1-.4-.1-.4-.4v-.2zM175 9.5c0 .5 0 1.2.8 1.2 1.1 0 1.7-1.6 1.7-1.8l-.2-.1c-.3.7-1 1-1.2 1-.4 0-.6-.2-.8-1 1.7-.6 3-2.2 3-3.9 0-1.4-1-2.5-2.7-2.5-2.2 0-4.4 2-4.4 4.1 0 1.5 1.1 2.6 2.7 2.6l1-.1zm-1.7-.8c-.5-.2-1.2-.7-1.2-2 0-.5.2-1.8 1-2.8.7-.7 1.6-1.2 2.4-1.2 1 0 2 .6 2 2 0 1-.6 3-2.2 3.8-.2-.6-.4-1-1-1-.5 0-1 .4-1 1v.2zm1.6 0h-.9c-.1 0-.5 0-.5-.3s.4-.7.8-.7c.3 0 .6.2.6 1zM172 12.8a5.6 5.6 0 0 0-2.2 4.7c0 1.3.4 3.3 2.3 4.6l.1-.1v-.1c-1.3-1.2-1.7-2.7-1.7-4.4 0-2.5 1-3.8 1.7-4.5l-.1-.2zM177 19l-.2.6c0 .2.2.3.3.3l.4-.2.2-.6.2-.8.1-.6.3-.8c.3-.4.8-1 1.5-1 .5 0 .5.5.5.7 0 .6-.4 1.6-.5 2l-.1.5c0 .5.4.8.8.8 1 0 1.4-1.3 1.4-1.4 0-.2-.1-.2-.2-.2l-.2.2c-.2.7-.6 1.1-1 1.1-.1 0-.2-.1-.2-.3l.2-.8c.2-.2.5-1.2.5-1.8 0 0 0-.5-.3-.7-.2-.2-.4-.3-.9-.3-.8 0-1.3.5-1.6 1 0-.9-.7-1-1.2-1a2 2 0 0 0-1.6.8c0-.6-.6-.8-1-.8s-.6.3-.7.5l-.4 1h.2l.2-.2c.1-.6.3-1 .7-1 .2 0 .3.2.3.4s0 .5-.2.8l-.2.8-.3 1.2v.4c0 .2.1.3.3.3l.3-.2.2-.6.2-.8.2-.6c0-.4 0-.5.3-.9s.8-.8 1.4-.8c.6 0 .6.4.6.6l-.2.9zm7.3.6c0 .6-.1 1.1-.7 1.7l-.1.2h.1c.2 0 1-.7 1-1.8 0-.5-.3-1-.7-1-.3 0-.5.3-.5.5 0 .4.2.6.5.6l.4-.2zm4.2-5.6c0-.2-.1-.4-.4-.4-.2 0-.5.3-.5.5s.1.4.4.4c.2 0 .5-.3.5-.5zm-2 4.7v.4c0 .4.4.8.9.8 1 0 1.3-1.3 1.3-1.4l-.1-.2c-.2 0-.2.1-.2.2-.2.7-.6 1.1-1 1.1-.2 0-.2 0-.2-.3l.1-.6.3-.7.5-1.2v-.3c0-.5-.3-.8-.8-.8-1 0-1.4 1.3-1.4 1.4l.2.1.1-.1c.3-.8.7-1.1 1-1.1.2 0 .3 0 .3.3l-.3 1zM193.6 16.8l-.1-.2h-.9l-.1.1v.2h.4v.5l-.3 1.3a1 1 0 0 0-.8-.4 2 2 0 0 0-1.9 1.8c0 .7.5 1.2 1.2 1.2.5 0 1-.4 1-.5.2.3.5.5.8.5.3 0 .5-.2.6-.4l.3-.6-.2-.1-.1.1c-.1.5-.3.8-.5.8s-.3-.2-.3-.4v-.2zm-1.4 3.5-.2.3c-.2.2-.5.5-.9.5-.2 0-.6-.2-.6-.7l.4-1.4c.3-.3.6-.5.9-.5.3 0 .6.2.7.6zM195.7 12.8l-.2.1v.2c.9.7 1.8 2 1.8 4.4 0 2-.7 3.4-1.7 4.3l-.1.2.1.1c.1 0 1-.6 1.6-1.8.4-.7.7-1.7.7-2.8 0-1.3-.4-3.4-2.2-4.7zM208 12.2h3.7c.2 0 .5 0 .5-.3 0-.2-.3-.2-.5-.2H208V8c0-.2 0-.5-.2-.5-.3 0-.3.3-.3.5v3.7h-3.7c-.2 0-.5 0-.5.2 0 .3.3.3.5.3h3.7V16c0 .2 0 .5.3.5.2 0 .2-.3.2-.5zM226 6h-.4l-1 1c0-.1-.6-1-2.1-1-3 0-6 2.9-6 6 0 2 1.5 3.6 3.7 3.6.5 0 1.1-.2 1.6-.4.7-.2 1-.5 1.2-.8 0 .4.4.9.6.9l.3-.9.3-1 .1-.7c.2-.6.2-.6 1-.6l.1-.3-.1-.2H222c-.1 0-.3 0-.3.3 0 .2.2.2.4.2h.7c.4 0 .5 0 .5.2l-.3 1.2c-.4 1.5-2.1 1.6-2.6 1.6-1.3 0-2.7-.7-2.7-2.7 0-.5.2-2.6 1.6-4.4.7-.9 2-1.7 3.3-1.7 1.3 0 2.1 1 2.1 2.6v.7l.2.1c.2 0 .2 0 .2-.3zM230.6 9.5c0 .5.2 1.2 1 1.2 1 0 1.6-1.6 1.6-1.8l-.1-.1h-.2c-.2.7-.8 1-1.1 1-.4 0-.6-.2-.8-1 1.7-.6 3-2.2 3-3.9 0-1.4-1-2.5-2.7-2.5-2.2 0-4.3 2-4.3 4.1 0 1.5 1 2.6 2.7 2.6l1-.1zm-1.6-.8c-.4-.2-1.1-.7-1.1-2 0-.5.2-1.8 1-2.8.6-.7 1.5-1.2 2.4-1.2 1 0 1.8.6 1.8 2 0 1-.4 3-2.1 3.8-.2-.6-.4-1-1-1-.5 0-1 .4-1 1v.2zm1.6 0h-.9c-.1 0-.4 0-.4-.3s.3-.7.7-.7c.4 0 .6.2.6 1zM229.6 12.8a5.6 5.6 0 0 0-2.2 4.7c0 1.3.4 3.3 2.2 4.6l.2-.1v-.1c-1.3-1.2-1.8-2.7-1.8-4.4 0-2.5 1-3.8 1.7-4.5h.1c0-.2-.1-.2-.2-.2zM234.5 19l-.1.6c0 .2.1.3.3.3.2 0 .3-.1.3-.2l.2-.6.2-.8.2-.6c0-.5 0-.5.3-.8.3-.4.7-1 1.5-1 .5 0 .5.5.5.7 0 .6-.4 1.6-.5 2-.2.2-.2.3-.2.5 0 .5.4.8.9.8 1 0 1.3-1.3 1.3-1.4l-.1-.2-.2.2c-.2.7-.6 1.1-1 1.1-.2 0-.2-.1-.2-.3l.2-.8c.1-.2.5-1.2.5-1.8 0 0 0-.5-.3-.7-.2-.2-.5-.3-1-.3-.7 0-1.3.5-1.6 1 0-.9-.7-1-1.2-1a2 2 0 0 0-1.5.8c-.1-.6-.6-.8-1-.8s-.6.3-.8.5c-.2.3-.3.9-.3 1h.2l.2-.2c.1-.6.3-1 .6-1s.3.2.3.4v.8c-.2.2-.3.6-.3.8l-.3 1.2v.4c0 .2 0 .3.2.3l.4-.2.2-.6.2-.8.1-.6c.1-.4.1-.5.4-.9.3-.4.7-.8 1.4-.8.5 0 .5.4.5.6l-.1.9zm7.4.6c0 .6-.1 1.1-.8 1.7v.2c.2 0 1-.7 1-1.8 0-.5-.2-1-.6-1-.3 0-.6.3-.6.5 0 .4.2.6.6.6l.4-.2zM246 14c0-.2-.2-.4-.4-.4-.3 0-.5.3-.5.5s0 .4.3.4.6-.3.6-.5zm-2 4.7v.4c0 .4.3.8.9.8.9 0 1.3-1.3 1.3-1.4 0-.2-.1-.2-.2-.2l-.1.2c-.2.7-.6 1.1-1 1.1-.2 0-.3 0-.3-.3l.2-.6.3-.7.4-1.2.1-.3c0-.5-.4-.8-.9-.8-.9 0-1.3 1.3-1.3 1.4l.1.1.2-.1c.2-.8.6-1.1 1-1.1.1 0 .2 0 .2.3l-.3 1zM251.2 16.8c0-.2 0-.2-.2-.2h-.8l-.2.1v.2h.4l.2.2-.1.3-.3 1.3a1 1 0 0 0-.8-.4 2 2 0 0 0-1.9 1.8c0 .7.5 1.2 1.2 1.2.5 0 1-.4 1-.5.1.3.5.5.8.5.3 0 .4-.2.6-.4l.3-.6-.2-.1-.1.1c-.2.5-.3.8-.6.8-.2 0-.2-.2-.2-.4v-.2zm-1.4 3.5-.2.3c-.2.2-.6.5-1 .5-.2 0-.5-.2-.5-.7l.4-1.4c.3-.3.6-.5.9-.5.3 0 .5.2.7.6zM253.2 12.8l-.2.1.1.2c.8.7 1.7 2 1.7 4.4 0 2-.6 3.4-1.6 4.3l-.2.2.2.1s1-.6 1.6-1.8c.4-.7.6-1.7.6-2.8 0-1.3-.3-3.4-2.2-4.7zM259.9 15.3c0-1-.3-1.4-.9-1.4-.4 0-.7.3-.7.7 0 .3.3.7.7.7.2 0 .4 0 .5-.2l.1.2c0 1-.5 1.7-.9 2.2l-.1.2v.1c.2 0 1.3-1 1.3-2.5zm8.9-8c0-.5 0-.5.3-.6h.8c1.3 0 2 0 2 1l-.2 1.2V9l.1.2c.2 0 .2-.1.3-.3l.3-2.4v-.2l-.3-.1h-7.4c-.3 0-.3 0-.4.3l-.8 2.3-.1.2c0 .1 0 .2.2.2l.2-.3c.7-2 1-2.3 3-2.3h.5c.4 0 .4 0 .4.2V7l-1.8 7.1c-.1.5-.2.7-1.6.7-.5 0-.6 0-.6.2s.2.2.3.2h4.4c.2 0 .3 0 .3-.3l-.4-.1h-.9c-.4-.1-.5-.1-.5-.4v-.2zM279 4.6l.6-.5c.4-.3.7-.3.8-.3.1 0 .2 0 .2-.2v-.2h-1.8s-.2 0-.2.2.1.2.2.2l.2.1v.3l-.2.2-2.4 2.4-1.2-2.7v-.2l.4-.1c.2 0 .3 0 .3-.2 0 0 0-.2-.2-.2h-2.2c-.1 0-.2 0-.2.2s0 .2.2.2c.5 0 .6 0 .7.3l1.4 3.1-.4 1.7c-.1.5-.1.5-.9.6l-.2.1.1.2h2.4s.2 0 .2-.2l-.3-.1h-.4l-.2-.2.2-.7.3-1.2.1-.2zM274.2 12a5.6 5.6 0 0 0-2.3 4.6c0 1.3.4 3.3 2.3 4.6l.1-.1V21c-1.3-1.2-1.7-2.7-1.7-4.4 0-2.5 1-3.8 1.7-4.5l-.1-.2zM279 18.1v.6c0 .2 0 .3.2.3l.4-.2.2-.6.2-.8.1-.7.3-.7c.3-.4.8-1 1.5-1 .5 0 .6.5.6.7 0 .6-.5 1.6-.6 2l-.1.5c0 .5.4.8.8.8 1 0 1.4-1.3 1.4-1.4 0-.2-.1-.2-.2-.2l-.1.2c-.2.7-.7 1.1-1 1.1-.2 0-.3-.1-.3-.3 0-.2 0-.3.3-.8 0-.2.5-1.2.5-1.8 0-.1 0-.5-.4-.8-.2 0-.4-.2-.9-.2-.8 0-1.3.5-1.6 1 0-.9-.7-1-1.2-1a2 2 0 0 0-1.6.8c0-.6-.6-.8-1-.8s-.6.3-.7.5c-.2.3-.3.9-.3 1h.1c.1 0 .2 0 .2-.2.2-.6.3-1 .7-1 .2 0 .3.1.3.4l-.1.8-.2.8-.3 1.2-.1.4c0 .2.1.3.3.3l.3-.2.2-.6.2-.8.2-.7c0-.3 0-.4.4-.8.2-.4.7-.9 1.3-.9.6 0 .6.5.6.7l-.2.9zm7.4.6c0 .5 0 1.1-.7 1.7v.2c.2 0 1-.7 1-1.8 0-.5-.3-1-.7-1-.3 0-.5.3-.5.5 0 .4.2.6.5.6l.4-.2zm4.2-5.6c0-.2-.1-.4-.4-.4-.2 0-.5.3-.5.5s.1.4.4.4c.3 0 .5-.3.5-.5zm-1.9 4.7v.4c0 .4.3.8.8.8 1 0 1.3-1.3 1.3-1.4l-.1-.2-.2.2c-.2.7-.6 1.1-1 1.1-.2 0-.2 0-.2-.3l.1-.6.3-.7.5-1.2v-.3c0-.5-.3-.8-.8-.8-1 0-1.4 1.3-1.4 1.4l.2.1.2-.1c.2-.8.6-1.2 1-1.2 0 0 .2.1.2.4l-.3 1zM295.7 16v-.2l-.1-.1h-.8l-.2.1v.2h.4l.1.2v.3l-.4 1.3a1 1 0 0 0-.8-.4 2 2 0 0 0-1.8 1.8c0 .7.5 1.2 1.1 1.2.6 0 1-.4 1-.5.2.3.5.5.8.5.3 0 .5-.2.6-.4l.3-.7H295.6c-.1.6-.3.8-.5.8s-.3-.1-.3-.3v-.2zm-1.4 3.4-.1.3c-.3.2-.6.4-1 .4-.2 0-.5 0-.5-.6 0-.3.1-1 .3-1.4.3-.4.6-.5 1-.5.2 0 .5.2.6.6zM297.8 12h-.2v.2c.9.7 1.8 2 1.8 4.4 0 1.9-.6 3.4-1.6 4.3l-.2.2.1.1c.1 0 1-.6 1.6-1.8.4-.7.7-1.7.7-2.8 0-1.4-.4-3.4-2.2-4.7zM310.1 12.2h3.7c.2 0 .5 0 .5-.3 0-.2-.3-.2-.5-.2h-3.7V8c0-.2 0-.5-.2-.5-.3 0-.3.3-.3.5v3.7H306c-.2 0-.5 0-.5.2 0 .3.3.3.5.3h3.7V16c0 .2 0 .5.3.5.2 0 .2-.3.2-.5zM328 6h-.3l-.9 1c-.1-.1-.7-1-2.2-1-3 0-6 2.9-6 6 0 2 1.5 3.6 3.7 3.6.6 0 1.2-.2 1.6-.4.7-.2 1-.5 1.2-.8.1.4.5.9.6.9l.3-.9.3-1 .1-.7c.2-.6.2-.6 1-.6 0 0 .2 0 .2-.3l-.2-.2H324s-.2 0-.2.3c0 .2 0 .2.3.2h.8c.3 0 .4 0 .4.2l-.3 1.2c-.4 1.5-2.1 1.6-2.6 1.6-1.3 0-2.6-.7-2.6-2.7 0-.5 0-2.6 1.5-4.4.7-.9 2-1.7 3.3-1.7 1.4 0 2.1 1 2.1 2.6v.7l.2.1c.2 0 .2 0 .2-.3zM334.7 4.6l.6-.5c.4-.3.7-.3.8-.3.1 0 .3 0 .3-.2l-.2-.2h-1.7s-.2 0-.2.2.1.2.2.2l.3.1c0 .1 0 .2-.2.3l-.1.2-2.3 2.4-1.3-2.7v-.2l.5-.1s.2 0 .2-.2l-.1-.2h-2.3c-.1 0-.2 0-.2.2s0 .2.2.2c.6 0 .6 0 .7.3l1.4 3.1L331 9c-.1.5-.1.5-.8.6l-.3.1.1.2h2.4s.2 0 .2-.2l-.3-.1h-.3c-.2 0-.2-.1-.2-.2l.1-.7.3-1.2.2-.2zM331.7 12a5.6 5.6 0 0 0-2.2 4.6c0 1.3.4 3.3 2.2 4.6l.2-.1V21c-1.3-1.2-1.8-2.7-1.8-4.4 0-2.5 1-3.8 1.7-4.5h.1c0-.2-.1-.2-.2-.2zM336.6 18.1l-.1.6c0 .2.2.3.3.3l.4-.2.1-.6.2-.8.2-.7.3-.7c.3-.4.7-1 1.5-1 .5 0 .5.5.5.7 0 .6-.4 1.6-.5 2l-.2.5c0 .5.4.8.9.8 1 0 1.3-1.3 1.3-1.4v-.2c-.2 0-.2.1-.3.2-.2.7-.6 1.1-1 1.1-.2 0-.2-.1-.2-.3l.2-.8c.1-.2.5-1.2.5-1.8 0-.1 0-.5-.3-.8l-.9-.2c-.8 0-1.3.5-1.6 1-.1-.9-.8-1-1.2-1a2 2 0 0 0-1.6.8c0-.6-.6-.8-1-.8s-.6.3-.8.5c-.2.3-.3.9-.3 1h.2l.2-.2c.1-.6.3-1 .7-1 .2 0 .3.1.3.4l-.2.8-.2.8-.3 1.2v.4c0 .2 0 .3.2.3l.4-.2.2-.6.2-.8.1-.7.4-.8c.3-.4.7-.9 1.4-.9.6 0 .6.5.6.7l-.2.9zm7.4.6c0 .5-.1 1.1-.8 1.7v.2c.2 0 1-.7 1-1.8 0-.5-.2-1-.6-1-.3 0-.6.3-.6.5 0 .4.2.6.6.6l.4-.2zm4.2-5.6c0-.2-.1-.4-.4-.4-.3 0-.5.3-.5.5s0 .4.3.4.6-.3.6-.5zm-2 4.7v.4c0 .4.4.8.9.8.9 0 1.3-1.3 1.3-1.4l-.1-.2c-.2 0-.2.1-.2.2-.2.7-.6 1.1-1 1.1-.2 0-.2 0-.2-.3l.1-.6.3-.7c0-.3.4-1.1.5-1.2v-.3c0-.5-.4-.8-.9-.8-.9 0-1.3 1.3-1.3 1.4l.1.1.2-.1c.2-.8.7-1.2 1-1.2.2 0 .2.1.2.4l-.2 1zM353.3 16v-.2l-.2-.1h-.8l-.1.1v.2H352.4c.2 0 .2.1.2.2l-.1.3-.3 1.3a1 1 0 0 0-.8-.4 2 2 0 0 0-1.9 1.8c0 .7.5 1.2 1.2 1.2.5 0 1-.4 1-.5.1.3.5.5.8.5.3 0 .5-.2.6-.4l.3-.7H353.2c-.2.6-.3.8-.6.8-.2 0-.2-.1-.2-.3v-.2zm-1.4 3.4-.2.3c-.2.2-.6.4-1 .4-.1 0-.5 0-.5-.6l.4-1.4c.3-.4.6-.5.9-.5.3 0 .6.2.7.6zM355.3 12h-.2l.1.2c.8.7 1.7 2 1.7 4.4 0 1.9-.6 3.4-1.6 4.3l-.2.2.2.1s1-.6 1.6-1.8c.4-.7.7-1.7.7-2.8 0-1.4-.4-3.4-2.3-4.7zM364.2 15.7c0-1.2 0-1.6.7-2.4.2-.2.6-.6 1.5-1 .2-.1.2-.1.2-.3v-.3h-.3c-1.4-.7-2-1.9-2-2.7V3.5c0-.7 0-1.5-.7-2.1l-1.2-1-1.2-.4c-.3 0-.3 0-.3.3l.1.2c.5.2 2 .9 2.2 2.2v5.6c0 .8 0 1 .2 1.4.4 1.2 1.5 1.9 2.4 2.2-1.5.7-2.3 1.6-2.5 2.5V21c0 1-1 1.9-2.2 2.4-.2.1-.2.1-.2.3 0 .3 0 .3.3.3s1.3-.5 1.9-1c.4-.3 1.1-1 1.1-2v-3.1zm0 0"/></g></svg>