<svg xmlns="http://www.w3.org/2000/svg" width="287.8" height="30"><g aria-label="∑ x∈X RP X(m,i,α),x =1,∀(m,i)∈C,∀α∈{0,1,2,3,4}"><path d="m21.6 18.6 1.6-4.3H23c-.5 1.4-2 2.3-3.4 2.7-.3 0-1.6.4-4.2.4h-8l6.8-7.9v-.4L7.9.6h7.3c1.8 0 3 .2 3.1.2.7.2 1.9.4 3 1 .2.3 1.2.9 1.6 2h.3L21.6 0h-16v.5l7 9.6-6.9 8.1-.1.3h.3zM1.9 28.3c-.1.4-.4.9-1 .9L.6 29c.4 0 .4-.4.4-.5 0-.2-.2-.3-.4-.3s-.5.2-.5.6c0 .4.5.6 1 .6.4 0 .8-.2 1-.6.2.5.8.6 1.1.6 1 0 1.7-1.1 1.7-1.4l-.2-.1-.2.1c-.2.7-.7 1.2-1.2 1.2-.4 0-.6-.3-.6-.6l.5-2.2c.2-.7.6-1 .9-1 0 0 .3 0 .5.2-.3.1-.4.4-.4.5 0 .2.1.4.4.4.2 0 .5-.2.5-.6 0-.5-.6-.7-1-.7-.5 0-.8.3-1 .7-.2-.4-.6-.7-1.2-.7-1 0-1.6 1.2-1.6 1.5H.5c.3-.8.9-1.2 1.3-1.2.3 0 .6.2.6.6l-.2 1zM11.3 27.2c.2 0 .4 0 .4-.2s-.2-.2-.4-.2H7a2.6 2.6 0 0 1 2.8-2.4h1.5c.2 0 .4 0 .4-.2s-.2-.2-.4-.2H9.7a3.1 3.1 0 0 0-3.1 3 3 3 0 0 0 3.1 3h1.6c.2 0 .4 0 .4-.2s-.2-.2-.4-.2H9.8c-1.5 0-2.6-1-2.8-2.4zM17.9 25.8l.9-1c1.2-1 1.5-1.4 2.4-1.5 0 0 .2 0 .2-.2l-.1-.1h-1.9c-.2 0-.3 0-.3.2l.2.1s.3 0 .3.3l-.2.3-1.6 1.6-1-1.8v-.1c0-.1.1-.3.5-.3 0 0 .2 0 .2-.2l-.2-.1H15s-.2 0-.2.2l.3.1c.5 0 .6.1.7.3l1.3 2.6-.5.5-.8.7c-1.2 1.2-1.5 1.6-2.4 1.6-.1 0-.2 0-.2.2l.1.1h2s.2 0 .2-.2l-.2-.1c-.1 0-.3 0-.3-.2s.1-.3.3-.5l2-1.9 1 2.2.1.2s-.2.2-.5.2c0 0-.2 0-.2.2l.2.1H20s.2 0 .2-.2l-.2-.1c-.6 0-.6-.1-.7-.3zM28.4 26H28c0 .4-.3.6-.5.6-.4 0-.5-.5-.6-1v-.5c-.1-.3-.5-.6-.9-.7.5-.1 1.3-.4 1.3-1 0-.7-1-1.3-2.2-1.3h-2.5v.3h.2c.6 0 .6.1.6.3v3.4c0 .2 0 .3-.6.3h-.2v.3h2.1v-.3h-.1c-.6 0-.6 0-.6-.3v-1.6h1c.4 0 .7.1 1 .3.2.2.2.3.2.7 0 .6 0 .8.3 1 .3.3.7.3 1 .3.6 0 .8-.5.8-.7zm-1.8-2.6c0 .7-.8.9-1.4.9h-1v-1.6l.1-.3h.5c.8 0 1.8 0 1.8 1zM35.5 8.4h2.3c1.8 0 3.7-1.4 3.7-2.8 0-1-.9-2-2.6-2h-4.3c-.3 0-.4 0-.4.2s0 .2.4.2h.5c.2 0 .3 0 .3.2v.2l-1.8 7.2c-.1.5-.2.6-1.2.6-.3 0-.4 0-.4.3l.2.1h3.4c.1 0 .3 0 .3-.2s-.1-.2-.4-.2c-.5 0-.9 0-.9-.2v-.3zm1-4c0-.4.1-.4.7-.4h1.2c1.2 0 1.9.3 1.9 1.2 0 .6-.3 1.7-.8 2.2a3 3 0 0 1-2 .7h-2zM47 3.6l.9-.9c1.2-1.2 1.6-1.5 2.4-1.6.1 0 .2 0 .2-.2l-.1-.1h-1.9c-.1 0-.2 0-.2.2V1c.2 0 .4 0 .4.3l-.2.3-1.6 1.6-1-1.8v-.1c0-.1.2-.3.5-.3 0 0 .2 0 .2-.2l-.2-.1h-2.3s-.2 0-.2.2l.3.1c.6 0 .6.1.7.3L46.2 4l-.5.5-.8.7c-1.1 1.2-1.5 1.6-2.3 1.6-.2 0-.3 0-.3.2l.1.1h2s.2 0 .2-.2l-.2-.1s-.3 0-.3-.2.2-.3.4-.5l1.8-1.9 1.2 2.2v.2s-.2.2-.5.2c0 0-.2 0-.2.2l.2.1h2.3s.2 0 .2-.2l-.3-.1c-.6 0-.6-.1-.7-.3zM43.3 9.3a5.6 5.6 0 0 0-2.2 4.6c0 1.3.4 3.3 2.2 4.6h.2l-.1-.2c-1.2-1.1-1.7-2.7-1.7-4.4 0-2.5 1-3.7 1.7-4.4v-.1l-.1-.1zM48.2 15.5l-.1.5c0 .2.1.3.3.3l.3-.2.2-.6a17.1 17.1 0 0 0 .4-1.4c0-.4 0-.4.3-.7.3-.5.7-1 1.4-1 .6 0 .6.4.6.6 0 .6-.4 1.6-.6 2v.5c0 .5.3.8.8.8 1 0 1.3-1.3 1.3-1.4l-.1-.1-.2.1c-.2.8-.6 1.2-1 1.2-.2 0-.2-.2-.2-.4l.2-.7c.1-.3.5-1.3.5-1.8 0-.2 0-.5-.3-.8-.2-.1-.5-.3-1-.3-.7 0-1.3.6-1.6 1 0-.8-.7-1-1.2-1a2 2 0 0 0-1.5.9c-.1-.7-.7-.9-1-.9-.4 0-.7.3-.8.5l-.3 1h.2l.2-.2c0-.6.3-1 .6-1s.3.2.3.4l-.1.8-.2.9-.3 1.2-.1.3c0 .2.2.3.3.3l.4-.2.1-.6.3-.8.1-.6c.1-.4.1-.5.4-.9.3-.3.7-.8 1.4-.8.5 0 .5.5.5.6l-.1 1zm7.3.6c0 .5 0 1-.7 1.7v.2c.2 0 1-.7 1-1.8 0-.6-.2-1-.6-1-.4 0-.6.2-.6.5s.2.5.6.5l.3-.1zm4.2-5.7c0-.1 0-.3-.3-.3s-.5.2-.5.5c0 .1 0 .3.3.3s.5-.2.5-.5zm-1.9 4.7v.4c0 .5.3.8.8.8 1 0 1.4-1.3 1.4-1.4l-.2-.1-.2.1c-.2.8-.6 1.2-1 1.2-.1 0-.2-.1-.2-.4l.2-.6.3-.7.4-1.2.1-.3c0-.4-.4-.8-.9-.8-1 0-1.3 1.3-1.3 1.5H57.5c.2-.9.6-1.2 1-1.2.1 0 .2 0 .2.3 0 .2 0 .4-.3 1zm4.7 1c0 .5-.1 1-.8 1.7v.2c.2 0 1-.7 1-1.8 0-.6-.2-1-.6-1-.3 0-.6.2-.6.5s.2.5.6.5l.4-.1zm6.2-1.2a5 5 0 0 0 1.2-2.2l-.1-.1c-.2 0-.2 0-.2.2a5 5 0 0 1-.9 1.7v-.8c-.2-1-.9-1.6-1.8-1.6-1.4 0-2.7 1.3-2.7 2.6 0 .9.6 1.6 1.7 1.6.9 0 1.6-.4 2.2-.8.2.7.6.8 1 .8.5 0 .8-.4.8-.6l-.2-.1h-.1c-.2.4-.4.5-.5.5-.2 0-.3 0-.4-1.2zm-.7.3c-1 .8-1.7.9-2 .9-.7 0-1-.4-1-1 0-.3.1-1.4.6-2 .4-.6 1-.7 1.3-.7.7 0 1 .7 1 1.3l.1 1.5zM71.4 9.3h-.2l.1.2c.8.7 1.7 2 1.7 4.4 0 2-.6 3.4-1.6 4.3l-.2.2.1.1c.1 0 1-.6 1.6-1.7.5-.8.7-1.8.7-2.9 0-1.3-.4-3.3-2.2-4.6zM76.7 16c0 .6-.1 1.2-.8 1.8v.1l.1.1c.1 0 1-.7 1-1.8 0-.6-.3-1-.7-1-.3 0-.5.2-.5.5s.2.5.5.5l.4-.1zm3.5-.8c-.1.4-.4.9-.9.9 0 0-.3 0-.5-.2.4 0 .4-.4.4-.5 0-.2-.2-.3-.4-.3s-.5.2-.5.6c0 .4.5.6 1 .6.4 0 .8-.2 1-.6.2.5.8.6 1.1.6 1.1 0 1.7-1.1 1.7-1.4l-.2-.1-.2.1c-.2.7-.7 1.2-1.2 1.2-.4 0-.6-.3-.6-.6l.5-2.2c.2-.7.6-1 .9-1 0 0 .3 0 .5.2-.3.1-.4.4-.4.5 0 .2.1.4.4.4.2 0 .5-.2.5-.6 0-.5-.6-.7-1-.7-.5 0-.8.3-1 .7-.2-.4-.6-.7-1.1-.7-1 0-1.7 1.2-1.7 1.5h.4c.2-.8.8-1.2 1.2-1.2.3 0 .6.2.6.6l-.2 1zM97.4 8.3c.2 0 .4 0 .4-.3s-.2-.3-.4-.3h-8c-.2 0-.4 0-.4.3s.2.3.4.3zm0 2.6c.2 0 .4 0 .4-.3s-.2-.3-.4-.3h-8c-.2 0-.4 0-.4.3s.2.3.4.3zM106 4c0-.3 0-.3-.3-.3-.8.8-2 .8-2.4.8V5c.3 0 1 0 1.8-.3v6.9c0 .4 0 .6-1.3.6h-.4v.4H107.8v-.4h-.4c-1.2 0-1.3-.1-1.3-.6zM111.6 12.6c0-.9-.3-1.4-.9-1.4-.4 0-.7.3-.7.7 0 .4.3.7.7.7.2 0 .4 0 .5-.2l.1.2c0 1-.5 1.8-.9 2.2l-.1.2v.2c.2 0 1.3-1 1.3-2.6zM122.1 3.9l.1-.2c0-.2-.1-.3-.3-.3l-.3.3-1 3h-4.1l-1.1-3-.3-.3c-.2 0-.3.1-.3.3v.2l3.4 8.7c0 .2.1.3.3.3.2 0 .2-.1.3-.3zm-5.4 3.3h3.6l-1.8 4.7zM126.6 15.8l-.2-.3c-1.7-1.7-2.1-4.2-2.1-6.2 0-2.3.5-4.6 2.1-6.3l.2-.2c0-.1 0-.2-.2-.2 0 0-1.3 1-2 2.6a9.9 9.9 0 0 0 0 8.2c.8 1.7 2 2.5 2 2.5l.2-.1zM128.5 11.8l-.1.6c0 .2.2.4.4.4.1 0 .4-.1.5-.4l.2-1 .3-1.2.3-.9.1-.6c.2-.5 1-1.7 2.2-1.7.6 0 .7.5.7 1 0 .3 0 .7-.2 1l-.4 1.6-.2 1-.2.8c0 .2.2.4.4.4.4 0 .5-.4.6-.8l.8-3.2c0-.2.7-1.8 2.2-1.8.5 0 .7.5.7 1 0 .7-.6 2.2-.8 3-.2.3-.2.4-.2.7 0 .6.5 1 1 1 1.3 0 1.8-1.9 1.8-2l-.1-.1c-.2 0-.2 0-.2.2-.2.7-.7 1.7-1.4 1.7-.2 0-.3-.2-.3-.5l.2-1c.3-.6.8-2 .8-2.8 0-.9-.5-1.5-1.5-1.5s-1.7.6-2.2 1.3c0-.1 0-.6-.4-1-.3-.2-.7-.3-1-.3-1.3 0-2 .9-2.1 1.2-.1-.8-.7-1.2-1.3-1.2-.6 0-.8.6-1 .8l-.4 1.3.2.1.2-.3c.3-1 .5-1.6 1-1.6.2 0 .4.1.4.6l-.2 1.2zm13.2.8c0-.9-.3-1.4-.8-1.4s-.7.3-.7.7c0 .4.2.7.7.7.1 0 .3 0 .4-.2l.1.2c0 1-.4 1.8-.9 2.2l-.1.2.1.2c.2 0 1.2-1 1.2-2.6zm7-8.3c0-.2-.2-.5-.5-.5-.4 0-.7.4-.7.7 0 .3.1.5.5.5.3 0 .7-.3.7-.7zm-1 5 .3-.8.1-.7c0-.6-.4-1-1-1-1.3 0-1.8 1.9-1.8 2l.1.1c.2 0 .2 0 .2-.2.4-1.3 1-1.7 1.4-1.7.1 0 .3 0 .3.5l-.1.6-1 2.5-.2 1c0 .7.4 1.2 1 1.2 1.3 0 1.8-2 1.8-2 0-.2-.1-.2-.2-.2l-.2.2c-.2.9-.6 1.7-1.3 1.7-.2 0-.3-.2-.3-.5s0-.5.3-1.3zM153.3 9.3c0-1-.1-2.7-.8-4.2-.8-1.6-2-2.5-2.1-2.5l-.2.2.3.3c1.3 1.3 2 3.4 2 6.2 0 2.3-.4 4.6-2 6.3l-.3.2.2.1c.1 0 1.3-.9 2.1-2.5.7-1.5.8-3 .8-4.1zM165.6 9.6c.2 0 .5 0 .5-.3s-.3-.3-.5-.3H160c.2-1.7 1.7-3 3.6-3h2c.2 0 .5 0 .5-.3s-.3-.3-.5-.3h-2c-2.3 0-4.1 1.8-4.1 3.9a4 4 0 0 0 4 3.8h2.1c.2 0 .5 0 .5-.2 0-.3-.3-.3-.5-.3h-2c-2 0-3.4-1.3-3.6-3zM181 3.4l-.2-.1-.2.1-.9 1c-.1-.2-.7-1.1-2.2-1.1-3 0-6 2.9-6 6 0 2.2 1.6 3.6 3.7 3.6 1.1 0 2.1-.5 2.8-1.1 1.3-1.1 1.5-2.3 1.5-2.4l-.2-.1-.1.1c-.2.4-.5 1.4-1.4 2.1-1 .8-1.7 1-2.4 1-1.2 0-2.6-.7-2.6-2.8 0-.7.3-2.9 1.6-4.4.8-1 2-1.6 3.2-1.6 1.4 0 2.2 1 2.2 2.5V7l.1.1c.2 0 .2 0 .2-.2zm2.3 9.2c0-.9-.4-1.4-.9-1.4-.4 0-.7.3-.7.7 0 .4.3.7.7.7.2 0 .3 0 .5-.2v.2c0 1-.4 1.8-.8 2.2l-.2.2.2.2c.1 0 1.2-1 1.2-2.6zM193.8 3.9v-.2c0-.2 0-.3-.2-.3l-.3.3-1 3h-4.1l-1.1-3-.3-.3c-.2 0-.3.1-.3.3v.2l3.4 8.7c0 .2.1.3.3.3.2 0 .2-.1.3-.3zm-5.4 3.3h3.6l-1.8 4.7zM200.2 9.5c0-2.1-1.2-2.8-2.2-2.8-1.8 0-3.6 2-3.6 3.8 0 1.3.8 2.3 2.2 2.3.8 0 1.8-.3 2.8-1.2.2.8.6 1.2 1.2 1.2.7 0 1.1-.8 1.1-1l-.2-.1-.1.1c-.3.7-.7.7-.8.7-.4 0-.4-1-.4-1.4 0-.3 0-.3.2-.5a7.7 7.7 0 0 0 1.5-3s0-.2-.2-.2l-.2.3c-.2.8-.7 1.8-1.3 2.6zm-.9 1.8a4.2 4.2 0 0 1-2.7 1.2c-.8 0-1.2-.6-1.2-1.5 0-.6.4-2 .8-2.7.6-1 1.3-1.3 1.8-1.3 1.3 0 1.3 1.8 1.3 2.8v1.5zM213.4 9.6c.2 0 .5 0 .5-.3s-.3-.3-.5-.3h-5.6c.1-1.7 1.6-3 3.5-3h2.1c.2 0 .5 0 .5-.3s-.3-.3-.5-.3h-2c-2.4 0-4.2 1.8-4.2 3.9a4 4 0 0 0 4.1 3.8h2.1c.2 0 .5 0 .5-.2 0-.3-.3-.3-.5-.3h-2c-2 0-3.5-1.3-3.6-3zm9-5.2c0-.5.4-1.4 1.8-1.5l.1-.1c0-.2 0-.2-.2-.2-1.4 0-2.6.7-2.6 1.7v3c0 .6 0 1-.5 1.4-.5.4-1 .4-1.3.4l-.1.2.2.1c.9 0 1.5.6 1.7 1.2V14c0 .6 0 1 .6 1.5.6.4 1.5.5 2 .5l.2-.1-.2-.2c-.8 0-1.5-.4-1.7-1.1V11c0-.6-.1-.9-.5-1.3-.3-.3-.7-.4-1-.5 1-.3 1.5-1 1.5-1.7zM231.4 8.4c0-1.1 0-2.2-.5-3.1a2.4 2.4 0 0 0-2.3-1.5c-.8 0-1.7.3-2.3 1.6a7 7 0 0 0-.5 3c0 1 0 2.2.6 3.2s1.6 1.3 2.2 1.3c.7 0 1.7-.3 2.3-1.5.5-1 .5-2 .5-3zm-2.8 4.2c-.5 0-1.3-.3-1.5-1.6-.2-.8-.2-2-.2-2.8l.1-2.4c.3-1.6 1.3-1.7 1.6-1.7.5 0 1.3.2 1.6 1.5l.1 2.6-.1 2.8c-.2 1.2-1 1.6-1.6 1.6zM234.7 12.6c0-.9-.4-1.4-1-1.4-.3 0-.6.3-.6.7 0 .4.3.7.7.7.1 0 .3 0 .5-.2v.2c0 1-.4 1.8-.9 2.2v.4c.2 0 1.3-1 1.3-2.6zM241.8 4.1c0-.3 0-.3-.4-.3-.8.8-2 .8-2.4.8V5c.3 0 1 0 1.8-.3v6.9c0 .4 0 .6-1.3.6h-.4v.4H243.4v-.4h-.4c-1.2 0-1.2-.1-1.2-.6zM247.2 12.6c0-.9-.3-1.4-.9-1.4-.4 0-.7.3-.7.7 0 .4.3.7.7.7.2 0 .4 0 .5-.2l.1.2c0 1-.5 1.8-.9 2.2l-.1.2v.2c.2 0 1.3-1 1.3-2.6zM252 11.6l1.5-1.4c2-1.8 2.9-2.5 2.9-3.8 0-1.6-1.2-2.6-2.9-2.6a2.4 2.4 0 0 0-2.4 2.4c0 .7.6.7.7.7.2 0 .7-.1.7-.7 0-.3-.3-.7-.7-.7h-.2a2 2 0 0 1 1.8-1.3c1.2 0 1.7 1 1.7 2.2 0 1-.6 2-1.3 2.9l-2.6 2.8-.1.5h4.9l.4-2.3h-.4c0 .4-.1 1-.3 1.2l-1.2.1zM259.7 12.6c0-.9-.3-1.4-.8-1.4s-.7.3-.7.7c0 .4.2.7.7.7.1 0 .3 0 .5-.2v.2c0 1-.4 1.8-.9 2.2l-.1.2.1.2c.2 0 1.2-1 1.2-2.6zM266.8 8c1-.4 1.9-1.4 1.9-2.4s-1.2-1.8-2.5-1.8-2.3.8-2.3 1.8c0 .4.2.7.6.7.4 0 .7-.3.7-.7 0-.7-.6-.7-.8-.7.4-.6 1.3-.8 1.8-.8s1.2.3 1.2 1.5c0 .2 0 1-.3 1.5-.4.6-.9.7-1.2.7h-.5c-.1 0-.2 0-.2.2l.3.1h.6c1 0 1.5 1 1.5 2.3 0 1.7-.9 2.1-1.5 2.1-.5 0-1.5-.2-2-1 .5.1.9-.2.9-.7 0-.5-.4-.7-.8-.7-.3 0-.7.1-.7.7 0 1.2 1.2 2.1 2.7 2.1 1.6 0 2.8-1.2 2.8-2.5 0-1.1-.8-2.2-2.2-2.5zM272.3 12.6c0-.9-.4-1.4-.9-1.4-.4 0-.7.3-.7.7 0 .4.3.7.7.7.2 0 .4 0 .5-.2v.2c0 1-.4 1.8-.8 2.2l-.2.2.2.2c.1 0 1.2-1 1.2-2.6zM279.4 10.4v1.2c0 .5 0 .6-1 .6h-.3v.4h3.6v-.4h-.3c-1 0-1-.1-1-.6v-1.2h1.3V10h-1.3V4c0-.3 0-.4-.2-.4l-.3.2-4 6.2v.4zm0-.4h-3.2l3.3-5zM285 14.2c0 .5-.3 1.4-1.8 1.4l-.1.2.3.1c1.2 0 2.5-.6 2.5-1.6v-3c0-.6 0-1 .5-1.4.5-.4 1-.4 1.3-.5l.1-.1-.2-.2c-.9 0-1.5-.5-1.7-1.1V4.7c0-.6 0-1-.6-1.5-.6-.4-1.5-.6-2-.6 0 0-.2 0-.2.2l.2.1c.8.1 1.5.5 1.7 1.2v3.4c0 .6.1.9.5 1.3.3.3.7.4 1 .5-1 .3-1.5 1-1.5 1.7zm0 0"/></g></svg>