<svg xmlns="http://www.w3.org/2000/svg" width="286.3" height="31.2"><g aria-label="∑ y∈Y RP Y(m,i,α),y =1,∀(m,i)∈C,∀α∈{0,1,2,3,4}"><path d="m21 18.6 1.6-4.3h-.3c-.5 1.4-2 2.3-3.4 2.7-.3 0-1.6.4-4.2.4h-8l6.8-7.9.1-.2-.1-.2L7.3.6h7.3c1.8 0 3 .2 3.1.2.7.2 1.9.4 3 1 .3.3 1.2.9 1.6 2h.3L21 0H5v.5l7 9.6L5 18.2l-.1.3h.3zM4.7 25.8v-.2c0-.2 0-.3-.2-.3-.1 0-.3 0-.4.3l-.2.5-.2.8-.3 1.5s-.4.8-1.2.8c-.6 0-.6-.6-.6-.8 0-.5.2-1.1.5-1.8l.1-.6c0-.4-.3-.8-.8-.8-1 0-1.4 1.3-1.4 1.5H.3c.3-.9.7-1.2 1-1.2.2 0 .3.1.3.3l-.2.6c-.4 1-.5 1.4-.5 1.8 0 .2 0 .6.4 1a1.5 1.5 0 0 0 1.9-.2 3 3 0 0 1-.6 1.4c-.3.3-.6.6-1.1.6 0 0-.5 0-.7-.3.5 0 .5-.5.5-.6 0-.3-.3-.3-.4-.3-.2 0-.5.2-.5.6 0 .5.4.8 1 .8 1 0 2.2-.7 2.4-1.9zM11 27.2c.2 0 .4 0 .4-.2s-.2-.2-.4-.2H6.8a2.6 2.6 0 0 1 2.7-2.4H11c.2 0 .4 0 .4-.2s-.2-.2-.4-.2H9.4a3.1 3.1 0 0 0-3.1 3 3 3 0 0 0 3.1 3H11c.2 0 .4 0 .4-.2s-.2-.2-.4-.2H9.5c-1.5 0-2.6-1-2.7-2.4zM18.7 24.1l.6-.5c.4-.3.7-.3.9-.3 0 0 .2 0 .2-.2l-.2-.1h-1.7s-.2 0-.2.2l.2.1c.3 0 .3.1.3.2l-.2.2-.1.2-2.3 2.5-1.3-2.8v-.1c0-.2.4-.2.5-.2.1 0 .2 0 .2-.2l-.1-.1h-2.3c-.1 0-.2 0-.2.2l.2.1c.6 0 .6 0 .7.3l1.4 3.2-.4 1.7c-.1.5-.1.5-.8.5-.2 0-.3 0-.3.2l.1.1h2.4s.3 0 .3-.2l-.4-.1H16c-.2 0-.2 0-.2-.2l.1-.7.3-1.1c0-.2 0-.2.2-.3zM27.2 26H26.9c0 .4-.3.6-.5.6-.4 0-.5-.5-.6-1v-.5c-.1-.3-.5-.6-.9-.7.5-.1 1.3-.4 1.3-1 0-.7-1-1.3-2.1-1.3h-2.6v.3h.2c.6 0 .6.1.6.3v3.4c0 .2 0 .3-.6.3h-.2v.3h2.1v-.3h-.1c-.5 0-.5 0-.5-.3v-1.6h1c.3 0 .6.1.8.3.3.2.3.3.3.7 0 .6 0 .8.3 1 .3.3.7.3 1 .3.6 0 .8-.5.8-.7zm-1.8-2.6c0 .7-.8.9-1.4.9h-1v-1.6c0-.2 0-.2.2-.3h.4c.8 0 1.8 0 1.8 1zM34.3 8.4h2.3c1.9 0 3.7-1.4 3.7-2.8 0-1-.9-2-2.6-2h-4.3c-.3 0-.4 0-.4.2s.1.2.4.2h.5c.2 0 .3 0 .3.2v.2l-1.8 7.2c-.1.5-.2.6-1.2.6-.2 0-.4 0-.4.3l.2.1H34.4c.1 0 .3 0 .3-.2s-.1-.2-.4-.2c-.5 0-.9 0-.9-.2v-.3zm1-4c0-.4.1-.4.7-.4h1.3c1 0 1.8.3 1.8 1.2 0 .6-.3 1.7-.8 2.2a3 3 0 0 1-2 .7h-2zM47 1.9l.5-.5c.4-.3.8-.3.9-.3 0 0 .2 0 .2-.2l-.1-.1h-1.8l-.1.2.1.1c.3 0 .3.1.3.2l-.1.2-.2.2-2.3 2.5-1.2-2.8-.1-.1c0-.2.4-.2.5-.2.1 0 .2 0 .2-.2l-.1-.1h-2.3s-.2 0-.2.2l.3.1c.5 0 .5.1.6.3l1.5 3.2-.5 1.7c0 .5 0 .5-.8.5-.2 0-.3 0-.3.2l.2.1H44.6s.2 0 .2-.2l-.3-.1H44c-.2 0-.2 0-.2-.2L44 6l.3-1.1v-.3zM42.1 9.3a5.6 5.6 0 0 0-2.2 4.6c0 1.3.4 3.3 2.2 4.6h.2v-.2c-1.3-1.1-1.8-2.7-1.8-4.4 0-2.5 1-3.7 1.7-4.4l.1-.1-.2-.1zM47 15.5l-.1.5c0 .2.1.3.3.3.2 0 .3-.1.3-.2l.2-.6a17.1 17.1 0 0 0 .4-1.4c0-.4 0-.4.3-.7.3-.5.7-1 1.5-1 .5 0 .5.4.5.6 0 .6-.4 1.6-.5 2l-.2.5c0 .5.4.8.9.8 1 0 1.3-1.3 1.3-1.4l-.1-.1-.2.1c-.2.8-.6 1.2-1 1.2-.2 0-.2-.2-.2-.4l.2-.7c.1-.3.5-1.3.5-1.8 0-.2 0-.5-.3-.8-.2-.1-.5-.3-1-.3-.7 0-1.3.6-1.6 1 0-.8-.7-1-1.2-1a2 2 0 0 0-1.5.9c-.1-.7-.6-.9-1-.9s-.6.3-.8.5l-.3 1h.2l.2-.2c.1-.6.3-1 .6-1s.3.2.3.4v.8l-.3.9-.3 1.2v.3c0 .2 0 .3.2.3l.4-.2.2-.6.2-.8.1-.6c.1-.4.1-.5.4-.9.3-.3.7-.8 1.4-.8.5 0 .5.5.5.6l-.1 1zm7.4.6c0 .5-.1 1-.8 1.7v.2c.2 0 1-.7 1-1.8 0-.6-.2-1-.6-1-.3 0-.6.2-.6.5s.2.5.6.5l.4-.1zm4.2-5.7c0-.1-.2-.3-.4-.3-.3 0-.5.2-.5.5 0 .1 0 .3.3.3s.6-.2.6-.5zm-2 4.7v.4c0 .5.3.8.9.8.9 0 1.3-1.3 1.3-1.4l-.2-.1-.1.1c-.2.8-.6 1.2-1 1.2-.2 0-.3-.1-.3-.4l.2-.6.3-.7.4-1.2.1-.3c0-.4-.4-.8-.9-.8-.9 0-1.3 1.3-1.3 1.5H56.3c.2-.9.6-1.2 1-1.2.1 0 .2 0 .2.3 0 .2 0 .4-.3 1zm4.7 1c0 .5-.1 1-.8 1.7v.2c.2 0 1-.7 1-1.8 0-.6-.2-1-.6-1-.3 0-.6.2-.6.5s.2.5.6.5l.4-.1zm6.2-1.2a5 5 0 0 0 1.2-2.2l-.1-.1c-.2 0-.2 0-.2.2a5 5 0 0 1-.9 1.7v-.8c-.2-1-.9-1.6-1.8-1.6-1.4 0-2.7 1.3-2.7 2.6 0 .9.6 1.6 1.7 1.6.9 0 1.7-.4 2.2-.8.2.7.7.8 1 .8.5 0 .8-.4.8-.6l-.1-.1h-.2c-.1.4-.4.5-.5.5-.2 0-.3 0-.4-1.2zm-.7.3c-.9.8-1.7.9-2 .9-.7 0-1-.4-1-1 0-.3.1-1.4.6-2 .4-.6 1-.7 1.3-.7.7 0 1 .7 1 1.3l.1 1.5zM70.2 9.3H70l.1.2c.8.7 1.7 2 1.7 4.4 0 2-.6 3.4-1.6 4.3l-.2.2.1.1c.2 0 1-.6 1.7-1.7.4-.8.6-1.8.6-2.9 0-1.3-.4-3.3-2.2-4.6zM75.5 16c0 .6-.1 1.2-.7 1.8l-.1.1.1.1c.2 0 1-.7 1-1.8 0-.6-.3-1-.7-1-.3 0-.5.2-.5.5s.2.5.5.5l.4-.1zm6.3-3.3v-.2c0-.2 0-.3-.2-.3-.1 0-.3 0-.4.3l-.2.5-.2.8-.3 1.5s-.4.8-1.2.8c-.6 0-.6-.6-.6-.8 0-.5.2-1.1.5-1.8l.1-.6c0-.4-.3-.8-.8-.8-1 0-1.4 1.3-1.4 1.5H77.4c.3-.9.7-1.2 1-1.2.2 0 .3.1.3.3l-.2.6c-.4 1-.5 1.4-.5 1.8 0 .2 0 .6.4 1a1.5 1.5 0 0 0 2-.2 3 3 0 0 1-.7 1.4c-.3.3-.6.6-1.1.6 0 0-.5 0-.7-.3.5 0 .5-.5.5-.6 0-.3-.3-.3-.4-.3-.2 0-.5.2-.5.6 0 .5.4.8 1 .8 1 0 2.2-.7 2.4-1.9zM95.9 8.3c.2 0 .4 0 .4-.3s-.2-.3-.4-.3h-8c-.2 0-.4 0-.4.3s.2.3.4.3zm0 2.6c.2 0 .4 0 .4-.3s-.2-.3-.4-.3h-8c-.2 0-.4 0-.4.3s.2.3.4.3zm8.8-6.8c0-.3 0-.3-.4-.3-.8.8-2 .8-2.4.8V5c.3 0 1 0 1.8-.3v6.9c0 .4 0 .6-1.3.6h-.4v.4H106.3v-.4h-.4c-1.2 0-1.2-.1-1.2-.6zM110.1 12.6c0-.9-.3-1.4-.8-1.4s-.7.3-.7.7c0 .4.2.7.7.7.1 0 .3 0 .4-.2l.1.2c0 1-.5 1.8-.9 2.2l-.1.2v.2c.3 0 1.3-1 1.3-2.6zM120.6 3.9l.1-.2c0-.2-.1-.3-.3-.3l-.3.3-1 3H115l-1.1-3c0-.2-.2-.3-.3-.3-.1 0-.3.1-.3.3v.2l3.4 8.7c0 .2.1.3.3.3.2 0 .2-.1.3-.3zm-5.4 3.3h3.6l-1.8 4.7zM125 15.8l-.1-.3c-1.7-1.7-2.1-4.2-2.1-6.2 0-2.3.5-4.6 2.1-6.3l.2-.2-.1-.2c-.2 0-1.4 1-2.2 2.6-.6 1.5-.8 3-.8 4 0 1.1.2 2.7.9 4.2.8 1.7 2 2.5 2 2.5l.2-.1zM127 11.8v.6c0 .2 0 .4.3.4.2 0 .4-.1.5-.4l.2-1 .3-1.2.3-.9.1-.6c.2-.5 1-1.7 2.2-1.7.6 0 .7.5.7 1 0 .3 0 .7-.2 1l-.4 1.6-.2 1-.2.8c0 .2.2.4.4.4.4 0 .5-.4.6-.8l.8-3.2c0-.2.7-1.8 2.2-1.8.5 0 .7.5.7 1 0 .7-.6 2.2-.8 3-.2.3-.2.4-.2.7 0 .6.5 1 1 1 1.3 0 1.8-1.9 1.8-2l-.1-.1c-.2 0-.2 0-.2.2-.2.7-.7 1.7-1.4 1.7-.2 0-.3-.2-.3-.5l.2-1c.3-.6.8-2 .8-2.8 0-.9-.5-1.5-1.5-1.5s-1.7.6-2.1 1.3c0-.1-.1-.6-.5-1-.3-.2-.7-.3-1-.3-1.3 0-2 .9-2.1 1.2-.1-.8-.7-1.2-1.3-1.2-.6 0-.8.6-1 .8l-.4 1.3.2.1.2-.3c.3-1 .5-1.6 1-1.6.2 0 .4.1.4.6l-.2 1.2zm13.2.8c0-.9-.3-1.4-.8-1.4s-.7.3-.7.7c0 .4.2.7.7.7.1 0 .3 0 .4-.2h.1v.2c0 1-.4 1.8-.9 2.2l-.1.2.1.2c.2 0 1.2-1 1.2-2.6zm7-8.3c0-.2-.2-.5-.5-.5-.4 0-.7.4-.7.7 0 .3.2.5.5.5s.7-.3.7-.7zm-1 5 .3-.8.1-.7c0-.6-.4-1-1-1-1.3 0-1.8 1.9-1.8 2l.2.1.2-.2c.3-1.3.8-1.7 1.3-1.7.1 0 .3 0 .3.5l-.1.6-1 2.5-.2 1c0 .7.4 1.2 1 1.2 1.3 0 1.8-2 1.8-2 0-.2-.1-.2-.2-.2l-.2.2c-.2.9-.6 1.7-1.3 1.7-.2 0-.3-.2-.3-.5s0-.5.4-1.3zM151.8 9.3c0-1-.1-2.7-.8-4.2-.8-1.6-2-2.5-2.1-2.5l-.2.2.3.3c1.3 1.3 2 3.4 2 6.2 0 2.3-.4 4.6-2 6.3l-.3.2.2.1c.1 0 1.3-.9 2.1-2.5.7-1.5.8-3 .8-4.1zM164.1 9.6c.3 0 .5 0 .5-.3s-.2-.3-.5-.3h-5.6c.2-1.7 1.7-3 3.6-3h2c.3 0 .5 0 .5-.3s-.2-.3-.5-.3h-2c-2.3 0-4.1 1.8-4.1 3.9a4 4 0 0 0 4 3.8h2.1c.3 0 .5 0 .5-.2 0-.3-.2-.3-.5-.3h-2c-2 0-3.4-1.3-3.6-3zM179.5 3.4l-.1-.1-.2.1-1 1c0-.2-.7-1.1-2.2-1.1-3 0-6 2.9-6 6 0 2.2 1.6 3.6 3.7 3.6 1.1 0 2.1-.5 2.8-1.1 1.3-1.1 1.5-2.3 1.5-2.4l-.2-.1-.1.1c-.2.4-.5 1.4-1.4 2.1-.9.8-1.7 1-2.4 1-1.2 0-2.6-.7-2.6-2.8 0-.7.3-2.9 1.6-4.4.8-1 2-1.6 3.2-1.6 1.4 0 2.2 1 2.2 2.5V7l.1.1c.2 0 .2 0 .3-.2zm2.3 9.2c0-.9-.4-1.4-.9-1.4-.4 0-.7.3-.7.7 0 .4.3.7.7.7.2 0 .4 0 .5-.2v.2c0 1-.4 1.8-.8 2.2l-.2.2.2.2c.1 0 1.2-1 1.2-2.6zM192.3 3.9l.1-.2c0-.2-.1-.3-.3-.3l-.3.3-1 3h-4.1l-1.1-3c0-.2-.1-.3-.3-.3-.1 0-.3.1-.3.3v.2l3.4 8.7c0 .2.1.3.3.3.2 0 .3-.1.3-.3zM187 7.2h3.6l-1.8 4.7zM198.7 9.5c0-2.1-1.2-2.8-2.2-2.8-1.8 0-3.6 2-3.6 3.8 0 1.3.8 2.3 2.2 2.3.8 0 1.8-.3 2.8-1.2.2.8.6 1.2 1.2 1.2.7 0 1.1-.8 1.1-1l-.2-.1-.1.1c-.3.7-.7.7-.8.7-.4 0-.4-1-.4-1.4 0-.3 0-.3.2-.5a7.7 7.7 0 0 0 1.5-3s0-.2-.2-.2l-.2.3c-.2.8-.7 1.8-1.3 2.6zm-.9 1.8a4.2 4.2 0 0 1-2.7 1.2c-.8 0-1.2-.6-1.2-1.5 0-.6.4-2 .8-2.7.6-1 1.3-1.3 1.8-1.3 1.3 0 1.3 1.8 1.3 2.8v1.5zM212 9.6c.1 0 .4 0 .4-.3s-.3-.3-.5-.3h-5.6c.1-1.7 1.7-3 3.5-3h2.1c.2 0 .5 0 .5-.3s-.3-.3-.5-.3h-2c-2.4 0-4.2 1.8-4.2 3.9a4 4 0 0 0 4.1 3.8h2.1c.2 0 .5 0 .5-.2 0-.3-.3-.3-.5-.3h-2c-2 0-3.5-1.3-3.6-3zm9-5.2c0-.5.3-1.4 1.7-1.5l.1-.1c0-.2 0-.2-.2-.2-1.4 0-2.6.7-2.6 1.7v3c0 .6 0 1-.5 1.4-.5.4-1 .4-1.3.4v.2l.1.1c.9 0 1.5.6 1.7 1.2V14c0 .6 0 1 .7 1.5.5.4 1.4.5 1.9.5l.2-.1-.2-.2c-.8 0-1.5-.4-1.6-1.1V11c0-.6-.2-.9-.6-1.3-.3-.3-.7-.4-1-.5 1-.3 1.5-1 1.5-1.7zM230 8.4c0-1.1-.1-2.2-.6-3.1a2.4 2.4 0 0 0-2.3-1.5c-.8 0-1.7.3-2.3 1.6a7 7 0 0 0-.5 3c0 1 0 2.2.6 3.2s1.6 1.3 2.2 1.3c.7 0 1.7-.3 2.3-1.5.5-1 .5-2 .5-3zm-2.9 4.2c-.5 0-1.3-.3-1.5-1.6-.2-.8-.2-2-.2-2.8 0-.8 0-1.7.2-2.4.2-1.6 1.2-1.7 1.5-1.7.5 0 1.3.2 1.6 1.5l.1 2.6-.1 2.8c-.2 1.2-1 1.6-1.6 1.6zM233.2 12.6c0-.9-.4-1.4-.9-1.4-.4 0-.7.3-.7.7 0 .4.3.7.7.7.2 0 .3 0 .5-.2v.2c0 1-.4 1.8-.8 2.2l-.2.2.1.2c.2 0 1.3-1 1.3-2.6zM240.3 4.1c0-.3 0-.3-.3-.3-.9.8-2 .8-2.4.8V5c.2 0 1 0 1.7-.3v6.9c0 .4 0 .6-1.2.6h-.5v.4H242v-.4h-.4c-1.2 0-1.2-.1-1.2-.6zM245.7 12.6c0-.9-.3-1.4-.9-1.4-.4 0-.7.3-.7.7 0 .4.3.7.7.7.2 0 .4 0 .5-.2l.1.2c0 1-.5 1.8-.9 2.2l-.1.2v.2c.2 0 1.3-1 1.3-2.6zM250.6 11.6l1.4-1.4c2-1.8 2.9-2.5 2.9-3.8 0-1.6-1.2-2.6-2.9-2.6a2.4 2.4 0 0 0-2.4 2.4c0 .7.6.7.7.7.2 0 .7-.1.7-.7 0-.3-.3-.7-.7-.7h-.2a2 2 0 0 1 1.8-1.3c1.2 0 1.8 1 1.8 2.2 0 1-.7 2-1.4 2.9l-2.6 2.8-.1.5h4.9l.4-2.3h-.4c0 .4-.1 1-.3 1.2l-1.2.1zM258.3 12.6c0-.9-.4-1.4-1-1.4-.3 0-.6.3-.6.7 0 .4.3.7.7.7.2 0 .3 0 .5-.2v.2c0 1-.4 1.8-.8 2.2l-.2.2.1.2c.2 0 1.3-1 1.3-2.6zM265.3 8c1-.4 1.9-1.4 1.9-2.4s-1.2-1.8-2.5-1.8-2.3.8-2.3 1.8c0 .4.3.7.6.7.5 0 .7-.3.7-.7 0-.7-.6-.7-.8-.7.4-.6 1.3-.8 1.8-.8s1.2.3 1.2 1.5c0 .2 0 1-.3 1.5-.4.6-.9.7-1.2.7h-.5c-.1 0-.2 0-.2.2l.3.1h.6c1 0 1.6 1 1.6 2.3 0 1.7-1 2.1-1.5 2.1-.6 0-1.6-.2-2-1 .4.1.8-.2.8-.7 0-.5-.4-.7-.8-.7-.3 0-.7.1-.7.7 0 1.2 1.2 2.1 2.7 2.1 1.6 0 2.8-1.2 2.8-2.5 0-1.1-.8-2.2-2.2-2.5zM270.8 12.6c0-.9-.3-1.4-.9-1.4-.4 0-.7.3-.7.7 0 .4.3.7.7.7.2 0 .4 0 .5-.2l.1.2c0 1-.5 1.8-1 2.2v.4c.2 0 1.3-1 1.3-2.6zM278 10.4v1.2c0 .5-.1.6-1.1.6h-.3v.4h3.6v-.4h-.3c-1 0-1-.1-1-.6v-1.2h1.3V10H279V4c0-.3 0-.4-.2-.4l-.2.2-4.1 6.2v.4zm0-.4h-3.2l3.2-5zM283.5 14.2c0 .5-.3 1.4-1.8 1.4l-.1.2.3.1c1.3 0 2.5-.6 2.5-1.6v-3c0-.6 0-1 .5-1.4.5-.4 1-.4 1.3-.5l.1-.1-.2-.2c-.9 0-1.5-.5-1.7-1.1V4.7c0-.6 0-1-.6-1.5-.6-.4-1.5-.6-2-.6 0 0-.2 0-.2.2l.2.1c.8.1 1.5.5 1.7 1.2v3.4c0 .6.1.9.5 1.3.3.3.7.4 1 .5-1 .3-1.5 1-1.5 1.7zm0 0"/></g></svg>