<svg xmlns="http://www.w3.org/2000/svg" width="172.6" height="18.9"><g aria-label="P X(m,i,0),O (m,i) =1,∀(m,i)∈D"><path d="M3.5 7.6h2.3c1.8 0 3.7-1.3 3.7-2.8 0-1-.9-2-2.6-2H2.6c-.3 0-.4 0-.4.2s0 .2.3.2h.6c.2 0 .3 0 .3.2v.3l-1.8 7.1c-.1.5-.2.6-1.2.6-.3 0-.4 0-.4.3l.2.1h3.4s.3 0 .3-.2-.1-.2-.4-.2c-.5 0-.9 0-.9-.2V11zm1-4c0-.4 0-.4.7-.4h1.2c1.1 0 1.9.3 1.9 1.2 0 .6-.3 1.7-.8 2.2a3 3 0 0 1-2 .7h-2zM15 2.8l.9-.9C17 .7 17.5.4 18.3.3c.1 0 .2 0 .2-.2l-.1-.1h-1.9c-.1 0-.2 0-.2.2v.1c.2 0 .4 0 .4.3l-.2.3-1.6 1.6-1-1.8V.6c0-.1.2-.3.5-.3 0 0 .2 0 .2-.2l-.2-.1h-2.3s-.2 0-.2.2l.3.1c.5 0 .6.1.7.3l1.3 2.6-.5.5-.8.8c-1.1 1-1.5 1.5-2.4 1.5 0 0-.2 0-.2.2l.1.1h2l.2-.1c0-.2-.1-.2-.2-.2 0 0-.3 0-.3-.2s.1-.3.4-.5l1.8-1.8 1.2 2.2c0 .1-.2.3-.5.3 0 0-.2 0-.2.2l.2.1h2.2c.1 0 .3 0 .3-.2h-.3c-.6 0-.6-.2-.7-.3zM11.3 8.5A5.6 5.6 0 0 0 9 13c0 1.3.3 3.4 2.2 4.7 0 0 .2 0 .2-.2h-.1c-1.2-1.2-1.7-2.8-1.7-4.5 0-2.5 1-3.7 1.7-4.4v-.1l-.1-.1zM16.2 14.7l-.1.5c0 .2.1.3.3.3.1 0 .3 0 .3-.2l.2-.5a17.1 17.1 0 0 0 .4-1.5c0-.4 0-.4.3-.7.3-.5.7-1 1.4-1 .6 0 .6.4.6.7 0 .5-.4 1.6-.6 2l-.1.4c0 .5.4.8.9.8 1 0 1.3-1.2 1.3-1.4L21 14l-.2.1c-.2.8-.6 1.2-1 1.2-.2 0-.2-.2-.2-.4l.2-.7c.1-.3.5-1.3.5-1.8 0-.1 0-.5-.4-.8l-.8-.2c-.9 0-1.4.5-1.7.9 0-.8-.7-1-1.2-1a2 2 0 0 0-1.6.9c0-.6-.6-.8-1-.8-.3 0-.6.2-.7.5l-.3.9h.1c.2 0 .2 0 .2-.2.2-.5.4-1 .7-1 .3 0 .3.2.3.5l-.1.7-.2.9-.3 1.2-.1.3c0 .2.2.3.3.3.2 0 .3 0 .4-.2l.1-.5.2-.9.2-.6c.1-.4.1-.5.4-.8.3-.4.7-.9 1.4-.9.5 0 .5.5.5.7l-.1.8zm7.3.6c0 .5 0 1.1-.7 1.7v.2c.2 0 1-.7 1-1.8 0-.6-.2-1-.7-1-.3 0-.5.2-.5.5s.2.5.5.5l.4-.1zm4.2-5.7c0-.1 0-.3-.3-.3s-.6.2-.6.5c0 .1.2.3.4.3.3 0 .5-.2.5-.5zm-1.9 4.8v.3c0 .5.3.8.8.8 1 0 1.4-1.2 1.4-1.4l-.2-.1-.2.1c-.2.8-.6 1.2-1 1.2-.1 0-.2-.1-.2-.4l.2-.5c0-.3.2-.5.3-.8l.4-1.2v-.3c0-.4-.3-.7-.8-.7-1 0-1.3 1.2-1.3 1.4H25.5c.2-.9.6-1.2 1-1.2.1 0 .2 0 .2.3 0 .2 0 .4-.3 1zm4.6.9c0 .5 0 1.1-.7 1.7v.2c.2 0 1-.7 1-1.8 0-.6-.2-1-.6-1-.4 0-.6.2-.6.5s.2.5.6.5l.3-.1zM36.4 12.5c0-1 0-1.8-.5-2.4a2 2 0 0 0-1.6-.8c-2.2 0-2.2 2.5-2.2 3.2 0 .6 0 3.1 2.2 3.1 2.1 0 2.1-2.5 2.1-3.1zm-2.1 2.9c-.4 0-1-.3-1.2-1l-.1-2 .1-2c.2-.7.8-.9 1.2-.9.5 0 1 .3 1.1.9.2.5.2 1.2.2 2l-.1 2c-.2.8-.8 1-1.2 1zm3.5-7c-.1 0-.2 0-.2.2v.1c.9.8 1.8 2 1.8 4.4 0 2-.6 3.4-1.6 4.3l-.2.2.1.2c.1 0 1-.7 1.6-1.8.4-.8.7-1.8.7-2.9 0-1.3-.4-3.3-2.2-4.6zM43 15.3c0 .5 0 1.1-.7 1.7v.2c.2 0 1-.7 1-1.8 0-.6-.2-1-.6-1-.3 0-.6.2-.6.5s.2.5.6.5l.4-.1zm9-3.8c0-1.5-1.1-2.6-2.7-2.6-2.3 0-4.4 2-4.4 4.2 0 1.5 1 2.5 2.7 2.5 2.2 0 4.3-2 4.3-4.1zm-4.3 3.8c-1 0-1.9-.7-1.9-2a5 5 0 0 1 1-2.9c.6-.7 1.6-1.2 2.4-1.2 1 0 1.8.6 1.8 2 0 .7-.2 2-1.1 3a3 3 0 0 1-2.2 1.1zM55.2 12.4v-.2c-.2 0-1.9 1.1-1.9 3.4 0 2.2 1.7 3.3 1.9 3.3v-.1a4 4 0 0 1-1.4-3.2c0-1.7.8-2.7 1.4-3.2zM59.5 16.6v.5c0 .1 0 .2.2.2 0 0 .2 0 .3-.2v-.5l.3-1c.1-.2.6-1 1.4-1 .3 0 .5 0 .5.4s-.3 1-.4 1.4l-.1.3c0 .4.3.6.7.6.7 0 1-.9 1-1v-.1l-.2.1c-.2.4-.4.8-.8.8-.1 0-.2-.1-.2-.3l.1-.3c.1-.3.4-1 .4-1.4 0-.5-.3-.8-1-.8-.6 0-1 .4-1.3.7 0-.7-.7-.7-1-.7-.6 0-1 .4-1.2.6 0-.5-.7-.6-.8-.6-.7 0-.9 1-.9 1l.2.1.1-.1c.1-.4.3-.8.5-.8.3 0 .3.2.3.4v.5l-.2.6-.2.6v.5l.1.2c.2 0 .3 0 .4-.2l.1-.5.1-.5.1-.4s.3-.6.6-.8c.1-.1.4-.4.8-.4s.5.2.5.5l-.1.6zm6.4.5c0 .7-.4 1-.6 1.2v.2c.2 0 .8-.5.8-1.3 0-.5-.2-.8-.5-.8s-.4.2-.4.4.1.4.4.4h.3zm3.8-4c0-.2 0-.3-.2-.3s-.4.2-.4.4.1.3.2.3c.3 0 .4-.2.4-.4zm.4 3.2-.2-.1-.1.1c-.1.4-.4.8-.8.8-.1 0-.2-.1-.2-.3l.1-.3.1-.4a11 11 0 0 0 .5-1.2c0-.3-.3-.6-.7-.6-.7 0-1 .8-1 1v.1l.2-.1c.2-.5.5-.8.8-.8 0 0 .2 0 .2.3v.2l-.5 1-.2.4v.3c0 .4.3.6.7.6.7 0 1-.9 1-1zM73.3 15.6c0-2.3-1.7-3.4-1.9-3.4v.2c1 .8 1.3 2 1.3 3.2 0 .6 0 1.2-.3 1.7-.3.8-.7 1.2-1 1.4v.2c.2 0 1.9-1 1.9-3.3zM88.4 7.5c.2 0 .5 0 .5-.3 0-.2-.3-.2-.5-.2h-8c-.1 0-.4 0-.4.2 0 .3.3.3.5.3zm0 2.6c.2 0 .5 0 .5-.3s-.3-.3-.5-.3h-8c-.1 0-.4 0-.4.3s.3.3.5.3zm8.8-6.8c0-.3 0-.3-.3-.3-.8.8-2 .8-2.4.8v.5c.2 0 1 0 1.7-.4v6.9c0 .5 0 .6-1.2.6h-.5v.4H98.8v-.4h-.4c-1.2 0-1.2-.1-1.2-.6zM102.6 11.8c0-.9-.3-1.4-.8-1.4-.4 0-.7.4-.7.7 0 .4.3.7.7.7l.5-.1v.1c0 1-.4 1.8-.9 2.2l-.1.3h.1c.2 0 1.2-1 1.2-2.5zM113.2 3.1V3c0-.1 0-.3-.2-.3s-.3.2-.3.3l-1.1 3h-4l-1.2-3c0-.2-.1-.3-.3-.3l-.3.3.1.2 3.3 8.7.3.3c.2 0 .3-.1.3-.3zm-5.5 3.3h3.6l-1.8 4.7zM117.6 15l-.2-.3c-1.7-1.7-2.1-4.2-2.1-6.2 0-2.3.5-4.6 2.1-6.3l.2-.2-.1-.1c-.1 0-1.3.9-2.1 2.6a9.9 9.9 0 0 0 0 8.2c.8 1.6 2 2.5 2 2.5.2 0 .2 0 .2-.2zM119.6 11l-.2.6c0 .3.2.4.4.4s.4-.1.5-.4l.3-1 .3-1.2.2-.9.2-.6c.2-.4.9-1.6 2.1-1.6.6 0 .7.4.7.9 0 .3 0 .7-.2 1l-.3 1.6-.3 1-.2.8c0 .3.2.4.4.4.4 0 .5-.4.6-.8L125 8c0-.2.8-1.7 2.2-1.7.6 0 .7.4.7.9 0 .7-.5 2.3-.8 3l-.2.7c0 .6.5 1 1.1 1 1.3 0 1.8-1.9 1.8-2l-.2-.1-.2.2c-.2.7-.6 1.7-1.4 1.7-.2 0-.3-.2-.3-.4 0-.4.1-.7.3-1 .2-.7.8-2.2.8-3 0-.8-.6-1.3-1.6-1.3s-1.6.5-2.1 1.3c0-.2 0-.7-.4-1-.4-.3-.8-.3-1.1-.3-1.2 0-1.9.8-2.1 1.1 0-.7-.6-1.1-1.2-1.1s-.9.5-1 .7l-.4 1.3.1.1c.2 0 .2 0 .3-.3.2-1 .5-1.5 1-1.5.1 0 .4 0 .4.6l-.3 1zm13.2.8c0-.9-.4-1.4-.9-1.4-.4 0-.7.4-.7.7 0 .4.3.7.7.7l.5-.1v.1c0 1-.4 1.8-.8 2.2l-.2.3h.1c.2 0 1.3-1 1.3-2.5zm7-8.3c0-.2-.3-.5-.6-.5s-.7.4-.7.8c0 .2.2.4.5.4s.7-.3.7-.7zm-1 5c0-.4 0-.4.2-.7l.2-.8c0-.5-.5-1-1.1-1-1.3 0-1.8 1.9-1.8 2l.2.1.2-.2c.4-1.3.9-1.6 1.3-1.6.1 0 .4 0 .4.4l-.2.7c0 .3-.7 1.9-.9 2.4l-.3 1c0 .7.5 1.2 1.1 1.2 1.2 0 1.7-2 1.7-2l-.1-.2c-.2 0-.2 0-.2.2-.3.9-.7 1.7-1.4 1.7-.2 0-.3-.2-.3-.4 0-.4 0-.6.4-1.4zM144.4 8.5c0-1-.2-2.6-.9-4.1-.8-1.7-2-2.5-2-2.5l-.2.1.3.3c1.2 1.3 2 3.4 2 6.2 0 2.3-.5 4.6-2.1 6.3l-.2.2.1.2c.2 0 1.4-1 2.1-2.6.7-1.5.9-3 .9-4.1zM156.7 8.8c.2 0 .4 0 .4-.3s-.2-.3-.4-.3H151c.2-1.7 1.7-3 3.6-3h2c.3 0 .5 0 .5-.3 0-.2-.2-.2-.4-.2h-2.1c-2.3 0-4.1 1.7-4.1 3.8a4 4 0 0 0 4 3.9h2.2c.2 0 .4 0 .4-.3s-.2-.3-.4-.3h-2.1c-1.9 0-3.4-1.3-3.6-3zM164 10.8c0 .5-.1.6-1.2.6-.2 0-.3 0-.3.3l.3.1h4.4c2.8 0 5.4-2.8 5.4-5.7 0-1.8-1.1-3.3-3.1-3.3H165c-.2 0-.4 0-.4.2s.1.2.4.2h.6c.2 0 .3 0 .3.2v.3zm3-7.1c0-.5 0-.5.6-.5h1.5c1.3 0 2.4.7 2.4 2.4 0 .7-.3 2.9-1.4 4.3a4 4 0 0 1-3.1 1.5h-1.8l-.2-.1V11zm0 0"/></g></svg>