<svg xmlns="http://www.w3.org/2000/svg" width="175.9" height="31.2"><g aria-label="∑ y∈Y SP Y(m,i,3),y =1,∀(m,i)∈L"><path d="m20.8 18.6 1.6-4.3h-.3c-.5 1.4-2 2.3-3.4 2.7-.3 0-1.6.4-4.2.4h-8l6.8-7.9v-.4L7.1.6h7.3c1.8 0 3 .2 3.1.2.7.2 1.9.4 3 1 .3.3 1.2.9 1.6 2h.3L20.8 0h-16v.5l7 9.6-6.9 8.1-.1.3H5zM4.7 25.8v-.2c0-.2 0-.3-.2-.3-.1 0-.3 0-.4.3l-.2.5-.2.8-.3 1.5s-.4.8-1.2.8c-.6 0-.6-.6-.6-.8 0-.5.2-1.1.5-1.8l.1-.6c0-.4-.3-.8-.8-.8-1 0-1.4 1.3-1.4 1.5H.3c.3-.9.7-1.2 1-1.2.2 0 .3.1.3.3l-.2.6c-.4 1-.5 1.4-.5 1.8 0 .2 0 .6.4 1a1.5 1.5 0 0 0 1.9-.2 3 3 0 0 1-.6 1.4c-.3.3-.6.6-1.1.6 0 0-.5 0-.7-.3.5 0 .5-.5.5-.6 0-.3-.3-.3-.4-.3-.2 0-.5.2-.5.6 0 .5.4.8 1 .8 1 0 2.2-.7 2.4-1.9zM11 27.2c.2 0 .4 0 .4-.2s-.2-.2-.3-.2H6.8a2.6 2.6 0 0 1 2.7-2.4H11c.1 0 .3 0 .3-.2s-.2-.2-.3-.2H9.4a3.1 3.1 0 0 0-3.1 3 3 3 0 0 0 3.1 3h1.7c.1 0 .3 0 .3-.2s-.2-.2-.3-.2H9.5c-1.5 0-2.6-1-2.7-2.4zM18.7 24.1l.6-.5c.4-.3.7-.3.9-.3 0 0 .2 0 .2-.2l-.2-.1h-1.7s-.2 0-.2.2l.2.1c.3 0 .3.1.3.2l-.2.2-.1.2-2.3 2.5-1.3-2.8v-.1c0-.2.4-.2.5-.2.1 0 .2 0 .2-.2l-.1-.1h-2.3c-.1 0-.2 0-.2.2l.2.1c.6 0 .6 0 .7.3l1.4 3.2-.4 1.7c-.1.5-.1.5-.8.5-.2 0-.3 0-.3.2l.1.1h2.4s.3 0 .3-.2l-.4-.1H16c-.2 0-.2 0-.2-.2l.1-.7.3-1.1c0-.2 0-.2.2-.3zM26.4 22h-.2l-.4.5c-.2-.2-.5-.5-1.2-.5-1 0-2 .7-2 1.5 0 .4.4.8.9 1h.8c.5.2.7.2.8.4.2.1.3.3.3.5 0 .5-.6 1.1-1.5 1.1-.5 0-1.5 0-1.5-.9v-.3l-.1-.1-.2.1-.3 1.3v.1l.1.1h.1l.4-.4c.4.3 1 .4 1.4.4 1.2 0 2-.8 2-1.6 0-.5-.3-.9-.9-1a80.5 80.5 0 0 1-1.6-.4.5.5 0 0 1-.2-.5c0-.5.6-1 1.5-1 .5 0 1.2.2 1.2 1v.3l.3-.1zM34 8.4h2.2c1.8 0 3.7-1.4 3.7-2.8 0-1-.9-2-2.6-2H33c-.3 0-.4 0-.4.2s0 .2.4.2h.5c.2 0 .3 0 .3.2v.2L32 11.6c-.1.5-.2.6-1.2.6-.3 0-.4 0-.4.3l.2.1H34s.3 0 .3-.2-.1-.2-.4-.2c-.5 0-.9 0-.9-.2v-.3zm.9-4c0-.4.1-.4.7-.4h1.2c1.2 0 1.9.3 1.9 1.2 0 .6-.3 1.7-.8 2.2a3 3 0 0 1-2 .7h-2zM46.5 1.9l.6-.5c.4-.3.7-.3.9-.3 0 0 .2 0 .2-.2L48 .8h-1.7s-.2 0-.2.2l.2.1c.3 0 .3.1.3.2l-.1.2-.2.2L44 4.2l-1.2-2.8-.1-.1c0-.2.4-.2.5-.2.1 0 .2 0 .2-.2l-.1-.1H41s-.2 0-.2.2l.2.1c.6 0 .6.1.7.3l1.5 3.2-.5 1.7c0 .5 0 .5-.8.5-.2 0-.3 0-.3.2l.2.1H44.2s.2 0 .2-.2l-.4-.1h-.3c-.2 0-.2 0-.2-.2 0 0 0-.5.2-.7l.3-1.1v-.3zM41.7 9.3a5.6 5.6 0 0 0-2.2 4.6c0 1.3.4 3.3 2.2 4.6h.2l-.1-.2c-1.2-1.1-1.7-2.7-1.7-4.4 0-2.5 1-3.7 1.7-4.4v-.1l-.1-.1zM46.6 15.5l-.1.5c0 .2.1.3.3.3l.3-.2.2-.6a17.1 17.1 0 0 0 .4-1.4c0-.4 0-.4.3-.7.3-.5.7-1 1.4-1 .6 0 .6.4.6.6 0 .6-.4 1.6-.6 2l-.1.5c0 .5.4.8.9.8 1 0 1.3-1.3 1.3-1.4l-.1-.1-.2.1c-.2.8-.6 1.2-1 1.2-.2 0-.2-.2-.2-.4l.2-.7c.1-.3.5-1.3.5-1.8 0-.2 0-.5-.3-.8-.2-.1-.5-.3-1-.3-.8 0-1.3.6-1.6 1 0-.8-.7-1-1.2-1a2 2 0 0 0-1.5.9c-.1-.7-.7-.9-1-.9-.4 0-.7.3-.8.5l-.3 1h.1c.2 0 .2 0 .3-.2 0-.6.3-1 .6-1s.3.2.3.4l-.1.8-.2.9-.3 1.2-.1.3c0 .2.2.3.3.3l.4-.2.1-.6.2-.8.2-.6c.1-.4.1-.5.4-.9.3-.3.7-.8 1.4-.8.5 0 .5.5.5.6l-.1 1zm7.3.6c0 .5 0 1-.7 1.7v.2c.2 0 1-.7 1-1.8 0-.6-.2-1-.6-1-.4 0-.6.2-.6.5s.2.5.6.5l.3-.1zm4.2-5.7c0-.1 0-.3-.3-.3s-.5.2-.5.5c0 .1 0 .3.3.3s.5-.2.5-.5zm-1.9 4.7v.4c0 .5.3.8.8.8 1 0 1.4-1.3 1.4-1.4l-.2-.1-.2.1c-.2.8-.6 1.2-1 1.2-.1 0-.2-.1-.2-.4l.2-.6.3-.7.4-1.2.1-.3c0-.4-.4-.8-.9-.8-1 0-1.3 1.3-1.3 1.5H55.9c.2-.9.6-1.2 1-1.2.1 0 .2 0 .2.3 0 .2 0 .4-.3 1zm4.7 1c0 .5-.1 1-.8 1.7v.2c.2 0 1-.7 1-1.8 0-.6-.2-1-.6-1-.4 0-.6.2-.6.5s.2.5.6.5l.4-.1zM64.6 13.1c.7 0 1.2.5 1.2 1.5 0 1.2-.6 1.5-1.2 1.5-.3 0-1.2 0-1.5-.6.4 0 .5-.4.5-.5 0-.3-.2-.6-.5-.6s-.5.2-.5.6c0 .9 1 1.4 2 1.4 1.3 0 2.2-.8 2.2-1.8 0-.7-.6-1.4-1.6-1.6 1-.4 1.3-1 1.3-1.7s-.8-1.2-1.8-1.2-1.9.5-1.9 1.2c0 .3.3.5.5.5.3 0 .5-.2.5-.5 0-.2-.2-.4-.5-.5.3-.4 1-.5 1.3-.5.5 0 1 .2 1 1 0 .4-.1.9-.3 1.2-.3.3-.6.3-1 .3h-.4v.2l.2.1zm3.6-3.8H68v.2c.9.7 1.8 2 1.8 4.4 0 2-.6 3.4-1.6 4.3l-.2.2.1.1c.1 0 1-.6 1.6-1.7.4-.8.7-1.8.7-2.9 0-1.3-.4-3.3-2.2-4.6zM73.5 16c0 .6-.1 1.2-.8 1.8v.2c.2 0 1-.7 1-1.8 0-.6-.2-1-.6-1-.3 0-.6.2-.6.5s.2.5.6.5l.4-.1zm6.3-3.3v-.2c0-.2 0-.3-.2-.3s-.3 0-.4.3l-.2.5-.2.8-.4 1.5s-.4.8-1.1.8c-.6 0-.6-.6-.6-.8 0-.5.2-1.1.5-1.8l.1-.6c0-.4-.4-.8-.9-.8-.9 0-1.3 1.3-1.3 1.5H75.4c.2-.9.6-1.2 1-1.2.2 0 .2.1.2.3v.6c-.5 1-.6 1.4-.6 1.8 0 .2 0 .6.3 1a1.5 1.5 0 0 0 2-.2 3 3 0 0 1-.6 1.4c-.3.3-.6.6-1.1.6-.1 0-.5 0-.7-.3.5 0 .5-.5.5-.6 0-.3-.3-.3-.4-.3-.2 0-.5.2-.5.6 0 .5.4.8 1 .8 1 0 2.1-.7 2.4-1.9zM93.8 8.3c.3 0 .5 0 .5-.3s-.2-.3-.4-.3h-8c-.2 0-.4 0-.4.3s.2.3.4.3zm0 2.6c.3 0 .5 0 .5-.3s-.2-.3-.5-.3H86c-.2 0-.4 0-.4.3s.2.3.4.3zm8.8-6.8c0-.3 0-.3-.3-.3-.8.8-2 .8-2.4.8V5c.3 0 1 0 1.7-.3v6.9c0 .4 0 .6-1.2.6h-.4v.4H104.3v-.4h-.4c-1.2 0-1.3-.1-1.3-.6zM108 12.6c0-.9-.3-1.4-.8-1.4-.4 0-.7.3-.7.7 0 .4.3.7.7.7.2 0 .4 0 .5-.2v.2c0 1-.4 1.8-.8 2.2l-.2.2.2.2c.1 0 1.2-1 1.2-2.6zM118.6 3.9v-.2c0-.2 0-.3-.2-.3s-.2.2-.3.3l-1 3H113l-1.1-3-.3-.3c-.2 0-.3.1-.3.3v.2l3.4 8.7c0 .2.1.3.3.3.2 0 .2-.1.3-.3zm-5.4 3.3h3.6l-1.8 4.7zM123 15.8l-.2-.3c-1.6-1.7-2-4.2-2-6.2 0-2.3.5-4.6 2-6.3l.3-.2c0-.1 0-.2-.2-.2-.1 0-1.3 1-2 2.6-.8 1.5-1 3-1 4 0 1.1.2 2.7 1 4.2.8 1.7 1.9 2.5 2 2.5l.2-.1zM125 11.8l-.1.6c0 .2.2.4.4.4.1 0 .4-.1.5-.4l.2-1 .3-1.2.2-.9.2-.6c.2-.5.9-1.7 2.2-1.7.6 0 .7.5.7 1l-.2 1-.4 1.6-.2 1-.2.8c0 .2.2.4.4.4.4 0 .5-.4.6-.8l.8-3.2c0-.2.7-1.8 2.2-1.8.5 0 .7.5.7 1 0 .7-.6 2.2-.9 3l-.1.7c0 .6.4 1 1 1 1.3 0 1.8-1.9 1.8-2l-.2-.1-.2.2c-.2.7-.6 1.7-1.3 1.7-.2 0-.3-.2-.3-.5s0-.6.2-1c.3-.6.8-2 .8-2.8 0-.9-.5-1.5-1.5-1.5s-1.7.6-2.2 1.3c0-.1 0-.6-.4-1-.3-.2-.8-.3-1-.3-1.3 0-2 .9-2.2 1.2 0-.8-.6-1.2-1.2-1.2s-.8.6-1 .8l-.4 1.3.2.1.2-.3c.2-1 .5-1.6 1-1.6.2 0 .4.1.4.6l-.2 1.2zm13.2.8c0-.9-.3-1.4-.9-1.4-.4 0-.7.3-.7.7 0 .4.3.7.7.7.2 0 .4 0 .5-.2l.1.2c0 1-.5 1.8-.9 2.2l-.1.2v.2c.2 0 1.3-1 1.3-2.6zm7-8.3c0-.2-.2-.5-.5-.5-.4 0-.8.4-.8.7 0 .3.2.5.5.5.4 0 .8-.3.8-.7zm-1 5 .2-.8.2-.7c0-.6-.4-1-1-1-1.3 0-1.8 1.9-1.8 2l.1.1c.2 0 .2 0 .2-.2.4-1.3 1-1.7 1.4-1.7 0 0 .3 0 .3.5l-.1.6-1 2.5c0 .4-.3.8-.3 1 0 .7.5 1.2 1.1 1.2 1.3 0 1.8-2 1.8-2 0-.2-.1-.2-.2-.2l-.2.2c-.2.9-.7 1.7-1.3 1.7-.3 0-.4-.2-.4-.5l.4-1.3zM149.8 9.3c0-1-.1-2.7-.9-4.2-.7-1.6-1.9-2.5-2-2.5l-.2.2.3.3c1.3 1.3 2 3.4 2 6.2 0 2.3-.4 4.6-2 6.3l-.3.2.2.1c.1 0 1.3-.9 2-2.5.8-1.5 1-3 1-4.1zM162.1 9.6c.2 0 .5 0 .5-.3s-.3-.3-.5-.3h-5.6c.1-1.7 1.7-3 3.5-3h2.1c.2 0 .5 0 .5-.3s-.3-.3-.5-.3h-2c-2.4 0-4.2 1.8-4.2 3.9A4 4 0 0 0 160 13h2.1c.2 0 .5 0 .5-.2 0-.3-.3-.3-.5-.3h-2c-2 0-3.5-1.3-3.6-3zM172.4 4.6c0-.5.1-.6 1.4-.6.4 0 .5 0 .5-.3 0-.2-.2-.2-.2-.2h-3.8s-.2 0-.2.3c0 .2 0 .2.3.2h.5c.3 0 .4 0 .4.2v.2l-1.8 7.2c-.2.5-.2.6-1.2.6-.3 0-.4 0-.4.3l.4.1h6.1c.3 0 .3 0 .4-.2l1-2.9.1-.2-.1-.1c-.2 0-.2 0-.3.3-.4 1.2-1 2.7-3.3 2.7h-1.5l-.2-.1v-.3zm0 0"/></g></svg>