<svg xmlns="http://www.w3.org/2000/svg" width="195" height="51.1"><g aria-label="A R(m,i) ∑x=A L(m,i) PX (m,i,3),x =1,∀(m,i)∈D"><path d="M8.6 7.4c-.4.5-.7.8-1.2.8-.1 0-.2 0-.2.2v.1h1.9l.1-.2h-.1c0-.1-.4-.1-.4-.4l.1-.3.8-1.2h2.6l.2 1.6s0 .2-.6.2c-.1 0-.2 0-.2.2l.1.1H14l.2-.1c0-.2-.1-.2-.3-.2-.5 0-.5 0-.6-.3l-.8-5.7c0-.2 0-.3-.2-.3s-.3 0-.3.2zm1.2-1.3 2-3 .4 3zM20.8 4l-.1-.2-.1.1c0 .4-.3.6-.5.6-.5 0-.5-.5-.6-1V3c-.2-.4-.5-.6-1-.7.5-.1 1.3-.5 1.3-1 0-.8-1-1.3-2.1-1.3h-2.5v.3h.2c.5 0 .5 0 .5.3V4c0 .2 0 .2-.5.2h-.2v.3h2.1v-.3h-.2c-.5 0-.5 0-.5-.2V2.4h1c.4 0 .7 0 .9.2.2.2.2.4.2.8 0 .5 0 .8.4 1 .3.2.6.3 1 .3.6 0 .7-.6.7-.8zM19 1.1c0 .8-.7 1-1.4 1h-1V.5c0-.2 0-.2.2-.2h.5c.7 0 1.7 0 1.7 1zM17.5 6.6v-.1c-.2 0-1.9 1-1.9 3.3s1.7 3.3 1.8 3.3h.2v-.2a4 4 0 0 1-1.5-3c0-1.7.8-2.8 1.4-3.3zM21.8 10.9v.4c0 .1 0 .2.2.2 0 0 .2 0 .3-.2v-.5l.3-1c.1-.1.6-1 1.4-1 .3 0 .5.1.5.4 0 .4-.3 1-.4 1.5l-.1.2c0 .4.3.6.7.6.7 0 1-.8 1-1h-.2c-.2.5-.4.8-.8.8l-.2-.2.1-.4c.1-.3.4-1 .4-1.4 0-.5-.3-.8-1-.8-.6 0-1 .4-1.3.8 0-.7-.7-.8-1-.8-.6 0-1 .4-1.2.7 0-.6-.7-.7-.8-.7-.7 0-.9 1-.9 1 0 .2.1.2.2.2l.1-.2c.1-.4.3-.7.5-.7.3 0 .3.2.3.3v.5l-.2.6-.2.6v.5l.1.2c.2 0 .3 0 .4-.2l.1-.5.1-.5.1-.4.6-.8c.1 0 .4-.3.8-.3s.5.1.5.4l-.1.7zm6.4.5c0 .6-.4 1-.6 1.1v.2c.2 0 .8-.5.8-1.3 0-.5-.2-.7-.5-.7s-.4.2-.4.4.1.4.4.4l.3-.1zm3.8-4c0-.2 0-.4-.2-.4s-.4.2-.4.4.1.3.2.3c.3 0 .4-.2.4-.4zm.4 3.1H32c-.2.4-.4.8-.8.8l-.2-.2.1-.4.1-.3a11 11 0 0 0 .5-1.3c0-.3-.3-.6-.7-.6-.7 0-1 .9-1 1v.2c.2 0 .2 0 .2-.2.2-.5.5-.7.8-.7 0 0 .2 0 .2.2v.2l-.5 1.1-.2.4v.2c0 .4.3.6.7.6.7 0 1-.8 1-1zM35.6 9.8c0-2.2-1.7-3.3-1.9-3.3v.2c1 .7 1.3 2 1.3 3.1 0 .6 0 1.2-.3 1.8-.3.7-.7 1.1-1 1.4v.1c.2 0 1.9-1 1.9-3.3zM29.1 34.5l1.7-4.2h-.4c-.5 1.3-2 2.3-3.4 2.7-.3 0-1.6.4-4.2.4h-8l6.8-8 .1-.2V25l-6.3-8.4h7.3c1.8 0 3 .2 3.1.2.7 0 1.9.3 3 1 .3.2 1.2.8 1.6 1.9h.4L29 15.9H13.4l-.3.1v.5l7 9.6-6.9 8-.1.3.3.1zM1.9 44.8c-.1.3-.4.8-1 .8H.6c.4-.2.4-.5.4-.6 0-.2-.2-.3-.4-.3s-.5.2-.5.5c0 .5.5.7 1 .7.4 0 .8-.3 1-.7.2.5.7.7 1.1.7 1 0 1.6-1.2 1.6-1.4v-.1l-.3.1c-.2.7-.7 1.1-1.2 1.1-.4 0-.6-.2-.6-.6l.5-2c.1-.8.6-1 .9-1l.5.1c-.3 0-.4.4-.4.5 0 .2.1.4.4.4.2 0 .5-.2.5-.6 0-.5-.6-.7-1-.7-.5 0-.8.3-1 .7-.2-.4-.6-.7-1.2-.7-1 0-1.6 1.2-1.6 1.4l.2.1.1-.1c.3-.7.9-1.1 1.3-1.1.3 0 .6.1.6.6l-.2 1zM12.7 42.7c.2 0 .4 0 .4-.2 0-.3-.3-.3-.4-.3H6.6c-.2 0-.4 0-.4.3 0 .2.2.2.4.2zm0 2c.1 0 .4 0 .4-.2s-.2-.2-.4-.2H6.6c-.2 0-.4 0-.4.2s.2.2.4.2zM15.6 44.7c-.3.5-.6.7-1.1.8-.1 0-.2 0-.2.2v.1h1.9l.1-.2-.1-.1c-.1 0-.4 0-.4-.3v-.4l.8-1.1h2.7l.2 1.5c0 .1 0 .3-.6.3-.1 0-.3 0-.3.2l.2.1H21s.2 0 .2-.2l-.3-.1c-.5 0-.6 0-.6-.3l-.8-5.8c0-.2 0-.2-.2-.2s-.3 0-.3.2zm1.3-1.3 2-3 .4 3zM24.9 38.6c0-.1 0-.2.2-.2h.5c.2 0 .3 0 .3-.2l-.1-.1h-2.1l-.1.2h.2l.4.1v.2l-.9 3.5c0 .1 0 .2-.5.2-.2 0-.3 0-.3.2l.2.1h3.8l.2-.1.6-1.6-.1-.1-.2.2c-.4.8-.8 1.3-1.9 1.3H24v-.1zM24.6 44.6v-.1c-.2 0-1.9 1-1.9 3.2 0 2.3 1.7 3.4 1.8 3.4l.2-.1-.1-.1a4 4 0 0 1-1.4-3.2c0-1.6.8-2.7 1.4-3.1zM28.9 48.8l-.1.4c0 .2.1.3.2.3s.3 0 .4-.2v-.6l.3-.9c.1-.2.6-1.1 1.4-1.1.3 0 .5.2.5.5s-.3 1-.5 1.4v.3c0 .3.3.6.7.6.7 0 1-.9 1-1v-.2c-.2 0-.2 0-.2.2-.2.4-.5.7-.8.7-.1 0-.2 0-.2-.2l.1-.4.4-1.3c0-.5-.3-.8-1-.8-.6 0-1 .3-1.3.7 0-.7-.7-.7-1-.7-.6 0-1 .4-1.2.6 0-.6-.7-.6-.8-.6-.7 0-.9 1-.9 1H26.2c.1-.4.3-.8.5-.8.3 0 .3.2.3.3l-.1.6-.1.6-.2.5-.1.5c0 .2.1.3.2.3s.3 0 .4-.2v-.6l.2-.4.1-.5.6-.8s.4-.3.8-.3c.3 0 .5.2.5.5l-.1.6zm6.4.5c0 .6-.4 1-.6 1.2v.2c.2 0 .8-.5.8-1.4 0-.4-.2-.7-.5-.7s-.4.2-.4.4.1.4.4.4l.3-.1zm3.8-4c0-.2 0-.3-.2-.3s-.5.1-.5.4c0 .2.2.2.3.2.2 0 .4-.1.4-.3zm.3 3.1h-.1l-.2.1c0 .4-.4.7-.7.7-.1 0-.2 0-.2-.2v-.4c.2 0 .2-.2.2-.3A11 11 0 0 0 39 47c0-.4-.3-.6-.7-.6-.7 0-1 .8-1 1h.2c.2-.5.5-.8.7-.8.2 0 .3 0 .3.2v.3l-.5 1-.2.4v.3c0 .3.3.6.7.6.7 0 1-.9 1-1zM42.6 47.7c0-2.2-1.7-3.3-1.8-3.3v.2c1 .8 1.3 2 1.3 3.1 0 .6 0 1.3-.3 1.8-.3.8-.7 1.1-1 1.4v.2c.1 0 1.8-1.1 1.8-3.4zM50.6 24.3h2.2c1.9 0 3.7-1.3 3.7-2.8 0-1-.8-2-2.6-2h-4.3c-.2 0-.4 0-.4.2s.1.2.4.2h.6c.2 0 .3 0 .3.2v.3l-1.9 7.1c0 .5-.1.6-1.2.6-.2 0-.3 0-.3.3 0 .2.1.2.2.2l1.6-.1h1.8s.2 0 .2-.2 0-.2-.3-.2c-.5 0-1 0-1-.2l.1-.2zm1-4c0-.4 0-.4.6-.4h1.3c1.1 0 1.8.4 1.8 1.3 0 .5-.3 1.6-.8 2.1a3 3 0 0 1-2 .7h-1.9zM62 19.5l1-.9c1.2-1.1 1.5-1.5 2.3-1.6l.3-.1c0-.2-.1-.2-.2-.2H63.5s-.2 0-.2.2l.1.1c.1 0 .4 0 .4.3l-.3.4-1.6 1.5-.9-1.8v-.1s.1-.2.4-.3c.1 0 .2 0 .2-.2h-2.4l-.2.1.3.1c.5 0 .6.1.6.3l1.3 2.6-.5.5-.8.8c-1 1.1-1.5 1.5-2.3 1.5-.1 0-.2 0-.2.2l.1.2h1.9s.2 0 .2-.2l-.1-.2c-.1 0-.3 0-.3-.2s.1-.3.3-.5l1.9-1.8 1.1 2.2v.1s-.1.2-.4.2c-.1 0-.2 0-.2.2l.1.2h2.3s.2 0 .2-.2-.1-.2-.3-.2c-.5 0-.5 0-.6-.2zM58.4 25.2a5.6 5.6 0 0 0-2.3 4.6c0 1.3.4 3.4 2.3 4.7l.1-.1v-.2c-1.3-1-1.7-2.7-1.7-4.4 0-2.5 1-3.7 1.7-4.4v-.1l-.1-.1zM63.2 31.4v.6c0 .2 0 .3.2.3l.4-.2.2-.6a17.1 17.1 0 0 0 .3-1.5l.3-.7c.3-.4.8-1 1.5-1 .5 0 .5.5.5.7 0 .5-.4 1.6-.5 2l-.1.5c0 .4.4.8.8.8 1 0 1.4-1.3 1.4-1.5H67.9c-.3.8-.7 1.2-1 1.2-.2 0-.3-.1-.3-.3 0-.2 0-.4.3-.8 0-.3.5-1.3.5-1.8 0-.1 0-.5-.4-.8-.2-.1-.4-.2-.9-.2-.8 0-1.3.5-1.6 1 0-.9-.7-1-1.2-1a2 2 0 0 0-1.6.8c0-.6-.6-.8-1-.8s-.6.3-.7.5l-.4.9.2.1.2-.3c.1-.5.3-1 .7-1 .2 0 .3.2.3.5l-.1.8-.3.8-.2 1.2-.1.4c0 .2.1.3.3.3l.3-.2.2-.6.2-.9.2-.6c0-.4 0-.4.4-.8.2-.4.7-.9 1.3-.9.6 0 .6.5.6.7l-.2.9zm7.4.6c0 .5-.1 1.1-.7 1.7l-.1.1.1.2c.2 0 1-.8 1-1.9 0-.6-.3-1-.7-1-.3 0-.5.2-.5.5s.2.6.5.6l.4-.2zm4.2-5.6c0-.2-.1-.4-.4-.4-.2 0-.5.2-.5.5 0 .2.1.4.4.4.2 0 .5-.3.5-.5zm-2 4.7v.4c0 .4.4.8.9.8 1 0 1.3-1.3 1.3-1.5H74.7c-.2.8-.6 1.2-1 1.2-.2 0-.2-.1-.2-.3l.1-.6.3-.8.5-1.2V29c0-.5-.3-.8-.8-.8-1 0-1.4 1.2-1.4 1.4l.2.1.1-.1c.3-.8.7-1.2 1-1.2.2 0 .3.1.3.3 0 .3 0 .4-.3 1zm4.7 1c0 .4 0 1-.7 1.6V34c.2 0 1-.8 1-1.9 0-.6-.3-1-.7-1-.3 0-.5.2-.5.5s.2.6.5.6l.4-.2zM81.2 29c.8 0 1.3.6 1.3 1.6 0 1.1-.7 1.5-1.2 1.5-.4 0-1.2-.2-1.6-.7.4 0 .5-.3.5-.5 0-.3-.2-.5-.5-.5-.2 0-.5.1-.5.5 0 .9 1 1.5 2.1 1.5 1.3 0 2.2-1 2.2-1.8s-.6-1.5-1.6-1.7c1-.4 1.3-1 1.3-1.6 0-.8-.9-1.3-1.9-1.3-1 0-1.8.5-1.8 1.2 0 .4.2.5.5.5s.5-.2.5-.4c0-.3-.2-.5-.5-.5.3-.4 1-.5 1.3-.5.4 0 1 .2 1 1 0 .4-.1.8-.4 1-.3.4-.5.5-1 .5h-.3l-.1.1c0 .2 0 .2.2.2zm3.6-3.8-.1.1v.1c.8.8 1.7 2 1.7 4.4 0 2-.6 3.4-1.6 4.3l-.1.3c.2 0 1-.5 1.7-1.7.4-.8.7-1.8.7-2.9 0-1.3-.4-3.3-2.3-4.6zM90.1 32c0 .5 0 1.1-.7 1.7V34c.2 0 1-.8 1-1.9 0-.6-.3-1-.7-1-.3 0-.5.2-.5.5s.2.6.5.6l.4-.2zm3.5-.8c0 .3-.4.8-.9.8l-.5-.1c.4-.2.4-.5.4-.5 0-.3-.1-.4-.3-.4-.3 0-.5.2-.5.6 0 .4.5.7 1 .7.3 0 .7-.3 1-.7.2.5.7.7 1 .7 1.1 0 1.7-1.2 1.7-1.5H96.2c-.2.7-.8 1.2-1.3 1.2-.4 0-.6-.3-.6-.6l.5-2.1c.2-.7.6-1 1-1l.4.2c-.3 0-.4.3-.4.5s.2.3.4.3.5-.2.5-.6c0-.5-.6-.6-1-.6s-.8.3-1 .6c-.1-.4-.6-.6-1.1-.6-1 0-1.6 1.1-1.6 1.4l.1.1c.1 0 .2 0 .2-.2.2-.7.8-1 1.3-1 .3 0 .5 0 .5.5 0 .2 0 .7-.2 1zM110.8 24.2c.2 0 .5 0 .5-.3 0-.2-.3-.2-.5-.2h-8c-.1 0-.4 0-.4.2 0 .3.3.3.5.3zm0 2.6c.2 0 .5 0 .5-.3 0-.2-.3-.2-.5-.2h-8c-.1 0-.4 0-.4.2 0 .3.3.3.5.3zm8.8-6.7c0-.4 0-.4-.3-.4-.8.9-2 .9-2.4.9v.4c.2 0 1 0 1.7-.4v6.9c0 .5 0 .6-1.2.6h-.5v.5l2.2-.1h2.1v-.4h-.4c-1.2 0-1.2-.1-1.2-.6zM125 28.5c0-.8-.3-1.4-.8-1.4s-.7.4-.7.7c0 .4.2.8.7.8l.5-.2v.1c0 1-.4 1.8-.9 2.3l-.1.2.1.1c.2 0 1.2-1 1.2-2.6zM135.6 19.8v-.2c0-.1 0-.3-.2-.3s-.3.2-.3.3l-1.1 3h-4l-1.2-3c0-.1-.1-.3-.3-.3l-.3.3.1.2 3.3 8.7.3.3c.2 0 .3-.1.3-.2zm-5.5 3.3h3.6l-1.8 4.7zM140 31.7l-.2-.3c-1.7-1.6-2-4.1-2-6.2 0-2.3.4-4.6 2-6.3l.2-.2-.1-.1c-.1 0-1.3.9-2.1 2.6a9.9 9.9 0 0 0 0 8.2c.8 1.6 2 2.5 2 2.5.2 0 .2 0 .2-.2zM142 27.8l-.2.5c0 .3.2.4.4.4s.4-.1.5-.4l.3-1 .3-1.2.2-.8.2-.7c.2-.4.9-1.6 2.1-1.6.6 0 .7.5.7.9 0 .3 0 .7-.2 1.1l-.3 1.6-.3 1-.2.7c0 .3.2.4.4.4.4 0 .5-.3.6-.8l.8-3.2c0-.1.8-1.7 2.2-1.7.6 0 .7.4.7.9 0 .8-.5 2.3-.8 3l-.2.7c0 .6.5 1 1.1 1 1.3 0 1.8-1.8 1.8-2h-.2l-.2.2c-.2.7-.6 1.6-1.4 1.6-.2 0-.3-.1-.3-.4 0-.4.1-.7.3-1 .2-.7.8-2.1.8-2.9 0-.9-.6-1.4-1.6-1.4s-1.6.6-2.1 1.3c0-.2 0-.7-.5-1-.3-.2-.7-.3-1-.3-1.2 0-1.9.8-2.1 1.1 0-.7-.6-1.1-1.2-1.1s-.9.5-1 .7l-.4 1.3.1.2c.2 0 .2 0 .3-.3.2-1 .5-1.6 1-1.6.1 0 .3 0 .3.6l-.2 1zm13.2.7c0-.8-.4-1.4-.9-1.4-.4 0-.7.4-.7.7 0 .4.3.8.7.8l.5-.2v.1c0 1-.4 1.8-.8 2.3-.2 0-.2.1-.2.2l.1.1c.2 0 1.3-1 1.3-2.6zm7-8.2c0-.3-.3-.5-.6-.5s-.7.3-.7.7c0 .2.2.5.5.5s.7-.4.7-.7zm-1 5c0-.4 0-.5.2-.8l.2-.7c0-.6-.5-1.1-1.1-1.1-1.3 0-1.8 2-1.8 2 0 .2.2.2.2.2l.2-.3c.3-1.2.9-1.6 1.3-1.6.1 0 .4 0 .4.4l-.2.7c0 .3-.7 1.9-.9 2.5l-.3 1c0 .6.5 1 1.1 1 1.2 0 1.7-1.8 1.7-2h-.1c-.2 0-.2 0-.2.2-.3.8-.7 1.6-1.4 1.6-.2 0-.3-.1-.3-.4 0-.4 0-.6.4-1.4zM166.8 25.2c0-1-.2-2.6-.9-4.1-.8-1.6-2-2.5-2-2.5l-.2.1.3.3c1.2 1.3 2 3.5 2 6.2 0 2.3-.5 4.6-2.1 6.3l-.2.2.1.2c.2 0 1.4-1 2.1-2.6.7-1.5.9-3 .9-4zM179 25.5c.3 0 .5 0 .5-.3 0-.2-.2-.2-.4-.2h-5.7c.2-1.8 1.7-3 3.6-3h2c.3 0 .5 0 .5-.4 0-.2-.2-.2-.4-.2H177c-2.3 0-4.1 1.7-4.1 3.8a4 4 0 0 0 4 3.9h2.2c.2 0 .4 0 .4-.3 0-.2-.2-.2-.4-.2H177c-1.9 0-3.4-1.3-3.6-3.1zM186.4 27.5c0 .5-.1.6-1.2.6-.2 0-.3 0-.3.3 0 .2.1.2.3.2h4.4c2.8 0 5.4-2.8 5.4-5.8 0-1.8-1.1-3.3-3.1-3.3h-4.5c-.2 0-.4 0-.4.2s.2.2.4.2h.6c.2 0 .3 0 .3.2v.3zm3-7.1c0-.5 0-.5.6-.5h1.5c1.3 0 2.4.7 2.4 2.4 0 .7-.3 2.9-1.4 4.3a4 4 0 0 1-3.1 1.5h-1.8l-.2-.1.1-.3zm0 0"/></g></svg>