<svg xmlns="http://www.w3.org/2000/svg" width="248.6" height="31.4"><g aria-label="∑ l∈B ∑(n,j)∈C ∪{0} Z(m,i)(n,j),l =1,∀(m,i)∈C"><path d="m16.2 18.6 1.6-4.3h-.4c-.5 1.4-1.9 2.3-3.4 2.7-.3 0-1.6.4-4.1.4h-8l6.7-7.9.1-.2v-.2L2.3.6h7.3c1.8 0 3 .2 3.1.2.8.2 2 .4 3 1 .3.3 1.2.9 1.6 2h.4L16.2 0H0v.5l7 9.6-6.9 8.1v.3h.3zM2 22.4V22.1l-1.3.1s-.2 0-.2.3h.3c.4 0 .4.1.4.2v.2L0 27.5v.3c0 .6.5.9 1 .9.2 0 .5 0 .7-.5l.3-1H2c-.1 0-.2 0-.2.2-.1.4-.3 1-.7 1-.2 0-.3-.2-.3-.4v-.4zM8.6 26.5c.2 0 .4 0 .4-.2 0-.3-.2-.3-.4-.3H4.3A2.6 2.6 0 0 1 7 23.7h1.6c.2 0 .4 0 .4-.2 0-.3-.2-.3-.4-.3H7a3.1 3.1 0 0 0-3.2 3A3 3 0 0 0 7 29.4h1.6c.2 0 .4 0 .4-.2 0-.3-.2-.3-.4-.3H7c-1.4 0-2.6-1-2.7-2.3zM11.8 27.9c-.1.3-.1.4-.9.4-.1 0-.2 0-.2.2l.2.1h3.6c1.6 0 2.8-1 2.8-2 0-.7-.6-1.2-1.6-1.3 1.1-.2 2-1 2-1.7s-.6-1.3-1.8-1.3h-3.4c-.2 0-.3 0-.3.2h.3l.3.1.2.1v.2zm1.4-2.7.6-2.3c0-.3.1-.3.5-.3h1.4c1 0 1.2.6 1.2 1 0 .7-.9 1.6-2.1 1.6zm-.4 3h-.3V28l.7-2.6h2c.8 0 1.2.6 1.2 1.2 0 .9-1 1.7-2.1 1.7zM60.6 18.6l1.6-4.3H62c-.5 1.4-2 2.3-3.5 2.7-.3 0-1.5.4-4.1.4h-8L53 9.5l.2-.2-.1-.2L46.9.6h7.3c1.7 0 3 .2 3 .2.8.2 2 .4 3 1 .3.3 1.2.9 1.7 2h.3L60.6 0H44.5v.5l7 9.6-6.8 8.1-.2.3h.4zM24 22.1a5.6 5.6 0 0 0-2.2 4.7c0 1.3.4 3.3 2.3 4.6h.1v-.2c-1.3-1.1-1.7-2.7-1.7-4.4 0-2.5 1-3.7 1.7-4.4v-.1l-.1-.2zM26 28.5v.4c0 .2.1.3.3.3l.3-.2.2-.6.2-.8.2-.6c0-.4 0-.5.3-.9.3-.3.7-.8 1.4-.8.6 0 .6.5.6.6 0 .6-.4 1.6-.6 2l-.1.5c0 .5.4.8.9.8 1 0 1.3-1.3 1.3-1.4l-.1-.1-.2.1c-.2.8-.6 1.1-1 1.1-.2 0-.2 0-.2-.3l.2-.7c.1-.3.5-1.3.5-1.8 0-1-.7-1-1.2-1a2 2 0 0 0-1.6.8c0-.7-.6-.9-1-.9s-.6.3-.7.5l-.4 1h.2l.2-.2c.1-.6.3-1 .7-1 .2 0 .3.2.3.4s0 .6-.2.8l-.2.8zm7.4.5c0 .5 0 1-.7 1.7v.2c.2 0 1-.7 1-1.8 0-.6-.2-1-.6-1-.4 0-.6.2-.6.5s.2.5.6.5l.3-.1zm5.3-5.7c0-.2-.1-.3-.4-.3-.2 0-.5.2-.5.5 0 .1.1.3.4.3.2 0 .5-.2.5-.5zm-2 6.3c-.1.6-.6 1.2-1.2 1.2l-.3-.1c.2-.1.3-.3.3-.5s-.2-.3-.3-.3c-.3 0-.6.2-.6.5 0 .4.4.6 1 .6.5 0 1.6-.3 1.9-1.5l.8-3.3V26c0-.5-.4-.9-1-.9-1 0-1.6 1.3-1.6 1.4 0 .2.2.2.2.2l.2-.2c.2-.6.7-1.1 1.2-1.1.3 0 .4.1.4.4v.3zM40.4 22.1s-.2 0-.2.2h.1c.8.8 1.7 2 1.7 4.5 0 2-.6 3.4-1.6 4.3l-.2.2.1.1c.2 0 1-.6 1.7-1.7.4-.8.6-1.8.6-3s-.4-3.3-2.2-4.6zM49.5 27c.1 0 .4 0 .4-.2s-.3-.2-.4-.2h-4.3a2.6 2.6 0 0 1 2.7-2.4h1.6c.1 0 .4 0 .4-.2s-.3-.2-.4-.2h-1.6a3.1 3.1 0 0 0-3.2 3 3 3 0 0 0 3.2 3h1.6c.1 0 .4 0 .4-.2s-.3-.2-.4-.2h-1.6c-1.5 0-2.6-1-2.7-2.4zM58.7 22.7l-.1-.1h-.2l-.7.8c0-.1-.6-.8-1.7-.8-2.3 0-4.5 2-4.5 4 0 1.6 1.2 2.7 2.9 2.7.5 0 1.4-.1 2.3-1 .8-.5 1-1.3 1-1.4l-.2-.1-.2.1a3 3 0 0 1-2.8 2c-1 0-2-.5-2-2 0-.2 0-1.7 1-2.8.7-.8 1.7-1.2 2.6-1.2 1 0 1.7.8 1.7 1.8v.4l.1.1c.2 0 .2 0 .2-.2zM68.4 28.1c0 1.8-1.7 2.6-3 2.6-1.4 0-3-.8-3-2.6v-5.5s0-.5-.4-.5c-.3 0-.3.4-.3.5v5.6c0 1.9 1.7 3.2 3.7 3.2s3.7-1.3 3.7-3.2v-5.6s0-.5-.4-.5c-.3 0-.3.4-.3.5zM73 23.5c0-.2 0-.5.2-.7.3-.3.6-.4 1-.4l.2-.1c0-.2-.1-.2-.2-.2-1 0-2 .5-2 1.2v2.2c0 .2 0 .5-.3.8-.2.2-.5.3-1 .4h-.2c0 .2 0 .2.2.2 1 0 1.3.7 1.3 1V30c0 .2 0 .7.5 1a3 3 0 0 0 1.5.3l.2-.1-.2-.1c-.8 0-1.2-.5-1.3-.8V28c0-.2 0-.6-.2-.8-.2-.2-.4-.4-.9-.5.4-.1 1-.4 1-1l.1-.4zM80 26.1c0-1 0-1.7-.5-2.4A2 2 0 0 0 78 23c-2.1 0-2.1 2.6-2.1 3.2 0 .7 0 3.2 2.1 3.2 2.2 0 2.2-2.5 2.2-3.2zm-2 3c-.5 0-1-.3-1.3-1l-.1-2 .1-2c.2-.7.8-.9 1.2-.9.5 0 1 .3 1.2.9l.1 2-.1 1.9c-.2.8-.8 1-1.2 1zM83.6 28c0-.2 0-.5.4-.7.2-.2.5-.4 1-.4l.1-.1-.1-.1c-1.1-.1-1.3-.8-1.4-1v-2.2c0-.2 0-.7-.5-1-.5-.3-1.2-.4-1.4-.4-.2 0-.3 0-.3.2h.2c.9.1 1.2.6 1.3 1v2.2c0 .2 0 .6.3.8l.8.5c-.3 0-1 .3-1 1V30c0 .2 0 .5-.4.7-.3.3-.6.3-1 .4l-.2.1.3.1c1 0 2-.4 2-1.1zM97.8 3.9v-.2c0-.2 0-.2-.3-.2h-5.6c-.3 0-.3 0-.4.3l-.7 2.4V6.5l.2-.1c.6-1.6 1.2-2.4 3.3-2.4h2.2L89 12.3l-.1.2.3.1h5.8c.3 0 .3 0 .4-.2l1-3v-.2l-.2-.1-.2.3c-.6 1.8-1.2 2.8-3.5 2.8h-2.2zM100.6 8a5.6 5.6 0 0 0-2.2 4.7c0 1.3.3 3.3 2.2 4.6h.2l-.1-.2C99.4 16 99 14.4 99 12.7c0-2.5 1-3.7 1.7-4.4v-.1l-.1-.2zM105.5 14.3l-.2.5c0 .2.2.3.4.3l.3-.2.2-.6a17.1 17.1 0 0 0 .4-1.4c0-.4 0-.4.2-.7.3-.5.8-1 1.5-1 .5 0 .6.4.6.6 0 .6-.4 1.6-.6 2l-.1.5c0 .5.4.8.9.8.9 0 1.3-1.3 1.3-1.4l-.1-.1-.2.1c-.2.8-.6 1.1-1 1.1-.2 0-.2 0-.2-.3l.2-.7c0-.3.5-1.3.5-1.8 0-.2 0-.6-.4-.8-.1-.2-.4-.3-.8-.3-.9 0-1.4.6-1.7 1 0-.8-.7-1-1.2-1a2 2 0 0 0-1.6.9c0-.7-.6-.9-1-.9-.3 0-.6.3-.7.5l-.3 1h.1c.2 0 .2 0 .2-.2.2-.6.4-1 .7-1 .3 0 .3.2.3.4l-.1.8-.2.8-.3 1.2-.1.4c0 .2.1.3.3.3l.4-.2.1-.6.2-.8.2-.6c.1-.4.1-.5.4-.9.2-.3.7-.8 1.4-.8.5 0 .5.5.5.6l-.1.9zm7.3.6c0 .5 0 1-.7 1.7v.2c.2 0 1-.7 1-1.8 0-.6-.2-1-.7-1-.3 0-.5.2-.5.5s.2.5.5.5l.4-.1zm4.2-5.7c0-.1 0-.3-.3-.3s-.6.2-.6.5c0 .1.1.3.4.3.3 0 .5-.2.5-.5zm-1.9 4.7v.4c0 .4.3.8.8.8 1 0 1.4-1.3 1.4-1.4l-.2-.1-.2.1c-.2.8-.6 1.1-1 1.1-.1 0-.2 0-.2-.3 0-.2 0-.4.2-.6l.3-.7.4-1.2v-.3c0-.4-.3-.8-.8-.8-1 0-1.4 1.3-1.4 1.4 0 .2.2.2.2.2l.2-.2c.2-.8.6-1.1 1-1.1.1 0 .2 0 .2.3 0 .2 0 .4-.3 1zM118.6 8s-.2 0-.2.2l.1.1c.8.7 1.7 2 1.7 4.4 0 2-.6 3.4-1.6 4.3l-.2.2.2.1s1-.6 1.6-1.7c.4-.8.6-1.8.6-3s-.3-3.3-2.2-4.6zm6.6 0a5.6 5.6 0 0 0-2.2 4.7c0 1.3.4 3.3 2.2 4.6h.2V17c-1.3-1.1-1.8-2.7-1.8-4.4 0-2.5 1-3.7 1.8-4.4v-.1c0-.2-.1-.2-.2-.2zM127.2 14.4v.4c0 .2 0 .3.2.3l.4-.2.2-.6.2-.8.1-.6.4-.9c.3-.3.7-.8 1.4-.8.6 0 .6.5.6.6 0 .6-.4 1.6-.6 2l-.1.5c0 .5.4.8.9.8.9 0 1.3-1.3 1.3-1.4l-.1-.1-.2.1c-.2.8-.6 1.1-1 1.1-.2 0-.2 0-.2-.3l.2-.7c0-.3.5-1.3.5-1.8 0-1-.8-1-1.2-1a2 2 0 0 0-1.6.8c0-.7-.6-.9-1-.9s-.6.3-.8.5l-.3 1h.2l.2-.2c.1-.6.3-1 .7-1 .2 0 .3.2.3.4l-.2.8-.2.8zm7.4.5c0 .5 0 1-.7 1.7v.2c.2 0 1-.7 1-1.8 0-.6-.3-1-.7-1-.3 0-.5.2-.5.5s.2.5.5.5l.4-.1zm5.3-5.7c0-.2-.1-.3-.4-.3-.3 0-.5.2-.5.5 0 .1.1.3.4.3.2 0 .5-.2.5-.5zm-2 6.3c-.1.6-.6 1.2-1.2 1.2l-.3-.1c.2-.1.3-.3.3-.5s-.2-.3-.4-.3c-.3 0-.5.2-.5.5 0 .4.4.6 1 .6.5 0 1.6-.3 1.9-1.5l.8-3.3v-.3c0-.5-.4-.9-1-.9-1 0-1.6 1.3-1.6 1.4 0 .2.2.2.2.2l.2-.2c.2-.5.7-1.1 1.2-1.1.3 0 .3.1.3.4v.3zM141.6 8c-.1 0-.2 0-.2.2v.1c.9.7 1.8 2 1.8 4.4 0 2-.6 3.4-1.6 4.3l-.2.2.1.1c.1 0 1-.6 1.6-1.7.4-.8.7-1.8.7-3s-.4-3.3-2.2-4.6zM146.9 14.9c0 .5-.1 1-.8 1.7v.2c.2 0 1-.7 1-1.8 0-.6-.2-1-.6-1-.3 0-.6.2-.6.5s.2.5.6.5l.4-.1zm3.8-6v-.2l-.1-.1h-1.2c-.1 0-.2 0-.2.3l.2.1.4.1v.2l-1.2 4.6v.3c0 .6.5 1 1 1 .2 0 .5-.2.7-.6l.4-1h-.2l-.2.2c0 .4-.3 1-.7 1-.2 0-.3-.2-.3-.4V14zM165 8.3c.1 0 .4 0 .4-.3s-.3-.3-.5-.3H157c-.2 0-.4 0-.4.3s.2.3.4.3zm0 2.6c.1 0 .4 0 .4-.3s-.3-.3-.5-.3H157c-.2 0-.4 0-.4.3s.2.3.4.3zm8.7-6.8c0-.3 0-.3-.3-.3-.8.8-2 .8-2.4.8V5c.3 0 1 0 1.7-.3v6.9c0 .4 0 .6-1.2.6h-.4v.4H175.4v-.4h-.4c-1.3 0-1.3-.1-1.3-.6zM179.2 12.6c0-.9-.4-1.4-.9-1.4-.4 0-.7.3-.7.7 0 .4.3.7.7.7.2 0 .3 0 .5-.2v.2c0 1-.4 1.8-.8 2.2l-.2.2c0 .1 0 .2.2.2.1 0 1.2-1 1.2-2.6zM189.7 3.9v-.2c0-.2 0-.3-.2-.3s-.3.2-.3.3l-1.1 3h-4l-1.1-3c-.1-.2-.2-.3-.4-.3 0 0-.2.1-.2.3v.2l3.4 8.7c0 .2 0 .3.3.3.2 0 .2-.1.3-.3zm-5.4 3.3h3.6l-1.8 4.7zM194.1 15.8l-.2-.3c-1.6-1.7-2-4.2-2-6.2 0-2.3.5-4.6 2-6.3l.2-.2v-.2c-.2 0-1.4 1-2.2 2.6-.7 1.5-.8 3-.8 4 0 1.1.1 2.7.8 4.2.8 1.7 2 2.5 2.1 2.5l.1-.1zM196 11.8v.6c0 .2.2.4.4.4.1 0 .4-.1.4-.4l.3-1 .3-1.2.2-.9.2-.6c.2-.5.9-1.7 2.2-1.7.5 0 .7.5.7 1l-.2 1-.4 1.6-.3 1-.1.8c0 .2.1.4.3.4.5 0 .5-.4.6-.8l.8-3.2c0-.2.8-1.8 2.2-1.8.6 0 .8.5.8 1 0 .7-.6 2.2-.9 3l-.1.7c0 .6.4 1 1 1 1.3 0 1.8-1.9 1.8-2l-.2-.1-.2.2c-.2.7-.6 1.7-1.3 1.7-.2 0-.3-.2-.3-.5s0-.6.2-1c.2-.6.8-2 .8-2.8 0-.9-.5-1.5-1.5-1.5s-1.7.6-2.2 1.3c0-.1 0-.6-.4-1-.3-.2-.8-.3-1.1-.3-1.2 0-1.8.9-2 1.2-.1-.8-.7-1.2-1.3-1.2-.6 0-.9.6-1 .8l-.4 1.3.2.1.2-.3c.2-1 .5-1.6 1-1.6.2 0 .4.1.4.6l-.2 1.2zm13.3.8c0-.9-.4-1.4-.9-1.4-.4 0-.7.3-.7.7 0 .4.3.7.7.7.2 0 .4 0 .5-.2v.2c0 1-.4 1.8-.8 2.2l-.2.2.2.2c.1 0 1.2-1 1.2-2.6zm7-8.3c0-.2-.2-.5-.5-.5-.4 0-.8.4-.8.7 0 .3.2.5.5.5s.7-.3.7-.7zm-1 5 .2-.8.2-.7c0-.6-.4-1-1-1-1.3 0-1.8 1.9-1.8 2l.1.1c.1 0 .2 0 .2-.2.4-1.3 1-1.7 1.4-1.7 0 0 .3 0 .3.5l-.1.6-1 2.5c0 .4-.3.8-.3 1 0 .7.5 1.2 1.1 1.2 1.3 0 1.8-2 1.8-2 0-.2-.2-.2-.2-.2l-.2.2c-.2.9-.7 1.7-1.4 1.7-.2 0-.3-.2-.3-.5l.4-1.3zM221 9.3c0-1-.2-2.7-1-4.2-.8-1.6-2-2.5-2-2.5l-.2.2.3.3c1.3 1.3 2 3.4 2 6.2 0 2.3-.5 4.6-2.1 6.3l-.2.2.2.1s1.3-.9 2-2.5c.7-1.5 1-3 1-4.1zM233.2 9.6c.2 0 .5 0 .5-.3s-.3-.3-.5-.3h-5.6c.1-1.7 1.6-3 3.5-3h2.1c.2 0 .5 0 .5-.3s-.3-.3-.5-.3h-2c-2.4 0-4.2 1.8-4.2 3.9a4 4 0 0 0 4.1 3.8h2.1c.2 0 .5 0 .5-.2 0-.3-.3-.3-.5-.3h-2c-2 0-3.5-1.3-3.6-3zM248.6 3.4l-.2-.1-.2.1-1 1c0-.2-.6-1.1-2.1-1.1-3 0-6 2.9-6 6 0 2.2 1.6 3.6 3.6 3.6 1.2 0 2.2-.5 2.9-1.1 1.2-1.1 1.5-2.3 1.5-2.4l-.2-.1-.2.1c0 .4-.4 1.4-1.3 2.1-1 .8-1.8 1-2.5 1-1.2 0-2.6-.7-2.6-2.8 0-.7.3-2.9 1.7-4.4.8-1 2-1.6 3.2-1.6 1.3 0 2.1 1 2.1 2.5V7l.2.1c.2 0 .2 0 .2-.2zm0 0"/></g></svg>