<svg xmlns="http://www.w3.org/2000/svg" width="293.1" height="17.8"><g aria-label="P X(m,i,α),x =P X(m,i,α−1),x ,∀(m,i,α)∈W V,∀y∈X R"><path d="M3.5 7.6h2.3c1.8 0 3.7-1.3 3.7-2.8 0-1-.9-2-2.6-2H2.6c-.3 0-.4 0-.4.2s0 .2.3.2h.6c.2 0 .3 0 .3.2v.3l-1.8 7.1c-.1.5-.2.6-1.2.6-.3 0-.4 0-.4.3l.2.1h3.4s.3 0 .3-.2-.1-.2-.4-.2c-.5 0-.9 0-.9-.2V11zm1-4c0-.4 0-.4.7-.4h1.2c1.1 0 1.9.3 1.9 1.2 0 .6-.3 1.7-.8 2.2a3 3 0 0 1-2 .7h-2zM15 2.8l.9-.9C17 .7 17.5.4 18.3.3c.1 0 .2 0 .2-.2l-.1-.1h-1.9c-.1 0-.2 0-.2.2v.1c.2 0 .4 0 .4.3l-.2.3-1.6 1.6-1-1.8V.6c0-.1.2-.3.5-.3 0 0 .2 0 .2-.2l-.2-.1h-2.3s-.2 0-.2.2l.3.1c.6 0 .6.1.7.3l1.3 2.6-.5.5-.8.8c-1.1 1-1.5 1.5-2.4 1.5 0 0-.2 0-.2.2l.1.1h2l.2-.1c0-.2-.1-.2-.2-.2 0 0-.3 0-.3-.2s.2-.3.4-.5l1.8-1.8 1.2 2.2c0 .1-.2.3-.5.3 0 0-.2 0-.2.2l.2.1h2.2c.1 0 .3 0 .3-.2h-.3c-.6 0-.6-.2-.7-.3zM11.3 8.5A5.6 5.6 0 0 0 9.1 13c0 1.3.4 3.4 2.2 4.7 0 0 .2 0 .2-.2h-.1c-1.2-1.2-1.7-2.8-1.7-4.5 0-2.5 1-3.7 1.7-4.4v-.1l-.1-.1zM16.2 14.7l-.1.5c0 .2.1.3.3.3.1 0 .3 0 .3-.2l.2-.5a17.1 17.1 0 0 0 .4-1.5c0-.4 0-.4.3-.7.3-.5.7-1 1.4-1 .6 0 .6.4.6.7 0 .5-.4 1.6-.6 2l-.1.4c0 .5.4.8.9.8 1 0 1.3-1.2 1.3-1.4L21 14l-.2.1c-.2.8-.6 1.2-1 1.2-.2 0-.2-.2-.2-.4l.2-.7c.1-.3.5-1.3.5-1.8 0-.1 0-.5-.4-.8l-.8-.2c-.9 0-1.4.5-1.7.9 0-.8-.7-1-1.2-1a2 2 0 0 0-1.6.9c0-.6-.6-.8-1-.8-.3 0-.6.2-.7.5l-.3.9h.1c.2 0 .2 0 .2-.2.2-.5.4-1 .7-1 .3 0 .3.2.3.5l-.1.7-.2.9-.3 1.2-.1.3c0 .2.2.3.3.3.2 0 .3 0 .4-.2l.1-.5.2-.9.2-.6c.1-.4.1-.5.4-.8.3-.4.7-.9 1.4-.9.5 0 .5.5.5.7l-.1.8zm7.3.6c0 .5 0 1.1-.7 1.7v.2c.2 0 1-.7 1-1.8 0-.6-.2-1-.7-1-.3 0-.5.2-.5.5s.2.5.5.5l.4-.1zm4.2-5.7c0-.1 0-.3-.3-.3s-.6.2-.6.5c0 .1.2.3.4.3.3 0 .5-.2.5-.5zm-1.9 4.8v.3c0 .5.3.8.8.8 1 0 1.4-1.2 1.4-1.4l-.2-.1-.2.1c-.2.8-.6 1.2-1 1.2-.1 0-.2-.1-.2-.4l.2-.5c0-.3.2-.5.3-.8l.4-1.2v-.3c0-.4-.3-.7-.8-.7-1 0-1.3 1.2-1.3 1.4H25.5c.2-.9.6-1.2 1-1.2.1 0 .2 0 .2.3 0 .2 0 .4-.3 1zm4.6.9c0 .5 0 1.1-.7 1.7v.2c.2 0 1-.7 1-1.8 0-.6-.2-1-.6-1-.4 0-.6.2-.6.5s.2.5.6.5l.3-.1zm6.3-1.2A5 5 0 0 0 38 12l-.1-.1c-.2 0-.2 0-.2.2a5 5 0 0 1-1 1.7V13c-.1-1-.8-1.5-1.7-1.5-1.4 0-2.7 1.2-2.7 2.5 0 .9.6 1.6 1.7 1.6.9 0 1.6-.4 2.2-.8.2.7.6.8 1 .8.5 0 .8-.4.8-.6l-.2-.1h-.1c-.2.4-.4.5-.5.5-.2 0-.3 0-.4-1.2zm-.7.3c-1 .8-1.7.9-2 .9-.7 0-1-.4-1-1 0-.3.1-1.3.6-2 .4-.5 1-.7 1.3-.7.7 0 1 .7 1 1.3v1.5zM39.4 8.5h-.2l.1.2c.8.8 1.7 2 1.7 4.4 0 2-.6 3.4-1.6 4.3l-.2.2.1.2c.1 0 1-.7 1.6-1.8.4-.8.7-1.8.7-2.9 0-1.3-.4-3.3-2.2-4.6zM44.7 15.3c0 .5-.1 1.1-.8 1.7v.1l.1.1c.1 0 1-.7 1-1.8 0-.6-.3-1-.7-1-.3 0-.6.2-.6.5s.2.5.6.5l.4-.1zm3.5-.8c-.1.3-.4.8-1 .8l-.4-.2c.4 0 .4-.4.4-.5 0-.2-.2-.3-.4-.3s-.5.2-.5.6c0 .4.5.6 1 .6.4 0 .8-.2 1-.6.2.5.8.6 1.1.6 1 0 1.7-1.1 1.7-1.4l-.2-.1-.2.1c-.2.7-.7 1.2-1.2 1.2-.4 0-.6-.3-.6-.6l.5-2.1c.2-.8.6-1 .9-1l.5.1c-.3.1-.4.4-.4.5 0 .2.1.4.4.4.2 0 .5-.2.5-.6 0-.5-.6-.6-1-.6-.5 0-.8.2-1 .6-.2-.4-.6-.6-1.2-.6-1 0-1.6 1-1.6 1.4h.4c.2-.8.8-1.2 1.2-1.2.3 0 .6.2.6.6l-.2 1zM65.4 7.5c.2 0 .4 0 .4-.3 0-.2-.2-.2-.4-.2h-8c-.2 0-.4 0-.4.2 0 .3.2.3.4.3zm0 2.6c.2 0 .4 0 .4-.3s-.2-.3-.4-.3h-8c-.2 0-.4 0-.4.3s.2.3.4.3zM74.3 7.6h2.2c2 0 3.8-1.3 3.8-2.8 0-1-1-2-2.7-2h-4.3c-.2 0-.3 0-.3.2s0 .2.3.2h.6c.2 0 .3 0 .3.2v.3l-1.8 7.1c-.2.5-.2.6-1.2.6-.3 0-.4 0-.4.3l.2.1h3.4s.2 0 .2-.2 0-.2-.3-.2c-.5 0-.9 0-.9-.2V11zm1-4c0-.4 0-.4.7-.4h1.2c1.1 0 1.8.3 1.8 1.2 0 .6-.2 1.7-.7 2.2a3 3 0 0 1-2 .7h-2zM85.8 2.8l.9-.9C87.9.7 88.2.4 89 .3c0 0 .2 0 .2-.2l-.1-.1h-1.9c-.2 0-.3 0-.3.2l.2.1s.3 0 .3.3l-.2.3-1.6 1.6-1-1.8V.6c0-.1.1-.3.5-.3 0 0 .2 0 .2-.2l-.2-.1H83s-.2 0-.2.2l.3.1c.5 0 .6.1.7.3L85 3.2l-.5.5-.8.8c-1.1 1-1.5 1.5-2.4 1.5-.1 0-.2 0-.2.2l.1.1h2l.2-.1c0-.2-.1-.2-.2-.2s-.3 0-.3-.2.1-.3.3-.5l2-1.8 1 2.2h.1c0 .1-.2.3-.5.3 0 0-.2 0-.2.2l.2.1H88s.2 0 .2-.2H88c-.6 0-.6-.2-.7-.3zM82 8.5a5.6 5.6 0 0 0-2.2 4.6c0 1.3.4 3.4 2.3 4.7 0 0 .2 0 .2-.2h-.1c-1.3-1.2-1.7-2.8-1.7-4.5 0-2.5 1-3.7 1.7-4.4v-.1l-.1-.1zM87 14.7l-.2.5c0 .2.2.3.4.3.1 0 .3 0 .3-.2l.2-.5a17.1 17.1 0 0 0 .3-1.5l.3-.7c.3-.5.8-1 1.5-1 .5 0 .6.4.6.7 0 .5-.4 1.6-.6 2l-.1.4c0 .5.4.8.9.8.9 0 1.3-1.2 1.3-1.4l-.1-.1-.2.1c-.2.8-.6 1.2-1 1.2-.2 0-.2-.2-.2-.4l.2-.7c0-.3.5-1.3.5-1.8 0-.1 0-.5-.4-.8l-.8-.2c-.9 0-1.4.5-1.7.9 0-.8-.7-1-1.2-1a2 2 0 0 0-1.6.9c0-.6-.6-.8-1-.8s-.6.2-.7.5l-.3.9h.1c.2 0 .2 0 .2-.2.2-.5.3-1 .7-1 .3 0 .3.2.3.5l-.1.7-.2.9-.3 1.2-.1.3c0 .2.1.3.3.3.2 0 .3 0 .4-.2l.1-.5.2-.9.2-.6c0-.4.1-.5.4-.8.2-.4.7-.9 1.4-.9.5 0 .5.5.5.7l-.1.8zm7.3.6c0 .5 0 1.1-.7 1.7v.2c.2 0 1-.7 1-1.8 0-.6-.2-1-.7-1-.3 0-.5.2-.5.5s.2.5.5.5l.4-.1zm4.2-5.7c0-.1 0-.3-.4-.3-.2 0-.5.2-.5.5 0 .1.1.3.4.3.3 0 .5-.2.5-.5zm-1.9 4.8v.3c0 .5.3.8.8.8 1 0 1.4-1.2 1.4-1.4l-.2-.1-.2.1c-.2.8-.6 1.2-1 1.2-.1 0-.2-.1-.2-.4 0-.2 0-.3.2-.5 0-.3.2-.5.3-.8l.4-1.2v-.3c0-.4-.3-.7-.8-.7-1 0-1.4 1.2-1.4 1.4h.4c.2-.9.6-1.2 1-1.2.1 0 .2 0 .2.3 0 .2 0 .4-.3 1zm4.6.9c0 .5 0 1.1-.7 1.7v.2c.2 0 1-.7 1-1.8 0-.6-.2-1-.7-1-.3 0-.5.2-.5.5s.2.5.5.5l.4-.1zm6.3-1.2a5 5 0 0 0 1.2-2.2l-.2-.1-.1.2a5 5 0 0 1-1 1.7V13c-.1-1-.8-1.5-1.7-1.5-1.4 0-2.7 1.2-2.7 2.5 0 .9.6 1.6 1.7 1.6.9 0 1.6-.4 2.1-.8.3.7.7.8 1 .8.6 0 .9-.4.9-.6l-.2-.1h-.1c-.2.4-.5.5-.6.5 0 0-.3 0-.3-1.2zm-.7.3c-1 .8-1.7.9-2 .9-.7 0-1-.4-1-1 0-.3.1-1.3.6-2 .4-.5 1-.7 1.3-.7.7 0 1 .7 1 1.3v1.5zM116.3 13.4c.1 0 .3 0 .3-.3 0-.2-.2-.2-.3-.2h-5.6c-.1 0-.4 0-.4.2 0 .3.3.3.4.3zM120.7 9.5c0-.2 0-.2-.2-.2-.6.6-1.5.6-1.8.6v.3c.2 0 .8 0 1.3-.3v4.8c0 .3 0 .4-1 .4h-.3v.3a48.2 48.2 0 0 1 3.3 0v-.3h-.3c-1 0-1-.1-1-.4zm3-1h-.1v.2c.9.8 1.8 2 1.8 4.4 0 2-.6 3.4-1.6 4.3l-.2.2.1.2c.1 0 1-.7 1.6-1.8.4-.8.7-1.8.7-2.9 0-1.3-.4-3.3-2.2-4.6zM129 15.3c0 .5 0 1.1-.7 1.7v.2c.2 0 1-.7 1-1.8 0-.6-.2-1-.6-1-.4 0-.6.2-.6.5s.2.5.6.5l.4-.1zm3.5-.8c0 .3-.3.8-.8.8 0 0-.3 0-.5-.2.3 0 .4-.4.4-.5 0-.2-.2-.3-.4-.3s-.5.2-.5.6c0 .4.5.6 1 .6.4 0 .8-.2 1-.6.2.5.7.6 1.1.6 1 0 1.6-1.1 1.6-1.4l-.1-.1-.2.1c-.2.7-.7 1.2-1.3 1.2-.3 0-.5-.3-.5-.6l.5-2.1c.1-.8.6-1 .9-1l.5.1c-.3.1-.4.4-.4.5 0 .2.1.4.3.4.2 0 .6-.2.6-.6 0-.5-.6-.6-1-.6-.5 0-.9.2-1 .6-.2-.4-.7-.6-1.2-.6-1 0-1.6 1-1.6 1.4H131.2c.3-.8.8-1.2 1.3-1.2.3 0 .6.2.6.6l-.2 1zM139.6 11.8c0-.9-.3-1.4-.8-1.4s-.7.4-.7.7c0 .4.2.7.7.7l.4-.1h.1v.1c0 1-.4 1.8-.9 2.2l-.1.3h.1c.2 0 1.2-1 1.2-2.5zM150.1 3.1l.1-.2c0-.1 0-.3-.2-.3s-.3.2-.4.3l-1 3h-4.1l-1-3c-.2-.2-.2-.3-.4-.3l-.3.3.1.2 3.3 8.7c0 .2.1.3.3.3.2 0 .3-.1.3-.3zm-5.4 3.3h3.6l-1.8 4.7zM154.6 15l-.2-.3c-1.7-1.7-2.1-4.2-2.1-6.2 0-2.3.5-4.6 2.1-6.3l.2-.2-.1-.1c-.2 0-1.4.9-2.1 2.6a9.9 9.9 0 0 0 0 8.2c.8 1.6 2 2.5 2 2.5.2 0 .2 0 .2-.2zM156.5 11v.6c0 .3.1.4.3.4.2 0 .4-.1.5-.4l.2-1 .3-1.2.3-.9.2-.6c.1-.4.8-1.6 2.1-1.6.6 0 .7.4.7.9 0 .3 0 .7-.2 1l-.3 1.6-.3 1-.2.8c0 .3.2.4.4.4.4 0 .5-.4.6-.8l.8-3.2c0-.2.7-1.7 2.2-1.7.6 0 .7.4.7.9 0 .7-.5 2.3-.8 3l-.2.7c0 .6.5 1 1 1 1.3 0 1.8-1.9 1.8-2l-.1-.1c-.2 0-.2 0-.2.2-.2.7-.6 1.7-1.4 1.7-.2 0-.3-.2-.3-.4l.2-1c.3-.7.9-2.2.9-3 0-.8-.6-1.3-1.6-1.3s-1.6.5-2.1 1.3c0-.2 0-.7-.5-1-.3-.3-.7-.3-1-.3-1.2 0-1.9.8-2.1 1.1 0-.7-.6-1.1-1.2-1.1-.7 0-.9.5-1 .7-.3.5-.4 1.3-.4 1.3l.1.1c.1 0 .2 0 .2-.3.3-1 .5-1.5 1-1.5.2 0 .4 0 .4.6l-.2 1zm13.2.8c0-.9-.3-1.4-.8-1.4s-.7.4-.7.7c0 .4.2.7.7.7l.4-.1h.1v.1c0 1-.4 1.8-.9 2.2l-.1.3h.1c.2 0 1.2-1 1.2-2.5zm7-8.3c0-.2-.2-.5-.5-.5-.4 0-.7.4-.7.8 0 .2.2.4.5.4s.7-.3.7-.7zm-1 5 .3-.7.2-.8c0-.5-.5-1-1.1-1-1.3 0-1.8 1.9-1.8 2l.2.1.2-.2c.3-1.3.9-1.6 1.3-1.6.1 0 .4 0 .4.4l-.2.7-.9 2.4-.3 1c0 .7.4 1.2 1 1.2 1.3 0 1.8-2 1.8-2l-.1-.2c-.2 0-.2 0-.2.2-.3.9-.7 1.7-1.4 1.7-.2 0-.3-.2-.3-.4 0-.4 0-.6.4-1.4zm4.5 3.3c0-.9-.3-1.4-.9-1.4-.4 0-.7.4-.7.7 0 .4.3.7.7.7l.5-.1.1.1c0 1-.5 1.8-1 2.2v.3c.2 0 1.3-1 1.3-2.5zm9.5-3.1c0-2-1.2-2.7-2.2-2.7-1.8 0-3.6 1.9-3.6 3.7 0 1.3.8 2.3 2.2 2.3.8 0 1.8-.3 2.8-1.1.2.7.6 1 1.2 1 .7 0 1.1-.6 1.1-.9l-.2-.1-.1.1c-.3.7-.7.7-.8.7-.4 0-.4-1-.4-1.4 0-.3 0-.3.2-.4a7.7 7.7 0 0 0 1.5-3.2h-.2l-.2.2c-.2.8-.7 1.8-1.3 2.6zm-.9 1.8a4.2 4.2 0 0 1-2.7 1.2c-.8 0-1.2-.6-1.2-1.5 0-.6.4-2 .8-2.7.6-1 1.3-1.2 1.8-1.2 1.3 0 1.3 1.7 1.3 2.7v1.5zM195.8 8.5c0-1-.1-2.6-.9-4.1-.8-1.7-2-2.5-2-2.5l-.2.1.3.3c1.3 1.3 2 3.4 2 6.2 0 2.3-.5 4.6-2 6.3l-.3.2s0 .2.2.2c0 0 1.3-1 2-2.6.7-1.5 1-3 1-4.1zM208.1 8.8c.2 0 .5 0 .5-.3s-.3-.3-.5-.3h-5.6c.1-1.7 1.7-3 3.5-3h2.1c.2 0 .5 0 .5-.3 0-.2-.3-.2-.5-.2h-2c-2.4 0-4.2 1.7-4.2 3.8a4 4 0 0 0 4.1 3.9h2.1c.2 0 .5 0 .5-.3s-.3-.3-.5-.3h-2c-2 0-3.5-1.3-3.6-3zM225.5 4.3c.4-.6.7-1 1.5-1.1.1 0 .3 0 .3-.3l-.2-.1h-2.4s-.2 0-.2.2 0 .2.2.2c.3 0 .8 0 .8.5l-.2.4-3.6 6.3-.5-6.6c0-.3 0-.6 1-.6.2 0 .3 0 .3-.3l-.2-.1h-3c-.1 0-.3 0-.3.2s.2.2.4.2c.5 0 .6 0 .7.3v1l-3.3 5.9-.5-6.8c0-.1 0-.4 1-.4.1 0 .3 0 .3-.3l-.2-.1H214.3s-.2 0-.2.2.1.2.3.2c.7 0 .7 0 .7.5l.6 8c0 .3 0 .4.2.4s.2 0 .4-.3l3.9-6.7.5 6.7c0 .2 0 .3.2.3l.3-.2zM234.4 1c.3-.4.6-.6 1.2-.7 0 0 .2 0 .2-.2l-.2-.1H234s-.2 0-.2.2l.2.1c.3 0 .4.2.4.3l-.2.4-3 4.5-.9-4.8V.6c0-.3.5-.3.6-.3.1 0 .3 0 .3-.2l-.2-.1h-2.2c-.1 0-.2 0-.2.2l.2.1c.5 0 .6 0 .6.3l1 5.7c0 .2 0 .2.2.2s.3 0 .4-.2zM239.7 11.8c0-.9-.4-1.4-.9-1.4-.4 0-.7.4-.7.7 0 .4.3.7.7.7l.5-.1v.1c0 1-.4 1.8-.8 2.2l-.2.3h.2c.1 0 1.2-1 1.2-2.5zM250.2 3.1V3c0-.1 0-.3-.2-.3s-.3.2-.3.3l-1 3h-4.1l-1.1-3-.3-.3c-.2 0-.3.2-.3.3V3l3.4 8.7c0 .2.1.3.3.3.2 0 .2-.1.3-.3zm-5.4 3.3h3.6l-1.8 4.7zM256.7 6.8v-.3c0-.3-.1-.4-.3-.4-.1 0-.4 0-.5.3l-.2.7-.2 1-.6 2.4c0 .3-.6 1.2-1.5 1.2-.7 0-.9-.6-.9-1 0-.7.3-1.5.7-2.7l.3-1c0-.5-.4-1-1-1-1.4 0-1.8 1.9-1.8 2l.1.1c.1 0 .2 0 .2-.2.4-1.3 1-1.6 1.4-1.6 0 0 .3 0 .3.4l-.2 1a8.7 8.7 0 0 0-.8 2.7c0 1.2.8 1.6 1.6 1.6.5 0 1-.2 1.4-.6-.2.7-.4 1.3-.9 2-.3.5-.8.9-1.5.9-.1 0-.8 0-1-.6.2 0 .4 0 .6-.2.1 0 .3-.2.3-.5 0-.4-.4-.5-.5-.5-.3 0-.8.3-.8.9 0 .7.6 1.1 1.4 1.1 1.4 0 2.8-1.2 3.2-2.7zM268.2 8.8c.2 0 .5 0 .5-.3s-.3-.3-.5-.3h-5.6c.2-1.7 1.7-3 3.6-3h2c.2 0 .5 0 .5-.3 0-.2-.3-.2-.5-.2h-2c-2.3 0-4.1 1.7-4.1 3.8a4 4 0 0 0 4 3.9h2.1c.2 0 .5 0 .5-.3s-.3-.3-.5-.3h-2c-2 0-3.4-1.3-3.6-3zM280 6.4l-1.2-2.7v-.2s.2-.3.7-.3c.2 0 .3 0 .3-.3l-.2-.1h-3.2s-.2 0-.2.2.1.2.3.2c.8 0 .9.1 1 .4l1.6 3.7-2.8 3-.2.2c-.7.7-1.3.9-2 1-.1 0-.2 0-.2.2l.1.1h2.8s.2 0 .2-.2-.1-.2-.2-.2c0 0-.5 0-.5-.4 0-.2.2-.4.4-.6L278 9l1.2-1.3 1.4 3.1v.2c0 .1-.2.4-.7.4-.2 0-.3 0-.3.3l.2.1H282.9c.1 0 .3 0 .3-.2s-.1-.2-.3-.2c-.8 0-.9 0-1.1-.6l-1.7-4 2.7-3c.4-.3 1-.6 1.7-.6.2 0 .3 0 .3-.3l-.2-.1H282s-.3 0-.3.2l.2.2c.1 0 .5 0 .5.4l-.2.5zM293.1 5.5l-.1-.2c-.2 0-.2.1-.2.2 0 .5-.3.8-.6.8-.6 0-.6-.6-.7-1.4-.1-.8-.2-1-.4-1.2-.1-.1-.4-.4-.9-.5.8-.2 1.7-.8 1.7-1.5 0-1-1.3-1.7-2.7-1.7h-3.1v.3h.2c.7 0 .7.1.7.5v4.8c0 .3 0 .4-.7.4h-.2v.3h2.7V6h-.2c-.7 0-.7 0-.7-.4V3.3h1.2c.2 0 .7 0 1 .4.4.3.4.5.4 1.1 0 .6 0 1 .4 1.4.4.3 1 .3 1.2.3.8 0 1-.7 1-1zM291 1.7c0 1-.8 1.3-1.8 1.3h-1.2V.7c0-.3 0-.3.2-.4h.6c1 0 2.2 0 2.2 1.4zm0 0"/></g></svg>