<svg xmlns="http://www.w3.org/2000/svg" width="300.4" height="29.3"><g aria-label="U AGV (m,i,4)(n,j,1) ≥∑ l∈B Z(m,i)(m,j),l ,∀(m,i),(n,j)∈C"><path d="M7.5 5c.2-.6.4-1 1.5-1 0 0 .2 0 .2-.3 0 0 0-.2-.2-.2H6.3s-.2 0-.2.3c0 .2 0 .2.2.2.7 0 .9.2.9.5v.3L6 9.6c-.5 1.7-2 2.9-3.3 2.9-1 0-1.7-.6-1.7-1.7l.2-1 1.3-5.2c0-.5.1-.6 1-.6C4 4 4 4 4 3.7c0-.2-.1-.2-.2-.2H.4s-.2 0-.2.3c0 .2.1.2.4.2H1c.2 0 .3 0 .3.2l-.2 1-.3 1.1-.8 3.3-.1.8c0 1.6 1.2 2.5 2.6 2.5 1.7 0 3.3-1.5 3.8-3.3zM17 7.1v-.3h-.2c-.6 0-.6 0-.7-.4L13.8.7c0-.1 0-.2-.3-.2-.1 0-.2 0-.2.2L11 6.2c0 .2-.2.6-1 .6v.3h2v-.3c-.4 0-.6-.2-.6-.4v-.2l.4-1.2h2.7l.5 1.4v.1c0 .3-.4.3-.7.3v.3H17zm-2.5-2.4H12l1.2-3zm10.3.2v-.3H22v.3h.4c1 0 1 .1 1 .4V6c0 .2 0 .6-.6.9-.5.2-1 .2-1.1.2-1 0-2.8-.6-2.8-3 0-2.5 1.8-3 2.7-3 1 0 2 .5 2.3 2.1l.1.2c.2 0 .2-.1.2-.3V.8L24 .6l-.2.1-.5.7c-.4-.5-1-.8-1.9-.8-2 0-3.6 1.5-3.6 3.4 0 1.8 1.6 3.3 3.6 3.3.5 0 1.6 0 2-.7l.6.5.1-.2V5.3c0-.4.1-.4.7-.4zM33 1.1V.8H31V1c.3 0 .6.2.6.5v.1l-2 4.5-2-4.7v-.1c0-.3.4-.3.7-.3V.8H25.7V1h.2c.5 0 .6 0 .7.3L29 7.1c.1.2.1.2.3.2.1 0 .2 0 .3-.2l2.3-5.4c.1-.3.3-.6 1-.6zM11.5 9.4a5.6 5.6 0 0 0-2.3 4.7c0 1.3.4 3.3 2.3 4.6h.2l-.1-.2c-1.3-1.1-1.7-2.7-1.7-4.4 0-2.5 1-3.7 1.7-4.4v-.1l-.1-.2zM16.4 15.7l-.2.5c0 .2.2.3.4.3l.3-.2.2-.6a17.1 17.1 0 0 0 .3-1.4l.3-.7c.3-.5.8-1 1.5-1 .5 0 .6.4.6.6 0 .6-.4 1.6-.6 2l-.1.5c0 .5.4.8.9.8.9 0 1.3-1.3 1.3-1.4l-.1-.1-.2.1c-.2.8-.6 1.1-1 1.1-.2 0-.2 0-.2-.3l.2-.7c0-.3.5-1.3.5-1.8 0-.2 0-.6-.4-.8-.1-.2-.4-.3-.8-.3-.9 0-1.4.6-1.7 1 0-.8-.7-1-1.2-1a2 2 0 0 0-1.6.9c0-.7-.6-.9-1-.9s-.6.3-.7.5l-.3 1h.1c.2 0 .2 0 .2-.2.2-.6.3-1 .7-1 .3 0 .3.2.3.4l-.1.8-.2.8-.3 1.2-.1.4c0 .2.1.3.3.3l.4-.2.1-.6.2-.8.2-.6c0-.4.1-.5.4-.9.2-.3.7-.8 1.4-.8.5 0 .5.5.5.6l-.1 1zm7.3.6c0 .5 0 1-.7 1.7v.2c.2 0 1-.7 1-1.8 0-.6-.2-1-.7-1-.3 0-.5.2-.5.5s.2.5.5.5l.4-.1zm4.2-5.7c0-.1 0-.3-.4-.3-.2 0-.5.2-.5.5 0 .1.1.3.4.3.3 0 .5-.2.5-.5zM26 15.3v.4c0 .5.3.8.8.8 1 0 1.4-1.3 1.4-1.4L28 15l-.2.1c-.2.8-.6 1.1-1 1.1-.1 0-.2 0-.2-.3 0-.2 0-.4.2-.6 0-.2.1-.5.3-.7l.4-1.2v-.3c0-.4-.3-.8-.8-.8-1 0-1.4 1.3-1.4 1.4 0 .2.2.2.2.2l.2-.2c.2-.8.6-1.1 1-1.1.1 0 .2 0 .2.3 0 .2 0 .4-.3 1zm4.6 1c0 .5 0 1-.7 1.7v.2c.2 0 1-.7 1-1.8 0-.6-.2-1-.7-1-.3 0-.5.2-.5.5s.2.5.5.5l.4-.1zM36.7 14.9v-.3h-1v-4.2c0-.2 0-.2-.2-.2h-.2l-3.1 4.4v.3h2.7v.8c0 .3 0 .4-.7.4h-.3v.3a51.5 51.5 0 0 1 2.8 0v-.3h-.2c-.8 0-.8-.1-.8-.4v-.8ZM35 11.2v3.4h-2.5Zm3-1.8c-.1 0-.2 0-.2.2v.1c.9.7 1.8 2 1.8 4.4 0 2-.7 3.4-1.7 4.3l-.1.2.1.1c.1 0 1-.6 1.6-1.7.4-.8.7-1.8.7-3s-.4-3.3-2.2-4.6zm6.6 0a5.6 5.6 0 0 0-2.3 4.7c0 1.3.4 3.3 2.3 4.6h.1v-.2C43.4 17.4 43 15.8 43 14c0-2.5 1-3.7 1.7-4.4v-.1l-.1-.2zM46.6 15.8l-.1.4c0 .2.1.3.3.3.2 0 .3-.1.3-.2l.2-.6.2-.8.2-.6c0-.4.1-.5.4-.9.2-.3.7-.8 1.4-.8.5 0 .5.5.5.6 0 .6-.4 1.6-.5 2l-.2.5c0 .5.4.8.9.8 1 0 1.3-1.3 1.3-1.4l-.1-.1-.2.1c-.2.8-.6 1.1-1 1.1-.2 0-.2 0-.2-.3l.2-.7c.1-.3.5-1.3.5-1.8 0-1-.7-1-1.2-1a2 2 0 0 0-1.6.8c0-.7-.6-.9-1-.9s-.6.3-.7.5l-.3 1h.1c.1 0 .2 0 .2-.2.2-.6.3-1 .7-1 .2 0 .3.2.3.4l-.1.8-.2.8Zm7.4.5c0 .5-.1 1-.8 1.7v.2c.2 0 1-.7 1-1.8 0-.6-.2-1-.6-1-.3 0-.6.2-.6.5s.2.5.6.5l.4-.1zm5.2-5.7c0-.2-.1-.3-.4-.3-.2 0-.5.2-.5.5 0 .1.1.3.4.3.2 0 .5-.2.5-.5zm-2 6.3c-.1.6-.6 1.2-1.2 1.2l-.3-.1c.2-.1.3-.3.3-.5s-.1-.3-.3-.3c-.3 0-.6.2-.6.5 0 .4.4.6 1 .6.5 0 1.6-.3 1.9-1.5l.8-3.3v-.3c0-.5-.4-.9-1-.9-1 0-1.6 1.3-1.6 1.4 0 .2.2.2.2.2l.2-.2c.2-.5.7-1.1 1.3-1.1.2 0 .3.1.3.4v.3zm4.3-.6c0 .5-.1 1-.8 1.7l.1.2c.1 0 1-.7 1-1.8 0-.6-.3-1-.7-1-.3 0-.6.2-.6.5s.3.5.6.5l.4-.1zM65.8 10.5c0-.2 0-.3-.3-.3-.6.6-1.4.6-1.8.6v.4c.2 0 .8 0 1.3-.3v4.8c0 .3 0 .4-.9.4h-.4v.3a48.2 48.2 0 0 1 3.4 0v-.3h-.4c-1 0-1-.1-1-.4zm3-1h-.2l.1.2c.8.7 1.7 2 1.7 4.4 0 2-.6 3.4-1.6 4.3l-.2.2.1.1c.1 0 1-.6 1.6-1.7.4-.8.7-1.8.7-3s-.4-3.3-2.2-4.6zM85.4 8.3c.2 0 .3-.2.3-.3 0-.1 0-.2-.3-.3l-7.3-3.4-.3-.1c-.1 0-.2 0-.2.2s0 .3.2.3l7 3.3-7 3.3c-.2.1-.2.2-.2.3 0 .1 0 .3.2.3l.3-.1zm-.2 6.1c.2 0 .5 0 .5-.2 0-.3-.3-.3-.5-.3H78c-.2 0-.4 0-.4.3 0 .2.2.2.4.2zM107.3 18.6l1.6-4.3h-.3c-.5 1.4-2 2.3-3.5 2.7-.3 0-1.6.4-4.1.4h-8l6.7-7.9.2-.2-.1-.2L93.6.6h7.3c1.7 0 3 .2 3 .2.8.2 2 .4 3 1 .3.3 1.2.9 1.7 2h.3L107.3 0H91.2v.5l7 9.6-6.8 8.1-.2.3h.4zM93.2 22.4v-.1l-.1-.2-1.2.1c-.1 0-.2 0-.2.3h.2c.4 0 .4.1.4.2v.2l-1.1 4.6v.3c0 .6.5.9.9.9.2 0 .5 0 .7-.5l.4-1H93l-.2.2c0 .4-.3 1-.7 1-.2 0-.3-.2-.3-.4v-.4zM99.7 26.5c.2 0 .4 0 .4-.2 0-.3-.2-.3-.4-.3h-4.3a2.6 2.6 0 0 1 2.7-2.3h1.6c.2 0 .4 0 .4-.2 0-.3-.2-.3-.4-.3h-1.6a3.1 3.1 0 0 0-3.1 3 3 3 0 0 0 3.1 3.1h1.6c.2 0 .4 0 .4-.2 0-.3-.2-.3-.4-.3h-1.6c-1.4 0-2.5-1-2.7-2.3zM102.9 27.9c0 .3-.1.4-.8.4-.2 0-.3 0-.3.2l.3.1h3.6c1.5 0 2.7-1 2.7-2 0-.7-.6-1.2-1.6-1.3 1.2-.2 2.1-1 2.1-1.7s-.7-1.3-2-1.3h-3.3c-.2 0-.3 0-.3.2h.3l.3.1.3.1v.2zm1.5-2.7.5-2.3c.1-.3.1-.3.5-.3h1.4c1 0 1.2.6 1.2 1 0 .7-.8 1.6-2.1 1.6zm-.5 3h-.3V28l.7-2.6h2c.9 0 1.2.6 1.2 1.2 0 .9-1 1.7-2 1.7zM121.4 3.9v-.2c0-.2 0-.2-.3-.2h-5.5c-.4 0-.4 0-.5.3l-.7 2.4v.2l.1.1.2-.1c.5-1.6 1.2-2.4 3.3-2.4h2.1l-7.4 8.3v.2l.3.1h5.8c.3 0 .3 0 .4-.2l1-3v-.2l-.2-.1-.2.3c-.6 1.8-1.2 2.8-3.5 2.8H114ZM124.2 8a5.6 5.6 0 0 0-2.2 4.7c0 1.3.4 3.3 2.2 4.6h.2V17c-1.3-1.1-1.7-2.7-1.7-4.4 0-2.5 1-3.7 1.7-4.4v-.1c0-.2 0-.2-.2-.2zM129.1 14.3v.5c0 .2 0 .3.2.3l.4-.2.2-.6a17.1 17.1 0 0 0 .3-1.4l.3-.7c.3-.5.8-1 1.5-1 .5 0 .5.4.5.6 0 .6-.4 1.6-.5 2l-.1.5c0 .5.4.8.8.8 1 0 1.4-1.3 1.4-1.4l-.2-.1-.2.1c-.2.8-.6 1.1-1 1.1-.1 0-.2 0-.2-.3l.2-.7c.2-.3.5-1.3.5-1.8 0-.2 0-.6-.3-.8-.2-.2-.4-.3-.9-.3-.8 0-1.3.6-1.6 1-.1-.8-.8-1-1.2-1a2 2 0 0 0-1.6.9c0-.7-.6-.9-1-.9s-.6.3-.7.5l-.4 1h.2l.2-.2c.1-.6.3-1 .7-1 .2 0 .3.2.3.4l-.2.8-.2.8-.3 1.2v.4c0 .2.1.3.3.3l.3-.2.2-.6.2-.8.2-.6c0-.4 0-.5.3-.9.3-.3.7-.8 1.4-.8.6 0 .6.5.6.6l-.2.9zm7.4.6c0 .5-.1 1-.7 1.7h-.1l.1.2c.2 0 1-.7 1-1.8 0-.6-.3-1-.7-1-.3 0-.5.2-.5.5s.2.5.5.5l.4-.1zm4.2-5.7c0-.1-.1-.3-.4-.3-.2 0-.5.2-.5.5 0 .1.1.3.4.3.2 0 .5-.2.5-.5zm-2 4.7v.4c0 .4.4.8.9.8 1 0 1.3-1.3 1.3-1.4l-.1-.1-.2.1c-.2.8-.6 1.1-1 1.1-.2 0-.2 0-.2-.3l.1-.6.3-.7.5-1.2v-.3c0-.4-.3-.8-.8-.8-1 0-1.4 1.3-1.4 1.4 0 .2.1.2.2.2l.1-.2c.3-.8.7-1.1 1-1.1.2 0 .3 0 .3.3 0 .2 0 .4-.3 1zM142.3 8s-.2 0-.2.2v.1c.9.7 1.8 2 1.8 4.4 0 2-.6 3.4-1.6 4.3l-.2.2.1.1c.1 0 1-.6 1.6-1.7.4-.8.7-1.8.7-3s-.4-3.3-2.2-4.6zm6.6 0a5.6 5.6 0 0 0-2.3 4.7c0 1.3.4 3.3 2.3 4.6h.2l-.1-.2c-1.3-1.1-1.7-2.7-1.7-4.4 0-2.5 1-3.7 1.7-4.4v-.1L149 8zM153.8 14.3l-.2.5c0 .2.2.3.4.3l.3-.2.2-.6.2-.8.2-.6c0-.4 0-.4.2-.7.3-.5.8-1 1.5-1 .5 0 .6.4.6.6 0 .6-.4 1.6-.6 2l-.1.5c0 .5.4.8.9.8.9 0 1.3-1.3 1.3-1.4l-.1-.1-.2.1c-.2.8-.6 1.1-1 1.1-.2 0-.2 0-.2-.3l.2-.7c0-.3.5-1.3.5-1.8 0-.2 0-.6-.4-.8-.1-.2-.4-.3-.8-.3-.9 0-1.4.6-1.7 1 0-.8-.7-1-1.2-1a2 2 0 0 0-1.6.9c0-.7-.6-.9-1-.9-.3 0-.6.3-.7.5l-.3 1h.1c.2 0 .2 0 .2-.2.2-.6.4-1 .7-1 .3 0 .3.2.3.4l-.1.8-.2.8-.3 1.2-.1.4c0 .2.1.3.3.3l.4-.2.1-.6.2-.8.2-.6c.1-.4.1-.5.4-.9.2-.3.7-.8 1.4-.8.5 0 .5.5.5.6l-.1.9zm7.3.6c0 .5 0 1-.7 1.7v.2c.2 0 1-.7 1-1.8 0-.6-.2-1-.7-1-.3 0-.5.2-.5.5s.2.5.5.5l.4-.1zm5.3-5.7c0-.2-.1-.3-.4-.3-.3 0-.5.2-.5.5 0 .1.1.3.4.3.2 0 .5-.2.5-.5zm-2 6.3c-.1.6-.6 1.2-1.2 1.2l-.3-.1c.2-.1.3-.3.3-.5s-.2-.3-.4-.3c-.3 0-.5.2-.5.5 0 .4.4.6 1 .6.5 0 1.6-.3 1.9-1.5l.8-3.3v-.3c0-.5-.4-.9-1-.9-1 0-1.6 1.3-1.6 1.4 0 .2.2.2.2.2l.2-.2c.2-.6.7-1.1 1.2-1.1.3 0 .3.1.3.4v.3zM168.1 8s-.2 0-.2.2l.1.1c.8.7 1.7 2 1.7 4.4 0 2-.6 3.4-1.6 4.3l-.2.2.1.1c.1 0 1-.6 1.6-1.7.5-.8.7-1.8.7-3s-.4-3.3-2.2-4.6zM173.4 14.9c0 .5-.1 1-.8 1.7l.1.2c.1 0 1-.7 1-1.8 0-.6-.3-1-.7-1-.3 0-.5.2-.5.5s.2.5.5.5l.4-.1zm3.8-6v-.2l-.1-.1h-1.2s-.2 0-.2.3l.2.1.5.1v.2l-1.2 4.6v.3c0 .6.5 1 1 1 .1 0 .4-.2.7-.6l.3-1h-.2l-.2.2c0 .4-.3 1-.6 1s-.4-.2-.4-.4V14zM194.6 12.6c0-.9-.3-1.4-.8-1.4s-.7.3-.7.7c0 .4.2.7.7.7.1 0 .3 0 .4-.2h.1v.2c0 1-.4 1.8-.9 2.2l-.1.2.1.2c.2 0 1.2-1 1.2-2.6zM205.1 3.9l.1-.2c0-.2 0-.3-.2-.3s-.3.2-.4.3l-1 3h-4.1l-1-3c-.2-.2-.2-.3-.4-.3-.1 0-.3.1-.3.3l.1.2 3.3 8.7c0 .2.1.3.3.3.2 0 .3-.1.3-.3zm-5.4 3.3h3.6l-1.8 4.7zM209.6 15.8l-.2-.3c-1.7-1.7-2.1-4.2-2.1-6.2 0-2.3.5-4.6 2.1-6.3l.2-.2-.1-.2c-.2 0-1.4 1-2.1 2.6a9.9 9.9 0 0 0 0 8.2c.8 1.7 2 2.5 2 2.5l.2-.1zM211.5 11.8v.6c0 .2.1.4.3.4.2 0 .4-.1.5-.4l.2-1 .3-1.2.3-.9.1-.6c.2-.5 1-1.7 2.2-1.7.6 0 .7.5.7 1 0 .3 0 .7-.2 1l-.3 1.6-.3 1-.2.8c0 .2.2.4.4.4.4 0 .5-.4.6-.8l.8-3.2c0-.2.7-1.8 2.2-1.8.6 0 .7.5.7 1 0 .7-.6 2.2-.8 3l-.2.7c0 .6.5 1 1 1 1.3 0 1.8-1.9 1.8-2l-.1-.1c-.2 0-.2 0-.2.2-.2.7-.6 1.7-1.4 1.7-.2 0-.3-.2-.3-.5l.2-1c.3-.6.9-2 .9-2.8 0-.9-.6-1.5-1.6-1.5s-1.7.6-2.1 1.3c0-.1-.1-.6-.5-1-.3-.2-.7-.3-1-.3-1.3 0-1.9.9-2.1 1.2 0-.8-.7-1.2-1.2-1.2-.7 0-1 .6-1 .8-.3.5-.4 1.3-.4 1.3l.1.1c.1 0 .2 0 .2-.3.3-1 .5-1.6 1-1.6.2 0 .4.1.4.6l-.2 1.2zm13.2.8c0-.9-.3-1.4-.8-1.4s-.7.3-.7.7c0 .4.2.7.7.7.1 0 .3 0 .4-.2h.1v.2c0 1-.4 1.8-.9 2.2l-.1.2.1.2c.2 0 1.2-1 1.2-2.6zm7-8.3c0-.2-.2-.5-.5-.5-.4 0-.7.4-.7.7 0 .3.2.5.5.5s.7-.3.7-.7zm-1 5 .3-.8.2-.7c0-.6-.5-1-1.1-1-1.3 0-1.8 1.9-1.8 2l.2.1.2-.2c.3-1.3.9-1.7 1.3-1.7.1 0 .4 0 .4.5l-.2.6-1 2.5-.2 1c0 .7.4 1.2 1 1.2 1.3 0 1.8-2 1.8-2l-.1-.2c-.2 0-.2 0-.3.2-.2.9-.6 1.7-1.3 1.7-.2 0-.3-.2-.3-.5s0-.5.4-1.3zM236.4 9.3c0-1-.2-2.7-1-4.2-.7-1.6-1.9-2.5-2-2.5l-.1.2.2.3c1.3 1.3 2 3.4 2 6.2 0 2.3-.4 4.6-2 6.3l-.2.2.1.1c.1 0 1.3-.9 2.1-2.5.7-1.5.9-3 .9-4.1zM240.4 12.6c0-.9-.4-1.4-.9-1.4-.4 0-.7.3-.7.7 0 .4.3.7.7.7.2 0 .4 0 .5-.2v.2c0 1-.4 1.8-.8 2.2l-.2.2.2.2c.1 0 1.2-1 1.2-2.6zM248 15.8l-.2-.3c-1.7-1.7-2.1-4.2-2.1-6.2 0-2.3.5-4.6 2.1-6.3l.2-.2-.1-.2c-.2 0-1.4 1-2.2 2.6-.6 1.5-.8 3-.8 4 0 1.1.2 2.7.9 4.2.8 1.7 2 2.5 2 2.5l.2-.1zM250 11.8l-.2.6c0 .2.2.4.4.4.1 0 .4-.1.5-.4l.2-1 .3-1.2.3-.9.1-.6c.2-.5 1-1.7 2.2-1.7.6 0 .7.5.7 1 0 .8-.7 2.5-.9 3l-.1.7c0 .6.5 1 1 1 1.3 0 1.8-1.9 1.8-2l-.1-.1c-.2 0-.2 0-.2.2-.3 1-.7 1.7-1.4 1.7-.2 0-.3-.2-.3-.5l.2-1c.3-.6.8-2 .8-2.8 0-1-.5-1.5-1.5-1.5-1.2 0-1.8.9-2 1.2-.1-.7-.7-1.2-1.3-1.2-.6 0-.8.6-1 .8l-.4 1.3.2.1.2-.3c.3-1 .5-1.6 1-1.6.3 0 .4.2.4.6l-.2 1.2zm9.4.8c0-.9-.3-1.4-.8-1.4s-.7.3-.7.7c0 .4.2.7.7.7.1 0 .3 0 .4-.2l.1.2c0 1-.4 1.8-.9 2.2l-.1.2.1.2c.2 0 1.2-1 1.2-2.6zm8.5-8.3c0-.2-.2-.5-.5-.5s-.7.3-.7.7c0 .3.2.5.5.5s.7-.3.7-.7zm-2.7 9c-.3 1-.9 1.8-1.6 1.8-.1 0-.3 0-.5-.2.3 0 .6-.4.6-.7 0-.2-.2-.4-.5-.4-.4 0-.8.2-.8.7 0 .6.6.8 1.2.8 1 0 2.2-.7 2.5-2l1.2-4.8V8c0-.8-.5-1.3-1.1-1.3-1.4 0-2.1 2-2.1 2l.1.2.2-.2c.4-.8 1-1.7 1.7-1.7.2 0 .4 0 .4.6v.7zM272.7 9.3c0-1-.2-2.7-.9-4.2-.8-1.6-2-2.5-2-2.5l-.2.2.3.3c1.3 1.3 2 3.4 2 6.2 0 2.3-.5 4.6-2.1 6.3l-.2.2.1.1c.2 0 1.4-.9 2.2-2.5.6-1.5.8-3 .8-4.1zM285 9.6c.2 0 .5 0 .5-.3s-.3-.3-.5-.3h-5.6c.1-1.7 1.6-3 3.5-3h2.1c.2 0 .5 0 .5-.3s-.3-.3-.5-.3h-2.1c-2.3 0-4 1.8-4 3.9a4 4 0 0 0 4 3.8h2.1c.2 0 .5 0 .5-.2 0-.3-.3-.3-.5-.3h-2c-2 0-3.5-1.3-3.6-3zM300.4 3.4l-.2-.1-.2.1-1 1c0-.2-.6-1.1-2.1-1.1-3 0-6 2.9-6 6 0 2.2 1.6 3.6 3.6 3.6 1.2 0 2.2-.5 2.9-1.1 1.2-1.1 1.5-2.3 1.5-2.4l-.2-.1-.2.1c-.1.4-.4 1.4-1.3 2.1-1 .8-1.8 1-2.5 1-1.2 0-2.6-.7-2.6-2.8 0-.7.3-2.9 1.6-4.4.9-1 2-1.6 3.3-1.6 1.3 0 2.1 1 2.1 2.5V7l.2.1.2-.2zm0 0"/></g></svg>