<svg xmlns="http://www.w3.org/2000/svg" width="497.1" height="19.8"><g aria-label="T Start (n,j,α) +t AGV (n,j,α−1)(n,j,α) +M (1−U QC (m,i)(n,j,α) )≥T Q(m,i) ,∀(m,i)∈C,∀(n,j,α)∈W H"><path d="M5.4 4.9c0-.4.1-.5.3-.5h.8c1.3 0 2 0 2 1l-.2 1v.3c0 .1 0 .2.2.2l.2-.3.3-2.3V4c0-.2 0-.2-.3-.2H1.3C1 4 1 4 1 4.2L0 6.5l-.1.3.2.1.2-.3c.7-2 1-2.3 3-2.3H4c.4 0 .4 0 .4.2v.3l-1.8 7c-.1.6-.2.7-1.6.7-.5 0-.6 0-.6.3l.3.1H5c.2 0 .3 0 .3-.3H5l-.9-.1c-.4 0-.5-.1-.5-.3v-.3zM14.5 5.7c0-.8-.6-1.6-1.5-1.8l-1.4-.3c-.8-.2-1-.8-1-1.2 0-.6.5-1.2 1.4-1.2 1.2 0 1.8.8 2 1.8v.2c.2 0 .2 0 .2-.3V1.1l-.1-.2-.2.1-.3.5C13 1 12.2 1 12 1c-1.2 0-2 .8-2 1.8 0 .5.2.9.5 1.2.4.4.7.4 1.7.7.8.1 1 .2 1.3.4.2.3.4.6.4 1 0 .6-.5 1.3-1.4 1.3-1 0-2.2-.4-2.2-1.8 0-.1 0-.2-.2-.2l-.1.3v2h.2l.4-.6c.6.5 1.3.6 1.9.6 1.2 0 2-.9 2-1.9zm4.1.6v-.6h-.3v.5c0 .7-.3 1-.6 1-.7 0-.7-.8-.7-1V3.9h1.5v-.4H17V1.7h-.3c0 .9-.4 1.8-1.3 1.8v.3h.9v2.5c0 1 .8 1.2 1.3 1.2.6 0 1-.5 1-1.2zm5.8.3V6H24v.5s0 .5-.3.5-.3-.4-.3-.5V4.9c0-.5 0-.8-.5-1.2a2 2 0 0 0-1.3-.4c-1 0-1.5.3-1.5.9 0 .3.2.4.4.4.3 0 .4-.1.4-.4 0-.2 0-.3-.3-.4.4-.3.9-.3 1-.3.5 0 1 .4 1 1.2V5c-.5 0-1.1 0-1.8.3-.8.3-1 .8-1 1.2 0 .8.9 1 1.6 1 .7 0 1.1-.4 1.3-.8 0 .4.3.8.8.8 0 0 .9 0 .9-1zM22.6 6c0 1-.8 1.2-1.2 1.2-.4 0-.9-.4-.9-.8 0-.5.5-1.2 2.1-1.3zM28.4 4c0-.3-.3-.6-.8-.6-.4 0-1 .3-1.2 1v-1l-1.3.1v.4c.6 0 .7 0 .7.5v2.4c0 .4-.1.4-.7.4v.3h2.2v-.3h-.2c-.7 0-.7-.1-.7-.4V5.3c0-.8.4-1.7 1.3-1.7l-.2.3c0 .3.3.5.5.5s.4-.2.4-.5zm3.8 2.4v-.6H32v.5c0 .7-.3 1-.6 1-.7 0-.7-.8-.7-1V3.9h1.5v-.4h-1.5V1.7h-.3c0 .9-.4 1.8-1.3 1.8v.3h.9v2.5c0 1 .8 1.2 1.3 1.2.6 0 1-.5 1-1.2zM10.8 9.7a5.6 5.6 0 0 0-2.3 4.7c0 1.3.4 3.3 2.3 4.6h.1v-.2c-1.3-1.1-1.7-2.7-1.7-4.4 0-2.5 1-3.7 1.7-4.4v-.1l-.1-.2zM12.7 16.1v.4c0 .2.1.3.3.3l.3-.2.2-.6.2-.8.2-.6c0-.4 0-.5.3-.9.3-.3.7-.8 1.4-.8.6 0 .6.5.6.6 0 .6-.4 1.6-.6 2l-.1.5c0 .5.4.8.9.8.9 0 1.3-1.3 1.3-1.4l-.1-.1-.2.1c-.2.8-.6 1.1-1 1.1-.2 0-.2 0-.2-.3l.2-.7c.1-.3.5-1.3.5-1.8 0-1-.7-1-1.2-1a2 2 0 0 0-1.6.8c0-.7-.6-.9-1-.9s-.6.3-.7.5l-.4 1h.2l.2-.2c.1-.6.3-1 .7-1 .2 0 .3.2.3.4l-.2.8-.2.8Zm7.4.5c0 .5 0 1-.7 1.7v.2c.2 0 1-.7 1-1.8 0-.6-.2-1-.7-1-.3 0-.5.2-.5.5s.2.5.5.5l.4-.1zm5.3-5.7c0-.2-.1-.3-.4-.3-.2 0-.5.2-.5.5 0 .1.1.3.4.3.2 0 .5-.2.5-.5zm-2 6.3c-.1.6-.6 1.2-1.2 1.2l-.3-.1c.2-.1.3-.3.3-.5s-.2-.3-.3-.3c-.3 0-.6.2-.6.5 0 .4.4.6 1 .6.5 0 1.6-.3 1.9-1.5l.8-3.3v-.3c0-.5-.4-.9-1-.9-1 0-1.6 1.3-1.6 1.4 0 .2.2.2.2.2l.2-.2c.2-.6.7-1.1 1.2-1.1.3 0 .4.1.4.4v.3zm4.2-.6c0 .5 0 1-.7 1.7v.2c.2 0 1-.7 1-1.8 0-.6-.2-1-.6-1-.4 0-.6.2-.6.5s.2.5.6.5l.3-.1zm6.3-1.2a5 5 0 0 0 1.2-2.2L35 13c-.2 0-.2 0-.2.2a5 5 0 0 1-1 1.7V14c0-.9-.8-1.5-1.7-1.5-1.4 0-2.7 1.3-2.7 2.6 0 .8.6 1.6 1.7 1.6.9 0 1.6-.4 2.2-.8.2.7.6.8 1 .8.5 0 .8-.4.8-.6 0-.2-.1-.2-.2-.2l-.1.1c-.2.4-.4.4-.5.4-.2 0-.3 0-.4-1.1zm-.7.3c-1 .8-1.7.8-2 .8-.7 0-1-.4-1-1 0-.3.1-1.3.6-2 .4-.5 1-.6 1.3-.6.7 0 1 .7 1 1.3v1.5zM36.6 9.7s-.2 0-.2.2l.1.1c.8.7 1.7 2 1.7 4.4 0 2-.6 3.4-1.6 4.3l-.2.2.1.1c.1 0 1-.6 1.6-1.7.4-.8.7-1.8.7-3s-.4-3.3-2.2-4.6zM49 9.9h3.7c.1 0 .4 0 .4-.3s-.3-.3-.4-.3h-3.8V5.6c0-.2 0-.4-.2-.4-.3 0-.3.2-.3.4v3.7h-3.7c-.2 0-.4 0-.4.3s.2.3.4.3h3.7v3.7c0 .2 0 .4.3.4.2 0 .2-.2.2-.4zM59.5 7.6h1.3c.2 0 .4 0 .4-.3l-.4-.1h-1.2l.6-2.2c0-.3-.2-.4-.4-.4 0 0-.4 0-.5.5l-.5 2.1h-1.3c-.3 0-.4 0-.4.2s.1.2.4.2h1.1l-1 4.2c0 .8.5 1.3 1.3 1.3 1.3 0 2-2 2-2v-.2c-.2 0-.2 0-.3.2-.6 1.3-1.3 1.7-1.7 1.7-.3 0-.4-.2-.4-.6v-.7zM69 7.4v-.3h-.2c-.6 0-.7 0-.8-.4L65.8 1c0-.1-.1-.2-.3-.2-.2 0-.2 0-.2.2L63 6.5c-.1.2-.3.6-1 .6v.3H64v-.3c-.3 0-.6-.2-.6-.5v-.1l.5-1.2h2.6l.6 1.4v.1c0 .3-.5.3-.7.3v.3H69zM66.4 5H64l1.2-3zm10.4.2v-.3h-2.9v.3h.4c.9 0 .9.1.9.4v.6c0 .2 0 .6-.5.9-.5.2-1 .2-1.1.2-1 0-2.8-.6-2.8-3 0-2.5 1.8-3 2.7-3 .9 0 2 .5 2.2 2.1 0 .2.1.2.2.2.2 0 .2-.1.2-.3V1.1c0-.1 0-.2-.2-.2l-.1.1-.5.7c-.5-.5-1.1-.8-2-.8-1.9 0-3.5 1.5-3.5 3.4 0 1.8 1.6 3.3 3.6 3.3.5 0 1.5 0 2-.7l.6.5V5.6c0-.4.2-.4.8-.4zm8.1-3.8v-.3h-2v.3c.3 0 .6.2.6.5V2l-2 4.5-2-4.7v-.1c0-.3.5-.3.7-.3v-.3h-2.5v.3h.1c.5 0 .7 0 .8.3L81 7.4c0 .2.1.2.3.2 0 0 .2 0 .3-.2L83.9 2c0-.3.3-.6 1-.6zM64.9 9.7a5.6 5.6 0 0 0-2.2 4.7c0 1.3.3 3.3 2.2 4.6h.2l-.1-.2c-1.2-1.1-1.7-2.7-1.7-4.4 0-2.5 1-3.7 1.7-4.4v-.1l-.1-.2zM66.9 16.1l-.1.4c0 .2.1.3.3.3l.4-.2.1-.6.2-.8.2-.6c.1-.4.1-.5.4-.9.3-.3.7-.8 1.4-.8.5 0 .5.5.5.6 0 .6-.4 1.6-.5 2l-.2.5c0 .5.4.8 1 .8.8 0 1.3-1.3 1.3-1.4l-.2-.1-.2.1c-.2.8-.6 1.1-1 1.1-.1 0-.2 0-.2-.3l.2-.7c.2-.3.5-1.3.5-1.8 0-1-.7-1-1.2-1a2 2 0 0 0-1.6.8c0-.7-.6-.9-1-.9-.3 0-.6.3-.7.5l-.3 1h.1c.2 0 .2 0 .2-.2.2-.6.4-1 .7-1 .3 0 .3.2.3.4l-.1.8-.2.8zm7.4.5c0 .5-.1 1-.8 1.7l.1.2c.1 0 1-.7 1-1.8 0-.6-.3-1-.7-1-.3 0-.5.2-.5.5s.2.5.5.5l.4-.1zm5.2-5.7c0-.2 0-.3-.3-.3s-.6.2-.6.5c0 .1.2.3.4.3.3 0 .5-.2.5-.5zm-2 6.3c0 .6-.6 1.2-1.1 1.2l-.4-.1c.3-.1.4-.3.4-.5s-.2-.3-.4-.3c-.3 0-.5.2-.5.5 0 .4.3.6.9.6.5 0 1.6-.3 2-1.5l.7-3.3.1-.3c0-.5-.4-.9-1-.9-1 0-1.6 1.3-1.6 1.4l.1.2c.2 0 .2 0 .2-.2.2-.6.7-1.1 1.3-1.1.2 0 .3.1.3.4v.3zm4.3-.6c0 .5-.1 1-.7 1.7H81l.1.2c.2 0 1-.7 1-1.8 0-.6-.3-1-.7-1-.3 0-.5.2-.5.5s.2.5.5.5l.4-.1zm6.3-1.2a5 5 0 0 0 1.2-2.2L89 13l-.2.2A5 5 0 0 1 88 15V14c-.1-.9-.8-1.5-1.8-1.5-1.3 0-2.6 1.3-2.6 2.6 0 .8.6 1.6 1.7 1.6.8 0 1.6-.4 2.1-.8.2.7.7.8 1 .8.5 0 .8-.4.8-.6l-.1-.2-.2.1c-.1.4-.4.4-.5.4-.1 0-.3 0-.3-1.1zm-.8.3c-.9.8-1.7.8-2 .8-.6 0-1-.4-1-1 0-.3.2-1.3.6-2 .5-.5 1-.6 1.3-.6.8 0 1 .7 1 1.3l.1 1.5zM96.8 14.6c.1 0 .4 0 .4-.2s-.2-.2-.4-.2h-5.5c-.2 0-.4 0-.4.2s.2.2.4.2zM101.3 10.8c0-.2 0-.3-.3-.3-.6.6-1.4.6-1.8.6v.4c.2 0 .8 0 1.4-.3V16c0 .4 0 .5-1 .5h-.3v.3a48.2 48.2 0 0 1 3.3 0v-.3h-.4c-.9 0-.9-.1-.9-.5zm3-1h-.2l.1.2c.8.7 1.7 2 1.7 4.4 0 2-.6 3.4-1.6 4.3l-.2.2.2.1s1-.6 1.6-1.7c.4-.8.6-1.8.6-3s-.3-3.3-2.2-4.6zm6.6 0a5.6 5.6 0 0 0-2.2 4.6c0 1.3.4 3.3 2.2 4.6h.2v-.2c-1.3-1.1-1.8-2.7-1.8-4.4 0-2.5 1-3.7 1.8-4.4v-.1c0-.2-.1-.2-.2-.2zM113 16.1l-.2.4c0 .2.2.3.3.3l.4-.2.2-.6.2-.8.1-.6.4-.9c.3-.3.7-.8 1.4-.8.6 0 .6.5.6.6 0 .6-.4 1.6-.6 2l-.1.5c0 .5.4.8.9.8.9 0 1.3-1.3 1.3-1.4l-.1-.1-.2.1c-.2.8-.6 1.1-1 1.1-.2 0-.2 0-.2-.3l.2-.7c0-.3.5-1.3.5-1.8 0-1-.8-1-1.2-1a2 2 0 0 0-1.6.8c0-.7-.6-.9-1-.9s-.6.3-.7.5c-.3.4-.4.9-.4 1h.2l.2-.2c.1-.6.3-1 .7-1 .2 0 .3.2.3.4l-.2.8-.2.8zm7.3.5c0 .5 0 1-.7 1.7v.2c.2 0 1-.7 1-1.8 0-.6-.2-1-.7-1-.3 0-.5.2-.5.5s.2.5.5.5l.4-.1zm5.3-5.7c0-.2-.1-.3-.4-.3-.3 0-.5.2-.5.5 0 .1.1.3.4.3.2 0 .5-.2.5-.5zm-2 6.3c-.1.6-.6 1.2-1.2 1.2l-.3-.1c.2-.1.3-.3.3-.5s-.2-.3-.4-.3c-.3 0-.5.2-.5.5 0 .4.4.6 1 .6.5 0 1.6-.3 1.9-1.5l.8-3.3v-.3c0-.5-.4-.9-1-.9-1 0-1.6 1.3-1.6 1.4 0 .2.2.2.2.2l.2-.2c.2-.6.7-1.1 1.2-1.1.3 0 .3.1.3.4v.3zm4.2-.6c0 .5 0 1-.7 1.7v.2c.2 0 1-.7 1-1.8 0-.6-.2-1-.7-1-.3 0-.5.2-.5.5s.2.5.5.5l.4-.1zm6.3-1.2a5 5 0 0 0 1.2-2.2l-.2-.1-.1.2a5 5 0 0 1-1 1.7V14c-.1-.9-.8-1.5-1.7-1.5-1.4 0-2.7 1.3-2.7 2.6 0 .8.6 1.6 1.7 1.6.9 0 1.6-.4 2.1-.8.3.7.7.8 1 .8.6 0 .9-.4.9-.6 0-.2-.1-.2-.2-.2l-.1.1c-.2.4-.5.4-.6.4 0 0-.3 0-.3-1.1zm-.7.3c-1 .8-1.7.8-2 .8-.7 0-1-.4-1-1 0-.3.1-1.3.6-2 .4-.5 1-.6 1.3-.6.7 0 1 .7 1 1.3v1.5zM136.8 9.7c-.1 0-.2 0-.2.2v.1c.9.7 1.8 2 1.8 4.4 0 2-.6 3.4-1.6 4.3l-.2.2.1.1c.1 0 1-.6 1.6-1.7.4-.8.7-1.8.7-3s-.4-3.3-2.2-4.6zM149.1 9.9h3.7c.2 0 .5 0 .5-.3s-.3-.3-.5-.3h-3.7V5.6c0-.2 0-.4-.2-.4-.3 0-.3.2-.3.4v3.7h-3.7c-.2 0-.5 0-.5.3s.3.3.5.3h3.7v3.7c0 .2 0 .4.3.4.2 0 .2-.2.2-.4zM169.3 4.9c.1-.5.1-.6 1.1-.6.3 0 .4 0 .4-.3 0-.2 0-.2-.3-.2h-1.8c-.3 0-.3 0-.5.3l-4.8 7.6-1-7.6c-.1-.3-.1-.3-.5-.3h-1.8c-.2 0-.4 0-.4.3 0 .2.1.2.4.2h.6c.2 0 .2 0 .2.2v.2l-1.7 6.8c-.1.5-.3 1-1.4 1 0 0-.3 0-.3.3l.2.1h2.7s.3 0 .3-.3h-.3c-.7-.1-.9-.4-.9-.7v-.3l1.9-7.2 1.1 8.2c0 .2 0 .3.2.3s.3-.1.3-.2l5.4-8.4-1.9 7.6c-.1.5-.2.6-1.2.6-.2 0-.4 0-.4.3l.2.1h3.3c.1 0 .3 0 .3-.3h-.4c-.5 0-.9 0-.9-.3l.1-.4zM176.8 17.4v-.1a8.3 8.3 0 0 1-2.1-3.9c-.3-1.2-.4-2.6-.4-3.8 0-3.5.8-6 2.4-7.7l.1-.1c0-.2-.1-.2-.2-.2-.2 0-.9.8-1 1-1.4 1.6-2.3 4-2.3 7 0 1.9.4 4.5 2.1 6.8.1.1 1 1.1 1.2 1.1h.2zM181.3 4.4c0-.3 0-.3-.3-.3-.8.8-2 .8-2.4.8v.4c.3 0 1 0 1.7-.3v6.9c0 .4 0 .6-1.2.6h-.4v.4H183v-.4h-.5c-1.2 0-1.2-.1-1.2-.6zM195.7 9.9c.3 0 .5 0 .5-.3s-.2-.3-.5-.3h-7.1c-.3 0-.5 0-.5.3s.2.3.5.3zM208.7 5.2c.1-.5.4-1 1.5-1 0 0 .2 0 .2-.2 0 0 0-.2-.2-.2h-2.7c-.1 0-.3 0-.3.3 0 .2.2.2.3.2.7 0 .9.2.9.5v.3L207 10c-.4 1.7-2 2.9-3.3 2.9-.9 0-1.6-.6-1.6-1.7l.2-1 1.2-5.2c.2-.5.2-.6 1.1-.6.4 0 .5 0 .5-.3 0-.2-.1-.2-.2-.2h-3.4c-.1 0-.2 0-.2.3 0 .2 0 .2.3.2h.5c.3 0 .4 0 .4.2l-.2 1-.3 1.1-.8 3.3-.1.7c0 1.7 1.2 2.6 2.6 2.6 1.7 0 3.3-1.5 3.7-3.3zM218.3 6.6v-.2c-.2 0-.2.1-.2.2 0 .5-.6.7-1 .7s-.6-.3-.9-.8c1.2-.5 2.1-1.7 2.1-3.1 0-1.9-1.5-3.4-3.4-3.4a3.4 3.4 0 1 0 0 6.7l1-.1c.1 1 .3 1.7 1.2 1.7 1 0 1.2-1.1 1.2-1.7zm-1-3.2c0 1.6-.7 2.4-1.3 2.7-.2-.5-.5-1-1.1-1-.5 0-.9.4-.9.8l.1.4c-.8-.3-1.7-1.1-1.7-3 0-2 1.3-3 2.5-3 1.1 0 2.4 1 2.4 3zm-1.6 2.9-.8.1c-.5 0-.6-.3-.6-.5 0-.3.2-.5.6-.5.5 0 .7.3.8.9zm10.2-2-.2-.1-.2.1c0 1.5-1.3 2-2.2 2-1 0-2.7-.5-2.7-3s1.8-3 2.7-3c.9 0 2 .6 2.2 2.3h.2c.2 0 .2 0 .2-.2V.2c0-.1 0-.2-.2-.2l-.1.1-.5.7c-.4-.4-1-.8-2-.8-1.9 0-3.5 1.5-3.5 3.4 0 1.8 1.6 3.3 3.6 3.3 1.6 0 2.7-1.2 2.7-2.3zM212.6 10.5a5.6 5.6 0 0 0-2.2 4.6c0 1.3.4 3.4 2.2 4.7.1 0 .2 0 .2-.2v-.1c-1.3-1.1-1.7-2.7-1.7-4.4 0-2.5 1-3.7 1.7-4.4v-.1l-.2-.1zM217.5 16.7v.5c0 .2 0 .3.2.3s.3 0 .4-.2l.2-.5.2-.9.1-.6.3-.7c.3-.5.8-1 1.5-1 .5 0 .5.4.5.7 0 .5-.4 1.5-.5 2l-.1.4c0 .5.4.8.8.8 1 0 1.4-1.2 1.4-1.4l-.2-.1-.2.1c-.2.8-.6 1.2-1 1.2l-.2-.4.2-.7c.2-.3.5-1.3.5-1.8 0-.1 0-.5-.3-.8-.2-.1-.4-.3-.9-.3-.8 0-1.3.6-1.6 1-.1-.8-.8-1-1.2-1a2 2 0 0 0-1.6.9c0-.7-.6-.9-1-.9s-.6.3-.7.5l-.4 1h.2l.2-.2c.1-.6.3-1 .7-1 .2 0 .3.2.3.4l-.2.8-.2.9-.3 1.2v.3c0 .2.1.3.3.3.1 0 .3 0 .3-.2l.2-.5.2-.9.2-.6c0-.4 0-.5.3-.8.3-.4.7-1 1.4-1 .6 0 .6.6.6.8l-.2.8zm7.4.6c0 .5-.1 1-.7 1.7l-.1.1.1.1c.2 0 1-.7 1-1.8 0-.6-.3-1-.7-1-.3 0-.5.2-.5.5s.2.5.5.5l.4-.1zm4.2-5.7c0-.1-.1-.3-.4-.3-.2 0-.5.2-.5.5 0 .1.1.3.4.3.2 0 .5-.2.5-.5zm-2 4.7v.4c0 .5.4.8.9.8 1 0 1.3-1.2 1.3-1.4l-.1-.1-.2.1c-.2.8-.6 1.2-1 1.2-.2 0-.2-.1-.2-.4l.1-.6.3-.7.5-1.2v-.3c0-.4-.3-.8-.8-.8-1 0-1.4 1.3-1.4 1.5H226.8c.3-.9.7-1.2 1-1.2.2 0 .3 0 .3.3 0 .2 0 .4-.3 1zM230.7 10.5h-.2v.2c.9.8 1.8 2 1.8 4.4 0 2-.6 3.4-1.6 4.3l-.2.2.1.2c.1 0 1-.7 1.6-1.8.4-.8.7-1.8.7-2.9 0-1.3-.4-3.3-2.2-4.6zm6.6 0A5.6 5.6 0 0 0 235 15c0 1.3.3 3.4 2.2 4.7 0 0 .2 0 .2-.2l-.1-.1c-1.3-1.1-1.7-2.7-1.7-4.4 0-2.5 1-3.7 1.7-4.4v-.1l-.1-.1zM239.3 16.9l-.1.3c0 .2.1.3.3.3.2 0 .3 0 .4-.2l.1-.5.2-.9.2-.6c.1-.4.1-.5.4-.8.3-.4.7-1 1.4-1 .5 0 .5.6.5.8 0 .5-.4 1.5-.5 2l-.2.4c0 .5.4.8 1 .8.8 0 1.3-1.2 1.3-1.4l-.2-.1-.2.1c-.2.8-.6 1.2-1 1.2l-.2-.4.2-.7c.2-.3.5-1.3.5-1.8 0-.9-.7-1-1.2-1a2 2 0 0 0-1.6.8c0-.7-.6-.9-1-.9-.3 0-.6.3-.7.5l-.3 1h.1c.2 0 .2 0 .2-.2.2-.6.4-1 .7-1 .3 0 .3.2.3.4l-.1.8-.2.9zm7.4.4c0 .5-.1 1-.8 1.7v.1l.1.1c.1 0 1-.7 1-1.8 0-.6-.3-1-.7-1-.3 0-.5.2-.5.5s.2.5.5.5l.4-.1zm5.2-5.7c0-.1 0-.3-.3-.3s-.6.2-.6.5c0 .1.2.3.4.3.3 0 .5-.2.5-.5zm-2 6.3c0 .6-.6 1.2-1.1 1.2h-.4c.3-.2.4-.4.4-.6 0-.2-.2-.3-.4-.3-.3 0-.5.3-.5.6s.3.5.9.5c.5 0 1.6-.3 2-1.4l.7-3.4v-.3c0-.5-.3-.9-.9-.9-1 0-1.6 1.3-1.6 1.5H249.3c.2-.6.7-1.2 1.3-1.2.2 0 .3.2.3.4v.3zm4.3-.6c0 .5-.1 1-.7 1.7l-.1.1.1.1c.2 0 1-.7 1-1.8 0-.6-.3-1-.7-1-.3 0-.5.2-.5.5s.2.5.5.5l.4-.1zm6.3-1.2a5 5 0 0 0 1.2-2.2l-.2-.1-.2.2a5 5 0 0 1-.9 1.7v-.8c-.1-1-.8-1.6-1.8-1.6-1.3 0-2.6 1.3-2.6 2.6 0 .9.6 1.6 1.7 1.6.8 0 1.6-.4 2.1-.8.2.7.7.8 1 .8.5 0 .8-.4.8-.6l-.1-.1h-.2c-.1.4-.4.5-.5.5-.1 0-.3 0-.3-1.2zm-.8.3c-.9.8-1.7.9-2 .9-.6 0-1-.4-1-1 0-.3.2-1.3.6-2 .5-.5 1-.7 1.3-.7.8 0 1 .7 1 1.3l.1 1.5zM263.1 10.5h-.2l.1.2c.8.8 1.7 2 1.7 4.4 0 2-.6 3.4-1.6 4.3l-.2.2s0 .2.2.2c0 0 1-.7 1.6-1.8.4-.8.6-1.8.6-2.9 0-1.3-.3-3.3-2.2-4.6zM271.1 9.6a11 11 0 0 0-2-6.8c-.2-.2-1-1.2-1.2-1.2-.1 0-.2 0-.2.2.7.8 1.6 1.9 2.1 4a15.8 15.8 0 0 1 0 7.8c-.5 1.8-1.3 2.9-2 3.7l-.1.1.2.1 1-1c1.4-1.5 2.2-4 2.2-7zM285.8 8.6c.2 0 .3-.2.3-.3 0-.1 0-.2-.3-.3l-7.3-3.4-.2-.1c-.2 0-.3 0-.3.2s0 .3.2.3l7 3.3-7 3.3c-.2.1-.2.2-.2.3 0 .1.1.3.3.3l.2-.1zm-.2 6.1c.3 0 .5 0 .5-.2 0-.3-.3-.3-.5-.3h-7.1c-.2 0-.5 0-.5.3 0 .2.2.2.4.2zM296.6 4.9c0-.4.1-.5.3-.5h.8c1.4 0 2 0 2 1 0 .2 0 .7-.2 1v.3c0 .1 0 .2.2.2l.2-.3.3-2.3V4c0-.2 0-.2-.3-.2h-7.4c-.3 0-.3 0-.4.3l-.8 2.3V7c.2 0 .2 0 .3-.3.7-2 1-2.3 3-2.3h.6c.3 0 .3 0 .3.2v.3l-1.8 7c-.1.6-.2.7-1.6.7-.5 0-.5 0-.5.3l.2.1h4.5s.2 0 .2-.3h-.4l-.9-.1c-.3 0-.4-.1-.4-.3v-.3zM304.8 7c0 .7.1 1.3 1 1.3 1 0 1.6-1.6 1.6-1.8h-.2c-.3.7-1 .9-1.2.9-.4 0-.6-.2-.8-1 1.7-.5 3-2.2 3-3.8 0-1.5-1-2.6-2.7-2.6-2.2 0-4.4 2-4.4 4.2 0 1.5 1.2 2.5 2.8 2.5l1-.1zm-1.6-.7c-.5-.2-1.1-.7-1.1-1.9 0-.6.1-1.8 1-2.9.6-.7 1.5-1.2 2.3-1.2 1 0 2 .7 2 2 0 1-.5 3-2.2 3.8-.2-.6-.4-1-1-1-.5 0-1 .5-1 1v.2zm1.6 0-.9.1c-.1 0-.5 0-.5-.3 0-.4.4-.7.8-.7s.6.1.6.9zM302 10.5a5.6 5.6 0 0 0-2.3 4.6c0 1.3.4 3.4 2.3 4.7l.1-.2v-.1c-1.3-1.1-1.7-2.7-1.7-4.4 0-2.5 1-3.7 1.7-4.4v-.1l-.1-.1zM306.8 16.7v.5c0 .2 0 .3.2.3s.3 0 .4-.2l.2-.5.2-.9.1-.6.3-.7c.3-.5.8-1 1.5-1 .5 0 .6.4.6.7 0 .5-.5 1.5-.6 2l-.1.4c0 .5.4.8.8.8 1 0 1.4-1.2 1.4-1.4l-.2-.1-.1.1c-.2.8-.7 1.2-1 1.2-.2 0-.3-.2-.3-.4s0-.3.3-.7c0-.3.5-1.3.5-1.8 0-.1 0-.5-.4-.8-.2-.1-.4-.3-.9-.3-.8 0-1.3.6-1.6 1 0-.8-.7-1-1.2-1a2 2 0 0 0-1.6.9c0-.7-.6-.9-1-.9s-.6.3-.7.5l-.3 1h.1l.2-.2c.2-.6.3-1 .7-1 .2 0 .3.2.3.4l-.1.8-.2.9-.3 1.2-.1.3c0 .2.1.3.3.3.1 0 .3 0 .3-.2l.2-.5.2-.9.2-.6c0-.4 0-.5.4-.8.2-.4.7-1 1.3-1 .6 0 .6.6.6.8l-.2.8zm7.4.6c0 .5 0 1-.7 1.7v.2c.2 0 1-.7 1-1.8 0-.6-.3-1-.7-1-.3 0-.5.2-.5.5s.2.5.5.5l.4-.1zm4.2-5.7c0-.1-.1-.3-.4-.3-.2 0-.5.2-.5.5 0 .1.1.3.4.3.3 0 .5-.2.5-.5zm-1.9 4.7v.4c0 .5.3.8.8.8 1 0 1.3-1.2 1.3-1.4l-.1-.1-.2.1c-.2.8-.6 1.2-1 1.2-.2 0-.2-.1-.2-.4l.1-.6.3-.7.5-1.2v-.3c0-.4-.3-.8-.8-.8-1 0-1.4 1.3-1.4 1.5h.4c.2-.9.6-1.2 1-1.2 0 0 .2 0 .2.3 0 .2 0 .4-.3 1zM320 10.5h-.2l.1.2c.8.8 1.7 2 1.7 4.4 0 2-.6 3.4-1.6 4.3l-.2.2.1.2c.1 0 1-.7 1.6-1.8.4-.8.7-1.8.7-2.9 0-1.3-.4-3.3-2.2-4.6zM326.7 12.9c0-.9-.4-1.4-.9-1.4-.4 0-.7.3-.7.7 0 .4.3.7.7.7.2 0 .3 0 .5-.2v.2c0 1-.4 1.8-.8 2.2l-.2.2c0 .1 0 .2.2.2.1 0 1.2-1 1.2-2.6zM341.6 4.2V4c0-.2 0-.3-.2-.3l-.3.3-1 3H336l-1.1-3-.3-.3c-.2 0-.3.1-.3.3v.2l3.4 8.7c0 .2.1.3.3.3.2 0 .2-.1.3-.3zm-5.4 3.3h3.6l-1.8 4.7zM346 16.1l-.1-.3c-1.7-1.7-2.1-4.2-2.1-6.2 0-2.3.5-4.6 2.1-6.3l.2-.2c0-.1 0-.2-.2-.2-.1 0-1.3 1-2 2.6-.8 1.5-1 3-1 4 0 1.1.2 2.7 1 4.2.8 1.7 1.9 2.5 2 2.5l.2-.1zM348 12.1l-.1.6c0 .2.2.4.4.4.1 0 .4-.1.5-.4l.2-1 .3-1.2.3-.9.1-.6c.2-.5 1-1.7 2.2-1.7.6 0 .7.5.7 1l-.2 1-.4 1.6-.2 1-.2.8c0 .2.2.4.4.4.4 0 .5-.4.6-.8l.8-3.2c0-.2.7-1.8 2.2-1.8.5 0 .7.5.7 1 0 .7-.6 2.2-.8 3-.2.3-.2.4-.2.7 0 .6.5 1 1 1 1.3 0 1.8-1.9 1.8-2l-.1-.1c-.2 0-.2 0-.2.2-.2.7-.7 1.7-1.4 1.7-.2 0-.3-.2-.3-.5s0-.6.2-1c.3-.6.8-2 .8-2.8 0-.9-.5-1.5-1.5-1.5s-1.7.6-2.2 1.3c0-.1 0-.6-.4-1-.3-.2-.7-.3-1-.3-1.3 0-2 .9-2.2 1.2 0-.8-.6-1.2-1.2-1.2s-.8.6-1 .8l-.4 1.3.2.1.2-.3c.2-1 .5-1.6 1-1.6.2 0 .4.1.4.6l-.2 1.2zm13.2.8c0-.9-.3-1.4-.8-1.4s-.8.3-.8.7c0 .4.3.7.8.7.1 0 .3 0 .4-.2l.1.2c0 1-.5 1.8-.9 2.2l-.1.2v.2c.2 0 1.3-1 1.3-2.6zm7-8.3c0-.2-.2-.5-.5-.5-.4 0-.7.4-.7.7 0 .3.1.5.5.5.3 0 .7-.3.7-.7zm-1 5 .3-.8.1-.7c0-.6-.4-1-1-1-1.3 0-1.8 1.9-1.8 2l.1.1c.2 0 .2 0 .2-.2.4-1.3 1-1.7 1.4-1.7.1 0 .3 0 .3.5l-.1.6-1 2.5-.2 1c0 .7.4 1.2 1 1.2 1.3 0 1.8-2 1.8-2 0-.2-.1-.2-.2-.2l-.2.2c-.2.9-.6 1.7-1.3 1.7-.3 0-.3-.2-.3-.5s0-.5.3-1.3zM372.8 9.6c0-1-.1-2.7-.8-4.2-.8-1.6-2-2.5-2.1-2.5l-.2.2.3.3c1.3 1.3 2 3.4 2 6.2 0 2.3-.4 4.6-2 6.3l-.3.2.2.1c.1 0 1.3-.9 2-2.6.8-1.4 1-2.9 1-4zM385.1 9.9c.2 0 .5 0 .5-.3s-.3-.3-.5-.3h-5.6c.2-1.7 1.7-3 3.5-3h2.1c.2 0 .5 0 .5-.3s-.3-.3-.5-.3h-2c-2.4 0-4.1 1.8-4.1 3.9a4 4 0 0 0 4 3.8h2.1c.2 0 .5 0 .5-.2 0-.3-.3-.3-.5-.3h-2c-2 0-3.4-1.3-3.6-3zM400.5 3.7l-.2-.1-.2.1-.9 1c-.1-.2-.7-1.1-2.2-1.1-3 0-6 2.9-6 6 0 2.2 1.6 3.6 3.7 3.6 1.1 0 2.1-.5 2.8-1.1 1.3-1.1 1.5-2.3 1.5-2.4l-.2-.1-.1.1c-.2.4-.5 1.4-1.4 2.1-1 .8-1.7 1-2.4 1-1.2 0-2.6-.7-2.6-2.8 0-.7.2-2.9 1.6-4.4.8-1 2-1.6 3.2-1.6 1.4 0 2.1 1 2.1 2.5v.7l.2.1c.2 0 .2 0 .2-.2zm2.3 9.2c0-.9-.4-1.4-.9-1.4-.4 0-.7.3-.7.7 0 .4.3.7.7.7.2 0 .3 0 .5-.2v.2c0 1-.4 1.8-.8 2.2l-.2.2.2.2c.1 0 1.2-1 1.2-2.6zM413.3 4.2V4c0-.2 0-.3-.2-.3l-.3.3-1 3h-4.1l-1.1-3-.3-.3c-.2 0-.3.1-.3.3v.2l3.4 8.7c0 .2.1.3.3.3.2 0 .2-.1.3-.3zM408 7.5h3.6l-1.8 4.7zM417.8 16.1l-.2-.3c-1.7-1.7-2.1-4.2-2.1-6.2 0-2.3.5-4.6 2.1-6.3l.2-.2c0-.1 0-.2-.2-.2-.1 0-1.3 1-2 2.6-.8 1.5-1 3-1 4 0 1.1.2 2.7 1 4.2.8 1.7 1.9 2.5 2 2.5l.2-.1zM419.7 12.1l-.1.6c0 .2.2.4.4.4.1 0 .4-.1.5-.4l.2-1 .3-1.2.3-.9.1-.6c.2-.5 1-1.7 2.2-1.7.6 0 .7.5.7 1 0 .8-.7 2.5-.9 3l-.1.7c0 .6.5 1 1 1 1.3 0 1.8-1.9 1.8-2l-.1-.1c-.2 0-.2 0-.2.2-.3 1-.7 1.7-1.4 1.7-.2 0-.3-.2-.3-.5l.2-1c.3-.6.8-2 .8-2.8 0-1-.5-1.5-1.5-1.5-1.2 0-1.8.9-2 1.2-.1-.7-.7-1.2-1.3-1.2-.6 0-.8.6-1 .8l-.4 1.3.2.1.2-.3c.2-1 .5-1.6 1-1.6.2 0 .4.2.4.6l-.2 1.2zm9.5.8c0-.9-.3-1.4-.8-1.4s-.7.3-.7.7c0 .4.2.7.7.7.1 0 .3 0 .4-.2l.1.2c0 1-.4 1.8-.9 2.2l-.1.2.1.2c.2 0 1.2-1 1.2-2.6zm8.5-8.3c0-.2-.2-.5-.5-.5s-.7.3-.7.7c0 .3.2.5.5.5s.7-.3.7-.7zm-2.7 9c-.3 1-.9 1.8-1.6 1.8-.1 0-.3 0-.5-.2.3 0 .5-.4.5-.7 0-.2 0-.4-.5-.4-.3 0-.7.2-.7.7 0 .6.6.8 1.2.8 1 0 2.2-.7 2.5-2l1.2-4.8v-.5c0-.8-.5-1.3-1.1-1.3-1.4 0-2.1 2-2.1 2l.1.2.2-.2c.4-.9 1-1.7 1.7-1.7.2 0 .4 0 .4.6v.7zm5.6-.7c0-.9-.4-1.4-.9-1.4-.4 0-.7.3-.7.7 0 .4.3.7.7.7.2 0 .4 0 .5-.2v.2c0 1-.4 1.8-.8 2.2l-.2.2.2.2c.1 0 1.2-1 1.2-2.6zm9.5-3.1c0-2.1-1.2-2.8-2.2-2.8-1.8 0-3.6 2-3.6 3.8 0 1.3.8 2.3 2.2 2.3.8 0 1.8-.3 2.8-1.2.1.7.6 1.2 1.2 1.2.7 0 1.1-.8 1.1-1l-.2-.1-.1.1c-.3.7-.7.7-.8.7-.4 0-.4-1-.4-1.4l.1-.5a7.7 7.7 0 0 0 1.6-3c0-.1 0-.2-.2-.2l-.2.3c-.2.8-.7 1.8-1.3 2.6zm-.9 1.8a4.2 4.2 0 0 1-2.7 1.2c-.8 0-1.2-.6-1.2-1.5 0-.6.3-2 .8-2.7.6-1 1.3-1.3 1.8-1.3 1.3 0 1.3 1.8 1.3 2.8v1.5zM456.2 9.6c0-1-.1-2.7-.9-4.2-.8-1.6-2-2.5-2-2.5l-.2.2.3.3c1.3 1.3 2 3.4 2 6.2 0 2.3-.5 4.6-2.1 6.3l-.2.2.2.1s1.3-.9 2-2.6c.7-1.4 1-2.9 1-4zM468.5 9.9c.2 0 .5 0 .5-.3s-.3-.3-.5-.3h-5.6c.1-1.7 1.7-3 3.5-3h2.1c.2 0 .5 0 .5-.3s-.3-.3-.5-.3h-2c-2.4 0-4.2 1.8-4.2 3.9a4 4 0 0 0 4.1 3.8h2.1c.2 0 .5 0 .5-.2 0-.3-.3-.3-.5-.3h-2c-2 0-3.5-1.3-3.6-3zM486 5.4c.3-.6.6-1 1.4-1.1.2 0 .3 0 .3-.3 0 0 0-.2-.2-.2h-2.4s-.2 0-.2.3c0 .1 0 .2.2.2.3 0 .8 0 .8.5l-.2.4-3.6 6.3-.5-6.6c0-.3 0-.6 1-.6.2 0 .3 0 .3-.3l-.2-.2h-3c-.1 0-.3 0-.3.3 0 .2.2.2.4.2.5 0 .6 0 .7.3v1l-3.3 5.9-.5-6.8c0-.1 0-.4 1-.4.1 0 .3 0 .3-.3 0-.2-.2-.2-.2-.2H474.7s-.2 0-.2.3c0 .2.1.2.3.2.7 0 .7 0 .7.4l.6 8.2c0 .2 0 .3.2.3s.3 0 .4-.3l3.9-6.8.5 6.8c0 .2 0 .3.2.3l.3-.2zM496 1.8c0-.3 0-.4.8-.4.2 0 .3 0 .3-.2l-.2-.1h-2.4s-.2 0-.2.2l.3.1h.3c.2 0 .3 0 .3.2v.2l-.6 2.2h-3.1l.5-2.2c0-.3.1-.4.8-.4.2 0 .3 0 .3-.2l-.2-.1h-2.4s-.2 0-.2.2l.3.1h.4c.2 0 .2 0 .2.2v.2l-1.3 5c0 .2-.1.3-.8.3-.2 0-.3 0-.3.2l.2.1h2.4s.2 0 .2-.2l-.3-.1h-.4c-.2 0-.2 0-.2-.2v-.2l.7-2.4h3l-.5 2.4c0 .3-.1.4-.8.4-.2 0-.3 0-.3.2l.1.1h2.5s.2 0 .2-.2l-.3-.1h-.4c-.2 0-.2 0-.2-.2v-.2zm0 0"/></g></svg>