<svg xmlns="http://www.w3.org/2000/svg" width="819" height="77.1"><path d="m1.1 24 .4-.1c0-9.3 1-17 5.7-23.6l.1-.2L7 0h-.2S5 2 3.7 4.7A35 35 0 0 0 .3 17c0 .4-.3 3.1-.3 6.3v.5c0 .2 0 .2.4.2zm-.7-.2-.4.1v.6c0 8 1.5 12.9 1.9 14.2a26.5 26.5 0 0 0 4.9 9.1h.5v-.2C2.8 41.4 1.5 34 1.5 24c0-.2 0-.2-.4-.2zM11.6 22.6c1.1-.4 1.9-1.3 1.9-2.4 0-1-1.2-1.8-2.5-1.8s-2.3.8-2.3 1.8c0 .5.3.7.7.7.4 0 .6-.3.6-.7 0-.6-.6-.6-.8-.6.4-.7 1.3-.9 1.8-.9s1.3.3 1.3 1.5c0 .2 0 1-.4 1.5-.4.7-.9.7-1.2.7h-.5l-.2.2c0 .2 0 .2.3.2h.6c1 0 1.6.9 1.6 2.2 0 1.8-1 2.2-1.5 2.2-.6 0-1.6-.3-2-1 .4 0 .8-.3.8-.8 0-.4-.3-.7-.7-.7-.3 0-.8.2-.8.8 0 1.2 1.3 2 2.7 2 1.6 0 2.8-1.2 2.8-2.5 0-1.1-.8-2.1-2.2-2.4zM26.1 24.2c.3 0 .5 0 .5-.3 0-.2-.2-.2-.5-.2H19c-.2 0-.4 0-.4.2 0 .3.2.3.4.3zM39.1 19.6c.2-.6.4-1 1.5-1 0 0 .2 0 .2-.3l-.2-.1H38c-.1 0-.3 0-.3.2s.2.2.3.2c.7 0 .9.3.9.6v.2l-1.3 4.8c-.4 1.8-2 3-3.3 3-.9 0-1.6-.6-1.6-1.8l.2-1 1.2-5.2c.2-.5.2-.6 1.2-.6.3 0 .4 0 .4-.3l-.2-.1H32c-.1 0-.2 0-.2.2s0 .2.3.2h.5c.3 0 .4 0 .4.2l-.2 1-.3 1.1-.8 3.3-.1.8c0 1.6 1.2 2.6 2.6 2.6 1.7 0 3.3-1.5 3.7-3.3zM48.8 21c0-.1 0-.3-.2-.3v.2c-.2.6-.6.8-1 .8-.5 0-.7-.4-1-1a3.4 3.4 0 0 0 2.1-3 3.4 3.4 0 0 0-6.9 0c0 1.9 1.6 3.4 3.5 3.4l1-.2c.2 1 .3 1.8 1.2 1.8 1 0 1.3-1.2 1.3-1.8zm-1-3.3c0 1.7-.8 2.4-1.3 2.7-.3-.4-.6-1-1.2-1-.5 0-.9.4-.9.9l.1.3c-.8-.3-1.7-1-1.7-2.9 0-2.2 1.3-3 2.5-3 1.1 0 2.5.8 2.5 3zM46 20.6l-.8.2c-.5 0-.6-.4-.6-.6 0-.2.3-.5.6-.5.5 0 .7.4.8.9zm10.2-2H56c0 1.5-1.4 2.1-2.3 2.1-1 0-2.7-.6-2.7-3 0-2.5 1.8-3 2.7-3 1 0 2 .6 2.3 2.2h.1c.2 0 .2 0 .2-.2v-2.1l-.1-.3-.2.1-.5.7c-.4-.4-1-.8-1.9-.8-2 0-3.6 1.5-3.6 3.4s1.7 3.4 3.6 3.4c1.6 0 2.7-1.3 2.7-2.4zM43 24.8a5.6 5.6 0 0 0-2.2 4.7c0 1.3.4 3.3 2.3 4.6l.2-.1-.1-.1c-1.3-1.2-1.7-2.7-1.7-4.4 0-2.5 1-3.8 1.7-4.5l-.1-.2zM48 31l-.2.6c0 .2.2.3.3.3l.4-.2.2-.6.2-.8.1-.7.3-.7c.3-.4.8-1 1.5-1 .5 0 .6.5.6.7 0 .6-.4 1.6-.6 2l-.1.5c0 .5.4.8.9.8.9 0 1.3-1.3 1.3-1.4l-.1-.2c-.2 0-.2.1-.2.2-.2.7-.6 1.1-1 1.1-.2 0-.3-.1-.3-.3l.3-.8c0-.2.5-1.2.5-1.8 0-.1 0-.5-.4-.8-.1 0-.4-.2-.9-.2-.8 0-1.3.5-1.6 1 0-.9-.7-1-1.2-1a2 2 0 0 0-1.6.8c0-.6-.6-.8-1-.8s-.6.3-.7.5c-.2.3-.3.9-.3 1h.1c.1 0 .2 0 .2-.2.2-.6.3-1 .7-1 .2 0 .3.1.3.4l-.1.8-.2.8-.3 1.2-.1.4c0 .2.1.3.3.3.2 0 .3-.1.3-.2l.2-.6.2-.8.2-.7c0-.3.1-.4.4-.8.2-.4.7-.9 1.4-.9.5 0 .5.5.5.7l-.2.9zm7.3.6c0 .6 0 1.1-.7 1.7v.2c.2 0 1-.7 1-1.8 0-.5-.2-1-.7-1-.3 0-.5.3-.5.5 0 .4.2.6.5.6s.4-.2.4-.2zm4.2-5.6c0-.2 0-.4-.3-.4s-.6.3-.6.5.1.4.4.4c.3 0 .5-.3.5-.5zm-1.9 4.7v.4c0 .4.3.8.8.8 1 0 1.4-1.3 1.4-1.4 0-.2-.1-.2-.2-.2l-.2.2c-.2.7-.6 1.1-1 1.1-.1 0-.2 0-.2-.3 0-.2 0-.4.2-.6 0-.3.2-.5.3-.7l.4-1.2v-.3c0-.5-.3-.8-.8-.8-1 0-1.4 1.3-1.4 1.4l.2.1.2-.1c.2-.8.6-1.2 1-1.2.1 0 .2.1.2.4l-.3 1zM61.1 24.8l-.2.1.1.2c.8.7 1.7 2 1.7 4.4 0 1.9-.6 3.4-1.6 4.3l-.2.2.2.1s1-.6 1.6-1.8c.4-.7.6-1.7.6-2.8 0-1.4-.3-3.4-2.2-4.7zm6.6 0a5.6 5.6 0 0 0-2.2 4.7c0 1.3.4 3.3 2.2 4.6l.2-.1v-.1c-1.3-1.2-1.8-2.7-1.8-4.4 0-2.5 1-3.8 1.8-4.5 0-.2 0-.2-.2-.2zM69.7 31.2v.4c0 .2.1.3.3.3l.3-.2.2-.6.2-.8.1-.7.4-.8c.3-.4.7-.9 1.4-.9.6 0 .6.5.6.7 0 .6-.4 1.6-.6 2l-.1.5c0 .5.4.8.9.8.9 0 1.3-1.3 1.3-1.4l-.1-.2c-.2 0-.2.1-.2.2-.2.7-.6 1.1-1 1.1-.2 0-.2-.1-.2-.3l.2-.8c.1-.2.5-1.2.5-1.8 0-.9-.7-1-1.2-1a2 2 0 0 0-1.6.8c0-.6-.6-.8-1-.8s-.6.3-.7.5l-.4 1h.2l.2-.2c.1-.6.3-1 .7-1 .2 0 .3.1.3.4l-.2.8-.2.8zm7.4.4c0 .6 0 1.1-.7 1.7v.2c.2 0 1-.7 1-1.8 0-.5-.2-1-.7-1-.3 0-.5.3-.5.5 0 .4.2.6.5.6s.4-.2.4-.2zm5.3-5.6c0-.2-.1-.4-.4-.4-.2 0-.5.3-.5.5s.1.4.4.4c.2 0 .5-.3.5-.5zm-2 6.2c-.1.7-.6 1.2-1.2 1.2H79c.2-.1.3-.4.3-.5 0-.2-.2-.3-.4-.3s-.5.2-.5.5c0 .4.4.6 1 .6.5 0 1.6-.3 1.9-1.5L82 29v-.3c0-.5-.4-1-1-1-1 0-1.6 1.4-1.6 1.5l.2.1.2-.1c.2-.6.7-1.2 1.2-1.2.3 0 .4.2.4.5v.3zm4.3-.6c0 .6-.1 1.1-.8 1.7v.2c.2 0 1-.7 1-1.8 0-.5-.2-1-.6-1-.3 0-.6.3-.6.5 0 .4.2.6.6.6l.4-.2zm6.2-1.1c.9-.9 1.2-2.2 1.2-2.2L92 28c-.2 0-.2 0-.2.3a5 5 0 0 1-.9 1.7v-.9c-.2-1-.9-1.5-1.8-1.5-1.4 0-2.7 1.3-2.7 2.6 0 .8.6 1.6 1.7 1.6.9 0 1.7-.4 2.2-.8.2.7.7.8 1 .8.5 0 .8-.5.8-.7H91.8c-.1.4-.4.4-.5.4-.2 0-.3 0-.4-1.1zm-.7.3c-.9.7-1.7.8-2 .8-.7 0-1-.4-1-1 0-.3.1-1.3.6-2 .4-.5 1-.7 1.3-.7.7 0 1 .8 1 1.3l.1 1.6zM96.7 31.8h-.3c0 .2 0 .6-.2.6h-2l1.3-.9c.6-.4 1.2-.8 1.2-1.5 0-.8-.8-1.3-1.8-1.3-.9 0-1.5.5-1.5 1.2 0 .3.3.4.4.4.1 0 .3-.1.3-.4 0-.3-.1-.4-.3-.4.2-.3.5-.5 1-.5.6 0 1.2.4 1.2 1s-.4 1-1 1.4l-1.5 1.4-.1.1v.2h3zM98.8 24.8l-.2.1.1.2c.8.7 1.7 2 1.7 4.4 0 1.9-.6 3.4-1.6 4.3l-.2.2.1.1c.1 0 1-.6 1.6-1.8.5-.7.7-1.7.7-2.8 0-1.4-.4-3.4-2.2-4.7zM114.5 24.2c.2 0 .5 0 .5-.3 0-.2-.3-.2-.5-.2h-7.2c-.2 0-.5 0-.5.2 0 .3.3.3.5.3zM123 23h2.3c2 0 3.8-1.3 3.8-2.8 0-1-1-2-2.7-2h-4.3c-.2 0-.4 0-.4.2s.1.2.4.2h.6c.2 0 .3 0 .3.2v.3l-1.9 7.1c0 .5-.1.6-1.2.6-.2 0-.3 0-.3.3 0 .2.1.2.2.2h3.4s.2 0 .2-.3c0-.2 0-.2-.3-.2-.5 0-1 0-1-.2l.1-.2zm1-4c.1-.4.2-.4.7-.4h1.3c1.1 0 1.8.3 1.8 1.3 0 .5-.2 1.6-.8 2.1a3 3 0 0 1-2 .7H123zM135.7 16.5l.6-.5.8-.3c.1 0 .3 0 .3-.2h-1.9l-.2.1.2.1c.3 0 .3.2.3.2 0 .1 0 .2-.2.3l-.1.2-2.3 2.4-1.3-2.7v-.2c0-.2.4-.2.5-.2 0 0 .2 0 .2-.2H130.2l-.2.1.2.1c.6 0 .6.1.7.3l1.4 3.2-.4 1.7c-.1.5-.1.5-.9.5-.1 0-.2 0-.2.2l.1.2h2.4s.2 0 .2-.2 0-.2-.3-.2h-.3l-.2-.1.1-.8.3-1.1c0-.2 0-.2.2-.3zM130.9 23.9a5.6 5.6 0 0 0-2.3 4.6c0 1.4.4 3.4 2.3 4.7l.2-.1-.1-.2c-1.3-1-1.7-2.6-1.7-4.4 0-2.5 1-3.7 1.7-4.4l-.1-.2zM135.8 30.1l-.2.6c0 .2.2.3.3.3l.4-.2.2-.6.2-.9.1-.6.3-.7c.3-.4.8-1 1.5-1 .5 0 .6.5.6.7 0 .5-.4 1.6-.6 2l-.1.5c0 .5.4.8.9.8.9 0 1.3-1.3 1.3-1.4l-.1-.2c-.2 0-.2 0-.2.2-.2.7-.6 1.1-1 1.1-.2 0-.2-.1-.2-.3l.2-.8c0-.3.5-1.2.5-1.8 0-.1 0-.5-.4-.8l-.8-.2c-.9 0-1.4.5-1.7 1 0-.9-.7-1-1.2-1a2 2 0 0 0-1.6.8c0-.6-.6-.8-1-.8s-.6.3-.7.5l-.3.9.1.1c.1 0 .2 0 .2-.3.2-.5.3-1 .7-1 .2 0 .3.2.3.5l-.1.8-.2.8-.3 1.2-.1.4c0 .2.1.3.3.3.2 0 .3-.2.3-.2l.2-.6.2-.9.2-.6c0-.4.1-.4.4-.8.2-.4.7-.9 1.4-.9.5 0 .5.5.5.7l-.1.9zm7.3.6c0 .5 0 1.1-.7 1.7v.2c.2 0 1-.7 1-1.8 0-.5-.2-1-.7-1-.3 0-.5.3-.5.5 0 .3.2.6.5.6s.4-.2.4-.2zm4.2-5.6c0-.2 0-.4-.3-.4s-.6.2-.6.5c0 .2.2.4.4.4.3 0 .5-.3.5-.5zm-1.9 4.7v.4c0 .4.3.8.8.8 1 0 1.4-1.3 1.4-1.4 0-.2-.1-.2-.2-.2l-.2.2c-.2.7-.6 1.1-1 1.1-.1 0-.2-.1-.2-.3l.2-.6c0-.3.2-.5.3-.8l.4-1.1v-.3c0-.5-.3-.8-.8-.8-1 0-1.3 1.2-1.3 1.4l.1.1.2-.1c.2-.8.6-1.2 1-1.2.1 0 .2.1.2.4l-.3.9zm4.6 1c0 .4 0 1-.7 1.6v.2c.2 0 1-.7 1-1.8 0-.5-.2-1-.6-1-.4 0-.6.3-.6.5 0 .3.2.6.6.6.2 0 .3-.2.3-.2zm6.3-1.2a5 5 0 0 0 1.2-2.3h-.1c-.2 0-.2 0-.2.2a5 5 0 0 1-.9 1.6v-.8c-.2-1-.9-1.5-1.8-1.5-1.4 0-2.7 1.2-2.7 2.5 0 1 .6 1.7 1.7 1.7.9 0 1.6-.4 2.2-.8.2.7.6.8 1 .8.5 0 .8-.5.8-.7H157.2c-.1.4-.4.4-.5.4-.2 0-.3 0-.4-1.1zm-.7.3c-1 .7-1.7.8-2 .8-.7 0-1-.4-1-1 0-.3.1-1.3.6-2 .4-.5 1-.7 1.3-.7.7 0 1 .7 1 1.3V30zM160.8 28c0-.2 0-.2-.2-.2-.5.4-1.2.4-1.4.4v.3c.2 0 .6 0 1-.2v3.3c0 .2 0 .3-.7.3h-.3v.3h2.6V32h-.3c-.7 0-.7 0-.7-.3zM164.2 23.9l-.2.1.1.2c.8.7 1.7 2 1.7 4.3 0 2-.6 3.5-1.6 4.4l-.2.2.1.1c.1 0 1-.6 1.6-1.8.5-.8.7-1.8.7-2.9 0-1.3-.4-3.3-2.2-4.6zM169.5 30.7c0 .5-.1 1.1-.8 1.7v.2h.1c.1 0 1-.7 1-1.8 0-.5-.3-1-.7-1-.3 0-.5.3-.5.5 0 .3.2.6.5.6l.4-.2zm6.3-3.3v-.2c0-.2 0-.3-.2-.3-.1 0-.3 0-.4.2l-.2.5-.2.8-.3 1.5s-.4.8-1.2.8c-.6 0-.6-.6-.6-.8 0-.5.2-1 .5-1.8l.1-.5c0-.5-.3-.8-.8-.8-1 0-1.4 1.2-1.4 1.4l.2.1.1-.1c.3-.8.7-1.2 1-1.2.2 0 .3.1.3.4l-.2.5c-.4 1.1-.5 1.5-.5 1.9 0 .1 0 .6.3.9a1.6 1.6 0 0 0 2-.1 3 3 0 0 1-.6 1.3c-.3.3-.6.6-1.1.6 0 0-.5 0-.7-.3.5 0 .5-.5.5-.5 0-.3-.3-.4-.4-.4-.2 0-.5.2-.5.7 0 .4.4.8 1 .8 1 0 2.2-.7 2.4-1.9zM188.8 24.2c.2 0 .4 0 .4-.3 0-.2-.2-.2-.4-.2h-7.2c-.2 0-.5 0-.5.2 0 .3.3.3.5.3zM197.3 23h2.3c1.9 0 3.7-1.3 3.7-2.8 0-1-.8-2-2.6-2h-4.3c-.2 0-.4 0-.4.2s.1.2.4.2h.6c.2 0 .3 0 .3.2v.3l-1.9 7.1c-.1.5-.1.6-1.2.6-.2 0-.4 0-.4.3 0 .2.2.2.3.2h3.3c.1 0 .3 0 .3-.3 0-.2-.1-.2-.4-.2-.5 0-.8 0-.8-.2v-.2zm1-4c.1-.4.1-.4.7-.4h1.3c1.1 0 1.8.3 1.8 1.3 0 .5-.3 1.6-.8 2.1a3 3 0 0 1-2 .7h-1.9zM210 16.5l.6-.5.8-.3c.1 0 .3 0 .3-.2h-1.9l-.2.1.2.1c.2 0 .2.2.2.2v.3l-.2.2-2.4 2.4-1.2-2.7v-.2c0-.2.4-.2.4-.2.2 0 .3 0 .3-.2h-2.4l-.2.1.2.1c.5 0 .6.1.7.3l1.4 3.2-.4 1.7c-.1.5-.1.5-.9.5-.1 0-.3 0-.3.2l.2.2h2.4s.2 0 .2-.2 0-.2-.3-.2h-.4l-.2-.1.2-.8.3-1.1.1-.3zM205.2 23.9a5.6 5.6 0 0 0-2.3 4.6c0 1.4.4 3.4 2.3 4.7l.1-.1v-.2c-1.3-1-1.7-2.6-1.7-4.4 0-2.5 1-3.7 1.7-4.4l-.1-.2zM207.2 30.3l-.1.4c0 .2.1.3.3.3l.3-.2.2-.6.2-.9.2-.6c0-.4 0-.4.4-.8.2-.4.7-.9 1.3-.9.6 0 .6.5.6.7 0 .5-.4 1.6-.6 2v.5c0 .5.3.8.8.8 1 0 1.3-1.3 1.3-1.4l-.1-.2c-.1 0-.2 0-.2.2-.2.7-.6 1.1-1 1.1-.2 0-.2-.1-.2-.3l.2-.8c.1-.3.5-1.2.5-1.8 0-.9-.7-1-1.2-1a2 2 0 0 0-1.6.8c0-.6-.6-.8-1-.8s-.6.3-.7.5l-.4.9.2.1.2-.3c.1-.5.3-1 .7-1 .2 0 .3.2.3.5l-.1.8-.3.8zm7.4.4c0 .5-.1 1.1-.8 1.7v.2c.2 0 1-.7 1-1.8 0-.5-.2-1-.6-1-.4 0-.6.3-.6.5 0 .3.2.6.6.6l.4-.2zm5.2-5.6c0-.2-.1-.4-.4-.4-.2 0-.5.3-.5.5s.1.4.4.4c.3 0 .5-.3.5-.5zm-2 6.2c-.1.7-.6 1.2-1.2 1.2h-.3c.3-.1.3-.4.3-.5 0-.2-.1-.4-.3-.4-.3 0-.6.3-.6.6 0 .4.4.6 1 .6.5 0 1.6-.4 1.9-1.5l.8-3.3v-.3c0-.6-.4-1-1-1-1 0-1.6 1.4-1.6 1.5l.2.1.2-.1c.2-.6.7-1.2 1.3-1.2.2 0 .3.2.3.5v.3zm4.3-.6c0 .5-.1 1.1-.8 1.7v.2h.1c.1 0 1-.7 1-1.8 0-.5-.3-1-.7-1-.3 0-.5.3-.5.5 0 .3.2.6.5.6l.4-.2zm6.2-1.1a5 5 0 0 0 1.3-2.3h-.2l-.2.2a5 5 0 0 1-.9 1.6v-.8c-.2-1-.8-1.5-1.8-1.5-1.3 0-2.7 1.2-2.7 2.5 0 1 .7 1.7 1.7 1.7s1.7-.4 2.2-.8c.2.7.7.8 1 .8.5 0 .8-.5.8-.7H229.2c-.1.4-.4.4-.5.4-.1 0-.3 0-.4-1.1zm-.7.3c-.9.7-1.7.8-2 .8-.6 0-1-.4-1-1 0-.3.2-1.3.6-2 .5-.5 1-.7 1.3-.7.8 0 1 .7 1 1.3l.1 1.6zM234 31h-.2s0 .5-.2.5h-2l1.3-.9c.6-.4 1.2-.8 1.2-1.5 0-.9-.8-1.3-1.8-1.3-.9 0-1.5.5-1.5 1.2 0 .3.3.4.4.4.2 0 .4-.2.4-.4 0-.3-.2-.4-.4-.4.2-.3.6-.5 1-.5.6 0 1.2.4 1.2 1s-.4 1-1 1.4L231 32l-.1.1v.2h3zM236.2 23.9l-.2.1.1.2c.8.7 1.7 2 1.7 4.3 0 2-.6 3.5-1.6 4.4l-.2.2.2.1s1-.6 1.6-1.8c.4-.8.6-1.8.6-2.9 0-1.3-.3-3.3-2.2-4.6zM241.5 30.7c0 .5 0 1.1-.7 1.7l-.1.2h.1c.2 0 1-.7 1-1.8 0-.5-.3-1-.7-1-.3 0-.5.3-.5.5 0 .3.2.6.5.6l.4-.2zm6.4-3.3v-.2c0-.2-.1-.3-.3-.3-.1 0-.3 0-.4.2l-.1.5-.2.8-.4 1.5s-.4.8-1.2.8c-.6 0-.6-.6-.6-.8 0-.5.2-1 .5-1.8l.2-.5c0-.5-.4-.8-1-.8-.9 0-1.3 1.2-1.3 1.4l.2.1.2-.1c.2-.8.6-1.2 1-1.2.1 0 .2.1.2.4l-.1.5c-.5 1.1-.6 1.5-.6 1.9 0 .1 0 .6.4.9a1.5 1.5 0 0 0 2-.1 3 3 0 0 1-.7 1.3c-.2.3-.6.6-1.1.6 0 0-.5 0-.7-.3.5 0 .5-.5.5-.5 0-.3-.3-.4-.4-.4-.2 0-.5.2-.5.7 0 .4.4.8 1.1.8 1 0 2-.7 2.4-1.9zM257.5 24.2h3.7c.2 0 .4 0 .4-.3 0-.2-.2-.2-.4-.2h-3.7v-3.8c0-.1 0-.4-.3-.4s-.3.3-.3.4v3.8h-3.7c-.2 0-.4 0-.4.2 0 .3.2.3.4.3h3.7v3.7c0 .2 0 .5.3.5s.3-.3.3-.5zM267.3 11.7c0 .3 0 .5.2.5.3 0 .3-.2.3-.5V4.2c0-.2 0-.5-.2-.5-.3 0-.3.3-.3.5zm0 8c0 .2 0 .5.2.5.3 0 .3-.2.3-.5v-7.5c0-.2 0-.5-.2-.5-.3 0-.3.2-.3.5zm0 8c0 .2 0 .5.2.5.3 0 .3-.3.3-.5v-7.5c0-.3 0-.5-.2-.5-.3 0-.3.2-.3.5zm0 8c0 .2 0 .5.2.5.3 0 .3-.3.3-.5V28c0-.2 0-.5-.2-.5-.3 0-.3.3-.3.5zm0 8c0 .2 0 .5.2.5.3 0 .3-.3.3-.5V36c0-.2 0-.5-.2-.5-.3 0-.3.3-.3.5zM279.7 4.4c0-1.4-1-2.6-2.7-2.6-2.2 0-4.4 2.1-4.4 4.2 0 1.5 1.1 2.6 2.7 2.6 2.3 0 4.4-2 4.4-4.2zm-4.3 3.8c-1 0-1.8-.6-1.8-2a5 5 0 0 1 1-2.9c.6-.7 1.5-1.2 2.3-1.2 1 0 1.9.6 1.9 2 0 .7-.3 2-1.2 3a3 3 0 0 1-2.2 1.1zM283 5.3v-.1c-.2 0-2 1-2 3.3 0 2.2 1.8 3.3 2 3.3v-.2a4 4 0 0 1-1.4-3.1c0-1.6.7-2.7 1.4-3.2zM287.3 9.6l-.1.4.2.2c.1 0 .3 0 .3-.2l.2-.5.2-1c0-.1.6-1 1.4-1 .3 0 .4.1.4.4 0 .4-.2 1-.4 1.4v.3c0 .4.3.6.7.6.7 0 1-.9 1-1V9c-.2 0-.2 0-.2.2-.2.3-.5.7-.8.7-.1 0-.2-.1-.2-.3v-.3c.2-.3.5-1 .5-1.4 0-.5-.3-.8-1-.8-.6 0-1 .4-1.3.7 0-.6-.7-.7-1-.7-.6 0-1 .4-1.2.7 0-.6-.7-.7-.8-.7-.7 0-1 1-1 1l.2.1h.2c0-.5.2-.9.5-.9.2 0 .3.2.3.4l-.1.5-.2.6-.1.6-.1.5c0 .1 0 .2.2.2.1 0 .3 0 .3-.2l.2-.5V9l.2-.4s.2-.5.6-.8c0-.1.4-.4.8-.4.3 0 .4.2.4.5v.6zm6.4.5c0 .6-.4 1-.6 1.1v.2c.1 0 .8-.5.8-1.3 0-.5-.2-.8-.5-.8s-.4.2-.4.4c0 .3.1.4.4.4h.3zm3.8-4.1c0-.2 0-.3-.3-.3-.1 0-.4.2-.4.4s.2.3.3.3c.2 0 .4-.2.4-.4zm.3 3.2-.1-.1-.2.2c0 .3-.4.7-.7.7-.2 0-.2-.1-.2-.3v-.3l.2-.4a11 11 0 0 0 .5-1.2c0-.3-.3-.6-.7-.6-.7 0-1.1.9-1.1 1l.1.1.2-.1c.1-.5.5-.8.7-.8.2 0 .2.1.2.3v.2l-.4 1-.2.4v.3c0 .4.3.6.7.6.7 0 1-.9 1-1zM301 8.5c0-2.3-1.7-3.3-1.8-3.3h-.1v.1c1 .8 1.4 2 1.4 3.2 0 .6 0 1.2-.3 1.8-.3.7-.7 1-1 1.4h-.1v.1c.2 0 2-1 2-3.3zM294.6 33.2l1.6-4.2h-.3c-.6 1.4-2 2.3-3.5 2.7-.3 0-1.6.4-4.1.4h-8l6.7-8 .1-.2v-.2l-6.3-8.4h7.3c1.8 0 3 .1 3.1.2.8 0 2 .3 3 1 .3.2 1.2.8 1.7 1.9h.3l-1.6-3.8h-15.7l-.4.1v.5l7 9.6-6.9 8-.1.3.4.1zM280 41.8c-.2.3-.5.8-1 .8l-.5-.1c.4-.1.4-.5.4-.5 0-.2-.1-.4-.3-.4-.3 0-.5.3-.5.6 0 .5.5.7 1 .7.3 0 .7-.3 1-.7.2.5.7.7 1 .7 1.2 0 1.7-1.2 1.7-1.4l-.1-.2c-.2 0-.2 0-.2.2-.2.6-.8 1.1-1.3 1.1-.4 0-.5-.2-.5-.6l.4-2.1c.2-.7.6-1 1-1l.4.2c-.2 0-.4.3-.4.5s.2.3.4.3.5-.1.5-.5c0-.6-.6-.7-1-.7s-.8.3-1 .6c-.1-.3-.6-.6-1.1-.6-1 0-1.6 1.1-1.6 1.4l.1.1.2-.1c.2-.8.8-1.2 1.3-1.2.3 0 .5.2.5.7 0 .1 0 .6-.2 1zM290.8 39.7c.1 0 .3 0 .3-.3 0-.2-.2-.2-.3-.2h-6.2s-.3 0-.3.2c0 .3.2.3.3.3zm0 2c.1 0 .3 0 .3-.2s-.2-.2-.3-.2h-6.2c-.1 0-.3 0-.3.2s.2.2.3.2zm4.1-4.8c0-.3 0-.3-.3-.3-.6.6-1.4.6-1.8.6v.3c.2 0 .8 0 1.4-.2V42c0 .3 0 .5-1 .5h-.3v.3a47.1 47.1 0 0 1 3.3 0v-.3h-.4c-.9 0-.9-.2-.9-.5zM309 23h2.2c2 0 3.8-1.3 3.8-2.8 0-1-1-2-2.7-2H308c-.2 0-.4 0-.4.2s.1.2.4.2h.6c.2 0 .3 0 .3.2v.3l-1.9 7.1c0 .5-.1.6-1.2.6-.2 0-.3 0-.3.3 0 .2.1.2.2.2h3.4s.2 0 .2-.3c0-.2 0-.2-.3-.2-.5 0-1 0-1-.2l.1-.2zm1-4c0-.4 0-.4.6-.4h1.3c1.1 0 1.8.3 1.8 1.3 0 .5-.2 1.6-.8 2.1a3 3 0 0 1-2 .7H309zM320.5 18.2l.9-.9c1.2-1.1 1.5-1.5 2.4-1.6l.2-.1-.1-.2H322c-.2 0-.3 0-.3.2l.2.1s.3 0 .3.3l-.3.4-1.5 1.5-1-1.8V16s.1-.2.5-.3c0 0 .2 0 .2-.2h-2.5l-.2.1.3.1c.5 0 .6.1.7.3l1.3 2.6-.5.5-.8.8c-1.2 1.1-1.6 1.5-2.4 1.5-.1 0-.2 0-.2.2l.1.2h1.9c.1 0 .3 0 .3-.2s-.2-.2-.2-.2c-.1 0-.3 0-.3-.2s.1-.3.3-.5l2-1.8 1 2.2v.1s0 .2-.4.2c0 0-.2 0-.2.2l.1.2h2.3s.2 0 .2-.2 0-.2-.2-.2c-.6 0-.6 0-.7-.2zM316.8 23.9a5.6 5.6 0 0 0-2.3 4.6c0 1.4.4 3.4 2.3 4.7l.2-.1-.1-.2c-1.3-1-1.7-2.6-1.7-4.4 0-2.5 1-3.7 1.7-4.4l-.1-.2zM318.8 30.3l-.1.4c0 .2.1.3.3.3.2 0 .3-.2.3-.2l.2-.6.2-.9.2-.6c0-.4.1-.4.4-.8.2-.4.7-.9 1.4-.9.5 0 .5.5.5.7 0 .5-.4 1.6-.5 2l-.2.5c0 .5.4.8 1 .8.8 0 1.3-1.3 1.3-1.4 0-.2-.2-.2-.2-.2l-.2.2c-.2.7-.6 1.1-1 1.1-.2 0-.2-.1-.2-.3l.2-.8c.1-.3.5-1.2.5-1.8 0-.9-.7-1-1.2-1a2 2 0 0 0-1.6.8c0-.6-.6-.8-1-.8s-.6.3-.7.5l-.3.9.1.1c.1 0 .2 0 .2-.3.2-.5.3-1 .7-1 .2 0 .3.2.3.5l-.1.8-.2.8zm7.4.4c0 .5-.1 1.1-.8 1.7v.2c.2 0 1-.7 1-1.8 0-.5-.2-1-.6-1-.3 0-.6.3-.6.5 0 .3.2.6.6.6l.4-.2zm5.2-5.6c0-.2 0-.4-.3-.4s-.6.3-.6.5.2.4.4.4c.3 0 .5-.3.5-.5zm-2 6.2c0 .7-.6 1.2-1.1 1.2h-.4c.3-.1.3-.4.3-.5 0-.2-.1-.4-.3-.4-.3 0-.6.3-.6.6 0 .4.4.6 1 .6.5 0 1.6-.4 2-1.5l.7-3.3v-.3c0-.6-.3-1-.9-1-1 0-1.6 1.4-1.6 1.5l.1.1.2-.1c.2-.6.7-1.2 1.3-1.2.2 0 .3.2.3.5v.3zm4.3-.6c0 .5-.1 1.1-.7 1.7l-.1.2h.1c.2 0 1-.7 1-1.8 0-.5-.3-1-.7-1-.3 0-.5.3-.5.5 0 .3.2.6.5.6l.4-.2zm6.3-1.1a5 5 0 0 0 1.2-2.3h-.2l-.2.2a5 5 0 0 1-.9 1.6v-.8c-.1-1-.8-1.5-1.8-1.5-1.3 0-2.6 1.2-2.6 2.5 0 1 .6 1.7 1.7 1.7.8 0 1.6-.4 2.1-.8.2.7.7.8 1 .8.5 0 .9-.5.9-.7h-.4c-.1.4-.4.4-.5.4-.1 0-.3 0-.3-1.1zm-.8.3c-.9.7-1.7.8-2 .8-.6 0-1-.4-1-1 0-.3.2-1.3.6-2 .5-.5 1-.7 1.3-.7.8 0 1 .7 1 1.3l.1 1.6zM345.7 31h-.3s0 .5-.2.5h-2l1.3-.9c.7-.4 1.2-.8 1.2-1.5 0-.9-.8-1.3-1.7-1.3-1 0-1.6.5-1.6 1.2 0 .3.3.4.4.4.2 0 .4-.2.4-.4 0-.3-.2-.4-.4-.4.2-.3.6-.5 1-.5.7 0 1.2.4 1.2 1s-.4 1-1 1.4l-1.5 1.4V32.2h3zM347.8 23.9l-.2.1.1.2c.8.7 1.7 2 1.7 4.3 0 2-.6 3.5-1.6 4.4l-.2.2.2.1s1-.6 1.6-1.8c.4-.8.7-1.8.7-2.9 0-1.3-.4-3.3-2.3-4.6zM353.1 30.7c0 .5 0 1.1-.7 1.7v.2c.2 0 1-.7 1-1.8 0-.5-.3-1-.7-1-.3 0-.5.3-.5.5 0 .3.2.6.5.6l.4-.2zm3.5-.8c0 .3-.4.8-.9.8l-.5-.1c.4-.1.4-.5.4-.5 0-.2-.1-.4-.3-.4-.3 0-.5.2-.5.6 0 .5.5.7 1 .7.3 0 .7-.3 1-.7.2.5.7.7 1 .7 1.1 0 1.7-1.2 1.7-1.4l-.1-.2c-.2 0-.2 0-.2.2-.2.6-.8 1.1-1.3 1.1-.4 0-.6-.2-.6-.6l.5-2.1c.2-.7.6-1 1-1l.4.2c-.3 0-.4.3-.4.5s.2.3.4.3.5-.2.5-.5c0-.6-.6-.7-1-.7s-.8.3-1 .6c-.1-.4-.6-.6-1.1-.6-1 0-1.6 1.1-1.6 1.4l.1.1.2-.1c.2-.8.8-1.2 1.3-1.2.3 0 .5.2.5.7 0 .1 0 .6-.2 1zM372.7 24.2c.3 0 .5 0 .5-.3 0-.2-.2-.2-.5-.2h-7.2c-.2 0-.4 0-.4.2 0 .3.2.3.4.3zM409.2 7.8c0-.2 0-.2.3-.2h.8c.7 0 1.2.1 1.2.7 0 .3-.2.6-.5.9 0 0-.4.2-1.2.2h-1zm1.5 1.7c.8-.1 1.6-.6 1.6-1.2s-.9-1-2-1h-2.2c-.2 0-.2 0-.2.2h.2l.4.1v.2l-.9 3.5c0 .1 0 .2-.5.2-.2 0-.3 0-.3.2l.1.1h1.9l.1-.2h-.2l-.3-.1h-.1v-.2l.4-1.6h1c.5 0 1 .1 1 .5v.5l-.2.5c0 .6.7.8 1.1.8.7 0 1-.7 1-.8l-.2-.1h-.1c-.1.4-.4.6-.7.6-.1 0-.3 0-.3-.5V10.3c0-.5-.4-.7-.6-.8zM412.6 33.2l1.6-4.2h-.3c-.5 1.4-2 2.3-3.5 2.7-.2 0-1.5.4-4.1.4h-8l6.8-8v-.4l-6.2-8.4h7.3c1.8 0 3 .1 3 .2.8 0 2 .3 3 1 .3.2 1.3.8 1.7 1.9h.3l-1.6-3.8H397l-.4.1v.5l7 9.6-6.8 8-.2.3.4.1zM379.6 42.2c-.1.3-.4.8-1 .8l-.4-.1c.4-.2.4-.5.4-.6 0-.2-.2-.3-.4-.3s-.5.2-.5.6c0 .4.5.6 1 .6.4 0 .8-.2 1-.6.2.5.8.6 1.1.6 1.1 0 1.7-1.1 1.7-1.4l-.2-.1-.2.2c-.2.6-.7 1-1.2 1-.4 0-.6-.2-.6-.5l.5-2.1c.2-.8.6-1 .9-1l.5.1c-.3.1-.4.4-.4.5 0 .3.1.4.4.4.2 0 .5-.2.5-.6 0-.5-.6-.6-1-.6-.5 0-.8.3-1 .6-.2-.4-.6-.6-1.1-.6-1 0-1.7 1.1-1.7 1.4h.4c.2-.8.8-1.2 1.2-1.2.3 0 .6.2.6.6l-.2 1zM390.4 40c.2 0 .4 0 .4-.2s-.2-.2-.4-.2h-6.1c-.1 0-.4 0-.4.2s.2.2.4.2zm0 2 .4-.1c0-.3-.2-.3-.4-.3h-6.1c-.2 0-.4 0-.4.3 0 .2.3.2.4.2zM399.2 39.2c0-1.5-1-2.6-2.7-2.6-2.2 0-4.4 2.1-4.4 4.2 0 1.5 1.1 2.5 2.7 2.5 2.2 0 4.4-2 4.4-4.1zm-4.3 3.8c-1 0-1.9-.6-1.9-2a5 5 0 0 1 1-2.9c.7-.7 1.6-1.2 2.4-1.2 1 0 1.9.6 1.9 2 0 .7-.3 2-1.2 3a3 3 0 0 1-2.2 1.1zM402.5 40.1l-.1-.2c-.2 0-1.9 1.1-1.9 3.4 0 2.2 1.7 3.3 1.9 3.3v-.2a4 4 0 0 1-1.4-3.1c0-1.6.8-2.7 1.5-3.2zM406.7 44.4v.4c0 .1 0 .2.2.2 0 0 .2 0 .3-.2l.1-.5.3-1c0-.1.5-1 1.3-1 .4 0 .5.1.5.4 0 .4-.3 1-.4 1.4l-.1.3c0 .4.3.6.7.6.7 0 1.1-.9 1.1-1l-.1-.1-.2.1c-.1.4-.4.8-.7.8-.2 0-.2-.1-.2-.3v-.3c.2-.3.5-1 .5-1.4 0-.5-.4-.8-1-.8s-1 .4-1.3.7c-.1-.6-.8-.7-1-.7-.7 0-1 .4-1.3.7 0-.6-.6-.7-.8-.7-.7 0-.8 1-.8 1v.1l.2-.1c.1-.4.3-.8.6-.8.2 0 .2.2.2.4v.5l-.2.6-.2.6v.5c0 .1 0 .2.2.2 0 0 .2 0 .3-.2l.1-.5.1-.5.1-.4.6-.8c.1-.1.4-.4.8-.4s.5.2.5.5l-.1.6zm6.4.4c0 .7-.3 1-.5 1.2l-.1.1.1.1c.1 0 .7-.5.7-1.3 0-.5-.2-.8-.5-.8-.2 0-.4.2-.4.4s.2.4.4.4h.3zm3.9-4c0-.2-.1-.3-.3-.3-.2 0-.4.2-.4.4s.1.3.3.3c.2 0 .4-.2.4-.4zm.3 3.2-.1-.1-.2.1c-.1.4-.4.8-.7.8-.2 0-.2-.1-.2-.3v-.3l.2-.4a10.5 10.5 0 0 0 .5-1.2c0-.3-.3-.6-.8-.6-.7 0-1 .9-1 1l.1.1.1-.1c.2-.5.5-.8.8-.8.1 0 .2 0 .2.3v.2l-.5 1-.1.4v.3c0 .4.2.6.6.6.7 0 1.1-.9 1.1-1zM420.5 43.3c0-2.3-1.7-3.4-1.8-3.4l-.1.1v.1c1 .8 1.4 2 1.4 3.2 0 .6-.1 1.2-.3 1.7-.4.8-.8 1.2-1.1 1.4v.2c.2 0 2-1 2-3.3zm4.6.2h2.3c.1 0 .3 0 .3-.2s-.2-.2-.3-.2h-2.3v-2.3c0-.1 0-.3-.2-.3s-.2.2-.2.3V43h-2.3s-.3 0-.3.2.2.2.3.2h2.3v2.3s0 .3.2.3.2-.2.2-.3zm5.9-2.8c0-.2 0-.2-.3-.2-.4.4-1.2.4-1.3.4h-.1v.3h.1c.2 0 .6 0 1-.2v3.4c0 .2 0 .2-.7.2h-.4v.3h2.7v-.3h-.3c-.7 0-.7 0-.7-.2zM439.8 23h2.2c2 0 3.8-1.3 3.8-2.8 0-1-.9-2-2.6-2h-4.4c-.2 0-.3 0-.3.2s0 .2.3.2h.6c.2 0 .3 0 .3.2v.3l-1.8 7.1c-.2.5-.2.6-1.2.6-.3 0-.4 0-.4.3 0 .2.1.2.2.2h3.4s.2 0 .2-.3c0-.2 0-.2-.3-.2-.5 0-.9 0-.9-.2v-.2zm1-4c0-.4 0-.4.7-.4h1.2c1.1 0 1.8.3 1.8 1.3 0 .5-.2 1.6-.7 2.1a3 3 0 0 1-2 .7h-2zM451.3 18.2l.9-.9c1.2-1.1 1.6-1.5 2.4-1.6l.2-.1-.1-.2h-1.9c-.1 0-.2 0-.2.2v.1c.2 0 .4 0 .4.3l-.2.4-1.6 1.5-1-1.8V16l.5-.3s.2 0 .2-.2h-2.5l-.2.1.3.1c.5 0 .6.1.7.3l1.3 2.6-.5.5-.8.8c-1.1 1.1-1.5 1.5-2.4 1.5-.1 0-.2 0-.2.2l.1.2h2s.2 0 .2-.2-.1-.2-.2-.2c0 0-.3 0-.3-.2s.1-.3.4-.5l1.8-1.8 1.2 2.2v.1s-.2.2-.5.2c0 0-.2 0-.2.2 0 0 0 .2.2.2h2.3s.2 0 .2-.2-.2-.2-.3-.2c-.6 0-.6 0-.7-.2zM447.6 23.9a5.6 5.6 0 0 0-2.2 4.6c0 1.4.3 3.4 2.2 4.7l.2-.1-.1-.2c-1.3-1-1.7-2.6-1.7-4.4 0-2.5 1-3.7 1.7-4.4l-.1-.2zM449.6 30.3l-.1.4c0 .2.2.3.3.3l.4-.2.1-.6.2-.9.2-.6.4-.8c.3-.4.7-.9 1.4-.9.5 0 .5.5.5.7 0 .5-.4 1.6-.5 2l-.2.5c0 .5.5.8 1 .8.9 0 1.3-1.3 1.3-1.4 0-.2-.1-.2-.2-.2l-.1.2c-.3.7-.7 1.1-1 1.1-.2 0-.3-.1-.3-.3l.2-.8c.2-.3.5-1.2.5-1.8 0-.9-.7-1-1.2-1a2 2 0 0 0-1.6.8c0-.6-.6-.8-1-.8-.3 0-.6.3-.7.5l-.3.9.1.1c.2 0 .2 0 .2-.3.2-.5.4-1 .7-1 .3 0 .3.2.3.5l-.1.8-.2.8zm7.4.4c0 .5-.1 1.1-.7 1.7l-.1.2h.1c.2 0 1-.7 1-1.8 0-.5-.3-1-.7-1-.3 0-.5.3-.5.5 0 .3.2.6.5.6l.4-.2zm5.3-5.6c0-.2-.2-.4-.4-.4-.3 0-.5.3-.5.5s0 .4.3.4.6-.3.6-.5zm-2 6.2c-.2.7-.7 1.2-1.2 1.2h-.3c.2-.1.3-.4.3-.5 0-.2-.2-.4-.4-.4-.3 0-.5.3-.5.6 0 .4.3.6.9.6.6 0 1.6-.4 2-1.5l.8-3.3v-.3c0-.6-.4-1-1-1-1 0-1.6 1.4-1.6 1.5l.2.1.1-.1c.3-.6.7-1.2 1.3-1.2.2 0 .3.2.3.5v.3zm4.2-.6c0 .5 0 1.1-.7 1.7v.2c.2 0 1-.7 1-1.8 0-.5-.3-1-.7-1-.3 0-.5.3-.5.5 0 .3.2.6.5.6l.4-.2zm6.3-1.1a5 5 0 0 0 1.2-2.3h-.2l-.2.2a5 5 0 0 1-.8 1.6v-.8c-.2-1-1-1.5-1.8-1.5-1.4 0-2.7 1.2-2.7 2.5 0 1 .6 1.7 1.7 1.7.8 0 1.6-.4 2.1-.8.2.7.7.8 1 .8.5 0 .9-.5.9-.7H471.7c-.2.4-.5.4-.6.4-.1 0-.3 0-.3-1.1zm-.7.3c-1 .7-1.7.8-2 .8-.7 0-1-.4-1-1 0-.3 0-1.3.6-2 .4-.5 1-.7 1.3-.7.7 0 1 .7 1 1.3V30zM476.5 31h-.2l-.2.5H474l1.4-.9c.6-.4 1.1-.8 1.1-1.5 0-.9-.8-1.3-1.7-1.3-1 0-1.6.5-1.6 1.2 0 .3.3.4.4.4.2 0 .4-.2.4-.4 0-.3-.2-.4-.4-.4.2-.3.6-.5 1-.5.7 0 1.2.4 1.2 1s-.4 1-.9 1.4l-1.6 1.4V32.2h3zM484.7 28.8c.2 0 .4 0 .4-.3 0-.2-.2-.2-.4-.2h-5.5c-.2 0-.4 0-.4.2 0 .3.2.3.4.3zM489.2 25c0-.3 0-.3-.2-.3-.6.6-1.5.6-1.9.6v.3c.3 0 .9 0 1.4-.2V30c0 .3 0 .5-1 .5h-.3v.3a47.5 47.5 0 0 1 3.3 0v-.3h-.3c-1 0-1-.2-1-.5zm3-1.1-.1.1v.2c.9.7 1.8 2 1.8 4.3 0 2-.6 3.5-1.6 4.4l-.2.2.1.1c.1 0 1-.6 1.6-1.8.4-.8.7-1.8.7-2.9 0-1.3-.4-3.3-2.2-4.6zM497.6 30.7c0 .5-.1 1.1-.8 1.7v.2c.2 0 1-.7 1-1.8 0-.5-.2-1-.6-1-.4 0-.6.3-.6.5 0 .3.2.6.6.6l.4-.2zm3.5-.8c-.1.3-.4.8-1 .8l-.4-.1c.4-.1.4-.5.4-.5 0-.2-.2-.4-.4-.4s-.5.2-.5.6c0 .5.5.7 1 .7.4 0 .8-.3 1-.7.2.5.7.7 1.1.7 1 0 1.6-1.2 1.6-1.4l-.1-.2-.2.2c-.2.6-.7 1.1-1.3 1.1-.3 0-.5-.2-.5-.6l.5-2.1c.1-.7.6-1 .9-1 0 0 .3 0 .5.2-.3 0-.4.3-.4.5s.1.3.3.3c.2 0 .6-.2.6-.5 0-.6-.6-.7-1-.7-.5 0-.9.3-1 .6-.2-.4-.6-.6-1.2-.6-1 0-1.6 1.1-1.6 1.4l.1.1.2-.1c.3-.8.9-1.2 1.3-1.2.3 0 .6.2.6.7l-.2 1zM507.4 11.7c0 .3 0 .5.2.5.3 0 .3-.2.3-.5V4.2c0-.2 0-.5-.2-.5-.3 0-.3.3-.3.5zm0 8c0 .2 0 .5.2.5.3 0 .3-.2.3-.5v-7.5c0-.2 0-.5-.2-.5-.3 0-.3.2-.3.5zm0 8c0 .2 0 .5.2.5.3 0 .3-.3.3-.5v-7.5c0-.3 0-.5-.2-.5-.3 0-.3.2-.3.5zm0 8c0 .2 0 .5.2.5.3 0 .3-.3.3-.5V28c0-.2 0-.5-.2-.5-.3 0-.3.3-.3.5zm0 8c0 .2 0 .5.2.5.3 0 .3-.3.3-.5V36c0-.2 0-.5-.2-.5-.3 0-.3.3-.3.5zm10.2-20.3c0-8.1-1.4-12.9-1.8-14.2a26.3 26.3 0 0 0-5-9.2h-.2l-.3.1.2.3A39 39 0 0 1 516 24c0 .2.1.2.4.2h.8c.2 0 .3 0 .3-.2zm0 .5-.3-.1h-.8c-.3 0-.4 0-.4.2 0 1.4 0 4.5-.3 7.8a31.3 31.3 0 0 1-5.4 15.8l-.1.1c0 .2.1.2.3.2h.3c0-.1 1.7-2 3-4.7a35 35 0 0 0 3.4-12.4c0-.4.3-3.2.3-6.3zM536 19.2c.2-.5.2-.6 1.2-.6.3 0 .4 0 .4-.3l-.4-.1h-1.7c-.4 0-.4 0-.5.2L530 26l-1-7.5c0-.3 0-.3-.4-.3h-1.8c-.3 0-.5 0-.5.2s.2.2.4.2h.6c.2 0 .3 0 .3.2v.3l-1.7 6.7c-.2.6-.4 1-1.5 1 0 0-.2 0-.2.3 0 .1 0 .2.2.2h2.7s.2 0 .2-.3c0-.2-.1-.2-.2-.2-.8 0-1-.2-1-.5l.1-.3 1.8-7.3 1.2 8.2c0 .2 0 .4.2.4l.3-.3 5.3-8.4-1.8 7.6c-.2.5-.2.6-1.3.6-.2 0-.3 0-.3.3 0 .2.1.2.2.2h3.3s.2 0 .2-.3c0-.2 0-.2-.3-.2-.5 0-.9 0-.9-.2v-.3zM546.5 24.2h3.7c.2 0 .4 0 .4-.3 0-.2-.2-.2-.4-.2h-3.7v-3.8c0-.1 0-.4-.3-.4s-.3.3-.3.4v3.8h-3.7c-.2 0-.4 0-.4.2 0 .3.2.3.4.3h3.7v3.7c0 .2 0 .5.3.5s.3-.3.3-.5zM560 19.2c.1-.4.2-.5.3-.5h.9c1.3 0 1.9 0 1.9 1l-.1 1.1v.3l.1.1c.2 0 .2 0 .2-.3l.4-2.3v-.2l-.4-.1H556c-.4 0-.4 0-.5.2l-.8 2.4v.2l.1.1c.1 0 .2 0 .2-.2.8-2.1 1.1-2.3 3-2.3h.6l.4.1-.1.3-1.8 7.1c0 .5-.1.6-1.6.6-.4 0-.5 0-.5.3 0 .2.1.2.2.2h4.5c.1 0 .3 0 .3-.3 0-.2-.1-.2-.5-.2h-.8c-.4 0-.5 0-.5-.3v-.3zM569.2 20a2 2 0 0 0-1.6-1.8l-1.3-.3c-.8-.2-1.1-.8-1.1-1.2 0-.6.6-1.2 1.4-1.2 1.3 0 1.8.9 2 1.8l.1.2c.2 0 .2 0 .2-.2v-1.8l-.1-.3-.2.1-.3.6c-.7-.7-1.4-.7-1.7-.7-1.2 0-2 .9-2 1.8 0 .5.2 1 .6 1.2.3.4.6.5 1.7.7.8.2 1 .2 1.3.5.2.2.4.5.4 1 0 .6-.6 1.2-1.5 1.2s-2.1-.3-2.2-1.7l-.1-.2c-.2 0-.2 0-.2.2v1.8l.1.3.2-.2.3-.5c.6.5 1.3.7 2 .7 1.2 0 2-1 2-2zm4.1.6V20h-.3v.5c0 .6-.3 1-.7 1-.6 0-.6-.8-.6-1v-2.5h1.4v-.3h-1.4V16h-.3c0 .9-.4 1.8-1.3 1.8v.3h.9v2.5c0 1 .8 1.3 1.3 1.3.6 0 1-.6 1-1.3zm5.7.3v-.5h-.3v.5c0 .1 0 .6-.3.6-.4 0-.4-.5-.4-.6v-1.6c0-.5 0-.9-.4-1.2a2 2 0 0 0-1.4-.5c-.9 0-1.5.3-1.5 1 0 .2.2.4.5.4.2 0 .4-.2.4-.5 0-.1 0-.3-.3-.4.3-.2.9-.2 1-.2.4 0 1 .3 1 1.1v.3c-.5 0-1.1 0-1.8.3-.8.3-1.1.8-1.1 1.2 0 .8 1 1 1.6 1 .8 0 1.2-.4 1.4-.7 0 .4.3.7.7.7 0 0 1 0 1-.9zm-1.7-.4c0 .8-.8 1-1.2 1-.5 0-1-.2-1-.7 0-.5.5-1.2 2.2-1.3zm5.8-2.2c0-.4-.3-.6-.8-.6-.4 0-1 .2-1.2 1v-1h-1.4v.4c.7 0 .7 0 .7.5V21c0 .4 0 .4-.7.4v.4h2.3v-.4h-.2c-.7 0-.7 0-.7-.4v-1.4c0-.7.4-1.7 1.3-1.7l-.2.4c0 .3.3.4.4.4.3 0 .5-.2.5-.4zm3.8 2.3V20h-.3v.5c0 .6-.3 1-.7 1-.6 0-.6-.8-.6-1v-2.5h1.4v-.3h-1.4V16h-.3c0 .9-.4 1.8-1.3 1.8v.3h.9v2.5c0 1 .8 1.3 1.3 1.3.6 0 1-.6 1-1.3zM565.4 24a5.6 5.6 0 0 0-2.2 4.7c0 1.3.4 3.4 2.2 4.7l.2-.1-.1-.2a5.7 5.7 0 0 1-1.7-4.4c0-2.5 1-3.7 1.7-4.4v-.2zM567.4 30.5v.4c0 .2 0 .3.2.3l.4-.2.2-.6.2-.9.1-.6.4-.8c.3-.4.7-.9 1.4-.9.5 0 .5.5.5.7 0 .5-.3 1.6-.5 2l-.1.5c0 .4.4.8.8.8 1 0 1.4-1.3 1.4-1.5H572.1c-.3.8-.7 1.2-1 1.2-.2 0-.3-.1-.3-.3l.2-.8c.2-.3.6-1.3.6-1.8 0-.9-.8-1-1.3-1a2 2 0 0 0-1.5.8c-.1-.6-.6-.8-1-.8s-.6.2-.8.5l-.3.9.2.1.2-.3c.1-.5.3-1 .7-1 .2 0 .2.2.2.5v.8c-.2.2-.2.6-.3.8zm7.4.4c0 .5 0 1.1-.7 1.7V33c.2 0 1-.8 1-1.9 0-.6-.3-1-.7-1-.3 0-.5.2-.5.5s.2.6.5.6l.4-.2zm5.3-5.7c0-.1-.1-.3-.4-.3-.3 0-.5.3-.5.5s0 .4.4.4c.2 0 .5-.3.5-.6zm-2 6.3c-.2.7-.7 1.2-1.2 1.2h-.3l.3-.5c0-.2-.2-.4-.4-.4-.3 0-.5.3-.5.6s.4.6 1 .6c.5 0 1.6-.4 1.9-1.5l.8-3.3v-.4c0-.5-.4-.8-1-.8-1 0-1.6 1.2-1.6 1.4l.2.1.1-.2c.3-.5.8-1 1.3-1 .2 0 .3 0 .3.4v.2zm4.2-.6c0 .5 0 1.1-.7 1.7V33c.2 0 1-.8 1-1.9 0-.6-.2-1-.7-1-.3 0-.5.2-.5.5s.2.6.5.6.4-.2.4-.2zm6.3-1.2a5 5 0 0 0 1.2-2.2l-.2-.1-.1.2a5 5 0 0 1-1 1.7v-.8c-.1-1-.8-1.5-1.7-1.5-1.4 0-2.7 1.2-2.7 2.5 0 .9.6 1.7 1.7 1.7.9 0 1.6-.4 2.1-.8.3.6.7.8 1 .8.6 0 .9-.5.9-.7l-.2-.1h-.1c-.2.4-.4.5-.6.5 0 0-.3 0-.3-1.2zm-.7.4c-1 .7-1.7.8-2 .8-.7 0-1-.4-1-1 0-.3.1-1.3.6-2 .4-.5 1-.7 1.3-.7.7 0 1 .7 1 1.3v1.6zM594.3 31.1h-.2l-.2.6h-2l1.3-.9c.6-.4 1.1-.8 1.1-1.5 0-.9-.7-1.3-1.7-1.3-.9 0-1.6.5-1.6 1.1 0 .4.3.5.4.5.2 0 .4-.2.4-.4 0-.3-.2-.4-.4-.4.2-.3.6-.5 1-.5.7 0 1.2.3 1.2 1 0 .6-.3 1-.9 1.4l-1.6 1.4v.3h3zM596.5 24c-.1 0-.2 0-.2.2v.1c.9.8 1.8 2 1.8 4.4 0 2-.6 3.4-1.6 4.4l-.2.2h.1c.1 0 1-.5 1.6-1.7.4-.8.7-1.8.7-2.9 0-1.3-.4-3.3-2.2-4.6zM608.8 24.2h3.8c.1 0 .4 0 .4-.3 0-.2-.3-.2-.4-.2h-3.8v-3.8c0-.1 0-.4-.2-.4-.3 0-.3.3-.3.4v3.8h-3.7c-.2 0-.4 0-.4.2 0 .3.2.3.4.3h3.7v3.7c0 .2 0 .5.3.5.2 0 .2-.3.2-.5zM619.4 22h1.3c.3 0 .4 0 .4-.3 0-.2-.1-.2-.4-.2h-1.1l.5-2.2c0-.2-.2-.4-.4-.4 0 0-.4 0-.5.5l-.5 2.1h-1.3c-.3 0-.4 0-.4.3l.4.1h1.2c-1 3.8-1 4-1 4.3 0 .7.5 1.2 1.2 1.2 1.3 0 2-2 2-2v-.2c-.2 0-.2 0-.3.2-.6 1.4-1.3 1.7-1.7 1.7-.3 0-.4-.2-.4-.6V26zM629 21.8v-.4h-.3c-.6 0-.7 0-.7-.3l-2.3-5.8c0-.1-.1-.2-.3-.2-.2 0-.2 0-.2.2l-2.2 5.5c0 .2-.2.6-1 .6v.4h1.9v-.4c-.3 0-.6-.2-.6-.4v-.2l.5-1.1h2.7l.5 1.3v.2c0 .2-.5.2-.7.2v.4H628.9zm-2.7-2.5H624l1.3-3zm10.4.2v-.3h-2.9v.3h.4c1 0 1 .2 1 .5v.6c0 .2 0 .5-.6.8l-1 .2c-1.2 0-2.9-.6-2.9-3 0-2.5 1.8-3 2.7-3 1 0 2 .6 2.3 2.2h.1c.2 0 .2 0 .2-.2v-2.1l-.1-.3-.2.1-.5.7c-.4-.4-1-.8-1.9-.8-2 0-3.6 1.5-3.6 3.4 0 1.8 1.6 3.4 3.6 3.4.5 0 1.6-.1 2-.8l.6.6.1-.3V20c0-.4.1-.4.7-.4zm8.2-3.8v-.3h-2v.3c.3 0 .6.2.6.5v.2l-2 4.5-2-4.7V16c0-.3.4-.3.7-.3v-.3H637.6v.3h.2c.5 0 .6 0 .7.4l2.4 5.6c.1.2.1.3.3.3.1 0 .2 0 .3-.3l2.3-5.3c.1-.3.3-.6 1-.7zM624.8 24a5.6 5.6 0 0 0-2.2 4.7c0 1.3.4 3.4 2.2 4.7l.2-.1-.1-.2c-1.2-1-1.7-2.7-1.7-4.4 0-2.5 1-3.7 1.7-4.4v-.2zM626.8 30.5v.4c0 .2 0 .3.2.3l.4-.2.2-.6c0-.2 0-.6.2-.9l.1-.6.4-.8c.3-.4.7-.9 1.4-.9.5 0 .5.5.5.7 0 .5-.3 1.6-.5 2l-.1.5c0 .4.4.8.8.8 1 0 1.4-1.3 1.4-1.5H631.5c-.3.8-.7 1.2-1 1.2-.2 0-.3-.1-.3-.3l.2-.8c.2-.3.5-1.3.5-1.8 0-.9-.7-1-1.2-1a2 2 0 0 0-1.5.8c-.1-.6-.6-.8-1-.8s-.6.2-.8.5l-.3.9.2.1.2-.3c.1-.5.3-1 .6-1s.3.2.3.5l-.1.8-.2.8zm7.4.4c0 .5 0 1.1-.7 1.7V33c.2 0 1-.8 1-1.9 0-.6-.3-1-.7-1-.3 0-.5.2-.5.5s.2.6.5.6l.4-.2zm5.3-5.7c0-.1-.2-.3-.4-.3-.3 0-.5.3-.5.5s0 .4.4.4c.2 0 .5-.3.5-.6zm-2 6.3c-.2.7-.7 1.2-1.2 1.2h-.3l.3-.5c0-.2-.2-.4-.4-.4-.3 0-.5.3-.5.6s.4.6 1 .6c.5 0 1.6-.4 1.9-1.5l.8-3.3v-.4c0-.5-.4-.8-1-.8-1 0-1.6 1.2-1.6 1.4l.2.1.1-.2c.3-.5.8-1 1.3-1 .2 0 .3 0 .3.4v.2zm4.2-.6c0 .5 0 1.1-.7 1.7V33c.2 0 1-.8 1-1.9 0-.6-.2-1-.7-1-.3 0-.5.2-.5.5s.2.6.5.6.4-.2.4-.2zm6.3-1.2a5 5 0 0 0 1.2-2.2l-.2-.1-.1.2a5 5 0 0 1-1 1.7v-.8c-.1-1-.8-1.5-1.7-1.5-1.4 0-2.7 1.2-2.7 2.5 0 .9.6 1.7 1.7 1.7.9 0 1.6-.4 2.1-.8.3.6.7.8 1 .8.6 0 .9-.5.9-.7l-.2-.1h-.1c-.2.4-.4.5-.6.5 0 0-.3 0-.3-1.2zm-.7.4c-1 .7-1.7.8-2 .8-.7 0-1-.4-1-1 0-.3.1-1.3.6-2 .4-.5 1-.7 1.3-.7.7 0 1 .7 1 1.3v1.6zM653.7 31.1h-.2l-.2.6h-2l1.3-.9c.6-.4 1.1-.8 1.1-1.5 0-.9-.8-1.3-1.7-1.3-.9 0-1.6.5-1.6 1.1 0 .4.3.5.4.5.2 0 .4-.2.4-.4 0-.3-.2-.4-.4-.4.2-.3.6-.5 1-.5.7 0 1.2.3 1.2 1 0 .6-.3 1-.9 1.4l-1.6 1.4v.3h3zM662 29c.1 0 .3 0 .3-.3 0-.2-.2-.2-.3-.2h-5.6c-.1 0-.4 0-.4.2 0 .3.2.3.4.3zM666.5 25.2c0-.3 0-.3-.3-.3-.6.6-1.5.6-1.8.6v.3c.2 0 .8 0 1.3-.2v4.7c0 .3 0 .4-1 .4h-.3v.4a47 47 0 0 1 3.3 0v-.4h-.3c-1 0-1 0-1-.4zm3-1.1h-.2v.2c.9.8 1.8 2 1.8 4.4 0 2-.6 3.4-1.6 4.4l-.2.2h.1c.1 0 1-.5 1.6-1.7.4-.8.7-1.8.7-2.9 0-1.3-.4-3.3-2.2-4.6zm6.6 0a5.6 5.6 0 0 0-2.2 4.6c0 1.3.3 3.4 2.2 4.7l.2-.1-.1-.2c-1.3-1-1.7-2.7-1.7-4.4 0-2.5 1-3.7 1.7-4.4v-.1l-.1-.1zM681 30.3l-.1.6c0 .2.1.3.3.3l.3-.2.2-.6a15.6 15.6 0 0 0 .4-1.5c0-.4 0-.4.3-.7.3-.5.7-1 1.5-1 .5 0 .5.5.5.7 0 .5-.4 1.6-.5 2-.2.2-.2.3-.2.5 0 .4.4.8.9.8 1 0 1.3-1.3 1.3-1.5H685.6c-.2.8-.6 1.2-1 1.2-.2 0-.2-.1-.2-.3l.2-.8c.1-.3.5-1.3.5-1.8 0-.1 0-.5-.3-.8l-1-.2c-.7 0-1.3.5-1.6.9 0-.8-.7-1-1.2-1a2 2 0 0 0-1.5 1c-.1-.7-.7-1-1-1-.4 0-.7.3-.8.6l-.3.9.1.1c.2 0 .2 0 .3-.3 0-.5.3-1 .6-1s.3.2.3.5l-.1.8-.2.8-.3 1.2-.1.4c0 .2.2.3.3.3l.4-.2.1-.6.2-.9.2-.6.4-.8c.3-.4.7-.9 1.4-.9.5 0 .5.5.5.7l-.1.8zm7.4.6c0 .5-.1 1.1-.8 1.7V33c.2 0 1-.8 1-1.9 0-.6-.2-1-.6-1-.3 0-.6.2-.6.5s.2.6.6.6l.4-.2zm4.2-5.7c0-.1-.1-.3-.4-.3-.3 0-.5.2-.5.5 0 .2 0 .4.3.4s.6-.3.6-.6zm-2 4.8v.4c0 .4.3.8.9.8.9 0 1.3-1.3 1.3-1.5H692.5c-.2.8-.6 1.2-1 1.2-.2 0-.2-.1-.2-.3l.1-.6.3-.8.5-1.2v-.3c0-.4-.4-.7-.9-.7-.9 0-1.3 1.2-1.3 1.4l.1.1.2-.1c.2-.8.6-1.2 1-1.2.2 0 .2 0 .2.3l-.2 1zm4.7 1c0 .4-.1 1-.8 1.6v.1l.1.2c.1 0 1-.8 1-1.9 0-.6-.3-1-.7-1-.3 0-.6.2-.6.5s.3.6.6.6l.4-.2zm6.2-1.3a5 5 0 0 0 1.2-2.2l-.1-.1-.2.2a5 5 0 0 1-.9 1.7v-.8c-.2-1-.8-1.5-1.8-1.5-1.4 0-2.7 1.2-2.7 2.5 0 .9.7 1.7 1.7 1.7.9 0 1.7-.4 2.2-.8.2.6.7.8 1 .8.5 0 .8-.5.8-.7l-.1-.1h-.2c-.1.4-.4.5-.5.5-.1 0-.3 0-.4-1.2zm-.7.4c-.9.7-1.7.8-2 .8-.7 0-1-.4-1-1 0-.3.1-1.3.6-2 .4-.5 1-.7 1.3-.7.7 0 1 .7 1 1.3l.1 1.6zM706 28.2c0-.2 0-.2-.2-.2-.5.4-1.2.4-1.3.4h-.2v.3h.2l1-.2v3.3c0 .2 0 .3-.8.3h-.3v.3h2.7v-.3h-.4c-.7 0-.7 0-.7-.3zM709.4 24s-.2 0-.2.2l.1.1c.8.8 1.7 2 1.7 4.4 0 2-.6 3.4-1.6 4.4l-.2.2h.2s1-.5 1.6-1.7c.4-.8.6-1.8.6-2.9 0-1.3-.3-3.3-2.2-4.6zM726 23l.3-.3c0-.2 0-.3-.2-.4l-7.4-3.4-.2-.1c-.2 0-.3.1-.3.3l.3.3 7 3.2-7 3.3-.3.3c0 .2.1.3.3.3h.2zm-.1 6c.2 0 .4 0 .4-.2 0-.3-.3-.3-.5-.3h-7.1c-.2 0-.5 0-.5.3s.2.3.5.3zM736.8 19.2c.1-.4.2-.5.3-.5h.9c1.3 0 1.9 0 1.9 1l-.1 1.1v.3l.1.1c.2 0 .2 0 .2-.3l.4-2.3v-.2l-.4-.1h-7.3c-.4 0-.4 0-.5.2l-.8 2.4v.2l.1.1c.1 0 .2 0 .2-.2.8-2.1 1.1-2.3 3-2.3h.6l.4.1-.1.3-1.8 7.1c0 .5-.1.6-1.6.6-.4 0-.5 0-.5.3 0 .2.1.2.2.2h4.5c.1 0 .3 0 .3-.3 0-.2-.1-.2-.5-.2h-.8c-.4 0-.5 0-.5-.3v-.3zM745 21.4c0 .6.2 1.3 1 1.3 1 0 1.6-1.6 1.6-1.8l-.1-.2-.1.1c-.2.7-.9.9-1.2.9-.4 0-.6-.2-.7-1 1.6-.5 3-2.2 3-3.8 0-1.5-1-2.6-2.7-2.6-2.2 0-4.4 2.1-4.4 4.2 0 1.5 1.1 2.6 2.7 2.6l1-.2zm-1.5-.8c-.5-.1-1.2-.6-1.2-1.9a5 5 0 0 1 1-2.9c.6-.7 1.5-1.2 2.4-1.2 1 0 1.9.7 1.9 2 0 1-.5 3-2.2 3.8-.1-.6-.4-1-1-1-.5 0-1 .5-1 1v.2zm1.6 0-1 .2s-.4 0-.4-.4.4-.7.8-.7c.3 0 .6.2.6.9zM742.2 24.8a5.6 5.6 0 0 0-2.2 4.7c0 1.3.4 3.3 2.2 4.6l.2-.1-.1-.1c-1.2-1.2-1.7-2.7-1.7-4.4 0-2.5 1-3.8 1.7-4.5h.1c0-.2-.1-.2-.2-.2zM747.1 31l-.1.6c0 .2.1.3.3.3.2 0 .3-.1.3-.2l.2-.6.2-.8.2-.7c0-.4 0-.4.3-.7.3-.4.7-1 1.5-1 .5 0 .5.5.5.7 0 .6-.4 1.6-.5 2l-.2.5c0 .5.4.8.9.8 1 0 1.3-1.3 1.3-1.4l-.1-.2-.2.2c-.2.7-.6 1.1-1 1.1-.2 0-.2-.1-.2-.3l.2-.8c.1-.2.5-1.2.5-1.8 0-.1 0-.5-.3-.8l-1-.2c-.7 0-1.3.5-1.6 1 0-.9-.7-1-1.2-1a2 2 0 0 0-1.5.8c0-.6-.6-.8-1-.8s-.6.3-.8.5c-.2.3-.3.9-.3 1h.2l.2-.2c.1-.6.3-1 .6-1s.3.1.3.4v.8c-.2.2-.3.6-.3.8l-.3 1.2v.4c0 .2 0 .3.2.3l.4-.2.2-.6.2-.8.1-.7.4-.8c.3-.4.7-.9 1.4-.9.5 0 .5.5.5.7l-.1.9zm7.4.6c0 .6-.1 1.1-.8 1.7v.2c.2 0 1-.7 1-1.8 0-.5-.2-1-.6-1-.3 0-.6.3-.6.5 0 .4.2.6.6.6l.4-.2zm4.2-5.6c0-.2-.1-.4-.4-.4-.3 0-.5.3-.5.5s0 .4.3.4.6-.3.6-.5zm-2 4.7v.4c0 .4.4.8.9.8.9 0 1.3-1.3 1.3-1.4l-.1-.2c-.2 0-.2.1-.2.2-.2.7-.6 1.1-1 1.1-.2 0-.2 0-.2-.3l.1-.6.3-.7c0-.3.4-1.1.5-1.2v-.3c0-.5-.4-.8-.9-.8-.9 0-1.3 1.3-1.3 1.4l.1.1.2-.1c.3-.8.7-1.2 1-1.2.2 0 .2.1.2.4l-.2 1zM760.3 24.8l-.2.1v.2c.9.7 1.8 2 1.8 4.4 0 1.9-.6 3.4-1.6 4.3l-.2.2.1.1c.1 0 1-.6 1.6-1.8.4-.7.7-1.7.7-2.8 0-1.4-.4-3.4-2.2-4.7zM772.6 24.2h3.7c.2 0 .5 0 .5-.3 0-.2-.3-.2-.5-.2h-3.7v-3.8c0-.1 0-.4-.2-.4-.3 0-.3.3-.3.4v3.8h-3.7c-.2 0-.5 0-.5.2 0 .3.3.3.5.3h3.7v3.7c0 .2 0 .5.3.5.2 0 .2-.3.2-.5zM790.6 18l-.1-.1-.2.1-1 1c0-.1-.7-1.1-2.2-1.1-3 0-6 3-6 6 0 2.1 1.5 3.7 3.7 3.7.6 0 1.2-.2 1.7-.4.6-.2.9-.5 1.1-.8.1.4.5.8.6.8h.1l.2-.8.3-1 .2-.7c.1-.6.1-.7.9-.7 0 0 .2 0 .2-.2 0-.1 0-.2-.2-.2h-3.2c-.2 0-.3 0-.3.3l.4.1h.7c.3.1.4.1.4.3l-.3 1.2c-.4 1.5-2 1.6-2.5 1.6-1.3 0-2.7-.7-2.7-2.8 0-.4.1-2.6 1.5-4.3.7-.9 2-1.7 3.3-1.7 1.4 0 2.2 1 2.2 2.6v.6l.1.2c.2 0 .2 0 .3-.3zM795.3 21.4c0 .6.1 1.3.9 1.3 1 0 1.6-1.6 1.6-1.8l-.1-.2-.1.1c-.2.7-.9.9-1.2.9-.4 0-.5-.2-.7-1 1.6-.5 3-2.2 3-3.8 0-1.5-1-2.6-2.7-2.6-2.2 0-4.4 2.1-4.4 4.2 0 1.5 1.1 2.6 2.7 2.6l1-.2zm-1.6-.8c-.5-.1-1.2-.6-1.2-1.9a5 5 0 0 1 1-2.9c.6-.7 1.5-1.2 2.4-1.2 1 0 1.9.7 1.9 2 0 1-.5 3-2.2 3.8-.1-.6-.4-1-1-1-.5 0-1 .5-1 1v.2zm1.6 0-1 .2s-.4 0-.4-.4.4-.7.8-.7c.3 0 .6.2.6.9zM794.3 24.8a5.6 5.6 0 0 0-2.3 4.7c0 1.3.4 3.3 2.3 4.6l.1-.1v-.1c-1.3-1.2-1.7-2.7-1.7-4.4 0-2.5 1-3.8 1.7-4.5l-.1-.2zM799.2 31l-.2.6c0 .2.2.3.3.3l.4-.2.2-.6.2-.8.1-.7.3-.7c.3-.4.8-1 1.5-1 .5 0 .6.5.6.7 0 .6-.4 1.6-.6 2l-.1.5c0 .5.4.8.9.8.9 0 1.3-1.3 1.3-1.4l-.1-.2c-.2 0-.2.1-.2.2-.2.7-.6 1.1-1 1.1-.2 0-.3-.1-.3-.3 0-.2 0-.3.3-.8 0-.2.5-1.2.5-1.8 0-.1 0-.5-.4-.8-.1 0-.4-.2-.9-.2-.8 0-1.3.5-1.6 1 0-.9-.7-1-1.2-1a2 2 0 0 0-1.6.8c0-.6-.6-.8-1-.8s-.6.3-.7.5c-.2.3-.3.9-.3 1h.1l.2-.2c.2-.6.3-1 .7-1 .2 0 .3.1.3.4l-.1.8-.2.8-.3 1.2-.1.4c0 .2.1.3.3.3l.3-.2.2-.6.2-.8.2-.7c0-.3 0-.4.4-.8.2-.4.7-.9 1.4-.9.5 0 .5.5.5.7l-.2.9zm7.3.6c0 .6 0 1.1-.7 1.7v.2c.2 0 1-.7 1-1.8 0-.5-.3-1-.7-1-.3 0-.5.3-.5.5 0 .4.2.6.5.6l.4-.2zm4.2-5.6c0-.2 0-.4-.4-.4-.2 0-.5.3-.5.5s.1.4.4.4c.3 0 .5-.3.5-.5zm-1.9 4.7v.4c0 .4.3.8.8.8 1 0 1.4-1.3 1.4-1.4 0-.2-.2-.2-.2-.2l-.2.2c-.2.7-.6 1.1-1 1.1-.1 0-.2 0-.2-.3 0-.2 0-.4.2-.6 0-.3.2-.5.3-.7l.4-1.2v-.3c0-.5-.3-.8-.8-.8-1 0-1.4 1.3-1.4 1.4l.2.1.2-.1c.2-.8.6-1.2 1-1.2.1 0 .2.1.2.4l-.3 1zM812.3 24.8l-.2.1.1.2c.8.7 1.7 2 1.7 4.4 0 1.9-.6 3.4-1.6 4.3l-.2.2.2.1s1-.6 1.6-1.8c.4-.7.6-1.7.6-2.8 0-1.4-.3-3.4-2.2-4.7zM819 27.2c0-.8-.3-1.4-.9-1.4-.4 0-.7.4-.7.8 0 .3.3.7.7.7.2 0 .4 0 .5-.2l.1.1c0 1-.5 1.8-.9 2.3l-.1.2v.1c.2 0 1.3-1 1.3-2.6zM372 65v-.2c0-.1 0-.3-.2-.3s-.3.2-.3.3l-1.1 3h-4l-1.2-3c0-.1-.1-.3-.3-.3l-.2.3v.2l3.4 8.7c0 .2 0 .4.3.4l.3-.3zm-5.4 3.3h3.6l-1.8 4.7zM376.4 77l-.2-.3c-1.6-1.7-2-4.2-2-6.3 0-2.3.4-4.6 2-6.3l.2-.2v-.1c-.2 0-1.4.9-2.2 2.6-.7 1.4-.8 3-.8 4s.1 2.7.8 4.2c.8 1.6 2 2.5 2.1 2.5l.1-.1zM378.4 73l-.1.5c0 .3.2.4.4.4.1 0 .4 0 .4-.4l.3-1 .3-1.1.2-1 .2-.6c.2-.4.9-1.6 2.2-1.6.6 0 .7.5.7.9 0 .8-.7 2.5-.9 3.1l-.1.6c0 .6.4 1.1 1 1.1 1.3 0 1.8-2 1.8-2l-.1-.2c-.2 0-.2 0-.2.3-.3.9-.8 1.6-1.4 1.6-.2 0-.3-.1-.3-.4l.2-1c.3-.7.8-2.1.8-2.9 0-.9-.5-1.4-1.5-1.4-1.2 0-1.8.8-2 1.1-.1-.7-.7-1.1-1.3-1.1-.6 0-.9.5-1 .7l-.4 1.3c0 .2.1.2.2.2l.2-.3c.2-1 .5-1.6 1-1.6.2 0 .4.1.4.6l-.2 1.1zm9.5.7c0-.8-.3-1.3-.9-1.3-.4 0-.7.3-.7.7 0 .3.3.7.7.7.2 0 .4 0 .5-.2l.1.1c0 1-.5 1.8-.9 2.3l-.1.2v.1c.2 0 1.3-1 1.3-2.6zm8.5-8.2c0-.3-.2-.5-.5-.5s-.7.3-.7.7c0 .2.1.5.5.5.3 0 .7-.4.7-.7zm-2.7 9c-.3 1-.9 1.7-1.6 1.7l-.6-.1c.4-.1.6-.5.6-.7 0-.2-.1-.5-.5-.5-.3 0-.7.3-.7.8s.6.8 1.2.8c1 0 2.2-.7 2.5-2l1.2-4.9v-.5c0-.8-.5-1.2-1.1-1.2-1.4 0-2.2 2-2.2 2 0 .2.2.2.2.2l.2-.3c.4-.8 1-1.6 1.7-1.6.2 0 .4 0 .4.6v.7zm5.6-.8c0-.8-.4-1.3-.9-1.3-.4 0-.7.3-.7.7 0 .3.3.7.7.7.2 0 .4 0 .5-.2v.1c0 1-.4 1.8-.8 2.3l-.2.2.2.1c.1 0 1.2-1 1.2-2.6zm9.5-3c0-2.2-1.2-2.8-2.2-2.8-1.8 0-3.6 1.9-3.6 3.8 0 1.2.8 2.2 2.2 2.2.8 0 1.8-.3 2.8-1.1.2.7.6 1.1 1.2 1.1.7 0 1.1-.7 1.1-1H410c-.2.7-.7.7-.7.7-.5 0-.5-1-.5-1.3 0-.3 0-.4.2-.5a7.7 7.7 0 0 0 1.5-3.1s0-.2-.2-.2l-.2.3c-.2.8-.6 1.9-1.3 2.6zm-.8 1.7a4.2 4.2 0 0 1-2.8 1.2c-.8 0-1.2-.6-1.2-1.4 0-.7.4-2.1.8-2.8.6-1 1.3-1.2 1.8-1.2 1.3 0 1.3 1.7 1.3 2.8v1.4zM415.7 74h-.3c0 .3 0 .8-.2 1h-2.7l1.9-1.6c.7-.6 1.3-1.1 1.3-2 0-1.1-1-1.8-2.1-1.8-1.2 0-2 .8-2 1.6 0 .5.4.6.5.6.2 0 .5-.2.5-.5 0-.2 0-.5-.5-.5.2-.7.9-.9 1.3-.9 1 0 1.4.7 1.4 1.5s-.5 1.4-.8 1.8l-2.3 2.2v.4h3.8zM420.8 70.4c0-1-.1-2.6-.8-4.1a6 6 0 0 0-2.1-2.5l-.1.1.2.3c1.3 1.3 2 3.5 2 6.2 0 2.3-.4 4.6-2 6.3l-.2.3v.1c.2 0 1.4-1 2.2-2.6.7-1.5.8-3 .8-4zM433.2 70.7c.2 0 .4 0 .4-.3 0-.2-.2-.2-.4-.2h-5.7c.2-1.8 1.7-3 3.6-3h2c.3 0 .5 0 .5-.4 0-.2-.2-.2-.4-.2H431c-2.3 0-4.1 1.7-4.1 3.8a4 4 0 0 0 4 3.9h2.2c.2 0 .4 0 .4-.3 0-.2-.2-.2-.4-.2H431c-1.9 0-3.4-1.3-3.6-3.1zM450.6 66.2c.4-.6.7-1 1.5-1.1.1 0 .3 0 .3-.3l-.2-.1h-2.4s-.2 0-.2.2l.1.2c.4 0 .8.1.8.5 0 .1 0 .3-.2.4l-3.5 6.3-.5-6.6c0-.2 0-.6.9-.6.2 0 .4 0 .4-.3l-.2-.1h-3.1s-.2 0-.2.2.1.2.3.2c.6 0 .7 0 .7.3l.1 1-3.4 6-.5-6.8c0-.2 0-.5 1-.5.2 0 .3 0 .3-.3l-.2-.1h-3s-.2 0-.2.2 0 .2.3.2c.7 0 .7.1.7.5l.6 8.1c0 .3 0 .4.2.4s.2-.1.3-.3l4-6.8.4 6.7c0 .3 0 .4.2.4s.3-.2.4-.3zM460.7 63.3c0-.3 0-.4.8-.4.2 0 .3 0 .3-.2l-.2-.1h-2.4s-.2 0-.2.2l.3.1h.3c.2 0 .2 0 .2.2v.2l-.5 2.2H456l.6-2.2c0-.3 0-.4.8-.4.2 0 .3 0 .3-.2l-.2-.1h-2.4s-.2 0-.2.2l.3.1h.3c.2 0 .3 0 .3.2v.2l-1.3 5c0 .2-.1.3-.8.3-.2 0-.3 0-.3.2l.1.1h2.5s.2 0 .2-.2l-.3-.1h-.4c-.2 0-.2 0-.2-.2v-.2l.7-2.4h3l-.5 2.4c-.1.3-.1.4-.8.4-.2 0-.3 0-.3.2l.1.1h2.5s.2 0 .2-.2l-.3-.1h-.4c-.2 0-.2 0-.2-.2v-.2zM465.6 73.7c0-.8-.3-1.3-.8-1.3s-.7.3-.7.7c0 .3.2.7.7.7.1 0 .3 0 .4-.2h.1v.1c0 1-.4 1.8-.9 2.3l-.1.2.1.1c.2 0 1.2-1 1.2-2.6zM476.2 65v-.2c0-.1 0-.3-.2-.3s-.3.2-.3.3l-1.1 3h-4l-1.2-3c0-.1-.1-.3-.3-.3l-.3.3.1.2 3.3 8.7.3.4c.2 0 .3-.2.3-.3zm-5.5 3.3h3.6l-1.8 4.7zM482.7 68.7v-.3c0-.3-.1-.4-.3-.4-.2 0-.4.1-.5.3l-.2.7c0 .4-.2.7-.3 1l-.6 2.5c0 .2-.6 1.1-1.5 1.1-.6 0-.8-.6-.8-1 0-.7.2-1.5.7-2.7l.3-1c0-.5-.5-1-1.1-1-1.3 0-1.8 2-1.8 2 0 .2.1.2.2.2l.2-.3c.3-1.2.9-1.6 1.3-1.6.1 0 .4 0 .4.4l-.3 1a8.7 8.7 0 0 0-.7 2.7c0 1.2.8 1.6 1.6 1.6.5 0 1-.2 1.3-.6-.1.7-.3 1.4-.8 2-.4.5-.9.9-1.5.9-.2 0-.8 0-1-.6l.6-.1.2-.6c0-.4-.3-.4-.5-.4-.3 0-.7.2-.7.8 0 .7.6 1.2 1.4 1.2 1.4 0 2.7-1.2 3.1-2.7zM494.2 70.7c.2 0 .5 0 .5-.3 0-.2-.3-.2-.5-.2h-5.6c.1-1.8 1.7-3 3.5-3h2.1c.2 0 .5 0 .5-.4 0-.2-.3-.2-.5-.2h-2c-2.4 0-4.2 1.7-4.2 3.8a4 4 0 0 0 4.1 3.9h2.1c.2 0 .5 0 .5-.3 0-.2-.3-.2-.5-.2h-2c-2 0-3.5-1.3-3.6-3.1zM507.4 66.2l.2-.2c.4-.4.8-.8 1.7-1 .2 0 .3 0 .3-.2l-.2-.1H507s-.2 0-.2.2.1.2.2.2c0 0 .4 0 .4.3l-.3.6-3.1 3.6-1.5-4v-.2c0-.3.6-.3.8-.3.1 0 .3 0 .3-.3l-.2-.1h-3.2s-.3 0-.3.2.2.2.3.2c.8 0 .9.1 1 .4L503 70v.2l-.6 2.5c-.2.7-.2.7-1.2.8-.3 0-.4 0-.4.2s.2.2.2.2h3.4s.2 0 .2-.3l-.4-.1h-.5c-.2-.1-.3-.1-.3-.3l.2-.8.4-1.9.2-.4zM516.8 62.5l-.1-.1-.2.1-.5.6c-.4-.6-1-.7-1.5-.7-1.3 0-2.5 1-2.5 2.1 0 .2 0 .5.3.9s.7.4 1.3.6l.8.2c.3 0 .9.2.9 1 0 .7-.8 1.6-1.9 1.6-.8 0-1.8-.3-1.8-1.3v-.7c-.2 0-.2 0-.2.2l-.5 1.9v.2l.3-.1.4-.5c.5.5 1.2.6 1.8.6 1.4 0 2.5-1.2 2.5-2.3 0-.4-.1-.8-.3-1-.4-.3-.5-.4-1.7-.6l-.6-.2c-.2 0-.6-.3-.6-.8 0-.8.8-1.5 1.8-1.5s1.5.6 1.5 1.4v.5h.1l.2-.1zM520.6 73.7c0-.8-.4-1.3-.9-1.3-.4 0-.7.3-.7.7 0 .3.3.7.7.7.2 0 .3 0 .5-.2v.1c0 1-.4 1.8-.8 2.3l-.2.2.1.1c.2 0 1.3-1 1.3-2.6zM531.1 65v-.2c0-.1 0-.3-.2-.3s-.3.2-.3.3l-1.1 3h-4l-1.1-3c-.1-.1-.2-.3-.4-.3l-.2.3v.2l3.4 8.7c0 .2.1.4.3.4.2 0 .2-.2.3-.3zm-5.4 3.3h3.6l-1.8 4.7zM535.6 77l-.3-.3c-1.6-1.7-2-4.2-2-6.3 0-2.3.5-4.6 2-6.3l.3-.2-.2-.1c-.1 0-1.3.9-2 2.6-.8 1.4-1 3-1 4s.2 2.7 1 4.2c.8 1.6 1.9 2.5 2 2.5l.2-.1zM537.5 73l-.1.5c0 .3.2.4.4.4.1 0 .4 0 .5-.4l.2-1 .3-1.1.2-1 .2-.6c.2-.4.9-1.6 2.2-1.6.6 0 .7.5.7.9l-.2 1.1-.4 1.6-.2 1-.2.7c0 .3.2.4.4.4.4 0 .5-.3.6-.7l.8-3.3c0-.1.7-1.7 2.2-1.7.5 0 .7.4.7.9 0 .8-.6 2.3-.8 3-.2.3-.2.5-.2.7 0 .6.5 1.1 1 1.1 1.3 0 1.8-2 1.8-2l-.1-.2c-.2 0-.2 0-.2.3-.2.7-.7 1.6-1.4 1.6-.2 0-.3-.1-.3-.4 0-.4 0-.7.2-1 .3-.7.8-2.1.8-2.9 0-.9-.5-1.4-1.5-1.4s-1.7.6-2.2 1.3c0-.2 0-.6-.4-1-.3-.2-.8-.3-1-.3-1.3 0-2 .8-2.2 1.1 0-.7-.6-1.1-1.2-1.1s-.8.5-1 .7l-.4 1.3c0 .2.1.2.2.2l.2-.3c.2-1 .5-1.6 1-1.6.2 0 .4 0 .4.6l-.2 1.1zm13.2.7c0-.8-.3-1.3-.8-1.3s-.7.3-.7.7c0 .3.2.7.7.7.1 0 .3 0 .4-.2l.1.1c0 1-.4 1.8-.9 2.3l-.1.2.1.1c.2 0 1.2-1 1.2-2.6zm7-8.2c0-.3-.2-.5-.5-.5-.4 0-.7.3-.7.7 0 .2.2.5.5.5s.7-.4.7-.7zm-1 5 .3-.8.1-.7c0-.6-.4-1.1-1-1.1-1.3 0-1.8 2-1.8 2l.1.2c.2 0 .2 0 .3-.3.3-1.2.8-1.6 1.3-1.6.1 0 .3 0 .3.4l-.1.7-1 2.5-.2 1c0 .6.4 1.1 1 1.1 1.3 0 1.8-2 1.8-2 0-.2-.1-.2-.2-.2l-.2.3c-.2.8-.6 1.6-1.3 1.6-.2 0-.3-.1-.3-.4 0-.4 0-.5.4-1.3zM562.4 70.4c0-1-.2-2.6-1-4.1-.7-1.6-1.9-2.5-2-2.5l-.1.1.2.3c1.3 1.3 2 3.5 2 6.2 0 2.3-.4 4.6-2 6.3l-.2.3.1.1c.1 0 1.3-1 2.1-2.6.7-1.5.9-3 .9-4zM574.7 70.7c.2 0 .4 0 .4-.3 0-.2-.2-.2-.4-.2H569c.2-1.8 1.7-3 3.6-3h2c.3 0 .5 0 .5-.4 0-.2-.2-.2-.4-.2h-2.1c-2.3 0-4.1 1.7-4.1 3.8a4 4 0 0 0 4 3.9h2.2c.2 0 .4 0 .4-.3 0-.2-.2-.2-.4-.2h-2.1c-1.9 0-3.4-1.3-3.6-3.1zM582 72.7c0 .5-.1.7-1.2.7-.2 0-.3 0-.3.2s0 .2.3.2h4.4c2.8 0 5.4-2.8 5.4-5.8 0-1.8-1.1-3.3-3-3.3H583c-.2 0-.4 0-.4.2s.2.2.4.2h.6c.2 0 .3 0 .3.2v.3zm3-7.1c0-.5 0-.5.6-.5h1.5c1.3 0 2.4.7 2.4 2.5 0 .6-.3 2.8-1.4 4.3a4 4 0 0 1-3 1.5H583.1c-.1 0-.2 0-.2-.2v-.3zm9 8.1c0-.8-.3-1.3-.9-1.3-.4 0-.7.3-.7.7 0 .3.3.7.7.7.2 0 .4 0 .5-.2l.1.1c0 1-.5 1.8-.9 2.3l-.1.2v.1c.2 0 1.3-1 1.3-2.6zM604.5 65l.1-.2c0-.1 0-.3-.2-.3s-.3.2-.4.3l-1 3h-4.1l-1-3c-.2-.1-.2-.3-.4-.3l-.3.3.1.2 3.3 8.7c0 .2.1.4.3.4.2 0 .3-.2.3-.3zm-5.4 3.3h3.6L601 73zM611 70.6c0-2-1.3-2.7-2.3-2.7-1.8 0-3.5 1.9-3.5 3.8 0 1.2.8 2.2 2.1 2.2.9 0 1.8-.3 2.8-1.1.2.7.6 1.1 1.2 1.1.7 0 1.2-.7 1.2-1h-.4c-.2.7-.7.7-.7.7-.4 0-.4-1-.4-1.3v-.5a7.7 7.7 0 0 0 1.6-3.1l-.1-.2c-.2 0-.2 0-.2.3-.3.8-.7 1.9-1.3 2.6zm-1 1.8a4.2 4.2 0 0 1-2.7 1.2c-.8 0-1.2-.6-1.2-1.4 0-.7.4-2.1.8-2.8.6-1 1.4-1.2 1.8-1.2 1.3 0 1.3 1.7 1.3 2.8v1.4zM616.2 69.8c0-.2 0-.2-.2-.2-.6.6-1.5.6-1.9.6v.3c.3 0 .9 0 1.4-.3V75c0 .3 0 .4-1 .4h-.3v.4a51 51 0 0 1 3.3 0v-.4h-.3c-1 0-1-.1-1-.4zM630 70.7c.3 0 .5 0 .5-.3 0-.2-.2-.2-.4-.2h-5.7c.2-1.8 1.7-3 3.6-3h2c.3 0 .5 0 .5-.4 0-.2-.2-.2-.4-.2H628a4 4 0 0 0-4.1 3.8 4 4 0 0 0 4 3.9h2.2c.2 0 .4 0 .4-.3 0-.2-.2-.2-.4-.2H628c-1.9 0-3.4-1.3-3.6-3.1zm9-5.1c0-.6.4-1.4 1.9-1.5l.1-.2-.2-.1c-1.4 0-2.6.7-2.6 1.7v3c0 .5 0 1-.5 1.4-.5.4-1 .4-1.3.4l-.1.1c0 .2 0 .2.2.2.9 0 1.5.5 1.7 1.2V75c0 .6 0 1 .6 1.5.6.4 1.4.6 2 .6.1 0 .2 0 .2-.2l-.2-.1c-.8 0-1.5-.5-1.7-1.2v-3.4c0-.6-.1-.8-.5-1.2-.3-.3-.7-.5-1-.6 1-.3 1.5-.9 1.5-1.6zM648.1 69.5c0-1 0-2.1-.5-3.1a2.4 2.4 0 0 0-2.3-1.5c-.8 0-1.8.3-2.3 1.6a7 7 0 0 0-.5 3c0 1 0 2.2.6 3.2s1.6 1.4 2.2 1.4c.7 0 1.7-.3 2.3-1.6.4-1 .5-2 .5-3zm-2.8 4.3c-.5 0-1.3-.4-1.5-1.6-.2-.8-.2-2-.2-2.9l.1-2.4c.3-1.6 1.3-1.7 1.6-1.7.5 0 1.3.2 1.6 1.5l.1 2.6-.1 2.8c-.2 1.3-1 1.7-1.6 1.7zM651.5 75.3c0 .5-.3 1.4-1.8 1.5l-.1.1c0 .2.2.2.3.2 1.3 0 2.5-.7 2.5-1.7v-3c0-.5 0-1 .5-1.4.5-.4 1-.4 1.3-.4l.1-.2-.2-.1c-.9 0-1.5-.5-1.7-1.2V65.8c0-.5 0-1-.6-1.5-.6-.4-1.5-.5-2-.5l-.2.1c0 .2 0 .2.2.2.9 0 1.5.5 1.7 1.1v3.5c0 .6.1.8.6 1.2.2.3.6.4 1 .5-1.1.3-1.6 1-1.6 1.7zM661.5 70.1c0-1.3-.9-2.2-2-2.2-1.9 0-3.7 1.9-3.7 3.8 0 1.3 1 2.2 2.2 2.2 1.7 0 3.5-1.8 3.5-3.8zm-3.5 3.5c-.6 0-1.2-.4-1.2-1.4 0-.7.4-2.1.8-2.8.7-1 1.4-1.2 1.8-1.2.8 0 1.2.6 1.2 1.4 0 .5-.3 2-.8 2.8-.5.8-1.2 1.2-1.8 1.2zm5-.6-.2.5c0 .3.2.4.4.4.1 0 .4 0 .5-.4l.5-2 .4-1.8c0-.2.5-.8.8-1 0-.2.5-.5 1-.5l.6.1c-.4.1-.7.4-.7.8 0 .2.1.4.5.4s.7-.3.7-.7c0-.5-.4-1-1-1-1 0-1.5.7-1.8 1.1 0-.6-.6-1-1.2-1s-.8.5-1 .7l-.4 1.3c0 .2.2.2.2.2l.2-.3c.2-1 .5-1.6 1-1.6.2 0 .4 0 .4.6l-.2 1.1zM675.4 65l.1-.2c0-.1-.1-.3-.3-.3l-.3.3-1 3h-4.1l-1.1-3c0-.1-.1-.3-.3-.3l-.3.3v.2l3.4 8.7c0 .2.1.4.3.4.2 0 .3-.2.3-.3zm-5.4 3.3h3.6l-1.8 4.7zM679.9 77l-.2-.3c-1.7-1.7-2.1-4.2-2.1-6.3 0-2.3.5-4.6 2.1-6.3l.2-.2-.1-.1c-.2 0-1.4.9-2.1 2.6a10 10 0 0 0 0 8.2c.8 1.6 2 2.5 2 2.5l.2-.1zM681.8 73v.5c0 .3.1.4.3.4.2 0 .4 0 .5-.4l.2-1 .3-1.1.3-1 .2-.6c.1-.4.8-1.6 2.1-1.6.6 0 .7.5.7.9 0 .3 0 .7-.2 1.1l-.3 1.6-.3 1-.2.7c0 .3.2.4.4.4.4 0 .5-.3.6-.7l.8-3.3c0-.1.8-1.7 2.2-1.7.6 0 .7.4.7.9 0 .8-.5 2.3-.8 3l-.2.7c0 .6.5 1.1 1.1 1.1 1.3 0 1.8-2 1.8-2 0-.2-.2-.2-.2-.2l-.2.3c-.2.7-.6 1.6-1.4 1.6-.2 0-.3-.1-.3-.4 0-.4.1-.7.3-1 .2-.7.8-2.1.8-2.9 0-.9-.6-1.4-1.6-1.4s-1.6.6-2.1 1.3c0-.2 0-.6-.5-1-.3-.2-.7-.3-1-.3-1.2 0-1.9.8-2.1 1.1 0-.7-.6-1.1-1.2-1.1-.7 0-.9.5-1 .7-.3.5-.4 1.3-.4 1.3l.1.2c.1 0 .2 0 .2-.3.3-1 .5-1.6 1-1.6.2 0 .4 0 .4.6l-.2 1.1zm13.3.7c0-.8-.4-1.3-.9-1.3-.4 0-.7.3-.7.7 0 .3.3.7.7.7.2 0 .3 0 .5-.2v.1c0 1-.4 1.8-.8 2.3l-.2.2.1.1c.2 0 1.3-1 1.3-2.6zm7-8.2c0-.3-.3-.5-.6-.5s-.7.3-.7.7c0 .2.2.5.5.5s.7-.4.7-.7zm-1 5c0-.4 0-.5.2-.8l.2-.7c0-.6-.5-1.1-1.1-1.1-1.3 0-1.8 2-1.8 2 0 .2.2.2.2.2l.2-.3c.4-1.2.9-1.6 1.3-1.6.2 0 .4 0 .4.4l-.2.7c0 .3-.7 1.9-.9 2.5l-.3 1c0 .6.5 1.1 1.1 1.1 1.3 0 1.7-2 1.7-2l-.1-.2c-.2 0-.2 0-.2.3-.3.8-.7 1.6-1.4 1.6-.2 0-.3-.1-.3-.4 0-.4 0-.5.4-1.3zM706.7 70.4c0-1-.2-2.6-.9-4.1-.8-1.6-2-2.5-2-2.5l-.2.1.3.3c1.3 1.3 2 3.5 2 6.2 0 2.3-.5 4.6-2.1 6.3l-.2.3.1.1c.2 0 1.4-1 2.1-2.6.7-1.5.9-3 .9-4zM719 70.7c.2 0 .5 0 .5-.3 0-.2-.3-.2-.5-.2h-5.6c.1-1.8 1.6-3 3.5-3h2.1c.2 0 .5 0 .5-.4 0-.2-.3-.2-.5-.2h-2c-2.4 0-4.2 1.7-4.2 3.8a4 4 0 0 0 4.1 3.9h2.1c.2 0 .5 0 .5-.3 0-.2-.3-.2-.5-.2h-2c-2 0-3.5-1.3-3.6-3.1zM729.3 65.7c0-.5.1-.6 1.4-.6.4 0 .5 0 .5-.3l-.2-.1h-3.8s-.2 0-.2.2 0 .2.3.2h.5c.3 0 .4 0 .4.2v.3l-1.8 7.1c-.2.5-.2.7-1.2.7-.3 0-.4 0-.4.2s.1.2.4.2h6.1c.3 0 .3 0 .4-.3l1-2.8.1-.2-.1-.2-.3.3c-.4 1.2-1 2.8-3.3 2.8h-1.5c-.2 0-.2 0-.2-.2v-.3zm6.7 8c0-.8-.3-1.3-.8-1.3s-.7.3-.7.7c0 .3.2.7.7.7.1 0 .3 0 .4-.2h.1v.1c0 1-.4 1.8-.9 2.3l-.1.2.1.1c.2 0 1.2-1 1.2-2.6zM746.6 65v-.2c0-.1 0-.3-.2-.3s-.3.2-.3.3l-1.1 3h-4l-1.2-3c0-.1-.1-.3-.3-.3l-.3.3.1.2 3.3 8.7.3.4c.2 0 .3-.2.3-.3zm-5.5 3.3h3.6L743 73zM753 70.6c0-2-1.3-2.7-2.2-2.7-1.9 0-3.6 1.9-3.6 3.8 0 1.2.8 2.2 2.1 2.2.9 0 1.8-.3 2.8-1.1.2.7.6 1.1 1.2 1.1.7 0 1.2-.7 1.2-1h-.4c-.2.7-.7.7-.7.7-.4 0-.4-1-.4-1.3l.1-.5a7.7 7.7 0 0 0 1.5-3.1l-.1-.2c-.2 0-.2 0-.2.3-.3.8-.7 1.9-1.3 2.6zm-1 1.8a4.2 4.2 0 0 1-2.7 1.2c-.7 0-1.1-.6-1.1-1.4 0-.7.3-2.1.7-2.8.7-1 1.4-1.2 1.8-1.2 1.4 0 1.4 1.7 1.4 2.8v1.4zM758.2 69.8c0-.2 0-.2-.2-.2-.6.6-1.5.6-1.8.6v.3c.2 0 .8 0 1.3-.3V75c0 .3 0 .4-1 .4h-.3v.4a51 51 0 0 1 3.3 0v-.4h-.3c-1 0-1-.1-1-.4zM772 70.7c.3 0 .6 0 .6-.3 0-.2-.3-.2-.5-.2h-5.7c.2-1.8 1.7-3 3.6-3h2c.3 0 .6 0 .6-.4 0-.2-.3-.2-.5-.2H770c-2.3 0-4 1.7-4 3.8a4 4 0 0 0 4 3.9h2c.3 0 .6 0 .6-.3 0-.2-.3-.2-.5-.2h-2c-2 0-3.5-1.3-3.7-3.1zm9.1-5.1c0-.6.4-1.4 1.8-1.5l.1-.2-.2-.1c-1.4 0-2.6.7-2.6 1.7v3c0 .5 0 1-.5 1.4-.5.4-1 .4-1.3.4l-.1.1c0 .2 0 .2.2.2.9 0 1.5.5 1.7 1.2V75c0 .6 0 1 .6 1.5.6.4 1.5.6 2 .6.1 0 .2 0 .2-.2l-.2-.1c-.8 0-1.5-.5-1.7-1.2v-3.4c0-.6-.1-.8-.5-1.2-.3-.3-.7-.5-1-.6 1-.3 1.5-.9 1.5-1.6zM787.9 69c1-.3 1.8-1.2 1.8-2.3 0-1-1.1-1.8-2.4-1.8-1.4 0-2.4.8-2.4 1.8 0 .5.3.7.7.7.4 0 .7-.3.7-.7 0-.6-.7-.6-.8-.6.4-.7 1.2-.9 1.7-.9.6 0 1.3.3 1.3 1.5 0 .2 0 1-.4 1.5-.4.7-.8.7-1.2.7h-.5l-.2.2c0 .2.1.2.3.2h.6c1.1 0 1.6.9 1.6 2.2 0 1.8-1 2.2-1.5 2.2-.6 0-1.6-.3-2-1 .4 0 .9-.3.9-.8 0-.4-.4-.7-.8-.7-.3 0-.7.2-.7.8 0 1.2 1.2 2 2.6 2 1.7 0 2.9-1.2 2.9-2.5 0-1.1-.9-2.1-2.2-2.4zM793.5 75.3c0 .5-.3 1.4-1.8 1.5v.1c0 .2 0 .2.2.2 1.3 0 2.5-.7 2.5-1.7v-3c0-.5 0-1 .6-1.4.4-.4 1-.4 1.2-.4l.1-.2-.2-.1c-.9 0-1.5-.5-1.6-1.2V65.8c0-.5 0-1-.7-1.5-.5-.4-1.5-.5-2-.5l-.2.1c0 .2 0 .2.2.2.9 0 1.5.5 1.7 1.1v3.5c0 .6.1.8.6 1.2.2.3.6.4 1 .5-1 .3-1.6 1-1.6 1.7zM398.5 5.5q0-.5.7-1.2.6-.7 1.4-.7.5 0 .9.2l.5.6q.5-.8 1.3-.8.5 0 .8.3.4.3.4.7 0 .4-.2.6-.2.3-.4.3H403.3L403 5q0-.6.6-.9l-.5-.1h-.2q-.5.2-.7.8l-.8 3.3q0 .4.2.6l.5.1q.4 0 .9-.4t.6-1l.1-.2h.4v.2q-.2.8-.8 1.3-.6.6-1.3.6-1 0-1.4-.8-.5.8-1.2.8t-1-.4l-.3-.7q0-.4.3-.6.2-.3.6-.3.5 0 .5.6l-.1.4-.3.3h-.2l.2.2h.3q.4 0 .8-.6l.3-.8.3-1.4.2-.9.1-.5q0-.3-.2-.5l-.4-.1q-.5 0-1 .4-.4.4-.6 1v.2h-.5v-.2z"/></svg>