<svg xmlns="http://www.w3.org/2000/svg" width="239.7" height="18.2"><g aria-label="U AGV (m,i,α−1) =1,∀(m,i)∈C,∀α∈{2,3,4}"><path d="M7.5 4.4c.2-.5.4-1 1.5-1 0 0 .2 0 .2-.2 0 0 0-.2-.2-.2H6.3s-.2 0-.2.3c0 .2 0 .2.2.2.7 0 .9.2.9.5v.3L6 9c-.5 1.8-2 3-3.3 3-1 0-1.7-.6-1.7-1.7l.2-1L2.5 4c0-.5.1-.6 1-.6.4 0 .5 0 .5-.3C4 3 4 3 3.8 3H.4s-.2 0-.2.3c0 .2.1.2.4.2H1c.2 0 .3 0 .3.2l-.2 1-.3 1.1-.8 3.3-.1.7c0 1.7 1.2 2.6 2.6 2.6 1.7 0 3.3-1.5 3.8-3.3zM17 6.6v-.3h-.2c-.6 0-.6-.1-.7-.4L13.8.2c0-.1 0-.2-.3-.2-.1 0-.2 0-.2.2L11 5.7c0 .2-.2.6-1 .6v.3h2v-.3c-.4 0-.6-.2-.6-.5v-.1l.4-1.2h2.7L15 6V6c0 .3-.4.3-.7.3v.3H17zm-2.5-2.4H12l1.2-3zm10.3.2V4H22v.3h.3c1 0 1 .1 1 .4v.6c0 .2 0 .6-.6.9-.4.2-1 .2-1 .2-1.2 0-2.9-.6-2.9-3 0-2.5 1.8-3 2.7-3 1 0 2 .5 2.3 2.1 0 .2 0 .2.2.2l.1-.3V.3L24 .1l-.2.1-.5.7c-.4-.5-1-.8-1.9-.8-2 0-3.6 1.5-3.6 3.4 0 1.8 1.6 3.3 3.6 3.3.5 0 1.6 0 2-.7l.6.5.1-.2V4.8c0-.4.1-.4.7-.4zM33 .6V.3h-2v.3c.3 0 .6.2.6.4v.2l-2 4.5-2-4.7V1c0-.3.4-.3.7-.3V.3H25.7v.3h.2c.5 0 .6 0 .7.3L29 6.6c.1.2.1.2.3.2.1 0 .2 0 .3-.2l2.3-5.4c.1-.3.3-.6 1-.6zM11.5 9a5.6 5.6 0 0 0-2.3 4.6c0 1.3.4 3.3 2.3 4.6h.2l-.1-.2c-1.3-1.1-1.7-2.7-1.7-4.4 0-2.5 1-3.8 1.7-4.4V9l-.1-.2zM16.4 15.2l-.2.5c0 .2.2.3.3.3l.4-.2.2-.6a17.1 17.1 0 0 0 .3-1.4c.1-.4.1-.5.3-.7.3-.5.8-1 1.5-1 .5 0 .6.4.6.6 0 .6-.4 1.6-.6 2l-.1.5c0 .5.4.8.9.8.9 0 1.3-1.3 1.3-1.4l-.1-.1-.2.1c-.2.8-.6 1.1-1 1.1-.2 0-.2 0-.2-.3l.2-.7c0-.3.5-1.3.5-1.8 0-.2 0-.6-.4-.8-.1-.2-.4-.3-.8-.3-.9 0-1.4.6-1.7 1 0-.8-.7-1-1.2-1a2 2 0 0 0-1.6.9c0-.7-.6-.9-1-.9s-.6.3-.7.5l-.3 1h.1c.1 0 .2 0 .2-.2.2-.6.3-1 .7-1 .2 0 .3.2.3.4l-.1.8-.2.8-.3 1.2-.1.4c0 .2.1.3.3.3.2 0 .3-.1.3-.2l.2-.6.2-.8.2-.6c0-.4.1-.5.4-.9.2-.3.7-.8 1.4-.8.5 0 .5.5.5.6l-.1.9zm7.3.6c0 .5 0 1-.7 1.7v.2c.2 0 1-.7 1-1.9 0-.5-.2-1-.7-1-.3 0-.5.3-.5.6s.2.5.5.5l.4-.1zM28 10c0-.1-.1-.3-.4-.3-.2 0-.5.2-.5.5 0 .1.1.3.4.3.3 0 .5-.3.5-.5zM26 14.8v.4c0 .4.3.8.8.8 1 0 1.3-1.3 1.3-1.4v-.1l-.3.1c-.2.8-.6 1.1-1 1.1-.2 0-.2 0-.2-.3 0-.2 0-.4.2-.6 0-.2.1-.5.3-.7l.4-1.2v-.3c0-.4-.3-.8-.8-.8-1 0-1.4 1.3-1.4 1.4l.2.1h.2c.2-.9.6-1.2 1-1.2.1 0 .2 0 .2.3 0 .2 0 .4-.3 1zm4.6 1c0 .5 0 1-.7 1.7v.2c.2 0 1-.7 1-1.9 0-.5-.2-1-.7-1-.3 0-.5.3-.5.6s.2.5.5.5l.4-.1zm6.3-1.2a5 5 0 0 0 1.2-2.2l-.2-.1-.2.2a5 5 0 0 1-.8 1.7v-.9c-.2-.9-.9-1.5-1.8-1.5-1.4 0-2.7 1.3-2.7 2.6 0 .8.6 1.6 1.7 1.6.8 0 1.6-.4 2.1-.8.2.7.7.8 1 .8.5 0 .9-.4.9-.7H37.8c-.2.4-.5.4-.6.4 0 0-.3 0-.3-1.1zm-.7.3c-1 .8-1.7.8-2 .8-.7 0-1-.4-1-1 0-.3 0-1.3.6-2 .4-.5 1-.6 1.3-.6.7 0 1 .7 1 1.3v1.5zM45.7 13.8s.3 0 .3-.2c0-.3-.2-.3-.3-.3H40c-.1 0-.4 0-.4.3 0 .2.2.2.4.2zM50.1 10c0-.2 0-.3-.2-.3-.6.6-1.5.6-1.9.6v.4c.3 0 .9 0 1.4-.3v4.7c0 .4 0 .5-1 .5h-.3v.3a48.2 48.2 0 0 1 3.3 0v-.3h-.3c-1 0-1-.1-1-.5zm3-1H53v.2c.9.7 1.8 2 1.8 4.4 0 2-.6 3.4-1.6 4.3l-.2.2.1.1c.1 0 1-.6 1.6-1.7.4-.8.7-1.8.7-3S55 10.3 53.2 9zM70 7.8c.2 0 .4 0 .4-.3s-.2-.3-.4-.3h-8c-.2 0-.4 0-.4.3s.2.3.4.3zm0 2.5c.2 0 .4 0 .4-.2 0-.3-.2-.3-.4-.3h-8c-.2 0-.4 0-.4.3 0 .2.2.2.4.2zm8.7-6.7c0-.3 0-.3-.3-.3-.8.8-2 .8-2.4.8v.4c.3 0 1 0 1.8-.3V11c0 .4 0 .6-1.3.6h-.4v.4H80.4v-.4H80c-1.2 0-1.3-.2-1.3-.6zM84.2 12c0-.8-.3-1.3-.9-1.3-.4 0-.7.3-.7.7 0 .4.3.7.7.7.2 0 .4 0 .5-.2l.1.2c0 1-.5 1.8-.9 2.2l-.1.2v.2c.2 0 1.3-1 1.3-2.6zM99.1 3.4l.1-.2c0-.2 0-.3-.2-.3s-.3.1-.4.3l-1 3h-4.1l-1-3c-.2-.2-.2-.3-.4-.3-.1 0-.3.1-.3.3l.1.2 3.3 8.7c0 .2.1.3.3.3.2 0 .3-.1.3-.3zm-5.4 3.3h3.6l-1.8 4.7zM103.6 15.3l-.2-.3c-1.7-1.7-2.1-4.2-2.1-6.2 0-2.3.5-4.6 2.1-6.3l.2-.2-.1-.2c-.2 0-1.4 1-2.1 2.6a9.9 9.9 0 0 0 0 8.2c.8 1.7 2 2.5 2 2.5l.2-.1zM105.5 11.3v.6c0 .2.1.4.3.4.2 0 .4-.1.5-.4l.2-1 .3-1.2.3-.9.1-.6c.2-.5 1-1.7 2.2-1.7.6 0 .7.5.7 1 0 .3 0 .7-.2 1l-.3 1.6-.3 1-.2.8c0 .2.2.4.4.4.4 0 .5-.4.6-.8l.8-3.2c0-.2.7-1.8 2.2-1.8.6 0 .7.5.7 1 0 .7-.6 2.2-.8 3l-.2.7c0 .6.5 1 1 1 1.3 0 1.8-1.9 1.8-2l-.1-.1c-.2 0-.2 0-.2.2-.2.7-.6 1.7-1.4 1.7-.2 0-.3-.2-.3-.5l.2-1c.3-.6.9-2 .9-2.8 0-.9-.6-1.5-1.6-1.5s-1.7.6-2.1 1.3c0-.1-.1-.6-.5-1-.3-.2-.7-.3-1-.3-1.3 0-1.9.9-2.1 1.2 0-.8-.7-1.2-1.2-1.2-.7 0-1 .6-1 .8-.3.5-.4 1.3-.4 1.3l.1.1c.1 0 .2 0 .2-.3.3-1 .5-1.6 1-1.6.2 0 .4.1.4.6l-.2 1.2zm13.2.8c0-.9-.3-1.4-.8-1.4s-.7.3-.7.7c0 .4.2.7.7.7.1 0 .3 0 .4-.2h.1v.2c0 1-.4 1.8-.9 2.2l-.1.2.1.2c.2 0 1.2-1 1.2-2.6zm7-8.3c0-.3-.2-.5-.5-.5-.4 0-.7.4-.7.7 0 .3.2.5.5.5s.7-.3.7-.7zm-1 5 .3-.8.2-.7c0-.6-.5-1-1.1-1-1.3 0-1.8 1.9-1.8 2l.2.1.2-.2c.3-1.3.9-1.7 1.3-1.7.1 0 .4 0 .4.5l-.2.6-1 2.5-.2 1c0 .7.4 1.2 1 1.2 1.3 0 1.8-2 1.8-2.1l-.1-.1c-.2 0-.2 0-.3.2-.2.9-.6 1.7-1.3 1.7-.2 0-.3-.2-.3-.5s0-.5.4-1.3zM130.4 8.8c0-1-.2-2.7-1-4.2-.7-1.6-1.9-2.5-2-2.5l-.1.2.2.3c1.3 1.3 2 3.4 2 6.2 0 2.3-.4 4.6-2 6.3l-.2.2.1.1c.1 0 1.3-.9 2.1-2.6.7-1.4.9-2.9.9-4zM142.7 9c.2 0 .4 0 .4-.2 0-.3-.2-.3-.4-.3H137c.2-1.7 1.7-3 3.6-3h2c.3 0 .5 0 .5-.3s-.2-.3-.4-.3h-2.1c-2.3 0-4.1 1.8-4.1 3.9a4 4 0 0 0 4 3.8h2.2c.2 0 .4 0 .4-.2 0-.3-.2-.3-.4-.3h-2.1c-1.9 0-3.4-1.3-3.6-3zM158 2.9l-.1-.1-.2.1-1 1c0-.2-.7-1.1-2.2-1.1-3 0-6 2.9-6 6 0 2.2 1.6 3.6 3.7 3.6 1.1 0 2.1-.5 2.8-1.1 1.3-1.1 1.5-2.3 1.5-2.4l-.1-.1-.2.1c-.1.4-.4 1.4-1.4 2.1-.9.8-1.7 1-2.4 1-1.2 0-2.6-.7-2.6-2.8 0-.7.3-2.9 1.6-4.4.8-1 2-1.6 3.2-1.6 1.4 0 2.2 1 2.2 2.5v.7l.1.1c.2 0 .2 0 .3-.2zm2.3 9.2c0-.9-.3-1.4-.8-1.4s-.7.3-.7.7c0 .4.2.7.7.7.1 0 .3 0 .4-.2l.1.2c0 1-.4 1.8-.9 2.2l-.1.2.1.2c.2 0 1.2-1 1.2-2.6zM170.8 3.4l.1-.2c0-.2 0-.3-.2-.3s-.3.1-.4.3l-1 3h-4.1l-1-3c-.2-.2-.2-.3-.4-.3-.1 0-.3.1-.3.3l.1.2L167 12c0 .2.1.3.3.3.2 0 .3-.1.3-.3zm-5.4 3.3h3.6l-1.8 4.7zM177.2 9c0-2.1-1.2-2.8-2.2-2.8-1.8 0-3.5 2-3.5 3.8 0 1.3.7 2.3 2.1 2.3.8 0 1.8-.3 2.8-1.2.2.7.6 1.2 1.2 1.2.7 0 1.1-.8 1.1-1l-.1-.1-.2.1c-.2.7-.7.7-.7.7-.5 0-.5-1-.5-1.4 0-.3 0-.3.2-.5a7.7 7.7 0 0 0 1.5-3c0-.1 0-.2-.2-.2l-.2.3c-.2.8-.6 1.8-1.3 2.6zm-.8 1.8a4.2 4.2 0 0 1-2.8 1.2c-.8 0-1.2-.6-1.2-1.5 0-.6.4-2 .8-2.7.6-1 1.3-1.3 1.8-1.3 1.3 0 1.3 1.8 1.3 2.8v1.5zM190.4 9c.2 0 .5 0 .5-.2 0-.3-.3-.3-.5-.3h-5.6c.2-1.7 1.7-3 3.5-3h2.1c.2 0 .5 0 .5-.3s-.3-.3-.5-.3h-2c-2.4 0-4.2 1.8-4.2 3.9a4 4 0 0 0 4.1 3.8h2.1c.2 0 .5 0 .5-.2 0-.3-.3-.3-.5-.3h-2c-2 0-3.4-1.3-3.6-3zm9-5c0-.6.4-1.5 1.8-1.6l.1-.1c0-.2 0-.2-.2-.2-1.3 0-2.6.7-2.6 1.7v3c0 .6 0 1-.5 1.4-.5.4-1 .4-1.3.4v.2l.1.1c1 0 1.6.6 1.7 1.2v3.3c0 .6 0 1 .7 1.5.5.4 1.4.5 1.9.5l.2-.1-.2-.2c-.8 0-1.5-.4-1.6-1.1v-3.4c0-.6-.2-.9-.6-1.3-.3-.3-.7-.4-1-.5 1-.3 1.5-1 1.5-1.7zM204 11l1.4-1.3c2.1-1.8 2.9-2.5 2.9-3.9 0-1.5-1.2-2.5-2.8-2.5a2.4 2.4 0 0 0-2.5 2.4c0 .7.7.7.7.7.2 0 .7-.1.7-.7 0-.3-.3-.7-.7-.7h-.2a2 2 0 0 1 1.8-1.3c1.2 0 1.8 1 1.8 2.1s-.7 2.2-1.4 3l-2.6 2.8-.1.5h5l.3-2.3h-.3l-.3 1.2h-1.3zM211.7 12c0-.8-.4-1.3-.9-1.3-.4 0-.7.3-.7.7 0 .4.3.7.7.7.2 0 .3 0 .5-.2v.2c0 1-.4 1.8-.8 2.2l-.2.2c0 .1 0 .2.2.2.1 0 1.2-1 1.2-2.6zM218.7 7.4c1.1-.3 1.9-1.3 1.9-2.3 0-1.1-1.2-1.8-2.5-1.8s-2.3.8-2.3 1.8c0 .4.3.7.7.7.4 0 .6-.3.6-.7 0-.7-.6-.7-.8-.7.4-.6 1.3-.8 1.8-.8s1.3.3 1.3 1.5c0 .2 0 1-.4 1.5-.4.6-.9.7-1.2.7h-.5c-.1 0-.2 0-.2.2l.3.1h.6c1 0 1.6 1 1.6 2.2 0 1.8-1 2.2-1.5 2.2-.6 0-1.6-.2-2-1 .4 0 .8-.2.8-.7 0-.5-.3-.8-.7-.8-.3 0-.8.2-.8.8 0 1.2 1.3 2.1 2.7 2.1 1.6 0 2.8-1.2 2.8-2.6 0-1-.8-2-2.2-2.4zM224.2 12c0-.8-.3-1.3-.8-1.3s-.7.3-.7.7c0 .4.2.7.7.7.1 0 .3 0 .4-.2l.1.2c0 1-.4 1.8-.9 2.2l-.1.2.1.2c.2 0 1.2-1 1.2-2.6zM231.3 10v1c0 .5 0 .7-1 .7h-.3v.4h3.6v-.4h-.2c-1 0-1-.2-1-.6V9.9h1.3v-.4h-1.4v-6c0-.3 0-.4-.2-.4l-.2.2-4.1 6.2v.4zm.1-.5h-3.2l3.2-5zM237 13.7c0 .5-.4 1.3-1.9 1.4v.2l.2.1c1.3 0 2.5-.6 2.5-1.6v-3c0-.6 0-1 .6-1.4.4-.4 1-.4 1.2-.5l.1-.1-.2-.2c-.9 0-1.5-.5-1.6-1.1V4.2c0-.6 0-1-.7-1.5-.5-.4-1.5-.6-2-.6 0 0-.2 0-.2.2l.2.1c.9.1 1.5.5 1.7 1.2V7c0 .6.1.8.6 1.3l1 .5c-1 .3-1.6.9-1.6 1.7zm0 0"/></g></svg>