<svg xmlns="http://www.w3.org/2000/svg" width="370.1" height="19.8"><g aria-label="T Q(m,i+1) ≥T Q(m,i) +G Q(m,i) +S Q(m,i)(m,i+1) ,∀(m,i),(m,i+1)∈C"><path d="M5.4 4.9c0-.4.1-.5.3-.5h.8c1.3 0 2 0 2 1l-.2 1v.3c0 .1 0 .2.2.2l.2-.3.3-2.3V4c0-.2 0-.2-.3-.2H1.3C1 4 1 4 1 4.2L0 6.5l-.1.3.2.1.2-.3c.7-2 1-2.3 3-2.3H4c.4 0 .4 0 .4.2v.3l-1.8 7c-.1.6-.2.7-1.6.7-.5 0-.6 0-.6.3l.3.1H5c.2 0 .3 0 .3-.3H5l-.9-.1c-.4 0-.5-.1-.5-.3v-.3zM13.6 7c0 .7.1 1.3.9 1.3 1.1 0 1.7-1.6 1.7-1.8H15.9c-.2.7-.8.9-1.2.9-.3 0-.5-.2-.7-1 1.7-.5 3-2.2 3-3.8C17 1 16 0 14.3 0 12.1 0 10 2 10 4.2c0 1.5 1.1 2.5 2.7 2.5l1-.1zM12 6.4c-.5-.2-1.2-.7-1.2-1.9 0-.6.2-1.8 1-2.9.7-.7 1.6-1.2 2.4-1.2 1 0 2 .7 2 2 0 1-.6 3-2.3 3.8-.1-.6-.3-1-.9-1-.5 0-1 .5-1 1v.2zm1.6 0-.9.1c-.1 0-.5 0-.5-.3 0-.4.4-.7.8-.7.3 0 .6.1.6.9zM10.7 10.5A5.6 5.6 0 0 0 8.5 15c0 1.3.4 3.4 2.2 4.7.1 0 .2 0 .2-.2v-.1c-1.3-1.1-1.7-2.7-1.7-4.4 0-2.5 1-3.7 1.7-4.4v-.1l-.2-.1zM15.6 16.7v.5c0 .2 0 .3.2.3s.3 0 .4-.2l.2-.5a17.1 17.1 0 0 0 .3-1.5l.3-.7c.3-.5.8-1 1.5-1 .5 0 .5.4.5.7 0 .5-.4 1.5-.5 2l-.1.4c0 .5.4.8.8.8 1 0 1.4-1.2 1.4-1.4l-.2-.1-.2.1c-.2.8-.6 1.2-1 1.2l-.2-.4.2-.7c.2-.3.5-1.3.5-1.8 0-.1 0-.5-.3-.8-.2-.1-.4-.3-.9-.3-.8 0-1.3.6-1.6 1-.1-.8-.8-1-1.2-1a2 2 0 0 0-1.6.9c0-.7-.6-.9-1-.9s-.6.3-.7.5l-.4 1h.2l.2-.2c.1-.6.3-1 .7-1 .2 0 .3.2.3.4l-.2.8-.2.9-.3 1.2v.3c0 .2.1.3.3.3.1 0 .3 0 .3-.2l.2-.5.2-.9.2-.6c0-.4 0-.5.3-.8.3-.4.7-1 1.4-1 .6 0 .6.6.6.8l-.2.8zm7.4.6c0 .5-.1 1-.7 1.7l-.1.1.1.1c.2 0 1-.7 1-1.8 0-.6-.3-1-.7-1-.3 0-.5.2-.5.5s.2.5.5.5l.4-.1zm4.2-5.7c0-.1-.1-.3-.4-.3-.2 0-.5.2-.5.5 0 .1.1.3.4.3.2 0 .5-.2.5-.5zm-2 4.7v.4c0 .5.4.8.9.8 1 0 1.3-1.2 1.3-1.4l-.1-.1-.2.1c-.2.8-.6 1.2-1 1.2-.2 0-.2-.1-.2-.4l.1-.6.3-.7.5-1.2v-.3c0-.4-.3-.8-.8-.8-1 0-1.4 1.3-1.4 1.5H25c.3-.9.7-1.2 1-1.2.2 0 .3 0 .3.3 0 .2 0 .4-.3 1zM32.2 15.3h2.9c.1 0 .3 0 .3-.2s-.2-.2-.3-.2h-2.9V12s0-.3-.2-.3-.2.2-.2.3V15h-2.9s-.3 0-.3.2.2.2.3.2h2.9v2.9c0 .1 0 .3.2.3s.2-.2.2-.3zm7-3.8c0-.2 0-.2-.3-.2-.6.5-1.4.6-1.8.6v.3c.2 0 .8 0 1.4-.3v4.8c0 .3 0 .4-1 .4h-.3v.3a48.2 48.2 0 0 1 3.3 0v-.3H40c-.9 0-.9-.1-.9-.4zm3-1H42l.1.2c.8.8 1.7 2 1.7 4.4 0 2-.6 3.4-1.6 4.3l-.2.2s0 .2.2.2c0 0 1-.7 1.6-1.8.4-.8.6-1.8.6-2.9 0-1.3-.3-3.3-2.2-4.6zM58.8 8.6c.2 0 .3-.2.3-.3 0-.1 0-.2-.3-.3l-7.3-3.4-.2-.1c-.2 0-.3 0-.3.2s.1.3.3.3l7 3.3-7 3.3c-.3.1-.3.2-.3.3 0 .1.1.3.3.3l.2-.1zm-.2 6.1c.3 0 .5 0 .5-.2 0-.3-.3-.3-.5-.3h-7.1c-.2 0-.5 0-.5.3 0 .2.2.2.5.2zM69.6 4.9c0-.4.1-.5.3-.5h.8c1.4 0 2 0 2 1l-.1 1V7c.2 0 .3-.1.3-.3l.3-2.3V4c0-.2 0-.2-.3-.2h-7.4c-.3 0-.3 0-.4.3l-.8 2.3v.3l.1.1.2-.3c.7-2 1-2.3 3-2.3h.6c.3 0 .3 0 .3.2v.3l-1.8 7c-.1.6-.2.7-1.6.7-.5 0-.5 0-.5.3l.2.1h4.5c.1 0 .3 0 .3-.3H69l-.8-.1c-.4 0-.5-.1-.5-.3v-.3zM77.9 7c0 .7 0 1.3.8 1.3 1.2 0 1.7-1.6 1.7-1.8H80.1c-.2.7-.8.9-1.1.9-.4 0-.6-.2-.8-1 1.7-.5 3-2.2 3-3.8 0-1.5-1-2.6-2.7-2.6-2.2 0-4.3 2-4.3 4.2 0 1.5 1 2.5 2.7 2.5l1-.1zm-1.7-.7c-.4-.2-1.1-.7-1.1-1.9 0-.6.2-1.8 1-2.9.6-.7 1.5-1.2 2.4-1.2 1 0 1.8.7 1.8 2 0 1-.4 3-2.1 3.8-.2-.6-.4-1-1-1-.5 0-1 .5-1 1v.2zm1.7 0-1 .1c-.1 0-.4 0-.4-.3 0-.4.3-.7.7-.7.4 0 .6.1.7.9zM75 10.5a5.6 5.6 0 0 0-2.3 4.6c0 1.3.4 3.4 2.3 4.7 0 0 .2 0 .2-.2l-.1-.1c-1.3-1.1-1.7-2.7-1.7-4.4 0-2.5 1-3.7 1.7-4.4v-.1l-.1-.1zM79.9 16.7l-.2.5c0 .2.2.3.3.3.2 0 .4 0 .4-.2l.2-.5a17.1 17.1 0 0 0 .3-1.5l.3-.7c.3-.5.8-1 1.5-1 .5 0 .6.4.6.7 0 .5-.4 1.5-.6 2l-.1.4c0 .5.4.8.9.8.9 0 1.3-1.2 1.3-1.4l-.1-.1-.2.1c-.2.8-.6 1.2-1 1.2-.2 0-.3-.2-.3-.4l.3-.7c0-.3.5-1.3.5-1.8 0-.1 0-.5-.4-.8-.1-.1-.4-.3-.9-.3-.8 0-1.3.6-1.6 1 0-.8-.7-1-1.2-1a2 2 0 0 0-1.6.9c0-.7-.6-.9-1-.9s-.6.3-.7.5l-.3 1h.1c.1 0 .2 0 .2-.2.2-.6.3-1 .7-1 .2 0 .3.2.3.4l-.1.8-.2.9-.3 1.2-.1.3c0 .2.1.3.3.3.2 0 .3 0 .3-.2l.2-.5.2-.9.2-.6c0-.4.1-.5.4-.8.2-.4.7-1 1.4-1 .5 0 .5.6.5.8l-.1.8zm7.3.6c0 .5 0 1-.7 1.7v.2c.2 0 1-.7 1-1.8 0-.6-.2-1-.7-1-.3 0-.5.2-.5.5s.2.5.5.5l.4-.1zm4.2-5.7c0-.1 0-.3-.4-.3-.2 0-.5.2-.5.5 0 .1.1.3.4.3.3 0 .5-.2.5-.5zm-1.9 4.7v.4c0 .5.3.8.8.8 1 0 1.4-1.2 1.4-1.4l-.2-.1-.2.1c-.2.8-.6 1.2-1 1.2-.1 0-.2-.1-.2-.4 0-.2 0-.4.2-.6 0-.2.1-.5.3-.7l.4-1.2v-.3c0-.4-.3-.8-.8-.8-1 0-1.4 1.3-1.4 1.5h.4c.2-.9.6-1.2 1-1.2.1 0 .2 0 .2.3 0 .2 0 .4-.3 1zM93 10.5h-.2l.1.2c.8.8 1.7 2 1.7 4.4 0 2-.6 3.4-1.6 4.3l-.2.2.1.2c.2 0 1-.7 1.7-1.8.4-.8.6-1.8.6-2.9 0-1.3-.4-3.3-2.2-4.6zM105.4 9.9h3.7c.2 0 .4 0 .4-.3s-.2-.3-.4-.3h-3.7V5.6c0-.2 0-.4-.3-.4s-.3.2-.3.4v3.7h-3.7c-.2 0-.4 0-.4.3s.2.3.4.3h3.7v3.7c0 .2 0 .4.3.4s.3-.2.3-.4zM123.3 3.7l-.1-.1-.2.1-1 1c0-.2-.7-1.1-2.2-1.1-3 0-6 2.9-6 6 0 2 1.6 3.6 3.7 3.6.6 0 1.2-.1 1.7-.3.6-.3.9-.6 1.1-.8l.6.8h.1l.2-.9.3-1 .2-.7c.1-.6.1-.6.9-.6 0 0 .2 0 .2-.3l-.2-.1h-3.2c-.2 0-.3 0-.3.3l.4.1h.7c.3 0 .4.1.4.3l-.3 1.2c-.3 1.4-2 1.6-2.5 1.6-1.3 0-2.7-.8-2.7-2.8 0-.4.1-2.6 1.5-4.3.7-1 2-1.7 3.3-1.7 1.4 0 2.2 1 2.2 2.5v.7l.1.1c.2 0 .2 0 .3-.2zM128 7c0 .7.1 1.3.9 1.3 1 0 1.6-1.6 1.6-1.8h-.2c-.2.7-.9.9-1.2.9-.4 0-.5-.2-.7-1 1.6-.5 3-2.2 3-3.8 0-1.5-1-2.6-2.7-2.6-2.2 0-4.4 2-4.4 4.2 0 1.5 1.1 2.5 2.7 2.5l1-.1zm-1.6-.7c-.5-.2-1.2-.7-1.2-1.9 0-.6.2-1.8 1-2.9.6-.7 1.5-1.2 2.4-1.2 1 0 1.9.7 1.9 2 0 1-.5 3-2.2 3.8-.1-.6-.4-1-1-1-.4 0-1 .5-1 1v.2zm1.6 0-1 .1s-.4 0-.4-.3c0-.4.4-.7.8-.7.3 0 .6.1.6.9zM127 10.5a5.6 5.6 0 0 0-2.3 4.6c0 1.3.4 3.4 2.3 4.7l.1-.2v-.1c-1.3-1.1-1.7-2.7-1.7-4.4 0-2.5 1-3.7 1.7-4.4v-.1l-.1-.1zM131.8 16.7v.5c0 .2 0 .3.2.3s.3 0 .4-.2l.2-.5a17.1 17.1 0 0 0 .3-1.5l.3-.7c.3-.5.8-1 1.5-1 .5 0 .6.4.6.7 0 .5-.5 1.5-.6 2l-.1.4c0 .5.4.8.8.8 1 0 1.4-1.2 1.4-1.4l-.2-.1-.1.1c-.2.8-.7 1.2-1 1.2-.2 0-.3-.2-.3-.4s0-.3.3-.7c0-.3.5-1.3.5-1.8 0-.1 0-.5-.4-.8-.2-.1-.4-.3-.9-.3-.8 0-1.3.6-1.6 1 0-.8-.7-1-1.2-1a2 2 0 0 0-1.6.9c0-.7-.6-.9-1-.9s-.6.3-.7.5l-.4 1h.2l.2-.2c.1-.6.3-1 .7-1 .2 0 .3.2.3.4l-.1.8-.3.9-.2 1.2-.1.3c0 .2.1.3.3.3.1 0 .3 0 .3-.2l.2-.5.2-.9.2-.6c0-.4 0-.5.4-.8.2-.4.7-1 1.3-1 .6 0 .6.6.6.8l-.2.8zm7.4.6c0 .5 0 1-.7 1.7v.2c.2 0 1-.7 1-1.8 0-.6-.3-1-.7-1-.3 0-.5.2-.5.5s.2.5.5.5l.4-.1zm4.2-5.7c0-.1-.1-.3-.4-.3-.2 0-.5.2-.5.5 0 .1.1.3.4.3.2 0 .5-.2.5-.5zm-2 4.7v.4c0 .5.4.8.9.8 1 0 1.3-1.2 1.3-1.4l-.1-.1-.2.1c-.2.8-.6 1.2-1 1.2-.2 0-.2-.1-.2-.4l.1-.6.3-.7.5-1.2v-.3c0-.4-.3-.8-.8-.8-1 0-1.4 1.3-1.4 1.5H141.1c.3-.9.7-1.2 1-1.2.2 0 .3 0 .3.3 0 .2 0 .4-.3 1zM145 10.5h-.2l.1.2c.8.8 1.7 2 1.7 4.4 0 2-.6 3.4-1.6 4.3l-.2.2.1.2c.1 0 1-.7 1.6-1.8.4-.8.7-1.8.7-2.9 0-1.3-.4-3.3-2.2-4.6zM157.4 9.9h3.7c.1 0 .4 0 .4-.3s-.3-.3-.4-.3h-3.7V5.6c0-.2 0-.4-.3-.4s-.3.2-.3.4v3.7h-3.7c-.2 0-.4 0-.4.3s.2.3.4.3h3.7v3.7c0 .2 0 .4.3.4s.3-.2.3-.4zM173.8 3.7l-.2-.1-.2.1-.6.8c-.4-.6-1-1-2-1-1.6 0-3.2 1.6-3.2 3.2 0 1 .7 1.7 1.4 1.9l1.4.3c.5.2 1.2.4 1.2 1.5s-1.1 2.4-2.4 2.4c-.9 0-2.3-.3-2.3-2V10h-.2a91.8 91.8 0 0 0-.7 3.3l.3-.2.6-.8c.6.8 1.5 1 2.3 1 1.8 0 3.3-1.8 3.3-3.4a2 2 0 0 0-.6-1.6c-.3-.3-.5-.3-1.7-.6l-.9-.3c-.3 0-.8-.5-.8-1.2 0-1 1-2.2 2.3-2.2 1.1 0 2 .6 2 2l-.1.8s0 .2.2.2l.1-.3zM178.4 7c0 .7.2 1.3 1 1.3 1 0 1.6-1.6 1.6-1.8h-.2c-.3.7-1 .9-1.2.9-.4 0-.6-.2-.8-1 1.7-.5 3-2.2 3-3.8 0-1.5-1-2.6-2.7-2.6-2.2 0-4.3 2-4.3 4.2 0 1.5 1 2.5 2.7 2.5l1-.1zm-1.6-.7c-.5-.2-1.1-.7-1.1-1.9 0-.6.1-1.8 1-2.9.6-.7 1.5-1.2 2.4-1.2 1 0 1.8.7 1.8 2 0 1-.4 3-2.1 3.8-.2-.6-.4-1-1-1-.5 0-1 .5-1 1v.2zm1.6 0-.9.1c-.1 0-.4 0-.4-.3 0-.4.3-.7.7-.7.4 0 .6.1.6.9zM176.6 10.5a5.6 5.6 0 0 0-2.2 4.6c0 1.3.4 3.4 2.2 4.7.1 0 .2 0 .2-.2v-.1c-1.3-1.1-1.7-2.7-1.7-4.4 0-2.5.9-3.7 1.7-4.4v-.1l-.2-.1zM181.5 16.7v.5c0 .2 0 .3.2.3s.3 0 .4-.2l.2-.5.2-.9.1-.6.3-.7c.3-.5.8-1 1.5-1 .5 0 .5.4.5.7 0 .5-.4 1.5-.5 2l-.1.4c0 .5.4.8.8.8 1 0 1.4-1.2 1.4-1.4l-.2-.1-.2.1c-.2.8-.6 1.2-1 1.2l-.2-.4.2-.7c.2-.3.5-1.3.5-1.8 0-.1 0-.5-.3-.8-.2-.1-.4-.3-.9-.3-.8 0-1.3.6-1.6 1-.1-.8-.8-1-1.2-1a2 2 0 0 0-1.6.9c0-.7-.6-.9-1-.9s-.6.3-.7.5l-.4 1h.2l.2-.2c.1-.6.3-1 .7-1 .2 0 .3.2.3.4l-.2.8-.2.9-.3 1.2v.3c0 .2.1.3.3.3.1 0 .3 0 .3-.2l.2-.5.2-.9.2-.6c0-.4 0-.5.3-.8.3-.4.7-1 1.4-1 .6 0 .6.6.6.8l-.2.8zm7.4.6c0 .5-.1 1-.7 1.7l-.1.1.1.1c.2 0 1-.7 1-1.8 0-.6-.3-1-.7-1-.3 0-.5.2-.5.5s.2.5.5.5l.4-.1zm4.2-5.7c0-.1-.1-.3-.4-.3-.2 0-.5.2-.5.5 0 .1.1.3.4.3.2 0 .5-.2.5-.5zm-2 4.7v.4c0 .5.4.8.9.8 1 0 1.3-1.2 1.3-1.4l-.1-.1-.2.1c-.2.8-.6 1.2-1 1.2-.2 0-.2-.1-.2-.4l.1-.6.3-.7.5-1.2v-.3c0-.4-.3-.8-.8-.8-1 0-1.4 1.3-1.4 1.5H190.8c.3-.9.7-1.2 1-1.2.2 0 .3 0 .3.3 0 .2 0 .4-.3 1zM194.7 10.5h-.2v.2c.9.8 1.8 2 1.8 4.4 0 2-.6 3.4-1.6 4.3l-.2.2.1.2c.1 0 1-.7 1.6-1.8.4-.8.7-1.8.7-2.9 0-1.3-.4-3.3-2.2-4.6zm6.6 0A5.6 5.6 0 0 0 199 15c0 1.3.3 3.4 2.2 4.7 0 0 .2 0 .2-.2l-.1-.1c-1.3-1.1-1.7-2.7-1.7-4.4 0-2.5 1-3.7 1.7-4.4v-.1l-.1-.1zM206.2 16.7l-.2.5c0 .2.2.3.4.3.1 0 .3 0 .3-.2l.2-.5.2-.9.2-.6c0-.4 0-.4.2-.7.3-.5.8-1 1.5-1 .5 0 .6.4.6.7 0 .5-.4 1.5-.6 2l-.1.4c0 .5.4.8.9.8.9 0 1.3-1.2 1.3-1.4l-.1-.1-.2.1c-.2.8-.6 1.2-1 1.2-.2 0-.2-.2-.2-.4l.2-.7c0-.3.5-1.3.5-1.8 0-.1 0-.5-.4-.8-.1-.1-.4-.3-.8-.3-.9 0-1.4.6-1.7 1 0-.8-.7-1-1.2-1a2 2 0 0 0-1.6.9c0-.7-.6-.9-1-.9-.3 0-.6.3-.7.5l-.3 1h.1c.2 0 .2 0 .2-.2.2-.6.4-1 .7-1 .3 0 .3.2.3.4l-.1.8-.2.9-.3 1.2-.1.3c0 .2.1.3.3.3.2 0 .3 0 .4-.2l.1-.5.2-.9.2-.6c.1-.4.1-.5.4-.8.2-.4.7-1 1.4-1 .5 0 .5.6.5.8l-.1.8zm7.3.6c0 .5 0 1-.7 1.7v.2c.2 0 1-.7 1-1.8 0-.6-.2-1-.7-1-.3 0-.5.2-.5.5s.2.5.5.5l.4-.1zm4.2-5.7c0-.1 0-.3-.3-.3s-.6.2-.6.5c0 .1.1.3.4.3.3 0 .5-.2.5-.5zm-1.9 4.7v.4c0 .5.3.8.8.8 1 0 1.4-1.2 1.4-1.4l-.2-.1-.2.1c-.2.8-.6 1.2-1 1.2-.1 0-.2-.1-.2-.4 0-.2 0-.4.2-.6l.3-.7.4-1.2v-.3c0-.4-.3-.8-.8-.8-1 0-1.4 1.3-1.4 1.5h.4c.2-.9.6-1.2 1-1.2.1 0 .2 0 .2.3 0 .2 0 .4-.3 1zM222.8 15.3h2.8c.1 0 .4 0 .4-.2s-.2-.2-.4-.2h-2.8V12s0-.3-.2-.3c-.3 0-.3.2-.3.3V15h-2.8c-.1 0-.4 0-.4.2s.2.2.4.2h2.8v2.9c0 .1 0 .3.3.3.2 0 .2-.2.2-.3zm7-3.8c0-.2 0-.2-.3-.2-.6.5-1.5.6-1.8.6v.3c.2 0 .8 0 1.3-.3v4.8c0 .3 0 .4-1 .4h-.3v.3a48.2 48.2 0 0 1 3.3 0v-.3h-.3c-1 0-1-.1-1-.4zm3-1h-.2v.2c.9.8 1.8 2 1.8 4.4 0 2-.6 3.4-1.6 4.3l-.2.2.1.2c.1 0 1-.7 1.6-1.8.4-.8.7-1.8.7-2.9 0-1.3-.4-3.3-2.2-4.6zM239.4 12.9c0-.9-.3-1.4-.8-1.4-.4 0-.7.3-.7.7 0 .4.3.7.7.7.1 0 .3 0 .5-.2v.2c0 1-.4 1.8-.9 2.2v.4c.2 0 1.2-1 1.2-2.6zM250 4.2V4c0-.2 0-.3-.2-.3s-.3.2-.3.3l-1.1 3h-4l-1.2-3c0-.2-.1-.3-.3-.3-.1 0-.3.1-.3.3l.1.2 3.3 8.7.3.3c.2 0 .3-.1.3-.3zm-5.5 3.3h3.6l-1.8 4.7zM254.4 16.1l-.2-.3c-1.7-1.7-2-4.2-2-6.2 0-2.3.4-4.6 2-6.3l.2-.2-.1-.2c-.1 0-1.3 1-2.1 2.6a9.9 9.9 0 0 0 0 8.2c.8 1.7 2 2.5 2 2.5l.2-.1zM256.4 12.1l-.2.6c0 .2.2.4.4.4s.4-.1.5-.4l.3-1 .3-1.2.2-.9.2-.6c.2-.5.9-1.7 2.1-1.7.6 0 .7.5.7 1 0 .3 0 .7-.2 1l-.3 1.6-.3 1-.2.8c0 .2.2.4.4.4.4 0 .5-.4.6-.8l.8-3.2c0-.2.8-1.8 2.2-1.8.6 0 .7.5.7 1 0 .7-.5 2.2-.8 3l-.2.7c0 .6.5 1 1.1 1 1.3 0 1.8-1.9 1.8-2l-.2-.1-.2.2c-.2.7-.6 1.7-1.4 1.7-.2 0-.3-.2-.3-.5l.3-1c.2-.6.8-2 .8-2.8 0-.9-.6-1.5-1.6-1.5s-1.6.6-2.1 1.3c0-.1 0-.6-.4-1l-1.1-.3c-1.2 0-1.9.9-2.1 1.2 0-.8-.6-1.2-1.2-1.2s-.9.6-1 .8l-.4 1.3.1.1c.2 0 .2 0 .3-.3.2-1 .5-1.6 1-1.6.1 0 .4.1.4.6l-.3 1.2zm13.2.8c0-.9-.4-1.4-.9-1.4-.4 0-.7.3-.7.7 0 .4.3.7.7.7.2 0 .3 0 .5-.2v.2c0 1-.4 1.8-.8 2.2l-.2.2.1.2c.2 0 1.3-1 1.3-2.6zm7-8.3c0-.2-.3-.5-.6-.5s-.7.4-.7.7c0 .3.2.5.5.5s.7-.3.7-.7zm-1 5 .2-.8.2-.7c0-.6-.5-1-1.1-1-1.3 0-1.8 1.9-1.8 2l.2.1.2-.2c.4-1.3.9-1.7 1.3-1.7.1 0 .4 0 .4.5l-.2.6c0 .4-.7 2-.9 2.5l-.3 1c0 .7.5 1.2 1.1 1.2 1.2 0 1.7-2 1.7-2l-.1-.2c-.2 0-.2 0-.2.2-.3.9-.7 1.7-1.4 1.7-.2 0-.3-.2-.3-.5s0-.5.4-1.3zM281.2 9.6c0-1-.2-2.7-.9-4.2-.8-1.6-2-2.5-2-2.5l-.2.2.3.3c1.3 1.3 2 3.4 2 6.2 0 2.3-.5 4.6-2.1 6.3l-.2.2.1.1c.2 0 1.4-.9 2.1-2.6.7-1.4.9-2.9.9-4zM285.2 12.9c0-.9-.3-1.4-.9-1.4-.4 0-.7.3-.7.7 0 .4.3.7.7.7.2 0 .4 0 .5-.2l.1.2c0 1-.5 1.8-.9 2.2l-.1.2v.2c.2 0 1.3-1 1.3-2.6zM292.8 16.1l-.2-.3c-1.7-1.7-2.1-4.2-2.1-6.2 0-2.3.5-4.6 2.1-6.3l.2-.2-.1-.2c-.2 0-1.4 1-2.1 2.6a9.9 9.9 0 0 0 0 8.2c.8 1.7 2 2.5 2 2.5l.2-.1zM294.7 12.1v.6c0 .2.1.4.3.4.2 0 .4-.1.5-.4l.2-1 .3-1.2.3-.9.1-.6c.2-.5 1-1.7 2.2-1.7.6 0 .7.5.7 1 0 .3 0 .7-.2 1l-.3 1.6-.3 1-.2.8c0 .2.2.4.4.4.4 0 .5-.4.6-.8l.8-3.2c0-.2.7-1.8 2.2-1.8.6 0 .7.5.7 1 0 .7-.6 2.2-.8 3l-.2.7c0 .6.5 1 1 1 1.3 0 1.8-1.9 1.8-2l-.1-.1c-.2 0-.2 0-.2.2-.2.7-.6 1.7-1.4 1.7-.2 0-.3-.2-.3-.5l.2-1c.3-.6.9-2 .9-2.8 0-.9-.6-1.5-1.6-1.5s-1.6.6-2.1 1.3c0-.1 0-.6-.5-1-.3-.2-.7-.3-1-.3-1.3 0-1.9.9-2.1 1.2 0-.8-.7-1.2-1.2-1.2-.7 0-.9.6-1 .8-.3.5-.4 1.3-.4 1.3l.1.1c.1 0 .2 0 .2-.3.3-1 .5-1.6 1-1.6.2 0 .4.1.4.6l-.2 1.2zm13.2.8c0-.9-.3-1.4-.8-1.4s-.7.3-.7.7c0 .4.2.7.7.7.1 0 .3 0 .4-.2h.1v.2c0 1-.4 1.8-.9 2.2l-.1.2.1.2c.2 0 1.2-1 1.2-2.6zm7-8.3c0-.2-.2-.5-.5-.5-.4 0-.7.4-.7.7 0 .3.2.5.5.5s.7-.3.7-.7zm-1 5 .3-.8.2-.7c0-.6-.5-1-1.1-1-1.3 0-1.8 1.9-1.8 2l.2.1.2-.2c.3-1.3.9-1.7 1.3-1.7.1 0 .4 0 .4.5l-.2.6-.9 2.5-.3 1c0 .7.4 1.2 1 1.2 1.3 0 1.8-2 1.8-2l-.1-.2c-.2 0-.2 0-.2.2-.3.9-.7 1.7-1.4 1.7-.2 0-.3-.2-.3-.5s0-.5.4-1.3zM324.1 9.9h3.7c.2 0 .4 0 .4-.3s-.2-.3-.4-.3h-3.7V5.6c0-.2 0-.4-.3-.4-.2 0-.2.2-.2.4v3.7h-3.7c-.2 0-.5 0-.5.3s.3.3.5.3h3.7v3.7c0 .2 0 .4.2.4.3 0 .3-.2.3-.4zm11.7-5.5c0-.3 0-.3-.3-.3-.8.8-2 .8-2.4.8v.4c.3 0 1 0 1.8-.3v6.9c0 .4 0 .6-1.3.6h-.4v.4H337.5v-.4h-.4c-1.2 0-1.3-.1-1.3-.6zm6.6 5.2c0-1-.1-2.7-.8-4.2-.8-1.6-2-2.5-2.1-2.5l-.2.2.3.3c1.3 1.3 2 3.4 2 6.2 0 2.3-.4 4.6-2 6.3l-.3.2.2.1c.1 0 1.3-.9 2-2.6.8-1.4 1-2.9 1-4zM354.7 9.9c.2 0 .5 0 .5-.3s-.3-.3-.5-.3h-5.6c.2-1.7 1.7-3 3.6-3h2c.2 0 .5 0 .5-.3s-.3-.3-.5-.3h-2c-2.3 0-4.1 1.8-4.1 3.9a4 4 0 0 0 4 3.8h2.1c.2 0 .5 0 .5-.2 0-.3-.3-.3-.5-.3h-2c-2 0-3.4-1.3-3.6-3zM370 3.7v-.1l-.3.1-.9 1c-.1-.2-.7-1.1-2.2-1.1-3 0-6 2.9-6 6 0 2.2 1.6 3.6 3.7 3.6 1.1 0 2.1-.5 2.8-1.1 1.3-1.1 1.5-2.3 1.5-2.4l-.2-.1-.1.1c-.2.4-.5 1.4-1.4 2.1-.9.8-1.7 1-2.4 1-1.2 0-2.6-.7-2.6-2.8 0-.7.3-2.9 1.6-4.4.8-1 2-1.6 3.2-1.6 1.4 0 2.2 1 2.2 2.5v.7l.1.1c.2 0 .2 0 .2-.2zm0 0"/></g></svg>