<svg xmlns="http://www.w3.org/2000/svg" width="398.6" height="31.4"><g aria-label="∑ (n,j)∈C∪{0} Z(n,j)(m,i),l =∑ (h,k)∈C∪{0} Z(m,i)(h,k),l ∀(m,i)∈C,∀l∈B"><path d="m37 18.6 1.6-4.3h-.3c-.5 1.4-2 2.3-3.5 2.7-.2 0-1.5.4-4 .4h-8l6.7-7.9v-.4L23.3.6h7.3c1.8 0 3 .2 3 .2.8.2 2 .4 3 1 .3.3 1.2.9 1.7 2h.3L37 0H21v.5l7 9.6-6.9 8.1-.1.3h.3zM2.2 22.1A5.6 5.6 0 0 0 0 26.8c0 1.3.4 3.3 2.2 4.6h.2v-.2C1 30 .5 28.5.5 26.8c0-2.5 1-3.7 1.8-4.4v-.1c0-.2 0-.2-.2-.2zM4.2 28.5v.4c0 .2 0 .3.2.3l.4-.2.2-.6.2-.8.1-.6.4-.9c.3-.3.7-.8 1.4-.8.6 0 .6.5.6.6 0 .6-.4 1.6-.6 2l-.1.5c0 .5.4.8.9.8.9 0 1.3-1.3 1.3-1.4l-.1-.1-.2.1c-.2.8-.6 1.1-1 1.1-.2 0-.2 0-.2-.3l.2-.7c.1-.3.5-1.3.5-1.8 0-1-.7-1-1.2-1a2 2 0 0 0-1.6.8c0-.7-.6-.9-1-.9s-.6.3-.7.5l-.4 1h.2l.2-.2c.1-.6.3-1 .7-1 .2 0 .3.2.3.4l-.2.8-.2.8zm7.4.5c0 .5 0 1-.7 1.7v.2c.2 0 1-.7 1-1.8 0-.6-.2-1-.7-1-.3 0-.5.2-.5.5s.2.5.5.5l.4-.1zm5.3-5.7c0-.2-.1-.3-.4-.3-.3 0-.5.2-.5.5 0 .1.1.3.4.3.2 0 .5-.2.5-.5zm-2 6.3c-.1.6-.6 1.2-1.2 1.2l-.3-.1c.2-.1.3-.3.3-.5s-.2-.3-.4-.3c-.3 0-.5.2-.5.5 0 .4.4.6 1 .6.5 0 1.6-.3 1.9-1.5l.8-3.3V26c0-.5-.4-.9-1-.9-1 0-1.6 1.3-1.6 1.4 0 .2.2.2.2.2l.2-.2c.2-.6.7-1.1 1.2-1.1.3 0 .3.1.3.4v.3zM18.6 22.1s-.2 0-.2.2c.9.8 1.8 2 1.8 4.5 0 2-.6 3.4-1.6 4.3l-.2.2.1.1c.1 0 1-.6 1.6-1.7.4-.8.7-1.8.7-3s-.4-3.3-2.2-4.6zM27.7 27c.1 0 .3 0 .3-.2s-.2-.2-.3-.2h-4.3a2.6 2.6 0 0 1 2.7-2.4h1.6c.1 0 .3 0 .3-.2s-.2-.2-.3-.2H26a3.1 3.1 0 0 0-3.1 3 3 3 0 0 0 3.1 3h1.7c.1 0 .3 0 .3-.2s-.2-.2-.3-.2H26c-1.5 0-2.6-1-2.7-2.4zM36.9 22.7l-.1-.1h-.2l-.7.8c0-.1-.6-.8-1.7-.8-2.3 0-4.5 2-4.5 4 0 1.6 1.2 2.7 2.9 2.7.5 0 1.4-.1 2.3-1 .7-.5 1-1.3 1-1.4l-.2-.1-.2.1a3 3 0 0 1-2.8 2c-1 0-2-.5-2-2 0-.2 0-1.7 1-2.8.7-.8 1.7-1.2 2.6-1.2 1 0 1.7.8 1.7 1.8v.4l.1.1c.2 0 .2 0 .2-.2zM43.8 23.9c0-.1 0-.4-.3-.4-.2 0-.2.2-.2.4v3.3c0 .3 0 .8-.8 1.3-.6.3-1.2.3-1.6.3-.8 0-1.4-.2-1.6-.3-.7-.4-.8-.8-.8-1.3V24c0-.1 0-.4-.2-.4-.3 0-.3.2-.3.4v3.3c0 1.6 1.7 2.1 2.9 2.1s2.9-.5 2.9-2zm3.8-.4c0-.2 0-.5.2-.7.3-.3.7-.4 1-.4l.2-.1c0-.2 0-.2-.2-.2-1 0-2 .5-2 1.2v2.2c0 .2 0 .5-.3.8-.2.2-.5.3-1 .4h-.2c0 .2.1.2.2.2 1.1 0 1.3.7 1.3 1V30c0 .2 0 .7.5 1a3 3 0 0 0 1.5.3l.2-.1-.1-.1c-.9 0-1.3-.5-1.3-.8V28c0-.2 0-.6-.3-.8-.1-.2-.3-.4-.9-.5.4-.1 1-.4 1.1-1v-.4zM54.7 26.1c0-1-.1-1.7-.5-2.4a2 2 0 0 0-1.6-.8c-2.2 0-2.2 2.6-2.2 3.2 0 .7 0 3.2 2.2 3.2 2.1 0 2.1-2.5 2.1-3.2zm-2.1 3c-.5 0-1-.3-1.2-1l-.1-2v-2c.3-.7.9-.9 1.3-.9.5 0 1 .3 1.1.9.2.5.2 1.1.2 2l-.1 1.9c-.2.8-.9 1-1.2 1zM58.3 28c0-.2 0-.5.3-.7.2-.2.5-.4 1-.4l.2-.1-.2-.1c-1-.1-1.3-.8-1.3-1v-2.2c0-.2 0-.7-.5-1-.5-.3-1.2-.4-1.5-.4-.1 0-.2 0-.2.2h.2c.8.1 1.2.6 1.2 1v2.2c0 .2 0 .6.3.8l.9.5c-.4 0-1 .3-1.1 1V30c0 .2 0 .5-.3.7-.3.3-.6.3-1 .4l-.2.1.2.1c1 0 2-.4 2-1.1zM72.4 3.9v-.2c0-.2 0-.2-.3-.2h-5.6c-.3 0-.3 0-.4.3l-.7 2.4v.2l.1.1.2-.1C66.2 4.8 66.9 4 69 4H71l-7.4 8.3v.2l.3.1h5.8c.3 0 .3 0 .4-.2l1-3v-.2l-.2-.1-.2.3c-.6 1.8-1.3 2.8-3.5 2.8H65zM75.2 8a5.6 5.6 0 0 0-2.2 4.7c0 1.3.4 3.3 2.2 4.6h.2V17c-1.3-1.1-1.8-2.7-1.8-4.4 0-2.5 1-3.7 1.8-4.4v-.1c0-.2 0-.2-.2-.2zM77.2 14.4v.4c0 .2.1.3.3.3l.3-.2.2-.6.2-.8.1-.6.4-.9c.3-.3.7-.8 1.4-.8.6 0 .6.5.6.6 0 .6-.4 1.6-.6 2l-.1.5c0 .5.4.8.9.8.9 0 1.3-1.3 1.3-1.4l-.1-.1-.2.1c-.2.8-.6 1.1-1 1.1-.2 0-.2 0-.2-.3l.2-.7c.1-.3.5-1.3.5-1.8 0-1-.7-1-1.2-1a2 2 0 0 0-1.6.8c0-.7-.6-.9-1-.9s-.6.3-.7.5l-.4 1h.2l.2-.2c.1-.6.3-1 .7-1 .2 0 .3.2.3.4l-.2.8-.2.8zm7.4.5c0 .5 0 1-.7 1.7v.2c.2 0 1-.7 1-1.8 0-.6-.2-1-.7-1-.3 0-.5.2-.5.5s.2.5.5.5l.4-.1zM90 9.2c0-.2-.1-.3-.4-.3-.2 0-.5.2-.5.5 0 .1.1.3.4.3.2 0 .5-.2.5-.5zm-2 6.3c-.1.6-.6 1.2-1.2 1.2l-.3-.1c.2-.1.3-.3.3-.5s-.2-.3-.4-.3c-.3 0-.5.2-.5.5 0 .4.4.6 1 .6.5 0 1.6-.3 1.9-1.5l.8-3.3v-.3c0-.5-.4-.9-1-.9-1 0-1.6 1.3-1.6 1.4 0 .2.2.2.2.2l.2-.2c.2-.5.7-1.1 1.2-1.1.3 0 .3.1.3.4v.3zM91.6 8s-.2 0-.2.2l.1.1c.8.7 1.7 2 1.7 4.4 0 2-.6 3.4-1.6 4.3l-.2.2.1.1c.1 0 1-.6 1.6-1.7.4-.8.7-1.8.7-3s-.4-3.3-2.2-4.6zm6.6 0a5.6 5.6 0 0 0-2.2 4.7c0 1.3.3 3.3 2.2 4.6h.2l-.1-.2c-1.2-1.1-1.7-2.7-1.7-4.4 0-2.5 1-3.7 1.7-4.4v-.1l-.1-.2zM103 14.3v.5c0 .2.1.3.3.3l.3-.2.2-.6a17.1 17.1 0 0 0 .4-1.4c0-.4 0-.4.3-.7.3-.5.7-1 1.4-1 .6 0 .6.4.6.6 0 .6-.4 1.6-.6 2l-.1.5c0 .5.4.8.9.8 1 0 1.3-1.3 1.3-1.4l-.1-.1-.2.1c-.2.8-.6 1.1-1 1.1-.2 0-.2 0-.2-.3l.2-.7c.1-.3.5-1.3.5-1.8 0-.2 0-.6-.4-.8-.1-.2-.4-.3-.8-.3-.9 0-1.4.6-1.7 1 0-.8-.7-1-1.2-1a2 2 0 0 0-1.5.9c-.1-.7-.7-.9-1-.9-.4 0-.7.3-.8.5l-.3 1h.1c.2 0 .2 0 .2-.2.2-.6.4-1 .7-1 .3 0 .3.2.3.4l-.1.8-.2.8-.3 1.2-.1.4c0 .2.2.3.3.3l.4-.2.1-.6.2-.8.2-.6c.1-.4.1-.5.4-.9.3-.3.7-.8 1.4-.8.5 0 .5.5.5.6l-.1.9zm7.4.6c0 .5 0 1-.7 1.7v.2c.2 0 1-.7 1-1.8 0-.6-.2-1-.7-1-.3 0-.5.2-.5.5s.2.5.5.5l.4-.1zm4.2-5.7c0-.1 0-.3-.3-.3s-.6.2-.6.5c0 .1.2.3.4.3.3 0 .5-.2.5-.5zm-1.9 4.7v.4c0 .4.3.8.8.8 1 0 1.4-1.3 1.4-1.4l-.2-.1-.2.1c-.2.8-.6 1.1-1 1.1-.1 0-.2 0-.2-.3l.2-.6.3-.7.4-1.2v-.3c0-.4-.3-.8-.8-.8-1 0-1.3 1.3-1.3 1.4l.1.2c.1 0 .2 0 .2-.2.2-.8.6-1.1 1-1.1.1 0 .2 0 .2.3 0 .2 0 .4-.3 1zM116.2 8s-.2 0-.2.2l.1.1c.8.7 1.7 2 1.7 4.4 0 2-.6 3.4-1.6 4.3l-.2.2.2.1s1-.6 1.6-1.7c.4-.8.7-1.8.7-3s-.4-3.3-2.3-4.6zM121.5 14.9c0 .5 0 1-.7 1.7v.2c.2 0 1-.7 1-1.8 0-.6-.3-1-.7-1-.3 0-.5.2-.5.5s.2.5.5.5l.4-.1zm3.8-6V8.5H124s-.2 0-.2.3l.3.1.4.1v.2l-1.2 4.6v.3c0 .6.5 1 1 1 .2 0 .4-.2.7-.6.2-.3.3-.9.3-1h-.1c-.2 0-.2 0-.2.2-.1.4-.3 1-.7 1-.3 0-.3-.2-.3-.4V14zM139.6 8.3c.2 0 .4 0 .4-.3s-.2-.3-.4-.3h-8c-.1 0-.4 0-.4.3s.3.3.5.3zm0 2.6c.2 0 .4 0 .4-.3s-.2-.3-.4-.3h-8c-.1 0-.4 0-.4.3s.3.3.4.3zM182.9 18.6l1.6-4.3h-.4c-.5 1.4-1.9 2.3-3.4 2.7-.3 0-1.6.4-4.2.4h-8l6.8-7.9.1-.2v-.2L169 .6h7.3c1.8 0 3 .2 3.1.2.7.2 2 .4 3 1 .3.3 1.2.9 1.6 2h.4L182.9 0H166.8v.5l7 9.6-6.9 8.1-.1.3h.4zM147.8 22.1a5.6 5.6 0 0 0-2.3 4.7c0 1.3.4 3.3 2.3 4.6h.2l-.1-.2c-1.3-1.1-1.7-2.7-1.7-4.4 0-2.5 1-3.7 1.7-4.4v-.1l-.1-.2zM151.5 23V22.6h-1.3s-.2 0-.2.3l.3.1.4.1v.2l-1.3 5.3v.2c0 .2 0 .3.3.3 0 0 .2 0 .3-.2l.2-.6.2-.8.2-.7.2-.6c.3-.5.8-1 1.5-1 .5 0 .6.4.6.6 0 .6-.4 1.6-.6 2l-.1.5c0 .5.4.8.9.8.9 0 1.3-1.3 1.3-1.4l-.2-.1-.1.1c-.2.8-.7 1.1-1 1.1-.2 0-.2 0-.2-.3l.2-.7c0-.3.5-1.3.5-1.8 0-.2 0-.6-.4-.8-.1-.2-.4-.3-.8-.3a2 2 0 0 0-1.6.8zm5.3 6c0 .5 0 1-.7 1.7v.2c.2 0 1-.7 1-1.8 0-.6-.3-1-.7-1-.3 0-.5.2-.5.5s.2.5.5.5l.4-.1zm4.1-6v-.2l-.1-.1h-1.2s-.2 0-.2.3l.2.1.5.1v.2l-1.3 5.3-.1.2c0 .2.1.3.3.3.3 0 .4-.2.4-.4l.5-1.8c.7 0 1.2.3 1.2.8v.5c0 .6.5 1 1 1 .8 0 1.1-1.5 1.1-1.5l-.2-.1-.1.2c-.1.4-.4 1-.9 1-.2 0-.3-.2-.3-.4V28l.1-.3c0-.9-1.1-1-1.5-1l.8-.6c.5-.5 1-1 1.4-1l.4.2c-.4 0-.5.4-.5.5 0 .2.1.4.3.4.3 0 .6-.2.6-.6 0-.3-.3-.7-.7-.7-.6 0-1 .4-1.5.8-.4.4-.7.7-1.1.8zM164.7 22.1s-.2 0-.2.2h.1c.8.8 1.7 2 1.7 4.5 0 2-.6 3.4-1.6 4.3l-.2.2.2.1s1-.6 1.6-1.7c.4-.8.6-1.8.6-3s-.3-3.3-2.2-4.6zM173.8 27c.2 0 .4 0 .4-.2s-.2-.2-.4-.2h-4.3a2.6 2.6 0 0 1 2.7-2.4h1.6c.2 0 .4 0 .4-.2s-.2-.2-.4-.2h-1.6a3.1 3.1 0 0 0-3.2 3 3 3 0 0 0 3.2 3h1.6c.2 0 .4 0 .4-.2s-.2-.2-.4-.2h-1.6c-1.4 0-2.6-1-2.7-2.4zM183 22.7v-.1h-.3l-.6.8c-.1-.1-.6-.8-1.8-.8-2.2 0-4.5 2-4.5 4 0 1.6 1.2 2.7 2.9 2.7.5 0 1.4-.1 2.4-1 .7-.5.9-1.3.9-1.4l-.2-.1-.1.1a3 3 0 0 1-2.9 2c-1 0-2-.5-2-2 0-.2 0-1.7 1.1-2.8.7-.8 1.6-1.2 2.5-1.2 1 0 1.7.8 1.7 1.8v.4l.2.1.2-.2zM189.9 23.9c0-.1 0-.4-.2-.4-.3 0-.3.2-.3.4v3.3c0 .3 0 .8-.7 1.3-.6.3-1.3.3-1.7.3-.8 0-1.4-.2-1.6-.3-.7-.4-.8-.8-.8-1.3V24c0-.1 0-.4-.2-.4s-.2.2-.2.4v3.3c0 1.6 1.6 2.1 2.8 2.1 1.2 0 2.9-.5 2.9-2zm3.8-.4c0-.2 0-.5.3-.7.3-.3.6-.4 1-.4l.2-.1c0-.2-.1-.2-.3-.2-1 0-2 .5-2 1.2v2.2c0 .2 0 .5-.2.8l-1 .4h-.2l.1.2c1.2 0 1.4.7 1.4 1V30c0 .2 0 .7.5 1a3 3 0 0 0 1.4.3l.3-.1-.2-.1c-.9 0-1.2-.5-1.3-.8V28c0-.2 0-.6-.3-.8 0-.2-.3-.4-.8-.5.4-.1 1-.4 1-1v-.4zM200.9 26.1c0-1-.2-1.7-.6-2.4a2 2 0 0 0-1.6-.8c-2.2 0-2.2 2.6-2.2 3.2 0 .7 0 3.2 2.2 3.2s2.2-2.5 2.2-3.2zm-2.2 3c-.4 0-1-.3-1.2-1l-.1-2 .1-2c.2-.7.8-.9 1.2-.9.5 0 1 .3 1.2.9l.1 2-.1 1.9c-.2.8-.8 1-1.2 1zM204.4 28c0-.2 0-.5.3-.7.3-.2.6-.4 1-.4l.2-.1-.2-.1c-1-.1-1.3-.8-1.3-1v-2.2c0-.2 0-.7-.5-1-.5-.3-1.2-.4-1.4-.4-.2 0-.3 0-.3.2h.2c.9.1 1.2.6 1.3 1v2.2c0 .2 0 .6.2.8l1 .5c-.5 0-1 .3-1.2 1V30c0 .2 0 .5-.3.7-.3.3-.6.3-1 .4l-.2.1.3.1c1 0 2-.4 2-1.1zM218.6 3.9v-.2c0-.2 0-.2-.3-.2h-5.6c-.3 0-.4 0-.4.3l-.8 2.4v.2l.2.1.1-.1c.5-1.6 1.2-2.4 3.3-2.4h2.2l-7.5 8.3v.2l.3.1h5.8c.3 0 .3 0 .4-.2l1-3v-.2l-.2-.1-.2.3c-.6 1.8-1.2 2.8-3.5 2.8h-2.2zM221.4 8a5.6 5.6 0 0 0-2.3 4.7c0 1.3.4 3.3 2.3 4.6h.2l-.1-.2c-1.3-1.1-1.7-2.7-1.7-4.4 0-2.5 1-3.7 1.7-4.4v-.1l-.1-.2zM226.3 14.3l-.2.5c0 .2.2.3.3.3l.4-.2.2-.6.2-.8.1-.6.3-.7c.3-.5.8-1 1.5-1 .5 0 .6.4.6.6 0 .6-.4 1.6-.6 2l-.1.5c0 .5.4.8.9.8.9 0 1.3-1.3 1.3-1.4l-.1-.1-.2.1c-.2.8-.6 1.1-1 1.1-.2 0-.2 0-.2-.3l.2-.7c0-.3.5-1.3.5-1.8 0-.2 0-.6-.4-.8-.1-.2-.4-.3-.8-.3-.9 0-1.4.6-1.7 1 0-.8-.7-1-1.2-1a2 2 0 0 0-1.6.9c0-.7-.6-.9-1-.9s-.6.3-.7.5l-.3 1h.1c.1 0 .2 0 .2-.2.2-.6.3-1 .7-1 .2 0 .3.2.3.4l-.1.8-.2.8-.3 1.2-.1.4c0 .2.1.3.3.3.2 0 .3-.1.3-.2l.2-.6.2-.8.2-.6c0-.4.1-.5.4-.9.2-.3.7-.8 1.4-.8.5 0 .5.5.5.6l-.1.9zm7.3.6c0 .5 0 1-.7 1.7v.2c.2 0 1-.7 1-1.8 0-.6-.2-1-.7-1-.3 0-.5.2-.5.5s.2.5.5.5l.4-.1zm4.2-5.7c0-.1 0-.3-.4-.3-.2 0-.5.2-.5.5 0 .1.1.3.4.3.3 0 .5-.2.5-.5zm-1.9 4.7v.4c0 .4.3.8.8.8 1 0 1.4-1.3 1.4-1.4l-.2-.1-.2.1c-.2.8-.6 1.1-1 1.1-.1 0-.2 0-.2-.3 0-.2 0-.4.2-.6l.3-.7.4-1.2v-.3c0-.4-.3-.8-.8-.8-1 0-1.4 1.3-1.4 1.4 0 .2.2.2.2.2l.2-.2c.2-.8.6-1.1 1-1.1.1 0 .2 0 .2.3 0 .2 0 .4-.3 1zM239.4 8s-.2 0-.2.2l.1.1c.8.7 1.7 2 1.7 4.4 0 2-.6 3.4-1.6 4.3l-.2.2.2.1s1-.6 1.6-1.7c.4-.8.6-1.8.6-3s-.4-3.3-2.2-4.6zm6.6 0a5.6 5.6 0 0 0-2.2 4.7c0 1.3.4 3.3 2.2 4.6h.2V17c-1.3-1.1-1.8-2.7-1.8-4.4 0-2.5 1-3.7 1.7-4.4l.1-.1c0-.2-.1-.2-.2-.2zM249.8 8.8v-.1l-.1-.1h-1.2s-.2 0-.2.3l.2.1.5.1v.2l-1.4 5.3v.2c0 .2 0 .3.3.3 0 0 .3 0 .4-.2l.1-.6.2-.8.2-.7c0-.3 0-.3.3-.6.3-.5.7-1 1.5-1 .5 0 .5.4.5.6 0 .6-.4 1.6-.5 2l-.2.5c0 .5.4.8.9.8 1 0 1.3-1.3 1.3-1.4l-.1-.1-.2.1c-.2.8-.6 1.1-1 1.1-.2 0-.2 0-.2-.3l.2-.7c.1-.3.5-1.3.5-1.8 0-.2 0-.6-.3-.8-.2-.2-.5-.3-1-.3a2 2 0 0 0-1.4.8zm5.3 6c0 .6-.1 1.2-.8 1.8v.2c.2 0 1-.7 1-1.8 0-.6-.2-1-.6-1-.3 0-.6.2-.6.5s.2.5.6.5l.4-.1zm4-6v-.2h-1.3s-.2 0-.2.3l.3.1.4.1v.2l-1.3 5.3v.2c0 .2 0 .3.3.3.2 0 .3-.2.4-.4l.4-1.8c.7 0 1.2.3 1.2.8v.5c0 .6.5 1 1 1 .9 0 1.1-1.5 1.1-1.5l-.1-.1c-.1 0-.2 0-.2.2-.1.4-.4 1-.8 1-.3 0-.3-.2-.3-.4v-.7c0-.9-1-1-1.4-1l.7-.6c.5-.5 1-1 1.5-1l.3.2c-.4 0-.5.4-.5.5 0 .2.2.4.4.4s.5-.2.5-.6c0-.3-.2-.7-.7-.7-.5 0-1 .4-1.5.8-.4.4-.7.7-1 .8zM263 8c-.1 0-.2 0-.2.2v.1c.9.7 1.8 2 1.8 4.4 0 2-.7 3.4-1.7 4.3l-.1.2.1.1c.1 0 1-.6 1.6-1.7.4-.8.7-1.8.7-3s-.4-3.3-2.2-4.6zM268.2 14.9c0 .5 0 1-.7 1.7v.2c.2 0 1-.7 1-1.8 0-.6-.2-1-.7-1-.3 0-.5.2-.5.5s.2.5.5.5l.4-.1zm3.8-6V8.5h-1.3s-.2 0-.2.3l.3.1.4.1v.2L270 14v.3c0 .6.5 1 1 1 .2 0 .5-.2.7-.6.2-.3.3-.9.3-1h-.1l-.2.2c-.1.4-.3 1-.7 1-.2 0-.3-.2-.3-.4V14zM294.1 3.9v-.2c0-.2 0-.3-.2-.3s-.3.2-.3.3l-1.1 3h-4l-1.1-3-.3-.3c-.2 0-.3.1-.3.3v.2l3.4 8.7c0 .2.1.3.3.3.2 0 .2-.1.3-.3zm-5.4 3.3h3.6l-1.8 4.7zM298.6 15.8l-.3-.3c-1.6-1.7-2-4.2-2-6.2 0-2.3.5-4.6 2-6.3l.3-.2c0-.1 0-.2-.2-.2-.1 0-1.3 1-2 2.6-.8 1.5-1 3-1 4 0 1.1.2 2.7 1 4.2.7 1.7 1.9 2.5 2 2.5l.2-.1zM300.5 11.8l-.1.6c0 .2.2.4.4.4.1 0 .4-.1.5-.4l.2-1 .3-1.2.2-.9.2-.6c.2-.5.9-1.7 2.2-1.7.6 0 .7.5.7 1l-.2 1-.4 1.6-.2 1-.2.8c0 .2.2.4.4.4.4 0 .5-.4.6-.8l.7-3.2c0-.2.8-1.8 2.3-1.8.5 0 .7.5.7 1 0 .7-.6 2.2-.9 3l-.1.7c0 .6.4 1 1 1 1.3 0 1.8-1.9 1.8-2l-.2-.1-.2.2c-.2.7-.6 1.7-1.3 1.7-.2 0-.3-.2-.3-.5s0-.6.2-1c.3-.6.8-2 .8-2.8 0-.9-.5-1.5-1.5-1.5s-1.7.6-2.2 1.3c0-.1 0-.6-.4-1-.3-.2-.8-.3-1-.3-1.3 0-2 .9-2.2 1.2 0-.8-.6-1.2-1.2-1.2s-.8.6-1 .8l-.4 1.3.2.1.2-.3c.2-1 .5-1.6 1-1.6.2 0 .4.1.4.6l-.2 1.2zm13.2.8c0-.9-.3-1.4-.9-1.4-.4 0-.7.3-.7.7 0 .4.3.7.7.7.2 0 .4 0 .5-.2l.1.2c0 1-.5 1.8-1 2.2v.4c.2 0 1.3-1 1.3-2.6zm7-8.3c0-.2-.2-.5-.5-.5-.4 0-.8.4-.8.7 0 .3.2.5.5.5.4 0 .7-.3.7-.7zm-1 5 .2-.8.2-.7c0-.6-.4-1-1-1-1.3 0-1.8 1.9-1.8 2l.1.1c.2 0 .2 0 .2-.2.4-1.3 1-1.7 1.4-1.7 0 0 .3 0 .3.5l-.1.6-1 2.5c0 .4-.3.8-.3 1 0 .7.5 1.2 1.1 1.2 1.3 0 1.8-2 1.8-2 0-.2-.2-.2-.2-.2l-.2.2c-.2.9-.7 1.7-1.3 1.7-.3 0-.4-.2-.4-.5l.4-1.3zM325.3 9.3c0-1-.1-2.7-.9-4.2-.8-1.6-2-2.5-2-2.5l-.2.2.3.3c1.3 1.3 2 3.4 2 6.2 0 2.3-.4 4.6-2 6.3l-.3.2.2.1s1.3-.9 2-2.5c.7-1.5 1-3 1-4.1zM337.6 9.6c.2 0 .5 0 .5-.3s-.3-.3-.5-.3H332c.1-1.7 1.7-3 3.5-3h2.1c.2 0 .5 0 .5-.3s-.3-.3-.5-.3h-2c-2.4 0-4.2 1.8-4.2 3.9a4 4 0 0 0 4.1 3.8h2.1c.2 0 .5 0 .5-.2 0-.3-.3-.3-.5-.3h-2c-2 0-3.5-1.3-3.6-3zM353 3.4l-.2-.1-.2.1-1 1c0-.2-.6-1.1-2.1-1.1-3 0-6 2.9-6 6 0 2.2 1.6 3.6 3.6 3.6 1.2 0 2.2-.5 2.9-1.1 1.2-1.1 1.5-2.3 1.5-2.4l-.2-.1-.2.1c0 .4-.4 1.4-1.3 2.1-1 .8-1.8 1-2.5 1-1.1 0-2.6-.7-2.6-2.8 0-.7.3-2.9 1.7-4.4.8-1 2-1.6 3.2-1.6 1.4 0 2.1 1 2.1 2.5V7l.2.1c.2 0 .2 0 .2-.2zm2.3 9.2c0-.9-.4-1.4-.9-1.4-.4 0-.7.3-.7.7 0 .4.3.7.7.7.2 0 .3 0 .5-.2v.2c0 1-.4 1.8-.8 2.2l-.2.2.1.2c.2 0 1.3-1 1.3-2.6zM368 3.9v-.2c0-.2 0-.3-.2-.3l-.3.3-1 3h-4.1l-1.1-3-.3-.3c-.2 0-.3.1-.3.3v.2l3.4 8.7c0 .2.1.3.3.3.2 0 .2-.1.3-.3zm-5.4 3.3h3.6l-1.8 4.7zM371.5 3.5l-.2-.1-1.6.1s-.2 0-.2.3c0 .2 0 .2.3.2.6 0 .6 0 .6.2v.2l-1.7 6.7v.4c0 .8.6 1.3 1.2 1.3.4 0 .7-.3 1-.8l.4-1.3-.2-.1-.2.2c-.2.9-.5 1.7-1 1.7-.4 0-.4-.5-.4-.6v-.7zM383.3 9.6c.2 0 .4 0 .4-.3s-.2-.3-.4-.3h-5.7c.2-1.7 1.7-3 3.6-3h2c.3 0 .5 0 .5-.3s-.2-.3-.4-.3h-2.1c-2.3 0-4.1 1.8-4.1 3.9a4 4 0 0 0 4 3.8h2.2c.2 0 .4 0 .4-.2 0-.3-.2-.3-.4-.3h-2.1c-1.9 0-3.4-1.3-3.6-3zM390.7 11.6c-.2.5-.2.6-1.2.6-.3 0-.4 0-.4.3l.4.1h4.7c2 0 3.7-1.5 3.7-2.9 0-1-.8-1.7-2.1-1.8 1.4-.3 2.8-1.3 2.8-2.5 0-1-.9-1.9-2.5-1.9h-4.5c-.2 0-.3 0-.3.3 0 .2 0 .2.3.2h.5c.3 0 .4 0 .4.2v.2zm2-3.8.8-3.3c.1-.5.1-.5.7-.5h1.7c1.2 0 1.5.7 1.5 1.3 0 1.2-1.2 2.5-2.8 2.5zm-.6 4.4h-.3l-.2-.1v-.3l1-3.7h2.5c1.3 0 1.5 1 1.5 1.5 0 1.3-1.2 2.6-2.7 2.6zm0 0"/></g></svg>