<svg xmlns="http://www.w3.org/2000/svg" width="234.9" height="19.8"><g aria-label="T Q(n,j) ≥T Q(m,i) +G Q(m,i) ,∀(m,i,n,j)∈ψ 1"><path d="M5.4 4.9c0-.4.1-.5.3-.5h.8c1.3 0 2 0 2 1l-.2 1v.3c0 .1 0 .2.2.2l.2-.3.3-2.3V4c0-.2 0-.2-.3-.2H1.3C1 4 1 4 1 4.2L0 6.5l-.1.3.2.1.2-.3c.7-2 1-2.3 3-2.3H4c.4 0 .4 0 .4.2v.3l-1.8 7c-.1.6-.2.7-1.6.7-.5 0-.6 0-.6.3l.3.1H5c.2 0 .3 0 .3-.3H5l-.9-.1c-.4 0-.5-.1-.5-.3v-.3zM13.6 7c0 .7.1 1.3.9 1.3 1.1 0 1.7-1.6 1.7-1.8H16c-.3.7-1 .9-1.3.9-.3 0-.5-.2-.7-1 1.7-.5 3-2.2 3-3.8C17 1 16 0 14.3 0 12.1 0 10 2 10 4.2c0 1.5 1.1 2.5 2.7 2.5l1-.1zM12 6.4c-.5-.2-1.2-.7-1.2-1.9 0-.6.2-1.8 1-2.9.7-.7 1.6-1.2 2.4-1.2 1 0 2 .7 2 2 0 1-.6 3-2.2 3.8-.2-.6-.4-1-1-1-.5 0-1 .5-1 1v.2zm1.6 0-.9.1c-.1 0-.5 0-.5-.3 0-.4.4-.7.8-.7.3 0 .6.1.6.9zM10.7 10.5A5.6 5.6 0 0 0 8.5 15c0 1.3.4 3.4 2.2 4.7.1 0 .2 0 .2-.2v-.1c-1.3-1.1-1.7-2.7-1.7-4.4 0-2.5 1-3.7 1.7-4.4v-.1l-.2-.1zM12.7 16.9v.3c0 .2.1.3.3.3.1 0 .3 0 .3-.2l.2-.5.2-.9.2-.6c0-.4 0-.5.3-.8.3-.4.7-1 1.4-1 .6 0 .6.6.6.8 0 .5-.4 1.5-.6 2l-.1.4c0 .5.4.8.9.8.9 0 1.3-1.2 1.3-1.4l-.1-.1-.2.1c-.2.8-.6 1.2-1 1.2-.2 0-.2-.2-.2-.4l.2-.7c.1-.3.5-1.3.5-1.8 0-.9-.7-1-1.2-1a2 2 0 0 0-1.6.8c0-.7-.6-.9-1-.9s-.6.3-.7.5l-.4 1h.2l.2-.2c.1-.6.3-1 .7-1 .2 0 .3.2.3.4l-.2.8-.2.9zm7.4.4c0 .5 0 1-.7 1.7v.2c.2 0 1-.7 1-1.8 0-.6-.2-1-.7-1-.3 0-.5.2-.5.5s.2.5.5.5l.4-.1zm5.3-5.7c0-.1-.1-.3-.4-.3-.2 0-.5.2-.5.5 0 .1.1.3.4.3.2 0 .5-.2.5-.5zm-2 6.3c-.1.6-.6 1.2-1.2 1.2H22l.3-.6c0-.2-.2-.3-.3-.3-.3 0-.6.3-.6.6s.4.5 1 .5c.5 0 1.6-.3 1.9-1.4l.8-3.4v-.3c0-.5-.4-.9-1-.9-1 0-1.6 1.3-1.6 1.5h.4c.2-.6.7-1.2 1.2-1.2.3 0 .4.2.4.4v.3zM27.1 10.5h-.2l.1.2c.8.8 1.7 2 1.7 4.4 0 2-.6 3.4-1.6 4.3l-.2.2.1.2c.1 0 1-.7 1.6-1.8.5-.8.7-1.8.7-2.9 0-1.3-.4-3.3-2.2-4.6zM43.7 8.6c.2 0 .3-.2.3-.3 0-.1 0-.2-.3-.3l-7.3-3.4-.3-.1c-.1 0-.2 0-.2.2s0 .3.2.3l7 3.3-7 3.3c-.2.1-.2.2-.2.3 0 .1 0 .3.2.3l.3-.1zm-.2 6.1c.2 0 .5 0 .5-.2 0-.3-.3-.3-.5-.3h-7.2c-.2 0-.4 0-.4.3 0 .2.2.2.4.2zM54.5 4.9c0-.4 0-.5.3-.5h.8c1.3 0 2 0 2 1l-.2 1v.3l.1.2c.2 0 .2-.1.2-.3l.4-2.3V4c0-.2-.1-.2-.3-.2h-7.4c-.3 0-.3 0-.4.3l-.8 2.3-.1.3.2.1.2-.3c.7-2 1-2.3 3-2.3h.5c.4 0 .4 0 .4.2v.3l-1.8 7c-.1.6-.2.7-1.6.7-.5 0-.6 0-.6.3l.3.1H54c.2 0 .3 0 .3-.3H54l-.9-.1c-.4 0-.5-.1-.5-.3v-.3zM62.7 7c0 .7.1 1.3.9 1.3 1.1 0 1.7-1.6 1.7-1.8H65c-.2.7-.8.9-1.2.9-.3 0-.5-.2-.7-1 1.7-.5 3-2.2 3-3.8C66 1 65 0 63.4 0 61.2 0 59 2 59 4.2c0 1.5 1.1 2.5 2.7 2.5l1-.1zm-1.6-.7c-.5-.2-1.2-.7-1.2-1.9 0-.6.2-1.8 1-2.9.7-.7 1.6-1.2 2.4-1.2 1 0 1.9.7 1.9 2 0 1-.5 3-2.2 3.8-.1-.6-.3-1-1-1-.4 0-1 .5-1 1l.1.2zm1.6 0-.9.1c-.1 0-.5 0-.5-.3 0-.4.4-.7.8-.7.3 0 .6.1.6.9zM59.8 10.5a5.6 5.6 0 0 0-2.2 4.6c0 1.3.4 3.4 2.2 4.7.1 0 .2 0 .2-.2v-.1c-1.3-1.1-1.8-2.7-1.8-4.4 0-2.5 1-3.7 1.8-4.4v-.1l-.2-.1zM64.7 16.7l-.1.5c0 .2.2.3.3.3.2 0 .3 0 .4-.2l.1-.5a17.1 17.1 0 0 0 .4-1.5l.3-.7c.3-.5.8-1 1.5-1 .5 0 .5.4.5.7 0 .5-.4 1.5-.5 2l-.2.4c0 .5.5.8 1 .8.9 0 1.3-1.2 1.3-1.4l-.2-.1-.2.1c-.2.8-.6 1.2-1 1.2l-.2-.4.2-.7c.1-.3.5-1.3.5-1.8 0-.1 0-.5-.3-.8-.2-.1-.4-.3-.9-.3-.8 0-1.3.6-1.6 1-.1-.8-.8-1-1.2-1a2 2 0 0 0-1.6.9c0-.7-.6-.9-1-.9s-.6.3-.7.5l-.4 1h.2l.2-.2c.1-.6.3-1 .7-1 .2 0 .3.2.3.4l-.2.8-.2.9-.3 1.2v.3c0 .2.1.3.3.3.1 0 .3 0 .3-.2l.2-.5.2-.9.1-.6.4-.8c.3-.4.7-1 1.4-1 .6 0 .6.6.6.8l-.2.8zm7.4.6c0 .5-.1 1-.8 1.7v.1l.1.1c.2 0 1-.7 1-1.8 0-.6-.3-1-.7-1-.3 0-.5.2-.5.5s.2.5.5.5l.4-.1zm4.2-5.7c0-.1-.1-.3-.4-.3-.2 0-.5.2-.5.5 0 .1.1.3.3.3.3 0 .6-.2.6-.5zm-2 4.7v.4c0 .5.4.8.9.8 1 0 1.3-1.2 1.3-1.4l-.1-.1-.2.1c-.2.8-.6 1.2-1 1.2-.2 0-.2-.1-.2-.4l.1-.6.3-.7.5-1.2v-.3c0-.4-.3-.8-.9-.8-.9 0-1.3 1.3-1.3 1.5H74c.3-.9.7-1.2 1-1.2.2 0 .2 0 .2.3l-.2 1zM77.9 10.5h-.2v.2c.9.8 1.8 2 1.8 4.4 0 2-.6 3.4-1.6 4.3l-.2.2.1.2c.1 0 1-.7 1.6-1.8.4-.8.7-1.8.7-2.9 0-1.3-.4-3.3-2.2-4.6zM90.2 9.9H94c.2 0 .5 0 .5-.3s-.3-.3-.5-.3h-3.7V5.6c0-.2 0-.4-.2-.4-.3 0-.3.2-.3.4v3.7H86c-.2 0-.4 0-.4.3s.2.3.4.3h3.7v3.7c0 .2 0 .4.3.4.2 0 .2-.2.2-.4zM108.2 3.7l-.2-.1-.2.1-.9 1c-.1-.2-.7-1.1-2.2-1.1-3 0-6 2.9-6 6 0 2 1.5 3.6 3.7 3.6.6 0 1.2-.1 1.6-.3.7-.3 1-.6 1.2-.8l.6.8.3-.9.3-1 .1-.7c.2-.6.2-.6 1-.6 0 0 .2 0 .2-.3l-.2-.1h-3.3s-.2 0-.2.3l.4.1h.7c.3 0 .4.1.4.3l-.3 1.2c-.4 1.4-2.1 1.6-2.6 1.6-1.2 0-2.6-.8-2.6-2.8 0-.4 0-2.6 1.5-4.3.7-1 2-1.7 3.3-1.7 1.4 0 2.1 1 2.1 2.5v.7l.2.1c.2 0 .2 0 .2-.2zM112.9 7c0 .7 0 1.3.8 1.3 1.2 0 1.7-1.6 1.7-1.8H115.1c-.2.7-.8.9-1.1.9-.4 0-.6-.2-.8-1 1.7-.5 3-2.2 3-3.8 0-1.5-1-2.6-2.7-2.6-2.2 0-4.3 2-4.3 4.2 0 1.5 1 2.5 2.7 2.5l1-.1zm-1.7-.7c-.4-.2-1.1-.7-1.1-1.9 0-.6.2-1.8 1-2.9.6-.7 1.5-1.2 2.4-1.2 1 0 1.8.7 1.8 2 0 1-.4 3-2.1 3.8-.2-.6-.4-1-1-1-.5 0-1 .5-1 1v.2zm1.7 0-1 .1c-.1 0-.4 0-.4-.3 0-.4.3-.7.7-.7.4 0 .6.1.7.9zM111.8 10.5a5.6 5.6 0 0 0-2.2 4.6c0 1.3.4 3.4 2.2 4.7.1 0 .2 0 .2-.2v-.1c-1.3-1.1-1.8-2.7-1.8-4.4 0-2.5 1-3.7 1.8-4.4v-.1l-.2-.1zM116.7 16.7l-.1.5c0 .2.2.3.3.3.2 0 .3 0 .4-.2l.1-.5a17.1 17.1 0 0 0 .4-1.5l.3-.7c.3-.5.7-1 1.5-1 .5 0 .5.4.5.7 0 .5-.4 1.5-.5 2l-.2.4c0 .5.4.8.9.8 1 0 1.3-1.2 1.3-1.4V16l-.3.1c-.2.8-.6 1.2-1 1.2-.2 0-.2-.2-.2-.4l.2-.7c.1-.3.5-1.3.5-1.8 0-.1 0-.5-.3-.8-.2-.1-.5-.3-.9-.3-.8 0-1.3.6-1.6 1-.1-.8-.8-1-1.2-1a2 2 0 0 0-1.6.9c0-.7-.6-.9-1-.9s-.6.3-.8.5l-.3 1h.2l.2-.2c.1-.6.3-1 .7-1 .2 0 .3.2.3.4l-.2.8-.2.9-.3 1.2v.3c0 .2 0 .3.2.3s.4 0 .4-.2l.2-.5.2-.9.1-.6.4-.8c.3-.4.7-1 1.4-1 .6 0 .6.6.6.8l-.2.8zm7.4.6c0 .5-.1 1-.8 1.7v.1l.1.1c.1 0 1-.7 1-1.8 0-.6-.3-1-.7-1-.3 0-.6.2-.6.5s.3.5.6.5l.4-.1zm4.2-5.7c0-.1-.1-.3-.4-.3-.3 0-.5.2-.5.5 0 .1 0 .3.3.3s.6-.2.6-.5zm-2 4.7v.4c0 .5.4.8.9.8.9 0 1.3-1.2 1.3-1.4l-.1-.1-.2.1c-.2.8-.6 1.2-1 1.2-.2 0-.2-.1-.2-.4l.1-.6.3-.7.5-1.2v-.3c0-.4-.3-.8-.9-.8-.9 0-1.3 1.3-1.3 1.5H126c.3-.9.7-1.2 1-1.2.2 0 .2 0 .2.3l-.2 1zM129.9 10.5h-.2v.2c.9.8 1.8 2 1.8 4.4 0 2-.7 3.4-1.7 4.3l-.1.2.1.2c.1 0 1-.7 1.6-1.8.4-.8.7-1.8.7-2.9 0-1.3-.4-3.3-2.2-4.6zM136.5 12.9c0-.9-.3-1.4-.8-1.4s-.7.3-.7.7c0 .4.2.7.7.7.1 0 .3 0 .4-.2h.1v.2c0 1-.4 1.8-.9 2.2l-.1.2.1.2c.2 0 1.2-1 1.2-2.6zM147 4.2l.1-.2c0-.2 0-.3-.2-.3s-.3.2-.3.3l-1.1 3h-4l-1.2-3c0-.2-.1-.3-.3-.3-.1 0-.3.1-.3.3l.1.2 3.3 8.7c0 .2.2.3.3.3.2 0 .3-.1.3-.3zm-5.4 3.3h3.6l-1.8 4.7zM151.5 16.1l-.2-.3c-1.7-1.7-2.1-4.2-2.1-6.2 0-2.3.5-4.6 2.1-6.3l.2-.2-.1-.2c-.2 0-1.3 1-2.1 2.6a9.9 9.9 0 0 0 0 8.2c.8 1.7 2 2.5 2 2.5l.2-.1zM153.5 12.1l-.2.6c0 .2.2.4.4.4s.4-.1.5-.4l.3-1 .3-1.2.2-.9.2-.6c.1-.5.9-1.7 2.1-1.7.6 0 .7.5.7 1 0 .3 0 .7-.2 1l-.3 1.6-.3 1-.2.8c0 .2.2.4.4.4.4 0 .5-.4.6-.8l.8-3.2c0-.2.8-1.8 2.2-1.8.6 0 .7.5.7 1 0 .7-.5 2.2-.8 3l-.2.7c0 .6.5 1 1.1 1 1.3 0 1.8-1.9 1.8-2l-.2-.1-.2.2c-.2.7-.6 1.7-1.4 1.7-.2 0-.3-.2-.3-.5l.3-1c.2-.6.8-2 .8-2.8 0-.9-.6-1.5-1.6-1.5s-1.6.6-2.1 1.3c0-.1 0-.6-.5-1-.3-.2-.7-.3-1-.3-1.2 0-1.9.9-2.1 1.2 0-.8-.6-1.2-1.2-1.2s-.9.6-1 .8c-.3.5-.4 1.3-.4 1.3l.1.1c.2 0 .2 0 .3-.3.2-1 .5-1.6 1-1.6.1 0 .3.1.3.6l-.2 1.2zm13.2.8c0-.9-.4-1.4-1-1.4-.3 0-.6.3-.6.7 0 .4.3.7.7.7.1 0 .3 0 .5-.2v.2c0 1-.4 1.8-.9 2.2v.4c.2 0 1.3-1 1.3-2.6zm6.9-8.3c0-.2-.2-.5-.5-.5s-.7.4-.7.7c0 .3.2.5.5.5s.7-.3.7-.7zm-1 5 .3-.8.2-.7c0-.6-.5-1-1.1-1-1.3 0-1.8 1.9-1.8 2l.2.1.2-.2c.3-1.3.9-1.7 1.3-1.7.1 0 .4 0 .4.5l-.2.6-.9 2.5-.3 1c0 .7.4 1.2 1 1.2 1.3 0 1.8-2 1.8-2l-.1-.2c-.2 0-.2 0-.2.2-.3.9-.7 1.7-1.4 1.7-.2 0-.3-.2-.3-.5s0-.5.4-1.3zm4.5 3.3c0-.9-.3-1.4-.9-1.4-.4 0-.7.3-.7.7 0 .4.3.7.7.7.2 0 .4 0 .5-.2l.1.2c0 1-.5 1.8-.9 2.2l-.1.2v.2c.2 0 1.3-1 1.3-2.6zm4.4-.8-.2.6c0 .2.2.4.4.4s.4-.1.5-.4l.3-1 .3-1.2.2-.9.2-.6c.2-.5.9-1.7 2.1-1.7.6 0 .8.5.8 1 0 .8-.7 2.5-1 3v.7c0 .6.4 1 1 1 1.3 0 1.8-1.9 1.8-2l-.2-.1-.2.2c-.2 1-.7 1.7-1.3 1.7-.3 0-.4-.2-.4-.5l.3-1c.2-.6.8-2 .8-2.8 0-1-.6-1.5-1.5-1.5-1.2 0-1.9.9-2.1 1.2 0-.7-.6-1.2-1.2-1.2s-.9.6-1 .8l-.4 1.3.1.1c.2 0 .2 0 .3-.3.2-1 .5-1.6 1-1.6.2 0 .4.2.4.6 0 .3 0 .5-.3 1.2zm9.5.8c0-.9-.4-1.4-.9-1.4-.4 0-.7.3-.7.7 0 .4.3.7.7.7.2 0 .3 0 .5-.2v.2c0 1-.4 1.8-.8 2.2l-.2.2c0 .1 0 .2.2.2.1 0 1.2-1 1.2-2.6zm8.4-8.3c0-.2-.1-.5-.5-.5-.3 0-.7.3-.7.7 0 .3.2.5.5.5.4 0 .7-.3.7-.7zm-2.6 9c-.3 1-1 1.8-1.7 1.8l-.5-.2c.4 0 .6-.4.6-.7 0-.2-.1-.4-.5-.4-.3 0-.7.2-.7.7 0 .6.5.8 1.2.8.9 0 2.1-.7 2.5-2l1.2-4.8v-.5c0-.8-.5-1.3-1.2-1.3-1.3 0-2 2-2 2v.2c.2 0 .2 0 .3-.2.3-.9 1-1.7 1.7-1.7.2 0 .4 0 .4.6v.7zM204.3 9.6c0-1-.2-2.7-.9-4.2-.8-1.6-2-2.5-2-2.5l-.2.2.3.3c1.3 1.3 2 3.4 2 6.2 0 2.3-.5 4.6-2.1 6.3l-.2.2.1.1c.2 0 1.4-.9 2.1-2.6.7-1.4.9-2.9.9-4zM216.6 9.9c.2 0 .4 0 .4-.3s-.2-.3-.4-.3h-5.7c.2-1.7 1.7-3 3.6-3h2c.3 0 .5 0 .5-.3s-.2-.3-.4-.3h-2.1c-2.3 0-4 1.8-4 3.9a4 4 0 0 0 4 3.8h2c.3 0 .5 0 .5-.2 0-.3-.2-.3-.4-.3h-2.1c-1.9 0-3.4-1.3-3.6-3zM228.2 4V3.7c-.2 0-.2 0-.3.3l-2.2 8.7c-1 0-1.5-.6-1.5-1.4 0-.3 0-.7.7-2.5l.2-.7c0-.6-.5-1-1.1-1-1.3 0-1.8 1.9-1.8 2l.2.1.2-.2c.3-1.3.9-1.7 1.3-1.7.1 0 .4 0 .4.5l-.3 1.1c-.7 1.7-.7 2-.7 2.2 0 1.3 1 1.9 2.3 2 0 .4 0 .4-.3 1.1l-.3 1.3.2.1h.1l.2-.6.5-2c.5 0 1.6 0 2.9-1.4.5-.6.8-1.2 1-1.6 0-.3.4-1.4.4-2 0-.8-.4-1-.6-1-.3 0-.7.4-.7.7 0 .2.1.2.2.3.2.2.5.5.5 1.2 0 .8-.7 1.9-1.2 2.4-1.1 1.2-2 1.2-2.5 1.2zM233.6 9c0-.2 0-.3-.3-.3-.6.6-1.4.6-1.8.6v.4c.2 0 .8 0 1.4-.3v4.7c0 .4 0 .5-1 .5h-.3v.3a48.2 48.2 0 0 1 3.3 0v-.3h-.4c-.9 0-.9-.1-.9-.5zm0 0"/></g></svg>