<svg xmlns="http://www.w3.org/2000/svg" width="235.2" height="17.8"><g aria-label="T Y(n,j) ≥T Y(m,i) +G Y(m,i) ,∀(m,i,n,j)∈ψ 2"><path d="M5.4 3.8c0-.4.1-.5.3-.5h.8c1.3 0 2 0 2 1l-.2 1.1v.3l.2.1.2-.3.3-2.3V3c0-.2 0-.2-.3-.2H1.3c-.3 0-.3 0-.4.3L0 5.4l-.1.3.2.1.2-.3c.7-2 1-2.2 3-2.2H4l.4.1v.3l-1.8 7c-.1.6-.2.7-1.6.7-.5 0-.6 0-.6.3l.3.1H5c.2 0 .3 0 .3-.2s0-.2-.4-.2H4c-.4 0-.5 0-.5-.3v-.3zM15.6 1.1l.6-.5.8-.3c.1 0 .2 0 .2-.2l-.1-.1h-1.8l-.1.2.2.1c.2 0 .2.2.2.2l-.1.3-.2.2L13 3.4 11.8.7V.5c0-.2.4-.2.4-.2.2 0 .3 0 .3-.2l-.2-.1h-2.2c-.1 0-.3 0-.3.2l.3.1c.5 0 .6.1.6.3l1.5 3.2-.4 1.7c-.1.5-.1.5-.9.5-.1 0-.3 0-.3.2l.2.1h2.4s.2 0 .2-.2h-.3l-.4-.1-.2-.1.2-.8L13 4l.1-.3zM10.7 8.5A5.6 5.6 0 0 0 8.5 13c0 1.3.4 3.4 2.2 4.7.1 0 .2 0 .2-.2-1.3-1.2-1.7-2.8-1.7-4.5 0-2.5 1-3.7 1.7-4.4v-.1l-.2-.1zM12.7 14.9v.3c0 .2.1.3.3.3.1 0 .3 0 .3-.2l.2-.5.2-.9.2-.6c0-.4 0-.5.3-.8.3-.4.7-.9 1.4-.9.6 0 .6.5.6.7 0 .5-.4 1.6-.6 2l-.1.4c0 .5.4.8.9.8.9 0 1.3-1.2 1.3-1.4l-.1-.1-.2.1c-.2.8-.6 1.2-1 1.2-.2 0-.2-.2-.2-.4l.2-.7c.1-.3.5-1.3.5-1.8 0-.9-.7-1-1.2-1a2 2 0 0 0-1.6.8c0-.6-.6-.8-1-.8s-.6.2-.7.5l-.4.9h.2l.2-.2c.1-.5.3-1 .7-1 .2 0 .3.2.3.5l-.2.7-.2.9zm7.4.4c0 .5 0 1.1-.7 1.7v.2c.2 0 1-.7 1-1.8 0-.6-.2-1-.7-1-.3 0-.5.2-.5.5s.2.5.5.5l.4-.1zm5.3-5.7c0-.1-.1-.3-.4-.3-.2 0-.5.2-.5.5 0 .1.1.3.4.3.2 0 .5-.2.5-.5zm-2 6.3c-.1.6-.6 1.2-1.2 1.2H22l.3-.5c0-.3-.2-.4-.3-.4-.3 0-.6.3-.6.6s.4.5 1 .5c.5 0 1.6-.3 1.9-1.4l.8-3.4v-.3c0-.5-.4-.8-1-.8-1 0-1.6 1.2-1.6 1.4h.4c.2-.6.7-1.2 1.2-1.2.3 0 .4.2.4.5v.2zM27.1 8.5h-.2l.1.2c.8.8 1.7 2 1.7 4.4 0 2-.6 3.4-1.6 4.3l-.2.2.1.2c.1 0 1-.7 1.6-1.8.5-.8.7-1.8.7-2.9 0-1.3-.4-3.3-2.2-4.6zM43.7 7.5c.2 0 .3-.1.3-.3 0-.1 0-.2-.3-.3l-7.3-3.4-.3-.1-.2.2c0 .2 0 .3.2.3l7 3.3-7 3.3c-.2.1-.2.2-.2.3 0 .2 0 .3.2.3l.3-.1zm-.2 6.1c.2 0 .5 0 .5-.2 0-.3-.3-.3-.5-.3h-7.2c-.2 0-.4 0-.4.3 0 .2.2.2.4.2zM54.5 3.8c0-.4 0-.5.3-.5h.8c1.3 0 2 0 2 1l-.2 1.1v.3l.1.1c.2 0 .2 0 .2-.3l.4-2.3V3c0-.2-.1-.2-.3-.2h-7.4c-.3 0-.3 0-.4.3l-.8 2.3-.1.3.2.1.2-.3c.7-2 1-2.2 3-2.2h.5l.4.1v.3l-1.8 7c-.1.6-.2.7-1.6.7-.5 0-.6 0-.6.3l.3.1H54c.2 0 .3 0 .3-.2s0-.2-.4-.2H53c-.4 0-.5 0-.5-.3v-.3zM64.7 1.1l.6-.5.8-.3c.1 0 .2 0 .2-.2l-.1-.1h-1.8l-.1.2.2.1c.2 0 .2.2.2.2l-.1.3-.2.2-2.3 2.4L61 .7V.5c0-.2.4-.2.4-.2.2 0 .3 0 .3-.2l-.2-.1h-2.2c-.2 0-.3 0-.3.2l.3.1c.5 0 .5.1.6.3l1.5 3.2-.4 1.7c-.2.5-.2.5-.9.5-.1 0-.3 0-.3.2l.2.1h2.4s.2 0 .2-.2h-.3l-.4-.1-.2-.1.2-.8.3-1.1.1-.3zM59.8 8.5a5.6 5.6 0 0 0-2.2 4.6c0 1.3.4 3.4 2.2 4.7.1 0 .2 0 .2-.2-1.3-1.2-1.8-2.8-1.8-4.5 0-2.5 1-3.7 1.8-4.4v-.1l-.2-.1zM64.7 14.7l-.1.5c0 .2.2.3.3.3.2 0 .3 0 .4-.2l.1-.5a17.1 17.1 0 0 0 .4-1.5l.3-.7c.3-.5.8-1 1.5-1 .5 0 .5.4.5.7 0 .5-.4 1.6-.5 2l-.2.4c0 .5.5.8 1 .8.9 0 1.3-1.2 1.3-1.4l-.2-.1-.2.1c-.2.8-.6 1.2-1 1.2l-.2-.4.2-.7c.1-.3.5-1.3.5-1.8 0-.1 0-.5-.3-.8-.2-.1-.4-.2-.9-.2-.8 0-1.3.5-1.6.9-.1-.8-.8-1-1.2-1a2 2 0 0 0-1.6.9c0-.6-.6-.8-1-.8s-.6.2-.7.5l-.4.9h.2l.2-.2c.1-.5.3-1 .7-1 .2 0 .3.2.3.5l-.2.7-.2.9-.3 1.2v.3c0 .2.1.3.3.3.1 0 .3 0 .3-.2l.2-.5.2-.9.1-.6.4-.8c.3-.4.7-.9 1.4-.9.6 0 .6.5.6.7l-.2.8zm7.4.6c0 .5-.1 1.1-.8 1.7v.1l.1.1c.2 0 1-.7 1-1.8 0-.6-.3-1-.7-1-.3 0-.5.2-.5.5s.2.5.5.5l.4-.1zm4.2-5.7c0-.1-.1-.3-.4-.3-.2 0-.5.2-.5.5 0 .1.1.3.3.3.3 0 .6-.2.6-.5zm-2 4.8v.3c0 .5.4.8.9.8 1 0 1.3-1.2 1.3-1.4l-.1-.1-.2.1c-.2.8-.6 1.2-1 1.2-.2 0-.2-.1-.2-.4l.1-.5.3-.8.5-1.2v-.3c0-.4-.3-.7-.9-.7-.9 0-1.3 1.2-1.3 1.4H74c.3-.9.7-1.2 1-1.2.2 0 .2 0 .2.3l-.2 1zM77.9 8.5h-.2v.2c.9.8 1.8 2 1.8 4.4 0 2-.6 3.4-1.6 4.3l-.2.2.1.2c.1 0 1-.7 1.6-1.8.4-.8.7-1.8.7-2.9 0-1.3-.4-3.3-2.2-4.6zM90.2 8.8H94c.2 0 .5 0 .5-.3s-.3-.3-.5-.3h-3.7V4.5c0-.2 0-.4-.2-.4-.3 0-.3.2-.3.4v3.7H86c-.2 0-.4 0-.4.3s.2.3.4.3h3.7v3.7c0 .2 0 .4.3.4.2 0 .2-.2.2-.4zM108.2 2.6l-.2-.1-.2.1-.9 1c-.1-.1-.7-1.1-2.2-1.1-3 0-6 3-6 6 0 2 1.5 3.6 3.7 3.6.6 0 1.2-.1 1.6-.3.7-.3 1-.5 1.2-.8l.6.8.3-.8.3-1 .1-.7c.2-.6.2-.7 1-.7 0 0 .2 0 .2-.3l-.2-.1h-3.3s-.2 0-.2.3l.4.1h.7c.3 0 .4.1.4.3l-.3 1.2c-.4 1.5-2.1 1.6-2.6 1.6-1.2 0-2.6-.7-2.6-2.8 0-.4 0-2.6 1.5-4.3.7-1 2-1.7 3.3-1.7 1.4 0 2.1 1 2.1 2.5v.7c0 .2.2.2.2.2.2 0 .2 0 .2-.3zM114.8 1.1l.6-.5.8-.3c.1 0 .3 0 .3-.2l-.2-.1h-1.7s-.2 0-.2.2l.2.1c.3 0 .3.2.3.2s0 .2-.2.3l-.1.2-2.3 2.4L111 .7V.5c0-.2.4-.2.5-.2 0 0 .2 0 .2-.2l-.1-.1h-2.3c-.1 0-.2 0-.2.2l.2.1c.6 0 .6.1.7.3l1.4 3.2-.4 1.7c-.1.5-.1.5-.8.5-.2 0-.3 0-.3.2l.1.1h2.4s.2 0 .2-.2h-.3L112 6l-.2-.1.1-.8.3-1.1c0-.2 0-.2.2-.3zM111.8 8.5a5.6 5.6 0 0 0-2.2 4.6c0 1.3.4 3.4 2.2 4.7.1 0 .2 0 .2-.2-1.3-1.2-1.8-2.8-1.8-4.5 0-2.5 1-3.7 1.8-4.4v-.1l-.2-.1zM116.7 14.7l-.1.5c0 .2.2.3.3.3.2 0 .3 0 .4-.2l.1-.5a17.1 17.1 0 0 0 .4-1.5l.3-.7c.3-.5.7-1 1.5-1 .5 0 .5.4.5.7 0 .5-.4 1.6-.5 2l-.2.4c0 .5.4.8.9.8 1 0 1.3-1.2 1.3-1.4V14l-.3.1c-.2.8-.6 1.2-1 1.2-.2 0-.2-.2-.2-.4l.2-.7c.1-.3.5-1.3.5-1.8 0-.1 0-.5-.3-.8l-.9-.2c-.8 0-1.3.5-1.6.9-.1-.8-.8-1-1.2-1a2 2 0 0 0-1.6.9c0-.6-.6-.8-1-.8s-.6.2-.8.5l-.3.9h.2l.2-.2c.1-.5.3-1 .7-1 .2 0 .3.2.3.5l-.2.7-.2.9-.3 1.2v.3c0 .2 0 .3.2.3s.4 0 .4-.2l.2-.5.2-.9.1-.6.4-.8c.3-.4.7-.9 1.4-.9.6 0 .6.5.6.7l-.2.8zm7.4.6c0 .5-.1 1.1-.8 1.7v.1l.1.1c.1 0 1-.7 1-1.8 0-.6-.3-1-.7-1-.3 0-.6.2-.6.5s.3.5.6.5l.4-.1zm4.2-5.7c0-.1-.1-.3-.4-.3-.3 0-.5.2-.5.5 0 .1 0 .3.3.3s.6-.2.6-.5zm-2 4.8v.3c0 .5.4.8.9.8.9 0 1.3-1.2 1.3-1.4l-.1-.1-.2.1c-.2.8-.6 1.2-1 1.2-.2 0-.2-.1-.2-.4l.1-.5.3-.8.5-1.2v-.3c0-.4-.3-.7-.9-.7-.9 0-1.3 1.2-1.3 1.4H126c.3-.9.7-1.2 1-1.2.2 0 .2 0 .2.3l-.2 1zM129.9 8.5h-.2v.2c.9.8 1.8 2 1.8 4.4 0 2-.7 3.4-1.7 4.3l-.1.2.1.2c.1 0 1-.7 1.6-1.8.4-.8.7-1.8.7-2.9 0-1.3-.4-3.3-2.2-4.6zM136.5 11.8c0-.9-.3-1.4-.8-1.4s-.7.4-.7.7c0 .4.2.7.7.7l.4-.1h.1v.1c0 1-.4 1.8-.9 2.2l-.1.3h.1c.2 0 1.2-1 1.2-2.5zM147 3.1l.1-.2c0-.1 0-.3-.2-.3s-.3.2-.3.3l-1.1 3h-4l-1.2-3c0-.2-.1-.3-.3-.3l-.3.3.1.2 3.3 8.7c0 .2.2.3.3.3.2 0 .3-.1.3-.3zm-5.4 3.3h3.6l-1.8 4.7zM151.5 15l-.2-.3c-1.7-1.7-2.1-4.2-2.1-6.2 0-2.3.5-4.6 2.1-6.3l.2-.2-.1-.1c-.2 0-1.3.9-2.1 2.6a9.9 9.9 0 0 0 0 8.2c.8 1.6 2 2.5 2 2.5.2 0 .2 0 .2-.2zM153.5 11l-.2.6c0 .3.2.4.4.4s.4-.1.5-.4l.3-1 .3-1.2.2-.9.2-.6c.1-.4.9-1.6 2.1-1.6.6 0 .7.4.7.9 0 .3 0 .7-.2 1l-.3 1.6-.3 1-.2.8c0 .3.2.4.4.4.4 0 .5-.4.6-.8l.8-3.2c0-.2.8-1.7 2.2-1.7.6 0 .7.4.7.9 0 .7-.5 2.3-.8 3l-.2.7c0 .6.5 1 1.1 1 1.3 0 1.8-1.9 1.8-2l-.2-.1-.2.2c-.2.7-.6 1.7-1.4 1.7-.2 0-.3-.2-.3-.4 0-.4.1-.7.3-1 .2-.7.8-2.2.8-3 0-.8-.6-1.3-1.6-1.3s-1.6.5-2.1 1.3c0-.2 0-.7-.5-1-.3-.3-.7-.3-1-.3-1.2 0-1.9.8-2.1 1.1 0-.7-.6-1.1-1.2-1.1s-.9.5-1 .7c-.3.5-.4 1.3-.4 1.3l.1.1c.2 0 .2 0 .3-.3.2-1 .5-1.5 1-1.5.1 0 .3 0 .3.6l-.2 1zm13.2.8c0-.9-.4-1.4-1-1.4-.3 0-.6.4-.6.7 0 .4.3.7.7.7l.5-.1v.1c0 1-.4 1.8-.9 2.2v.3c.2 0 1.3-1 1.3-2.5zm6.9-8.3c0-.2-.2-.5-.5-.5s-.7.4-.7.8c0 .2.2.4.5.4s.7-.3.7-.7zm-1 5 .3-.7.2-.8c0-.5-.5-1-1.1-1-1.3 0-1.8 1.9-1.8 2l.2.1.2-.2c.3-1.3.9-1.6 1.3-1.6.1 0 .4 0 .4.4l-.2.7-.9 2.4-.3 1c0 .7.4 1.2 1 1.2 1.3 0 1.8-2 1.8-2l-.1-.2c-.2 0-.2 0-.2.2-.3.9-.7 1.7-1.4 1.7-.2 0-.3-.2-.3-.4 0-.4 0-.6.4-1.4zm4.5 3.3c0-.9-.3-1.4-.9-1.4-.4 0-.7.4-.7.7 0 .4.3.7.7.7l.5-.1.1.1c0 1-.5 1.8-.9 2.2l-.1.3c.2 0 1.3-1 1.3-2.5zm4.4-.8-.2.6c0 .3.2.4.4.4s.4-.1.5-.4l.3-1 .3-1.2.2-.9.2-.6c.2-.4.9-1.6 2.1-1.6.6 0 .8.4.8.9 0 .8-.7 2.5-1 3v.7c0 .6.4 1 1 1 1.3 0 1.8-1.9 1.8-2l-.2-.1-.2.2c-.2 1-.7 1.7-1.3 1.7-.3 0-.4-.2-.4-.4 0-.4.2-.7.3-1 .2-.7.8-2.2.8-3 0-.8-.6-1.3-1.5-1.3-1.2 0-1.9.8-2.1 1.1 0-.7-.6-1.1-1.2-1.1s-.9.5-1 .7l-.4 1.3.1.1c.2 0 .2 0 .3-.3.2-1 .5-1.5 1-1.5.2 0 .4.1.4.6 0 .2 0 .4-.3 1zm9.5.8c0-.9-.4-1.4-.9-1.4-.4 0-.7.4-.7.7 0 .4.3.7.7.7l.5-.1v.1c0 1-.4 1.8-.8 2.2l-.2.3h.2c.1 0 1.2-1 1.2-2.5zm8.4-8.3c0-.2-.1-.5-.5-.5-.3 0-.7.4-.7.8 0 .2.2.4.5.4.4 0 .7-.3.7-.7zm-2.6 9c-.3 1-1 1.8-1.7 1.8l-.5-.2c.4 0 .6-.4.6-.7 0-.2-.1-.4-.5-.4-.3 0-.7.3-.7.7 0 .6.5.8 1.2.8.9 0 2.1-.7 2.5-2l1.2-4.8v-.5c0-.8-.5-1.2-1.2-1.2-1.3 0-2 1.9-2 2v.1c.2 0 .2 0 .3-.2.3-.8 1-1.6 1.7-1.6.2 0 .4 0 .4.6v.6zM204.3 8.5c0-1-.2-2.6-.9-4.1-.8-1.7-2-2.5-2-2.5l-.2.1.3.3c1.3 1.3 2 3.4 2 6.2 0 2.3-.5 4.6-2.1 6.3l-.2.2.1.2c.2 0 1.4-1 2.1-2.6.7-1.5.9-3 .9-4.1zM216.6 8.8c.2 0 .4 0 .4-.3s-.2-.3-.4-.3h-5.7c.2-1.7 1.7-3 3.6-3h2c.3 0 .5 0 .5-.3 0-.2-.2-.2-.4-.2h-2.1c-2.3 0-4 1.7-4 3.8a4 4 0 0 0 4 3.9h2c.3 0 .5 0 .5-.3s-.2-.3-.4-.3h-2.1c-1.9 0-3.4-1.3-3.6-3zM228.2 3v-.4c-.2 0-.2 0-.3.3l-2.2 8.8c-1-.2-1.5-.7-1.5-1.5 0-.3 0-.6.7-2.5l.2-.7c0-.5-.5-1-1.1-1-1.3 0-1.8 1.9-1.8 2l.2.1.2-.2c.3-1.3.9-1.6 1.3-1.6.1 0 .4 0 .4.4l-.3 1.1c-.7 1.7-.7 2-.7 2.3 0 1.2 1 1.8 2.3 1.9 0 .4 0 .5-.3 1.2l-.3 1.2.2.1h.1l.2-.5.5-2c.5 0 1.6 0 2.9-1.5l1-1.5c0-.4.4-1.5.4-2.1 0-.8-.4-1-.6-1-.3 0-.7.4-.7.7l.2.4c.2 0 .5.4.5 1 0 1-.7 2-1.2 2.5-1.1 1.2-2 1.2-2.5 1.2zM235.2 12.1h-.3c0 .2-.1.8-.3.9H232l1.9-1.5c.6-.6 1.3-1.2 1.3-2 0-1.2-1-1.9-2.2-1.9-1.1 0-2 .9-2 1.7 0 .5.5.5.6.5.2 0 .5-.1.5-.5 0-.1-.1-.4-.6-.4.3-.7 1-1 1.4-1 .9 0 1.4.8 1.4 1.6s-.6 1.4-.9 1.7l-2.2 2.3-.1.3h3.8zm0 0"/></g></svg>