<svg xmlns="http://www.w3.org/2000/svg" width="252.5" height="18.2"><g aria-label="T Y(m,i) ≥T Start (m,i,3) +t AGV (m,i,2)(m,i,3) ,∀(m,i)∈D"><path d="M5.4 4c0-.3.1-.4.3-.4h.8c1.3 0 2 0 2 1l-.2 1V6c0 .1 0 .2.2.2l.2-.3.3-2.3v-.2C9 3 9 3 8.7 3H1.3c-.3 0-.3 0-.4.3L0 5.7 0 6l.2.1.2-.3c.7-2 1-2.3 3-2.3H4c.4 0 .4 0 .4.2V4l-1.8 7c-.1.5-.2.7-1.6.7-.5 0-.6 0-.6.3l.3.1H5c.2 0 .3 0 .3-.3l-.4-.1H4c-.4 0-.5-.1-.5-.3V11zM15.6 1.4l.6-.5c.3-.3.7-.3.8-.3.1 0 .2 0 .2-.2l-.1-.1h-1.8l-.1.2.2.1c.2 0 .2.1.2.2l-.1.2c0 .1 0 .2-.2.2L13 3.7 11.8.9V.8c0-.2.4-.2.4-.2.2 0 .3 0 .3-.2l-.2-.1h-2.2c-.1 0-.3 0-.3.2l.3.1c.5 0 .6 0 .6.3L12.2 4l-.4 1.7c-.1.5-.1.5-.9.5-.1 0-.3 0-.3.2l.2.1h2.4s.2 0 .2-.2l-.3-.1h-.4c-.1 0-.2 0-.2-.2l.2-.7.3-1.1.1-.3zM10.7 8.8a5.6 5.6 0 0 0-2.2 4.6c0 1.3.4 3.3 2.2 4.6h.2v-.2c-1.3-1.1-1.7-2.7-1.7-4.4 0-2.5 1-3.7 1.7-4.4v-.1l-.2-.1zM15.6 15v.5c0 .2 0 .3.2.3l.4-.2.2-.6a17.1 17.1 0 0 0 .3-1.4l.3-.7c.3-.5.8-1 1.5-1 .5 0 .5.4.5.6 0 .6-.4 1.6-.5 2l-.1.5c0 .5.4.8.8.8 1 0 1.4-1.3 1.4-1.4l-.2-.1-.2.1c-.2.8-.6 1.2-1 1.2l-.2-.4.2-.7c.2-.3.5-1.3.5-1.8 0-.2 0-.6-.3-.8-.2-.1-.4-.3-.9-.3-.8 0-1.3.6-1.6 1-.1-.8-.8-1-1.2-1a2 2 0 0 0-1.6.9c0-.7-.6-.9-1-.9s-.6.3-.7.5l-.4 1h.2l.2-.2c.1-.6.3-1 .7-1 .2 0 .3.2.3.4l-.2.8-.2.8-.3 1.2v.4c0 .2.1.3.3.3l.3-.2.2-.6.2-.8.2-.6c0-.4 0-.5.3-.9.3-.3.7-.8 1.4-.8.6 0 .6.5.6.6l-.2 1zm7.4.6c0 .5-.1 1-.7 1.7l-.1.1.1.1c.2 0 1-.7 1-1.8 0-.6-.3-1-.7-1-.3 0-.5.2-.5.5s.2.5.5.5l.4-.1zm4.2-5.7c0-.1-.1-.3-.4-.3-.2 0-.5.2-.5.5 0 .1.1.3.4.3.2 0 .5-.2.5-.5zm-2 4.7v.4c0 .5.4.8.9.8 1 0 1.3-1.3 1.3-1.4l-.1-.1-.2.1c-.2.8-.6 1.2-1 1.2-.2 0-.2-.2-.2-.4l.1-.6.3-.7.5-1.2v-.3c0-.4-.3-.8-.8-.8-1 0-1.4 1.3-1.4 1.5H25c.3-.9.7-1.2 1-1.2.2 0 .3 0 .3.3 0 .2 0 .4-.3 1zM28.8 8.8h-.2V9c.9.7 1.8 2 1.8 4.4 0 2-.6 3.4-1.6 4.3l-.2.2.1.1c.1 0 1-.6 1.6-1.7.4-.8.7-1.8.7-2.9 0-1.3-.4-3.3-2.2-4.6zM45.4 7.8c.2 0 .3-.2.3-.3 0-.1 0-.2-.3-.3l-7.3-3.4-.3-.1c-.2 0-.2 0-.2.2s0 .3.2.3l7 3.3-7 3.3c-.2.1-.2.2-.2.3 0 .1 0 .3.2.3l.3-.1zm-.2 6.1c.2 0 .5 0 .5-.2 0-.3-.3-.3-.5-.3H38c-.2 0-.4 0-.4.3 0 .2.2.2.4.2zM56.1 4c.1-.3.2-.4.4-.4h.8c1.3 0 2 0 2 1l-.2 1V6l.1.2c.2 0 .2-.1.2-.3l.4-2.3v-.2c0-.2-.1-.2-.3-.2H52c-.3 0-.4 0-.4.3l-.8 2.3-.1.3.2.1.2-.3c.7-2 1-2.3 3-2.3h.5c.4 0 .4 0 .4.2V4l-1.8 7c-.2.5-.2.7-1.6.7-.5 0-.6 0-.6.3l.2.1h4.5c.2 0 .3 0 .3-.3l-.4-.1h-.9c-.4 0-.5-.1-.5-.3V11zM65.3 5c0-1-.6-1.7-1.5-2l-1.4-.2c-.8-.2-1-.8-1-1.2 0-.6.5-1.2 1.3-1.2 1.3 0 1.8.8 2 1.8l.1.2c.2 0 .2 0 .2-.3V.3l-.1-.2-.2.1-.3.5C63.8.1 63 .1 62.7.1c-1.1 0-2 .8-2 1.8 0 .5.3.9.6 1.2.4.4.7.4 1.7.7.8.1 1 .2 1.3.4.2.3.4.6.4 1 0 .6-.5 1.3-1.5 1.3-.8 0-2-.4-2.2-1.8l-.1-.2c-.2 0-.2 0-.2.3v1.8c0 .1 0 .2.2.2l.1-.1.4-.5c.5.5 1.3.6 1.8.6 1.3 0 2-1 2-1.9zm4.1.5v-.6h-.3v.5c0 .7-.3 1-.6 1-.7 0-.7-.8-.7-1V3h1.5v-.4h-1.5V1h-.3c0 .9-.4 1.8-1.3 1.8V3h.9v2.5c0 1 .8 1.2 1.3 1.2.6 0 1-.5 1-1.2zm5.8.3v-.5h-.4v.5s0 .5-.3.5c-.4 0-.4-.4-.4-.5V4c0-.5 0-.8-.4-1.2a2 2 0 0 0-1.4-.4c-.9 0-1.5.3-1.5.9 0 .3.2.4.5.4.2 0 .4-.1.4-.4 0-.2 0-.4-.3-.4.3-.3.9-.3 1-.3.4 0 1 .4 1 1.2v.3c-.5 0-1.1 0-1.8.3-.8.3-1 .8-1 1.2 0 .8.9 1 1.5 1 .8 0 1.2-.4 1.4-.8 0 .4.3.8.7.8 0 0 1 0 1-1zm-1.8-.5c0 .9-.8 1.2-1.2 1.2-.5 0-1-.4-1-.8 0-.5.5-1.2 2.2-1.3zm5.8-2.2c0-.3-.3-.6-.8-.6-.4 0-1 .3-1.2 1v-1l-1.4.1V3c.7 0 .7 0 .7.5v2.4c0 .4 0 .4-.7.4v.3h2.3v-.3h-.2c-.7 0-.7-.1-.7-.4V4.5c0-.8.4-1.7 1.3-1.7l-.2.3c0 .3.3.4.4.4.3 0 .5 0 .5-.4zM83 5.5v-.6h-.3v.5c0 .7-.3 1-.7 1-.6 0-.6-.8-.6-1V3h1.4v-.4h-1.4V1h-.3c0 .9-.4 1.8-1.3 1.8V3h.9v2.5c0 1 .7 1.2 1.3 1.2.6 0 1-.5 1-1.2zM61.5 9a5.6 5.6 0 0 0-2.2 4.6c0 1.3.4 3.3 2.2 4.6h.2V18c-1.3-1.1-1.8-2.7-1.8-4.4 0-2.5 1-3.8 1.8-4.4V9c0-.2 0-.2-.2-.2zM66.4 15.2l-.1.5c0 .2.2.3.3.3l.4-.2.1-.6a17.1 17.1 0 0 0 .4-1.4c.1-.4.1-.5.3-.7.3-.5.7-1 1.5-1 .5 0 .5.4.5.6 0 .6-.4 1.6-.5 2l-.2.5c0 .5.4.8 1 .8.8 0 1.3-1.3 1.3-1.4l-.2-.1-.2.1c-.2.8-.6 1.1-1 1.1-.1 0-.2 0-.2-.3l.2-.7c.1-.3.5-1.3.5-1.8 0-.2 0-.6-.3-.8-.2-.2-.5-.3-.9-.3-.8 0-1.3.6-1.6 1-.1-.8-.8-1-1.2-1a2 2 0 0 0-1.6.9c0-.7-.6-.9-1-.9s-.6.3-.8.5l-.3 1h.2l.2-.2c.1-.6.3-1 .7-1 .2 0 .3.2.3.4l-.2.8-.2.8-.3 1.2v.4c0 .2 0 .3.2.3l.4-.2.2-.6.2-.8.1-.6.4-.9c.3-.3.7-.8 1.4-.8.6 0 .6.5.6.6l-.2.9zm7.4.6c0 .5-.1 1-.8 1.7l.1.2c.1 0 1-.7 1-1.9 0-.5-.3-1-.7-1-.3 0-.6.3-.6.6s.3.5.6.5l.4-.1zM78 10c0-.1-.1-.3-.4-.3-.3 0-.5.2-.5.5 0 .1 0 .3.3.3s.6-.3.6-.5zm-2 4.7v.4c0 .4.4.8.9.8.9 0 1.3-1.3 1.3-1.4l-.1-.1-.2.1c-.2.8-.6 1.1-1 1.1-.2 0-.2 0-.2-.3l.1-.6.3-.7.5-1.2v-.3c0-.4-.4-.8-.9-.8-.9 0-1.3 1.3-1.3 1.4l.1.1h.2c.3-.9.7-1.2 1-1.2.2 0 .2 0 .2.3l-.2 1zm4.7 1c0 .5-.1 1-.8 1.7l.1.2c.1 0 1-.7 1-1.9 0-.5-.3-1-.7-1-.3 0-.5.3-.5.6s.2.5.5.5l.4-.1zM84.4 12.8c.7 0 1.3.5 1.3 1.5 0 1.2-.7 1.5-1.2 1.5-.4 0-1.2-.1-1.6-.7.4 0 .5-.3.5-.5 0-.3-.2-.5-.5-.5s-.5.2-.5.6c0 .8 1 1.4 2 1.4 1.4 0 2.3-.9 2.3-1.8 0-.7-.6-1.5-1.7-1.7 1-.3 1.4-1 1.4-1.6 0-.7-.9-1.3-2-1.3-1 0-1.7.5-1.7 1.3 0 .3.2.5.5.5.2 0 .4-.2.4-.5s-.2-.5-.4-.5c.3-.4 1-.5 1.3-.5.4 0 1 .2 1 1 0 .4-.2.8-.4 1.1-.3.4-.6.4-1 .4h-.3l-.1.2.2.1zM88 8.9s-.2 0-.2.2h.1c.8.8 1.7 2 1.7 4.5 0 2-.6 3.4-1.6 4.3l-.2.2.1.1c.2 0 1-.6 1.7-1.7.4-.8.6-1.8.6-3S89.8 10.3 88 9zM100.4 9h3.7c.2 0 .4 0 .4-.2 0-.3-.2-.3-.4-.3h-3.7V4.8c0-.2 0-.4-.3-.4s-.3.2-.3.4v3.7h-3.7c-.2 0-.4 0-.4.3 0 .2.2.2.4.2h3.7v3.8c0 .2 0 .4.3.4s.3-.2.3-.4zM111 6.8h1.2c.3 0 .4 0 .4-.3l-.4-.1h-1.1l.5-2.2c0-.3-.1-.4-.4-.4 0 0-.4 0-.5.5l-.5 2h-1.3c-.2 0-.4 0-.4.3 0 .2.1.2.4.2h1.2l-1 4.2c0 .8.5 1.3 1.2 1.3 1.3 0 2-2 2-2.1v-.1c-.2 0-.2 0-.3.2-.5 1.3-1.2 1.7-1.7 1.7-.3 0-.4-.2-.4-.6v-.7zM120.4 6.6v-.3h-.2c-.6 0-.6-.1-.7-.4L117.2.2c0-.1 0-.2-.3-.2-.1 0-.2 0-.2.2l-2.2 5.5c0 .2-.2.6-1 .6v.3h2v-.3c-.4 0-.7-.2-.7-.5v-.1l.5-1.2h2.7l.5 1.4V6c0 .3-.4.3-.7.3v.3H120.4zm-2.6-2.4h-2.3l1.2-3zm10.4.2V4h-2.9v.3h.4c1 0 1 .1 1 .4v.6c0 .2 0 .6-.6.9-.5.2-1 .2-1.1.2-1 0-2.8-.6-2.8-3 0-2.5 1.8-3 2.7-3 1 0 2 .5 2.3 2.1l.1.2c.2 0 .2-.1.2-.3V.3l-.1-.2-.2.1-.5.7c-.4-.5-1-.8-1.9-.8-2 0-3.6 1.5-3.6 3.4 0 1.8 1.6 3.3 3.6 3.3.5 0 1.6 0 2-.7l.6.5.1-.2V4.8c0-.4 0-.4.7-.4zm8.1-3.8V.3h-1.9v.3c.3 0 .6.2.6.4v.2l-2 4.5-2-4.7V1c0-.3.4-.3.7-.3V.3H129v.3h.2c.5 0 .6 0 .7.3l2.4 5.7c.1.2.1.2.3.2.1 0 .2 0 .3-.2l2.3-5.4c.1-.3.3-.6 1-.6zM116.3 9a5.6 5.6 0 0 0-2.2 4.6c0 1.3.4 3.3 2.2 4.6h.2V18c-1.3-1.1-1.8-2.7-1.8-4.4 0-2.5 1-3.8 1.7-4.4l.1-.1c0-.2-.1-.2-.2-.2zM121.2 15.2l-.1.5c0 .2.1.3.3.3.2 0 .3-.1.3-.2l.2-.6a17.1 17.1 0 0 0 .4-1.4c0-.4 0-.5.3-.7.3-.5.7-1 1.5-1 .5 0 .5.4.5.6 0 .6-.4 1.6-.5 2l-.2.5c0 .5.4.8.9.8 1 0 1.3-1.3 1.3-1.4l-.1-.1-.2.1c-.2.8-.6 1.1-1 1.1-.2 0-.2 0-.2-.3l.2-.7c.1-.3.5-1.3.5-1.8 0-.2 0-.6-.3-.8-.2-.2-.5-.3-1-.3-.7 0-1.3.6-1.6 1 0-.8-.7-1-1.2-1a2 2 0 0 0-1.5.9c0-.7-.6-.9-1-.9s-.6.3-.8.5l-.3 1h.2l.2-.2c.1-.6.3-1 .7-1 .2 0 .2.2.2.4v.8l-.3.8-.3 1.2v.4c0 .2 0 .3.2.3l.4-.2.2-.6.2-.8.1-.6c.1-.4.1-.5.4-.9.3-.3.7-.8 1.4-.8.5 0 .5.5.5.6l-.1.9zm7.4.6c0 .5-.1 1-.8 1.7v.2c.2 0 1-.7 1-1.9 0-.5-.2-1-.6-1-.3 0-.6.3-.6.6s.2.5.6.5l.4-.1zm4.2-5.7c0-.1-.2-.3-.4-.3-.3 0-.5.2-.5.5 0 .1 0 .3.3.3s.6-.3.6-.5zm-2 4.7v.4c0 .4.3.8.9.8.9 0 1.3-1.3 1.3-1.4l-.1-.1-.2.1c-.2.8-.6 1.1-1 1.1-.2 0-.3 0-.3-.3l.2-.6.3-.7.5-1.2v-.3c0-.4-.4-.8-.9-.8-.9 0-1.3 1.3-1.3 1.4l.1.1h.2c.2-.9.6-1.2 1-1.2.1 0 .2 0 .2.3 0 .2 0 .4-.3 1zm4.7 1c0 .5-.1 1-.8 1.7v.2c.2 0 1-.7 1-1.9 0-.5-.2-1-.6-1-.3 0-.6.3-.6.6s.2.5.6.5l.4-.1zM141.4 14.2h-.4c0 .2 0 .8-.2.9h-2.6l1.8-1.5c.7-.6 1.4-1.2 1.4-2 0-1.2-1-1.9-2.2-1.9-1.2 0-2 .9-2 1.7 0 .5.4.5.5.5.3 0 .5-.1.5-.5 0-.1 0-.5-.5-.5.3-.6.9-.8 1.3-.8 1 0 1.5.7 1.5 1.5s-.6 1.4-1 1.7l-2.2 2.3v.3h3.8zm1.4-5.3s-.2 0-.2.2h.1c.8.8 1.7 2 1.7 4.5 0 2-.6 3.4-1.6 4.3l-.2.2.1.1c.1 0 1-.6 1.6-1.7.4-.8.7-1.8.7-3s-.4-3.3-2.2-4.6zm6.6 0a5.6 5.6 0 0 0-2.2 4.7c0 1.3.4 3.3 2.2 4.6h.2l-.1-.2c-1.2-1.1-1.7-2.7-1.7-4.4 0-2.5 1-3.8 1.7-4.4V9l-.1-.2zM154.3 15.2l-.1.5c0 .2.1.3.3.3.2 0 .3-.1.3-.2l.2-.6.2-.8.2-.6c0-.4 0-.5.3-.7.3-.5.7-1 1.5-1 .5 0 .5.4.5.6 0 .6-.4 1.6-.5 2l-.2.5c0 .5.4.8.9.8 1 0 1.3-1.3 1.3-1.4l-.1-.1-.2.1c-.2.8-.6 1.1-1 1.1-.2 0-.2 0-.2-.3l.2-.7c.1-.3.5-1.3.5-1.8 0-.2 0-.6-.3-.8-.2-.2-.5-.3-1-.3-.7 0-1.3.6-1.6 1 0-.8-.7-1-1.2-1a2 2 0 0 0-1.5.9c-.1-.7-.6-.9-1-.9s-.6.3-.8.5l-.3 1h.2l.2-.2c.1-.6.3-1 .6-1s.3.2.3.4l-.1.8-.2.8-.3 1.2v.4c0 .2 0 .3.2.3l.4-.2.2-.6c0-.1 0-.6.2-.8l.1-.6c.1-.4.1-.5.4-.9.3-.3.7-.8 1.4-.8.5 0 .5.5.5.6l-.1.9zm7.3.6c0 .5 0 1-.7 1.7v.2c.2 0 1-.7 1-1.9 0-.5-.2-1-.6-1-.4 0-.6.3-.6.6s.2.5.6.5l.3-.1zm4.2-5.7c0-.1 0-.3-.3-.3s-.5.2-.5.5c0 .1 0 .3.3.3s.5-.3.5-.5zm-1.9 4.7v.4c0 .4.3.8.9.8.9 0 1.3-1.3 1.3-1.4l-.2-.1-.1.1c-.2.8-.7 1.1-1 1.1-.2 0-.3 0-.3-.3l.2-.6.3-.7.4-1.2.1-.3c0-.4-.4-.8-.9-.8-1 0-1.3 1.3-1.3 1.4l.1.1h.2c.2-.9.6-1.2 1-1.2.1 0 .2 0 .2.3 0 .2 0 .4-.3 1zm4.7 1c0 .5-.1 1-.8 1.7v.2c.2 0 1-.7 1-1.9 0-.5-.2-1-.6-1-.3 0-.6.3-.6.6s.2.5.6.5l.4-.1zM172.3 12.8c.7 0 1.2.5 1.2 1.5 0 1.2-.6 1.5-1.2 1.5-.3 0-1.2-.1-1.5-.7.4 0 .5-.3.5-.5 0-.3-.2-.5-.5-.5s-.5.2-.5.6c0 .8 1 1.4 2 1.4 1.3 0 2.2-.9 2.2-1.8 0-.7-.6-1.5-1.6-1.7 1-.3 1.3-1 1.3-1.6 0-.7-.8-1.3-1.8-1.3s-1.8.5-1.8 1.3c0 .3.2.5.4.5.3 0 .5-.2.5-.5s-.2-.5-.5-.5c.3-.4 1-.5 1.3-.5.5 0 1 .2 1 1 0 .4 0 .8-.3 1.1-.3.4-.6.4-1 .4h-.4v.2l.2.1zm3.6-3.9s-.2 0-.2.2h.1c.8.8 1.7 2 1.7 4.5 0 2-.6 3.4-1.6 4.3l-.2.2.1.1c.1 0 1-.6 1.6-1.7.4-.8.7-1.8.7-3s-.4-3.3-2.2-4.6zM182.6 12c0-.8-.4-1.3-.9-1.3-.4 0-.7.3-.7.7 0 .4.3.7.7.7.2 0 .3 0 .5-.2v.2c0 1-.4 1.8-.8 2.2l-.2.2.1.2c.2 0 1.3-1 1.3-2.6zM193 3.4l.2-.2c0-.2-.1-.3-.3-.3-.2 0-.3.1-.3.3l-1.1 3h-4l-1.2-3c0-.2 0-.3-.3-.3 0 0-.2.1-.2.3v.2l3.4 8.7c0 .2 0 .3.3.3l.3-.3zm-5.3 3.3h3.6l-1.8 4.7zM197.5 15.3l-.2-.3c-1.6-1.7-2-4.2-2-6.2 0-2.3.4-4.6 2-6.3l.2-.2V2c-.2 0-1.4 1-2.2 2.6-.7 1.5-.8 3-.8 4 0 1.1.1 2.7.8 4.2.8 1.7 2 2.5 2.1 2.5l.1-.1zM199.5 11.3l-.1.6c0 .2.1.4.4.4.1 0 .3-.1.4-.4l.3-1 .3-1.2.2-.9.2-.6c.2-.5.9-1.7 2.1-1.7.6 0 .8.5.8 1l-.2 1-.4 1.6-.3 1-.2.8c0 .2.2.4.4.4.4 0 .5-.4.6-.8l.8-3.2c0-.2.8-1.8 2.2-1.8.6 0 .8.5.8 1 0 .7-.6 2.2-.9 3l-.1.7c0 .6.4 1 1 1 1.3 0 1.8-1.9 1.8-2l-.2-.1-.2.2c-.2.7-.6 1.7-1.3 1.7-.3 0-.4-.2-.4-.5l.3-1c.2-.6.8-2 .8-2.8 0-.9-.5-1.5-1.5-1.5s-1.7.6-2.2 1.3c0-.1 0-.6-.4-1l-1.1-.3c-1.2 0-1.9.9-2 1.2-.1-.8-.7-1.2-1.3-1.2-.6 0-.9.6-1 .8l-.4 1.3.2.1.2-.3c.2-1 .5-1.6 1-1.6.2 0 .4.1.4.6l-.2 1.2zm13.2.8c0-.9-.4-1.4-.9-1.4-.4 0-.7.3-.7.7 0 .4.3.7.7.7.2 0 .3 0 .5-.2v.2c0 1-.4 1.8-.8 2.2l-.2.2.2.2c.1 0 1.2-1 1.2-2.6zm7-8.3c0-.3-.2-.5-.6-.5-.3 0-.7.4-.7.7 0 .3.2.5.5.5s.7-.3.7-.7zm-1 5 .2-.8.2-.7c0-.6-.4-1-1.1-1-1.2 0-1.7 1.9-1.7 2l.1.1c.1 0 .2 0 .2-.2.4-1.3.9-1.7 1.4-1.7 0 0 .3 0 .3.5 0 .2 0 .5-.2.6 0 .4-.7 2-.9 2.5l-.3 1c0 .7.5 1.2 1.1 1.2 1.3 0 1.8-2 1.8-2.1l-.2-.1-.2.2c-.2.9-.7 1.7-1.4 1.7-.2 0-.3-.2-.3-.5l.4-1.3zM224.3 8.8c0-1-.2-2.7-.9-4.2-.8-1.6-2-2.5-2-2.5l-.2.2.3.3c1.3 1.3 2 3.4 2 6.2 0 2.3-.5 4.6-2.1 6.3l-.2.2.1.1c.2 0 1.4-.9 2.2-2.6.6-1.4.8-2.9.8-4zM236.6 9c.2 0 .5 0 .5-.2 0-.3-.3-.3-.5-.3H231c.1-1.7 1.6-3 3.5-3h2c.3 0 .6 0 .6-.3s-.3-.3-.5-.3h-2.1c-2.3 0-4 1.8-4 3.9a4 4 0 0 0 4 3.8h2c.3 0 .6 0 .6-.2 0-.3-.3-.3-.5-.3h-2c-2 0-3.5-1.3-3.6-3zM244 11c-.2.6-.2.7-1.2.7-.3 0-.4 0-.4.3l.4.1h4.4c2.7 0 5.3-2.8 5.3-5.7 0-1.9-1-3.4-3-3.4H245c-.3 0-.4 0-.4.3 0 .2 0 .2.3.2h.6c.2 0 .3 0 .3.2v.2zm2.8-7c.2-.5.2-.5.8-.5h1.4c1.3 0 2.4.7 2.4 2.4 0 .7-.3 2.8-1.4 4.3a4 4 0 0 1-3 1.5H245l-.1-.2v-.2zm0 0"/></g></svg>