<svg xmlns="http://www.w3.org/2000/svg" width="469.1" height="32"><g aria-label="T Q(n,j) +M (1− ∑l∈B Z(m,i)(n,j),l )≥T Start +t AGV (m,i,3)(m,i,4) ,∀(m,i)∈D,∀(n,j)∈D"><path d="M5.4 7.2c0-.4.1-.4.3-.5h.8c1.3 0 2 0 2 1L8.2 9V9s0 .2.2.2l.2-.3.3-2.4v-.2l-.3-.1H1.3c-.3 0-.3 0-.4.3L0 8.9 0 9c0 .1 0 .2.2.2L.4 9c.7-2 1-2.3 3-2.3H4c.4 0 .4 0 .4.2V7l-1.8 7.1c-.1.5-.2.7-1.6.7-.5 0-.6 0-.6.2s.2.2.3.2H5c.2 0 .3 0 .3-.3L5 15H4c-.4-.1-.5-.1-.5-.4v-.2zM13.6 9.5c0 .5.1 1.2.9 1.2 1.1 0 1.7-1.6 1.7-1.8l-.2-.1H16c-.2.7-.8 1-1.2 1-.3 0-.5-.2-.7-1 1.7-.6 3-2.2 3-3.9 0-1.4-1-2.5-2.7-2.5-2.2 0-4.4 2-4.4 4.1C10 8 11 9.1 12.6 9.1l1-.1zM12 8.7c-.5-.2-1.2-.7-1.2-2 0-.5.2-1.8 1-2.8.7-.7 1.6-1.2 2.4-1.2 1 0 2 .6 2 2 0 1-.6 3-2.3 3.8-.1-.6-.3-1-.9-1-.5 0-1 .4-1 1v.2zm1.6 0h-.9c-.1 0-.5 0-.5-.3s.4-.7.8-.7c.3 0 .6.2.6 1zM10.7 12.8a5.6 5.6 0 0 0-2.2 4.7c0 1.3.4 3.3 2.2 4.6l.2-.1v-.1c-1.3-1.2-1.7-2.7-1.7-4.4 0-2.5 1-3.8 1.7-4.5 0-.2 0-.2-.2-.2zM12.7 19.2v.4c0 .2.1.3.3.3l.3-.2.2-.6.2-.8.2-.6c0-.4 0-.5.3-.9s.7-.8 1.4-.8c.6 0 .6.4.6.6 0 .6-.4 1.6-.6 2l-.1.5c0 .5.4.8.9.8.9 0 1.3-1.3 1.3-1.4l-.1-.2c-.2 0-.2.1-.2.2-.2.7-.6 1.1-1 1.1-.2 0-.2-.1-.2-.3l.2-.8c.1-.2.5-1.2.5-1.8 0-.8-.7-1-1.2-1a2 2 0 0 0-1.6.8c0-.6-.6-.8-1-.8s-.6.3-.7.5l-.4 1h.2l.2-.2c.1-.6.3-1 .7-1 .2 0 .3.2.3.4l-.2.8-.2.8zm7.4.4c0 .6 0 1.1-.7 1.7v.2c.2 0 1-.7 1-1.8 0-.5-.2-1-.7-1-.3 0-.5.3-.5.5 0 .4.2.6.5.6s.4-.2.4-.2zm5.3-5.6c0-.2-.1-.4-.4-.4-.2 0-.5.3-.5.5s.1.4.4.4c.2 0 .5-.3.5-.5zm-2 6.2c-.1.7-.6 1.2-1.2 1.2H22c.2-.1.3-.4.3-.5 0-.2-.2-.3-.4-.3s-.5.2-.5.5c0 .4.4.6 1 .6.5 0 1.6-.3 1.9-1.5L25 17v-.3c0-.5-.4-.9-1-.9-1 0-1.6 1.3-1.6 1.4l.2.1.2-.1c.2-.6.7-1.1 1.2-1.1.3 0 .3.1.3.4v.3zM27.1 12.8l-.2.1.1.2c.8.7 1.7 2 1.7 4.4 0 2-.6 3.4-1.6 4.3l-.2.2.1.1c.1 0 1-.6 1.6-1.8.5-.7.7-1.7.7-2.8 0-1.3-.4-3.4-2.2-4.7zM39.5 12.2h3.7c.2 0 .4 0 .4-.3 0-.2-.2-.2-.4-.2h-3.7V8c0-.2 0-.5-.3-.5s-.3.3-.3.5v3.7h-3.7c-.2 0-.4 0-.4.2 0 .3.2.3.4.3H39V16c0 .2 0 .5.3.5s.3-.3.3-.5zM59.6 7.2c.1-.5.1-.6 1.1-.6.4 0 .5 0 .5-.2s-.2-.2-.4-.2h-1.7c-.4 0-.4 0-.6.3L53.7 14l-1-7.5c0-.3-.1-.3-.5-.3h-1.8c-.2 0-.4 0-.4.3l.4.1h.6c.2 0 .3.1.3.3V7l-1.8 6.8c-.1.5-.3 1-1.4 1 0 0-.2 0-.2.2 0 .1 0 .2.2.2h2.6c.1 0 .3 0 .3-.3l-.3-.1c-.7 0-.9-.3-.9-.6l.1-.3 1.8-7.3L53 15c0 .1 0 .3.2.3l.3-.3 5.3-8.4-1.9 7.6c-.1.6-.1.7-1.2.7-.2 0-.4 0-.4.2s.2.2.2.2h3.4s.2 0 .2-.3l-.4-.1c-.5 0-.8 0-.8-.3v-.3zM68.5 23.7l.1.2h.3l.2-.1v-.2c-.6-.4-1.3-1.2-2.1-2.6-1.4-2.6-2-5.9-2-9 0-6 1.7-9.4 4-11.8 0-.2 0-.2-.2-.2l-.3.1c-1.3 1.1-2.7 3-3.6 5.7a20.4 20.4 0 0 0 1.8 16 13.8 13.8 0 0 0 1.3 1.5zM73.5 6.8c0-.3 0-.4-.3-.4-.8.9-2 .9-2.4.9v.4c.2 0 1 0 1.7-.3v6.8c0 .5 0 .7-1.2.7h-.5v.4H75.1v-.4h-.4c-1.2 0-1.2-.2-1.2-.7zM88 12.2c.2 0 .4 0 .4-.3 0-.2-.2-.2-.5-.2h-7.2c-.2 0-.4 0-.4.2 0 .3.2.3.4.3zM109.3 21.2l1.6-4.2h-.4c-.5 1.4-1.9 2.3-3.4 2.7-.3 0-1.6.4-4.2.4h-8l6.8-8 .1-.1v-.3l-6.3-8.4h7.3c1.8 0 3 .2 3.1.2.8.1 2 .3 3 1 .3.2 1.2.8 1.6 1.9h.4l-1.6-3.7H93.2v.5l7 9.6-6.9 8-.1.3.4.1zM95.1 25v-.2h-1.3c0 .1-.2.1-.2.3l.3.1c.4 0 .4.1.4.2v.2L93 30.2v.3c0 .6.5.8 1 .8.2 0 .5 0 .7-.5l.3-.9-.1-.1c-.1 0-.2 0-.2.2-.1.5-.3 1-.7 1-.2 0-.3-.2-.3-.4v-.3zM101.7 29.2c.2 0 .4 0 .4-.3 0-.2-.2-.2-.4-.2h-4.3a2.6 2.6 0 0 1 2.7-2.4h1.6c.2 0 .4 0 .4-.2s-.2-.2-.4-.2h-1.6a3.1 3.1 0 0 0-3.2 3 3 3 0 0 0 3.2 3h1.6c.2 0 .4 0 .4-.2s-.2-.2-.4-.2h-1.6c-1.4 0-2.6-1-2.7-2.3zM104.9 30.5c-.1.3-.1.4-.9.4-.1 0-.2 0-.2.2s0 .2.2.2h3.6c1.6 0 2.8-1.1 2.8-2 0-.7-.6-1.3-1.6-1.4 1.1-.2 2-.9 2-1.7 0-.7-.6-1.3-1.9-1.3h-3.3c-.2 0-.3 0-.3.2l.3.1h.3c.2 0 .2.1.2.2v.2zm1.4-2.7.6-2.2c0-.3.1-.4.5-.4h1.4c1 0 1.2.7 1.2 1 0 .8-.9 1.6-2.1 1.6zM106 31h-.3v-.3l.7-2.5h2c.8 0 1.2.6 1.2 1.1 0 1-1 1.7-2.1 1.7zM123.4 6.5v-.2l-.3-.1h-5.6c-.3 0-.3 0-.4.3l-.7 2.4V9.2l.3-.1c.5-1.6 1.2-2.5 3.2-2.5h2.2l-7.4 8.3v.2c0 .2 0 .2.3.2h5.7c.4 0 .4 0 .4-.3l1-3V12l-.1-.2c-.1 0-.2 0-.3.4-.5 1.8-1.2 2.7-3.4 2.7H116ZM126.2 10.7a5.6 5.6 0 0 0-2.2 4.6c0 1.4.4 3.4 2.2 4.7l.2-.1v-.2c-1.3-1-1.8-2.7-1.8-4.4 0-2.5 1-3.7 1.7-4.4h.1c0-.2-.1-.2-.2-.2zM131.1 17l-.1.5c0 .2.1.3.3.3.2 0 .3-.2.3-.2l.2-.6a17.1 17.1 0 0 0 .4-1.5c0-.4 0-.4.3-.7.3-.4.7-1 1.5-1 .5 0 .5.5.5.7 0 .5-.4 1.6-.5 2l-.2.5c0 .5.4.8.9.8 1 0 1.3-1.3 1.3-1.5H135.7c-.2.8-.6 1.2-1 1.2-.2 0-.2-.1-.2-.3l.2-.8c.1-.3.5-1.2.5-1.8 0-.1 0-.5-.3-.8l-1-.2c-.7 0-1.3.5-1.5 1-.1-.9-.8-1-1.3-1a2 2 0 0 0-1.5.8c0-.6-.6-.8-1-.8s-.6.3-.8.5l-.3.9.2.1.2-.3c.1-.5.3-1 .7-1 .2 0 .3.2.3.5l-.2.8-.2.8-.3 1.2v.4c0 .2 0 .3.2.3l.4-.2.2-.6.2-.9.1-.6.4-.8c.3-.4.7-.9 1.4-.9.5 0 .5.5.5.7l-.1.9zm7.4.5c0 .5-.1 1.1-.8 1.7V19.5c.2 0 1-.8 1-1.9 0-.6-.2-1-.6-1-.3 0-.6.2-.6.5s.2.6.6.6l.4-.2zm4.2-5.6c0-.2-.1-.4-.4-.4-.3 0-.5.2-.5.5 0 .2 0 .4.3.4s.6-.3.6-.5zm-2 4.7v.4c0 .4.4.8.9.8.9 0 1.3-1.3 1.3-1.5H142.6c-.2.8-.6 1.2-1 1.2-.2 0-.3-.1-.3-.3l.2-.6.3-.8.5-1.1v-.3c0-.5-.4-.8-.9-.8-.9 0-1.3 1.2-1.3 1.4l.1.1.2-.1c.2-.8.7-1.2 1-1.2.2 0 .2.1.2.4l-.3.9zM144.3 10.7l-.2.1v.2c.9.7 1.7 2 1.7 4.3 0 2-.6 3.4-1.6 4.4l-.1.2c.2 0 1-.5 1.7-1.7.4-.8.7-1.8.7-2.9 0-1.3-.4-3.3-2.2-4.6zm6.6 0a5.6 5.6 0 0 0-2.3 4.6c0 1.4.4 3.4 2.3 4.7l.1-.1v-.2c-1.3-1-1.7-2.7-1.7-4.4 0-2.5 1-3.7 1.7-4.4l-.1-.2zM152.9 17l-.1.5c0 .2.1.3.3.3l.3-.2.2-.6.2-.9.2-.6c0-.4 0-.4.4-.8.2-.4.7-.9 1.3-.9.6 0 .6.5.6.7 0 .5-.4 1.6-.6 2l-.1.5c0 .5.4.8.9.8 1 0 1.3-1.3 1.3-1.5H157.5c-.2.8-.6 1.2-1 1.2-.2 0-.2-.1-.2-.3l.2-.8c.1-.3.5-1.2.5-1.8 0-.9-.7-1-1.2-1a2 2 0 0 0-1.6.8c0-.6-.6-.8-1-.8s-.6.3-.7.5l-.4.9.2.1.2-.3c.1-.5.3-1 .7-1 .2 0 .3.2.3.5l-.1.8-.3.8zm7.3.5c0 .5 0 1.1-.7 1.7V19.5c.2 0 1-.8 1-1.9 0-.6-.2-1-.6-1-.4 0-.6.2-.6.5s.2.6.6.6c.2 0 .3-.2.3-.2zm5.3-5.6c0-.2-.1-.4-.4-.4-.2 0-.5.3-.5.5s.1.4.4.4c.2 0 .5-.3.5-.5zm-2 6.2c-.1.7-.6 1.2-1.2 1.2h-.3l.3-.5c0-.2-.2-.4-.3-.4-.3 0-.6.3-.6.6s.4.6 1 .6c.5 0 1.6-.4 1.9-1.5l.8-3.3v-.3c0-.6-.4-1-1-1-1 0-1.6 1.4-1.6 1.5l.2.1.2-.1c.2-.6.7-1.2 1.2-1.2.3 0 .4.2.4.5v.3zM167.2 10.7l-.2.1.1.2c.8.7 1.7 2 1.7 4.3 0 2-.6 3.4-1.6 4.4l-.2.2h.1c.2 0 1-.5 1.7-1.7.4-.8.6-1.8.6-2.9 0-1.3-.4-3.3-2.2-4.6zM172.5 17.5c0 .5-.1 1.1-.7 1.7l-.1.1.1.2c.2 0 1-.8 1-1.9 0-.6-.3-1-.7-1-.3 0-.5.2-.5.5s.2.6.5.6l.4-.2zm3.8-6v-.2H175s-.2 0-.2.2.1.2.2.2l.5.1v.2l-1.2 4.6v.3c0 .6.5.9 1 .9.2 0 .4-.1.7-.5l.3-1h-.2l-.1.1c-.2.5-.3 1.1-.7 1.1-.3 0-.3-.2-.3-.5v-.3zM183.3 12c0-3.9-1-8-3.5-11a12 12 0 0 0-1-1h-.3l-.3.1.1.2c.5.4 1.2 1.2 2 2.6 1.4 2.6 2 5.9 2 9 0 5.8-1.6 9.3-4 11.8 0 .2 0 .2.2.2l.3-.1c1.3-1.1 2.7-3 3.6-5.8.6-1.8.9-4 .9-6zM198.3 11l.3-.3c0-.2 0-.2-.3-.3L191 6.9h-.3c-.1 0-.2 0-.2.2s0 .2.2.3l7 3.3-7 3.2-.2.4c0 .1 0 .2.2.2h.3zm-.2 6c.3 0 .5 0 .5-.2s-.3-.2-.5-.2H191c-.2 0-.4 0-.4.2 0 .3.2.3.4.3zM209 7.2l.4-.5h.8c1.4 0 2 0 2 1L212 9V9s0 .2.2.2l.2-.3.3-2.4v-.2l-.3-.1H205c-.3 0-.3 0-.4.3l-.8 2.3v.4c.2 0 .2 0 .3-.3.7-2 1-2.3 3-2.3h.5c.4 0 .4 0 .4.2V7l-1.8 7.1c-.1.5-.2.7-1.6.7-.5 0-.5 0-.5.2s0 .2.2.2h4.5s.2 0 .2-.3l-.4-.1h-.9c-.4-.1-.4-.1-.4-.4v-.2zM218.2 8c0-.8-.6-1.6-1.5-1.8l-1.4-.3c-.8-.2-1-.8-1-1.1 0-.7.5-1.2 1.4-1.2 1.2 0 1.8.8 2 1.8v.2c.2 0 .2-.1.2-.3V3.5l-.1-.2h-.2l-.3.6c-.6-.6-1.4-.6-1.6-.6-1.2 0-2 .8-2 1.7 0 .6.2 1 .5 1.3.4.3.7.4 1.7.6.9.2 1 .2 1.3.5.2.2.4.5.4 1 0 .6-.5 1.2-1.4 1.2-1 0-2.2-.3-2.2-1.7 0-.2 0-.2-.2-.2l-.1.2V10l.2-.1.4-.6c.6.6 1.3.7 1.9.7 1.2 0 2-1 2-2zm4.2.6v-.5h-.4v.5c0 .6-.3 1-.6 1-.7 0-.7-.8-.7-1V6.1h1.5v-.3h-1.5V4h-.3c0 .8-.4 1.7-1.3 1.8V6h1v2.5c0 1 .7 1.3 1.2 1.3.6 0 1-.5 1-1.3zm5.7.3v-.5h-.4V9c0 .1 0 .6-.3.6s-.3-.5-.3-.6V7.3c0-.5 0-.9-.5-1.2a2 2 0 0 0-1.3-.5c-1 0-1.5.4-1.5 1 0 .2.2.4.4.4.3 0 .4-.2.4-.4s0-.4-.3-.5c.4-.2.9-.2 1-.2.5 0 1 .3 1 1.1v.3c-.5 0-1.1 0-1.8.3-.8.3-1 .8-1 1.3 0 .7 1 1 1.6 1 .7 0 1.1-.4 1.3-.8 0 .4.3.7.8.7 0 0 .9 0 .9-.9zm-1.8-.4c0 .9-.8 1.1-1.2 1.1-.4 0-.9-.3-.9-.7 0-.6.5-1.3 2.1-1.3zm5.8-2.2c0-.3-.3-.6-.7-.6-.5 0-1 .3-1.3 1v-1h-1.3v.4c.6 0 .7.1.7.5v2.5c0 .4-.1.4-.7.4v.3h2.2v-.3h-.2c-.6 0-.6-.1-.6-.5V7.7c0-.8.3-1.8 1.2-1.8l-.2.4c0 .3.3.4.5.4s.4-.1.4-.4zm3.8 2.3v-.5h-.3v.5c0 .6-.3 1-.6 1-.7 0-.7-.8-.7-1V6.1h1.5v-.3h-1.5V4h-.3c0 .8-.4 1.7-1.3 1.8V6h.9v2.5c0 1 .8 1.3 1.3 1.3.6 0 1-.5 1-1.3zM245.7 12.2h3.7c.1 0 .4 0 .4-.3 0-.2-.3-.2-.4-.2h-3.7V8c0-.2 0-.5-.3-.5s-.3.3-.3.5v3.7h-3.7c-.2 0-.4 0-.4.2 0 .3.2.3.4.3h3.7V16c0 .2 0 .5.3.5s.3-.3.3-.5zM256.2 10h1.3c.2 0 .4 0 .4-.3l-.4-.1h-1.2l.6-2.3c0-.2-.2-.3-.4-.3 0 0-.4 0-.5.4l-.5 2.2h-1.3c-.3 0-.4 0-.4.2s.1.2.4.2h1.1c-1 3.7-1 4-1 4.2 0 .7.5 1.2 1.3 1.2 1.3 0 2-2 2-2v-.2c-.2 0-.2 0-.3.2-.6 1.4-1.3 1.7-1.7 1.7-.3 0-.4-.1-.4-.6V14zM265.7 9.8v-.3h-.2c-.6 0-.7-.1-.8-.4l-2.2-5.7c0-.2-.1-.2-.3-.2-.2 0-.2 0-.2.2l-2.2 5.4c-.1.2-.3.7-1 .7v.3h1.9v-.3c-.3 0-.6-.2-.6-.5v-.2l.5-1.1h2.7l.5 1.3v.2c0 .3-.5.3-.7.3v.3H265.7zm-2.6-2.4h-2.4l1.2-3zm10.4.2v-.4h-2.9v.4h.4c.9 0 .9 0 .9.4v.6c0 .2 0 .5-.5.8-.5.2-1 .2-1.1.2-1 0-2.8-.6-2.8-3 0-2.5 1.8-3 2.7-3 .9 0 2 .6 2.2 2.2l.2.1c.2 0 .2 0 .2-.2V3.5c0-.2 0-.2-.2-.2h-.1l-.5.8c-.5-.5-1.1-.8-2-.8-1.9 0-3.5 1.5-3.5 3.3 0 1.8 1.6 3.4 3.6 3.4.5 0 1.5-.1 2-.8.1.3.5.6.6.6V8c0-.4.2-.4.8-.4zm8.1-3.8v-.4h-2v.4c.3 0 .6.1.6.4v.2l-2 4.5-2-4.7V4c0-.2.5-.2.7-.2v-.4h-2.6v.4h.2c.5 0 .7 0 .8.3l2.4 5.7c0 .1.1.2.3.2 0 0 .2 0 .3-.2l2.3-5.4c0-.3.3-.6 1-.6zM261.6 12.1a5.6 5.6 0 0 0-2.2 4.6c0 1.4.3 3.4 2.2 4.7l.2-.1-.1-.2c-1.2-1-1.7-2.7-1.7-4.4 0-2.5 1-3.7 1.7-4.4l-.1-.2zM266.5 18.3l-.1.6c0 .2.1.3.3.3l.3-.2.2-.6.2-.9.2-.6c0-.4 0-.4.3-.7.3-.4.7-1 1.4-1 .6 0 .6.5.6.7 0 .5-.4 1.6-.6 2l-.1.5c0 .5.4.8.9.8 1 0 1.3-1.3 1.3-1.5H271.1c-.2.8-.6 1.2-1 1.2-.2 0-.2-.1-.2-.3l.2-.8c.1-.3.5-1.2.5-1.8 0-.1 0-.5-.4-.8l-.8-.2c-.9 0-1.4.5-1.7 1 0-.9-.7-1-1.2-1a2 2 0 0 0-1.6.8c0-.6-.6-.8-1-.8-.3 0-.6.3-.7.5l-.3.9.1.1c.2 0 .2 0 .2-.3.2-.5.4-1 .7-1 .3 0 .3.2.3.5l-.1.8-.2.8-.3 1.2-.1.4c0 .2.2.3.3.3l.4-.2.1-.6.2-.9.2-.6.4-.8c.3-.4.7-.9 1.4-.9.5 0 .5.5.5.7l-.1.9zm7.3.6c0 .5 0 1.1-.7 1.7V21c.2 0 1-.8 1-1.9 0-.6-.2-1-.7-1-.3 0-.5.2-.5.5s.2.6.5.6.4-.2.4-.2zm4.2-5.6c0-.2 0-.4-.3-.4s-.6.3-.6.5.2.4.4.4c.3 0 .5-.3.5-.5zm-1.9 4.7v.4c0 .4.3.8.8.8 1 0 1.4-1.3 1.4-1.5h-.4c-.2.8-.6 1.2-1 1.2-.1 0-.2-.1-.2-.3l.2-.6c0-.3.2-.5.3-.8l.4-1.1v-.3c0-.5-.3-.8-.8-.8-1 0-1.3 1.2-1.3 1.4l.1.1.2-.1c.2-.8.6-1.2 1-1.2.1 0 .2.1.2.4l-.3.9zm4.6 1c0 .4 0 1-.7 1.6V21c.2 0 1-.8 1-1.9 0-.6-.2-1-.6-1-.4 0-.6.2-.6.5s.2.6.6.6c.2 0 .3-.2.3-.2zM284.5 16c.7 0 1.2.5 1.2 1.5 0 1.1-.6 1.5-1.2 1.5-.4 0-1.2-.1-1.6-.7.5 0 .6-.3.6-.5 0-.3-.2-.5-.5-.5s-.6.1-.6.5c0 .9 1 1.5 2.1 1.5 1.3 0 2.2-.9 2.2-1.8 0-.8-.6-1.5-1.6-1.7 1-.4 1.3-1 1.3-1.6 0-.8-.8-1.3-1.8-1.3s-1.9.5-1.9 1.3c0 .3.2.4.5.4s.5-.2.5-.4c0-.3-.2-.5-.5-.5.3-.4 1-.5 1.3-.5.4 0 1 .2 1 1 0 .4-.1.8-.3 1-.4.4-.6.5-1 .5h-.4v.1c0 .2 0 .2.2.2zM288 12l-.2.1v.2c.9.7 1.8 2 1.8 4.3 0 2-.6 3.5-1.6 4.4l-.2.2h.1c.1 0 1-.5 1.6-1.7.4-.8.7-1.8.7-2.9 0-1.3-.4-3.3-2.2-4.6zm6.6 0a5.6 5.6 0 0 0-2.3 4.6c0 1.4.4 3.4 2.3 4.7l.2-.1-.1-.2c-1.3-1-1.7-2.7-1.7-4.4 0-2.5 1-3.7 1.7-4.4l-.1-.2zM299.6 18.3l-.2.6c0 .2.2.3.4.3l.3-.2.2-.6.2-.9.1-.6.3-.7c.3-.4.8-1 1.5-1 .5 0 .6.5.6.7 0 .5-.4 1.6-.6 2l-.1.5c0 .5.4.8.9.8.9 0 1.3-1.3 1.3-1.5H304.2c-.2.8-.6 1.2-1 1.2-.2 0-.2-.1-.2-.3l.2-.8c0-.3.5-1.2.5-1.8 0-.1 0-.5-.4-.8l-.8-.2c-.9 0-1.4.5-1.7 1 0-.9-.7-1-1.2-1a2 2 0 0 0-1.6.8c0-.6-.6-.8-1-.8s-.6.3-.7.5l-.3.9.1.1c.2 0 .2 0 .2-.3.2-.5.3-1 .7-1 .3 0 .3.2.3.5l-.1.8-.2.8-.3 1.2-.1.4c0 .2.1.3.3.3l.4-.2.1-.6.2-.9.2-.6.4-.8c.2-.4.7-.9 1.4-.9.5 0 .5.5.5.7l-.1.9zm7.3.6c0 .5 0 1.1-.7 1.7V21c.2 0 1-.8 1-1.9 0-.6-.2-1-.7-1-.3 0-.5.2-.5.5s.2.6.5.6.4-.2.4-.2zm4.2-5.6c0-.2 0-.4-.3-.4s-.6.3-.6.5.1.4.4.4c.3 0 .5-.3.5-.5zm-1.9 4.7v.4c0 .4.3.8.8.8 1 0 1.4-1.3 1.4-1.5h-.4c-.2.8-.6 1.2-1 1.2-.1 0-.2-.1-.2-.3 0-.2 0-.4.2-.6 0-.3.2-.5.3-.8l.4-1.1v-.3c0-.5-.3-.8-.8-.8-1 0-1.3 1.2-1.3 1.4l.1.1.2-.1c.2-.8.6-1.2 1-1.2.1 0 .2.1.2.4l-.3.9zm4.6 1c0 .4 0 1-.7 1.6V21c.2 0 1-.8 1-1.9 0-.6-.2-1-.7-1-.3 0-.5.2-.5.5s.2.6.5.6.4-.2.4-.2zM320 17.5v-.3h-1v-4.1c0-.2 0-.3-.3-.3l-.2.1-3.1 4.3v.3h2.7v.8c0 .3 0 .4-.7.4h-.3v.4a51.5 51.5 0 0 1 2.8 0v-.4h-.2c-.8 0-.8 0-.8-.4v-.8Zm-1.8-3.7v3.4h-2.5zm3-1.7-.2.1v.2c.9.7 1.8 2 1.8 4.3 0 2-.6 3.5-1.6 4.4l-.2.2h.1c.1 0 1-.5 1.6-1.7.4-.8.7-1.8.7-2.9 0-1.3-.4-3.3-2.2-4.6zM327.8 15.3c0-1-.3-1.4-.8-1.4-.4 0-.7.3-.7.7 0 .3.3.7.7.7.1 0 .3 0 .5-.2v.2c0 1-.4 1.7-.9 2.2l-.1.2.1.1c.2 0 1.2-1 1.2-2.5zM338.4 6.6v-.3c0-.1 0-.2-.2-.2s-.3.1-.3.3l-1.1 2.9h-4l-1.2-3c0-.1-.1-.2-.3-.2l-.3.2.1.3 3.3 8.7.3.3c.2 0 .3-.2.3-.3zm-5.5 3.2h3.6l-1.8 4.7zM342.8 18.5l-.2-.3c-1.7-1.7-2-4.2-2-6.3 0-2.3.4-4.6 2-6.2l.2-.3-.1-.1c-.1 0-1.3 1-2.1 2.6a9.9 9.9 0 0 0 0 8.2c.8 1.6 2 2.5 2.1 2.5l.1-.1zM344.8 14.5l-.2.6c0 .2.2.3.4.3s.4 0 .5-.3l.3-1 .3-1.2.2-1 .2-.6c.2-.4.9-1.6 2.1-1.6.6 0 .7.5.7 1 0 .3 0 .6-.2 1l-.3 1.6-.3 1-.2.8c0 .2.2.3.4.3.4 0 .5-.3.6-.7l.8-3.2c0-.2.8-1.8 2.2-1.8.6 0 .7.4.7 1 0 .7-.5 2.2-.8 2.9l-.2.7c0 .7.5 1.1 1.1 1.1 1.3 0 1.8-2 1.8-2 0-.2-.2-.2-.2-.2l-.2.3c-.2.7-.6 1.6-1.4 1.6-.2 0-.3-.1-.3-.4 0-.3.1-.7.3-1 .2-.6.8-2.1.8-2.9 0-.8-.6-1.4-1.6-1.4s-1.6.6-2.1 1.3c0-.2 0-.6-.4-1l-1.1-.3c-1.2 0-1.9.9-2.1 1.2 0-.8-.6-1.2-1.2-1.2s-.9.5-1 .8l-.4 1.2.1.2c.2 0 .2 0 .3-.3.2-1 .5-1.6 1-1.6.1 0 .4.1.4.6l-.3 1.1zm13.2.8c0-1-.4-1.4-.9-1.4-.4 0-.7.3-.7.7 0 .3.3.7.7.7.2 0 .3 0 .5-.2v.2c0 1-.4 1.7-.8 2.2l-.2.2.1.1c.2 0 1.3-1 1.3-2.5zm7-8.3c0-.3-.3-.5-.6-.5s-.7.3-.7.7c0 .2.2.5.5.5s.7-.3.7-.7zm-1 5 .2-.8.2-.7c0-.6-.5-1.1-1.1-1.1-1.3 0-1.8 2-1.8 2 0 .2.2.2.2.2l.2-.3c.3-1.2.9-1.6 1.3-1.6.1 0 .4 0 .4.4l-.2.7c0 .3-.7 1.9-.9 2.5l-.3 1c0 .7.5 1.1 1.1 1.1 1.2 0 1.7-2 1.7-2l-.1-.2c-.2 0-.2 0-.2.3-.3.8-.7 1.6-1.4 1.6-.2 0-.3-.1-.3-.4 0-.3 0-.5.4-1.3zM369.6 12c0-1-.2-2.7-.9-4.2-.8-1.6-2-2.5-2-2.5l-.2.1.3.4c1.3 1.3 2 3.4 2 6.1 0 2.3-.5 4.7-2.1 6.3l-.2.3.1.1c.2 0 1.4-.9 2.1-2.6.7-1.5.9-3 .9-4zM381.9 12.2c.2 0 .4 0 .4-.3 0-.2-.2-.2-.4-.2h-5.7c.2-1.8 1.7-3 3.6-3h2c.3 0 .5 0 .5-.3s-.2-.3-.4-.3h-2.1c-2.3 0-4.1 1.7-4.1 3.8a4 4 0 0 0 4 3.9h2.2c.2 0 .4 0 .4-.3 0-.2-.2-.2-.4-.2h-2.1c-1.9 0-3.4-1.3-3.6-3zM389.2 14.2c0 .6-.1.7-1.2.7-.2 0-.3 0-.3.2s0 .2.3.2h4.4c2.8 0 5.4-2.8 5.4-5.7 0-1.9-1.1-3.4-3.1-3.4h-4.5c-.2 0-.4 0-.4.3l.4.1h.6c.2 0 .3.1.3.3V7zm3-7c0-.6 0-.6.6-.6h1.5c1.3 0 2.4.7 2.4 2.5 0 .6-.3 2.8-1.4 4.3a4 4 0 0 1-3.1 1.5h-1.8c-.1 0-.2 0-.2-.2v-.3zm9 8c0-.8-.4-1.3-.9-1.3-.4 0-.7.3-.7.7 0 .3.3.7.7.7.2 0 .4 0 .5-.2v.2c0 1-.4 1.7-.8 2.2l-.2.2.2.1c.1 0 1.2-1 1.2-2.5zM411.7 6.6l.1-.3c0-.1-.1-.2-.3-.2l-.3.3-1 2.9H406l-1.1-3-.3-.2-.3.2v.3l3.4 8.7c0 .1.1.3.3.3.2 0 .2-.2.3-.3zm-5.4 3.2h3.6l-1.8 4.7zM416.2 18.5l-.2-.3c-1.7-1.7-2.1-4.2-2.1-6.3 0-2.3.5-4.6 2.1-6.2l.2-.3-.1-.1c-.2 0-1.4 1-2.2 2.6-.6 1.5-.8 3-.8 4s.2 2.7.9 4.2c.8 1.6 2 2.5 2 2.5l.2-.1zM418.1 14.5l-.1.6c0 .2.2.3.4.3.1 0 .4 0 .5-.3l.2-1 .3-1.2.3-1 .1-.6c.2-.4 1-1.6 2.2-1.6.6 0 .7.5.7 1 0 .7-.7 2.4-.9 3l-.1.6c0 .7.5 1.1 1.1 1.1 1.2 0 1.7-2 1.7-2l-.1-.2-.2.3c-.3.9-.7 1.6-1.4 1.6-.2 0-.3-.1-.3-.4 0-.3.1-.7.3-1 .2-.7.7-2.1.7-2.9 0-.9-.5-1.4-1.5-1.4-1.2 0-1.8.9-2 1.2-.1-.8-.7-1.2-1.3-1.2-.6 0-.8.5-1 .8l-.4 1.2c0 .2.2.2.2.2l.2-.3c.3-1 .5-1.6 1-1.6.3 0 .4.2.4.6l-.2 1.1zm9.5.8c0-1-.3-1.4-.8-1.4s-.7.3-.7.7c0 .3.2.7.7.7.1 0 .3 0 .4-.2h.1v.2c0 1-.4 1.7-.9 2.2l-.1.2.1.1c.2 0 1.2-1 1.2-2.5zm8.5-8.3c0-.3-.2-.5-.5-.5s-.7.3-.7.7c0 .3.2.5.5.5s.7-.4.7-.7zm-2.7 9c-.2 1-.9 1.7-1.6 1.7l-.5-.1c.4-.1.6-.5.6-.7 0-.2-.2-.5-.5-.5-.4 0-.8.3-.8.8s.6.8 1.2.8c1 0 2.2-.7 2.5-2l1.2-4.9v-.5c0-.7-.5-1.2-1.1-1.2-1.4 0-2.1 2-2.1 2l.1.2.3-.3c.3-.8 1-1.6 1.6-1.6.2 0 .4 0 .4.6v.7zM441 12c0-1-.3-2.7-1-4.2-.8-1.6-2-2.5-2-2.5l-.2.1.3.4c1.3 1.3 2 3.4 2 6.1 0 2.3-.5 4.7-2.1 6.3l-.2.3.2.1s1.3-.9 2-2.6c.7-1.5 1-3 1-4zM453.2 12.2c.2 0 .5 0 .5-.3 0-.2-.3-.2-.5-.2h-5.6c.1-1.8 1.6-3 3.5-3h2.1c.2 0 .5 0 .5-.3s-.3-.3-.5-.3h-2c-2.4 0-4.2 1.7-4.2 3.8a4 4 0 0 0 4.1 3.9h2.1c.2 0 .5 0 .5-.3 0-.2-.3-.2-.5-.2h-2c-2 0-3.5-1.3-3.6-3zM460.6 14.2c-.2.6-.2.7-1.2.7-.3 0-.4 0-.4.2s.1.2.4.2h4.4c2.7 0 5.3-2.8 5.3-5.7 0-1.9-1-3.4-3-3.4h-4.5c-.3 0-.4 0-.4.3l.3.1h.6c.2 0 .3.1.3.3V7zm2.8-7c.2-.6.2-.6.8-.6h1.4c1.3 0 2.4.7 2.4 2.5 0 .6-.3 2.8-1.4 4.3a4 4 0 0 1-3 1.5H461.6l-.1-.2v-.3zm0 0"/></g></svg>