<svg xmlns="http://www.w3.org/2000/svg" width="421.5" height="18.1"><g aria-label="T Start (m,i,α) ≥T Y(m,i) +G Y(m,i) ,∀(m,i)∈D,α∈{4}or∀(m,i)∈L,α∈{1}"><path d="M5.4 4c0-.4.1-.5.3-.5h.8c1.3 0 2 0 2 1l-.2 1v.3c0 .1 0 .2.2.2l.2-.3.3-2.3v-.2C9 3 9 3 8.7 3H1.3C1 3 1 3 1 3.3L0 5.6 0 6l.2.1.2-.3c.7-2 1-2.3 3-2.3H4c.4 0 .4 0 .4.2v.3l-1.8 7c-.1.6-.2.7-1.6.7-.5 0-.6 0-.6.3l.3.1H5c.2 0 .3 0 .3-.2s0-.2-.4-.2H4c-.4 0-.5-.1-.5-.3V11zM14.5 4.8c0-.8-.6-1.6-1.5-1.8l-1.4-.3c-.8-.2-1-.8-1-1.2 0-.6.5-1.2 1.3-1.2 1.3 0 1.8.8 2 1.8 0 .2 0 .2.2.2l.1-.3V.2l-.1-.2-.2.1-.3.5C13 0 12.2 0 11.9 0c-1.1 0-2 .8-2 1.8 0 .5.3.9.6 1.2.4.4.7.4 1.7.7.8.1 1 .2 1.3.4.2.3.4.6.4 1 0 .6-.5 1.3-1.4 1.3-1 0-2.2-.4-2.2-1.8 0-.1 0-.2-.2-.2s-.2 0-.2.3v1.8c0 .1 0 .2.2.2h.1l.4-.6c.6.5 1.3.6 1.9.6 1.2 0 2-.9 2-1.9zm4.1.6v-.6h-.3v.5c0 .7-.3 1-.6 1-.7 0-.7-.8-.7-1V3h1.5v-.4H17V.8h-.3c0 .9-.4 1.8-1.3 1.8v.3h.9v2.5c0 1 .8 1.2 1.3 1.2.6 0 1-.5 1-1.2zm5.8.3v-.5H24v.5s0 .5-.3.5-.3-.4-.3-.5V4c0-.5 0-.8-.5-1.2a2 2 0 0 0-1.3-.4c-1 0-1.5.3-1.5.9 0 .3.2.4.4.4s.4-.1.4-.4c0-.2 0-.3-.3-.4.3-.3.9-.3 1-.3.5 0 1 .4 1 1.2V4c-.5 0-1.1 0-1.8.3-.8.3-1 .8-1 1.2 0 .8.9 1 1.6 1 .7 0 1.1-.4 1.3-.8 0 .4.3.8.7.8 0 0 1 0 1-1zm-1.8-.5c0 1-.8 1.2-1.2 1.2-.5 0-.9-.4-.9-.8 0-.5.4-1.2 2.1-1.3zM28.4 3c0-.3-.3-.6-.8-.6-.4 0-1 .3-1.2 1v-1l-1.3.1V3c.6 0 .7 0 .7.5v2.4c0 .4-.1.4-.7.4v.3h2.2v-.3h-.2c-.7 0-.7-.1-.7-.4V4.4c0-.8.4-1.7 1.3-1.7l-.2.3c0 .3.3.5.5.5s.4-.2.4-.5zm3.8 2.4v-.6H32v.5c0 .7-.3 1-.6 1-.7 0-.7-.8-.7-1V3h1.5v-.4h-1.5V.8h-.3c0 .9-.4 1.8-1.3 1.8v.3h.9v2.5c0 1 .8 1.2 1.3 1.2.6 0 1-.5 1-1.2zM10.7 8.8a5.6 5.6 0 0 0-2.2 4.7c0 1.3.4 3.3 2.2 4.6h.2v-.2c-1.3-1.1-1.7-2.7-1.7-4.4 0-2.5 1-3.7 1.7-4.4V9c0-.2 0-.2-.2-.2zM15.6 15v.6c0 .2 0 .3.2.3l.4-.2.2-.6a17.1 17.1 0 0 0 .3-1.4l.3-.7c.3-.5.8-1 1.5-1 .5 0 .5.4.5.6 0 .6-.4 1.6-.5 2l-.1.5c0 .5.4.8.8.8 1 0 1.4-1.3 1.4-1.4l-.2-.1-.2.1c-.2.8-.6 1.1-1 1.1-.1 0-.2 0-.2-.3l.2-.7c.2-.3.5-1.3.5-1.8 0-.2 0-.6-.3-.8-.2-.2-.4-.3-.9-.3-.8 0-1.3.6-1.6 1-.1-.8-.8-1-1.2-1a2 2 0 0 0-1.6.9c0-.7-.6-.9-1-.9s-.6.3-.7.5l-.4 1h.2l.2-.2c.1-.6.3-1 .7-1 .2 0 .3.2.3.4l-.2.8-.2.8-.3 1.2v.4c0 .2.1.3.3.3l.3-.2.2-.6.2-.8.2-.6c0-.4 0-.5.3-.9.3-.3.7-.8 1.4-.8.6 0 .6.5.6.6l-.2.9zm7.4.7c0 .5-.1 1-.7 1.7h-.1l.1.2c.2 0 1-.7 1-1.8 0-.6-.3-1-.7-1-.3 0-.5.2-.5.5s.2.5.5.5l.4-.1zm4.2-5.7c0-.1-.1-.3-.4-.3-.2 0-.5.2-.5.5 0 .1.1.3.4.3.2 0 .5-.2.5-.5zm-2 4.7v.4c0 .5.4.8.9.8 1 0 1.3-1.3 1.3-1.4l-.1-.1-.2.1c-.2.8-.6 1.1-1 1.1-.2 0-.2 0-.2-.3l.1-.6.3-.7.5-1.2v-.3c0-.4-.3-.8-.8-.8-1 0-1.4 1.3-1.4 1.4 0 .2.1.2.2.2l.1-.2c.3-.8.7-1.1 1-1.1.2 0 .3 0 .3.3 0 .2 0 .4-.3 1zm4.7 1c0 .5-.1 1-.7 1.7H29l.1.2c.2 0 1-.7 1-1.8 0-.6-.3-1-.7-1-.3 0-.5.2-.5.5s.2.5.5.5l.4-.1zm6.3-1.2a5 5 0 0 0 1.2-2.2l-.2-.1-.2.2a5 5 0 0 1-.9 1.7v-.9c-.1-.9-.8-1.5-1.8-1.5-1.3 0-2.6 1.3-2.6 2.6 0 .8.6 1.6 1.7 1.6.8 0 1.6-.4 2.1-.8.2.7.7.8 1 .8.5 0 .8-.4.8-.6l-.1-.2-.2.1c-.1.4-.4.4-.5.4-.1 0-.3 0-.3-1.1zm-.8.3c-.9.8-1.7.8-2 .8-.6 0-1-.4-1-1 0-.3.2-1.3.7-2 .4-.5.9-.6 1.2-.6.8 0 1 .7 1 1.3l.1 1.5zM38.8 8.8l-.1.2V9c.8.7 1.7 2 1.7 4.4 0 2-.6 3.4-1.6 4.3l-.1.2v.1c.2 0 1-.6 1.7-1.7.4-.8.7-1.8.7-3s-.4-3.3-2.3-4.6zM55.5 7.7l.2-.3c0-.1 0-.2-.2-.3L48 3.7l-.2-.1c-.2 0-.3 0-.3.2s.1.3.3.3l7 3.3-7 3.3c-.3.1-.3.2-.3.3 0 .1.1.3.3.3l.2-.1zm-.2 6.1c.2 0 .4 0 .4-.2 0-.3-.3-.3-.5-.3h-7.1c-.2 0-.5 0-.5.3 0 .2.2.2.5.2zM66.2 4c0-.4.1-.5.3-.5h.8c1.4 0 2 0 2 1l-.1 1V6c.2 0 .3 0 .3-.3l.4-2.3v-.2c0-.2-.2-.2-.4-.2h-7.3c-.4 0-.4 0-.5.3L61 5.6V6l.1.1c.1 0 .2 0 .2-.3.7-2 1-2.3 3-2.3h.6c.4 0 .4 0 .4.2l-.1.3-1.8 7c-.1.6-.1.7-1.6.7-.4 0-.5 0-.5.3l.2.1h4.5c.1 0 .3 0 .3-.2s-.1-.2-.5-.2H65c-.4 0-.5-.1-.5-.3V11zM76.4 1.3l.6-.5c.4-.3.7-.3.9-.3 0 0 .2 0 .2-.2l-.2-.1h-1.7s-.2 0-.2.2l.2.1c.3 0 .3.1.3.2l-.2.2-.1.2-2.3 2.5L72.6.8V.7c0-.2.4-.2.5-.2.1 0 .2 0 .2-.2l-.1-.1h-2.3c-.1 0-.2 0-.2.2l.2.1c.6 0 .6 0 .7.3L73 4l-.4 1.7c-.1.5-.1.5-.8.5-.2 0-.3 0-.3.2l.1.1H74s.2 0 .2-.2l-.3-.1h-.3c-.2 0-.2 0-.2-.2l.1-.7.3-1.1c0-.2 0-.2.2-.3zM71.6 8.7a5.6 5.6 0 0 0-2.2 4.6c0 1.3.3 3.3 2.2 4.6h.2l-.1-.2C70.4 16.6 70 15 70 13.3c0-2.5 1-3.7 1.7-4.4v-.1l-.1-.1zM76.5 14.9l-.2.5c0 .2.2.3.4.3l.3-.2.2-.6a17.1 17.1 0 0 0 .4-1.4c0-.4 0-.4.2-.7.3-.5.8-1 1.5-1 .5 0 .6.4.6.6 0 .6-.4 1.6-.6 2l-.1.5c0 .5.4.8.9.8.9 0 1.3-1.3 1.3-1.4l-.1-.1-.2.1c-.2.8-.6 1.2-1 1.2-.2 0-.2-.2-.2-.4l.2-.7c0-.3.5-1.3.5-1.8 0-.2 0-.5-.4-.8-.1-.1-.4-.3-.8-.3-.9 0-1.4.6-1.7 1 0-.8-.7-1-1.2-1a2 2 0 0 0-1.6.9c0-.7-.6-.9-1-.9-.3 0-.6.3-.7.5l-.3 1h.1c.2 0 .2 0 .2-.2.2-.6.4-1 .7-1 .3 0 .3.2.3.4l-.1.8-.2.9-.3 1.2-.1.3c0 .2.1.3.3.3l.4-.2.1-.6.2-.8.2-.6c.1-.4.1-.5.4-.9.2-.3.7-.8 1.4-.8.5 0 .5.5.5.6l-.1 1zm7.3.6c0 .5 0 1-.7 1.7v.2c.2 0 1-.7 1-1.8 0-.6-.2-1-.7-1-.3 0-.5.2-.5.5s.2.5.5.5l.4-.1zM88 9.8c0-.1 0-.3-.3-.3s-.6.2-.6.5c0 .1.1.3.4.3.3 0 .5-.2.5-.5zm-1.9 4.7v.4c0 .5.3.8.8.8 1 0 1.4-1.3 1.4-1.4l-.2-.1-.2.1c-.2.8-.6 1.2-1 1.2-.1 0-.2-.1-.2-.4 0-.2 0-.4.2-.6l.3-.7.4-1.2v-.3c0-.4-.3-.8-.8-.8-1 0-1.4 1.3-1.4 1.5h.4c.2-.9.6-1.2 1-1.2.1 0 .2 0 .2.3 0 .2 0 .4-.3 1zM89.6 8.7h-.2l.1.2c.8.7 1.7 2 1.7 4.4 0 2-.6 3.4-1.6 4.3l-.2.2.2.1s1-.6 1.6-1.7c.4-.8.6-1.8.6-2.9 0-1.3-.3-3.3-2.2-4.6zM102 9h3.7c.2 0 .4 0 .4-.3s-.2-.3-.4-.3H102V4.7c0-.2 0-.4-.3-.4-.2 0-.2.2-.2.4v3.7h-3.8c-.2 0-.4 0-.4.3s.2.3.4.3h3.8v3.7c0 .2 0 .4.2.4.3 0 .3-.2.3-.4zM120 2.8l-.2-.1-.2.1-1 1c0-.2-.7-1.1-2.2-1.1-3 0-5.9 2.9-5.9 6 0 2 1.5 3.6 3.6 3.6.6 0 1.2-.1 1.7-.3.6-.3.9-.6 1.1-.8l.6.8h.1l.2-.9.3-1 .2-.7c.1-.6.1-.6.9-.6 0 0 .2 0 .2-.3l-.2-.1H116c-.1 0-.3 0-.3.3l.4.1h.7c.3 0 .4.1.4.3l-.3 1.2c-.3 1.5-2 1.6-2.5 1.6-1.3 0-2.7-.8-2.7-2.8 0-.4.1-2.6 1.5-4.3.8-1 2-1.7 3.4-1.7 1.3 0 2 1 2 2.5v.7l.2.1c.2 0 .2 0 .3-.2zM126.6 1.3l.5-.5c.4-.3.8-.3.9-.3 0 0 .2 0 .2-.2l-.1-.1h-1.8l-.1.2.1.1c.3 0 .3.1.3.2l-.1.2-.2.2-2.3 2.5-1.2-2.8V.7c0-.2.3-.2.4-.2.1 0 .2 0 .2-.2l-.1-.1H121s-.2 0-.2.2l.3.1c.5 0 .5 0 .6.3l1.5 3.2-.4 1.7c-.2.5-.2.5-.9.5-.2 0-.3 0-.3.2l.2.1h2.4s.2 0 .2-.2l-.3-.1h-.4c-.2 0-.2 0-.2-.2l.2-.7.3-1.1.1-.3zM123.6 8.7a5.6 5.6 0 0 0-2.3 4.6c0 1.3.4 3.3 2.3 4.6h.2l-.1-.2c-1.3-1.1-1.7-2.7-1.7-4.4 0-2.5 1-3.7 1.7-4.4v-.1l-.1-.1zM128.5 14.9l-.2.5c0 .2.2.3.3.3l.4-.2.2-.6a17.1 17.1 0 0 0 .3-1.4l.3-.7c.3-.5.8-1 1.5-1 .5 0 .6.4.6.6 0 .6-.4 1.6-.6 2l-.1.5c0 .5.4.8.9.8.9 0 1.3-1.3 1.3-1.4l-.1-.1-.2.1c-.2.8-.6 1.2-1 1.2-.2 0-.3-.2-.3-.4s0-.3.3-.7c0-.3.5-1.3.5-1.8 0-.2 0-.5-.4-.8-.1-.1-.4-.3-.9-.3-.8 0-1.3.6-1.6 1 0-.8-.7-1-1.2-1a2 2 0 0 0-1.6.9c0-.7-.6-.9-1-.9s-.6.3-.7.5l-.3 1h.1c.1 0 .2 0 .2-.2.2-.6.3-1 .7-1 .2 0 .3.2.3.4l-.1.8-.2.9-.3 1.2-.1.3c0 .2.1.3.3.3.2 0 .3-.1.3-.2l.2-.6.2-.8.2-.6c0-.4.1-.5.4-.9.2-.3.7-.8 1.4-.8.5 0 .5.5.5.6l-.2 1zm7.3.6c0 .5 0 1-.7 1.7v.2c.2 0 1-.7 1-1.8 0-.6-.3-1-.7-1-.3 0-.5.2-.5.5s.2.5.5.5l.4-.1zm4.2-5.7c0-.1-.1-.3-.4-.3-.2 0-.5.2-.5.5 0 .1.1.3.4.3.3 0 .5-.2.5-.5zm-1.9 4.7v.4c0 .5.3.8.8.8 1 0 1.3-1.3 1.3-1.4v-.1l-.3.1c-.2.8-.6 1.2-1 1.2-.2 0-.2-.1-.2-.4 0-.2 0-.4.2-.6 0-.2.1-.5.3-.7l.4-1.2v-.3c0-.4-.3-.8-.8-.8-1 0-1.4 1.3-1.4 1.5h.4c.2-.9.6-1.2 1-1.2.1 0 .2 0 .2.3 0 .2 0 .4-.3 1zM141.6 8.7h-.2l.1.2c.8.7 1.7 2 1.7 4.4 0 2-.6 3.4-1.6 4.3l-.2.2.1.1c.2 0 1-.6 1.7-1.7.4-.8.6-1.8.6-2.9 0-1.3-.4-3.3-2.2-4.6zM148.3 12c0-.9-.4-1.4-.9-1.4-.4 0-.7.3-.7.7 0 .4.3.7.7.7.2 0 .4 0 .5-.2v.2c0 1-.4 1.8-.8 2.2l-.2.2.2.2c.1 0 1.2-1 1.2-2.6zM163.2 3.3l.1-.2c0-.2-.1-.3-.3-.3l-.3.3-1 3h-4.1l-1.1-3c0-.2-.2-.3-.3-.3-.1 0-.3.1-.3.3v.2l3.4 8.7c0 .2.1.3.3.3.2 0 .2-.1.3-.3zm-5.4 3.3h3.6l-1.8 4.7zM167.7 15.2l-.2-.3c-1.7-1.7-2.1-4.2-2.1-6.2 0-2.3.5-4.6 2.1-6.3l.2-.2-.1-.2c-.2 0-1.4 1-2.2 2.6-.6 1.5-.8 3-.8 4 0 1.1.2 2.7.9 4.2.8 1.7 2 2.5 2 2.5l.2-.1zM169.6 11.2l-.1.6c0 .2.2.4.4.4s.4-.1.5-.4l.2-1 .3-1.2.3-.9.1-.6c.2-.5 1-1.7 2.2-1.7.6 0 .7.5.7 1 0 .3 0 .7-.2 1l-.4 1.6-.2 1-.2.8c0 .2.2.4.4.4.4 0 .5-.4.6-.8l.8-3.2c0-.2.7-1.8 2.2-1.8.5 0 .7.5.7 1 0 .7-.6 2.2-.8 3-.2.3-.2.4-.2.7 0 .6.5 1 1 1 1.3 0 1.8-1.9 1.8-2l-.1-.1c-.2 0-.2 0-.2.2-.2.7-.7 1.7-1.4 1.7-.2 0-.3-.2-.3-.5l.2-1c.3-.6.8-2 .8-2.8 0-.9-.5-1.5-1.5-1.5s-1.7.6-2.1 1.3c0-.1-.1-.6-.5-1-.3-.2-.7-.3-1-.3-1.3 0-2 .9-2.1 1.2-.1-.8-.7-1.2-1.3-1.2-.6 0-.8.6-1 .8l-.4 1.3.2.1.2-.3c.3-1 .5-1.6 1-1.6.2 0 .4.1.4.6l-.2 1.2zm13.2.8c0-.9-.3-1.4-.8-1.4s-.7.3-.7.7c0 .4.2.7.7.7.1 0 .3 0 .4-.2h.1v.2c0 1-.4 1.8-.9 2.2l-.1.2.1.2c.2 0 1.2-1 1.2-2.6zm7-8.3c0-.2-.2-.5-.5-.5-.4 0-.7.4-.7.7 0 .3.2.5.5.5s.7-.3.7-.7zm-1 5 .3-.8.1-.7c0-.6-.4-1-1-1-1.3 0-1.8 1.9-1.8 2l.2.1.2-.2c.3-1.3.8-1.7 1.3-1.7.1 0 .3 0 .3.5l-.1.6-1 2.5-.2 1c0 .7.4 1.2 1 1.2 1.3 0 1.8-2 1.8-2 0-.2-.1-.2-.2-.2l-.2.2c-.2.9-.6 1.7-1.3 1.7-.2 0-.3-.2-.3-.5s0-.5.4-1.3zM194.4 8.7c0-1-.1-2.7-.8-4.2-.8-1.6-2-2.5-2.1-2.5l-.1.2.2.3c1.3 1.3 2 3.4 2 6.2 0 2.3-.4 4.6-2 6.3l-.2.2v.1c.2 0 1.4-.9 2.2-2.5.7-1.5.8-3 .8-4.1zM206.7 9c.3 0 .5 0 .5-.3s-.2-.3-.5-.3h-5.6c.2-1.7 1.7-3 3.6-3h2c.3 0 .5 0 .5-.3s-.2-.3-.5-.3h-2c-2.3 0-4.1 1.8-4.1 3.9a4 4 0 0 0 4 3.8h2.1c.3 0 .5 0 .5-.2 0-.3-.2-.3-.5-.3h-2c-2 0-3.4-1.3-3.6-3zM214.1 11c-.1.5-.1.6-1.2.6-.2 0-.4 0-.4.3l.4.1h4.4c2.8 0 5.4-2.8 5.4-5.7 0-1.9-1.2-3.4-3.1-3.4H215c-.3 0-.4 0-.4.3 0 .2.1.2.4.2h.6c.2 0 .2 0 .2.2v.2zm2.9-7.1c0-.5.1-.5.7-.5h1.4c1.3 0 2.4.7 2.4 2.4 0 .7-.2 2.8-1.4 4.3a4 4 0 0 1-3 1.5h-1.8l-.2-.1v-.3zm9 8.1c0-.9-.3-1.4-.8-1.4-.4 0-.7.3-.7.7 0 .4.3.7.7.7.1 0 .3 0 .5-.2v.2c0 1-.4 1.8-.9 2.2l-.1.2.1.2c.2 0 1.2-1 1.2-2.6zm9.6-3.1c0-2.1-1.3-2.8-2.2-2.8-1.9 0-3.6 2-3.6 3.8 0 1.3.8 2.3 2.1 2.3.9 0 1.8-.3 2.8-1.2.2.8.7 1.2 1.2 1.2.7 0 1.2-.8 1.2-1l-.2-.1-.2.1c-.2.7-.7.7-.7.7-.4 0-.4-1-.4-1.4l.1-.5a7.7 7.7 0 0 0 1.5-3l-.1-.2c-.2 0-.2 0-.2.3-.3.8-.7 1.8-1.3 2.6zm-.9 1.8a4.2 4.2 0 0 1-2.7 1.2c-.8 0-1.2-.6-1.2-1.5 0-.6.3-2 .7-2.7.7-1 1.4-1.3 1.9-1.3 1.3 0 1.3 1.8 1.3 2.8v1.5zM248.8 9c.2 0 .5 0 .5-.3s-.3-.3-.5-.3H243c.2-1.7 1.7-3 3.6-3h2c.3 0 .6 0 .6-.3s-.3-.3-.5-.3h-2.1c-2.3 0-4 1.8-4 3.9a4 4 0 0 0 4 3.8h2c.3 0 .6 0 .6-.2 0-.3-.3-.3-.5-.3h-2c-2 0-3.5-1.3-3.7-3zm9-5.2c0-.5.3-1.4 1.8-1.5l.1-.1c0-.2-.1-.2-.2-.2-1.4 0-2.6.7-2.6 1.7v3c0 .6 0 1-.5 1.4-.5.4-1 .4-1.3.4l-.1.2.2.1c.9 0 1.5.6 1.7 1.2v3.3c0 .6 0 1 .6 1.5.6.4 1.4.5 2 .5l.2-.1-.2-.2c-.8 0-1.5-.4-1.7-1.1v-3.4c0-.6-.1-.9-.5-1.3-.3-.3-.7-.4-1-.5 1-.3 1.5-1 1.5-1.7zM264.6 9.8V11c0 .5 0 .6-1 .6h-.3v.4h3.6v-.4h-.3c-1 0-1-.1-1-.6V9.8h1.3v-.4h-1.3v-6c0-.3 0-.4-.2-.4l-.3.2-4 6.2v.4zm0-.4h-3.2l3.3-5zM270.2 13.6c0 .5-.3 1.4-1.8 1.4l-.1.2.3.1c1.3 0 2.5-.6 2.5-1.6v-3c0-.6 0-1 .5-1.4.5-.4 1-.4 1.3-.5l.1-.1-.2-.2c-.9 0-1.5-.5-1.7-1.1V4c0-.6 0-1-.6-1.5-.6-.4-1.5-.6-2-.6 0 0-.2 0-.2.2l.2.1c.8.1 1.5.5 1.7 1.2v3.4c0 .6.1.9.5 1.3.3.3.7.4 1 .5-1 .3-1.5 1-1.5 1.7zM289 8.4c0-1.4-.9-2.3-2-2.3-1.8 0-3.6 2-3.6 3.8 0 1.3.9 2.3 2.1 2.3 1.8 0 3.6-1.9 3.6-3.8zm-3.5 3.5c-.6 0-1.1-.4-1.1-1.5 0-.6.3-2 .7-2.7.7-1 1.5-1.3 1.8-1.3.8 0 1.2.7 1.2 1.5 0 .5-.3 1.9-.8 2.7-.4.8-1.2 1.3-1.8 1.3zm5-.7-.2.6c0 .2.2.4.4.4s.4-.1.5-.4l.5-2.1.4-1.7.8-1.1c.1-.1.5-.5 1-.5.4 0 .6.2.6.2-.4 0-.7.4-.7.7 0 .2.2.5.5.5.4 0 .8-.3.8-.8s-.5-.9-1.2-.9c-.8 0-1.4.7-1.7 1 0-.5-.5-1-1.2-1-.6 0-.8.6-1 .8l-.3 1.3.1.1.2-.3c.3-1 .5-1.6 1-1.6.2 0 .4.1.4.6l-.2 1.2zM309.6 3.3v-.2c0-.2 0-.3-.2-.3s-.3.2-.3.3l-1.1 3h-4l-1.1-3c-.1-.2-.2-.3-.4-.3 0 0-.2.1-.2.3v.2l3.4 8.7c0 .2 0 .3.3.3.2 0 .2-.1.3-.3zm-5.4 3.3h3.6l-1.8 4.7zM314 15.2l-.2-.3c-1.6-1.7-2-4.2-2-6.2 0-2.3.5-4.6 2-6.3l.2-.2V2c-.2 0-1.4 1-2.2 2.6-.7 1.5-.8 3-.8 4 0 1.1.1 2.7.8 4.2.8 1.7 2 2.5 2.1 2.5l.1-.1zM316 11.2l-.1.6c0 .2.2.4.4.4.1 0 .4-.1.4-.4l.3-1 .3-1.2.2-.9.2-.6c.2-.5.9-1.7 2.2-1.7.5 0 .7.5.7 1l-.2 1-.4 1.6-.3 1-.1.8c0 .2.1.4.3.4.5 0 .5-.4.6-.8l.8-3.2c0-.2.8-1.8 2.2-1.8.6 0 .8.5.8 1 0 .7-.6 2.2-.9 3l-.1.7c0 .6.4 1 1 1 1.3 0 1.8-1.9 1.8-2l-.2-.1-.2.2c-.2.7-.6 1.7-1.3 1.7-.2 0-.3-.2-.3-.5s0-.6.2-1c.2-.6.8-2 .8-2.8 0-.9-.5-1.5-1.5-1.5s-1.7.6-2.2 1.3c0-.1 0-.6-.4-1-.3-.2-.8-.3-1.1-.3-1.2 0-1.8.9-2 1.2-.1-.8-.7-1.2-1.3-1.2-.6 0-.9.6-1 .8l-.4 1.3.2.1.2-.3c.2-1 .5-1.6 1-1.6.2 0 .4.1.4.6l-.2 1.2zm13.2.8c0-.9-.4-1.4-.9-1.4-.4 0-.7.3-.7.7 0 .4.3.7.7.7.2 0 .4 0 .5-.2v.2c0 1-.4 1.8-.8 2.2l-.2.2.2.2c.1 0 1.2-1 1.2-2.6zm7-8.3c0-.2-.2-.5-.5-.5-.4 0-.8.4-.8.7 0 .3.2.5.5.5s.7-.3.7-.7zm-1 5 .2-.8.2-.7c0-.6-.4-1-1-1-1.3 0-1.8 1.9-1.8 2l.1.1c.1 0 .2 0 .2-.2.4-1.3 1-1.7 1.4-1.7 0 0 .3 0 .3.5l-.1.6-1 2.5c0 .4-.3.8-.3 1 0 .7.5 1.2 1.1 1.2 1.3 0 1.8-2 1.8-2 0-.2-.2-.2-.2-.2l-.2.2c-.2.9-.7 1.7-1.4 1.7-.2 0-.3-.2-.3-.5l.4-1.3zM340.8 8.7c0-1-.1-2.7-.9-4.2-.8-1.6-2-2.5-2-2.5l-.2.2.3.3c1.3 1.3 2 3.4 2 6.2 0 2.3-.5 4.6-2.1 6.3l-.2.2.2.1s1.3-.9 2-2.5c.7-1.5 1-3 1-4.1zM353.1 9c.2 0 .5 0 .5-.3s-.3-.3-.5-.3h-5.6c.1-1.7 1.6-3 3.5-3h2.1c.2 0 .5 0 .5-.3s-.3-.3-.5-.3h-2c-2.4 0-4.2 1.8-4.2 3.9a4 4 0 0 0 4.1 3.8h2.1c.2 0 .5 0 .5-.2 0-.3-.3-.3-.5-.3h-2c-2 0-3.5-1.3-3.6-3zM363.3 4c.2-.5.2-.6 1.4-.6.4 0 .5 0 .5-.3 0-.2-.1-.2-.2-.2h-3.7s-.2 0-.2.3c0 .2 0 .2.3.2h.5c.3 0 .4 0 .4.2v.2l-1.9 7.2c0 .5-.1.6-1.2.6-.2 0-.3 0-.3.3l.3.1h6.2c.3 0 .3 0 .4-.2l1-2.9.1-.2-.2-.1-.2.3c-.4 1.2-1 2.7-3.3 2.7h-1.6l-.1-.1v-.3zm6.8 8c0-.9-.3-1.4-.9-1.4-.4 0-.7.3-.7.7 0 .4.3.7.7.7.2 0 .4 0 .5-.2l.1.2c0 1-.5 1.8-.9 2.2l-.1.2v.2c.2 0 1.3-1 1.3-2.6zm14-3.1c0-2.1-1.3-2.8-2.3-2.8-1.8 0-3.5 2-3.5 3.8 0 1.3.8 2.3 2.1 2.3.8 0 1.8-.3 2.8-1.2.2.8.6 1.2 1.2 1.2.7 0 1.1-.8 1.1-1l-.1-.1-.2.1c-.2.7-.7.7-.7.7-.5 0-.5-1-.5-1.4 0-.3 0-.3.2-.5a7.7 7.7 0 0 0 1.5-3l-.1-.2c-.2 0-.2 0-.3.3-.2.8-.6 1.8-1.3 2.6zm-1 1.8a4.2 4.2 0 0 1-2.7 1.2c-.8 0-1.2-.6-1.2-1.5 0-.6.4-2 .8-2.7.6-1 1.3-1.3 1.8-1.3 1.3 0 1.3 1.8 1.3 2.8v1.5zM397.3 9c.2 0 .4 0 .4-.3s-.2-.3-.4-.3h-5.7c.2-1.7 1.7-3 3.6-3h2c.3 0 .5 0 .5-.3s-.2-.3-.4-.3h-2.1c-2.3 0-4.1 1.8-4.1 3.9a4 4 0 0 0 4 3.8h2.2c.2 0 .4 0 .4-.2 0-.3-.2-.3-.4-.3h-2.1c-1.9 0-3.4-1.3-3.6-3zm9-5.2c0-.5.3-1.4 1.8-1.5v-.1c0-.2 0-.2-.2-.2-1.3 0-2.5.7-2.5 1.7v3c0 .6 0 1-.6 1.4-.4.4-1 .4-1.2.4l-.1.2.2.1c.9 0 1.5.6 1.6 1.2v3.3c0 .6 0 1 .7 1.5.5.4 1.4.5 2 .5l.2-.1-.2-.2c-.9 0-1.5-.4-1.7-1.1v-3.4c0-.6-.1-.9-.6-1.3-.2-.3-.6-.4-1-.5 1-.3 1.6-1 1.6-1.7zM413 3.5c0-.3 0-.3-.2-.3-.9.8-2 .8-2.4.8v.4c.2 0 1 0 1.7-.3V11c0 .4 0 .6-1.2.6h-.5v.4H414.7v-.4h-.4c-1.2 0-1.2-.1-1.2-.6zM418.7 13.6c0 .5-.4 1.4-1.8 1.4l-.1.2.2.1c1.3 0 2.6-.6 2.6-1.6v-3c0-.6 0-1 .5-1.4.5-.4 1-.4 1.3-.5v-.1l-.1-.2c-1 0-1.6-.5-1.7-1.1V4c0-.6 0-1-.7-1.5-.5-.4-1.4-.6-1.9-.6 0 0-.2 0-.2.2l.2.1c.8.1 1.5.5 1.6 1.2v3.4c0 .6.2.9.6 1.3.3.3.7.4 1 .5-1 .3-1.5 1-1.5 1.7zm0 0"/></g></svg>