<svg xmlns="http://www.w3.org/2000/svg" width="547.9" height="23.9"><g aria-label="T Start (n,j,α 2) +M (1−U AGV (m,i,α 1)(n,j,α 2) )≥T Start (m,i,α 1) +t AGV (m,i,α 1−1)(m,i,α 1) ,∀(m,i,α 1),(n,j,α 2)∈W T"><path d="M5.4 7.2c0-.4.1-.4.3-.5h.8c1.3 0 2 0 2 1L8.2 9V9s0 .2.2.2l.2-.3.3-2.4v-.2l-.3-.1H1.3c-.3 0-.3 0-.4.3L0 8.9 0 9c0 .1 0 .2.2.2L.4 9c.7-2 1-2.3 3-2.3H4c.4 0 .4 0 .4.2V7l-1.8 7.1c-.1.5-.2.7-1.6.7-.5 0-.6 0-.6.2s.2.2.3.2H5c.2 0 .3 0 .3-.3L5 15H4c-.4-.1-.5-.1-.5-.4v-.2zM14.5 8c0-.8-.6-1.6-1.5-1.8L11.6 6c-.8-.2-1-.8-1-1.1 0-.7.5-1.2 1.4-1.2 1.2 0 1.8.8 2 1.8v.2c.2 0 .2-.1.2-.3V3.5l-.1-.2h-.2l-.3.6c-.6-.6-1.4-.6-1.6-.6-1.2 0-2 .8-2 1.7 0 .6.2 1 .5 1.3.4.3.7.4 1.7.6.8.2 1 .2 1.3.5.2.2.4.5.4 1 0 .6-.5 1.2-1.4 1.2-1 0-2.2-.3-2.2-1.7 0-.2 0-.2-.2-.2l-.1.2V10l.2-.1.4-.6c.6.6 1.3.7 1.9.7 1.2 0 2-1 2-2zm4.1.6v-.5h-.3v.5c0 .6-.3 1-.6 1-.7 0-.7-.8-.7-1V6.1h1.5v-.3H17V4h-.3c0 .8-.4 1.7-1.3 1.8V6h.9v2.5c0 1 .8 1.3 1.3 1.3.6 0 1-.5 1-1.3zm5.8.3v-.5H24V9c0 .1 0 .6-.3.6s-.3-.5-.3-.6V7.3c0-.5 0-.9-.5-1.2a2 2 0 0 0-1.3-.5c-1 0-1.5.4-1.5 1 0 .2.2.4.4.4s.4-.2.4-.4 0-.4-.3-.5c.3-.2.9-.2 1-.2.5 0 1 .3 1 1.1v.3c-.5 0-1.1 0-1.8.3-.8.3-1 .8-1 1.3 0 .7.9 1 1.6 1 .7 0 1.1-.4 1.3-.8 0 .4.3.7.7.7 0 0 1 0 1-.9zm-1.8-.4c0 .9-.8 1.1-1.2 1.1-.5 0-.9-.3-.9-.7 0-.6.4-1.3 2.1-1.3zm5.8-2.2c0-.3-.3-.6-.8-.6-.4 0-1 .3-1.2 1v-1H25v.4c.6 0 .7.1.7.5v2.5c0 .4-.1.4-.7.4v.3h2.2v-.3h-.2c-.7 0-.7-.1-.7-.5V7.7c0-.8.4-1.8 1.3-1.8l-.2.4c0 .3.3.4.5.4s.4-.1.4-.4zm3.8 2.3v-.5H32v.5c0 .6-.3 1-.6 1-.7 0-.7-.8-.7-1V6.1h1.5v-.3h-1.5V4h-.3c0 .8-.4 1.7-1.3 1.8V6h.9v2.5c0 1 .8 1.3 1.3 1.3.6 0 1-.5 1-1.3zM10.8 12.1a5.6 5.6 0 0 0-2.3 4.6c0 1.4.4 3.4 2.3 4.7l.1-.1V21c-1.3-1-1.7-2.7-1.7-4.4 0-2.5 1-3.7 1.7-4.4l-.1-.2zM12.7 18.5v.4c0 .2.1.3.3.3l.3-.2.2-.6.2-.9.2-.6c0-.4 0-.4.3-.8s.7-.9 1.4-.9c.6 0 .6.5.6.7 0 .5-.4 1.6-.6 2l-.1.5c0 .5.4.8.9.8.9 0 1.3-1.3 1.3-1.5H17.4c-.2.8-.6 1.2-1 1.2-.2 0-.2-.1-.2-.3l.2-.8c.1-.3.5-1.2.5-1.8 0-.9-.7-1-1.2-1a2 2 0 0 0-1.6.8c0-.6-.6-.8-1-.8s-.6.3-.7.5l-.4.9.2.1.2-.3c.1-.5.3-1 .7-1 .2 0 .3.2.3.5l-.2.8-.2.8zm7.4.4c0 .5 0 1.1-.7 1.7V21c.2 0 1-.8 1-1.9 0-.6-.2-1-.7-1-.3 0-.5.2-.5.5s.2.6.5.6.4-.2.4-.2zm5.3-5.6c0-.2-.1-.4-.4-.4-.2 0-.5.3-.5.5s.1.4.4.4c.2 0 .5-.3.5-.5zm-2 6.2c-.1.7-.6 1.2-1.2 1.2H22l.3-.5c0-.2-.2-.4-.3-.4-.3 0-.6.3-.6.6s.4.6 1 .6c.5 0 1.6-.4 1.9-1.5l.8-3.3v-.3c0-.6-.4-1-1-1-1 0-1.6 1.4-1.6 1.5l.2.1.2-.1c.2-.6.7-1.2 1.2-1.2.3 0 .4.2.4.5v.3zm4.2-.6c0 .5 0 1.1-.7 1.7V21c.2 0 1-.8 1-1.9 0-.6-.2-1-.6-1-.4 0-.6.2-.6.5s.2.6.6.6c.2 0 .3-.2.3-.2zm6.3-1.1a5 5 0 0 0 1.2-2.3H35c-.2 0-.2 0-.2.2a5 5 0 0 1-1 1.6v-.8c0-1-.8-1.5-1.7-1.5-1.4 0-2.7 1.2-2.7 2.5 0 .9.6 1.7 1.7 1.7.9 0 1.6-.4 2.2-.8.2.7.6.8 1 .8.5 0 .8-.5.8-.7l-.2-.1-.1.1c-.2.4-.4.4-.5.4-.2 0-.3 0-.4-1.1zm-.7.3c-1 .7-1.7.8-2 .8-.7 0-1-.4-1-1 0-.3.1-1.3.6-2 .4-.5 1-.7 1.3-.7.7 0 1 .7 1 1.3v1.6zM39.7 19.1h-.3l-.2.6h-2l1.3-.9c.6-.4 1.2-.8 1.2-1.5 0-.9-.8-1.3-1.8-1.3-.9 0-1.5.5-1.5 1.2 0 .3.2.4.3.4.2 0 .4-.2.4-.4 0-.3-.2-.4-.4-.4.2-.3.6-.5 1-.5.7 0 1.2.4 1.2 1s-.3 1-.9 1.4l-1.6 1.4V20.4h3zM41.8 12.1l-.2.1v.2c.9.7 1.8 2 1.8 4.3 0 2-.6 3.5-1.6 4.4l-.2.2h.1c.1 0 1-.5 1.6-1.7.4-.8.7-1.8.7-2.9 0-1.3-.4-3.3-2.2-4.6zM54.1 12.2h3.7c.2 0 .5 0 .5-.3 0-.2-.3-.2-.5-.2h-3.7V8c0-.2 0-.5-.2-.5-.3 0-.3.3-.3.5v3.7h-3.7c-.2 0-.5 0-.5.2 0 .3.3.3.5.3h3.7V16c0 .2 0 .5.3.5.2 0 .2-.3.2-.5zM74.3 7.2c.1-.5.1-.6 1.1-.6.3 0 .4 0 .4-.2s0-.2-.3-.2h-1.8c-.3 0-.3 0-.5.3L68.4 14l-1-7.5c-.1-.3-.1-.3-.5-.3h-1.8c-.2 0-.4 0-.4.3l.4.1h.6c.2 0 .2.1.2.3V7l-1.7 6.8c-.1.5-.3 1-1.4 1 0 0-.3 0-.3.2l.2.2h2.7s.3 0 .3-.3l-.3-.1c-.7 0-.9-.3-.9-.6V14l1.9-7.3 1.1 8.3c0 .1 0 .3.2.3s.3-.2.3-.3l5.4-8.4-1.9 7.6c-.1.6-.2.7-1.2.7-.2 0-.4 0-.4.2s.2.2.2.2h3.3c.1 0 .3 0 .3-.3l-.4-.1c-.5 0-.9 0-.9-.3l.1-.3zM83.2 23.7l.1.2h.3l.2-.1v-.2c-.6-.4-1.3-1.2-2.1-2.6-1.4-2.6-2-5.9-2-9 0-6 1.7-9.4 4-11.8 0-.2 0-.2-.2-.2l-.3.1c-1.3 1.1-2.7 3-3.6 5.7a20.4 20.4 0 0 0 1.8 16 13.8 13.8 0 0 0 1.2 1.5zM88.2 6.8c0-.3 0-.4-.4-.4-.8.9-2 .9-2.4.9v.4c.3 0 1 0 1.8-.3v6.8c0 .5 0 .7-1.3.7h-.4v.4H89.8v-.4h-.4c-1.2 0-1.2-.2-1.2-.7zM102.6 12.2c.2 0 .5 0 .5-.3 0-.2-.3-.2-.5-.2h-7.2c-.2 0-.4 0-.4.2 0 .3.2.3.4.3zM115.6 7.6c0-.5.3-1 1.4-1 0 0 .2 0 .2-.2 0 0 0-.2-.2-.2h-2.7s-.2 0-.2.3l.2.1c.8 0 1 .3 1 .6l-.1.3-1.2 4.7c-.5 1.8-2 3-3.3 3-1 0-1.7-.6-1.7-1.8l.2-1 1.3-5.2c.1-.5.1-.6 1-.6.5 0 .5 0 .5-.2l-.1-.2h-3.4c-.2 0-.3 0-.3.3l.4.1h.5c.2 0 .3 0 .3.3l-.2.9-.3 1.2-.8 3.2v.8c0 1.6 1.1 2.6 2.5 2.6 1.7 0 3.3-1.5 3.8-3.3zM125 9.8v-.3h-.1c-.7 0-.7-.1-.8-.4l-2.3-5.7c0-.2 0-.2-.2-.2s-.3 0-.3.2l-2.2 5.4c0 .2-.2.7-1 .7v.3h2v-.3c-.4 0-.6-.2-.6-.5v-.2l.5-1.1h2.6l.5 1.3v.2c0 .3-.4.3-.7.3v.3h2.7zm-2.5-2.4H120l1.2-3zm10.3.2v-.4H130v.4h.3c1 0 1 0 1 .4v.6c0 .2 0 .5-.6.8-.4.2-1 .2-1 .2-1.1 0-2.9-.6-2.9-3 0-2.5 1.8-3 2.7-3 1 0 2 .6 2.3 2.2l.2.1.1-.2V3.5l-.1-.2h-.2l-.5.8c-.4-.5-1-.8-1.9-.8-2 0-3.5 1.5-3.5 3.3 0 1.8 1.5 3.4 3.5 3.4.5 0 1.6-.1 2-.8l.6.6.1-.2V8c0-.4.1-.4.7-.4zm8.2-3.8v-.4h-2v.4c.3 0 .6.1.6.4v.2l-2 4.5-2-4.7V4c0-.2.4-.2.7-.2v-.4H133.7v.4h.2c.5 0 .6 0 .7.3l2.5 5.7c0 .1 0 .2.2.2.1 0 .2 0 .3-.2l2.3-5.4c.1-.3.3-.6 1-.6zM119.5 12.1a5.6 5.6 0 0 0-2.2 4.6c0 1.4.3 3.4 2.2 4.7l.2-.1-.1-.2c-1.2-1-1.7-2.7-1.7-4.4 0-2.5 1-3.7 1.7-4.4l-.1-.2zM124.4 18.3l-.1.6c0 .2.1.3.3.3l.3-.2.2-.6a17.1 17.1 0 0 0 .4-1.5c0-.4 0-.4.3-.7.3-.4.7-1 1.4-1 .6 0 .6.5.6.7 0 .5-.4 1.6-.6 2l-.1.5c0 .5.4.8.9.8 1 0 1.3-1.3 1.3-1.5H129c-.2.8-.6 1.2-1 1.2-.2 0-.2-.1-.2-.3l.2-.8c.1-.3.5-1.2.5-1.8 0-.1 0-.5-.4-.8l-.8-.2c-.9 0-1.4.5-1.7 1 0-.9-.7-1-1.2-1a2 2 0 0 0-1.6.8c0-.6-.6-.8-1-.8-.3 0-.6.3-.7.5l-.3.9.1.1c.2 0 .2 0 .2-.3.2-.5.4-1 .7-1 .3 0 .3.2.3.5l-.1.8-.2.8-.3 1.2-.1.4c0 .2.2.3.3.3l.4-.2.1-.6.2-.9.2-.6.4-.8c.3-.4.7-.9 1.4-.9.5 0 .5.5.5.7l-.1.9zm7.3.6c0 .5 0 1.1-.7 1.7V21c.2 0 1-.8 1-1.9 0-.6-.2-1-.7-1-.3 0-.5.2-.5.5s.2.6.5.6.4-.2.4-.2zm4.2-5.6c0-.2 0-.4-.3-.4s-.6.3-.6.5.2.4.4.4c.3 0 .5-.3.5-.5zM134 18v.4c0 .4.3.8.8.8 1 0 1.4-1.3 1.4-1.5h-.4c-.2.8-.6 1.2-1 1.2-.1 0-.2-.1-.2-.3l.2-.6c0-.3.2-.5.3-.8l.4-1.1v-.3c0-.5-.3-.8-.8-.8-1 0-1.3 1.2-1.3 1.4l.1.1.2-.1c.2-.8.6-1.2 1-1.2.1 0 .2.1.2.4l-.3.9zm4.6 1c0 .4 0 1-.7 1.6V21c.2 0 1-.8 1-1.9 0-.6-.2-1-.6-1-.4 0-.6.2-.6.5s.2.6.6.6c.2 0 .3-.2.3-.2zm6.3-1.2a5 5 0 0 0 1.2-2.3h-.1c-.2 0-.2 0-.2.2a5 5 0 0 1-1 1.6v-.8c-.1-1-.8-1.5-1.7-1.5-1.4 0-2.7 1.2-2.7 2.5 0 .9.6 1.7 1.7 1.7.9 0 1.6-.4 2.1-.8.3.7.7.8 1 .8.6 0 .9-.5.9-.7l-.2-.1-.1.1c-.2.4-.4.4-.6.4 0 0-.2 0-.3-1.1zm-.7.3c-1 .7-1.7.8-2 .8-.7 0-1-.4-1-1 0-.3.1-1.3.6-2 .4-.5 1-.7 1.3-.7.7 0 1 .7 1 1.3v1.6zM149.4 16.2c0-.2 0-.2-.2-.2-.5.4-1.3.4-1.4.4h-.1v.3h.1c.2 0 .6 0 1-.2v3.3c0 .2 0 .3-.7.3h-.4v.3h2.7v-.3h-.3c-.7 0-.7 0-.7-.3zM152.8 12.1l-.2.1v.2c.9.7 1.8 2 1.8 4.3 0 2-.6 3.5-1.6 4.4l-.2.2h.1c.1 0 1-.5 1.6-1.7.4-.8.7-1.8.7-2.9 0-1.3-.4-3.3-2.2-4.6zm6.6 0a5.6 5.6 0 0 0-2.3 4.6c0 1.4.4 3.4 2.3 4.7l.2-.1-.1-.2c-1.3-1-1.7-2.7-1.7-4.4 0-2.5 1-3.7 1.7-4.4l-.1-.2zM161.4 18.5l-.1.4c0 .2.1.3.3.3l.4-.2.1-.6.2-.9.2-.6c0-.4.1-.4.4-.8.2-.4.7-.9 1.4-.9.5 0 .5.5.5.7 0 .5-.4 1.6-.5 2l-.2.5c0 .5.4.8 1 .8.8 0 1.3-1.3 1.3-1.5h-.4c-.2.8-.6 1.2-1 1.2-.2 0-.2-.1-.2-.3l.2-.8c.1-.3.5-1.2.5-1.8 0-.9-.7-1-1.2-1a2 2 0 0 0-1.6.8c0-.6-.6-.8-1-.8s-.6.3-.7.5l-.3.9.1.1c.2 0 .2 0 .2-.3.2-.5.3-1 .7-1 .3 0 .3.2.3.5l-.1.8-.2.8zm7.4.4c0 .5-.1 1.1-.8 1.7V21c.2 0 1-.8 1-1.9 0-.6-.2-1-.6-1-.3 0-.6.2-.6.5s.2.6.6.6l.4-.2zm5.2-5.6c0-.2-.1-.4-.3-.4-.3 0-.6.3-.6.5s.1.4.4.4c.3 0 .5-.3.5-.5zm-2 6.2c-.1.7-.6 1.2-1.1 1.2h-.4c.3-.2.3-.4.3-.5 0-.2-.1-.4-.3-.4-.3 0-.6.3-.6.6s.4.6 1 .6c.5 0 1.6-.4 2-1.5l.7-3.3v-.3c0-.6-.4-1-.9-1-1 0-1.6 1.4-1.6 1.5l.1.1.2-.1c.2-.6.7-1.2 1.3-1.2.2 0 .3.2.3.5v.3zm4.3-.6c0 .5-.1 1.1-.8 1.7v.1l.1.2c.1 0 1-.8 1-1.9 0-.6-.3-1-.7-1-.3 0-.5.2-.5.5s.2.6.5.6l.4-.2zm6.2-1.1a5 5 0 0 0 1.2-2.3h-.1l-.2.2a5 5 0 0 1-.9 1.6v-.8c-.2-1-.9-1.5-1.8-1.5-1.3 0-2.7 1.2-2.7 2.5 0 .9.7 1.7 1.7 1.7.9 0 1.7-.4 2.2-.8.2.7.7.8 1 .8.5 0 .8-.5.8-.7l-.1-.1-.2.1c-.1.4-.4.4-.5.4-.1 0-.3 0-.4-1.1zm-.7.3c-.9.7-1.7.8-2 .8-.7 0-1-.4-1-1 0-.3.1-1.3.6-2 .5-.5 1-.7 1.3-.7.7 0 1 .7 1 1.3l.1 1.6zM188.3 19.1h-.3c0 .1 0 .6-.2.6h-2l1.3-.9c.6-.4 1.2-.8 1.2-1.5 0-.9-.8-1.3-1.8-1.3-.9 0-1.5.5-1.5 1.2 0 .3.3.4.4.4.1 0 .3-.2.3-.4 0-.3-.1-.4-.3-.4.2-.3.6-.5 1-.5.6 0 1.2.4 1.2 1s-.4 1-1 1.4l-1.5 1.4-.1.1v.2h3zM190.4 12.1l-.2.1.1.2c.8.7 1.7 2 1.7 4.3 0 2-.6 3.5-1.6 4.4l-.2.2h.1c.1 0 1-.5 1.6-1.7.5-.8.7-1.8.7-2.9 0-1.3-.4-3.3-2.2-4.6zM200 12c0-3.9-1-8-3.6-11a12 12 0 0 0-1-1h-.3l-.2.1v.2c.5.4 1.2 1.2 2 2.6 1.5 2.6 2 5.9 2 9 0 5.8-1.6 9.3-4 11.8 0 .2 0 .2.2.2l.3-.1c1.3-1.1 2.7-3 3.6-5.8.6-1.8 1-4 1-6zM215 11l.2-.3c0-.2 0-.2-.2-.3l-7.4-3.5h-.2c-.2 0-.3 0-.3.2s.1.2.3.3l7 3.3-7 3.2c-.3.2-.3.3-.3.4 0 .1.1.2.3.2h.2zm-.3 6c.3 0 .5 0 .5-.2s-.3-.2-.5-.2h-7.1c-.2 0-.5 0-.5.2 0 .3.2.3.5.3zM225.7 7.2c0-.4.1-.4.3-.5h.8c1.4 0 2 0 2 1l-.1 1.2v.4c.2 0 .3-.1.3-.3l.3-2.4v-.2l-.3-.1h-7.4c-.3 0-.3 0-.4.3l-.8 2.3V9l.1.2.2-.3c.7-2 1-2.3 3-2.3h.6c.3 0 .3 0 .3.2V7l-1.8 7.1c-.1.5-.2.7-1.6.7-.4 0-.5 0-.5.2s.1.2.2.2h4.5c.1 0 .3 0 .3-.3l-.5-.1h-.8c-.4-.1-.5-.1-.5-.4v-.2zM234.8 8c0-.8-.5-1.6-1.5-1.8L232 6c-.8-.2-1-.8-1-1.1 0-.7.5-1.2 1.4-1.2 1.2 0 1.8.8 2 1.8v.2c.3 0 .3-.1.3-.3V3.5c0-.2 0-.2-.2-.2h-.1l-.4.6c-.6-.6-1.3-.6-1.6-.6-1.2 0-2 .8-2 1.7 0 .6.2 1 .5 1.3.4.3.7.4 1.7.6.9.2 1 .2 1.3.5.3.2.4.5.4 1 0 .6-.5 1.2-1.4 1.2-.9 0-2.1-.3-2.2-1.7 0-.2 0-.2-.2-.2l-.1.2v1.8l.1.3.2-.1.3-.6c.6.6 1.3.7 1.9.7 1.2 0 2-1 2-2zm4.2.6v-.5h-.3v.5c0 .6-.3 1-.7 1-.6 0-.6-.8-.6-1V6.1h1.4v-.3h-1.4V4h-.4c0 .8-.3 1.7-1.2 1.8V6h.8v2.5c0 1 .8 1.3 1.3 1.3.7 0 1-.5 1-1.3zm5.7.3v-.5h-.3V9c0 .1 0 .6-.4.6-.3 0-.3-.5-.3-.6V7.3c0-.5 0-.9-.4-1.2a2 2 0 0 0-1.4-.5c-.9 0-1.5.4-1.5 1 0 .2.2.4.4.4.3 0 .5-.2.5-.4s-.1-.4-.4-.5c.4-.2 1-.2 1-.2.5 0 1 .3 1 1.1v.3c-.4 0-1 0-1.7.3-.9.3-1.1.8-1.1 1.3 0 .7 1 1 1.6 1 .7 0 1.2-.4 1.4-.8 0 .4.2.7.7.7 0 0 .9 0 .9-.9zm-1.7-.4c0 .9-.8 1.1-1.2 1.1-.5 0-1-.3-1-.7 0-.6.5-1.3 2.2-1.3zm5.7-2.2c0-.3-.3-.6-.7-.6-.5 0-1 .3-1.3 1v-1h-1.3v.4c.6 0 .7.1.7.5v2.5c0 .4-.1.4-.7.4v.3h2.3v-.3h-.2c-.7 0-.7-.1-.7-.5V7.7c0-.8.4-1.8 1.2-1.8l-.1.4c0 .3.2.4.4.4s.4-.1.4-.4zm3.9 2.3v-.5h-.4v.5c0 .6-.2 1-.6 1-.6 0-.6-.8-.6-1V6.1h1.4v-.3H251V4h-.4c0 .8-.4 1.7-1.3 1.8V6h1v2.5c0 1 .7 1.3 1.2 1.3.6 0 1-.5 1-1.3zM231 12.1a5.6 5.6 0 0 0-2.2 4.6c0 1.4.4 3.4 2.3 4.7l.2-.1-.1-.2c-1.3-1-1.7-2.7-1.7-4.4 0-2.5 1-3.7 1.7-4.4l-.1-.2zM236 18.3l-.2.6c0 .2.2.3.4.3l.3-.2.2-.6.2-.9.1-.6.3-.7c.3-.4.8-1 1.5-1 .5 0 .6.5.6.7 0 .5-.4 1.6-.6 2l-.1.5c0 .5.4.8.9.8.9 0 1.3-1.3 1.3-1.5H240.6c-.2.8-.6 1.2-1 1.2-.2 0-.2-.1-.2-.3l.2-.8c0-.3.5-1.2.5-1.8 0-.1 0-.5-.4-.8l-.8-.2c-.9 0-1.4.5-1.7 1 0-.9-.7-1-1.2-1a2 2 0 0 0-1.6.8c0-.6-.6-.8-1-.8s-.6.3-.7.5l-.3.9.1.1c.2 0 .2 0 .2-.3.2-.5.3-1 .7-1 .3 0 .3.2.3.5l-.1.8-.2.8-.3 1.2-.1.4c0 .2.1.3.3.3l.4-.2.1-.6.2-.9.2-.6c0-.4.1-.4.4-.8.2-.4.7-.9 1.4-.9.5 0 .5.5.5.7l-.1.9zm7.3.6c0 .5 0 1.1-.7 1.7V21c.2 0 1-.8 1-1.9 0-.6-.2-1-.7-1-.3 0-.5.2-.5.5s.2.6.5.6l.4-.2zm4.2-5.6c0-.2 0-.4-.4-.4-.2 0-.5.3-.5.5s.1.4.4.4c.3 0 .5-.3.5-.5zm-1.9 4.7v.4c0 .4.3.8.8.8 1 0 1.4-1.3 1.4-1.5h-.4c-.2.8-.6 1.2-1 1.2-.1 0-.2-.1-.2-.3 0-.2 0-.4.2-.6 0-.3.2-.5.3-.8l.4-1.1v-.3c0-.5-.3-.8-.8-.8-1 0-1.4 1.2-1.4 1.4l.2.1.2-.1c.2-.8.6-1.2 1-1.2.1 0 .2.1.2.4l-.3.9zm4.6 1c0 .4 0 1-.7 1.6V21c.2 0 1-.8 1-1.9 0-.6-.2-1-.7-1-.3 0-.5.2-.5.5s.2.6.5.6.4-.2.4-.2zm6.3-1.2a5 5 0 0 0 1.2-2.3h-.2l-.1.2a5 5 0 0 1-1 1.6v-.8c-.1-1-.8-1.5-1.7-1.5-1.4 0-2.7 1.2-2.7 2.5 0 .9.6 1.7 1.7 1.7.9 0 1.6-.4 2.1-.8.3.7.7.8 1 .8.6 0 .9-.5.9-.7l-.2-.1-.1.1c-.2.4-.5.4-.6.4 0 0-.3 0-.3-1.1zm-.7.3c-1 .7-1.7.8-2 .8-.7 0-1-.4-1-1 0-.3.1-1.3.6-2 .4-.5 1-.7 1.3-.7.7 0 1 .7 1 1.3v1.6zM261 16.2c0-.2 0-.2-.3-.2-.4.4-1.2.4-1.3.4h-.1v.3c.3 0 .7 0 1-.2v3.3c0 .2 0 .3-.6.3h-.4v.3h2.7v-.3h-.3c-.7 0-.7 0-.7-.3zM264.4 12.1l-.2.1v.2c.9.7 1.8 2 1.8 4.3 0 2-.7 3.5-1.7 4.4l-.1.2h.1c.1 0 1-.5 1.6-1.7.4-.8.7-1.8.7-2.9 0-1.3-.4-3.3-2.2-4.6zM276.7 12.2h3.7c.2 0 .5 0 .5-.3 0-.2-.3-.2-.5-.2h-3.7V8c0-.2 0-.5-.2-.5-.3 0-.3.3-.3.5v3.7h-3.7c-.2 0-.5 0-.5.2 0 .3.3.3.5.3h3.7V16c0 .2 0 .5.3.5.2 0 .2-.3.2-.5zM287.3 10h1.3c.2 0 .4 0 .4-.3l-.4-.1h-1.2l.6-2.3c0-.2-.2-.3-.4-.3 0 0-.4 0-.6.4l-.5 2.2h-1.2c-.3 0-.4 0-.4.2s0 .2.3.2h1.2c-1 3.7-1 4-1 4.2 0 .7.5 1.2 1.2 1.2 1.4 0 2.1-2 2.1-2l-.1-.2c-.1 0-.2 0-.2.2-.6 1.4-1.3 1.7-1.8 1.7-.2 0-.4-.1-.4-.6l.1-.6zM296.8 9.8v-.3h-.2c-.6 0-.7-.1-.8-.4l-2.3-5.7c0-.2 0-.2-.2-.2s-.2 0-.3.2L291 8.8c-.1.2-.3.7-1.1.7v.3h2v-.3c-.4 0-.6-.2-.6-.5v-.2l.5-1.1h2.6L295 9v.2c0 .3-.5.3-.8.3v.3h2.7zm-2.6-2.4h-2.4l1.2-3zm10.4.2v-.4h-2.9v.4h.3c1 0 1 0 1 .4v.6c0 .2 0 .5-.6.8-.4.2-1 .2-1 .2-1.1 0-2.8-.6-2.8-3 0-2.5 1.7-3 2.7-3 .9 0 2 .6 2.2 2.2l.2.1.1-.2V3.3h-.2l-.5.8c-.5-.5-1.1-.8-2-.8-1.9 0-3.5 1.5-3.5 3.3 0 1.8 1.6 3.4 3.6 3.4.5 0 1.5-.1 2-.8.1.3.4.6.5.6l.1-.2V8c0-.4.1-.4.8-.4zm8-3.8v-.4H310.8v.4c.3 0 .6.1.6.4v.2l-2 4.5-2-4.7V4c0-.2.5-.2.7-.2v-.4H305.4v.4h.2c.5 0 .7 0 .8.3l2.4 5.7c0 .1 0 .2.3.2l.2-.2 2.3-5.4c.2-.3.4-.6 1-.6zM292.7 12.1a5.6 5.6 0 0 0-2.3 4.6c0 1.4.4 3.4 2.3 4.7l.1-.1V21c-1.3-1-1.7-2.7-1.7-4.4 0-2.5 1-3.7 1.7-4.4l-.1-.2zM297.5 18.3v.6c0 .2 0 .3.2.3l.4-.2.2-.6.2-.9.1-.6.3-.7c.3-.4.8-1 1.5-1 .5 0 .6.5.6.7 0 .5-.5 1.6-.6 2l-.1.5c0 .5.4.8.8.8 1 0 1.4-1.3 1.4-1.5H302.2c-.2.8-.7 1.2-1 1.2-.2 0-.3-.1-.3-.3 0-.2 0-.4.3-.8 0-.3.5-1.2.5-1.8 0-.1 0-.5-.4-.8-.2 0-.4-.2-.9-.2-.8 0-1.3.5-1.6 1 0-.9-.7-1-1.2-1a2 2 0 0 0-1.6.8c0-.6-.6-.8-1-.8s-.6.3-.7.5l-.3.9.1.1c.1 0 .2 0 .2-.3.2-.5.3-1 .7-1 .2 0 .3.2.3.5l-.1.8-.2.8-.3 1.2-.1.4c0 .2.1.3.3.3l.3-.2.2-.6.2-.9.2-.6c0-.4 0-.4.4-.8.2-.4.7-.9 1.3-.9.6 0 .6.5.6.7l-.2.9zm7.4.6c0 .5 0 1.1-.7 1.7V21c.2 0 1-.8 1-1.9 0-.6-.3-1-.7-1-.3 0-.5.2-.5.5s.2.6.5.6l.4-.2zm4.2-5.6c0-.2-.1-.4-.4-.4-.2 0-.5.3-.5.5s.1.4.4.4c.3 0 .5-.3.5-.5zm-1.9 4.7v.4c0 .4.3.8.8.8 1 0 1.3-1.3 1.3-1.5H309c-.2.8-.6 1.2-1 1.2-.2 0-.2-.1-.2-.3l.1-.6.3-.8.5-1.1v-.3c0-.5-.3-.8-.8-.8-1 0-1.4 1.2-1.4 1.4l.2.1.2-.1c.2-.8.6-1.2 1-1.2.1 0 .2.1.2.4l-.3.9zm4.6 1c0 .4 0 1-.7 1.6V21c.2 0 1-.8 1-1.9 0-.6-.3-1-.7-1-.3 0-.5.2-.5.5s.2.6.5.6l.4-.2zm6.3-1.2a5 5 0 0 0 1.2-2.3h-.2l-.2.2a5 5 0 0 1-.8 1.6v-.8c-.2-1-1-1.5-1.9-1.5-1.3 0-2.6 1.2-2.6 2.5 0 .9.6 1.7 1.7 1.7.8 0 1.6-.4 2.1-.8.2.7.7.8 1 .8.5 0 .9-.5.9-.7l-.2-.1-.2.1c0 .4-.4.4-.5.4-.1 0-.3 0-.3-1.1zm-.7.3c-1 .7-1.7.8-2 .8-.7 0-1-.4-1-1 0-.3 0-1.3.6-2 .4-.5 1-.7 1.2-.7.8 0 1 .7 1 1.3l.2 1.6zM322.6 16.2c0-.2 0-.2-.3-.2-.4.4-1.2.4-1.3.4h-.1v.3c.2 0 .7 0 1-.2v3.3c0 .2 0 .3-.7.3h-.3v.3h2.7v-.3h-.3c-.7 0-.7 0-.7-.3zM332 17c.2 0 .4 0 .4-.3 0-.2-.2-.2-.4-.2h-5.5c-.2 0-.4 0-.4.2 0 .3.2.3.4.3zM336.5 13.2c0-.3 0-.3-.3-.3-.6.6-1.4.6-1.8.6v.3c.2 0 .8 0 1.4-.2v4.7c0 .3 0 .4-1 .4h-.3v.4a48.2 48.2 0 0 1 3.3 0v-.4h-.4c-.9 0-.9 0-.9-.4zm3-1h-.2l.1.2c.8.7 1.7 2 1.7 4.3 0 2-.6 3.5-1.6 4.4l-.2.2h.2s1-.5 1.6-1.7c.4-.8.7-1.8.7-2.9 0-1.3-.4-3.3-2.3-4.6zm6.6 0a5.6 5.6 0 0 0-2.2 4.5c0 1.4.4 3.4 2.2 4.7l.2-.1V21c-1.3-1-1.8-2.7-1.8-4.4 0-2.5 1-3.7 1.8-4.4 0-.2 0-.2-.2-.2zM351 18.3v.6c0 .2 0 .3.2.3l.4-.2.2-.6.2-.9.1-.6.3-.7c.3-.4.8-1 1.5-1 .5 0 .5.5.5.7 0 .5-.4 1.6-.5 2l-.1.5c0 .5.4.8.8.8 1 0 1.4-1.3 1.4-1.5h-.4c-.2.8-.6 1.2-1 1.2-.1 0-.2-.1-.2-.3l.2-.8c.2-.3.5-1.2.5-1.8 0-.1 0-.5-.3-.8-.2 0-.4-.2-.9-.2-.8 0-1.3.5-1.6 1-.1-.9-.8-1-1.2-1a2 2 0 0 0-1.6.8c0-.6-.6-.8-1-.8s-.6.3-.7.5l-.4.9.2.1.2-.3c.1-.5.3-1 .7-1 .2 0 .3.2.3.5l-.2.8-.2.8-.3 1.2v.4c0 .2.1.3.3.3l.3-.2.2-.6.2-.9.2-.6c0-.4 0-.4.3-.8s.7-.9 1.4-.9c.6 0 .6.5.6.7l-.2.9zm7.4.6c0 .5-.1 1.1-.7 1.7l-.1.1.1.2c.2 0 1-.8 1-1.9 0-.6-.3-1-.7-1-.3 0-.5.2-.5.5s.2.6.5.6l.4-.2zm4.2-5.6c0-.2-.1-.4-.4-.4-.2 0-.5.3-.5.5s.1.4.4.4c.2 0 .5-.3.5-.5zm-2 4.7v.4c0 .4.4.8.9.8 1 0 1.3-1.3 1.3-1.5H362.5c-.2.8-.6 1.2-1 1.2-.2 0-.2-.1-.2-.3l.1-.6.3-.8.5-1.1v-.3c0-.5-.3-.8-.8-.8-1 0-1.4 1.2-1.4 1.4l.2.1.1-.1c.3-.8.7-1.2 1-1.2.2 0 .3.1.3.4l-.3.9zm4.7 1c0 .4-.1 1-.7 1.6l-.1.1.1.2c.2 0 1-.8 1-1.9 0-.6-.3-1-.7-1-.3 0-.5.2-.5.5s.2.6.5.6l.4-.2zm6.3-1.2a5 5 0 0 0 1.2-2.3h-.2l-.2.2a5 5 0 0 1-.9 1.6v-.8c-.1-1-.8-1.5-1.8-1.5-1.3 0-2.6 1.2-2.6 2.5 0 .9.6 1.7 1.7 1.7.8 0 1.6-.4 2.1-.8.2.7.7.8 1 .8.5 0 .8-.5.8-.7l-.1-.1-.2.1c-.1.4-.4.4-.5.4-.1 0-.3 0-.3-1.1zm-.8.3c-.9.7-1.7.8-2 .8-.6 0-1-.4-1-1 0-.3.2-1.3.6-2 .5-.5 1-.7 1.3-.7.8 0 1 .7 1 1.3l.1 1.6zM376 16.2c0-.2 0-.2-.2-.2-.5.4-1.2.4-1.3.4h-.1v.3c.2 0 .6 0 1-.2v3.3c0 .2 0 .3-.7.3h-.3v.3h2.7v-.3h-.4c-.7 0-.7 0-.7-.3zM379.4 12.1l-.2.1.1.2c.8.7 1.7 2 1.7 4.3 0 2-.6 3.5-1.6 4.4l-.2.2h.2s1-.5 1.6-1.7c.4-.8.6-1.8.6-2.9 0-1.3-.3-3.3-2.2-4.6zM386.1 15.3c0-1-.3-1.4-.9-1.4-.4 0-.7.3-.7.7 0 .3.3.7.7.7.2 0 .4 0 .5-.2l.1.2c0 1-.5 1.7-.9 2.2l-.1.2v.1c.2 0 1.3-1 1.3-2.5zM401 6.6l.1-.3c0-.1 0-.2-.2-.2s-.3.1-.4.3l-1 2.9h-4.1l-1-3-.4-.2-.3.2.1.3 3.3 8.7c0 .1.1.3.3.3.2 0 .3-.2.3-.3zm-5.4 3.2h3.6l-1.8 4.7zM405.5 18.5l-.2-.3c-1.7-1.7-2.1-4.2-2.1-6.3 0-2.3.5-4.6 2.1-6.2l.2-.3-.1-.1c-.2 0-1.4 1-2.1 2.6a9.9 9.9 0 0 0 0 8.2c.8 1.6 2 2.5 2 2.5l.2-.1zM407.4 14.5v.6c0 .2.1.3.3.3.2 0 .4 0 .5-.3l.2-1 .3-1.2.3-1 .2-.6c.1-.4.8-1.6 2.1-1.6.6 0 .7.5.7 1 0 .3 0 .6-.2 1l-.3 1.6-.3 1-.2.8c0 .2.2.3.4.3.4 0 .5-.3.6-.7l.8-3.2c0-.2.7-1.8 2.2-1.8.6 0 .7.4.7 1 0 .7-.5 2.2-.8 2.9l-.2.7c0 .7.5 1.1 1 1.1 1.3 0 1.8-2 1.8-2l-.1-.2c-.2 0-.2 0-.2.3-.2.7-.6 1.6-1.4 1.6-.2 0-.3-.1-.3-.4l.2-1c.3-.6.9-2.1.9-2.9 0-.8-.6-1.4-1.6-1.4s-1.6.6-2.1 1.3c0-.2 0-.6-.5-1-.3-.2-.7-.3-1-.3-1.2 0-1.9.9-2.1 1.2 0-.8-.6-1.2-1.2-1.2-.7 0-.9.5-1 .8-.3.4-.4 1.2-.4 1.2l.1.2c.1 0 .2 0 .2-.3.3-1 .5-1.6 1-1.6.2 0 .4.1.4.6l-.2 1.1zm13.2.8c0-1-.3-1.4-.8-1.4s-.7.3-.7.7c0 .3.2.7.7.7.1 0 .3 0 .5-.2v.2c0 1-.4 1.7-.9 2.2l-.1.2.1.1c.2 0 1.2-1 1.2-2.5zm7-8.3c0-.3-.2-.5-.5-.5-.4 0-.7.3-.7.7 0 .2.2.5.5.5s.7-.3.7-.7zm-1 5 .3-.8.2-.7c0-.6-.5-1.1-1.1-1.1-1.3 0-1.8 2-1.8 2 0 .2.1.2.2.2l.2-.3c.3-1.2.9-1.6 1.3-1.6.1 0 .4 0 .4.4l-.2.7-.9 2.5-.3 1c0 .7.4 1.1 1 1.1 1.3 0 1.8-2 1.8-2l-.1-.2c-.2 0-.2 0-.2.3-.3.8-.7 1.6-1.4 1.6-.2 0-.3-.1-.3-.4 0-.3 0-.5.4-1.3zm4.5 3.3c0-1-.3-1.4-.9-1.4-.4 0-.7.3-.7.7 0 .3.3.7.7.7.2 0 .4 0 .5-.2l.1.2c0 1-.5 1.7-1 2.2V17.8c.2 0 1.3-1 1.3-2.5zm9.5-3.2c0-2-1.2-2.7-2.2-2.7-1.8 0-3.6 1.9-3.6 3.8 0 1.2.8 2.2 2.2 2.2.8 0 1.8-.3 2.8-1.1.2.7.6 1.1 1.2 1.1.7 0 1.1-.7 1.1-1H441.8c-.3.7-.7.7-.8.7-.4 0-.4-1-.4-1.3 0-.3 0-.3.2-.5a7.7 7.7 0 0 0 1.5-3.1l-.2-.1-.2.2c-.2.9-.7 1.9-1.3 2.7zm-.9 1.9A4.2 4.2 0 0 1 437 15c-.8 0-1.2-.6-1.2-1.4 0-.7.4-2.1.8-2.8.6-1 1.3-1.2 1.8-1.2 1.3 0 1.3 1.7 1.3 2.8V14zM446 11.4c0-.3 0-.3-.4-.3-.5.6-1.4.6-1.8.6v.3c.3 0 .9 0 1.4-.2v4.7c0 .3 0 .4-1 .4h-.3v.4a48.2 48.2 0 0 1 3.3 0v-.4h-.3c-1 0-1 0-1-.4zM452.6 12c0-1-.1-2.7-.9-4.2-.7-1.6-1.9-2.5-2-2.5l-.2.1.3.4c1.3 1.3 2 3.4 2 6.1 0 2.3-.4 4.7-2 6.3l-.3.3.2.1c.1 0 1.3-.9 2-2.6.8-1.5 1-3 1-4zM456.6 15.3c0-1-.3-1.4-.8-1.4-.4 0-.7.3-.7.7 0 .3.3.7.7.7.1 0 .3 0 .5-.2v.2c0 1-.4 1.7-.9 2.2l-.1.2.1.1c.2 0 1.2-1 1.2-2.5zM464.2 18.5l-.2-.3c-1.6-1.7-2-4.2-2-6.3 0-2.3.4-4.6 2-6.2l.2-.3v-.1c-.2 0-1.4 1-2.2 2.6-.7 1.5-.8 3-.8 4s.1 2.7.8 4.2c.8 1.6 2 2.5 2.1 2.5l.1-.1zM466.2 14.5l-.1.6c0 .2.2.3.4.3.1 0 .3 0 .4-.3l.3-1 .3-1.2.2-1 .2-.6c.2-.4.9-1.6 2.1-1.6.6 0 .8.5.8 1 0 .7-.7 2.4-.9 3l-.1.6c0 .7.4 1.1 1 1.1 1.3 0 1.8-2 1.8-2 0-.2-.1-.2-.2-.2l-.2.3c-.2.9-.7 1.6-1.3 1.6-.2 0-.3-.1-.3-.4 0-.3 0-.7.2-1 .3-.7.8-2.1.8-2.9 0-.9-.6-1.4-1.5-1.4-1.2 0-1.8.9-2 1.2-.1-.8-.7-1.2-1.3-1.2-.6 0-.9.5-1 .8l-.4 1.2c0 .2.1.2.2.2l.2-.3c.2-1 .5-1.6 1-1.6.2 0 .4.2.4.6l-.2 1.1zm9.5.8c0-1-.4-1.4-.9-1.4-.4 0-.7.3-.7.7 0 .3.3.7.7.7.2 0 .4 0 .5-.2v.2c0 1-.4 1.7-.8 2.2l-.2.2.2.1c.1 0 1.2-1 1.2-2.5zM484 7c0-.3-.1-.5-.5-.5-.3 0-.7.3-.7.7 0 .3.2.5.5.5.4 0 .7-.4.7-.7zm-2.6 9c-.3 1-1 1.7-1.7 1.7l-.5-.1c.4-.1.6-.5.6-.7 0-.2-.1-.5-.5-.5-.3 0-.7.3-.7.8s.5.8 1.2.8c.9 0 2.1-.7 2.5-2l1.2-4.9v-.5c0-.7-.5-1.2-1.2-1.2-1.3 0-2 2-2 2v.2c.2 0 .2 0 .3-.3.3-.8 1-1.6 1.7-1.6.2 0 .4 0 .4.6v.7zm5.6-.7c0-1-.4-1.4-.9-1.4-.4 0-.7.3-.7.7 0 .3.3.7.7.7.2 0 .3 0 .5-.2v.2c0 1-.4 1.7-.8 2.2l-.2.2.1.1c.2 0 1.3-1 1.3-2.5zm9.5-3.2c0-2-1.3-2.7-2.2-2.7-1.8 0-3.6 1.9-3.6 3.8 0 1.2.8 2.2 2.2 2.2.8 0 1.7-.3 2.8-1.1.1.7.6 1.1 1.2 1.1.7 0 1-.7 1-1h-.3c-.2.7-.7.7-.7.7-.4 0-.4-1-.4-1.3l.1-.5a7.7 7.7 0 0 0 1.6-3.1l-.2-.1-.2.2c-.3.9-.7 1.9-1.3 2.7zm-.9 1.9A4.2 4.2 0 0 1 493 15c-.8 0-1.2-.6-1.2-1.4 0-.7.3-2.1.8-2.8.6-1 1.3-1.2 1.8-1.2 1.3 0 1.3 1.7 1.3 2.8V14zM503.5 15.6h-.3c0 .2-.1.7-.3.8h-2.6L502 15c.7-.5 1.4-1.1 1.4-2 0-1.1-1-1.8-2.2-1.8-1.2 0-2 .8-2 1.6 0 .5.5.6.6.6.2 0 .5-.2.5-.5 0-.2-.1-.5-.6-.5.3-.7 1-.9 1.4-.9.9 0 1.4.8 1.4 1.5 0 .8-.6 1.5-.9 1.8l-2.2 2.2-.1.4h3.8zM508.6 12c0-1-.2-2.7-.9-4.2-.8-1.6-2-2.5-2-2.5l-.2.1.3.4c1.3 1.3 2 3.4 2 6.1 0 2.3-.5 4.7-2.1 6.3l-.2.3.1.1c.2 0 1.4-.9 2.1-2.6.7-1.5.9-3 .9-4zM520.9 12.2c.2 0 .5 0 .5-.3 0-.2-.3-.2-.5-.2h-5.7c.2-1.8 1.7-3 3.6-3h2c.3 0 .6 0 .6-.3s-.3-.3-.5-.3h-2.1c-2.3 0-4 1.7-4 3.8a4 4 0 0 0 4 3.9h2c.3 0 .6 0 .6-.3 0-.2-.3-.2-.5-.2h-2.1c-1.9 0-3.4-1.3-3.6-3zM538.3 7.7c.4-.5.7-1 1.5-1 .1-.1.3-.1.3-.3l-.2-.2h-2.4s-.2 0-.2.3l.1.1c.4 0 .8.1.8.5l-.1.5-3.6 6.2-.5-6.6c0-.2 0-.6 1-.6.1 0 .3 0 .3-.2s-.2-.2-.2-.2h-3c-.1 0-.3 0-.3.3l.3.1c.6 0 .7.1.7.3l.1 1-3.3 6L529 7c0-.2 0-.5 1-.5.2 0 .3 0 .3-.2s-.1-.2-.2-.2h-3s-.2 0-.2.3l.3.1c.7 0 .7.1.7.5l.6 8.1c0 .3 0 .4.2.4s.2-.1.3-.3l4-6.8.4 6.7c0 .3 0 .4.2.4s.3-.2.4-.3zM545 4.2c.1-.3.1-.3.3-.3h1.6c.5.1.5.4.5.7v.8l-.1.1.2.1.1-.2.3-1.8h-6l-.3.1-.6 1.7v.1l.1.1.2-.2c.5-1.5.8-1.6 2.3-1.6h.3l.3.1v.2l-1.2 5c-.1.3-.2.4-1.1.4-.4 0-.4 0-.4.2h3.3l.3-.1-.4-.1a6 6 0 0 1-.6 0c-.3 0-.3-.1-.3-.2V9zm0 0"/></g></svg>