<svg xmlns="http://www.w3.org/2000/svg" width="158.8" height="31.4"><g aria-label="∑ (m,i)∈C Z0,(m,i),l =1,∀l∈B"><path d="m26.2 18.6 1.6-4.3h-.3c-.5 1.4-2 2.3-3.5 2.7-.3 0-1.6.4-4.1.4h-8l6.7-7.9.2-.2-.1-.2L12.5.6h7.3c1.7 0 3 .2 3 .2.8.2 2 .4 3 1 .3.3 1.2.9 1.7 2h.3L26.2 0H10v.5l7 9.6-6.8 8.1-.2.3h.4zM2.2 22.1A5.6 5.6 0 0 0 0 26.8c0 1.3.4 3.3 2.2 4.6h.2v-.2C1 30 .5 28.5.5 26.8c0-2.5 1-3.7 1.8-4.4v-.1c0-.2 0-.2-.2-.2zM7.1 28.4l-.1.5c0 .2.2.3.3.3l.4-.2.1-.6a17.1 17.1 0 0 0 .4-1.4l.3-.7c.3-.5.7-1 1.5-1 .5 0 .5.4.5.6 0 .6-.4 1.6-.5 2l-.2.5c0 .5.4.8 1 .8.9 0 1.3-1.3 1.3-1.4l-.2-.1-.2.1c-.2.8-.6 1.1-1 1.1-.1 0-.2 0-.2-.3l.2-.7c.1-.3.5-1.3.5-1.8 0-.2 0-.6-.3-.8-.2-.2-.5-.3-.9-.3-.8 0-1.3.6-1.6 1-.1-.8-.8-1-1.2-1a2 2 0 0 0-1.6.9c0-.7-.6-.9-1-.9s-.6.3-.7.5l-.4 1h.2l.2-.2c.1-.6.3-1 .7-1 .2 0 .3.2.3.4l-.2.8-.2.8-.3 1.2v.4c0 .2 0 .3.2.3l.4-.2.2-.6.2-.8.1-.6.4-.9c.3-.3.7-.8 1.4-.8.6 0 .6.5.6.6l-.2.9zm7.4.6c0 .5-.1 1-.8 1.7l.1.2c.1 0 1-.7 1-1.8 0-.6-.3-1-.7-1-.3 0-.5.2-.5.5s.2.5.5.5l.4-.1zm4.2-5.7c0-.1-.1-.3-.4-.3-.2 0-.5.2-.5.5 0 .1 0 .3.3.3s.6-.2.6-.5zm-2 4.7v.4c0 .4.4.8.9.8.9 0 1.3-1.3 1.3-1.4l-.1-.1-.2.1c-.2.8-.6 1.1-1 1.1-.2 0-.2 0-.2-.3l.1-.6.3-.7.5-1.2v-.3c0-.4-.3-.8-.9-.8-.9 0-1.3 1.3-1.3 1.4 0 .2.1.2.2.2l.1-.2c.3-.8.7-1.1 1-1.1.2 0 .2 0 .2.3l-.2 1zM20.3 22.1c-.1 0-.2 0-.2.2.9.8 1.8 2 1.8 4.5 0 2-.6 3.4-1.6 4.3l-.2.2.1.1c.1 0 1-.6 1.6-1.7.4-.8.7-1.8.7-3s-.4-3.3-2.2-4.6zM29.3 27c.2 0 .4 0 .4-.2s-.2-.2-.4-.2H25a2.6 2.6 0 0 1 2.8-2.4h1.5c.2 0 .4 0 .4-.2s-.2-.2-.4-.2h-1.6a3.1 3.1 0 0 0-3.1 3 3 3 0 0 0 3.1 3h1.6c.2 0 .4 0 .4-.2s-.2-.2-.4-.2h-1.5c-1.5 0-2.6-1-2.8-2.4zM38.6 22.7l-.1-.1h-.2l-.7.8c0-.1-.6-.8-1.7-.8-2.3 0-4.5 2-4.5 4 0 1.6 1.2 2.7 2.8 2.7.5 0 1.4-.1 2.4-1 .7-.5 1-1.3 1-1.4l-.2-.1-.2.1a3 3 0 0 1-2.8 2c-1 0-2-.5-2-2 0-.2 0-1.7 1-2.8.7-.8 1.7-1.2 2.6-1.2 1 0 1.7.8 1.7 1.8v.4l.1.1c.2 0 .2 0 .2-.2zM50.8 3.9v-.2c0-.2 0-.2-.3-.2h-5.6c-.3 0-.3 0-.4.3l-.7 2.4V6.5l.2-.1c.6-1.6 1.2-2.4 3.3-2.4h2.2L42 12.3l-.1.2.3.1h5.8c.3 0 .3 0 .4-.2l1-3v-.2l-.2-.1-.2.3c-.6 1.8-1.2 2.8-3.5 2.8h-2.2zM55 12c0-1 0-1.7-.5-2.4a2 2 0 0 0-1.6-.8c-2.1 0-2.1 2.6-2.1 3.2 0 .7 0 3.2 2.1 3.2 2.2 0 2.2-2.5 2.2-3.2zm-2 3c-.5 0-1-.3-1.3-1v-4c.3-.7.9-.9 1.2-.9.5 0 1 .3 1.2.9l.1 2v1.9c-.3.8-.9 1-1.3 1zM57.6 14.9c0 .5-.1 1-.8 1.7v.2c.2 0 1-.7 1-1.8 0-.6-.2-1-.6-1-.3 0-.6.2-.6.5s.2.5.6.5l.4-.1zM62 8a5.6 5.6 0 0 0-2.2 4.7c0 1.3.4 3.3 2.2 4.6h.2V17c-1.3-1.1-1.8-2.7-1.8-4.4 0-2.5 1-3.7 1.8-4.4v-.1c0-.2 0-.2-.2-.2zM67 14.3l-.2.5c0 .2.2.3.3.3l.4-.2.1-.6A17.1 17.1 0 0 0 68 13l.3-.7c.3-.5.7-1 1.5-1 .5 0 .5.4.5.6 0 .6-.4 1.6-.5 2l-.2.5c0 .5.4.8 1 .8.9 0 1.3-1.3 1.3-1.4l-.2-.1-.2.1c-.2.8-.6 1.1-1 1.1-.1 0-.2 0-.2-.3l.2-.7c.1-.3.5-1.3.5-1.8 0-.2 0-.6-.3-.8-.2-.2-.5-.3-.9-.3-.8 0-1.3.6-1.6 1-.1-.8-.8-1-1.2-1a2 2 0 0 0-1.6.9c0-.7-.6-.9-1-.9s-.6.3-.7.5l-.4 1h.2l.2-.2c.1-.6.3-1 .7-1 .2 0 .3.2.3.4l-.2.8-.2.8-.3 1.2v.4c0 .2 0 .3.2.3l.4-.2.2-.6.2-.8.1-.6.4-.9c.3-.3.7-.8 1.4-.8.6 0 .6.5.6.6l-.2.9zm7.3.6c0 .5-.1 1-.8 1.7l.1.2c.2 0 1-.7 1-1.8 0-.6-.3-1-.7-1-.3 0-.5.2-.5.5s.2.5.5.5l.4-.1zm4.2-5.7c0-.1-.1-.3-.4-.3-.2 0-.5.2-.5.5 0 .1.1.3.3.3.3 0 .6-.2.6-.5zm-2 4.7v.4c0 .4.4.8.9.8.9 0 1.3-1.3 1.3-1.4l-.1-.1-.2.1c-.2.8-.6 1.1-1 1.1-.2 0-.2 0-.2-.3l.1-.6.3-.7.5-1.2v-.3c0-.4-.3-.8-.9-.8-.9 0-1.3 1.3-1.3 1.4 0 .2.1.2.2.2l.1-.2c.3-.8.7-1.1 1-1.1.2 0 .2 0 .2.3l-.2 1zM80 8l-.1.2v.1c.9.7 1.8 2 1.8 4.4 0 2-.6 3.4-1.6 4.3l-.2.2.1.1c.1 0 1-.6 1.6-1.7.4-.8.7-1.8.7-3S81.9 9.4 80 8zM85.4 14.9c0 .5-.1 1-.8 1.7v.2c.2 0 1-.7 1-1.8 0-.6-.2-1-.6-1-.4 0-.6.2-.6.5s.2.5.6.5l.4-.1zm3.8-6v-.2l-.1-.1h-1.3l-.1.3.2.1.4.1v.2L87.1 14v.3c0 .6.5 1 1 1 .2 0 .5-.2.7-.6l.4-1H89l-.2.2c0 .4-.3 1-.7 1-.2 0-.3-.2-.3-.4V14zM103.4 8.3c.2 0 .5 0 .5-.3s-.3-.3-.5-.3h-8c-.1 0-.3 0-.3.3s.2.3.4.3zm0 2.6c.2 0 .5 0 .5-.3s-.3-.3-.5-.3h-7.9c-.2 0-.4 0-.4.3s.2.3.4.3zm8.8-6.8c0-.3 0-.3-.3-.3-.8.8-2 .8-2.4.8V5c.3 0 1 0 1.7-.3v6.9c0 .4 0 .6-1.2.6h-.4v.4H113.9v-.4h-.5c-1.2 0-1.2-.1-1.2-.6zM117.7 12.6c0-.9-.4-1.4-.9-1.4-.4 0-.7.3-.7.7 0 .4.3.7.7.7.2 0 .3 0 .5-.2v.2c0 1-.4 1.8-.8 2.2l-.2.2c0 .1 0 .2.2.2.1 0 1.2-1 1.2-2.6zM128.2 3.9v-.2c0-.2 0-.3-.2-.3s-.3.2-.3.3l-1.1 3h-4l-1.2-3c0-.2 0-.3-.3-.3 0 0-.2.1-.2.3v.2l3.4 8.7c0 .2 0 .3.3.3l.3-.3zm-5.4 3.3h3.6l-1.8 4.7zM131.7 3.5l-.2-.1-1.6.1c-.1 0-.3 0-.3.3 0 .2.2.2.4.2.6 0 .6 0 .6.2v.2l-1.7 6.7v.4c0 .8.5 1.3 1.1 1.3.5 0 .8-.3 1-.8.3-.5.4-1.3.4-1.3l-.1-.1c-.2 0-.2 0-.2.2-.2.9-.5 1.7-1 1.7-.4 0-.4-.5-.4-.6v-.7zM143.4 9.6c.3 0 .5 0 .5-.3s-.2-.3-.5-.3h-5.6c.2-1.7 1.7-3 3.6-3h2c.3 0 .5 0 .5-.3s-.2-.3-.5-.3h-2c-2.3 0-4.1 1.8-4.1 3.9a4 4 0 0 0 4 3.8h2.1c.3 0 .5 0 .5-.2 0-.3-.2-.3-.5-.3h-2c-2 0-3.4-1.3-3.6-3zM150.8 11.6c0 .5-.1.6-1.2.6-.2 0-.3 0-.3.3l.3.1h4.8c2 0 3.6-1.5 3.6-2.9 0-1-.7-1.7-2-1.8 1.4-.3 2.8-1.3 2.8-2.5 0-1-1-1.9-2.5-1.9h-4.5c-.2 0-.4 0-.4.3 0 .2.2.2.4.2h.5c.3 0 .4 0 .4.2v.2zm2-3.8.9-3.3c0-.5.1-.5.7-.5h1.7c1.2 0 1.4.7 1.4 1.3 0 1.2-1.1 2.5-2.7 2.5zm-.6 4.4h-.3l-.1-.1v-.3l1-3.7h2.5c1.3 0 1.5 1 1.5 1.5 0 1.3-1.2 2.6-2.7 2.6zm0 0"/></g></svg>