<svg xmlns="http://www.w3.org/2000/svg" width="390.5" height="19.4"><g aria-label="Y position (m,i,α) =y,P Y(m,i,α),y =1,∀(m,i)∈C,∀α∈{0,1,2,3,4},∀y∈Y R"><path d="m7.5 5 .1-.2c.4-.4.9-.9 1.8-1 .1 0 .3 0 .3-.2l-.2-.2H7c-.1 0-.3 0-.3.3L7 4c.1 0 .5 0 .5.3 0 .2-.3.5-.4.6l-3 3.5-1.5-3.9-.1-.2c0-.3.7-.3.8-.3.2 0 .3 0 .3-.3 0-.2-.1-.2-.2-.2H.3c-.1 0-.3 0-.3.3 0 .2.1.2.3.2.8 0 .9 0 1 .4l1.6 4.4v.2l-.5 2.4c-.2.8-.2.8-1.3.8-.2 0-.3 0-.3.3l.1.1h3.4c.1 0 .3 0 .3-.2s-.1-.2-.4-.2h-.5c-.3 0-.4 0-.4-.2l.2-.9.5-1.8c0-.3 0-.3.2-.4zM15.6 4.1c0-1.1-1-2-2.1-2-.5 0-1 .1-1.5.5V2l-1.4.1v.4c.7 0 .8 0 .8.4v4.3c0 .4-.1.4-.8.4V8h2.1v-.3c-.5 0-.6 0-.6-.4V5.7s.5.5 1.3.5c1.2 0 2.2-.9 2.2-2zm-.8 0c0 1-.7 1.9-1.5 1.9S12 5.3 12 5.2V3c.3-.4.8-.7 1.3-.7.8 0 1.4.9 1.4 1.8zm6.5 0C21.3 3 20.3 2 19 2c-1.3 0-2.3 1-2.3 2.2 0 1.1 1 2 2.3 2 1.2 0 2.3-.9 2.3-2zm-.9 0c0 .4 0 1-.3 1.3-.2.4-.7.5-1.1.5-.4 0-.9 0-1.2-.5-.2-.4-.3-.9-.3-1.3s0-1 .4-1.4c.2-.2.6-.4 1-.4.6 0 1 .2 1.2.5.3.4.3.8.3 1.3zm5 .8c0-.3-.1-.6-.4-.8-.3-.4-.8-.4-1-.5-.8-.1-1.4-.2-1.4-.7 0-.3.2-.7 1.1-.7 1 0 1.1.8 1.1 1l.2.1c.2 0 .2 0 .2-.2v-.9c0-.1 0-.2-.2-.2l-.2.1-.1.2c-.3-.3-.7-.3-1-.3-1.3 0-1.6.7-1.6 1.2 0 .3 0 .5.3.7.4.3.7.4 1.3.4.4.1 1.2.3 1.2.9 0 .3-.3.8-1.1.8-1 0-1.3-.6-1.4-1.2 0-.2 0-.2-.2-.2l-.1.2v1.4c.2 0 .3-.2.5-.4.4.4 1 .4 1.2.4 1.2 0 1.6-.6 1.6-1.3zm3 1.2v-.3c-.5 0-.6 0-.6-.4V2l-1.4.1v.4c.6 0 .7 0 .7.5v2.4c0 .4-.1.4-.7.4v.3h2zM27.9.5c0-.2-.3-.5-.6-.5s-.5.3-.5.5c0 .3.2.6.5.6.4 0 .6-.3.6-.6zM32.3 5v-.5H32V5c0 .6-.3 1-.6 1-.7 0-.7-.8-.7-1V2.5h1.5V2h-1.5V.4h-.3c0 .9-.4 1.8-1.3 1.8v.3h.9V5c0 1 .8 1.2 1.3 1.2.6 0 1-.5 1-1.2zM35.5 6v-.3c-.5 0-.6 0-.6-.4V2l-1.4.1v.4c.6 0 .7 0 .7.5v2.4c0 .4 0 .4-.7.4v.3h2zM35 .5c0-.2-.2-.5-.5-.5s-.5.3-.5.5c0 .3.2.6.5.6s.5-.3.5-.6zm6 3.7C41 3 40 2 38.5 2c-1.2 0-2.2 1-2.2 2.2 0 1.1 1 2 2.2 2 1.3 0 2.3-.9 2.3-2zM40 4c0 .4 0 1-.2 1.3-.3.4-.7.5-1.2.5-.3 0-.8 0-1.1-.5-.3-.4-.3-.9-.3-1.3s0-1 .3-1.4c.3-.2.7-.4 1.1-.4.6 0 1 .2 1.2.5.2.4.3.8.3 1.3zm6.8 2v-.3c-.6 0-.7 0-.7-.4v-2c0-.9-.4-1.4-1.4-1.4-.8 0-1.3.5-1.5 1V2l-1.4.1v.4c.6 0 .7 0 .7.5v2.4c0 .4-.1.4-.7.4v.3h2.1v-.3c-.6 0-.7 0-.7-.4V3.7c0-1 .8-1.4 1.4-1.4.7 0 .7.5.7 1v2.1c0 .4 0 .4-.7.4v.3h2.1zM10.5 10a5.6 5.6 0 0 0-2.2 4.7c0 1.3.4 3.4 2.2 4.7.1 0 .2 0 .2-.2-1.3-1.2-1.8-2.8-1.8-4.5 0-2.5 1-3.7 1.8-4.4v-.1l-.2-.1zM15.4 16.3l-.1.5c0 .2.2.3.3.3.2 0 .3 0 .4-.2l.1-.5a17.1 17.1 0 0 0 .4-1.5l.3-.7c.3-.5.7-1 1.5-1 .5 0 .5.4.5.7 0 .5-.4 1.5-.5 2l-.2.4c0 .5.4.8 1 .8.9 0 1.3-1.2 1.3-1.4l-.2-.1-.2.1c-.2.8-.6 1.2-1 1.2l-.2-.4.2-.7c.1-.3.5-1.3.5-1.8 0-.1 0-.5-.3-.8-.2-.1-.4-.3-.9-.3-.8 0-1.3.6-1.6 1-.1-.8-.8-1-1.2-1a2 2 0 0 0-1.6.9c0-.6-.6-.9-1-.9s-.6.3-.7.5l-.4 1h.2l.2-.2c.1-.5.3-1 .7-1 .2 0 .3.2.3.5l-.2.7-.2.9-.3 1.2v.3c0 .2 0 .3.3.3.1 0 .3 0 .3-.2l.2-.5.2-.9.1-.6.4-.8c.3-.4.7-.9 1.4-.9.6 0 .6.5.6.7l-.2.8zm7.4.6c0 .5-.1 1.1-.8 1.7v.1l.1.1c.2 0 1-.7 1-1.8 0-.6-.3-1-.7-1-.3 0-.5.2-.5.5s.2.5.5.5l.4-.1zm4.2-5.7c0-.1-.1-.3-.4-.3-.2 0-.5.2-.5.5 0 .1.1.3.3.3.3 0 .6-.2.6-.5zM25 16v.4c0 .5.4.8.9.8 1 0 1.3-1.2 1.3-1.4l-.1-.1-.2.1c-.2.8-.6 1.2-1 1.2-.2 0-.2-.1-.2-.4l.1-.6.3-.7.5-1.2v-.3c0-.4-.3-.8-.9-.8-.9 0-1.3 1.3-1.3 1.5H24.7c.3-.9.7-1.2 1-1.2.2 0 .2 0 .2.3l-.2 1zm4.7 1c0 .5-.1 1.1-.7 1.7l-.1.1.1.1c.2 0 1-.7 1-1.8 0-.6-.3-1-.7-1-.3 0-.5.2-.5.5s.2.5.5.5l.4-.1zm6.2-1.2a5 5 0 0 0 1.3-2.2l-.2-.1-.2.2a5 5 0 0 1-.9 1.7v-.8c-.2-1-.8-1.6-1.8-1.6-1.3 0-2.7 1.3-2.7 2.6 0 .9.7 1.6 1.8 1.6.8 0 1.6-.4 2-.8.3.7.8.8 1 .8.6 0 1-.4 1-.6l-.2-.1h-.2c-.1.4-.4.5-.5.5-.1 0-.3 0-.4-1.2zm-.7.3c-.9.8-1.7.9-2 .9-.6 0-1-.4-1-1 0-.3.2-1.3.6-2 .5-.5 1-.7 1.3-.7.8 0 1 .7 1 1.3l.1 1.5zM38.6 10s-.2 0-.2.2l.1.1c.8.8 1.7 2 1.7 4.4 0 2-.6 3.4-1.6 4.3l-.2.2s0 .2.2.2c0 0 1-.7 1.6-1.8.4-.8.7-1.8.7-2.9 0-1.3-.4-3.3-2.3-4.6zM60.6 8.2c.2 0 .5 0 .5-.3s-.3-.3-.4-.3h-8c-.2 0-.4 0-.4.3s.2.3.4.3zm0 2.6c.2 0 .5 0 .5-.3s-.3-.3-.5-.3h-7.9c-.2 0-.4 0-.4.3s.2.3.4.3zM72 7.5v-.3c0-.3-.1-.4-.3-.4-.2 0-.4 0-.5.3l-.2.7-.3 1-.6 2.4c0 .2-.6 1.2-1.5 1.2-.6 0-.8-.6-.8-1.1 0-.6.3-1.4.7-2.6l.3-1c0-.6-.5-1-1.1-1-1.3 0-1.8 1.9-1.8 2l.2.1.2-.2c.3-1.3.9-1.7 1.3-1.7.1 0 .4 0 .4.5l-.3.9a8.7 8.7 0 0 0-.7 2.8c0 1.2.8 1.6 1.6 1.6.5 0 1-.3 1.3-.6-.1.7-.3 1.3-.8 2-.4.5-.9.9-1.5.9-.2 0-.8 0-1-.6.2 0 .4 0 .6-.2l.2-.5c0-.4-.3-.5-.5-.5-.3 0-.7.2-.7.9s.6 1.1 1.4 1.1c1.4 0 2.8-1.2 3.1-2.7zm3.2 5c0-.9-.3-1.4-.8-1.4s-.7.3-.7.7c0 .4.2.7.7.7.1 0 .3 0 .4-.2l.1.2c0 1-.5 1.8-.9 2.2l-.1.2.1.2c.2 0 1.2-1 1.2-2.6zm7.2-4.2h2.3c1.9 0 3.7-1.4 3.7-2.8 0-1-.8-2-2.6-2h-4.3c-.2 0-.4 0-.4.2s.1.2.4.2h.6c.2 0 .2 0 .2.2v.2l-1.8 7.2c-.1.5-.1.6-1.2.6-.2 0-.4 0-.4.3l.2.1H82.5c.1 0 .3 0 .3-.2s-.1-.2-.4-.2c-.5 0-.8 0-.8-.2v-.3zm1-4c.1-.4.1-.4.7-.4h1.3c1 0 1.8.3 1.8 1.2 0 .6-.3 1.7-.8 2.2a3 3 0 0 1-2 .7h-2zM95.1 1.8l.6-.5.8-.3c.1 0 .2 0 .2-.2l-.1-.1h-1.7s-.2 0-.2.2l.2.1c.2 0 .2.1.2.2v.2l-.2.2-2.4 2.5-1.2-2.8v-.1c0-.2.4-.2.4-.2.2 0 .3 0 .3-.2l-.2-.1h-2.2c-.1 0-.2 0-.2.2l.2.1c.5 0 .6.1.7.3l1.4 3.2-.4 1.7c-.1.5-.1.5-.9.5-.1 0-.3 0-.3.2l.2.1h2.4s.2 0 .2-.2h-.3l-.4-.1-.2-.1.2-.8.3-1.1.1-.3zM90.3 9.2a5.6 5.6 0 0 0-2.3 4.6c0 1.3.4 3.4 2.3 4.6h.1v-.2c-1.3-1.1-1.7-2.7-1.7-4.4 0-2.5 1-3.7 1.7-4.4v-.1l-.1-.1zM95.1 15.4v.5c0 .2 0 .3.2.3s.3 0 .4-.2l.2-.6a17.1 17.1 0 0 0 .3-1.4l.3-.7c.3-.5.8-1 1.5-1 .5 0 .5.4.5.6 0 .6-.4 1.6-.5 2l-.1.5c0 .5.4.8.8.8 1 0 1.4-1.3 1.4-1.4l-.2-.1-.1.1c-.3.8-.7 1.2-1 1.2-.2 0-.3-.2-.3-.4s0-.3.3-.7c0-.3.5-1.3.5-1.8 0-.2 0-.5-.4-.8-.2-.1-.4-.3-.9-.3-.8 0-1.3.6-1.6 1 0-.8-.7-1-1.2-1a2 2 0 0 0-1.6.9c0-.7-.6-.9-1-.9s-.6.3-.7.5l-.4 1h.2l.2-.2c.1-.6.3-1 .7-1 .2 0 .3.2.3.4l-.1.8-.3.9-.2 1.2-.1.3c0 .2.1.3.3.3.1 0 .3 0 .3-.2l.2-.6.2-.8.2-.6c0-.4 0-.5.4-.8.2-.4.7-1 1.3-1 .6 0 .6.6.6.7l-.2 1zm7.4.6c0 .5 0 1-.7 1.7l-.1.1.1.1c.2 0 1-.7 1-1.8 0-.6-.3-1-.7-1-.3 0-.5.2-.5.5s.2.5.5.5l.4-.1zm4.2-5.7c0-.1-.1-.3-.4-.3-.2 0-.5.2-.5.5 0 .1.1.3.4.3.2 0 .5-.2.5-.5zm-2 4.7v.4c0 .5.4.8 1 .8.8 0 1.2-1.3 1.2-1.4l-.1-.1-.2.1c-.2.8-.6 1.2-1 1.2-.2 0-.2-.1-.2-.4l.1-.6.3-.7.5-1.2v-.3c0-.4-.3-.8-.8-.8-1 0-1.4 1.3-1.4 1.5H104.4c.3-.9.7-1.2 1-1.2.2 0 .3 0 .3.3 0 .2 0 .4-.3 1zm4.7 1c0 .5 0 1-.7 1.7v.2c.2 0 1-.7 1-1.8 0-.6-.3-1-.7-1-.3 0-.5.2-.5.5s.2.5.5.5l.4-.1zm6.3-1.2a5 5 0 0 0 1.2-2.2l-.2-.1-.2.2a5 5 0 0 1-.8 1.7v-.8c-.2-1-1-1.6-1.9-1.6-1.3 0-2.6 1.3-2.6 2.6 0 .9.6 1.6 1.7 1.6.8 0 1.6-.4 2.1-.8.2.7.7.8 1 .8.5 0 .9-.4.9-.6l-.2-.1h-.2c-.1.4-.4.5-.5.5-.1 0-.3 0-.3-1.2zm-.8.3c-.9.8-1.7.9-2 .9-.6 0-1-.4-1-1 0-.3.2-1.3.7-2 .4-.6 1-.7 1.2-.7.8 0 1 .7 1 1.3l.1 1.5zM118.4 9.2h-.2v.2c.9.8 1.7 2 1.7 4.4 0 2-.6 3.4-1.6 4.3l-.1.2v.1c.2 0 1-.6 1.7-1.7.4-.8.7-1.8.7-2.9 0-1.3-.4-3.3-2.2-4.6zM123.6 16c0 .5 0 1-.7 1.7v.2c.2 0 1-.7 1-1.8 0-.6-.2-1-.7-1-.3 0-.5.2-.5.5s.2.5.5.5l.4-.1zm6.4-3.4v-.2c0-.2-.1-.3-.3-.3 0 0-.3 0-.4.3l-.1.5-.2.8-.4 1.5s-.4.8-1.1.8c-.7 0-.7-.6-.7-.8 0-.5.3-1 .5-1.8l.2-.6c0-.4-.4-.8-.9-.8-1 0-1.3 1.3-1.3 1.5H125.6c.2-.8.6-1.2 1-1.2.1 0 .2.1.2.3l-.1.6c-.5 1-.6 1.4-.6 1.8 0 .2 0 .6.4 1a1.5 1.5 0 0 0 2-.2 3 3 0 0 1-.7 1.4c-.2.3-.6.6-1 .6-.1 0-.6 0-.8-.3.5 0 .5-.5.5-.6 0-.2-.2-.3-.3-.3-.3 0-.6.2-.6.6 0 .5.5.8 1.1.8 1 0 2.1-.7 2.4-1.8zM144 8.2c.2 0 .5 0 .5-.3s-.3-.3-.5-.3h-8c-.1 0-.4 0-.4.3s.3.3.5.3zm0 2.6c.2 0 .5 0 .5-.3s-.3-.3-.5-.3h-8c-.1 0-.4 0-.4.3s.3.3.5.3zm8.8-6.8c0-.3 0-.3-.3-.3-.8.8-2 .8-2.4.8V5c.2 0 1 0 1.7-.3v6.9c0 .4 0 .6-1.2.6h-.4v.4H154.5v-.4h-.5c-1.2 0-1.2-.1-1.2-.6zM158.3 12.5c0-.9-.4-1.4-.9-1.4-.4 0-.7.3-.7.7 0 .4.3.7.7.7.2 0 .3 0 .5-.2v.2c0 1-.4 1.8-.8 2.2l-.2.2.1.2c.2 0 1.3-1 1.3-2.6zM168.8 3.8v-.2c0-.2 0-.3-.2-.3s-.3.2-.3.3l-1.1 3h-4l-1.2-3c0-.2-.1-.3-.3-.3-.1 0-.2.1-.2.3v.2l3.4 8.7c0 .2 0 .3.2.3s.3-.1.3-.3zm-5.4 3.3h3.6l-1.9 4.7zM173.2 15.7l-.2-.3c-1.6-1.7-2-4.2-2-6.2 0-2.3.4-4.6 2-6.3l.2-.2v-.1c-.2 0-1.4.9-2.2 2.5-.7 1.5-.8 3-.8 4 0 1.1.1 2.7.8 4.2.8 1.7 2 2.5 2.1 2.5h.1zM175.2 11.7l-.1.6c0 .3.1.4.3.4.2 0 .4-.1.5-.4l.3-1 .3-1.2.2-.9.2-.6c.2-.5.9-1.7 2.1-1.7.6 0 .8.5.8 1l-.2 1-.4 1.6-.3 1-.2.8c0 .3.2.4.4.4.4 0 .5-.4.6-.8l.8-3.2c0-.2.8-1.8 2.2-1.8.6 0 .7.5.7 1 0 .7-.5 2.2-.8 3l-.2.7c0 .6.5 1 1.1 1 1.3 0 1.8-1.9 1.8-2l-.2-.1-.2.2c-.2.7-.6 1.7-1.3 1.7-.3 0-.4-.2-.4-.5l.3-1c.2-.6.8-2 .8-2.8 0-.9-.5-1.5-1.5-1.5s-1.7.6-2.2 1.3c0-.1 0-.6-.4-1l-1.1-.3c-1.2 0-1.9.9-2.1 1.2 0-.7-.6-1.2-1.2-1.2s-.9.6-1 .8l-.4 1.3.2.1.2-.3c.2-1 .5-1.6 1-1.6.2 0 .4.2.4.7 0 .2 0 .4-.3 1zm13.2.8c0-.9-.4-1.4-.9-1.4-.4 0-.7.3-.7.7 0 .4.3.7.7.7.2 0 .3 0 .5-.2v.2c0 1-.4 1.8-.8 2.2l-.2.2c0 .1 0 .2.2.2.1 0 1.2-1 1.2-2.6zm7-8.3c0-.2-.3-.5-.6-.5s-.7.4-.7.7c0 .3.2.5.5.5s.7-.3.7-.7zm-1 5 .2-.8.2-.7c0-.6-.5-1-1.1-1-1.3 0-1.8 1.9-1.8 2l.2.1.2-.2c.4-1.3.9-1.7 1.3-1.7.2 0 .4 0 .4.5l-.2.7c0 .3-.7 1.8-.9 2.4l-.3 1c0 .7.5 1.2 1.1 1.2 1.3 0 1.7-2 1.7-2l-.1-.2c-.2 0-.2 0-.2.2-.3.9-.7 1.7-1.4 1.7-.2 0-.3-.2-.3-.5s0-.5.4-1.3zM200 9.2c0-1-.2-2.6-.9-4.1-.8-1.7-2-2.5-2-2.5h-.2c0 .1 0 .2.3.4 1.3 1.3 2 3.4 2 6.2 0 2.3-.5 4.6-2.1 6.3l-.2.2.1.1c.2 0 1.4-.9 2.1-2.5.7-1.5.9-3 .9-4.1zM212.3 9.5c.2 0 .5 0 .5-.3s-.3-.3-.5-.3h-5.7c.2-1.7 1.7-3 3.6-3h2c.3 0 .6 0 .6-.3s-.3-.3-.5-.3h-2.1c-2.3 0-4 1.8-4 3.9a4 4 0 0 0 4 3.9h2c.3 0 .6 0 .6-.3s-.3-.3-.5-.3h-2c-2 0-3.5-1.3-3.7-3zM227.6 3.3l-.1-.1-.2.1-1 1c0-.2-.7-1.1-2.1-1.1-3 0-6 2.9-6 6 0 2.2 1.6 3.6 3.6 3.6 1.2 0 2.2-.5 2.9-1.1 1.2-1.1 1.4-2.3 1.4-2.4l-.1-.1-.2.1c-.1.4-.4 1.4-1.3 2.1-1 .8-1.8 1-2.5 1-1.2 0-2.6-.7-2.6-2.8 0-.7.3-2.9 1.6-4.4.8-1 2-1.6 3.3-1.6 1.3 0 2.1 1 2.1 2.5v.7l.2.1.2-.2zm2.3 9.2c0-.9-.3-1.4-.8-1.4s-.7.3-.7.7c0 .4.2.7.7.7.1 0 .3 0 .4-.2h.1v.2c0 1-.4 1.8-.9 2.2l-.1.2.1.2c.2 0 1.2-1 1.2-2.6zM240.5 3.8v-.2c0-.2 0-.3-.2-.3s-.3.2-.3.3l-1.1 3h-4l-1.2-3c0-.2-.1-.3-.3-.3-.1 0-.2.1-.2.3v.2l3.4 8.7c0 .2 0 .3.2.3s.3-.1.3-.3zM235 7.1h3.6l-1.9 4.7zM246.9 9.4c0-2.1-1.3-2.8-2.2-2.8-1.9 0-3.6 2-3.6 3.8 0 1.3.8 2.3 2.1 2.3.9 0 1.8-.3 2.8-1.1.2.7.6 1 1.2 1 .7 0 1.2-.7 1.2-.9l-.2-.1-.2.1c-.2.7-.7.7-.7.7-.4 0-.4-1-.4-1.4l.1-.4a7.7 7.7 0 0 0 1.5-3.2l-.1-.1c-.2 0-.2 0-.2.3-.3.8-.7 1.8-1.3 2.6zm-1 1.8a4.2 4.2 0 0 1-2.6 1.2c-.8 0-1.2-.6-1.2-1.5 0-.6.3-2 .7-2.7.7-1 1.4-1.3 1.8-1.3 1.4 0 1.4 1.8 1.4 2.8v1.5zM260 9.5c.3 0 .5 0 .5-.3s-.2-.3-.4-.3h-5.7c.2-1.7 1.7-3 3.6-3h2c.3 0 .5 0 .5-.3s-.2-.3-.4-.3H258c-2.3 0-4.1 1.8-4.1 3.9a4 4 0 0 0 4 3.9h2.2c.2 0 .4 0 .4-.3s-.2-.3-.4-.3H258c-1.9 0-3.4-1.3-3.6-3zm9-5.2c0-.5.4-1.4 1.8-1.5h.2c0-.2-.1-.2-.3-.2-1.3 0-2.5.6-2.5 1.6v3c0 .6 0 1-.6 1.4-.4.4-1 .4-1.2.5h-.1c0 .2 0 .2.2.2.8 0 1.5.6 1.6 1.2v3.3c0 .6 0 1 .7 1.5.5.4 1.4.5 2 .5l.2-.1-.2-.1c-.9-.1-1.5-.5-1.7-1.2V11c0-.6-.1-.9-.6-1.3-.2-.3-.6-.4-1-.5 1-.3 1.6-1 1.6-1.7zM278 8.3c0-1 0-2.2-.5-3.1a2.4 2.4 0 0 0-2.2-1.5c-.8 0-1.8.3-2.3 1.6a7 7 0 0 0-.5 3c0 1 0 2.2.6 3.2s1.5 1.3 2.2 1.3c.7 0 1.7-.3 2.3-1.5.4-1 .5-2 .5-3zm-2.7 4.2c-.5 0-1.3-.3-1.6-1.6l-.1-2.8.1-2.4c.2-1.6 1.2-1.7 1.6-1.7.4 0 1.3.2 1.5 1.5.2.8.2 1.8.2 2.6 0 1 0 1.9-.2 2.8-.2 1.2-1 1.6-1.5 1.6zM281.3 12.5c0-.9-.3-1.4-.9-1.4-.4 0-.7.3-.7.7 0 .4.3.7.7.7.2 0 .4 0 .5-.2l.1.2c0 1-.5 1.8-.9 2.2l-.1.2v.2c.2 0 1.3-1 1.3-2.6zM288.4 4c0-.3 0-.3-.3-.3-.8.8-2 .8-2.4.8V5c.3 0 1 0 1.7-.3v6.9c0 .4 0 .6-1.2.6h-.4v.4H290v-.4h-.5c-1.2 0-1.2-.1-1.2-.6zM293.9 12.5c0-.9-.4-1.4-1-1.4-.3 0-.6.3-.6.7 0 .4.3.7.7.7.1 0 .3 0 .5-.2v.2c0 1-.4 1.8-.9 2.2v.4c.2 0 1.3-1 1.3-2.6zM298.7 11.5l1.4-1.4c2.1-1.8 3-2.5 3-3.8 0-1.6-1.3-2.6-2.9-2.6a2.4 2.4 0 0 0-2.5 2.4c0 .7.7.7.7.7.2 0 .7-.1.7-.7 0-.3-.2-.7-.7-.7h-.2a2 2 0 0 1 1.8-1.3c1.2 0 1.8 1 1.8 2.2 0 1-.7 2-1.4 2.9L298 12c-.2.2-.2.2-.2.5h5l.3-2.3h-.3l-.3 1.2-1.3.1zM306.4 12.5c0-.9-.3-1.4-.9-1.4-.4 0-.7.3-.7.7 0 .4.3.7.7.7.2 0 .4 0 .5-.2l.1.2c0 1-.5 1.8-.9 2.2l-.1.2v.2c.2 0 1.3-1 1.3-2.6zM313.5 7.8c1-.3 1.8-1.2 1.8-2.3 0-1-1.2-1.8-2.4-1.8-1.4 0-2.4.8-2.4 1.8 0 .4.3.7.7.7.4 0 .7-.3.7-.7 0-.7-.7-.7-.8-.7.4-.6 1.2-.8 1.7-.8.6 0 1.3.3 1.3 1.5 0 .2 0 1-.4 1.5-.4.6-.8.7-1.2.7h-.5s-.2 0-.2.2.1.2.3.2h.6c1.1 0 1.6.8 1.6 2.2 0 1.8-1 2.1-1.5 2.1-.6 0-1.6-.2-2-1 .4.1.8-.2.8-.7 0-.5-.3-.7-.7-.7-.3 0-.7.1-.7.7 0 1.2 1.2 2.1 2.6 2.1 1.7 0 2.9-1.2 2.9-2.5 0-1.1-.9-2.2-2.2-2.5zM319 12.5c0-.9-.4-1.4-1-1.4-.4 0-.6.3-.6.7 0 .4.2.7.7.7.1 0 .3 0 .5-.2v.2c0 1-.4 1.8-.9 2.2l-.1.2.1.2c.2 0 1.2-1 1.2-2.6zM326 10.3v1.2c0 .5 0 .6-1 .6h-.2v.4h3.6v-.4h-.3c-1 0-1-.1-1-.6v-1.2h1.3V10H327V4c0-.3 0-.4-.2-.4s-.2 0-.3.2l-4 6.2v.4zm.1-.4H323l3.2-5zM331.7 14c0 .6-.4 1.5-1.8 1.6h-.2c0 .2.2.2.3.2 1.3 0 2.5-.6 2.6-1.6v-3c0-.6 0-1 .5-1.4.4-.4 1-.4 1.2-.5l.2-.1-.3-.1c-.8-.1-1.5-.6-1.6-1.2V4.6c0-.6 0-1-.7-1.5-.5-.4-1.4-.5-1.9-.5l-.3.1.3.1c.8.1 1.4.5 1.6 1.2v3.4c0 .6.2.9.6 1.3.3.3.6.4 1 .5-1 .3-1.5 1-1.5 1.7zM338.1 12.5c0-.9-.3-1.4-.8-1.4s-.7.3-.7.7c0 .4.2.7.7.7.1 0 .3 0 .4-.2h.1v.2c0 1-.4 1.8-.9 2.2l-.1.2.1.2c.2 0 1.2-1 1.2-2.6zM348.6 3.8l.1-.2c0-.2 0-.3-.2-.3s-.3.2-.4.3l-1 3H343l-1-3c-.2-.2-.2-.3-.4-.3-.1 0-.3.1-.3.3l.1.2 3.3 8.7c0 .2.1.3.3.3.2 0 .3-.1.3-.3zm-5.4 3.3h3.6l-1.8 4.7zM355.2 7.5v-.3c0-.3-.2-.4-.4-.4-.1 0-.3 0-.4.3l-.2.7-.3 1-.6 2.4c0 .2-.6 1.2-1.5 1.2-.7 0-.8-.6-.8-1.1 0-.6.2-1.4.7-2.6l.2-1c0-.6-.4-1-1-1-1.3 0-1.8 1.9-1.8 2l.2.1.2-.2c.3-1.3.9-1.7 1.3-1.7.1 0 .3 0 .3.5 0 .3 0 .7-.2.9a8.7 8.7 0 0 0-.8 2.8c0 1.2.9 1.6 1.7 1.6.5 0 1-.3 1.3-.6-.2.7-.3 1.3-.9 2-.3.5-.8.9-1.4.9-.2 0-.8 0-1-.6.2 0 .4 0 .6-.2l.2-.5c0-.4-.3-.5-.5-.5-.3 0-.7.2-.7.9s.6 1.1 1.4 1.1c1.3 0 2.7-1.2 3.1-2.7zM366.7 9.5c.2 0 .4 0 .4-.3s-.2-.3-.4-.3H361c.2-1.7 1.7-3 3.6-3h2c.3 0 .5 0 .5-.3s-.2-.3-.4-.3h-2.1c-2.3 0-4.1 1.8-4.1 3.9a4 4 0 0 0 4 3.9h2.2c.2 0 .4 0 .4-.3s-.2-.3-.4-.3h-2.1c-1.9 0-3.4-1.3-3.6-3zM379.9 5l.1-.2c.5-.4.9-.9 1.8-1 .1 0 .3 0 .3-.2l-.2-.2H379.5c-.1 0-.3 0-.3.3l.2.2c.1 0 .5 0 .5.3 0 .2-.3.5-.4.6l-3 3.5-1.5-3.9v-.2c0-.3.6-.3.7-.3.2 0 .3 0 .3-.3 0-.2-.1-.2-.2-.2H372.7c-.1 0-.3 0-.3.3 0 .2.1.2.3.2.8 0 .9 0 1 .4l1.6 4.4v.2l-.5 2.4c-.2.8-.2.8-1.3.8-.2 0-.3 0-.3.3l.1.1h3.4c.1 0 .3 0 .3-.2s-.1-.2-.4-.2h-.5c-.3 0-.4 0-.4-.2l.2-.9.5-1.8c0-.3 0-.3.2-.4zM386.4 1.3l.3-.3h.6c.9 0 2 0 2 1 0 .4-.2 1-.7 1.3-.3.3-1 .4-1.6.4H386zm1.7 2.6c1.1-.3 2.1-1 2.1-1.8s-1-1.4-2.3-1.4h-2.8c-.2 0-.3 0-.3.2l.3.1h.3c.2 0 .2 0 .2.2v.2l-1.2 5c-.1.2-.1.3-.9.3-.1 0-.2 0-.2.2l.1.1h2.4s.2 0 .2-.2h-.3l-.3-.1c-.3 0-.3 0-.3-.2v-.2l.7-2.3h1.2c.8 0 1.2.4 1.2.8l-.1.7-.2.7c0 .7.7 1 1.4 1 .8 0 1.2-.9 1.2-1 0 0 0-.2-.2-.2l-.1.2c-.2.4-.5.8-.9.8-.2 0-.4-.1-.4-.6v-1l.1-.4c0-.2 0-.4-.2-.7l-.7-.4zm0 0"/></g></svg>