<svg xmlns="http://www.w3.org/2000/svg" width="498" height="21.6"><g transform="translate(-201 -111.1)">X
position
(m,i,α
1
)
−X
position
(n,j,α
2
)



+



Y
position
(m,i,α
1
)
−Y
position
(n,j,α
2
)



.
v
AGV
,∀(m,i),(n,j)∈C,∀α
1
,α
2
∈{0,1,2,3,4}&quot;
       transform=&quot;matrix(1.3333333,0,0,1.3333333,195.372,125.224)&quot;&gt;<path d="M202.9 120.6h.9c.2 0 .3 0 .3-.2H203l.5-1.8-.3-.2s-.3 0-.4.3l-.4 1.6h-1c-.2 0-.3 0-.3.2l.3.1h.9l-.8 3.2c0 .5.4 1 1 1 1 0 1.5-1.5 1.5-1.6v-.1l-.2.1c-.5 1-1 1.3-1.3 1.3-.2 0-.3-.1-.3-.5v-.4zM210 120.5v-.2h-.2c-.4 0-.5-.1-.6-.3l-1.7-4.3c0-.1 0-.2-.2-.2l-.1.2-1.7 4c0 .2-.2.6-.8.6v.2h1.6v-.2c-.3 0-.5-.2-.5-.4v-.1l.3-.9h2l.4 1v.2c0 .2-.3.2-.5.2v.2h2zm-2-1.8h-1.8l1-2.3zm7.8.1v-.2h-2.2v.2h.3c.7 0 .7.1.7.3v.5c0 .1 0 .4-.4.6-.3.2-.7.2-.8.2-.8 0-2.1-.5-2.1-2.3 0-1.8 1.3-2.3 2-2.3s1.5.5 1.7 1.7h.1l.2-.1v-1.6l-.1-.2h-.1l-.4.6a2 2 0 0 0-1.5-.6c-1.4 0-2.6 1.1-2.6 2.5s1.1 2.5 2.6 2.5c.4 0 1.2 0 1.5-.5l.5.4v-1.4c0-.3.1-.3.6-.3zm6.1-2.8v-.3h-1.5v.3c.2 0 .5.1.5.3v.2l-1.5 3.3-1.5-3.5v-.1c0-.2.3-.2.5-.2v-.3h-2v.3h.2c.4 0 .5 0 .6.2l1.8 4.3.2.1.2-.1 1.7-4c0-.3.3-.5.8-.5zM206.9 122.2a4.2 4.2 0 0 0-1.7 3.5c0 1 .3 2.5 1.7 3.5h.1v-.2c-1-.8-1.3-2-1.3-3.3 0-1.9.7-2.8 1.3-3.3l-.1-.2zM210.5 126.9v.4c0 .2 0 .2.2.2l.3-.1v-.5l.2-.6.2-.4c0-.3 0-.4.2-.6.2-.3.5-.7 1-.7s.5.3.5.5c0 .4-.3 1.2-.4 1.5l-.1.3c0 .4.3.6.6.6.7 0 1-1 1-1v-.1h-.2c-.1.7-.5 1-.7 1-.2 0-.2-.2-.2-.3l.2-.6.3-1.3c0-.1 0-.4-.2-.6a1 1 0 0 0-.7-.2c-.6 0-1 .4-1.2.7 0-.6-.6-.7-1-.7-.5 0-.9.3-1.1.6 0-.5-.5-.6-.8-.6-.2 0-.4.2-.5.4-.2.2-.2.6-.2.7.2 0 .2 0 .2-.2.1-.4.3-.7.5-.7s.3.1.3.3l-.1.6-.2.6-.2 1v.2l.1.2.3-.1.1-.5.2-.6.1-.4c0-.3.1-.4.3-.7.2-.3.5-.6 1-.6s.5.3.5.5l-.2.6zm5.6.4c0 .4-.1.9-.6 1.3v.2c.2 0 .8-.6.8-1.4 0-.4-.2-.7-.5-.7s-.4.1-.4.4c0 .2.1.4.4.4l.3-.2zm3.1-4.2c0-.1 0-.3-.3-.3-.2 0-.4.2-.4.4 0 .1.1.3.3.3.2 0 .4-.2.4-.4zm-1.4 3.5v.3c0 .4.2.6.6.6.7 0 1-1 1-1l-.1-.1h-.2c-.1.7-.4 1-.7 1l-.2-.3.1-.5.3-.5.3-.9v-.2c0-.4-.2-.6-.6-.6-.7 0-1 1-1 1l.1.1h.1c.2-.7.5-1 .8-1l.1.3-.2.7zm3.4.7c0 .4 0 .9-.5 1.3v.2c.1 0 .7-.6.7-1.4 0-.4-.1-.7-.4-.7-.3 0-.4.1-.4.4 0 .2.1.4.4.4l.2-.2zm4.7-.8c.7-.7 1-1.6 1-1.7H226.5c-.1.6-.4 1-.7 1.4v-.7c-.1-.7-.6-1.1-1.3-1.1-1 0-2 1-2 2 0 .6.4 1.1 1.2 1.1.7 0 1.3-.3 1.7-.6.1.5.5.6.7.6.4 0 .6-.3.6-.5h-.2c-.1.3-.3.3-.4.3 0 0-.2 0-.3-.8zm-.5.2c-.7.6-1.3.6-1.5.6-.5 0-.8-.3-.8-.7 0-.2.1-1 .5-1.5.3-.4.7-.5 1-.5.5 0 .7.5.7 1l.1 1.1zM229.3 125.3c0-.2 0-.2-.2-.2-.3.4-.9.4-1 .4v.2c.1 0 .5 0 .7-.2v2.5c0 .2 0 .2-.5.2h-.2v.3h2v-.3h-.3c-.5 0-.5 0-.5-.2zM231.8 122.2l-.1.1v.1c.7.6 1.3 1.5 1.3 3.3 0 1.5-.4 2.6-1.2 3.2l-.1.2h.1s.7-.4 1.2-1.2c.3-.6.5-1.4.5-2.2 0-1-.3-2.5-1.7-3.5zm5 0a4.2 4.2 0 0 0-1.7 3.5c0 1 .3 2.5 1.7 3.5h.1v-.2c-1-.8-1.3-2-1.3-3.3 0-1.9.7-2.8 1.3-3.3l-.1-.2zM238.3 127v.3c0 .2 0 .2.2.2l.2-.1.2-.5.1-.6.1-.4.3-.7c.2-.3.5-.6 1-.6s.5.3.5.5c0 .4-.3 1.2-.4 1.5l-.1.3c0 .4.3.6.6.6.7 0 1-1 1-1v-.1h-.2c-.2.7-.5 1-.8 1l-.1-.3.1-.6.4-1.3c0-.7-.5-.8-.9-.8-.6 0-1 .3-1.2.6 0-.5-.4-.6-.7-.6-.3 0-.5.2-.6.4l-.2.7c.2 0 .2 0 .2-.2.1-.4.3-.7.6-.7.1 0 .2.1.2.3l-.1.6-.2.6zm5.5.3c0 .4 0 .9-.5 1.3v.2c.1 0 .7-.6.7-1.4 0-.4-.1-.7-.5-.7-.2 0-.4.1-.4.4 0 .2.2.4.4.4s.3-.2.3-.2zm4-4.2c0-.1-.1-.3-.3-.3-.2 0-.4.2-.4.4 0 .1.1.3.3.3.2 0 .4-.2.4-.4zm-1.5 4.7c-.1.5-.5.9-.9.9h-.2l.2-.4c0-.2-.1-.3-.3-.3-.2 0-.4.2-.4.4 0 .3.3.5.7.5.4 0 1.2-.3 1.5-1.1l.6-2.5v-.3c0-.3-.3-.6-.7-.6-.8 0-1.2 1-1.2 1v.1h.2c.2-.5.6-1 1-1l.2.4v.2zm3.2-.5c0 .4-.1.9-.6 1.3v.2c.2 0 .8-.6.8-1.4 0-.4-.2-.7-.5-.7s-.4.1-.4.4c0 .2.1.4.4.4l.3-.2zm4.7-.8c.6-.7.9-1.6.9-1.7H254.8c-.1.6-.3 1-.6 1.4v-.7c-.2-.7-.7-1.1-1.4-1.1-1 0-2 1-2 2 0 .6.5 1.1 1.3 1.1.6 0 1.2-.3 1.6-.6.1.5.5.6.7.6.4 0 .7-.3.7-.5h-.2c-.2.3-.4.3-.5.3 0 0-.2 0-.2-.8zm-.6.2c-.6.6-1.2.6-1.5.6-.5 0-.7-.3-.7-.7 0-.2 0-1 .4-1.5.4-.4.8-.5 1-.5.6 0 .7.5.8 1v1.1zM258.5 127.5h-.2l-.2.5h-1.5l1-.7c.5-.4.9-.6.9-1.2s-.6-1-1.3-1c-.7 0-1.2.4-1.2 1 0 .2.2.2.3.2.1 0 .3 0 .3-.3 0-.2-.2-.3-.3-.3.1-.2.4-.3.8-.3s.8.2.8.7c0 .5-.2.8-.6 1l-1.2 1.1-.1.1v.2h2.3zM260 122.2v.2c.6.6 1.3 1.5 1.3 3.3 0 1.5-.5 2.6-1.2 3.2l-.2.2h.1c.1 0 .8-.4 1.2-1.2.3-.6.5-1.4.5-2.2 0-1-.3-2.5-1.6-3.5zM272.7 121.4c.1 0 .3 0 .3-.2s-.2-.2-.3-.2h-6c-.1 0-.3 0-.3.2s.2.2.3.2zm0 1.9c.1 0 .3 0 .3-.2s-.2-.2-.3-.2h-6c-.1 0-.3 0-.3.2s.2.2.3.2zM283.7 119c0 .1 0 .3.2.3.3 0 .3-.2.3-.3v-5.7c0-.1 0-.4-.3-.4-.2 0-.2.2-.2.4zm0 6c0 .1 0 .3.2.3.3 0 .3-.2.3-.4v-5.6c0-.2 0-.4-.3-.4-.2 0-.2.2-.2.4zm0 6s0 .3.2.3c.3 0 .3-.2.3-.4v-5.6c0-.2 0-.4-.3-.4-.2 0-.2.2-.2.4zM290.4 120.5l-.8-2v-.1s.1-.2.5-.3c.1 0 .2 0 .2-.2l-.1-.1h-2.3c-.1 0-.3 0-.3.2l.3.1c.6 0 .6.1.7.3l1.2 2.8-2.1 2.3h-.1a2 2 0 0 1-1.5.8c-.1 0-.2 0-.2.2l.1.1h2c.1 0 .2 0 .2-.2-.2-.1-.5-.1-.5-.4 0-.2.2-.3.3-.5l1-1 .9-1 1 2.4v.1s-.1.3-.5.3c-.1 0-.2 0-.2.2l.1.1h2.3c.1 0 .3 0 .3-.2h-.2c-.7-.1-.7-.1-.9-.5l-1.3-3.1 2.1-2.2a2 2 0 0 1 1.3-.5s.2 0 .2-.2l-.2-.1H292c-.2 0-.3 0-.3.2l.1.1c.1 0 .4 0 .4.3 0 .2 0 .3-.2.4zM298.7 118.3c0-.8-.7-1.5-1.6-1.5-.4 0-.8.1-1 .4v-.4H295v.3c.5 0 .5 0 .5.3v3.2c0 .3 0 .3-.5.3v.3h1.6v-.3c-.5 0-.5 0-.5-.3v-1.1s.3.4.9.4c1 0 1.7-.7 1.7-1.6zm-.6 0c0 .8-.5 1.4-1.1 1.4-.7 0-1-.5-1-.6v-1.6c.3-.3.7-.5 1-.5.6 0 1 .6 1 1.3zm4.8 0c0-.8-.7-1.6-1.7-1.6s-1.7.8-1.7 1.6c0 .9.8 1.6 1.7 1.6 1 0 1.7-.7 1.7-1.6zm-.6 0c0 .3 0 .7-.2 1a1 1 0 0 1-.9.4 1 1 0 0 1-.8-.4c-.2-.3-.3-.7-.3-1 0-.3 0-.7.3-1 .2-.2.5-.4.8-.4.4 0 .7.2.9.4.2.3.2.6.2 1zm3.7.6c0-.3 0-.5-.2-.6-.3-.3-.6-.3-.9-.4-.5 0-1-.1-1-.5 0-.2.2-.5.9-.5.8 0 .8.5.8.7l.1.1c.2 0 .2 0 .2-.2v-.6l-.1-.2-.2.1-.1.1-.7-.2c-1 0-1.3.5-1.3.9 0 .2.1.4.3.5.3.3.5.3 1 .4.3 0 .9.1.9.6 0 .3-.2.6-.9.6s-1-.4-1-1h-.2v1.2l.4-.3c.3.3.6.3.8.3 1 0 1.2-.5 1.2-1zm2.3 1v-.3c-.4 0-.5 0-.5-.3v-2.5h-1v.3c.4 0 .5 0 .5.4v1.8c0 .3 0 .3-.5.3v.2h1.5zm-.4-4.3c0-.2-.2-.4-.4-.4s-.4.2-.4.4.2.4.4.4.4-.2.4-.4zm3.3 3.3v-.3h-.2v.3c0 .5-.2.8-.5.8-.5 0-.5-.6-.5-.7v-2h1.1v-.2h-1v-1.3h-.3c0 .7-.3 1.4-1 1.4v.2h.7v1.9c0 .7.6.9 1 .9s.7-.4.7-1zm2.4 1v-.3c-.4 0-.4 0-.4-.3v-2.5h-1v.3c.4 0 .5 0 .5.4v1.8c0 .3-.1.3-.6.3v.2h1.5zm-.3-4.3c0-.2-.2-.4-.4-.4-.3 0-.4.2-.4.4s.1.4.4.4c.2 0 .4-.2.4-.4zm4.4 2.7c0-.8-.8-1.6-1.7-1.6-1 0-1.7.8-1.7 1.6 0 .9.7 1.6 1.7 1.6s1.7-.7 1.7-1.6zm-.7 0c0 .3 0 .7-.2 1a1 1 0 0 1-.8.4 1 1 0 0 1-.9-.4c-.2-.3-.2-.7-.2-1 0-.3 0-.7.2-1 .2-.2.5-.4.9-.4s.7.2.8.4c.2.3.2.6.2 1zm5 1.5v-.2c-.4 0-.5 0-.5-.3v-1.6c0-.6-.3-1-1-1-.6 0-1 .4-1.1.7v-.6h-1v.3c.4 0 .5 0 .5.4v1.8c0 .3-.1.3-.6.3v.2h1.6v-.2c-.4 0-.5 0-.5-.3V118c0-.7.6-1 1-1 .5 0 .6.3.6.7v1.6c0 .3 0 .3-.5.3v.2h1.6zM296.3 122.8a4.2 4.2 0 0 0-1.6 3.5c0 1 .2 2.5 1.6 3.4h.2l-.1-.2c-1-.8-1.3-2-1.3-3.2 0-2 .7-2.8 1.3-3.4v-.1zM300 127.4l-.1.5.2.2c.2 0 .3-.1.3-.2l.1-.4.2-.6.1-.5c0-.3 0-.3.2-.5.2-.4.6-.8 1.1-.8.4 0 .4.3.4.5 0 .4-.3 1.2-.4 1.5v.4c0 .3.2.6.6.6.7 0 1-1 1-1l-.1-.2-.2.1c-.1.6-.4.9-.7.9-.1 0-.2-.1-.2-.3l.2-.5c0-.2.4-1 .4-1.4 0 0 0-.4-.3-.6a1 1 0 0 0-.6-.2c-.7 0-1 .4-1.3.7 0-.6-.5-.7-.9-.7-.6 0-1 .4-1.2.7 0-.5-.4-.7-.7-.7-.3 0-.5.2-.6.4l-.2.7h.1l.2-.1c0-.4.2-.8.5-.8.2 0 .2.2.2.4l-.1.5-.2.7-.2.9v.3c0 .1 0 .2.2.2l.3-.2v-.4l.2-.6.2-.5c0-.3 0-.4.2-.6.2-.3.6-.7 1-.7.5 0 .5.4.5.5l-.1.7zm5.5.5c0 .4 0 .8-.5 1.3v.2c.1 0 .7-.6.7-1.4 0-.5-.2-.8-.5-.8-.2 0-.4.2-.4.4s.2.4.4.4l.3-.1zm3.2-4.3s-.1-.2-.3-.2c-.2 0-.4.2-.4.4 0 0 0 .2.3.2.2 0 .4-.2.4-.4zm-1.5 3.6v.3c0 .3.3.6.6.6.7 0 1-1 1-1v-.2l-.2.1c-.2.6-.5.9-.8.9l-.1-.3v-.4l.3-.6.4-.9v-.2c0-.3-.3-.6-.7-.6-.7 0-1 1-1 1.1H307c.1-.6.5-.9.7-.9.1 0 .2 0 .2.3l-.2.7zm3.5.7c0 .4 0 .8-.6 1.3v.2c.2 0 .8-.6.8-1.4 0-.5-.2-.8-.5-.8-.2 0-.4.2-.4.4s.2.4.4.4l.3-.1zm4.7-.9c.6-.6.9-1.6.9-1.6l-.1-.1-.2.1c-.1.5-.3 1-.6 1.3v-.6c-.2-.7-.7-1.2-1.4-1.2-1 0-2 1-2 2 0 .6.5 1.2 1.3 1.2.6 0 1.2-.3 1.6-.6.2.5.5.6.7.6.4 0 .7-.4.7-.5l-.1-.1h-.2c0 .3-.3.4-.4.4 0 0-.2 0-.2-.9zm-.6.3c-.6.5-1.2.6-1.5.6-.5 0-.7-.3-.7-.8 0-.2 0-1 .5-1.4.3-.5.7-.6 1-.6.5 0 .6.6.7 1v1.2zM318.7 125.8l-.1-.1c-.4.3-1 .3-1 .3h-.1v.2l.8-.1v2.5c0 .1 0 .2-.5.2h-.3v.2h2v-.2h-.2c-.6 0-.6 0-.6-.2zM321.3 122.8h-.2l.1.2c.6.5 1.3 1.5 1.3 3.3 0 1.4-.5 2.5-1.2 3.2l-.2.2h.1c.1 0 .8-.4 1.2-1.3.4-.6.6-1.3.6-2.1 0-1-.3-2.6-1.7-3.5zM333 122.3c.2 0 .4 0 .4-.2s-.2-.2-.4-.2h-5.3c-.2 0-.4 0-.4.2s.2.2.4.2zM341.3 120.5l-.9-2v-.1l.6-.3s.2 0 .2-.2l-.2-.1h-2.3c-.1 0-.2 0-.2.2l.2.1c.6 0 .7.1.8.3l1.1 2.8-2 2.3h-.2a2 2 0 0 1-1.5.8s-.2 0-.2.2l.1.1h2c.2 0 .3 0 .3-.2h-.1c-.1-.1-.4-.1-.4-.4l.2-.5 1-1 1-1 1 2.4v.1s-.2.3-.6.3c0 0-.2 0-.2.2l.2.1h2.3s.2 0 .2-.2h-.2c-.6-.1-.6-.1-.8-.5l-1.3-3.1 2-2.2a2 2 0 0 1 1.3-.5c.1 0 .2 0 .2-.2l-.1-.1h-2c-.1 0-.2 0-.2.2v.1c.2 0 .5 0 .5.3l-.2.4zM349.5 118.3c0-.8-.7-1.5-1.5-1.5-.4 0-.8.1-1.1.4v-.4h-1v.3c.4 0 .4 0 .4.3v3.2c0 .3 0 .3-.5.3v.3h1.6v-.3c-.4 0-.5 0-.5-.3v-1.1s.4.4 1 .4c.9 0 1.6-.7 1.6-1.6zm-.6 0c0 .8-.5 1.4-1.1 1.4-.6 0-.9-.5-.9-.6v-1.6c.2-.3.6-.5 1-.5.6 0 1 .6 1 1.3zm4.9 0c0-.8-.8-1.6-1.7-1.6-1 0-1.7.8-1.7 1.6 0 .9.7 1.6 1.7 1.6s1.7-.7 1.7-1.6zm-.7 0c0 .3 0 .7-.2 1a1 1 0 0 1-.8.4 1 1 0 0 1-.9-.4c-.2-.3-.2-.7-.2-1 0-.3 0-.7.2-1 .2-.2.5-.4.9-.4s.7.2.8.4c.2.3.2.6.2 1zm3.8.6c0-.3-.1-.5-.3-.6-.3-.3-.6-.3-.8-.4-.6 0-1-.1-1-.5 0-.2.1-.5.8-.5.8 0 .8.5.9.7v.1c.2 0 .2 0 .2-.2v-.6l-.1-.2-.1.1-.2.1-.7-.2c-1 0-1.2.5-1.2.9 0 .2 0 .4.2.5.3.3.6.3 1 .4.3 0 .9.1.9.6 0 .3-.2.6-.9.6-.6 0-.9-.4-1-1h-.1l-.1.2v1l.4-.3c.3.3.7.3.8.3 1 0 1.3-.5 1.3-1zm2.2 1v-.3c-.4 0-.4 0-.4-.3v-2.5h-1v.3c.4 0 .4 0 .4.4v1.8c0 .3 0 .3-.5.3v.2h1.5zm-.4-4.3c0-.2-.1-.4-.4-.4-.2 0-.4.2-.4.4s.2.4.4.4c.3 0 .4-.2.4-.4zm3.4 3.3v-.3h-.3v.3c0 .5-.2.8-.4.8-.5 0-.5-.6-.5-.7v-2h1v-.2h-1v-1.3h-.3c0 .7-.3 1.4-1 1.4v.2h.7v1.9c0 .7.6.9 1 .9.5 0 .8-.4.8-1zm2.4 1v-.3c-.4 0-.5 0-.5-.3v-2.5h-1v.3c.4 0 .5 0 .5.4v1.8c0 .3 0 .3-.5.3v.2h1.5zm-.4-4.3c0-.2-.2-.4-.4-.4s-.4.2-.4.4.2.4.4.4.4-.2.4-.4zm4.4 2.7c0-.8-.7-1.6-1.7-1.6s-1.7.8-1.7 1.6c0 .9.8 1.6 1.7 1.6 1 0 1.7-.7 1.7-1.6zm-.6 0c0 .3 0 .7-.2 1a1 1 0 0 1-.9.4 1 1 0 0 1-.9-.4l-.2-1c0-.3 0-.7.3-1 .2-.2.5-.4.8-.4.4 0 .7.2.9.4.2.3.2.6.2 1zm5 1.5v-.2c-.4 0-.5 0-.5-.3v-1.6c0-.6-.3-1-1-1-.6 0-1 .4-1.2.7v-.6h-1v.3c.4 0 .5 0 .5.4v1.8c0 .3 0 .3-.5.3v.2h1.6v-.2c-.5 0-.5 0-.5-.3V118c0-.7.5-1 1-1s.5.3.5.7v1.6c0 .3 0 .3-.5.3v.2h1.6zM347.2 122.8a4.2 4.2 0 0 0-1.7 3.5c0 1 .3 2.5 1.7 3.4h.1v-.2c-1-.8-1.3-2-1.3-3.2 0-2 .7-2.8 1.3-3.4l-.1-.1zM348.7 127.6l-.1.3.2.2c.2 0 .3-.1.3-.2l.1-.4.2-.6.1-.5c0-.3 0-.4.3-.6.2-.3.5-.7 1-.7.4 0 .4.4.4.5 0 .4-.2 1.2-.4 1.5v.4c0 .3.2.6.6.6.7 0 1-1 1-1l-.1-.2-.1.1c-.2.6-.5.9-.8.9-.1 0-.2-.1-.2-.3l.2-.5c0-.2.4-1 .4-1.4 0-.7-.6-.8-1-.8-.5 0-.9.4-1.1.7 0-.5-.5-.7-.8-.7-.3 0-.4.2-.5.4l-.3.7h.2l.1-.1c.1-.4.2-.8.5-.8.2 0 .2.2.2.4v.5l-.2.7zm5.5.3c0 .4 0 .8-.5 1.3v.2c.1 0 .7-.6.7-1.4 0-.5-.2-.8-.5-.8-.2 0-.4.2-.4.4s.2.4.4.4l.3-.1zm4-4.3s-.1-.2-.3-.2c-.2 0-.4.2-.4.4 0 0 0 .2.3.2.2 0 .4-.2.4-.4zm-1.5 4.7c-.1.5-.5 1-1 1l-.2-.1c.2-.1.3-.3.3-.4l-.3-.2c-.2 0-.4.2-.4.4 0 .3.3.4.7.4.4 0 1.2-.2 1.4-1l.7-2.6v-.2c0-.4-.3-.7-.7-.7-.8 0-1.3 1-1.3 1.1h.2c.3-.4.6-.9 1-.9.2 0 .3.1.3.4v.2zm3.1-.4c0 .4 0 .8-.5 1.3v.2c.1 0 .7-.6.7-1.4 0-.5-.1-.8-.4-.8-.3 0-.4.2-.4.4s.1.4.4.4l.2-.1zm4.7-.9c.7-.6 1-1.6 1-1.6l-.2-.1-.1.1c-.1.5-.4 1-.7 1.3v-.6c-.1-.7-.6-1.2-1.3-1.2-1 0-2 1-2 2 0 .6.4 1.2 1.2 1.2.7 0 1.3-.3 1.6-.6.2.5.6.6.8.6.4 0 .6-.4.6-.5v-.1h-.2c-.1.3-.3.4-.4.4 0 0-.2 0-.3-.9zm-.5.3c-.7.5-1.3.6-1.5.6-.5 0-.8-.3-.8-.8 0-.2.1-1 .5-1.4.3-.5.7-.6 1-.6.5 0 .7.6.7 1l.1 1.2zM368.8 128h-.2l-.1.5H367l1-.7c.4-.3.8-.6.8-1.1 0-.7-.6-1-1.3-1-.6 0-1.1.4-1.1.9 0 .2.2.3.3.3.1 0 .2-.1.2-.3 0-.2 0-.3-.2-.3.1-.3.4-.4.7-.4.5 0 1 .3 1 .8 0 .4-.4.7-.8 1l-1.2 1V129h2.3zM370.4 122.8h-.1v.2c.7.5 1.3 1.5 1.3 3.3 0 1.4-.4 2.5-1.2 3.2l-.1.2c.2 0 .8-.4 1.3-1.3.3-.6.5-1.3.5-2.1 0-1-.3-2.6-1.7-3.5zM375.1 119c0 .1 0 .3.3.3.2 0 .2-.2.2-.3v-5.7c0-.1 0-.4-.2-.4-.3 0-.3.2-.3.4zm0 6c0 .1 0 .3.3.3.2 0 .2-.2.2-.4v-5.6c0-.2 0-.4-.2-.4-.3 0-.3.2-.3.4zm0 6s0 .3.3.3c.2 0 .2-.2.2-.4v-5.6c0-.2 0-.4-.2-.4-.3 0-.3.2-.3.4zM383.3 122.3h2.8c.1 0 .3 0 .3-.2s-.2-.2-.3-.2h-2.8v-2.8c0-.1 0-.3-.2-.3s-.2.2-.2.3v2.8h-2.8c-.1 0-.3 0-.3.2s.2.2.3.2h2.8v2.8c0 .1 0 .3.2.3s.2-.2.2-.3zM390.6 119c0 .1 0 .3.3.3.2 0 .2-.2.2-.3v-5.7c0-.1 0-.4-.2-.4-.3 0-.3.2-.3.4zm0 6c0 .1 0 .3.3.3.2 0 .2-.2.2-.4v-5.6c0-.2 0-.4-.2-.4-.3 0-.3.2-.3.4zm0 6s0 .3.3.3c.2 0 .2-.2.2-.4v-5.6c0-.2 0-.4-.2-.4-.3 0-.3.2-.3.4zM398.5 119l.1-.2c.3-.3.6-.6 1.3-.7.1 0 .2 0 .2-.2l-.1-.1h-1.8s-.2 0-.2.2l.1.1c.1 0 .4 0 .4.2s-.2.5-.3.5l-2.3 2.7-1-3-.2-.1c0-.3.5-.3.6-.3.2 0 .3 0 .3-.2l-.2-.1h-2.3c-.1 0-.2 0-.2.2l.2.1c.6 0 .6.1.7.4l1.3 3.2v.2l-.5 1.8c0 .6-.1.6-.9.6-.2 0-.3 0-.3.2l.2.1h2.5s.2 0 .2-.2h-.3l-.4-.1c-.2 0-.2 0-.2-.2l.1-.6.4-1.4.1-.3zM404.6 118.3c0-.8-.7-1.5-1.6-1.5-.4 0-.8.1-1.1.4v-.4h-1v.3c.5 0 .5 0 .5.3v3.2c0 .3 0 .3-.5.3v.3h1.6v-.3c-.5 0-.6 0-.6-.3v-1.1s.4.4 1 .4c.9 0 1.7-.7 1.7-1.6zm-.6 0c0 .8-.6 1.4-1.2 1.4s-.8-.5-.9-.6v-1.6c.2-.3.6-.5 1-.5.6 0 1 .6 1 1.3zm4.8 0c0-.8-.7-1.6-1.7-1.6s-1.7.8-1.7 1.6c0 .9.8 1.6 1.7 1.6 1 0 1.7-.7 1.7-1.6zm-.6 0c0 .3 0 .7-.2 1a1 1 0 0 1-.9.4 1 1 0 0 1-.8-.4c-.2-.3-.3-.7-.3-1 0-.3 0-.7.3-1 .2-.2.5-.4.8-.4.4 0 .7.2.9.4.2.3.2.6.2 1zm3.7.6c0-.3 0-.5-.3-.6-.2-.3-.5-.3-.8-.4-.5 0-1-.1-1-.5 0-.2.2-.5.9-.5.8 0 .8.5.8.7l.1.1c.2 0 .2 0 .2-.2v-.6c0-.1 0-.2-.2-.2v.1l-.2.1-.7-.2c-1 0-1.3.5-1.3.9 0 .2.1.4.3.5.2.3.5.3 1 .4.3 0 .9.1.9.6 0 .3-.2.6-.9.6s-1-.4-1-1h-.2v1.2l.4-.3c.3.3.6.3.8.3 1 0 1.2-.5 1.2-1zm2.3 1v-.3c-.4 0-.5 0-.5-.3v-2.5h-1v.3c.4 0 .5 0 .5.4v1.8c0 .3 0 .3-.5.3v.2h1.5zm-.4-4.3c0-.2-.2-.4-.4-.4s-.4.2-.4.4.2.4.4.4.4-.2.4-.4zm3.3 3.3v-.3h-.2v.3c0 .5-.2.8-.5.8-.5 0-.5-.6-.5-.7v-2h1.1v-.2h-1v-1.3h-.3c0 .7-.3 1.4-1 1.4v.2h.7v1.9c0 .7.6.9 1 .9s.7-.4.7-1zm2.4 1v-.3c-.4 0-.4 0-.4-.3v-2.5h-1v.3c.4 0 .4 0 .4.4v1.8c0 .3 0 .3-.5.3v.2h1.5zm-.3-4.3c0-.2-.2-.4-.4-.4-.3 0-.4.2-.4.4s.1.4.4.4c.2 0 .4-.2.4-.4zm4.4 2.7c0-.8-.8-1.6-1.7-1.6-1 0-1.8.8-1.8 1.6 0 .9.8 1.6 1.8 1.6.9 0 1.7-.7 1.7-1.6zm-.7 0c0 .3 0 .7-.2 1a1 1 0 0 1-.8.4 1 1 0 0 1-1-.4l-.1-1c0-.3 0-.7.2-1 .2-.2.5-.4.9-.4s.7.2.8.4c.2.3.2.6.2 1zm5 1.5v-.2c-.4 0-.5 0-.5-.3v-1.6c0-.6-.3-1-1-1-.6 0-1 .4-1.1.7v-.6h-1v.3c.4 0 .5 0 .5.4v1.8c0 .3-.1.3-.6.3v.2h1.6v-.2c-.4 0-.5 0-.5-.3V118c0-.7.6-1 1-1 .5 0 .6.3.6.7v1.6c0 .3 0 .3-.5.3v.2h1.6zM400.8 122.8a4.2 4.2 0 0 0-1.7 3.5c0 1 .3 2.5 1.7 3.4h.1v-.2c-1-.8-1.3-2-1.3-3.2 0-2 .7-2.8 1.3-3.4l-.1-.1zM404.4 127.4v.5c0 .1 0 .2.2.2l.3-.2v-.4l.2-.6.2-.5c0-.3 0-.3.2-.5.2-.4.5-.8 1-.8s.5.3.5.5c0 .4-.3 1.2-.4 1.5l-.1.4c0 .3.3.6.6.6.7 0 1-1 1-1v-.2l-.2.1c-.2.6-.5.9-.7.9-.2 0-.2-.1-.2-.3l.2-.5.3-1.4s0-.4-.2-.6a1 1 0 0 0-.7-.2c-.6 0-1 .4-1.2.7 0-.6-.6-.7-1-.7-.5 0-.9.4-1.1.7 0-.5-.5-.7-.8-.7-.2 0-.4.2-.5.4l-.3.7h.2l.1-.1c.1-.4.3-.8.5-.8s.3.2.3.4l-.1.5-.2.7-.2.9v.3l.1.2c.2 0 .3-.1.3-.2l.1-.4.2-.6.1-.5c0-.3.1-.4.3-.6.2-.3.5-.7 1-.7s.5.4.5.5l-.2.7zm5.6.5c0 .4-.1.8-.6 1.3v.2c.2 0 .7-.6.7-1.4 0-.5-.1-.8-.4-.8-.3 0-.4.2-.4.4s.1.4.4.4l.3-.1zm3.1-4.3s0-.2-.3-.2c-.2 0-.4.2-.4.4 0 0 .1.2.3.2.2 0 .4-.2.4-.4zm-1.4 3.6v.3c0 .3.2.6.6.6.7 0 1-1 1-1l-.1-.2-.2.1c-.1.6-.4.9-.7.9-.1 0-.2-.1-.2-.3l.1-.4.3-.6.3-.9v-.2c0-.3-.2-.6-.6-.6-.7 0-1 1-1 1.1h.2c.2-.6.5-.9.8-.9l.1.3-.2.7zm3.4.7c0 .4 0 .8-.5 1.3v.2c.1 0 .7-.6.7-1.4 0-.5-.1-.8-.5-.8-.2 0-.3.2-.3.4s.1.4.3.4l.3-.1zm4.7-.9c.7-.6 1-1.6 1-1.6l-.2-.1-.1.1c-.1.5-.4 1-.7 1.3v-.6c-.1-.7-.6-1.2-1.3-1.2-1 0-2 1-2 2 0 .6.4 1.2 1.2 1.2.7 0 1.3-.3 1.6-.6.2.5.6.6.8.6.4 0 .6-.4.6-.5v-.1h-.2c-.1.3-.3.4-.4.4-.1 0-.2 0-.3-.9zm-.5.3c-.7.5-1.3.6-1.5.6-.5 0-.8-.3-.8-.8 0-.2.1-1 .5-1.4.3-.5.7-.6 1-.6.5 0 .7.6.7 1l.1 1.2zM423.2 125.8l-.2-.1c-.3.3-.9.3-1 .3v.2l.7-.1v2.5c0 .1 0 .2-.5.2h-.2v.2h2v-.2h-.3c-.5 0-.5 0-.5-.2zM425.7 122.8h-.1v.2c.7.5 1.3 1.5 1.3 3.3 0 1.4-.4 2.5-1.2 3.2l-.1.2h.1s.7-.4 1.2-1.3c.3-.6.5-1.3.5-2.1 0-1-.3-2.6-1.7-3.5zM437.5 122.3c.2 0 .4 0 .4-.2s-.2-.2-.4-.2h-5.4c-.1 0-.3 0-.3.2s.2.2.3.2zM446.9 119l.1-.2c.3-.3.6-.6 1.3-.7.1 0 .2 0 .2-.2l-.1-.1h-1.8s-.2 0-.2.2l.1.1c.1 0 .4 0 .4.2s-.2.5-.3.5l-2.3 2.7-1-3-.1-.1c0-.3.4-.3.5-.3.2 0 .3 0 .3-.2l-.2-.1h-2.3c-.1 0-.2 0-.2.2l.2.1c.6 0 .6.1.7.4l1.3 3.2v.2l-.5 1.8c0 .6-.1.6-.9.6-.2 0-.3 0-.3.2l.2.1h2.5s.2 0 .2-.2h-.3l-.4-.1c-.2 0-.2 0-.2-.2l.1-.6.4-1.4.1-.3zM453 118.3c0-.8-.7-1.5-1.6-1.5-.4 0-.8.1-1.1.4v-.4h-1v.3c.5 0 .5 0 .5.3v3.2c0 .3 0 .3-.5.3v.3h1.6v-.3c-.5 0-.6 0-.6-.3v-1.1s.4.4 1 .4c.9 0 1.7-.7 1.7-1.6zm-.6 0c0 .8-.6 1.4-1.2 1.4s-.8-.5-.9-.6v-1.6c.3-.3.6-.5 1-.5.6 0 1 .6 1 1.3zm4.8 0c0-.8-.7-1.6-1.7-1.6s-1.7.8-1.7 1.6c0 .9.8 1.6 1.7 1.6 1 0 1.7-.7 1.7-1.6zm-.6 0c0 .3 0 .7-.2 1a1 1 0 0 1-.9.4 1 1 0 0 1-.8-.4c-.2-.3-.3-.7-.3-1 0-.3 0-.7.3-1 .2-.2.5-.4.8-.4.4 0 .7.2.9.4.2.3.2.6.2 1zm3.7.6c0-.3 0-.5-.3-.6-.2-.3-.5-.3-.8-.4-.5 0-1-.1-1-.5 0-.2.2-.5.9-.5.8 0 .8.5.8.7l.1.1c.2 0 .2 0 .2-.2v-.6c0-.1 0-.2-.2-.2v.1l-.2.1-.7-.2c-1 0-1.3.5-1.3.9 0 .2.1.4.3.5.2.3.5.3 1 .4.3 0 .9.1.9.6 0 .3-.2.6-.9.6s-1-.4-1-1h-.2v1.2l.4-.3c.3.3.6.3.8.3 1 0 1.2-.5 1.2-1zm2.3 1v-.3c-.4 0-.5 0-.5-.3v-2.5h-1v.3c.4 0 .5 0 .5.4v1.8c0 .3 0 .3-.5.3v.2h1.5zm-.4-4.3c0-.2-.2-.4-.4-.4s-.4.2-.4.4.2.4.4.4.4-.2.4-.4zm3.3 3.3v-.3h-.2v.3c0 .5-.2.8-.5.8-.5 0-.5-.6-.5-.7v-2h1.1v-.2h-1v-1.3h-.3c0 .7-.3 1.4-1 1.4v.2h.7v1.9c0 .7.6.9 1 .9s.7-.4.7-1zm2.4 1v-.3c-.4 0-.4 0-.4-.3v-2.5h-1v.3c.4 0 .4 0 .4.4v1.8c0 .3 0 .3-.5.3v.2h1.5zm-.3-4.3c0-.2-.2-.4-.4-.4-.3 0-.4.2-.4.4s.1.4.4.4c.2 0 .4-.2.4-.4zm4.4 2.7c0-.8-.8-1.6-1.7-1.6-1 0-1.7.8-1.7 1.6 0 .9.7 1.6 1.7 1.6.9 0 1.7-.7 1.7-1.6zm-.7 0c0 .3 0 .7-.2 1a1 1 0 0 1-.8.4 1 1 0 0 1-1-.4l-.1-1c0-.3 0-.7.2-1 .2-.2.5-.4.9-.4s.7.2.8.4c.2.3.2.6.2 1zm5 1.5v-.2c-.4 0-.5 0-.5-.3v-1.6c0-.6-.3-1-1-1-.6 0-1 .4-1.1.7v-.6h-1v.3c.4 0 .5 0 .5.4v1.8c0 .3-.1.3-.6.3v.2h1.6v-.2c-.4 0-.5 0-.5-.3V118c0-.7.6-1 1-1 .5 0 .6.3.6.7v1.6c0 .3 0 .3-.5.3v.2h1.6zM449.2 122.8a4.2 4.2 0 0 0-1.7 3.5c0 1 .3 2.5 1.7 3.4h.1v-.2c-1-.8-1.3-2-1.3-3.2 0-2 .7-2.8 1.3-3.4l-.1-.1zM450.7 127.6v.3l.1.2c.2 0 .3-.1.3-.2l.1-.4.2-.6.1-.5c0-.3.1-.4.3-.6.2-.3.5-.7 1-.7s.5.4.5.5c0 .4-.3 1.2-.5 1.5v.4c0 .3.2.6.6.6.7 0 1-1 1-1l-.1-.2-.1.1c-.2.6-.5.9-.8.9l-.1-.3.1-.5c.1-.2.4-1 .4-1.4 0-.7-.6-.8-1-.8-.5 0-.9.4-1.1.7 0-.5-.5-.7-.8-.7-.2 0-.4.2-.5.4l-.3.7h.2l.1-.1c.1-.4.3-.8.5-.8s.3.2.3.4l-.1.5-.2.7zm5.5.3c0 .4 0 .8-.5 1.3v.2c.1 0 .7-.6.7-1.4 0-.5-.2-.8-.5-.8-.2 0-.4.2-.4.4s.2.4.4.4l.3-.1zm4-4.3s-.1-.2-.3-.2c-.2 0-.4.2-.4.4 0 0 0 .2.3.2.2 0 .4-.2.4-.4zm-1.5 4.7c-.1.5-.5 1-1 1l-.2-.1c.2-.1.3-.3.3-.4l-.3-.2c-.2 0-.4.2-.4.4 0 .3.3.4.7.4.4 0 1.2-.2 1.5-1l.6-2.6v-.2c0-.4-.3-.7-.7-.7-.8 0-1.3 1-1.3 1.1H458.2c.2-.4.5-.9 1-.9.1 0 .2.1.2.4v.2zm3.2-.4c0 .4-.1.8-.6 1.3v.2c.2 0 .7-.6.7-1.4 0-.5-.1-.8-.4-.8-.3 0-.4.2-.4.4s.1.4.4.4l.3-.1zm4.7-.9c.6-.6.9-1.6.9-1.6l-.2-.1-.1.1c-.1.5-.4 1-.7 1.3v-.6c-.1-.7-.6-1.2-1.3-1.2-1 0-2 1-2 2 0 .6.4 1.2 1.3 1.2.6 0 1.2-.3 1.6-.6.1.5.5.6.7.6.4 0 .6-.4.6-.5v-.1h-.2c-.1.3-.3.4-.4.4 0 0-.2 0-.2-.9zm-.6.3c-.7.5-1.3.6-1.5.6-.5 0-.7-.3-.7-.8 0-.2 0-1 .4-1.4.3-.5.7-.6 1-.6.5 0 .7.6.8 1v1.2zM470.9 128h-.3l-.1.5H469l1-.7c.4-.3.9-.6.9-1.1 0-.7-.6-1-1.4-1-.6 0-1.1.4-1.1.9 0 .2.2.3.3.3.1 0 .3-.1.3-.3 0-.2-.2-.3-.3-.3.1-.3.4-.4.7-.4.5 0 1 .3 1 .8 0 .4-.4.7-.8 1l-1.2 1V129h2.3zM472.5 122.8h-.2v.2c.7.5 1.3 1.5 1.3 3.3 0 1.4-.4 2.5-1.2 3.2v.2s.8-.4 1.2-1.3c.3-.6.5-1.3.5-2.1 0-1-.3-2.6-1.6-3.5zM478.6 119c0 .1 0 .3.2.3s.2-.2.2-.3v-5.7c0-.1 0-.4-.2-.4s-.2.2-.2.4zm0 6c0 .1 0 .3.2.3s.2-.2.2-.4v-5.6c0-.2 0-.4-.2-.4s-.2.2-.2.4zm0 6s0 .3.2.3.2-.2.2-.4v-5.6c0-.2 0-.4-.2-.4s-.2.2-.2.4zm8.4-.4v.2c0 .2 0 .3.2.3s.2-.1.3-.3l6.4-17.2v-.2c0-.2 0-.2-.2-.2s-.2 0-.3.2zM499.2 121c0-.6-.3-.8-.5-.8s-.5.3-.5.5c0 .1 0 .2.2.3.2.2.3.4.3.8s-.6 2.7-1.7 2.7c-.5 0-.8-.3-.8-.9 0-.5.3-1.3.6-2l.1-.6c0-.4-.3-.8-.8-.8-1 0-1.3 1.5-1.3 1.5l.1.1.2-.1c.3-1 .7-1.3 1-1.3 0 0 .2 0 .2.3l-.1.7a6 6 0 0 0-.6 2c0 1.2.9 1.3 1.3 1.3 1.7 0 2.3-3.3 2.3-3.8zM505.2 120.5v-.2h-.1c-.5 0-.5-.1-.6-.3l-1.7-4.3c0-.1 0-.2-.2-.2l-.2.2-1.6 4c0 .2-.2.6-.8.6v.2h1.6v-.2c-.4 0-.5-.2-.5-.4v-.1l.3-.9h2l.4 1v.2c0 .2-.3.2-.5.2v.2h2zm-1.9-1.8h-1.8l1-2.3zm7.8.1v-.2h-2.2v.2h.3c.7 0 .7.1.7.3v.5c0 .1 0 .4-.4.6l-.8.2c-.8 0-2.1-.5-2.1-2.3 0-1.8 1.3-2.3 2-2.3s1.5.5 1.7 1.7h.1l.1-.1v-1.8h-.2l-.3.6a2 2 0 0 0-1.5-.6c-1.4 0-2.7 1.1-2.7 2.5s1.2 2.5 2.7 2.5c.4 0 1.2 0 1.5-.5l.5.4v-1.4c0-.3.1-.3.6-.3zm6-2.8v-.3h-1.4v.3c.2 0 .4.1.4.3v.2l-1.4 3.3-1.5-3.5v-.1c0-.2.3-.2.5-.2v-.3h-2v.3h.2c.3 0 .4 0 .5.2l1.8 4.3.2.1.3-.1 1.7-4c0-.3.2-.5.8-.5zM520 124.6c0-.7-.3-1-.7-1-.4 0-.6.2-.6.5s.2.5.6.5l.3-.1.1.1c0 .7-.4 1.3-.7 1.7v.2c.1 0 1-.7 1-1.9zM527.8 118v-.1l-.1-.2c-.2 0-.2.1-.3.2l-.8 2.2h-3l-.8-2.2-.3-.2-.2.2v.2l2.6 6.5c0 .1 0 .2.2.2.1 0 .2 0 .2-.2zm-4 2.5h2.6l-1.3 3.6zM531.1 127l-.1-.2c-1.3-1.3-1.6-3.2-1.6-4.7 0-1.7.4-3.4 1.6-4.7l.1-.2c-.2 0-1 .6-1.6 1.9a7.2 7.2 0 0 0-.7 3c0 .8.2 2 .7 3.1a4.3 4.3 0 0 0 1.6 2v-.2zM532.6 124v.4c0 .2 0 .3.2.3.1 0 .3 0 .4-.3l.2-.7.2-.9.2-.7v-.5c.2-.3.8-1.2 1.7-1.2.4 0 .5.4.5.7l-.1.8-.3 1.2-.2.8-.1.5c0 .2.1.3.3.3.3 0 .3-.2.4-.5l.6-2.4c0-.2.6-1.4 1.7-1.4.4 0 .5.4.5.7 0 .6-.4 1.7-.6 2.3l-.1.5c0 .5.3.8.8.8.9 0 1.3-1.4 1.3-1.5l-.1-.1-.2.2c-.1.5-.5 1.2-1 1.2-.2 0-.2-.1-.2-.3l.1-.7c.2-.6.6-1.7.6-2.2 0-.7-.4-1.1-1.1-1.1-.8 0-1.3.4-1.6 1 0-.2 0-.5-.4-.7-.2-.2-.5-.3-.8-.3-.9 0-1.3.6-1.5.9 0-.6-.5-.9-1-.9-.4 0-.6.4-.7.6l-.3 1h.1l.2-.2c.2-.7.4-1.2.7-1.2.2 0 .3.1.3.5l-.1.8zm9.9.6c0-.7-.3-1-.6-1-.4 0-.6.2-.6.5s.2.5.6.5l.3-.1v.1c0 .7-.3 1.3-.6 1.7l-.1.1v.1c.2 0 1-.7 1-1.9zm5.2-6.2c0-.2-.1-.4-.3-.4-.3 0-.6.3-.6.6 0 .1.2.3.4.3s.5-.2.5-.5zm-.7 3.7c0-.3 0-.3.2-.5l.1-.6c0-.4-.3-.8-.8-.8-1 0-1.3 1.5-1.3 1.5l.1.1.2-.1c.2-1 .6-1.3 1-1.3 0 0 .2 0 .2.3l-.1.6-.7 1.8-.2.8c0 .5.3.8.8.8 1 0 1.3-1.4 1.3-1.5l-.1-.1-.2.2c-.1.6-.5 1.2-1 1.2-.1 0-.2-.1-.2-.3 0-.3 0-.4.3-1zM551.2 122.1c0-.8-.1-2-.6-3a4.4 4.4 0 0 0-1.6-2l-.1.1.2.3c1 1 1.5 2.5 1.5 4.6 0 1.7-.3 3.5-1.6 4.7l-.1.2.1.1c.1 0 1-.7 1.6-2 .5-1 .6-2.1.6-3zM554.2 124.6c0-.7-.2-1-.6-1-.3 0-.5.2-.5.5s.2.5.5.5l.3-.1.1.1c0 .7-.3 1.3-.7 1.7v.2c.1 0 1-.7 1-1.9zM560 127l-.2-.2c-1.3-1.3-1.6-3.2-1.6-4.7 0-1.7.4-3.4 1.6-4.7l.1-.2c-.2 0-1 .6-1.6 1.9a7.2 7.2 0 0 0-.7 3c0 .8.1 2 .7 3.1a4.3 4.3 0 0 0 1.5 2l.1-.2zM561.4 124l-.1.4c0 .2.1.3.3.3.1 0 .3 0 .4-.3l.1-.7.3-.9.1-.7.2-.5c.1-.3.6-1.2 1.6-1.2.4 0 .5.4.5.7 0 .6-.5 2-.6 2.3l-.1.5c0 .5.3.8.8.8 1 0 1.3-1.4 1.3-1.5l-.1-.1-.2.2c-.2.6-.5 1.2-1 1.2-.2 0-.2-.1-.2-.3 0-.3 0-.5.2-.7.1-.6.6-1.7.6-2.2 0-.7-.5-1.1-1.2-1.1-.9 0-1.4.6-1.5.9 0-.6-.5-.9-1-.9-.4 0-.6.4-.7.6-.2.3-.3.9-.3 1h.1l.2-.2c.2-.7.4-1.2.7-1.2.2 0 .3.2.3.5l-.1.8zm7.1.6c0-.7-.2-1-.6-1-.4 0-.6.2-.6.5s.2.5.6.5l.3-.1v.1c0 .7-.3 1.3-.6 1.7v.2c.1 0 1-.7 1-1.9zm6.4-6.2c0-.2-.2-.4-.4-.4s-.6.3-.6.6c0 .2.2.3.4.3.3 0 .6-.2.6-.5zm-2 6.7c-.2.8-.7 1.3-1.3 1.3h-.4c.3-.1.5-.4.5-.6 0-.1-.1-.3-.4-.3-.2 0-.5.2-.5.5 0 .4.4.6.9.6a2 2 0 0 0 1.8-1.5l1-3.6v-.4c0-.5-.4-.9-1-.9-1 0-1.5 1.5-1.5 1.5l.1.1.2-.2c.2-.6.7-1.2 1.2-1.2.2 0 .4 0 .4.5l-.1.5zM578.5 122.1c0-.8-.1-2-.7-3a4.4 4.4 0 0 0-1.5-2l-.1.1.2.3c1 1 1.5 2.5 1.5 4.6 0 1.7-.4 3.5-1.6 4.7l-.1.2v.1c.2 0 1-.7 1.6-2 .5-1 .7-2.1.7-3zM587.7 122.3c.2 0 .3 0 .3-.2s-.1-.2-.3-.2h-4.2c0-1.3 1.2-2.3 2.6-2.3h1.6c.2 0 .3 0 .3-.2s-.1-.2-.3-.2h-1.6c-1.7 0-3 1.3-3 3a3 3 0 0 0 3 2.8h1.6c.2 0 .3 0 .3-.2s-.1-.2-.3-.2h-1.6c-1.4 0-2.5-1-2.6-2.3zM599.2 117.7v-.1l-.2.1-.7.8c-.1-.2-.6-1-1.7-1-2.2 0-4.5 2.3-4.5 4.6 0 1.6 1.2 2.7 2.7 2.7 1 0 1.7-.4 2.2-.8 1-.8 1-1.7 1-1.8h-.2c0 .3-.3 1-1 1.6-.7.6-1.3.7-1.8.7-.9 0-2-.5-2-2 0-.6.3-2.2 1.3-3.4.6-.7 1.5-1.2 2.4-1.2 1 0 1.6.8 1.6 2v.4l.1.1.2-.2zm1.7 6.9c0-.7-.2-1-.6-1-.3 0-.5.2-.5.5s.2.5.5.5l.3-.1.1.1c0 .7-.3 1.3-.7 1.7v.2c.1 0 1-.7 1-1.9zM608.8 118v-.1l-.1-.2-.2.2-.9 2.2h-3l-.8-2.2-.2-.2-.2.2v.2l2.5 6.5c0 .1 0 .2.2.2s.2 0 .2-.2zm-4 2.5h2.7l-1.4 3.6zM613.6 122.3c0-1.6-.9-2.1-1.6-2.1-1.4 0-2.7 1.4-2.7 2.8 0 1 .6 1.7 1.6 1.7.6 0 1.3-.2 2.1-.8.1.5.5.8 1 .8.4 0 .8-.5.8-.7H614.5c-.2.5-.5.5-.6.5-.3 0-.3-.8-.3-1l.1-.4c1-1.1 1.2-2.3 1.2-2.3l-.1-.1-.2.2a6 6 0 0 1-1 2zm-.6 1.3c-.9.8-1.7.9-2 .9-.7 0-1-.5-1-1 0-.6.3-1.6.6-2.2.5-.7 1-.9 1.4-.9 1 0 1 1.3 1 2.1v1.1zM617.6 121.7c0-.2 0-.2-.2-.2-.5.4-1.1.4-1.4.4v.3c.2 0 .6 0 1-.2v3.5c0 .3 0 .4-.7.4h-.2v.2a36.2 36.2 0 0 1 2.5 0v-.2h-.3c-.7 0-.7-.1-.7-.4zM621.8 124.6c0-.7-.3-1-.7-1-.3 0-.5.2-.5.5s.2.5.5.5l.4-.1v.1c0 .7-.3 1.3-.6 1.7l-.2.1.1.1c.2 0 1-.7 1-1.9zm7-2.3c0-1.6-.8-2.1-1.6-2.1-1.3 0-2.6 1.4-2.6 2.8 0 1 .5 1.7 1.6 1.7.6 0 1.3-.2 2-.8.2.5.5.8 1 .8s.8-.5.8-.7h-.2c-.2.5-.6.5-.6.5-.3 0-.3-.8-.3-1v-.4c1-1.1 1.2-2.3 1.2-2.3v-.1c-.2 0-.2 0-.2.2a6 6 0 0 1-1 2zm-.6 1.3c-.8.8-1.6.9-2 .9-.6 0-1-.5-1-1 0-.6.3-1.6.7-2.2.4-.7 1-.9 1.3-.9 1 0 1 1.3 1 2.1v1.1zM634 124.8h-.2c0 .2 0 .6-.2.7h-1.9l1.3-1.2c.6-.4 1-.8 1-1.5 0-.8-.7-1.3-1.6-1.3-.9 0-1.4.6-1.4 1.2 0 .4.3.4.3.4.2 0 .4-.1.4-.4 0 0 0-.3-.4-.3.2-.5.7-.7 1-.7.7 0 1 .6 1 1.1 0 .6-.4 1.1-.6 1.4l-1.7 1.6v.3h2.8zM643.2 122.3c.2 0 .4 0 .4-.2s-.2-.2-.4-.2H639c.1-1.3 1.3-2.3 2.7-2.3h1.5c.2 0 .4 0 .4-.2s-.2-.2-.4-.2h-1.5c-1.8 0-3.1 1.3-3.1 3a3 3 0 0 0 3 2.8h1.6c.2 0 .4 0 .4-.2s-.2-.2-.4-.2h-1.5c-1.4 0-2.6-1-2.7-2.3zm6.8-3.8c0-.4.2-1 1.3-1.1l.1-.1c0-.2 0-.2-.2-.2-1 0-1.9.5-1.9 1.3v2.3c0 .3 0 .7-.4 1-.3.3-.7.3-1 .3v.1l.1.1c.7 0 1.2.4 1.3 1v2.4c0 .4 0 .7.5 1.1.4.3 1 .4 1.4.4l.2-.1-.2-.1c-.6 0-1-.4-1.2-.9v-2.5c0-.5-.1-.7-.4-1l-.8-.4c.8-.2 1.2-.7 1.2-1.2zM656.7 121.4c0-.8 0-1.6-.4-2.3-.4-1-1.2-1.1-1.6-1.1-.6 0-1.4.2-1.8 1.2-.3.7-.4 1.4-.4 2.2 0 .8 0 1.7.5 2.4.4.8 1.1 1 1.6 1 .6 0 1.3-.2 1.8-1.1.3-.7.3-1.5.3-2.3zm-2 3.2c-.4 0-1-.2-1.2-1.2l-.1-2v-2c.2-1.1 1-1.2 1.2-1.2.4 0 1 .2 1.2 1.2l.1 2-.1 2c-.2 1-.7 1.2-1.2 1.2zM659.2 124.6c0-.7-.3-1-.7-1-.3 0-.5.2-.5.5s.2.5.5.5l.4-.1v.1c0 .7-.3 1.3-.6 1.7l-.1.1v.1c.2 0 1-.7 1-1.9zM664.5 118.2c0-.2 0-.2-.2-.2-.6.6-1.5.6-1.8.6v.3c.2 0 .7 0 1.3-.2v5.1c0 .4 0 .5-1 .5h-.3v.3h3.2v-.3h-.3c-.9 0-1-.1-1-.5zM668.6 124.6c0-.7-.3-1-.7-1-.3 0-.5.2-.5.5s.2.5.5.5l.4-.1v.1c0 .7-.3 1.3-.6 1.7l-.1.1v.1c.2 0 1-.7 1-1.9zM672.2 123.8l1-1c1.7-1.4 2.3-1.9 2.3-2.9 0-1.1-1-2-2.2-2-1 0-1.8 1-1.8 1.9 0 .5.5.5.5.5.2 0 .5 0 .5-.5 0-.3-.2-.5-.5-.5h-.1c.2-.6.7-1 1.3-1 1 0 1.3.8 1.3 1.6s-.5 1.6-1 2.2l-2 2.1v.4h3.7l.3-1.7h-.3l-.2.9h-1zM678 124.6c0-.7-.3-1-.7-1-.3 0-.5.2-.5.5s.2.5.5.5l.4-.1v.1c0 .7-.3 1.3-.6 1.7l-.1.1v.1c.2 0 1-.7 1-1.9zM683.3 121.1c.8-.3 1.4-1 1.4-1.8s-1-1.3-1.9-1.3c-1 0-1.7.6-1.7 1.3 0 .4.2.6.5.6s.5-.3.5-.6c0-.5-.5-.5-.6-.5.3-.4 1-.6 1.3-.6.4 0 1 .2 1 1.1 0 .2 0 .7-.3 1.2s-.7.5-1 .5h-.3l-.2.1c0 .2.1.2.3.2h.4c.8 0 1.2.6 1.2 1.6 0 1.4-.7 1.7-1.1 1.7-.4 0-1.2-.2-1.5-.8.3 0 .6-.2.6-.5 0-.4-.3-.6-.5-.6-.3 0-.6.1-.6.6 0 .9 1 1.5 2 1.5 1.2 0 2.1-.9 2.1-1.9 0-.8-.6-1.6-1.6-1.8zM687.4 124.6c0-.7-.3-1-.7-1-.3 0-.5.2-.5.5s.2.5.5.5l.4-.1v.1c0 .7-.3 1.3-.6 1.7l-.1.1v.1c.2 0 1-.7 1-1.9zM692.7 123v.8c0 .4 0 .5-.7.5h-.3v.3h2.8v-.3h-.3c-.7 0-.7-.1-.7-.5v-.8h1v-.3h-1V118c0-.2 0-.2-.2-.2h-.2l-3 4.8v.3zm0-.3h-2.3l2.4-3.8zM697 125.8c0 .4-.3 1-1.4 1l-.1.2.2.1c1 0 1.9-.5 1.9-1.2v-2.3c0-.4 0-.7.4-1 .3-.3.7-.4 1-.4l-.1-.2c-.7 0-1.2-.4-1.3-.9v-2.5c0-.4 0-.7-.5-1-.4-.4-1-.5-1.4-.5 0 0-.2 0-.2.2h.2c.6.1 1 .4 1.2 1v2.4c0 .5.1.7.4 1l.8.4c-.8.2-1.2.7-1.2 1.3zM279.3 122h.2c0-4.3.6-7.8 3-10.7l.1-.1H282.3s-1 .8-1.6 2c-1 1.6-1.6 3.5-1.8 5.6l-.2 2.9v.2l.2.1zm-.4-.1h-.2v.3c0 3.7.8 5.8 1 6.4a11.5 11.5 0 0 0 2.6 4.1H282.6c-2.4-2.9-3-6.2-3.1-10.7l-.2-.1zM483.6 122h-.2c0-4.3-.6-7.8-3-10.7l-.1-.1H480.6s1 .8 1.6 2a14 14 0 0 1 1.8 5.6l.2 3v.1l-.2.1zm.4-.1h.2v.3c0 3.7-.8 5.8-1 6.4a11.5 11.5 0 0 1-2.6 4.1H480.3c2.4-2.8 3-6.2 3-10.7l.3-.1z"/></g></svg>