<svg xmlns="http://www.w3.org/2000/svg" width="263.7" height="14.7"><g aria-label="Z (m,i)(n,j),l ∈{0,1},∀(m,i),(n,j)∈C,∀l∈B"><path d="M8.8 1.2V1L8.5 1H2.9c-.3 0-.3 0-.4.3l-.7 2.3V4c.2 0 .2-.1.2-.2.6-1.5 1.2-2.4 3.3-2.4h2.2L0 9.6l-.1.2c0 .2 0 .2.3.2h5.8c.3 0 .4 0 .4-.3l1-3v-.1c0-.1 0-.2-.2-.2l-.2.3C6.5 8.6 6 9.5 3.6 9.5H1.4ZM11.6 5.4A5.6 5.6 0 0 0 9.4 10c0 1.4.4 3.4 2.2 4.7l.2-.1-.1-.2c-1.2-1-1.7-2.7-1.7-4.4 0-2.5 1-3.7 1.7-4.4l-.1-.2zM16.5 11.6l-.1.6c0 .2.1.3.3.3l.3-.2.2-.6a17.1 17.1 0 0 0 .4-1.5c0-.4 0-.4.3-.7.3-.4.7-1 1.4-1 .6 0 .6.5.6.7 0 .5-.4 1.6-.6 2l-.1.5c0 .4.4.8.9.8 1 0 1.3-1.3 1.3-1.5H21.1c-.2.8-.6 1.2-1 1.2-.2 0-.2-.1-.2-.3l.2-.8c.1-.3.5-1.2.5-1.8 0-.1 0-.5-.4-.8l-.8-.2c-.9 0-1.4.5-1.7 1 0-.9-.7-1-1.2-1A2 2 0 0 0 15 9c-.1-.6-.7-.8-1-.8-.4 0-.7.3-.8.5l-.3.9.1.1c.2 0 .2 0 .2-.3.2-.5.4-1 .7-1 .3 0 .3.2.3.5l-.1.8-.2.8-.3 1.2-.1.4c0 .2.2.3.3.3l.4-.2.1-.6.2-.9.2-.6.4-.8c.3-.4.7-.9 1.4-.9.5 0 .5.5.5.7l-.1.9zm7.3.6c0 .5 0 1.1-.7 1.7V14.2c.2 0 1-.8 1-1.9 0-.6-.2-1-.7-1-.3 0-.5.2-.5.5s.2.6.5.6.4-.2.4-.2zM28 6.6c0-.2 0-.4-.3-.4s-.6.2-.6.5c0 .2.2.4.4.4.3 0 .5-.3.5-.5zm-1.9 4.7v.4c0 .4.3.8.8.8 1 0 1.4-1.3 1.4-1.5h-.4c-.2.8-.6 1.2-1 1.2-.1 0-.2-.1-.2-.3l.2-.6c0-.3.2-.5.3-.8l.4-1.1.1-.3c0-.5-.4-.8-.9-.8-1 0-1.3 1.2-1.3 1.4l.1.1.2-.1c.2-.8.6-1.2 1-1.2.1 0 .2.1.2.4l-.3.9zM29.6 5.4l-.2.1.1.1c.8.8 1.7 2 1.7 4.4 0 2-.6 3.4-1.6 4.4l-.2.2h.2s1-.5 1.6-1.7c.4-.8.7-1.8.7-2.9 0-1.3-.4-3.3-2.3-4.6zm6.6 0A5.6 5.6 0 0 0 34 10c0 1.4.4 3.4 2.2 4.7l.2-.1v-.2c-1.3-1-1.8-2.7-1.8-4.4 0-2.5 1-3.7 1.8-4.4 0-.2 0-.2-.2-.2zM38.2 11.8v.4c0 .2.1.3.3.3l.3-.2.2-.6.2-.9.1-.6.4-.8c.3-.4.7-.9 1.4-.9.6 0 .6.5.6.7 0 .5-.4 1.6-.6 2l-.1.5c0 .4.4.8.9.8.9 0 1.3-1.3 1.3-1.5H43c-.2.8-.6 1.2-1 1.2-.2 0-.2-.1-.2-.3l.2-.8c.1-.3.5-1.2.5-1.8 0-.9-.7-1-1.2-1a2 2 0 0 0-1.6.8c0-.6-.6-.8-1-.8s-.6.3-.7.5l-.4.9.2.1.2-.3c.1-.5.3-1 .7-1 .2 0 .3.2.3.5l-.2.8-.2.8zm7.4.4c0 .5 0 1.1-.7 1.7V14.2c.2 0 1-.8 1-1.9 0-.6-.2-1-.7-1-.3 0-.5.2-.5.5s.2.6.5.6.4-.2.4-.2zM51 6.6c0-.2-.1-.4-.4-.4-.3 0-.5.3-.5.5s.1.4.4.4c.2 0 .5-.3.5-.5zm-2 6.2c-.1.7-.6 1.2-1.2 1.2h-.3l.3-.5c0-.2-.2-.4-.4-.4-.3 0-.5.3-.5.6s.4.6 1 .6c.5 0 1.6-.4 1.9-1.5l.8-3.3V9c0-.5-.4-.8-1-.8-1 0-1.6 1.3-1.6 1.4l.2.1.2-.2c.2-.5.7-1 1.2-1 .3 0 .3 0 .3.4v.3zM52.6 5.4l-.2.1.1.1c.8.8 1.7 2 1.7 4.4 0 2-.6 3.4-1.6 4.4l-.2.2h.1c.1 0 1-.5 1.6-1.7.4-.8.7-1.8.7-2.9 0-1.3-.4-3.3-2.2-4.6zM57.9 12.2c0 .5-.1 1.1-.8 1.7v.1l.1.2c.1 0 1-.8 1-1.9 0-.6-.3-1-.7-1-.3 0-.6.2-.6.5s.3.6.6.6l.4-.2zm3.8-6V6h-1.3c-.1 0-.2 0-.2.2s.1.2.2.2h.5v.3l-1.2 4.6v.3c0 .6.5.9.9.9.2 0 .5-.1.8-.5l.3-1h-.2l-.2.1c0 .5-.3 1.1-.7 1.1-.2 0-.3-.2-.3-.5v-.3zM74.1 7c.2 0 .5 0 .5-.4 0-.2-.3-.2-.5-.2h-5.6c.1-1.8 1.6-3 3.5-3h2.1c.2 0 .5 0 .5-.3s-.3-.3-.5-.3h-2c-2.4 0-4.2 1.7-4.2 3.8a4 4 0 0 0 4.1 3.9h2.1c.2 0 .5 0 .5-.3 0-.2-.3-.2-.5-.2h-2c-2 0-3.5-1.3-3.6-3zm9-5.2c0-.6.4-1.4 1.8-1.5l.1-.1c0-.2 0-.2-.2-.2-1.4 0-2.6.7-2.6 1.7v3c0 .5 0 1-.5 1.4-.5.4-1 .4-1.3.4l-.1.1c0 .2 0 .2.2.2.9 0 1.5.5 1.7 1.2v3.2c0 .6 0 1 .6 1.5.6.4 1.5.6 2 .6.1 0 .2 0 .2-.2l-.2-.1c-.8 0-1.5-.5-1.7-1.2V8.4c0-.6-.1-.8-.5-1.2-.3-.3-.7-.5-1-.6 1-.3 1.5-.9 1.5-1.6zM92.1 5.7c0-1 0-2.1-.5-3A2.4 2.4 0 0 0 89.3 1c-.8 0-1.7.4-2.3 1.6a7 7 0 0 0-.5 3c0 1 0 2.2.6 3.2.6 1.1 1.6 1.4 2.2 1.4.7 0 1.7-.3 2.3-1.6.5-.9.5-2 .5-3zM89.3 10c-.5 0-1.3-.4-1.5-1.6-.2-.8-.2-2-.2-2.8l.1-2.5c.3-1.6 1.3-1.7 1.6-1.7.5 0 1.3.3 1.6 1.6l.1 2.6-.1 2.7c-.2 1.3-1 1.7-1.6 1.7zM95.4 10c0-1-.4-1.4-.9-1.4-.4 0-.7.3-.7.7 0 .3.3.7.7.7.2 0 .3 0 .5-.2v.2c0 1-.4 1.7-.8 2.2l-.2.2.1.1c.2 0 1.3-1 1.3-2.5zM102.5 1.5c0-.3 0-.4-.4-.4-.8.9-2 .9-2.4.9v.4c.3 0 1 0 1.8-.4v7c0 .4 0 .6-1.3.6h-.4v.4H104.1v-.4h-.4c-1.2 0-1.2-.2-1.2-.7zM108 11.5c0 .5-.3 1.4-1.7 1.5l-.2.1c0 .2.2.2.3.2 1.3 0 2.5-.7 2.6-1.7v-3c0-.5 0-1 .5-1.4.4-.4 1-.4 1.2-.4.1 0 .2 0 .2-.2l-.3-.1c-.8 0-1.5-.5-1.6-1.2V2c0-.5 0-1-.7-1.5-.5-.4-1.4-.5-1.9-.5-.1 0-.3 0-.3.2l.3.1c.8 0 1.5.5 1.6 1.2v3.4c0 .6.2.8.6 1.2.3.3.7.4 1 .5-1 .4-1.5 1-1.5 1.7zM114.5 10c0-1-.3-1.4-.8-1.4s-.7.3-.7.7c0 .3.2.7.7.7.1 0 .3 0 .5-.2v.2c0 1-.4 1.7-.9 2.2l-.1.2.1.1c.2 0 1.2-1 1.2-2.5zM125 1.2l.1-.2c0-.1 0-.3-.2-.3s-.3.2-.3.4L123.5 4h-4l-1.2-3c0-.1-.1-.3-.3-.3l-.3.3.1.2 3.3 8.8.3.3c.2 0 .3-.2.3-.3zm-5.4 3.3h3.6l-1.8 4.7zM129.5 13.2l-.2-.3c-1.7-1.7-2.1-4.2-2.1-6.3 0-2.3.5-4.6 2.1-6.2l.2-.3-.1-.1c-.2 0-1.3 1-2.1 2.6a9.9 9.9 0 0 0 0 8.2c.8 1.6 2 2.5 2 2.5l.2-.1zM131.5 9.2l-.2.5c0 .3.2.4.4.4s.4 0 .5-.4l.3-1 .3-1.1.2-1 .2-.6c.2-.4.9-1.6 2.1-1.6.6 0 .7.5.7 1 0 .3 0 .6-.2 1l-.3 1.6-.3 1-.2.7c0 .3.2.4.4.4.4 0 .5-.3.6-.7l.8-3.2c0-.2.8-1.8 2.2-1.8.6 0 .7.4.7 1 0 .7-.5 2.2-.8 2.9l-.2.7c0 .7.5 1.1 1.1 1.1 1.3 0 1.8-2 1.8-2 0-.2-.2-.2-.2-.2l-.2.3c-.2.7-.6 1.6-1.4 1.6-.2 0-.3-.1-.3-.4 0-.4.1-.7.3-1 .2-.7.8-2.1.8-2.9 0-.8-.6-1.4-1.6-1.4s-1.6.6-2.1 1.3c0-.2 0-.6-.5-1-.3-.2-.7-.3-1-.3-1.2 0-1.9.9-2.1 1.1 0-.7-.6-1.1-1.2-1.1s-.9.5-1 .8l-.4 1.2.1.2c.2 0 .2 0 .3-.3.2-1 .5-1.6 1-1.6.1 0 .3.1.3.6l-.2 1.1zm13.2.8c0-1-.4-1.4-1-1.4-.3 0-.6.3-.6.7 0 .3.3.7.7.7.1 0 .3 0 .5-.2v.2c0 1-.4 1.7-.9 2.2V12.5c.2 0 1.3-1 1.3-2.5zm6.9-8.3c0-.3-.2-.5-.5-.5s-.7.3-.7.7c0 .2.2.5.5.5s.7-.3.7-.7zm-1 5 .3-.8.2-.7c0-.6-.5-1.1-1.1-1.1-1.3 0-1.8 2-1.8 2 0 .2.2.2.2.2l.2-.3c.3-1.2.9-1.6 1.3-1.6.1 0 .4 0 .4.4l-.2.7c0 .3-.7 1.9-.9 2.5l-.3 1c0 .7.5 1.1 1 1.1 1.3 0 1.8-2 1.8-2l-.1-.2c-.2 0-.2 0-.2.3-.3.8-.7 1.6-1.4 1.6-.2 0-.3-.1-.3-.4 0-.4 0-.5.4-1.3zM156.3 6.6c0-1-.2-2.6-.9-4.1-.8-1.6-2-2.5-2-2.5l-.2.1.2.4c1.3 1.3 2 3.4 2 6.1 0 2.3-.4 4.6-2 6.3l-.2.3.1.1c.1 0 1.3-1 2.1-2.6.7-1.5.9-3 .9-4zM160.3 10c0-1-.3-1.4-.9-1.4-.4 0-.7.3-.7.7 0 .3.3.7.7.7.2 0 .4 0 .5-.2l.1.2c0 1-.5 1.7-.9 2.2l-.1.2v.1c.2 0 1.3-1 1.3-2.5zM167.9 13.2l-.2-.3c-1.7-1.7-2.1-4.2-2.1-6.3 0-2.3.5-4.6 2.1-6.2l.2-.3-.1-.1c-.2 0-1.4 1-2.1 2.6a9.9 9.9 0 0 0 0 8.2c.8 1.6 2 2.5 2 2.5l.2-.1zM169.8 9.2v.5c0 .3.1.4.3.4.2 0 .4 0 .5-.4l.2-1 .3-1.1.3-1 .1-.6c.2-.4 1-1.6 2.2-1.6.6 0 .7.5.7 1 0 .7-.6 2.4-.8 3l-.2.6c0 .7.5 1.1 1.1 1.1 1.3 0 1.7-2 1.7-2l-.1-.2-.2.3c-.3.9-.7 1.6-1.4 1.6-.2 0-.3-.1-.3-.4 0-.4.1-.7.3-1 .2-.7.8-2.1.8-2.9 0-.9-.6-1.4-1.6-1.4-1.2 0-1.8.9-2 1.1 0-.7-.6-1.1-1.3-1.1-.6 0-.8.5-1 .8l-.3 1.2.1.2c.1 0 .2 0 .2-.3.3-1 .5-1.6 1-1.6.3 0 .4.2.4.6l-.2 1.1zm9.5.8c0-1-.3-1.4-.8-1.4s-.7.3-.7.7c0 .3.2.7.7.7.1 0 .3 0 .4-.2h.1v.2c0 1-.4 1.7-.9 2.2l-.1.2.1.1c.2 0 1.2-1 1.2-2.5zm8.5-8.3c0-.3-.2-.5-.5-.5s-.7.3-.7.7c0 .3.2.5.5.5s.7-.4.7-.7zm-2.7 9c-.2 1-.9 1.7-1.6 1.7l-.5-.1c.4-.1.6-.5.6-.7 0-.2-.2-.5-.5-.5-.4 0-.8.3-.8.8s.6.8 1.2.8c1 0 2.2-.7 2.5-2l1.2-4.9.1-.5c0-.7-.6-1.2-1.2-1.2-1.4 0-2.1 2-2.1 2l.1.2c.2 0 .2 0 .3-.3.3-.8 1-1.6 1.6-1.6.2 0 .5 0 .5.6l-.1.7zM192.6 6.6c0-1-.1-2.6-.9-4.1-.8-1.6-2-2.5-2-2.5l-.2.1.3.4c1.3 1.3 2 3.4 2 6.1 0 2.3-.4 4.6-2 6.3l-.3.3.2.1s1.3-1 2-2.6c.7-1.5 1-3 1-4zM205 7c.1 0 .4 0 .4-.4 0-.2-.3-.2-.5-.2h-5.6c.1-1.8 1.7-3 3.5-3h2.1c.2 0 .5 0 .5-.3s-.3-.3-.5-.3h-2c-2.4 0-4.2 1.7-4.2 3.8a4 4 0 0 0 4.1 3.9h2.1c.2 0 .5 0 .5-.3 0-.2-.3-.2-.5-.2h-2c-2 0-3.5-1.3-3.6-3zM220.3.7h-.4l-1 1c0-.1-.6-1-2.1-1-3 0-6 2.8-6 6 0 2.1 1.6 3.6 3.6 3.6 1.2 0 2.2-.6 2.9-1.2 1.3-1 1.5-2.3 1.5-2.3 0-.2-.2-.2-.2-.2l-.2.2c0 .4-.4 1.3-1.3 2-1 .8-1.8 1-2.5 1-1.1 0-2.5-.6-2.5-2.7 0-.8.2-3 1.6-4.5.8-1 2-1.6 3.2-1.6 1.4 0 2.1 1 2.1 2.6v.6c0 .2.1.2.2.2.2 0 .2 0 .2-.3zm2.3 9.3c0-1-.4-1.4-.9-1.4-.4 0-.7.3-.7.7 0 .3.3.7.7.7.2 0 .3 0 .5-.2v.2c0 1-.4 1.7-.8 2.2l-.2.2.1.1c.2 0 1.3-1 1.3-2.5zM233.1 1.2V1c0-.1 0-.3-.2-.3s-.3.2-.3.4L231.5 4h-4l-1.1-3-.3-.3c-.2 0-.3.2-.3.3v.2l3.4 8.8c0 .1.1.3.3.3.2 0 .2-.2.3-.3zm-5.4 3.3h3.6l-1.8 4.7zM236.6.9s0-.2-.2-.2l-1.6.2c-.1 0-.3 0-.3.3l.4.1c.6 0 .6.1.6.2v.3l-1.7 6.6V9c0 .8.5 1.2 1.2 1.2.4 0 .7-.3 1-.7l.4-1.3c0-.2-.2-.2-.2-.2-.1 0-.2 0-.2.3-.2.8-.5 1.6-1 1.6-.4 0-.4-.4-.4-.6v-.6zM248.4 7c.2 0 .4 0 .4-.4 0-.2-.2-.2-.4-.2h-5.7c.2-1.8 1.7-3 3.6-3h2c.3 0 .5 0 .5-.3s-.2-.3-.4-.3h-2.1c-2.3 0-4.1 1.7-4.1 3.8a4 4 0 0 0 4 3.9h2.2c.2 0 .4 0 .4-.3 0-.2-.2-.2-.4-.2h-2.1c-1.9 0-3.4-1.3-3.6-3zM255.7 9c0 .5-.1.6-1.2.6-.2 0-.3 0-.3.2s.1.2.3.2h4.8c2 0 3.7-1.6 3.7-3 0-.9-.8-1.6-2.1-1.8 1.4-.2 2.8-1.2 2.8-2.5 0-1-.9-1.8-2.5-1.8h-4.5c-.2 0-.4 0-.4.3l.4.1h.5c.3 0 .4 0 .4.2v.3zm2-3.9.9-3.3c.1-.5.1-.5.7-.5h1.7c1.2 0 1.5.8 1.5 1.4 0 1.1-1.2 2.4-2.8 2.4zm-.5 4.5h-.3c-.2 0-.2 0-.2-.2v-.3l1-3.7h2.5c1.3 0 1.5 1 1.5 1.6 0 1.3-1.2 2.6-2.7 2.6zm0 0"/></g></svg>