<svg xmlns="http://www.w3.org/2000/svg" width="289.2" height="18.2"><g aria-label="U AGV (m,i,α 1)(n,j,α 2) ∈{0,1},∀(m,i,α 1)(n,j,α 2)∈W T"><path d="M7.5 4.4c.2-.5.4-1 1.5-1 0 0 .2 0 .2-.2 0 0 0-.2-.2-.2H6.3s-.2 0-.2.3c0 .2 0 .2.2.2.7 0 .9.2.9.5v.3L6 9c-.5 1.8-2 3-3.3 3-1 0-1.7-.6-1.7-1.7l.2-1L2.5 4c0-.5.1-.6 1-.6.4 0 .5 0 .5-.3C4 3 4 3 3.8 3H.4s-.2 0-.2.3c0 .2.1.2.4.2H1c.2 0 .3 0 .3.2l-.2 1-.3 1.1-.8 3.3-.1.7c0 1.7 1.2 2.6 2.6 2.6 1.7 0 3.3-1.5 3.8-3.3zM17 6.6v-.3h-.2c-.6 0-.6-.1-.7-.4L13.8.2c0-.1 0-.2-.3-.2-.1 0-.2 0-.2.2L11 5.7c0 .2-.2.6-1 .6v.3h2v-.3c-.4 0-.6-.2-.6-.5v-.1l.4-1.2h2.7L15 6V6c0 .3-.4.3-.7.3v.3H17zm-2.5-2.4H12l1.2-3zm10.3.2V4H22v.3h.4c1 0 1 .1 1 .4v.6c0 .2 0 .6-.6.9-.5.2-1 .2-1.1.2-1 0-2.8-.6-2.8-3 0-2.5 1.8-3 2.7-3 1 0 2 .5 2.3 2.1l.1.2c.2 0 .2-.1.2-.3V.3L24 .1l-.2.1-.5.7c-.4-.5-1-.8-1.9-.8-2 0-3.6 1.5-3.6 3.4 0 1.8 1.6 3.3 3.6 3.3.5 0 1.6 0 2-.7l.6.5.1-.2V4.8c0-.4.1-.4.7-.4zM33 .6V.3H31v.3c.3 0 .6.2.6.4v.2l-2 4.5-2-4.7V1c0-.3.4-.3.7-.3V.3H25.7v.3h.2c.5 0 .6 0 .7.3L29 6.6c.1.2.1.2.3.2.1 0 .2 0 .3-.2l2.3-5.4c.1-.3.3-.6 1-.6zM11.5 9a5.6 5.6 0 0 0-2.3 4.6c0 1.3.4 3.3 2.3 4.6h.2l-.1-.2c-1.3-1.1-1.7-2.7-1.7-4.4 0-2.5 1-3.8 1.7-4.4V9l-.1-.2zM16.4 15.2l-.2.5c0 .2.2.3.4.3l.3-.2.2-.6a17.1 17.1 0 0 0 .3-1.4l.3-.7c.3-.5.8-1 1.5-1 .5 0 .6.4.6.6 0 .6-.4 1.6-.6 2l-.1.5c0 .5.4.8.9.8.9 0 1.3-1.3 1.3-1.4l-.1-.1-.2.1c-.2.8-.6 1.1-1 1.1-.2 0-.2 0-.2-.3l.2-.7c0-.3.5-1.3.5-1.8 0-.2 0-.6-.4-.8-.1-.2-.4-.3-.8-.3-.9 0-1.4.6-1.7 1 0-.8-.7-1-1.2-1a2 2 0 0 0-1.6.9c0-.7-.6-.9-1-.9s-.6.3-.7.5l-.3 1h.1c.2 0 .2 0 .2-.2.2-.6.3-1 .7-1 .3 0 .3.2.3.4l-.1.8-.2.8-.3 1.2-.1.4c0 .2.1.3.3.3l.4-.2.1-.6.2-.8.2-.6c0-.4.1-.5.4-.9.2-.3.7-.8 1.4-.8.5 0 .5.5.5.6l-.1.9zm7.3.6c0 .5 0 1-.7 1.7v.2c.2 0 1-.7 1-1.9 0-.5-.2-1-.7-1-.3 0-.5.3-.5.6s.2.5.5.5l.4-.1zM28 10c0-.1 0-.3-.4-.3-.2 0-.5.2-.5.5 0 .1.1.3.4.3.3 0 .5-.3.5-.5zM26 14.8v.4c0 .4.3.8.8.8 1 0 1.4-1.3 1.4-1.4l-.2-.1-.2.1c-.2.8-.6 1.1-1 1.1-.1 0-.2 0-.2-.3 0-.2 0-.4.2-.6 0-.2.1-.5.3-.7l.4-1.2v-.3c0-.4-.3-.8-.8-.8-1 0-1.4 1.3-1.4 1.4l.2.1h.2c.2-.9.6-1.2 1-1.2.1 0 .2 0 .2.3 0 .2 0 .4-.3 1zm4.6 1c0 .5 0 1-.7 1.7v.2c.2 0 1-.7 1-1.9 0-.5-.2-1-.7-1-.3 0-.5.3-.5.6s.2.5.5.5l.4-.1zm6.3-1.2a5 5 0 0 0 1.2-2.2l-.2-.1-.1.2a5 5 0 0 1-1 1.7v-.9c-.1-.9-.8-1.5-1.7-1.5-1.4 0-2.7 1.3-2.7 2.6 0 .8.6 1.6 1.7 1.6.9 0 1.6-.4 2.1-.8.3.7.7.8 1 .8.5 0 .9-.4.9-.7H37.8c-.2.4-.5.4-.6.4 0 0-.3 0-.3-1.1zm-.7.3c-1 .8-1.7.8-2 .8-.7 0-1-.4-1-1 0-.3.1-1.3.6-2 .4-.5 1-.6 1.3-.6.7 0 1 .7 1 1.3v1.5zM41.4 13c0-.2 0-.2-.3-.2-.4.4-1.2.4-1.3.4h-.1v.3c.2 0 .7 0 1-.2v3.4c0 .2 0 .2-.6.2h-.4v.3h2.7V17h-.3c-.7 0-.7 0-.7-.2zM44.8 9h-.2v.2c.9.7 1.8 2 1.8 4.4 0 2-.7 3.4-1.7 4.3l-.1.2.1.1c.1 0 1-.6 1.6-1.7.4-.8.7-1.8.7-3s-.4-3.3-2.2-4.6zm6.6 0a5.6 5.6 0 0 0-2.3 4.6c0 1.3.4 3.3 2.3 4.6h.1V18c-1.3-1.1-1.7-2.7-1.7-4.4 0-2.5 1-3.8 1.7-4.4V9l-.1-.2zM53.4 15.3l-.1.4c0 .2.1.3.3.3.2 0 .3-.1.3-.2l.2-.6.2-.8.2-.6c0-.4 0-.5.4-.9.2-.3.7-.8 1.4-.8.5 0 .5.5.5.6 0 .6-.4 1.6-.5 2l-.2.5c0 .5.4.8.9.8 1 0 1.3-1.3 1.3-1.4l-.1-.1-.2.1c-.2.8-.6 1.1-1 1.1-.2 0-.2 0-.2-.3l.2-.7c.1-.3.5-1.3.5-1.8 0-1-.7-1-1.2-1a2 2 0 0 0-1.6.8c0-.7-.6-.9-1-.9s-.6.3-.7.5l-.3 1h.1c.1 0 .2 0 .2-.2.2-.6.3-1 .7-1 .2 0 .3.2.3.4l-.1.8-.2.8Zm7.4.5c0 .5-.1 1-.8 1.7v.2c.2 0 1-.7 1-1.9 0-.5-.2-1-.6-1-.4 0-.6.3-.6.6s.2.5.6.5l.4-.1zM66 10c0-.2-.1-.3-.4-.3-.2 0-.5.2-.5.5 0 .1.1.3.4.3.2 0 .5-.2.5-.5zm-2 6.3c-.1.6-.6 1.2-1.2 1.2l-.3-.1c.2-.1.3-.3.3-.5s-.1-.3-.3-.3c-.3 0-.6.2-.6.5 0 .4.4.6 1 .6.5 0 1.6-.3 1.9-1.5l.8-3.3v-.3c0-.5-.4-.9-1-.9-1 0-1.6 1.3-1.6 1.4l.2.1.2-.1c.2-.6.7-1.1 1.3-1.1.2 0 .3.1.3.4v.3zm4.3-.6c0 .5-.1 1-.8 1.7v.2c.2 0 1-.7 1-1.9 0-.5-.2-1-.6-1-.3 0-.6.3-.6.6s.2.5.6.5l.4-.1zm6.2-1.2a5 5 0 0 0 1.2-2.2l-.1-.1c-.2 0-.2 0-.2.2a5 5 0 0 1-.9 1.7v-.9c-.2-.9-.9-1.5-1.8-1.5-1.4 0-2.7 1.3-2.7 2.6 0 .8.7 1.6 1.7 1.6.9 0 1.7-.4 2.2-.8.2.7.7.8 1 .8.5 0 .8-.4.8-.7H75.4c-.1.4-.4.4-.5.4-.2 0-.3 0-.4-1.1zm-.7.3c-.9.8-1.7.8-2 .8-.7 0-1-.4-1-1 0-.3.1-1.3.6-2 .4-.5 1-.6 1.3-.6.7 0 1 .7 1 1.3l.1 1.5zM80.3 16H80s0 .5-.2.6h-2l1.3-1c.6-.4 1.2-.8 1.2-1.5 0-.8-.8-1.3-1.8-1.3-.9 0-1.5.5-1.5 1.2 0 .3.3.4.3.4.2 0 .4-.1.4-.4 0-.2-.1-.4-.3-.4.1-.3.5-.5 1-.5.6 0 1.2.4 1.2 1s-.4 1-1 1.5L77 16.9V17.2h3zM82.4 9h-.2l.1.2c.8.7 1.7 2 1.7 4.4 0 2-.6 3.4-1.6 4.3l-.2.2.1.1c.1 0 1-.6 1.6-1.7.4-.8.7-1.8.7-3s-.4-3.3-2.2-4.6zM97.3 9c.3 0 .5 0 .5-.2 0-.3-.2-.3-.5-.3h-5.6c.2-1.7 1.7-3 3.6-3h2c.3 0 .5 0 .5-.3s-.2-.3-.5-.3h-2c-2.3 0-4.1 1.8-4.1 3.9a4 4 0 0 0 4 3.8h2.1c.3 0 .5 0 .5-.2 0-.3-.2-.3-.5-.3h-2c-2 0-3.4-1.3-3.6-3zm9-5c0-.6.4-1.5 1.8-1.6l.1-.1c0-.2 0-.2-.2-.2-1.3 0-2.5.7-2.5 1.7v3c0 .6 0 1-.6 1.4-.4.4-1 .4-1.2.4l-.2.2.2.1c1 0 1.6.6 1.7 1.2v3.3c0 .6 0 1 .7 1.5.5.4 1.4.5 1.9.5l.3-.1-.3-.2c-.8 0-1.5-.4-1.6-1.1v-3.4c0-.6-.2-.9-.6-1.3-.3-.3-.7-.4-1-.5 1-.3 1.5-1 1.5-1.7zM115.3 7.9c0-1.1 0-2.2-.5-3.1a2.4 2.4 0 0 0-2.2-1.5c-.8 0-1.8.3-2.3 1.5a7 7 0 0 0-.5 3c0 1 0 2.2.5 3.3.6 1 1.6 1.3 2.3 1.3.7 0 1.7-.3 2.3-1.5.4-1 .4-2 .4-3zm-2.7 4.2c-.6 0-1.4-.3-1.6-1.6l-.1-2.8V5.3c.3-1.6 1.3-1.7 1.7-1.7.4 0 1.3.2 1.5 1.5l.1 2.6-.1 2.8c-.2 1.2-1 1.6-1.5 1.6zM118.6 12c0-.8-.4-1.3-.9-1.3-.4 0-.7.3-.7.7 0 .4.3.7.7.7.2 0 .4 0 .5-.2v.2c0 1-.4 1.8-.8 2.2l-.2.2.2.2c.1 0 1.2-1 1.2-2.6zM125.7 3.6c0-.3 0-.3-.3-.3-.8.8-2 .8-2.4.8v.4c.2 0 1 0 1.7-.3V11c0 .4 0 .6-1.2.6h-.5v.4H127.3v-.4h-.4c-1.2 0-1.2-.2-1.2-.6zM131.3 13.7c0 .5-.3 1.3-1.8 1.4l-.1.2.2.1c1.3 0 2.6-.6 2.6-1.6v-3c0-.6 0-1 .5-1.4.5-.4 1-.4 1.3-.5l.1-.1-.2-.2c-.9 0-1.5-.5-1.7-1.1V4.2c0-.6 0-1-.6-1.5-.6-.4-1.5-.6-2-.6 0 0-.2 0-.2.2l.2.1c.8.1 1.5.5 1.7 1.2V7c0 .6 0 .8.5 1.3l1 .5c-1 .3-1.5.9-1.5 1.7zM137.8 12c0-.8-.4-1.3-.9-1.3-.4 0-.7.3-.7.7 0 .4.3.7.7.7.2 0 .3 0 .5-.2v.2c0 1-.4 1.8-.8 2.2l-.2.2c0 .1 0 .2.2.2.1 0 1.2-1 1.2-2.6zM148.3 3.4v-.2c0-.2 0-.3-.2-.3s-.3.1-.3.3l-1.1 3h-4l-1.2-3c0-.2 0-.3-.3-.3 0 0-.2.1-.2.3v.2l3.4 8.7c0 .2 0 .3.3.3l.3-.3zm-5.4 3.3h3.6l-1.8 4.7zM152.7 15.3l-.2-.3c-1.6-1.7-2-4.2-2-6.2 0-2.3.4-4.6 2-6.3l.2-.2V2c-.2 0-1.4 1-2.2 2.6-.7 1.5-.8 3-.8 4 0 1.1.1 2.7.8 4.2.8 1.7 2 2.5 2.1 2.5l.1-.1zM154.7 11.3l-.1.6c0 .2.2.4.4.4.1 0 .3-.1.4-.4l.3-1 .3-1.2.2-.9.2-.6c.2-.5.9-1.7 2.1-1.7.6 0 .8.5.8 1l-.2 1-.4 1.6-.3 1-.1.8c0 .2.1.4.3.4.4 0 .5-.4.6-.8l.8-3.2c0-.2.8-1.8 2.2-1.8.6 0 .8.5.8 1 0 .7-.6 2.2-.9 3l-.1.7c0 .6.4 1 1 1 1.3 0 1.8-1.9 1.8-2l-.2-.1-.2.2c-.2.7-.6 1.7-1.3 1.7-.3 0-.3-.2-.3-.5s0-.6.2-1c.2-.6.8-2 .8-2.8 0-.9-.5-1.5-1.5-1.5s-1.7.6-2.2 1.3c0-.1 0-.6-.4-1l-1.1-.3c-1.2 0-1.8.9-2 1.2-.1-.8-.7-1.2-1.3-1.2-.6 0-.9.6-1 .8l-.4 1.3.2.1.2-.3c.2-1 .5-1.6 1-1.6.2 0 .4.1.4.6l-.2 1.2zm13.2.8c0-.9-.4-1.4-.9-1.4-.4 0-.7.3-.7.7 0 .4.3.7.7.7.2 0 .4 0 .5-.2v.2c0 1-.4 1.8-.8 2.2l-.2.2.2.2c.1 0 1.2-1 1.2-2.6zm7-8.3c0-.3-.2-.5-.6-.5-.3 0-.7.4-.7.7 0 .3.2.5.5.5s.7-.3.7-.7zm-1 5 .2-.8.2-.7c0-.6-.4-1-1.1-1-1.2 0-1.7 1.9-1.7 2l.1.1.2-.2c.4-1.3.9-1.7 1.4-1.7 0 0 .3 0 .3.5 0 .2 0 .5-.2.6 0 .4-.7 2-.9 2.5l-.3 1c0 .7.5 1.2 1.1 1.2 1.3 0 1.8-2 1.8-2.1l-.2-.1-.2.2c-.2.9-.7 1.7-1.4 1.7-.2 0-.3-.2-.3-.5l.4-1.3zm4.4 3.3c0-.9-.3-1.4-.8-1.4s-.7.3-.7.7c0 .4.2.7.7.7.1 0 .3 0 .4-.2h.1v.2c0 1-.4 1.8-.9 2.2l-.1.2.1.2c.2 0 1.2-1 1.2-2.6zM188 9c0-2.1-1.3-2.8-2.2-2.8-1.9 0-3.6 2-3.6 3.8 0 1.3.8 2.3 2.1 2.3.9 0 1.8-.3 2.8-1.2.2.7.6 1.2 1.2 1.2.7 0 1.2-.8 1.2-1l-.2-.1-.2.1c-.2.7-.7.7-.7.7-.4 0-.4-1-.4-1.4l.1-.5a7.7 7.7 0 0 0 1.5-3l-.1-.2c-.2 0-.2 0-.2.3-.3.8-.7 1.8-1.3 2.6zm-1 1.8a4.2 4.2 0 0 1-2.7 1.2c-.7 0-1.1-.6-1.1-1.5 0-.6.3-2 .7-2.7.7-1 1.4-1.3 1.8-1.3 1.4 0 1.4 1.8 1.4 2.8v1.5zM193.2 8.2c0-.3 0-.3-.3-.3-.6.6-1.5.6-1.8.6V9c.2 0 .8 0 1.3-.3v4.7c0 .3 0 .5-.9.5h-.4v.3a48.2 48.2 0 0 1 3.3 0v-.3h-.3c-1 0-1-.2-1-.5zM199.9 8.8c0-1-.2-2.7-1-4.2-.7-1.6-1.9-2.5-2-2.5l-.1.2.2.3c1.3 1.3 2 3.4 2 6.2 0 2.3-.4 4.6-2 6.3l-.2.2.1.1c.1 0 1.3-.9 2.1-2.6.7-1.4.9-2.9.9-4zm5.7 6.5-.3-.3c-1.6-1.7-2-4.2-2-6.2 0-2.3.5-4.6 2-6.3l.3-.2c0-.1 0-.2-.2-.2-.1 0-1.3 1-2 2.6-.8 1.5-1 3-1 4 0 1.1.2 2.7 1 4.2.8 1.7 1.9 2.5 2 2.5l.2-.1zM207.5 11.3l-.1.6c0 .2.2.4.4.4.1 0 .4-.1.5-.4l.2-1 .3-1.2.3-.9.1-.6c.2-.5 1-1.7 2.2-1.7.6 0 .7.5.7 1 0 .8-.7 2.5-.9 3l-.1.7c0 .6.5 1 1.1 1 1.2 0 1.7-1.9 1.7-2l-.1-.1c-.2 0-.2 0-.2.2-.3 1-.7 1.7-1.4 1.7-.2 0-.3-.2-.3-.5l.2-1c.3-.6.8-2 .8-2.8 0-1-.5-1.5-1.5-1.5-1.2 0-1.8.9-2 1.2-.1-.7-.7-1.2-1.3-1.2-.6 0-.8.6-1 .8l-.4 1.3.2.1.2-.3c.3-1 .5-1.6 1-1.6.3 0 .4.2.4.6l-.2 1.2zm9.5.8c0-.9-.3-1.4-.8-1.4s-.7.3-.7.7c0 .4.2.7.7.7.1 0 .3 0 .4-.2h.1v.2c0 1-.4 1.8-.9 2.2l-.1.2.1.2c.2 0 1.2-1 1.2-2.6zm8.5-8.3c0-.2-.2-.5-.5-.5s-.7.3-.7.7c0 .3.2.5.5.5s.7-.3.7-.7zm-2.7 9c-.2 1-.9 1.7-1.6 1.7h-.5c.4-.2.6-.5.6-.8 0-.2-.2-.4-.5-.4-.4 0-.8.2-.8.7 0 .5.6.8 1.2.8 1 0 2.2-.7 2.5-2L225 8v-.5c0-.8-.5-1.3-1.1-1.3-1.4 0-2.1 2-2.1 2l.1.2.3-.2c.3-.9.9-1.7 1.6-1.7.2 0 .4 0 .4.6v.7zm5.6-.7c0-.9-.3-1.4-.9-1.4-.4 0-.7.3-.7.7 0 .4.3.7.7.7.2 0 .4 0 .5-.2l.1.2c0 1-.5 1.8-1 2.2v.4c.2 0 1.3-1 1.3-2.6zm9.5-3.1c0-2.1-1.2-2.8-2.2-2.8-1.8 0-3.6 2-3.6 3.8 0 1.3.8 2.3 2.2 2.3.8 0 1.8-.3 2.8-1.2.1.7.6 1.2 1.2 1.2.7 0 1.1-.8 1.1-1l-.2-.1-.1.1c-.3.7-.7.7-.8.7-.4 0-.4-1-.4-1.4l.1-.5a7.7 7.7 0 0 0 1.6-3c0-.1 0-.2-.2-.2l-.2.3c-.2.8-.7 1.8-1.3 2.6zm-.9 1.8a4.2 4.2 0 0 1-2.7 1.2c-.8 0-1.2-.6-1.2-1.5 0-.6.4-2 .8-2.7.6-1 1.3-1.3 1.8-1.3 1.3 0 1.3 1.8 1.3 2.8v1.5zM244.8 12.4h-.3l-.2.9h-2.7l1.9-1.6c.7-.5 1.3-1 1.3-2s-1-1.8-2.2-1.8c-1.1 0-1.9.8-1.9 1.7 0 .5.4.5.5.5.2 0 .5-.1.5-.5 0-.2 0-.5-.6-.5.3-.6 1-.8 1.4-.8 1 0 1.4.7 1.4 1.4 0 .9-.6 1.5-.9 1.8l-2.2 2.2-.1.4h3.8zM250 8.8c0-1-.2-2.7-1-4.2-.7-1.6-1.9-2.5-2-2.5l-.2.2.3.3c1.3 1.3 2 3.4 2 6.2 0 2.3-.4 4.6-2 6.3l-.3.2.2.1c.1 0 1.3-.9 2-2.6.8-1.4 1-2.9 1-4zM262.2 9c.2 0 .5 0 .5-.2 0-.3-.3-.3-.5-.3h-5.6c.1-1.7 1.7-3 3.5-3h2.1c.2 0 .5 0 .5-.3s-.3-.3-.5-.3h-2c-2.4 0-4.2 1.8-4.2 3.9a4 4 0 0 0 4.1 3.8h2.1c.2 0 .5 0 .5-.2 0-.3-.3-.3-.5-.3h-2c-2 0-3.5-1.3-3.6-3zM279.7 4.6c.3-.6.6-1 1.5-1.1 0 0 .2 0 .2-.3 0 0 0-.2-.2-.2h-2.4s-.2 0-.2.3l.2.2c.3 0 .8 0 .8.5l-.2.4-3.6 6.3-.5-6.6c0-.3 0-.6 1-.6.2 0 .3 0 .3-.3 0-.2-.1-.2-.2-.2h-3s-.3 0-.3.3c0 .2.2.2.4.2.5 0 .6 0 .7.3v1l-3.3 5.9-.5-6.8c0-.1 0-.4 1-.4.1 0 .3 0 .3-.3 0-.2-.2-.2-.2-.2h-3c-.1 0-.3 0-.3.3 0 .2.1.2.3.2.7 0 .7 0 .8.4l.5 8.2c0 .2 0 .3.3.3.1 0 .2 0 .3-.3l3.9-6.8.5 6.8c0 .2 0 .3.2.3s.2-.1.3-.2zM286.4 1c0-.3 0-.3.3-.3h1.5c.5.2.5.5.5.8V2.3l.1.2.2-.2.2-1.8c0-.2 0-.2-.3-.2h-5.7c-.2 0-.2 0-.3.2l-.6 1.7v.1l.1.2c.1 0 .2 0 .2-.2.6-1.5.9-1.6 2.3-1.6h.7V1l-1.3 4.9c0 .3-.1.4-1 .4-.4 0-.5 0-.5.2l.2.1h3.2s.2 0 .2-.2l-.4-.1a6 6 0 0 1-.5 0c-.4 0-.4-.1-.4-.2v-.2zm0 0"/></g></svg>