<svg xmlns="http://www.w3.org/2000/svg" width="452.7" height="17.8"><g aria-label="P X(m,i,α),x ,P Y(m,i,α),y ∈{0,1},∀(m,i)∈C,∀α∈{0,1,2,3,4},∀x∈X R,∀y∈Y R"><path d="M3.5 7.6h2.3c1.8 0 3.7-1.3 3.7-2.8 0-1-.9-2-2.6-2H2.6c-.3 0-.4 0-.4.2s0 .2.3.2h.6c.2 0 .3 0 .3.2v.3l-1.8 7.1c-.1.5-.2.6-1.2.6-.3 0-.4 0-.4.3l.2.1h3.4s.3 0 .3-.2-.1-.2-.4-.2c-.5 0-.9 0-.9-.2V11zm1-4c0-.4 0-.4.7-.4h1.2c1.1 0 1.9.3 1.9 1.2 0 .6-.3 1.7-.8 2.2a3 3 0 0 1-2 .7h-2zM15 2.8l.9-.9C17 .7 17.5.4 18.3.3c.1 0 .2 0 .2-.2l-.1-.1h-1.9c-.1 0-.2 0-.2.2v.1c.2 0 .4 0 .4.3l-.2.3-1.6 1.6-1-1.8V.6c0-.1.2-.3.5-.3 0 0 .2 0 .2-.2l-.2-.1h-2.3s-.2 0-.2.2l.3.1c.5 0 .6.1.7.3l1.3 2.6-.5.5-.8.8c-1.1 1-1.5 1.5-2.4 1.5 0 0-.2 0-.2.2l.1.1h2l.2-.1c0-.2-.1-.2-.2-.2 0 0-.3 0-.3-.2s.1-.3.4-.5l1.8-1.8 1.2 2.2c0 .1-.2.3-.5.3 0 0-.2 0-.2.2l.2.1h2.2c.1 0 .3 0 .3-.2h-.3c-.6 0-.6-.2-.7-.3zM11.3 8.5A5.6 5.6 0 0 0 9.1 13c0 1.3.4 3.4 2.2 4.7 0 0 .2 0 .2-.2h-.1c-1.2-1.2-1.7-2.8-1.7-4.5 0-2.5 1-3.7 1.7-4.4v-.1l-.1-.1zM16.2 14.7l-.1.5c0 .2.1.3.3.3.1 0 .3 0 .3-.2l.2-.5a17.1 17.1 0 0 0 .4-1.5c0-.4 0-.4.3-.7.3-.5.7-1 1.4-1 .6 0 .6.4.6.7 0 .5-.4 1.6-.6 2l-.1.4c0 .5.4.8.9.8 1 0 1.3-1.2 1.3-1.4L21 14l-.2.1c-.2.8-.6 1.2-1 1.2-.2 0-.2-.2-.2-.4l.2-.7c.1-.3.5-1.3.5-1.8 0-.1 0-.5-.4-.8l-.8-.2c-.9 0-1.4.5-1.7.9 0-.8-.7-1-1.2-1a2 2 0 0 0-1.6.9c0-.6-.6-.8-1-.8-.3 0-.6.2-.7.5l-.3.9h.1c.2 0 .2 0 .2-.2.2-.5.4-1 .7-1 .3 0 .3.2.3.5l-.1.7-.2.9-.3 1.2-.1.3c0 .2.2.3.3.3.2 0 .3 0 .4-.2l.1-.5.2-.9.2-.6c.1-.4.1-.5.4-.8.3-.4.7-.9 1.4-.9.5 0 .5.5.5.7l-.1.8zm7.3.6c0 .5 0 1.1-.7 1.7v.2c.2 0 1-.7 1-1.8 0-.6-.2-1-.7-1-.3 0-.5.2-.5.5s.2.5.5.5l.4-.1zm4.2-5.7c0-.1 0-.3-.3-.3s-.6.2-.6.5c0 .1.2.3.4.3.3 0 .5-.2.5-.5zm-1.9 4.8v.3c0 .5.3.8.8.8 1 0 1.4-1.2 1.4-1.4l-.2-.1-.2.1c-.2.8-.6 1.2-1 1.2-.1 0-.2-.1-.2-.4l.2-.5c0-.3.2-.5.3-.8l.4-1.2v-.3c0-.4-.3-.7-.8-.7-1 0-1.3 1.2-1.3 1.4H25.5c.2-.9.6-1.2 1-1.2.1 0 .2 0 .2.3 0 .2 0 .4-.3 1zm4.6.9c0 .5 0 1.1-.7 1.7v.2c.2 0 1-.7 1-1.8 0-.6-.2-1-.6-1-.4 0-.6.2-.6.5s.2.5.6.5l.3-.1zm6.3-1.2A5 5 0 0 0 38 12l-.1-.1c-.2 0-.2 0-.2.2a5 5 0 0 1-1 1.7V13c-.1-1-.8-1.5-1.7-1.5-1.4 0-2.7 1.2-2.7 2.5 0 .9.6 1.6 1.7 1.6.9 0 1.6-.4 2.2-.8.2.7.6.8 1 .8.5 0 .8-.4.8-.6l-.2-.1h-.1c-.2.4-.4.5-.5.5-.2 0-.3 0-.4-1.2zm-.7.3c-1 .8-1.7.9-2 .9-.7 0-1-.4-1-1 0-.3.1-1.3.6-2 .4-.5 1-.7 1.3-.7.7 0 1 .7 1 1.3v1.5zM39.4 8.5h-.2l.1.2c.8.8 1.7 2 1.7 4.4 0 2-.6 3.4-1.6 4.3l-.2.2.1.2c.1 0 1-.7 1.6-1.8.4-.8.7-1.8.7-2.9 0-1.3-.4-3.3-2.2-4.6zM44.7 15.3c0 .5-.1 1.1-.8 1.7v.1l.1.1c.1 0 1-.7 1-1.8 0-.6-.3-1-.7-1-.3 0-.6.2-.6.5s.2.5.6.5l.4-.1zm3.5-.8c-.1.3-.4.8-1 .8l-.4-.2c.4 0 .4-.4.4-.5 0-.2-.2-.3-.4-.3s-.5.2-.5.6c0 .4.5.6 1 .6.4 0 .8-.2 1-.6.2.5.8.6 1.1.6 1 0 1.7-1.1 1.7-1.4l-.2-.1-.2.1c-.2.7-.7 1.2-1.2 1.2-.4 0-.6-.3-.6-.6l.5-2.1c.2-.8.6-1 .9-1l.5.1c-.3.1-.4.4-.4.5 0 .2.1.4.4.4.2 0 .5-.2.5-.6 0-.5-.6-.6-1-.6-.5 0-.8.2-1 .6-.2-.4-.6-.6-1.2-.6-1 0-1.6 1-1.6 1.4h.4c.2-.8.8-1.2 1.2-1.2.3 0 .6.2.6.6l-.2 1zM55.2 11.8c0-.9-.3-1.4-.8-1.4s-.7.4-.7.7c0 .4.2.7.7.7l.5-.1v.1c0 1-.4 1.8-.9 2.2l-.1.3h.1c.2 0 1.2-1 1.2-2.5zm7.3-4.2h2.2c1.9 0 3.7-1.3 3.7-2.8 0-1-.8-2-2.6-2h-4.3c-.2 0-.4 0-.4.2s.1.2.4.2h.6c.2 0 .3 0 .3.2v.3l-1.9 7.1c0 .5-.1.6-1.2.6-.2 0-.3 0-.3.3l.2.1h3.4s.2 0 .2-.2 0-.2-.3-.2c-.5 0-1 0-1-.2l.1-.2zm1-4c0-.4 0-.4.6-.4h1.3c1.1 0 1.8.3 1.8 1.2 0 .6-.3 1.7-.8 2.2a3 3 0 0 1-2 .7h-1.9zM75.1 1.1l.6-.5.8-.3c.1 0 .3 0 .3-.2l-.2-.1H75s-.2 0-.2.2l.2.1c.2 0 .2.2.2.2v.3c-.1 0-.2 0-.2.2l-2.3 2.4L71.3.7V.5c0-.2.4-.2.5-.2 0 0 .2 0 .2-.2l-.1-.1h-2.3c-.1 0-.2 0-.2.2l.2.1c.5 0 .6.1.7.3l1.4 3.2-.4 1.7c-.1.5-.1.5-.9.5-.1 0-.2 0-.2.2l.1.1h2.4s.2 0 .2-.2h-.3l-.3-.1-.2-.1.1-.8.3-1.1.1-.3zM70.3 8.5A5.6 5.6 0 0 0 68 13c0 1.3.4 3.4 2.3 4.7 0 0 .2 0 .2-.2h-.1c-1.3-1.2-1.7-2.8-1.7-4.5 0-2.5 1-3.7 1.7-4.4v-.1l-.1-.1zM75.2 14.7l-.2.5c0 .2.2.3.3.3.2 0 .4 0 .4-.2l.2-.5a17.1 17.1 0 0 0 .3-1.5l.3-.7c.3-.5.8-1 1.5-1 .5 0 .6.4.6.7 0 .5-.4 1.6-.6 2l-.1.4c0 .5.4.8.9.8.9 0 1.3-1.2 1.3-1.4L80 14l-.2.1c-.2.8-.6 1.2-1 1.2-.2 0-.3-.2-.3-.4s0-.3.3-.7c0-.3.5-1.3.5-1.8 0-.1 0-.5-.4-.8-.1-.1-.4-.2-.9-.2-.8 0-1.3.5-1.6.9 0-.8-.7-1-1.2-1a2 2 0 0 0-1.6.9c0-.6-.6-.8-1-.8s-.6.2-.7.5l-.3.9h.1c.1 0 .2 0 .2-.2.2-.5.3-1 .7-1 .2 0 .3.2.3.5l-.1.7-.2.9-.3 1.2-.1.3c0 .2.1.3.3.3.2 0 .3 0 .3-.2l.2-.5.2-.9.2-.6c0-.4.1-.5.4-.8.2-.4.7-.9 1.4-.9.5 0 .5.5.5.7l-.2.8zm7.3.6c0 .5 0 1.1-.7 1.7v.2c.2 0 1-.7 1-1.8 0-.6-.3-1-.7-1-.3 0-.5.2-.5.5s.2.5.5.5l.4-.1zm4.2-5.7c0-.1 0-.3-.4-.3-.2 0-.5.2-.5.5 0 .1.1.3.4.3.3 0 .5-.2.5-.5zm-1.9 4.8v.3c0 .5.3.8.8.8 1 0 1.3-1.2 1.3-1.4V14l-.3.1c-.2.8-.6 1.2-1 1.2-.2 0-.2-.1-.2-.4 0-.2 0-.3.2-.5 0-.3.1-.5.3-.8l.4-1.2v-.3c0-.4-.3-.7-.8-.7-1 0-1.4 1.2-1.4 1.4h.4c.2-.9.6-1.2 1-1.2.1 0 .2 0 .2.3 0 .2 0 .4-.3 1zm4.6.9c0 .5 0 1.1-.7 1.7v.2c.2 0 1-.7 1-1.8 0-.6-.2-1-.7-1-.3 0-.5.2-.5.5s.2.5.5.5l.4-.1zm6.3-1.2a5 5 0 0 0 1.2-2.2l-.2-.1-.2.2a5 5 0 0 1-.8 1.7V13c-.2-1-1-1.5-1.8-1.5-1.4 0-2.7 1.2-2.7 2.5 0 .9.6 1.6 1.7 1.6.8 0 1.6-.4 2.1-.8.2.7.7.8 1 .8.5 0 .9-.4.9-.6l-.2-.1h-.1c-.2.4-.5.5-.6.5-.1 0-.3 0-.3-1.2zm-.7.3c-1 .8-1.7.9-2 .9-.7 0-1-.4-1-1 0-.3 0-1.3.6-2 .4-.5 1-.7 1.3-.7.7 0 1 .7 1 1.3v1.5zM98.4 8.5h-.2v.2c.9.8 1.8 2 1.8 4.4 0 2-.6 3.4-1.6 4.3l-.2.2.1.2c.1 0 1-.7 1.6-1.8.4-.8.7-1.8.7-2.9 0-1.3-.4-3.3-2.2-4.6zM103.6 15.3c0 .5 0 1.1-.7 1.7v.2c.2 0 1-.7 1-1.8 0-.6-.2-1-.6-1-.4 0-.6.2-.6.5s.2.5.6.5l.3-.1zm6.4-3.4v-.2c0-.1-.1-.3-.3-.3 0 0-.2 0-.4.3l-.1.5-.2.8-.4 1.5s-.4.8-1.1.8c-.6 0-.6-.6-.6-.8 0-.5.2-1 .4-1.8l.2-.6c0-.4-.4-.7-.9-.7-1 0-1.3 1.2-1.3 1.4H105.6c.2-.8.6-1.2 1-1.2.2 0 .2.1.2.3l-.1.6c-.4 1.1-.5 1.4-.5 1.9 0 .1 0 .5.3.9a1.5 1.5 0 0 0 2-.2 3 3 0 0 1-.7 1.4c-.2.3-.6.6-1 .6-.1 0-.6 0-.8-.3.5 0 .5-.5.5-.5 0-.3-.2-.4-.3-.4-.3 0-.6.2-.6.6 0 .5.5.8 1.2.8.9 0 2-.7 2.3-1.8zM122.2 8.8c.2 0 .5 0 .5-.3s-.3-.3-.5-.3h-5.7c.2-1.7 1.7-3 3.6-3h2c.3 0 .6 0 .6-.3 0-.2-.3-.2-.5-.2H120c-2.3 0-4 1.7-4 3.8a4 4 0 0 0 4 3.9h2c.3 0 .6 0 .6-.3s-.3-.3-.5-.3h-2c-2 0-3.5-1.3-3.7-3zm9-5.2c0-.5.3-1.3 1.8-1.4l.1-.2-.2-.1c-1.4 0-2.6.6-2.6 1.6v3c0 .6 0 1-.5 1.4-.5.4-1 .4-1.3.5l-.1.1.2.2c.9 0 1.5.5 1.7 1.1v3.3c0 .6 0 1 .6 1.5.6.4 1.4.6 2 .6.1 0 .2 0 .2-.2l-.2-.1c-.8-.1-1.5-.5-1.7-1.2v-3.4c0-.6-.1-.8-.5-1.3l-1-.5c1-.3 1.5-1 1.5-1.7zM140.2 7.6c0-1 0-2.1-.5-3.1a2.4 2.4 0 0 0-2.3-1.5c-.8 0-1.8.3-2.3 1.6a7 7 0 0 0-.5 3c0 1 0 2.2.6 3.2s1.5 1.3 2.2 1.3c.7 0 1.7-.3 2.3-1.5.4-1 .5-2 .5-3zm-2.8 4.2c-.5 0-1.3-.3-1.5-1.6-.2-.8-.2-2-.2-2.8l.1-2.4c.3-1.6 1.3-1.7 1.6-1.7.4 0 1.3.2 1.6 1.5v5.4c-.3 1.2-1 1.6-1.6 1.6zM143.4 11.8c0-.9-.3-1.4-.8-1.4s-.7.4-.7.7c0 .4.2.7.7.7l.4-.1h.1v.1c0 1-.4 1.8-.9 2.2l-.1.3h.1c.2 0 1.2-1 1.2-2.5zM150.5 3.3c0-.3 0-.3-.3-.3-.8.8-2 .8-2.4.8v.5c.3 0 1 0 1.8-.4v6.9c0 .5 0 .6-1.3.6h-.4v.4H152.2v-.4h-.4c-1.2 0-1.3-.1-1.3-.6zM156.2 13.4c0 .5-.4 1.4-1.8 1.5l-.2.1c0 .2.2.2.3.2 1.3 0 2.5-.7 2.5-1.7v-3c0-.6 0-1 .6-1.4.4-.4 1-.4 1.2-.4l.2-.2-.3-.1c-.8 0-1.5-.6-1.6-1.2V3.9c0-.6 0-1-.7-1.5-.5-.4-1.4-.5-1.9-.5l-.3.1.3.2c.8 0 1.4.4 1.6 1.1v3.4c0 .6.2.9.6 1.3.3.3.6.4 1 .5-1 .3-1.5 1-1.5 1.7zM162.6 11.8c0-.9-.3-1.4-.8-1.4s-.7.4-.7.7c0 .4.2.7.7.7l.4-.1h.1v.1c0 1-.4 1.8-.9 2.2l-.1.3h.1c.2 0 1.2-1 1.2-2.5zM173.1 3.1l.1-.2c0-.1 0-.3-.2-.3s-.3.2-.4.3l-1 3h-4.1l-1-3c-.2-.2-.2-.3-.4-.3l-.3.3.1.2 3.3 8.7c0 .2.1.3.3.3.2 0 .3-.1.3-.3zm-5.4 3.3h3.6l-1.8 4.7zM177.6 15l-.2-.3c-1.7-1.7-2.1-4.2-2.1-6.2 0-2.3.5-4.6 2.1-6.3l.2-.2-.1-.1c-.2 0-1.4.9-2.1 2.6a9.9 9.9 0 0 0 0 8.2c.8 1.6 2 2.5 2 2.5.2 0 .2 0 .2-.2zM179.5 11v.6c0 .3.1.4.3.4.2 0 .4-.1.5-.4l.2-1 .3-1.2.3-.9.1-.6c.2-.4 1-1.6 2.2-1.6.6 0 .7.4.7.9 0 .3 0 .7-.2 1l-.3 1.6-.3 1-.2.8c0 .3.2.4.4.4.4 0 .5-.4.6-.8l.8-3.2c0-.2.7-1.7 2.2-1.7.6 0 .7.4.7.9 0 .7-.6 2.3-.8 3l-.2.7c0 .6.5 1 1 1 1.3 0 1.8-1.9 1.8-2l-.1-.1c-.2 0-.2 0-.2.2-.2.7-.6 1.7-1.4 1.7-.2 0-.3-.2-.3-.4l.2-1c.3-.7.9-2.2.9-3 0-.8-.6-1.3-1.6-1.3s-1.7.5-2.1 1.3c0-.2-.1-.7-.5-1-.3-.3-.7-.3-1-.3-1.3 0-1.9.8-2.1 1.1 0-.7-.7-1.1-1.2-1.1-.7 0-1 .5-1 .7-.3.5-.4 1.3-.4 1.3l.1.1c.1 0 .2 0 .2-.3.3-1 .5-1.5 1-1.5.2 0 .4 0 .4.6l-.2 1zm13.2.8c0-.9-.3-1.4-.8-1.4s-.7.4-.7.7c0 .4.2.7.7.7l.4-.1h.1v.1c0 1-.4 1.8-.9 2.2l-.1.3h.1c.2 0 1.2-1 1.2-2.5zm7-8.3c0-.2-.2-.5-.5-.5-.4 0-.7.4-.7.8 0 .2.2.4.5.4s.7-.3.7-.7zm-1 5 .3-.7.2-.8c0-.5-.5-1-1.1-1-1.3 0-1.8 1.9-1.8 2l.2.1.2-.2c.3-1.3.9-1.6 1.3-1.6.1 0 .4 0 .4.4l-.2.7-1 2.4-.2 1c0 .7.4 1.2 1 1.2 1.3 0 1.8-2 1.8-2l-.1-.2c-.2 0-.2 0-.3.2-.2.9-.6 1.7-1.3 1.7-.2 0-.3-.2-.3-.4 0-.4 0-.6.4-1.4zM204.4 8.5c0-1-.2-2.6-1-4.1-.7-1.7-1.9-2.5-2-2.5l-.1.1.2.3c1.3 1.3 2 3.4 2 6.2 0 2.3-.4 4.6-2 6.3l-.2.2.1.2c.1 0 1.3-1 2.1-2.6.7-1.5.9-3 .9-4.1zM216.7 8.8c.2 0 .4 0 .4-.3s-.2-.3-.4-.3H211c.2-1.7 1.7-3 3.6-3h2c.3 0 .5 0 .5-.3 0-.2-.2-.2-.4-.2h-2.1c-2.3 0-4.1 1.7-4.1 3.8a4 4 0 0 0 4 3.9h2.2c.2 0 .4 0 .4-.3s-.2-.3-.4-.3h-2.1c-1.9 0-3.4-1.3-3.6-3zM232 2.6l-.1-.1-.2.1-1 1c0-.1-.7-1.1-2.2-1.1-3 0-6 3-6 6 0 2.2 1.7 3.6 3.7 3.6 1.1 0 2.1-.5 2.8-1.1 1.3-1.1 1.5-2.3 1.5-2.4l-.1-.1-.2.1c-.1.4-.4 1.4-1.4 2.1-.9.8-1.7 1-2.4 1-1.2 0-2.6-.7-2.6-2.7 0-.8.3-3 1.6-4.5.8-1 2-1.6 3.2-1.6 1.4 0 2.2 1 2.2 2.5v.7l.1.2c.2 0 .2 0 .3-.3zm2.3 9.2c0-.9-.3-1.4-.9-1.4-.4 0-.7.4-.7.7 0 .4.3.7.7.7l.5-.1.1.1c0 1-.5 1.8-.9 2.2l-.1.3c.2 0 1.3-1 1.3-2.5zM244.8 3.1l.1-.2c0-.1 0-.3-.2-.3s-.3.2-.4.3l-1 3h-4.1l-1-3c-.2-.2-.2-.3-.4-.3l-.3.3.1.2 3.3 8.7c0 .2.1.3.3.3.2 0 .3-.1.3-.3zm-5.4 3.3h3.6l-1.8 4.7zM251.2 8.7c0-2-1.2-2.7-2.2-2.7-1.8 0-3.5 1.9-3.5 3.7 0 1.3.7 2.3 2.1 2.3.8 0 1.8-.3 2.8-1.1.2.7.6 1 1.2 1 .7 0 1.1-.6 1.1-.9l-.1-.1-.2.1c-.2.7-.7.7-.7.7-.5 0-.5-1-.5-1.4 0-.3 0-.3.2-.4a7.7 7.7 0 0 0 1.5-3.2h-.2l-.2.2c-.2.8-.6 1.8-1.3 2.6zm-.8 1.8a4.2 4.2 0 0 1-2.8 1.2c-.8 0-1.2-.6-1.2-1.5 0-.6.4-2 .8-2.7.6-1 1.3-1.2 1.8-1.2 1.3 0 1.3 1.7 1.3 2.7v1.5zM264.4 8.8c.2 0 .5 0 .5-.3s-.3-.3-.5-.3h-5.6c.2-1.7 1.7-3 3.5-3h2.1c.2 0 .5 0 .5-.3 0-.2-.3-.2-.5-.2h-2c-2.4 0-4.2 1.7-4.2 3.8a4 4 0 0 0 4.1 3.9h2.1c.2 0 .5 0 .5-.3s-.3-.3-.5-.3h-2c-2 0-3.4-1.3-3.6-3zm9-5.2c0-.5.4-1.3 1.8-1.4l.1-.2-.2-.1c-1.3 0-2.6.6-2.6 1.6v3c0 .6 0 1-.5 1.4-.5.4-1 .4-1.3.5v.1l.1.2c1 0 1.6.5 1.7 1.1v3.3c0 .6 0 1 .7 1.5.5.4 1.4.6 1.9.6.1 0 .2 0 .2-.2l-.2-.1c-.8-.1-1.5-.5-1.6-1.2v-3.4c0-.6-.2-.8-.6-1.3l-1-.5c1-.3 1.5-1 1.5-1.7zM282.4 7.6c0-1 0-2.1-.5-3.1a2.4 2.4 0 0 0-2.2-1.5c-.8 0-1.8.3-2.4 1.6a7 7 0 0 0-.5 3c0 1 .1 2.2.6 3.2.6 1 1.6 1.3 2.2 1.3.8 0 1.8-.3 2.4-1.5.4-1 .4-2 .4-3zm-2.8 4.2c-.5 0-1.3-.3-1.5-1.6l-.1-2.8V5c.3-1.6 1.3-1.7 1.6-1.7.5 0 1.4.2 1.6 1.5l.1 2.6-.1 2.8c-.2 1.2-1 1.6-1.6 1.6zM285.7 11.8c0-.9-.4-1.4-.9-1.4-.4 0-.7.4-.7.7 0 .4.3.7.7.7l.5-.1v.1c0 1-.4 1.8-.8 2.2l-.2.3h.2c.1 0 1.2-1 1.2-2.5zM292.8 3.3c0-.3 0-.3-.3-.3-.8.8-2 .8-2.4.8v.5c.2 0 1 0 1.7-.4v6.9c0 .5 0 .6-1.2.6h-.5v.4H294.4v-.4h-.4c-1.2 0-1.2-.1-1.2-.6zM298.2 11.8c0-.9-.3-1.4-.8-1.4s-.7.4-.7.7c0 .4.2.7.7.7l.4-.1.1.1c0 1-.4 1.8-.9 2.2l-.1.3h.1c.2 0 1.2-1 1.2-2.5zM303.1 10.8l1.4-1.4c2-1.8 2.9-2.5 2.9-3.8 0-1.6-1.2-2.6-2.8-2.6a2.4 2.4 0 0 0-2.5 2.4c0 .7.6.7.7.7.2 0 .7-.1.7-.7 0-.3-.3-.7-.7-.7h-.2a2 2 0 0 1 1.8-1.3c1.2 0 1.8 1 1.8 2.2 0 1-.7 2-1.4 2.9l-2.6 2.8-.1.5h5l.3-2.3h-.4l-.2 1.2-1.3.1zM310.8 11.8c0-.9-.4-1.4-.9-1.4-.4 0-.7.4-.7.7 0 .4.3.7.7.7l.5-.1v.1c0 1-.4 1.8-.8 2.2l-.2.3h.1c.2 0 1.3-1 1.3-2.5zM317.8 7.2c1.1-.4 1.9-1.3 1.9-2.4 0-1-1.2-1.8-2.5-1.8s-2.3.8-2.3 1.8c0 .4.3.7.7.7.4 0 .6-.3.6-.7 0-.7-.6-.7-.8-.7.4-.6 1.3-.8 1.8-.8s1.2.3 1.2 1.5c0 .2 0 1-.3 1.5-.4.7-.9.7-1.2.7h-.5c-.1 0-.2 0-.2.2s0 .2.3.2h.6c1 0 1.6.9 1.6 2.2 0 1.8-1 2.2-1.5 2.2-.6 0-1.6-.3-2-1 .4 0 .8-.3.8-.8s-.3-.7-.7-.7c-.4 0-.8.2-.8.7 0 1.3 1.3 2.1 2.7 2.1 1.6 0 2.8-1.2 2.8-2.5 0-1.1-.8-2.2-2.2-2.4zM323.3 11.8c0-.9-.3-1.4-.8-1.4s-.8.4-.8.7c0 .4.3.7.8.7l.4-.1.1.1c0 1-.5 1.8-.9 2.2l-.1.3c.2 0 1.3-1 1.3-2.5zM330.4 9.6v1.2c0 .5 0 .6-1 .6h-.3v.4h3.6v-.4h-.3c-1 0-1-.1-1-.6V9.6h1.4v-.4h-1.4v-6c0-.3 0-.4-.2-.4l-.2.2-4.1 6.2v.4zm.1-.4h-3.2l3.2-5zM336 13.4c0 .5-.3 1.4-1.8 1.5v.1c0 .2 0 .2.2.2 1.3 0 2.5-.7 2.5-1.7v-3c0-.6 0-1 .6-1.4.4-.4 1-.4 1.2-.4l.1-.2-.2-.1c-.9 0-1.5-.6-1.6-1.2V3.9c0-.6 0-1-.7-1.5-.5-.4-1.5-.5-2-.5l-.2.1.2.2c.9 0 1.5.4 1.7 1.1v3.4c0 .6.1.9.6 1.3.2.3.6.4 1 .5-1.1.3-1.6 1-1.6 1.7zM342.5 11.8c0-.9-.3-1.4-.9-1.4-.4 0-.7.4-.7.7 0 .4.3.7.7.7l.5-.1.1.1c0 1-.5 1.8-.9 2.2l-.1.3c.2 0 1.3-1 1.3-2.5zM353 3.1V3c0-.1 0-.3-.2-.3l-.3.3-1 3h-4.1l-1.1-3-.3-.3c-.2 0-.3.2-.3.3V3l3.4 8.7c0 .2.1.3.3.3.2 0 .2-.1.3-.3zm-5.4 3.3h3.6l-1.8 4.7zM357.5 7.8c0-.3.4-1.5 1.3-1.5l.7.1c-.4 0-.6.4-.6.7 0 .3.1.5.5.5.3 0 .7-.2.7-.8 0-.7-.8-.8-1.3-.8-.7 0-1.2.7-1.3 1-.4-1-1-1-1.5-1-1.4 0-2.1 1.7-2.1 2l.1.1.2-.1c.5-1.4 1.3-1.7 1.8-1.7.2 0 .7 0 .7.8l-.7 3.2c-.2.8-.7 1.4-1.3 1.4 0 0-.4 0-.6-.2.3 0 .6-.3.6-.7 0-.4-.3-.5-.5-.5-.4 0-.7.4-.7.8 0 .6.6.9 1.2.9.9 0 1.4-1 1.4-1 .2.5.6 1 1.4 1 1.4 0 2.2-1.7 2.2-2 0-.2-.2-.2-.2-.2l-.2.1c-.4 1.5-1.3 1.8-1.7 1.8-.6 0-.8-.4-.8-.9l.3-1.2zM371.6 8.8c.3 0 .5 0 .5-.3s-.2-.3-.5-.3H366c.2-1.7 1.7-3 3.6-3h2c.3 0 .5 0 .5-.3 0-.2-.2-.2-.5-.2h-2c-2.3 0-4.1 1.7-4.1 3.8a4 4 0 0 0 4 3.9h2.1c.3 0 .5 0 .5-.3s-.2-.3-.5-.3h-2c-2 0-3.4-1.3-3.6-3zM383.3 6.4l-1-2.7-.1-.2s.2-.3.8-.3c0 0 .2 0 .2-.3l-.2-.1H380c-.1 0-.3 0-.3.2s.1.2.3.2c.8 0 .9.1 1 .4l1.6 3.7-2.8 3-.2.2c-.6.7-1.3.9-2 1-.1 0-.2 0-.2.2l.1.1h2.8s.2 0 .2-.2-.1-.2-.2-.2c0 0-.5 0-.5-.4 0-.2.2-.4.4-.6l1.3-1.4 1.2-1.3 1.4 3.1v.2c0 .1-.2.4-.7.4-.2 0-.3 0-.3.3l.2.1H386.3c.1 0 .3 0 .3-.2s-.1-.2-.2-.2c-1 0-1 0-1.2-.6l-1.7-4 2.7-3c.4-.3 1-.6 1.7-.6.2 0 .3 0 .3-.3l-.2-.1h-2.7s-.2 0-.2.2l.1.2c.1 0 .5 0 .5.4 0 .2 0 .3-.2.5zM392.8.6c0-.2 0-.2.3-.3h.6c.8 0 2 0 2 1 0 .4-.3 1-.7 1.3-.4.3-1 .4-1.6.4h-1.2zm1.7 2.6c1-.3 2-1 2-1.8s-.9-1.4-2.2-1.4h-2.9c-.2 0-.3 0-.3.2l.3.1h.4c.2 0 .2 0 .2.2v.2l-1.3 5c0 .2 0 .3-.8.3-.2 0-.3 0-.3.2l.2.1h2.4l.2-.1c0-.2-.1-.2-.3-.2h-.4c-.2 0-.2 0-.2-.2v-.2l.6-2.3h1.3c.8 0 1.1.4 1.1.8v.7l-.2.7c0 .7.6 1 1.3 1 .9 0 1.2-.9 1.2-1l-.1-.2c-.1 0-.2 0-.2.2-.1.4-.5.8-.8.8-.3 0-.5-.1-.5-.6l.1-1v-.4c0-.1 0-.4-.2-.7l-.6-.4zM400.4 11.8c0-.9-.4-1.4-.9-1.4-.4 0-.7.4-.7.7 0 .4.3.7.7.7l.5-.1v.1c0 1-.4 1.8-.8 2.2l-.2.3h.2c.1 0 1.2-1 1.2-2.5zM410.9 3.1V3c0-.1 0-.3-.2-.3s-.3.2-.3.3l-1.1 3h-4l-1.2-3c0-.2 0-.3-.3-.3l-.2.3V3l3.4 8.7c0 .2 0 .3.3.3l.3-.3zm-5.4 3.3h3.6l-1.8 4.7zM417.4 6.8v-.3c0-.3-.1-.4-.3-.4-.2 0-.4 0-.5.3l-.2.7-.2 1-.6 2.4c0 .3-.7 1.2-1.5 1.2-.7 0-.9-.6-.9-1 0-.7.3-1.5.7-2.7l.3-1c0-.5-.4-1-1.1-1-1.3 0-1.8 1.9-1.8 2l.2.1.2-.2c.4-1.3.9-1.6 1.3-1.6.2 0 .4 0 .4.4l-.2 1a8.7 8.7 0 0 0-.8 2.7c0 1.2.8 1.6 1.6 1.6.5 0 1-.2 1.3-.6-.1.7-.3 1.3-.8 2-.4.5-.9.9-1.5.9-.2 0-.8 0-1-.6.2 0 .4 0 .6-.2.1 0 .3-.2.3-.5 0-.4-.4-.5-.5-.5-.3 0-.8.3-.8.9 0 .7.6 1.1 1.4 1.1 1.4 0 2.8-1.2 3.1-2.7zM429 8.8c.1 0 .4 0 .4-.3s-.3-.3-.5-.3h-5.6c.1-1.7 1.7-3 3.5-3h2.1c.2 0 .5 0 .5-.3 0-.2-.3-.2-.5-.2h-2c-2.4 0-4.2 1.7-4.2 3.8a4 4 0 0 0 4.1 3.9h2.1c.2 0 .5 0 .5-.3s-.3-.3-.5-.3h-2c-2 0-3.5-1.3-3.6-3zM442.1 4.3l.2-.2c.4-.4.8-.9 1.7-1 .2 0 .3 0 .3-.2l-.2-.1h-2.4s-.2 0-.2.2 0 .2.2.2c0 0 .4 0 .4.3l-.3.6-3.1 3.6-1.5-4v-.2c0-.3.6-.3.7-.3.2 0 .4 0 .4-.3l-.2-.1h-3.2s-.3 0-.3.2.2.2.3.2c.8 0 .9 0 1 .4l1.7 4.4v.2l-.6 2.4c-.2.8-.2.8-1.2.8-.3 0-.4 0-.4.3l.2.1h3.4s.2 0 .2-.2-.1-.2-.4-.2h-.5c-.2 0-.3 0-.3-.2l.2-.9.4-1.8c0-.3.1-.3.2-.4zM448.7.6c0-.2 0-.2.3-.3h.6c.8 0 1.9 0 1.9 1 0 .4-.2 1-.6 1.3-.4.3-1 .4-1.6.4H448zm1.7 2.6c1-.3 2-1 2-1.8s-.9-1.4-2.2-1.4h-2.9c-.2 0-.3 0-.3.2l.3.1h.4c.2 0 .2 0 .2.2v.2l-1.3 5c0 .2 0 .3-.8.3-.2 0-.3 0-.3.2l.2.1H448l.1-.1c0-.2 0-.2-.3-.2h-.3c-.2 0-.2 0-.2-.2v-.2l.6-2.3h1.3c.8 0 1.1.4 1.1.8l-.1.7-.2.7c0 .7.7 1 1.4 1 .9 0 1.2-.9 1.2-1l-.1-.2c-.2 0-.2 0-.2.2-.1.4-.5.8-.9.8-.2 0-.4-.1-.4-.6l.1-1v-.4c0-.1 0-.4-.2-.7l-.6-.4zm0 0"/></g></svg>