<svg xmlns="http://www.w3.org/2000/svg" width="311.5" height="19.8"><g aria-label="T Q(m,i) ,T Y(m,i) ,T Start (m,i,α) ≥0,∀(m,i)∈C,∀α∈{1,2,3,4}"><path d="M5.4 4.9c0-.4.1-.5.3-.5h.8c1.3 0 2 0 2 1l-.2 1v.3c0 .1 0 .2.2.2l.2-.3.3-2.3V4c0-.2 0-.2-.3-.2H1.3C1 4 1 4 1 4.2L0 6.5l-.1.3.2.1.2-.3c.7-2 1-2.3 3-2.3H4c.4 0 .4 0 .4.2v.3l-1.8 7c-.1.6-.2.7-1.6.7-.5 0-.6 0-.6.3l.3.1H5c.2 0 .3 0 .3-.3H5l-.9-.1c-.4 0-.5-.1-.5-.3v-.3zM13.6 7c0 .7.1 1.3.9 1.3 1.1 0 1.7-1.6 1.7-1.8H15.9c-.2.7-.8.9-1.2.9-.3 0-.5-.2-.7-1 1.7-.5 3-2.2 3-3.8C17 1 16 0 14.3 0 12.1 0 10 2 10 4.2c0 1.5 1.1 2.5 2.7 2.5l1-.1zM12 6.4c-.5-.2-1.2-.7-1.2-1.9 0-.6.2-1.8 1-2.9.7-.7 1.6-1.2 2.4-1.2 1 0 2 .7 2 2 0 1-.6 3-2.3 3.8-.1-.6-.3-1-.9-1-.5 0-1 .5-1 1v.2zm1.6 0-.9.1c-.1 0-.5 0-.5-.3 0-.4.4-.7.8-.7.3 0 .6.1.6.9zM10.7 10.5A5.6 5.6 0 0 0 8.5 15c0 1.3.4 3.4 2.2 4.7.1 0 .2 0 .2-.2v-.1c-1.3-1.1-1.7-2.7-1.7-4.4 0-2.5 1-3.7 1.7-4.4v-.1l-.2-.1zM15.6 16.7v.5c0 .2 0 .3.2.3s.3 0 .4-.2l.2-.5a17.1 17.1 0 0 0 .3-1.5l.3-.7c.3-.5.8-1 1.5-1 .5 0 .5.4.5.7 0 .5-.4 1.5-.5 2l-.1.4c0 .5.4.8.8.8 1 0 1.4-1.2 1.4-1.4l-.2-.1-.2.1c-.2.8-.6 1.2-1 1.2l-.2-.4.2-.7c.2-.3.5-1.3.5-1.8 0-.1 0-.5-.3-.8-.2-.1-.4-.3-.9-.3-.8 0-1.3.6-1.6 1-.1-.8-.8-1-1.2-1a2 2 0 0 0-1.6.9c0-.7-.6-.9-1-.9s-.6.3-.7.5l-.4 1h.2l.2-.2c.1-.6.3-1 .7-1 .2 0 .3.2.3.4l-.2.8-.2.9-.3 1.2v.3c0 .2.1.3.3.3.1 0 .3 0 .3-.2l.2-.5.2-.9.2-.6c0-.4 0-.5.3-.8.3-.4.7-1 1.4-1 .6 0 .6.6.6.8l-.2.8zm7.4.6c0 .5-.1 1-.7 1.7l-.1.1.1.1c.2 0 1-.7 1-1.8 0-.6-.3-1-.7-1-.3 0-.5.2-.5.5s.2.5.5.5l.4-.1zm4.2-5.7c0-.1-.1-.3-.4-.3-.2 0-.5.2-.5.5 0 .1.1.3.4.3.2 0 .5-.2.5-.5zm-2 4.7v.4c0 .5.4.8.9.8 1 0 1.3-1.2 1.3-1.4l-.1-.1-.2.1c-.2.8-.6 1.2-1 1.2-.2 0-.2-.1-.2-.4l.1-.6.3-.7.5-1.2v-.3c0-.4-.3-.8-.8-.8-1 0-1.4 1.3-1.4 1.5H25c.3-.9.7-1.2 1-1.2.2 0 .3 0 .3.3 0 .2 0 .4-.3 1zM28.8 10.5h-.2v.2c.9.8 1.8 2 1.8 4.4 0 2-.6 3.4-1.6 4.3l-.2.2.1.2c.1 0 1-.7 1.6-1.8.4-.8.7-1.8.7-2.9 0-1.3-.4-3.3-2.2-4.6zM35.5 12.9c0-.9-.4-1.4-.9-1.4-.4 0-.7.3-.7.7 0 .4.3.7.7.7.2 0 .3 0 .5-.2v.2c0 1-.4 1.8-.8 2.2l-.2.2.1.2c.2 0 1.3-1 1.3-2.6zm8.8-8c.1-.4.2-.5.3-.5h.9c1.3 0 1.9 0 1.9 1l-.1 1v.3l.1.2c.1 0 .2-.1.2-.3l.4-2.3V4c0-.2-.1-.2-.4-.2h-7.3c-.4 0-.4 0-.5.3L39 6.5v.3l.1.1c.2 0 .2 0 .2-.3.8-2 1.1-2.3 3-2.3h.6c.4 0 .4 0 .4.2l-.1.3-1.8 7c0 .6-.1.7-1.6.7-.4 0-.5 0-.5.3l.2.1H44c.1 0 .3 0 .3-.3h-.5l-.8-.1c-.4 0-.5-.1-.5-.3v-.3zM54.6 2.2l.5-.5c.4-.3.8-.3.9-.3 0 0 .2 0 .2-.2l-.1-.1h-1.8l-.1.2.1.1c.3 0 .3.1.3.2l-.1.2-.2.2L52 4.5l-1.2-2.8-.1-.1c0-.2.4-.2.5-.2.1 0 .2 0 .2-.2l-.1-.1H49s-.2 0-.2.2l.3.1c.5 0 .5 0 .6.3l1.5 3.2-.4 1.7c-.2.5-.2.5-1 .5 0 0-.2 0-.2.2l.2.1h2.4s.2 0 .2-.2l-.3-.1h-.4c-.2 0-.2 0-.2-.2l.2-.7.3-1.1v-.3zM49.7 9.6a5.6 5.6 0 0 0-2.2 4.6c0 1.3.4 3.3 2.2 4.6h.2v-.2c-1.3-1.1-1.8-2.7-1.8-4.4 0-2.5 1-3.7 1.7-4.4l.1-.1-.2-.1zM54.6 15.8l-.1.5c0 .2.1.3.3.3.2 0 .3-.1.3-.2l.2-.6a17.1 17.1 0 0 0 .4-1.4c0-.4 0-.4.3-.7.3-.5.7-1 1.5-1 .5 0 .5.4.5.6 0 .6-.4 1.6-.5 2l-.2.5c0 .5.4.8.9.8 1 0 1.3-1.3 1.3-1.4l-.1-.1-.2.1c-.2.8-.6 1.2-1 1.2-.2 0-.2-.2-.2-.4l.2-.7c.1-.3.5-1.3.5-1.8 0-.2 0-.5-.3-.8-.2-.1-.5-.3-1-.3-.7 0-1.3.6-1.5 1-.1-.8-.8-1-1.3-1a2 2 0 0 0-1.5.9c0-.7-.6-.9-1-.9s-.6.3-.8.5l-.3 1h.2l.2-.2c.1-.6.3-1 .7-1 .2 0 .3.2.3.4l-.2.8-.2.9-.3 1.2v.3c0 .2 0 .3.2.3l.4-.2.2-.6.2-.8.1-.6c.1-.4.1-.5.4-.9.3-.3.7-.8 1.4-.8.5 0 .5.5.5.6l-.1 1zm7.4.6c0 .5-.1 1-.8 1.7v.2c.2 0 1-.7 1-1.8 0-.6-.2-1-.6-1-.3 0-.6.2-.6.5s.2.5.6.5l.4-.1zm4.2-5.7c0-.1-.1-.3-.4-.3-.3 0-.5.2-.5.5 0 .1 0 .3.3.3s.6-.2.6-.5zm-2 4.7v.4c0 .5.4.8.9.8.9 0 1.3-1.3 1.3-1.4l-.1-.1-.2.1c-.2.8-.6 1.2-1 1.2-.2 0-.3-.1-.3-.4l.2-.6.3-.7.5-1.2v-.3c0-.4-.4-.8-.9-.8-.9 0-1.3 1.3-1.3 1.5H63.9c.2-.9.7-1.2 1-1.2.2 0 .2 0 .2.3 0 .2 0 .4-.3 1zM67.8 9.6h-.2v.2c.9.7 1.7 2 1.7 4.4 0 2-.6 3.4-1.6 4.3l-.1.2v.1c.2 0 1-.6 1.7-1.7.4-.8.7-1.8.7-2.9 0-1.3-.4-3.3-2.2-4.6zM74.4 12.9c0-.9-.3-1.4-.8-1.4s-.7.3-.7.7c0 .4.2.7.7.7.1 0 .3 0 .4-.2h.1v.2c0 1-.4 1.8-.9 2.2l-.1.2.1.2c.2 0 1.2-1 1.2-2.6zm8.9-8c0-.4.1-.5.3-.5h.8c1.4 0 2 0 2 1 0 .2 0 .7-.2 1v.3c0 .1 0 .2.2.2l.2-.3.3-2.3V4c0-.2 0-.2-.3-.2h-7.4c-.3 0-.3 0-.4.3L78 6.5V7c.2 0 .2 0 .3-.3.7-2 1-2.3 3-2.3h.6c.3 0 .3 0 .3.2v.3l-1.8 7c-.1.6-.2.7-1.6.7-.5 0-.5 0-.5.3l.2.1H83s.3 0 .3-.3h-.5l-.8-.1c-.4 0-.5-.1-.5-.3v-.3zM92.4 5.7C92.4 5 92 4.1 91 4l-1.3-.3c-.9-.2-1.1-.8-1.1-1.2 0-.6.6-1.2 1.4-1.2 1.2 0 1.8.8 2 1.8l.1.2c.2 0 .2 0 .2-.3V1.1c0-.1 0-.2-.2-.2L92 1l-.4.5C91 1 90.2 1 90 1c-1.2 0-2 .8-2 1.8 0 .5.2.9.6 1.2.3.4.6.4 1.6.7.9.1 1 .2 1.3.4.3.3.4.6.4 1 0 .6-.5 1.3-1.4 1.3-.9 0-2.1-.4-2.2-1.8l-.1-.2c-.2 0-.2 0-.2.3v1.8l.1.2h.2l.3-.6c.6.5 1.3.6 2 .6 1.1 0 2-.9 2-1.9zm4.2.6v-.6h-.3v.5c0 .7-.3 1-.7 1-.6 0-.6-.8-.6-1V3.9h1.4v-.4H95V1.7h-.3c0 .9-.4 1.8-1.3 1.8v.3h.8v2.5c0 1 .8 1.2 1.3 1.2.7 0 1-.5 1-1.2zm5.7.3V6h-.3v.5s0 .5-.4.5c-.3 0-.3-.4-.3-.5V4.9c0-.5 0-.8-.4-1.2a2 2 0 0 0-1.4-.4c-.9 0-1.5.3-1.5.9 0 .3.2.4.4.4.3 0 .5-.1.5-.4 0-.2-.1-.3-.4-.4.4-.3 1-.3 1-.3.5 0 1 .4 1 1.2V5c-.4 0-1 0-1.7.3-.9.3-1.1.8-1.1 1.2 0 .8 1 1 1.6 1 .7 0 1.2-.4 1.4-.8 0 .4.3.8.7.8 0 0 1 0 1-1zm-1.7-.5c0 1-.8 1.2-1.2 1.2-.5 0-1-.4-1-.8 0-.5.5-1.2 2.2-1.3zm5.7-2.2c0-.3-.3-.6-.7-.6-.5 0-1 .3-1.3 1v-1l-1.3.1v.4c.6 0 .7 0 .7.5v2.4c0 .4 0 .4-.7.4v.3h2.3v-.3h-.2c-.7 0-.7-.1-.7-.4V5.3c0-.8.4-1.7 1.2-1.7l-.1.3c0 .3.2.5.4.5s.4-.2.4-.5zm3.9 2.4v-.6h-.3v.5c0 .7-.3 1-.7 1-.6 0-.6-.8-.6-1V3.9h1.4v-.4h-1.4V1.7h-.4c0 .9-.4 1.8-1.2 1.8v.3h.8v2.5c0 1 .8 1.2 1.3 1.2.6 0 1-.5 1-1.2zM88.7 9.7a5.6 5.6 0 0 0-2.2 4.7c0 1.3.3 3.3 2.2 4.6h.2l-.1-.2C87.6 17.7 87 16 87 14.4c0-2.5 1-3.7 1.7-4.4v-.1l-.1-.2zM93.6 16l-.2.5c0 .2.2.3.4.3l.3-.2.2-.6a17.1 17.1 0 0 0 .4-1.4c0-.4 0-.4.2-.7.3-.5.8-1 1.5-1 .5 0 .6.4.6.6 0 .6-.4 1.6-.6 2l-.1.5c0 .5.4.8.9.8 1 0 1.3-1.3 1.3-1.4l-.1-.1-.2.1c-.2.8-.6 1.1-1 1.1-.2 0-.2 0-.2-.3l.2-.7c0-.3.5-1.3.5-1.8 0-.2 0-.6-.4-.8-.1-.2-.4-.3-.8-.3-.9 0-1.4.6-1.7 1 0-.8-.7-1-1.2-1a2 2 0 0 0-1.6.9c0-.7-.6-.9-1-.9-.3 0-.6.3-.7.5l-.3 1h.1c.2 0 .2 0 .2-.2.2-.6.4-1 .7-1 .3 0 .3.2.3.4l-.1.8-.2.8-.3 1.2-.1.4c0 .2.1.3.3.3l.4-.2.1-.6.2-.8.2-.6c.1-.4.1-.5.4-.9.2-.3.7-.8 1.4-.8.5 0 .5.5.5.6l-.1.9zm7.3.6c0 .5 0 1-.7 1.7v.2c.2 0 1-.7 1-1.8 0-.6-.2-1-.7-1-.3 0-.5.2-.5.5s.2.5.5.5l.4-.1zm4.2-5.7c0-.1 0-.3-.3-.3s-.6.2-.6.5c0 .1.2.3.4.3.3 0 .5-.2.5-.5zm-1.9 4.7v.4c0 .4.3.8.8.8 1 0 1.4-1.3 1.4-1.4l-.2-.1-.2.1c-.2.8-.6 1.1-1 1.1-.1 0-.2 0-.2-.3l.2-.6.3-.7.4-1.2v-.3c0-.4-.3-.8-.8-.8-1 0-1.3 1.3-1.3 1.4l.1.2c.1 0 .2 0 .2-.2.2-.8.6-1.1 1-1.1.1 0 .2 0 .2.3 0 .2 0 .4-.3 1zm4.6 1c0 .5 0 1-.7 1.7v.2c.2 0 1-.7 1-1.8 0-.6-.2-1-.7-1-.3 0-.5.2-.5.5s.2.5.5.5l.4-.1zm6.3-1.2a5 5 0 0 0 1.2-2.2l-.2-.1-.1.2a5 5 0 0 1-1 1.7V14c-.1-.9-.8-1.5-1.7-1.5-1.4 0-2.7 1.3-2.7 2.6 0 .8.6 1.6 1.7 1.6.9 0 1.6-.4 2.1-.8.3.7.7.8 1 .8.6 0 .9-.4.9-.6 0-.2-.1-.2-.2-.2l-.1.1c-.2.4-.4.4-.6.4 0 0-.3 0-.3-1.1zm-.7.3c-1 .8-1.7.8-2 .8-.7 0-1-.4-1-1 0-.3.1-1.3.6-2 .4-.5 1-.6 1.3-.6.7 0 1 .7 1 1.3v1.5zM116.8 9.7s-.2 0-.2.2l.1.1c.8.7 1.7 2 1.7 4.4 0 2-.6 3.4-1.6 4.3l-.2.2.1.1c.1 0 1-.6 1.6-1.7.4-.8.7-1.8.7-3s-.4-3.3-2.2-4.6zM133.4 8.6c.2 0 .3-.2.3-.3 0-.1 0-.2-.3-.3l-7.3-3.4-.3-.1c-.1 0-.2 0-.2.2s0 .3.2.3l7 3.3-7 3.3c-.2.1-.2.2-.2.3 0 .1 0 .3.2.3l.3-.1zm-.2 6.1c.2 0 .5 0 .5-.2 0-.3-.3-.3-.5-.3H126c-.2 0-.4 0-.4.3 0 .2.2.2.4.2zM144.6 8.7c0-1.1 0-2.2-.6-3.1a2.4 2.4 0 0 0-2.2-1.5c-.8 0-1.8.3-2.3 1.5a7 7 0 0 0-.5 3c0 1 0 2.3.6 3.3s1.5 1.3 2.2 1.3c.7 0 1.7-.3 2.3-1.5.4-1 .5-2 .5-3zm-2.8 4.2c-.5 0-1.3-.3-1.6-1.6l-.1-2.8.1-2.4c.3-1.6 1.2-1.7 1.6-1.7.4 0 1.3.2 1.5 1.5.2.8.2 1.8.2 2.6 0 1 0 1.9-.2 2.8-.2 1.2-1 1.6-1.5 1.6zM147.8 12.9c0-.9-.3-1.4-.8-1.4s-.7.3-.7.7c0 .4.2.7.7.7.1 0 .3 0 .4-.2l.1.2c0 1-.4 1.8-.9 2.2l-.1.2.1.2c.2 0 1.2-1 1.2-2.6zM158.3 4.2l.1-.2c0-.2-.1-.3-.3-.3l-.3.3-1 3h-4.1l-1.1-3c0-.2-.1-.3-.3-.3-.1 0-.3.1-.3.3v.2l3.4 8.7c0 .2.1.3.3.3.2 0 .3-.1.3-.3zM153 7.5h3.6l-1.8 4.7zM162.8 16.1l-.2-.3c-1.7-1.7-2.1-4.2-2.1-6.2 0-2.3.5-4.6 2.1-6.3l.2-.2-.1-.2c-.2 0-1.4 1-2.1 2.6a9.9 9.9 0 0 0 0 8.2c.8 1.7 2 2.5 2 2.5l.2-.1zM164.7 12.1v.6c0 .2.1.4.3.4.2 0 .4-.1.5-.4l.2-1 .3-1.2.3-.9.1-.6c.2-.5 1-1.7 2.2-1.7.6 0 .7.5.7 1 0 .3 0 .7-.2 1l-.3 1.6-.3 1-.2.8c0 .2.2.4.4.4.4 0 .5-.4.6-.8l.8-3.2c0-.2.7-1.8 2.2-1.8.5 0 .7.5.7 1 0 .7-.6 2.2-.8 3-.2.3-.2.4-.2.7 0 .6.5 1 1 1 1.3 0 1.8-1.9 1.8-2l-.1-.1c-.2 0-.2 0-.2.2-.2.7-.7 1.7-1.4 1.7-.2 0-.3-.2-.3-.5l.2-1c.3-.6.8-2 .8-2.8 0-.9-.5-1.5-1.5-1.5s-1.7.6-2.1 1.3c0-.1-.1-.6-.5-1-.3-.2-.7-.3-1-.3-1.3 0-1.9.9-2.1 1.2-.1-.8-.7-1.2-1.3-1.2-.6 0-.8.6-1 .8l-.3 1.3.1.1c.1 0 .2 0 .2-.3.3-1 .5-1.6 1-1.6.2 0 .4.1.4.6l-.2 1.2zm13.2.8c0-.9-.3-1.4-.8-1.4s-.7.3-.7.7c0 .4.2.7.7.7.1 0 .3 0 .4-.2h.1v.2c0 1-.4 1.8-.9 2.2l-.1.2.1.2c.2 0 1.2-1 1.2-2.6zm7-8.3c0-.2-.2-.5-.5-.5-.4 0-.7.4-.7.7 0 .3.2.5.5.5s.7-.3.7-.7zm-1 5 .3-.8.1-.7c0-.6-.4-1-1-1-1.3 0-1.8 1.9-1.8 2l.2.1.2-.2c.3-1.3.8-1.7 1.3-1.7.1 0 .3 0 .3.5l-.1.6-1 2.5-.2 1c0 .7.4 1.2 1 1.2 1.3 0 1.8-2 1.8-2 0-.2-.1-.2-.2-.2l-.2.2c-.2.9-.6 1.7-1.3 1.7-.2 0-.3-.2-.3-.5s0-.5.4-1.3zM189.5 9.6c0-1-.1-2.7-.8-4.2-.8-1.6-2-2.5-2.1-2.5l-.1.2.2.3c1.3 1.3 2 3.4 2 6.2 0 2.3-.4 4.6-2 6.3l-.2.2v.1c.2 0 1.4-.9 2.2-2.6.7-1.4.8-2.9.8-4zM201.8 9.9c.3 0 .5 0 .5-.3s-.2-.3-.5-.3h-5.6c.2-1.7 1.7-3 3.6-3h2c.3 0 .5 0 .5-.3s-.2-.3-.5-.3h-2c-2.3 0-4.1 1.8-4.1 3.9a4 4 0 0 0 4 3.8h2.1c.3 0 .5 0 .5-.2 0-.3-.2-.3-.5-.3h-2c-2 0-3.4-1.3-3.6-3zM217.2 3.7l-.1-.1-.2.1-1 1c0-.2-.7-1.1-2.2-1.1-3 0-6 2.9-6 6 0 2.2 1.6 3.6 3.7 3.6 1.1 0 2.1-.5 2.8-1.1 1.3-1.1 1.5-2.3 1.5-2.4l-.2-.1-.1.1c-.2.4-.5 1.4-1.4 2.1-.9.8-1.7 1-2.4 1-1.2 0-2.6-.7-2.6-2.8 0-.7.3-2.9 1.6-4.4.8-1 2-1.6 3.2-1.6 1.4 0 2.2 1 2.2 2.5v.7l.1.1c.2 0 .2 0 .3-.2zm2.3 9.2c0-.9-.4-1.4-.9-1.4-.4 0-.7.3-.7.7 0 .4.3.7.7.7.2 0 .4 0 .5-.2l.1.2c0 1-.5 1.8-1 2.2v.4c.2 0 1.3-1 1.3-2.6zM230 4.2l.1-.2c0-.2-.1-.3-.3-.3l-.3.3-1 3h-4.1l-1.1-3c0-.2-.1-.3-.3-.3-.1 0-.3.1-.3.3v.2l3.4 8.7c0 .2.1.3.3.3.2 0 .3-.1.3-.3zm-5.4 3.3h3.6l-1.8 4.7zM236.4 9.8c0-2.1-1.2-2.8-2.2-2.8-1.8 0-3.6 2-3.6 3.8 0 1.3.8 2.3 2.2 2.3.8 0 1.8-.3 2.8-1.2.2.7.6 1.2 1.2 1.2.7 0 1.1-.8 1.1-1l-.2-.1-.1.1c-.3.7-.7.7-.8.7-.4 0-.4-1-.4-1.4 0-.3 0-.3.2-.5a7.7 7.7 0 0 0 1.5-3c0-.1 0-.2-.2-.2l-.2.3c-.2.8-.7 1.8-1.3 2.6zm-.9 1.8a4.2 4.2 0 0 1-2.7 1.2c-.8 0-1.2-.6-1.2-1.5 0-.6.4-2 .8-2.7.6-1 1.3-1.3 1.8-1.3 1.3 0 1.3 1.8 1.3 2.8v1.5zM249.6 9.9c.2 0 .5 0 .5-.3s-.3-.3-.5-.3H244c.1-1.7 1.7-3 3.5-3h2.1c.2 0 .5 0 .5-.3s-.3-.3-.5-.3h-2c-2.4 0-4.2 1.8-4.2 3.9a4 4 0 0 0 4.1 3.8h2.1c.2 0 .5 0 .5-.2 0-.3-.3-.3-.5-.3h-2c-2 0-3.5-1.3-3.6-3zm9-5.2c0-.5.4-1.4 1.8-1.5l.1-.1c0-.2 0-.2-.2-.2-1.3 0-2.6.7-2.6 1.7v3c0 .6 0 1-.5 1.4-.5.4-1 .4-1.3.4v.2l.1.1c1 0 1.5.6 1.7 1.2v3.3c0 .6 0 1 .7 1.5.5.4 1.4.5 1.9.5l.2-.1-.2-.2c-.8 0-1.5-.4-1.6-1.1v-3.4c0-.6-.2-.9-.6-1.3-.3-.3-.7-.4-1-.5 1-.3 1.5-1 1.5-1.7zM265.4 4.4c0-.3 0-.3-.3-.3-.8.8-2 .8-2.4.8v.4c.3 0 1 0 1.7-.3v6.9c0 .4 0 .6-1.2.6h-.4v.4H267v-.4h-.4c-1.2 0-1.3-.1-1.3-.6zM270.9 12.9c0-.9-.4-1.4-.9-1.4-.4 0-.7.3-.7.7 0 .4.3.7.7.7.2 0 .3 0 .5-.2v.2c0 1-.4 1.8-.8 2.2l-.2.2.1.2c.2 0 1.3-1 1.3-2.6zM275.7 11.9l1.5-1.4c2-1.8 2.8-2.5 2.8-3.9 0-1.5-1.2-2.5-2.8-2.5a2.4 2.4 0 0 0-2.5 2.4c0 .7.7.7.7.7.3 0 .7-.1.7-.7 0-.3-.2-.7-.7-.7h-.2a2 2 0 0 1 1.8-1.3c1.2 0 1.8 1 1.8 2.1s-.6 2.2-1.4 3l-2.5 2.8c-.2.2-.2.2-.2.5h5l.3-2.3h-.3l-.3 1.2-1.3.1zM283.4 12.9c0-.9-.3-1.4-.8-1.4s-.8.3-.8.7c0 .4.3.7.8.7.1 0 .3 0 .4-.2l.1.2c0 1-.5 1.8-.9 2.2l-.1.2v.2c.2 0 1.3-1 1.3-2.6zM290.5 8.2c1-.3 1.8-1.3 1.8-2.3 0-1.1-1.1-1.8-2.4-1.8-1.4 0-2.4.8-2.4 1.8 0 .4.3.7.7.7.4 0 .7-.3.7-.7 0-.7-.7-.7-.8-.7.4-.6 1.2-.8 1.7-.8.6 0 1.3.3 1.3 1.5 0 .2 0 1-.4 1.5-.4.6-.8.7-1.2.7h-.5s-.2 0-.2.2l.3.1h.6c1.1 0 1.6 1 1.6 2.2 0 1.8-1 2.2-1.5 2.2-.6 0-1.6-.2-2-1 .4.1.9-.2.9-.7 0-.5-.4-.7-.8-.7-.3 0-.7.1-.7.7 0 1.2 1.2 2.1 2.6 2.1 1.7 0 2.9-1.2 2.9-2.6 0-1-.9-2-2.2-2.4zM296 12.9c0-.9-.4-1.4-1-1.4-.3 0-.6.3-.6.7 0 .4.3.7.7.7.1 0 .3 0 .5-.2v.2c0 1-.4 1.8-.9 2.2v.4c.2 0 1.3-1 1.3-2.6zM303 10.7V12c0 .5 0 .6-1 .6h-.2v.4h3.6v-.4h-.3c-1 0-1-.1-1-.6v-1.2h1.3v-.4h-1.3v-6c0-.3 0-.4-.2-.4-.1 0-.2 0-.3.2l-4 6.2v.4zm.1-.4H300l3.2-5zM308.7 14.5c0 .5-.4 1.4-1.8 1.4l-.1.2.2.1c1.3 0 2.5-.6 2.6-1.6v-3c0-.6 0-1 .5-1.4.4-.4 1-.4 1.2-.5l.2-.1-.3-.2c-.8 0-1.5-.5-1.6-1.1V5c0-.6 0-1-.7-1.5-.5-.4-1.4-.6-1.9-.6 0 0-.2 0-.2.2l.2.1c.8.1 1.5.5 1.6 1.2v3.4c0 .6.2.8.6 1.3.3.3.7.4 1 .5-1 .3-1.5 1-1.5 1.7zm0 0"/></g></svg>