<svg xmlns="http://www.w3.org/2000/svg" width="244.2" height="31.4"><g aria-label="∑ l∈B ∑(n,j)∈D∪{0} Z(m,i)(n,j),l =1,∀(m,i)∈L"><path d="m16.2 18.6 1.6-4.3h-.4c-.5 1.4-1.9 2.3-3.4 2.7-.3 0-1.6.4-4.1.4h-8l6.7-7.9.1-.2v-.2L2.3.6h7.3c1.8 0 3 .2 3.1.2.8.2 2 .4 3 1 .3.3 1.2.9 1.6 2h.4L16.2 0H0v.5l7 9.6-6.9 8.1-.1.3h.4zM2 22.4V22.1l-1.3.1s-.2 0-.2.3h.3c.4 0 .4.1.4.2v.2L0 27.5v.3c0 .6.5.9 1 .9.2 0 .5 0 .7-.5l.3-1H2l-.2.2c-.1.4-.3 1-.7 1-.2 0-.3-.2-.3-.4v-.4zM8.6 26.5c.2 0 .4 0 .4-.2 0-.3-.2-.3-.4-.3H4.3A2.6 2.6 0 0 1 7 23.7h1.6c.2 0 .4 0 .4-.2 0-.3-.2-.3-.4-.3H7a3.1 3.1 0 0 0-3.2 3A3 3 0 0 0 7 29.4h1.6c.2 0 .4 0 .4-.2 0-.3-.2-.3-.4-.3H7c-1.4 0-2.6-1-2.7-2.3zM11.8 27.9c-.1.3-.1.4-.9.4-.1 0-.2 0-.2.2l.2.1h3.6c1.6 0 2.8-1 2.8-2 0-.7-.6-1.2-1.6-1.3 1.1-.2 2-1 2-1.7s-.6-1.3-1.8-1.3h-3.4c-.2 0-.3 0-.3.2h.3l.3.1.2.1v.2zm1.4-2.7.6-2.3c0-.3.1-.3.5-.3h1.4c1 0 1.2.6 1.2 1 0 .7-.9 1.6-2.1 1.6zm-.4 3h-.3V28l.7-2.6h2c.8 0 1.2.6 1.2 1.2 0 .9-1 1.7-2.1 1.7zM59.2 18.6l1.6-4.3h-.3c-.6 1.4-2 2.3-3.5 2.7-.3 0-1.6.4-4.1.4h-8l6.7-7.9.1-.2v-.2L45.5.6h7.2c1.8 0 3 .2 3.2.2.7.2 1.8.4 2.9 1 .3.3 1.2.9 1.7 2h.3L59.2 0H43v.5l7 9.6-6.8 8.1-.2.3h.4zM24 22.1a5.6 5.6 0 0 0-2.2 4.7c0 1.3.4 3.3 2.3 4.6h.1v-.2c-1.3-1.1-1.7-2.7-1.7-4.4 0-2.5 1-3.7 1.7-4.4v-.1l-.1-.2zM26 28.5v.4c0 .2.1.3.3.3l.3-.2.2-.6.2-.8.2-.6c0-.4 0-.5.3-.9.3-.3.8-.8 1.4-.8.6 0 .6.5.6.6 0 .6-.4 1.6-.6 2l-.1.5c0 .5.4.8.9.8 1 0 1.3-1.3 1.3-1.4l-.1-.1-.2.1c-.2.8-.6 1.1-1 1.1-.2 0-.2 0-.2-.3l.2-.7c.1-.3.5-1.3.5-1.8 0-1-.7-1-1.2-1a2 2 0 0 0-1.6.8c0-.7-.6-.9-1-.9s-.6.3-.7.5l-.4 1h.2l.2-.2c.1-.6.3-1 .7-1 .2 0 .3.2.3.4s0 .6-.2.8l-.2.8zm7.4.5c0 .5 0 1-.7 1.7v.2c.2 0 1-.7 1-1.8 0-.6-.2-1-.6-1-.4 0-.6.2-.6.5s.2.5.6.5l.3-.1zm5.3-5.7c0-.2-.1-.3-.4-.3-.2 0-.5.2-.5.5 0 .1.1.3.4.3.2 0 .5-.2.5-.5zm-2 6.3c-.1.6-.6 1.2-1.2 1.2l-.3-.1c.2-.1.3-.3.3-.5s-.2-.3-.3-.3c-.3 0-.6.2-.6.5 0 .4.4.6 1 .6.5 0 1.6-.3 1.9-1.5l.8-3.3V26c0-.5-.4-.9-1-.9-1 0-1.6 1.3-1.6 1.4 0 .2.2.2.2.2l.2-.2c.2-.6.7-1.1 1.2-1.1.3 0 .4.1.4.4v.3zM40.4 22.1s-.2 0-.2.2h.1c.8.8 1.7 2 1.7 4.5 0 2-.6 3.4-1.6 4.3l-.2.2.1.1c.1 0 1-.6 1.6-1.7.5-.8.7-1.8.7-3s-.4-3.3-2.2-4.6zM49.5 27c.1 0 .4 0 .4-.2s-.3-.2-.4-.2h-4.3a2.6 2.6 0 0 1 2.7-2.4h1.6c.1 0 .4 0 .4-.2s-.3-.2-.4-.2h-1.6a3.1 3.1 0 0 0-3.2 3 3 3 0 0 0 3.2 3h1.6c.1 0 .4 0 .4-.2s-.3-.2-.4-.2h-1.6c-1.5 0-2.6-1-2.7-2.4zM52.6 28.4c0 .3 0 .4-.8.4-.2 0-.3 0-.3.2l.3.1h3.3c2.1 0 4-1.9 4-4 0-1.3-.9-2.3-2.4-2.3h-3.4c-.2 0-.3 0-.3.2l.3.1h.4c.2 0 .2 0 .2.2v.2zm2.1-5c0-.3 0-.3.5-.3h1.2c1 0 1.9.5 1.9 1.8a5 5 0 0 1-1 2.9c-.4.4-1.2 1-2.3 1h-1.3l-.3-.1v-.2zM66.3 23.9c0-.1 0-.4-.3-.4-.2 0-.2.2-.2.4v3.3c0 .3 0 .8-.8 1.3-.5.3-1.2.3-1.6.3-.8 0-1.4-.2-1.6-.3-.7-.4-.8-.8-.8-1.3V24c0-.1 0-.4-.2-.4s-.2.2-.2.4v3.3c0 1.6 1.6 2.1 2.8 2.1 1.2 0 2.9-.5 2.9-2zm3.8-.4c0-.2 0-.5.3-.7.2-.3.6-.4 1-.4l.2-.1c0-.2-.1-.2-.3-.2-1 0-2 .5-2 1.2v2.2c0 .2 0 .5-.3.8-.2.2-.5.3-1 .4H68l.1.2c1.1 0 1.3.7 1.4 1V30c0 .2 0 .7.4 1a3 3 0 0 0 1.5.3l.3-.1-.2-.1c-.9 0-1.2-.5-1.3-.8V28c0-.2 0-.6-.3-.8-.1-.2-.3-.4-.8-.5.3-.1 1-.4 1-1v-.4zM77.2 26.1c0-1 0-1.7-.5-2.4A2 2 0 0 0 75 23c-2.2 0-2.2 2.6-2.2 3.2 0 .7 0 3.2 2.2 3.2 2.1 0 2.1-2.5 2.1-3.2zm-2.1 3c-.4 0-1-.3-1.2-1l-.1-2 .1-2c.2-.7.8-.9 1.2-.9.5 0 1 .3 1.1.9.2.5.2 1.1.2 2l-.1 1.9c-.2.8-.8 1-1.2 1zM80.8 28c0-.2 0-.5.3-.7.2-.2.5-.4 1-.4l.2-.1-.2-.1c-1-.1-1.3-.8-1.3-1v-2.2c0-.2 0-.7-.5-1-.5-.3-1.2-.4-1.5-.4 0 0-.2 0-.2.2h.2c.8.1 1.2.6 1.3 1v2.2c0 .2 0 .6.2.8l.9.5c-.4 0-1 .3-1.1 1V30c0 .2 0 .5-.3.7-.3.3-.6.3-1 .4l-.2.1.2.1c1 0 2-.4 2-1.1zM95 3.9v-.2c0-.2 0-.2-.3-.2H89c-.4 0-.4 0-.5.3L88 6.2v.2l.1.1.2-.1c.5-1.6 1.2-2.4 3.3-2.4h2.1l-7.4 8.3v.2l.3.1h5.8c.3 0 .3 0 .4-.2l1-3v-.2l-.2-.1-.2.3c-.6 1.8-1.2 2.8-3.5 2.8h-2.3zM97.8 8a5.6 5.6 0 0 0-2.3 4.7c0 1.3.4 3.3 2.3 4.6h.1V17c-1.3-1.1-1.7-2.7-1.7-4.4 0-2.5 1-3.7 1.7-4.4v-.1l-.1-.2zM102.6 14.3v.5c0 .2 0 .3.2.3l.4-.2.2-.6a17.1 17.1 0 0 0 .3-1.4l.3-.7c.3-.5.8-1 1.5-1 .5 0 .6.4.6.6 0 .6-.5 1.6-.6 2l-.1.5c0 .5.4.8.8.8 1 0 1.4-1.3 1.4-1.4l-.2-.1-.1.1c-.2.8-.7 1.1-1 1.1-.2 0-.3 0-.3-.3 0-.2 0-.3.3-.7 0-.3.5-1.3.5-1.8 0-.2 0-.6-.4-.8-.2-.2-.4-.3-.9-.3-.8 0-1.3.6-1.6 1 0-.8-.7-1-1.2-1a2 2 0 0 0-1.6.9c0-.7-.6-.9-1-.9s-.6.3-.7.5l-.3 1h.1l.2-.2c.2-.6.3-1 .7-1 .2 0 .3.2.3.4l-.1.8-.2.8-.3 1.2-.1.4c0 .2.1.3.3.3l.3-.2.2-.6.2-.8.2-.6c0-.4 0-.5.4-.9.2-.3.7-.8 1.3-.8.6 0 .6.5.6.6l-.2.9zm7.4.6c0 .5 0 1-.7 1.7h-.1l.1.2c.2 0 1-.7 1-1.8 0-.6-.3-1-.7-1-.3 0-.5.2-.5.5s.2.5.5.5l.4-.1zm4.2-5.7c0-.1-.1-.3-.4-.3-.2 0-.5.2-.5.5 0 .1.1.3.4.3.2 0 .5-.2.5-.5zm-2 4.7v.4c0 .4.4.8 1 .8.8 0 1.2-1.3 1.2-1.4l-.1-.1-.2.1c-.2.8-.6 1.1-1 1.1-.2 0-.2 0-.2-.3l.1-.6.3-.7.5-1.2v-.3c0-.4-.3-.8-.8-.8-1 0-1.4 1.3-1.4 1.4 0 .2.1.2.2.2l.1-.2c.3-.8.7-1.1 1-1.1.2 0 .3 0 .3.3 0 .2 0 .4-.3 1zM115.8 8s-.2 0-.2.2l.1.1c.8.7 1.7 2 1.7 4.4 0 2-.6 3.4-1.6 4.3l-.2.2.1.1c.1 0 1-.6 1.6-1.7.4-.8.7-1.8.7-3s-.4-3.3-2.2-4.6zm6.6 0a5.6 5.6 0 0 0-2.2 4.7c0 1.3.4 3.3 2.2 4.6h.2l-.1-.2c-1.2-1.1-1.7-2.7-1.7-4.4 0-2.5 1-3.7 1.7-4.4v-.1l-.1-.2zM124.4 14.4l-.1.4c0 .2.2.3.3.3l.4-.2.1-.6.2-.8.2-.6c.1-.4.1-.5.4-.9.3-.3.7-.8 1.4-.8.5 0 .5.5.5.6 0 .6-.4 1.6-.5 2l-.2.5c0 .5.5.8 1 .8.9 0 1.3-1.3 1.3-1.4l-.2-.1-.1.1c-.3.8-.7 1.1-1 1.1-.2 0-.3 0-.3-.3l.2-.7c.2-.3.5-1.3.5-1.8 0-1-.7-1-1.2-1a2 2 0 0 0-1.5.8c-.1-.7-.7-.9-1-.9-.4 0-.7.3-.8.5l-.3 1h.1c.2 0 .2 0 .3-.2 0-.6.3-1 .6-1s.3.2.3.4l-.1.8-.2.8zm7.4.5c0 .5-.1 1-.7 1.7h-.1l.1.2c.2 0 1-.7 1-1.8 0-.6-.3-1-.7-1-.3 0-.5.2-.5.5s.2.5.5.5l.4-.1zm5.3-5.7c0-.2-.2-.3-.4-.3-.3 0-.5.2-.5.5 0 .1 0 .3.3.3s.6-.2.6-.5zm-2 6.3c-.2.6-.7 1.2-1.2 1.2l-.3-.1c.2-.1.3-.3.3-.5s-.2-.3-.4-.3c-.3 0-.5.2-.5.5 0 .4.3.6.9.6.6 0 1.6-.3 2-1.5l.8-3.3v-.3c0-.5-.4-.9-1-.9-1 0-1.6 1.3-1.6 1.4 0 .2.1.2.2.2l.1-.2c.3-.5.7-1.1 1.3-1.1.2 0 .3.1.3.4v.3zM138.7 8l-.1.2v.1c.9.7 1.7 2 1.7 4.4 0 2-.6 3.4-1.6 4.3l-.1.2v.1c.2 0 1-.6 1.7-1.7.4-.8.7-1.8.7-3s-.4-3.3-2.3-4.6zM144 14.9c0 .5 0 1-.7 1.7v.2c.2 0 1-.7 1-1.8 0-.6-.2-1-.7-1-.3 0-.5.2-.5.5s.2.5.5.5l.4-.1zm3.8-6V8.5h-1.3s-.2 0-.2.3l.3.1.4.1v.2l-1.2 4.6v.3c0 .6.5 1 1 1 .2 0 .5-.2.7-.6.2-.3.3-.9.3-1h-.1c-.1 0-.2 0-.2.2-.1.4-.3 1-.7 1-.2 0-.3-.2-.3-.4V14zM162.1 8.3c.2 0 .5 0 .5-.3s-.3-.3-.5-.3h-8c-.1 0-.4 0-.4.3s.3.3.5.3zm0 2.6c.2 0 .5 0 .5-.3s-.3-.3-.5-.3h-8c-.1 0-.4 0-.4.3s.3.3.5.3zM171 4c0-.3 0-.3-.3-.3-.8.8-2 .8-2.4.8V5c.2 0 1 0 1.7-.3v6.9c0 .4 0 .6-1.2.6h-.5v.4H172.5v-.4h-.4c-1.2 0-1.2-.1-1.2-.6zM176.3 12.6c0-.9-.3-1.4-.8-1.4-.4 0-.7.3-.7.7 0 .4.3.7.7.7.1 0 .3 0 .5-.2v.2c0 1-.4 1.8-.9 2.2l-.1.2.1.2c.2 0 1.2-1 1.2-2.6zM186.9 3.9v-.2c0-.2 0-.3-.2-.3s-.3.2-.3.3l-1.1 3h-4l-1.2-3c0-.2-.1-.3-.3-.3-.1 0-.3.1-.3.3l.1.2 3.3 8.7.3.3c.2 0 .3-.1.3-.3zm-5.5 3.3h3.6l-1.8 4.7zM191.3 15.8l-.2-.3c-1.7-1.7-2.1-4.2-2.1-6.2 0-2.3.5-4.6 2.1-6.3l.2-.2-.1-.2c-.1 0-1.3 1-2.1 2.6a9.9 9.9 0 0 0 0 8.2c.8 1.7 2 2.5 2 2.5l.2-.1zM193.3 11.8l-.2.6c0 .2.2.4.4.4s.4-.1.5-.4l.3-1 .3-1.2.2-.9.2-.6c.2-.5.9-1.7 2.1-1.7.6 0 .7.5.7 1 0 .3 0 .7-.2 1l-.3 1.6-.3 1-.2.8c0 .2.2.4.4.4.4 0 .5-.4.6-.8l.8-3.2c0-.2.8-1.8 2.2-1.8.6 0 .7.5.7 1 0 .7-.5 2.2-.8 3l-.2.7c0 .6.5 1 1.1 1 1.3 0 1.8-1.9 1.8-2l-.2-.1-.2.2c-.2.7-.6 1.7-1.4 1.7-.2 0-.3-.2-.3-.5l.3-1c.2-.6.8-2 .8-2.8 0-.9-.6-1.5-1.6-1.5s-1.6.6-2.1 1.3c0-.1 0-.6-.4-1l-1.1-.3c-1.2 0-1.9.9-2.1 1.2 0-.8-.6-1.2-1.2-1.2s-.9.6-1 .8l-.4 1.3.1.1c.2 0 .2 0 .3-.3.2-1 .5-1.6 1-1.6.1 0 .4.1.4.6l-.3 1.2zm13.2.8c0-.9-.4-1.4-.9-1.4-.4 0-.7.3-.7.7 0 .4.3.7.7.7.2 0 .3 0 .5-.2v.2c0 1-.4 1.8-.8 2.2l-.2.2.1.2c.2 0 1.3-1 1.3-2.6zm7-8.3c0-.2-.3-.5-.6-.5s-.7.4-.7.7c0 .3.2.5.5.5s.7-.3.7-.7zm-1 5 .2-.8.2-.7c0-.6-.5-1-1.1-1-1.3 0-1.8 1.9-1.8 2l.2.1.2-.2c.3-1.3.9-1.7 1.3-1.7.1 0 .4 0 .4.5l-.2.6c0 .4-.7 2-.9 2.5l-.3 1c0 .7.5 1.2 1.1 1.2 1.2 0 1.7-2 1.7-2l-.1-.2c-.2 0-.2 0-.2.2-.3.9-.7 1.7-1.4 1.7-.2 0-.3-.2-.3-.5s0-.5.4-1.3zM218 9.3c0-1 0-2.7-.8-4.2-.8-1.6-2-2.5-2-2.5l-.2.2.3.3c1.3 1.3 2 3.4 2 6.2 0 2.3-.5 4.6-2.1 6.3l-.2.2.1.1c.2 0 1.4-.9 2.1-2.5.7-1.5.9-3 .9-4.1zM230.4 9.6c.2 0 .4 0 .4-.3s-.2-.3-.4-.3h-5.7c.2-1.7 1.7-3 3.6-3h2c.3 0 .5 0 .5-.3s-.2-.3-.4-.3h-2.1c-2.3 0-4.1 1.8-4.1 3.9a4 4 0 0 0 4 3.8h2.2c.2 0 .4 0 .4-.2 0-.3-.2-.3-.4-.3h-2.1c-1.9 0-3.4-1.3-3.6-3zM240.6 4.6c.1-.5.2-.6 1.4-.6.4 0 .5 0 .5-.3 0-.2-.1-.2-.2-.2h-3.7c-.1 0-.3 0-.3.3 0 .2.1.2.4.2h.5c.2 0 .4 0 .4.2l-.1.2-1.8 7.2c-.1.5-.1.6-1.2.6-.2 0-.3 0-.3.3l.3.1h6.2c.3 0 .3 0 .4-.2l1-2.9V9.2c-.2 0-.2 0-.3.3-.5 1.2-1 2.7-3.3 2.7h-1.6l-.2-.1.1-.3zm0 0"/></g></svg>