<svg xmlns="http://www.w3.org/2000/svg" width="394.5" height="29.3"><g aria-label="P Y(m,i,4),y =P Y(n,j,0),y ,∑ l∈B Z(m,i)(n,j),l =1,∀(m,i),(n,j)∈C,∀y∈Y R"><path d="M3.5 8.4h2.3c1.8 0 3.7-1.4 3.7-2.8 0-1-.9-2-2.6-2H2.6c-.3 0-.4 0-.4.2s0 .2.3.2h.6c.2 0 .3 0 .3.2v.2l-1.8 7.2c-.1.5-.2.6-1.2.6-.3 0-.4 0-.4.3l.2.1h3.4s.3 0 .3-.2-.1-.2-.4-.2c-.5 0-.9 0-.9-.2v-.3zm1-4c0-.4 0-.4.7-.4h1.2c1.1 0 1.9.3 1.9 1.2 0 .6-.3 1.7-.8 2.2a3 3 0 0 1-2 .7h-2zM16.1 1.9l.6-.5c.4-.3.7-.3.9-.3 0 0 .2 0 .2-.2l-.2-.1H16s-.2 0-.2.2l.2.1c.3 0 .3.1.3.2l-.2.2-.1.2-2.3 2.5-1.3-2.8v-.1c0-.2.4-.2.5-.2.1 0 .2 0 .2-.2L13 .8h-2.3c-.1 0-.2 0-.2.2l.2.1c.6 0 .6.1.7.3l1.4 3.2-.4 1.7c-.1.5-.1.5-.8.5-.2 0-.3 0-.3.2l.1.1h2.4s.2 0 .2-.2l-.3-.1h-.3c-.2 0-.2 0-.2-.2l.1-.7.3-1.1c0-.2 0-.2.2-.3zM11.3 9.3A5.6 5.6 0 0 0 9 13.9c0 1.3.3 3.3 2.2 4.6h.2l-.1-.2c-1.2-1.1-1.7-2.7-1.7-4.4 0-2.5 1-3.7 1.7-4.4v-.1l-.1-.1zM16.2 15.5l-.1.5c0 .2.1.3.3.3l.3-.2.2-.6a17.1 17.1 0 0 0 .4-1.4c0-.4 0-.4.3-.7.3-.5.7-1 1.4-1 .6 0 .6.4.6.6 0 .6-.4 1.6-.6 2l-.1.5c0 .5.4.8.9.8 1 0 1.3-1.3 1.3-1.4l-.1-.1-.2.1c-.2.8-.6 1.2-1 1.2-.2 0-.2-.2-.2-.4l.2-.7c.1-.3.5-1.3.5-1.8 0-.2 0-.5-.4-.8-.1-.1-.4-.3-.8-.3-.9 0-1.4.6-1.7 1 0-.8-.7-1-1.2-1a2 2 0 0 0-1.6.9c0-.7-.6-.9-1-.9-.3 0-.6.3-.7.5l-.3 1h.1c.2 0 .2 0 .2-.2.2-.6.4-1 .7-1 .3 0 .3.2.3.4l-.1.8-.2.9-.3 1.2-.1.3c0 .2.2.3.3.3l.4-.2.1-.6.2-.8.2-.6c.1-.4.1-.5.4-.9.3-.3.7-.8 1.4-.8.5 0 .5.5.5.6l-.1 1zm7.3.6c0 .5 0 1-.7 1.7v.2c.2 0 1-.7 1-1.8 0-.6-.2-1-.7-1-.3 0-.5.2-.5.5s.2.5.5.5l.4-.1zm4.2-5.7c0-.1 0-.3-.3-.3s-.6.2-.6.5c0 .1.2.3.4.3.3 0 .5-.2.5-.5zm-1.9 4.7v.4c0 .5.3.8.8.8 1 0 1.4-1.3 1.4-1.4l-.2-.1-.2.1c-.2.8-.6 1.2-1 1.2-.1 0-.2-.1-.2-.4l.2-.6.3-.7.4-1.2V13c0-.4-.3-.8-.8-.8-1 0-1.3 1.3-1.3 1.5H25.5c.2-.9.6-1.2 1-1.2.1 0 .2 0 .2.3 0 .2 0 .4-.3 1zm4.6 1c0 .5 0 1-.7 1.7v.2c.2 0 1-.7 1-1.8 0-.6-.2-1-.6-1-.4 0-.6.2-.6.5s.2.5.6.5l.3-.1zM36.6 14.7v-.3h-1v-4.2c0-.2 0-.2-.3-.2h-.2L32 14.5v.3h2.7v.8c0 .3 0 .4-.7.4h-.3v.3a51.5 51.5 0 0 1 2.8 0V16h-.2c-.8 0-.8-.1-.8-.4v-.8ZM34.8 11v3.4h-2.5zm3-1.7h-.2v.2c.9.7 1.8 2 1.8 4.4 0 2-.6 3.4-1.6 4.3l-.2.2.1.1c.1 0 1-.6 1.6-1.7.4-.8.7-1.8.7-2.9 0-1.3-.4-3.3-2.2-4.6zM43 16c0 .6 0 1.2-.7 1.8v.2c.2 0 1-.7 1-1.8 0-.6-.2-1-.6-1-.3 0-.6.2-.6.5s.2.5.6.5l.4-.1zm6.4-3.3v-.2c0-.2-.1-.3-.3-.3 0 0-.2 0-.3.3l-.2.5-.2.8-.4 1.5s-.4.8-1.1.8c-.6 0-.6-.6-.6-.8 0-.5.2-1.1.5-1.8l.1-.6c0-.4-.4-.8-.9-.8-.9 0-1.3 1.3-1.3 1.5H45c.2-.9.6-1.2 1-1.2.2 0 .2.1.2.3v.6c-.5 1-.6 1.4-.6 1.8 0 .2 0 .6.3 1a1.5 1.5 0 0 0 2-.2 3 3 0 0 1-.6 1.4c-.3.3-.7.6-1.2.6 0 0-.5 0-.7-.3.5 0 .5-.5.5-.6 0-.3-.2-.3-.3-.3-.2 0-.5.2-.5.6 0 .5.4.8 1 .8 1 0 2.1-.7 2.4-1.9zM63.4 8.3c.2 0 .5 0 .5-.3s-.3-.3-.4-.3h-8c-.2 0-.4 0-.4.3s.2.3.4.3zm0 2.6c.2 0 .5 0 .5-.3s-.3-.3-.5-.3h-7.9c-.2 0-.4 0-.4.3s.2.3.4.3zM72.4 8.4h2.2c2 0 3.8-1.4 3.8-2.8 0-1-1-2-2.7-2h-4.3c-.2 0-.4 0-.4.2s.2.2.4.2h.6c.2 0 .3 0 .3.2v.2l-1.9 7.2c0 .5-.1.6-1.2.6-.2 0-.3 0-.3.3l.2.1h3.4s.2 0 .2-.2 0-.2-.3-.2c-.5 0-.9 0-.9-.2v-.3zm1-4c0-.4 0-.4.6-.4h1.3c1.1 0 1.8.3 1.8 1.2 0 .6-.2 1.7-.8 2.2a3 3 0 0 1-2 .7h-1.9zM85 1.9l.6-.5c.4-.3.7-.3.8-.3.1 0 .2 0 .2-.2V.8h-1.8s-.2 0-.2.2l.2.1c.2 0 .2.1.2.2v.2l-.2.2-2.4 2.5-1.2-2.8v-.1c0-.2.4-.2.4-.2.2 0 .3 0 .3-.2l-.2-.1h-2.2c-.1 0-.2 0-.2.2l.2.1c.5 0 .6.1.7.3l1.4 3.2-.4 1.7c-.1.5-.1.5-.9.5-.1 0-.2 0-.2.2l.1.1h2.4s.2 0 .2-.2l-.3-.1h-.4c-.1 0-.2 0-.2-.2l.2-.7.3-1.1.1-.3zM80.2 9.3a5.6 5.6 0 0 0-2.3 4.6c0 1.3.4 3.3 2.3 4.6h.2l-.1-.2c-1.3-1.1-1.7-2.7-1.7-4.4 0-2.5 1-3.7 1.7-4.4v-.1l-.1-.1zM82.2 15.7l-.1.3c0 .2.1.3.3.3.2 0 .3-.1.3-.2l.2-.6.2-.8.2-.6c0-.4 0-.5.4-.9.2-.3.7-.8 1.4-.8.5 0 .5.5.5.6 0 .6-.4 1.6-.5 2l-.2.5c0 .5.4.8.9.8 1 0 1.3-1.3 1.3-1.4l-.1-.1-.2.1c-.2.8-.6 1.2-1 1.2-.2 0-.2-.2-.2-.4l.2-.7c.1-.3.5-1.3.5-1.8 0-.9-.7-1-1.2-1a2 2 0 0 0-1.6.8c0-.7-.6-.9-1-.9s-.6.3-.7.5l-.3 1h.1c.1 0 .2 0 .2-.2.2-.6.3-1 .7-1 .2 0 .3.2.3.4l-.1.8-.2.9zm7.4.4c0 .5-.1 1-.8 1.7v.2c.2 0 1-.7 1-1.8 0-.6-.2-1-.6-1-.4 0-.6.2-.6.5s.2.5.6.5l.4-.1zm5.2-5.7c0-.1-.1-.3-.4-.3-.2 0-.5.2-.5.5 0 .1.1.3.4.3.2 0 .5-.2.5-.5zm-2 6.3c-.1.6-.6 1.2-1.2 1.2h-.3l.3-.6c0-.2-.1-.3-.3-.3-.3 0-.6.2-.6.5 0 .4.4.6 1 .6.5 0 1.6-.3 1.9-1.4l.8-3.4V13c0-.5-.4-.9-1-.9-1 0-1.6 1.3-1.6 1.5h.4c.2-.6.7-1.2 1.3-1.2.2 0 .3.1.3.4v.3zm4.3-.6c0 .5-.1 1-.8 1.7v.2c.2 0 1-.7 1-1.8 0-.6-.2-1-.6-1-.3 0-.6.2-.6.5s.2.5.6.5l.4-.1zM103 13.3c0-1 0-1.8-.5-2.4a2 2 0 0 0-1.6-.8c-2.2 0-2.2 2.5-2.2 3.2 0 .6 0 3.1 2.2 3.1s2.2-2.5 2.2-3.1zm-2.1 2.9c-.4 0-1-.3-1.2-1l-.1-2 .1-2c.2-.7.8-.9 1.2-.9.5 0 1 .3 1.2.9l.1 2-.1 2c-.2.8-.8 1-1.2 1zm3.5-7s-.2 0-.2.2l.1.1c.8.7 1.7 2 1.7 4.4 0 2-.6 3.4-1.6 4.3l-.2.2.1.1c.1 0 1-.6 1.6-1.7.4-.8.7-1.8.7-2.9 0-1.3-.4-3.3-2.2-4.6zM109.7 16c0 .6-.1 1.2-.8 1.8v.1l.1.1c.1 0 1-.7 1-1.8 0-.6-.3-1-.7-1-.3 0-.5.2-.5.5s.2.5.5.5l.4-.1zm6.3-3.3v-.2c0-.2 0-.3-.2-.3-.1 0-.3 0-.4.3l-.2.5-.2.8-.3 1.5s-.5.8-1.2.8c-.6 0-.6-.6-.6-.8 0-.5.2-1.1.5-1.8l.1-.6c0-.4-.3-.8-.8-.8-1 0-1.4 1.3-1.4 1.5H111.6c.3-.9.6-1.2 1-1.2.2 0 .3.1.3.3l-.2.6c-.4 1-.5 1.4-.5 1.8 0 .2 0 .6.3 1a1.5 1.5 0 0 0 2-.2 3 3 0 0 1-.6 1.4c-.3.3-.6.6-1.1.6-.1 0-.5 0-.7-.3.5 0 .5-.5.5-.6 0-.3-.3-.3-.4-.3-.2 0-.5.2-.5.6 0 .5.4.8 1 .8 1 0 2.2-.7 2.4-1.9zM120 12.6c0-.9-.4-1.4-1-1.4-.4 0-.6.3-.6.7 0 .4.2.7.7.7.1 0 .3 0 .5-.2v.2c0 1-.4 1.8-.9 2.2l-.1.2.1.2c.2 0 1.2-1 1.2-2.6zM140 18.6l1.6-4.3h-.4c-.5 1.4-1.9 2.3-3.4 2.7-.3 0-1.6.4-4.2.4h-8l6.8-7.9.1-.2v-.2L126.1.6h7.3c1.8 0 3 .2 3.1.2.7.2 1.9.4 3 1 .3.3 1.2.9 1.6 2h.4L140 0H123.9v.5l7 9.6-6.9 8.1-.1.3h.4zM125.8 22.4V22.1l-1.3.1s-.2 0-.2.3h.3c.4 0 .4.1.4.2v.2l-1.2 4.6v.3c0 .6.5.9 1 .9.2 0 .5 0 .7-.5l.3-1h-.1c-.1 0-.2 0-.2.2-.1.4-.3 1-.7 1-.2 0-.3-.2-.3-.4v-.4zM132.4 26.5c.2 0 .4 0 .4-.2 0-.3-.2-.3-.4-.3H128a2.6 2.6 0 0 1 2.7-2.3h1.6c.2 0 .4 0 .4-.2 0-.3-.2-.3-.4-.3h-1.6a3.1 3.1 0 0 0-3.2 3 3 3 0 0 0 3.2 3.1h1.6c.2 0 .4 0 .4-.2 0-.3-.2-.3-.4-.3h-1.6c-1.4 0-2.6-1-2.7-2.3zM135.6 27.9c-.1.3-.1.4-.9.4-.1 0-.2 0-.2.2l.2.1h3.6c1.6 0 2.8-1 2.8-2 0-.7-.6-1.2-1.6-1.3 1.1-.2 2-1 2-1.7s-.7-1.3-1.9-1.3h-3.3c-.2 0-.3 0-.3.2h.3l.3.1.2.1v.2zm1.4-2.7.6-2.3c0-.3 0-.3.5-.3h1.4c1 0 1.2.6 1.2 1 0 .7-.9 1.6-2.1 1.6zm-.4 3h-.3V28l.7-2.6h2c.8 0 1.2.6 1.2 1.2 0 .9-1 1.7-2.1 1.7zM154.1 3.9v-.2c0-.2 0-.2-.3-.2h-5.6c-.3 0-.3 0-.4.3l-.7 2.4V6.5l.3-.1c.5-1.6 1.2-2.4 3.2-2.4h2.2l-7.4 8.3v.2l.3.1h5.7c.3 0 .4 0 .4-.2l1-3v-.2l-.1-.1c-.2 0-.2 0-.3.3-.5 1.8-1.2 2.8-3.4 2.8h-2.3zM157 8a5.6 5.6 0 0 0-2.3 4.7c0 1.3.4 3.3 2.2 4.6h.2l-.1-.2c-1.2-1.1-1.7-2.7-1.7-4.4 0-2.5 1-3.7 1.7-4.4l.1-.1c0-.2-.1-.2-.2-.2zM161.8 14.3l-.1.5c0 .2.1.3.3.3.2 0 .3-.1.3-.2l.2-.6.2-.8.2-.6c0-.4 0-.4.3-.7.3-.5.7-1 1.5-1 .5 0 .5.4.5.6 0 .6-.4 1.6-.5 2l-.2.5c0 .5.4.8.9.8 1 0 1.3-1.3 1.3-1.4l-.1-.1-.2.1c-.2.8-.6 1.1-1 1.1-.2 0-.2 0-.2-.3l.2-.7c.1-.3.5-1.3.5-1.8 0-.2 0-.6-.3-.8-.2-.2-.5-.3-1-.3-.7 0-1.3.6-1.6 1 0-.8-.7-1-1.2-1a2 2 0 0 0-1.5.9c-.1-.7-.6-.9-1-.9s-.6.3-.8.5l-.3 1h.2l.2-.2c.1-.6.3-1 .7-1 .2 0 .2.2.2.4v.8l-.3.8-.3 1.2v.4c0 .2 0 .3.2.3l.4-.2.2-.6.2-.8.1-.6c.1-.4.1-.5.4-.9.3-.3.7-.8 1.4-.8.5 0 .5.5.5.6l-.1.9zm7.4.6c0 .5-.1 1-.8 1.7v.2c.2 0 1-.7 1-1.8 0-.6-.2-1-.6-1-.4 0-.6.2-.6.5s.2.5.6.5l.4-.1zm4.2-5.7c0-.1-.2-.3-.4-.3-.3 0-.5.2-.5.5 0 .1 0 .3.3.3s.6-.2.6-.5zm-2 4.7v.4c0 .4.3.8.9.8.9 0 1.3-1.3 1.3-1.4l-.2-.1-.1.1c-.2.8-.7 1.1-1 1.1-.2 0-.3 0-.3-.3l.2-.6.3-.7.4-1.2.1-.3c0-.4-.4-.8-.9-.8-.9 0-1.3 1.3-1.3 1.4l.1.2c.2 0 .2 0 .2-.2.2-.8.6-1.1 1-1.1.1 0 .2 0 .2.3 0 .2 0 .4-.3 1zM175 8c-.1 0-.2 0-.2.2v.1c.9.7 1.7 2 1.7 4.4 0 2-.6 3.4-1.6 4.3l-.1.2v.1c.2 0 1-.6 1.7-1.7.4-.8.7-1.8.7-3s-.4-3.3-2.3-4.6zm6.5 0a5.6 5.6 0 0 0-2.2 4.7c0 1.3.4 3.3 2.2 4.6h.2V17c-1.3-1.1-1.7-2.7-1.7-4.4 0-2.5 1-3.7 1.7-4.4v-.1c0-.2 0-.2-.2-.2zM183.5 14.4v.4c0 .2.1.3.3.3l.3-.2.2-.6.2-.8.2-.6c0-.4 0-.5.3-.9.3-.3.8-.8 1.4-.8.6 0 .6.5.6.6 0 .6-.4 1.6-.6 2l-.1.5c0 .5.4.8.9.8 1 0 1.3-1.3 1.3-1.4l-.1-.1-.2.1c-.2.8-.6 1.1-1 1.1-.2 0-.2 0-.2-.3l.2-.7c.1-.3.5-1.3.5-1.8 0-1-.7-1-1.2-1a2 2 0 0 0-1.6.8c0-.7-.6-.9-1-.9s-.6.3-.7.5l-.4 1h.2l.2-.2c.1-.6.3-1 .7-1 .2 0 .3.2.3.4s0 .6-.2.8l-.2.8zm7.4.5c0 .5 0 1-.7 1.7v.2c.2 0 1-.7 1-1.8 0-.6-.2-1-.6-1-.4 0-.6.2-.6.5s.2.5.6.5l.3-.1zm5.3-5.7c0-.2-.1-.3-.4-.3-.2 0-.5.2-.5.5 0 .1.1.3.4.3.2 0 .5-.2.5-.5zm-2 6.3c-.1.6-.6 1.2-1.2 1.2l-.3-.1c.2-.1.3-.3.3-.5s-.2-.3-.3-.3c-.3 0-.6.2-.6.5 0 .4.4.6 1 .6.5 0 1.6-.3 1.9-1.5l.8-3.3v-.3c0-.5-.4-.9-1-.9-1 0-1.6 1.3-1.6 1.4 0 .2.2.2.2.2l.2-.2c.2-.6.7-1.1 1.2-1.1.3 0 .4.1.4.4v.3zM197.9 8s-.2 0-.2.2l.1.1c.8.7 1.7 2 1.7 4.4 0 2-.6 3.4-1.6 4.3l-.2.2.1.1c.1 0 1-.6 1.6-1.7.5-.8.7-1.8.7-3s-.4-3.3-2.2-4.6zM203.2 14.9c0 .5-.1 1-.8 1.7l.1.2c.1 0 1-.7 1-1.8 0-.6-.3-1-.7-1-.3 0-.5.2-.5.5s.2.5.5.5l.4-.1zm3.8-6v-.2l-.1-.1h-1.2s-.2 0-.2.3l.2.1.5.1v.2L205 14v.3c0 .6.5 1 1 1 .1 0 .4-.2.7-.6l.3-1h-.2l-.2.2c0 .4-.3 1-.6 1s-.4-.2-.4-.4V14zM221.3 8.3c.2 0 .4 0 .4-.3s-.2-.3-.4-.3h-8c-.2 0-.4 0-.4.3s.2.3.4.3zm0 2.6c.2 0 .4 0 .4-.3s-.2-.3-.4-.3h-8c-.2 0-.4 0-.4.3s.2.3.4.3zM230 4c0-.3 0-.3-.3-.3-.8.8-2 .8-2.4.8V5c.3 0 1 0 1.8-.3v6.9c0 .4 0 .6-1.3.6h-.4v.4H231.7v-.4h-.4c-1.2 0-1.3-.1-1.3-.6zM235.5 12.6c0-.9-.3-1.4-.9-1.4-.4 0-.7.3-.7.7 0 .4.3.7.7.7.2 0 .4 0 .5-.2l.1.2c0 1-.5 1.8-.9 2.2l-.1.2v.2c.2 0 1.3-1 1.3-2.6zM246 3.9v-.2c0-.2 0-.3-.2-.3l-.3.3-1 3h-4.1l-1.1-3-.3-.3c-.2 0-.3.1-.3.3v.2l3.4 8.7c0 .2.1.3.3.3.2 0 .2-.1.3-.3zm-5.4 3.3h3.6l-1.8 4.7zM250.5 15.8l-.2-.3c-1.7-1.7-2.1-4.2-2.1-6.2 0-2.3.5-4.6 2.1-6.3l.2-.2c0-.1 0-.2-.2-.2 0 0-1.3 1-2 2.6-.7 1.5-1 3-1 4 0 1.1.3 2.7 1 4.2.8 1.7 2 2.5 2 2.5l.2-.1zM252.4 11.8l-.1.6c0 .2.2.4.4.4.1 0 .4-.1.5-.4l.2-1 .3-1.2.2-.9.2-.6c.2-.5 1-1.7 2.2-1.7.6 0 .7.5.7 1l-.2 1-.4 1.6-.2 1-.2.8c0 .2.2.4.4.4.4 0 .5-.4.6-.8l.8-3.2c0-.2.7-1.8 2.2-1.8.5 0 .7.5.7 1 0 .7-.6 2.2-.8 3-.2.3-.2.4-.2.7 0 .6.5 1 1 1 1.3 0 1.8-1.9 1.8-2l-.1-.1c-.2 0-.2 0-.2.2-.3.7-.7 1.7-1.4 1.7-.2 0-.3-.2-.3-.5s0-.6.2-1c.3-.6.8-2 .8-2.8 0-.9-.5-1.5-1.5-1.5s-1.7.6-2.2 1.3c0-.1 0-.6-.4-1-.3-.2-.7-.3-1-.3-1.3 0-2 .9-2.2 1.2 0-.8-.6-1.2-1.2-1.2s-.8.6-1 .8l-.4 1.3.2.1.2-.3c.2-1 .5-1.6 1-1.6.2 0 .4.1.4.6l-.2 1.2zm13.2.8c0-.9-.3-1.4-.8-1.4s-.7.3-.7.7c0 .4.2.7.7.7.1 0 .3 0 .4-.2l.1.2c0 1-.5 1.8-.9 2.2l-.1.2v.2c.3 0 1.3-1 1.3-2.6zm7-8.3c0-.2-.2-.5-.5-.5-.4 0-.7.4-.7.7 0 .3.1.5.5.5.3 0 .7-.3.7-.7zm-1 5 .3-.8.1-.7c0-.6-.4-1-1-1-1.3 0-1.8 1.9-1.8 2l.1.1c.2 0 .2 0 .2-.2.4-1.3 1-1.7 1.4-1.7.1 0 .3 0 .3.5l-.1.6-1 2.5-.2 1c0 .7.4 1.2 1 1.2 1.3 0 1.8-2 1.8-2 0-.2-.1-.2-.2-.2l-.2.2c-.2.9-.6 1.7-1.3 1.7-.3 0-.3-.2-.3-.5s0-.5.3-1.3zM277.2 9.3c0-1-.1-2.7-.8-4.2-.8-1.6-2-2.5-2.1-2.5l-.2.2.3.3c1.3 1.3 2 3.4 2 6.2 0 2.3-.4 4.6-2 6.3l-.3.2.2.1c.1 0 1.3-.9 2-2.5.8-1.5 1-3 1-4.1zM281.3 12.6c0-.9-.4-1.4-.9-1.4-.4 0-.7.3-.7.7 0 .4.3.7.7.7.2 0 .3 0 .5-.2v.2c0 1-.4 1.8-.8 2.2l-.2.2.1.2c.2 0 1.3-1 1.3-2.6zM288.9 15.8l-.3-.3c-1.6-1.7-2-4.2-2-6.2 0-2.3.5-4.6 2-6.3l.3-.2-.2-.2c-.1 0-1.3 1-2 2.6-.8 1.5-1 3-1 4 0 1.1.2 2.7 1 4.2.7 1.7 1.9 2.5 2 2.5l.2-.1zM290.8 11.8l-.1.6c0 .2.2.4.4.4.1 0 .4-.1.4-.4l.3-1 .3-1.2.2-.9.2-.6c.2-.5.9-1.7 2.2-1.7.6 0 .7.5.7 1 0 .8-.7 2.5-.9 3l-.1.7c0 .6.4 1 1 1 1.3 0 1.8-1.9 1.8-2l-.2-.1-.2.2c-.2 1-.7 1.7-1.3 1.7-.2 0-.3-.2-.3-.5l.2-1c.3-.6.8-2 .8-2.8 0-1-.5-1.5-1.5-1.5-1.2 0-1.8.9-2 1.2-.1-.7-.7-1.2-1.3-1.2-.6 0-.9.6-1 .8l-.4 1.3.2.1.2-.3c.2-1 .5-1.6 1-1.6.2 0 .4.2.4.6l-.2 1.2zm9.5.8c0-.9-.3-1.4-.9-1.4-.4 0-.7.3-.7.7 0 .4.3.7.7.7.2 0 .4 0 .5-.2l.1.2c0 1-.5 1.8-.9 2.2l-.1.2v.2c.2 0 1.3-1 1.3-2.6zm8.4-8.3c0-.2-.1-.5-.5-.5-.3 0-.7.3-.7.7 0 .3.2.5.5.5.4 0 .7-.3.7-.7zm-2.6 9c-.3 1-.9 1.8-1.7 1.8l-.5-.2c.4 0 .6-.4.6-.7 0-.2-.1-.4-.5-.4-.3 0-.7.2-.7.7 0 .6.5.8 1.2.8.9 0 2.1-.7 2.5-2l1.2-4.8V8c0-.8-.5-1.3-1.2-1.3-1.3 0-2 2-2 2V9c.2 0 .2 0 .3-.2.4-.8 1-1.7 1.7-1.7.2 0 .4 0 .4.6v.7zM313.6 9.3c0-1-.2-2.7-.9-4.2-.8-1.6-2-2.5-2-2.5-.2 0-.2.1-.2.2l.2.3c1.3 1.3 2 3.4 2 6.2 0 2.3-.4 4.6-2 6.3l-.2.2.1.1c.1 0 1.3-.9 2.1-2.5.7-1.5.9-3 .9-4.1zM325.9 9.6c.2 0 .4 0 .4-.3s-.2-.3-.4-.3h-5.7c.2-1.7 1.7-3 3.6-3h2c.3 0 .5 0 .5-.3s-.2-.3-.4-.3h-2.1c-2.3 0-4.1 1.8-4.1 3.9a4 4 0 0 0 4 3.8h2.2c.2 0 .4 0 .4-.2 0-.3-.2-.3-.4-.3h-2.1c-1.9 0-3.4-1.3-3.6-3zM341.2 3.4l-.1-.1-.2.1-1 1c0-.2-.7-1.1-2.2-1.1-3 0-5.9 2.9-5.9 6 0 2.2 1.6 3.6 3.6 3.6 1.2 0 2.2-.5 2.9-1.1 1.2-1.1 1.4-2.3 1.4-2.4l-.1-.1-.2.1c-.1.4-.4 1.4-1.3 2.1-1 .8-1.8 1-2.5 1-1.2 0-2.6-.7-2.6-2.8 0-.7.3-2.9 1.6-4.4.8-1 2-1.6 3.3-1.6 1.3 0 2 1 2 2.5V7l.2.1c.2 0 .2 0 .3-.2zm2.3 9.2c0-.9-.3-1.4-.8-1.4s-.7.3-.7.7c0 .4.2.7.7.7.1 0 .3 0 .4-.2l.1.2c0 1-.4 1.8-.9 2.2l-.1.2.1.2c.2 0 1.2-1 1.2-2.6zM354 3.9l.1-.2c0-.2 0-.3-.2-.3s-.3.2-.3.3l-1.1 3h-4l-1.2-3c0-.2-.1-.3-.3-.3-.1 0-.3.1-.3.3l.1.2 3.3 8.7.3.3c.2 0 .3-.1.3-.3zm-5.4 3.3h3.6l-1.8 4.7zM360.6 7.6v-.3c0-.3-.2-.4-.4-.4 0 0-.3 0-.4.3l-.2.7-.3 1-.6 2.4c0 .2-.6 1.2-1.5 1.2-.6 0-.8-.6-.8-1.1 0-.6.2-1.4.7-2.6l.3-1c0-.6-.5-1-1.1-1-1.3 0-1.8 1.9-1.8 2l.2.1.2-.2c.3-1.3.9-1.7 1.3-1.7.1 0 .4 0 .4.5l-.3.9a8.7 8.7 0 0 0-.7 2.8c0 1.2.8 1.6 1.6 1.6.5 0 1-.3 1.3-.6-.2.7-.3 1.3-.8 2-.4.5-.9.9-1.5.9-.2 0-.8 0-1-.6.2 0 .4 0 .6-.2l.2-.5c0-.4-.3-.5-.5-.5-.3 0-.7.2-.7.9s.6 1.1 1.4 1.1c1.4 0 2.7-1.2 3.1-2.7zM372 9.6c.3 0 .6 0 .6-.3s-.3-.3-.5-.3h-5.7c.2-1.7 1.7-3 3.6-3h2c.3 0 .6 0 .6-.3s-.3-.3-.5-.3H370c-2.3 0-4 1.8-4 3.9a4 4 0 0 0 4 3.8h2c.3 0 .6 0 .6-.2 0-.3-.3-.3-.5-.3h-2c-2 0-3.5-1.3-3.7-3zM385.3 5l.2-.1c.4-.4.8-.9 1.7-1 .1 0 .3 0 .3-.2l-.2-.2h-2.4c-.1 0-.3 0-.3.3l.2.2c.1 0 .5 0 .5.3 0 .2-.3.5-.4.6l-3 3.5-1.5-3.9v-.2c0-.3.6-.3.7-.3.2 0 .3 0 .3-.3 0-.2-.1-.2-.2-.2h-3.1c-.1 0-.3 0-.3.3 0 .2.1.2.3.2.8 0 .9 0 1 .4l1.6 4.4V9l-.5 2.4c-.2.7-.2.8-1.3.8-.2 0-.3 0-.3.3l.2.1h3.3c.1 0 .3 0 .3-.2s-.1-.2-.4-.2h-.5c-.3 0-.4 0-.4-.2l.2-.9.5-1.8c0-.3 0-.3.2-.4zM390.5 4.2h.3l1.4 2.2.5.6.3.1h1.2l.3-.1-.1-.2c-.3 0-.8-.7-1-1l-1.2-1.7c.9-.1 1.7-.5 1.7-1.6 0-1.3-1.4-1.7-2.5-1.7h-3l-.2.1c0 .2.1.2.2.2.5 0 .6 0 .6.5v4.7c0 .4 0 .5-.6.5 0 0-.2 0-.2.2l.3.1h2.5l.3-.1c0-.2-.1-.2-.2-.2-.6 0-.6 0-.6-.5zm1.8-.4c.3-.4.3-.9.3-1.3s0-1-.4-1.3c.4 0 1.3.4 1.3 1.3 0 .6-.2 1-1.2 1.3zm-1.8-2.2c0-.2 0-.5.6-.5.8 0 1.2.3 1.2 1.4 0 1.2-.3 1.4-1.8 1.4zm-1.3 5.2.1-.5V1h1l-.1.5v5.2zm2-2.6h.7c.1.2 1.1 1.8 1.9 2.6h-1zm0 0"/></g></svg>