<svg width="210mm" height="297mm" version="1.1" viewBox="0 0 210 297" xmlns="http://www.w3.org/2000/svg">
  <g transform="matrix(.35 0 0 .35 7.7 32)" aria-label="U
AGV
(m,i,α
1
)(n,j,α
2
)
+U
AGV
(n,j,α
2
)(m,i,α
1
)
+3−P
Y
(m,i,α
1
),y
−P
Y
(n,j,α
2
),y
−
x
′
∑
x=1
(
P
X
(m,i,α
1
−1),x
+P
X
(n,j,α
2
),x
−P
X
(m,i,α
1
),x
−P
X
(n,j,α
2
−1),x
)
≥0,
∀(m,i,α
1
),(n,j,α
2
)∈W
H
∀y∈Y
R
,∀x
′
∈X
R">
    <path d="m6.3-5.8c0.094-0.41 0.28-0.71 1.1-0.74 0.047 0 0.16-0.012 0.16-0.2 0-0.012 0-0.12-0.13-0.12-0.33 0-0.68 0.035-1 0.035-0.34 0-0.7-0.035-1-0.035-0.059 0-0.18 0-0.18 0.2 0 0.12 0.094 0.12 0.18 0.12 0.56 0.012 0.68 0.21 0.68 0.43 0 0.035-0.023 0.18-0.035 0.21l-0.89 3.6c-0.34 1.3-1.5 2.2-2.5 2.2-0.68 0-1.2-0.43-1.2-1.3 0-0.023 0-0.34 0.12-0.77l0.96-3.9c0.094-0.36 0.11-0.46 0.83-0.46 0.27 0 0.34 0 0.34-0.2 0-0.12-0.11-0.12-0.14-0.12-0.27 0-1 0.035-1.3 0.035-0.29 0-1-0.035-1.3-0.035-0.082 0-0.19 0-0.19 0.2 0 0.12 0.094 0.12 0.28 0.12 0.012 0 0.21 0 0.38 0.012 0.18 0.023 0.27 0.035 0.27 0.16 0 0.059-0.11 0.48-0.18 0.7l-0.21 0.88c-0.094 0.39-0.57 2.3-0.61 2.5-0.07 0.28-0.07 0.43-0.07 0.57 0 1.2 0.9 1.9 2 1.9 1.3 0 2.5-1.1 2.8-2.4z"/>
    <path d="m13-4.1v-0.25h-0.14c-0.47 0-0.52-0.07-0.59-0.27l-1.7-4.3c-0.035-0.11-0.059-0.15-0.2-0.15-0.13 0-0.15 0.047-0.19 0.15l-1.6 4.1c-0.07 0.16-0.19 0.48-0.81 0.48v0.25c0.23-0.023 0.48-0.023 0.71-0.023 0.28 0 0.8 0.023 0.83 0.023v-0.25c-0.3 0-0.49-0.14-0.49-0.34 0-0.059 0-0.07 0.035-0.14l0.33-0.86h2l0.41 1c0.012 0.035 0.035 0.082 0.035 0.12 0 0.2-0.39 0.2-0.57 0.2v0.25l1-0.023c0.33 0 0.86 0.012 0.93 0.023zm-1.9-1.8h-1.8l0.9-2.3zm7.8 0.15v-0.25c-0.047 0-0.56 0.023-0.9 0.023-0.36 0-0.89 0-1.3-0.023v0.25h0.26c0.7 0 0.7 0.094 0.7 0.33v0.45c0 0.15 0 0.42-0.4 0.62-0.34 0.16-0.74 0.16-0.82 0.16-0.8 0-2.1-0.45-2.1-2.3 0-1.9 1.3-2.3 2-2.3 0.68 0 1.5 0.46 1.7 1.7 0.012 0.082 0.07 0.082 0.13 0.082 0.12 0 0.12-0.047 0.12-0.19v-1.6c0-0.12 0-0.18-0.094-0.18-0.023 0-0.059 0-0.12 0.082l-0.38 0.53c-0.34-0.35-0.83-0.61-1.4-0.61-1.5 0-2.7 1.1-2.7 2.5 0 1.4 1.2 2.5 2.7 2.5 0.39 0 1.2-0.07 1.5-0.56 0.12 0.19 0.38 0.42 0.45 0.42 0.082 0 0.082-0.082 0.082-0.18v-1.2c0-0.3 0.07-0.3 0.54-0.3zm6.1-2.8v-0.25c-0.21 0.012-0.48 0.023-0.68 0.023-0.28 0-0.8-0.023-0.84-0.023v0.25c0.26 0 0.48 0.12 0.48 0.33 0 0.047-0.012 0.094-0.023 0.14l-1.5 3.4-1.5-3.5c-0.047-0.082-0.047-0.094-0.047-0.12 0-0.19 0.36-0.19 0.55-0.19v-0.25l-1 0.023c-0.35 0-0.88-0.023-0.9-0.023v0.25h0.13c0.38 0 0.49 0.035 0.59 0.25l1.8 4.2c0.047 0.12 0.07 0.16 0.2 0.16 0.07 0 0.14 0 0.21-0.15l1.7-4c0.094-0.21 0.26-0.45 0.8-0.46z"/>
    <path d="m9.3-2.4c-1.3 0.93-1.7 2.4-1.7 3.5 0 0.98 0.29 2.5 1.7 3.5 0.059 0 0.14 0 0.14-0.082 0-0.047-0.023-0.059-0.07-0.11-0.93-0.83-1.3-2-1.3-3.3 0-1.9 0.71-2.8 1.3-3.3 0.023-0.023 0.047-0.047 0.047-0.082 0-0.082-0.082-0.082-0.14-0.082z"/>
    <path d="m13 2.3c-0.035 0.14-0.094 0.38-0.094 0.41 0 0.15 0.13 0.22 0.23 0.22 0.13 0 0.23-0.094 0.27-0.15 0.035-0.059 0.094-0.29 0.13-0.43 0.035-0.13 0.12-0.46 0.15-0.63 0.047-0.15 0.082-0.3 0.12-0.46 0.082-0.3 0.082-0.32 0.22-0.54 0.22-0.34 0.56-0.74 1.1-0.74 0.39 0 0.41 0.33 0.41 0.49 0 0.42-0.3 1.2-0.41 1.5-0.082 0.19-0.11 0.26-0.11 0.38 0 0.36 0.3 0.6 0.66 0.6 0.7 0 1-0.96 1-1.1 0-0.094-0.094-0.094-0.11-0.094-0.11 0-0.11 0.047-0.14 0.12-0.15 0.56-0.46 0.84-0.74 0.84-0.14 0-0.18-0.094-0.18-0.25 0-0.15 0.035-0.25 0.16-0.56 0.082-0.21 0.38-0.95 0.38-1.3 0-0.11 0-0.4-0.26-0.6-0.13-0.094-0.33-0.19-0.66-0.19-0.62 0-1 0.41-1.2 0.7-0.059-0.6-0.55-0.7-0.9-0.7-0.59 0-0.97 0.35-1.2 0.63-0.047-0.48-0.46-0.63-0.75-0.63-0.29 0-0.46 0.21-0.55 0.38-0.15 0.26-0.25 0.66-0.25 0.69 0 0.082 0.094 0.082 0.12 0.082 0.094 0 0.11-0.012 0.15-0.2 0.11-0.42 0.23-0.76 0.52-0.76 0.18 0 0.22 0.15 0.22 0.34 0 0.14-0.059 0.4-0.11 0.59-0.047 0.19-0.12 0.47-0.15 0.62l-0.22 0.9c-0.035 0.082-0.07 0.26-0.07 0.28 0 0.15 0.12 0.22 0.23 0.22 0.13 0 0.23-0.094 0.27-0.15 0.035-0.059 0.094-0.29 0.13-0.43 0.035-0.13 0.11-0.46 0.15-0.63 0.035-0.15 0.082-0.3 0.12-0.46 0.082-0.29 0.094-0.35 0.29-0.63 0.2-0.28 0.53-0.64 1-0.64 0.41 0 0.41 0.36 0.41 0.49 0 0.18-0.012 0.27-0.12 0.66zm5.5 0.45c0 0.39-0.07 0.83-0.55 1.3-0.023 0.035-0.047 0.059-0.047 0.094 0 0.047 0.059 0.094 0.094 0.094 0.11 0 0.69-0.56 0.69-1.4 0-0.42-0.16-0.75-0.48-0.75-0.23 0-0.4 0.18-0.4 0.39 0 0.23 0.15 0.41 0.4 0.41 0.16 0 0.28-0.12 0.29-0.12zm3.1-4.2c0-0.11-0.082-0.26-0.28-0.26-0.19 0-0.39 0.18-0.39 0.38 0 0.12 0.082 0.27 0.27 0.27 0.21 0 0.4-0.2 0.4-0.39zm-1.4 3.5c-0.023 0.094-0.059 0.18-0.059 0.29 0 0.33 0.28 0.6 0.67 0.6 0.69 0 1-0.96 1-1.1 0-0.094-0.082-0.094-0.11-0.094-0.11 0-0.11 0.047-0.14 0.12-0.15 0.56-0.46 0.84-0.74 0.84-0.14 0-0.18-0.082-0.18-0.25 0-0.15 0.059-0.29 0.12-0.45 0.07-0.19 0.14-0.38 0.22-0.55 0.059-0.16 0.32-0.81 0.34-0.89 0.023-0.07 0.047-0.15 0.047-0.22 0-0.33-0.28-0.59-0.67-0.59-0.69 0-1 0.95-1 1.1 0 0.082 0.094 0.082 0.12 0.082 0.094 0 0.11-0.035 0.13-0.11 0.18-0.6 0.48-0.86 0.74-0.86 0.12 0 0.18 0.059 0.18 0.25 0 0.16-0.035 0.27-0.21 0.7zm3.5 0.7c0 0.39-0.07 0.83-0.55 1.3-0.023 0.035-0.047 0.059-0.047 0.094 0 0.047 0.059 0.094 0.094 0.094 0.11 0 0.69-0.56 0.69-1.4 0-0.42-0.16-0.75-0.48-0.75-0.23 0-0.4 0.18-0.4 0.39 0 0.23 0.15 0.41 0.4 0.41 0.16 0 0.28-0.12 0.29-0.12zm4.7-0.87c0.64-0.66 0.9-1.6 0.9-1.7 0-0.094-0.082-0.094-0.12-0.094-0.094 0-0.094 0.023-0.14 0.18-0.13 0.46-0.36 0.89-0.66 1.3 0-0.11-0.023-0.57-0.035-0.63-0.11-0.69-0.62-1.1-1.3-1.1-1 0-2 0.95-2 1.9 0 0.64 0.47 1.2 1.3 1.2 0.64 0 1.2-0.29 1.6-0.6 0.16 0.52 0.52 0.6 0.73 0.6 0.41 0 0.66-0.34 0.66-0.49 0-0.082-0.082-0.082-0.12-0.082-0.094 0-0.11 0.035-0.12 0.07-0.11 0.27-0.32 0.3-0.4 0.3-0.094 0-0.22 0-0.26-0.86zm-0.54 0.23c-0.68 0.56-1.3 0.62-1.5 0.62-0.47 0-0.73-0.3-0.73-0.77 0-0.2 0.11-0.96 0.47-1.4 0.32-0.42 0.71-0.54 0.96-0.54 0.55 0 0.71 0.54 0.77 0.97 0.035 0.3 0.023 0.8 0.059 1.2z"/>
    <path d="m32 0.68c0-0.15-0.012-0.15-0.18-0.15-0.35 0.32-0.9 0.32-1 0.32h-0.082v0.22h0.082c0.12 0 0.43-0.012 0.73-0.14v2.5c0 0.16 0 0.21-0.53 0.21h-0.25v0.22c0.27-0.023 0.71-0.023 1-0.023 0.28 0 0.73 0 1 0.023v-0.22h-0.25c-0.53 0-0.53-0.047-0.53-0.21z"/>
    <path d="m34-2.4c-0.059 0-0.14 0-0.14 0.082 0 0.035 0.023 0.059 0.07 0.11 0.6 0.55 1.3 1.5 1.3 3.3 0 1.5-0.46 2.6-1.2 3.2-0.12 0.12-0.13 0.13-0.13 0.16 0 0.035 0.023 0.082 0.094 0.082 0.082 0 0.75-0.46 1.2-1.3 0.3-0.59 0.5-1.3 0.5-2.2 0-0.98-0.29-2.5-1.7-3.5zm5 0c-1.3 0.93-1.7 2.4-1.7 3.5 0 0.98 0.29 2.5 1.7 3.5 0.059 0 0.14 0 0.14-0.082 0-0.047-0.023-0.059-0.07-0.11-0.93-0.83-1.3-2-1.3-3.3 0-1.9 0.71-2.8 1.3-3.3 0.023-0.023 0.047-0.047 0.047-0.082 0-0.082-0.082-0.082-0.14-0.082z"/>
    <path d="m41 2.4c-0.035 0.082-0.07 0.26-0.07 0.28 0 0.15 0.12 0.22 0.23 0.22 0.13 0 0.23-0.094 0.27-0.15 0.035-0.059 0.094-0.29 0.13-0.43 0.035-0.13 0.11-0.46 0.15-0.63 0.035-0.15 0.082-0.3 0.12-0.46 0.082-0.29 0.094-0.35 0.29-0.63 0.2-0.28 0.53-0.64 1-0.64 0.41 0 0.41 0.36 0.41 0.49 0 0.42-0.29 1.2-0.41 1.5-0.07 0.19-0.11 0.26-0.11 0.38 0 0.36 0.3 0.6 0.67 0.6 0.69 0 1-0.96 1-1.1 0-0.094-0.094-0.094-0.12-0.094-0.094 0-0.11 0.047-0.13 0.12-0.16 0.56-0.47 0.84-0.74 0.84-0.15 0-0.18-0.094-0.18-0.25 0-0.15 0.035-0.25 0.15-0.56 0.094-0.21 0.38-0.95 0.38-1.3 0-0.67-0.54-0.79-0.9-0.79-0.59 0-0.97 0.35-1.2 0.63-0.047-0.48-0.46-0.63-0.75-0.63-0.29 0-0.46 0.21-0.55 0.38-0.15 0.26-0.25 0.66-0.25 0.69 0 0.082 0.094 0.082 0.12 0.082 0.094 0 0.11-0.012 0.15-0.2 0.11-0.42 0.23-0.76 0.52-0.76 0.18 0 0.22 0.15 0.22 0.34 0 0.14-0.059 0.4-0.11 0.59-0.047 0.19-0.12 0.47-0.15 0.62zm5.5 0.32c0 0.39-0.07 0.83-0.55 1.3-0.023 0.035-0.047 0.059-0.047 0.094 0 0.047 0.059 0.094 0.094 0.094 0.11 0 0.69-0.56 0.69-1.4 0-0.42-0.16-0.75-0.48-0.75-0.23 0-0.4 0.18-0.4 0.39 0 0.23 0.15 0.41 0.4 0.41 0.16 0 0.28-0.12 0.29-0.12zm3.9-4.2c0-0.12-0.094-0.26-0.28-0.26-0.2 0-0.39 0.19-0.39 0.38 0 0.12 0.082 0.27 0.28 0.27 0.19 0 0.39-0.19 0.39-0.39zm-1.5 4.7c-0.12 0.48-0.49 0.89-0.9 0.89-0.082 0-0.18-0.012-0.25-0.047 0.18-0.082 0.23-0.25 0.23-0.35 0-0.16-0.13-0.26-0.27-0.26-0.22 0-0.4 0.19-0.4 0.41 0 0.27 0.27 0.43 0.69 0.43s1.2-0.25 1.5-1.1l0.62-2.5c0.023-0.07 0.035-0.14 0.035-0.23 0-0.39-0.33-0.66-0.74-0.66-0.79 0-1.2 0.96-1.2 1.1 0 0.082 0.11 0.082 0.13 0.082 0.082 0 0.082-0.012 0.13-0.12 0.18-0.41 0.54-0.84 0.95-0.84 0.18 0 0.23 0.12 0.23 0.34 0 0.082-0.012 0.18-0.023 0.21zm3.2-0.46c0 0.39-0.07 0.83-0.55 1.3-0.023 0.035-0.047 0.059-0.047 0.094 0 0.047 0.059 0.094 0.094 0.094 0.11 0 0.69-0.56 0.69-1.4 0-0.42-0.16-0.75-0.48-0.75-0.23 0-0.4 0.18-0.4 0.39 0 0.23 0.15 0.41 0.4 0.41 0.16 0 0.28-0.12 0.29-0.12zm4.7-0.87c0.64-0.66 0.9-1.6 0.9-1.7 0-0.094-0.082-0.094-0.12-0.094-0.094 0-0.094 0.023-0.14 0.18-0.13 0.46-0.36 0.89-0.66 1.3 0-0.11-0.023-0.57-0.035-0.63-0.11-0.69-0.62-1.1-1.3-1.1-1 0-2 0.95-2 1.9 0 0.64 0.47 1.2 1.3 1.2 0.64 0 1.2-0.29 1.6-0.6 0.16 0.52 0.52 0.6 0.73 0.6 0.41 0 0.66-0.34 0.66-0.49 0-0.082-0.082-0.082-0.12-0.082-0.094 0-0.11 0.035-0.12 0.07-0.11 0.27-0.32 0.3-0.4 0.3-0.094 0-0.22 0-0.26-0.86zm-0.54 0.23c-0.68 0.56-1.3 0.62-1.5 0.62-0.47 0-0.73-0.3-0.73-0.77 0-0.2 0.11-0.96 0.47-1.4 0.32-0.42 0.71-0.54 0.96-0.54 0.55 0 0.71 0.54 0.77 0.97 0.035 0.3 0.023 0.8 0.059 1.2z"/>
    <path d="m61 2.9h-0.21c-0.012 0.094-0.059 0.4-0.14 0.46-0.035 0.023-0.46 0.023-0.53 0.023h-0.98c0.33-0.25 0.7-0.52 1-0.71 0.46-0.32 0.87-0.6 0.87-1.1 0-0.64-0.6-1-1.3-1-0.67 0-1.2 0.39-1.2 0.88 0 0.26 0.21 0.3 0.28 0.3 0.14 0 0.29-0.094 0.29-0.29 0-0.19-0.13-0.28-0.28-0.29 0.14-0.23 0.43-0.37 0.76-0.37 0.48 0 0.89 0.28 0.89 0.77 0 0.42-0.29 0.74-0.68 1.1l-1.2 1c-0.047 0.047-0.059 0.047-0.059 0.082v0.15h2.3z"/>
    <path d="m62-2.4c-0.059 0-0.14 0-0.14 0.082 0 0.035 0.023 0.059 0.07 0.11 0.6 0.55 1.3 1.5 1.3 3.3 0 1.5-0.46 2.6-1.2 3.2-0.12 0.12-0.13 0.13-0.13 0.16 0 0.035 0.023 0.082 0.094 0.082 0.082 0 0.75-0.46 1.2-1.3 0.3-0.59 0.5-1.3 0.5-2.2 0-0.98-0.29-2.5-1.7-3.5z"/>
    <path d="m72-2.3h2.8c0.14 0 0.33 0 0.33-0.2 0-0.2-0.19-0.2-0.33-0.2h-2.8v-2.8c0-0.13 0-0.33-0.2-0.33-0.2 0-0.2 0.2-0.2 0.33v2.8h-2.8c-0.14 0-0.33 0-0.33 0.2 0 0.2 0.19 0.2 0.33 0.2h2.8v2.8c0 0.13 0 0.33 0.2 0.33 0.2 0 0.2-0.2 0.2-0.33z"/>
    <path d="m84-5.8c0.094-0.41 0.28-0.71 1.1-0.74 0.047 0 0.16-0.012 0.16-0.2 0-0.012 0-0.12-0.13-0.12-0.33 0-0.68 0.035-1 0.035-0.34 0-0.7-0.035-1-0.035-0.059 0-0.18 0-0.18 0.2 0 0.12 0.094 0.12 0.18 0.12 0.56 0.012 0.68 0.21 0.68 0.43 0 0.035-0.023 0.18-0.035 0.21l-0.89 3.6c-0.34 1.3-1.5 2.2-2.5 2.2-0.68 0-1.2-0.43-1.2-1.3 0-0.023 0-0.34 0.12-0.77l0.96-3.9c0.094-0.36 0.11-0.46 0.83-0.46 0.27 0 0.34 0 0.34-0.2 0-0.12-0.11-0.12-0.14-0.12-0.27 0-1 0.035-1.3 0.035-0.29 0-1-0.035-1.3-0.035-0.082 0-0.19 0-0.19 0.2 0 0.12 0.094 0.12 0.28 0.12 0.012 0 0.21 0 0.38 0.012 0.18 0.023 0.27 0.035 0.27 0.16 0 0.059-0.11 0.48-0.18 0.7l-0.21 0.88c-0.094 0.39-0.57 2.3-0.61 2.5-0.07 0.28-0.07 0.43-0.07 0.57 0 1.2 0.9 1.9 2 1.9 1.3 0 2.5-1.1 2.8-2.4z"/>
    <path d="m91-4.1v-0.25h-0.14c-0.47 0-0.52-0.07-0.59-0.27l-1.7-4.3c-0.035-0.11-0.059-0.15-0.2-0.15-0.13 0-0.15 0.047-0.19 0.15l-1.6 4.1c-0.07 0.16-0.19 0.48-0.81 0.48v0.25c0.23-0.023 0.48-0.023 0.71-0.023 0.28 0 0.8 0.023 0.83 0.023v-0.25c-0.3 0-0.49-0.14-0.49-0.34 0-0.059 0-0.07 0.035-0.14l0.33-0.86h2l0.41 1c0.012 0.035 0.035 0.082 0.035 0.12 0 0.2-0.39 0.2-0.57 0.2v0.25l1-0.023c0.33 0 0.86 0.012 0.93 0.023zm-1.9-1.8h-1.8l0.9-2.3zm7.8 0.15v-0.25c-0.047 0-0.56 0.023-0.9 0.023-0.36 0-0.89 0-1.3-0.023v0.25h0.26c0.7 0 0.7 0.094 0.7 0.33v0.45c0 0.15 0 0.42-0.4 0.62-0.34 0.16-0.74 0.16-0.82 0.16-0.8 0-2.1-0.45-2.1-2.3 0-1.9 1.3-2.3 2-2.3 0.68 0 1.5 0.46 1.7 1.7 0.012 0.082 0.07 0.082 0.13 0.082 0.12 0 0.12-0.047 0.12-0.19v-1.6c0-0.12 0-0.18-0.094-0.18-0.023 0-0.059 0-0.12 0.082l-0.38 0.53c-0.34-0.35-0.83-0.61-1.4-0.61-1.5 0-2.7 1.1-2.7 2.5 0 1.4 1.2 2.5 2.7 2.5 0.39 0 1.2-0.07 1.5-0.56 0.12 0.19 0.38 0.42 0.45 0.42 0.082 0 0.082-0.082 0.082-0.18v-1.2c0-0.3 0.07-0.3 0.54-0.3zm6.1-2.8v-0.25c-0.21 0.012-0.48 0.023-0.68 0.023-0.28 0-0.8-0.023-0.84-0.023v0.25c0.26 0 0.48 0.12 0.48 0.33 0 0.047-0.012 0.094-0.023 0.14l-1.5 3.4-1.5-3.5c-0.047-0.082-0.047-0.094-0.047-0.12 0-0.19 0.36-0.19 0.55-0.19v-0.25l-1 0.023c-0.35 0-0.88-0.023-0.9-0.023v0.25h0.13c0.38 0 0.49 0.035 0.59 0.25l1.8 4.2c0.047 0.12 0.07 0.16 0.2 0.16 0.07 0 0.14 0 0.21-0.15l1.7-4c0.094-0.21 0.26-0.45 0.8-0.46z"/>
    <path d="m87-2.4c-1.3 0.93-1.7 2.4-1.7 3.5 0 0.98 0.29 2.5 1.7 3.5 0.059 0 0.14 0 0.14-0.082 0-0.047-0.023-0.059-0.07-0.11-0.93-0.83-1.3-2-1.3-3.3 0-1.9 0.71-2.8 1.3-3.3 0.023-0.023 0.047-0.047 0.047-0.082 0-0.082-0.082-0.082-0.14-0.082z"/>
    <path d="m88 2.4c-0.035 0.082-0.07 0.26-0.07 0.28 0 0.15 0.12 0.22 0.23 0.22 0.13 0 0.23-0.094 0.27-0.15 0.035-0.059 0.094-0.29 0.13-0.43 0.035-0.13 0.11-0.46 0.15-0.63 0.035-0.15 0.082-0.3 0.12-0.46 0.082-0.29 0.094-0.35 0.29-0.63 0.2-0.28 0.53-0.64 1-0.64 0.41 0 0.41 0.36 0.41 0.49 0 0.42-0.29 1.2-0.41 1.5-0.07 0.19-0.11 0.26-0.11 0.38 0 0.36 0.3 0.6 0.67 0.6 0.69 0 1-0.96 1-1.1 0-0.094-0.094-0.094-0.12-0.094-0.094 0-0.11 0.047-0.13 0.12-0.16 0.56-0.47 0.84-0.74 0.84-0.15 0-0.18-0.094-0.18-0.25 0-0.15 0.035-0.25 0.15-0.56 0.094-0.21 0.38-0.95 0.38-1.3 0-0.67-0.54-0.79-0.9-0.79-0.59 0-0.97 0.35-1.2 0.63-0.047-0.48-0.46-0.63-0.75-0.63s-0.46 0.21-0.55 0.38c-0.15 0.26-0.25 0.66-0.25 0.69 0 0.082 0.094 0.082 0.12 0.082 0.094 0 0.11-0.012 0.15-0.2 0.11-0.42 0.23-0.76 0.52-0.76 0.18 0 0.22 0.15 0.22 0.34 0 0.14-0.059 0.4-0.11 0.59-0.047 0.19-0.12 0.47-0.15 0.62zm5.5 0.32c0 0.39-0.07 0.83-0.55 1.3-0.023 0.035-0.047 0.059-0.047 0.094 0 0.047 0.059 0.094 0.094 0.094 0.11 0 0.69-0.56 0.69-1.4 0-0.42-0.16-0.75-0.48-0.75-0.23 0-0.4 0.18-0.4 0.39 0 0.23 0.15 0.41 0.4 0.41 0.16 0 0.28-0.12 0.29-0.12zm3.9-4.2c0-0.12-0.094-0.26-0.28-0.26-0.2 0-0.39 0.19-0.39 0.38 0 0.12 0.082 0.27 0.28 0.27 0.19 0 0.39-0.19 0.39-0.39zm-1.5 4.7c-0.12 0.48-0.49 0.89-0.9 0.89-0.082 0-0.18-0.012-0.25-0.047 0.18-0.082 0.23-0.25 0.23-0.35 0-0.16-0.13-0.26-0.27-0.26-0.22 0-0.4 0.19-0.4 0.41 0 0.27 0.27 0.43 0.69 0.43s1.2-0.25 1.5-1.1l0.62-2.5c0.023-0.07 0.035-0.14 0.035-0.23 0-0.39-0.33-0.66-0.74-0.66-0.79 0-1.2 0.96-1.2 1.1 0 0.082 0.11 0.082 0.13 0.082 0.082 0 0.082-0.012 0.13-0.12 0.18-0.41 0.54-0.84 0.95-0.84 0.18 0 0.23 0.12 0.23 0.34 0 0.082-0.012 0.18-0.023 0.21zm3.2-0.46c0 0.39-0.07 0.83-0.55 1.3-0.023 0.035-0.047 0.059-0.047 0.094 0 0.047 0.059 0.094 0.094 0.094 0.11 0 0.69-0.56 0.69-1.4 0-0.42-0.16-0.75-0.48-0.75-0.23 0-0.4 0.18-0.4 0.39 0 0.23 0.15 0.41 0.4 0.41 0.16 0 0.28-0.12 0.29-0.12zm4.7-0.87c0.64-0.66 0.9-1.6 0.9-1.7 0-0.094-0.082-0.094-0.12-0.094-0.094 0-0.094 0.023-0.14 0.18-0.13 0.46-0.36 0.89-0.66 1.3 0-0.11-0.023-0.57-0.035-0.63-0.11-0.69-0.62-1.1-1.3-1.1-1 0-2 0.95-2 1.9 0 0.64 0.47 1.2 1.3 1.2 0.64 0 1.2-0.29 1.6-0.6 0.16 0.52 0.52 0.6 0.73 0.6 0.41 0 0.66-0.34 0.66-0.49 0-0.082-0.082-0.082-0.12-0.082-0.094 0-0.11 0.035-0.12 0.07-0.11 0.27-0.32 0.3-0.4 0.3-0.094 0-0.22 0-0.26-0.86zm-0.54 0.23c-0.68 0.56-1.3 0.62-1.5 0.62-0.47 0-0.73-0.3-0.73-0.77 0-0.2 0.11-0.96 0.47-1.4 0.32-0.42 0.71-0.54 0.96-0.54 0.55 0 0.71 0.54 0.77 0.97 0.035 0.3 0.023 0.8 0.059 1.2z"/>
    <path d="m109 2.9h-0.21c-0.012 0.094-0.059 0.4-0.14 0.46-0.035 0.023-0.46 0.023-0.53 0.023h-0.98c0.33-0.25 0.7-0.52 1-0.71 0.46-0.32 0.87-0.6 0.87-1.1 0-0.64-0.6-1-1.3-1-0.67 0-1.2 0.39-1.2 0.88 0 0.26 0.21 0.3 0.28 0.3 0.14 0 0.29-0.094 0.29-0.29 0-0.19-0.13-0.28-0.28-0.29 0.14-0.23 0.43-0.37 0.76-0.37 0.48 0 0.89 0.28 0.89 0.77 0 0.42-0.29 0.74-0.68 1.1l-1.2 1c-0.047 0.047-0.059 0.047-0.059 0.082v0.15h2.3z"/>
    <path d="m110-2.4c-0.059 0-0.14 0-0.14 0.082 0 0.035 0.023 0.059 0.07 0.11 0.6 0.55 1.3 1.5 1.3 3.3 0 1.5-0.46 2.6-1.2 3.2-0.12 0.12-0.13 0.13-0.13 0.16 0 0.035 0.023 0.082 0.094 0.082 0.082 0 0.75-0.46 1.2-1.3 0.3-0.59 0.5-1.3 0.5-2.2 0-0.98-0.29-2.5-1.7-3.5zm5 0c-1.3 0.93-1.7 2.4-1.7 3.5 0 0.98 0.29 2.5 1.7 3.5 0.059 0 0.14 0 0.14-0.082 0-0.047-0.023-0.059-0.07-0.11-0.93-0.83-1.3-2-1.3-3.3 0-1.9 0.71-2.8 1.3-3.3 0.023-0.023 0.047-0.047 0.047-0.082 0-0.082-0.082-0.082-0.14-0.082z"/>
    <path d="m119 2.3c-0.035 0.14-0.094 0.38-0.094 0.41 0 0.15 0.13 0.22 0.23 0.22 0.13 0 0.23-0.094 0.27-0.15 0.035-0.059 0.094-0.29 0.13-0.43 0.035-0.13 0.12-0.46 0.15-0.63 0.047-0.15 0.082-0.3 0.12-0.46 0.082-0.3 0.082-0.32 0.22-0.54 0.22-0.34 0.56-0.74 1.1-0.74 0.39 0 0.41 0.33 0.41 0.49 0 0.42-0.3 1.2-0.41 1.5-0.082 0.19-0.11 0.26-0.11 0.38 0 0.36 0.3 0.6 0.66 0.6 0.7 0 1-0.96 1-1.1 0-0.094-0.094-0.094-0.11-0.094-0.11 0-0.11 0.047-0.14 0.12-0.15 0.56-0.46 0.84-0.74 0.84-0.14 0-0.18-0.094-0.18-0.25 0-0.15 0.035-0.25 0.16-0.56 0.082-0.21 0.38-0.95 0.38-1.3 0-0.11 0-0.4-0.26-0.6-0.13-0.094-0.33-0.19-0.66-0.19-0.62 0-1 0.41-1.2 0.7-0.059-0.6-0.55-0.7-0.9-0.7-0.59 0-0.97 0.35-1.2 0.63-0.047-0.48-0.46-0.63-0.75-0.63s-0.46 0.21-0.55 0.38c-0.15 0.26-0.25 0.66-0.25 0.69 0 0.082 0.094 0.082 0.12 0.082 0.094 0 0.11-0.012 0.15-0.2 0.11-0.42 0.23-0.76 0.52-0.76 0.18 0 0.22 0.15 0.22 0.34 0 0.14-0.059 0.4-0.11 0.59-0.047 0.19-0.12 0.47-0.15 0.62l-0.22 0.9c-0.035 0.082-0.07 0.26-0.07 0.28 0 0.15 0.12 0.22 0.23 0.22 0.13 0 0.23-0.094 0.27-0.15 0.035-0.059 0.094-0.29 0.13-0.43 0.035-0.13 0.11-0.46 0.15-0.63 0.035-0.15 0.082-0.3 0.12-0.46 0.082-0.29 0.094-0.35 0.29-0.63 0.2-0.28 0.53-0.64 1-0.64 0.41 0 0.41 0.36 0.41 0.49 0 0.18-0.012 0.27-0.12 0.66zm5.5 0.45c0 0.39-0.07 0.83-0.55 1.3-0.023 0.035-0.047 0.059-0.047 0.094 0 0.047 0.059 0.094 0.094 0.094 0.11 0 0.69-0.56 0.69-1.4 0-0.42-0.16-0.75-0.48-0.75-0.23 0-0.4 0.18-0.4 0.39 0 0.23 0.15 0.41 0.4 0.41 0.16 0 0.28-0.12 0.29-0.12zm3.1-4.2c0-0.11-0.082-0.26-0.28-0.26-0.19 0-0.39 0.18-0.39 0.38 0 0.12 0.082 0.27 0.27 0.27 0.21 0 0.4-0.2 0.4-0.39zm-1.4 3.5c-0.023 0.094-0.059 0.18-0.059 0.29 0 0.33 0.28 0.6 0.67 0.6 0.69 0 1-0.96 1-1.1 0-0.094-0.082-0.094-0.11-0.094-0.11 0-0.11 0.047-0.14 0.12-0.15 0.56-0.46 0.84-0.74 0.84-0.14 0-0.18-0.082-0.18-0.25 0-0.15 0.059-0.29 0.12-0.45 0.07-0.19 0.14-0.38 0.22-0.55 0.059-0.16 0.32-0.81 0.34-0.89 0.023-0.07 0.047-0.15 0.047-0.22 0-0.33-0.28-0.59-0.67-0.59-0.69 0-1 0.95-1 1.1 0 0.082 0.094 0.082 0.12 0.082 0.094 0 0.11-0.035 0.13-0.11 0.18-0.6 0.48-0.86 0.74-0.86 0.12 0 0.18 0.059 0.18 0.25 0 0.16-0.035 0.27-0.21 0.7zm3.5 0.7c0 0.39-0.07 0.83-0.55 1.3-0.023 0.035-0.047 0.059-0.047 0.094 0 0.047 0.059 0.094 0.094 0.094 0.11 0 0.69-0.56 0.69-1.4 0-0.42-0.16-0.75-0.48-0.75-0.23 0-0.4 0.18-0.4 0.39 0 0.23 0.15 0.41 0.4 0.41 0.16 0 0.28-0.12 0.29-0.12zm4.7-0.87c0.64-0.66 0.9-1.6 0.9-1.7 0-0.094-0.082-0.094-0.12-0.094-0.094 0-0.094 0.023-0.14 0.18-0.13 0.46-0.36 0.89-0.66 1.3 0-0.11-0.023-0.57-0.035-0.63-0.11-0.69-0.62-1.1-1.3-1.1-1 0-2 0.95-2 1.9 0 0.64 0.47 1.2 1.3 1.2 0.64 0 1.2-0.29 1.6-0.6 0.16 0.52 0.52 0.6 0.73 0.6 0.41 0 0.66-0.34 0.66-0.49 0-0.082-0.082-0.082-0.12-0.082-0.094 0-0.11 0.035-0.12 0.07-0.11 0.27-0.32 0.3-0.4 0.3-0.094 0-0.22 0-0.26-0.86zm-0.54 0.23c-0.68 0.56-1.3 0.62-1.5 0.62-0.47 0-0.73-0.3-0.73-0.77 0-0.2 0.11-0.96 0.47-1.4 0.32-0.42 0.71-0.54 0.96-0.54 0.55 0 0.71 0.54 0.77 0.97 0.035 0.3 0.023 0.8 0.059 1.2z"/>
    <path d="m138 0.68c0-0.15-0.012-0.15-0.18-0.15-0.35 0.32-0.9 0.32-1 0.32h-0.082v0.22h0.082c0.12 0 0.43-0.012 0.73-0.14v2.5c0 0.16 0 0.21-0.53 0.21h-0.25v0.22c0.27-0.023 0.71-0.023 1-0.023 0.28 0 0.73 0 1 0.023v-0.22h-0.25c-0.53 0-0.53-0.047-0.53-0.21z"/>
    <path d="m140-2.4c-0.059 0-0.14 0-0.14 0.082 0 0.035 0.023 0.059 0.07 0.11 0.6 0.55 1.3 1.5 1.3 3.3 0 1.5-0.46 2.6-1.2 3.2-0.12 0.12-0.13 0.13-0.13 0.16 0 0.035 0.023 0.082 0.094 0.082 0.082 0 0.75-0.46 1.2-1.3 0.3-0.59 0.5-1.3 0.5-2.2 0-0.98-0.29-2.5-1.7-3.5z"/>
    <path d="m149-2.3h2.8c0.14 0 0.33 0 0.33-0.2 0-0.2-0.19-0.2-0.33-0.2h-2.8v-2.8c0-0.13 0-0.33-0.2-0.33s-0.2 0.2-0.2 0.33v2.8h-2.8c-0.14 0-0.33 0-0.33 0.2 0 0.2 0.19 0.2 0.33 0.2h2.8v2.8c0 0.13 0 0.33 0.2 0.33s0.2-0.2 0.2-0.33zm8.8-1.2c0.81-0.27 1.4-0.97 1.4-1.8 0-0.82-0.88-1.4-1.8-1.4-1 0-1.8 0.6-1.8 1.3 0 0.34 0.21 0.53 0.5 0.53 0.3 0 0.5-0.22 0.5-0.52 0-0.49-0.47-0.49-0.61-0.49 0.3-0.49 0.96-0.62 1.3-0.62 0.41 0 0.95 0.22 0.95 1.1 0 0.13-0.012 0.7-0.27 1.1-0.3 0.48-0.64 0.52-0.89 0.52-0.082 0.012-0.32 0.035-0.39 0.035-0.082 0.012-0.15 0.023-0.15 0.12 0 0.12 0.07 0.12 0.23 0.12h0.45c0.81 0 1.2 0.67 1.2 1.7 0 1.3-0.69 1.6-1.1 1.6-0.43 0-1.2-0.18-1.5-0.76 0.35 0.059 0.66-0.16 0.66-0.54 0-0.36-0.27-0.56-0.56-0.56-0.23 0-0.55 0.14-0.55 0.57 0 0.91 0.93 1.6 2 1.6 1.2 0 2.1-0.91 2.1-1.9 0-0.82-0.62-1.6-1.7-1.8z"/>
    <path d="m169-2.3c0.18 0 0.35 0 0.35-0.2 0-0.2-0.18-0.2-0.35-0.2h-5.4c-0.16 0-0.34 0-0.34 0.2 0 0.2 0.18 0.2 0.34 0.2z"/>
    <path d="m175-3.2h1.7c1.4 0 2.8-1 2.8-2.1 0-0.77-0.66-1.5-2-1.5h-3.2c-0.19 0-0.29 0-0.29 0.2 0 0.12 0.082 0.12 0.28 0.12 0.13 0 0.32 0.012 0.43 0.012 0.15 0.023 0.21 0.059 0.21 0.16 0 0.035 0 0.07-0.035 0.19l-1.3 5.4c-0.094 0.39-0.12 0.47-0.9 0.47-0.18 0-0.28 0-0.28 0.19 0 0.12 0.12 0.12 0.15 0.12 0.28 0 0.98-0.035 1.3-0.035 0.21 0 0.42 0.012 0.63 0.012 0.22 0 0.45 0.023 0.64 0.023 0.07 0 0.2 0 0.2-0.2 0-0.11-0.082-0.11-0.27-0.11-0.38 0-0.66 0-0.66-0.19 0-0.059 0.023-0.11 0.035-0.16zm0.71-3c0.082-0.35 0.11-0.38 0.54-0.38h0.95c0.83 0 1.4 0.27 1.4 0.95 0 0.4-0.2 1.3-0.59 1.6-0.5 0.45-1.1 0.53-1.5 0.53h-1.4z"/>
    <path d="m185-8c0.14-0.14 0.28-0.27 0.43-0.38 0.28-0.19 0.54-0.2 0.63-0.21 0.07-0.012 0.16-0.012 0.16-0.15 0-0.047-0.047-0.094-0.11-0.094-0.18 0-0.39 0.023-0.56 0.023-0.22 0-0.52-0.023-0.73-0.023-0.035 0-0.14 0-0.14 0.15 0 0.082 0.094 0.094 0.13 0.094 0.2 0.012 0.2 0.094 0.2 0.13 0 0.07-0.035 0.12-0.094 0.19-0.035 0.059-0.07 0.11-0.12 0.15l-1.7 1.8-0.93-2c-0.047-0.094-0.047-0.12-0.047-0.12 0-0.13 0.33-0.13 0.38-0.13 0.094 0 0.18 0 0.18-0.15 0-0.012 0-0.094-0.11-0.094-0.21 0-0.73 0.023-0.94 0.023-0.18 0-0.62-0.023-0.8-0.023-0.047 0-0.13 0.012-0.13 0.15 0 0.094 0.082 0.094 0.19 0.094 0.4 0 0.42 0.059 0.49 0.21l1.1 2.4-0.32 1.3c-0.094 0.35-0.094 0.38-0.64 0.39-0.12 0-0.21 0-0.21 0.14 0 0.07 0.047 0.11 0.12 0.11 0.13 0 0.29-0.023 0.43-0.023h0.46 0.45c0.15 0 0.32 0.023 0.47 0.023 0.035 0 0.15 0 0.15-0.15 0-0.094-0.082-0.094-0.23-0.094-0.12 0-0.14 0-0.27-0.023-0.13-0.012-0.15-0.023-0.15-0.094 0-0.047 0.082-0.38 0.13-0.56 0.059-0.22 0.21-0.83 0.22-0.86 0.023-0.11 0.023-0.12 0.094-0.19z"/>
    <path d="m181-2.5c-1.3 0.93-1.7 2.4-1.7 3.5 0 0.98 0.29 2.5 1.7 3.5 0.059 0 0.14 0 0.14-0.082 0-0.047-0.023-0.059-0.07-0.11-0.93-0.83-1.3-2-1.3-3.3 0-1.9 0.71-2.8 1.3-3.3 0.023-0.023 0.047-0.047 0.047-0.082 0-0.082-0.082-0.082-0.14-0.082z"/>
    <path d="m185 2.1c-0.035 0.14-0.094 0.38-0.094 0.41 0 0.15 0.13 0.22 0.23 0.22 0.13 0 0.23-0.094 0.27-0.15 0.035-0.059 0.094-0.29 0.13-0.43 0.035-0.13 0.12-0.46 0.15-0.63 0.047-0.15 0.082-0.3 0.12-0.46 0.082-0.3 0.082-0.32 0.22-0.54 0.22-0.34 0.56-0.74 1.1-0.74 0.39 0 0.41 0.33 0.41 0.49 0 0.42-0.3 1.2-0.41 1.5-0.082 0.19-0.11 0.26-0.11 0.38 0 0.36 0.3 0.6 0.66 0.6 0.7 0 1-0.96 1-1.1 0-0.094-0.094-0.094-0.11-0.094-0.11 0-0.11 0.047-0.14 0.12-0.15 0.56-0.46 0.84-0.74 0.84-0.14 0-0.18-0.094-0.18-0.25 0-0.15 0.035-0.25 0.16-0.56 0.082-0.21 0.38-0.95 0.38-1.3 0-0.11 0-0.4-0.26-0.6-0.13-0.094-0.33-0.19-0.66-0.19-0.62 0-1 0.41-1.2 0.7-0.059-0.6-0.55-0.7-0.9-0.7-0.59 0-0.97 0.35-1.2 0.63-0.047-0.48-0.46-0.63-0.75-0.63s-0.46 0.21-0.55 0.38c-0.15 0.26-0.25 0.66-0.25 0.69 0 0.082 0.094 0.082 0.12 0.082 0.094 0 0.11-0.012 0.15-0.2 0.11-0.42 0.23-0.76 0.52-0.76 0.18 0 0.22 0.15 0.22 0.34 0 0.14-0.059 0.4-0.11 0.59-0.047 0.19-0.12 0.47-0.15 0.62l-0.22 0.9c-0.035 0.082-0.07 0.26-0.07 0.28 0 0.15 0.12 0.22 0.23 0.22 0.13 0 0.23-0.094 0.27-0.15 0.035-0.059 0.094-0.29 0.13-0.43 0.035-0.13 0.11-0.46 0.15-0.63 0.035-0.15 0.082-0.3 0.12-0.46 0.082-0.29 0.094-0.35 0.29-0.63 0.2-0.28 0.53-0.64 1-0.64 0.41 0 0.41 0.36 0.41 0.49 0 0.18-0.012 0.27-0.12 0.66zm5.5 0.45c0 0.39-0.07 0.83-0.55 1.3-0.023 0.035-0.047 0.059-0.047 0.094 0 0.047 0.059 0.094 0.094 0.094 0.11 0 0.69-0.56 0.69-1.4 0-0.42-0.16-0.75-0.48-0.75-0.23 0-0.4 0.18-0.4 0.39 0 0.23 0.15 0.41 0.4 0.41 0.16 0 0.28-0.12 0.29-0.12zm3.1-4.2c0-0.11-0.082-0.26-0.28-0.26-0.19 0-0.39 0.18-0.39 0.38 0 0.12 0.082 0.27 0.27 0.27 0.21 0 0.4-0.2 0.4-0.39zm-1.4 3.5c-0.023 0.094-0.059 0.18-0.059 0.29 0 0.33 0.28 0.6 0.67 0.6 0.69 0 1-0.96 1-1.1 0-0.094-0.082-0.094-0.11-0.094-0.11 0-0.11 0.047-0.14 0.12-0.15 0.56-0.46 0.84-0.74 0.84-0.14 0-0.18-0.082-0.18-0.25 0-0.15 0.059-0.29 0.12-0.45 0.07-0.19 0.14-0.38 0.22-0.55 0.059-0.16 0.32-0.81 0.34-0.89 0.023-0.07 0.047-0.15 0.047-0.22 0-0.33-0.28-0.59-0.67-0.59-0.69 0-1 0.95-1 1.1 0 0.082 0.094 0.082 0.12 0.082 0.094 0 0.11-0.035 0.13-0.11 0.18-0.6 0.48-0.86 0.74-0.86 0.12 0 0.18 0.059 0.18 0.25 0 0.16-0.035 0.27-0.21 0.7zm3.5 0.7c0 0.39-0.07 0.83-0.55 1.3-0.023 0.035-0.047 0.059-0.047 0.094 0 0.047 0.059 0.094 0.094 0.094 0.11 0 0.69-0.56 0.69-1.4 0-0.42-0.16-0.75-0.48-0.75-0.23 0-0.4 0.18-0.4 0.39 0 0.23 0.15 0.41 0.4 0.41 0.16 0 0.28-0.12 0.29-0.12zm4.7-0.87c0.64-0.66 0.9-1.6 0.9-1.7 0-0.094-0.082-0.094-0.12-0.094-0.094 0-0.094 0.023-0.14 0.18-0.13 0.46-0.36 0.89-0.66 1.3 0-0.11-0.023-0.57-0.035-0.63-0.11-0.69-0.62-1.1-1.3-1.1-1 0-2 0.95-2 1.9 0 0.64 0.47 1.2 1.3 1.2 0.64 0 1.2-0.29 1.6-0.6 0.16 0.52 0.52 0.6 0.73 0.6 0.41 0 0.66-0.34 0.66-0.49 0-0.082-0.082-0.082-0.12-0.082-0.094 0-0.11 0.035-0.12 0.07-0.11 0.27-0.32 0.3-0.4 0.3-0.094 0-0.22 0-0.26-0.86zm-0.54 0.23c-0.68 0.56-1.3 0.62-1.5 0.62-0.47 0-0.73-0.3-0.73-0.77 0-0.2 0.11-0.96 0.47-1.4 0.32-0.42 0.71-0.54 0.96-0.54 0.55 0 0.71 0.54 0.77 0.97 0.035 0.3 0.023 0.8 0.059 1.2z"/>
    <path d="m204 0.54c0-0.15-0.012-0.15-0.18-0.15-0.35 0.32-0.9 0.32-1 0.32h-0.082v0.22h0.082c0.12 0 0.43-0.012 0.73-0.14v2.5c0 0.16 0 0.21-0.53 0.21h-0.25v0.22c0.27-0.023 0.71-0.023 1-0.023 0.28 0 0.73 0 1 0.023v-0.22h-0.25c-0.53 0-0.53-0.047-0.53-0.21z"/>
    <path d="m206-2.5c-0.059 0-0.14 0-0.14 0.082 0 0.035 0.023 0.059 0.07 0.11 0.6 0.55 1.3 1.5 1.3 3.3 0 1.5-0.46 2.6-1.2 3.2-0.12 0.12-0.13 0.13-0.13 0.16 0 0.035 0.023 0.082 0.094 0.082 0.082 0 0.75-0.46 1.2-1.3 0.3-0.59 0.5-1.3 0.5-2.2 0-0.98-0.29-2.5-1.7-3.5z"/>
    <path d="m210 2.6c0 0.39-0.07 0.83-0.55 1.3-0.023 0.035-0.047 0.059-0.047 0.094 0 0.047 0.059 0.094 0.094 0.094 0.11 0 0.69-0.56 0.69-1.4 0-0.42-0.16-0.75-0.48-0.75-0.23 0-0.4 0.18-0.4 0.39 0 0.23 0.15 0.41 0.4 0.41 0.16 0 0.28-0.12 0.29-0.12zm4.8-2.5c0.023-0.11 0.023-0.12 0.023-0.15 0-0.14-0.11-0.22-0.22-0.22-0.082 0-0.21 0.035-0.29 0.16-0.023 0.035-0.07 0.26-0.11 0.4l-0.15 0.59c-0.035 0.16-0.26 1-0.28 1.1 0 0-0.3 0.6-0.86 0.6-0.47 0-0.47-0.45-0.47-0.57 0-0.38 0.15-0.82 0.36-1.4 0.082-0.22 0.12-0.3 0.12-0.42 0-0.33-0.28-0.59-0.66-0.59-0.7 0-1 0.95-1 1.1 0 0.082 0.094 0.082 0.12 0.082 0.094 0 0.11-0.035 0.13-0.11 0.18-0.59 0.47-0.86 0.75-0.86 0.12 0 0.18 0.082 0.18 0.25s-0.059 0.32-0.094 0.41c-0.34 0.84-0.41 1.1-0.41 1.4 0 0.12 0 0.45 0.27 0.68 0.22 0.18 0.52 0.21 0.7 0.21 0.28 0 0.53-0.11 0.76-0.32-0.094 0.39-0.18 0.68-0.47 1-0.19 0.21-0.46 0.45-0.83 0.45-0.047 0-0.38 0-0.53-0.23 0.38-0.035 0.38-0.38 0.38-0.39 0-0.22-0.2-0.26-0.27-0.26-0.18 0-0.4 0.14-0.4 0.46 0 0.35 0.33 0.61 0.83 0.61 0.7 0 1.6-0.54 1.8-1.4z"/>
    <path d="m225-2.3c0.18 0 0.35 0 0.35-0.2 0-0.2-0.18-0.2-0.35-0.2h-5.4c-0.16 0-0.34 0-0.34 0.2 0 0.2 0.18 0.2 0.34 0.2z"/>
    <path d="m231-3.2h1.7c1.4 0 2.8-1 2.8-2.1 0-0.77-0.66-1.5-2-1.5h-3.2c-0.19 0-0.29 0-0.29 0.2 0 0.12 0.082 0.12 0.28 0.12 0.13 0 0.32 0.012 0.43 0.012 0.15 0.023 0.21 0.059 0.21 0.16 0 0.035 0 0.07-0.035 0.19l-1.3 5.4c-0.094 0.39-0.12 0.47-0.9 0.47-0.18 0-0.28 0-0.28 0.19 0 0.12 0.12 0.12 0.15 0.12 0.28 0 0.98-0.035 1.3-0.035 0.21 0 0.42 0.012 0.63 0.012 0.22 0 0.45 0.023 0.64 0.023 0.07 0 0.2 0 0.2-0.2 0-0.11-0.082-0.11-0.27-0.11-0.38 0-0.66 0-0.66-0.19 0-0.059 0.023-0.11 0.035-0.16zm0.71-3c0.082-0.35 0.11-0.38 0.54-0.38h0.95c0.83 0 1.4 0.27 1.4 0.95 0 0.4-0.2 1.3-0.59 1.6-0.5 0.45-1.1 0.53-1.5 0.53h-1.4z"/>
    <path d="m241-8c0.14-0.14 0.28-0.27 0.43-0.38 0.28-0.19 0.54-0.2 0.63-0.21 0.07-0.012 0.16-0.012 0.16-0.15 0-0.047-0.047-0.094-0.11-0.094-0.18 0-0.39 0.023-0.56 0.023-0.22 0-0.52-0.023-0.73-0.023-0.035 0-0.14 0-0.14 0.15 0 0.082 0.094 0.094 0.13 0.094 0.2 0.012 0.2 0.094 0.2 0.13 0 0.07-0.035 0.12-0.094 0.19-0.035 0.059-0.07 0.11-0.12 0.15l-1.7 1.8-0.93-2c-0.047-0.094-0.047-0.12-0.047-0.12 0-0.13 0.33-0.13 0.38-0.13 0.094 0 0.18 0 0.18-0.15 0-0.012 0-0.094-0.11-0.094-0.21 0-0.73 0.023-0.94 0.023-0.18 0-0.62-0.023-0.8-0.023-0.047 0-0.13 0.012-0.13 0.15 0 0.094 0.082 0.094 0.19 0.094 0.4 0 0.42 0.059 0.49 0.21l1.1 2.4-0.32 1.3c-0.094 0.35-0.094 0.38-0.64 0.39-0.12 0-0.21 0-0.21 0.14 0 0.07 0.047 0.11 0.12 0.11 0.13 0 0.29-0.023 0.43-0.023h0.46 0.45c0.15 0 0.32 0.023 0.47 0.023 0.035 0 0.15 0 0.15-0.15 0-0.094-0.082-0.094-0.23-0.094-0.12 0-0.14 0-0.27-0.023-0.13-0.012-0.15-0.023-0.15-0.094 0-0.047 0.082-0.38 0.13-0.56 0.059-0.22 0.21-0.83 0.22-0.86 0.023-0.11 0.023-0.12 0.094-0.19z"/>
    <path d="m237-2.5c-1.3 0.93-1.7 2.4-1.7 3.5 0 0.98 0.29 2.5 1.7 3.5 0.059 0 0.14 0 0.14-0.082 0-0.047-0.023-0.059-0.07-0.11-0.93-0.83-1.3-2-1.3-3.3 0-1.9 0.71-2.8 1.3-3.3 0.023-0.023 0.047-0.047 0.047-0.082 0-0.082-0.082-0.082-0.14-0.082z"/>
    <path d="m238 2.3c-0.035 0.082-0.07 0.26-0.07 0.28 0 0.15 0.12 0.22 0.23 0.22 0.13 0 0.23-0.094 0.27-0.15 0.035-0.059 0.094-0.29 0.13-0.43 0.035-0.13 0.11-0.46 0.15-0.63 0.035-0.15 0.082-0.3 0.12-0.46 0.082-0.29 0.094-0.35 0.29-0.63 0.2-0.28 0.53-0.64 1-0.64 0.41 0 0.41 0.36 0.41 0.49 0 0.42-0.29 1.2-0.41 1.5-0.07 0.19-0.11 0.26-0.11 0.38 0 0.36 0.3 0.6 0.67 0.6 0.69 0 1-0.96 1-1.1 0-0.094-0.094-0.094-0.12-0.094-0.094 0-0.11 0.047-0.13 0.12-0.16 0.56-0.47 0.84-0.74 0.84-0.15 0-0.18-0.094-0.18-0.25 0-0.15 0.035-0.25 0.15-0.56 0.094-0.21 0.38-0.95 0.38-1.3 0-0.67-0.54-0.79-0.9-0.79-0.59 0-0.97 0.35-1.2 0.63-0.047-0.48-0.46-0.63-0.75-0.63s-0.46 0.21-0.55 0.38c-0.15 0.26-0.25 0.66-0.25 0.69 0 0.082 0.094 0.082 0.12 0.082 0.094 0 0.11-0.012 0.15-0.2 0.11-0.42 0.23-0.76 0.52-0.76 0.18 0 0.22 0.15 0.22 0.34 0 0.14-0.059 0.4-0.11 0.59-0.047 0.19-0.12 0.47-0.15 0.62zm5.5 0.32c0 0.39-0.07 0.83-0.55 1.3-0.023 0.035-0.047 0.059-0.047 0.094 0 0.047 0.059 0.094 0.094 0.094 0.11 0 0.69-0.56 0.69-1.4 0-0.42-0.16-0.75-0.48-0.75-0.23 0-0.4 0.18-0.4 0.39 0 0.23 0.15 0.41 0.4 0.41 0.16 0 0.28-0.12 0.29-0.12zm3.9-4.2c0-0.12-0.094-0.26-0.28-0.26-0.2 0-0.39 0.19-0.39 0.38 0 0.12 0.082 0.27 0.28 0.27 0.19 0 0.39-0.19 0.39-0.39zm-1.5 4.7c-0.12 0.48-0.49 0.89-0.9 0.89-0.082 0-0.18-0.012-0.25-0.047 0.18-0.082 0.23-0.25 0.23-0.35 0-0.16-0.13-0.26-0.27-0.26-0.22 0-0.4 0.19-0.4 0.41 0 0.27 0.27 0.43 0.69 0.43 0.42 0 1.2-0.25 1.5-1.1l0.62-2.5c0.023-0.07 0.035-0.14 0.035-0.23 0-0.39-0.33-0.66-0.74-0.66-0.79 0-1.2 0.96-1.2 1.1 0 0.082 0.11 0.082 0.13 0.082 0.082 0 0.082-0.012 0.13-0.12 0.18-0.41 0.54-0.84 0.95-0.84 0.18 0 0.23 0.12 0.23 0.34 0 0.082-0.012 0.18-0.023 0.21zm3.2-0.46c0 0.39-0.07 0.83-0.55 1.3-0.023 0.035-0.047 0.059-0.047 0.094 0 0.047 0.059 0.094 0.094 0.094 0.11 0 0.69-0.56 0.69-1.4 0-0.42-0.16-0.75-0.48-0.75-0.23 0-0.4 0.18-0.4 0.39 0 0.23 0.15 0.41 0.4 0.41 0.16 0 0.28-0.12 0.29-0.12zm4.7-0.87c0.64-0.66 0.9-1.6 0.9-1.7 0-0.094-0.082-0.094-0.12-0.094-0.094 0-0.094 0.023-0.14 0.18-0.13 0.46-0.36 0.89-0.66 1.3 0-0.11-0.023-0.57-0.035-0.63-0.11-0.69-0.62-1.1-1.3-1.1-1 0-2 0.95-2 1.9 0 0.64 0.47 1.2 1.3 1.2 0.64 0 1.2-0.29 1.6-0.6 0.16 0.52 0.52 0.6 0.73 0.6 0.41 0 0.66-0.34 0.66-0.49 0-0.082-0.082-0.082-0.12-0.082-0.094 0-0.11 0.035-0.12 0.07-0.11 0.27-0.32 0.3-0.4 0.3-0.094 0-0.22 0-0.26-0.86zm-0.54 0.23c-0.68 0.56-1.3 0.62-1.5 0.62-0.47 0-0.73-0.3-0.73-0.77 0-0.2 0.11-0.96 0.47-1.4 0.32-0.42 0.71-0.54 0.96-0.54 0.55 0 0.71 0.54 0.77 0.97 0.035 0.3 0.023 0.8 0.059 1.2z"/>
    <path d="m259 2.7h-0.21c-0.012 0.094-0.059 0.4-0.14 0.46-0.035 0.023-0.46 0.023-0.53 0.023h-0.98c0.33-0.25 0.7-0.52 1-0.71 0.46-0.32 0.87-0.6 0.87-1.1 0-0.64-0.6-1-1.3-1-0.67 0-1.2 0.39-1.2 0.88 0 0.26 0.21 0.3 0.28 0.3 0.14 0 0.29-0.094 0.29-0.29 0-0.19-0.13-0.28-0.28-0.29 0.14-0.23 0.43-0.38 0.76-0.38 0.48 0 0.89 0.28 0.89 0.77 0 0.42-0.29 0.74-0.68 1.1l-1.2 1c-0.047 0.047-0.059 0.047-0.059 0.082v0.15h2.3z"/>
    <path d="m260-2.5c-0.059 0-0.14 0-0.14 0.082 0 0.035 0.023 0.059 0.07 0.11 0.6 0.55 1.3 1.5 1.3 3.3 0 1.5-0.46 2.6-1.2 3.2-0.12 0.12-0.13 0.13-0.13 0.16 0 0.035 0.023 0.082 0.094 0.082 0.082 0 0.75-0.46 1.2-1.3 0.3-0.59 0.5-1.3 0.5-2.2 0-0.98-0.29-2.5-1.7-3.5z"/>
    <path d="m264 2.6c0 0.39-0.07 0.83-0.55 1.3-0.023 0.035-0.047 0.059-0.047 0.094 0 0.047 0.059 0.094 0.094 0.094 0.11 0 0.69-0.56 0.69-1.4 0-0.42-0.16-0.75-0.48-0.75-0.23 0-0.4 0.18-0.4 0.39 0 0.23 0.15 0.41 0.4 0.41 0.16 0 0.28-0.12 0.29-0.12zm4.8-2.5c0.023-0.11 0.023-0.12 0.023-0.15 0-0.14-0.11-0.22-0.22-0.22-0.082 0-0.21 0.035-0.29 0.16-0.023 0.035-0.07 0.26-0.11 0.4l-0.15 0.59c-0.035 0.16-0.26 1-0.28 1.1 0 0-0.3 0.6-0.86 0.6-0.47 0-0.47-0.45-0.47-0.57 0-0.38 0.15-0.82 0.36-1.4 0.082-0.22 0.12-0.3 0.12-0.42 0-0.33-0.28-0.59-0.66-0.59-0.7 0-1 0.95-1 1.1 0 0.082 0.094 0.082 0.12 0.082 0.094 0 0.11-0.035 0.13-0.11 0.18-0.59 0.47-0.86 0.75-0.86 0.12 0 0.18 0.082 0.18 0.25s-0.059 0.32-0.094 0.41c-0.34 0.84-0.41 1.1-0.41 1.4 0 0.12 0 0.45 0.27 0.68 0.22 0.18 0.52 0.21 0.7 0.21 0.28 0 0.53-0.11 0.76-0.32-0.094 0.39-0.18 0.68-0.47 1-0.19 0.21-0.46 0.45-0.83 0.45-0.047 0-0.38 0-0.53-0.23 0.38-0.035 0.38-0.38 0.38-0.39 0-0.22-0.2-0.26-0.27-0.26-0.18 0-0.4 0.14-0.4 0.46 0 0.35 0.33 0.61 0.83 0.61 0.7 0 1.6-0.54 1.8-1.4z"/>
    <path d="m279-2.3c0.18 0 0.35 0 0.35-0.2 0-0.2-0.18-0.2-0.35-0.2h-5.4c-0.16 0-0.34 0-0.34 0.2 0 0.2 0.18 0.2 0.34 0.2z"/>
    <path d="m287-13c-0.07 0.23-0.29 0.61-0.66 0.61-0.023 0-0.22 0-0.38-0.094 0.28-0.094 0.3-0.34 0.3-0.39 0-0.15-0.12-0.26-0.28-0.26-0.19 0-0.39 0.16-0.39 0.43 0 0.34 0.39 0.5 0.73 0.5 0.32 0 0.61-0.2 0.79-0.49 0.16 0.36 0.55 0.49 0.82 0.49 0.81 0 1.2-0.87 1.2-1.1 0-0.094-0.094-0.094-0.11-0.094-0.11 0-0.11 0.035-0.14 0.12-0.14 0.48-0.56 0.84-0.95 0.84-0.28 0-0.42-0.19-0.42-0.45 0-0.19 0.16-0.82 0.36-1.6 0.13-0.54 0.45-0.71 0.68-0.71 0.012 0 0.22 0 0.38 0.11-0.22 0.059-0.3 0.26-0.3 0.38 0 0.15 0.12 0.26 0.28 0.26 0.15 0 0.39-0.13 0.39-0.42 0-0.39-0.45-0.5-0.73-0.5-0.35 0-0.63 0.22-0.79 0.49-0.12-0.29-0.45-0.49-0.83-0.49-0.79 0-1.2 0.86-1.2 1.1 0 0.082 0.11 0.082 0.12 0.082 0.094 0 0.11-0.023 0.14-0.12 0.18-0.54 0.61-0.84 0.95-0.84 0.23 0 0.42 0.13 0.42 0.47 0 0.13-0.082 0.48-0.15 0.71z"/>
    <path d="m292-18s0.047-0.094 0.047-0.18c0-0.18-0.15-0.29-0.3-0.29-0.21 0-0.26 0.16-0.28 0.23l-0.77 2.2c-0.012 0.059-0.012 0.07-0.012 0.082 0 0.082 0.2 0.13 0.21 0.13 0.047 0 0.047-0.023 0.082-0.082z"/>
    <path d="m295 4.5 1.2-3.2h-0.25c-0.39 1-1.5 1.7-2.6 2-0.21 0.047-1.2 0.3-3.1 0.3h-6l5.1-5.9c0.07-0.082 0.094-0.12 0.094-0.16 0-0.023 0-0.047-0.07-0.15l-4.6-6.3h5.5c1.3 0 2.2 0.14 2.3 0.15 0.54 0.082 1.4 0.26 2.2 0.75 0.25 0.16 0.93 0.61 1.3 1.4h0.25l-1.2-2.8h-12c-0.22 0-0.23 0.012-0.27 0.07v0.33l5.3 7.2-5.2 6c-0.11 0.13-0.11 0.18-0.11 0.19 0 0.11 0.094 0.11 0.27 0.11z"/>
    <path d="m284 11c-0.07 0.23-0.29 0.61-0.66 0.61-0.023 0-0.22 0-0.38-0.094 0.28-0.094 0.3-0.34 0.3-0.39 0-0.15-0.12-0.26-0.28-0.26-0.19 0-0.39 0.16-0.39 0.43 0 0.34 0.39 0.5 0.73 0.5 0.32 0 0.61-0.2 0.79-0.49 0.16 0.36 0.55 0.49 0.82 0.49 0.81 0 1.2-0.87 1.2-1.1 0-0.094-0.094-0.094-0.11-0.094-0.11 0-0.11 0.035-0.14 0.12-0.14 0.48-0.56 0.84-0.95 0.84-0.28 0-0.42-0.19-0.42-0.45 0-0.19 0.16-0.82 0.36-1.6 0.13-0.54 0.45-0.71 0.68-0.71 0.012 0 0.22 0 0.38 0.11-0.22 0.059-0.3 0.26-0.3 0.38 0 0.15 0.12 0.26 0.28 0.26 0.15 0 0.39-0.13 0.39-0.42 0-0.39-0.45-0.5-0.73-0.5-0.35 0-0.63 0.22-0.79 0.49-0.12-0.29-0.45-0.49-0.83-0.49-0.79 0-1.2 0.86-1.2 1.1 0 0.082 0.11 0.082 0.12 0.082 0.094 0 0.11-0.023 0.14-0.12 0.18-0.54 0.61-0.84 0.95-0.84 0.23 0 0.42 0.13 0.42 0.47 0 0.13-0.082 0.48-0.15 0.71z"/>
    <path d="m292 9.3c0.11 0 0.27 0 0.27-0.18 0-0.16-0.18-0.16-0.26-0.16h-4.6c-0.094 0-0.26 0-0.26 0.16 0 0.18 0.15 0.18 0.26 0.18zm0.012 1.5c0.082 0 0.26 0 0.26-0.16 0-0.18-0.16-0.18-0.27-0.18h-4.6c-0.11 0-0.26 0-0.26 0.18 0 0.16 0.16 0.16 0.26 0.16zm3.1-3.6c0-0.19-0.012-0.2-0.21-0.2-0.45 0.43-1.1 0.45-1.4 0.45v0.25c0.16 0 0.62 0 1-0.19v3.6c0 0.23 0 0.33-0.69 0.33h-0.27v0.25c0.13-0.012 0.98-0.023 1.2-0.023 0.21 0 1.1 0.012 1.2 0.023v-0.25h-0.26c-0.7 0-0.7-0.094-0.7-0.33z"/>
    <path d="m303 6.4c0.012 0.012 0.11 0.11 0.12 0.11h0.22c0.023 0 0.11-0.012 0.11-0.094 0-0.047-0.023-0.059-0.035-0.094-0.36-0.36-0.9-0.9-1.5-2-1.1-1.9-1.5-4.4-1.5-6.8 0-4.4 1.3-7 3-8.8 0.035-0.023 0.035-0.059 0.035-0.082 0-0.094-0.07-0.094-0.19-0.094-0.13 0-0.15 0-0.25 0.082-0.94 0.82-2 2.2-2.7 4.3-0.42 1.3-0.66 2.9-0.66 4.6 0 2.4 0.43 5 2 7.3 0.27 0.39 0.63 0.8 0.63 0.8 0.11 0.13 0.25 0.28 0.33 0.35z"/>
    <path d="m307-3.2h1.7c1.4 0 2.8-1 2.8-2.1 0-0.77-0.66-1.5-2-1.5h-3.2c-0.19 0-0.29 0-0.29 0.2 0 0.12 0.082 0.12 0.28 0.12 0.13 0 0.32 0.012 0.43 0.012 0.15 0.023 0.21 0.059 0.21 0.16 0 0.035 0 0.07-0.035 0.19l-1.3 5.4c-0.094 0.39-0.12 0.47-0.9 0.47-0.18 0-0.28 0-0.28 0.19 0 0.12 0.12 0.12 0.15 0.12 0.28 0 0.98-0.035 1.3-0.035 0.21 0 0.42 0.012 0.63 0.012 0.22 0 0.45 0.023 0.64 0.023 0.07 0 0.2 0 0.2-0.2 0-0.11-0.082-0.11-0.27-0.11-0.38 0-0.66 0-0.66-0.19 0-0.059 0.023-0.11 0.035-0.16zm0.71-3c0.082-0.35 0.11-0.38 0.54-0.38h0.95c0.83 0 1.4 0.27 1.4 0.95 0 0.4-0.2 1.3-0.59 1.6-0.5 0.45-1.1 0.53-1.5 0.53h-1.4z"/>
    <path d="m316-6.8 0.66-0.67c0.9-0.88 1.2-1.1 1.8-1.2 0.094-0.012 0.18-0.012 0.18-0.14 0-0.094-0.07-0.11-0.094-0.11-0.2 0-0.45 0.023-0.66 0.023-0.19 0-0.63-0.023-0.81-0.023-0.059 0-0.14 0.012-0.14 0.15 0 0 0 0.082 0.11 0.094 0.059 0.012 0.23 0.023 0.23 0.18 0 0.11-0.11 0.21-0.18 0.28-0.059 0.047-0.94 0.91-1.2 1.2l-0.7-1.4c-0.012-0.023-0.035-0.07-0.035-0.094 0-0.047 0.13-0.16 0.36-0.18 0.059 0 0.15-0.012 0.15-0.15 0-0.012-0.012-0.094-0.12-0.094-0.15 0-0.33 0.012-0.47 0.012-0.15 0-0.3 0.012-0.46 0.012-0.12 0-0.28 0-0.41-0.012-0.12 0-0.27-0.012-0.38-0.012-0.035 0-0.15 0-0.15 0.15 0 0.094 0.094 0.094 0.21 0.094 0.4 0 0.43 0.07 0.5 0.21l0.97 1.9-0.39 0.39c-0.13 0.13-0.46 0.45-0.59 0.57-0.84 0.84-1.1 1.1-1.8 1.2-0.11 0-0.18 0-0.18 0.15 0 0.023 0.023 0.094 0.094 0.094 0.2 0 0.45-0.023 0.64-0.023h0.42c0.12 0.012 0.27 0.023 0.39 0.023 0.035 0 0.15 0 0.15-0.14 0-0.11-0.082-0.11-0.13-0.11-0.07-0.012-0.21-0.035-0.21-0.18 0-0.12 0.094-0.21 0.25-0.36l1.4-1.4 0.84 1.7c0.035 0.07 0.047 0.082 0.047 0.094 0 0.035-0.13 0.15-0.38 0.18-0.059 0-0.15 0-0.15 0.15 0 0 0.012 0.094 0.12 0.094 0.15 0 0.33-0.023 0.47-0.023h0.46 0.41c0.12 0.012 0.27 0.023 0.38 0.023 0.035 0 0.15 0 0.15-0.15 0-0.094-0.094-0.094-0.21-0.094-0.4 0-0.43-0.082-0.49-0.2z"/>
    <path d="m313-2.5c-1.3 0.93-1.7 2.4-1.7 3.5 0 0.98 0.29 2.5 1.7 3.5 0.059 0 0.14 0 0.14-0.082 0-0.047-0.023-0.059-0.07-0.11-0.93-0.83-1.3-2-1.3-3.3 0-1.9 0.71-2.8 1.3-3.3 0.023-0.023 0.047-0.047 0.047-0.082 0-0.082-0.082-0.082-0.14-0.082z"/>
    <path d="m317 2.1c-0.035 0.14-0.094 0.38-0.094 0.41 0 0.15 0.13 0.22 0.23 0.22 0.13 0 0.23-0.094 0.27-0.15 0.035-0.059 0.094-0.29 0.13-0.43 0.035-0.13 0.12-0.46 0.15-0.63 0.047-0.15 0.082-0.3 0.12-0.46 0.082-0.3 0.082-0.32 0.22-0.54 0.22-0.34 0.56-0.74 1.1-0.74 0.39 0 0.41 0.33 0.41 0.49 0 0.42-0.3 1.2-0.41 1.5-0.082 0.19-0.11 0.26-0.11 0.38 0 0.36 0.3 0.6 0.66 0.6 0.7 0 1-0.96 1-1.1 0-0.094-0.094-0.094-0.11-0.094-0.11 0-0.11 0.047-0.14 0.12-0.15 0.56-0.46 0.84-0.74 0.84-0.14 0-0.18-0.094-0.18-0.25 0-0.15 0.035-0.25 0.16-0.56 0.082-0.21 0.38-0.95 0.38-1.3 0-0.11 0-0.4-0.26-0.6-0.13-0.094-0.33-0.19-0.66-0.19-0.62 0-1 0.41-1.2 0.7-0.059-0.6-0.55-0.7-0.9-0.7-0.59 0-0.97 0.35-1.2 0.63-0.047-0.48-0.46-0.63-0.75-0.63s-0.46 0.21-0.55 0.38c-0.15 0.26-0.25 0.66-0.25 0.69 0 0.082 0.094 0.082 0.12 0.082 0.094 0 0.11-0.012 0.15-0.2 0.11-0.42 0.23-0.76 0.52-0.76 0.18 0 0.22 0.15 0.22 0.34 0 0.14-0.059 0.4-0.11 0.59-0.047 0.19-0.12 0.47-0.15 0.62l-0.22 0.9c-0.035 0.082-0.07 0.26-0.07 0.28 0 0.15 0.12 0.22 0.23 0.22 0.13 0 0.23-0.094 0.27-0.15 0.035-0.059 0.094-0.29 0.13-0.43 0.035-0.13 0.11-0.46 0.15-0.63 0.035-0.15 0.082-0.3 0.12-0.46 0.082-0.29 0.094-0.35 0.29-0.63 0.2-0.28 0.53-0.64 1-0.64 0.41 0 0.41 0.36 0.41 0.49 0 0.18-0.012 0.27-0.12 0.66zm5.5 0.45c0 0.39-0.07 0.83-0.55 1.3-0.023 0.035-0.047 0.059-0.047 0.094 0 0.047 0.059 0.094 0.094 0.094 0.11 0 0.69-0.56 0.69-1.4 0-0.42-0.16-0.75-0.48-0.75-0.23 0-0.4 0.18-0.4 0.39 0 0.23 0.15 0.41 0.4 0.41 0.16 0 0.28-0.12 0.29-0.12zm3.1-4.2c0-0.11-0.082-0.26-0.28-0.26-0.19 0-0.39 0.18-0.39 0.38 0 0.12 0.082 0.27 0.27 0.27 0.21 0 0.4-0.2 0.4-0.39zm-1.4 3.5c-0.023 0.094-0.059 0.18-0.059 0.29 0 0.33 0.28 0.6 0.67 0.6 0.69 0 1-0.96 1-1.1 0-0.094-0.082-0.094-0.11-0.094-0.11 0-0.11 0.047-0.14 0.12-0.15 0.56-0.46 0.84-0.74 0.84-0.14 0-0.18-0.082-0.18-0.25 0-0.15 0.059-0.29 0.12-0.45 0.07-0.19 0.14-0.38 0.22-0.55 0.059-0.16 0.32-0.81 0.34-0.89 0.023-0.07 0.047-0.15 0.047-0.22 0-0.33-0.28-0.59-0.67-0.59-0.69 0-1 0.95-1 1.1 0 0.082 0.094 0.082 0.12 0.082 0.094 0 0.11-0.035 0.13-0.11 0.18-0.6 0.48-0.86 0.74-0.86 0.12 0 0.18 0.059 0.18 0.25 0 0.16-0.035 0.27-0.21 0.7zm3.5 0.7c0 0.39-0.07 0.83-0.55 1.3-0.023 0.035-0.047 0.059-0.047 0.094 0 0.047 0.059 0.094 0.094 0.094 0.11 0 0.69-0.56 0.69-1.4 0-0.42-0.16-0.75-0.48-0.75-0.23 0-0.4 0.18-0.4 0.39 0 0.23 0.15 0.41 0.4 0.41 0.16 0 0.28-0.12 0.29-0.12zm4.7-0.87c0.64-0.66 0.9-1.6 0.9-1.7 0-0.094-0.082-0.094-0.12-0.094-0.094 0-0.094 0.023-0.14 0.18-0.13 0.46-0.36 0.89-0.66 1.3 0-0.11-0.023-0.57-0.035-0.63-0.11-0.69-0.62-1.1-1.3-1.1-1 0-2 0.95-2 1.9 0 0.64 0.47 1.2 1.3 1.2 0.64 0 1.2-0.29 1.6-0.6 0.16 0.52 0.52 0.6 0.73 0.6 0.41 0 0.66-0.34 0.66-0.49 0-0.082-0.082-0.082-0.12-0.082-0.094 0-0.11 0.035-0.12 0.07-0.11 0.27-0.32 0.3-0.4 0.3-0.094 0-0.22 0-0.26-0.86zm-0.54 0.23c-0.68 0.56-1.3 0.62-1.5 0.62-0.47 0-0.73-0.3-0.73-0.77 0-0.2 0.11-0.96 0.47-1.4 0.32-0.42 0.71-0.54 0.96-0.54 0.55 0 0.71 0.54 0.77 0.97 0.035 0.3 0.023 0.8 0.059 1.2z"/>
    <path d="m335 0.54c0-0.15-0.012-0.15-0.18-0.15-0.35 0.32-0.9 0.32-1 0.32h-0.082v0.22h0.082c0.12 0 0.43-0.012 0.73-0.14v2.5c0 0.16 0 0.21-0.53 0.21h-0.25v0.22c0.27-0.023 0.71-0.023 1-0.023 0.28 0 0.73 0 1 0.023v-0.22h-0.25c-0.53 0-0.53-0.047-0.53-0.21z"/>
    <path d="m343 1.1c0.11 0 0.27 0 0.27-0.18 0-0.18-0.15-0.18-0.27-0.18h-4.2c-0.11 0-0.28 0-0.28 0.18 0 0.18 0.16 0.18 0.28 0.18z"/>
    <path d="m346-1.7c0-0.19-0.012-0.2-0.21-0.2-0.45 0.43-1.1 0.45-1.4 0.45v0.25c0.16 0 0.62 0 1-0.19v3.6c0 0.23 0 0.33-0.69 0.33h-0.27v0.25c0.13-0.012 0.98-0.023 1.2-0.023 0.21 0 1.1 0.012 1.2 0.023v-0.25h-0.26c-0.7 0-0.7-0.094-0.7-0.33zm2.3-0.8c-0.059 0-0.14 0-0.14 0.082 0 0.035 0.023 0.059 0.07 0.11 0.6 0.55 1.3 1.5 1.3 3.3 0 1.5-0.46 2.6-1.2 3.2-0.12 0.12-0.13 0.13-0.13 0.16 0 0.035 0.023 0.082 0.094 0.082 0.082 0 0.75-0.46 1.2-1.3 0.3-0.59 0.5-1.3 0.5-2.2 0-0.98-0.29-2.5-1.7-3.5z"/>
    <path d="m352 2.6c0 0.39-0.07 0.83-0.55 1.3-0.023 0.035-0.047 0.059-0.047 0.094 0 0.047 0.059 0.094 0.094 0.094 0.11 0 0.69-0.56 0.69-1.4 0-0.42-0.16-0.75-0.48-0.75-0.23 0-0.4 0.18-0.4 0.39 0 0.23 0.15 0.41 0.4 0.41 0.16 0 0.28-0.12 0.29-0.12zm2.6-0.62c-0.07 0.23-0.29 0.61-0.66 0.61-0.023 0-0.22 0-0.38-0.094 0.28-0.094 0.3-0.34 0.3-0.39 0-0.15-0.12-0.26-0.28-0.26-0.19 0-0.39 0.16-0.39 0.43 0 0.34 0.39 0.5 0.73 0.5 0.32 0 0.61-0.2 0.79-0.49 0.16 0.36 0.55 0.49 0.82 0.49 0.81 0 1.2-0.87 1.2-1.1 0-0.094-0.094-0.094-0.11-0.094-0.11 0-0.11 0.035-0.14 0.12-0.14 0.48-0.56 0.84-0.95 0.84-0.28 0-0.42-0.19-0.42-0.45 0-0.19 0.16-0.82 0.36-1.6 0.13-0.54 0.45-0.71 0.68-0.71 0.012 0 0.22 0 0.38 0.11-0.22 0.059-0.3 0.26-0.3 0.38 0 0.15 0.12 0.26 0.28 0.26 0.15 0 0.39-0.13 0.39-0.42 0-0.39-0.45-0.5-0.73-0.5-0.35 0-0.63 0.22-0.79 0.49-0.12-0.29-0.45-0.49-0.83-0.49-0.79 0-1.2 0.86-1.2 1.1 0 0.082 0.11 0.082 0.12 0.082 0.094 0 0.11-0.023 0.14-0.12 0.18-0.54 0.61-0.84 0.95-0.84 0.23 0 0.42 0.13 0.42 0.47 0 0.13-0.082 0.48-0.15 0.71z"/>
    <path d="m364-2.3h2.8c0.14 0 0.33 0 0.33-0.2 0-0.2-0.19-0.2-0.33-0.2h-2.8v-2.8c0-0.13 0-0.33-0.2-0.33-0.2 0-0.2 0.2-0.2 0.33v2.8h-2.8c-0.14 0-0.33 0-0.33 0.2 0 0.2 0.19 0.2 0.33 0.2h2.8v2.8c0 0.13 0 0.33 0.2 0.33 0.2 0 0.2-0.2 0.2-0.33z"/>
    <path d="m373-3.2h1.7c1.4 0 2.8-1 2.8-2.1 0-0.77-0.66-1.5-2-1.5h-3.2c-0.19 0-0.29 0-0.29 0.2 0 0.12 0.082 0.12 0.28 0.12 0.13 0 0.32 0.012 0.43 0.012 0.15 0.023 0.21 0.059 0.21 0.16 0 0.035 0 0.07-0.035 0.19l-1.3 5.4c-0.094 0.39-0.12 0.47-0.9 0.47-0.18 0-0.28 0-0.28 0.19 0 0.12 0.12 0.12 0.15 0.12 0.28 0 0.98-0.035 1.3-0.035 0.21 0 0.42 0.012 0.63 0.012 0.22 0 0.45 0.023 0.64 0.023 0.07 0 0.2 0 0.2-0.2 0-0.11-0.082-0.11-0.27-0.11-0.38 0-0.66 0-0.66-0.19 0-0.059 0.023-0.11 0.035-0.16zm0.71-3c0.082-0.35 0.11-0.38 0.54-0.38h0.95c0.83 0 1.4 0.27 1.4 0.95 0 0.4-0.2 1.3-0.59 1.6-0.5 0.45-1.1 0.53-1.5 0.53h-1.4z"/>
    <path d="m382-6.8 0.66-0.67c0.9-0.88 1.2-1.1 1.8-1.2 0.094-0.012 0.18-0.012 0.18-0.14 0-0.094-0.07-0.11-0.094-0.11-0.2 0-0.45 0.023-0.66 0.023-0.19 0-0.63-0.023-0.81-0.023-0.059 0-0.14 0.012-0.14 0.15 0 0 0 0.082 0.11 0.094 0.059 0.012 0.23 0.023 0.23 0.18 0 0.11-0.11 0.21-0.18 0.28-0.059 0.047-0.94 0.91-1.2 1.2l-0.7-1.4c-0.012-0.023-0.035-0.07-0.035-0.094 0-0.047 0.13-0.16 0.36-0.18 0.059 0 0.15-0.012 0.15-0.15 0-0.012-0.012-0.094-0.12-0.094-0.15 0-0.33 0.012-0.47 0.012-0.15 0-0.3 0.012-0.46 0.012-0.12 0-0.28 0-0.41-0.012-0.12 0-0.27-0.012-0.38-0.012-0.035 0-0.15 0-0.15 0.15 0 0.094 0.094 0.094 0.21 0.094 0.4 0 0.43 0.07 0.5 0.21l0.97 1.9-0.39 0.39c-0.13 0.13-0.46 0.45-0.59 0.57-0.84 0.84-1.1 1.1-1.8 1.2-0.11 0-0.18 0-0.18 0.15 0 0.023 0.023 0.094 0.094 0.094 0.2 0 0.45-0.023 0.64-0.023h0.42c0.12 0.012 0.27 0.023 0.39 0.023 0.035 0 0.15 0 0.15-0.14 0-0.11-0.082-0.11-0.13-0.11-0.07-0.012-0.21-0.035-0.21-0.18 0-0.12 0.094-0.21 0.25-0.36l1.4-1.4 0.84 1.7c0.035 0.07 0.047 0.082 0.047 0.094 0 0.035-0.13 0.15-0.38 0.18-0.059 0-0.15 0-0.15 0.15 0 0 0.012 0.094 0.12 0.094 0.15 0 0.33-0.023 0.47-0.023h0.46 0.41c0.12 0.012 0.27 0.023 0.38 0.023 0.035 0 0.15 0 0.15-0.15 0-0.094-0.094-0.094-0.21-0.094-0.4 0-0.43-0.082-0.49-0.2z"/>
    <path d="m379-2.5c-1.3 0.93-1.7 2.4-1.7 3.5 0 0.98 0.29 2.5 1.7 3.5 0.059 0 0.14 0 0.14-0.082 0-0.047-0.023-0.059-0.07-0.11-0.93-0.83-1.3-2-1.3-3.3 0-1.9 0.71-2.8 1.3-3.3 0.023-0.023 0.047-0.047 0.047-0.082 0-0.082-0.082-0.082-0.14-0.082z"/>
    <path d="m381 2.3c-0.035 0.082-0.07 0.26-0.07 0.28 0 0.15 0.12 0.22 0.23 0.22 0.13 0 0.23-0.094 0.27-0.15 0.035-0.059 0.094-0.29 0.13-0.43 0.035-0.13 0.11-0.46 0.15-0.63 0.035-0.15 0.082-0.3 0.12-0.46 0.082-0.29 0.094-0.35 0.29-0.63 0.2-0.28 0.53-0.64 1-0.64 0.41 0 0.41 0.36 0.41 0.49 0 0.42-0.29 1.2-0.41 1.5-0.07 0.19-0.11 0.26-0.11 0.38 0 0.36 0.3 0.6 0.67 0.6 0.69 0 1-0.96 1-1.1 0-0.094-0.094-0.094-0.12-0.094-0.094 0-0.11 0.047-0.13 0.12-0.16 0.56-0.47 0.84-0.74 0.84-0.15 0-0.18-0.094-0.18-0.25 0-0.15 0.035-0.25 0.15-0.56 0.094-0.21 0.38-0.95 0.38-1.3 0-0.67-0.54-0.79-0.9-0.79-0.59 0-0.97 0.35-1.2 0.63-0.047-0.48-0.46-0.63-0.75-0.63s-0.46 0.21-0.55 0.38c-0.15 0.26-0.25 0.66-0.25 0.69 0 0.082 0.094 0.082 0.12 0.082 0.094 0 0.11-0.012 0.15-0.2 0.11-0.42 0.23-0.76 0.52-0.76 0.18 0 0.22 0.15 0.22 0.34 0 0.14-0.059 0.4-0.11 0.59-0.047 0.19-0.12 0.47-0.15 0.62zm5.5 0.32c0 0.39-0.07 0.83-0.55 1.3-0.023 0.035-0.047 0.059-0.047 0.094 0 0.047 0.059 0.094 0.094 0.094 0.11 0 0.69-0.56 0.69-1.4 0-0.42-0.16-0.75-0.48-0.75-0.23 0-0.4 0.18-0.4 0.39 0 0.23 0.15 0.41 0.4 0.41 0.16 0 0.28-0.12 0.29-0.12zm3.9-4.2c0-0.12-0.094-0.26-0.28-0.26-0.2 0-0.39 0.19-0.39 0.38 0 0.12 0.082 0.27 0.28 0.27 0.19 0 0.39-0.19 0.39-0.39zm-1.5 4.7c-0.12 0.48-0.49 0.89-0.9 0.89-0.082 0-0.18-0.012-0.25-0.047 0.18-0.082 0.23-0.25 0.23-0.35 0-0.16-0.13-0.26-0.27-0.26-0.22 0-0.4 0.19-0.4 0.41 0 0.27 0.27 0.43 0.69 0.43 0.42 0 1.2-0.25 1.5-1.1l0.62-2.5c0.023-0.07 0.035-0.14 0.035-0.23 0-0.39-0.33-0.66-0.74-0.66-0.79 0-1.2 0.96-1.2 1.1 0 0.082 0.11 0.082 0.13 0.082 0.082 0 0.082-0.012 0.13-0.12 0.18-0.41 0.54-0.84 0.95-0.84 0.18 0 0.23 0.12 0.23 0.34 0 0.082-0.012 0.18-0.023 0.21zm3.2-0.46c0 0.39-0.07 0.83-0.55 1.3-0.023 0.035-0.047 0.059-0.047 0.094 0 0.047 0.059 0.094 0.094 0.094 0.11 0 0.69-0.56 0.69-1.4 0-0.42-0.16-0.75-0.48-0.75-0.23 0-0.4 0.18-0.4 0.39 0 0.23 0.15 0.41 0.4 0.41 0.16 0 0.28-0.12 0.29-0.12zm4.7-0.87c0.64-0.66 0.9-1.6 0.9-1.7 0-0.094-0.082-0.094-0.12-0.094-0.094 0-0.094 0.023-0.14 0.18-0.13 0.46-0.36 0.89-0.66 1.3 0-0.11-0.023-0.57-0.035-0.63-0.11-0.69-0.62-1.1-1.3-1.1-1 0-2 0.95-2 1.9 0 0.64 0.47 1.2 1.3 1.2 0.64 0 1.2-0.29 1.6-0.6 0.16 0.52 0.52 0.6 0.73 0.6 0.41 0 0.66-0.34 0.66-0.49 0-0.082-0.082-0.082-0.12-0.082-0.094 0-0.11 0.035-0.12 0.07-0.11 0.27-0.32 0.3-0.4 0.3-0.094 0-0.22 0-0.26-0.86zm-0.54 0.23c-0.68 0.56-1.3 0.62-1.5 0.62-0.47 0-0.73-0.3-0.73-0.77 0-0.2 0.11-0.96 0.47-1.4 0.32-0.42 0.71-0.54 0.96-0.54 0.55 0 0.71 0.54 0.77 0.97 0.035 0.3 0.023 0.8 0.059 1.2z"/>
    <path d="m401 2.7h-0.21c-0.012 0.094-0.059 0.4-0.14 0.46-0.035 0.023-0.46 0.023-0.53 0.023h-0.98c0.33-0.25 0.7-0.52 1-0.71 0.46-0.32 0.87-0.6 0.87-1.1 0-0.64-0.6-1-1.3-1-0.67 0-1.2 0.39-1.2 0.88 0 0.26 0.21 0.3 0.28 0.3 0.14 0 0.29-0.094 0.29-0.29 0-0.19-0.13-0.28-0.28-0.29 0.14-0.23 0.43-0.38 0.76-0.38 0.48 0 0.89 0.28 0.89 0.77 0 0.42-0.29 0.74-0.68 1.1l-1.2 1c-0.047 0.047-0.059 0.047-0.059 0.082v0.15h2.3z"/>
    <path d="m402-2.5c-0.059 0-0.14 0-0.14 0.082 0 0.035 0.023 0.059 0.07 0.11 0.6 0.55 1.3 1.5 1.3 3.3 0 1.5-0.46 2.6-1.2 3.2-0.12 0.12-0.13 0.13-0.13 0.16 0 0.035 0.023 0.082 0.094 0.082 0.082 0 0.75-0.46 1.2-1.3 0.3-0.59 0.5-1.3 0.5-2.2 0-0.98-0.29-2.5-1.7-3.5z"/>
    <path d="m406 2.6c0 0.39-0.07 0.83-0.55 1.3-0.023 0.035-0.047 0.059-0.047 0.094 0 0.047 0.059 0.094 0.094 0.094 0.11 0 0.69-0.56 0.69-1.4 0-0.42-0.16-0.75-0.48-0.75-0.23 0-0.4 0.18-0.4 0.39 0 0.23 0.15 0.41 0.4 0.41 0.16 0 0.28-0.12 0.29-0.12zm2.6-0.62c-0.07 0.23-0.29 0.61-0.66 0.61-0.023 0-0.22 0-0.38-0.094 0.28-0.094 0.3-0.34 0.3-0.39 0-0.15-0.12-0.26-0.28-0.26-0.19 0-0.39 0.16-0.39 0.43 0 0.34 0.39 0.5 0.73 0.5 0.32 0 0.61-0.2 0.79-0.49 0.16 0.36 0.55 0.49 0.82 0.49 0.81 0 1.2-0.87 1.2-1.1 0-0.094-0.094-0.094-0.11-0.094-0.11 0-0.11 0.035-0.14 0.12-0.14 0.48-0.56 0.84-0.95 0.84-0.28 0-0.42-0.19-0.42-0.45 0-0.19 0.16-0.82 0.36-1.6 0.13-0.54 0.45-0.71 0.68-0.71 0.012 0 0.22 0 0.38 0.11-0.22 0.059-0.3 0.26-0.3 0.38 0 0.15 0.12 0.26 0.28 0.26 0.15 0 0.39-0.13 0.39-0.42 0-0.39-0.45-0.5-0.73-0.5-0.35 0-0.63 0.22-0.79 0.49-0.12-0.29-0.45-0.49-0.83-0.49-0.79 0-1.2 0.86-1.2 1.1 0 0.082 0.11 0.082 0.12 0.082 0.094 0 0.11-0.023 0.14-0.12 0.18-0.54 0.61-0.84 0.95-0.84 0.23 0 0.42 0.13 0.42 0.47 0 0.13-0.082 0.48-0.15 0.71z"/>
    <path d="m421-2.3c0.18 0 0.35 0 0.35-0.2 0-0.2-0.18-0.2-0.35-0.2h-5.4c-0.16 0-0.34 0-0.34 0.2 0 0.2 0.18 0.2 0.34 0.2z"/>
    <path d="m427-3.2h1.7c1.4 0 2.8-1 2.8-2.1 0-0.77-0.66-1.5-2-1.5h-3.2c-0.19 0-0.29 0-0.29 0.2 0 0.12 0.082 0.12 0.28 0.12 0.13 0 0.32 0.012 0.43 0.012 0.15 0.023 0.21 0.059 0.21 0.16 0 0.035 0 0.07-0.035 0.19l-1.3 5.4c-0.094 0.39-0.12 0.47-0.9 0.47-0.18 0-0.28 0-0.28 0.19 0 0.12 0.12 0.12 0.15 0.12 0.28 0 0.98-0.035 1.3-0.035 0.21 0 0.42 0.012 0.63 0.012 0.22 0 0.45 0.023 0.64 0.023 0.07 0 0.2 0 0.2-0.2 0-0.11-0.082-0.11-0.27-0.11-0.38 0-0.66 0-0.66-0.19 0-0.059 0.023-0.11 0.035-0.16zm0.71-3c0.082-0.35 0.11-0.38 0.54-0.38h0.95c0.83 0 1.4 0.27 1.4 0.95 0 0.4-0.2 1.3-0.59 1.6-0.5 0.45-1.1 0.53-1.5 0.53h-1.4z"/>
    <path d="m436-6.8 0.66-0.67c0.9-0.88 1.2-1.1 1.8-1.2 0.094-0.012 0.18-0.012 0.18-0.14 0-0.094-0.07-0.11-0.094-0.11-0.2 0-0.45 0.023-0.66 0.023-0.19 0-0.63-0.023-0.81-0.023-0.059 0-0.14 0.012-0.14 0.15 0 0 0 0.082 0.11 0.094 0.059 0.012 0.23 0.023 0.23 0.18 0 0.11-0.11 0.21-0.18 0.28-0.059 0.047-0.94 0.91-1.2 1.2l-0.7-1.4c-0.012-0.023-0.035-0.07-0.035-0.094 0-0.047 0.13-0.16 0.36-0.18 0.059 0 0.15-0.012 0.15-0.15 0-0.012-0.012-0.094-0.12-0.094-0.15 0-0.33 0.012-0.47 0.012-0.15 0-0.3 0.012-0.46 0.012-0.12 0-0.28 0-0.41-0.012-0.12 0-0.27-0.012-0.38-0.012-0.035 0-0.15 0-0.15 0.15 0 0.094 0.094 0.094 0.21 0.094 0.4 0 0.43 0.07 0.5 0.21l0.97 1.9-0.39 0.39c-0.13 0.13-0.46 0.45-0.59 0.57-0.84 0.84-1.1 1.1-1.8 1.2-0.11 0-0.18 0-0.18 0.15 0 0.023 0.023 0.094 0.094 0.094 0.2 0 0.45-0.023 0.64-0.023h0.42c0.12 0.012 0.27 0.023 0.39 0.023 0.035 0 0.15 0 0.15-0.14 0-0.11-0.082-0.11-0.13-0.11-0.07-0.012-0.21-0.035-0.21-0.18 0-0.12 0.094-0.21 0.25-0.36l1.4-1.4 0.84 1.7c0.035 0.07 0.047 0.082 0.047 0.094 0 0.035-0.13 0.15-0.38 0.18-0.059 0-0.15 0-0.15 0.15 0 0 0.012 0.094 0.12 0.094 0.15 0 0.33-0.023 0.47-0.023h0.46 0.41c0.12 0.012 0.27 0.023 0.38 0.023 0.035 0 0.15 0 0.15-0.15 0-0.094-0.094-0.094-0.21-0.094-0.4 0-0.43-0.082-0.49-0.2z"/>
    <path d="m433-2.5c-1.3 0.93-1.7 2.4-1.7 3.5 0 0.98 0.29 2.5 1.7 3.5 0.059 0 0.14 0 0.14-0.082 0-0.047-0.023-0.059-0.07-0.11-0.93-0.83-1.3-2-1.3-3.3 0-1.9 0.71-2.8 1.3-3.3 0.023-0.023 0.047-0.047 0.047-0.082 0-0.082-0.082-0.082-0.14-0.082z"/>
    <path d="m437 2.1c-0.035 0.14-0.094 0.38-0.094 0.41 0 0.15 0.13 0.22 0.23 0.22 0.13 0 0.23-0.094 0.27-0.15 0.035-0.059 0.094-0.29 0.13-0.43 0.035-0.13 0.12-0.46 0.15-0.63 0.047-0.15 0.082-0.3 0.12-0.46 0.082-0.3 0.082-0.32 0.22-0.54 0.22-0.34 0.56-0.74 1.1-0.74 0.39 0 0.41 0.33 0.41 0.49 0 0.42-0.3 1.2-0.41 1.5-0.082 0.19-0.11 0.26-0.11 0.38 0 0.36 0.3 0.6 0.66 0.6 0.7 0 1-0.96 1-1.1 0-0.094-0.094-0.094-0.11-0.094-0.11 0-0.11 0.047-0.14 0.12-0.15 0.56-0.46 0.84-0.74 0.84-0.14 0-0.18-0.094-0.18-0.25 0-0.15 0.035-0.25 0.16-0.56 0.082-0.21 0.38-0.95 0.38-1.3 0-0.11 0-0.4-0.26-0.6-0.13-0.094-0.33-0.19-0.66-0.19-0.62 0-1 0.41-1.2 0.7-0.059-0.6-0.55-0.7-0.9-0.7-0.59 0-0.97 0.35-1.2 0.63-0.047-0.48-0.46-0.63-0.75-0.63s-0.46 0.21-0.55 0.38c-0.15 0.26-0.25 0.66-0.25 0.69 0 0.082 0.094 0.082 0.12 0.082 0.094 0 0.11-0.012 0.15-0.2 0.11-0.42 0.23-0.76 0.52-0.76 0.18 0 0.22 0.15 0.22 0.34 0 0.14-0.059 0.4-0.11 0.59-0.047 0.19-0.12 0.47-0.15 0.62l-0.22 0.9c-0.035 0.082-0.07 0.26-0.07 0.28 0 0.15 0.12 0.22 0.23 0.22 0.13 0 0.23-0.094 0.27-0.15 0.035-0.059 0.094-0.29 0.13-0.43 0.035-0.13 0.11-0.46 0.15-0.63 0.035-0.15 0.082-0.3 0.12-0.46 0.082-0.29 0.094-0.35 0.29-0.63 0.2-0.28 0.53-0.64 1-0.64 0.41 0 0.41 0.36 0.41 0.49 0 0.18-0.012 0.27-0.12 0.66zm5.5 0.45c0 0.39-0.07 0.83-0.55 1.3-0.023 0.035-0.047 0.059-0.047 0.094 0 0.047 0.059 0.094 0.094 0.094 0.11 0 0.69-0.56 0.69-1.4 0-0.42-0.16-0.75-0.48-0.75-0.23 0-0.4 0.18-0.4 0.39 0 0.23 0.15 0.41 0.4 0.41 0.16 0 0.28-0.12 0.29-0.12zm3.1-4.2c0-0.11-0.082-0.26-0.28-0.26-0.19 0-0.39 0.18-0.39 0.38 0 0.12 0.082 0.27 0.27 0.27 0.21 0 0.4-0.2 0.4-0.39zm-1.4 3.5c-0.023 0.094-0.059 0.18-0.059 0.29 0 0.33 0.28 0.6 0.67 0.6 0.69 0 1-0.96 1-1.1 0-0.094-0.082-0.094-0.11-0.094-0.11 0-0.11 0.047-0.14 0.12-0.15 0.56-0.46 0.84-0.74 0.84-0.14 0-0.18-0.082-0.18-0.25 0-0.15 0.059-0.29 0.12-0.45 0.07-0.19 0.14-0.38 0.22-0.55 0.059-0.16 0.32-0.81 0.34-0.89 0.023-0.07 0.047-0.15 0.047-0.22 0-0.33-0.28-0.59-0.67-0.59-0.69 0-1 0.95-1 1.1 0 0.082 0.094 0.082 0.12 0.082 0.094 0 0.11-0.035 0.13-0.11 0.18-0.6 0.48-0.86 0.74-0.86 0.12 0 0.18 0.059 0.18 0.25 0 0.16-0.035 0.27-0.21 0.7zm3.5 0.7c0 0.39-0.07 0.83-0.55 1.3-0.023 0.035-0.047 0.059-0.047 0.094 0 0.047 0.059 0.094 0.094 0.094 0.11 0 0.69-0.56 0.69-1.4 0-0.42-0.16-0.75-0.48-0.75-0.23 0-0.4 0.18-0.4 0.39 0 0.23 0.15 0.41 0.4 0.41 0.16 0 0.28-0.12 0.29-0.12zm4.7-0.87c0.64-0.66 0.9-1.6 0.9-1.7 0-0.094-0.082-0.094-0.12-0.094-0.094 0-0.094 0.023-0.14 0.18-0.13 0.46-0.36 0.89-0.66 1.3 0-0.11-0.023-0.57-0.035-0.63-0.11-0.69-0.62-1.1-1.3-1.1-1 0-2 0.95-2 1.9 0 0.64 0.47 1.2 1.3 1.2 0.64 0 1.2-0.29 1.6-0.6 0.16 0.52 0.52 0.6 0.73 0.6 0.41 0 0.66-0.34 0.66-0.49 0-0.082-0.082-0.082-0.12-0.082-0.094 0-0.11 0.035-0.12 0.07-0.11 0.27-0.32 0.3-0.4 0.3-0.094 0-0.22 0-0.26-0.86zm-0.54 0.23c-0.68 0.56-1.3 0.62-1.5 0.62-0.47 0-0.73-0.3-0.73-0.77 0-0.2 0.11-0.96 0.47-1.4 0.32-0.42 0.71-0.54 0.96-0.54 0.55 0 0.71 0.54 0.77 0.97 0.035 0.3 0.023 0.8 0.059 1.2z"/>
    <path d="m456 0.54c0-0.15-0.012-0.15-0.18-0.15-0.35 0.32-0.9 0.32-1 0.32h-0.082v0.22h0.082c0.12 0 0.43-0.012 0.73-0.14v2.5c0 0.16 0 0.21-0.53 0.21h-0.25v0.22c0.27-0.023 0.71-0.023 1-0.023 0.28 0 0.73 0 1 0.023v-0.22h-0.25c-0.53 0-0.53-0.047-0.53-0.21z"/>
    <path d="m458-2.5c-0.059 0-0.14 0-0.14 0.082 0 0.035 0.023 0.059 0.07 0.11 0.6 0.55 1.3 1.5 1.3 3.3 0 1.5-0.46 2.6-1.2 3.2-0.12 0.12-0.13 0.13-0.13 0.16 0 0.035 0.023 0.082 0.094 0.082 0.082 0 0.75-0.46 1.2-1.3 0.3-0.59 0.5-1.3 0.5-2.2 0-0.98-0.29-2.5-1.7-3.5z"/>
    <path d="m462 2.6c0 0.39-0.07 0.83-0.55 1.3-0.023 0.035-0.047 0.059-0.047 0.094 0 0.047 0.059 0.094 0.094 0.094 0.11 0 0.69-0.56 0.69-1.4 0-0.42-0.16-0.75-0.48-0.75-0.23 0-0.4 0.18-0.4 0.39 0 0.23 0.15 0.41 0.4 0.41 0.16 0 0.28-0.12 0.29-0.12zm2.6-0.62c-0.07 0.23-0.29 0.61-0.66 0.61-0.023 0-0.22 0-0.38-0.094 0.28-0.094 0.3-0.34 0.3-0.39 0-0.15-0.12-0.26-0.28-0.26-0.19 0-0.39 0.16-0.39 0.43 0 0.34 0.39 0.5 0.73 0.5 0.32 0 0.61-0.2 0.79-0.49 0.16 0.36 0.55 0.49 0.82 0.49 0.81 0 1.2-0.87 1.2-1.1 0-0.094-0.094-0.094-0.11-0.094-0.11 0-0.11 0.035-0.14 0.12-0.14 0.48-0.56 0.84-0.95 0.84-0.28 0-0.42-0.19-0.42-0.45 0-0.19 0.16-0.82 0.36-1.6 0.13-0.54 0.45-0.71 0.68-0.71 0.012 0 0.22 0 0.38 0.11-0.22 0.059-0.3 0.26-0.3 0.38 0 0.15 0.12 0.26 0.28 0.26 0.15 0 0.39-0.13 0.39-0.42 0-0.39-0.45-0.5-0.73-0.5-0.35 0-0.63 0.22-0.79 0.49-0.12-0.29-0.45-0.49-0.83-0.49-0.79 0-1.2 0.86-1.2 1.1 0 0.082 0.11 0.082 0.12 0.082 0.094 0 0.11-0.023 0.14-0.12 0.18-0.54 0.61-0.84 0.95-0.84 0.23 0 0.42 0.13 0.42 0.47 0 0.13-0.082 0.48-0.15 0.71z"/>
    <path d="m477-2.3c0.18 0 0.35 0 0.35-0.2 0-0.2-0.18-0.2-0.35-0.2h-5.4c-0.16 0-0.34 0-0.34 0.2 0 0.2 0.18 0.2 0.34 0.2z"/>
    <path d="m483-3.2h1.7c1.4 0 2.8-1 2.8-2.1 0-0.77-0.66-1.5-2-1.5h-3.2c-0.19 0-0.29 0-0.29 0.2 0 0.12 0.082 0.12 0.28 0.12 0.13 0 0.32 0.012 0.43 0.012 0.15 0.023 0.21 0.059 0.21 0.16 0 0.035 0 0.07-0.035 0.19l-1.3 5.4c-0.094 0.39-0.12 0.47-0.9 0.47-0.18 0-0.28 0-0.28 0.19 0 0.12 0.12 0.12 0.15 0.12 0.28 0 0.98-0.035 1.3-0.035 0.21 0 0.42 0.012 0.63 0.012 0.22 0 0.45 0.023 0.64 0.023 0.07 0 0.2 0 0.2-0.2 0-0.11-0.082-0.11-0.27-0.11-0.38 0-0.66 0-0.66-0.19 0-0.059 0.023-0.11 0.035-0.16zm0.71-3c0.082-0.35 0.11-0.38 0.54-0.38h0.95c0.83 0 1.4 0.27 1.4 0.95 0 0.4-0.2 1.3-0.59 1.6-0.5 0.45-1.1 0.53-1.5 0.53h-1.4z"/>
    <path d="m492-6.8 0.66-0.67c0.9-0.88 1.2-1.1 1.8-1.2 0.094-0.012 0.18-0.012 0.18-0.14 0-0.094-0.07-0.11-0.094-0.11-0.2 0-0.45 0.023-0.66 0.023-0.19 0-0.63-0.023-0.81-0.023-0.059 0-0.14 0.012-0.14 0.15 0 0 0 0.082 0.11 0.094 0.059 0.012 0.23 0.023 0.23 0.18 0 0.11-0.11 0.21-0.18 0.28-0.059 0.047-0.94 0.91-1.2 1.2l-0.7-1.4c-0.012-0.023-0.035-0.07-0.035-0.094 0-0.047 0.13-0.16 0.36-0.18 0.059 0 0.15-0.012 0.15-0.15 0-0.012-0.012-0.094-0.12-0.094-0.15 0-0.33 0.012-0.47 0.012-0.15 0-0.3 0.012-0.46 0.012-0.12 0-0.28 0-0.41-0.012-0.12 0-0.27-0.012-0.38-0.012-0.035 0-0.15 0-0.15 0.15 0 0.094 0.094 0.094 0.21 0.094 0.4 0 0.43 0.07 0.5 0.21l0.97 1.9-0.39 0.39c-0.13 0.13-0.46 0.45-0.59 0.57-0.84 0.84-1.1 1.1-1.8 1.2-0.11 0-0.18 0-0.18 0.15 0 0.023 0.023 0.094 0.094 0.094 0.2 0 0.45-0.023 0.64-0.023h0.42c0.12 0.012 0.27 0.023 0.39 0.023 0.035 0 0.15 0 0.15-0.14 0-0.11-0.082-0.11-0.13-0.11-0.07-0.012-0.21-0.035-0.21-0.18 0-0.12 0.094-0.21 0.25-0.36l1.4-1.4 0.84 1.7c0.035 0.07 0.047 0.082 0.047 0.094 0 0.035-0.13 0.15-0.38 0.18-0.059 0-0.15 0-0.15 0.15 0 0 0.012 0.094 0.12 0.094 0.15 0 0.33-0.023 0.47-0.023h0.46 0.41c0.12 0.012 0.27 0.023 0.38 0.023 0.035 0 0.15 0 0.15-0.15 0-0.094-0.094-0.094-0.21-0.094-0.4 0-0.43-0.082-0.49-0.2z"/>
    <path d="m489-2.5c-1.3 0.93-1.7 2.4-1.7 3.5 0 0.98 0.29 2.5 1.7 3.5 0.059 0 0.14 0 0.14-0.082 0-0.047-0.023-0.059-0.07-0.11-0.93-0.83-1.3-2-1.3-3.3 0-1.9 0.71-2.8 1.3-3.3 0.023-0.023 0.047-0.047 0.047-0.082 0-0.082-0.082-0.082-0.14-0.082z"/>
    <path d="m491 2.3c-0.035 0.082-0.07 0.26-0.07 0.28 0 0.15 0.12 0.22 0.23 0.22 0.13 0 0.23-0.094 0.27-0.15 0.035-0.059 0.094-0.29 0.13-0.43 0.035-0.13 0.11-0.46 0.15-0.63 0.035-0.15 0.082-0.3 0.12-0.46 0.082-0.29 0.094-0.35 0.29-0.63 0.2-0.28 0.53-0.64 1-0.64 0.41 0 0.41 0.36 0.41 0.49 0 0.42-0.29 1.2-0.41 1.5-0.07 0.19-0.11 0.26-0.11 0.38 0 0.36 0.3 0.6 0.67 0.6 0.69 0 1-0.96 1-1.1 0-0.094-0.094-0.094-0.12-0.094-0.094 0-0.11 0.047-0.13 0.12-0.16 0.56-0.47 0.84-0.74 0.84-0.15 0-0.18-0.094-0.18-0.25 0-0.15 0.035-0.25 0.15-0.56 0.094-0.21 0.38-0.95 0.38-1.3 0-0.67-0.54-0.79-0.9-0.79-0.59 0-0.97 0.35-1.2 0.63-0.047-0.48-0.46-0.63-0.75-0.63s-0.46 0.21-0.55 0.38c-0.15 0.26-0.25 0.66-0.25 0.69 0 0.082 0.094 0.082 0.12 0.082 0.094 0 0.11-0.012 0.15-0.2 0.11-0.42 0.23-0.76 0.52-0.76 0.18 0 0.22 0.15 0.22 0.34 0 0.14-0.059 0.4-0.11 0.59-0.047 0.19-0.12 0.47-0.15 0.62zm5.5 0.32c0 0.39-0.07 0.83-0.55 1.3-0.023 0.035-0.047 0.059-0.047 0.094 0 0.047 0.059 0.094 0.094 0.094 0.11 0 0.69-0.56 0.69-1.4 0-0.42-0.16-0.75-0.48-0.75-0.23 0-0.4 0.18-0.4 0.39 0 0.23 0.15 0.41 0.4 0.41 0.16 0 0.28-0.12 0.29-0.12zm3.9-4.2c0-0.12-0.094-0.26-0.28-0.26-0.2 0-0.39 0.19-0.39 0.38 0 0.12 0.082 0.27 0.28 0.27 0.19 0 0.39-0.19 0.39-0.39zm-1.5 4.7c-0.12 0.48-0.49 0.89-0.9 0.89-0.082 0-0.18-0.012-0.25-0.047 0.18-0.082 0.23-0.25 0.23-0.35 0-0.16-0.13-0.26-0.27-0.26-0.22 0-0.4 0.19-0.4 0.41 0 0.27 0.27 0.43 0.69 0.43 0.42 0 1.2-0.25 1.5-1.1l0.62-2.5c0.023-0.07 0.035-0.14 0.035-0.23 0-0.39-0.33-0.66-0.74-0.66-0.79 0-1.2 0.96-1.2 1.1 0 0.082 0.11 0.082 0.13 0.082 0.082 0 0.082-0.012 0.13-0.12 0.18-0.41 0.54-0.84 0.95-0.84 0.18 0 0.23 0.12 0.23 0.34 0 0.082-0.012 0.18-0.023 0.21zm3.2-0.46c0 0.39-0.07 0.83-0.55 1.3-0.023 0.035-0.047 0.059-0.047 0.094 0 0.047 0.059 0.094 0.094 0.094 0.11 0 0.69-0.56 0.69-1.4 0-0.42-0.16-0.75-0.48-0.75-0.23 0-0.4 0.18-0.4 0.39 0 0.23 0.15 0.41 0.4 0.41 0.16 0 0.28-0.12 0.29-0.12zm4.7-0.87c0.64-0.66 0.9-1.6 0.9-1.7 0-0.094-0.082-0.094-0.12-0.094-0.094 0-0.094 0.023-0.14 0.18-0.13 0.46-0.36 0.89-0.66 1.3 0-0.11-0.023-0.57-0.035-0.63-0.11-0.69-0.62-1.1-1.3-1.1-1 0-2 0.95-2 1.9 0 0.64 0.47 1.2 1.3 1.2 0.64 0 1.2-0.29 1.6-0.6 0.16 0.52 0.52 0.6 0.73 0.6 0.41 0 0.66-0.34 0.66-0.49 0-0.082-0.082-0.082-0.12-0.082-0.094 0-0.11 0.035-0.12 0.07-0.11 0.27-0.32 0.3-0.4 0.3-0.094 0-0.22 0-0.26-0.86zm-0.54 0.23c-0.68 0.56-1.3 0.62-1.5 0.62-0.47 0-0.73-0.3-0.73-0.77 0-0.2 0.11-0.96 0.47-1.4 0.32-0.42 0.71-0.54 0.96-0.54 0.55 0 0.71 0.54 0.77 0.97 0.035 0.3 0.023 0.8 0.059 1.2z"/>
    <path d="m511 2.7h-0.21c-0.012 0.094-0.059 0.4-0.14 0.46-0.035 0.023-0.46 0.023-0.53 0.023h-0.98c0.33-0.25 0.7-0.52 1-0.71 0.46-0.32 0.87-0.6 0.87-1.1 0-0.64-0.6-1-1.3-1-0.67 0-1.2 0.39-1.2 0.88 0 0.26 0.21 0.3 0.28 0.3 0.14 0 0.29-0.094 0.29-0.29 0-0.19-0.13-0.28-0.28-0.29 0.14-0.23 0.43-0.38 0.76-0.38 0.48 0 0.89 0.28 0.89 0.77 0 0.42-0.29 0.74-0.68 1.1l-1.2 1c-0.047 0.047-0.059 0.047-0.059 0.082v0.15h2.3z"/>
    <path d="m517 1.1c0.11 0 0.27 0 0.27-0.18 0-0.18-0.15-0.18-0.27-0.18h-4.2c-0.11 0-0.28 0-0.28 0.18 0 0.18 0.16 0.18 0.28 0.18z"/>
    <path d="m520-1.7c0-0.19-0.012-0.2-0.21-0.2-0.45 0.43-1.1 0.45-1.4 0.45v0.25c0.16 0 0.62 0 1-0.19v3.6c0 0.23 0 0.33-0.69 0.33h-0.27v0.25c0.13-0.012 0.98-0.023 1.2-0.023 0.21 0 1.1 0.012 1.2 0.023v-0.25h-0.26c-0.7 0-0.7-0.094-0.7-0.33zm2.3-0.8c-0.059 0-0.14 0-0.14 0.082 0 0.035 0.023 0.059 0.07 0.11 0.6 0.55 1.3 1.5 1.3 3.3 0 1.5-0.46 2.6-1.2 3.2-0.12 0.12-0.13 0.13-0.13 0.16 0 0.035 0.023 0.082 0.094 0.082 0.082 0 0.75-0.46 1.2-1.3 0.3-0.59 0.5-1.3 0.5-2.2 0-0.98-0.29-2.5-1.7-3.5z"/>
    <path d="m527 2.6c0 0.39-0.07 0.83-0.55 1.3-0.023 0.035-0.047 0.059-0.047 0.094 0 0.047 0.059 0.094 0.094 0.094 0.11 0 0.69-0.56 0.69-1.4 0-0.42-0.16-0.75-0.48-0.75-0.23 0-0.4 0.18-0.4 0.39 0 0.23 0.15 0.41 0.4 0.41 0.16 0 0.28-0.12 0.29-0.12zm2.6-0.62c-0.07 0.23-0.29 0.61-0.66 0.61-0.023 0-0.22 0-0.38-0.094 0.28-0.094 0.3-0.34 0.3-0.39 0-0.15-0.12-0.26-0.28-0.26-0.19 0-0.39 0.16-0.39 0.43 0 0.34 0.39 0.5 0.73 0.5 0.32 0 0.61-0.2 0.79-0.49 0.16 0.36 0.55 0.49 0.82 0.49 0.81 0 1.2-0.87 1.2-1.1 0-0.094-0.094-0.094-0.11-0.094-0.11 0-0.11 0.035-0.14 0.12-0.14 0.48-0.56 0.84-0.95 0.84-0.28 0-0.42-0.19-0.42-0.45 0-0.19 0.16-0.82 0.36-1.6 0.13-0.54 0.45-0.71 0.68-0.71 0.012 0 0.22 0 0.38 0.11-0.22 0.059-0.3 0.26-0.3 0.38 0 0.15 0.12 0.26 0.28 0.26 0.15 0 0.39-0.13 0.39-0.42 0-0.39-0.45-0.5-0.73-0.5-0.35 0-0.63 0.22-0.79 0.49-0.12-0.29-0.45-0.49-0.83-0.49-0.79 0-1.2 0.86-1.2 1.1 0 0.082 0.11 0.082 0.12 0.082 0.094 0 0.11-0.023 0.14-0.12 0.18-0.54 0.61-0.84 0.95-0.84 0.23 0 0.42 0.13 0.42 0.47 0 0.13-0.082 0.48-0.15 0.71z"/>
    <path d="m537-2.5c0-2.9-0.67-5.9-2.6-8.1-0.14-0.16-0.5-0.55-0.75-0.76-0.059-0.059-0.082-0.059-0.21-0.059-0.11 0-0.19 0-0.19 0.094 0 0.047 0.035 0.082 0.059 0.11 0.34 0.35 0.88 0.9 1.5 2 1.1 1.9 1.5 4.4 1.5 6.8 0 4.3-1.2 7-3 8.8-0.023 0.023-0.035 0.047-0.035 0.082 0 0.094 0.082 0.094 0.19 0.094 0.13 0 0.15 0 0.23-0.082 0.95-0.81 2-2.2 2.7-4.3 0.43-1.4 0.66-3 0.66-4.6z"/>
    <path d="m548-3.2c0.14-0.07 0.2-0.13 0.2-0.22 0-0.11-0.035-0.16-0.2-0.23l-5.5-2.6c-0.14-0.07-0.19-0.07-0.2-0.07-0.13 0-0.2 0.094-0.2 0.2 0 0.13 0.07 0.18 0.19 0.22l5.2 2.5-5.2 2.5c-0.2 0.094-0.2 0.16-0.2 0.23 0 0.11 0.082 0.2 0.2 0.2 0.023 0 0.047 0 0.18-0.07zm-0.15 4.6c0.18 0 0.35 0 0.35-0.2 0-0.2-0.21-0.2-0.36-0.2h-5.4c-0.15 0-0.35 0-0.35 0.2 0 0.2 0.18 0.2 0.34 0.2z"/>
    <path d="m556-3.2c0-0.8-0.047-1.6-0.4-2.3-0.46-0.96-1.3-1.1-1.7-1.1-0.6 0-1.3 0.26-1.7 1.2-0.33 0.69-0.38 1.5-0.38 2.3 0 0.75 0.047 1.6 0.45 2.4 0.43 0.81 1.2 1 1.7 1 0.54 0 1.3-0.21 1.7-1.2 0.32-0.69 0.36-1.5 0.36-2.3zm-2.1 3.2c-0.39 0-0.98-0.25-1.2-1.2-0.11-0.6-0.11-1.5-0.11-2.1 0-0.64 0-1.3 0.082-1.8 0.19-1.2 0.93-1.3 1.2-1.3 0.33 0 0.98 0.18 1.2 1.2 0.094 0.56 0.094 1.3 0.094 1.9 0 0.75 0 1.4-0.11 2.1-0.15 0.94-0.71 1.2-1.2 1.2z"/>
    <path d="m559-0.012c0-0.66-0.26-1-0.64-1-0.33 0-0.53 0.25-0.53 0.53 0 0.27 0.2 0.53 0.53 0.53 0.12 0 0.25-0.035 0.35-0.13 0.023-0.023 0.035-0.035 0.047-0.035s0.023 0.012 0.023 0.15c0 0.74-0.35 1.3-0.68 1.7-0.11 0.11-0.11 0.13-0.11 0.16 0 0.07 0.047 0.11 0.094 0.11 0.12 0 0.91-0.76 0.91-1.9z"/>
    <path d="m358 21c0.059-0.11 0.059-0.13 0.059-0.18 0-0.094-0.082-0.2-0.2-0.2-0.13 0-0.2 0.12-0.23 0.23l-0.82 2.2h-3l-0.82-2.2c-0.059-0.14-0.11-0.23-0.23-0.23-0.094 0-0.2 0.11-0.2 0.2 0 0.023 0 0.035 0.059 0.18l2.5 6.5c0.047 0.14 0.094 0.23 0.22 0.23 0.14 0 0.19-0.12 0.22-0.21zm-4.1 2.4h2.7l-1.4 3.5z"/>
    <path d="m362 30c0-0.035 0-0.047-0.16-0.22-1.2-1.3-1.6-3.1-1.6-4.7 0-1.7 0.39-3.5 1.6-4.7 0.13-0.12 0.13-0.13 0.13-0.16 0-0.07-0.035-0.11-0.094-0.11-0.11 0-1 0.68-1.6 1.9-0.52 1.1-0.63 2.2-0.63 3 0 0.79 0.12 2 0.66 3.1 0.6 1.2 1.5 1.9 1.6 1.9 0.059 0 0.094-0.035 0.094-0.11z"/>
    <path d="m363 27c-0.035 0.15-0.094 0.38-0.094 0.42 0 0.19 0.14 0.27 0.29 0.27 0.12 0 0.29-0.07 0.36-0.27 0.012-0.023 0.13-0.49 0.19-0.74l0.22-0.9c0.059-0.22 0.12-0.43 0.18-0.67 0.035-0.16 0.12-0.46 0.13-0.49 0.14-0.32 0.67-1.2 1.6-1.2 0.45 0 0.54 0.36 0.54 0.69 0 0.26-0.07 0.54-0.15 0.83l-0.27 1.2-0.2 0.75c-0.047 0.2-0.14 0.54-0.14 0.59 0 0.19 0.14 0.27 0.29 0.27 0.3 0 0.38-0.25 0.45-0.56 0.14-0.56 0.52-2 0.6-2.4 0.035-0.13 0.56-1.3 1.7-1.3 0.42 0 0.54 0.34 0.54 0.69 0 0.57-0.42 1.7-0.62 2.2-0.094 0.23-0.13 0.35-0.13 0.55 0 0.47 0.35 0.81 0.81 0.81 0.94 0 1.3-1.5 1.3-1.5 0-0.094-0.094-0.094-0.12-0.094-0.11 0-0.11 0.023-0.15 0.18-0.15 0.53-0.47 1.2-1 1.2-0.16 0-0.23-0.11-0.23-0.33 0-0.26 0.082-0.49 0.18-0.71 0.19-0.52 0.61-1.6 0.61-2.2 0-0.64-0.4-1.1-1.1-1.1s-1.3 0.45-1.6 0.97c-0.012-0.13-0.047-0.47-0.33-0.71-0.25-0.2-0.56-0.26-0.81-0.26-0.9 0-1.4 0.64-1.6 0.87-0.047-0.56-0.47-0.87-0.91-0.87-0.46 0-0.64 0.39-0.74 0.57-0.18 0.34-0.3 0.94-0.3 0.96 0 0.11 0.094 0.11 0.12 0.11 0.094 0 0.11-0.012 0.16-0.23 0.18-0.7 0.38-1.2 0.73-1.2 0.16 0 0.32 0.082 0.32 0.46 0 0.21-0.035 0.32-0.16 0.83zm9.9 0.57c0-0.66-0.26-1-0.64-1-0.33 0-0.53 0.25-0.53 0.53 0 0.27 0.2 0.53 0.53 0.53 0.12 0 0.25-0.035 0.35-0.13 0.023-0.023 0.035-0.035 0.047-0.035 0.012 0 0.023 0.012 0.023 0.15 0 0.74-0.35 1.3-0.68 1.7-0.11 0.11-0.11 0.13-0.11 0.16 0 0.07 0.047 0.11 0.094 0.11 0.12 0 0.91-0.76 0.91-1.9zm5.2-6.2c0-0.2-0.13-0.36-0.36-0.36-0.27 0-0.54 0.26-0.54 0.53 0 0.19 0.14 0.36 0.38 0.36 0.23 0 0.53-0.23 0.53-0.53zm-0.75 3.7c0.12-0.28 0.12-0.3 0.22-0.57 0.07-0.2 0.13-0.34 0.13-0.53 0-0.45-0.33-0.82-0.82-0.82-0.94 0-1.3 1.5-1.3 1.5 0 0.11 0.094 0.11 0.12 0.11 0.094 0 0.11-0.023 0.15-0.19 0.27-0.94 0.67-1.2 1-1.2 0.082 0 0.26 0 0.26 0.32 0 0.21-0.07 0.42-0.12 0.52-0.082 0.26-0.53 1.4-0.68 1.9-0.11 0.26-0.23 0.59-0.23 0.8 0 0.47 0.34 0.81 0.82 0.81 0.94 0 1.3-1.4 1.3-1.5s-0.094-0.094-0.12-0.094c-0.11 0-0.11 0.023-0.15 0.18-0.18 0.63-0.5 1.2-1 1.2-0.16 0-0.23-0.11-0.23-0.33 0-0.26 0.059-0.4 0.29-1zm3.4 2.5c0-0.66-0.26-1-0.64-1-0.33 0-0.53 0.25-0.53 0.53 0 0.27 0.2 0.53 0.53 0.53 0.12 0 0.25-0.035 0.35-0.13 0.023-0.023 0.035-0.035 0.047-0.035s0.023 0.012 0.023 0.15c0 0.74-0.35 1.3-0.68 1.7-0.11 0.11-0.11 0.13-0.11 0.16 0 0.07 0.047 0.11 0.094 0.11 0.12 0 0.91-0.76 0.91-1.9zm7.1-2.3c0-1.6-0.93-2.1-1.7-2.1-1.4 0-2.7 1.4-2.7 2.8 0 0.93 0.6 1.7 1.6 1.7 0.62 0 1.3-0.22 2.1-0.83 0.13 0.53 0.46 0.83 0.9 0.83 0.53 0 0.84-0.54 0.84-0.7 0-0.07-0.059-0.11-0.13-0.11-0.059 0-0.094 0.035-0.13 0.11-0.18 0.49-0.53 0.49-0.55 0.49-0.32 0-0.32-0.79-0.32-1 0-0.21 0-0.23 0.11-0.35 0.94-1.2 1.1-2.3 1.1-2.3 0-0.012-0.012-0.094-0.12-0.094-0.11 0-0.11 0.023-0.15 0.21-0.19 0.62-0.52 1.4-0.98 2zm-0.66 1.4c-0.88 0.76-1.7 0.88-2.1 0.88-0.6 0-0.89-0.46-0.89-1.1 0-0.49 0.26-1.6 0.57-2.1 0.47-0.73 1-0.91 1.4-0.91 0.98 0 0.98 1.3 0.98 2.1 0 0.36 0 0.94 0.023 1.1z"/>
    <path d="m392 25c0-0.19-0.012-0.2-0.21-0.2-0.45 0.43-1.1 0.45-1.4 0.45v0.25c0.16 0 0.62 0 1-0.19v3.6c0 0.23 0 0.33-0.69 0.33h-0.27v0.25c0.13-0.012 0.98-0.023 1.2-0.023 0.21 0 1.1 0.012 1.2 0.023v-0.25h-0.26c-0.7 0-0.7-0.094-0.7-0.33z"/>
    <path d="m397 25c0-0.77-0.12-2-0.66-3.1-0.6-1.2-1.5-1.9-1.6-1.9-0.059 0-0.11 0.047-0.11 0.11 0 0.035 0 0.047 0.2 0.23 0.97 0.98 1.5 2.6 1.5 4.6 0 1.7-0.36 3.5-1.6 4.7-0.14 0.12-0.14 0.13-0.14 0.16 0 0.059 0.047 0.11 0.11 0.11 0.094 0 1-0.68 1.6-1.9 0.5-1.1 0.63-2.2 0.63-3z"/>
    <path d="m400 28c0-0.66-0.26-1-0.64-1-0.33 0-0.53 0.25-0.53 0.53 0 0.27 0.2 0.53 0.53 0.53 0.12 0 0.25-0.035 0.35-0.13 0.023-0.023 0.035-0.035 0.047-0.035 0.012 0 0.023 0.012 0.023 0.15 0 0.74-0.35 1.3-0.68 1.7-0.11 0.11-0.11 0.13-0.11 0.16 0 0.07 0.047 0.11 0.094 0.11 0.12 0 0.91-0.76 0.91-1.9z"/>
    <path d="m406 30c0-0.035 0-0.047-0.16-0.22-1.2-1.3-1.6-3.1-1.6-4.7 0-1.7 0.39-3.5 1.6-4.7 0.13-0.12 0.13-0.13 0.13-0.16 0-0.07-0.035-0.11-0.094-0.11-0.11 0-1 0.68-1.6 1.9-0.52 1.1-0.63 2.2-0.63 3 0 0.79 0.12 2 0.66 3.1 0.6 1.2 1.5 1.9 1.6 1.9 0.059 0 0.094-0.035 0.094-0.11z"/>
    <path d="m407 27c-0.035 0.15-0.094 0.38-0.094 0.42 0 0.19 0.14 0.27 0.29 0.27 0.12 0 0.29-0.07 0.36-0.27 0.012-0.023 0.13-0.49 0.19-0.74l0.22-0.9c0.059-0.22 0.12-0.43 0.18-0.67 0.035-0.16 0.12-0.46 0.13-0.49 0.14-0.32 0.67-1.2 1.6-1.2 0.45 0 0.54 0.36 0.54 0.69 0 0.62-0.49 1.9-0.64 2.3-0.094 0.22-0.11 0.34-0.11 0.46 0 0.47 0.35 0.81 0.82 0.81 0.94 0 1.3-1.5 1.3-1.5 0-0.094-0.082-0.094-0.12-0.094-0.094 0-0.094 0.023-0.15 0.18-0.2 0.68-0.53 1.2-1 1.2-0.18 0-0.25-0.11-0.25-0.33 0-0.26 0.094-0.49 0.19-0.71 0.19-0.53 0.6-1.6 0.6-2.2 0-0.67-0.42-1.1-1.1-1.1-0.9 0-1.4 0.64-1.6 0.87-0.047-0.55-0.46-0.87-0.91-0.87s-0.64 0.39-0.75 0.57c-0.15 0.34-0.29 0.93-0.29 0.96 0 0.11 0.094 0.11 0.12 0.11 0.094 0 0.11-0.012 0.16-0.23 0.18-0.7 0.38-1.2 0.73-1.2 0.2 0 0.32 0.13 0.32 0.46 0 0.21-0.035 0.32-0.16 0.83zm7.1 0.57c0-0.66-0.26-1-0.64-1-0.33 0-0.53 0.25-0.53 0.53 0 0.27 0.2 0.53 0.53 0.53 0.12 0 0.25-0.035 0.35-0.13 0.023-0.023 0.035-0.035 0.047-0.035s0.023 0.012 0.023 0.15c0 0.74-0.35 1.3-0.68 1.7-0.11 0.11-0.11 0.13-0.11 0.16 0 0.07 0.047 0.11 0.094 0.11 0.12 0 0.91-0.76 0.91-1.9zm6.3-6.2c0-0.19-0.13-0.36-0.38-0.36-0.22 0-0.53 0.23-0.53 0.53 0 0.2 0.14 0.36 0.38 0.36 0.27 0 0.53-0.26 0.53-0.53zm-2 6.7c-0.2 0.75-0.67 1.3-1.2 1.3-0.059 0-0.21 0-0.39-0.094 0.29-0.07 0.45-0.33 0.45-0.53 0-0.16-0.11-0.35-0.38-0.35-0.25 0-0.54 0.21-0.54 0.57 0 0.4 0.4 0.61 0.88 0.61 0.69 0 1.6-0.53 1.9-1.5l0.91-3.6c0.047-0.2 0.047-0.34 0.047-0.38 0-0.56-0.42-0.91-0.91-0.91-1 0-1.6 1.5-1.6 1.5 0 0.11 0.094 0.11 0.12 0.11 0.094 0 0.094-0.012 0.18-0.2 0.25-0.61 0.71-1.2 1.3-1.2 0.14 0 0.32 0.035 0.32 0.46 0 0.23-0.023 0.34-0.059 0.5zm4.2-0.52c0-0.66-0.26-1-0.64-1-0.33 0-0.53 0.25-0.53 0.53 0 0.27 0.2 0.53 0.53 0.53 0.12 0 0.25-0.035 0.35-0.13 0.023-0.023 0.035-0.035 0.047-0.035s0.023 0.012 0.023 0.15c0 0.74-0.35 1.3-0.68 1.7-0.11 0.11-0.11 0.13-0.11 0.16 0 0.07 0.047 0.11 0.094 0.11 0.12 0 0.91-0.76 0.91-1.9zm7.1-2.3c0-1.6-0.93-2.1-1.7-2.1-1.4 0-2.7 1.4-2.7 2.8 0 0.93 0.6 1.7 1.6 1.7 0.62 0 1.3-0.22 2.1-0.83 0.13 0.53 0.46 0.83 0.9 0.83 0.53 0 0.84-0.54 0.84-0.7 0-0.07-0.059-0.11-0.13-0.11-0.059 0-0.094 0.035-0.13 0.11-0.18 0.49-0.53 0.49-0.55 0.49-0.32 0-0.32-0.79-0.32-1 0-0.21 0-0.23 0.11-0.35 0.94-1.2 1.1-2.3 1.1-2.3 0-0.012-0.012-0.094-0.12-0.094-0.11 0-0.11 0.023-0.15 0.21-0.19 0.62-0.52 1.4-0.98 2zm-0.66 1.4c-0.88 0.76-1.7 0.88-2.1 0.88-0.6 0-0.89-0.46-0.89-1.1 0-0.49 0.26-1.6 0.57-2.1 0.47-0.73 1-0.91 1.4-0.91 0.98 0 0.98 1.3 0.98 2.1 0 0.36 0 0.94 0.023 1.1z"/>
    <path d="m435 28h-0.23c-0.023 0.15-0.082 0.56-0.18 0.63-0.059 0.035-0.6 0.035-0.69 0.035h-1.3c0.74-0.64 0.98-0.84 1.4-1.2 0.52-0.41 1-0.84 1-1.5 0-0.84-0.74-1.4-1.6-1.4-0.87 0-1.5 0.61-1.5 1.2 0 0.36 0.3 0.4 0.38 0.4 0.16 0 0.38-0.12 0.38-0.38 0-0.13-0.059-0.36-0.42-0.36 0.22-0.5 0.69-0.66 1-0.66 0.7 0 1.1 0.55 1.1 1.1 0 0.61-0.43 1.1-0.66 1.3l-1.7 1.7c-0.07 0.059-0.07 0.07-0.07 0.27h2.9z"/>
    <path d="m439 25c0-0.77-0.12-2-0.66-3.1-0.6-1.2-1.5-1.9-1.6-1.9-0.059 0-0.11 0.047-0.11 0.11 0 0.035 0 0.047 0.2 0.23 0.97 0.98 1.5 2.6 1.5 4.6 0 1.7-0.36 3.5-1.6 4.7-0.14 0.12-0.14 0.13-0.14 0.16 0 0.059 0.047 0.11 0.11 0.11 0.094 0 1-0.68 1.6-1.9 0.5-1.1 0.63-2.2 0.63-3z"/>
    <path d="m448 26c0.16 0 0.35 0 0.35-0.2s-0.19-0.2-0.35-0.2h-4.2c0.13-1.3 1.3-2.3 2.7-2.3h1.6c0.16 0 0.35 0 0.35-0.2s-0.19-0.2-0.35-0.2h-1.6c-1.7 0-3.1 1.3-3.1 2.9s1.3 2.9 3.1 2.9h1.6c0.16 0 0.35 0 0.35-0.2 0-0.2-0.19-0.2-0.35-0.2h-1.6c-1.4 0-2.5-0.96-2.7-2.3z"/>
    <path d="m461 22c0.26-0.43 0.49-0.8 1.1-0.84 0.082-0.012 0.19-0.012 0.19-0.2 0-0.047-0.047-0.12-0.12-0.12-0.25 0-0.53 0.035-0.77 0.035-0.34 0-0.7-0.035-1-0.035-0.059 0-0.19 0-0.19 0.2 0 0.11 0.082 0.12 0.14 0.12 0.25 0.012 0.6 0.082 0.6 0.39 0 0.11-0.059 0.19-0.14 0.33l-2.7 4.7-0.36-4.9c-0.012-0.2-0.035-0.46 0.69-0.47 0.16 0 0.27 0 0.27-0.2 0-0.11-0.11-0.12-0.15-0.12-0.4 0-0.81 0.035-1.2 0.035-0.23 0-0.82-0.035-1.1-0.035-0.059 0-0.19 0-0.19 0.2 0 0.12 0.11 0.12 0.25 0.12 0.43 0 0.5 0.059 0.53 0.25l0.059 0.76-2.5 4.4-0.39-5.1c0-0.12 0-0.34 0.76-0.35 0.094 0 0.21 0 0.21-0.2 0-0.12-0.12-0.12-0.14-0.12-0.4 0-0.82 0.035-1.2 0.035-0.34 0-0.7-0.035-1-0.035-0.047 0-0.18 0-0.18 0.2 0 0.12 0.082 0.12 0.25 0.12 0.5 0 0.5 0.082 0.53 0.36l0.45 6.1c0.012 0.18 0.023 0.26 0.16 0.26 0.12 0 0.15-0.059 0.23-0.21l2.9-5.1 0.38 5c0.012 0.2 0.035 0.26 0.15 0.26 0.13 0 0.19-0.11 0.25-0.19z"/>
    <path d="m469 20c0.07-0.26 0.082-0.32 0.6-0.32 0.15 0 0.23 0 0.23-0.15 0-0.023-0.023-0.094-0.11-0.094-0.21 0-0.71 0.023-0.91 0.023-0.12 0-0.36 0-0.48-0.012-0.14 0-0.3-0.012-0.45-0.012-0.035 0-0.14 0-0.14 0.15 0 0.094 0.082 0.094 0.22 0.094 0 0 0.14 0 0.26 0.012 0.15 0.012 0.16 0.035 0.16 0.11 0 0 0 0.047-0.023 0.15l-0.41 1.6h-2.3l0.41-1.6c0.059-0.23 0.07-0.29 0.61-0.29 0.12 0 0.21 0 0.21-0.15 0-0.023-0.023-0.094-0.12-0.094-0.2 0-0.7 0.023-0.91 0.023-0.12 0-0.35 0-0.48-0.012-0.13 0-0.3-0.012-0.43-0.012-0.047 0-0.15 0-0.15 0.15 0 0.094 0.094 0.094 0.22 0.094 0.012 0 0.14 0 0.27 0.012 0.15 0.012 0.16 0.035 0.16 0.11 0 0.012 0 0.047-0.035 0.15l-0.93 3.7c-0.047 0.23-0.07 0.29-0.61 0.29-0.12 0-0.21 0-0.21 0.14 0 0.07 0.047 0.11 0.12 0.11 0.2 0 0.7-0.023 0.9-0.023h0.48c0.14 0.012 0.32 0.023 0.45 0.023 0.035 0 0.15 0 0.15-0.14 0-0.11-0.07-0.11-0.23-0.11-0.12 0-0.14 0-0.27-0.023-0.15-0.012-0.15-0.035-0.15-0.11 0 0 0-0.047 0.035-0.15l0.46-1.8h2.3l-0.45 1.8c-0.059 0.23-0.07 0.29-0.62 0.29-0.12 0-0.21 0-0.21 0.14 0 0.07 0.047 0.11 0.12 0.11 0.2 0 0.7-0.023 0.9-0.023h0.48c0.14 0.012 0.32 0.023 0.45 0.023 0.035 0 0.15 0 0.15-0.14 0-0.11-0.07-0.11-0.23-0.11-0.11 0-0.14 0-0.26-0.023-0.16-0.012-0.16-0.035-0.16-0.11 0-0.035 0.023-0.11 0.035-0.15z"/>
    <path d="m478 21c0.059-0.11 0.059-0.13 0.059-0.18 0-0.094-0.082-0.2-0.2-0.2-0.13 0-0.2 0.12-0.23 0.23l-0.82 2.2h-3l-0.82-2.2c-0.059-0.14-0.11-0.23-0.23-0.23-0.094 0-0.2 0.11-0.2 0.2 0 0.023 0 0.035 0.059 0.18l2.5 6.5c0.047 0.14 0.094 0.23 0.22 0.23 0.14 0 0.19-0.12 0.22-0.21zm-4.1 2.4h2.7l-1.4 3.5z"/>
    <path d="m483 24c0.047-0.14 0.047-0.15 0.047-0.22 0-0.19-0.14-0.27-0.29-0.27-0.11 0-0.26 0.059-0.35 0.2-0.023 0.059-0.094 0.36-0.14 0.54-0.07 0.26-0.14 0.53-0.2 0.8l-0.45 1.8c-0.035 0.15-0.47 0.86-1.1 0.86-0.5 0-0.62-0.45-0.62-0.81 0-0.46 0.18-1.1 0.52-2 0.15-0.41 0.2-0.52 0.2-0.71 0-0.45-0.33-0.82-0.82-0.82-0.95 0-1.3 1.5-1.3 1.5 0 0.11 0.094 0.11 0.12 0.11 0.094 0 0.11-0.023 0.15-0.19 0.27-0.94 0.67-1.2 1-1.2 0.082 0 0.26 0 0.26 0.32 0 0.25-0.11 0.52-0.18 0.7-0.4 1.1-0.57 1.6-0.57 2.1 0 0.89 0.62 1.2 1.2 1.2 0.39 0 0.73-0.16 1-0.45-0.13 0.52-0.25 1-0.64 1.5-0.26 0.34-0.63 0.63-1.1 0.63-0.14 0-0.6-0.035-0.76-0.42 0.16 0 0.29 0 0.43-0.12 0.094-0.094 0.2-0.22 0.2-0.41 0-0.32-0.27-0.35-0.38-0.35-0.22 0-0.55 0.16-0.55 0.64 0 0.5 0.43 0.87 1.1 0.87 1 0 2.1-0.9 2.3-2z"/>
    <path d="m491 26c0.16 0 0.35 0 0.35-0.2s-0.19-0.2-0.35-0.2h-4.2c0.13-1.3 1.3-2.3 2.7-2.3h1.6c0.16 0 0.35 0 0.35-0.2s-0.19-0.2-0.35-0.2h-1.6c-1.7 0-3.1 1.3-3.1 2.9s1.3 2.9 3.1 2.9h1.6c0.16 0 0.35 0 0.35-0.2 0-0.2-0.19-0.2-0.35-0.2h-1.6c-1.4 0-2.5-0.96-2.7-2.3z"/>
    <path d="m501 22 0.14-0.14c0.3-0.29 0.63-0.63 1.3-0.68 0.11-0.012 0.2-0.012 0.2-0.19 0-0.082-0.059-0.13-0.13-0.13-0.26 0-0.55 0.035-0.82 0.035-0.33 0-0.68-0.035-1-0.035-0.059 0-0.19 0-0.19 0.2 0 0.11 0.094 0.12 0.15 0.12 0.07 0 0.35 0.012 0.35 0.22 0 0.18-0.22 0.43-0.27 0.48l-2.3 2.7-1.1-3c-0.07-0.14-0.07-0.16-0.07-0.18 0-0.23 0.49-0.23 0.6-0.23 0.13 0 0.23 0 0.23-0.2 0-0.12-0.12-0.12-0.15-0.12-0.28 0-0.97 0.035-1.3 0.035-0.25 0-0.87-0.035-1.1-0.035-0.059 0-0.19 0-0.19 0.2 0 0.12 0.094 0.12 0.22 0.12 0.6 0 0.64 0.082 0.73 0.34l1.2 3.3c0.012 0.035 0.035 0.14 0.035 0.18 0 0.023-0.4 1.6-0.45 1.8-0.13 0.55-0.14 0.59-0.94 0.6-0.19 0-0.27 0-0.27 0.2 0 0.11 0.12 0.11 0.14 0.11 0.28 0 0.97-0.035 1.3-0.035s1 0.035 1.3 0.035c0.07 0 0.19 0 0.19-0.2 0-0.11-0.082-0.11-0.28-0.11-0.012 0-0.2 0-0.38-0.023-0.21-0.023-0.27-0.035-0.27-0.16 0-0.07 0.094-0.41 0.14-0.62l0.35-1.4c0.047-0.19 0.059-0.22 0.14-0.3z"/>
    <path d="m509 24c0-0.047 0-0.13-0.12-0.13-0.11 0-0.12 0.059-0.12 0.13-0.035 0.4-0.27 0.57-0.48 0.57-0.4 0-0.46-0.41-0.54-1-0.082-0.56-0.094-0.67-0.3-0.9-0.07-0.07-0.26-0.26-0.63-0.38 0.62-0.14 1.3-0.55 1.3-1.1 0-0.69-0.93-1.3-2-1.3h-2.3v0.25h0.16c0.54 0 0.55 0.07 0.55 0.32v3.6c0 0.23-0.012 0.32-0.55 0.32h-0.16v0.25l1-0.023 1 0.023v-0.25h-0.16c-0.54 0-0.55-0.07-0.55-0.32v-1.7h0.93c0.13 0 0.49 0 0.8 0.28 0.25 0.22 0.25 0.4 0.25 0.86s0 0.74 0.32 1c0.3 0.25 0.71 0.28 0.9 0.28 0.6 0 0.75-0.56 0.75-0.77zm-1.7-2.9c0 0.79-0.61 1-1.3 1h-0.9v-1.8c0-0.19 0.012-0.25 0.19-0.26 0.059-0.012 0.29-0.012 0.43-0.012 0.68 0 1.6 0 1.6 1z"/>
    <path d="m512 28c0-0.66-0.26-1-0.64-1-0.33 0-0.53 0.25-0.53 0.53 0 0.27 0.2 0.53 0.53 0.53 0.12 0 0.25-0.035 0.35-0.13 0.023-0.023 0.035-0.035 0.047-0.035s0.023 0.012 0.023 0.15c0 0.74-0.35 1.3-0.68 1.7-0.11 0.11-0.11 0.13-0.11 0.16 0 0.07 0.047 0.11 0.094 0.11 0.12 0 0.91-0.76 0.91-1.9z"/>
    <path d="m521 21c0.059-0.11 0.059-0.13 0.059-0.18 0-0.094-0.082-0.2-0.2-0.2-0.13 0-0.2 0.12-0.23 0.23l-0.82 2.2h-3l-0.82-2.2c-0.059-0.14-0.11-0.23-0.23-0.23-0.094 0-0.2 0.11-0.2 0.2 0 0.023 0 0.035 0.059 0.18l2.5 6.5c0.047 0.14 0.094 0.23 0.22 0.23 0.14 0 0.19-0.12 0.22-0.21zm-4.1 2.4h2.7l-1.4 3.5z"/>
    <path d="m524 25c0.059-0.26 0.29-1.2 0.98-1.2 0.047 0 0.29 0 0.5 0.13-0.28 0.047-0.48 0.3-0.48 0.54 0 0.16 0.11 0.35 0.38 0.35 0.22 0 0.54-0.19 0.54-0.59 0-0.52-0.59-0.66-0.93-0.66-0.57 0-0.93 0.53-1 0.76-0.26-0.66-0.79-0.76-1.1-0.76-1 0-1.6 1.3-1.6 1.5 0 0.11 0.11 0.11 0.12 0.11 0.082 0 0.12-0.023 0.13-0.12 0.34-1.1 1-1.3 1.3-1.3 0.19 0 0.54 0.094 0.54 0.67 0 0.3-0.16 0.97-0.54 2.4-0.15 0.62-0.5 1-0.95 1-0.059 0-0.28 0-0.49-0.13 0.25-0.059 0.47-0.27 0.47-0.54s-0.22-0.35-0.38-0.35c-0.29 0-0.54 0.26-0.54 0.57 0 0.46 0.49 0.66 0.94 0.66 0.66 0 1-0.69 1-0.75 0.12 0.36 0.48 0.75 1.1 0.75 1 0 1.6-1.3 1.6-1.5 0-0.094-0.094-0.094-0.13-0.094-0.082 0-0.11 0.035-0.13 0.11-0.33 1.1-1 1.3-1.3 1.3-0.39 0-0.54-0.33-0.54-0.66 0-0.22 0.059-0.45 0.16-0.88z"/>
    <path d="m529 21c0.047-0.12 0.059-0.18 0.059-0.22 0-0.21-0.2-0.39-0.41-0.39-0.27 0-0.35 0.22-0.39 0.33l-0.91 3c-0.012 0.012-0.035 0.11-0.035 0.12 0 0.082 0.21 0.15 0.27 0.15 0.047 0 0.059-0.023 0.11-0.13z"/>
    <path d="m538 26c0.16 0 0.35 0 0.35-0.2s-0.19-0.2-0.35-0.2h-4.2c0.13-1.3 1.3-2.3 2.7-2.3h1.6c0.16 0 0.35 0 0.35-0.2s-0.19-0.2-0.35-0.2h-1.6c-1.7 0-3.1 1.3-3.1 2.9s1.3 2.9 3.1 2.9h1.6c0.16 0 0.35 0 0.35-0.2 0-0.2-0.19-0.2-0.35-0.2h-1.6c-1.4 0-2.5-0.96-2.7-2.3z"/>
    <path d="m547 24-0.83-2c-0.035-0.07-0.047-0.12-0.047-0.13 0-0.059 0.16-0.25 0.59-0.28 0.094-0.012 0.2-0.023 0.2-0.19 0-0.13-0.12-0.13-0.15-0.13-0.41 0-0.83 0.035-1.3 0.035-0.25 0-0.87-0.035-1.1-0.035-0.059 0-0.19 0-0.19 0.2 0 0.12 0.11 0.12 0.23 0.12 0.6 0 0.66 0.094 0.75 0.32l1.2 2.8-2.1 2.3-0.13 0.11c-0.49 0.53-0.96 0.69-1.5 0.73-0.13 0-0.22 0-0.22 0.2 0 0 0 0.11 0.13 0.11 0.3 0 0.63-0.035 0.94-0.035 0.36 0 0.76 0.035 1.1 0.035 0.059 0 0.18 0 0.18-0.2 0-0.11-0.094-0.11-0.12-0.11-0.082-0.012-0.4-0.035-0.4-0.32 0-0.15 0.15-0.32 0.27-0.45l1.9-2.1 1 2.4c0.047 0.11 0.047 0.12 0.047 0.14 0 0.082-0.19 0.25-0.57 0.29-0.11 0-0.2 0.012-0.2 0.19 0 0.12 0.12 0.12 0.15 0.12 0.28 0 0.97-0.035 1.3-0.035 0.25 0 0.86 0.035 1.1 0.035 0.07 0 0.2 0 0.2-0.19 0-0.12-0.11-0.12-0.19-0.12-0.67-0.012-0.68-0.047-0.86-0.45-0.39-0.93-1.1-2.5-1.3-3.1 0.68-0.7 1.7-1.9 2.1-2.2 0.28-0.23 0.67-0.48 1.3-0.5 0.13-0.012 0.21-0.012 0.21-0.2 0-0.012 0-0.12-0.13-0.12-0.29 0-0.62 0.035-0.94 0.035-0.36 0-0.74-0.035-1.1-0.035-0.059 0-0.19 0-0.19 0.2 0 0.07 0.047 0.11 0.12 0.12 0.094 0.012 0.4 0.023 0.4 0.3 0 0.14-0.11 0.27-0.19 0.36z"/>
    <path d="m557 24c0-0.047 0-0.13-0.12-0.13-0.11 0-0.12 0.059-0.12 0.13-0.035 0.4-0.27 0.57-0.48 0.57-0.4 0-0.46-0.41-0.54-1-0.082-0.56-0.094-0.67-0.3-0.9-0.07-0.07-0.26-0.26-0.63-0.38 0.62-0.14 1.3-0.55 1.3-1.1 0-0.69-0.93-1.3-2-1.3h-2.3v0.25h0.16c0.54 0 0.55 0.07 0.55 0.32v3.6c0 0.23-0.012 0.32-0.55 0.32h-0.16v0.25l1-0.023 1 0.023v-0.25h-0.16c-0.54 0-0.55-0.07-0.55-0.32v-1.7h0.93c0.13 0 0.49 0 0.8 0.28 0.25 0.22 0.25 0.4 0.25 0.86s0 0.74 0.32 1c0.3 0.25 0.71 0.28 0.9 0.28 0.6 0 0.75-0.56 0.75-0.77zm-1.7-2.9c0 0.79-0.61 1-1.3 1h-0.9v-1.8c0-0.19 0.012-0.25 0.19-0.26 0.059-0.012 0.29-0.012 0.43-0.012 0.68 0 1.6 0 1.6 1z"/>
  </g>
</svg>
