<?xml version="1.0" encoding="UTF-8" standalone="no"?>
<!-- Created with Inkscape (http://www.inkscape.org/) -->

<svg
   version="1.1"
   id="svg1"
   width="366.57422"
   height="23.890625"
   viewBox="0 0 366.57422 23.890625"
   sodipodi:docname="Formulas.pdf"
   xmlns:inkscape="http://www.inkscape.org/namespaces/inkscape"
   xmlns:sodipodi="http://sodipodi.sourceforge.net/DTD/sodipodi-0.dtd"
   xmlns="http://www.w3.org/2000/svg"
   xmlns:svg="http://www.w3.org/2000/svg">
  <defs
     id="defs1" />
  <sodipodi:namedview
     id="namedview1"
     pagecolor="#ffffff"
     bordercolor="#000000"
     borderopacity="0.25"
     inkscape:showpageshadow="2"
     inkscape:pageopacity="0.0"
     inkscape:pagecheckerboard="0"
     inkscape:deskcolor="#d1d1d1" />
  <g
     id="g1"
     inkscape:groupmode="layer"
     inkscape:label="1"
     transform="translate(-224.69922,-109.94922)">
    <g
       id="g2"
       aria-label="[ADRPmodel]Min:max&#10;m&#10;{&#10;T&#10;Q&#10;(m,i&#10;d&#10;)&#10;+G&#10;Q&#10;(m,i&#10;d&#10;)&#10;,T&#10;Y&#10;(m,i&#10;d&#10;)&#10;+G&#10;Y&#10;(m,i&#10;d&#10;)&#10;}"
       transform="matrix(1.3333333,0,0,1.3333333,223.136,125.224)">
      <path
         id="path2"
         d="M 2.5435078,2.4950859 V 2.0966484 H 1.5708516 V -7.0791328 H 2.5435078 V -7.4775703 H 1.1724141 v 9.9726562 z m 0,0"
         style="fill:#000000;fill-opacity:1;fill-rule:nonzero;stroke:none" />
      <path
         id="path3"
         d="m 9.9028828,-0.00100781 v -0.3046875 H 9.7271016 c -0.5976563,0 -0.7382813,-0.0703125 -0.84375,-0.3984375 l -2.15625,-6.23437499 c -0.046875,-0.1289063 -0.070312,-0.1992188 -0.2226563,-0.1992188 -0.1640625,0 -0.1875,0.058594 -0.2460937,0.1992188 l -2.0625,5.96484374 c -0.1757813,0.50390625 -0.5742188,0.65625 -1.1132813,0.66796875 v 0.3046875 l 1.0195313,-0.03515625 1.1484375,0.03515625 v -0.3046875 c -0.5039063,0 -0.75,-0.2578125 -0.75,-0.515625 0,-0.0234375 0.011719,-0.12890625 0.023437,-0.140625 L 4.9810078,-2.2744453 h 2.4609375 l 0.5273438,1.52343749 c 0.011719,0.046875 0.023437,0.10546875 0.023437,0.140625 0,0.3046875 -0.5507813,0.3046875 -0.8203125,0.3046875 v 0.3046875 c 0.351563,-0.03515625 1.054688,-0.03515625 1.429688,-0.03515625 z M 7.3247578,-2.5791328 H 5.0864766 l 1.1132812,-3.234375 z m 9.9580082,-0.7734375 c 0,-1.8867188 -1.347657,-3.4570313 -3.046875,-3.4570313 h -3.644532 v 0.3164063 h 0.234375 c 0.773438,0 0.785157,0.1054687 0.785157,0.46875 v 5.24999999 c 0,0.3515625 -0.01172,0.46875 -0.785157,0.46875 h -0.234375 v 0.3046875 h 3.644532 c 1.675781,0 3.046875,-1.47656249 3.046875,-3.35156249 z m -0.996094,0 c 0,1.1132812 -0.1875,1.7109375 -0.550781,2.1914062 -0.199219,0.26953129 -0.761719,0.85546879 -1.769532,0.85546879 h -1.007812 c -0.46875,0 -0.492188,-0.0703125 -0.492188,-0.3984375 V -6.0947578 c 0,-0.328125 0.02344,-0.3984375 0.492188,-0.3984375 h 0.996094 c 0.621093,0 1.300781,0.2109375 1.816406,0.9257812 0.421875,0.5859375 0.515625,1.4414063 0.515625,2.2148438 z m 8.853516,2.47265624 c 0,-0.0585938 0,-0.16406254 -0.128907,-0.16406254 -0.105468,0 -0.105468,0.0820313 -0.117187,0.15234379 -0.05859,0.71484375 -0.410156,0.890625 -0.65625,0.890625 -0.492188,0 -0.574219,-0.50390625 -0.703125,-1.42968749 l -0.140625,-0.796875 c -0.175781,-0.6445313 -0.65625,-0.9726563 -1.207031,-1.1601563 0.960937,-0.234375 1.746093,-0.84375 1.746093,-1.6289062 0,-0.9492188 -1.136718,-1.7929688 -2.601562,-1.7929688 h -3.128906 v 0.3164063 h 0.234375 c 0.773437,0 0.785156,0.1054687 0.785156,0.46875 v 5.24999999 c 0,0.3515625 -0.01172,0.46875 -0.785156,0.46875 h -0.234375 v 0.3046875 c 0.351562,-0.03515625 1.066406,-0.03515625 1.453125,-0.03515625 0.386718,0 1.089843,0 1.453125,0.03515625 v -0.3046875 h -0.234375 c -0.773438,0 -0.796875,-0.1171875 -0.796875,-0.46875 V -3.2939766 h 1.148437 c 0.164063,0 0.574219,0 0.925781,0.3398438 0.386719,0.3515625 0.386719,0.65625 0.386719,1.3242187 0,0.65625004 0,1.05468754 0.398438,1.42968754 0.410156,0.36328125 0.960937,0.421875 1.253906,0.421875 0.785156,0 0.949219,-0.8203125 0.949219,-1.1015625 z M 22.901906,-5.0166328 c 0,0.6914062 -0.234375,1.5 -1.710937,1.5 h -1.113281 v -2.578125 c 0,-0.234375 0,-0.3515625 0.222656,-0.3867188 0.105469,-0.011719 0.386719,-0.011719 0.585937,-0.011719 0.902344,0 2.015625,0.035156 2.015625,1.4765628 z m 8.493164,0.070312 c 0,-0.984375 -0.984375,-1.8632813 -2.34375,-1.8632813 h -3.515625 v 0.3164063 h 0.234375 c 0.773438,0 0.785157,0.1054687 0.785157,0.46875 v 5.24999999 c 0,0.3515625 -0.01172,0.46875 -0.785157,0.46875 h -0.234375 v 0.3046875 c 0.351563,-0.03515625 1.078125,-0.03515625 1.464844,-0.03515625 0.375,0 1.125,0 1.476563,0.03515625 v -0.3046875 h -0.246094 c -0.761719,0 -0.785156,-0.1171875 -0.785156,-0.46875 V -3.1533516 h 1.6875 c 1.195312,0 2.261718,-0.796875 2.261718,-1.7929692 z m -1.019531,0 c 0,0.4570312 0,1.5351562 -1.582031,1.5351562 h -1.382813 v -2.6835937 c 0,-0.328125 0.02344,-0.3984375 0.492188,-0.3984375 h 0.890625 c 1.582031,0 1.582031,1.0546875 1.582031,1.546875 z m 12.996094,4.94531249 v -0.3046875 c -0.515625,0 -0.761719,0 -0.773438,-0.3046875 V -2.5088203 c 0,-0.8554688 0,-1.171875 -0.316406,-1.5234375 -0.128906,-0.1757813 -0.46875,-0.375 -1.042969,-0.375 -0.832031,0 -1.277343,0.5976562 -1.441406,0.984375 -0.140625,-0.8671875 -0.878906,-0.984375 -1.324219,-0.984375 -0.726562,0 -1.195312,0.4335937 -1.476562,1.0546875 v -1.0546875 l -1.40625,0.1171875 v 0.3046875 c 0.703125,0 0.785156,0.070312 0.785156,0.5625 v 2.66015624 c 0,0.45703125 -0.117187,0.45703125 -0.785156,0.45703125 v 0.3046875 l 1.125,-0.03515625 1.113281,0.03515625 v -0.3046875 c -0.65625,0 -0.773437,0 -0.773437,-0.45703125 V -2.5908516 c 0,-1.03125 0.714843,-1.59375 1.347656,-1.59375 0.621094,0 0.738281,0.5390625 0.738281,1.1015625 v 2.32031254 c 0,0.45703125 -0.117187,0.45703125 -0.773437,0.45703125 v 0.3046875 l 1.125,-0.03515625 1.113281,0.03515625 v -0.3046875 c -0.667969,0 -0.785156,0 -0.785156,-0.45703125 V -2.5908516 c 0,-1.03125 0.714843,-1.59375 1.347656,-1.59375 0.632812,0 0.738281,0.5390625 0.738281,1.1015625 v 2.32031254 c 0,0.45703125 -0.105469,0.45703125 -0.773437,0.45703125 v 0.3046875 l 1.125,-0.03515625 z M 48.27007,-2.1338203 c 0,-1.2773438 -0.996093,-2.3320313 -2.191406,-2.3320313 -1.253906,0 -2.214844,1.0898438 -2.214844,2.3320313 0,1.28906249 1.03125,2.23828124 2.203125,2.23828124 1.207032,0 2.203125,-0.97265625 2.203125,-2.23828124 z m -0.820312,-0.082031 c 0,0.3632813 0,0.9023438 -0.222656,1.33593754 -0.222657,0.4453125 -0.65625,0.73828125 -1.148438,0.73828125 -0.433594,0 -0.867187,-0.2109375 -1.136719,-0.66796875 C 44.684133,-1.243195 44.684133,-1.85257 44.684133,-2.2158513 c 0,-0.3867187 0,-0.9257812 0.246094,-1.359375 0.269531,-0.4570312 0.738281,-0.6679687 1.136718,-0.6679687 0.433594,0 0.867188,0.2226562 1.125,0.6445312 0.257813,0.4335938 0.257813,1.0078125 0.257813,1.3828125 z m 6.644531,2.21484379 v -0.3046875 c -0.703125,0 -0.773437,-0.0703125 -0.773437,-0.5625 V -6.9150703 l -1.441407,0.1054687 v 0.3164063 c 0.703125,0 0.785157,0.070312 0.785157,0.5507812 v 2.15625 c -0.292969,-0.3632812 -0.726563,-0.6210937 -1.265625,-0.6210937 -1.171875,0 -2.214844,0.984375 -2.214844,2.2617187 0,1.26562504 0.972656,2.25000004 2.109375,2.25000004 0.644531,0 1.089844,-0.33984375 1.335937,-0.65625 v 0.65625 z M 52.629445,-1.1728828 c 0,0.17578124 0,0.19921874 -0.105468,0.36328124 -0.304688,0.48046875 -0.75,0.703125 -1.183594,0.703125 -0.445313,0 -0.796875,-0.2578125 -1.042969,-0.64453125 -0.257812,-0.41015629 -0.292969,-0.97265629 -0.292969,-1.38281249 0,-0.3632813 0.02344,-0.9609375 0.316407,-1.4179688 0.210937,-0.3046875 0.585937,-0.6328125 1.125,-0.6328125 0.351562,0 0.761718,0.1523438 1.078125,0.5976563 0.105468,0.1640625 0.105468,0.1875 0.105468,0.3632812 z m 5.891602,-0.011719 c 0,-0.1054687 -0.08203,-0.1171875 -0.128906,-0.1171875 -0.09375,0 -0.117188,0.058594 -0.128907,0.140625 -0.351562,1.01953129 -1.253906,1.01953129 -1.347656,1.01953129 -0.503906,0 -0.902344,-0.29296875 -1.125,-0.66796875 C 55.485891,-1.2900703 55.485891,-1.9463203 55.485891,-2.2978828 h 2.789062 c 0.210938,0 0.246094,0 0.246094,-0.2109375 0,-0.984375 -0.539063,-1.9570313 -1.78125,-1.9570313 -1.160156,0 -2.074219,1.03125 -2.074219,2.2734375 0,1.33593754 1.042969,2.29687504 2.191406,2.29687504 1.21875,0 1.664063,-1.1015625 1.664063,-1.28906274 z m -0.65625,-1.3242187 h -2.367188 c 0.05859,-1.4882813 0.902344,-1.734375 1.242188,-1.734375 1.019531,0 1.125,1.3476562 1.125,1.734375 z m 3.483398,2.50781249 v -0.3046875 c -0.667968,0 -0.785156,0 -0.785156,-0.45703125 V -6.9150703 l -1.429687,0.1054687 v 0.3164063 c 0.703125,0 0.773437,0.070312 0.773437,0.5507812 v 5.17968754 c 0,0.45703125 -0.105469,0.45703125 -0.773437,0.45703125 v 0.3046875 l 1.101562,-0.03515625 z m 0,0"
         style="fill:#000000;fill-opacity:1;fill-rule:nonzero;stroke:none" />
      <path
         id="path4"
         d="m 63.158742,-7.4775703 h -1.359375 v 0.3984375 h 0.960938 v 9.1757812 h -0.960938 v 0.3984375 h 1.359375 z m 0,0"
         style="fill:#000000;fill-opacity:1;fill-rule:nonzero;stroke:none" />
      <path
         id="path5"
         d="m 78.079641,-0.00100781 v -0.3046875 h -0.234375 c -0.773438,0 -0.785157,-0.1171875 -0.785157,-0.46875 V -6.0244453 c 0,-0.3632813 0.01172,-0.46875 0.785157,-0.46875 h 0.234375 v -0.3164063 h -1.675782 c -0.269531,0 -0.269531,0.011719 -0.339843,0.1992188 l -2.179688,5.6015625 -2.15625,-5.578125 c -0.09375,-0.2226563 -0.117187,-0.2226563 -0.351562,-0.2226563 h -1.6875 v 0.3164063 h 0.246093 c 0.761719,0 0.785157,0.1054687 0.785157,0.46875 v 4.9804687 c 0,0.26953129 0,0.73828129 -1.03125,0.73828129 v 0.3046875 l 1.171875,-0.03515625 1.160156,0.03515625 v -0.3046875 c -1.019531,0 -1.019531,-0.46875 -1.019531,-0.73828129 v -5.3671875 h 0.01172 l 2.402344,6.18750004 c 0.04687,0.12890625 0.09375,0.22265625 0.199219,0.22265625 0.105469,0 0.128906,-0.08203125 0.175781,-0.1875 l 2.449219,-6.30468749 h 0.01172 v 5.71874999 c 0,0.3515625 -0.02344,0.46875 -0.785157,0.46875 h -0.246093 v 0.3046875 c 0.375,-0.03515625 1.042968,-0.03515625 1.441406,-0.03515625 0.386719,0 1.054687,0 1.417969,0.03515625 z m 2.841797,0 v -0.3046875 c -0.65625,0 -0.703125,-0.0585938 -0.703125,-0.4453125 V -4.4072578 l -1.394532,0.1171875 v 0.3046875 c 0.65625,0 0.738282,0.058594 0.738282,0.5507812 v 2.67187504 c 0,0.45703125 -0.105469,0.45703125 -0.773438,0.45703125 v 0.3046875 l 1.101563,-0.03515625 c 0.339843,0 0.691406,0.0234375 1.03125,0.03515625 z M 80.370656,-6.0127266 c 0,-0.2695312 -0.222656,-0.5273437 -0.527343,-0.5273437 -0.339844,0 -0.539063,0.2695312 -0.539063,0.5273437 0,0.2695313 0.234375,0.5273438 0.527344,0.5273438 0.339844,0 0.539062,-0.28125 0.539062,-0.5273438 z m 6.19043,6.01171879 v -0.3046875 c -0.515625,0 -0.773438,0 -0.785156,-0.3046875 V -2.5088203 c 0,-0.8554688 0,-1.171875 -0.304688,-1.5234375 -0.140625,-0.1757813 -0.46875,-0.375 -1.042969,-0.375 -0.726562,0 -1.195312,0.4335937 -1.476562,1.0546875 v -1.0546875 l -1.40625,0.1171875 v 0.3046875 c 0.703125,0 0.785156,0.070312 0.785156,0.5625 v 2.66015624 c 0,0.45703125 -0.117187,0.45703125 -0.785156,0.45703125 v 0.3046875 l 1.125,-0.03515625 1.113281,0.03515625 v -0.3046875 c -0.65625,0 -0.773437,0 -0.773437,-0.45703125 V -2.5908516 c 0,-1.03125 0.714843,-1.59375 1.347656,-1.59375 0.621094,0 0.738281,0.5390625 0.738281,1.1015625 v 2.32031254 c 0,0.45703125 -0.117187,0.45703125 -0.773437,0.45703125 v 0.3046875 l 1.125,-0.03515625 z m 0,0"
         style="fill:#000000;fill-opacity:1;fill-rule:nonzero;stroke:none" />
      <path
         id="path6"
         d="m 91.447805,-3.7627266 c 0,-0.2929687 -0.234375,-0.5273437 -0.527344,-0.5273437 -0.28125,0 -0.527344,0.234375 -0.527344,0.5273437 0,0.28125 0.246094,0.5273438 0.527344,0.5273438 0.292969,0 0.527344,-0.2460938 0.527344,-0.5273438 z m 0,3.23437504 c 0,-0.29296875 -0.234375,-0.52734374 -0.527344,-0.52734374 -0.28125,0 -0.527344,0.23437499 -0.527344,0.52734374 0,0.29296875 0.246094,0.52734375 0.527344,0.52734375 0.292969,0 0.527344,-0.234375 0.527344,-0.52734375 z m 4.710937,-2.89453124 v 2.66015624 c 0,0.45703125 -0.117187,0.45703125 -0.785156,0.45703125 v 0.3046875 c 0.351562,-0.01171875 0.855469,-0.03515625 1.125,-0.03515625 0.257812,0 0.785156,0.0234375 1.113281,0.03515625 v -0.3046875 c -0.65625,0 -0.773437,0 -0.773437,-0.45703125 V -2.5908516 c 0,-1.03125 0.714843,-1.59375 1.347656,-1.59375 0.621094,0 0.738281,0.5390625 0.738281,1.1015625 v 2.32031254 c 0,0.45703125 -0.117187,0.45703125 -0.773437,0.45703125 v 0.3046875 c 0.339843,-0.01171875 0.855468,-0.03515625 1.125,-0.03515625 0.257812,0 0.77344,0.0234375 1.11328,0.03515625 v -0.3046875 c -0.667968,0 -0.785155,0 -0.785155,-0.45703125 V -2.5908516 c 0,-1.03125 0.714845,-1.59375 1.347655,-1.59375 0.63281,0 0.73828,0.5390625 0.73828,1.1015625 v 2.32031254 c 0,0.45703125 -0.10547,0.45703125 -0.77344,0.45703125 v 0.3046875 c 0.35157,-0.01171875 0.85547,-0.03515625 1.125,-0.03515625 0.25782,0 0.77344,0.0234375 1.11329,0.03515625 v -0.3046875 c -0.51563,0 -0.76172,0 -0.77344,-0.3046875 V -2.5088203 c 0,-0.8554688 0,-1.171875 -0.31641,-1.5234375 -0.1289,-0.1757813 -0.46875,-0.375 -1.04297,-0.375 -0.83203,0 -1.27734,0.5976562 -1.441403,0.984375 -0.140625,-0.8671875 -0.878906,-0.984375 -1.324219,-0.984375 -0.726562,0 -1.195312,0.4335937 -1.476562,1.0546875 v -1.0546875 l -1.40625,0.1171875 v 0.3046875 c 0.703125,0 0.785156,0.070312 0.785156,0.5625 z m 10.511718,2.66015624 c 0.0352,0.3984375 0.30469,0.8203125 0.77344,0.8203125 0.21094,0 0.82031,-0.140625 0.82031,-0.94921875 V -1.4424141 h -0.24609 v 0.55078129 c 0,0.5859375 -0.2461,0.64453125 -0.36328,0.64453125 -0.32813,0 -0.36329,-0.45703125 -0.36329,-0.50390625 V -2.7431953 c 0,-0.4101563 0,-0.8085938 -0.36328,-1.171875 -0.38672,-0.3867188 -0.8789,-0.5507813 -1.35937,-0.5507813 -0.82031,0 -1.51172,0.46875 -1.51172,1.125 0,0.3046875 0.19922,0.46875 0.45703,0.46875 0.28125,0 0.46875,-0.1992187 0.46875,-0.4570312 0,-0.1171875 -0.0586,-0.4453125 -0.51562,-0.4570313 0.26953,-0.3515625 0.76171,-0.4570312 1.07812,-0.4570312 0.49219,0 1.05469,0.3867187 1.05469,1.2773437 v 0.3632813 c -0.50391,0.035156 -1.20703,0.058594 -1.82813,0.3632812 -0.75,0.3398438 -0.99609,0.8554688 -0.99609,1.28906254 0,0.80859375 0.96094,1.0546875 1.59375,1.0546875 0.65625,0 1.11328,-0.3984375 1.30078,-0.8671875 z m -0.0703,-1.62890624 v 0.9960937 c 0,0.94921879 -0.71485,1.28906254 -1.16016,1.28906254 -0.49219,0 -0.90234,-0.3515625 -0.90234,-0.85546875 0,-0.53906249 0.42187,-1.37109379 2.0625,-1.42968749 z m 4.59668,0.046875 c 0.29297,-0.375 0.67969,-0.8671875 0.91406,-1.125 0.31641,-0.3515625 0.71484,-0.5039063 1.18359,-0.515625 v -0.3046875 c -0.25781,0.011719 -0.55078,0.023437 -0.80859,0.023437 -0.30469,0 -0.83203,-0.023437 -0.96094,-0.023437 v 0.3046875 c 0.21094,0.023437 0.29297,0.1523437 0.29297,0.3046875 0,0.1640625 -0.10547,0.2929687 -0.15234,0.3515625 l -0.6211,0.7734375 -0.77343,-0.9960938 c -0.0937,-0.1054687 -0.0937,-0.1289062 -0.0937,-0.1875 0,-0.1523437 0.15234,-0.234375 0.35156,-0.2460937 v -0.3046875 c -0.25781,0 -0.91406,0.023437 -1.07813,0.023437 -0.21093,0 -0.67968,-0.011719 -0.94921,-0.023437 v 0.3046875 c 0.70312,0 0.71484,0.011719 1.18359,0.609375 l 0.98437,1.2773437 -0.9375,1.19531254 c -0.48046,0.57421875 -1.0664,0.59765625 -1.27734,0.59765625 v 0.3046875 c 0.25781,-0.0234375 0.57422,-0.03515625 0.83203,-0.03515625 0.28125,0 0.70313,0.0234375 0.94922,0.03515625 v -0.3046875 c -0.22266,-0.0351563 -0.29297,-0.1640625 -0.29297,-0.31640625 0,-0.2109375 0.29297,-0.53906254 0.89063,-1.26562504 l 0.76172,0.99609379 c 0.082,0.1171875 0.21093,0.26953125 0.21093,0.328125 0,0.09375 -0.0937,0.24609375 -0.36328,0.2578125 v 0.3046875 c 0.30469,-0.01171875 0.85547,-0.03515625 1.07813,-0.03515625 0.26953,0 0.65625,0.01171875 0.96093,0.03515625 v -0.3046875 c -0.53906,0 -0.72656,-0.0234375 -0.94921,-0.31640625 z m 0,0"
         style="fill:#000000;fill-opacity:1;fill-rule:nonzero;stroke:none" />
      <path
         id="path7"
         d="m 103.83159,5.4130547 c -0.0352,0.140625 -0.0937,0.375 -0.0937,0.4101562 0,0.1523438 0.12891,0.2226563 0.23438,0.2226563 0.12891,0 0.23437,-0.09375 0.26953,-0.1523438 0.0352,-0.058594 0.0937,-0.2929687 0.12891,-0.4335937 0.0352,-0.1289063 0.11718,-0.4570313 0.15234,-0.6328125 0.0469,-0.1523438 0.082,-0.3046875 0.11719,-0.4570313 0.082,-0.3046875 0.082,-0.3164062 0.22265,-0.5390625 0.22266,-0.3398437 0.5625,-0.7382812 1.11329,-0.7382812 0.38671,0 0.41015,0.328125 0.41015,0.4921875 0,0.421875 -0.30469,1.1953125 -0.41015,1.4882812 -0.082,0.1875 -0.10547,0.2578125 -0.10547,0.375 0,0.3632813 0.30468,0.5976563 0.65625,0.5976563 0.70312,0 1.00781,-0.9609375 1.00781,-1.0664063 0,-0.09375 -0.0937,-0.09375 -0.10547,-0.09375 -0.10547,0 -0.10547,0.046875 -0.14062,0.1171875 -0.15235,0.5625 -0.45704,0.84375 -0.73829,0.84375 -0.14062,0 -0.17578,-0.09375 -0.17578,-0.2460937 0,-0.1523438 0.0352,-0.2460938 0.16407,-0.5625 0.082,-0.2109375 0.375,-0.9492188 0.375,-1.3476563 0,-0.1054687 0,-0.3984375 -0.25782,-0.5976562 -0.1289,-0.09375 -0.32812,-0.1875 -0.65625,-0.1875 -0.62109,0 -1.00781,0.4101562 -1.23047,0.703125 -0.0586,-0.5976563 -0.55078,-0.703125 -0.90234,-0.703125 -0.58594,0 -0.97266,0.3515625 -1.18359,0.6328125 -0.0469,-0.4804688 -0.45703,-0.6328125 -0.75,-0.6328125 -0.29297,0 -0.45703,0.2109375 -0.55078,0.375 -0.15235,0.2578125 -0.2461,0.65625 -0.2461,0.6914062 0,0.082031 0.0937,0.082031 0.11719,0.082031 0.0937,0 0.10547,-0.011719 0.15234,-0.1992188 0.10547,-0.421875 0.23438,-0.7617187 0.51563,-0.7617187 0.17578,0 0.22265,0.1523437 0.22265,0.3398437 0,0.140625 -0.0586,0.3984375 -0.10546,0.5859375 -0.0469,0.1875 -0.11719,0.46875 -0.15235,0.6210938 l -0.22265,0.9023437 c -0.0352,0.082031 -0.0703,0.2578125 -0.0703,0.28125 0,0.1523438 0.11719,0.2226563 0.23438,0.2226563 0.1289,0 0.23437,-0.09375 0.26953,-0.1523438 0.0352,-0.058594 0.0937,-0.2929687 0.12891,-0.4335937 0.0352,-0.1289063 0.10546,-0.4570313 0.15234,-0.6328125 0.0352,-0.1523438 0.082,-0.3046875 0.11719,-0.4570313 0.082,-0.2929687 0.0937,-0.3515625 0.29297,-0.6328125 0.19921,-0.28125 0.52734,-0.6445312 1.04296,-0.6445312 0.41016,0 0.41016,0.3632812 0.41016,0.4921875 0,0.1757812 -0.0117,0.2695312 -0.11719,0.65625 z m 0,0"
         style="fill:#000000;fill-opacity:1;fill-rule:nonzero;stroke:none" />
      <path
         id="path8"
         d="m 118.96636,0.26266406 c 0,-0.64453125 0,-0.78515625 -0.0937,-1.0546875 -0.30469,-0.91406246 -1.18359,-1.44140626 -1.83984,-1.69921876 1.13671,-0.4921875 1.71093,-1.1601562 1.88671,-1.8515625 0.0352,-0.1171875 0.0469,-0.3046875 0.0469,-0.3515625 v -4.4765625 c 0,-0.8320313 0.65625,-1.4531253 1.59375,-1.8515623 0.15234,-0.07031 0.16406,-0.08203 0.16406,-0.234375 0,-0.1875 -0.0117,-0.199219 -0.19922,-0.199219 -0.29297,0 -1.03125,0.363281 -1.42968,0.679688 -0.33985,0.269531 -0.86719,0.8203121 -0.87891,1.4999996 -0.0117,0.796875 0,1.6054687 0,2.4023437 v 1.5585938 c 0,0.8671875 0,1.1953125 -0.51563,1.8164062 -0.1289,0.140625 -0.41015,0.4453125 -1.10156,0.7734375 -0.1289,0.070312 -0.14062,0.070312 -0.14062,0.2226563 0,0.1640625 0.0117,0.1757812 0.21093,0.2578125 1.05469,0.4921875 1.54688,1.33593746 1.54688,1.96874996 V 3.8603203 c 0,0.46875 0,1.0664063 0.50391,1.5820313 0.22265,0.2226562 0.43359,0.4335937 0.90234,0.6796875 0.12891,0.070312 0.63281,0.3398437 0.90234,0.3398437 0.1875,0 0.19922,-0.011719 0.19922,-0.1992187 0,-0.140625 0,-0.1640625 -0.0937,-0.1992188 -0.58594,-0.2460937 -1.46484,-0.7148437 -1.64062,-1.640625 -0.0234,-0.1054687 -0.0234,-0.4453125 -0.0234,-0.6796875 z m 0,0"
         style="fill:#000000;fill-opacity:1;fill-rule:nonzero;stroke:none" />
      <path
         id="path9"
         d="m 126.17046,-6.0478828 c 0.0703,-0.28125 0.10547,-0.3398438 0.23438,-0.3632813 0.082,-0.023437 0.41015,-0.023437 0.62109,-0.023437 1.00781,0 1.45312,0.035156 1.45312,0.8203125 0,0.140625 -0.0351,0.5273438 -0.082,0.796875 0,0.035156 -0.0234,0.1523438 -0.0234,0.1875 0,0.058594 0.0234,0.1289063 0.11718,0.1289063 0.10547,0 0.12891,-0.082031 0.15235,-0.234375 l 0.26953,-1.734375 c 0.0117,-0.035156 0.0117,-0.140625 0.0117,-0.1640625 0,-0.1054688 -0.0937,-0.1054688 -0.26953,-0.1054688 h -5.51954 c -0.24609,0 -0.25781,0 -0.3164,0.1992188 l -0.59766,1.7460937 c -0.0117,0.023437 -0.0703,0.1640625 -0.0703,0.1757813 0,0.070312 0.0586,0.1171875 0.12891,0.1171875 0.0937,0 0.10546,-0.046875 0.16406,-0.2109375 0.53906,-1.546875 0.79687,-1.7226563 2.27344,-1.7226563 h 0.38671 c 0.28125,0 0.28125,0.035156 0.28125,0.1171875 0,0.058594 -0.0352,0.1757813 -0.0469,0.2109375 l -1.32422,5.32031254 c -0.0937,0.36328125 -0.12891,0.48046875 -1.19531,0.48046875 -0.35156,0 -0.41016,0 -0.41016,0.1875 0,0.1171875 0.10547,0.1171875 0.16406,0.1171875 0.26954,0 0.55079,-0.0234375 0.82032,-0.0234375 0.28125,0 0.5625,-0.01171875 0.84375,-0.01171875 0.28125,0 0.5625,0.01171875 0.83203,0.01171875 0.28125,0 0.58594,0.0234375 0.86719,0.0234375 0.0937,0 0.21093,0 0.21093,-0.19921875 0,-0.10546875 -0.082,-0.10546875 -0.33984,-0.10546875 -0.24609,0 -0.375,0 -0.63281,-0.0234375 -0.29297,-0.0351563 -0.36328,-0.0585938 -0.36328,-0.22265625 0,-0.0117188 0,-0.0585938 0.0352,-0.2109375 z m 0,0"
         style="fill:#000000;fill-opacity:1;fill-rule:nonzero;stroke:none" />
      <path
         id="path10"
         d="m 132.36675,-4.3662422 c 0,0.4453125 0.082,0.9257813 0.65625,0.9257813 0.84375,0 1.25391,-1.1953125 1.25391,-1.3476563 0,-0.046875 -0.0469,-0.09375 -0.10547,-0.09375 -0.0703,0 -0.082,0.058594 -0.0937,0.082031 -0.16406,0.4921875 -0.63281,0.6328125 -0.86719,0.6328125 -0.28125,0 -0.42187,-0.1171875 -0.55078,-0.6796875 1.24219,-0.4335938 2.23828,-1.6757813 2.23828,-2.90625 0,-1.0898438 -0.78516,-1.9335938 -2.01562,-1.9335938 -1.66407,0 -3.28125,1.5585938 -3.28125,3.1289063 0,1.125 0.83203,1.9101562 2.02734,1.9101562 0.14062,0 0.375,-0.011719 0.73828,-0.09375 z m -1.20703,-0.5976562 c -0.36328,-0.1289063 -0.87891,-0.4921875 -0.87891,-1.4179688 0,-0.4453125 0.14063,-1.3710937 0.77344,-2.1679687 0.44531,-0.5390625 1.125,-0.9140625 1.76953,-0.9140625 0.76172,0 1.40625,0.5039062 1.40625,1.5234375 0,0.703125 -0.35156,2.1914062 -1.61719,2.8359375 -0.11718,-0.4453125 -0.29296,-0.7382813 -0.71484,-0.7382813 -0.38672,0 -0.77344,0.328125 -0.77344,0.703125 0,0.1171875 0.0117,0.1289063 0.0352,0.1757813 z m 1.20703,-0.035156 c -0.15234,0.058594 -0.41016,0.1289063 -0.69141,0.1289063 -0.10546,0 -0.35156,0 -0.35156,-0.2695313 0,-0.2695312 0.28125,-0.5039062 0.57422,-0.5039062 0.25781,0 0.44531,0.1054687 0.46875,0.6445312 z m 0,0"
         style="fill:#000000;fill-opacity:1;fill-rule:nonzero;stroke:none" />
      <path
         id="path11"
         d="m 130.2105,-1.8349922 c -1.32422,0.92578126 -1.67578,2.41406251 -1.67578,3.4804688 0,0.984375 0.29297,2.5078125 1.67578,3.4804687 0.0586,0 0.14063,0 0.14063,-0.082031 0,-0.046875 -0.0234,-0.058594 -0.0703,-0.1054688 -0.92578,-0.8320312 -1.26562,-2.015625 -1.26562,-3.2929687 0,-1.87500004 0.71484,-2.8007813 1.28906,-3.3164063 0.0234,-0.023437 0.0469,-0.046875 0.0469,-0.082031 0,-0.082031 -0.082,-0.082031 -0.14063,-0.082031 z m 0,0"
         style="fill:#000000;fill-opacity:1;fill-rule:nonzero;stroke:none" />
      <path
         id="path12"
         d="m 133.87554,2.8290703 c -0.0352,0.140625 -0.0937,0.375 -0.0937,0.4101563 0,0.1523437 0.12891,0.2226562 0.23437,0.2226562 0.12891,0 0.23438,-0.09375 0.26954,-0.1523437 0.0352,-0.058594 0.0937,-0.2929688 0.1289,-0.4335938 0.0352,-0.1289062 0.11719,-0.4570312 0.15235,-0.6328125 0.0469,-0.1523437 0.082,-0.3046875 0.11718,-0.4570312 0.082,-0.3046875 0.082,-0.3164063 0.22266,-0.5390625 0.22266,-0.33984379 0.5625,-0.73828129 1.11328,-0.73828129 0.38672,0 0.41016,0.328125 0.41016,0.49218749 0,0.421875 -0.30469,1.1953125 -0.41016,1.4882813 -0.082,0.1875 -0.10547,0.2578125 -0.10547,0.375 0,0.3632812 0.30469,0.5976562 0.65625,0.5976562 0.70313,0 1.00781,-0.9609375 1.00781,-1.0664062 0,-0.09375 -0.0937,-0.09375 -0.10546,-0.09375 -0.10547,0 -0.10547,0.046875 -0.14063,0.1171875 -0.15234,0.5625 -0.45703,0.84375 -0.73828,0.84375 -0.14063,0 -0.17578,-0.09375 -0.17578,-0.2460938 0,-0.1523437 0.0352,-0.2460937 0.16406,-0.5625 0.082,-0.2109375 0.375,-0.9492187 0.375,-1.3476562 0,-0.1054688 0,-0.39843754 -0.25781,-0.59765629 -0.12891,-0.09375 -0.32813,-0.1875 -0.65625,-0.1875 -0.6211,0 -1.00781,0.41015625 -1.23047,0.70312499 -0.0586,-0.59765624 -0.55078,-0.70312499 -0.90234,-0.70312499 -0.58594,0 -0.97266,0.3515625 -1.1836,0.6328125 -0.0469,-0.48046875 -0.45703,-0.6328125 -0.75,-0.6328125 -0.29297,0 -0.45703,0.2109375 -0.55078,0.375 -0.15234,0.2578125 -0.24609,0.65624999 -0.24609,0.69140629 0,0.082031 0.0937,0.082031 0.11718,0.082031 0.0937,0 0.10547,-0.011719 0.15235,-0.1992187 0.10547,-0.42187504 0.23437,-0.76171879 0.51562,-0.76171879 0.17578,0 0.22266,0.15234375 0.22266,0.33984375 0,0.140625 -0.0586,0.39843754 -0.10547,0.58593754 -0.0469,0.1875 -0.11719,0.46875 -0.15234,0.6210937 l -0.22266,0.9023438 c -0.0352,0.082031 -0.0703,0.2578125 -0.0703,0.28125 0,0.1523437 0.11719,0.2226562 0.23437,0.2226562 0.12891,0 0.23438,-0.09375 0.26953,-0.1523437 0.0352,-0.058594 0.0937,-0.2929688 0.12891,-0.4335938 0.0352,-0.1289062 0.10547,-0.4570312 0.15234,-0.6328125 0.0352,-0.1523437 0.082,-0.3046875 0.11719,-0.4570312 0.082,-0.2929688 0.0937,-0.3515625 0.29297,-0.6328125 0.19922,-0.28125004 0.52734,-0.64453129 1.04297,-0.64453129 0.41016,0 0.41016,0.36328125 0.41016,0.49218749 0,0.1757813 -0.0117,0.2695313 -0.11719,0.65625 z m 5.5166,0.4453125 c 0,0.3867188 -0.0703,0.8320313 -0.55078,1.2773438 -0.0234,0.035156 -0.0469,0.058594 -0.0469,0.09375 0,0.046875 0.0586,0.09375 0.0937,0.09375 0.10547,0 0.69141,-0.5625 0.69141,-1.3945313 0,-0.421875 -0.16406,-0.75 -0.48047,-0.75 -0.23437,0 -0.39844,0.1757813 -0.39844,0.3867188 0,0.234375 0.15235,0.4101562 0.39844,0.4101562 0.16406,0 0.28125,-0.1171875 0.29297,-0.1171875 z m 3.14941,-4.24218749 c 0,-0.10546871 -0.082,-0.25781251 -0.28125,-0.25781251 -0.1875,0 -0.38671,0.1757813 -0.38671,0.37500001 0,0.1171875 0.082,0.26953125 0.26953,0.26953125 0.21093,0 0.39843,-0.19921875 0.39843,-0.38671875 z m -1.42968,3.53906249 c -0.0234,0.09375 -0.0586,0.1757813 -0.0586,0.2929688 0,0.328125 0.28125,0.5976562 0.66797,0.5976562 0.69141,0 0.9961,-0.9609375 0.9961,-1.0664062 0,-0.09375 -0.082,-0.09375 -0.10547,-0.09375 -0.10547,0 -0.10547,0.046875 -0.14063,0.1171875 -0.15234,0.5625 -0.45703,0.84375 -0.73828,0.84375 -0.14062,0 -0.17578,-0.082031 -0.17578,-0.2460938 0,-0.1523437 0.0586,-0.2929687 0.11719,-0.4453125 0.0703,-0.1875 0.14062,-0.375 0.22265,-0.5507812 0.0586,-0.1640625 0.31641,-0.8085938 0.33985,-0.890625 0.0234,-0.070312 0.0469,-0.15234379 0.0469,-0.22265629 0,-0.328125 -0.28125,-0.5859375 -0.66797,-0.5859375 -0.6914,0 -1.00781,0.94921879 -1.00781,1.06640629 0,0.082031 0.0937,0.082031 0.11719,0.082031 0.0937,0 0.10547,-0.035156 0.1289,-0.1054687 0.17579,-0.59765629 0.48047,-0.85546879 0.73829,-0.85546879 0.11718,0 0.17578,0.0585938 0.17578,0.24609375 0,0.1640625 -0.0352,0.26953124 -0.21094,0.70312504 z m 0,0"
         style="fill:#000000;fill-opacity:1;fill-rule:nonzero;stroke:none" />
      <path
         id="path13"
         d="m 146.39702,1.1796563 c 0.0234,-0.070312 0.0234,-0.082031 0.0234,-0.1054688 0,-0.0820313 -0.0703,-0.0820313 -0.15234,-0.0820313 l -0.60938,0.0468751 c -0.0937,0.011719 -0.0937,0.011719 -0.1289,0.035156 -0.0117,0.023437 -0.0352,0.082031 -0.0352,0.1171875 0,0.082031 0.082,0.082031 0.15234,0.082031 0.0117,0 0.0937,0 0.17578,0.011719 0.0937,0.011719 0.0937,0.023437 0.0937,0.058594 0,0.023437 -0.0351,0.1757812 -0.0586,0.2695312 l -0.23437,0.9375 c -0.0937,-0.1289062 -0.28125,-0.3046875 -0.59766,-0.3046875 -0.70313,0 -1.39453,0.6796875 -1.39453,1.3945313 0,0.5039062 0.375,0.8671875 0.86719,0.8671875 0.41015,0 0.72656,-0.2929688 0.78515,-0.3515625 0.0937,0.2460937 0.36328,0.3515625 0.58594,0.3515625 0.19922,0 0.33984,-0.1171875 0.44531,-0.28125 0.12891,-0.1992188 0.19922,-0.4570313 0.19922,-0.4921875 0,-0.070312 -0.0937,-0.070312 -0.10547,-0.070312 -0.0937,0 -0.0937,0.023437 -0.11719,0.1054687 -0.0937,0.375 -0.22265,0.5625 -0.39843,0.5625 -0.14063,0 -0.19922,-0.1054687 -0.19922,-0.2578125 0,-0.058594 0,-0.1171875 0.0234,-0.1640625 z m -1.07812,2.6015625 c -0.0234,0.082031 -0.0234,0.09375 -0.11719,0.1875 C 145.02593,4.1796563 144.76812,4.332 144.5103,4.332 c -0.17578,0 -0.43359,-0.09375 -0.43359,-0.5039062 0,-0.234375 0.11719,-0.75 0.29297,-1.0078125 0.19922,-0.28125 0.44531,-0.3984375 0.65625,-0.3984375 0.22266,0 0.43359,0.1289062 0.51562,0.4335937 z m 0,0"
         style="fill:#000000;fill-opacity:1;fill-rule:nonzero;stroke:none" />
      <path
         id="path14"
         d="m 147.92046,-1.8349922 c -0.0586,0 -0.14062,0 -0.14062,0.082031 0,0.035156 0.0234,0.058594 0.0703,0.1054687 0.59765,0.5507813 1.26562,1.48828126 1.26562,3.2929688 0,1.453125 -0.45703,2.5546875 -1.20703,3.234375 -0.11719,0.1171875 -0.1289,0.1289062 -0.1289,0.1640625 0,0.035156 0.0234,0.082031 0.0937,0.082031 0.082,0 0.75,-0.4570312 1.20703,-1.3242187 0.30468,-0.5859375 0.5039,-1.3359375 0.5039,-2.15625 0,-0.98437504 -0.29297,-2.50781254 -1.66406,-3.4804688 z m 0,0"
         style="fill:#000000;fill-opacity:1;fill-rule:nonzero;stroke:none" />
      <path
         id="path15"
         d="m 157.18999,-2.2978828 h 2.77735 c 0.14062,0 0.32812,0 0.32812,-0.1992188 0,-0.1992187 -0.1875,-0.1992187 -0.32812,-0.1992187 h -2.77735 v -2.7890625 c 0,-0.1289063 0,-0.328125 -0.19922,-0.328125 -0.19922,0 -0.19922,0.1992187 -0.19922,0.328125 v 2.7890625 h -2.78906 c -0.14062,0 -0.32812,0 -0.32812,0.1992187 0,0.1992188 0.1875,0.1992188 0.32812,0.1992188 h 2.78906 v 2.80078124 c 0,0.12890625 0,0.328125 0.19922,0.328125 0.19922,0 0.19922,-0.19921875 0.19922,-0.328125 z m 0,0"
         style="fill:#000000;fill-opacity:1;fill-rule:nonzero;stroke:none" />
      <path
         id="path16"
         d="m 170.64605,-6.9267891 c 0,-0.023437 -0.0234,-0.09375 -0.10547,-0.09375 -0.0352,0 -0.0469,0.011719 -0.15235,0.1171875 l -0.70312,0.7617188 c -0.082,-0.140625 -0.53906,-0.8789063 -1.65234,-0.8789063 -2.21485,0 -4.45313,2.203125 -4.45313,4.5117188 0,1.58203124 1.10156,2.73046874 2.71875,2.73046874 0.43359,0 0.87891,-0.09375 1.24219,-0.24609375 0.49219,-0.19921875 0.67969,-0.41015625 0.86719,-0.609375 0.082,0.2578125 0.35156,0.62109375 0.44531,0.62109375 0.0469,0 0.0703,-0.0234375 0.0703,-0.03515625 0.0234,-0.0234375 0.11719,-0.3984375 0.16406,-0.609375 l 0.19922,-0.77343749 c 0.0352,-0.1640625 0.082,-0.328125 0.12891,-0.5039063 0.10547,-0.4453125 0.11719,-0.46875 0.67969,-0.4804687 0.0586,0 0.16406,-0.011719 0.16406,-0.1992188 0,-0.070312 -0.0469,-0.1054687 -0.12891,-0.1054687 -0.23437,0 -0.82031,0.023437 -1.04297,0.023437 -0.3164,0 -1.08984,-0.023437 -1.39453,-0.023437 -0.0937,0 -0.21094,0 -0.21094,0.1992187 0,0.1054688 0.082,0.1054688 0.29297,0.1054688 0.0117,0 0.30469,0 0.52735,0.023437 0.25781,0.035156 0.3164,0.058594 0.3164,0.1875 0,0.09375 -0.11718,0.5390625 -0.21093,0.9023437 -0.28125,1.10156254 -1.58204,1.20703129 -1.92188,1.20703129 -0.96094,0 -2.00391,-0.5625 -2.00391,-2.08593749 0,-0.3164063 0.0937,-1.9570313 1.14844,-3.2460938 0.53906,-0.6796875 1.5,-1.2890625 2.48438,-1.2890625 1.01953,0 1.60547,0.7734375 1.60547,1.921875 0,0.3984375 -0.0352,0.4101563 -0.0352,0.5039063 0,0.1054687 0.11719,0.1054687 0.15234,0.1054687 0.12891,0 0.12891,-0.023437 0.17578,-0.1992187 z m 0,0"
         style="fill:#000000;fill-opacity:1;fill-rule:nonzero;stroke:none" />
      <path
         id="path17"
         d="m 174.15581,-4.3662422 c 0,0.4453125 0.082,0.9257813 0.65625,0.9257813 0.84375,0 1.25391,-1.1953125 1.25391,-1.3476563 0,-0.046875 -0.0469,-0.09375 -0.10547,-0.09375 -0.0703,0 -0.082,0.058594 -0.0937,0.082031 -0.16406,0.4921875 -0.63281,0.6328125 -0.86719,0.6328125 -0.28125,0 -0.42187,-0.1171875 -0.55078,-0.6796875 1.24219,-0.4335938 2.23828,-1.6757813 2.23828,-2.90625 0,-1.0898438 -0.78515,-1.9335938 -2.01562,-1.9335938 -1.66406,0 -3.28125,1.5585938 -3.28125,3.1289063 0,1.125 0.83203,1.9101562 2.02734,1.9101562 0.14063,0 0.375,-0.011719 0.73828,-0.09375 z m -1.20703,-0.5976562 c -0.36328,-0.1289063 -0.8789,-0.4921875 -0.8789,-1.4179688 0,-0.4453125 0.14062,-1.3710937 0.77343,-2.1679687 0.44532,-0.5390625 1.125,-0.9140625 1.76953,-0.9140625 0.76172,0 1.40625,0.5039062 1.40625,1.5234375 0,0.703125 -0.35156,2.1914062 -1.61718,2.8359375 -0.11719,-0.4453125 -0.29297,-0.7382813 -0.71485,-0.7382813 -0.38672,0 -0.77343,0.328125 -0.77343,0.703125 0,0.1171875 0.0117,0.1289063 0.0351,0.1757813 z m 1.20703,-0.035156 c -0.15234,0.058594 -0.41015,0.1289063 -0.6914,0.1289063 -0.10547,0 -0.35157,0 -0.35157,-0.2695313 0,-0.2695312 0.28125,-0.5039062 0.57422,-0.5039062 0.25782,0 0.44532,0.1054687 0.46875,0.6445312 z m 0,0"
         style="fill:#000000;fill-opacity:1;fill-rule:nonzero;stroke:none" />
      <path
         id="path18"
         d="m 173.38238,-1.8349922 c -1.32422,0.92578126 -1.67579,2.41406251 -1.67579,3.4804688 0,0.984375 0.29297,2.5078125 1.67579,3.4804687 0.0586,0 0.14062,0 0.14062,-0.082031 0,-0.046875 -0.0234,-0.058594 -0.0703,-0.1054688 -0.92578,-0.8320312 -1.26563,-2.015625 -1.26563,-3.2929687 0,-1.87500004 0.71485,-2.8007813 1.28907,-3.3164063 0.0234,-0.023437 0.0469,-0.046875 0.0469,-0.082031 0,-0.082031 -0.082,-0.082031 -0.14062,-0.082031 z m 0,0"
         style="fill:#000000;fill-opacity:1;fill-rule:nonzero;stroke:none" />
      <path
         id="path19"
         d="m 177.04448,2.8290703 c -0.0351,0.140625 -0.0937,0.375 -0.0937,0.4101563 0,0.1523437 0.12891,0.2226562 0.23438,0.2226562 0.12891,0 0.23437,-0.09375 0.26953,-0.1523437 0.0352,-0.058594 0.0937,-0.2929688 0.12891,-0.4335938 0.0351,-0.1289062 0.11718,-0.4570312 0.15234,-0.6328125 0.0469,-0.1523437 0.082,-0.3046875 0.11719,-0.4570312 0.082,-0.3046875 0.082,-0.3164063 0.22265,-0.5390625 0.22266,-0.33984379 0.5625,-0.73828129 1.11329,-0.73828129 0.38671,0 0.41015,0.328125 0.41015,0.49218749 0,0.421875 -0.30469,1.1953125 -0.41015,1.4882813 -0.082,0.1875 -0.10547,0.2578125 -0.10547,0.375 0,0.3632812 0.30468,0.5976562 0.65625,0.5976562 0.70312,0 1.00781,-0.9609375 1.00781,-1.0664062 0,-0.09375 -0.0937,-0.09375 -0.10547,-0.09375 -0.10547,0 -0.10547,0.046875 -0.14062,0.1171875 -0.15235,0.5625 -0.45704,0.84375 -0.73829,0.84375 -0.14062,0 -0.17578,-0.09375 -0.17578,-0.2460938 0,-0.1523437 0.0352,-0.2460937 0.16407,-0.5625 0.082,-0.2109375 0.375,-0.9492187 0.375,-1.3476562 0,-0.1054688 0,-0.39843754 -0.25782,-0.59765629 -0.1289,-0.09375 -0.32812,-0.1875 -0.65625,-0.1875 -0.62109,0 -1.00781,0.41015625 -1.23047,0.70312499 -0.0586,-0.59765624 -0.55078,-0.70312499 -0.90234,-0.70312499 -0.58594,0 -0.97266,0.3515625 -1.18359,0.6328125 -0.0469,-0.48046875 -0.45703,-0.6328125 -0.75,-0.6328125 -0.29297,0 -0.45703,0.2109375 -0.55078,0.375 -0.15235,0.2578125 -0.2461,0.65624999 -0.2461,0.69140629 0,0.082031 0.0937,0.082031 0.11719,0.082031 0.0937,0 0.10547,-0.011719 0.15234,-0.1992187 0.10547,-0.42187504 0.23438,-0.76171879 0.51563,-0.76171879 0.17578,0 0.22265,0.15234375 0.22265,0.33984375 0,0.140625 -0.0586,0.39843754 -0.10546,0.58593754 -0.0469,0.1875 -0.11719,0.46875 -0.15235,0.6210937 l -0.22265,0.9023438 c -0.0352,0.082031 -0.0703,0.2578125 -0.0703,0.28125 0,0.1523437 0.11719,0.2226562 0.23438,0.2226562 0.1289,0 0.23437,-0.09375 0.26953,-0.1523437 0.0352,-0.058594 0.0937,-0.2929688 0.12891,-0.4335938 0.0351,-0.1289062 0.10546,-0.4570312 0.15234,-0.6328125 0.0352,-0.1523437 0.082,-0.3046875 0.11719,-0.4570312 0.082,-0.2929688 0.0937,-0.3515625 0.29297,-0.6328125 0.19921,-0.28125004 0.52734,-0.64453129 1.04296,-0.64453129 0.41016,0 0.41016,0.36328125 0.41016,0.49218749 0,0.1757813 -0.0117,0.2695313 -0.11719,0.65625 z m 5.51954,0.4453125 c 0,0.3867188 -0.0703,0.8320313 -0.55079,1.2773438 -0.0234,0.035156 -0.0469,0.058594 -0.0469,0.09375 0,0.046875 0.0586,0.09375 0.0937,0.09375 0.10547,0 0.69141,-0.5625 0.69141,-1.3945313 0,-0.421875 -0.16407,-0.75 -0.48047,-0.75 -0.23438,0 -0.39844,0.1757813 -0.39844,0.3867188 0,0.234375 0.15234,0.4101562 0.39844,0.4101562 0.16406,0 0.28125,-0.1171875 0.29297,-0.1171875 z m 3.14941,-4.24218749 c 0,-0.10546871 -0.082,-0.25781251 -0.28125,-0.25781251 -0.1875,0 -0.38672,0.1757813 -0.38672,0.37500001 0,0.1171875 0.082,0.26953125 0.26953,0.26953125 0.21094,0 0.39844,-0.19921875 0.39844,-0.38671875 z m -1.42969,3.53906249 c -0.0234,0.09375 -0.0586,0.1757813 -0.0586,0.2929688 0,0.328125 0.28125,0.5976562 0.66797,0.5976562 0.6914,0 0.99609,-0.9609375 0.99609,-1.0664062 0,-0.09375 -0.082,-0.09375 -0.10547,-0.09375 -0.10547,0 -0.10547,0.046875 -0.14062,0.1171875 -0.15235,0.5625 -0.45703,0.84375 -0.73828,0.84375 -0.14063,0 -0.17579,-0.082031 -0.17579,-0.2460938 0,-0.1523437 0.0586,-0.2929687 0.11719,-0.4453125 0.0703,-0.1875 0.14063,-0.375 0.22266,-0.5507812 0.0586,-0.1640625 0.3164,-0.8085938 0.33984,-0.890625 0.0234,-0.070312 0.0469,-0.15234379 0.0469,-0.22265629 0,-0.328125 -0.28125,-0.5859375 -0.66797,-0.5859375 -0.69141,0 -1.00781,0.94921879 -1.00781,1.06640629 0,0.082031 0.0937,0.082031 0.11718,0.082031 0.0937,0 0.10547,-0.035156 0.12891,-0.1054687 0.17578,-0.59765629 0.48047,-0.85546879 0.73828,-0.85546879 0.11719,0 0.17578,0.0585938 0.17578,0.24609375 0,0.1640625 -0.0351,0.26953124 -0.21094,0.70312504 z m 0,0"
         style="fill:#000000;fill-opacity:1;fill-rule:nonzero;stroke:none" />
      <path
         id="path20"
         d="m 189.5689,1.1796563 c 0.0234,-0.070312 0.0234,-0.082031 0.0234,-0.1054688 0,-0.0820313 -0.0703,-0.0820313 -0.15235,-0.0820313 l -0.60937,0.0468751 c -0.0937,0.011719 -0.0937,0.011719 -0.12891,0.035156 -0.0117,0.023437 -0.0352,0.082031 -0.0352,0.1171875 0,0.082031 0.082,0.082031 0.15235,0.082031 0.0117,0 0.0937,0 0.17578,0.011719 0.0937,0.011719 0.0937,0.023437 0.0937,0.058594 0,0.023437 -0.0352,0.1757812 -0.0586,0.2695312 l -0.23438,0.9375 c -0.0937,-0.1289062 -0.28125,-0.3046875 -0.59766,-0.3046875 -0.70312,0 -1.39453,0.6796875 -1.39453,1.3945313 0,0.5039062 0.375,0.8671875 0.86719,0.8671875 0.41016,0 0.72656,-0.2929688 0.78516,-0.3515625 0.0937,0.2460937 0.36328,0.3515625 0.58593,0.3515625 0.19922,0 0.33985,-0.1171875 0.44532,-0.28125 0.1289,-0.1992188 0.19922,-0.4570313 0.19922,-0.4921875 0,-0.070312 -0.0937,-0.070312 -0.10547,-0.070312 -0.0937,0 -0.0937,0.023437 -0.11719,0.1054687 -0.0937,0.375 -0.22266,0.5625 -0.39844,0.5625 -0.14062,0 -0.19922,-0.1054687 -0.19922,-0.2578125 0,-0.058594 0,-0.1171875 0.0234,-0.1640625 z m -1.07813,2.6015625 c -0.0234,0.082031 -0.0234,0.09375 -0.11718,0.1875 C 188.1978,4.1796563 187.93999,4.332 187.68218,4.332 c -0.17578,0 -0.43359,-0.09375 -0.43359,-0.5039062 0,-0.234375 0.11718,-0.75 0.29296,-1.0078125 0.19922,-0.28125 0.44532,-0.3984375 0.65625,-0.3984375 0.22266,0 0.4336,0.1289062 0.51563,0.4335937 z m 0,0"
         style="fill:#000000;fill-opacity:1;fill-rule:nonzero;stroke:none" />
      <path
         id="path21"
         d="m 191.09234,-1.8349922 c -0.0586,0 -0.14063,0 -0.14063,0.082031 0,0.035156 0.0234,0.058594 0.0703,0.1054687 0.59766,0.5507813 1.26563,1.48828126 1.26563,3.2929688 0,1.453125 -0.45703,2.5546875 -1.20703,3.234375 -0.11719,0.1171875 -0.12891,0.1289062 -0.12891,0.1640625 0,0.035156 0.0234,0.082031 0.0937,0.082031 0.082,0 0.75,-0.4570312 1.20703,-1.3242187 0.30469,-0.5859375 0.50391,-1.3359375 0.50391,-2.15625 0,-0.98437504 -0.29297,-2.50781254 -1.66406,-3.4804688 z m 0,0"
         style="fill:#000000;fill-opacity:1;fill-rule:nonzero;stroke:none" />
      <path
         id="path22"
         d="m 196.09917,-0.01272656 c 0,-0.65625 -0.25781,-1.04296874 -0.64453,-1.04296874 -0.32812,0 -0.52734,0.24609374 -0.52734,0.52734374 0,0.26953125 0.19922,0.52734375 0.52734,0.52734375 0.11719,0 0.24609,-0.03515625 0.35156,-0.12890625 0.0234,-0.0234375 0.0352,-0.0351563 0.0469,-0.0351563 0.0117,0 0.0234,0.0117188 0.0234,0.15234375 0,0.73828125 -0.35157,1.33593741 -0.67969,1.66406241 -0.10547,0.1054688 -0.10547,0.1289063 -0.10547,0.1640625 0,0.070312 0.0469,0.1054688 0.0937,0.1054688 0.11719,0 0.91406,-0.7617188 0.91406,-1.93359371 z m 6.63867,-6.03515624 c 0.0703,-0.28125 0.10547,-0.3398438 0.23438,-0.3632813 0.082,-0.023437 0.41016,-0.023437 0.62109,-0.023437 1.00782,0 1.45313,0.035156 1.45313,0.8203125 0,0.140625 -0.0352,0.5273438 -0.082,0.796875 0,0.035156 -0.0234,0.1523438 -0.0234,0.1875 0,0.058594 0.0234,0.1289063 0.11719,0.1289063 0.10547,0 0.1289,-0.082031 0.15234,-0.234375 l 0.26953,-1.734375 c 0.0117,-0.035156 0.0117,-0.140625 0.0117,-0.1640625 0,-0.1054688 -0.0937,-0.1054688 -0.26953,-0.1054688 h -5.51953 c -0.2461,0 -0.25781,0 -0.31641,0.1992188 l -0.59765,1.7460937 c -0.0117,0.023437 -0.0703,0.1640625 -0.0703,0.1757813 0,0.070312 0.0586,0.1171875 0.12891,0.1171875 0.0937,0 0.10547,-0.046875 0.16406,-0.2109375 0.53906,-1.546875 0.79688,-1.7226563 2.27344,-1.7226563 h 0.38672 c 0.28125,0 0.28125,0.035156 0.28125,0.1171875 0,0.058594 -0.0352,0.1757813 -0.0469,0.2109375 l -1.32422,5.32031254 c -0.0937,0.36328125 -0.1289,0.48046875 -1.19531,0.48046875 -0.35156,0 -0.41015,0 -0.41015,0.1875 0,0.1171875 0.10546,0.1171875 0.16406,0.1171875 0.26953,0 0.55078,-0.0234375 0.82031,-0.0234375 0.28125,0 0.5625,-0.01171875 0.84375,-0.01171875 0.28125,0 0.5625,0.01171875 0.83203,0.01171875 0.28125,0 0.58594,0.0234375 0.86719,0.0234375 0.0937,0 0.21094,0 0.21094,-0.19921875 0,-0.10546875 -0.082,-0.10546875 -0.33985,-0.10546875 -0.24609,0 -0.375,0 -0.63281,-0.0234375 -0.29297,-0.0351563 -0.36328,-0.0585938 -0.36328,-0.22265625 0,-0.0117188 0,-0.0585938 0.0352,-0.2109375 z m 0,0"
         style="fill:#000000;fill-opacity:1;fill-rule:nonzero;stroke:none" />
      <path
         id="path23"
         d="m 210.42827,-8.0400703 c 0.14063,-0.140625 0.28125,-0.2695313 0.4336,-0.375 0.28125,-0.1875 0.53906,-0.1992188 0.63281,-0.2109375 0.0703,-0.011719 0.16406,-0.011719 0.16406,-0.1523438 0,-0.046875 -0.0469,-0.09375 -0.10547,-0.09375 -0.17578,0 -0.38672,0.023437 -0.5625,0.023437 -0.22265,0 -0.51562,-0.023437 -0.72656,-0.023437 -0.0352,0 -0.14062,0 -0.14062,0.1523438 0,0.082031 0.0937,0.09375 0.1289,0.09375 0.19922,0.011719 0.19922,0.09375 0.19922,0.1289062 0,0.070312 -0.0352,0.1171875 -0.0937,0.1875 -0.0352,0.058594 -0.0703,0.1054688 -0.11719,0.1523438 l -1.73437,1.8164062 -0.92578,-2.0390625 c -0.0469,-0.09375 -0.0469,-0.1171875 -0.0469,-0.1171875 0,-0.1289062 0.32813,-0.1289062 0.375,-0.1289062 0.0937,0 0.17578,0 0.17578,-0.1523438 0,-0.011719 0,-0.09375 -0.10547,-0.09375 -0.21093,0 -0.72656,0.023437 -0.9375,0.023437 -0.17578,0 -0.62109,-0.023437 -0.79687,-0.023437 -0.0469,0 -0.12891,0.011719 -0.12891,0.1523438 0,0.09375 0.082,0.09375 0.1875,0.09375 0.39844,0 0.42188,0.058594 0.49219,0.2109375 l 1.08984,2.390625 -0.3164,1.2773437 c -0.0937,0.3515625 -0.0937,0.375 -0.64453,0.3867188 -0.11719,0 -0.21094,0 -0.21094,0.140625 0,0.070312 0.0469,0.1054687 0.11719,0.1054687 0.1289,0 0.29297,-0.023437 0.43359,-0.023437 0.12891,0 0.32813,0 0.45703,0 0.14063,0 0.30469,0 0.44531,0 0.15235,0 0.31641,0.023437 0.46875,0.023437 0.0352,0 0.15235,0 0.15235,-0.1523437 0,-0.09375 -0.082,-0.09375 -0.23438,-0.09375 -0.11718,0 -0.14062,0 -0.26953,-0.023437 -0.1289,-0.011719 -0.15234,-0.023437 -0.15234,-0.09375 0,-0.046875 0.082,-0.375 0.1289,-0.5625 0.0586,-0.2226563 0.21094,-0.8320313 0.22266,-0.8554688 0.0234,-0.1054687 0.0234,-0.1171875 0.0937,-0.1875 z m 0,0"
         style="fill:#000000;fill-opacity:1;fill-rule:nonzero;stroke:none" />
      <path
         id="path24"
         d="m 206.79253,-2.5146797 c -1.32422,0.9257813 -1.67578,2.41406251 -1.67578,3.48046876 0,0.98437504 0.29297,2.50781254 1.67578,3.48046874 0.0586,0 0.14063,0 0.14063,-0.082031 0,-0.046875 -0.0234,-0.058594 -0.0703,-0.1054688 -0.92578,-0.8320312 -1.26562,-2.015625 -1.26562,-3.29296874 0,-1.875 0.71484,-2.80078126 1.28906,-3.31640626 0.0234,-0.023437 0.0469,-0.046875 0.0469,-0.082031 0,-0.082031 -0.082,-0.082031 -0.14063,-0.082031 z m 0,0"
         style="fill:#000000;fill-opacity:1;fill-rule:nonzero;stroke:none" />
      <path
         id="path25"
         d="m 210.45757,2.1493828 c -0.0352,0.140625 -0.0937,0.375 -0.0937,0.4101563 0,0.1523437 0.12891,0.2226562 0.23438,0.2226562 0.1289,0 0.23437,-0.09375 0.26953,-0.1523437 0.0352,-0.058594 0.0937,-0.2929688 0.1289,-0.4335938 0.0352,-0.1289062 0.11719,-0.4570312 0.15235,-0.6328125 0.0469,-0.1523437 0.082,-0.3046875 0.11718,-0.4570312 0.082,-0.30468754 0.082,-0.31640629 0.22266,-0.53906254 0.22266,-0.33984375 0.5625,-0.73828125 1.11328,-0.73828125 0.38672,0 0.41016,0.328125 0.41016,0.4921875 0,0.421875 -0.30469,1.19531249 -0.41016,1.48828129 -0.082,0.1875 -0.10547,0.2578125 -0.10547,0.375 0,0.3632812 0.30469,0.5976562 0.65625,0.5976562 0.70313,0 1.00782,-0.9609375 1.00782,-1.0664062 0,-0.09375 -0.0937,-0.09375 -0.10547,-0.09375 -0.10547,0 -0.10547,0.046875 -0.14063,0.1171875 -0.15234,0.5625 -0.45703,0.84375 -0.73828,0.84375 -0.14062,0 -0.17578,-0.09375 -0.17578,-0.2460938 0,-0.1523437 0.0352,-0.2460937 0.16406,-0.5625 0.082,-0.2109375 0.375,-0.94921874 0.375,-1.34765624 0,-0.10546875 0,-0.3984375 -0.25781,-0.59765625 -0.12891,-0.09375 -0.32813,-0.1875 -0.65625,-0.1875 -0.62109,0 -1.00781,0.41015625 -1.23047,0.703125 -0.0586,-0.59765625 -0.55078,-0.703125 -0.90234,-0.703125 -0.58594,0 -0.97266,0.3515625 -1.1836,0.6328125 -0.0469,-0.48046875 -0.45703,-0.6328125 -0.75,-0.6328125 -0.29297,0 -0.45703,0.2109375 -0.55078,0.375 -0.15234,0.2578125 -0.24609,0.65625 -0.24609,0.69140625 0,0.0820313 0.0937,0.0820313 0.11719,0.0820313 0.0937,0 0.10546,-0.0117188 0.15234,-0.19921875 0.10547,-0.421875 0.23437,-0.76171875 0.51562,-0.76171875 0.17579,0 0.22266,0.15234375 0.22266,0.33984375 0,0.140625 -0.0586,0.3984375 -0.10547,0.5859375 -0.0469,0.1875 -0.11719,0.46874999 -0.15234,0.62109369 l -0.22266,0.9023439 c -0.0352,0.082031 -0.0703,0.2578125 -0.0703,0.28125 0,0.1523436 0.11719,0.2226561 0.23437,0.2226561 0.12891,0 0.23438,-0.09375 0.26954,-0.1523436 0.0352,-0.058594 0.0937,-0.2929689 0.1289,-0.4335939 0.0352,-0.1289061 0.10547,-0.4570312 0.15235,-0.6328125 0.0352,-0.1523437 0.082,-0.3046875 0.11718,-0.4570312 0.082,-0.29296874 0.0937,-0.35156249 0.29297,-0.63281249 0.19922,-0.28125 0.52735,-0.64453125 1.04297,-0.64453125 0.41016,0 0.41016,0.36328125 0.41016,0.4921875 0,0.17578125 -0.0117,0.26953125 -0.11719,0.65625 z m 5.5166,0.4453125 c 0,0.3867188 -0.0703,0.8320313 -0.55078,1.2773438 -0.0234,0.035156 -0.0469,0.058594 -0.0469,0.09375 0,0.046875 0.0586,0.09375 0.0937,0.09375 0.10546,0 0.6914,-0.5625 0.6914,-1.3945313 0,-0.421875 -0.16406,-0.75 -0.48047,-0.75 -0.23437,0 -0.39843,0.1757813 -0.39843,0.3867188 0,0.234375 0.15234,0.4101562 0.39843,0.4101562 0.16407,0 0.28125,-0.1171875 0.29297,-0.1171875 z m 3.14942,-4.2421875 c 0,-0.1054687 -0.082,-0.2578125 -0.28125,-0.2578125 -0.1875,0 -0.38672,0.1757813 -0.38672,0.375 0,0.1171875 0.082,0.2695313 0.26953,0.2695313 0.21094,0 0.39844,-0.1992188 0.39844,-0.3867188 z m -1.42969,3.5390625 c -0.0234,0.09375 -0.0586,0.1757813 -0.0586,0.2929688 0,0.328125 0.28125,0.5976562 0.66797,0.5976562 0.69141,0 0.9961,-0.9609375 0.9961,-1.0664062 0,-0.09375 -0.082,-0.09375 -0.10547,-0.09375 -0.10547,0 -0.10547,0.046875 -0.14063,0.1171875 -0.15234,0.5625 -0.45703,0.84375 -0.73828,0.84375 -0.14062,0 -0.17578,-0.082031 -0.17578,-0.2460938 0,-0.1523437 0.0586,-0.2929687 0.11719,-0.4453125 0.0703,-0.1875 0.14062,-0.375 0.22265,-0.5507812 0.0586,-0.1640625 0.31641,-0.80859379 0.33985,-0.89062504 0.0234,-0.0703125 0.0469,-0.15234375 0.0469,-0.22265625 0,-0.328125 -0.28125,-0.5859375 -0.66797,-0.5859375 -0.6914,0 -1.00781,0.94921875 -1.00781,1.06640625 0,0.0820313 0.0937,0.0820313 0.11719,0.0820313 0.0937,0 0.10547,-0.0351563 0.12891,-0.10546875 0.17578,-0.59765625 0.48046,-0.85546875 0.73828,-0.85546875 0.11718,0 0.17578,0.0585938 0.17578,0.24609375 0,0.1640625 -0.0352,0.26953125 -0.21094,0.703125 z m 0,0"
         style="fill:#000000;fill-opacity:1;fill-rule:nonzero;stroke:none" />
      <path
         id="path26"
         d="m 222.98198,0.49703906 c 0.0234,-0.0703125 0.0234,-0.0820313 0.0234,-0.10546875 0,-0.0820313 -0.0703,-0.0820313 -0.15234,-0.0820313 l -0.60938,0.046875 c -0.0937,0.0117188 -0.0937,0.0117188 -0.1289,0.0351563 -0.0117,0.0234375 -0.0352,0.0820313 -0.0352,0.1171875 0,0.0820313 0.082,0.0820313 0.15234,0.0820313 0.0117,0 0.0937,0 0.17579,0.0117188 0.0937,0.0117188 0.0937,0.0234375 0.0937,0.0585938 0,0.0234375 -0.0352,0.17578125 -0.0586,0.26953125 L 222.20842,1.868133 c -0.0937,-0.1289063 -0.28125,-0.3046875 -0.59766,-0.3046875 -0.70312,0 -1.39453,0.6796875 -1.39453,1.3945313 0,0.5039062 0.375,0.8671875 0.86719,0.8671875 0.41015,0 0.72656,-0.2929688 0.78515,-0.3515625 0.0937,0.2460937 0.36328,0.3515625 0.58594,0.3515625 0.19922,0 0.33984,-0.1171875 0.44531,-0.28125 0.12891,-0.1992188 0.19922,-0.4570313 0.19922,-0.4921875 0,-0.070312 -0.0937,-0.070312 -0.10547,-0.070312 -0.0937,0 -0.0937,0.023437 -0.11718,0.1054687 -0.0937,0.375 -0.22266,0.5625 -0.39844,0.5625 -0.14063,0 -0.19922,-0.1054687 -0.19922,-0.2578125 0,-0.058594 0,-0.1171875 0.0234,-0.1640625 z m -1.07812,2.60156254 c -0.0234,0.082031 -0.0234,0.09375 -0.11719,0.1875 -0.17578,0.2109375 -0.43359,0.3632812 -0.6914,0.3632812 -0.17579,0 -0.4336,-0.09375 -0.4336,-0.5039062 0,-0.234375 0.11719,-0.75 0.29297,-1.0078125 0.19922,-0.28125 0.44531,-0.3984375 0.65625,-0.3984375 0.22266,0 0.43359,0.1289062 0.51563,0.4335937 z m 0,0"
         style="fill:#000000;fill-opacity:1;fill-rule:nonzero;stroke:none" />
      <path
         id="path27"
         d="m 224.50542,-2.5146797 c -0.0586,0 -0.14062,0 -0.14062,0.082031 0,0.035156 0.0234,0.058594 0.0703,0.1054687 0.59766,0.5507813 1.26562,1.48828126 1.26562,3.29296876 0,1.45312504 -0.45703,2.55468754 -1.20703,3.23437504 -0.11718,0.1171875 -0.1289,0.1289062 -0.1289,0.1640625 0,0.035156 0.0234,0.082031 0.0937,0.082031 0.082,0 0.75,-0.4570312 1.20703,-1.3242187 0.30469,-0.5859375 0.5039,-1.3359375 0.5039,-2.15625004 0,-0.984375 -0.29296,-2.50781246 -1.66406,-3.48046876 z m 0,0"
         style="fill:#000000;fill-opacity:1;fill-rule:nonzero;stroke:none" />
      <path
         id="path28"
         d="m 233.77495,-2.2978828 h 2.77735 c 0.14062,0 0.32812,0 0.32812,-0.1992188 0,-0.1992187 -0.1875,-0.1992187 -0.32812,-0.1992187 h -2.77735 v -2.7890625 c 0,-0.1289063 0,-0.328125 -0.19922,-0.328125 -0.19921,0 -0.19921,0.1992187 -0.19921,0.328125 v 2.7890625 h -2.78907 c -0.14062,0 -0.32812,0 -0.32812,0.1992187 0,0.1992188 0.1875,0.1992188 0.32812,0.1992188 h 2.78907 v 2.80078124 c 0,0.12890625 0,0.328125 0.19921,0.328125 0.19922,0 0.19922,-0.19921875 0.19922,-0.328125 z m 0,0"
         style="fill:#000000;fill-opacity:1;fill-rule:nonzero;stroke:none" />
      <path
         id="path29"
         d="m 247.23101,-6.9267891 c 0,-0.023437 -0.0234,-0.09375 -0.10547,-0.09375 -0.0352,0 -0.0469,0.011719 -0.15234,0.1171875 l -0.70313,0.7617188 c -0.082,-0.140625 -0.53906,-0.8789063 -1.65234,-0.8789063 -2.21485,0 -4.45313,2.203125 -4.45313,4.5117188 0,1.58203124 1.10156,2.73046874 2.71875,2.73046874 0.4336,0 0.87891,-0.09375 1.24219,-0.24609375 0.49219,-0.19921875 0.67969,-0.41015625 0.86719,-0.609375 0.082,0.2578125 0.35156,0.62109375 0.44531,0.62109375 0.0469,0 0.0703,-0.0234375 0.0703,-0.03515625 0.0234,-0.0234375 0.11719,-0.3984375 0.16406,-0.609375 l 0.19922,-0.77343749 c 0.0352,-0.1640625 0.082,-0.328125 0.12891,-0.5039063 0.10547,-0.4453125 0.11719,-0.46875 0.67969,-0.4804687 0.0586,0 0.16406,-0.011719 0.16406,-0.1992188 0,-0.070312 -0.0469,-0.1054687 -0.12891,-0.1054687 -0.23437,0 -0.82031,0.023437 -1.04297,0.023437 -0.3164,0 -1.08984,-0.023437 -1.39453,-0.023437 -0.0937,0 -0.21093,0 -0.21093,0.1992187 0,0.1054688 0.082,0.1054688 0.29296,0.1054688 0.0117,0 0.30469,0 0.52735,0.023437 0.25781,0.035156 0.3164,0.058594 0.3164,0.1875 0,0.09375 -0.11718,0.5390625 -0.21093,0.9023437 -0.28125,1.10156254 -1.58203,1.20703129 -1.92188,1.20703129 -0.96094,0 -2.0039,-0.5625 -2.0039,-2.08593749 0,-0.3164063 0.0937,-1.9570313 1.14843,-3.2460938 0.53907,-0.6796875 1.5,-1.2890625 2.48438,-1.2890625 1.01953,0 1.60547,0.7734375 1.60547,1.921875 0,0.3984375 -0.0352,0.4101563 -0.0352,0.5039063 0,0.1054687 0.11719,0.1054687 0.15234,0.1054687 0.12891,0 0.12891,-0.023437 0.17579,-0.1992187 z m 0,0"
         style="fill:#000000;fill-opacity:1;fill-rule:nonzero;stroke:none" />
      <path
         id="path30"
         d="m 252.21441,-8.0400703 c 0.14062,-0.140625 0.28125,-0.2695313 0.43359,-0.375 0.28125,-0.1875 0.53906,-0.1992188 0.63281,-0.2109375 0.0703,-0.011719 0.16407,-0.011719 0.16407,-0.1523438 0,-0.046875 -0.0469,-0.09375 -0.10547,-0.09375 -0.17578,0 -0.38672,0.023437 -0.5625,0.023437 -0.22266,0 -0.51563,-0.023437 -0.72657,-0.023437 -0.0352,0 -0.14062,0 -0.14062,0.1523438 0,0.082031 0.0937,0.09375 0.12891,0.09375 0.19921,0.011719 0.19921,0.09375 0.19921,0.1289062 0,0.070312 -0.0352,0.1171875 -0.0937,0.1875 -0.0352,0.058594 -0.0703,0.1054688 -0.11718,0.1523438 l -1.73438,1.8164062 -0.92578,-2.0390625 c -0.0469,-0.09375 -0.0469,-0.1171875 -0.0469,-0.1171875 0,-0.1289062 0.32812,-0.1289062 0.375,-0.1289062 0.0937,0 0.17578,0 0.17578,-0.1523438 0,-0.011719 0,-0.09375 -0.10547,-0.09375 -0.21094,0 -0.72656,0.023437 -0.9375,0.023437 -0.17578,0 -0.6211,-0.023437 -0.79688,-0.023437 -0.0469,0 -0.1289,0.011719 -0.1289,0.1523438 0,0.09375 0.082,0.09375 0.1875,0.09375 0.39843,0 0.42187,0.058594 0.49218,0.2109375 l 1.08985,2.390625 -0.31641,1.2773437 c -0.0937,0.3515625 -0.0937,0.375 -0.64453,0.3867188 -0.11719,0 -0.21094,0 -0.21094,0.140625 0,0.070312 0.0469,0.1054687 0.11719,0.1054687 0.12891,0 0.29297,-0.023437 0.43359,-0.023437 0.12891,0 0.32813,0 0.45704,0 0.14062,0 0.30468,0 0.44531,0 0.15234,0 0.3164,0.023437 0.46875,0.023437 0.0352,0 0.15234,0 0.15234,-0.1523437 0,-0.09375 -0.082,-0.09375 -0.23437,-0.09375 -0.11719,0 -0.14063,0 -0.26953,-0.023437 -0.12891,-0.011719 -0.15235,-0.023437 -0.15235,-0.09375 0,-0.046875 0.082,-0.375 0.12891,-0.5625 0.0586,-0.2226563 0.21094,-0.8320313 0.22265,-0.8554688 0.0234,-0.1054687 0.0234,-0.1171875 0.0937,-0.1875 z m 0,0"
         style="fill:#000000;fill-opacity:1;fill-rule:nonzero;stroke:none" />
      <path
         id="path31"
         d="m 249.96441,-2.5146797 c -1.32422,0.9257813 -1.67578,2.41406251 -1.67578,3.48046876 0,0.98437504 0.29296,2.50781254 1.67578,3.48046874 0.0586,0 0.14062,0 0.14062,-0.082031 0,-0.046875 -0.0234,-0.058594 -0.0703,-0.1054688 -0.92578,-0.8320312 -1.26563,-2.015625 -1.26563,-3.29296874 0,-1.875 0.71485,-2.80078126 1.28907,-3.31640626 0.0234,-0.023437 0.0469,-0.046875 0.0469,-0.082031 0,-0.082031 -0.082,-0.082031 -0.14062,-0.082031 z m 0,0"
         style="fill:#000000;fill-opacity:1;fill-rule:nonzero;stroke:none" />
      <path
         id="path32"
         d="m 253.62945,2.1493828 c -0.0352,0.140625 -0.0937,0.375 -0.0937,0.4101563 0,0.1523437 0.1289,0.2226562 0.23437,0.2226562 0.12891,0 0.23438,-0.09375 0.26953,-0.1523437 0.0352,-0.058594 0.0937,-0.2929688 0.12891,-0.4335938 0.0352,-0.1289062 0.11719,-0.4570312 0.15234,-0.6328125 0.0469,-0.1523437 0.082,-0.3046875 0.11719,-0.4570312 0.082,-0.30468754 0.082,-0.31640629 0.22266,-0.53906254 0.22265,-0.33984375 0.5625,-0.73828125 1.11328,-0.73828125 0.38672,0 0.41015,0.328125 0.41015,0.4921875 0,0.421875 -0.30468,1.19531249 -0.41015,1.48828129 -0.082,0.1875 -0.10547,0.2578125 -0.10547,0.375 0,0.3632812 0.30469,0.5976562 0.65625,0.5976562 0.70312,0 1.00781,-0.9609375 1.00781,-1.0664062 0,-0.09375 -0.0937,-0.09375 -0.10547,-0.09375 -0.10547,0 -0.10547,0.046875 -0.14062,0.1171875 -0.15235,0.5625 -0.45703,0.84375 -0.73828,0.84375 -0.14063,0 -0.17579,-0.09375 -0.17579,-0.2460938 0,-0.1523437 0.0352,-0.2460937 0.16407,-0.5625 0.082,-0.2109375 0.375,-0.94921874 0.375,-1.34765624 0,-0.10546875 0,-0.3984375 -0.25782,-0.59765625 -0.1289,-0.09375 -0.32812,-0.1875 -0.65625,-0.1875 -0.62109,0 -1.00781,0.41015625 -1.23046,0.703125 -0.0586,-0.59765625 -0.55079,-0.703125 -0.90235,-0.703125 -0.58594,0 -0.97265,0.3515625 -1.18359,0.6328125 -0.0469,-0.48046875 -0.45703,-0.6328125 -0.75,-0.6328125 -0.29297,0 -0.45703,0.2109375 -0.55078,0.375 -0.15235,0.2578125 -0.2461,0.65625 -0.2461,0.69140625 0,0.0820313 0.0937,0.0820313 0.11719,0.0820313 0.0937,0 0.10547,-0.0117188 0.15234,-0.19921875 0.10547,-0.421875 0.23438,-0.76171875 0.51563,-0.76171875 0.17578,0 0.22266,0.15234375 0.22266,0.33984375 0,0.140625 -0.0586,0.3984375 -0.10547,0.5859375 -0.0469,0.1875 -0.11719,0.46874999 -0.15235,0.62109369 l -0.22265,0.9023439 c -0.0352,0.082031 -0.0703,0.2578125 -0.0703,0.28125 0,0.1523436 0.11719,0.2226561 0.23438,0.2226561 0.12891,0 0.23437,-0.09375 0.26953,-0.1523436 0.0352,-0.058594 0.0937,-0.2929689 0.12891,-0.4335939 0.0352,-0.1289061 0.10547,-0.4570312 0.15234,-0.6328125 0.0352,-0.1523437 0.082,-0.3046875 0.11719,-0.4570312 0.082,-0.29296874 0.0937,-0.35156249 0.29297,-0.63281249 0.19922,-0.28125 0.52734,-0.64453125 1.04297,-0.64453125 0.41015,0 0.41015,0.36328125 0.41015,0.4921875 0,0.17578125 -0.0117,0.26953125 -0.11719,0.65625 z m 5.5166,0.4453125 c 0,0.3867188 -0.0703,0.8320313 -0.55078,1.2773438 -0.0234,0.035156 -0.0469,0.058594 -0.0469,0.09375 0,0.046875 0.0586,0.09375 0.0937,0.09375 0.10547,0 0.69141,-0.5625 0.69141,-1.3945313 0,-0.421875 -0.16407,-0.75 -0.48047,-0.75 -0.23438,0 -0.39844,0.1757813 -0.39844,0.3867188 0,0.234375 0.15234,0.4101562 0.39844,0.4101562 0.16406,0 0.28125,-0.1171875 0.29297,-0.1171875 z m 3.14941,-4.2421875 c 0,-0.1054687 -0.082,-0.2578125 -0.28125,-0.2578125 -0.1875,0 -0.38672,0.1757813 -0.38672,0.375 0,0.1171875 0.082,0.2695313 0.26953,0.2695313 0.21094,0 0.39844,-0.1992188 0.39844,-0.3867188 z m -1.42969,3.5390625 c -0.0234,0.09375 -0.0586,0.1757813 -0.0586,0.2929688 0,0.328125 0.28125,0.5976562 0.66797,0.5976562 0.6914,0 0.99609,-0.9609375 0.99609,-1.0664062 0,-0.09375 -0.082,-0.09375 -0.10547,-0.09375 -0.10547,0 -0.10547,0.046875 -0.14062,0.1171875 -0.15235,0.5625 -0.45703,0.84375 -0.73828,0.84375 -0.14063,0 -0.17578,-0.082031 -0.17578,-0.2460938 0,-0.1523437 0.0586,-0.2929687 0.11718,-0.4453125 0.0703,-0.1875 0.14063,-0.375 0.22266,-0.5507812 0.0586,-0.1640625 0.31641,-0.80859379 0.33984,-0.89062504 0.0234,-0.0703125 0.0469,-0.15234375 0.0469,-0.22265625 0,-0.328125 -0.28125,-0.5859375 -0.66797,-0.5859375 -0.69141,0 -1.00781,0.94921875 -1.00781,1.06640625 0,0.0820313 0.0937,0.0820313 0.11718,0.0820313 0.0937,0 0.10547,-0.0351563 0.12891,-0.10546875 0.17578,-0.59765625 0.48047,-0.85546875 0.73828,-0.85546875 0.11719,0 0.17578,0.0585938 0.17578,0.24609375 0,0.1640625 -0.0351,0.26953125 -0.21093,0.703125 z m 0,0"
         style="fill:#000000;fill-opacity:1;fill-rule:nonzero;stroke:none" />
      <path
         id="path33"
         d="m 266.15386,0.49703906 c 0.0234,-0.0703125 0.0234,-0.0820313 0.0234,-0.10546875 0,-0.0820313 -0.0703,-0.0820313 -0.15235,-0.0820313 l -0.60937,0.046875 c -0.0937,0.0117188 -0.0937,0.0117188 -0.12891,0.0351563 -0.0117,0.0234375 -0.0351,0.0820313 -0.0351,0.1171875 0,0.0820313 0.082,0.0820313 0.15234,0.0820313 0.0117,0 0.0937,0 0.17578,0.0117188 0.0937,0.0117188 0.0937,0.0234375 0.0937,0.0585938 0,0.0234375 -0.0352,0.17578125 -0.0586,0.26953125 L 265.38037,1.868133 c -0.0937,-0.1289063 -0.28125,-0.3046875 -0.59765,-0.3046875 -0.70313,0 -1.39454,0.6796875 -1.39454,1.3945313 0,0.5039062 0.375,0.8671875 0.86719,0.8671875 0.41016,0 0.72656,-0.2929688 0.78516,-0.3515625 0.0937,0.2460937 0.36328,0.3515625 0.58594,0.3515625 0.19921,0 0.33984,-0.1171875 0.44531,-0.28125 0.1289,-0.1992188 0.19922,-0.4570313 0.19922,-0.4921875 0,-0.070312 -0.0937,-0.070312 -0.10547,-0.070312 -0.0937,0 -0.0937,0.023437 -0.11719,0.1054687 -0.0937,0.375 -0.22266,0.5625 -0.39844,0.5625 -0.14062,0 -0.19922,-0.1054687 -0.19922,-0.2578125 0,-0.058594 0,-0.1171875 0.0234,-0.1640625 z m -1.07813,2.60156254 c -0.0234,0.082031 -0.0234,0.09375 -0.11718,0.1875 -0.17578,0.2109375 -0.4336,0.3632812 -0.69141,0.3632812 -0.17578,0 -0.43359,-0.09375 -0.43359,-0.5039062 0,-0.234375 0.11718,-0.75 0.29297,-1.0078125 0.19921,-0.28125 0.44531,-0.3984375 0.65625,-0.3984375 0.22265,0 0.43359,0.1289062 0.51562,0.4335937 z m 0,0"
         style="fill:#000000;fill-opacity:1;fill-rule:nonzero;stroke:none" />
      <path
         id="path34"
         d="m 267.67437,-2.5146797 c -0.0586,0 -0.14063,0 -0.14063,0.082031 0,0.035156 0.0234,0.058594 0.0703,0.1054687 0.59766,0.5507813 1.26563,1.48828126 1.26563,3.29296876 0,1.45312504 -0.45703,2.55468754 -1.20703,3.23437504 -0.11719,0.1171875 -0.12891,0.1289062 -0.12891,0.1640625 0,0.035156 0.0234,0.082031 0.0937,0.082031 0.082,0 0.75,-0.4570312 1.20703,-1.3242187 0.30469,-0.5859375 0.50391,-1.3359375 0.50391,-2.15625004 0,-0.984375 -0.29297,-2.50781246 -1.66406,-3.48046876 z m 0,0"
         style="fill:#000000;fill-opacity:1;fill-rule:nonzero;stroke:none" />
      <path
         id="path35"
         d="m 274.34527,0.33297656 c 0,-0.87890625 0,-1.20703125 0.52734,-1.82812496 0.10547,-0.1171875 0.41016,-0.4570313 1.08984,-0.7734375 0.12891,-0.058594 0.14063,-0.070312 0.14063,-0.2226563 0,-0.1054687 0,-0.1289062 -0.0234,-0.1640625 -0.0117,-0.011719 -0.0117,-0.011719 -0.1875,-0.09375 -1.04297,-0.4921875 -1.54687,-1.3242187 -1.54687,-1.96875 v -4.1367187 c 0,-0.46875 0,-1.0664063 -0.50391,-1.5820316 -0.22266,-0.222656 -0.43359,-0.433593 -0.90234,-0.679687 -0.10547,-0.04687 -0.63282,-0.339844 -0.89063,-0.339844 -0.1875,0 -0.21094,0.01172 -0.21094,0.199219 0,0.128906 0,0.164062 0.0937,0.210937 0.38672,0.152344 1.46485,0.609375 1.64063,1.6289066 0.0234,0.1171875 0.0234,0.4570312 0.0234,0.6796875 v 3.4921875 c 0,0.6328125 0,0.7734375 0.0937,1.0546875 0.3164,0.9023437 1.18359,1.4296875 1.85156,1.6875 -1.14844,0.4921875 -1.72266,1.1601562 -1.89844,1.85156246 -0.0352,0.1171875 -0.0469,0.3046875 -0.0469,0.3515625 V 4.1884453 c 0,0.796875 -0.63282,1.4296875 -1.59375,1.8515625 -0.15235,0.070312 -0.16407,0.070312 -0.16407,0.2226563 0,0.1875 0.0234,0.1992187 0.21094,0.1992187 0.26953,0 1.00781,-0.3515625 1.42969,-0.6796875 0.32812,-0.2695312 0.86719,-0.8203125 0.86719,-1.5 0.0117,-0.796875 0,-1.6054687 0,-2.4023437 z m 0,0"
         style="fill:#000000;fill-opacity:1;fill-rule:nonzero;stroke:none" />
    </g>
  </g>
</svg>
