<?xml version="1.0" encoding="UTF-8" standalone="no"?>
<!-- Created with Inkscape (http://www.inkscape.org/) -->

<svg
   version="1.1"
   id="svg1"
   width="287.80469"
   height="30.035156"
   viewBox="0 0 287.80469 30.035156"
   sodipodi:docname="Formulas.pdf"
   xmlns:inkscape="http://www.inkscape.org/namespaces/inkscape"
   xmlns:sodipodi="http://sodipodi.sourceforge.net/DTD/sodipodi-0.dtd"
   xmlns="http://www.w3.org/2000/svg"
   xmlns:svg="http://www.w3.org/2000/svg">
  <defs
     id="defs1" />
  <sodipodi:namedview
     id="namedview1"
     pagecolor="#ffffff"
     bordercolor="#000000"
     borderopacity="0.25"
     inkscape:showpageshadow="2"
     inkscape:pageopacity="0.0"
     inkscape:pagecheckerboard="0"
     inkscape:deskcolor="#d1d1d1" />
  <g
     id="g1"
     inkscape:groupmode="layer"
     inkscape:label="1"
     transform="translate(-383.83984,-112.60547)">
    <g
       id="g2"
       aria-label="∑&#10;x∈X&#10;R&#10;P&#10;X&#10;(m,i,α),x&#10;=1,∀(m,i)∈C,∀α∈{0,1,2,3,4}"
       transform="matrix(1.3333333,0,0,1.3333333,388.65067,112.604)">
      <path
         id="path2"
         d="m 12.610633,13.946414 1.207031,-3.1875 H 13.57157 c -0.386718,1.03125 -1.453125,1.710938 -2.589843,2.015625 -0.210938,0.04687 -1.1835942,0.304688 -3.1054692,0.304688 h -6 l 5.0625,-5.9414067 c 0.070312,-0.082031 0.09375,-0.1171875 0.09375,-0.1640625 0,-0.023437 0,-0.046875 -0.070312,-0.1523437 L 2.3215703,0.48157031 h 5.4609375 c 1.3359375,0 2.2382812,0.140625 2.3320312,0.15234375 0.539063,0.0820313 1.40625,0.2578125 2.191406,0.75000004 0.246094,0.1640625 0.925782,0.609375 1.265625,1.4179687 h 0.246094 L 12.610633,0.00110156 H 0.83328906 c -0.22265625,0 -0.234375,0.01171875 -0.26953125,0.0703125 0,0.03515625 0,0.22265625 0,0.328125 L 5.8254766,7.6065703 0.66922656,13.653445 c -0.10546875,0.128907 -0.10546875,0.175782 -0.10546875,0.1875 0,0.105469 0.09375,0.105469 0.26953125,0.105469 z m 0,0"
         style="fill:#000000;fill-opacity:1;fill-rule:nonzero;stroke:none" />
      <path
         id="path3"
         d="m -2.2135859,21.261844 c -0.070312,0.234375 -0.2929688,0.609375 -0.65625,0.609375 -0.023437,0 -0.2226563,0 -0.375,-0.09375 0.28125,-0.09375 0.3046875,-0.339844 0.3046875,-0.386719 0,-0.152344 -0.1171875,-0.257812 -0.28125,-0.257812 -0.1875,0 -0.3867188,0.164062 -0.3867188,0.433593 0,0.339844 0.3867188,0.503907 0.7265625,0.503907 0.3164063,0 0.609375,-0.199219 0.7851563,-0.492188 0.1640625,0.363281 0.5507812,0.492188 0.8203125,0.492188 0.80859371,0 1.23046871,-0.867188 1.23046871,-1.066407 0,-0.09375 -0.09375,-0.09375 -0.10546875,-0.09375 -0.10546875,0 -0.10546875,0.03516 -0.140625,0.117188 -0.140625,0.480469 -0.5625,0.84375 -0.94921876,0.84375 -0.28125,0 -0.421875,-0.1875 -0.421875,-0.445313 0,-0.1875 0.1640625,-0.820312 0.3632813,-1.59375 0.1289062,-0.539062 0.44531246,-0.714843 0.67968746,-0.714843 0.0117188,0 0.22265625,0 0.375,0.105468 -0.22265625,0.05859 -0.3046875,0.257813 -0.3046875,0.375 0,0.152344 0.1171875,0.257813 0.28125,0.257813 0.15234375,0 0.38671875,-0.128906 0.38671875,-0.421875 0,-0.386719 -0.4453125,-0.503906 -0.7265625,-0.503906 -0.3515625,0 -0.63281251,0.222656 -0.78515621,0.492187 -0.1171875,-0.292969 -0.4453125,-0.492187 -0.8320313,-0.492187 -0.7851562,0 -1.2304687,0.855468 -1.2304687,1.066406 0,0.08203 0.1054687,0.08203 0.1171875,0.08203 0.09375,0 0.1054687,-0.02344 0.140625,-0.117187 0.1757812,-0.539063 0.609375,-0.84375 0.9492187,-0.84375 0.234375,0 0.421875,0.128906 0.421875,0.46875 0,0.128906 -0.082031,0.480468 -0.1523437,0.714843 z m 0,0"
         style="fill:#000000;fill-opacity:1;fill-rule:nonzero;stroke:none" />
      <path
         id="path4"
         d="m 4.8938359,20.429813 c 0.1171875,0 0.28125,0 0.28125,-0.175782 0,-0.175781 -0.1523437,-0.175781 -0.28125,-0.175781 H 1.6711797 c 0.1054687,-1.007812 0.9492187,-1.757812 2.0390625,-1.757812 h 1.1835937 c 0.1171875,0 0.28125,0 0.28125,-0.164063 0,-0.175781 -0.1523437,-0.175781 -0.28125,-0.175781 h -1.21875 c -1.2890625,0 -2.3554687,1.019531 -2.3554687,2.273437 0,1.277344 1.078125,2.273438 2.3554687,2.273438 h 1.21875 c 0.1171875,0 0.28125,0 0.28125,-0.164063 0,-0.175781 -0.1523437,-0.175781 -0.28125,-0.175781 H 3.7102422 c -1.0898438,0 -1.9335938,-0.75 -2.0390625,-1.757812 z m 0,0"
         style="fill:#000000;fill-opacity:1;fill-rule:nonzero;stroke:none" />
      <path
         id="path5"
         d="M 9.8157109,19.339969 10.471961,18.672 c 0.902344,-0.878906 1.171875,-1.148437 1.792969,-1.183594 0.09375,-0.01172 0.175781,-0.01172 0.175781,-0.140625 0,-0.09375 -0.07031,-0.105468 -0.09375,-0.105468 -0.199219,0 -0.445313,0.02344 -0.65625,0.02344 -0.1875,0 -0.632813,-0.02344 -0.808594,-0.02344 -0.05859,0 -0.140625,0.01172 -0.140625,0.152343 0,0 0,0.08203 0.105469,0.09375 0.05859,0.01172 0.234375,0.02344 0.234375,0.175782 0,0.105468 -0.105469,0.210937 -0.175781,0.28125 -0.05859,0.04687 -0.9375003,0.914062 -1.1953128,1.183593 l -0.703125,-1.371093 c -0.011719,-0.02344 -0.035156,-0.07031 -0.035156,-0.09375 0,-0.04687 0.1289063,-0.164063 0.3632813,-0.175782 0.058594,0 0.1523437,-0.01172 0.1523437,-0.152343 0,-0.01172 -0.011719,-0.09375 -0.1171875,-0.09375 -0.1523437,0 -0.328125,0.01172 -0.46875,0.01172 -0.1523437,0 -0.3046875,0.01172 -0.4570312,0.01172 -0.1171875,0 -0.28125,0 -0.4101563,-0.01172 -0.1171875,0 -0.2695312,-0.01172 -0.375,-0.01172 -0.035156,0 -0.1523437,0 -0.1523437,0.152343 0,0.09375 0.09375,0.09375 0.2109375,0.09375 0.3984375,0 0.4335937,0.07031 0.5039062,0.210938 l 0.9726563,1.921875 -0.3867188,0.386719 c -0.1289062,0.128906 -0.4570312,0.445312 -0.5859375,0.574218 -0.84375,0.84375 -1.1367187,1.136719 -1.7578125,1.171875 -0.1054687,0 -0.1757812,0 -0.1757812,0.152344 0,0.02344 0.023437,0.09375 0.09375,0.09375 0.1992187,0 0.4453125,-0.02344 0.6445312,-0.02344 0.1289063,0 0.2929688,0 0.421875,0 0.1171875,0.01172 0.2695313,0.02344 0.3867188,0.02344 0.035156,0 0.1523437,0 0.1523437,-0.140625 0,-0.105469 -0.082031,-0.105469 -0.1289062,-0.105469 -0.070312,-0.01172 -0.2109375,-0.03516 -0.2109375,-0.175781 0,-0.117187 0.09375,-0.210937 0.2460937,-0.363281 l 1.40625,-1.382813 0.8437498,1.652344 c 0.03516,0.07031 0.04687,0.08203 0.04687,0.09375 0,0.03516 -0.128906,0.152344 -0.3749998,0.175781 -0.058594,0 -0.1523437,0 -0.1523437,0.152344 0,0 0.011719,0.09375 0.1171875,0.09375 0.1523437,0 0.328125,-0.02344 0.46875,-0.02344 0.152343,0 0.304687,0 0.457031,0 0.117187,0 0.28125,0 0.410156,0 0.117188,0.01172 0.269531,0.02344 0.375,0.02344 0.03516,0 0.152344,0 0.152344,-0.152344 0,-0.09375 -0.09375,-0.09375 -0.210938,-0.09375 -0.398437,0 -0.433593,-0.08203 -0.492187,-0.199218 z m 0,0"
         style="fill:#000000;fill-opacity:1;fill-rule:nonzero;stroke:none" />
      <path
         id="path6"
         d="m 17.676062,19.539188 c 0,-0.09375 -0.04687,-0.09375 -0.105468,-0.09375 -0.07031,0 -0.09375,0.02344 -0.105469,0.09375 -0.01172,0.28125 -0.199219,0.410156 -0.363281,0.410156 -0.339844,0 -0.386719,-0.375 -0.433594,-0.691406 -0.01172,-0.140625 -0.03516,-0.339844 -0.04687,-0.398438 -0.08203,-0.292969 -0.339844,-0.46875 -0.632812,-0.550781 0.316406,-0.08203 0.925781,-0.328125 0.925781,-0.785156 0,-0.515625 -0.773438,-0.914063 -1.59375,-0.914063 H 13.43388 v 0.210938 h 0.152344 c 0.398437,0 0.398437,0.05859 0.398437,0.210937 v 2.554688 c 0,0.152343 0,0.199218 -0.398437,0.199218 H 13.43388 v 0.222657 l 0.808594,-0.02344 0.808594,0.02344 v -0.222657 h -0.152344 c -0.398438,0 -0.398438,-0.04687 -0.398438,-0.199218 V 18.39075 H 15.262 c 0.269531,0 0.503906,0.07031 0.65625,0.199219 0.1875,0.152344 0.1875,0.269531 0.1875,0.5625 0,0.386719 0,0.574219 0.257812,0.773437 0.199219,0.152344 0.492188,0.1875 0.703125,0.1875 0.480469,0 0.609375,-0.410156 0.609375,-0.574218 z m -1.347656,-2.015625 c 0,0.574218 -0.5625,0.703125 -1.066406,0.703125 h -0.761719 v -1.207032 c 0,-0.152343 0.01172,-0.175781 0.152344,-0.199218 h 0.351563 c 0.5625,0 1.324218,0 1.324218,0.703125 z m 0,0"
         style="fill:#000000;fill-opacity:1;fill-rule:nonzero;stroke:none" />
      <path
         id="path7"
         d="m 23.022742,6.3116484 h 1.6875 c 1.417969,0 2.800781,-1.03125 2.800781,-2.1445312 0,-0.7734375 -0.65625,-1.5117188 -1.96875,-1.5117188 h -3.222656 c -0.1875,0 -0.292969,0 -0.292969,0.1992188 0,0.1171875 0.08203,0.1171875 0.28125,0.1171875 0.128907,0 0.316407,0.011719 0.433594,0.011719 0.152344,0.023437 0.210938,0.058594 0.210938,0.1640625 0,0.035156 0,0.070312 -0.03516,0.1875 L 21.581333,8.690555 c -0.09375,0.3867187 -0.117188,0.46875 -0.902344,0.46875 -0.175781,0 -0.28125,0 -0.28125,0.1875 0,0.1171875 0.117188,0.1171875 0.152344,0.1171875 0.28125,0 0.984375,-0.035156 1.265625,-0.035156 0.210937,0 0.421875,0.011719 0.632812,0.011719 0.222657,0 0.445313,0.023437 0.644532,0.023437 0.07031,0 0.199218,0 0.199218,-0.1992188 0,-0.1054687 -0.08203,-0.1054687 -0.269531,-0.1054687 -0.375,0 -0.65625,0 -0.65625,-0.1875 0,-0.058594 0.02344,-0.1054688 0.03516,-0.1640625 z m 0.714844,-2.9648437 c 0.08203,-0.3515625 0.105469,-0.375 0.539062,-0.375 h 0.949219 c 0.832031,0 1.359375,0.2695312 1.359375,0.9492187 0,0.3984375 -0.199219,1.2539063 -0.585937,1.6054688 -0.503907,0.4453125 -1.101563,0.5273437 -1.535157,0.5273437 h -1.40625 z m 0,0"
         style="fill:#000000;fill-opacity:1;fill-rule:nonzero;stroke:none" />
      <path
         id="path8"
         d="m 31.656531,2.6905547 0.65625,-0.6679688 c 0.902344,-0.8789062 1.171875,-1.14843746 1.792969,-1.18359371 0.09375,-0.0117188 0.175781,-0.0117188 0.175781,-0.140625 0,-0.09375 -0.07031,-0.10546875 -0.09375,-0.10546875 -0.199219,0 -0.445312,0.0234375 -0.65625,0.0234375 -0.1875,0 -0.632812,-0.0234375 -0.808594,-0.0234375 -0.05859,0 -0.140625,0.0117188 -0.140625,0.15234375 0,0 0,0.0820313 0.105469,0.09375 0.05859,0.0117188 0.234375,0.0234375 0.234375,0.17578121 0,0.1054688 -0.105469,0.2109375 -0.175781,0.28125 -0.05859,0.046875 -0.9375,0.9140625 -1.195313,1.1835938 L 30.847937,1.1085234 c -0.01172,-0.023437 -0.03516,-0.070312 -0.03516,-0.09375 0,-0.046875 0.128906,-0.16406246 0.363281,-0.17578121 0.05859,0 0.152344,-0.0117188 0.152344,-0.15234375 0,-0.0117188 -0.01172,-0.09375 -0.117187,-0.09375 -0.152344,0 -0.328125,0.0117188 -0.46875,0.0117188 -0.152344,0 -0.304688,0.0117188 -0.457032,0.0117188 -0.117187,0 -0.28125,0 -0.410156,-0.0117188 -0.117187,0 -0.269531,-0.0117188 -0.375,-0.0117188 -0.03516,0 -0.152344,0 -0.152344,0.15234375 0,0.09375 0.09375,0.09375 0.210938,0.09375 0.398437,0 0.433594,0.0703125 0.503906,0.21093751 l 0.972656,1.921875 -0.386718,0.3867187 c -0.128907,0.1289063 -0.457032,0.4453125 -0.585938,0.5742188 -0.84375,0.84375 -1.136719,1.1367187 -1.757812,1.171875 -0.105469,0 -0.175782,0 -0.175782,0.1523437 0,0.023437 0.02344,0.09375 0.09375,0.09375 0.199219,0 0.445313,-0.023437 0.644532,-0.023437 0.128906,0 0.292968,0 0.421875,0 0.117187,0.011719 0.269531,0.023437 0.386718,0.023437 0.03516,0 0.152344,0 0.152344,-0.140625 0,-0.1054687 -0.08203,-0.1054687 -0.128906,-0.1054687 -0.07031,-0.011719 -0.210938,-0.035156 -0.210938,-0.1757813 0,-0.1171875 0.09375,-0.2109375 0.246094,-0.3632812 l 1.40625,-1.3828125 0.84375,1.6523437 c 0.03516,0.070312 0.04687,0.082031 0.04687,0.09375 0,0.035156 -0.128906,0.1523438 -0.375,0.1757813 -0.05859,0 -0.152344,0 -0.152344,0.1523437 0,0 0.01172,0.09375 0.117188,0.09375 0.152344,0 0.328125,-0.023437 0.46875,-0.023437 0.152344,0 0.304687,0 0.457031,0 0.117188,0 0.28125,0 0.410156,0 0.117188,0.011719 0.269532,0.023437 0.375,0.023437 0.03516,0 0.152344,0 0.152344,-0.1523437 0,-0.09375 -0.09375,-0.09375 -0.210937,-0.09375 -0.398438,0 -0.433594,-0.082031 -0.492188,-0.1992188 z m 0,0"
         style="fill:#000000;fill-opacity:1;fill-rule:nonzero;stroke:none" />
      <path
         id="path9"
         d="m 28.867469,6.9503203 c -1.324219,0.9257813 -1.675782,2.4140625 -1.675782,3.4804687 0,0.984375 0.292969,2.507813 1.675782,3.480469 0.05859,0 0.140625,0 0.140625,-0.08203 0,-0.04687 -0.02344,-0.05859 -0.07031,-0.105469 -0.925781,-0.832031 -1.265625,-2.015625 -1.265625,-3.292969 0,-1.8749999 0.714844,-2.8007812 1.289063,-3.3164062 0.02344,-0.023437 0.04687,-0.046875 0.04687,-0.082031 0,-0.082031 -0.08203,-0.082031 -0.140625,-0.082031 z m 0,0"
         style="fill:#000000;fill-opacity:1;fill-rule:nonzero;stroke:none" />
      <path
         id="path10"
         d="m 32.532508,11.614383 c -0.03516,0.140625 -0.09375,0.375 -0.09375,0.410156 0,0.152344 0.128906,0.222656 0.234375,0.222656 0.128906,0 0.234375,-0.09375 0.269531,-0.152343 0.03516,-0.05859 0.09375,-0.292969 0.128906,-0.433594 0.03516,-0.128906 0.117188,-0.457031 0.152344,-0.632813 0.04687,-0.152343 0.08203,-0.304687 0.117188,-0.457031 0.08203,-0.304687 0.08203,-0.316406 0.222656,-0.539062 0.222656,-0.3398442 0.5625,-0.7382817 1.113281,-0.7382817 0.386719,0 0.410156,0.328125 0.410156,0.4921875 0,0.4218752 -0.304687,1.1953122 -0.410156,1.4882812 -0.08203,0.1875 -0.105469,0.257813 -0.105469,0.375 0,0.363281 0.304688,0.597656 0.65625,0.597656 0.703125,0 1.007813,-0.960937 1.007813,-1.066406 0,-0.09375 -0.09375,-0.09375 -0.105469,-0.09375 -0.105469,0 -0.105469,0.04687 -0.140625,0.117188 -0.152344,0.5625 -0.457031,0.84375 -0.738281,0.84375 -0.140625,0 -0.175781,-0.09375 -0.175781,-0.246094 0,-0.152344 0.03516,-0.246094 0.164062,-0.5625 0.08203,-0.210938 0.375,-0.949219 0.375,-1.3476564 0,-0.1054688 0,-0.3984375 -0.257812,-0.5976563 -0.128907,-0.09375 -0.328125,-0.1875 -0.65625,-0.1875 -0.621094,0 -1.007813,0.4101563 -1.230469,0.703125 -0.05859,-0.5976562 -0.550781,-0.703125 -0.902344,-0.703125 -0.585937,0 -0.972656,0.3515625 -1.183594,0.6328125 -0.04687,-0.4804687 -0.457031,-0.6328125 -0.75,-0.6328125 -0.292968,0 -0.457031,0.2109375 -0.550781,0.375 -0.152344,0.2578125 -0.246094,0.6562497 -0.246094,0.6914067 0,0.08203 0.09375,0.08203 0.117188,0.08203 0.09375,0 0.105469,-0.01172 0.152344,-0.199219 0.105468,-0.4218749 0.234375,-0.7617187 0.515625,-0.7617187 0.175781,0 0.222656,0.1523438 0.222656,0.3398438 0,0.140625 -0.05859,0.3984379 -0.105469,0.5859379 -0.04687,0.1875 -0.117187,0.46875 -0.152344,0.621093 l -0.222656,0.902344 c -0.03516,0.08203 -0.07031,0.257813 -0.07031,0.28125 0,0.152344 0.117187,0.222656 0.234375,0.222656 0.128906,0 0.234375,-0.09375 0.269531,-0.152343 0.03516,-0.05859 0.09375,-0.292969 0.128906,-0.433594 0.03516,-0.128906 0.105469,-0.457031 0.152344,-0.632813 0.03516,-0.152343 0.08203,-0.304687 0.117187,-0.457031 0.08203,-0.292969 0.09375,-0.351562 0.292969,-0.6328124 0.199219,-0.28125 0.527344,-0.6445313 1.042969,-0.6445313 0.410156,0 0.410156,0.3632813 0.410156,0.4921875 0,0.1757813 -0.01172,0.2695312 -0.117187,0.6562502 z m 5.516601,0.445312 c 0,0.386719 -0.07031,0.832032 -0.550781,1.277344 -0.02344,0.03516 -0.04687,0.05859 -0.04687,0.09375 0,0.04687 0.05859,0.09375 0.09375,0.09375 0.105469,0 0.691406,-0.5625 0.691406,-1.394531 0,-0.421875 -0.164062,-0.75 -0.480468,-0.75 -0.234375,0 -0.398438,0.175781 -0.398438,0.386719 0,0.234375 0.152344,0.410156 0.398438,0.410156 0.164062,0 0.28125,-0.117188 0.292968,-0.117188 z m 3.149414,-4.2421872 c 0,-0.1054687 -0.08203,-0.2578125 -0.28125,-0.2578125 -0.1875,0 -0.386718,0.1757813 -0.386718,0.375 0,0.1171875 0.08203,0.2695313 0.269531,0.2695313 0.210937,0 0.398437,-0.1992188 0.398437,-0.3867188 z M 39.768836,11.35657 c -0.02344,0.09375 -0.05859,0.175782 -0.05859,0.292969 0,0.328125 0.28125,0.597656 0.667969,0.597656 0.691406,0 0.996094,-0.960937 0.996094,-1.066406 0,-0.09375 -0.08203,-0.09375 -0.105469,-0.09375 -0.105469,0 -0.105469,0.04687 -0.140625,0.117188 -0.152344,0.5625 -0.457031,0.84375 -0.738281,0.84375 -0.140625,0 -0.175782,-0.08203 -0.175782,-0.246094 0,-0.152344 0.05859,-0.292969 0.117188,-0.445313 0.07031,-0.1875 0.140625,-0.375 0.222656,-0.550781 0.05859,-0.164062 0.316406,-0.8085937 0.339844,-0.8906249 0.02344,-0.070312 0.04687,-0.1523438 0.04687,-0.2226563 0,-0.328125 -0.28125,-0.5859375 -0.667969,-0.5859375 -0.691406,0 -1.007812,0.9492187 -1.007812,1.0664067 0,0.08203 0.09375,0.08203 0.117187,0.08203 0.09375,0 0.105469,-0.03516 0.128906,-0.105469 0.175782,-0.5976562 0.480469,-0.8554687 0.738282,-0.8554687 0.117187,0 0.175781,0.058594 0.175781,0.2460938 0,0.1640625 -0.03516,0.2695312 -0.210938,0.7031249 z m 3.462891,0.703125 c 0,0.386719 -0.07031,0.832032 -0.550782,1.277344 -0.02344,0.03516 -0.04687,0.05859 -0.04687,0.09375 0,0.04687 0.05859,0.09375 0.09375,0.09375 0.105469,0 0.691407,-0.5625 0.691407,-1.394531 0,-0.421875 -0.164063,-0.75 -0.480469,-0.75 -0.234375,0 -0.398438,0.175781 -0.398438,0.386719 0,0.234375 0.152344,0.410156 0.398438,0.410156 0.164062,0 0.28125,-0.117188 0.292969,-0.117188 z m 4.696289,-0.867187 c 0.644531,-0.65625 0.902343,-1.5937502 0.902343,-1.6640627 0,-0.09375 -0.08203,-0.09375 -0.117187,-0.09375 -0.09375,0 -0.09375,0.023437 -0.140625,0.1757813 -0.128906,0.4570314 -0.363281,0.8906254 -0.65625,1.2656254 0,-0.105469 -0.02344,-0.574219 -0.03516,-0.632813 -0.105469,-0.6914062 -0.621094,-1.1367187 -1.324219,-1.1367187 -1.019531,0 -2.003906,0.9492187 -2.003906,1.9218747 0,0.644532 0.46875,1.21875 1.277343,1.21875 0.644532,0 1.21875,-0.292968 1.605469,-0.597656 0.164063,0.515625 0.515625,0.597656 0.726563,0.597656 0.410156,0 0.65625,-0.339843 0.65625,-0.492187 0,-0.08203 -0.08203,-0.08203 -0.117188,-0.08203 -0.09375,0 -0.105469,0.03516 -0.117187,0.07031 -0.105469,0.269531 -0.316407,0.304688 -0.398438,0.304688 -0.09375,0 -0.222656,0 -0.257812,-0.855469 z m -0.539063,0.234375 c -0.679687,0.5625 -1.277344,0.621094 -1.535156,0.621094 -0.46875,0 -0.726563,-0.304688 -0.726563,-0.773438 0,-0.199219 0.105469,-0.960937 0.46875,-1.4414062 0.316407,-0.421875 0.714844,-0.5390625 0.960938,-0.5390625 0.550781,0 0.714844,0.5390625 0.773437,0.9726567 0.03516,0.304687 0.02344,0.796875 0.05859,1.160156 z m 0,0"
         style="fill:#000000;fill-opacity:1;fill-rule:nonzero;stroke:none" />
      <path
         id="path11"
         d="m 49.940711,6.9503203 c -0.05859,0 -0.140625,0 -0.140625,0.082031 0,0.035156 0.02344,0.058594 0.07031,0.1054687 0.597657,0.5507813 1.265625,1.4882813 1.265625,3.292969 0,1.453125 -0.457031,2.554688 -1.207031,3.234375 -0.117187,0.117188 -0.128906,0.128906 -0.128906,0.164063 0,0.03516 0.02344,0.08203 0.09375,0.08203 0.08203,0 0.75,-0.457031 1.207031,-1.324219 0.304688,-0.585937 0.503906,-1.335937 0.503906,-2.15625 0,-0.9843752 -0.292968,-2.5078127 -1.664062,-3.480469 z m 0,0"
         style="fill:#000000;fill-opacity:1;fill-rule:nonzero;stroke:none" />
      <path
         id="path12"
         d="m 53.898719,12.059695 c 0,0.386719 -0.07031,0.832032 -0.550782,1.277344 -0.02344,0.03516 -0.04687,0.05859 -0.04687,0.09375 0,0.04687 0.05859,0.09375 0.09375,0.09375 0.105469,0 0.691407,-0.5625 0.691407,-1.394531 0,-0.421875 -0.164063,-0.75 -0.480469,-0.75 -0.234375,0 -0.398438,0.175781 -0.398438,0.386719 0,0.234375 0.152344,0.410156 0.398438,0.410156 0.164062,0 0.28125,-0.117188 0.292969,-0.117188 z m 2.62207,-0.621093 c -0.07031,0.234375 -0.292969,0.609375 -0.65625,0.609375 -0.02344,0 -0.222656,0 -0.375,-0.09375 0.28125,-0.09375 0.304688,-0.339844 0.304688,-0.386719 0,-0.152344 -0.117188,-0.257813 -0.28125,-0.257813 -0.1875,0 -0.386719,0.164063 -0.386719,0.433594 0,0.339844 0.386719,0.503906 0.726562,0.503906 0.316407,0 0.609375,-0.199218 0.785157,-0.492187 0.164062,0.363281 0.550781,0.492187 0.820312,0.492187 0.808594,0 1.230469,-0.867187 1.230469,-1.066406 0,-0.09375 -0.09375,-0.09375 -0.105469,-0.09375 -0.105469,0 -0.105469,0.03516 -0.140625,0.117188 -0.140625,0.480468 -0.5625,0.84375 -0.949219,0.84375 -0.28125,0 -0.421875,-0.1875 -0.421875,-0.445313 0,-0.1875 0.164063,-0.820312 0.363282,-1.59375 0.128906,-0.5390624 0.445312,-0.7148437 0.679687,-0.7148437 0.01172,0 0.222656,0 0.375,0.1054688 -0.222656,0.058594 -0.304687,0.2578125 -0.304687,0.375 0,0.1523437 0.117187,0.2578129 0.28125,0.2578129 0.152343,0 0.386718,-0.1289067 0.386718,-0.4218754 0,-0.3867188 -0.445312,-0.5039063 -0.726562,-0.5039063 -0.351563,0 -0.632813,0.2226563 -0.785156,0.4921875 -0.117188,-0.2929687 -0.445313,-0.4921875 -0.832032,-0.4921875 -0.785156,0 -1.230468,0.8554688 -1.230468,1.0664067 0,0.08203 0.105468,0.08203 0.117187,0.08203 0.09375,0 0.105469,-0.02344 0.140625,-0.117188 0.175781,-0.5390622 0.609375,-0.8437497 0.949219,-0.8437497 0.234375,0 0.421875,0.1289063 0.421875,0.46875 0,0.1289063 -0.08203,0.4804687 -0.152344,0.7148437 z m 0,0"
         style="fill:#000000;fill-opacity:1;fill-rule:nonzero;stroke:none" />
      <path
         id="path13"
         d="m 69.414344,6.2061797 c 0.152343,0 0.339843,0 0.339843,-0.1992188 0,-0.1992187 -0.1875,-0.1992187 -0.328125,-0.1992187 h -5.964843 c -0.140625,0 -0.328125,0 -0.328125,0.1992187 0,0.1992188 0.1875,0.1992188 0.339843,0.1992188 z m 0.01172,1.9335937 c 0.140625,0 0.328125,0 0.328125,-0.1992187 0,-0.1992188 -0.1875,-0.1992188 -0.339843,-0.1992188 h -5.941407 c -0.152343,0 -0.339843,0 -0.339843,0.1992188 0,0.1992187 0.1875,0.1992187 0.328125,0.1992187 z m 6.574219,-5.0507812 c 0,-0.234375 0,-0.2578125 -0.234375,-0.2578125 -0.609375,0.6328125 -1.488281,0.6328125 -1.804687,0.6328125 v 0.3164062 c 0.199218,0 0.785156,0 1.300781,-0.2578125 v 5.15625 c 0,0.3515625 -0.03516,0.4804688 -0.925781,0.4804688 h -0.316407 v 0.3046875 c 0.351563,-0.035156 1.207032,-0.035156 1.605469,-0.035156 0.398438,0 1.265625,0 1.617188,0.035156 V 9.1593047 h -0.316407 c -0.902343,0 -0.925781,-0.1171875 -0.925781,-0.4804688 z m 0,0"
         style="fill:#000000;fill-opacity:1;fill-rule:nonzero;stroke:none" />
      <path
         id="path14"
         d="m 80.095984,9.4522734 c 0,-0.65625 -0.257812,-1.0429687 -0.644531,-1.0429687 -0.328125,0 -0.527344,0.2460937 -0.527344,0.5273437 0,0.2695313 0.199219,0.5273438 0.527344,0.5273438 0.117188,0 0.246094,-0.035156 0.351563,-0.1289063 0.02344,-0.023437 0.03516,-0.035156 0.04687,-0.035156 0.01172,0 0.02344,0.011719 0.02344,0.1523437 0,0.7382814 -0.351562,1.3359374 -0.679687,1.6640624 -0.105469,0.105469 -0.105469,0.128906 -0.105469,0.164062 0,0.07031 0.04687,0.105469 0.09375,0.105469 0.117187,0 0.914062,-0.761719 0.914062,-1.9335934 z m 0,0"
         style="fill:#000000;fill-opacity:1;fill-rule:nonzero;stroke:none" />
      <path
         id="path15"
         d="m 87.979773,2.9249297 c 0.05859,-0.1054688 0.05859,-0.1289063 0.05859,-0.1757813 0,-0.09375 -0.08203,-0.1992187 -0.199219,-0.1992187 -0.128906,0 -0.199218,0.1171875 -0.234375,0.234375 L 86.784461,4.9757109 H 83.749305 L 82.928992,2.7843047 c -0.05859,-0.140625 -0.105469,-0.234375 -0.234375,-0.234375 -0.09375,0 -0.199219,0.1054687 -0.199219,0.1992187 0,0.023437 0,0.035156 0.05859,0.1757813 l 2.484375,6.5273437 c 0.04687,0.140625 0.09375,0.234375 0.222656,0.234375 0.140625,0 0.1875,-0.1171875 0.222657,-0.2109375 z m -4.066406,2.4492187 h 2.707031 l -1.359375,3.5390625 z m 0,0"
         style="fill:#000000;fill-opacity:1;fill-rule:nonzero;stroke:none" />
      <path
         id="path16"
         d="m 91.322547,11.854617 c 0,-0.03516 0,-0.04687 -0.164063,-0.222656 -1.242187,-1.253906 -1.570312,-3.1289063 -1.570312,-4.6640626 0,-1.7226562 0.386719,-3.4570312 1.605469,-4.7109375 0.128906,-0.1171875 0.128906,-0.1289062 0.128906,-0.1640625 0,-0.070312 -0.03516,-0.1054687 -0.09375,-0.1054687 -0.105469,0 -0.996094,0.6796875 -1.582031,1.9453125 -0.515625,1.1015625 -0.632813,2.203125 -0.632813,3.0351562 0,0.7851563 0.117188,1.9921875 0.65625,3.1171876 0.597656,1.21875 1.453125,1.875 1.558594,1.875 0.05859,0 0.09375,-0.03516 0.09375,-0.105469 z m 0,0"
         style="fill:#000000;fill-opacity:1;fill-rule:nonzero;stroke:none" />
      <path
         id="path17"
         d="m 92.784461,8.8780547 c -0.03516,0.1523437 -0.09375,0.375 -0.09375,0.421875 0,0.1875 0.140625,0.2695312 0.292969,0.2695312 0.117187,0 0.292968,-0.070312 0.363281,-0.2695312 0.01172,-0.023437 0.128906,-0.4921875 0.1875,-0.7382813 l 0.222656,-0.9023437 c 0.05859,-0.2226563 0.117188,-0.4335938 0.175781,-0.6679688 0.03516,-0.1640625 0.117188,-0.4570312 0.128907,-0.4921875 0.140625,-0.3164062 0.667968,-1.21875 1.617187,-1.21875 0.445313,0 0.539063,0.3632813 0.539063,0.6914063 0,0.2578125 -0.07031,0.5390625 -0.152344,0.8320312 l -0.269531,1.1601563 -0.199219,0.75 c -0.04687,0.1992187 -0.140625,0.5390625 -0.140625,0.5859375 0,0.1875 0.140625,0.2695312 0.292969,0.2695312 0.304687,0 0.375,-0.2460937 0.445312,-0.5625 0.140625,-0.5625 0.515625,-2.015625 0.597656,-2.4023437 0.03516,-0.1289063 0.5625,-1.3242188 1.652344,-1.3242188 0.421875,0 0.539063,0.3398438 0.539063,0.6914063 0,0.5742187 -0.421875,1.7109375 -0.621094,2.2382812 -0.09375,0.234375 -0.128906,0.3515625 -0.128906,0.5507813 0,0.46875 0.351562,0.8085937 0.808593,0.8085937 0.9375,0 1.312497,-1.453125 1.312497,-1.5351562 0,-0.09375 -0.0937,-0.09375 -0.11718,-0.09375 -0.10547,0 -0.10547,0.023437 -0.15235,0.1757812 -0.152342,0.5273438 -0.468748,1.2421875 -1.019529,1.2421875 -0.164063,0 -0.234375,-0.1054687 -0.234375,-0.328125 0,-0.2578125 0.08203,-0.4921875 0.175781,-0.7148437 0.1875,-0.515625 0.609375,-1.6171875 0.609375,-2.1914063 0,-0.6445312 -0.398437,-1.0664062 -1.148437,-1.0664062 -0.75,0 -1.253907,0.4453125 -1.617188,0.9726562 -0.01172,-0.1289062 -0.04687,-0.46875 -0.328125,-0.7148437 -0.246094,-0.1992188 -0.5625,-0.2578125 -0.808594,-0.2578125 -0.902343,0 -1.382812,0.6445312 -1.558593,0.8671875 -0.04687,-0.5625 -0.46875,-0.8671875 -0.914063,-0.8671875 -0.457031,0 -0.644531,0.3867187 -0.738281,0.5742187 -0.175781,0.3398438 -0.304688,0.9375 -0.304688,0.9609375 0,0.1054688 0.09375,0.1054688 0.117188,0.1054688 0.09375,0 0.105469,-0.011719 0.164062,-0.234375 0.175782,-0.703125 0.375,-1.1835938 0.726563,-1.1835938 0.164062,0 0.316406,0.082031 0.316406,0.4570313 0,0.2109375 -0.03516,0.3164062 -0.164062,0.8320312 z m 9.896489,0.5742187 c 0,-0.65625 -0.25782,-1.0429687 -0.64454,-1.0429687 -0.32812,0 -0.52734,0.2460937 -0.52734,0.5273437 0,0.2695313 0.19922,0.5273438 0.52734,0.5273438 0.11719,0 0.2461,-0.035156 0.35157,-0.1289063 0.0234,-0.023437 0.0352,-0.035156 0.0469,-0.035156 0.0117,0 0.0234,0.011719 0.0234,0.1523437 0,0.7382814 -0.35156,1.3359374 -0.67969,1.6640624 -0.10547,0.105469 -0.10547,0.128906 -0.10547,0.164062 0,0.07031 0.0469,0.105469 0.0937,0.105469 0.11719,0 0.91407,-0.761719 0.91407,-1.9335934 z m 5.20898,-6.2109375 c 0,-0.1992187 -0.12891,-0.3632812 -0.36328,-0.3632812 -0.26953,0 -0.53906,0.2578125 -0.53906,0.5273437 0,0.1875 0.14062,0.3632813 0.375,0.3632813 0.23437,0 0.52734,-0.234375 0.52734,-0.5273438 z m -0.75,3.7382813 c 0.11719,-0.28125 0.11719,-0.3046875 0.22266,-0.5742188 0.0703,-0.1992187 0.1289,-0.3398437 0.1289,-0.5273437 0,-0.4453125 -0.32812,-0.8203125 -0.82031,-0.8203125 -0.9375,0 -1.3125,1.453125 -1.3125,1.5351562 0,0.1054688 0.0937,0.1054688 0.11719,0.1054688 0.0937,0 0.10547,-0.023437 0.15234,-0.1875 0.26953,-0.9375 0.66797,-1.2304688 1.00781,-1.2304688 0.082,0 0.25782,0 0.25782,0.3164063 0,0.2109375 -0.0703,0.421875 -0.11719,0.515625 -0.082,0.2578125 -0.52735,1.4179687 -0.67969,1.8515625 -0.10547,0.2578125 -0.23437,0.5859375 -0.23437,0.796875 0,0.46875 0.33984,0.8085937 0.82031,0.8085937 0.9375,0 1.30078,-1.4414062 1.30078,-1.5351562 0,-0.09375 -0.0937,-0.09375 -0.11719,-0.09375 -0.10547,0 -0.10547,0.023437 -0.15234,0.1757812 -0.17578,0.6328125 -0.50391,1.2421875 -1.01953,1.2421875 -0.16407,0 -0.23438,-0.1054687 -0.23438,-0.328125 0,-0.2578125 0.0586,-0.3984375 0.29297,-0.9960937 z m 0,0"
         style="fill:#000000;fill-opacity:1;fill-rule:nonzero;stroke:none" />
      <path
         id="path18"
         d="m 111.39677,6.9678984 c 0,-0.7734375 -0.11719,-1.9804687 -0.65625,-3.1054687 -0.59766,-1.21875 -1.46485,-1.875 -1.5586,-1.875 -0.0586,0 -0.10547,0.046875 -0.10547,0.1054687 0,0.035156 0,0.046875 0.19922,0.234375 0.97266,0.984375 1.53516,2.5664063 1.53516,4.640625 0,1.7109375 -0.36328,3.4570316 -1.59375,4.7226566 -0.14063,0.117187 -0.14063,0.128906 -0.14063,0.164062 0,0.05859 0.0469,0.105469 0.10547,0.105469 0.0937,0 0.9961,-0.679688 1.58203,-1.945313 0.50391,-1.1015621 0.63282,-2.2031246 0.63282,-3.0468746 z m 0,0"
         style="fill:#000000;fill-opacity:1;fill-rule:nonzero;stroke:none" />
      <path
         id="path19"
         d="m 120.61356,7.1671172 c 0.16407,0 0.35157,0 0.35157,-0.1992188 0,-0.1992187 -0.1875,-0.1992187 -0.35157,-0.1992187 h -4.23047 c 0.12891,-1.3242188 1.26563,-2.2851563 2.67188,-2.2851563 h 1.55859 c 0.16407,0 0.35157,0 0.35157,-0.1992187 0,-0.1992188 -0.1875,-0.1992188 -0.35157,-0.1992188 h -1.57031 c -1.71094,0 -3.05859,1.2890625 -3.05859,2.8828125 0,1.59375 1.34765,2.8945313 3.05859,2.8945313 h 1.57031 c 0.16407,0 0.35157,0 0.35157,-0.1992188 0,-0.1992187 -0.1875,-0.1992187 -0.35157,-0.1992187 h -1.55859 c -1.40625,0 -2.54297,-0.9609375 -2.67188,-2.296875 z m 0,0"
         style="fill:#000000;fill-opacity:1;fill-rule:nonzero;stroke:none" />
      <path
         id="path20"
         d="m 132.13309,2.5382109 c 0,-0.023437 -0.0234,-0.09375 -0.10547,-0.09375 -0.0352,0 -0.0469,0.011719 -0.15234,0.1171875 l -0.70312,0.7617188 c -0.082,-0.140625 -0.53907,-0.8789063 -1.65235,-0.8789063 -2.21484,0 -4.45312,2.203125 -4.45312,4.5117188 0,1.640625 1.17187,2.7304687 2.69531,2.7304687 0.86719,0 1.61719,-0.3984375 2.14453,-0.8554687 0.9375,-0.8203125 1.10156,-1.7226563 1.10156,-1.7578125 0,-0.1054688 -0.10547,-0.1054688 -0.11718,-0.1054688 -0.0586,0 -0.11719,0.023437 -0.12891,0.1054688 -0.0937,0.2929687 -0.31641,0.9960937 -1.00781,1.5703125 -0.69141,0.5625 -1.3125,0.7265625 -1.83985,0.7265625 -0.89062,0 -1.94531,-0.515625 -1.94531,-2.0625 0,-0.5742188 0.21094,-2.1914063 1.20703,-3.3515625 0.60938,-0.703125 1.53516,-1.2070313 2.42578,-1.2070313 1.01953,0 1.60547,0.7734375 1.60547,1.921875 0,0.3984375 -0.0352,0.4101563 -0.0352,0.5039063 0,0.1054687 0.11718,0.1054687 0.15234,0.1054687 0.12891,0 0.12891,-0.023437 0.17578,-0.1992187 z m 1.71973,6.9140625 c 0,-0.65625 -0.25781,-1.0429687 -0.64453,-1.0429687 -0.32813,0 -0.52734,0.2460937 -0.52734,0.5273437 0,0.2695313 0.19921,0.5273438 0.52734,0.5273438 0.11719,0 0.24609,-0.035156 0.35156,-0.1289063 0.0234,-0.023437 0.0352,-0.035156 0.0469,-0.035156 0.0117,0 0.0234,0.011719 0.0234,0.1523437 0,0.7382814 -0.35156,1.3359374 -0.67968,1.6640624 -0.10547,0.105469 -0.10547,0.128906 -0.10547,0.164062 0,0.07031 0.0469,0.105469 0.0937,0.105469 0.11719,0 0.91406,-0.761719 0.91406,-1.9335934 z m 0,0"
         style="fill:#000000;fill-opacity:1;fill-rule:nonzero;stroke:none" />
      <path
         id="path21"
         d="m 141.75419,2.9249297 c 0.0586,-0.1054688 0.0586,-0.1289063 0.0586,-0.1757813 0,-0.09375 -0.082,-0.1992187 -0.19922,-0.1992187 -0.1289,0 -0.19922,0.1171875 -0.23437,0.234375 l -0.82032,2.1914062 h -3.03515 l -0.82031,-2.1914062 c -0.0586,-0.140625 -0.10547,-0.234375 -0.23438,-0.234375 -0.0937,0 -0.19922,0.1054687 -0.19922,0.1992187 0,0.023437 0,0.035156 0.0586,0.1757813 l 2.48437,6.5273437 c 0.0469,0.140625 0.0937,0.234375 0.22266,0.234375 0.14062,0 0.1875,-0.1171875 0.22265,-0.2109375 z m -4.06641,2.4492187 h 2.70703 l -1.35937,3.5390625 z m 0,0"
         style="fill:#000000;fill-opacity:1;fill-rule:nonzero;stroke:none" />
      <path
         id="path22"
         d="m 146.55302,7.1085234 c 0,-1.5585937 -0.92579,-2.0507812 -1.65235,-2.0507812 -1.37109,0 -2.68359,1.4296875 -2.68359,2.8359375 0,0.9257812 0.59765,1.6757812 1.61719,1.6757812 0.62109,0 1.33593,-0.2226562 2.09765,-0.8320312 0.12891,0.5273437 0.45703,0.8320312 0.90235,0.8320312 0.52734,0 0.84375,-0.5390625 0.84375,-0.703125 0,-0.070312 -0.0586,-0.1054687 -0.12891,-0.1054687 -0.0586,0 -0.0937,0.035156 -0.12891,0.1054687 -0.17578,0.4921875 -0.52734,0.4921875 -0.55078,0.4921875 -0.3164,0 -0.3164,-0.7851562 -0.3164,-1.0195312 0,-0.2109375 0,-0.234375 0.10546,-0.3515625 0.9375,-1.171875 1.14844,-2.3320313 1.14844,-2.34375 0,-0.011719 -0.0117,-0.09375 -0.11719,-0.09375 -0.10546,0 -0.10546,0.023437 -0.15234,0.2109375 -0.1875,0.6210937 -0.51562,1.3828125 -0.98437,1.96875 z m -0.65625,1.3710938 c -0.87891,0.7617187 -1.65235,0.8789062 -2.05079,0.8789062 -0.59765,0 -0.89062,-0.4570312 -0.89062,-1.0898437 0,-0.4921875 0.25781,-1.5585938 0.57422,-2.0742188 0.46875,-0.7265625 1.00781,-0.9140625 1.35937,-0.9140625 0.98438,0 0.98438,1.3007813 0.98438,2.0859375 0,0.3632813 0,0.9375 0.0234,1.1132813 z m 0,0"
         style="fill:#000000;fill-opacity:1;fill-rule:nonzero;stroke:none" />
      <path
         id="path23"
         d="m 156.44364,7.1671172 c 0.16406,0 0.35156,0 0.35156,-0.1992188 0,-0.1992187 -0.1875,-0.1992187 -0.35156,-0.1992187 h -4.23047 c 0.12891,-1.3242188 1.26563,-2.2851563 2.67188,-2.2851563 h 1.55859 c 0.16406,0 0.35156,0 0.35156,-0.1992187 0,-0.1992188 -0.1875,-0.1992188 -0.35156,-0.1992188 h -1.57031 c -1.71094,0 -3.0586,1.2890625 -3.0586,2.8828125 0,1.59375 1.34766,2.8945313 3.0586,2.8945313 h 1.57031 c 0.16406,0 0.35156,0 0.35156,-0.1992188 0,-0.1992187 -0.1875,-0.1992187 -0.35156,-0.1992187 h -1.55859 c -1.40625,0 -2.54297,-0.9609375 -2.67188,-2.296875 z m 6.75879,-3.84375 c 0,-0.3984375 0.25781,-1.0429688 1.33594,-1.1132813 0.0586,-0.011719 0.0937,-0.046875 0.0937,-0.1054687 0,-0.1171875 -0.082,-0.1171875 -0.1875,-0.1171875 -0.9961,0 -1.91016,0.515625 -1.91016,1.2539062 v 2.2734375 c 0,0.3867188 0,0.703125 -0.39844,1.03125 -0.35156,0.2929688 -0.72656,0.3046875 -0.94922,0.3164063 -0.0469,0.011719 -0.0937,0.046875 -0.0937,0.1054687 0,0.1054688 0.0586,0.1054688 0.16407,0.1171875 0.65625,0.035156 1.13672,0.3984375 1.24218,0.8789063 0.0352,0.1171875 0.0352,0.140625 0.0352,0.4921875 V 10.42493 c 0,0.421875 0,0.738281 0.46875,1.125 0.39844,0.292968 1.05469,0.410156 1.44141,0.410156 0.10547,0 0.1875,0 0.1875,-0.117188 0,-0.09375 -0.0586,-0.09375 -0.16407,-0.105468 -0.62109,-0.04687 -1.11328,-0.363282 -1.24218,-0.867188 -0.0234,-0.09375 -0.0234,-0.105469 -0.0234,-0.46875 V 8.3038359 c 0,-0.4570312 -0.082,-0.6210937 -0.39844,-0.9375 -0.21094,-0.2109375 -0.5039,-0.3164062 -0.78515,-0.3984375 0.82031,-0.2226562 1.18359,-0.6796875 1.18359,-1.2539062 z m 0,0"
         style="fill:#000000;fill-opacity:1;fill-rule:nonzero;stroke:none" />
      <path
         id="path24"
         d="m 169.95536,6.2764922 c 0,-0.796875 -0.0469,-1.59375 -0.39844,-2.3320313 -0.45703,-0.9609375 -1.27734,-1.1132812 -1.6875,-1.1132812 -0.59765,0 -1.33594,0.2578125 -1.73437,1.1835937 -0.32813,0.6914063 -0.375,1.4648438 -0.375,2.2617188 0,0.75 0.0469,1.640625 0.44531,2.4023437 0.43359,0.8085938 1.16016,1.0078125 1.65234,1.0078125 0.53907,0 1.28907,-0.2109375 1.73438,-1.1601562 0.3164,-0.6914063 0.36328,-1.4648438 0.36328,-2.25 z m -2.09766,3.1875 c -0.38672,0 -0.98437,-0.2460938 -1.16015,-1.2070313 -0.10547,-0.5976562 -0.10547,-1.5117187 -0.10547,-2.0976562 0,-0.6445313 0,-1.3007813 0.082,-1.8398438 0.1875,-1.1835937 0.92578,-1.265625 1.18359,-1.265625 0.32813,0 0.98438,0.1757813 1.17188,1.1601563 0.0937,0.5625 0.0937,1.3125 0.0937,1.9453125 0,0.75 0,1.4179687 -0.10547,2.0625 -0.15234,0.9375 -0.71484,1.2421875 -1.16016,1.2421875 z m 0,0"
         style="fill:#000000;fill-opacity:1;fill-rule:nonzero;stroke:none" />
      <path
         id="path25"
         d="m 172.38114,9.4522734 c 0,-0.65625 -0.25781,-1.0429687 -0.64453,-1.0429687 -0.32813,0 -0.52734,0.2460937 -0.52734,0.5273437 0,0.2695313 0.19921,0.5273438 0.52734,0.5273438 0.11719,0 0.24609,-0.035156 0.35156,-0.1289063 0.0234,-0.023437 0.0352,-0.035156 0.0469,-0.035156 0.0117,0 0.0234,0.011719 0.0234,0.1523437 0,0.7382814 -0.35156,1.3359374 -0.67968,1.6640624 -0.10547,0.105469 -0.10547,0.128906 -0.10547,0.164062 0,0.07031 0.0469,0.105469 0.0937,0.105469 0.11719,0 0.91406,-0.761719 0.91406,-1.9335934 z m 0,0"
         style="fill:#000000;fill-opacity:1;fill-rule:nonzero;stroke:none" />
      <path
         id="path26"
         d="m 177.71317,3.0889922 c 0,-0.234375 0,-0.2578125 -0.23437,-0.2578125 -0.60938,0.6328125 -1.48828,0.6328125 -1.80469,0.6328125 v 0.3164062 c 0.19922,0 0.78516,0 1.30078,-0.2578125 v 5.15625 c 0,0.3515625 -0.0352,0.4804688 -0.92578,0.4804688 h -0.31641 v 0.3046875 c 0.35157,-0.035156 1.20703,-0.035156 1.60547,-0.035156 0.39844,0 1.26563,0 1.61719,0.035156 V 9.1593047 h -0.31641 c -0.90234,0 -0.92578,-0.1171875 -0.92578,-0.4804688 z m 0,0"
         style="fill:#000000;fill-opacity:1;fill-rule:nonzero;stroke:none" />
      <path
         id="path27"
         d="m 181.7913,9.4522734 c 0,-0.65625 -0.25782,-1.0429687 -0.64453,-1.0429687 -0.32813,0 -0.52735,0.2460937 -0.52735,0.5273437 0,0.2695313 0.19922,0.5273438 0.52735,0.5273438 0.11718,0 0.24609,-0.035156 0.35156,-0.1289063 0.0234,-0.023437 0.0351,-0.035156 0.0469,-0.035156 0.0117,0 0.0234,0.011719 0.0234,0.1523437 0,0.7382814 -0.35156,1.3359374 -0.67969,1.6640624 -0.10547,0.105469 -0.10547,0.128906 -0.10547,0.164062 0,0.07031 0.0469,0.105469 0.0937,0.105469 0.11719,0 0.91407,-0.761719 0.91407,-1.9335934 z m 0,0"
         style="fill:#000000;fill-opacity:1;fill-rule:nonzero;stroke:none" />
      <path
         id="path28"
         d="m 185.45634,8.7022734 1.05468,-1.03125 c 1.5586,-1.3710937 2.15625,-1.9101562 2.15625,-2.90625 0,-1.1367187 -0.90234,-1.9335937 -2.12109,-1.9335937 -1.125,0 -1.85156,0.9140625 -1.85156,1.8046875 0,0.5507812 0.49218,0.5507812 0.52734,0.5507812 0.16406,0 0.51563,-0.1171875 0.51563,-0.5273437 0,-0.2578125 -0.1875,-0.515625 -0.52735,-0.515625 -0.082,0 -0.10547,0 -0.1289,0.011719 0.22265,-0.6445312 0.76171,-1.0195312 1.33593,-1.0195312 0.91407,0 1.33594,0.8085937 1.33594,1.6289062 0,0.796875 -0.49219,1.5820313 -1.04297,2.203125 l -1.91015,2.1328125 c -0.10547,0.1054688 -0.10547,0.1289063 -0.10547,0.3632813 h 3.6914 l 0.28125,-1.734375 h -0.25781 c -0.0469,0.3046875 -0.11719,0.7382812 -0.21094,0.890625 -0.0703,0.082031 -0.72656,0.082031 -0.94922,0.082031 z m 0,0"
         style="fill:#000000;fill-opacity:1;fill-rule:nonzero;stroke:none" />
      <path
         id="path29"
         d="m 191.20145,9.4522734 c 0,-0.65625 -0.25781,-1.0429687 -0.64453,-1.0429687 -0.32812,0 -0.52734,0.2460937 -0.52734,0.5273437 0,0.2695313 0.19922,0.5273438 0.52734,0.5273438 0.11719,0 0.2461,-0.035156 0.35156,-0.1289063 0.0234,-0.023437 0.0352,-0.035156 0.0469,-0.035156 0.0117,0 0.0234,0.011719 0.0234,0.1523437 0,0.7382814 -0.35157,1.3359374 -0.67969,1.6640624 -0.10547,0.105469 -0.10547,0.128906 -0.10547,0.164062 0,0.07031 0.0469,0.105469 0.0937,0.105469 0.11719,0 0.91406,-0.761719 0.91406,-1.9335934 z m 0,0"
         style="fill:#000000;fill-opacity:1;fill-rule:nonzero;stroke:none" />
      <path
         id="path30"
         d="m 196.4954,5.9600859 c 0.80859,-0.2695312 1.39453,-0.9726562 1.39453,-1.7578125 0,-0.8203125 -0.87891,-1.3710937 -1.83984,-1.3710937 -1.00782,0 -1.75782,0.5976562 -1.75782,1.3476562 0,0.3398438 0.21094,0.5273438 0.50391,0.5273438 0.30469,0 0.50391,-0.2226563 0.50391,-0.515625 0,-0.4921875 -0.46875,-0.4921875 -0.60938,-0.4921875 0.30469,-0.4921875 0.96094,-0.6210938 1.32422,-0.6210938 0.41016,0 0.94922,0.2226563 0.94922,1.1132813 0,0.1289062 -0.0117,0.703125 -0.26953,1.1367187 -0.30469,0.4804688 -0.64453,0.515625 -0.89063,0.515625 -0.082,0.011719 -0.3164,0.035156 -0.38672,0.035156 -0.082,0.011719 -0.15234,0.023437 -0.15234,0.1171875 0,0.1171875 0.0703,0.1171875 0.23437,0.1171875 h 0.44532 c 0.80859,0 1.18359,0.6679687 1.18359,1.6523437 0,1.3476563 -0.69141,1.640625 -1.125,1.640625 -0.43359,0 -1.17187,-0.1757812 -1.52344,-0.7617187 0.35157,0.058594 0.65625,-0.1640625 0.65625,-0.5390625 0,-0.3632813 -0.26953,-0.5625 -0.5625,-0.5625 -0.23437,0 -0.55078,0.140625 -0.55078,0.5742187 0,0.9140625 0.92578,1.5703125 2.00391,1.5703125 1.21875,0 2.12109,-0.9140625 2.12109,-1.921875 0,-0.8203125 -0.62109,-1.59375 -1.65234,-1.8046872 z m 0,0"
         style="fill:#000000;fill-opacity:1;fill-rule:nonzero;stroke:none" />
      <path
         id="path31"
         d="m 200.60868,9.4522734 c 0,-0.65625 -0.25781,-1.0429687 -0.64453,-1.0429687 -0.32813,0 -0.52735,0.2460937 -0.52735,0.5273437 0,0.2695313 0.19922,0.5273438 0.52735,0.5273438 0.11719,0 0.24609,-0.035156 0.35156,-0.1289063 0.0234,-0.023437 0.0352,-0.035156 0.0469,-0.035156 0.0117,0 0.0234,0.011719 0.0234,0.1523437 0,0.7382814 -0.35156,1.3359374 -0.67968,1.6640624 -0.10547,0.105469 -0.10547,0.128906 -0.10547,0.164062 0,0.07031 0.0469,0.105469 0.0937,0.105469 0.11718,0 0.91406,-0.761719 0.91406,-1.9335934 z m 0,0"
         style="fill:#000000;fill-opacity:1;fill-rule:nonzero;stroke:none" />
      <path
         id="path32"
         d="m 205.94071,7.8233672 v 0.8671875 c 0,0.3515625 -0.0234,0.46875 -0.76172,0.46875 h -0.21094 v 0.3046875 c 0.41016,-0.035156 0.9375,-0.035156 1.34766,-0.035156 0.42188,0 0.94922,0 1.35938,0.035156 V 9.1593047 h -0.21094 c -0.73828,0 -0.76172,-0.1171875 -0.76172,-0.46875 V 7.8233672 h 0.99609 V 7.5069609 h -0.99609 V 2.9835234 c 0,-0.1992187 0,-0.2578125 -0.15234,-0.2578125 -0.0937,0 -0.11719,0 -0.19922,0.1171875 l -3.0586,4.6640625 v 0.3164063 z m 0.0586,-0.3164063 h -2.42578 l 2.42578,-3.7148437 z m 0,0"
         style="fill:#000000;fill-opacity:1;fill-rule:nonzero;stroke:none" />
      <path
         id="path33"
         d="m 210.14774,10.624148 c 0,0.398438 -0.25781,1.042969 -1.34765,1.113282 -0.0469,0.01172 -0.0937,0.04687 -0.0937,0.105468 0,0.117188 0.11718,0.117188 0.19921,0.117188 0.97266,0 1.89844,-0.492188 1.91016,-1.253906 V 8.4327422 c 0,-0.3867188 0,-0.703125 0.39844,-1.03125 0.33984,-0.2929688 0.72656,-0.3046875 0.9375,-0.3164063 0.0586,-0.011719 0.0937,-0.046875 0.0937,-0.1171875 0,-0.09375 -0.0586,-0.09375 -0.16406,-0.1054687 -0.65625,-0.035156 -1.13672,-0.3984375 -1.24219,-0.890625 -0.0234,-0.1054688 -0.0234,-0.1289063 -0.0234,-0.4804688 v -1.96875 c 0,-0.421875 0,-0.7382812 -0.48047,-1.125 -0.39844,-0.3046875 -1.08984,-0.4101562 -1.42969,-0.4101562 -0.082,0 -0.19921,0 -0.19921,0.1171875 0,0.09375 0.0586,0.09375 0.16406,0.1054687 0.62109,0.046875 1.11328,0.3632813 1.24219,0.8671875 0.0351,0.09375 0.0351,0.1054688 0.0351,0.46875 v 2.0976563 c 0,0.4570312 0.0703,0.6210937 0.39844,0.9375 0.19922,0.2109375 0.49219,0.3164062 0.77344,0.3867187 -0.82032,0.234375 -1.17188,0.6914063 -1.17188,1.265625 z m 0,0"
         style="fill:#000000;fill-opacity:1;fill-rule:nonzero;stroke:none" />
    </g>
  </g>
</svg>
