<?xml version="1.0" encoding="UTF-8" standalone="no"?>
<!-- Created with Inkscape (http://www.inkscape.org/) -->

<svg
   version="1.1"
   id="svg1"
   width="176.25"
   height="31.222656"
   viewBox="0 0 176.25 31.222656"
   sodipodi:docname="Formulas.pdf"
   xmlns:inkscape="http://www.inkscape.org/namespaces/inkscape"
   xmlns:sodipodi="http://sodipodi.sourceforge.net/DTD/sodipodi-0.dtd"
   xmlns="http://www.w3.org/2000/svg"
   xmlns:svg="http://www.w3.org/2000/svg">
  <defs
     id="defs1" />
  <sodipodi:namedview
     id="namedview1"
     pagecolor="#ffffff"
     bordercolor="#000000"
     borderopacity="0.25"
     inkscape:showpageshadow="2"
     inkscape:pageopacity="0.0"
     inkscape:pagecheckerboard="0"
     inkscape:deskcolor="#d1d1d1" />
  <g
     id="g1"
     inkscape:groupmode="layer"
     inkscape:label="1"
     transform="translate(-439.84766,-112.60547)">
    <g
       id="g2"
       aria-label="∑&#10;y∈Y&#10;L&#10;P&#10;Y&#10;(m,i,0),y&#10;=1,∀(m,i)∈L"
       transform="matrix(1.3333333,0,0,1.3333333,444.02667,112.604)">
      <path
         id="path2"
         d="m 12.609883,13.946414 1.207031,-3.1875 H 13.57082 c -0.386718,1.03125 -1.453125,1.710938 -2.589843,2.015625 -0.210938,0.04687 -1.1835942,0.304688 -3.1054692,0.304688 h -6 l 5.0625,-5.9414067 c 0.070312,-0.082031 0.09375,-0.1171875 0.09375,-0.1640625 0,-0.023437 0,-0.046875 -0.070312,-0.1523437 L 2.3208203,0.48157031 h 5.4609375 c 1.3359375,0 2.2382812,0.140625 2.3320312,0.15234375 0.539063,0.0820313 1.40625,0.2578125 2.191406,0.75000004 0.246094,0.1640625 0.925782,0.609375 1.265625,1.4179687 h 0.246094 L 12.609883,0.00110156 H 0.83253906 c -0.22265625,0 -0.234375,0.01171875 -0.26953125,0.0703125 0,0.03515625 0,0.22265625 0,0.328125 L 5.8247266,7.6065703 0.66847656,13.653445 c -0.10546875,0.128907 -0.10546875,0.175782 -0.10546875,0.1875 0,0.105469 0.09375,0.105469 0.26953125,0.105469 z m 0,0"
         style="fill:#000000;fill-opacity:1;fill-rule:nonzero;stroke:none" />
      <path
         id="path3"
         d="m 0.41652344,19.375125 c 0.0234375,-0.105469 0.0234375,-0.117187 0.0234375,-0.152344 0,-0.140625 -0.10546875,-0.222656 -0.22265625,-0.222656 -0.0820313,0 -0.2109375,0.03516 -0.29296875,0.164063 -0.0234375,0.03516 -0.0703125,0.257812 -0.10546875,0.398437 l -0.15234375,0.585938 c -0.0351563,0.164062 -0.2578125,1.042968 -0.28125,1.125 0,0 -0.3046875,0.597656 -0.85546874,0.597656 -0.46875,0 -0.46875,-0.445313 -0.46875,-0.574219 0,-0.375 0.1523437,-0.820312 0.3632812,-1.359375 0.082031,-0.222656 0.1171875,-0.304687 0.1171875,-0.421875 0,-0.328125 -0.28125,-0.585937 -0.65625,-0.585937 -0.703125,0 -1.0195312,0.949218 -1.0195312,1.066406 0,0.08203 0.09375,0.08203 0.1171875,0.08203 0.09375,0 0.1054687,-0.03516 0.1289062,-0.105469 0.1757813,-0.585937 0.46875,-0.855468 0.75,-0.855468 0.1171875,0 0.1757813,0.08203 0.1757813,0.246093 0,0.164063 -0.058594,0.316407 -0.09375,0.410157 -0.3398438,0.84375 -0.4101563,1.101562 -0.4101563,1.40625 0,0.117187 0,0.445312 0.2695313,0.679687 0.2226562,0.175781 0.515625,0.210938 0.703125,0.210938 0.28125,0 0.52734374,-0.105469 0.76171874,-0.316407 -0.09375,0.386719 -0.17578125,0.679688 -0.46875004,1.03125 -0.1875,0.210938 -0.4570312,0.445313 -0.8320312,0.445313 -0.046875,0 -0.375,0 -0.5273438,-0.234375 0.375,-0.03516 0.375,-0.375 0.375,-0.386719 0,-0.222656 -0.1992187,-0.257812 -0.2695312,-0.257812 -0.1757813,0 -0.3984375,0.140625 -0.3984375,0.457031 0,0.351562 0.328125,0.609375 0.8320312,0.609375 0.703125,0 1.55859379,-0.539063 1.76953129,-1.40625 z m 0,0"
         style="fill:#000000;fill-opacity:1;fill-rule:nonzero;stroke:none" />
      <path
         id="path4"
         d="m 5.1508984,20.429813 c 0.1171875,0 0.28125,0 0.28125,-0.175782 0,-0.175781 -0.1523437,-0.175781 -0.28125,-0.175781 H 1.9282422 c 0.1054687,-1.007812 0.9492187,-1.757812 2.0390625,-1.757812 h 1.1835937 c 0.1171875,0 0.28125,0 0.28125,-0.164063 0,-0.175781 -0.1523437,-0.175781 -0.28125,-0.175781 h -1.21875 c -1.2890625,0 -2.3554687,1.019531 -2.3554687,2.273437 0,1.277344 1.078125,2.273438 2.3554687,2.273438 h 1.21875 c 0.1171875,0 0.28125,0 0.28125,-0.164063 0,-0.175781 -0.1523437,-0.175781 -0.28125,-0.175781 H 3.9673047 c -1.0898438,0 -1.9335938,-0.75 -2.0390625,-1.757812 z m 0,0"
         style="fill:#000000;fill-opacity:1;fill-rule:nonzero;stroke:none" />
      <path
         id="path5"
         d="m 10.919453,18.074344 c 0.140625,-0.140625 0.28125,-0.269531 0.433594,-0.375 0.28125,-0.1875 0.539062,-0.199219 0.632812,-0.210938 0.07031,-0.01172 0.164063,-0.01172 0.164063,-0.152343 0,-0.04687 -0.04687,-0.09375 -0.105469,-0.09375 -0.175781,0 -0.386719,0.02344 -0.5625,0.02344 -0.222656,0 -0.515625,-0.02344 -0.726562,-0.02344 -0.03516,0 -0.140625,0 -0.140625,0.152343 0,0.08203 0.09375,0.09375 0.128906,0.09375 0.199219,0.01172 0.199219,0.09375 0.199219,0.128907 0,0.07031 -0.03516,0.117187 -0.09375,0.1875 -0.03516,0.05859 -0.07031,0.105468 -0.117188,0.152343 L 8.9975781,19.773563 8.0717969,17.7345 c -0.046875,-0.09375 -0.046875,-0.117187 -0.046875,-0.117187 0,-0.128907 0.328125,-0.128907 0.375,-0.128907 0.09375,0 0.1757812,0 0.1757812,-0.152343 0,-0.01172 0,-0.09375 -0.1054687,-0.09375 -0.2109375,0 -0.7265625,0.02344 -0.9375,0.02344 -0.1757813,0 -0.6210938,-0.02344 -0.796875,-0.02344 -0.046875,0 -0.1289063,0.01172 -0.1289063,0.152343 0,0.09375 0.082031,0.09375 0.1875,0.09375 0.3984375,0 0.421875,0.05859 0.4921875,0.210938 l 1.0898438,2.390625 -0.3164063,1.277344 c -0.09375,0.351562 -0.09375,0.375 -0.6445312,0.386718 -0.1171875,0 -0.2109375,0 -0.2109375,0.140625 0,0.07031 0.046875,0.105469 0.1171875,0.105469 0.1289062,0 0.2929687,-0.02344 0.4335937,-0.02344 0.1289063,0 0.328125,0 0.4570313,0 0.140625,0 0.3046875,0 0.4453125,0 0.1523437,0 0.3164062,0.02344 0.46875,0.02344 0.035156,0 0.1523437,0 0.1523437,-0.152344 0,-0.09375 -0.082031,-0.09375 -0.234375,-0.09375 -0.1171875,0 -0.140625,0 -0.2695312,-0.02344 -0.1289063,-0.01172 -0.1523438,-0.02344 -0.1523438,-0.09375 0,-0.04687 0.082031,-0.375 0.1289063,-0.5625 0.058594,-0.222656 0.2109375,-0.832031 0.2226562,-0.855469 0.023437,-0.105469 0.023437,-0.117187 0.09375,-0.1875 z m 0,0"
         style="fill:#000000;fill-opacity:1;fill-rule:nonzero;stroke:none" />
      <path
         id="path6"
         d="m 14.974141,17.031375 c 0.02344,-0.128906 0.05859,-0.164062 0.175781,-0.175781 0.140625,-0.02344 0.246094,-0.02344 0.375,-0.02344 0.152344,0 0.222656,0 0.222656,-0.140625 0,-0.05859 -0.04687,-0.08203 -0.09375,-0.08203 -0.140625,0 -0.269531,0.01172 -0.398437,0.01172 -0.140625,0 -0.28125,0 -0.421875,0 -0.128907,0 -0.257813,0 -0.375,0 -0.117188,0 -0.246094,-0.01172 -0.363282,-0.01172 -0.03516,0 -0.117187,0 -0.117187,0.140625 0,0.08203 0.05859,0.08203 0.175781,0.08203 0.05859,0 0.222656,0 0.328125,0.02344 0,0.05859 0,0.07031 -0.02344,0.128906 l -0.644532,2.613281 c -0.04687,0.140625 -0.04687,0.1875 -0.421875,0.1875 -0.128906,0 -0.210937,0 -0.210937,0.140625 0,0.08203 0.08203,0.08203 0.164062,0.08203 h 2.824219 c 0.128906,0 0.128906,0 0.175781,-0.117188 0.04687,-0.128906 0.445313,-1.125 0.445313,-1.148437 0,-0.03516 -0.02344,-0.09375 -0.105469,-0.09375 -0.07031,0 -0.08203,0.02344 -0.140625,0.152343 -0.257812,0.632813 -0.574219,0.984375 -1.394531,0.984375 h -0.691406 c -0.04687,0 -0.117188,0 -0.164063,-0.01172 0,-0.03516 0,-0.04687 0.01172,-0.09375 z m 0,0"
         style="fill:#000000;fill-opacity:1;fill-rule:nonzero;stroke:none" />
      <path
         id="path7"
         d="m 22.538594,6.3116484 h 1.6875 c 1.417969,0 2.800781,-1.03125 2.800781,-2.1445312 0,-0.7734375 -0.65625,-1.5117188 -1.96875,-1.5117188 h -3.222656 c -0.1875,0 -0.292969,0 -0.292969,0.1992188 0,0.1171875 0.08203,0.1171875 0.28125,0.1171875 0.128906,0 0.316406,0.011719 0.433594,0.011719 0.152344,0.023437 0.210937,0.058594 0.210937,0.1640625 0,0.035156 0,0.070312 -0.03516,0.1875 L 21.097184,8.690555 c -0.09375,0.3867187 -0.117188,0.46875 -0.902344,0.46875 -0.175781,0 -0.28125,0 -0.28125,0.1875 0,0.1171875 0.117187,0.1171875 0.152344,0.1171875 0.28125,0 0.984375,-0.035156 1.265625,-0.035156 0.210937,0 0.421875,0.011719 0.632812,0.011719 0.222656,0 0.445313,0.023437 0.644531,0.023437 0.07031,0 0.199219,0 0.199219,-0.1992188 0,-0.1054687 -0.08203,-0.1054687 -0.269531,-0.1054687 -0.375,0 -0.65625,0 -0.65625,-0.1875 0,-0.058594 0.02344,-0.1054688 0.03516,-0.1640625 z m 0.714844,-2.9648437 c 0.08203,-0.3515625 0.105468,-0.375 0.539062,-0.375 h 0.949219 c 0.832031,0 1.359375,0.2695312 1.359375,0.9492187 0,0.3984375 -0.199219,1.2539063 -0.585938,1.6054688 C 25.01125,5.9718047 24.413594,6.0538359 23.98,6.0538359 h -1.40625 z m 0,0"
         style="fill:#000000;fill-opacity:1;fill-rule:nonzero;stroke:none" />
      <path
         id="path8"
         d="m 32.016133,1.4249297 c 0.140625,-0.140625 0.28125,-0.2695313 0.433594,-0.375 0.28125,-0.18750001 0.539062,-0.19921876 0.632812,-0.21093751 0.07031,-0.0117188 0.164063,-0.0117188 0.164063,-0.15234375 0,-0.046875 -0.04687,-0.09375 -0.105469,-0.09375 -0.175781,0 -0.386719,0.0234375 -0.5625,0.0234375 -0.222656,0 -0.515625,-0.0234375 -0.726563,-0.0234375 -0.03516,0 -0.140625,0 -0.140625,0.15234375 0,0.0820313 0.09375,0.09375 0.128907,0.09375 0.199218,0.0117188 0.199218,0.09375 0.199218,0.12890625 0,0.0703125 -0.03516,0.11718746 -0.09375,0.18749996 -0.03516,0.058594 -0.07031,0.1054688 -0.117187,0.1523438 L 30.094258,3.1241484 29.168477,1.0850859 c -0.04687,-0.09375 -0.04687,-0.11718746 -0.04687,-0.11718746 0,-0.12890625 0.328125,-0.12890625 0.375,-0.12890625 0.09375,0 0.175781,0 0.175781,-0.15234375 0,-0.0117188 0,-0.09375 -0.105469,-0.09375 -0.210937,0 -0.726562,0.0234375 -0.9375,0.0234375 -0.175781,0 -0.621094,-0.0234375 -0.796875,-0.0234375 -0.04687,0 -0.128906,0.0117188 -0.128906,0.15234375 0,0.09375 0.08203,0.09375 0.1875,0.09375 0.398437,0 0.421875,0.0585938 0.492187,0.21093751 l 1.089844,2.390625 -0.316406,1.2773437 c -0.09375,0.3515625 -0.09375,0.375 -0.644531,0.3867188 -0.117188,0 -0.210938,0 -0.210938,0.140625 0,0.070312 0.04687,0.1054687 0.117188,0.1054687 0.128906,0 0.292968,-0.023437 0.433593,-0.023437 0.128907,0 0.328125,0 0.457032,0 0.140625,0 0.304687,0 0.445312,0 0.152344,0 0.316406,0.023437 0.46875,0.023437 0.03516,0 0.152344,0 0.152344,-0.1523437 0,-0.09375 -0.08203,-0.09375 -0.234375,-0.09375 -0.117188,0 -0.140625,0 -0.269531,-0.023437 -0.128907,-0.011719 -0.152344,-0.023437 -0.152344,-0.09375 0,-0.046875 0.08203,-0.375 0.128906,-0.5625 0.05859,-0.2226563 0.210938,-0.8320313 0.222656,-0.8554688 0.02344,-0.1054687 0.02344,-0.1171875 0.09375,-0.1875 z m 0,0"
         style="fill:#000000;fill-opacity:1;fill-rule:nonzero;stroke:none" />
      <path
         id="path9"
         d="m 28.38332,6.9503203 c -1.324218,0.9257813 -1.675781,2.4140625 -1.675781,3.4804687 0,0.984375 0.292969,2.507813 1.675781,3.480469 0.05859,0 0.140625,0 0.140625,-0.08203 0,-0.04687 -0.02344,-0.05859 -0.07031,-0.105469 -0.925781,-0.832031 -1.265625,-2.015625 -1.265625,-3.292969 0,-1.8749999 0.714844,-2.8007812 1.289062,-3.3164062 0.02344,-0.023437 0.04687,-0.046875 0.04687,-0.082031 0,-0.082031 -0.08203,-0.082031 -0.140625,-0.082031 z m 0,0"
         style="fill:#000000;fill-opacity:1;fill-rule:nonzero;stroke:none" />
      <path
         id="path10"
         d="m 32.04543,11.614383 c -0.03516,0.140625 -0.09375,0.375 -0.09375,0.410156 0,0.152344 0.128906,0.222656 0.234375,0.222656 0.128906,0 0.234375,-0.09375 0.269531,-0.152343 0.03516,-0.05859 0.09375,-0.292969 0.128906,-0.433594 0.03516,-0.128906 0.117188,-0.457031 0.152344,-0.632813 0.04687,-0.152343 0.08203,-0.304687 0.117187,-0.457031 0.08203,-0.304687 0.08203,-0.316406 0.222657,-0.539062 0.222656,-0.3398442 0.5625,-0.7382817 1.113281,-0.7382817 0.386719,0 0.410156,0.328125 0.410156,0.4921875 0,0.4218752 -0.304687,1.1953122 -0.410156,1.4882812 -0.08203,0.1875 -0.105469,0.257813 -0.105469,0.375 0,0.363281 0.304688,0.597656 0.65625,0.597656 0.703125,0 1.007813,-0.960937 1.007813,-1.066406 0,-0.09375 -0.09375,-0.09375 -0.105469,-0.09375 -0.105469,0 -0.105469,0.04687 -0.140625,0.117188 -0.152344,0.5625 -0.457031,0.84375 -0.738281,0.84375 -0.140625,0 -0.175782,-0.09375 -0.175782,-0.246094 0,-0.152344 0.03516,-0.246094 0.164063,-0.5625 0.08203,-0.210938 0.375,-0.949219 0.375,-1.3476564 0,-0.1054688 0,-0.3984375 -0.257813,-0.5976563 -0.128906,-0.09375 -0.328125,-0.1875 -0.65625,-0.1875 -0.621093,0 -1.007812,0.4101563 -1.230468,0.703125 -0.05859,-0.5976562 -0.550782,-0.703125 -0.902344,-0.703125 -0.585938,0 -0.972656,0.3515625 -1.183594,0.6328125 -0.04687,-0.4804687 -0.457031,-0.6328125 -0.75,-0.6328125 -0.292969,0 -0.457031,0.2109375 -0.550781,0.375 -0.152344,0.2578125 -0.246094,0.6562497 -0.246094,0.6914067 0,0.08203 0.09375,0.08203 0.117188,0.08203 0.09375,0 0.105468,-0.01172 0.152343,-0.199219 0.105469,-0.4218749 0.234375,-0.7617187 0.515625,-0.7617187 0.175782,0 0.222657,0.1523438 0.222657,0.3398438 0,0.140625 -0.05859,0.3984379 -0.105469,0.5859379 -0.04687,0.1875 -0.117188,0.46875 -0.152344,0.621093 l -0.222656,0.902344 c -0.03516,0.08203 -0.07031,0.257813 -0.07031,0.28125 0,0.152344 0.117188,0.222656 0.234375,0.222656 0.128907,0 0.234375,-0.09375 0.269532,-0.152343 0.03516,-0.05859 0.09375,-0.292969 0.128906,-0.433594 0.03516,-0.128906 0.105469,-0.457031 0.152344,-0.632813 0.03516,-0.152343 0.08203,-0.304687 0.117187,-0.457031 0.08203,-0.292969 0.09375,-0.351562 0.292969,-0.6328124 0.199219,-0.28125 0.527344,-0.6445313 1.042969,-0.6445313 0.410156,0 0.410156,0.3632813 0.410156,0.4921875 0,0.1757813 -0.01172,0.2695312 -0.117188,0.6562502 z m 5.519531,0.445312 c 0,0.386719 -0.07031,0.832032 -0.550781,1.277344 -0.02344,0.03516 -0.04687,0.05859 -0.04687,0.09375 0,0.04687 0.05859,0.09375 0.09375,0.09375 0.105468,0 0.691406,-0.5625 0.691406,-1.394531 0,-0.421875 -0.164063,-0.75 -0.480469,-0.75 -0.234375,0 -0.398437,0.175781 -0.398437,0.386719 0,0.234375 0.152343,0.410156 0.398437,0.410156 0.164063,0 0.28125,-0.117188 0.292969,-0.117188 z m 3.149414,-4.2421872 c 0,-0.1054687 -0.08203,-0.2578125 -0.28125,-0.2578125 -0.1875,0 -0.386719,0.1757813 -0.386719,0.375 0,0.1171875 0.08203,0.2695313 0.269532,0.2695313 0.210937,0 0.398437,-0.1992188 0.398437,-0.3867188 z M 39.284688,11.35657 c -0.02344,0.09375 -0.05859,0.175782 -0.05859,0.292969 0,0.328125 0.28125,0.597656 0.667969,0.597656 0.691406,0 0.996093,-0.960937 0.996093,-1.066406 0,-0.09375 -0.08203,-0.09375 -0.105468,-0.09375 -0.105469,0 -0.105469,0.04687 -0.140625,0.117188 -0.152344,0.5625 -0.457032,0.84375 -0.738282,0.84375 -0.140625,0 -0.175781,-0.08203 -0.175781,-0.246094 0,-0.152344 0.05859,-0.292969 0.117188,-0.445313 0.07031,-0.1875 0.140625,-0.375 0.222656,-0.550781 0.05859,-0.164062 0.316406,-0.8085937 0.339844,-0.8906249 0.02344,-0.070312 0.04687,-0.1523438 0.04687,-0.2226563 0,-0.328125 -0.28125,-0.5859375 -0.667969,-0.5859375 -0.691406,0 -1.007813,0.9492187 -1.007813,1.0664067 0,0.08203 0.09375,0.08203 0.117188,0.08203 0.09375,0 0.105469,-0.03516 0.128906,-0.105469 0.175781,-0.5976562 0.480469,-0.8554687 0.738281,-0.8554687 0.117188,0 0.175782,0.058594 0.175782,0.2460938 0,0.1640625 -0.03516,0.2695312 -0.210938,0.7031249 z m 3.45996,0.703125 c 0,0.386719 -0.07031,0.832032 -0.550781,1.277344 -0.02344,0.03516 -0.04687,0.05859 -0.04687,0.09375 0,0.04687 0.05859,0.09375 0.09375,0.09375 0.105469,0 0.691406,-0.5625 0.691406,-1.394531 0,-0.421875 -0.164062,-0.75 -0.480468,-0.75 -0.234375,0 -0.398438,0.175781 -0.398438,0.386719 0,0.234375 0.152344,0.410156 0.398438,0.410156 0.164062,0 0.28125,-0.117188 0.292968,-0.117188 z m 0,0"
         style="fill:#000000;fill-opacity:1;fill-rule:nonzero;stroke:none" />
      <path
         id="path11"
         d="m 47.241719,9.9503203 c 0,-0.7617187 -0.09375,-1.3125 -0.410156,-1.8046875 -0.222657,-0.3164062 -0.644532,-0.5976562 -1.207032,-0.5976562 -1.617187,0 -1.617187,1.8984375 -1.617187,2.4023437 0,0.5039067 0,2.3671877 1.617187,2.3671877 1.617188,0 1.617188,-1.863281 1.617188,-2.3671877 z m -1.617188,2.1679687 c -0.316406,0 -0.75,-0.1875 -0.890625,-0.761719 -0.09375,-0.410156 -0.09375,-0.984375 -0.09375,-1.4999997 0,-0.5039062 0,-1.03125 0.105469,-1.4179687 0.152344,-0.5507813 0.597656,-0.6914063 0.878906,-0.6914063 0.375,0 0.738282,0.2226563 0.867188,0.6328125 0.105469,0.375 0.117187,0.8789063 0.117187,1.4765625 0,0.5156247 0,1.0429687 -0.09375,1.4765627 -0.140625,0.632812 -0.609375,0.785156 -0.890625,0.785156 z m 2.619141,-5.1679687 c -0.05859,0 -0.140625,0 -0.140625,0.082031 0,0.035156 0.02344,0.058594 0.07031,0.1054687 0.597657,0.5507813 1.265625,1.4882813 1.265625,3.292969 0,1.453125 -0.457031,2.554688 -1.207031,3.234375 -0.117187,0.117188 -0.128906,0.128906 -0.128906,0.164063 0,0.03516 0.02344,0.08203 0.09375,0.08203 0.08203,0 0.75,-0.457031 1.207031,-1.324219 0.304688,-0.585937 0.503906,-1.335937 0.503906,-2.15625 0,-0.9843752 -0.292968,-2.5078127 -1.664062,-3.480469 z m 0,0"
         style="fill:#000000;fill-opacity:1;fill-rule:nonzero;stroke:none" />
      <path
         id="path12"
         d="m 52.204609,12.059695 c 0,0.386719 -0.07031,0.832032 -0.550781,1.277344 -0.02344,0.03516 -0.04687,0.05859 -0.04687,0.09375 0,0.04687 0.05859,0.09375 0.09375,0.09375 0.105469,0 0.691406,-0.5625 0.691406,-1.394531 0,-0.421875 -0.164062,-0.75 -0.480468,-0.75 -0.234375,0 -0.398438,0.175781 -0.398438,0.386719 0,0.234375 0.152344,0.410156 0.398438,0.410156 0.164062,0 0.28125,-0.117188 0.292968,-0.117188 z m 4.766602,-2.5078122 c 0.02344,-0.1054687 0.02344,-0.1171875 0.02344,-0.1523437 0,-0.140625 -0.105468,-0.2226563 -0.222656,-0.2226563 -0.08203,0 -0.210937,0.035156 -0.292969,0.1640625 -0.02344,0.035156 -0.07031,0.2578125 -0.105468,0.3984375 L 56.221211,10.32532 c -0.03516,0.164063 -0.257813,1.042969 -0.28125,1.125 0,0 -0.304688,0.597657 -0.855469,0.597657 -0.46875,0 -0.46875,-0.445313 -0.46875,-0.574219 0,-0.375 0.152344,-0.820313 0.363281,-1.359375 0.08203,-0.2226564 0.117188,-0.3046877 0.117188,-0.4218752 0,-0.328125 -0.28125,-0.5859375 -0.65625,-0.5859375 -0.703125,0 -1.019531,0.9492187 -1.019531,1.0664067 0,0.08203 0.09375,0.08203 0.117187,0.08203 0.09375,0 0.105469,-0.03516 0.128906,-0.105469 0.175782,-0.5859374 0.46875,-0.8554687 0.75,-0.8554687 0.117188,0 0.175782,0.082031 0.175782,0.2460938 0,0.1640625 -0.05859,0.3164062 -0.09375,0.4101562 -0.339844,0.8437497 -0.410157,1.1015627 -0.410157,1.4062497 0,0.117188 0,0.445313 0.269532,0.679688 0.222656,0.175781 0.515625,0.210937 0.703125,0.210937 0.28125,0 0.527343,-0.105468 0.761718,-0.316406 -0.09375,0.386719 -0.175781,0.679688 -0.46875,1.03125 -0.1875,0.210938 -0.457031,0.445313 -0.832031,0.445313 -0.04687,0 -0.375,0 -0.527344,-0.234375 0.375,-0.03516 0.375,-0.375 0.375,-0.386719 0,-0.222656 -0.199218,-0.257813 -0.269531,-0.257813 -0.175781,0 -0.398437,0.140625 -0.398437,0.457032 0,0.351562 0.328125,0.609375 0.832031,0.609375 0.703125,0 1.558594,-0.539063 1.769531,-1.40625 z m 0,0"
         style="fill:#000000;fill-opacity:1;fill-rule:nonzero;stroke:none" />
      <path
         id="path13"
         d="m 67.494648,6.2061797 c 0.152344,0 0.339844,0 0.339844,-0.1992188 0,-0.1992187 -0.1875,-0.1992187 -0.328125,-0.1992187 h -5.964844 c -0.140625,0 -0.328125,0 -0.328125,0.1992187 0,0.1992188 0.1875,0.1992188 0.339844,0.1992188 z m 0.01172,1.9335937 c 0.140625,0 0.328125,0 0.328125,-0.1992187 0,-0.1992188 -0.1875,-0.1992188 -0.339844,-0.1992188 h -5.941406 c -0.152344,0 -0.339844,0 -0.339844,0.1992188 0,0.1992187 0.1875,0.1992187 0.328125,0.1992187 z m 6.574219,-5.0507812 c 0,-0.234375 0,-0.2578125 -0.234375,-0.2578125 -0.609375,0.6328125 -1.488281,0.6328125 -1.804688,0.6328125 v 0.3164062 c 0.199219,0 0.785157,0 1.300782,-0.2578125 v 5.15625 c 0,0.3515625 -0.03516,0.4804688 -0.925782,0.4804688 h -0.316406 v 0.3046875 c 0.351563,-0.035156 1.207031,-0.035156 1.605469,-0.035156 0.398437,0 1.265625,0 1.617187,0.035156 V 9.1593047 h -0.316406 c -0.902344,0 -0.925781,-0.1171875 -0.925781,-0.4804688 z m 0,0"
         style="fill:#000000;fill-opacity:1;fill-rule:nonzero;stroke:none" />
      <path
         id="path14"
         d="m 78.176289,9.4522734 c 0,-0.65625 -0.257812,-1.0429687 -0.644531,-1.0429687 -0.328125,0 -0.527344,0.2460937 -0.527344,0.5273437 0,0.2695313 0.199219,0.5273438 0.527344,0.5273438 0.117187,0 0.246094,-0.035156 0.351562,-0.1289063 0.02344,-0.023437 0.03516,-0.035156 0.04687,-0.035156 0.01172,0 0.02344,0.011719 0.02344,0.1523437 0,0.7382814 -0.351563,1.3359374 -0.679688,1.6640624 -0.105468,0.105469 -0.105468,0.128906 -0.105468,0.164062 0,0.07031 0.04687,0.105469 0.09375,0.105469 0.117187,0 0.914062,-0.761719 0.914062,-1.9335934 z m 0,0"
         style="fill:#000000;fill-opacity:1;fill-rule:nonzero;stroke:none" />
      <path
         id="path15"
         d="m 86.060078,2.9249297 c 0.05859,-0.1054688 0.05859,-0.1289063 0.05859,-0.1757813 0,-0.09375 -0.08203,-0.1992187 -0.199219,-0.1992187 -0.128906,0 -0.199219,0.1171875 -0.234375,0.234375 L 84.864766,4.9757109 H 81.829609 L 81.009297,2.7843047 c -0.05859,-0.140625 -0.105469,-0.234375 -0.234375,-0.234375 -0.09375,0 -0.199219,0.1054687 -0.199219,0.1992187 0,0.023437 0,0.035156 0.05859,0.1757813 l 2.484375,6.5273437 c 0.04687,0.140625 0.09375,0.234375 0.222656,0.234375 0.140625,0 0.1875,-0.1171875 0.222656,-0.2109375 z m -4.066406,2.4492187 h 2.707031 l -1.359375,3.5390625 z m 0,0"
         style="fill:#000000;fill-opacity:1;fill-rule:nonzero;stroke:none" />
      <path
         id="path16"
         d="m 89.402852,11.854617 c 0,-0.03516 0,-0.04687 -0.164063,-0.222656 -1.242187,-1.253906 -1.570312,-3.1289063 -1.570312,-4.6640626 0,-1.7226562 0.386718,-3.4570312 1.605468,-4.7109375 0.128907,-0.1171875 0.128907,-0.1289062 0.128907,-0.1640625 0,-0.070312 -0.03516,-0.1054687 -0.09375,-0.1054687 -0.105469,0 -0.996094,0.6796875 -1.582032,1.9453125 -0.515625,1.1015625 -0.632812,2.203125 -0.632812,3.0351562 0,0.7851563 0.117187,1.9921875 0.65625,3.1171876 0.597656,1.21875 1.453125,1.875 1.558594,1.875 0.05859,0 0.09375,-0.03516 0.09375,-0.105469 z m 0,0"
         style="fill:#000000;fill-opacity:1;fill-rule:nonzero;stroke:none" />
      <path
         id="path17"
         d="m 90.864766,8.8780547 c -0.03516,0.1523437 -0.09375,0.375 -0.09375,0.421875 0,0.1875 0.140625,0.2695312 0.292968,0.2695312 0.117188,0 0.292969,-0.070312 0.363282,-0.2695312 0.01172,-0.023437 0.128906,-0.4921875 0.1875,-0.7382813 l 0.222656,-0.9023437 c 0.05859,-0.2226563 0.117187,-0.4335938 0.175781,-0.6679688 0.03516,-0.1640625 0.117188,-0.4570312 0.128906,-0.4921875 0.140625,-0.3164062 0.667969,-1.21875 1.617188,-1.21875 0.445312,0 0.539062,0.3632813 0.539062,0.6914063 0,0.2578125 -0.07031,0.5390625 -0.152343,0.8320312 l -0.269532,1.1601563 -0.199218,0.75 c -0.04687,0.1992187 -0.140625,0.5390625 -0.140625,0.5859375 0,0.1875 0.140625,0.2695312 0.292968,0.2695312 0.304688,0 0.375,-0.2460937 0.445313,-0.5625 0.140625,-0.5625 0.515625,-2.015625 0.597656,-2.4023437 0.03516,-0.1289063 0.5625,-1.3242188 1.652344,-1.3242188 0.421875,0 0.539062,0.3398438 0.539062,0.6914063 0,0.5742187 -0.421875,1.7109375 -0.621093,2.2382812 -0.09375,0.234375 -0.128907,0.3515625 -0.128907,0.5507813 0,0.46875 0.351563,0.8085937 0.808594,0.8085937 0.9375,0 1.3125,-1.453125 1.3125,-1.5351562 0,-0.09375 -0.09375,-0.09375 -0.117187,-0.09375 -0.105469,0 -0.105469,0.023437 -0.152344,0.1757812 -0.152344,0.5273438 -0.46875,1.2421875 -1.019531,1.2421875 -0.164063,0 -0.234375,-0.1054687 -0.234375,-0.328125 0,-0.2578125 0.08203,-0.4921875 0.175781,-0.7148437 0.1875,-0.515625 0.609375,-1.6171875 0.609375,-2.1914063 0,-0.6445312 -0.398438,-1.0664062 -1.148438,-1.0664062 -0.75,0 -1.253906,0.4453125 -1.617187,0.9726562 -0.01172,-0.1289062 -0.04687,-0.46875 -0.328125,-0.7148437 -0.246094,-0.1992188 -0.5625,-0.2578125 -0.808594,-0.2578125 -0.902344,0 -1.382812,0.6445312 -1.558594,0.8671875 -0.04687,-0.5625 -0.46875,-0.8671875 -0.914062,-0.8671875 -0.457031,0 -0.644531,0.3867187 -0.738281,0.5742187 -0.175782,0.3398438 -0.304688,0.9375 -0.304688,0.9609375 0,0.1054688 0.09375,0.1054688 0.117188,0.1054688 0.09375,0 0.105468,-0.011719 0.164062,-0.234375 0.175781,-0.703125 0.375,-1.1835938 0.726563,-1.1835938 0.164062,0 0.316406,0.082031 0.316406,0.4570313 0,0.2109375 -0.03516,0.3164062 -0.164063,0.8320312 z m 9.893554,0.5742187 c 0,-0.65625 -0.25781,-1.0429687 -0.64453,-1.0429687 -0.328126,0 -0.527345,0.2460937 -0.527345,0.5273437 0,0.2695313 0.199219,0.5273438 0.527345,0.5273438 0.11719,0 0.24609,-0.035156 0.35156,-0.1289063 0.0234,-0.023437 0.0352,-0.035156 0.0469,-0.035156 0.0117,0 0.0234,0.011719 0.0234,0.1523437 0,0.7382814 -0.35156,1.3359374 -0.679683,1.6640624 -0.105469,0.105469 -0.105469,0.128906 -0.105469,0.164062 0,0.07031 0.04687,0.105469 0.09375,0.105469 0.117187,0 0.914062,-0.761719 0.914062,-1.9335934 z m 5.21191,-6.2109375 c 0,-0.1992187 -0.1289,-0.3632812 -0.36328,-0.3632812 -0.26953,0 -0.53906,0.2578125 -0.53906,0.5273437 0,0.1875 0.14063,0.3632813 0.375,0.3632813 0.23438,0 0.52734,-0.234375 0.52734,-0.5273438 z m -0.75,3.7382813 c 0.11719,-0.28125 0.11719,-0.3046875 0.22266,-0.5742188 0.0703,-0.1992187 0.12891,-0.3398437 0.12891,-0.5273437 0,-0.4453125 -0.32813,-0.8203125 -0.82032,-0.8203125 -0.9375,0 -1.3125,1.453125 -1.3125,1.5351562 0,0.1054688 0.0937,0.1054688 0.11719,0.1054688 0.0937,0 0.10547,-0.023437 0.15235,-0.1875 0.26953,-0.9375 0.66796,-1.2304688 1.00781,-1.2304688 0.082,0 0.25781,0 0.25781,0.3164063 0,0.2109375 -0.0703,0.421875 -0.11719,0.515625 -0.082,0.2578125 -0.52734,1.4179687 -0.67968,1.8515625 -0.10547,0.2578125 -0.23438,0.5859375 -0.23438,0.796875 0,0.46875 0.33984,0.8085937 0.82031,0.8085937 0.9375,0 1.30078,-1.4414062 1.30078,-1.5351562 0,-0.09375 -0.0937,-0.09375 -0.11718,-0.09375 -0.10547,0 -0.10547,0.023437 -0.15235,0.1757812 -0.17578,0.6328125 -0.5039,1.2421875 -1.01953,1.2421875 -0.16406,0 -0.23437,-0.1054687 -0.23437,-0.328125 0,-0.2578125 0.0586,-0.3984375 0.29297,-0.9960937 z m 0,0"
         style="fill:#000000;fill-opacity:1;fill-rule:nonzero;stroke:none" />
      <path
         id="path18"
         d="m 109.47414,6.9678984 c 0,-0.7734375 -0.11719,-1.9804687 -0.65625,-3.1054687 -0.59766,-1.21875 -1.46484,-1.875 -1.55859,-1.875 -0.0586,0 -0.10547,0.046875 -0.10547,0.1054687 0,0.035156 0,0.046875 0.19922,0.234375 0.97265,0.984375 1.53515,2.5664063 1.53515,4.640625 0,1.7109375 -0.36328,3.4570316 -1.59375,4.7226566 -0.14062,0.117187 -0.14062,0.128906 -0.14062,0.164062 0,0.05859 0.0469,0.105469 0.10547,0.105469 0.0937,0 0.99609,-0.679688 1.58203,-1.945313 0.5039,-1.1015621 0.63281,-2.2031246 0.63281,-3.0468746 z m 0,0"
         style="fill:#000000;fill-opacity:1;fill-rule:nonzero;stroke:none" />
      <path
         id="path19"
         d="m 118.69387,7.1671172 c 0.16406,0 0.35156,0 0.35156,-0.1992188 0,-0.1992187 -0.1875,-0.1992187 -0.35156,-0.1992187 h -4.23047 c 0.1289,-1.3242188 1.26562,-2.2851563 2.67187,-2.2851563 h 1.5586 c 0.16406,0 0.35156,0 0.35156,-0.1992187 0,-0.1992188 -0.1875,-0.1992188 -0.35156,-0.1992188 h -1.57032 c -1.71093,0 -3.05859,1.2890625 -3.05859,2.8828125 0,1.59375 1.34766,2.8945313 3.05859,2.8945313 h 1.57032 c 0.16406,0 0.35156,0 0.35156,-0.1992188 0,-0.1992187 -0.1875,-0.1992187 -0.35156,-0.1992187 h -1.5586 c -1.40625,0 -2.54297,-0.9609375 -2.67187,-2.296875 z m 0,0"
         style="fill:#000000;fill-opacity:1;fill-rule:nonzero;stroke:none" />
      <path
         id="path20"
         d="m 126.36965,3.4405547 c 0.0937,-0.3632813 0.11719,-0.46875 1.05469,-0.46875 0.30468,0 0.375,0 0.375,-0.1875 0,-0.1289063 -0.10547,-0.1289063 -0.15235,-0.1289063 -0.32812,0 -1.14844,0.035156 -1.47656,0.035156 -0.30469,0 -1.03125,-0.035156 -1.32422,-0.035156 -0.0703,0 -0.1875,0 -0.1875,0.1992188 0,0.1171875 0.082,0.1171875 0.28125,0.1171875 0.0117,0 0.19922,0 0.375,0.011719 0.17578,0.023437 0.26953,0.035156 0.26953,0.1640625 0,0.035156 -0.0117,0.070312 -0.0469,0.1875 l -1.33594,5.3554688 c -0.0937,0.3867187 -0.11719,0.46875 -0.90234,0.46875 -0.16407,0 -0.26954,0 -0.26954,0.1992187 0,0.1054688 0.0937,0.1054688 0.26954,0.1054688 h 4.61718 c 0.23438,0 0.2461,0 0.30469,-0.1640625 l 0.78516,-2.15625 c 0.0469,-0.1054688 0.0469,-0.1289063 0.0469,-0.140625 0,-0.035156 -0.0351,-0.1054688 -0.1289,-0.1054688 -0.082,0 -0.0937,0.046875 -0.16407,0.2109375 -0.33984,0.9140625 -0.77343,2.0507813 -2.49609,2.0507813 h -0.9375 c -0.14063,0 -0.16406,0 -0.22266,-0.011719 -0.10547,-0.011719 -0.1289,-0.023437 -0.1289,-0.1054687 0,-0.023437 0,-0.046875 0.0469,-0.2226563 z m 0,0"
         style="fill:#000000;fill-opacity:1;fill-rule:nonzero;stroke:none" />
    </g>
  </g>
</svg>
