<?xml version="1.0" encoding="UTF-8" standalone="no"?>
<!-- Created with Inkscape (http://www.inkscape.org/) -->

<svg
   version="1.1"
   id="svg1"
   width="192.88672"
   height="51.050781"
   viewBox="0 0 192.88672 51.050781"
   sodipodi:docname="Formulas.pdf"
   xmlns:inkscape="http://www.inkscape.org/namespaces/inkscape"
   xmlns:sodipodi="http://sodipodi.sourceforge.net/DTD/sodipodi-0.dtd"
   xmlns="http://www.w3.org/2000/svg"
   xmlns:svg="http://www.w3.org/2000/svg">
  <defs
     id="defs1" />
  <sodipodi:namedview
     id="namedview1"
     pagecolor="#ffffff"
     bordercolor="#000000"
     borderopacity="0.25"
     inkscape:showpageshadow="2"
     inkscape:pageopacity="0.0"
     inkscape:pagecheckerboard="0"
     inkscape:deskcolor="#d1d1d1" />
  <g
     id="g1"
     inkscape:groupmode="layer"
     inkscape:label="1"
     transform="translate(-431.53516,-111.94531)">
    <g
       id="g2"
       aria-label="A&#10;R&#10;(m,i)&#10;∑&#10;x=A&#10;L&#10;(m,i)&#10;P&#10;X&#10;(m,i,0),x&#10;=1,∀(m,i)∈L"
       transform="matrix(1.3333333,0,0,1.3333333,438.172,120.48533)">
      <path
         id="path2"
         d="m 1.4413125,-0.83275 c -0.2460938,0.375 -0.46875,0.55078125 -0.87890625,0.5859375 -0.0703125,0 -0.1640625,0 -0.1640625,0.140625 0,0.08203125 0.0585938,0.10546875 0.09375,0.10546875 0.1875,0 0.41015625,-0.0234375 0.59765625,-0.0234375 0.2226562,0 0.515625,0.0234375 0.7265625,0.0234375 0.035156,0 0.140625,0 0.140625,-0.15234375 0,-0.09375 -0.09375,-0.09375 -0.1289063,-0.09375 C 1.7811562,-0.25853125 1.5233437,-0.27025 1.5233437,-0.45775 c 0,-0.0820313 0.070312,-0.2109375 0.1054688,-0.26953125 l 0.5625,-0.86718745 H 4.1835 l 0.1640625,1.1601562 c -0.023437,0.0703125 -0.070312,0.1875 -0.4804688,0.1875 -0.082031,0 -0.1757812,0 -0.1757812,0.15234375 0,0.0234375 0.023437,0.09375 0.1054687,0.09375 0.2109375,0 0.703125,-0.0234375 0.9023438,-0.0234375 0.1289062,0 0.28125,0 0.4101562,0 0.1289063,0.01171875 0.2695313,0.0234375 0.3984375,0.0234375 0.09375,0 0.140625,-0.05859375 0.140625,-0.140625 0,-0.10546875 -0.082031,-0.10546875 -0.1992187,-0.10546875 -0.3984375,0 -0.4101563,-0.0585938 -0.4335938,-0.22265625 L 4.3944375,-4.7819687 c -0.011719,-0.140625 -0.035156,-0.1875 -0.1640625,-0.1875 -0.1289063,0 -0.1757813,0.058594 -0.234375,0.1523437 z m 0.9140625,-1.0078125 1.4648437,-2.2851562 0.328125,2.2851562 z m 0,0"
         style="fill:#000000;fill-opacity:1;fill-rule:nonzero;stroke:none" />
      <path
         id="path3"
         d="m 10.65518,-3.4753281 c 0,-0.09375 -0.04687,-0.09375 -0.105469,-0.09375 -0.07031,0 -0.09375,0.023437 -0.105469,0.09375 -0.01172,0.28125 -0.199219,0.4101562 -0.363281,0.4101562 -0.3398438,0 -0.3867188,-0.375 -0.4335938,-0.6914062 -0.011719,-0.140625 -0.035156,-0.3398438 -0.046875,-0.3984375 -0.082031,-0.2929688 -0.3398438,-0.46875 -0.6328125,-0.5507813 0.3164062,-0.082031 0.9257812,-0.328125 0.9257812,-0.7851562 0,-0.515625 -0.7734375,-0.9140625 -1.59375,-0.9140625 H 6.4129922 v 0.2109375 h 0.1523437 c 0.3984375,0 0.3984375,0.058594 0.3984375,0.2109375 v 2.5546875 c 0,0.1523437 0,0.1992187 -0.3984375,0.1992187 H 6.4129922 v 0.2226563 l 0.8085937,-0.023437 0.8085938,0.023437 V -3.2292344 H 7.8778359 c -0.3984375,0 -0.3984375,-0.046875 -0.3984375,-0.1992187 v -1.1953125 h 0.7617188 c 0.2695312,0 0.5039062,0.070312 0.65625,0.1992187 0.1875,0.1523438 0.1875,0.2695313 0.1875,0.5625 0,0.3867188 0,0.5742188 0.2578125,0.7734375 0.1992187,0.1523438 0.4921875,0.1875 0.7031253,0.1875 0.480468,0 0.609375,-0.4101562 0.609375,-0.5742187 z m -1.3476566,-2.015625 c 0,0.5742187 -0.5625,0.703125 -1.0664062,0.703125 H 7.4793984 v -1.2070313 c 0,-0.1523437 0.011719,-0.1757812 0.1523438,-0.1992187 h 0.3515625 c 0.5625,0 1.3242187,0 1.3242187,0.703125 z m 0,0"
         style="fill:#000000;fill-opacity:1;fill-rule:nonzero;stroke:none" />
      <path
         id="path4"
         d="m 8.1825234,-1.4274766 c 0,0 0.023437,-0.023437 0.023437,-0.046875 0,-0.023437 -0.011719,-0.070312 -0.09375,-0.070312 -0.09375,0 -1.3710937,0.79687504 -1.3710937,2.49609379 0,1.68750001 1.2773437,2.48437501 1.3710937,2.48437501 0.082031,0 0.09375,-0.046875 0.09375,-0.070312 0,-0.035156 -0.023437,-0.046875 -0.046875,-0.058594 C 7.2801797,2.6037734 7.1161172,1.5959609 7.1161172,0.95142969 c 0,-1.21875 0.5742187,-2.02734379 1.0664062,-2.37890629 z m 0,0"
         style="fill:#000000;fill-opacity:1;fill-rule:nonzero;stroke:none" />
      <path
         id="path5"
         d="m 11.372953,1.7600234 c -0.02344,0.1054688 -0.07031,0.28125 -0.07031,0.3164063 0,0.1054687 0.09375,0.1757812 0.1875,0.1757812 0.07031,0 0.1875,-0.046875 0.234375,-0.1640625 0.01172,-0.023437 0.07031,-0.2578125 0.09375,-0.3984375 0.175781,-0.6679687 0.175781,-0.6796875 0.1875,-0.69140621 0.05859,-0.140625 0.421875,-0.83203125 1.03125,-0.83203125 0.234375,0 0.339843,0.12890625 0.339843,0.3515625 0,0.28125 -0.199218,0.79687496 -0.316406,1.07812496 -0.02344,0.070312 -0.05859,0.1289063 -0.05859,0.2109375 0,0.2578125 0.257813,0.4453125 0.550782,0.4453125 0.527343,0 0.808593,-0.65625 0.808593,-0.7734375 0,-0.070312 -0.09375,-0.070312 -0.105468,-0.070312 -0.08203,0 -0.09375,0.023437 -0.117188,0.1171875 -0.105469,0.2929688 -0.328125,0.5507813 -0.5625,0.5507813 -0.117187,0 -0.152344,-0.082031 -0.152344,-0.1875 0,-0.1054688 0.01172,-0.1523438 0.05859,-0.2578125 0.09375,-0.1992188 0.316406,-0.77343751 0.316406,-1.04296876 0,-0.375 -0.257812,-0.59765625 -0.738281,-0.59765625 -0.457031,0 -0.785156,0.28125 -0.984375,0.55078125 -0.04687,-0.50390625 -0.539062,-0.55078125 -0.738281,-0.55078125 -0.492188,0 -0.773438,0.3046875 -0.949219,0.4921875 -0.02344,-0.43359375 -0.4804686,-0.4921875 -0.5976561,-0.4921875 -0.5039063,0 -0.6445313,0.76171875 -0.6445313,0.7734375 0,0.0703125 0.070312,0.0703125 0.1054688,0.0703125 0.082031,0 0.09375,-0.0351563 0.1054687,-0.09375 0.082031,-0.29296875 0.1992188,-0.57421875 0.3984375,-0.57421875 0.1757813,0 0.2109375,0.15234375 0.2109375,0.2578125 0,0.0703125 -0.046875,0.2578125 -0.082031,0.38671875 -0.035156,0.140625 -0.082031,0.33984371 -0.1054688,0.45703121 L 9.6620156,1.7014297 c -0.035156,0.1289062 -0.082031,0.3515625 -0.082031,0.375 0,0.1054687 0.082031,0.1757812 0.1757812,0.1757812 0.082031,0 0.1875,-0.046875 0.2460932,-0.1640625 0,-0.023437 0.05859,-0.2578125 0.09375,-0.3984375 0.02344,-0.070312 0.07031,-0.2929687 0.09375,-0.3398437 0.02344,-0.1054688 0.04687,-0.2226563 0.07031,-0.328125 0.01172,-0.0234375 0.1875,-0.38671876 0.433594,-0.59765626 0.08203,-0.0703125 0.292968,-0.2578125 0.621093,-0.2578125 0.246094,0 0.339844,0.140625 0.339844,0.3515625 0,0.1171875 -0.04687,0.31640625 -0.08203,0.46875 z m 4.78125,0.3632813 c 0,0.4804687 -0.257812,0.75 -0.398437,0.8671875 -0.04687,0.035156 -0.05859,0.046875 -0.05859,0.082031 0,0.023437 0.04687,0.082031 0.09375,0.082031 0.05859,0 0.527344,-0.3867188 0.527344,-1.0078125 0,-0.3398438 -0.152344,-0.5625 -0.375,-0.5625 -0.1875,0 -0.304688,0.1523437 -0.304688,0.3046875 0,0.1640625 0.117188,0.3046875 0.304688,0.3046875 0.08203,0 0.152343,-0.023437 0.210937,-0.070312 z m 2.90332,-3.03515626 c 0,-0.11718754 -0.08203,-0.21093754 -0.210937,-0.21093754 -0.140625,0 -0.304688,0.12890629 -0.304688,0.29296879 0,0.140625 0.105469,0.2109375 0.210938,0.2109375 0.164062,0 0.304687,-0.140625 0.304687,-0.29296875 z m 0.234375,2.39062496 c 0,-0.070312 -0.08203,-0.070312 -0.105468,-0.070312 -0.08203,0 -0.08203,0.023437 -0.117188,0.1171875 -0.08203,0.2695313 -0.304687,0.5507813 -0.550781,0.5507813 -0.117188,0 -0.152344,-0.082031 -0.152344,-0.1875 0,-0.1054688 0.02344,-0.1640625 0.05859,-0.2578125 0.04687,-0.09375 0.08203,-0.1992188 0.105469,-0.2695313 0.02344,-0.035156 0.222656,-0.50390621 0.28125,-0.67968746 0.04687,-0.10546875 0.07031,-0.1640625 0.07031,-0.24609375 0,-0.24609375 -0.222656,-0.4453125 -0.539062,-0.4453125 -0.527344,0 -0.796875,0.64453125 -0.796875,0.7734375 0,0.0703125 0.07031,0.0703125 0.105468,0.0703125 0.08203,0 0.08203,-0.0234375 0.105469,-0.10546875 0.117188,-0.3515625 0.351563,-0.5625 0.5625,-0.5625 0.09375,0 0.152344,0.046875 0.152344,0.1875 0,0.0117188 0,0.0820313 -0.02344,0.17578125 -0.03516,0.09375 -0.257812,0.62109371 -0.328125,0.79687501 -0.03516,0.082031 -0.03516,0.09375 -0.117187,0.2578125 -0.02344,0.070312 -0.04687,0.140625 -0.04687,0.2226562 0,0.2578125 0.234375,0.4453125 0.539062,0.4453125 0.515625,0 0.796875,-0.65625 0.796875,-0.7734375 z m 0,0"
         style="fill:#000000;fill-opacity:1;fill-rule:nonzero;stroke:none" />
      <path
         id="path6"
         d="m 21.694242,0.95142969 c 0,-1.6875 -1.277344,-2.49609379 -1.382812,-2.49609379 -0.07031,0 -0.07031,0.058594 -0.07031,0.070312 0,0.011719 0,0.035156 0.02344,0.070312 0.75,0.58593754 1.042968,1.45312504 1.042968,2.35546879 0,0.44531251 -0.08203,0.91406251 -0.246093,1.32421871 -0.246094,0.5625 -0.550782,0.84375 -0.796875,1.0429688 -0.01172,0 -0.02344,0.035156 -0.02344,0.046875 0,0.011719 0,0.070312 0.07031,0.070312 0.105468,0 1.382812,-0.796875 1.382812,-2.48437501 z m 0,0"
         style="fill:#000000;fill-opacity:1;fill-rule:nonzero;stroke:none" />
      <path
         id="path7"
         d="m 16.886625,19.487563 1.207031,-3.1875 h -0.246094 c -0.386718,1.03125 -1.453125,1.710937 -2.589843,2.015625 -0.210938,0.04687 -1.183594,0.304687 -3.105469,0.304687 h -6 l 5.0625,-5.941406 c 0.07031,-0.08203 0.09375,-0.117188 0.09375,-0.164063 0,-0.02344 0,-0.04687 -0.07031,-0.152343 L 6.5975625,6.0227188 H 12.0585 c 1.335937,0 2.238281,0.140625 2.332031,0.1523437 0.539063,0.082031 1.40625,0.2578125 2.191406,0.75 0.246094,0.1640625 0.925782,0.609375 1.265625,1.4179688 h 0.246094 L 16.886625,5.54225 H 5.1092812 c -0.2226562,0 -0.234375,0.011719 -0.2695312,0.070312 0,0.035156 0,0.2226563 0,0.328125 l 5.261719,7.207032 -5.1562503,6.046874 C 4.83975,19.3235 4.83975,19.370375 4.83975,19.382094 c 0,0.105469 0.09375,0.105469 0.2695312,0.105469 z m 0,0"
         style="fill:#000000;fill-opacity:1;fill-rule:nonzero;stroke:none" />
      <path
         id="path8"
         d="m -3.5831016,27.216078 c -0.070312,0.234375 -0.2929687,0.609375 -0.65625,0.609375 -0.023437,0 -0.2226562,0 -0.375,-0.09375 0.28125,-0.09375 0.3046875,-0.339844 0.3046875,-0.386719 0,-0.152343 -0.1171875,-0.257812 -0.28125,-0.257812 -0.1875,0 -0.3867187,0.164062 -0.3867187,0.433594 0,0.339843 0.3867187,0.503906 0.7265625,0.503906 0.3164062,0 0.609375,-0.199219 0.7851562,-0.492188 0.1640625,0.363282 0.5507813,0.492188 0.8203125,0.492188 0.8085938,0 1.2304688,-0.867188 1.2304688,-1.066406 0,-0.09375 -0.09375,-0.09375 -0.1054688,-0.09375 -0.1054687,0 -0.1054687,0.03516 -0.140625,0.117187 -0.140625,0.480469 -0.5625,0.84375 -0.9492187,0.84375 -0.28125,0 -0.421875,-0.1875 -0.421875,-0.445312 0,-0.1875 0.1640625,-0.820313 0.3632812,-1.59375 0.1289063,-0.539063 0.4453125,-0.714844 0.6796875,-0.714844 0.011719,0 0.2226563,0 0.375,0.105469 -0.2226562,0.05859 -0.3046875,0.257812 -0.3046875,0.375 0,0.152343 0.1171875,0.257812 0.28125,0.257812 0.1523438,0 0.3867188,-0.128906 0.3867188,-0.421875 0,-0.386719 -0.4453125,-0.503906 -0.7265625,-0.503906 -0.3515625,0 -0.6328125,0.222656 -0.7851563,0.492187 -0.1171875,-0.292968 -0.4453125,-0.492187 -0.8320312,-0.492187 -0.7851563,0 -1.2304688,0.855469 -1.2304688,1.066406 0,0.08203 0.1054688,0.08203 0.1171875,0.08203 0.09375,0 0.1054688,-0.02344 0.140625,-0.117187 0.1757813,-0.539063 0.609375,-0.84375 0.9492188,-0.84375 0.234375,0 0.421875,0.128906 0.421875,0.46875 0,0.128906 -0.082031,0.480469 -0.1523438,0.714844 z m 0,0"
         style="fill:#000000;fill-opacity:1;fill-rule:nonzero;stroke:none" />
      <path
         id="path9"
         d="m 4.5555703,25.610609 c 0.1054688,0 0.2695313,0 0.2695313,-0.175781 0,-0.164062 -0.1757813,-0.164062 -0.2578125,-0.164062 h -4.61718754 c -0.09375,0 -0.2578125,0 -0.2578125,0.164062 0,0.175781 0.15234375,0.175781 0.2578125,0.175781 z m 0.011719,1.535157 c 0.082031,0 0.2578125,0 0.2578125,-0.164063 0,-0.175781 -0.1640625,-0.175781 -0.2695313,-0.175781 h -4.60546874 c -0.10546875,0 -0.2578125,0 -0.2578125,0.175781 0,0.164063 0.1640625,0.164063 0.2578125,0.164063 z m 0,0"
         style="fill:#000000;fill-opacity:1;fill-rule:nonzero;stroke:none" />
      <path
         id="path10"
         d="m 6.7586953,27.122328 c -0.2460937,0.375 -0.46875,0.550781 -0.8789062,0.585938 -0.070312,0 -0.1640625,0 -0.1640625,0.140625 0,0.08203 0.058594,0.105468 0.09375,0.105468 0.1875,0 0.4101562,-0.02344 0.5976562,-0.02344 0.2226563,0 0.515625,0.02344 0.7265625,0.02344 0.035156,0 0.140625,0 0.140625,-0.152343 0,-0.09375 -0.09375,-0.09375 -0.1289062,-0.09375 -0.046875,-0.01172 -0.3046875,-0.02344 -0.3046875,-0.210938 0,-0.08203 0.070312,-0.210937 0.1054687,-0.269531 l 0.5625,-0.867188 h 1.9921875 l 0.1640625,1.160157 c -0.023437,0.07031 -0.070312,0.1875 -0.4804687,0.1875 -0.082031,0 -0.1757813,0 -0.1757813,0.152343 0,0.02344 0.023437,0.09375 0.1054688,0.09375 0.2109375,0 0.703125,-0.02344 0.9023439,-0.02344 0.128906,0 0.28125,0 0.410156,0 0.128906,0.01172 0.269531,0.02344 0.398438,0.02344 0.09375,0 0.140625,-0.05859 0.140625,-0.140625 0,-0.105468 -0.08203,-0.105468 -0.199219,-0.105468 -0.398438,0 -0.410156,-0.05859 -0.433594,-0.222657 l -0.6210937,-4.3125 c -0.011719,-0.140625 -0.035156,-0.1875 -0.1640625,-0.1875 -0.1289062,0 -0.1757812,0.05859 -0.234375,0.152344 z m 0.9140625,-1.007812 1.4648438,-2.285157 0.328125,2.285157 z m 0,0"
         style="fill:#000000;fill-opacity:1;fill-rule:nonzero;stroke:none" />
      <path
         id="path11"
         d="m 13.687406,22.575453 c 0.02344,-0.128906 0.05859,-0.164062 0.175781,-0.175781 0.140625,-0.02344 0.246094,-0.02344 0.375,-0.02344 0.152344,0 0.222657,0 0.222657,-0.140625 0,-0.05859 -0.04687,-0.08203 -0.09375,-0.08203 -0.140625,0 -0.269532,0.01172 -0.398438,0.01172 -0.140625,0 -0.28125,0 -0.421875,0 -0.128906,0 -0.257812,0 -0.375,0 -0.117187,0 -0.246094,-0.01172 -0.363281,-0.01172 -0.03516,0 -0.117188,0 -0.117188,0.140625 0,0.08203 0.05859,0.08203 0.175782,0.08203 0.05859,0 0.222656,0 0.328125,0.02344 0,0.05859 0,0.07031 -0.02344,0.128906 l -0.644531,2.613281 c -0.04687,0.140625 -0.04687,0.1875 -0.421875,0.1875 -0.128906,0 -0.210938,0 -0.210938,0.140625 0,0.08203 0.08203,0.08203 0.164063,0.08203 h 2.824219 c 0.128906,0 0.128906,0 0.175781,-0.117188 0.04687,-0.128906 0.445312,-1.125 0.445312,-1.148437 0,-0.03516 -0.02344,-0.09375 -0.105468,-0.09375 -0.07031,0 -0.08203,0.02344 -0.140625,0.152343 -0.257813,0.632813 -0.574219,0.984375 -1.394532,0.984375 h -0.691406 c -0.04687,0 -0.117187,0 -0.164062,-0.01172 0,-0.03516 0,-0.04687 0.01172,-0.09375 z m 0,0"
         style="fill:#000000;fill-opacity:1;fill-rule:nonzero;stroke:none" />
      <path
         id="path12"
         d="m 13.499906,27.019789 c 0,0 0.02344,-0.02344 0.02344,-0.04687 0,-0.02344 -0.01172,-0.07031 -0.09375,-0.07031 -0.09375,0 -1.371094,0.796875 -1.371094,2.496093 0,1.6875 1.277344,2.484375 1.371094,2.484375 0.08203,0 0.09375,-0.04687 0.09375,-0.07031 0,-0.03516 -0.02344,-0.04687 -0.04687,-0.05859 -0.878907,-0.703125 -1.042969,-1.710937 -1.042969,-2.355469 0,-1.21875 0.574219,-2.027343 1.066406,-2.378906 z m 0,0"
         style="fill:#000000;fill-opacity:1;fill-rule:nonzero;stroke:none" />
      <path
         id="path13"
         d="m 16.690336,30.207289 c -0.02344,0.105469 -0.07031,0.28125 -0.07031,0.316406 0,0.105469 0.09375,0.175782 0.1875,0.175782 0.07031,0 0.1875,-0.04687 0.234375,-0.164063 0.01172,-0.02344 0.07031,-0.257812 0.09375,-0.398437 0.175782,-0.667969 0.175782,-0.679688 0.1875,-0.691407 0.05859,-0.140625 0.421875,-0.832031 1.03125,-0.832031 0.234375,0 0.339844,0.128906 0.339844,0.351563 0,0.28125 -0.199219,0.796875 -0.316406,1.078125 -0.02344,0.07031 -0.05859,0.128906 -0.05859,0.210937 0,0.257813 0.257813,0.445313 0.550781,0.445313 0.527344,0 0.808594,-0.65625 0.808594,-0.773438 0,-0.07031 -0.09375,-0.07031 -0.105469,-0.07031 -0.08203,0 -0.09375,0.02344 -0.117187,0.117187 -0.105469,0.292969 -0.328125,0.550781 -0.5625,0.550781 -0.117188,0 -0.152344,-0.08203 -0.152344,-0.1875 0,-0.105468 0.01172,-0.152343 0.05859,-0.257812 0.09375,-0.199219 0.316406,-0.773438 0.316406,-1.042969 0,-0.375 -0.257812,-0.597656 -0.738281,-0.597656 -0.457031,0 -0.785156,0.28125 -0.984375,0.550781 -0.04687,-0.503906 -0.539063,-0.550781 -0.738281,-0.550781 -0.492188,0 -0.773438,0.304687 -0.949219,0.492187 -0.02344,-0.433593 -0.480469,-0.492187 -0.597656,-0.492187 -0.503907,0 -0.644532,0.761719 -0.644532,0.773437 0,0.07031 0.07031,0.07031 0.105469,0.07031 0.08203,0 0.09375,-0.03516 0.105469,-0.09375 0.08203,-0.292969 0.199219,-0.574219 0.398437,-0.574219 0.175782,0 0.210938,0.152344 0.210938,0.257813 0,0.07031 -0.04687,0.257812 -0.08203,0.386718 -0.03516,0.140625 -0.08203,0.339844 -0.105469,0.457032 l -0.117188,0.433593 c -0.03516,0.128907 -0.08203,0.351563 -0.08203,0.375 0,0.105469 0.08203,0.175782 0.175781,0.175782 0.08203,0 0.1875,-0.04687 0.246094,-0.164063 0,-0.02344 0.05859,-0.257812 0.09375,-0.398437 0.02344,-0.07031 0.07031,-0.292969 0.09375,-0.339844 0.02344,-0.105469 0.04687,-0.222656 0.07031,-0.328125 0.01172,-0.02344 0.1875,-0.386719 0.433593,-0.597656 0.08203,-0.07031 0.292969,-0.257813 0.621094,-0.257813 0.246094,0 0.339844,0.140625 0.339844,0.351563 0,0.117187 -0.04687,0.316406 -0.08203,0.46875 z m 4.78125,0.363281 c 0,0.480469 -0.257813,0.75 -0.398438,0.867188 -0.04687,0.03516 -0.05859,0.04687 -0.05859,0.08203 0,0.02344 0.04687,0.08203 0.09375,0.08203 0.05859,0 0.527343,-0.386718 0.527343,-1.007812 0,-0.339844 -0.152343,-0.5625 -0.375,-0.5625 -0.1875,0 -0.304687,0.152344 -0.304687,0.304687 0,0.164063 0.117187,0.304688 0.304687,0.304688 0.08203,0 0.152344,-0.02344 0.210938,-0.07031 z m 2.90332,-3.035156 c 0,-0.117187 -0.08203,-0.210937 -0.210937,-0.210937 -0.140625,0 -0.304688,0.128906 -0.304688,0.292968 0,0.140625 0.105469,0.210938 0.210938,0.210938 0.164062,0 0.304687,-0.140625 0.304687,-0.292969 z m 0.234375,2.390625 c 0,-0.07031 -0.08203,-0.07031 -0.105469,-0.07031 -0.08203,0 -0.08203,0.02344 -0.117187,0.117187 -0.08203,0.269531 -0.304688,0.550781 -0.550781,0.550781 -0.117188,0 -0.152344,-0.08203 -0.152344,-0.1875 0,-0.105468 0.02344,-0.164062 0.05859,-0.257812 0.04687,-0.09375 0.08203,-0.199219 0.105468,-0.269531 0.02344,-0.03516 0.222657,-0.503907 0.28125,-0.679688 0.04687,-0.105469 0.07031,-0.164062 0.07031,-0.246094 0,-0.246093 -0.222656,-0.445312 -0.539063,-0.445312 -0.527343,0 -0.796875,0.644531 -0.796875,0.773437 0,0.07031 0.07031,0.07031 0.105469,0.07031 0.08203,0 0.08203,-0.02344 0.105469,-0.105469 0.117187,-0.351562 0.351562,-0.5625 0.5625,-0.5625 0.09375,0 0.152344,0.04687 0.152344,0.1875 0,0.01172 0,0.08203 -0.02344,0.175781 -0.03516,0.09375 -0.257812,0.621094 -0.328125,0.796875 -0.03516,0.08203 -0.03516,0.09375 -0.117187,0.257813 -0.02344,0.07031 -0.04687,0.140625 -0.04687,0.222656 0,0.257813 0.234375,0.445313 0.539062,0.445313 0.515625,0 0.796875,-0.65625 0.796875,-0.773438 z m 0,0"
         style="fill:#000000;fill-opacity:1;fill-rule:nonzero;stroke:none" />
      <path
         id="path14"
         d="m 27.011625,29.398695 c 0,-1.6875 -1.277344,-2.496093 -1.382813,-2.496093 -0.07031,0 -0.07031,0.05859 -0.07031,0.07031 0,0.01172 0,0.03516 0.02344,0.07031 0.75,0.585937 1.042969,1.453125 1.042969,2.355468 0,0.445313 -0.08203,0.914063 -0.246094,1.324219 -0.246093,0.5625 -0.550781,0.84375 -0.796875,1.042969 -0.01172,0 -0.02344,0.03516 -0.02344,0.04687 0,0.01172 0,0.07031 0.07031,0.07031 0.105469,0 1.382813,-0.796875 1.382813,-2.484375 z m 0,0"
         style="fill:#000000;fill-opacity:1;fill-rule:nonzero;stroke:none" />
      <path
         id="path15"
         d="m 32.944242,11.855727 h 1.6875 c 1.417969,0 2.800781,-1.03125 2.800781,-2.1445317 0,-0.7734375 -0.65625,-1.5117187 -1.96875,-1.5117187 h -3.222656 c -0.1875,0 -0.292969,0 -0.292969,0.1992187 0,0.1171875 0.08203,0.1171875 0.28125,0.1171875 0.128907,0 0.316407,0.011719 0.433594,0.011719 0.152344,0.023437 0.210938,0.058594 0.210938,0.1640625 0,0.035156 0,0.070312 -0.03516,0.1875 l -1.335937,5.3554687 c -0.09375,0.386719 -0.117188,0.46875 -0.902344,0.46875 -0.175781,0 -0.28125,0 -0.28125,0.1875 0,0.117187 0.117188,0.117187 0.152344,0.117187 0.28125,0 0.984375,-0.03516 1.265625,-0.03516 0.210937,0 0.421875,0.01172 0.632812,0.01172 0.222657,0 0.445313,0.02344 0.644532,0.02344 0.07031,0 0.199218,0 0.199218,-0.199218 0,-0.105469 -0.08203,-0.105469 -0.269531,-0.105469 -0.375,0 -0.65625,0 -0.65625,-0.1875 0,-0.05859 0.02344,-0.105469 0.03516,-0.164063 z m 0.714844,-2.9648442 c 0.08203,-0.3515625 0.105469,-0.375 0.539062,-0.375 h 0.949219 c 0.832031,0 1.359375,0.2695313 1.359375,0.9492188 0,0.3984375 -0.199219,1.2539064 -0.585937,1.6054684 -0.503907,0.445313 -1.101563,0.527344 -1.535157,0.527344 h -1.40625 z m 0,0"
         style="fill:#000000;fill-opacity:1;fill-rule:nonzero;stroke:none" />
      <path
         id="path16"
         d="m 41.580961,8.2317031 0.65625,-0.6679687 c 0.902344,-0.8789063 1.171875,-1.1484375 1.792969,-1.1835938 0.09375,-0.011719 0.175781,-0.011719 0.175781,-0.140625 0,-0.09375 -0.07031,-0.1054687 -0.09375,-0.1054687 -0.199219,0 -0.445313,0.023437 -0.65625,0.023437 -0.1875,0 -0.632813,-0.023437 -0.808594,-0.023437 -0.05859,0 -0.140625,0.011719 -0.140625,0.1523437 0,0 0,0.082031 0.105469,0.09375 0.05859,0.011719 0.234375,0.023437 0.234375,0.1757813 0,0.1054687 -0.105469,0.2109375 -0.175781,0.28125 -0.05859,0.046875 -0.9375,0.9140625 -1.195313,1.1835937 L 40.772367,6.6496719 c -0.01172,-0.023437 -0.03516,-0.070312 -0.03516,-0.09375 0,-0.046875 0.128906,-0.1640625 0.363281,-0.1757813 0.05859,0 0.152344,-0.011719 0.152344,-0.1523437 0,-0.011719 -0.01172,-0.09375 -0.117188,-0.09375 -0.152343,0 -0.328125,0.011719 -0.46875,0.011719 -0.152343,0 -0.304687,0.011719 -0.457031,0.011719 -0.117187,0 -0.28125,0 -0.410156,-0.011719 -0.117188,0 -0.269531,-0.011719 -0.375,-0.011719 -0.03516,0 -0.152344,0 -0.152344,0.1523437 0,0.09375 0.09375,0.09375 0.210938,0.09375 0.398437,0 0.433593,0.070312 0.503906,0.2109375 l 0.972656,1.921875 -0.386719,0.3867188 c -0.128906,0.1289062 -0.457031,0.4453125 -0.585937,0.5742187 -0.84375,0.8437504 -1.136719,1.1367184 -1.757813,1.1718754 -0.105468,0 -0.175781,0 -0.175781,0.152343 0,0.02344 0.02344,0.09375 0.09375,0.09375 0.199219,0 0.445313,-0.02344 0.644531,-0.02344 0.128907,0 0.292969,0 0.421875,0 0.117188,0.01172 0.269532,0.02344 0.386719,0.02344 0.03516,0 0.152344,0 0.152344,-0.140625 0,-0.105468 -0.08203,-0.105468 -0.128906,-0.105468 -0.07031,-0.01172 -0.210938,-0.03516 -0.210938,-0.175782 0,-0.117187 0.09375,-0.210937 0.246094,-0.363281 l 1.40625,-1.3828124 0.84375,1.6523434 c 0.03516,0.07031 0.04687,0.08203 0.04687,0.09375 0,0.03516 -0.128906,0.152344 -0.375,0.175782 -0.05859,0 -0.152344,0 -0.152344,0.152343 0,0 0.01172,0.09375 0.117188,0.09375 0.152343,0 0.328125,-0.02344 0.46875,-0.02344 0.152343,0 0.304687,0 0.457031,0 0.117187,0 0.28125,0 0.410156,0 0.117188,0.01172 0.269531,0.02344 0.375,0.02344 0.03516,0 0.152344,0 0.152344,-0.152343 0,-0.09375 -0.09375,-0.09375 -0.210938,-0.09375 -0.398437,0 -0.433593,-0.08203 -0.492187,-0.199219 z m 0,0"
         style="fill:#000000;fill-opacity:1;fill-rule:nonzero;stroke:none" />
      <path
         id="path17"
         d="m 38.791898,12.491469 c -1.324218,0.925781 -1.675781,2.414062 -1.675781,3.480469 0,0.984375 0.292969,2.507812 1.675781,3.480468 0.05859,0 0.140625,0 0.140625,-0.08203 0,-0.04687 -0.02344,-0.05859 -0.07031,-0.105469 -0.925781,-0.832031 -1.265625,-2.015625 -1.265625,-3.292968 0,-1.875 0.714844,-2.800782 1.289062,-3.316407 0.02344,-0.02344 0.04687,-0.04687 0.04687,-0.08203 0,-0.08203 -0.08203,-0.08203 -0.140625,-0.08203 z m 0,0"
         style="fill:#000000;fill-opacity:1;fill-rule:nonzero;stroke:none" />
      <path
         id="path18"
         d="m 42.454008,17.155531 c -0.03516,0.140625 -0.09375,0.375 -0.09375,0.410157 0,0.152343 0.128906,0.222656 0.234375,0.222656 0.128906,0 0.234375,-0.09375 0.269531,-0.152344 0.03516,-0.05859 0.09375,-0.292969 0.128906,-0.433594 0.03516,-0.128906 0.117188,-0.457031 0.152344,-0.632812 0.04687,-0.152344 0.08203,-0.304688 0.117188,-0.457031 0.08203,-0.304688 0.08203,-0.316407 0.222656,-0.539063 0.222656,-0.339844 0.5625,-0.738281 1.113281,-0.738281 0.386719,0 0.410156,0.328125 0.410156,0.492187 0,0.421875 -0.304687,1.195313 -0.410156,1.488282 -0.08203,0.1875 -0.105469,0.257812 -0.105469,0.375 0,0.363281 0.304688,0.597656 0.65625,0.597656 0.703125,0 1.007813,-0.960938 1.007813,-1.066406 0,-0.09375 -0.09375,-0.09375 -0.105469,-0.09375 -0.105469,0 -0.105469,0.04687 -0.140625,0.117187 -0.152344,0.5625 -0.457031,0.84375 -0.738281,0.84375 -0.140625,0 -0.175781,-0.09375 -0.175781,-0.246094 0,-0.152343 0.03516,-0.246093 0.164062,-0.5625 0.08203,-0.210937 0.375,-0.949218 0.375,-1.347656 0,-0.105469 0,-0.398437 -0.257812,-0.597656 -0.128907,-0.09375 -0.328125,-0.1875 -0.65625,-0.1875 -0.621094,0 -1.007813,0.410156 -1.230469,0.703125 -0.05859,-0.597656 -0.550781,-0.703125 -0.902344,-0.703125 -0.585937,0 -0.972656,0.351562 -1.183594,0.632812 -0.04687,-0.480468 -0.457031,-0.632812 -0.75,-0.632812 -0.292968,0 -0.457031,0.210937 -0.550781,0.375 -0.152344,0.257812 -0.246094,0.65625 -0.246094,0.691406 0,0.08203 0.09375,0.08203 0.117188,0.08203 0.09375,0 0.105469,-0.01172 0.152344,-0.199218 0.105468,-0.421875 0.234375,-0.761719 0.515625,-0.761719 0.175781,0 0.222656,0.152344 0.222656,0.339844 0,0.140625 -0.05859,0.398437 -0.105469,0.585937 -0.04687,0.1875 -0.117187,0.46875 -0.152344,0.621094 l -0.222656,0.902344 c -0.03516,0.08203 -0.07031,0.257812 -0.07031,0.28125 0,0.152343 0.117187,0.222656 0.234375,0.222656 0.128906,0 0.234375,-0.09375 0.269531,-0.152344 0.03516,-0.05859 0.09375,-0.292969 0.128906,-0.433594 0.03516,-0.128906 0.105469,-0.457031 0.152344,-0.632812 0.03516,-0.152344 0.08203,-0.304688 0.117187,-0.457031 0.08203,-0.292969 0.09375,-0.351563 0.292969,-0.632813 0.199219,-0.28125 0.527344,-0.644531 1.042969,-0.644531 0.410156,0 0.410156,0.363281 0.410156,0.492187 0,0.175782 -0.01172,0.269532 -0.117187,0.65625 z m 5.516601,0.445313 c 0,0.386719 -0.07031,0.832031 -0.550781,1.277344 -0.02344,0.03516 -0.04687,0.05859 -0.04687,0.09375 0,0.04687 0.05859,0.09375 0.09375,0.09375 0.105469,0 0.691406,-0.5625 0.691406,-1.394532 0,-0.421875 -0.164062,-0.75 -0.480468,-0.75 -0.234375,0 -0.398438,0.175782 -0.398438,0.386719 0,0.234375 0.152344,0.410156 0.398438,0.410156 0.164062,0 0.28125,-0.117187 0.292968,-0.117187 z m 3.149414,-4.242188 c 0,-0.105468 -0.08203,-0.257812 -0.28125,-0.257812 -0.1875,0 -0.386718,0.175781 -0.386718,0.375 0,0.117187 0.08203,0.269531 0.269531,0.269531 0.210937,0 0.398437,-0.199219 0.398437,-0.386719 z m -1.429687,3.539063 c -0.02344,0.09375 -0.05859,0.175781 -0.05859,0.292969 0,0.328125 0.28125,0.597656 0.667969,0.597656 0.691406,0 0.996094,-0.960938 0.996094,-1.066406 0,-0.09375 -0.08203,-0.09375 -0.105469,-0.09375 -0.105469,0 -0.105469,0.04687 -0.140625,0.117187 -0.152344,0.5625 -0.457031,0.84375 -0.738281,0.84375 -0.140625,0 -0.175782,-0.08203 -0.175782,-0.246094 0,-0.152343 0.05859,-0.292968 0.117188,-0.445312 0.07031,-0.1875 0.140625,-0.375 0.222656,-0.550781 0.05859,-0.164063 0.316406,-0.808594 0.339844,-0.890625 0.02344,-0.07031 0.04687,-0.152344 0.04687,-0.222657 0,-0.328125 -0.28125,-0.585937 -0.667969,-0.585937 -0.691406,0 -1.007812,0.949219 -1.007812,1.066406 0,0.08203 0.09375,0.08203 0.117187,0.08203 0.09375,0 0.105469,-0.03516 0.128906,-0.105468 0.175782,-0.597657 0.480469,-0.855469 0.738282,-0.855469 0.117187,0 0.175781,0.05859 0.175781,0.246094 0,0.164062 -0.03516,0.269531 -0.210938,0.703125 z m 3.462891,0.703125 c 0,0.386719 -0.07031,0.832031 -0.550782,1.277344 -0.02344,0.03516 -0.04687,0.05859 -0.04687,0.09375 0,0.04687 0.05859,0.09375 0.09375,0.09375 0.105469,0 0.691407,-0.5625 0.691407,-1.394532 0,-0.421875 -0.164063,-0.75 -0.480469,-0.75 -0.234375,0 -0.398438,0.175782 -0.398438,0.386719 0,0.234375 0.152344,0.410156 0.398438,0.410156 0.164062,0 0.28125,-0.117187 0.292969,-0.117187 z m 0,0"
         style="fill:#000000;fill-opacity:1;fill-rule:nonzero;stroke:none" />
      <path
         id="path19"
         d="m 57.650297,15.491469 c 0,-0.761719 -0.09375,-1.3125 -0.410156,-1.804688 -0.222657,-0.316406 -0.644532,-0.597656 -1.207032,-0.597656 -1.617187,0 -1.617187,1.898438 -1.617187,2.402344 0,0.503906 0,2.367187 1.617187,2.367187 1.617188,0 1.617188,-1.863281 1.617188,-2.367187 z m -1.617188,2.167969 c -0.316406,0 -0.75,-0.1875 -0.890625,-0.761719 -0.09375,-0.410156 -0.09375,-0.984375 -0.09375,-1.5 0,-0.503906 0,-1.03125 0.105469,-1.417969 0.152344,-0.550781 0.597656,-0.691406 0.878906,-0.691406 0.375,0 0.738282,0.222656 0.867188,0.632812 0.105469,0.375 0.117187,0.878907 0.117187,1.476563 0,0.515625 0,1.042969 -0.09375,1.476562 -0.140625,0.632813 -0.609375,0.785157 -0.890625,0.785157 z m 2.619141,-5.167969 c -0.05859,0 -0.140625,0 -0.140625,0.08203 0,0.03516 0.02344,0.05859 0.07031,0.105469 0.597657,0.550781 1.265625,1.488281 1.265625,3.292969 0,1.453125 -0.457031,2.554687 -1.207031,3.234375 -0.117187,0.117187 -0.128906,0.128906 -0.128906,0.164062 0,0.03516 0.02344,0.08203 0.09375,0.08203 0.08203,0 0.75,-0.457031 1.207031,-1.324218 0.304688,-0.585938 0.503906,-1.335938 0.503906,-2.15625 0,-0.984375 -0.292968,-2.507813 -1.664062,-3.480469 z m 0,0"
         style="fill:#000000;fill-opacity:1;fill-rule:nonzero;stroke:none" />
      <path
         id="path20"
         d="m 62.613187,17.600844 c 0,0.386719 -0.07031,0.832031 -0.550781,1.277344 -0.02344,0.03516 -0.04687,0.05859 -0.04687,0.09375 0,0.04687 0.05859,0.09375 0.09375,0.09375 0.105469,0 0.691406,-0.5625 0.691406,-1.394532 0,-0.421875 -0.164062,-0.75 -0.480468,-0.75 -0.234375,0 -0.398438,0.175782 -0.398438,0.386719 0,0.234375 0.152344,0.410156 0.398438,0.410156 0.164062,0 0.28125,-0.117187 0.292968,-0.117187 z m 2.622071,-0.621094 c -0.07031,0.234375 -0.292969,0.609375 -0.65625,0.609375 -0.02344,0 -0.222656,0 -0.375,-0.09375 0.28125,-0.09375 0.304687,-0.339844 0.304687,-0.386719 0,-0.152343 -0.117187,-0.257812 -0.28125,-0.257812 -0.1875,0 -0.386718,0.164062 -0.386718,0.433594 0,0.339843 0.386718,0.503906 0.726562,0.503906 0.316406,0 0.609375,-0.199219 0.785156,-0.492188 0.164063,0.363282 0.550782,0.492188 0.820313,0.492188 0.808594,0 1.230469,-0.867188 1.230469,-1.066406 0,-0.09375 -0.09375,-0.09375 -0.105469,-0.09375 -0.105469,0 -0.105469,0.03516 -0.140625,0.117187 -0.140625,0.480469 -0.5625,0.84375 -0.949219,0.84375 -0.28125,0 -0.421875,-0.1875 -0.421875,-0.445312 0,-0.1875 0.164063,-0.820313 0.363281,-1.59375 0.128907,-0.539063 0.445313,-0.714844 0.679688,-0.714844 0.01172,0 0.222656,0 0.375,0.105469 -0.222656,0.05859 -0.304688,0.257812 -0.304688,0.375 0,0.152343 0.117188,0.257812 0.28125,0.257812 0.152344,0 0.386719,-0.128906 0.386719,-0.421875 0,-0.386719 -0.445312,-0.503906 -0.726562,-0.503906 -0.351563,0 -0.632813,0.222656 -0.785157,0.492187 -0.117187,-0.292968 -0.445312,-0.492187 -0.832031,-0.492187 -0.785156,0 -1.230469,0.855469 -1.230469,1.066406 0,0.08203 0.105469,0.08203 0.117188,0.08203 0.09375,0 0.105469,-0.02344 0.140625,-0.117187 0.175781,-0.539063 0.609375,-0.84375 0.949219,-0.84375 0.234375,0 0.421875,0.128906 0.421875,0.46875 0,0.128906 -0.08203,0.480469 -0.152344,0.714844 z m 0,0"
         style="fill:#000000;fill-opacity:1;fill-rule:nonzero;stroke:none" />
      <path
         id="path21"
         d="m 78.128812,11.750258 c 0.152344,0 0.339844,0 0.339844,-0.199219 0,-0.199219 -0.1875,-0.199219 -0.328125,-0.199219 h -5.964844 c -0.140625,0 -0.328125,0 -0.328125,0.199219 0,0.199219 0.1875,0.199219 0.339844,0.199219 z m 0.01172,1.933594 c 0.140625,0 0.328125,0 0.328125,-0.199219 0,-0.199219 -0.1875,-0.199219 -0.339844,-0.199219 h -5.941406 c -0.152344,0 -0.339844,0 -0.339844,0.199219 0,0.199219 0.1875,0.199219 0.328125,0.199219 z M 84.71768,8.6330703 c 0,-0.234375 0,-0.2578125 -0.234375,-0.2578125 -0.609375,0.6328125 -1.488282,0.6328125 -1.804688,0.6328125 v 0.3164063 c 0.199219,0 0.785156,0 1.300781,-0.2578125 v 5.1562499 c 0,0.351563 -0.03516,0.480469 -0.925781,0.480469 h -0.316406 v 0.304687 c 0.351562,-0.03516 1.207031,-0.03516 1.605469,-0.03516 0.398437,0 1.265625,0 1.617187,0.03516 v -0.304687 h -0.316406 c -0.902344,0 -0.925781,-0.117188 -0.925781,-0.480469 z m 0,0"
         style="fill:#000000;fill-opacity:1;fill-rule:nonzero;stroke:none" />
      <path
         id="path22"
         d="m 88.810453,14.996352 c 0,-0.65625 -0.257812,-1.042969 -0.644531,-1.042969 -0.328125,0 -0.527344,0.246094 -0.527344,0.527344 0,0.269531 0.199219,0.527343 0.527344,0.527343 0.117187,0 0.246094,-0.03516 0.351562,-0.128906 0.02344,-0.02344 0.03516,-0.03516 0.04687,-0.03516 0.01172,0 0.02344,0.01172 0.02344,0.152344 0,0.738281 -0.351563,1.335937 -0.679688,1.664062 -0.105468,0.105469 -0.105468,0.128906 -0.105468,0.164063 0,0.07031 0.04687,0.105468 0.09375,0.105468 0.117187,0 0.914062,-0.761718 0.914062,-1.933593 z m 0,0"
         style="fill:#000000;fill-opacity:1;fill-rule:nonzero;stroke:none" />
      <path
         id="path23"
         d="m 96.694242,8.4690078 c 0.05859,-0.1054687 0.05859,-0.1289062 0.05859,-0.1757812 0,-0.09375 -0.08203,-0.1992188 -0.199219,-0.1992188 -0.128906,0 -0.199219,0.1171875 -0.234375,0.234375 L 95.49893,10.519789 H 92.463773 L 91.643461,8.3283828 c -0.05859,-0.140625 -0.105469,-0.234375 -0.234375,-0.234375 -0.09375,0 -0.199219,0.1054688 -0.199219,0.1992188 0,0.023437 0,0.035156 0.05859,0.1757812 l 2.484375,6.5273442 c 0.04687,0.140625 0.09375,0.234375 0.222656,0.234375 0.140625,0 0.1875,-0.117188 0.222656,-0.210938 z m -4.066406,2.4492192 h 2.707031 l -1.359375,3.539062 z m 0,0"
         style="fill:#000000;fill-opacity:1;fill-rule:nonzero;stroke:none" />
      <path
         id="path24"
         d="m 100.03995,17.398695 c 0,-0.03516 0,-0.04687 -0.164067,-0.222656 -1.242188,-1.253906 -1.570313,-3.128906 -1.570313,-4.664062 0,-1.722657 0.386719,-3.4570317 1.605469,-4.7109379 0.128911,-0.1171875 0.128911,-0.1289063 0.128911,-0.1640625 0,-0.070312 -0.0352,-0.1054688 -0.09376,-0.1054688 -0.105468,0 -0.996093,0.6796875 -1.582031,1.9453125 -0.515625,1.1015627 -0.632812,2.2031247 -0.632812,3.0351567 0,0.785156 0.117187,1.992187 0.65625,3.117187 0.597656,1.21875 1.453125,1.875 1.558593,1.875 0.05859,0 0.09376,-0.03516 0.09376,-0.105469 z m 0,0"
         style="fill:#000000;fill-opacity:1;fill-rule:nonzero;stroke:none" />
      <path
         id="path25"
         d="m 101.49893,14.422133 c -0.0352,0.152344 -0.0937,0.375 -0.0937,0.421875 0,0.1875 0.14062,0.269531 0.29297,0.269531 0.11719,0 0.29297,-0.07031 0.36328,-0.269531 0.0117,-0.02344 0.12891,-0.492188 0.1875,-0.738281 l 0.22266,-0.902344 c 0.0586,-0.222656 0.11718,-0.433594 0.17578,-0.667969 0.0352,-0.164062 0.11718,-0.457031 0.1289,-0.492187 0.14063,-0.316407 0.66797,-1.21875 1.61719,-1.21875 0.44531,0 0.53906,0.363281 0.53906,0.691406 0,0.257812 -0.0703,0.539062 -0.15234,0.832031 l -0.26953,1.160156 -0.19922,0.75 c -0.0469,0.199219 -0.14063,0.539063 -0.14063,0.585938 0,0.1875 0.14063,0.269531 0.29297,0.269531 0.30469,0 0.375,-0.246094 0.44532,-0.5625 0.14062,-0.5625 0.51562,-2.015625 0.59765,-2.402344 0.0352,-0.128906 0.5625,-1.324218 1.65235,-1.324218 0.42187,0 0.53906,0.339843 0.53906,0.691406 0,0.574219 -0.42188,1.710937 -0.6211,2.238281 -0.0937,0.234375 -0.1289,0.351563 -0.1289,0.550781 0,0.46875 0.35156,0.808594 0.80859,0.808594 0.9375,0 1.3125,-1.453125 1.3125,-1.535156 0,-0.09375 -0.0937,-0.09375 -0.11719,-0.09375 -0.10546,0 -0.10546,0.02344 -0.15234,0.175781 -0.15234,0.527344 -0.46875,1.242188 -1.01953,1.242188 -0.16406,0 -0.23438,-0.105469 -0.23438,-0.328125 0,-0.257813 0.082,-0.492188 0.17579,-0.714844 0.1875,-0.515625 0.60937,-1.617188 0.60937,-2.191406 0,-0.644532 -0.39844,-1.066407 -1.14844,-1.066407 -0.75,0 -1.2539,0.445313 -1.61718,0.972657 -0.0117,-0.128907 -0.0469,-0.46875 -0.32813,-0.714844 -0.24609,-0.199219 -0.5625,-0.257813 -0.80859,-0.257813 -0.90235,0 -1.38282,0.644532 -1.5586,0.867188 -0.0469,-0.5625 -0.46875,-0.867188 -0.91406,-0.867188 -0.45703,0 -0.64453,0.386719 -0.73828,0.574219 -0.17578,0.339844 -0.30469,0.9375 -0.30469,0.960938 0,0.105468 0.0937,0.105468 0.11719,0.105468 0.0937,0 0.10547,-0.01172 0.16406,-0.234375 0.17578,-0.703125 0.375,-1.183593 0.72656,-1.183593 0.16407,0 0.31641,0.08203 0.31641,0.457031 0,0.210937 -0.0352,0.316406 -0.16406,0.832031 z m 9.89648,0.574219 c 0,-0.65625 -0.25781,-1.042969 -0.64453,-1.042969 -0.32812,0 -0.52734,0.246094 -0.52734,0.527344 0,0.269531 0.19922,0.527343 0.52734,0.527343 0.11719,0 0.2461,-0.03516 0.35157,-0.128906 0.0234,-0.02344 0.0352,-0.03516 0.0469,-0.03516 0.0117,0 0.0234,0.01172 0.0234,0.152344 0,0.738281 -0.35156,1.335937 -0.67969,1.664062 -0.10547,0.105469 -0.10547,0.128906 -0.10547,0.164063 0,0.07031 0.0469,0.105468 0.0937,0.105468 0.11719,0 0.91406,-0.761718 0.91406,-1.933593 z m 5.20899,-6.2109379 c 0,-0.1992188 -0.12891,-0.3632813 -0.36328,-0.3632813 -0.26953,0 -0.53907,0.2578125 -0.53907,0.5273438 0,0.1875 0.14063,0.3632812 0.375,0.3632812 0.23438,0 0.52735,-0.234375 0.52735,-0.5273437 z m -0.75,3.7382809 c 0.11719,-0.28125 0.11719,-0.304687 0.22265,-0.574218 0.0703,-0.199219 0.12891,-0.339844 0.12891,-0.527344 0,-0.445313 -0.32812,-0.820313 -0.82031,-0.820313 -0.9375,0 -1.3125,1.453125 -1.3125,1.535157 0,0.105468 0.0937,0.105468 0.11719,0.105468 0.0937,0 0.10546,-0.02344 0.15234,-0.1875 0.26953,-0.9375 0.66797,-1.230468 1.00781,-1.230468 0.082,0 0.25781,0 0.25781,0.316406 0,0.210937 -0.0703,0.421875 -0.11718,0.515625 -0.082,0.257812 -0.52735,1.417969 -0.67969,1.851562 -0.10547,0.257813 -0.23438,0.585938 -0.23438,0.796875 0,0.46875 0.33985,0.808594 0.82032,0.808594 0.9375,0 1.30078,-1.441406 1.30078,-1.535156 0,-0.09375 -0.0937,-0.09375 -0.11719,-0.09375 -0.10547,0 -0.10547,0.02344 -0.15234,0.175781 -0.17578,0.632813 -0.50391,1.242188 -1.01953,1.242188 -0.16407,0 -0.23438,-0.105469 -0.23438,-0.328125 0,-0.257813 0.0586,-0.398438 0.29297,-0.996094 z m 0,0"
         style="fill:#000000;fill-opacity:1;fill-rule:nonzero;stroke:none" />
      <path
         id="path26"
         d="m 120.11123,12.511977 c 0,-0.773438 -0.11718,-1.980469 -0.65625,-3.1054692 -0.59765,-1.21875 -1.46484,-1.875 -1.55859,-1.875 -0.0586,0 -0.10547,0.046875 -0.10547,0.1054688 0,0.035156 0,0.046875 0.19922,0.234375 0.97266,0.984375 1.53516,2.5664064 1.53516,4.6406254 0,1.710937 -0.36328,3.457031 -1.59375,4.722656 -0.14063,0.117187 -0.14063,0.128906 -0.14063,0.164062 0,0.05859 0.0469,0.105469 0.10547,0.105469 0.0937,0 0.99609,-0.679687 1.58203,-1.945312 0.50391,-1.101563 0.63281,-2.203125 0.63281,-3.046875 z m 0,0"
         style="fill:#000000;fill-opacity:1;fill-rule:nonzero;stroke:none" />
      <path
         id="path27"
         d="m 129.33096,12.711195 c 0.16406,0 0.35156,0 0.35156,-0.199218 0,-0.199219 -0.1875,-0.199219 -0.35156,-0.199219 h -4.23047 c 0.12891,-1.324219 1.26563,-2.285156 2.67188,-2.285156 h 1.55859 c 0.16406,0 0.35156,0 0.35156,-0.1992192 0,-0.1992187 -0.1875,-0.1992187 -0.35156,-0.1992187 h -1.57031 c -1.71094,0 -3.0586,1.2890629 -3.0586,2.8828129 0,1.59375 1.34766,2.894531 3.0586,2.894531 h 1.57031 c 0.16406,0 0.35156,0 0.35156,-0.199219 0,-0.199219 -0.1875,-0.199219 -0.35156,-0.199219 h -1.55859 c -1.40625,0 -2.54297,-0.960937 -2.67188,-2.296875 z m 0,0"
         style="fill:#000000;fill-opacity:1;fill-rule:nonzero;stroke:none" />
      <path
         id="path28"
         d="m 137.00381,8.9846328 c 0.0937,-0.3632812 0.11719,-0.46875 1.05469,-0.46875 0.30469,0 0.375,0 0.375,-0.1875 0,-0.1289062 -0.10547,-0.1289062 -0.15234,-0.1289062 -0.32813,0 -1.14844,0.035156 -1.47657,0.035156 -0.30468,0 -1.03125,-0.035156 -1.32422,-0.035156 -0.0703,0 -0.1875,0 -0.1875,0.1992187 0,0.1171875 0.082,0.1171875 0.28125,0.1171875 0.0117,0 0.19922,0 0.375,0.011719 0.17579,0.023437 0.26954,0.035156 0.26954,0.1640625 0,0.035156 -0.0117,0.070312 -0.0469,0.1875 l -1.33594,5.3554687 c -0.0937,0.386719 -0.11718,0.46875 -0.90234,0.46875 -0.16406,0 -0.26953,0 -0.26953,0.199219 0,0.105468 0.0937,0.105468 0.26953,0.105468 h 4.61719 c 0.23437,0 0.24609,0 0.30468,-0.164062 l 0.78516,-2.15625 c 0.0469,-0.105469 0.0469,-0.128906 0.0469,-0.140625 0,-0.03516 -0.0352,-0.105469 -0.12891,-0.105469 -0.082,0 -0.0937,0.04687 -0.16406,0.210938 -0.33985,0.914062 -0.77344,2.050781 -2.4961,2.050781 h -0.9375 c -0.14062,0 -0.16406,0 -0.22265,-0.01172 -0.10547,-0.01172 -0.12891,-0.02344 -0.12891,-0.105469 0,-0.02344 0,-0.04687 0.0469,-0.222656 z m 0,0"
         style="fill:#000000;fill-opacity:1;fill-rule:nonzero;stroke:none" />
    </g>
  </g>
</svg>
