<?xml version="1.0" encoding="UTF-8" standalone="no"?>
<!-- Created with Inkscape (http://www.inkscape.org/) -->

<svg
   version="1.1"
   id="svg1"
   width="170.48438"
   height="18.878906"
   viewBox="0 0 170.48438 18.878906"
   sodipodi:docname="Formulas.pdf"
   xmlns:inkscape="http://www.inkscape.org/namespaces/inkscape"
   xmlns:sodipodi="http://sodipodi.sourceforge.net/DTD/sodipodi-0.dtd"
   xmlns="http://www.w3.org/2000/svg"
   xmlns:svg="http://www.w3.org/2000/svg">
  <defs
     id="defs1" />
  <sodipodi:namedview
     id="namedview1"
     pagecolor="#ffffff"
     bordercolor="#000000"
     borderopacity="0.25"
     inkscape:showpageshadow="2"
     inkscape:pageopacity="0.0"
     inkscape:pagecheckerboard="0"
     inkscape:deskcolor="#d1d1d1" />
  <g
     id="g1"
     inkscape:groupmode="layer"
     inkscape:label="1"
     transform="translate(-442.77734,-113.39453)">
    <g
       id="g2"
       aria-label="P&#10;X&#10;(m,i,3),O&#10;(m,i)&#10;=1,∀(m,i)∈L"
       transform="matrix(1.3333333,0,0,1.3333333,442.24533,125.224)">
      <path
         id="path2"
         d="m 3.0240078,-3.1533516 h 1.6875 c 1.4179688,0 2.8007813,-1.03125 2.8007813,-2.1445312 0,-0.7734375 -0.65625,-1.5117188 -1.96875,-1.5117188 H 2.3208828 c -0.1875,0 -0.2929687,0 -0.2929687,0.1992188 0,0.1171875 0.082031,0.1171875 0.28125,0.1171875 0.1289062,0 0.3164062,0.011719 0.4335937,0.011719 0.1523438,0.023437 0.2109375,0.058594 0.2109375,0.1640625 0,0.035156 0,0.070312 -0.035156,0.1875 l -1.3359375,5.35546879 c -0.09375,0.38671875 -0.1171875,0.46875 -0.90234379,0.46875 -0.17578125,0 -0.28125,0 -0.28125,0.1875 0,0.1171875 0.1171875,0.1171875 0.15234375,0.1171875 0.28125,0 0.98437504,-0.03515625 1.26562504,-0.03515625 0.2109375,0 0.421875,0.01171875 0.6328125,0.01171875 0.2226562,0 0.4453125,0.0234375 0.6445312,0.0234375 0.070312,0 0.1992188,0 0.1992188,-0.19921875 0,-0.10546875 -0.082031,-0.10546875 -0.2695313,-0.10546875 -0.375,0 -0.65625,0 -0.65625,-0.1875 0,-0.0585938 0.023437,-0.10546875 0.035156,-0.1640625 z m 0.7148438,-2.9648437 c 0.082031,-0.3515625 0.1054687,-0.375 0.5390625,-0.375 h 0.9492187 c 0.8320313,0 1.359375,0.2695312 1.359375,0.9492187 0,0.3984375 -0.1992187,1.2539063 -0.5859375,1.6054688 -0.5039062,0.4453125 -1.1015625,0.5273437 -1.5351562,0.5273437 h -1.40625 z m 0,0"
         style="fill:#000000;fill-opacity:1;fill-rule:nonzero;stroke:none" />
      <path
         id="path3"
         d="m 11.657797,-6.7744453 0.65625,-0.6679688 c 0.902344,-0.8789062 1.171875,-1.1484375 1.792969,-1.1835937 0.09375,-0.011719 0.175781,-0.011719 0.175781,-0.140625 0,-0.09375 -0.07031,-0.1054688 -0.09375,-0.1054688 -0.199219,0 -0.445313,0.023437 -0.65625,0.023437 -0.1875,0 -0.632813,-0.023437 -0.808594,-0.023437 -0.05859,0 -0.140625,0.011719 -0.140625,0.1523438 0,0 0,0.082031 0.105469,0.09375 0.05859,0.011719 0.234375,0.023437 0.234375,0.1757812 0,0.1054688 -0.105469,0.2109375 -0.175781,0.28125 -0.05859,0.046875 -0.9375,0.9140625 -1.195313,1.1835938 l -0.703125,-1.3710938 c -0.01172,-0.023437 -0.03516,-0.070312 -0.03516,-0.09375 0,-0.046875 0.128906,-0.1640625 0.363281,-0.1757812 0.05859,0 0.152344,-0.011719 0.152344,-0.1523438 0,-0.011719 -0.01172,-0.09375 -0.117188,-0.09375 -0.152343,0 -0.328125,0.011719 -0.46875,0.011719 -0.152343,0 -0.304687,0.011719 -0.457031,0.011719 -0.117187,0 -0.28125,0 -0.4101561,-0.011719 -0.1171875,0 -0.2695313,-0.011719 -0.375,-0.011719 -0.035156,0 -0.1523438,0 -0.1523438,0.1523438 0,0.09375 0.09375,0.09375 0.2109375,0.09375 0.3984375,0 0.4335938,0.070312 0.5039064,0.2109375 l 0.972656,1.921875 -0.386719,0.3867187 c -0.128906,0.1289063 -0.457031,0.4453125 -0.585937,0.5742188 -0.8437501,0.84375 -1.1367189,1.1367187 -1.7578126,1.171875 -0.1054688,0 -0.1757813,0 -0.1757813,0.1523437 0,0.023437 0.023437,0.09375 0.09375,0.09375 0.1992188,0 0.4453125,-0.023437 0.6445313,-0.023437 0.1289062,0 0.2929687,0 0.421875,0 0.1171875,0.011719 0.2695312,0.023437 0.3867187,0.023437 0.035156,0 0.1523438,0 0.1523438,-0.140625 0,-0.1054687 -0.082031,-0.1054687 -0.1289063,-0.1054687 -0.070312,-0.011719 -0.2109375,-0.035156 -0.2109375,-0.1757813 0,-0.1171875 0.09375,-0.2109375 0.2460938,-0.3632812 l 1.4062501,-1.3828125 0.84375,1.6523437 c 0.03516,0.070312 0.04687,0.082031 0.04687,0.09375 0,0.035156 -0.128906,0.1523438 -0.375,0.1757813 -0.05859,0 -0.152344,0 -0.152344,0.1523437 0,0 0.01172,0.09375 0.117188,0.09375 0.152343,0 0.328125,-0.023437 0.46875,-0.023437 0.152343,0 0.304687,0 0.457031,0 0.117187,0 0.28125,0 0.410156,0 0.117188,0.011719 0.269531,0.023437 0.375,0.023437 0.03516,0 0.152344,0 0.152344,-0.1523437 0,-0.09375 -0.09375,-0.09375 -0.210938,-0.09375 -0.398437,0 -0.433593,-0.082031 -0.492187,-0.1992188 z m 0,0"
         style="fill:#000000;fill-opacity:1;fill-rule:nonzero;stroke:none" />
      <path
         id="path4"
         d="m 8.8687344,-2.5146797 c -1.3242188,0.9257813 -1.6757813,2.41406251 -1.6757813,3.48046876 0,0.98437504 0.2929688,2.50781254 1.6757813,3.48046874 0.058594,0 0.140625,0 0.140625,-0.082031 0,-0.046875 -0.023437,-0.058594 -0.070312,-0.1054688 -0.9257813,-0.8320312 -1.265625,-2.015625 -1.265625,-3.29296874 0,-1.875 0.7148437,-2.80078126 1.2890625,-3.31640626 0.023437,-0.023437 0.046875,-0.046875 0.046875,-0.082031 0,-0.082031 -0.082031,-0.082031 -0.1406255,-0.082032 z m 0,0"
         style="fill:#000000;fill-opacity:1;fill-rule:nonzero;stroke:none" />
      <path
         id="path5"
         d="m 12.533773,2.1493828 c -0.03516,0.140625 -0.09375,0.375 -0.09375,0.4101563 0,0.1523437 0.128907,0.2226562 0.234375,0.2226562 0.128907,0 0.234375,-0.09375 0.269532,-0.1523437 0.03516,-0.058594 0.09375,-0.2929688 0.128906,-0.4335938 0.03516,-0.1289062 0.117187,-0.4570312 0.152344,-0.6328125 0.04687,-0.1523437 0.08203,-0.3046875 0.117187,-0.4570312 0.08203,-0.30468754 0.08203,-0.31640629 0.222656,-0.53906254 0.222657,-0.33984375 0.5625,-0.73828125 1.113282,-0.73828125 0.386718,0 0.410156,0.328125 0.410156,0.4921875 0,0.421875 -0.304688,1.19531249 -0.410156,1.48828129 -0.08203,0.1875 -0.105469,0.2578125 -0.105469,0.375 0,0.3632812 0.304687,0.5976562 0.65625,0.5976562 0.703125,0 1.007812,-0.9609375 1.007812,-1.0664062 0,-0.09375 -0.09375,-0.09375 -0.105468,-0.09375 -0.105469,0 -0.105469,0.046875 -0.140625,0.1171875 -0.152344,0.5625 -0.457032,0.84375 -0.738282,0.84375 -0.140625,0 -0.175781,-0.09375 -0.175781,-0.2460938 0,-0.1523437 0.03516,-0.2460937 0.164063,-0.5625 0.08203,-0.2109375 0.375,-0.94921874 0.375,-1.34765624 0,-0.10546875 0,-0.3984375 -0.257813,-0.59765625 -0.128906,-0.09375 -0.328125,-0.1875 -0.65625,-0.1875 -0.621094,0 -1.007812,0.41015625 -1.230469,0.703125 -0.05859,-0.59765625 -0.550781,-0.703125 -0.902343,-0.703125 -0.585938,0 -0.972657,0.3515625 -1.183594,0.6328125 -0.04687,-0.48046875 -0.457031,-0.6328125 -0.75,-0.6328125 -0.292969,0 -0.457031,0.2109375 -0.550781,0.375 -0.1523441,0.2578125 -0.2460941,0.65625 -0.2460941,0.69140625 0,0.0820313 0.09375,0.0820313 0.1171875,0.0820313 0.09375,0 0.1054686,-0.0117188 0.1523436,-0.19921875 0.105469,-0.421875 0.234375,-0.76171875 0.515625,-0.76171875 0.175781,0 0.222656,0.15234375 0.222656,0.33984375 0,0.140625 -0.05859,0.3984375 -0.105468,0.5859375 -0.04687,0.1875 -0.117188,0.46874999 -0.152344,0.62109369 l -0.222656,0.9023439 c -0.03516,0.082031 -0.07031,0.2578125 -0.07031,0.28125 0,0.1523436 0.117188,0.2226561 0.234375,0.2226561 0.128906,0 0.234375,-0.09375 0.269531,-0.1523436 0.03516,-0.058594 0.09375,-0.2929689 0.128907,-0.4335939 0.03516,-0.1289061 0.105468,-0.4570312 0.152343,-0.6328125 0.03516,-0.1523437 0.08203,-0.3046875 0.117188,-0.4570312 0.08203,-0.29296874 0.09375,-0.35156249 0.292969,-0.63281249 0.199218,-0.28125 0.527343,-0.64453125 1.042968,-0.64453125 0.410157,0 0.410157,0.36328125 0.410157,0.4921875 0,0.17578125 -0.01172,0.26953125 -0.117188,0.65625 z m 5.516602,0.4453125 c 0,0.3867188 -0.07031,0.8320313 -0.550781,1.2773438 -0.02344,0.035156 -0.04687,0.058594 -0.04687,0.09375 0,0.046875 0.05859,0.09375 0.09375,0.09375 0.105468,0 0.691406,-0.5625 0.691406,-1.3945313 0,-0.421875 -0.164063,-0.75 -0.480469,-0.75 -0.234375,0 -0.398437,0.1757813 -0.398437,0.3867188 0,0.234375 0.152343,0.4101562 0.398437,0.4101562 0.164063,0 0.28125,-0.1171875 0.292969,-0.1171875 z m 3.149414,-4.2421875 c 0,-0.1054687 -0.08203,-0.2578125 -0.28125,-0.2578125 -0.1875,0 -0.386719,0.1757813 -0.386719,0.375 0,0.1171875 0.08203,0.2695313 0.269532,0.2695313 0.210937,0 0.398437,-0.1992188 0.398437,-0.3867188 z m -1.429687,3.5390625 c -0.02344,0.09375 -0.05859,0.1757813 -0.05859,0.2929688 0,0.328125 0.28125,0.5976562 0.667969,0.5976562 0.691406,0 0.996093,-0.9609375 0.996093,-1.0664062 0,-0.09375 -0.08203,-0.09375 -0.105468,-0.09375 -0.105469,0 -0.105469,0.046875 -0.140625,0.1171875 -0.152344,0.5625 -0.457032,0.84375 -0.738282,0.84375 -0.140625,0 -0.175781,-0.082031 -0.175781,-0.2460938 0,-0.1523437 0.05859,-0.2929687 0.117188,-0.4453125 0.07031,-0.1875 0.140625,-0.375 0.222656,-0.5507812 0.05859,-0.1640625 0.316406,-0.80859379 0.339844,-0.89062504 0.02344,-0.0703125 0.04687,-0.15234375 0.04687,-0.22265625 0,-0.328125 -0.28125,-0.5859375 -0.667969,-0.5859375 -0.691406,0 -1.007813,0.94921875 -1.007813,1.06640625 0,0.0820313 0.09375,0.0820313 0.117188,0.0820313 0.09375,0 0.105469,-0.0351563 0.128906,-0.10546875 0.175781,-0.59765625 0.480469,-0.85546875 0.738281,-0.85546875 0.117188,0 0.175782,0.0585938 0.175782,0.24609375 0,0.1640625 -0.03516,0.26953125 -0.210938,0.703125 z m 3.46289,0.703125 c 0,0.3867188 -0.07031,0.8320313 -0.550781,1.2773438 -0.02344,0.035156 -0.04687,0.058594 -0.04687,0.09375 0,0.046875 0.05859,0.09375 0.09375,0.09375 0.105469,0 0.691406,-0.5625 0.691406,-1.3945313 0,-0.421875 -0.164062,-0.75 -0.480469,-0.75 -0.234375,0 -0.398437,0.1757813 -0.398437,0.3867188 0,0.234375 0.152344,0.4101562 0.398437,0.4101562 0.164063,0 0.28125,-0.1171875 0.292969,-0.1171875 z m 0,0"
         style="fill:#000000;fill-opacity:1;fill-rule:nonzero;stroke:none" />
      <path
         id="path6"
         d="m 26.027914,0.37985156 c 0.550781,0 0.9375,0.375 0.9375,1.12500004 0,0.8671875 -0.503906,1.125 -0.902344,1.125 -0.28125,0 -0.890625,-0.082031 -1.183593,-0.4921875 0.328125,-0.011719 0.398437,-0.2460938 0.398437,-0.3867188 0,-0.2226562 -0.164062,-0.3867187 -0.386719,-0.3867187 -0.1875,0 -0.386718,0.1171875 -0.386718,0.4101562 0,0.65625 0.726562,1.078125 1.570312,1.078125 0.972656,0 1.640625,-0.6445312 1.640625,-1.3476562 0,-0.53906254 -0.445312,-1.08984379 -1.21875,-1.24218754 0.738281,-0.26953125 0.996094,-0.796875 0.996094,-1.21875 0,-0.55078126 -0.632813,-0.96093746 -1.40625,-0.96093746 -0.773438,0 -1.359375,0.375 -1.359375,0.93749996 0,0.234375 0.152344,0.36328125 0.363281,0.36328125 0.210938,0 0.351563,-0.1640625 0.351563,-0.3515625 0,-0.19921871 -0.140625,-0.35156251 -0.351563,-0.36328121 0.234375,-0.3046875 0.714844,-0.3867188 0.972656,-0.3867188 0.316407,0 0.761719,0.1523438 0.761719,0.76171876 0,0.29296875 -0.105469,0.609375 -0.28125,0.83203125 -0.234375,0.2578125 -0.421875,0.28125 -0.773437,0.29296875 -0.175782,0.0234375 -0.1875,0.0234375 -0.222657,0.0234375 -0.01172,0 -0.07031,0.0117188 -0.07031,0.09375 0,0.09375 0.05859,0.09375 0.175781,0.09375 z m 2.704102,-2.89453126 c -0.05859,0 -0.140625,0 -0.140625,0.082031 0,0.035156 0.02344,0.058594 0.07031,0.1054687 0.597656,0.5507813 1.265625,1.48828126 1.265625,3.29296876 0,1.45312504 -0.457031,2.55468754 -1.207031,3.23437504 -0.117188,0.1171875 -0.128906,0.1289062 -0.128906,0.1640625 0,0.035156 0.02344,0.082031 0.09375,0.082031 0.08203,0 0.75,-0.4570312 1.207031,-1.3242187 0.304687,-0.5859375 0.503906,-1.3359375 0.503906,-2.15625004 0,-0.984375 -0.292969,-2.50781246 -1.664062,-3.48046876 z m 0,0"
         style="fill:#000000;fill-opacity:1;fill-rule:nonzero;stroke:none" />
      <path
         id="path7"
         d="m 32.692953,2.5946953 c 0,0.3867188 -0.07031,0.8320313 -0.550781,1.2773438 -0.02344,0.035156 -0.04687,0.058594 -0.04687,0.09375 0,0.046875 0.05859,0.09375 0.09375,0.09375 0.105469,0 0.691406,-0.5625 0.691406,-1.3945313 0,-0.421875 -0.164062,-0.75 -0.480469,-0.75 -0.234375,0 -0.398437,0.1757813 -0.398437,0.3867188 0,0.234375 0.152344,0.4101562 0.398437,0.4101562 0.164063,0 0.28125,-0.1171875 0.292969,-0.1171875 z m 6.662109,-2.84765624 c 0,-1.08984376 -0.785156,-1.93359376 -2.015625,-1.93359376 -1.664062,0 -3.28125,1.55859376 -3.28125,3.12890626 0,1.12500004 0.832032,1.91015624 2.027344,1.91015624 1.664063,0 3.269531,-1.5234375 3.269531,-3.10546874 z M 36.144125,2.6181328 c -0.738281,0 -1.371094,-0.5039062 -1.371094,-1.5351562 0,-0.35156254 0.105469,-1.33593754 0.738281,-2.1328125 0.46875,-0.5742188 1.148438,-0.9140625 1.769532,-0.9140625 0.726562,0 1.394531,0.4570312 1.394531,1.46484371 0,0.515625 -0.210938,1.53515629 -0.867188,2.27343749 -0.480468,0.5625 -1.125,0.84375 -1.664062,0.84375 z m 0,0"
         style="fill:#000000;fill-opacity:1;fill-rule:nonzero;stroke:none" />
      <path
         id="path8"
         d="m 41.833578,0.42379688 c 0,0 0.02344,-0.0234375 0.02344,-0.046875 0,-0.0234375 -0.01172,-0.0703125 -0.09375,-0.0703125 -0.09375,0 -1.371094,0.79687502 -1.371094,2.49609372 0,1.6875 1.277344,2.484375 1.371094,2.484375 0.08203,0 0.09375,-0.046875 0.09375,-0.070312 0,-0.035156 -0.02344,-0.046875 -0.04687,-0.058594 -0.878907,-0.703125 -1.042969,-1.7109375 -1.042969,-2.3554688 0,-1.21875 0.574219,-2.02734372 1.066406,-2.37890622 z m 0,0"
         style="fill:#000000;fill-opacity:1;fill-rule:nonzero;stroke:none" />
      <path
         id="path9"
         d="m 45.024008,3.6112969 c -0.02344,0.1054687 -0.07031,0.28125 -0.07031,0.3164062 0,0.1054688 0.09375,0.1757813 0.1875,0.1757813 0.07031,0 0.1875,-0.046875 0.234375,-0.1640625 0.01172,-0.023437 0.07031,-0.2578125 0.09375,-0.3984375 0.175782,-0.6679688 0.175782,-0.6796875 0.1875,-0.6914063 0.05859,-0.140625 0.421875,-0.8320312 1.03125,-0.8320312 0.234375,0 0.339844,0.1289062 0.339844,0.3515625 0,0.28125 -0.199219,0.796875 -0.316406,1.078125 -0.02344,0.070312 -0.05859,0.1289062 -0.05859,0.2109375 0,0.2578125 0.257813,0.4453125 0.550781,0.4453125 0.527344,0 0.808594,-0.65625 0.808594,-0.7734375 0,-0.070312 -0.09375,-0.070312 -0.105469,-0.070312 -0.08203,0 -0.09375,0.023437 -0.117187,0.1171875 -0.105469,0.2929687 -0.328125,0.5507812 -0.5625,0.5507812 -0.117188,0 -0.152344,-0.082031 -0.152344,-0.1875 0,-0.1054687 0.01172,-0.1523437 0.05859,-0.2578125 0.09375,-0.1992187 0.316406,-0.7734375 0.316406,-1.0429687 0,-0.375 -0.257812,-0.5976563 -0.738281,-0.5976563 -0.457031,0 -0.785156,0.28125 -0.984375,0.5507813 -0.04687,-0.5039063 -0.539063,-0.5507813 -0.738281,-0.5507813 -0.492188,0 -0.773438,0.3046875 -0.949219,0.4921875 -0.02344,-0.4335937 -0.480469,-0.4921875 -0.597656,-0.4921875 -0.503907,0 -0.644532,0.7617188 -0.644532,0.7734375 0,0.070312 0.07031,0.070312 0.105469,0.070312 0.08203,0 0.09375,-0.035156 0.105469,-0.09375 0.08203,-0.2929687 0.199219,-0.5742187 0.398437,-0.5742187 0.175782,0 0.210938,0.1523437 0.210938,0.2578125 0,0.070312 -0.04687,0.2578125 -0.08203,0.3867187 -0.03516,0.140625 -0.08203,0.3398438 -0.105469,0.4570313 L 43.31307,3.5527031 c -0.03516,0.1289063 -0.08203,0.3515625 -0.08203,0.375 0,0.1054688 0.08203,0.1757813 0.175781,0.1757813 0.08203,0 0.1875,-0.046875 0.246094,-0.1640625 0,-0.023437 0.05859,-0.2578125 0.09375,-0.3984375 0.02344,-0.070312 0.07031,-0.2929688 0.09375,-0.3398438 0.02344,-0.1054687 0.04687,-0.2226562 0.07031,-0.328125 0.01172,-0.023437 0.1875,-0.3867187 0.433593,-0.5976562 0.08203,-0.070312 0.292969,-0.2578125 0.621094,-0.2578125 0.246094,0 0.339844,0.140625 0.339844,0.3515625 0,0.1171875 -0.04687,0.3164062 -0.08203,0.46875 z m 4.77832,0.3632812 c 0,0.4804688 -0.257812,0.75 -0.398437,0.8671875 -0.04687,0.035156 -0.05859,0.046875 -0.05859,0.082031 0,0.023437 0.04687,0.082031 0.09375,0.082031 0.05859,0 0.527344,-0.3867187 0.527344,-1.0078125 0,-0.3398437 -0.152344,-0.5625 -0.375,-0.5625 -0.1875,0 -0.304688,0.1523438 -0.304688,0.3046875 0,0.1640625 0.117188,0.3046875 0.304688,0.3046875 0.08203,0 0.152343,-0.023437 0.210937,-0.070312 z m 2.90332,-3.03515622 c 0,-0.1171875 -0.08203,-0.2109375 -0.210937,-0.2109375 -0.140625,0 -0.304688,0.12890625 -0.304688,0.29296872 0,0.140625 0.105469,0.2109375 0.210938,0.2109375 0.164062,0 0.304687,-0.140625 0.304687,-0.29296872 z m 0.234375,2.39062502 c 0,-0.070312 -0.08203,-0.070312 -0.105468,-0.070312 -0.08203,0 -0.08203,0.023437 -0.117188,0.1171875 -0.08203,0.2695312 -0.304687,0.5507812 -0.550781,0.5507812 -0.117188,0 -0.152344,-0.082031 -0.152344,-0.1875 0,-0.1054687 0.02344,-0.1640625 0.05859,-0.2578125 0.04687,-0.09375 0.08203,-0.1992187 0.105469,-0.2695312 0.02344,-0.035156 0.222656,-0.5039063 0.28125,-0.6796875 0.04687,-0.1054688 0.07031,-0.1640625 0.07031,-0.2460938 0,-0.2460937 -0.222656,-0.4453125 -0.539062,-0.4453125 -0.527344,0 -0.796875,0.6445313 -0.796875,0.7734375 0,0.070312 0.07031,0.070312 0.105468,0.070312 0.08203,0 0.08203,-0.023437 0.105469,-0.1054687 0.117188,-0.3515625 0.351563,-0.5625 0.5625,-0.5625 0.09375,0 0.152344,0.046875 0.152344,0.1875 0,0.011719 0,0.082031 -0.02344,0.1757812 -0.03516,0.09375 -0.257812,0.6210938 -0.328125,0.796875 -0.03516,0.082031 -0.03516,0.09375 -0.117187,0.2578125 -0.02344,0.070312 -0.04687,0.140625 -0.04687,0.2226563 0,0.2578125 0.234375,0.4453125 0.539062,0.4453125 0.515625,0 0.796875,-0.65625 0.796875,-0.7734375 z m 0,0"
         style="fill:#000000;fill-opacity:1;fill-rule:nonzero;stroke:none" />
      <path
         id="path10"
         d="m 55.342367,2.8027031 c 0,-1.6875 -1.277344,-2.49609372 -1.382812,-2.49609372 -0.07031,0 -0.07031,0.0585938 -0.07031,0.0703125 0,0.0117188 0,0.0351563 0.02344,0.0703125 0.75,0.58593752 1.042968,1.45312502 1.042968,2.35546872 0,0.4453125 -0.08203,0.9140625 -0.246093,1.3242188 -0.246094,0.5625 -0.550782,0.84375 -0.796875,1.0429687 -0.01172,0 -0.02344,0.035156 -0.02344,0.046875 0,0.011719 0,0.070312 0.07031,0.070312 0.105468,0 1.382812,-0.796875 1.382812,-2.4843745 z m 0,0"
         style="fill:#000000;fill-opacity:1;fill-rule:nonzero;stroke:none" />
      <path
         id="path11"
         d="m 66.703695,-3.2588203 c 0.152344,0 0.339844,0 0.339844,-0.1992188 0,-0.1992187 -0.1875,-0.1992187 -0.328125,-0.1992187 H 60.75057 c -0.140625,0 -0.328125,0 -0.328125,0.1992187 0,0.1992188 0.1875,0.1992188 0.339844,0.1992188 z m 0.01172,1.9335937 c 0.140625,0 0.328125,0 0.328125,-0.1992187 0,-0.1992188 -0.1875,-0.1992188 -0.339844,-0.1992188 H 60.76229 c -0.152344,0 -0.339844,0 -0.339844,0.1992188 0,0.1992187 0.1875,0.1992187 0.328125,0.1992187 z m 6.574219,-5.0507812 c 0,-0.234375 0,-0.2578125 -0.234375,-0.2578125 -0.609375,0.6328125 -1.488281,0.6328125 -1.804688,0.6328125 v 0.3164062 c 0.199219,0 0.785157,0 1.300782,-0.2578125 v 5.15625004 c 0,0.3515625 -0.03516,0.48046875 -0.925782,0.48046875 h -0.316406 v 0.3046875 c 0.351563,-0.03515625 1.207031,-0.03515625 1.605469,-0.03515625 0.398437,0 1.265625,0 1.617187,0.03515625 v -0.3046875 h -0.316406 c -0.902344,0 -0.925781,-0.1171875 -0.925781,-0.48046875 z m 0,0"
         style="fill:#000000;fill-opacity:1;fill-rule:nonzero;stroke:none" />
      <path
         id="path12"
         d="m 77.382406,-0.01272656 c 0,-0.65625 -0.257812,-1.04296874 -0.644531,-1.04296874 -0.328125,0 -0.527344,0.24609374 -0.527344,0.52734374 0,0.26953125 0.199219,0.52734375 0.527344,0.52734375 0.117187,0 0.246094,-0.03515625 0.351562,-0.12890625 0.02344,-0.0234375 0.03516,-0.0351563 0.04687,-0.0351563 0.01172,0 0.02344,0.0117188 0.02344,0.15234375 0,0.73828125 -0.351563,1.33593741 -0.679688,1.66406241 -0.105468,0.1054688 -0.105468,0.1289063 -0.105468,0.1640625 0,0.070312 0.04687,0.1054688 0.09375,0.1054688 0.117187,0 0.914062,-0.7617188 0.914062,-1.93359371 z m 0,0"
         style="fill:#000000;fill-opacity:1;fill-rule:nonzero;stroke:none" />
      <path
         id="path13"
         d="m 85.269125,-6.5400703 c 0.05859,-0.1054688 0.05859,-0.1289063 0.05859,-0.1757813 0,-0.09375 -0.08203,-0.1992187 -0.199219,-0.1992187 -0.128906,0 -0.199219,0.1171875 -0.234375,0.234375 l -0.820313,2.1914062 H 81.038652 L 80.21834,-6.6806953 c -0.05859,-0.140625 -0.105469,-0.234375 -0.234375,-0.234375 -0.09375,0 -0.199219,0.1054687 -0.199219,0.1992187 0,0.023437 0,0.035156 0.05859,0.1757813 l 2.484375,6.52734374 c 0.04687,0.140625 0.09375,0.234375 0.222656,0.234375 0.140625,0 0.1875,-0.1171875 0.222656,-0.2109375 z m -4.066406,2.4492187 h 2.707031 l -1.359375,3.53906254 z m 0,0"
         style="fill:#000000;fill-opacity:1;fill-rule:nonzero;stroke:none" />
      <path
         id="path14"
         d="m 88.611898,2.3896172 c 0,-0.035156 0,-0.046875 -0.164062,-0.2226563 -1.242188,-1.25390621 -1.570313,-3.12890621 -1.570313,-4.6640625 0,-1.7226562 0.386719,-3.4570312 1.605469,-4.7109375 0.128906,-0.1171875 0.128906,-0.1289062 0.128906,-0.1640625 0,-0.070312 -0.03516,-0.1054687 -0.09375,-0.1054687 -0.105468,0 -0.996093,0.6796875 -1.582031,1.9453125 -0.515625,1.1015625 -0.632812,2.203125 -0.632812,3.0351562 0,0.7851563 0.117187,1.99218754 0.65625,3.11718754 0.597656,1.21874996 1.453125,1.87499996 1.558593,1.87499996 0.05859,0 0.09375,-0.035156 0.09375,-0.1054687 z m 0,0"
         style="fill:#000000;fill-opacity:1;fill-rule:nonzero;stroke:none" />
      <path
         id="path15"
         d="m 90.070883,-0.58694531 c -0.03516,0.15234375 -0.09375,0.375 -0.09375,0.421875 0,0.1875 0.140625,0.26953125 0.292969,0.26953125 0.117187,0 0.292968,-0.0703125 0.363281,-0.26953125 0.01172,-0.0234375 0.128906,-0.4921875 0.1875,-0.73828125 l 0.222656,-0.90234374 c 0.05859,-0.2226563 0.117188,-0.4335938 0.175781,-0.6679688 0.03516,-0.1640625 0.117188,-0.4570312 0.128907,-0.4921875 0.140625,-0.3164062 0.667968,-1.21875 1.617187,-1.21875 0.445313,0 0.539063,0.3632813 0.539063,0.6914063 0,0.2578125 -0.07031,0.5390625 -0.152344,0.8320312 l -0.269531,1.1601563 -0.199219,0.74999999 c -0.04687,0.19921875 -0.140625,0.5390625 -0.140625,0.5859375 0,0.1875 0.140625,0.26953125 0.292969,0.26953125 0.304687,0 0.375,-0.24609375 0.445312,-0.5625 0.140625,-0.56250004 0.515625,-2.01562504 0.597656,-2.40234374 0.03516,-0.1289063 0.5625,-1.3242188 1.652344,-1.3242188 0.421875,0 0.539063,0.3398438 0.539063,0.6914063 0,0.5742187 -0.421875,1.7109375 -0.621094,2.2382812 -0.09375,0.234375 -0.128906,0.35156254 -0.128906,0.55078129 0,0.46875 0.351562,0.80859375 0.808593,0.80859375 0.9375,0 1.3125,-1.45312504 1.3125,-1.53515624 0,-0.09375 -0.09375,-0.09375 -0.117187,-0.09375 -0.105469,0 -0.105469,0.023437 -0.152344,0.1757812 -0.152344,0.52734379 -0.46875,1.24218754 -1.019531,1.24218754 -0.164063,0 -0.234375,-0.10546875 -0.234375,-0.328125 0,-0.2578125 0.08203,-0.4921875 0.175781,-0.71484374 0.1875,-0.515625 0.609375,-1.6171875 0.609375,-2.1914063 0,-0.6445312 -0.398437,-1.0664062 -1.148437,-1.0664062 -0.75,0 -1.253907,0.4453125 -1.617188,0.9726562 -0.01172,-0.1289062 -0.04687,-0.46875 -0.328125,-0.7148437 -0.246094,-0.1992188 -0.5625,-0.2578125 -0.808594,-0.2578125 -0.902343,0 -1.382812,0.6445312 -1.558593,0.8671875 -0.04687,-0.5625 -0.46875,-0.8671875 -0.914063,-0.8671875 -0.457031,0 -0.644531,0.3867187 -0.738281,0.5742187 -0.175781,0.3398438 -0.304688,0.9375 -0.304688,0.9609375 0,0.1054688 0.09375,0.1054688 0.117188,0.1054688 0.09375,0 0.105469,-0.011719 0.164062,-0.234375 0.175782,-0.703125 0.375,-1.1835938 0.726563,-1.1835938 0.164062,0 0.316406,0.082031 0.316406,0.4570313 0,0.2109375 -0.03516,0.3164062 -0.164062,0.8320312 z m 9.896484,0.57421875 c 0,-0.65625 -0.257812,-1.04296874 -0.644531,-1.04296874 -0.328125,0 -0.527344,0.24609374 -0.527344,0.52734374 0,0.26953125 0.199219,0.52734375 0.527344,0.52734375 0.117187,0 0.246094,-0.03515625 0.351562,-0.12890625 0.02344,-0.0234375 0.03516,-0.0351563 0.04687,-0.0351563 0.01172,0 0.02344,0.0117188 0.02344,0.15234375 0,0.73828125 -0.351563,1.33593741 -0.679688,1.66406241 -0.105468,0.1054688 -0.105468,0.1289063 -0.105468,0.1640625 0,0.070312 0.04687,0.1054688 0.09375,0.1054688 0.117187,0 0.914062,-0.7617188 0.914062,-1.93359371 z m 5.208983,-6.21093754 c 0,-0.1992187 -0.1289,-0.3632812 -0.36328,-0.3632812 -0.26953,0 -0.53906,0.2578125 -0.53906,0.5273437 0,0.1875 0.14062,0.3632813 0.375,0.3632813 0.23437,0 0.52734,-0.234375 0.52734,-0.5273438 z m -0.75,3.7382813 c 0.11719,-0.28125 0.11719,-0.3046875 0.22266,-0.5742188 0.0703,-0.1992187 0.1289,-0.3398437 0.1289,-0.5273437 0,-0.4453125 -0.32812,-0.8203125 -0.82031,-0.8203125 -0.9375,0 -1.3125,1.453125 -1.3125,1.5351562 0,0.1054688 0.0937,0.1054688 0.11719,0.1054688 0.0937,0 0.10547,-0.023437 0.15234,-0.1875 0.26953,-0.9375 0.66797,-1.2304688 1.00782,-1.2304688 0.082,0 0.25781,0 0.25781,0.3164063 0,0.2109375 -0.0703,0.421875 -0.11719,0.515625 -0.082,0.2578125 -0.52734,1.4179687 -0.67969,1.8515625 -0.10547,0.2578125 -0.23437,0.58593749 -0.23437,0.79687499 0,0.46875 0.33984,0.80859375 0.82031,0.80859375 0.9375,0 1.30078,-1.44140624 1.30078,-1.53515624 0,-0.09375 -0.0937,-0.09375 -0.11719,-0.09375 -0.10546,0 -0.10546,0.023437 -0.15234,0.1757812 -0.17578,0.63281254 -0.50391,1.24218754 -1.01953,1.24218754 -0.16406,0 -0.23438,-0.10546875 -0.23438,-0.328125 0,-0.2578125 0.0586,-0.3984375 0.29297,-0.99609374 z m 0,0"
         style="fill:#000000;fill-opacity:1;fill-rule:nonzero;stroke:none" />
      <path
         id="path16"
         d="m 108.68319,-2.4971016 c 0,-0.7734375 -0.11719,-1.9804687 -0.65625,-3.1054687 -0.59766,-1.21875 -1.46485,-1.875 -1.5586,-1.875 -0.0586,0 -0.10547,0.046875 -0.10547,0.1054687 0,0.035156 0,0.046875 0.19922,0.234375 0.97266,0.984375 1.53516,2.5664063 1.53516,4.640625 0,1.71093754 -0.36328,3.45703129 -1.59375,4.7226563 -0.14063,0.1171875 -0.14063,0.1289062 -0.14063,0.1640625 0,0.058594 0.0469,0.1054687 0.10547,0.1054687 0.0937,0 0.9961,-0.6796875 1.58203,-1.94531246 0.50391,-1.1015625 0.63282,-2.20312504 0.63282,-3.04687504 z m 0,0"
         style="fill:#000000;fill-opacity:1;fill-rule:nonzero;stroke:none" />
      <path
         id="path17"
         d="m 117.90291,-2.2978828 c 0.16407,0 0.35157,0 0.35157,-0.1992188 0,-0.1992187 -0.1875,-0.1992187 -0.35157,-0.1992187 h -4.23046 c 0.1289,-1.3242188 1.26562,-2.2851563 2.67187,-2.2851563 h 1.55859 c 0.16407,0 0.35157,0 0.35157,-0.1992187 0,-0.1992188 -0.1875,-0.1992188 -0.35157,-0.1992188 h -1.57031 c -1.71094,0 -3.05859,1.2890625 -3.05859,2.8828125 0,1.59375004 1.34765,2.89453129 3.05859,2.89453129 h 1.57031 c 0.16407,0 0.35157,0 0.35157,-0.19921875 0,-0.19921875 -0.1875,-0.19921875 -0.35157,-0.19921875 h -1.55859 c -1.40625,0 -2.54297,-0.9609375 -2.67187,-2.29687499 z m 0,0"
         style="fill:#000000;fill-opacity:1;fill-rule:nonzero;stroke:none" />
      <path
         id="path18"
         d="m 125.5787,-6.0244453 c 0.0937,-0.3632813 0.11718,-0.46875 1.05468,-0.46875 0.30469,0 0.375,0 0.375,-0.1875 0,-0.1289063 -0.10547,-0.1289063 -0.15234,-0.1289063 -0.32813,0 -1.14844,0.035156 -1.47656,0.035156 -0.30469,0 -1.03125,-0.035156 -1.32422,-0.035156 -0.0703,0 -0.1875,0 -0.1875,0.1992188 0,0.1171875 0.082,0.1171875 0.28125,0.1171875 0.0117,0 0.19922,0 0.375,0.011719 0.17578,0.023437 0.26953,0.035156 0.26953,0.1640625 0,0.035156 -0.0117,0.070312 -0.0469,0.1875 l -1.33593,5.35546879 c -0.0937,0.38671875 -0.11719,0.46875 -0.90235,0.46875 -0.16406,0 -0.26953,0 -0.26953,0.19921875 0,0.10546875 0.0937,0.10546875 0.26953,0.10546875 h 4.61719 c 0.23438,0 0.24609,0 0.30469,-0.1640625 L 128.21539,-2.32132 c 0.0469,-0.1054688 0.0469,-0.1289063 0.0469,-0.140625 0,-0.035156 -0.0352,-0.1054688 -0.12891,-0.1054688 -0.082,0 -0.0937,0.046875 -0.16406,0.2109375 -0.33984,0.9140625 -0.77344,2.05078129 -2.49609,2.05078129 h -0.9375 c -0.14063,0 -0.16407,0 -0.22266,-0.0117188 -0.10547,-0.0117188 -0.12891,-0.0234375 -0.12891,-0.10546875 0,-0.0234375 0,-0.046875 0.0469,-0.22265625 z m 0,0"
         style="fill:#000000;fill-opacity:1;fill-rule:nonzero;stroke:none" />
    </g>
  </g>
</svg>
