<svg xmlns="http://www.w3.org/2000/svg" width="744.1" height="65"><g aria-label="U AGV (m,i,α 1)(n,j,α 2) +U AGV (n,j,α 2)(m,i,α 1) +3−P Y(m,i,α 1),y −P Y(n,j,α 2),y −x ′∑ x=1 (P X(m,i,α 1−1),x +P X(n,j,α 2),x −P X(m,i,α 1),x −P X(n,j,α 2−1),x )≥0, ∀(m,i,α 1),(n,j,α 2)∈W H∀y∈Y R,∀x ′∈X R"><path d="M7.5 16.7c.2-.6.4-1 1.5-1 0 0 .2 0 .2-.3l-.2-.1H6.3s-.2 0-.2.2 0 .2.2.2c.7 0 .9.3.9.6v.2L6 21.3c-.5 1.8-2 3-3.3 3-1 0-1.7-.7-1.7-1.8l.2-1 1.3-5.2c0-.5.1-.6 1-.6.4 0 .5 0 .5-.3l-.2-.1H.4s-.2 0-.2.2.1.2.4.2H1c.2 0 .3 0 .3.2l-.2 1L.9 18l-.8 3.3-.1.8c0 1.6 1.2 2.5 2.6 2.5 1.7 0 3.3-1.5 3.8-3.2zM17 18.8v-.3h-.2c-.6 0-.6 0-.7-.3l-2.3-5.8c0-.1 0-.2-.3-.2-.1 0-.2 0-.2.2L11 18c0 .2-.2.6-1 .6v.3h2v-.3c-.4 0-.6-.2-.6-.4v-.2l.4-1.2h2.7l.5 1.4v.2c0 .2-.4.2-.7.2v.3H17zm-2.5-2.4H12l1.2-3zm10.3.2v-.3H22v.3h.3c1 0 1 .1 1 .5v.5c0 .2 0 .6-.6.9l-1 .2c-1.2 0-2.9-.6-2.9-3 0-2.5 1.8-3 2.7-3 1 0 2 .6 2.3 2.2h.2l.1-.2v-2.1l-.1-.3-.2.1-.5.7c-.4-.4-1-.8-1.9-.8-2 0-3.6 1.5-3.6 3.4 0 1.8 1.6 3.3 3.6 3.3.5 0 1.6 0 2-.7l.6.5.1-.2V17c0-.4.1-.4.7-.4zm8.2-3.8v-.3h-2v.3c.3 0 .6.2.6.5v.2l-2 4.5-2-4.8v-.1c0-.3.4-.3.7-.3v-.3H25.7v.3h.2c.5 0 .6 0 .7.4l2.4 5.6c.1.2.1.2.3.2.1 0 .2 0 .3-.2l2.3-5.4c.1-.2.3-.6 1-.6zM11.5 21.2a5.6 5.6 0 0 0-2.3 4.6c0 1.3.4 3.3 2.3 4.6h.2l-.1-.2c-1.3-1.1-1.7-2.7-1.7-4.4 0-2.5 1-3.7 1.7-4.4v-.1l-.1-.1zM16.4 27.4l-.2.5c0 .2.2.3.4.3l.3-.2.2-.6a17.1 17.1 0 0 0 .3-1.4l.3-.7c.3-.5.8-1 1.5-1 .5 0 .6.4.6.6 0 .6-.4 1.6-.6 2l-.1.5c0 .5.4.8.9.8.9 0 1.3-1.3 1.3-1.4l-.1-.1-.2.1c-.2.8-.6 1.2-1 1.2-.2 0-.2-.2-.2-.4l.2-.7c0-.3.5-1.3.5-1.8 0-.2 0-.5-.4-.8-.1-.1-.4-.3-.8-.3-.9 0-1.4.6-1.7 1 0-.8-.7-1-1.2-1a2 2 0 0 0-1.6.9c0-.7-.6-.9-1-.9s-.6.3-.7.5l-.3 1h.1c.2 0 .2 0 .2-.2.2-.6.3-1 .7-1 .3 0 .3.2.3.4l-.1.8-.2.9-.3 1.2-.1.3c0 .2.1.3.3.3l.4-.2.1-.6.2-.8.2-.6c0-.4.1-.5.4-.9.2-.3.7-.8 1.4-.8.5 0 .5.5.5.6l-.1 1zm7.3.6c0 .5 0 1-.7 1.7v.2c.2 0 1-.7 1-1.8 0-.6-.2-1-.7-1-.3 0-.5.2-.5.5s.2.5.5.5l.4-.1zm4.2-5.7c0-.1 0-.3-.4-.3-.2 0-.5.2-.5.5 0 .1.1.3.4.3.3 0 .5-.2.5-.5zM26 27v.4c0 .5.3.8.8.8 1 0 1.4-1.3 1.4-1.4l-.2-.1-.2.1c-.2.8-.6 1.2-1 1.2-.1 0-.2-.1-.2-.4 0-.2 0-.4.2-.6 0-.2.1-.5.3-.7l.4-1.2v-.3c0-.4-.3-.8-.8-.8-1 0-1.4 1.3-1.4 1.5h.4c.2-.9.6-1.2 1-1.2.1 0 .2 0 .2.3 0 .2 0 .4-.3 1zm4.6 1c0 .5 0 1-.7 1.7v.2c.2 0 1-.7 1-1.8 0-.6-.2-1-.7-1-.3 0-.5.2-.5.5s.2.5.5.5l.4-.1zm6.3-1.2a5 5 0 0 0 1.2-2.2l-.2-.1-.2.2a5 5 0 0 1-.8 1.7v-.8c-.2-1-.9-1.6-1.8-1.6-1.4 0-2.7 1.3-2.7 2.6 0 .9.6 1.6 1.7 1.6.9 0 1.6-.4 2.1-.8.3.7.7.8 1 .8.5 0 .9-.4.9-.6l-.2-.1h-.1c-.2.4-.5.5-.6.5 0 0-.3 0-.3-1.2zm-.7.3c-1 .8-1.7.9-2 .9-.7 0-1-.4-1-1 0-.3.1-1.4.6-2 .4-.6 1-.7 1.3-.7.7 0 1 .7 1 1.3V27zM41.4 25.2c0-.2 0-.2-.3-.2-.4.5-1.2.5-1.3.5h-.1v.3c.2 0 .7 0 1-.2v3.3c0 .2 0 .3-.6.3h-.4v.3h2.7v-.3h-.3c-.7 0-.7-.1-.7-.3zM44.8 21.2h-.2v.2c.9.7 1.8 2 1.8 4.4 0 2-.7 3.4-1.7 4.3l-.1.2.1.1c.1 0 1-.6 1.6-1.7.4-.8.7-1.8.7-2.9 0-1.3-.4-3.3-2.2-4.6zm6.6 0a5.6 5.6 0 0 0-2.3 4.6c0 1.3.4 3.3 2.3 4.6h.1v-.2c-1.3-1.1-1.7-2.7-1.7-4.4 0-2.5 1-3.7 1.7-4.4v-.1l-.1-.1zM53.4 27.6l-.1.3c0 .2.1.3.3.3l.3-.2.2-.6.2-.8.2-.6c0-.4 0-.5.4-.9.2-.3.7-.8 1.3-.8.6 0 .6.5.6.6 0 .6-.4 1.6-.6 2v.5c0 .5.3.8.8.8 1 0 1.3-1.3 1.3-1.4l-.1-.1-.2.1c-.2.8-.6 1.2-1 1.2-.2 0-.2-.2-.2-.4l.2-.7c.1-.3.5-1.3.5-1.8 0-.9-.7-1-1.2-1a2 2 0 0 0-1.6.8c0-.7-.6-.9-1-.9s-.6.3-.7.5l-.3 1h.1c.1 0 .2 0 .2-.2.2-.6.3-1 .7-1 .2 0 .3.2.3.4l-.1.8-.2.9zm7.3.4c0 .5 0 1-.7 1.7v.2c.2 0 1-.7 1-1.8 0-.6-.2-1-.6-1-.4 0-.6.2-.6.5s.2.5.6.5l.3-.1zm5.3-5.7c0-.1-.1-.3-.4-.3-.2 0-.5.2-.5.5 0 .1.1.3.4.3.2 0 .5-.2.5-.5zm-2 6.3c-.1.6-.6 1.2-1.2 1.2h-.3l.3-.6c0-.2-.1-.3-.3-.3-.3 0-.6.2-.6.5 0 .4.4.6 1 .6.5 0 1.6-.3 1.9-1.4l.8-3.4V25c0-.5-.4-.9-1-.9-1 0-1.6 1.3-1.6 1.5h.4c.2-.6.7-1.2 1.3-1.2.2 0 .3.1.3.4v.3zm4.3-.6c0 .5-.1 1-.8 1.7v.2c.2 0 1-.7 1-1.8 0-.6-.2-1-.6-1-.3 0-.6.2-.6.5s.2.5.6.5l.4-.1zm6.2-1.2a5 5 0 0 0 1.2-2.2l-.1-.1c-.2 0-.2 0-.2.2a5 5 0 0 1-.9 1.7v-.8c-.2-1-.9-1.6-1.8-1.6-1.4 0-2.7 1.3-2.7 2.6 0 .9.7 1.6 1.7 1.6.9 0 1.7-.4 2.2-.8.2.7.7.8 1 .8.5 0 .8-.4.8-.6l-.1-.1h-.2c-.1.4-.4.5-.5.5-.2 0-.3 0-.4-1.2zm-.7.3c-.9.8-1.7.9-2 .9-.7 0-1-.4-1-1 0-.3.1-1.4.6-2 .4-.6 1-.7 1.3-.7.7 0 1 .7 1 1.3l.1 1.5zM80.3 28.2H80c0 .1 0 .5-.2.6h-2l1.3-1c.6-.4 1.2-.7 1.2-1.4 0-.9-.8-1.4-1.8-1.4-.9 0-1.5.6-1.5 1.2 0 .4.2.4.3.4.2 0 .4-.1.4-.4 0-.2-.1-.3-.3-.4.1-.3.5-.5 1-.5.6 0 1.2.4 1.2 1s-.4 1-1 1.5L77 29v.4h3zM82.4 21.2h-.2l.1.2c.8.7 1.7 2 1.7 4.4 0 2-.6 3.4-1.6 4.3l-.2.2.1.1c.1 0 1-.6 1.6-1.7.4-.8.7-1.8.7-2.9 0-1.3-.4-3.3-2.2-4.6zM94.7 21.3h3.8c.1 0 .4 0 .4-.3s-.3-.3-.4-.3h-3.8V17c0-.2 0-.4-.2-.4-.3 0-.3.2-.3.4v3.7h-3.7c-.2 0-.4 0-.4.3s.2.3.4.3h3.7V25c0 .2 0 .4.3.4.2 0 .2-.2.2-.4zM111 16.7c.2-.6.4-1 1.5-1 0 0 .2 0 .2-.3l-.2-.1h-2.7c-.1 0-.3 0-.3.2s.2.2.3.2c.7 0 .9.3.9.6v.2l-1.2 4.8c-.5 1.8-2 3-3.4 3-.9 0-1.6-.7-1.6-1.8l.2-1 1.3-5.2c0-.5 0-.6 1-.6.4 0 .5 0 .5-.3l-.2-.1H104s-.2 0-.2.2.1.2.3.2h.5c.3 0 .4 0 .4.2l-.2 1-.3 1.1-.8 3.3-.1.8c0 1.6 1.2 2.5 2.6 2.5 1.7 0 3.3-1.5 3.7-3.2zM120.5 18.8v-.3h-.2c-.6 0-.7 0-.7-.3l-2.3-5.8c0-.1 0-.2-.3-.2-.2 0-.2 0-.2.2l-2.2 5.5c0 .2-.2.6-1 .6v.3h2v-.3c-.4 0-.7-.2-.7-.4v-.2l.5-1.2h2.7l.5 1.4v.2c0 .2-.5.2-.7.2v.3H120.5zm-2.6-2.4h-2.3l1.2-3zm10.4.2v-.3h-2.9v.3h.4c1 0 1 .1 1 .5v.5c0 .2 0 .6-.6.9-.5.2-1 .2-1.1.2-1 0-2.8-.6-2.8-3 0-2.5 1.8-3 2.7-3 .9 0 2 .6 2.3 2.2h.1c.2 0 .2 0 .2-.2v-2.1l-.1-.3-.2.1-.5.7c-.4-.4-1.1-.8-2-.8-1.9 0-3.5 1.5-3.5 3.4 0 1.8 1.6 3.3 3.6 3.3.5 0 1.5 0 2-.7l.6.5V17c0-.4.2-.4.8-.4zm8.1-3.8v-.3h-2v.3c.3 0 .6.2.6.5v.2l-2 4.5-2-4.8v-.1c0-.3.5-.3.7-.3v-.3h-2.5v.3h.1c.5 0 .7 0 .8.4l2.4 5.6c0 .2.1.2.3.2 0 0 .2 0 .3-.2l2.3-5.4c0-.2.3-.6 1-.6zM115 21.2a5.6 5.6 0 0 0-2.3 4.6c0 1.3.4 3.3 2.3 4.6h.1v-.2c-1.3-1.1-1.7-2.7-1.7-4.4 0-2.5 1-3.7 1.7-4.4v-.1l-.1-.1zM117 27.6l-.1.3c0 .2.1.3.3.3l.3-.2.2-.6.2-.8.2-.6c0-.4 0-.5.4-.9.2-.3.7-.8 1.3-.8.6 0 .6.5.6.6 0 .6-.4 1.6-.6 2v.5c0 .5.3.8.8.8 1 0 1.3-1.3 1.3-1.4l-.1-.1-.2.1c-.2.8-.6 1.2-1 1.2-.2 0-.2-.2-.2-.4l.2-.7c.1-.3.5-1.3.5-1.8 0-.9-.7-1-1.2-1a2 2 0 0 0-1.6.8c0-.7-.6-.9-1-.9s-.6.3-.7.5l-.3 1h.1c.1 0 .2 0 .2-.2.2-.6.3-1 .7-1 .2 0 .3.2.3.4l-.1.8-.2.9Zm7.4.4c0 .5-.1 1-.8 1.7v.2c.2 0 1-.7 1-1.8 0-.6-.2-1-.6-1-.4 0-.6.2-.6.5s.2.5.6.5l.4-.1zm5.2-5.7c0-.1-.1-.3-.4-.3-.2 0-.5.2-.5.5 0 .1.1.3.4.3.2 0 .5-.2.5-.5zm-2 6.3c-.1.6-.6 1.2-1.2 1.2h-.3l.3-.6c0-.2-.2-.3-.3-.3-.3 0-.6.2-.6.5 0 .4.4.6 1 .6.5 0 1.6-.3 1.9-1.4l.8-3.4V25c0-.5-.4-.9-1-.9-1 0-1.6 1.3-1.6 1.5h.4c.2-.6.7-1.2 1.2-1.2.3 0 .4.1.4.4v.3zm4.3-.6c0 .5-.1 1-.8 1.7v.2c.2 0 1-.7 1-1.8 0-.6-.2-1-.6-1-.3 0-.6.2-.6.5s.2.5.6.5l.4-.1zm6.2-1.2a5 5 0 0 0 1.2-2.2l-.1-.1c-.2 0-.2 0-.2.2a5 5 0 0 1-.9 1.7v-.8c-.2-1-.9-1.6-1.8-1.6-1.4 0-2.7 1.3-2.7 2.6 0 .9.6 1.6 1.7 1.6.9 0 1.7-.4 2.2-.8.2.7.7.8 1 .8.5 0 .8-.4.8-.6l-.1-.1h-.2c-.1.4-.4.5-.5.5-.2 0-.3 0-.4-1.2zm-.7.3c-.9.8-1.7.9-2 .9-.7 0-1-.4-1-1 0-.3.1-1.4.6-2 .4-.6 1-.7 1.3-.7.7 0 1 .7 1 1.3l.1 1.5zM143.9 28.2h-.3l-.2.6h-2l1.3-1c.6-.4 1.2-.7 1.2-1.4 0-.9-.8-1.4-1.8-1.4-.9 0-1.5.6-1.5 1.2 0 .4.2.4.3.4.2 0 .4-.1.4-.4 0-.2-.1-.3-.3-.4.1-.3.5-.5 1-.5.6 0 1.2.4 1.2 1s-.4 1-1 1.5l-1.6 1.3v.4h3zM146 21.2h-.2v.2c.9.7 1.8 2 1.8 4.4 0 2-.6 3.4-1.6 4.3l-.2.2.1.1c.1 0 1-.6 1.6-1.7.4-.8.7-1.8.7-2.9 0-1.3-.4-3.3-2.2-4.6zm6.6 0a5.6 5.6 0 0 0-2.2 4.6c0 1.3.3 3.3 2.2 4.6h.2l-.1-.2c-1.3-1.1-1.7-2.7-1.7-4.4 0-2.5 1-3.7 1.7-4.4v-.1l-.1-.1zM157.5 27.4l-.1.5c0 .2.1.3.3.3l.3-.2.2-.6.2-.8.2-.6c0-.4 0-.4.3-.7.2-.5.7-1 1.4-1 .6 0 .6.4.6.6 0 .6-.4 1.6-.6 2l-.1.5c0 .5.4.8.9.8 1 0 1.3-1.3 1.3-1.4l-.1-.1-.2.1c-.2.8-.6 1.2-1 1.2-.2 0-.2-.2-.2-.4l.2-.7c.1-.3.5-1.3.5-1.8 0-.2 0-.5-.4-.8-.1-.1-.4-.3-.8-.3-.9 0-1.4.6-1.7 1 0-.8-.7-1-1.2-1a2 2 0 0 0-1.6.9c0-.7-.6-.9-1-.9-.3 0-.6.3-.7.5l-.3 1h.1c.2 0 .2 0 .2-.2.2-.6.4-1 .7-1 .3 0 .3.2.3.4l-.1.8-.2.9-.3 1.2-.1.3c0 .2.1.3.3.3l.4-.2.1-.6.2-.8.2-.6c.1-.4.1-.5.4-.9.3-.3.7-.8 1.4-.8.5 0 .5.5.5.6l-.1 1zm7.3.6c0 .5 0 1-.7 1.7v.2c.2 0 1-.7 1-1.8 0-.6-.2-1-.7-1-.3 0-.5.2-.5.5s.2.5.5.5l.4-.1zm4.2-5.7c0-.1 0-.3-.3-.3s-.6.2-.6.5c0 .1.1.3.4.3.3 0 .5-.2.5-.5zm-1.9 4.7v.4c0 .5.3.8.8.8 1 0 1.4-1.3 1.4-1.4l-.2-.1-.2.1c-.2.8-.6 1.2-1 1.2-.1 0-.2-.1-.2-.4l.2-.6.3-.7.4-1.2v-.3c0-.4-.3-.8-.8-.8-1 0-1.3 1.3-1.3 1.5H166.8c.2-.9.6-1.2 1-1.2.1 0 .2 0 .2.3 0 .2 0 .4-.3 1zm4.6 1c0 .5 0 1-.7 1.7v.2c.2 0 1-.7 1-1.8 0-.6-.2-1-.6-1-.4 0-.6.2-.6.5s.2.5.6.5l.3-.1zm6.3-1.2a5 5 0 0 0 1.2-2.2l-.1-.1c-.2 0-.2 0-.2.2a5 5 0 0 1-1 1.7v-.8c-.1-1-.8-1.6-1.7-1.6-1.4 0-2.7 1.3-2.7 2.6 0 .9.6 1.6 1.7 1.6.9 0 1.6-.4 2.1-.8.3.7.7.8 1 .8.6 0 .9-.4.9-.6l-.2-.1h-.1c-.2.4-.4.5-.6.5 0 0-.2 0-.3-1.2zm-.7.3c-1 .8-1.7.9-2 .9-.7 0-1-.4-1-1 0-.3.1-1.4.6-2 .4-.6 1-.7 1.3-.7.7 0 1 .7 1 1.3V27zM182.5 25.2c0-.2 0-.2-.3-.2-.4.5-1.2.5-1.3.5h-.1v.3h.1c.2 0 .6 0 1-.2v3.3c0 .2 0 .3-.7.3h-.4v.3h2.7v-.3h-.3c-.7 0-.7-.1-.7-.3zM185.9 21.2h-.2v.2c.9.7 1.8 2 1.8 4.4 0 2-.6 3.4-1.6 4.3l-.2.2.1.1c.1 0 1-.6 1.6-1.7.4-.8.7-1.8.7-2.9 0-1.3-.4-3.3-2.2-4.6zM198.2 21.3h3.7c.2 0 .5 0 .5-.3s-.3-.3-.5-.3h-3.7V17c0-.2 0-.4-.2-.4-.3 0-.3.2-.3.4v3.7H194c-.2 0-.5 0-.5.3s.3.3.5.3h3.7V25c0 .2 0 .4.3.4.2 0 .2-.2.2-.4zm11.7-1.6c1.1-.4 1.9-1.3 1.9-2.4 0-1-1.2-1.8-2.5-1.8s-2.3.8-2.3 1.8c0 .4.3.7.7.7.4 0 .6-.3.6-.7 0-.7-.6-.7-.8-.7.4-.6 1.3-.8 1.8-.8s1.3.3 1.3 1.5c0 .2 0 1-.4 1.5-.4.7-.9.7-1.2.7h-.5c-.1 0-.2 0-.2.2s0 .2.3.2h.6c1 0 1.6.9 1.6 2.2 0 1.8-1 2.2-1.5 2.2-.6 0-1.6-.3-2-1 .4 0 .8-.3.8-.8s-.3-.7-.7-.7c-.3 0-.8.2-.8.7 0 1.3 1.3 2.1 2.7 2.1 1.6 0 2.8-1.2 2.8-2.5 0-1.1-.8-2.2-2.2-2.4zM224.4 21.3c.3 0 .5 0 .5-.3s-.2-.3-.5-.3h-7.2c-.2 0-.4 0-.4.3s.2.3.4.3zM233 20.1h2.2c2 0 3.8-1.3 3.8-2.8 0-1-.9-2-2.7-2h-4.2c-.3 0-.4 0-.4.2s0 .2.3.2h.6c.2 0 .3 0 .3.2v.3l-1.8 7.1c-.2.5-.2.6-1.2.6-.3 0-.4 0-.4.3l.2.1h3.4s.2 0 .2-.2 0-.2-.3-.2c-.5 0-.9 0-.9-.2v-.2zm1-4c0-.4 0-.4.7-.4h1.2c1.1 0 1.8.3 1.8 1.2 0 .6-.2 1.7-.7 2.2a3 3 0 0 1-2 .7h-2zM245.6 13.6l.6-.5.9-.3s.2 0 .2-.2l-.2-.1h-1.7s-.2 0-.2.2l.2.1c.3 0 .3.2.3.2 0 .1 0 .2-.2.3l-.1.2-2.3 2.4-1.3-2.7V13c0-.2.4-.2.5-.2 0 0 .2 0 .2-.2l-.1-.1H240c-.1 0-.2 0-.2.2l.2.1c.6 0 .6.1.7.3l1.4 3.2-.4 1.7c-.1.5-.1.5-.8.5-.2 0-.3 0-.3.2l.1.1h2.4s.2 0 .2-.2h-.3l-.3-.1-.2-.1.1-.8.3-1.1c0-.2 0-.2.2-.3zM240.8 21a5.6 5.6 0 0 0-2.3 4.6c0 1.3.4 3.4 2.3 4.7 0 0 .2 0 .2-.2h-.1c-1.3-1.2-1.7-2.8-1.7-4.5 0-2.5 1-3.7 1.7-4.4v-.1l-.1-.1zM245.7 27.2l-.2.5c0 .2.2.3.4.3.1 0 .3 0 .3-.2l.2-.5.2-.9.1-.6.3-.7c.3-.5.8-1 1.5-1 .5 0 .6.4.6.7 0 .5-.4 1.6-.6 2l-.1.4c0 .5.4.8.9.8.9 0 1.3-1.2 1.3-1.4l-.1-.1-.2.1c-.2.8-.6 1.2-1 1.2-.2 0-.2-.2-.2-.4l.2-.7c0-.3.5-1.3.5-1.8 0-.1 0-.5-.4-.8l-.8-.2c-.9 0-1.4.5-1.7.9 0-.8-.7-1-1.2-1a2 2 0 0 0-1.6.9c0-.6-.6-.8-1-.8s-.6.2-.7.5l-.3.9h.1c.2 0 .2 0 .2-.2.2-.5.3-1 .7-1 .3 0 .3.2.3.5l-.1.7-.2.9-.3 1.2-.1.3c0 .2.1.3.3.3.2 0 .3 0 .4-.2l.1-.5.2-.9.2-.6c.1-.4.1-.5.4-.8.2-.4.7-.9 1.4-.9.5 0 .5.5.5.7l-.1.8zm7.3.6c0 .5 0 1.1-.7 1.7v.2c.2 0 1-.7 1-1.8 0-.6-.2-1-.7-1-.3 0-.5.2-.5.5s.2.5.5.5l.4-.1zm4.2-5.7c0-.1 0-.3-.3-.3s-.6.2-.6.5c0 .1.1.3.4.3.3 0 .5-.2.5-.5zm-1.9 4.8v.3c0 .5.3.8.8.8 1 0 1.4-1.2 1.4-1.4l-.2-.1-.2.1c-.2.8-.6 1.2-1 1.2-.1 0-.2-.1-.2-.4 0-.2 0-.3.2-.5 0-.3.2-.5.3-.8l.4-1.2v-.3c0-.4-.3-.7-.8-.7-1 0-1.4 1.2-1.4 1.4h.4c.2-.9.6-1.2 1-1.2.1 0 .2 0 .2.3 0 .2 0 .4-.3 1zm4.6.9c0 .5 0 1.1-.7 1.7v.2c.2 0 1-.7 1-1.8 0-.6-.2-1-.7-1-.3 0-.5.2-.5.5s.2.5.5.5l.4-.1zm6.3-1.2a5 5 0 0 0 1.2-2.2l-.2-.1-.1.2a5 5 0 0 1-1 1.7v-.8c-.1-1-.8-1.5-1.7-1.5-1.4 0-2.7 1.2-2.7 2.5 0 .9.6 1.6 1.7 1.6.9 0 1.6-.4 2.1-.8.3.7.7.8 1 .8.6 0 .9-.4.9-.6l-.2-.1h-.1c-.2.4-.5.5-.6.5 0 0-.3 0-.3-1.2zm-.7.3c-1 .8-1.7.9-2 .9-.7 0-1-.4-1-1 0-.3.1-1.3.6-2 .4-.5 1-.7 1.3-.7.7 0 1 .7 1 1.3v1.5zM270.7 25l-.3-.1c-.4.4-1.2.4-1.3.4h-.1v.3h.1c.2 0 .6 0 1-.2v3.3c0 .2 0 .3-.7.3h-.4v.3h2.7V29h-.3c-.7 0-.7 0-.7-.3zM274 21h-.1v.2c.9.8 1.8 2 1.8 4.4 0 2-.6 3.4-1.6 4.3l-.2.2.1.2c.1 0 1-.7 1.6-1.8.4-.8.7-1.8.7-2.9 0-1.3-.4-3.3-2.2-4.6zM279.3 27.8c0 .5 0 1.1-.7 1.7v.2c.2 0 1-.7 1-1.8 0-.6-.2-1-.7-1-.3 0-.5.2-.5.5s.2.5.5.5l.4-.1zm6.4-3.4v-.2c0-.1-.1-.3-.3-.3 0 0-.3 0-.4.3l-.1.5-.2.8-.4 1.5s-.4.8-1.1.8c-.6 0-.6-.6-.6-.8 0-.5.2-1 .4-1.8l.2-.6c0-.4-.4-.7-.9-.7-1 0-1.3 1.2-1.3 1.4H281.3c.2-.8.6-1.2 1-1.2.1 0 .2.1.2.3l-.1.6c-.5 1.1-.5 1.4-.5 1.9 0 .1 0 .5.3.9a1.5 1.5 0 0 0 2-.2 3 3 0 0 1-.7 1.4c-.2.3-.6.6-1 .6-.1 0-.6 0-.8-.3.5 0 .5-.5.5-.5 0-.3-.2-.4-.3-.4-.3 0-.6.2-.6.6 0 .5.5.8 1.1.8 1 0 2.1-.7 2.4-1.8zM298.6 21.3c.2 0 .5 0 .5-.3s-.3-.3-.5-.3h-7.2c-.2 0-.4 0-.4.3s.2.3.4.3zM307.2 20.1h2.2c2 0 3.8-1.3 3.8-2.8 0-1-1-2-2.7-2h-4.3c-.2 0-.3 0-.3.2s0 .2.3.2h.6c.2 0 .3 0 .3.2v.3l-1.8 7.1c-.2.5-.2.6-1.2.6-.3 0-.4 0-.4.3l.2.1h3.4s.2 0 .2-.2 0-.2-.3-.2c-.5 0-.9 0-.9-.2v-.2zm1-4c0-.4 0-.4.7-.4h1.2c1.1 0 1.8.3 1.8 1.2 0 .6-.2 1.7-.8 2.2a3 3 0 0 1-2 .7h-1.9zM319.8 13.6l.6-.5.8-.3c.1 0 .3 0 .3-.2l-.2-.1h-1.7s-.2 0-.2.2l.2.1c.2 0 .2.2.2.2v.3c-.1 0-.2 0-.2.2l-2.3 2.4-1.3-2.7V13c0-.2.4-.2.5-.2 0 0 .2 0 .2-.2l-.1-.1h-2.3c-.1 0-.2 0-.2.2l.2.1c.5 0 .6.1.7.3l1.4 3.2-.4 1.7c-.1.5-.1.5-.9.5-.1 0-.2 0-.2.2l.1.1h2.4s.2 0 .2-.2h-.3l-.3-.1-.2-.1.1-.8.3-1.1.1-.3zM315 21a5.6 5.6 0 0 0-2.3 4.6c0 1.3.4 3.4 2.3 4.7 0 0 .2 0 .2-.2h-.1c-1.3-1.2-1.7-2.8-1.7-4.5 0-2.5 1-3.7 1.7-4.4v-.1l-.1-.1zM317 27.4l-.1.3c0 .2.1.3.3.3.2 0 .3 0 .3-.2l.2-.5.2-.9.2-.6c0-.4.1-.5.4-.8.2-.4.7-.9 1.4-.9.5 0 .5.5.5.7 0 .5-.4 1.6-.5 2l-.2.4c0 .5.4.8 1 .8.8 0 1.3-1.2 1.3-1.4l-.2-.1-.2.1c-.2.8-.6 1.2-1 1.2-.2 0-.2-.2-.2-.4l.2-.7c.1-.3.5-1.3.5-1.8 0-.9-.7-1-1.2-1a2 2 0 0 0-1.6.8c0-.6-.6-.8-1-.8s-.6.2-.7.5l-.3.9h.1c.1 0 .2 0 .2-.2.2-.5.3-1 .7-1 .2 0 .3.2.3.5l-.1.7-.2.9zm7.4.4c0 .5-.1 1.1-.8 1.7v.2c.2 0 1-.7 1-1.8 0-.6-.2-1-.6-1-.3 0-.6.2-.6.5s.2.5.6.5l.4-.1zm5.2-5.7c0-.1-.1-.3-.4-.3-.2 0-.5.2-.5.5 0 .1.1.3.4.3.3 0 .5-.2.5-.5zm-2 6.3c-.1.6-.6 1.2-1.2 1.2h-.3c.3-.2.3-.4.3-.5 0-.3-.1-.4-.3-.4-.3 0-.6.3-.6.6s.4.5 1 .5c.5 0 1.6-.3 1.9-1.4l.8-3.4v-.3c0-.5-.4-.8-1-.8-1 0-1.5 1.2-1.5 1.4H327c.2-.6.7-1.2 1.3-1.2.2 0 .3.2.3.5v.2zm4.3-.6c0 .5-.1 1.1-.8 1.7v.1l.1.1c.1 0 1-.7 1-1.8 0-.6-.3-1-.7-1-.3 0-.5.2-.5.5s.2.5.5.5l.4-.1zm6.2-1.2a5 5 0 0 0 1.2-2.2l-.1-.1-.2.2a5 5 0 0 1-.9 1.7v-.8c-.2-1-.9-1.5-1.8-1.5-1.4 0-2.7 1.2-2.7 2.5 0 .9.7 1.6 1.7 1.6.9 0 1.7-.4 2.2-.8.2.7.7.8 1 .8.5 0 .8-.4.8-.6l-.1-.1h-.2c-.1.4-.4.5-.5.5-.1 0-.3 0-.4-1.2zm-.7.3c-.9.8-1.7.9-2 .9-.7 0-1-.4-1-1 0-.3.1-1.3.6-2 .4-.5 1-.7 1.3-.7.7 0 1 .7 1 1.3l.1 1.5zM343.9 28h-.3c0 .1 0 .5-.2.6h-2l1.3-1c.6-.3 1.2-.7 1.2-1.4 0-.9-.8-1.3-1.8-1.3-.9 0-1.5.5-1.5 1.1 0 .4.3.4.4.4.1 0 .3-.1.3-.4 0-.2-.1-.3-.3-.4.2-.3.5-.5 1-.5.6 0 1.2.4 1.2 1s-.4 1-1 1.5l-1.5 1.4h-.1v.3h3zM346 21h-.2l.1.2c.8.8 1.7 2 1.7 4.4 0 2-.6 3.4-1.6 4.3l-.2.2.1.2c.1 0 1-.7 1.6-1.8.4-.8.7-1.8.7-2.9 0-1.3-.4-3.3-2.2-4.6zM351.3 27.8c0 .5-.1 1.1-.8 1.7v.1l.1.1c.1 0 1-.7 1-1.8 0-.6-.3-1-.7-1-.3 0-.5.2-.5.5s.2.5.5.5l.4-.1zm6.3-3.4v-.2c0-.1 0-.3-.2-.3-.1 0-.3 0-.4.3l-.2.5-.2.8-.3 1.5s-.5.8-1.2.8c-.6 0-.6-.6-.6-.8 0-.5.2-1 .5-1.8l.1-.6c0-.4-.3-.7-.8-.7-1 0-1.4 1.2-1.4 1.4H353.2c.3-.8.6-1.2 1-1.2.2 0 .3.1.3.3l-.2.6c-.4 1.1-.5 1.4-.5 1.9 0 .1 0 .5.3.9a1.5 1.5 0 0 0 2-.2 3 3 0 0 1-.6 1.4c-.3.3-.6.6-1.1.6-.1 0-.5 0-.7-.3.5 0 .5-.5.5-.5 0-.3-.3-.4-.4-.4-.2 0-.5.2-.5.6 0 .5.4.8 1 .8 1 0 2.2-.7 2.4-1.8zM370.5 21.3c.3 0 .5 0 .5-.3s-.2-.3-.5-.3h-7.1c-.3 0-.5 0-.5.3s.2.3.5.3zM382.3 6.7c0 .4-.4.9-.9.9 0 0-.3 0-.5-.2.4-.1.5-.4.5-.5 0-.2-.2-.3-.4-.3-.3 0-.5.2-.5.5 0 .5.5.7 1 .7.4 0 .7-.2 1-.6.2.4.7.6 1 .6 1.1 0 1.7-1.1 1.7-1.4l-.1-.1-.2.1c-.2.7-.8 1.2-1.3 1.2-.4 0-.5-.3-.5-.6l.4-2.2c.2-.7.6-1 1-1l.4.2c-.3.1-.4.4-.4.5 0 .2.2.4.4.4s.5-.2.5-.6c0-.5-.6-.7-1-.7s-.8.3-1 .7c-.1-.4-.6-.7-1.1-.7-1 0-1.6 1.2-1.6 1.5H381c.2-.8.8-1.2 1.3-1.2.3 0 .5.2.5.6 0 .2 0 .6-.2 1zM388.4.6V.4c0-.2-.1-.4-.3-.4-.3 0-.4.2-.4.3l-1 2.9v.1l.2.2.1-.1zM392 30.3l1.6-4.2h-.3c-.5 1.3-2 2.2-3.4 2.6-.3.1-1.6.5-4.2.5h-8l6.8-8 .1-.2-.1-.2-6.2-8.4h7.3c1.8 0 3 .1 3.1.2.7 0 1.9.3 3 1 .3.2 1.2.8 1.6 1.8h.3l-1.6-3.7h-15.7l-.3.1v.4l7 9.7-6.9 8-.1.3.3.1zM377.4 38.9c-.1.3-.4.8-.9.8l-.5-.1c.4-.2.4-.5.4-.6 0-.2-.1-.3-.3-.3-.3 0-.6.2-.6.6 0 .4.6.6 1 .6s.8-.2 1-.6c.3.5.8.6 1.1.6 1.1 0 1.7-1.1 1.7-1.4l-.2-.1-.1.2c-.2.6-.8 1-1.3 1-.4 0-.6-.2-.6-.5l.5-2.1c.2-.8.6-1 1-1l.4.1c-.3.1-.4.4-.4.5 0 .2.2.4.4.4s.5-.2.5-.6c0-.5-.6-.6-1-.6s-.8.3-1 .6c-.2-.4-.6-.6-1.1-.6-1 0-1.7 1-1.7 1.4h.4c.2-.8.8-1.2 1.2-1.2.4 0 .6.2.6.6l-.2 1zM388.2 36.7c.2 0 .4 0 .4-.2s-.2-.2-.3-.2H382c-.1 0-.3 0-.3.2s.2.2.3.2zm0 2 .4-.1c0-.3-.2-.3-.4-.3h-6c-.2 0-.4 0-.4.3 0 .2.2.2.3.2zm4.2-4.8c0-.2 0-.2-.3-.2-.6.6-1.5.6-1.8.6v.3c.2 0 .8 0 1.3-.3v4.8c0 .3 0 .4-.9.4h-.4v.3a48.2 48.2 0 0 1 3.3 0v-.3h-.3c-1 0-1-.1-1-.4zM403.6 32.8l.2.1h.4v-.2c-.5-.5-1.2-1.2-2-2.7-1.5-2.5-2-5.8-2-9 0-5.9 1.6-9.3 4-11.7v-.1L404 9h-.4c-1.2 1.2-2.6 3-3.6 5.8a20.4 20.4 0 0 0 1.8 15.9 13.8 13.8 0 0 0 1.3 1.5zM408.7 20.1h2.3c1.9 0 3.7-1.3 3.7-2.8 0-1-.9-2-2.6-2h-4.3c-.3 0-.4 0-.4.2s.1.2.4.2h.6c.2 0 .2 0 .2.2v.3l-1.8 7.1c-.1.5-.1.6-1.2.6-.2 0-.4 0-.4.3l.2.1H408.8c.1 0 .3 0 .3-.2s-.1-.2-.4-.2c-.5 0-.8 0-.8-.2v-.2zm1-4c0-.4.1-.4.7-.4h1.3c1 0 1.8.3 1.8 1.2 0 .6-.3 1.7-.8 2.2a3 3 0 0 1-2 .7h-2zM420.2 15.3l1-.9c1.1-1.2 1.5-1.5 2.3-1.6.1 0 .2 0 .2-.2v-.1h-2c-.1 0-.2 0-.2.2l.1.1c.1 0 .3 0 .3.3l-.2.3-1.6 1.6-1-1.8V13c0-.1.2-.3.5-.3 0 0 .2 0 .2-.2l-.1-.1h-2.3s-.2 0-.2.2l.2.1c.6 0 .6.1.7.3l1.3 2.6-.5.5-.8.8c-1.1 1-1.5 1.5-2.3 1.5-.2 0-.3 0-.3.2l.2.1h1.9l.2-.1c0-.2-.1-.2-.2-.2 0 0-.2 0-.2-.2s0-.3.3-.5l1.9-1.8 1 2.2h.1c0 .1-.1.3-.5.3 0 0-.2 0-.2.2l.2.1h2.3s.2 0 .2-.2h-.3c-.5 0-.6-.2-.7-.3zM416.5 21a5.6 5.6 0 0 0-2.2 4.6c0 1.3.4 3.4 2.2 4.7.1 0 .2 0 .2-.2-1.3-1.2-1.8-2.8-1.8-4.5 0-2.5 1-3.7 1.8-4.4v-.1l-.2-.1zM421.4 27.2l-.1.5c0 .2.2.3.3.3.2 0 .3 0 .4-.2l.1-.5.2-.9.2-.6.3-.7c.3-.5.7-1 1.5-1 .5 0 .5.4.5.7 0 .5-.4 1.6-.5 2l-.2.4c0 .5.4.8.9.8 1 0 1.3-1.2 1.3-1.4v-.1l-.3.1c-.2.8-.6 1.2-1 1.2-.2 0-.2-.2-.2-.4l.2-.7c.1-.3.5-1.3.5-1.8 0-.1 0-.5-.3-.8l-.9-.2c-.8 0-1.3.5-1.6.9-.1-.8-.8-1-1.2-1a2 2 0 0 0-1.6.9c0-.6-.6-.8-1-.8s-.6.2-.8.5l-.3.9h.2l.2-.2c.1-.5.3-1 .7-1 .2 0 .3.2.3.5l-.2.7-.2.9-.3 1.2v.3c0 .2 0 .3.2.3s.4 0 .4-.2l.2-.5.2-.9.1-.6.4-.8c.3-.4.7-.9 1.4-.9.6 0 .6.5.6.7l-.2.8zm7.4.6c0 .5-.1 1.1-.8 1.7v.1l.1.1c.1 0 1-.7 1-1.8 0-.6-.3-1-.7-1-.3 0-.6.2-.6.5s.3.5.6.5l.4-.1zM433 22c0-.1-.1-.3-.4-.3-.3 0-.5.2-.5.5 0 .1 0 .3.3.3s.6-.2.6-.5zm-2 4.8v.3c0 .5.4.8.9.8.9 0 1.3-1.2 1.3-1.4l-.1-.1-.2.1c-.2.8-.6 1.2-1 1.2-.2 0-.2-.1-.2-.4l.1-.5.3-.8.5-1.2v-.3c0-.4-.4-.7-.9-.7-.9 0-1.3 1.2-1.3 1.4H430.7c.3-.9.7-1.2 1-1.2.2 0 .2 0 .2.3l-.2 1zm4.7.9c0 .5-.1 1.1-.8 1.7v.1l.1.1c.1 0 1-.7 1-1.8 0-.6-.3-1-.7-1-.3 0-.5.2-.5.5s.2.5.5.5l.4-.1zm6.2-1.2a5 5 0 0 0 1.2-2.2l-.1-.1-.2.2a5 5 0 0 1-.9 1.7v-.8c-.2-1-.9-1.5-1.8-1.5-1.3 0-2.7 1.2-2.7 2.5 0 .9.7 1.6 1.7 1.6.9 0 1.7-.4 2.2-.8.2.7.7.8 1 .8.5 0 .8-.4.8-.6l-.1-.1h-.2c-.1.4-.4.5-.5.5-.1 0-.3 0-.4-1.2zm-.7.3c-.9.8-1.7.9-2 .9-.7 0-1-.4-1-1 0-.3.1-1.3.6-2 .4-.5 1-.7 1.3-.7.7 0 1 .7 1 1.3l.1 1.5zM446.4 25l-.2-.1c-.5.4-1.2.4-1.4.4v.3c.2 0 .6 0 1-.2v3.3c0 .2 0 .3-.7.3h-.3v.3h2.7V29h-.4c-.7 0-.7 0-.7-.3zM455.9 25.9c.1 0 .3 0 .3-.3 0-.2-.2-.2-.3-.2h-5.6c-.1 0-.3 0-.3.2 0 .3.2.3.3.3zM460.4 22c0-.2 0-.2-.3-.2-.6.6-1.4.6-1.8.6v.3c.2 0 .8 0 1.3-.3v4.8c0 .3 0 .4-.9.4h-.4v.3a48.2 48.2 0 0 1 3.4 0v-.3h-.4c-1 0-1-.1-1-.4zm3-1h-.2l.1.2c.8.8 1.7 2 1.7 4.4 0 2-.6 3.4-1.6 4.3l-.2.2.1.2c.1 0 1-.7 1.6-1.8.5-.8.7-1.8.7-2.9 0-1.3-.4-3.3-2.2-4.6zM468.7 27.8c0 .5-.1 1.1-.8 1.7v.1l.1.1c.1 0 1-.7 1-1.8 0-.6-.3-1-.7-1-.3 0-.5.2-.5.5s.2.5.5.5l.4-.1zm3.5-.8c-.1.3-.4.8-.9.8 0 0-.3 0-.5-.2.4 0 .4-.4.4-.5 0-.2-.1-.3-.4-.3-.2 0-.5.2-.5.6 0 .4.5.6 1 .6.4 0 .8-.2 1-.6.3.5.8.6 1.1.6 1.1 0 1.7-1.1 1.7-1.4l-.2-.1-.2.1c-.1.7-.7 1.2-1.2 1.2-.4 0-.6-.3-.6-.6l.5-2.1c.2-.8.6-1 .9-1l.5.1c-.3.1-.4.4-.4.5 0 .2.2.4.4.4s.5-.2.5-.6c0-.5-.6-.6-1-.6-.5 0-.8.2-1 .6-.2-.4-.6-.6-1.1-.6-1 0-1.7 1-1.7 1.4h.4c.2-.8.8-1.2 1.2-1.2.3 0 .6.2.6.6l-.2 1zM485 21.3h3.6c.2 0 .5 0 .5-.3s-.3-.3-.5-.3H485V17c0-.2 0-.4-.2-.4-.3 0-.3.2-.3.4v3.7h-3.7c-.2 0-.4 0-.4.3s.2.3.4.3h3.7V25c0 .2 0 .4.3.4.2 0 .2-.2.2-.4zM496.8 20.1h2.3c1.9 0 3.7-1.3 3.7-2.8 0-1-.9-2-2.6-2h-4.3c-.3 0-.4 0-.4.2s.1.2.4.2h.5c.2 0 .3 0 .3.2v.3l-1.8 7.1c-.1.5-.2.6-1.2.6-.2 0-.4 0-.4.3l.2.1H497c.1 0 .3 0 .3-.2s-.1-.2-.4-.2c-.5 0-.9 0-.9-.2v-.2zm1-4c0-.4.1-.4.7-.4h1.3c1 0 1.8.3 1.8 1.2 0 .6-.3 1.7-.8 2.2a3 3 0 0 1-2 .7h-2zM508.3 15.3l1-.9c1.1-1.2 1.5-1.5 2.3-1.6.1 0 .2 0 .2-.2v-.1h-2c-.1 0-.2 0-.2.2l.1.1s.3 0 .3.3l-.2.3-1.6 1.6-1-1.8V13c0-.1.2-.3.5-.3 0 0 .2 0 .2-.2l-.2-.1h-2.2s-.2 0-.2.2l.2.1c.6 0 .6.1.7.3l1.3 2.6-.5.5-.8.8c-1.1 1-1.5 1.5-2.3 1.5-.2 0-.3 0-.3.2l.2.1h1.9l.2-.1c0-.2-.1-.2-.2-.2 0 0-.3 0-.3-.2s.2-.3.4-.5l1.8-1.8 1.2 2.2c0 .1-.1.3-.5.3 0 0-.2 0-.2.2l.2.1h2.3s.2 0 .2-.2h-.3c-.5 0-.6-.2-.7-.3zM504.6 21a5.6 5.6 0 0 0-2.2 4.6c0 1.3.4 3.4 2.2 4.7.1 0 .2 0 .2-.2-1.3-1.2-1.8-2.8-1.8-4.5 0-2.5 1-3.7 1.7-4.4l.1-.1-.2-.1zM506.6 27.4v.3c0 .2 0 .3.2.3s.3 0 .4-.2l.2-.5.2-.9.1-.6c.1-.4.1-.5.4-.8.3-.4.7-.9 1.4-.9.5 0 .5.5.5.7 0 .5-.3 1.6-.5 2l-.1.4c0 .5.4.8.8.8 1 0 1.4-1.2 1.4-1.4l-.2-.1-.1.1c-.3.8-.7 1.2-1 1.2-.2 0-.3-.2-.3-.4l.2-.7c.2-.3.5-1.3.5-1.8 0-.9-.7-1-1.2-1a2 2 0 0 0-1.5.8c0-.6-.6-.8-1-.8s-.6.2-.8.5l-.3.9h.2l.2-.2c.1-.5.3-1 .7-1 .2 0 .2.2.2.5v.7l-.3.9zm7.4.4c0 .5 0 1.1-.7 1.7v.2c.2 0 1-.7 1-1.8 0-.6-.3-1-.7-1-.3 0-.5.2-.5.5s.2.5.5.5l.4-.1zm5.3-5.7c0-.1-.2-.3-.4-.3-.3 0-.5.2-.5.5 0 .1 0 .3.3.3s.6-.2.6-.5zm-2 6.3c-.2.6-.7 1.2-1.2 1.2h-.3l.3-.5c0-.3-.2-.4-.4-.4-.3 0-.5.3-.5.6s.3.5 1 .5c.5 0 1.5-.3 1.8-1.4l.9-3.4v-.3c0-.5-.4-.8-1-.8-1 0-1.6 1.2-1.6 1.4H516.6c.3-.6.8-1.2 1.3-1.2.2 0 .3.2.3.5v.2zm4.2-.6c0 .5 0 1.1-.7 1.7v.2c.2 0 1-.7 1-1.8 0-.6-.3-1-.7-1-.3 0-.5.2-.5.5s.2.5.5.5l.4-.1zm6.3-1.2a5 5 0 0 0 1.2-2.2l-.2-.1-.2.2a5 5 0 0 1-.8 1.7v-.8c-.2-1-1-1.5-1.9-1.5-1.3 0-2.6 1.2-2.6 2.5 0 .9.6 1.6 1.7 1.6.8 0 1.6-.4 2.1-.8.2.7.7.8 1 .8.5 0 .9-.4.9-.6l-.2-.1h-.1c-.2.4-.5.5-.6.5-.1 0-.3 0-.3-1.2zm-.7.3c-1 .8-1.7.9-2 .9-.7 0-1-.4-1-1 0-.3 0-1.3.6-2 .4-.5 1-.7 1.2-.7.8 0 1 .7 1 1.3l.2 1.5zM533.5 28h-.3l-.1.6H531l1.4-1c.6-.3 1.1-.7 1.1-1.4 0-.9-.8-1.3-1.7-1.3-1 0-1.6.5-1.6 1.1 0 .4.3.4.4.4.2 0 .4-.1.4-.4 0-.2-.2-.3-.4-.4.2-.3.6-.5 1-.5.7 0 1.2.4 1.2 1s-.4 1-.9 1.5l-1.6 1.4v.3h3zM535.6 21h-.1v.2c.8.8 1.7 2 1.7 4.4 0 2-.6 3.4-1.6 4.3l-.1.2v.2c.2 0 1-.7 1.7-1.8.4-.8.7-1.8.7-2.9 0-1.3-.4-3.3-2.3-4.6zM541 27.8c0 .5-.2 1.1-.8 1.7v.2c.2 0 1-.7 1-1.8 0-.6-.3-1-.7-1-.3 0-.5.2-.5.5s.2.5.5.5l.4-.1zm3.4-.8c0 .3-.4.8-.9.8 0 0-.3 0-.5-.2.4 0 .4-.4.4-.5 0-.2-.1-.3-.3-.3-.3 0-.5.2-.5.6 0 .4.5.6 1 .6.3 0 .7-.2 1-.6.2.5.7.6 1 .6 1.1 0 1.7-1.1 1.7-1.4l-.1-.1-.2.1c-.2.7-.8 1.2-1.3 1.2-.4 0-.6-.3-.6-.6l.5-2.1c.2-.8.6-1 1-1l.4.1c-.3.1-.4.4-.4.5 0 .2.2.4.4.4s.5-.2.5-.6c0-.5-.6-.6-1-.6s-.8.2-1 .6c-.1-.4-.6-.6-1.1-.6-1 0-1.6 1-1.6 1.4H543c.2-.8.8-1.2 1.3-1.2.3 0 .5.2.5.6 0 .2 0 .7-.2 1zM560.5 21.3c.2 0 .5 0 .5-.3s-.3-.3-.5-.3h-7.2c-.2 0-.4 0-.4.3s.2.3.4.3zM569 20.1h2.3c1.9 0 3.7-1.3 3.7-2.8 0-1-.8-2-2.6-2h-4.3c-.2 0-.4 0-.4.2s.1.2.4.2h.6c.2 0 .3 0 .3.2v.3l-1.9 7.1c0 .5-.1.6-1.2.6-.2 0-.3 0-.3.3l.2.1h3.4s.2 0 .2-.2 0-.2-.3-.2c-.5 0-1 0-1-.2l.1-.2zm1-4c.1-.4.2-.4.7-.4h1.3c1.1 0 1.8.3 1.8 1.2 0 .6-.3 1.7-.8 2.2a3 3 0 0 1-2 .7H569zM580.6 15.3l.8-.9c1.2-1.2 1.6-1.5 2.4-1.6.2 0 .3 0 .3-.2l-.2-.1H582s-.2 0-.2.2l.1.1c.1 0 .4 0 .4.3l-.3.3-1.6 1.6-1-1.8V13c0-.1.2-.3.5-.3.1 0 .2 0 .2-.2l-.1-.1h-2.3s-.2 0-.2.2l.3.1c.5 0 .6.1.6.3l1.3 2.6-.5.5-.8.8c-1 1-1.5 1.5-2.3 1.5-.1 0-.2 0-.2.2v.1h2l.2-.1-.1-.2c-.1 0-.3 0-.3-.2s.1-.3.3-.5L580 16l1.1 2.2c0 .1-.1.3-.4.3-.1 0-.2 0-.2.2l.1.1h2.3s.2 0 .2-.2h-.3c-.5 0-.6-.2-.6-.3zM576.9 21a5.6 5.6 0 0 0-2.3 4.6c0 1.3.4 3.4 2.3 4.7l.1-.2c-1.3-1.2-1.7-2.8-1.7-4.5 0-2.5 1-3.7 1.7-4.4v-.1l-.1-.1zM581.7 27.2v.5c0 .2 0 .3.2.3s.3 0 .4-.2l.2-.5.2-.9.1-.6.3-.7c.3-.5.8-1 1.5-1 .5 0 .5.4.5.7 0 .5-.4 1.6-.5 2l-.1.4c0 .5.4.8.8.8 1 0 1.4-1.2 1.4-1.4l-.2-.1-.2.1c-.2.8-.6 1.2-1 1.2l-.2-.4.2-.7c.2-.3.5-1.3.5-1.8 0-.1 0-.5-.3-.8-.2-.1-.4-.2-.9-.2-.8 0-1.3.5-1.6.9 0-.8-.7-1-1.2-1a2 2 0 0 0-1.6.9c0-.6-.6-.8-1-.8s-.6.2-.7.5l-.4.9h.2l.2-.2c.1-.5.3-1 .7-1 .2 0 .3.2.3.5 0 .1 0 .5-.2.7l-.2.9-.3 1.2v.3c0 .2.1.3.3.3.1 0 .3 0 .3-.2l.2-.5.2-.9.2-.6c0-.4 0-.5.3-.8.3-.4.8-.9 1.4-.9.6 0 .6.5.6.7l-.2.8zm7.4.6c0 .5-.1 1.1-.7 1.7l-.1.1.1.1c.2 0 1-.7 1-1.8 0-.6-.3-1-.7-1-.3 0-.5.2-.5.5s.2.5.5.5l.4-.1zm4.2-5.7c0-.1-.1-.3-.4-.3-.2 0-.5.2-.5.5 0 .1.1.3.4.3.2 0 .5-.2.5-.5zm-2 4.8v.3c0 .5.4.8.9.8 1 0 1.3-1.2 1.3-1.4l-.1-.1-.2.1c-.2.8-.6 1.2-1 1.2-.2 0-.2-.1-.2-.4l.1-.5.3-.8.5-1.2v-.3c0-.4-.3-.7-.8-.7-1 0-1.4 1.2-1.4 1.4H591c.3-.9.7-1.2 1-1.2.2 0 .3 0 .3.3 0 .2 0 .4-.3 1zm4.7.9c0 .5 0 1.1-.7 1.7v.2c.2 0 1-.7 1-1.8 0-.6-.3-1-.7-1-.3 0-.5.2-.5.5s.2.5.5.5l.4-.1zm6.3-1.2a5 5 0 0 0 1.2-2.2l-.2-.1-.2.2a5 5 0 0 1-.9 1.7v-.8c-.1-1-.8-1.5-1.8-1.5-1.3 0-2.6 1.2-2.6 2.5 0 .9.6 1.6 1.7 1.6.8 0 1.6-.4 2.1-.8.2.7.7.8 1 .8.5 0 .9-.4.9-.6l-.2-.1h-.2c-.1.4-.4.5-.5.5-.1 0-.3 0-.3-1.2zm-.8.3c-.9.8-1.7.9-2 .9-.6 0-1-.4-1-1 0-.3.2-1.3.7-2 .4-.5 1-.7 1.2-.7.8 0 1 .7 1 1.3l.1 1.5zM606.7 25l-.2-.1c-.5.4-1.2.4-1.3.4h-.1v.3c.2 0 .6 0 1-.2v3.3c0 .2 0 .3-.7.3h-.3v.3h2.7V29h-.4c-.7 0-.7 0-.7-.3zM610.1 21h-.2l.1.2c.8.8 1.7 2 1.7 4.4 0 2-.6 3.4-1.6 4.3l-.2.2c0 .1 0 .2.2.2 0 0 1-.7 1.6-1.8.4-.8.7-1.8.7-2.9 0-1.3-.4-3.3-2.3-4.6zM615.4 27.8c0 .5 0 1.1-.7 1.7v.2c.2 0 1-.7 1-1.8 0-.6-.3-1-.7-1-.3 0-.5.2-.5.5s.2.5.5.5l.4-.1zm3.5-.8c0 .3-.4.8-.9.8 0 0-.3 0-.5-.2.4 0 .4-.4.4-.5 0-.2-.1-.3-.3-.3-.3 0-.6.2-.6.6 0 .4.6.6 1 .6s.8-.2 1-.6c.3.5.8.6 1.2.6 1 0 1.6-1.1 1.6-1.4l-.1-.1-.2.1c-.2.7-.8 1.2-1.3 1.2-.4 0-.6-.3-.6-.6l.5-2.1c.2-.8.6-1 1-1l.4.1c-.3.1-.4.4-.4.5 0 .2.2.4.4.4s.5-.2.5-.6c0-.5-.6-.6-1-.6s-.8.2-1 .6c-.2-.4-.6-.6-1.1-.6-1 0-1.7 1-1.7 1.4h.4c.2-.8.8-1.2 1.3-1.2.3 0 .5.2.5.6 0 .2 0 .7-.2 1zM635 21.3c.2 0 .5 0 .5-.3s-.3-.3-.5-.3h-7.2c-.2 0-.5 0-.5.3s.3.3.5.3zM643.6 20.1h2.2c1.9 0 3.7-1.3 3.7-2.8 0-1-.8-2-2.6-2h-4.3c-.2 0-.4 0-.4.2s.1.2.4.2h.6c.2 0 .3 0 .3.2v.3l-1.9 7.1c-.1.5-.1.6-1.2.6-.2 0-.3 0-.3.3l.2.1h3.3c.1 0 .3 0 .3-.2s-.1-.2-.3-.2c-.5 0-1 0-1-.2l.1-.2zm.9-4c.1-.4.1-.4.7-.4h1.3c1.1 0 1.8.3 1.8 1.2 0 .6-.3 1.7-.8 2.2a3 3 0 0 1-2 .7h-1.9zM655 15.3l1-.9c1.1-1.2 1.5-1.5 2.3-1.6.2 0 .3 0 .3-.2l-.2-.1H656.5s-.2 0-.2.2l.1.1c.1 0 .4 0 .4.3l-.3.3L655 15l-1-1.8V13c0-.1.2-.3.5-.3.1 0 .2 0 .2-.2l-.1-.1h-2.3s-.2 0-.2.2l.3.1c.5 0 .5.1.6.3l1.3 2.6-.5.5-.8.8c-1 1-1.5 1.5-2.3 1.5-.1 0-.2 0-.2.2v.1h2l.2-.1-.1-.2c-.1 0-.3 0-.3-.2s.1-.3.3-.5l1.9-1.8 1.1 2.2c0 .1-.1.3-.4.3-.1 0-.2 0-.2.2l.1.1h2.3s.2 0 .2-.2h-.3c-.5 0-.6-.2-.6-.3zM651.3 21a5.6 5.6 0 0 0-2.2 4.6c0 1.3.4 3.4 2.2 4.7.1 0 .2 0 .2-.2-1.3-1.2-1.7-2.8-1.7-4.5 0-2.5.9-3.7 1.7-4.4v-.1l-.2-.1zM653.3 27.4v.3c0 .2.1.3.3.3.1 0 .3 0 .3-.2l.2-.5.2-.9.1-.6.4-.8c.3-.4.7-.9 1.4-.9.6 0 .6.5.6.7 0 .5-.4 1.6-.6 2l-.1.4c0 .5.4.8.9.8.9 0 1.3-1.2 1.3-1.4l-.1-.1-.2.1c-.2.8-.6 1.2-1 1.2-.2 0-.2-.2-.2-.4l.2-.7c.1-.3.5-1.3.5-1.8 0-.9-.7-1-1.2-1a2 2 0 0 0-1.6.8c0-.6-.6-.8-1-.8s-.6.2-.7.5l-.4.9h.2l.2-.2c.1-.5.3-1 .7-1 .2 0 .3.2.3.5l-.2.7-.2.9zm7.4.4c0 .5 0 1.1-.7 1.7v.2c.2 0 1-.7 1-1.8 0-.6-.2-1-.7-1-.3 0-.5.2-.5.5s.2.5.5.5l.4-.1zM666 22c0-.1-.1-.3-.4-.3-.2 0-.5.2-.5.5 0 .1.1.3.4.3.2 0 .5-.2.5-.5zm-2 6.3c-.1.6-.6 1.2-1.2 1.2h-.3l.3-.5c0-.3-.2-.4-.4-.4-.3 0-.5.3-.5.6s.4.5 1 .5c.5 0 1.6-.3 1.9-1.4l.8-3.4v-.3c0-.5-.4-.8-1-.8-1 0-1.6 1.2-1.6 1.4h.4c.2-.6.7-1.2 1.2-1.2.3 0 .3.2.3.5v.2zm4.2-.6c0 .5 0 1.1-.7 1.7v.2c.2 0 1-.7 1-1.8 0-.6-.2-1-.6-1-.4 0-.6.2-.6.5s.2.5.6.5l.3-.1zm6.3-1.2a5 5 0 0 0 1.2-2.2l-.1-.1c-.2 0-.2 0-.2.2a5 5 0 0 1-1 1.7v-.8c-.1-1-.8-1.5-1.7-1.5-1.4 0-2.7 1.2-2.7 2.5 0 .9.6 1.6 1.7 1.6.9 0 1.6-.4 2.2-.8.2.7.6.8 1 .8.5 0 .8-.4.8-.6l-.2-.1h-.1c-.2.4-.4.5-.5.5-.2 0-.3 0-.4-1.2zm-.7.3c-1 .8-1.7.9-2 .9-.7 0-1-.4-1-1 0-.3.1-1.3.6-2 .4-.5 1-.7 1.3-.7.7 0 1 .7 1 1.3v1.5zM680.2 28h-.2l-.2.6h-2l1.3-1c.6-.3 1.1-.7 1.1-1.4 0-.9-.8-1.3-1.7-1.3-.9 0-1.6.5-1.6 1.1 0 .4.3.4.4.4.2 0 .4-.1.4-.4 0-.2-.2-.3-.4-.4.2-.3.6-.5 1-.5.7 0 1.2.4 1.2 1s-.3 1-.9 1.5L677 29v.3h3zM688.4 25.9c.2 0 .4 0 .4-.3 0-.2-.2-.2-.4-.2H683c-.1 0-.4 0-.4.2 0 .3.2.3.4.3zM693 22c0-.2 0-.2-.3-.2-.6.6-1.5.6-1.9.6v.3c.3 0 .9 0 1.4-.3v4.8c0 .3 0 .4-1 .4h-.3v.3a48.2 48.2 0 0 1 3.3 0v-.3h-.3c-1 0-1-.1-1-.4zm3-1h-.2v.2c.9.8 1.8 2 1.8 4.4 0 2-.7 3.4-1.7 4.3l-.1.2.1.2c.1 0 1-.7 1.6-1.8.4-.8.7-1.8.7-2.9 0-1.3-.4-3.3-2.2-4.6zM701.2 27.8c0 .5 0 1.1-.7 1.7v.2c.2 0 1-.7 1-1.8 0-.6-.2-1-.6-1-.4 0-.6.2-.6.5s.2.5.6.5l.3-.1zm3.5-.8c0 .3-.4.8-.8.8 0 0-.3 0-.5-.2.3 0 .4-.4.4-.5 0-.2-.2-.3-.4-.3-.3 0-.5.2-.5.6 0 .4.5.6 1 .6.4 0 .8-.2 1-.6.2.5.7.6 1 .6 1.2 0 1.7-1.1 1.7-1.4l-.1-.1-.2.1c-.2.7-.7 1.2-1.3 1.2-.3 0-.5-.3-.5-.6l.5-2.1c.1-.8.6-1 .9-1l.5.1c-.3.1-.4.4-.4.5 0 .2.1.4.3.4.2 0 .5-.2.5-.6 0-.5-.5-.6-1-.6-.4 0-.8.2-1 .6-.1-.4-.6-.6-1-.6-1.1 0-1.7 1-1.7 1.4H703.4c.3-.8.8-1.2 1.3-1.2.3 0 .6.2.6.6l-.2 1zM714.6 21c0-3.8-.8-7.9-3.5-10.8a12 12 0 0 0-1-1L710 9h-.3v.2c.5.5 1.3 1.2 2 2.7 1.5 2.5 2 5.8 2 9 0 5.8-1.6 9.3-4 11.7v.1l.3.1h.3c1.2-1.1 2.7-3 3.6-5.8.6-1.8.8-4 .8-6.1zM729.7 20c.2 0 .3-.1.3-.3 0-.1 0-.2-.3-.3l-7.3-3.4-.3-.1c-.2 0-.3.1-.3.2 0 .2.1.3.3.3l7 3.3-7 3.3c-.3.1-.3.2-.3.3 0 .2.2.3.3.3l.2-.1zm-.2 6.1c.2 0 .5 0 .5-.2 0-.3-.3-.3-.5-.3h-7.2c-.2 0-.5 0-.5.3 0 .2.3.2.5.2zM740.9 20c0-1 0-2-.6-3a2.4 2.4 0 0 0-2.2-1.5c-.8 0-1.8.3-2.3 1.6a7 7 0 0 0-.5 3c0 1 0 2.2.6 3.2.5 1 1.5 1.3 2.2 1.3.7 0 1.7-.3 2.3-1.5.4-1 .5-2 .5-3zm-2.8 4.3c-.5 0-1.3-.3-1.6-1.6l-.1-2.8.1-2.4c.2-1.6 1.2-1.7 1.6-1.7.4 0 1.3.2 1.5 1.5.2.8.2 1.8.2 2.6 0 1 0 2-.2 2.8-.2 1.2-1 1.6-1.5 1.6zM744.1 24.3c0-.9-.3-1.4-.9-1.4-.4 0-.7.4-.7.7 0 .4.3.7.7.7l.5-.1.1.1c0 1-.5 1.8-.9 2.2l-.1.3c.2 0 1.3-1 1.3-2.5zM477 53l.1-.3c0-.1 0-.3-.2-.3s-.3.2-.3.3l-1.1 3h-4l-1.2-3c0-.1-.1-.3-.3-.3l-.3.3.1.2 3.3 8.7.3.3c.2 0 .3-.1.3-.2zm-5.4 3.2h3.6l-1.8 4.7zM481.5 64.8l-.2-.3c-1.7-1.6-2-4.1-2-6.2 0-2.3.4-4.6 2-6.3l.2-.2-.1-.1c-.1 0-1.3.9-2.1 2.6a9.9 9.9 0 0 0 0 8.2c.8 1.6 2 2.5 2.1 2.5l.1-.2zM483.5 60.9l-.2.5c0 .3.2.4.4.4s.4-.1.5-.4l.3-1 .3-1.2.2-.9.2-.6c.2-.4.9-1.6 2.1-1.6.6 0 .7.5.7.9 0 .3 0 .7-.2 1.1l-.3 1.5-.3 1-.2.8c0 .3.2.4.4.4.4 0 .5-.3.6-.8l.8-3.2c0-.1.8-1.7 2.2-1.7.6 0 .7.4.7.9 0 .8-.5 2.3-.8 3l-.2.7c0 .6.5 1 1.1 1 1.3 0 1.8-1.9 1.8-2h-.2l-.2.1c-.2.8-.6 1.7-1.4 1.7-.2 0-.3-.1-.3-.4 0-.4.1-.7.3-1 .2-.7.8-2.1.8-3 0-.8-.6-1.3-1.6-1.3s-1.6.6-2.1 1.3c0-.2 0-.7-.4-1-.4-.3-.8-.3-1.1-.3-1.2 0-1.9.8-2.1 1.1 0-.7-.6-1.1-1.2-1.1s-.9.5-1 .7l-.4 1.3.1.2c.2 0 .2 0 .3-.4.2-.9.5-1.5 1-1.5.2 0 .4 0 .4.6 0 .3 0 .4-.3 1zm13.2.7c0-.8-.4-1.4-.9-1.4-.4 0-.7.4-.7.7 0 .4.3.7.7.7l.5-.1v.1c0 1-.4 1.8-.8 2.2l-.2.3.1.1c.2 0 1.3-1 1.3-2.6zm7-8.3c0-.2-.3-.4-.6-.4s-.7.3-.7.7c0 .2.2.5.5.5s.7-.4.7-.8zm-1 5c0-.3 0-.4.2-.7l.2-.7c0-.6-.5-1.1-1.1-1.1-1.3 0-1.8 2-1.8 2 0 .2.2.2.2.2l.2-.3c.4-1.2.9-1.6 1.3-1.6.1 0 .4 0 .4.4l-.2.7c0 .3-.7 1.9-.9 2.4l-.3 1.1c0 .6.5 1 1.1 1 1.2 0 1.7-1.8 1.7-2h-.1l-.2.1c-.3.9-.7 1.7-1.4 1.7-.2 0-.3-.1-.3-.4 0-.4 0-.6.4-1.4zm4.4 3.3c0-.8-.3-1.4-.8-1.4s-.7.4-.7.7c0 .4.2.7.7.7l.4-.1.1.1c0 1-.4 1.8-.9 2.2l-.1.3.1.1c.2 0 1.2-1 1.2-2.6zm9.5-3.1c0-2-1.2-2.7-2.2-2.7-1.8 0-3.5 1.9-3.5 3.8 0 1.2.8 2.2 2.1 2.2.8 0 1.8-.3 2.8-1.1.2.7.6 1 1.2 1 .7 0 1.1-.6 1.1-.9H517.8c-.2.7-.7.7-.7.7-.5 0-.5-1-.5-1.4 0-.2 0-.3.2-.4a7.7 7.7 0 0 0 1.5-3.1l-.1-.2c-.2 0-.2 0-.2.3-.3.8-.7 1.9-1.4 2.6zm-.8 1.8a4.2 4.2 0 0 1-2.8 1.2c-.8 0-1.2-.6-1.2-1.4 0-.7.4-2.1.8-2.8.6-1 1.4-1.2 1.8-1.2 1.3 0 1.3 1.7 1.3 2.7v1.5zM522 57.7c0-.2 0-.2-.3-.2-.6.5-1.5.6-1.8.6v.3c.2 0 .8 0 1.3-.3V63c0 .3 0 .4-1 .4h-.3v.3a48.2 48.2 0 0 1 3.3 0v-.3h-.3c-1 0-1-.1-1-.4zM528.6 58.3c0-1-.1-2.6-.8-4.1-.8-1.6-2-2.5-2.1-2.5l-.1.1.2.3c1.3 1.3 2 3.5 2 6.2 0 2.3-.4 4.6-2 6.3l-.2.2v.2c.2 0 1.4-1 2.2-2.6.7-1.5.8-3 .8-4zM532.7 61.6c0-.8-.4-1.4-.9-1.4-.4 0-.7.4-.7.7 0 .4.3.7.7.7l.5-.1v.1c0 1-.4 1.8-.8 2.2l-.2.3.1.1c.2 0 1.3-1 1.3-2.6zM540.3 64.8l-.3-.3c-1.6-1.6-2-4.1-2-6.2 0-2.3.5-4.6 2-6.3l.3-.2-.2-.1c-.1 0-1.3.9-2 2.6-.8 1.4-1 3-1 4s.2 2.7 1 4.2c.8 1.6 1.9 2.5 2 2.5.1 0 .2 0 .2-.2zM542.2 60.9l-.1.5c0 .3.2.4.4.4.1 0 .4-.1.5-.4l.2-1 .3-1.2.2-.9.2-.6c.2-.4.9-1.6 2.2-1.6.6 0 .7.5.7.9 0 .8-.7 2.5-.9 3.1l-.1.6c0 .6.5 1 1 1 1.3 0 1.8-1.9 1.8-2h-.1l-.2.1c-.3 1-.7 1.7-1.4 1.7-.2 0-.3-.1-.3-.4l.2-1c.3-.7.8-2.1.8-3 0-.8-.5-1.3-1.5-1.3-1.2 0-1.8.8-2 1.1-.1-.7-.7-1.1-1.3-1.1-.6 0-.8.5-1 .7l-.4 1.3c0 .2.2.2.2.2l.2-.4c.2-.9.5-1.5 1-1.5.2 0 .4.1.4.6l-.2 1zm9.5.7c0-.8-.3-1.4-.9-1.4-.4 0-.7.4-.7.7 0 .4.3.7.7.7l.5-.1.1.1c0 1-.5 1.8-.9 2.2l-.1.3v.1c.2 0 1.3-1 1.3-2.6zm8.5-8.3c0-.2-.2-.4-.5-.4s-.7.3-.7.7c0 .2.1.5.5.5.3 0 .7-.4.7-.8zm-2.7 9c-.3 1-.9 1.8-1.6 1.8l-.6-.1c.4-.1.6-.5.6-.7 0-.3-.1-.5-.5-.5-.3 0-.7.3-.7.8s.5.8 1.2.8c1 0 2.1-.7 2.5-2l1.2-5V57c0-.8-.5-1.2-1.1-1.2-1.4 0-2.2 2-2.2 2 0 .2.2.2.2.2l.2-.3c.4-.8 1-1.6 1.7-1.6.2 0 .4 0 .4.6v.6zm5.6-.7c0-.8-.4-1.4-.9-1.4-.4 0-.7.4-.7.7 0 .4.3.7.7.7l.5-.1v.1c0 1-.4 1.8-.8 2.2l-.2.3.2.1c.1 0 1.2-1 1.2-2.6zm9.5-3.1c0-2-1.2-2.7-2.2-2.7-1.8 0-3.6 1.9-3.6 3.8 0 1.2.8 2.2 2.2 2.2.8 0 1.8-.3 2.8-1.1.1.7.6 1 1.2 1 .7 0 1.1-.6 1.1-.9H573.8c-.3.7-.7.7-.8.7-.4 0-.4-1-.4-1.4l.1-.4a7.7 7.7 0 0 0 1.6-3.1s0-.2-.2-.2l-.2.3c-.2.8-.7 1.9-1.3 2.6zm-.9 1.8a4.2 4.2 0 0 1-2.7 1.2c-.8 0-1.2-.6-1.2-1.4 0-.7.3-2.1.8-2.8.6-1 1.3-1.2 1.8-1.2 1.3 0 1.3 1.7 1.3 2.7v1.5zM579.5 62h-.3c0 .2-.1.7-.3.8h-2.6l1.9-1.5c.7-.6 1.3-1.1 1.3-2 0-1.1-1-1.8-2.2-1.8-1.1 0-2 .8-2 1.6 0 .5.5.6.6.6.2 0 .5-.2.5-.5 0-.2-.1-.5-.6-.5.3-.7 1-.9 1.4-.9 1 0 1.4.7 1.4 1.5s-.6 1.4-.9 1.8l-2.2 2.2-.1.3h3.8zM584.6 58.3c0-1-.1-2.6-.9-4.1-.8-1.6-2-2.5-2-2.5l-.2.1.3.3c1.3 1.3 2 3.5 2 6.2 0 2.3-.5 4.6-2.1 6.3l-.2.2c0 .1 0 .2.2.2 0 0 1.3-1 2-2.6.7-1.5 1-3 1-4zM596.9 58.6c.2 0 .5 0 .5-.3 0-.2-.3-.2-.5-.2h-5.6c.1-1.8 1.6-3.1 3.5-3.1h2.1c.2 0 .5 0 .5-.3 0-.2-.3-.2-.5-.2h-2c-2.4 0-4.2 1.7-4.2 3.8a4 4 0 0 0 4.1 3.9h2.1c.2 0 .5 0 .5-.3s-.3-.3-.5-.3h-2c-2 0-3.5-1.2-3.6-3zM614.3 54.1c.4-.6.7-1 1.5-1.1.1 0 .3 0 .3-.3l-.2-.1h-2.4s-.2 0-.2.2 0 .2.2.2c.3 0 .8.1.8.5l-.2.4-3.6 6.3-.5-6.6c0-.3 0-.6 1-.6.2 0 .3 0 .3-.3l-.2-.1h-3c-.1 0-.3 0-.3.2s.2.2.4.2c.5 0 .6 0 .7.3v1l-3.3 5.9-.5-6.7c0-.2 0-.5 1-.5.1 0 .3 0 .3-.3l-.2-.1H603s-.2 0-.2.2.1.2.3.2c.7 0 .7.1.7.5l.6 8.1c0 .2 0 .3.2.3l.4-.2 3.9-6.8.5 6.7c0 .3 0 .3.2.3l.3-.2zM624.4 51.2c0-.3 0-.4.8-.4.2 0 .3 0 .3-.2l-.2-.1H623s-.2 0-.2.2l.3.1h.3c.2 0 .3 0 .3.2v.2l-.6 2.2h-3.1l.5-2.2c0-.3 0-.4.8-.4.2 0 .3 0 .3-.2l-.2-.1H619s-.2 0-.2.2l.3.1h.4c.2 0 .2 0 .2.2v.2l-1.3 5c0 .2-.1.3-.8.3-.2 0-.3 0-.3.2l.2.1h2.4s.2 0 .2-.2l-.3-.1h-.4c-.2 0-.2 0-.2-.2v-.2l.7-2.4h3l-.5 2.4c0 .3-.1.4-.8.4-.2 0-.3 0-.3.2l.1.1h2.5s.2 0 .2-.2l-.3-.1h-.4c-.2 0-.2 0-.2-.2v-.2zM636.2 53v-.3c0-.1 0-.3-.2-.3s-.3.2-.3.3l-1.1 3h-4l-1.2-3c0-.1-.1-.3-.3-.3l-.3.3.1.2 3.3 8.7.3.3c.2 0 .3-.1.3-.2zm-5.5 3.2h3.6l-1.8 4.7zM642.7 56.6v-.3c0-.3-.1-.4-.3-.4-.2 0-.4.1-.5.3l-.2.7-.3 1-.6 2.5c0 .2-.6 1.1-1.5 1.1-.6 0-.8-.6-.8-1 0-.7.2-1.5.7-2.7l.3-1c0-.5-.5-1-1.1-1-1.3 0-1.8 2-1.8 2 0 .2.1.2.2.2l.2-.3c.3-1.2.9-1.6 1.3-1.6.1 0 .4 0 .4.4l-.3 1a8.7 8.7 0 0 0-.7 2.7c0 1.2.8 1.6 1.6 1.6.5 0 1-.2 1.3-.6-.2.7-.3 1.3-.8 2-.4.5-.9.9-1.5.9-.2 0-.8 0-1-.6l.6-.1.2-.6c0-.4-.3-.5-.5-.5-.3 0-.7.3-.7 1 0 .6.6 1 1.4 1 1.4 0 2.7-1.1 3.1-2.6zM654.2 58.6c.2 0 .5 0 .5-.3 0-.2-.3-.2-.5-.2h-5.7c.2-1.8 1.7-3.1 3.6-3.1h2c.3 0 .6 0 .6-.3 0-.2-.3-.2-.5-.2H652c-2.3 0-4 1.7-4 3.8a4 4 0 0 0 4 3.9h2c.3 0 .6 0 .6-.3s-.3-.3-.5-.3h-2c-2 0-3.5-1.2-3.7-3zM667.4 54l.2-.1c.4-.4.8-.8 1.7-1 .1 0 .3 0 .3-.2l-.2-.1H667c-.1 0-.3 0-.3.2s.2.2.2.2c.1 0 .5 0 .5.3 0 .2-.3.6-.4.6l-3 3.6-1.5-4v-.2c0-.3.6-.3.7-.3.2 0 .3 0 .3-.3l-.2-.1h-3.1c-.1 0-.3 0-.3.2s.1.2.3.2c.8 0 .9.1 1 .4l1.6 4.4v.2l-.5 2.4c-.2.8-.2.8-1.3.8-.2 0-.3 0-.3.3l.2.1h3.3c.1 0 .3 0 .3-.2s-.1-.2-.4-.2h-.5c-.3 0-.4 0-.4-.2l.2-.8.5-2c0-.2 0-.2.2-.3zM677.7 56l-.1-.2c-.2 0-.2 0-.2.2 0 .5-.4.7-.6.7-.6 0-.7-.5-.8-1.3 0-.8 0-1-.4-1.2 0-.1-.3-.4-.8-.5.8-.2 1.7-.8 1.7-1.5 0-1-1.3-1.7-2.7-1.7h-3.1v.3h.2c.7 0 .7.1.7.4v4.9c0 .3 0 .4-.7.4h-.2v.3h2.7v-.3h-.2c-.7 0-.7-.1-.7-.4v-2.3h1.2c.2 0 .6 0 1 .4.4.2.4.5.4 1 0 .7 0 1 .4 1.4.4.4 1 .4 1.2.4.8 0 1-.7 1-1zm-2.2-3.8c0 1-.9 1.3-1.8 1.3h-1.2v-2.3c0-.3 0-.4.2-.4h.6c.9 0 2.2 0 2.2 1.4zM681.2 61.6c0-.8-.4-1.4-.9-1.4-.4 0-.7.4-.7.7 0 .4.3.7.7.7l.5-.1v.1c0 1-.4 1.8-.8 2.2l-.2.3.2.1c.1 0 1.2-1 1.2-2.6zM694 53v-.3c0-.1-.1-.3-.3-.3l-.3.3-1 3h-4.1l-1.1-3-.3-.3c-.2 0-.3.2-.3.3v.2l3.4 8.7c0 .2.1.3.3.3.2 0 .2-.1.3-.2zm-5.5 3.2h3.6l-1.8 4.7zM698.4 57.6c.1-.3.4-1.5 1.3-1.5l.7.1c-.4.1-.6.4-.6.8 0 .2.1.4.5.4.3 0 .7-.2.7-.8 0-.6-.8-.8-1.3-.8-.7 0-1.2.7-1.3 1-.4-.9-1-1-1.5-1-1.4 0-2.1 1.7-2.1 2l.1.2c.1 0 .2 0 .2-.2.5-1.4 1.3-1.7 1.8-1.7.2 0 .7 0 .7.9L697 60c-.2.8-.7 1.4-1.3 1.4 0 0-.4 0-.6-.2.3 0 .6-.3.6-.7 0-.3-.3-.5-.5-.5-.4 0-.7.4-.7.8 0 .6.6.9 1.2.9.9 0 1.4-1 1.4-1 .2.5.7 1 1.5 1 1.3 0 2-1.7 2-2v-.2c-.2 0-.2 0-.3.2-.4 1.4-1.3 1.7-1.7 1.7-.5 0-.8-.4-.8-.9l.3-1.1zM704.3 52.4v-.3c0-.2-.2-.5-.5-.5s-.5.3-.5.5l-1.2 4v.1c0 .2.2.2.3.2l.1-.1zM716.3 58.6c.2 0 .4 0 .4-.3 0-.2-.2-.2-.4-.2h-5.7c.2-1.8 1.7-3.1 3.6-3.1h2c.3 0 .5 0 .5-.3 0-.2-.2-.2-.4-.2h-2.1c-2.3 0-4.1 1.7-4.1 3.8a4 4 0 0 0 4 3.9h2.2c.2 0 .4 0 .4-.3s-.2-.3-.4-.3h-2.1c-1.9 0-3.4-1.2-3.6-3zM728 56.2l-1.1-2.7-.1-.1c0-.1.2-.4.8-.4.1 0 .3 0 .3-.3l-.3-.1h-3.1s-.3 0-.3.2.2.2.4.2c.8 0 .8.1 1 .4l1.5 3.7-2.8 3-.2.2c-.6.7-1.2.9-1.9 1-.2 0-.3 0-.3.2l.2.1h2.7s.2 0 .2-.2l-.1-.2c-.1 0-.5 0-.5-.4l.3-.6 1.4-1.4 1.2-1.3 1.3 3.2v.1c0 .2-.2.4-.7.4-.1 0-.3 0-.3.3l.2.1h3.2s.2 0 .2-.2-.1-.2-.2-.2c-.9 0-1 0-1.1-.6l-1.8-4 2.8-3c.3-.3.9-.6 1.7-.6.1 0 .2 0 .2-.3l-.1-.1h-2.8s-.2 0-.2.2c0 .1 0 .2.2.2 0 0 .5 0 .5.4 0 .2-.2.4-.3.5zM741.2 56s0-.2-.2-.2l-.1.2c0 .5-.4.7-.7.7-.5 0-.6-.5-.7-1.3-.1-.8-.1-1-.4-1.2 0-.1-.3-.4-.8-.5.8-.2 1.6-.8 1.6-1.5 0-1-1.2-1.7-2.6-1.7H734v.3h.3c.7 0 .7.1.7.4v4.9c0 .3 0 .4-.7.4h-.3v.3h2.8v-.3h-.2c-.8 0-.8-.1-.8-.4v-2.3h1.3c.1 0 .6 0 1 .4.4.2.4.5.4 1 0 .7 0 1 .4 1.4.4.4 1 .4 1.2.4.8 0 1-.7 1-1zm-2.3-3.8c0 1-.8 1.3-1.8 1.3H736v-2.3c0-.3 0-.4.3-.4h.6c.9 0 2.1 0 2.1 1.4zm0 0"/></g></svg>