<?xml version="1.0" encoding="UTF-8" standalone="no"?>
<!-- Created with Inkscape (http://www.inkscape.org/) -->

<svg
   version="1.1"
   id="svg1"
   width="444.44922"
   height="19.75"
   viewBox="0 0 444.44922 19.75"
   sodipodi:docname="Formulas.pdf"
   xmlns:inkscape="http://www.inkscape.org/namespaces/inkscape"
   xmlns:sodipodi="http://sodipodi.sourceforge.net/DTD/sodipodi-0.dtd"
   xmlns="http://www.w3.org/2000/svg"
   xmlns:svg="http://www.w3.org/2000/svg">
  <defs
     id="defs1" />
  <sodipodi:namedview
     id="namedview1"
     pagecolor="#ffffff"
     bordercolor="#000000"
     borderopacity="0.25"
     inkscape:showpageshadow="2"
     inkscape:pageopacity="0.0"
     inkscape:pagecheckerboard="0"
     inkscape:deskcolor="#d1d1d1" />
  <g
     id="g1"
     inkscape:groupmode="layer"
     inkscape:label="1"
     transform="translate(-305.35547,-112.30859)">
    <g
       id="g2"
       aria-label="T&#10;Q&#10;(m,i)&#10;+G&#10;Q&#10;(m,i)&#10;+M&#10;(&#10;1−U&#10;QC&#10;(m,i)(n,j,α)&#10;)&#10;≥T&#10;Start&#10;(n,j,α)&#10;,∀(m,i)∈C,∀(n,j,α)∈W&#10;H"
       transform="matrix(1.3333333,0,0,1.3333333,305.04133,125.224)">
      <path
         id="path2"
         d="m 4.2551328,-6.0478828 c 0.070312,-0.28125 0.1054688,-0.3398438 0.234375,-0.3632813 0.082031,-0.023437 0.4101563,-0.023437 0.6210938,-0.023437 1.0078125,0 1.453125,0.035156 1.453125,0.8203125 0,0.140625 -0.035156,0.5273438 -0.082031,0.796875 0,0.035156 -0.023437,0.1523438 -0.023437,0.1875 0,0.058594 0.023437,0.1289063 0.1171875,0.1289063 0.1054688,0 0.1289063,-0.082031 0.1523438,-0.234375 l 0.2695312,-1.734375 c 0.011719,-0.035156 0.011719,-0.140625 0.011719,-0.1640625 0,-0.1054688 -0.09375,-0.1054688 -0.2695313,-0.1054688 H 1.2199766 c -0.24609379,0 -0.25781254,0 -0.31640629,0.1992188 l -0.59765625,1.7460937 c -0.0117188,0.023437 -0.0703125,0.1640625 -0.0703125,0.1757813 0,0.070312 0.0585938,0.1171875 0.12890625,0.1171875 0.09375,0 0.10546875,-0.046875 0.1640625,-0.2109375 0.53906249,-1.546875 0.79687499,-1.7226563 2.27343749,-1.7226563 h 0.3867188 c 0.28125,0 0.28125,0.035156 0.28125,0.1171875 0,0.058594 -0.035156,0.1757813 -0.046875,0.2109375 l -1.3242188,5.32031254 c -0.09375,0.36328125 -0.1289062,0.48046875 -1.19531249,0.48046875 -0.3515625,0 -0.41015625,0 -0.41015625,0.1875 0,0.1171875 0.10546875,0.1171875 0.1640625,0.1171875 0.26953125,0 0.55078124,-0.0234375 0.82031254,-0.0234375 0.28125,0 0.5625,-0.01171875 0.84375,-0.01171875 0.28125,0 0.5625,0.01171875 0.8320312,0.01171875 0.28125,0 0.5859375,0.0234375 0.8671875,0.0234375 0.09375,0 0.2109375,0 0.2109375,-0.19921875 0,-0.10546875 -0.082031,-0.10546875 -0.3398437,-0.10546875 -0.2460938,0 -0.375,0 -0.6328125,-0.0234375 -0.2929688,-0.0351563 -0.3632813,-0.0585938 -0.3632813,-0.22265625 0,-0.0117188 0,-0.0585938 0.035156,-0.2109375 z m 0,0"
         style="fill:#000000;fill-opacity:1;fill-rule:nonzero;stroke:none" />
      <path
         id="path3"
         d="m 10.451422,-4.3662422 c 0,0.4453125 0.08203,0.9257813 0.65625,0.9257813 0.84375,0 1.253906,-1.1953125 1.253906,-1.3476563 0,-0.046875 -0.04687,-0.09375 -0.105469,-0.09375 -0.07031,0 -0.08203,0.058594 -0.09375,0.082031 -0.164062,0.4921875 -0.632812,0.6328125 -0.867187,0.6328125 -0.28125,0 -0.421875,-0.1171875 -0.550781,-0.6796875 1.242187,-0.4335938 2.238281,-1.6757813 2.238281,-2.90625 0,-1.0898438 -0.785156,-1.9335938 -2.015625,-1.9335938 -1.6640626,0 -3.2812501,1.5585938 -3.2812501,3.1289063 0,1.125 0.8320312,1.9101562 2.0273437,1.9101562 0.140625,0 0.3750004,-0.011719 0.7382814,-0.09375 z M 9.2443906,-4.9638984 C 8.8811094,-5.0928047 8.3654844,-5.4560859 8.3654844,-6.3818672 c 0,-0.4453125 0.140625,-1.3710937 0.7734375,-2.1679687 0.4453125,-0.5390625 1.1250001,-0.9140625 1.7695311,-0.9140625 0.761719,0 1.40625,0.5039062 1.40625,1.5234375 0,0.703125 -0.351562,2.1914062 -1.617187,2.8359375 -0.117188,-0.4453125 -0.292969,-0.7382813 -0.7148441,-0.7382813 -0.3867188,0 -0.7734375,0.328125 -0.7734375,0.703125 0,0.1171875 0.011719,0.1289063 0.035156,0.1757813 z m 1.2070314,-0.035156 c -0.152344,0.058594 -0.410156,0.1289063 -0.6914064,0.1289063 -0.1054687,0 -0.3515625,0 -0.3515625,-0.2695313 0,-0.2695312 0.28125,-0.5039062 0.5742188,-0.5039062 0.2578121,0 0.4453121,0.1054687 0.4687501,0.6445312 z m 0,0"
         style="fill:#000000;fill-opacity:1;fill-rule:nonzero;stroke:none" />
      <path
         id="path4"
         d="m 8.2951719,-1.8349922 c -1.3242188,0.92578126 -1.6757813,2.41406251 -1.6757813,3.4804688 0,0.984375 0.2929688,2.5078125 1.6757813,3.4804687 0.058594,0 0.140625,0 0.140625,-0.082031 0,-0.046875 -0.023437,-0.058594 -0.070312,-0.1054688 -0.9257813,-0.8320312 -1.265625,-2.015625 -1.265625,-3.2929687 0,-1.87500004 0.7148437,-2.8007813 1.2890625,-3.3164063 0.023437,-0.023437 0.046875,-0.046875 0.046875,-0.082031 0,-0.082031 -0.082031,-0.082031 -0.1406255,-0.082032 z m 0,0"
         style="fill:#000000;fill-opacity:1;fill-rule:nonzero;stroke:none" />
      <path
         id="path5"
         d="m 11.957281,2.8290703 c -0.03516,0.140625 -0.09375,0.375 -0.09375,0.4101563 0,0.1523437 0.128906,0.2226562 0.234375,0.2226562 0.128906,0 0.234375,-0.09375 0.269531,-0.1523437 0.03516,-0.058594 0.09375,-0.2929688 0.128907,-0.4335938 0.03516,-0.1289062 0.117187,-0.4570312 0.152343,-0.6328125 0.04687,-0.1523437 0.08203,-0.3046875 0.117188,-0.4570312 0.08203,-0.3046875 0.08203,-0.3164063 0.222656,-0.5390625 0.222656,-0.33984379 0.5625,-0.73828129 1.113281,-0.73828129 0.386719,0 0.410157,0.328125 0.410157,0.49218749 0,0.421875 -0.304688,1.1953125 -0.410157,1.4882813 -0.08203,0.1875 -0.105468,0.2578125 -0.105468,0.375 0,0.3632812 0.304687,0.5976562 0.65625,0.5976562 0.703125,0 1.007812,-0.9609375 1.007812,-1.0664062 0,-0.09375 -0.09375,-0.09375 -0.105469,-0.09375 -0.105468,0 -0.105468,0.046875 -0.140625,0.1171875 -0.152343,0.5625 -0.457031,0.84375 -0.738281,0.84375 -0.140625,0 -0.175781,-0.09375 -0.175781,-0.2460938 0,-0.1523437 0.03516,-0.2460937 0.164062,-0.5625 0.08203,-0.2109375 0.375,-0.9492187 0.375,-1.3476562 0,-0.1054688 0,-0.39843754 -0.257812,-0.59765629 -0.128906,-0.09375 -0.328125,-0.1875 -0.65625,-0.1875 -0.621094,0 -1.007813,0.41015625 -1.230469,0.70312499 C 12.836187,0.42672656 12.344,0.32125781 11.992437,0.32125781 c -0.585937,0 -0.972656,0.3515625 -1.183593,0.6328125 -0.04687,-0.48046875 -0.457032,-0.6328125 -0.75,-0.6328125 -0.292969,0 -0.4570315,0.2109375 -0.5507815,0.375 -0.1523438,0.2578125 -0.2460938,0.65624999 -0.2460938,0.69140629 0,0.082031 0.09375,0.082031 0.1171875,0.082031 0.09375,0 0.1054688,-0.011719 0.1523438,-0.1992187 0.1054687,-0.42187504 0.234375,-0.76171879 0.515625,-0.76171879 0.175781,0 0.222656,0.15234375 0.222656,0.33984375 0,0.140625 -0.05859,0.39843754 -0.105469,0.58593754 -0.04687,0.1875 -0.117187,0.46875 -0.152343,0.6210937 L 9.7893125,2.9579766 C 9.7541562,3.0400078 9.719,3.2157891 9.719,3.2392266 c 0,0.1523437 0.1171875,0.2226562 0.234375,0.2226562 0.128906,0 0.234375,-0.09375 0.269531,-0.1523437 0.03516,-0.058594 0.09375,-0.2929688 0.128906,-0.4335938 0.03516,-0.1289062 0.105469,-0.4570312 0.152344,-0.6328125 0.03516,-0.1523437 0.08203,-0.3046875 0.117188,-0.4570312 0.08203,-0.2929688 0.09375,-0.3515625 0.292968,-0.6328125 0.199219,-0.28125004 0.527344,-0.64453129 1.042969,-0.64453129 0.410156,0 0.410156,0.36328125 0.410156,0.49218749 0,0.1757813 -0.01172,0.2695313 -0.117187,0.65625 z m 5.519531,0.4453125 c 0,0.3867188 -0.07031,0.8320313 -0.550781,1.2773438 -0.02344,0.035156 -0.04687,0.058594 -0.04687,0.09375 0,0.046875 0.05859,0.09375 0.09375,0.09375 0.105469,0 0.691406,-0.5625 0.691406,-1.3945313 0,-0.421875 -0.164062,-0.75 -0.480468,-0.75 -0.234375,0 -0.398438,0.1757813 -0.398438,0.3867188 0,0.234375 0.152344,0.4101562 0.398438,0.4101562 0.164062,0 0.28125,-0.1171875 0.292968,-0.1171875 z m 3.149415,-4.24218749 c 0,-0.10546871 -0.08203,-0.25781251 -0.28125,-0.25781251 -0.1875,0 -0.386719,0.1757813 -0.386719,0.37500001 0,0.1171875 0.08203,0.26953125 0.269531,0.26953125 0.210938,0 0.398438,-0.19921875 0.398438,-0.38671875 z M 19.196539,2.5712578 c -0.02344,0.09375 -0.05859,0.1757813 -0.05859,0.2929688 0,0.328125 0.28125,0.5976562 0.667969,0.5976562 0.691406,0 0.996094,-0.9609375 0.996094,-1.0664062 0,-0.09375 -0.08203,-0.09375 -0.105469,-0.09375 -0.105469,0 -0.105469,0.046875 -0.140625,0.1171875 -0.152344,0.5625 -0.457031,0.84375 -0.738281,0.84375 -0.140625,0 -0.175781,-0.082031 -0.175781,-0.2460938 0,-0.1523437 0.05859,-0.2929687 0.117187,-0.4453125 0.07031,-0.1875 0.140625,-0.375 0.222656,-0.5507812 0.05859,-0.1640625 0.316407,-0.8085938 0.339844,-0.890625 0.02344,-0.070312 0.04687,-0.15234379 0.04687,-0.22265629 0,-0.328125 -0.28125,-0.5859375 -0.667969,-0.5859375 -0.691406,0 -1.007812,0.94921879 -1.007812,1.06640629 0,0.082031 0.09375,0.082031 0.117187,0.082031 0.09375,0 0.105469,-0.035156 0.128907,-0.1054687 0.175781,-0.59765629 0.480468,-0.85546879 0.738281,-0.85546879 0.117187,0 0.175781,0.0585938 0.175781,0.24609375 0,0.1640625 -0.03516,0.26953124 -0.210937,0.70312504 z m 0,0"
         style="fill:#000000;fill-opacity:1;fill-rule:nonzero;stroke:none" />
      <path
         id="path6"
         d="m 21.821539,-1.8349922 c -0.05859,0 -0.140625,0 -0.140625,0.082031 0,0.035156 0.02344,0.058594 0.07031,0.1054687 0.597656,0.5507813 1.265625,1.48828126 1.265625,3.2929688 0,1.453125 -0.457032,2.5546875 -1.207032,3.234375 -0.117187,0.1171875 -0.128906,0.1289062 -0.128906,0.1640625 0,0.035156 0.02344,0.082031 0.09375,0.082031 0.08203,0 0.75,-0.4570312 1.207031,-1.3242187 0.304688,-0.5859375 0.503907,-1.3359375 0.503907,-2.15625 0,-0.98437504 -0.292969,-2.50781254 -1.664063,-3.4804688 z m 0,0"
         style="fill:#000000;fill-opacity:1;fill-rule:nonzero;stroke:none" />
      <path
         id="path7"
         d="m 31.094,-2.2978828 h 2.777344 c 0.140625,0 0.328125,0 0.328125,-0.1992188 0,-0.1992187 -0.1875,-0.1992187 -0.328125,-0.1992187 H 31.094 v -2.7890625 c 0,-0.1289063 0,-0.328125 -0.199219,-0.328125 -0.199219,0 -0.199219,0.1992187 -0.199219,0.328125 v 2.7890625 H 27.9065 c -0.140625,0 -0.328125,0 -0.328125,0.1992187 0,0.1992188 0.1875,0.1992188 0.328125,0.1992188 h 2.789062 v 2.80078124 c 0,0.12890625 0,0.328125 0.199219,0.328125 0.199219,0 0.199219,-0.19921875 0.199219,-0.328125 z m 0,0"
         style="fill:#000000;fill-opacity:1;fill-rule:nonzero;stroke:none" />
      <path
         id="path8"
         d="m 44.547125,-6.9267891 c 0,-0.023437 -0.02344,-0.09375 -0.105469,-0.09375 -0.03516,0 -0.04687,0.011719 -0.152344,0.1171875 l -0.703125,0.7617188 c -0.08203,-0.140625 -0.539062,-0.8789063 -1.652343,-0.8789063 -2.214844,0 -4.453125,2.203125 -4.453125,4.5117188 0,1.58203124 1.101562,2.73046874 2.71875,2.73046874 0.433593,0 0.878906,-0.09375 1.242187,-0.24609375 0.492188,-0.19921875 0.679688,-0.41015625 0.867188,-0.609375 0.08203,0.2578125 0.351562,0.62109375 0.445312,0.62109375 0.04687,0 0.07031,-0.0234375 0.07031,-0.03515625 0.02344,-0.0234375 0.117187,-0.3984375 0.164062,-0.609375 L 43.18775,-1.4306953 c 0.03516,-0.1640625 0.08203,-0.328125 0.128906,-0.5039063 0.105469,-0.4453125 0.117188,-0.46875 0.679688,-0.4804687 0.05859,0 0.164062,-0.011719 0.164062,-0.1992188 0,-0.070312 -0.04687,-0.1054687 -0.128906,-0.1054687 -0.234375,0 -0.820313,0.023437 -1.042969,0.023437 -0.316406,0 -1.089844,-0.023437 -1.394531,-0.023437 -0.09375,0 -0.210938,0 -0.210938,0.1992187 0,0.1054688 0.08203,0.1054688 0.292969,0.1054688 0.01172,0 0.304688,0 0.527344,0.023437 0.257812,0.035156 0.316406,0.058594 0.316406,0.1875 0,0.09375 -0.117187,0.5390625 -0.210937,0.9023437 -0.28125,1.10156254 -1.582032,1.20703129 -1.921875,1.20703129 -0.960938,0 -2.003907,-0.5625 -2.003907,-2.08593749 0,-0.3164063 0.09375,-1.9570313 1.148438,-3.2460938 0.539062,-0.6796875 1.5,-1.2890625 2.484375,-1.2890625 1.019531,0 1.605469,0.7734375 1.605469,1.921875 0,0.3984375 -0.03516,0.4101563 -0.03516,0.5039063 0,0.1054687 0.117188,0.1054687 0.152344,0.1054687 0.128906,0 0.128906,-0.023437 0.175781,-0.1992187 z m 0,0"
         style="fill:#000000;fill-opacity:1;fill-rule:nonzero;stroke:none" />
      <path
         id="path9"
         d="m 48.056891,-4.3662422 c 0,0.4453125 0.08203,0.9257813 0.65625,0.9257813 0.84375,0 1.253906,-1.1953125 1.253906,-1.3476563 0,-0.046875 -0.04687,-0.09375 -0.105469,-0.09375 -0.07031,0 -0.08203,0.058594 -0.09375,0.082031 -0.164062,0.4921875 -0.632812,0.6328125 -0.867187,0.6328125 -0.28125,0 -0.421875,-0.1171875 -0.550782,-0.6796875 1.242188,-0.4335938 2.238282,-1.6757813 2.238282,-2.90625 0,-1.0898438 -0.785157,-1.9335938 -2.015625,-1.9335938 -1.664063,0 -3.28125,1.5585938 -3.28125,3.1289063 0,1.125 0.832031,1.9101562 2.027343,1.9101562 0.140625,0 0.375,-0.011719 0.738282,-0.09375 z m -1.207032,-0.5976562 c -0.363281,-0.1289063 -0.878906,-0.4921875 -0.878906,-1.4179688 0,-0.4453125 0.140625,-1.3710937 0.773438,-2.1679687 0.445312,-0.5390625 1.125,-0.9140625 1.769531,-0.9140625 0.761719,0 1.40625,0.5039062 1.40625,1.5234375 0,0.703125 -0.351563,2.1914062 -1.617188,2.8359375 -0.117187,-0.4453125 -0.292968,-0.7382813 -0.714843,-0.7382813 -0.386719,0 -0.773438,0.328125 -0.773438,0.703125 0,0.1171875 0.01172,0.1289063 0.03516,0.1757813 z m 1.207032,-0.035156 c -0.152344,0.058594 -0.410157,0.1289063 -0.691407,0.1289063 -0.105468,0 -0.351562,0 -0.351562,-0.2695313 0,-0.2695312 0.28125,-0.5039062 0.574219,-0.5039062 0.257812,0 0.445312,0.1054687 0.46875,0.6445312 z m 0,0"
         style="fill:#000000;fill-opacity:1;fill-rule:nonzero;stroke:none" />
      <path
         id="path10"
         d="m 47.283453,-1.8349922 c -1.324219,0.92578126 -1.675781,2.41406251 -1.675781,3.4804688 0,0.984375 0.292969,2.5078125 1.675781,3.4804687 0.05859,0 0.140625,0 0.140625,-0.082031 0,-0.046875 -0.02344,-0.058594 -0.07031,-0.1054688 -0.925782,-0.8320312 -1.265625,-2.015625 -1.265625,-3.2929687 0,-1.87500004 0.714843,-2.8007813 1.289062,-3.3164063 0.02344,-0.023437 0.04687,-0.046875 0.04687,-0.082031 0,-0.082031 -0.08203,-0.082031 -0.140625,-0.082031 z m 0,0"
         style="fill:#000000;fill-opacity:1;fill-rule:nonzero;stroke:none" />
      <path
         id="path11"
         d="m 50.948492,2.8290703 c -0.03516,0.140625 -0.09375,0.375 -0.09375,0.4101563 0,0.1523437 0.128906,0.2226562 0.234375,0.2226562 0.128906,0 0.234375,-0.09375 0.269531,-0.1523437 0.03516,-0.058594 0.09375,-0.2929688 0.128907,-0.4335938 0.03516,-0.1289062 0.117187,-0.4570312 0.152343,-0.6328125 0.04687,-0.1523437 0.08203,-0.3046875 0.117188,-0.4570312 0.08203,-0.3046875 0.08203,-0.3164063 0.222656,-0.5390625 0.222656,-0.33984379 0.5625,-0.73828129 1.113281,-0.73828129 0.386719,0 0.410157,0.328125 0.410157,0.49218749 0,0.421875 -0.304688,1.1953125 -0.410157,1.4882813 -0.08203,0.1875 -0.105468,0.2578125 -0.105468,0.375 0,0.3632812 0.304687,0.5976562 0.65625,0.5976562 0.703125,0 1.007812,-0.9609375 1.007812,-1.0664062 0,-0.09375 -0.09375,-0.09375 -0.105469,-0.09375 -0.105468,0 -0.105468,0.046875 -0.140625,0.1171875 -0.152343,0.5625 -0.457031,0.84375 -0.738281,0.84375 -0.140625,0 -0.175781,-0.09375 -0.175781,-0.2460938 0,-0.1523437 0.03516,-0.2460937 0.164062,-0.5625 0.08203,-0.2109375 0.375,-0.9492187 0.375,-1.3476562 0,-0.1054688 0,-0.39843754 -0.257812,-0.59765629 -0.128906,-0.09375 -0.328125,-0.1875 -0.65625,-0.1875 -0.621094,0 -1.007813,0.41015625 -1.230469,0.70312499 -0.05859,-0.59765624 -0.550781,-0.70312499 -0.902344,-0.70312499 -0.585937,0 -0.972656,0.3515625 -1.183593,0.6328125 -0.04687,-0.48046875 -0.457032,-0.6328125 -0.75,-0.6328125 -0.292969,0 -0.457032,0.2109375 -0.550782,0.375 -0.152343,0.2578125 -0.246093,0.65624999 -0.246093,0.69140629 0,0.082031 0.09375,0.082031 0.117187,0.082031 0.09375,0 0.105469,-0.011719 0.152344,-0.1992187 0.105469,-0.42187504 0.234375,-0.76171879 0.515625,-0.76171879 0.175781,0 0.222656,0.15234375 0.222656,0.33984375 0,0.140625 -0.05859,0.39843754 -0.105469,0.58593754 -0.04687,0.1875 -0.117187,0.46875 -0.152343,0.6210937 l -0.222657,0.9023438 c -0.03516,0.082031 -0.07031,0.2578125 -0.07031,0.28125 0,0.1523437 0.117187,0.2226562 0.234375,0.2226562 0.128906,0 0.234375,-0.09375 0.269531,-0.1523437 0.03516,-0.058594 0.09375,-0.2929688 0.128906,-0.4335938 0.03516,-0.1289062 0.105469,-0.4570312 0.152344,-0.6328125 0.03516,-0.1523437 0.08203,-0.3046875 0.117188,-0.4570312 0.08203,-0.2929688 0.09375,-0.3515625 0.292968,-0.6328125 0.199219,-0.28125004 0.527344,-0.64453129 1.042969,-0.64453129 0.410156,0 0.410156,0.36328125 0.410156,0.49218749 0,0.1757813 -0.01172,0.2695313 -0.117187,0.65625 z m 5.516602,0.4453125 c 0,0.3867188 -0.07031,0.8320313 -0.550782,1.2773438 -0.02344,0.035156 -0.04687,0.058594 -0.04687,0.09375 0,0.046875 0.05859,0.09375 0.09375,0.09375 0.105469,0 0.691407,-0.5625 0.691407,-1.3945313 0,-0.421875 -0.164063,-0.75 -0.480469,-0.75 -0.234375,0 -0.398438,0.1757813 -0.398438,0.3867188 0,0.234375 0.152344,0.4101562 0.398438,0.4101562 0.164062,0 0.28125,-0.1171875 0.292969,-0.1171875 z m 3.149414,-4.24218749 c 0,-0.10546871 -0.08203,-0.25781251 -0.28125,-0.25781251 -0.1875,0 -0.386719,0.1757813 -0.386719,0.37500001 0,0.1171875 0.08203,0.26953125 0.269531,0.26953125 0.210938,0 0.398438,-0.19921875 0.398438,-0.38671875 z M 58.18482,2.5712578 c -0.02344,0.09375 -0.05859,0.1757813 -0.05859,0.2929688 0,0.328125 0.28125,0.5976562 0.667968,0.5976562 0.691407,0 0.996094,-0.9609375 0.996094,-1.0664062 0,-0.09375 -0.08203,-0.09375 -0.105469,-0.09375 -0.105468,0 -0.105468,0.046875 -0.140625,0.1171875 -0.152343,0.5625 -0.457031,0.84375 -0.738281,0.84375 -0.140625,0 -0.175781,-0.082031 -0.175781,-0.2460938 0,-0.1523437 0.05859,-0.2929687 0.117187,-0.4453125 0.07031,-0.1875 0.140625,-0.375 0.222657,-0.5507812 0.05859,-0.1640625 0.316406,-0.8085938 0.339843,-0.890625 0.02344,-0.070312 0.04687,-0.15234379 0.04687,-0.22265629 0,-0.328125 -0.28125,-0.5859375 -0.667968,-0.5859375 -0.691407,0 -1.007813,0.94921879 -1.007813,1.06640629 0,0.082031 0.09375,0.082031 0.117188,0.082031 0.09375,0 0.105468,-0.035156 0.128906,-0.1054687 0.175781,-0.59765629 0.480469,-0.85546879 0.738281,-0.85546879 0.117188,0 0.175781,0.0585938 0.175781,0.24609375 0,0.1640625 -0.03516,0.26953124 -0.210937,0.70312504 z m 0,0"
         style="fill:#000000;fill-opacity:1;fill-rule:nonzero;stroke:none" />
      <path
         id="path12"
         d="m 60.81275,-1.8349922 c -0.05859,0 -0.140625,0 -0.140625,0.082031 0,0.035156 0.02344,0.058594 0.07031,0.1054687 0.597657,0.5507813 1.265625,1.48828126 1.265625,3.2929688 0,1.453125 -0.457031,2.5546875 -1.207031,3.234375 -0.117187,0.1171875 -0.128906,0.1289062 -0.128906,0.1640625 0,0.035156 0.02344,0.082031 0.09375,0.082031 0.08203,0 0.75,-0.4570312 1.207031,-1.3242187 0.304688,-0.5859375 0.503906,-1.3359375 0.503906,-2.15625 0,-0.98437504 -0.292968,-2.50781254 -1.664062,-3.4804688 z m 0,0"
         style="fill:#000000;fill-opacity:1;fill-rule:nonzero;stroke:none" />
      <path
         id="path13"
         d="m 70.082281,-2.2978828 h 2.777344 c 0.140625,0 0.328125,0 0.328125,-0.1992188 0,-0.1992187 -0.1875,-0.1992187 -0.328125,-0.1992187 h -2.777344 v -2.7890625 c 0,-0.1289063 0,-0.328125 -0.199219,-0.328125 -0.199218,0 -0.199218,0.1992187 -0.199218,0.328125 v 2.7890625 h -2.789063 c -0.140625,0 -0.328125,0 -0.328125,0.1992187 0,0.1992188 0.1875,0.1992188 0.328125,0.1992188 h 2.789063 v 2.80078124 c 0,0.12890625 0,0.328125 0.199218,0.328125 0.199219,0 0.199219,-0.19921875 0.199219,-0.328125 z m 0,0"
         style="fill:#000000;fill-opacity:1;fill-rule:nonzero;stroke:none" />
      <path
         id="path14"
         d="m 85.19068,-6.0361641 c 0.09375,-0.3632812 0.105468,-0.4570312 0.855468,-0.4570312 0.234375,0 0.316407,0 0.316407,-0.1992188 0,-0.1171875 -0.09375,-0.1171875 -0.269532,-0.1171875 h -1.3125 c -0.257812,0 -0.269531,0 -0.386718,0.1992188 l -3.632813,5.67187499 -0.773437,-5.63671879 c -0.03516,-0.234375 -0.05859,-0.234375 -0.316407,-0.234375 h -1.359375 c -0.1875,0 -0.304687,0 -0.304687,0.1992188 0,0.1171875 0.09375,0.1171875 0.292969,0.1171875 0.128906,0 0.304687,0.011719 0.421875,0.011719 0.164062,0.023437 0.222656,0.058594 0.222656,0.1640625 0,0.035156 -0.01172,0.070312 -0.03516,0.1875 l -1.265625,5.0742188 c -0.105469,0.39843749 -0.269532,0.71484374 -1.078125,0.74999999 -0.04687,0 -0.175782,0 -0.175782,0.1875 0,0.08203125 0.05859,0.1171875 0.140625,0.1171875 0.316407,0 0.667969,-0.03515625 0.996094,-0.03515625 0.339844,0 0.691406,0.03515625 1.019531,0.03515625 0.04687,0 0.175782,0 0.175782,-0.19921875 0,-0.10546875 -0.105469,-0.10546875 -0.175782,-0.10546875 -0.5625,-0.0117188 -0.679687,-0.2109375 -0.679687,-0.4453125 0,-0.0703125 0.01172,-0.1171875 0.04687,-0.22265625 l 1.347656,-5.43750004 h 0.01172 l 0.855469,6.17578129 c 0.02344,0.12890625 0.03516,0.234375 0.152343,0.234375 0.105469,0 0.175782,-0.10546875 0.222657,-0.17578125 l 4.019531,-6.30468754 h 0.01172 l -1.429688,5.70703129 c -0.09375,0.38671875 -0.117187,0.46875 -0.902344,0.46875 -0.164062,0 -0.28125,0 -0.28125,0.1875 0,0.1171875 0.128907,0.1171875 0.152344,0.1171875 0.28125,0 0.960938,-0.03515625 1.230469,-0.03515625 0.410156,0 0.84375,0.03515625 1.253906,0.03515625 0.05859,0 0.1875,0 0.1875,-0.19921875 0,-0.10546875 -0.09375,-0.10546875 -0.28125,-0.10546875 -0.363281,0 -0.644531,0 -0.644531,-0.1875 0,-0.0351563 0,-0.0585938 0.04687,-0.234375 z m 0,0"
         style="fill:#000000;fill-opacity:1;fill-rule:nonzero;stroke:none" />
      <path
         id="path15"
         d="m 90.830328,3.3798516 c 0,-0.046875 -0.02344,-0.058594 -0.03516,-0.09375 -0.457027,-0.4921875 -1.136715,-1.2890625 -1.55859,-2.91796879 -0.222656,-0.90234375 -0.316406,-1.93359371 -0.316406,-2.85937501 0,-2.625 0.621094,-4.453125 1.816406,-5.7421875 0.09375,-0.09375 0.09375,-0.1171875 0.09375,-0.140625 0,-0.09375 -0.08203,-0.09375 -0.117187,-0.09375 -0.152344,0 -0.691407,0.5976563 -0.820313,0.75 -1.019531,1.2070313 -1.664062,3 -1.664062,5.2148438 0,1.4179687 0.246093,3.42187496 1.558593,5.0976562 0.09375,0.1289063 0.75,0.8789063 0.925782,0.8789063 0.03516,0 0.117187,0 0.117187,-0.09375 z m 0,0"
         style="fill:#000000;fill-opacity:1;fill-rule:nonzero;stroke:none" />
      <path
         id="path16"
         d="m 94.214117,-6.3760078 c 0,-0.234375 0,-0.2578125 -0.234375,-0.2578125 -0.609375,0.6328125 -1.488281,0.6328125 -1.804687,0.6328125 v 0.3164062 c 0.199218,0 0.785156,0 1.300781,-0.2578125 v 5.15625004 c 0,0.3515625 -0.03516,0.48046875 -0.925781,0.48046875 h -0.316407 v 0.3046875 c 0.351563,-0.03515625 1.207032,-0.03515625 1.605469,-0.03515625 0.398438,0 1.265625,0 1.617188,0.03515625 v -0.3046875 h -0.316407 c -0.902343,0 -0.925781,-0.1171875 -0.925781,-0.48046875 z m 0,0"
         style="fill:#000000;fill-opacity:1;fill-rule:nonzero;stroke:none" />
      <path
         id="path17"
         d="m 105.04224,-2.2978828 c 0.17578,0 0.35156,0 0.35156,-0.1992188 0,-0.1992187 -0.17578,-0.1992187 -0.35156,-0.1992187 h -5.390623 c -0.164062,0 -0.339844,0 -0.339844,0.1992187 0,0.1992188 0.175782,0.1992188 0.339844,0.1992188 z m 0,0"
         style="fill:#000000;fill-opacity:1;fill-rule:nonzero;stroke:none" />
      <path
         id="path18"
         d="m 114.7688,-5.7549141 c 0.0937,-0.4101562 0.28125,-0.7148437 1.07813,-0.7382812 0.0469,0 0.16406,-0.011719 0.16406,-0.1992188 0,-0.011719 0,-0.1171875 -0.1289,-0.1171875 -0.32813,0 -0.67969,0.035156 -1.01954,0.035156 -0.33984,0 -0.70312,-0.035156 -1.03125,-0.035156 -0.0586,0 -0.17578,0 -0.17578,0.1992188 0,0.1171875 0.0937,0.1171875 0.17578,0.1171875 0.5625,0.011719 0.67969,0.2109375 0.67969,0.4335937 0,0.035156 -0.0234,0.1757813 -0.0352,0.2109375 l -0.89063,3.5507813 c -0.33984,1.33593749 -1.48828,2.20312499 -2.48437,2.20312499 -0.67969,0 -1.21875,-0.43359375 -1.21875,-1.28906249 0,-0.023437 0,-0.3398438 0.11718,-0.7734375 l 0.96094,-3.8789063 c 0.0937,-0.3632812 0.10547,-0.4570312 0.83203,-0.4570312 0.26953,0 0.33985,0 0.33985,-0.1992188 0,-0.1171875 -0.10547,-0.1171875 -0.14063,-0.1171875 -0.26953,0 -0.99609,0.035156 -1.26562,0.035156 -0.29297,0 -0.9961,-0.035156 -1.28907,-0.035156 -0.082,0 -0.1875,0 -0.1875,0.1992188 0,0.1171875 0.0937,0.1171875 0.28125,0.1171875 0.0117,0 0.21094,0 0.375,0.011719 0.17578,0.023437 0.26953,0.035156 0.26953,0.1640625 0,0.058594 -0.10546,0.4804688 -0.17578,0.703125 l -0.21093,0.8789063 c -0.0937,0.3867187 -0.57422,2.2734375 -0.60938,2.4609375 -0.0703,0.28125 -0.0703,0.4335937 -0.0703,0.5742187 0,1.21875004 0.90234,1.92187504 1.95703,1.92187504 1.25391,0 2.48437,-1.125 2.8125,-2.44921874 z m 0,0"
         style="fill:#000000;fill-opacity:1;fill-rule:nonzero;stroke:none" />
      <path
         id="path19"
         d="m 121.99048,-4.7265937 c 0,-0.058594 0,-0.1523438 -0.0937,-0.1523438 -0.082,0 -0.0937,0.070312 -0.10546,0.1289063 -0.0469,0.4101562 -0.41016,0.5742187 -0.67969,0.5742187 -0.36328,0 -0.53906,-0.2929687 -0.72656,-0.6679687 0.8789,-0.3515625 1.57031,-1.2421875 1.57031,-2.296875 0,-1.3945313 -1.14844,-2.5429688 -2.56641,-2.5429688 -1.42969,0 -2.5664,1.1484375 -2.5664,2.5429688 0,1.3710937 1.13671,2.4960937 2.5664,2.4960937 0.082,0 0.36328,0 0.70313,-0.09375 0.16406,0.6914063 0.30468,1.3007813 0.96093,1.3007813 0.72657,0 0.9375,-0.8554688 0.9375,-1.2890625 z m -0.76171,-2.4257813 c 0,1.2421875 -0.57422,1.8046875 -0.97266,2.0390625 -0.17578,-0.3515625 -0.41016,-0.7265625 -0.86719,-0.7265625 -0.36328,0 -0.64453,0.2695313 -0.64453,0.5976563 0,0.09375 0.0352,0.1992187 0.082,0.28125 -0.60937,-0.2109375 -1.28906,-0.84375 -1.28906,-2.1914063 0,-1.6289062 0.98437,-2.3085937 1.85156,-2.3085937 0.85547,0 1.83985,0.6796875 1.83985,2.3085937 z m -1.20704,2.15625 c -0.11718,0.046875 -0.36328,0.1289063 -0.63281,0.1289063 -0.375,0 -0.44531,-0.2695313 -0.44531,-0.3867188 0,-0.1992187 0.1875,-0.3867187 0.44531,-0.3867187 0.36328,0 0.52735,0.2578125 0.63281,0.6445312 z m 7.61426,-1.4179687 c 0,-0.082031 -0.0117,-0.140625 -0.11719,-0.140625 -0.0469,0 -0.11718,0 -0.1289,0.09375 -0.0469,1.125 -0.9961,1.5585937 -1.6875,1.5585937 -0.75,0 -2.02735,-0.4453125 -2.02735,-2.2617187 0,-1.8867188 1.35938,-2.2734375 2.01563,-2.2734375 0.69141,0 1.51172,0.4570312 1.6875,1.6640625 0.0117,0.082031 0.082,0.082031 0.12891,0.082031 0.1289,0 0.1289,-0.046875 0.1289,-0.1875 v -1.6289062 c 0,-0.1171875 0,-0.1757813 -0.10547,-0.1757813 -0.0234,0 -0.0586,0 -0.11718,0.082031 l -0.36329,0.5273437 c -0.29296,-0.2929687 -0.77343,-0.609375 -1.4414,-0.609375 -1.46485,0 -2.67188,1.125 -2.67188,2.5195313 0,1.40625 1.21875,2.5195312 2.67188,2.5195312 1.23047,0 2.02734,-0.9257812 2.02734,-1.7695307 z m 0,0"
         style="fill:#000000;fill-opacity:1;fill-rule:nonzero;stroke:none" />
      <path
         id="path20"
         d="m 117.71607,-1.8349922 c -1.32422,0.92578126 -1.67578,2.41406251 -1.67578,3.4804688 0,0.984375 0.29297,2.5078125 1.67578,3.4804687 0.0586,0 0.14063,0 0.14063,-0.082031 0,-0.046875 -0.0234,-0.058594 -0.0703,-0.1054688 -0.92578,-0.8320312 -1.26562,-2.015625 -1.26562,-3.2929687 0,-1.87500004 0.71484,-2.8007813 1.28906,-3.3164063 0.0234,-0.023437 0.0469,-0.046875 0.0469,-0.082031 0,-0.082031 -0.082,-0.082031 -0.14063,-0.082031 z m 0,0"
         style="fill:#000000;fill-opacity:1;fill-rule:nonzero;stroke:none" />
      <path
         id="path21"
         d="m 121.38111,2.8290703 c -0.0352,0.140625 -0.0937,0.375 -0.0937,0.4101563 0,0.1523437 0.12891,0.2226562 0.23437,0.2226562 0.12891,0 0.23438,-0.09375 0.26954,-0.1523437 0.0352,-0.058594 0.0937,-0.2929688 0.1289,-0.4335938 0.0352,-0.1289062 0.11719,-0.4570312 0.15235,-0.6328125 0.0469,-0.1523437 0.082,-0.3046875 0.11718,-0.4570312 0.082,-0.3046875 0.082,-0.3164063 0.22266,-0.5390625 0.22266,-0.33984379 0.5625,-0.73828129 1.11328,-0.73828129 0.38672,0 0.41016,0.328125 0.41016,0.49218749 0,0.421875 -0.30469,1.1953125 -0.41016,1.4882813 -0.082,0.1875 -0.10547,0.2578125 -0.10547,0.375 0,0.3632812 0.30469,0.5976562 0.65625,0.5976562 0.70313,0 1.00781,-0.9609375 1.00781,-1.0664062 0,-0.09375 -0.0937,-0.09375 -0.10546,-0.09375 -0.10547,0 -0.10547,0.046875 -0.14063,0.1171875 -0.15234,0.5625 -0.45703,0.84375 -0.73828,0.84375 -0.14063,0 -0.17578,-0.09375 -0.17578,-0.2460938 0,-0.1523437 0.0352,-0.2460937 0.16406,-0.5625 0.082,-0.2109375 0.375,-0.9492187 0.375,-1.3476562 0,-0.1054688 0,-0.39843754 -0.25781,-0.59765629 -0.12891,-0.09375 -0.32813,-0.1875 -0.65625,-0.1875 -0.6211,0 -1.00781,0.41015625 -1.23047,0.70312499 -0.0586,-0.59765624 -0.55078,-0.70312499 -0.90234,-0.70312499 -0.58594,0 -0.97266,0.3515625 -1.1836,0.6328125 -0.0469,-0.48046875 -0.45703,-0.6328125 -0.75,-0.6328125 -0.29297,0 -0.45703,0.2109375 -0.55078,0.375 -0.15234,0.2578125 -0.24609,0.65624999 -0.24609,0.69140629 0,0.082031 0.0937,0.082031 0.11718,0.082031 0.0937,0 0.10547,-0.011719 0.15235,-0.1992187 0.10547,-0.42187504 0.23437,-0.76171879 0.51562,-0.76171879 0.17578,0 0.22266,0.15234375 0.22266,0.33984375 0,0.140625 -0.0586,0.39843754 -0.10547,0.58593754 -0.0469,0.1875 -0.11719,0.46875 -0.15234,0.6210937 l -0.22266,0.9023438 c -0.0352,0.082031 -0.0703,0.2578125 -0.0703,0.28125 0,0.1523437 0.11719,0.2226562 0.23437,0.2226562 0.12891,0 0.23438,-0.09375 0.26953,-0.1523437 0.0352,-0.058594 0.0937,-0.2929688 0.12891,-0.4335938 0.0352,-0.1289062 0.10547,-0.4570312 0.15234,-0.6328125 0.0352,-0.1523437 0.082,-0.3046875 0.11719,-0.4570312 0.082,-0.2929688 0.0937,-0.3515625 0.29297,-0.6328125 0.19922,-0.28125004 0.52734,-0.64453129 1.04297,-0.64453129 0.41016,0 0.41016,0.36328125 0.41016,0.49218749 0,0.1757813 -0.0117,0.2695313 -0.11719,0.65625 z m 5.5166,0.4453125 c 0,0.3867188 -0.0703,0.8320313 -0.55078,1.2773438 -0.0234,0.035156 -0.0469,0.058594 -0.0469,0.09375 0,0.046875 0.0586,0.09375 0.0937,0.09375 0.10547,0 0.69141,-0.5625 0.69141,-1.3945313 0,-0.421875 -0.16406,-0.75 -0.48047,-0.75 -0.23437,0 -0.39844,0.1757813 -0.39844,0.3867188 0,0.234375 0.15235,0.4101562 0.39844,0.4101562 0.16406,0 0.28125,-0.1171875 0.29297,-0.1171875 z m 3.14941,-4.24218749 c 0,-0.10546871 -0.082,-0.25781251 -0.28125,-0.25781251 -0.1875,0 -0.38671,0.1757813 -0.38671,0.37500001 0,0.1171875 0.082,0.26953125 0.26953,0.26953125 0.21093,0 0.39843,-0.19921875 0.39843,-0.38671875 z m -1.42968,3.53906249 c -0.0234,0.09375 -0.0586,0.1757813 -0.0586,0.2929688 0,0.328125 0.28125,0.5976562 0.66797,0.5976562 0.69141,0 0.9961,-0.9609375 0.9961,-1.0664062 0,-0.09375 -0.082,-0.09375 -0.10547,-0.09375 -0.10547,0 -0.10547,0.046875 -0.14063,0.1171875 -0.15234,0.5625 -0.45703,0.84375 -0.73828,0.84375 -0.14062,0 -0.17578,-0.082031 -0.17578,-0.2460938 0,-0.1523437 0.0586,-0.2929687 0.11719,-0.4453125 0.0703,-0.1875 0.14062,-0.375 0.22265,-0.5507812 0.0586,-0.1640625 0.31641,-0.8085938 0.33985,-0.890625 0.0234,-0.070312 0.0469,-0.15234379 0.0469,-0.22265629 0,-0.328125 -0.28125,-0.5859375 -0.66797,-0.5859375 -0.6914,0 -1.00781,0.94921879 -1.00781,1.06640629 0,0.082031 0.0937,0.082031 0.11719,0.082031 0.0937,0 0.10547,-0.035156 0.1289,-0.1054687 0.17579,-0.59765629 0.48047,-0.85546879 0.73829,-0.85546879 0.11718,0 0.17578,0.0585938 0.17578,0.24609375 0,0.1640625 -0.0352,0.26953124 -0.21094,0.70312504 z m 0,0"
         style="fill:#000000;fill-opacity:1;fill-rule:nonzero;stroke:none" />
      <path
         id="path22"
         d="m 131.24537,-1.8349922 c -0.0586,0 -0.14063,0 -0.14063,0.082031 0,0.035156 0.0234,0.058594 0.0703,0.1054687 0.59766,0.5507813 1.26563,1.48828126 1.26563,3.2929688 0,1.453125 -0.45703,2.5546875 -1.20703,3.234375 -0.11719,0.1171875 -0.12891,0.1289062 -0.12891,0.1640625 0,0.035156 0.0234,0.082031 0.0937,0.082031 0.082,0 0.75,-0.4570312 1.20703,-1.3242187 0.30469,-0.5859375 0.50391,-1.3359375 0.50391,-2.15625 0,-0.98437504 -0.29297,-2.50781254 -1.66406,-3.4804688 z m 4.94824,0 c -1.32422,0.92578126 -1.67578,2.41406251 -1.67578,3.4804688 0,0.984375 0.29297,2.5078125 1.67578,3.4804687 0.0586,0 0.14062,0 0.14062,-0.082031 0,-0.046875 -0.0234,-0.058594 -0.0703,-0.1054688 -0.92578,-0.8320312 -1.26562,-2.015625 -1.26562,-3.2929687 0,-1.87500004 0.71484,-2.8007813 1.28906,-3.3164063 0.0234,-0.023437 0.0469,-0.046875 0.0469,-0.082031 0,-0.082031 -0.082,-0.082031 -0.14062,-0.082031 z m 0,0"
         style="fill:#000000;fill-opacity:1;fill-rule:nonzero;stroke:none" />
      <path
         id="path23"
         d="m 137.69361,2.9579766 c -0.0352,0.082031 -0.0703,0.2578125 -0.0703,0.28125 0,0.1523437 0.11718,0.2226562 0.23437,0.2226562 0.12891,0 0.23438,-0.09375 0.26953,-0.1523437 0.0352,-0.058594 0.0937,-0.2929688 0.12891,-0.4335938 0.0352,-0.1289062 0.10547,-0.4570312 0.15234,-0.6328125 0.0352,-0.1523437 0.082,-0.3046875 0.11719,-0.4570312 0.082,-0.2929688 0.0937,-0.3515625 0.29297,-0.6328125 0.19922,-0.28125004 0.52734,-0.64453129 1.04297,-0.64453129 0.41015,0 0.41015,0.36328125 0.41015,0.49218749 0,0.421875 -0.29296,1.1953125 -0.41015,1.4882813 -0.0703,0.1875 -0.10547,0.2578125 -0.10547,0.375 0,0.3632812 0.30469,0.5976562 0.66797,0.5976562 0.6914,0 1.00781,-0.9609375 1.00781,-1.0664062 0,-0.09375 -0.0937,-0.09375 -0.11719,-0.09375 -0.0937,0 -0.10547,0.046875 -0.1289,0.1171875 -0.16407,0.5625 -0.46875,0.84375 -0.73828,0.84375 -0.15235,0 -0.17579,-0.09375 -0.17579,-0.2460938 0,-0.1523437 0.0352,-0.2460937 0.15235,-0.5625 0.0937,-0.2109375 0.375,-0.9492187 0.375,-1.3476562 0,-0.66796879 -0.53906,-0.78515629 -0.90235,-0.78515629 -0.58593,0 -0.97265,0.3515625 -1.18359,0.6328125 -0.0469,-0.48046875 -0.45703,-0.6328125 -0.75,-0.6328125 -0.29297,0 -0.45703,0.2109375 -0.55078,0.375 -0.15234,0.2578125 -0.24609,0.65624999 -0.24609,0.69140629 0,0.082031 0.0937,0.082031 0.11718,0.082031 0.0937,0 0.10547,-0.011719 0.15235,-0.1992187 0.10547,-0.42187504 0.23437,-0.76171879 0.51562,-0.76171879 0.17578,0 0.22266,0.15234375 0.22266,0.33984375 0,0.140625 -0.0586,0.39843754 -0.10547,0.58593754 -0.0469,0.1875 -0.11719,0.46875 -0.15234,0.6210937 z m 5.5459,0.3164062 c 0,0.3867188 -0.0703,0.8320313 -0.55078,1.2773438 -0.0234,0.035156 -0.0469,0.058594 -0.0469,0.09375 0,0.046875 0.0586,0.09375 0.0937,0.09375 0.10547,0 0.69141,-0.5625 0.69141,-1.3945313 0,-0.421875 -0.16406,-0.75 -0.48047,-0.75 -0.23438,0 -0.39844,0.1757813 -0.39844,0.3867188 0,0.234375 0.15235,0.4101562 0.39844,0.4101562 0.16406,0 0.28125,-0.1171875 0.29297,-0.1171875 z m 3.94629,-4.24218749 c 0,-0.11718751 -0.0937,-0.25781251 -0.28125,-0.25781251 -0.19922,0 -0.38672,0.1875 -0.38672,0.37500001 0,0.1171875 0.082,0.26953125 0.28125,0.26953125 0.1875,0 0.38672,-0.1875 0.38672,-0.38671875 z m -1.47657,4.69921879 c -0.11718,0.4804687 -0.49218,0.890625 -0.90234,0.890625 -0.082,0 -0.17578,-0.011719 -0.24609,-0.046875 0.17578,-0.082031 0.23437,-0.2460938 0.23437,-0.3515625 0,-0.1640625 -0.1289,-0.2578125 -0.26953,-0.2578125 -0.22266,0 -0.39844,0.1875 -0.39844,0.4101562 0,0.2695313 0.26953,0.4335938 0.69141,0.4335938 0.42187,0 1.23047,-0.2460938 1.45312,-1.1015625 l 0.6211,-2.4960938 c 0.0234,-0.070312 0.0351,-0.140625 0.0351,-0.23437499 0,-0.38671875 -0.32812,-0.65625 -0.73828,-0.65625 -0.78515,0 -1.23047,0.96093749 -1.23047,1.06640629 0,0.082031 0.10547,0.082031 0.12891,0.082031 0.082,0 0.082,-0.011719 0.12891,-0.1171875 0.17578,-0.41015624 0.53906,-0.84374999 0.94922,-0.84374999 0.17578,0 0.23437,0.1171875 0.23437,0.33984375 0,0.0820313 -0.0117,0.17578124 -0.0234,0.21093754 z m 3.16407,-0.4570313 c 0,0.3867188 -0.0703,0.8320313 -0.55078,1.2773438 -0.0234,0.035156 -0.0469,0.058594 -0.0469,0.09375 0,0.046875 0.0586,0.09375 0.0937,0.09375 0.10547,0 0.69141,-0.5625 0.69141,-1.3945313 0,-0.421875 -0.16407,-0.75 -0.48047,-0.75 -0.23438,0 -0.39844,0.1757813 -0.39844,0.3867188 0,0.234375 0.15234,0.4101562 0.39844,0.4101562 0.16406,0 0.28125,-0.1171875 0.29297,-0.1171875 z m 4.69629,-0.8671875 c 0.64453,-0.65625 0.90234,-1.59374999 0.90234,-1.66406249 0,-0.09375 -0.082,-0.09375 -0.11719,-0.09375 -0.0937,0 -0.0937,0.0234375 -0.14062,0.17578125 -0.12891,0.45703124 -0.36328,0.89062504 -0.65625,1.26562504 0,-0.1054688 -0.0234,-0.5742188 -0.0352,-0.6328125 -0.10547,-0.69140629 -0.62109,-1.13671879 -1.32422,-1.13671879 -1.01953,0 -2.0039,0.94921879 -2.0039,1.92187499 0,0.6445313 0.46875,1.21875 1.27734,1.21875 0.64453,0 1.21875,-0.2929687 1.60547,-0.5976562 0.16406,0.515625 0.51562,0.5976562 0.72656,0.5976562 0.41016,0 0.65625,-0.3398437 0.65625,-0.4921875 0,-0.082031 -0.082,-0.082031 -0.11719,-0.082031 -0.0937,0 -0.10547,0.035156 -0.11718,0.070312 -0.10547,0.2695312 -0.31641,0.3046875 -0.39844,0.3046875 -0.0937,0 -0.22266,0 -0.25781,-0.8554688 z m -0.53907,0.234375 c -0.67968,0.5625 -1.27734,0.6210938 -1.53515,0.6210938 -0.46875,0 -0.72657,-0.3046875 -0.72657,-0.7734375 0,-0.1992188 0.10547,-0.9609375 0.46875,-1.4414063 0.31641,-0.42187499 0.71485,-0.53906249 0.96094,-0.53906249 0.55078,0 0.71485,0.53906249 0.77344,0.97265629 0.0352,0.3046875 0.0234,0.796875 0.0586,1.1601562 z m 0,0"
         style="fill:#000000;fill-opacity:1;fill-rule:nonzero;stroke:none" />
      <path
         id="path24"
         d="m 155.57935,-1.8349922 c -0.0586,0 -0.14062,0 -0.14062,0.082031 0,0.035156 0.0234,0.058594 0.0703,0.1054687 0.59766,0.5507813 1.26562,1.48828126 1.26562,3.2929688 0,1.453125 -0.45703,2.5546875 -1.20703,3.234375 -0.11718,0.1171875 -0.1289,0.1289062 -0.1289,0.1640625 0,0.035156 0.0234,0.082031 0.0937,0.082031 0.082,0 0.75,-0.4570312 1.20703,-1.3242187 0.30469,-0.5859375 0.5039,-1.3359375 0.5039,-2.15625 0,-0.98437504 -0.29296,-2.50781254 -1.66406,-3.4804688 z m 0,0"
         style="fill:#000000;fill-opacity:1;fill-rule:nonzero;stroke:none" />
      <path
         id="path25"
         d="m 161.59107,-2.4912422 c 0,-1.4179687 -0.24609,-3.421875 -1.54687,-5.0976562 -0.10547,-0.1171875 -0.75,-0.8789063 -0.92579,-0.8789063 -0.0586,0 -0.1289,0.023437 -0.1289,0.09375 0,0.046875 0.0234,0.070312 0.0703,0.1054688 0.46875,0.515625 1.125,1.3242187 1.52344,2.90625 0.23437,0.9140625 0.32812,1.9335937 0.32812,2.859375 0,1.0078125 -0.0937,2.02734371 -0.35156,2.99999996 -0.375,1.39453124 -0.97266,2.19140624 -1.47656,2.75390624 -0.0937,0.082031 -0.0937,0.1054688 -0.0937,0.1289063 0,0.070312 0.0703,0.09375 0.1289,0.09375 0.14063,0 0.69141,-0.609375 0.8086,-0.75 1.01953,-1.1953125 1.66406,-2.98828129 1.66406,-5.2148438 z m 0,0"
         style="fill:#000000;fill-opacity:1;fill-rule:nonzero;stroke:none" />
      <path
         id="path26"
         d="m 172.6067,-3.2236641 c 0.14062,-0.070312 0.19921,-0.1289062 0.19921,-0.2226562 0,-0.1054688 -0.0352,-0.1640625 -0.19921,-0.234375 l -5.48438,-2.5898438 c -0.14062,-0.070312 -0.1875,-0.070312 -0.19922,-0.070312 -0.1289,0 -0.19922,0.09375 -0.19922,0.1992188 0,0.1289062 0.0703,0.1757812 0.1875,0.2226562 l 5.22657,2.4609375 -5.21485,2.46093754 c -0.19922,0.09375 -0.19922,0.1640625 -0.19922,0.234375 0,0.10546875 0.082,0.19921875 0.19922,0.19921875 0.0234,0 0.0469,0 0.17578,-0.0703125 z m -0.15235,4.5820313 c 0.17578,0 0.35156,0 0.35156,-0.1992188 0,-0.19921871 -0.21093,-0.19921871 -0.36328,-0.19921871 h -5.36718 c -0.15235,0 -0.35157,0 -0.35157,0.19921871 0,0.1992188 0.17578,0.1992188 0.33985,0.1992188 z m 0,0"
         style="fill:#000000;fill-opacity:1;fill-rule:nonzero;stroke:none" />
      <path
         id="path27"
         d="m 180.66041,-6.0478828 c 0.0703,-0.28125 0.10546,-0.3398438 0.23437,-0.3632813 0.082,-0.023437 0.41016,-0.023437 0.62109,-0.023437 1.00782,0 1.45313,0.035156 1.45313,0.8203125 0,0.140625 -0.0352,0.5273438 -0.082,0.796875 0,0.035156 -0.0234,0.1523438 -0.0234,0.1875 0,0.058594 0.0234,0.1289063 0.11719,0.1289063 0.10547,0 0.1289,-0.082031 0.15234,-0.234375 l 0.26953,-1.734375 c 0.0117,-0.035156 0.0117,-0.140625 0.0117,-0.1640625 0,-0.1054688 -0.0937,-0.1054688 -0.26953,-0.1054688 h -5.51953 c -0.24609,0 -0.25781,0 -0.31641,0.1992188 l -0.59765,1.7460937 c -0.0117,0.023437 -0.0703,0.1640625 -0.0703,0.1757813 0,0.070312 0.0586,0.1171875 0.12891,0.1171875 0.0937,0 0.10547,-0.046875 0.16406,-0.2109375 0.53907,-1.546875 0.79688,-1.7226563 2.27344,-1.7226563 h 0.38672 c 0.28125,0 0.28125,0.035156 0.28125,0.1171875 0,0.058594 -0.0352,0.1757813 -0.0469,0.2109375 l -1.32421,5.32031254 c -0.0937,0.36328125 -0.12891,0.48046875 -1.19532,0.48046875 -0.35156,0 -0.41015,0 -0.41015,0.1875 0,0.1171875 0.10547,0.1171875 0.16406,0.1171875 0.26953,0 0.55078,-0.0234375 0.82031,-0.0234375 0.28125,0 0.5625,-0.01171875 0.84375,-0.01171875 0.28125,0 0.5625,0.01171875 0.83203,0.01171875 0.28125,0 0.58594,0.0234375 0.86719,0.0234375 0.0937,0 0.21094,0 0.21094,-0.19921875 0,-0.10546875 -0.082,-0.10546875 -0.33985,-0.10546875 -0.24609,0 -0.375,0 -0.63281,-0.0234375 -0.29297,-0.0351563 -0.36328,-0.0585938 -0.36328,-0.22265625 0,-0.0117188 0,-0.0585938 0.0352,-0.2109375 z m 0,0"
         style="fill:#000000;fill-opacity:1;fill-rule:nonzero;stroke:none" />
      <path
         id="path28"
         d="m 187.51587,-5.4033516 c 0,-0.6328125 -0.43359,-1.21875 -1.13671,-1.3828125 l -1.03125,-0.234375 c -0.60938,-0.140625 -0.79688,-0.5859375 -0.79688,-0.8671875 0,-0.46875 0.42188,-0.9023437 1.05469,-0.9023437 0.9375,0 1.34765,0.6210937 1.46484,1.359375 0.0117,0.1054687 0.0117,0.140625 0.11719,0.140625 0.11719,0 0.11719,-0.046875 0.11719,-0.1875 v -1.359375 c 0,-0.1171875 0,-0.1757813 -0.0937,-0.1757813 -0.0586,0 -0.0703,0.011719 -0.11719,0.09375 l -0.25781,0.3867188 c -0.45703,-0.46875 -1.03125,-0.4804688 -1.23047,-0.4804688 -0.87891,0 -1.5,0.6210938 -1.5,1.3242188 0,0.3984375 0.17578,0.6914062 0.42187,0.9257812 0.28125,0.28125 0.50391,0.328125 1.26563,0.4921875 0.63281,0.140625 0.77344,0.1640625 0.97265,0.3632813 0.16407,0.1640625 0.30469,0.3867187 0.30469,0.703125 0,0.4804687 -0.39844,0.9726562 -1.07812,0.9726562 -0.66797,0 -1.60547,-0.2578125 -1.65235,-1.3125 -0.0117,-0.1054687 -0.0117,-0.1523437 -0.11718,-0.1523437 -0.11719,0 -0.11719,0.046875 -0.11719,0.1875 v 1.3476562 c 0,0.1289063 0,0.1875 0.0937,0.1875 0.0586,0 0.0703,-0.023437 0.11719,-0.082031 0.0586,-0.082031 0.19921,-0.3046875 0.25781,-0.3984375 0.43359,0.3867187 0.97265,0.4804687 1.41797,0.4804687 0.92578,0 1.52343,-0.6914062 1.52343,-1.4296877 z m 3.11133,0.4101563 v -0.3867188 h -0.23437 v 0.375 c 0,0.4804688 -0.22266,0.7382813 -0.49219,0.7382813 -0.48047,0 -0.48047,-0.5859375 -0.48047,-0.7148438 v -1.8867187 h 1.07813 v -0.2460938 h -1.07813 v -1.2890625 h -0.24609 c 0,0.6328125 -0.29297,1.3242188 -0.96094,1.3359375 v 0.1992188 h 0.65625 v 1.8867187 c 0,0.7734375 0.58594,0.9375 0.97266,0.9375 0.46875,0 0.78515,-0.3984375 0.78515,-0.9492187 z m 4.292,0.2460937 v -0.375 h -0.2461 v 0.375 c 0,0.070312 0,0.3984375 -0.25781,0.3984375 -0.25781,0 -0.25781,-0.328125 -0.25781,-0.4101562 v -1.21875 c 0,-0.375 0,-0.6445313 -0.31641,-0.9023438 -0.28125,-0.234375 -0.62109,-0.3398437 -1.03125,-0.3398437 -0.66797,0 -1.125,0.2460937 -1.125,0.6679687 0,0.2226563 0.15234,0.3398438 0.32813,0.3398438 0.1875,0 0.32812,-0.1289063 0.32812,-0.3164063 0,-0.1289062 -0.0586,-0.2695312 -0.24609,-0.328125 0.25781,-0.1757812 0.65625,-0.1757812 0.70312,-0.1757812 0.38672,0 0.8086,0.2578125 0.8086,0.84375 v 0.2226562 c -0.375,0.011719 -0.84375,0.035156 -1.34766,0.2226563 -0.63281,0.2226562 -0.82031,0.609375 -0.82031,0.9257812 0,0.5976563 0.72656,0.7734375 1.21875,0.7734375 0.5625,0 0.8789,-0.3164062 1.03125,-0.5859375 0.0234,0.28125 0.21093,0.5507813 0.53906,0.5507813 0,0 0.69141,0 0.69141,-0.6679688 z m -1.3125,-0.3515625 c 0,0.6679688 -0.58594,0.8554688 -0.89063,0.8554688 -0.36328,0 -0.69141,-0.234375 -0.69141,-0.5742188 0,-0.3867187 0.32813,-0.9257812 1.58204,-0.9726562 z m 4.32128,-1.640625 c 0,-0.2460937 -0.22265,-0.4453125 -0.55078,-0.4453125 -0.35156,0 -0.72656,0.2109375 -0.9375,0.7382813 h -0.0117 v -0.7382813 l -0.99609,0.070312 v 0.2578125 c 0.46875,0 0.52734,0.046875 0.52734,0.3867188 v 1.8046875 c 0,0.3046875 -0.0703,0.3046875 -0.52734,0.3046875 v 0.2460937 c 0.0352,0 0.51563,-0.023437 0.79688,-0.023437 l 0.90234,0.023437 v -0.2460937 h -0.14063 c -0.51562,0 -0.51562,-0.082031 -0.51562,-0.3164063 v -1.03125 c 0,-0.5859375 0.28125,-1.2890625 0.9375,-1.2890625 -0.0586,0.046875 -0.11719,0.140625 -0.11719,0.2578125 0,0.2226563 0.17578,0.3164063 0.31641,0.3164063 0.16406,0 0.3164,-0.1054688 0.3164,-0.3164063 z m 2.88868,1.7460938 v -0.3867188 h -0.23438 v 0.375 c 0,0.4804688 -0.22266,0.7382813 -0.49219,0.7382813 -0.48047,0 -0.48047,-0.5859375 -0.48047,-0.7148438 v -1.8867187 h 1.07813 v -0.2460938 h -1.07813 v -1.2890625 h -0.24609 c 0,0.6328125 -0.29297,1.3242188 -0.96094,1.3359375 v 0.1992188 h 0.65625 v 1.8867187 c 0,0.7734375 0.58594,0.9375 0.97266,0.9375 0.46875,0 0.78516,-0.3984375 0.78516,-0.9492187 z m 0,0"
         style="fill:#000000;fill-opacity:1;fill-rule:nonzero;stroke:none" />
      <path
         id="path29"
         d="m 184.70045,-2.3769844 c -1.32422,0.9257813 -1.67579,2.41406253 -1.67579,3.4804688 0,0.984375 0.29297,2.5078125 1.67579,3.4804687 0.0586,0 0.14062,0 0.14062,-0.082031 0,-0.046875 -0.0234,-0.058594 -0.0703,-0.1054688 -0.92578,-0.8320312 -1.26563,-2.015625 -1.26563,-3.2929687 0,-1.87500002 0.71485,-2.8007813 1.28907,-3.3164063 0.0234,-0.023437 0.0469,-0.046875 0.0469,-0.082031 0,-0.082031 -0.082,-0.082031 -0.14062,-0.082031 z m 0,0"
         style="fill:#000000;fill-opacity:1;fill-rule:nonzero;stroke:none" />
      <path
         id="path30"
         d="m 186.19752,2.4159844 c -0.0352,0.082031 -0.0703,0.2578125 -0.0703,0.28125 0,0.1523437 0.11719,0.2226562 0.23438,0.2226562 0.1289,0 0.23437,-0.09375 0.26953,-0.1523437 0.0352,-0.058594 0.0937,-0.2929688 0.12891,-0.4335938 0.0352,-0.1289062 0.10546,-0.4570312 0.15234,-0.6328125 0.0352,-0.1523437 0.082,-0.3046875 0.11719,-0.4570312 0.082,-0.29296877 0.0937,-0.35156252 0.29297,-0.63281252 0.19921,-0.28125 0.52734,-0.64453125 1.04296,-0.64453125 0.41016,0 0.41016,0.36328125 0.41016,0.4921875 0,0.421875 -0.29297,1.19531247 -0.41016,1.48828127 -0.0703,0.1875 -0.10546,0.2578125 -0.10546,0.375 0,0.3632812 0.30468,0.5976562 0.66796,0.5976562 0.69141,0 1.00782,-0.9609375 1.00782,-1.0664062 0,-0.09375 -0.0937,-0.09375 -0.11719,-0.09375 -0.0937,0 -0.10547,0.046875 -0.12891,0.1171875 -0.16406,0.5625 -0.46875,0.84375 -0.73828,0.84375 -0.15234,0 -0.17578,-0.09375 -0.17578,-0.2460938 0,-0.1523437 0.0352,-0.2460937 0.15234,-0.5625 0.0937,-0.2109375 0.375,-0.94921872 0.375,-1.34765622 0,-0.66796875 -0.53906,-0.78515625 -0.90234,-0.78515625 -0.58594,0 -0.97266,0.3515625 -1.18359,0.6328125 -0.0469,-0.48046875 -0.45703,-0.6328125 -0.75,-0.6328125 -0.29297,0 -0.45703,0.2109375 -0.55078,0.375 -0.15235,0.2578125 -0.2461,0.65625 -0.2461,0.69140625 0,0.0820313 0.0937,0.0820313 0.11719,0.0820313 0.0937,0 0.10547,-0.0117188 0.15234,-0.19921875 0.10547,-0.421875 0.23438,-0.76171875 0.51563,-0.76171875 0.17578,0 0.22265,0.15234375 0.22265,0.33984375 0,0.140625 -0.0586,0.3984375 -0.10546,0.5859375 -0.0469,0.18749997 -0.11719,0.46874997 -0.15235,0.62109377 z m 5.54589,0.3164062 c 0,0.3867188 -0.0703,0.8320313 -0.55078,1.2773438 -0.0234,0.035156 -0.0469,0.058594 -0.0469,0.09375 0,0.046875 0.0586,0.09375 0.0937,0.09375 0.10547,0 0.6914,-0.5625 0.6914,-1.3945313 0,-0.421875 -0.16406,-0.75 -0.48046,-0.75 -0.23438,0 -0.39844,0.1757813 -0.39844,0.3867188 0,0.234375 0.15234,0.4101562 0.39844,0.4101562 0.16406,0 0.28125,-0.1171875 0.29296,-0.1171875 z m 3.94336,-4.2421875 c 0,-0.1171875 -0.0937,-0.2578125 -0.28125,-0.2578125 -0.19922,0 -0.38672,0.1875 -0.38672,0.375 0,0.1171875 0.082,0.2695313 0.28125,0.2695313 0.1875,0 0.38672,-0.1875 0.38672,-0.3867188 z m -1.47656,4.6992188 c -0.11719,0.4804687 -0.49219,0.890625 -0.90234,0.890625 -0.082,0 -0.17578,-0.011719 -0.2461,-0.046875 0.17578,-0.082031 0.23438,-0.2460938 0.23438,-0.3515625 0,-0.1640625 -0.12891,-0.2578125 -0.26953,-0.2578125 -0.22266,0 -0.39844,0.1875 -0.39844,0.4101562 0,0.2695313 0.26953,0.4335938 0.69141,0.4335938 0.42187,0 1.23046,-0.2460938 1.45312,-1.1015625 l 0.62109,-2.49609377 c 0.0234,-0.0703125 0.0352,-0.140625 0.0352,-0.234375 0,-0.38671875 -0.32812,-0.65625 -0.73828,-0.65625 -0.78516,0 -1.23047,0.9609375 -1.23047,1.06640625 0,0.0820313 0.10547,0.0820313 0.12891,0.0820313 0.082,0 0.082,-0.0117188 0.1289,-0.1171875 0.17578,-0.41015625 0.53907,-0.84375 0.94922,-0.84375 0.17578,0 0.23438,0.1171875 0.23438,0.33984375 0,0.0820313 -0.0117,0.17578125 -0.0234,0.2109375 z m 3.16699,-0.4570313 c 0,0.3867188 -0.0703,0.8320313 -0.55078,1.2773438 -0.0234,0.035156 -0.0469,0.058594 -0.0469,0.09375 0,0.046875 0.0586,0.09375 0.0937,0.09375 0.10547,0 0.6914,-0.5625 0.6914,-1.3945313 0,-0.421875 -0.16406,-0.75 -0.48047,-0.75 -0.23437,0 -0.39843,0.1757813 -0.39843,0.3867188 0,0.234375 0.15234,0.4101562 0.39843,0.4101562 0.16407,0 0.28125,-0.1171875 0.29297,-0.1171875 z m 4.69629,-0.8671875 c 0.64453,-0.65625 0.90235,-1.59374997 0.90235,-1.66406247 0,-0.09375 -0.082,-0.09375 -0.11719,-0.09375 -0.0937,0 -0.0937,0.0234375 -0.14063,0.17578125 -0.1289,0.45703125 -0.36328,0.89062502 -0.65625,1.26562502 0,-0.1054688 -0.0234,-0.57421877 -0.0351,-0.63281252 -0.10547,-0.69140625 -0.6211,-1.13671875 -1.32422,-1.13671875 -1.01953,0 -2.00391,0.94921875 -2.00391,1.92187497 0,0.6445313 0.46875,1.21875 1.27735,1.21875 0.64453,0 1.21875,-0.2929687 1.60546,-0.5976562 0.16407,0.515625 0.51563,0.5976562 0.72657,0.5976562 0.41015,0 0.65625,-0.3398437 0.65625,-0.4921875 0,-0.082031 -0.082,-0.082031 -0.11719,-0.082031 -0.0937,0 -0.10547,0.035156 -0.11719,0.070312 -0.10547,0.2695312 -0.3164,0.3046875 -0.39844,0.3046875 -0.0937,0 -0.22265,0 -0.25781,-0.8554688 z m -0.53906,0.234375 c -0.67969,0.5625 -1.27734,0.6210938 -1.53516,0.6210938 -0.46875,0 -0.72656,-0.3046875 -0.72656,-0.7734375 0,-0.1992188 0.10547,-0.96093752 0.46875,-1.44140627 0.31641,-0.421875 0.71484,-0.5390625 0.96094,-0.5390625 0.55078,0 0.71484,0.5390625 0.77344,0.97265625 0.0351,0.30468752 0.0234,0.79687502 0.0586,1.16015622 z m 0,0"
         style="fill:#000000;fill-opacity:1;fill-rule:nonzero;stroke:none" />
      <path
         id="path31"
         d="m 204.08326,-2.3769844 c -0.0586,0 -0.14063,0 -0.14063,0.082031 0,0.035156 0.0234,0.058594 0.0703,0.1054687 0.59765,0.5507813 1.26562,1.48828128 1.26562,3.2929688 0,1.453125 -0.45703,2.5546875 -1.20703,3.234375 -0.11719,0.1171875 -0.12891,0.1289062 -0.12891,0.1640625 0,0.035156 0.0234,0.082031 0.0937,0.082031 0.082,0 0.75,-0.4570312 1.20703,-1.3242187 0.30469,-0.5859375 0.50391,-1.3359375 0.50391,-2.15625 0,-0.98437502 -0.29297,-2.5078125 -1.66406,-3.4804688 z m 0,0"
         style="fill:#000000;fill-opacity:1;fill-rule:nonzero;stroke:none" />
      <path
         id="path32"
         d="m 209.08716,-0.01272656 c 0,-0.65625 -0.25781,-1.04296874 -0.64453,-1.04296874 -0.32812,0 -0.52734,0.24609374 -0.52734,0.52734374 0,0.26953125 0.19922,0.52734375 0.52734,0.52734375 0.11719,0 0.2461,-0.03515625 0.35157,-0.12890625 0.0234,-0.0234375 0.0352,-0.0351563 0.0469,-0.0351563 0.0117,0 0.0234,0.0117188 0.0234,0.15234375 0,0.73828125 -0.35156,1.33593741 -0.67969,1.66406241 -0.10547,0.1054688 -0.10547,0.1289063 -0.10547,0.1640625 0,0.070312 0.0469,0.1054688 0.0937,0.1054688 0.11719,0 0.91406,-0.7617188 0.91406,-1.93359371 z m 0,0"
         style="fill:#000000;fill-opacity:1;fill-rule:nonzero;stroke:none" />
      <path
         id="path33"
         d="m 216.97388,-6.5400703 c 0.0586,-0.1054688 0.0586,-0.1289063 0.0586,-0.1757813 0,-0.09375 -0.082,-0.1992187 -0.19922,-0.1992187 -0.12891,0 -0.19922,0.1171875 -0.23438,0.234375 l -0.82031,2.1914062 h -3.03516 l -0.82031,-2.1914062 c -0.0586,-0.140625 -0.10547,-0.234375 -0.23437,-0.234375 -0.0937,0 -0.19922,0.1054687 -0.19922,0.1992187 0,0.023437 0,0.035156 0.0586,0.1757813 l 2.48438,6.52734374 c 0.0469,0.140625 0.0937,0.234375 0.22265,0.234375 0.14063,0 0.1875,-0.1171875 0.22266,-0.2109375 z m -4.0664,2.4492187 h 2.70703 l -1.35938,3.53906254 z m 0,0"
         style="fill:#000000;fill-opacity:1;fill-rule:nonzero;stroke:none" />
      <path
         id="path34"
         d="m 220.31666,2.3896172 c 0,-0.035156 0,-0.046875 -0.16407,-0.2226563 -1.24218,-1.25390621 -1.57031,-3.12890621 -1.57031,-4.6640625 0,-1.7226562 0.38672,-3.4570312 1.60547,-4.7109375 0.12891,-0.1171875 0.12891,-0.1289062 0.12891,-0.1640625 0,-0.070312 -0.0352,-0.1054687 -0.0937,-0.1054687 -0.10547,0 -0.9961,0.6796875 -1.58204,1.9453125 -0.51562,1.1015625 -0.63281,2.203125 -0.63281,3.0351562 0,0.7851563 0.11719,1.99218754 0.65625,3.11718754 0.59766,1.21874996 1.45313,1.87499996 1.5586,1.87499996 0.0586,0 0.0937,-0.035156 0.0937,-0.1054687 z m 0,0"
         style="fill:#000000;fill-opacity:1;fill-rule:nonzero;stroke:none" />
      <path
         id="path35"
         d="m 221.77564,-0.58694531 c -0.0352,0.15234375 -0.0937,0.375 -0.0937,0.421875 0,0.1875 0.14063,0.26953125 0.29297,0.26953125 0.11719,0 0.29297,-0.0703125 0.36328,-0.26953125 0.0117,-0.0234375 0.12891,-0.4921875 0.1875,-0.73828125 l 0.22266,-0.90234374 c 0.0586,-0.2226563 0.11718,-0.4335938 0.17578,-0.6679688 0.0351,-0.1640625 0.11719,-0.4570312 0.1289,-0.4921875 0.14063,-0.3164062 0.66797,-1.21875 1.61719,-1.21875 0.44531,0 0.53906,0.3632813 0.53906,0.6914063 0,0.2578125 -0.0703,0.5390625 -0.15234,0.8320312 l -0.26953,1.1601563 -0.19922,0.74999999 c -0.0469,0.19921875 -0.14062,0.5390625 -0.14062,0.5859375 0,0.1875 0.14062,0.26953125 0.29296,0.26953125 0.30469,0 0.375,-0.24609375 0.44532,-0.5625 0.14062,-0.56250004 0.51562,-2.01562504 0.59765,-2.40234374 0.0352,-0.1289063 0.5625,-1.3242188 1.65235,-1.3242188 0.42187,0 0.53906,0.3398438 0.53906,0.6914063 0,0.5742187 -0.42188,1.7109375 -0.62109,2.2382812 -0.0937,0.234375 -0.12891,0.35156254 -0.12891,0.55078129 0,0.46875 0.35156,0.80859375 0.80859,0.80859375 0.9375,0 1.3125,-1.45312504 1.3125,-1.53515624 0,-0.09375 -0.0937,-0.09375 -0.11718,-0.09375 -0.10547,0 -0.10547,0.023437 -0.15235,0.1757812 -0.15234,0.52734379 -0.46875,1.24218754 -1.01953,1.24218754 -0.16406,0 -0.23437,-0.10546875 -0.23437,-0.328125 0,-0.2578125 0.082,-0.4921875 0.17578,-0.71484374 0.1875,-0.515625 0.60937,-1.6171875 0.60937,-2.1914063 0,-0.6445312 -0.39844,-1.0664062 -1.14844,-1.0664062 -0.75,0 -1.2539,0.4453125 -1.61718,0.9726562 -0.0117,-0.1289062 -0.0469,-0.46875 -0.32813,-0.7148437 -0.24609,-0.1992188 -0.5625,-0.2578125 -0.80859,-0.2578125 -0.90235,0 -1.38281,0.6445312 -1.5586,0.8671875 -0.0469,-0.5625 -0.46875,-0.8671875 -0.91406,-0.8671875 -0.45703,0 -0.64453,0.3867187 -0.73828,0.5742187 -0.17578,0.3398438 -0.30469,0.9375 -0.30469,0.9609375 0,0.1054688 0.0937,0.1054688 0.11719,0.1054688 0.0937,0 0.10547,-0.011719 0.16406,-0.234375 0.17578,-0.703125 0.375,-1.1835938 0.72657,-1.1835938 0.16406,0 0.3164,0.082031 0.3164,0.4570313 0,0.2109375 -0.0352,0.3164062 -0.16406,0.8320312 z m 9.89648,0.57421875 c 0,-0.65625 -0.25781,-1.04296874 -0.64453,-1.04296874 -0.32812,0 -0.52734,0.24609374 -0.52734,0.52734374 0,0.26953125 0.19922,0.52734375 0.52734,0.52734375 0.11719,0 0.2461,-0.03515625 0.35157,-0.12890625 0.0234,-0.0234375 0.0351,-0.0351563 0.0469,-0.0351563 0.0117,0 0.0234,0.0117188 0.0234,0.15234375 0,0.73828125 -0.35156,1.33593741 -0.67969,1.66406241 -0.10547,0.1054688 -0.10547,0.1289063 -0.10547,0.1640625 0,0.070312 0.0469,0.1054688 0.0937,0.1054688 0.11719,0 0.91406,-0.7617188 0.91406,-1.93359371 z m 5.21192,-6.21093754 c 0,-0.1992187 -0.12891,-0.3632812 -0.36328,-0.3632812 -0.26953,0 -0.53906,0.2578125 -0.53906,0.5273437 0,0.1875 0.14062,0.3632813 0.375,0.3632813 0.23437,0 0.52734,-0.234375 0.52734,-0.5273438 z m -0.75,3.7382813 c 0.11719,-0.28125 0.11719,-0.3046875 0.22266,-0.5742188 0.0703,-0.1992187 0.1289,-0.3398437 0.1289,-0.5273437 0,-0.4453125 -0.32812,-0.8203125 -0.82031,-0.8203125 -0.9375,0 -1.3125,1.453125 -1.3125,1.5351562 0,0.1054688 0.0937,0.1054688 0.11719,0.1054688 0.0937,0 0.10547,-0.023437 0.15234,-0.1875 0.26953,-0.9375 0.66797,-1.2304688 1.00781,-1.2304688 0.082,0 0.25782,0 0.25782,0.3164063 0,0.2109375 -0.0703,0.421875 -0.11719,0.515625 -0.082,0.2578125 -0.52735,1.4179687 -0.67969,1.8515625 -0.10547,0.2578125 -0.23437,0.58593749 -0.23437,0.79687499 0,0.46875 0.33984,0.80859375 0.82031,0.80859375 0.9375,0 1.30078,-1.44140624 1.30078,-1.53515624 0,-0.09375 -0.0937,-0.09375 -0.11719,-0.09375 -0.10547,0 -0.10547,0.023437 -0.15234,0.1757812 -0.17578,0.63281254 -0.50391,1.24218754 -1.01953,1.24218754 -0.16407,0 -0.23438,-0.10546875 -0.23438,-0.328125 0,-0.2578125 0.0586,-0.3984375 0.29297,-0.99609374 z m 0,0"
         style="fill:#000000;fill-opacity:1;fill-rule:nonzero;stroke:none" />
      <path
         id="path36"
         d="m 240.38795,-2.4971016 c 0,-0.7734375 -0.11719,-1.9804687 -0.65625,-3.1054687 -0.59766,-1.21875 -1.46485,-1.875 -1.5586,-1.875 -0.0586,0 -0.10547,0.046875 -0.10547,0.1054687 0,0.035156 0,0.046875 0.19922,0.234375 0.97266,0.984375 1.53516,2.5664063 1.53516,4.640625 0,1.71093754 -0.36328,3.45703129 -1.59375,4.7226563 -0.14063,0.1171875 -0.14063,0.1289062 -0.14063,0.1640625 0,0.058594 0.0469,0.1054687 0.10547,0.1054687 0.0937,0 0.9961,-0.6796875 1.58203,-1.94531246 0.50391,-1.1015625 0.63282,-2.20312504 0.63282,-3.04687504 z m 0,0"
         style="fill:#000000;fill-opacity:1;fill-rule:nonzero;stroke:none" />
      <path
         id="path37"
         d="m 249.60767,-2.2978828 c 0.16406,0 0.35156,0 0.35156,-0.1992188 0,-0.1992187 -0.1875,-0.1992187 -0.35156,-0.1992187 h -4.23047 c 0.12891,-1.3242188 1.26563,-2.2851563 2.67188,-2.2851563 h 1.55859 c 0.16406,0 0.35156,0 0.35156,-0.1992187 0,-0.1992188 -0.1875,-0.1992188 -0.35156,-0.1992188 h -1.57031 c -1.71094,0 -3.05859,1.2890625 -3.05859,2.8828125 0,1.59375004 1.34765,2.89453129 3.05859,2.89453129 h 1.57031 c 0.16406,0 0.35156,0 0.35156,-0.19921875 0,-0.19921875 -0.1875,-0.19921875 -0.35156,-0.19921875 h -1.55859 c -1.40625,0 -2.54297,-0.9609375 -2.67188,-2.29687499 z m 0,0"
         style="fill:#000000;fill-opacity:1;fill-rule:nonzero;stroke:none" />
      <path
         id="path38"
         d="m 261.1272,-6.9267891 c 0,-0.023437 -0.0234,-0.09375 -0.10547,-0.09375 -0.0351,0 -0.0469,0.011719 -0.15234,0.1171875 l -0.70312,0.7617188 c -0.082,-0.140625 -0.53907,-0.8789063 -1.65235,-0.8789063 -2.21484,0 -4.45312,2.203125 -4.45312,4.5117188 0,1.64062499 1.17187,2.73046874 2.69531,2.73046874 0.86719,0 1.61719,-0.3984375 2.14453,-0.85546875 0.9375,-0.82031249 1.10156,-1.72265629 1.10156,-1.75781249 0,-0.1054688 -0.10547,-0.1054688 -0.11718,-0.1054688 -0.0586,0 -0.11719,0.023437 -0.12891,0.1054688 -0.0937,0.2929687 -0.31641,0.9960937 -1.00781,1.57031249 -0.69141,0.5625 -1.3125,0.7265625 -1.83985,0.7265625 -0.89062,0 -1.94531,-0.515625 -1.94531,-2.06249999 0,-0.5742188 0.21094,-2.1914063 1.20703,-3.3515625 0.60938,-0.703125 1.53516,-1.2070313 2.42578,-1.2070313 1.01953,0 1.60547,0.7734375 1.60547,1.921875 0,0.3984375 -0.0351,0.4101563 -0.0351,0.5039063 0,0.1054687 0.11718,0.1054687 0.15234,0.1054687 0.12891,0 0.12891,-0.023437 0.17578,-0.1992187 z m 1.71973,6.91406254 c 0,-0.65625 -0.25781,-1.04296874 -0.64453,-1.04296874 -0.32813,0 -0.52735,0.24609374 -0.52735,0.52734374 0,0.26953125 0.19922,0.52734375 0.52735,0.52734375 0.11719,0 0.24609,-0.03515625 0.35156,-0.12890625 0.0234,-0.0234375 0.0352,-0.0351563 0.0469,-0.0351563 0.0117,0 0.0234,0.0117188 0.0234,0.15234375 0,0.73828125 -0.35156,1.33593741 -0.67968,1.66406241 -0.10547,0.1054688 -0.10547,0.1289063 -0.10547,0.1640625 0,0.070312 0.0469,0.1054688 0.0937,0.1054688 0.11718,0 0.91406,-0.7617188 0.91406,-1.93359371 z m 0,0"
         style="fill:#000000;fill-opacity:1;fill-rule:nonzero;stroke:none" />
      <path
         id="path39"
         d="m 270.7483,-6.5400703 c 0.0586,-0.1054688 0.0586,-0.1289063 0.0586,-0.1757813 0,-0.09375 -0.082,-0.1992187 -0.19922,-0.1992187 -0.1289,0 -0.19922,0.1171875 -0.23437,0.234375 l -0.82032,2.1914062 h -3.03515 l -0.82031,-2.1914062 c -0.0586,-0.140625 -0.10547,-0.234375 -0.23438,-0.234375 -0.0937,0 -0.19922,0.1054687 -0.19922,0.1992187 0,0.023437 0,0.035156 0.0586,0.1757813 l 2.48437,6.52734374 c 0.0469,0.140625 0.0937,0.234375 0.22266,0.234375 0.14062,0 0.1875,-0.1171875 0.22265,-0.2109375 z m -4.06641,2.4492187 h 2.70703 l -1.35937,3.53906254 z m 0,0"
         style="fill:#000000;fill-opacity:1;fill-rule:nonzero;stroke:none" />
      <path
         id="path40"
         d="m 274.09107,2.3896172 c 0,-0.035156 0,-0.046875 -0.16406,-0.2226563 -1.24219,-1.25390621 -1.57031,-3.12890621 -1.57031,-4.6640625 0,-1.7226562 0.38671,-3.4570312 1.60546,-4.7109375 0.12891,-0.1171875 0.12891,-0.1289062 0.12891,-0.1640625 0,-0.070312 -0.0352,-0.1054687 -0.0937,-0.1054687 -0.10547,0 -0.99609,0.6796875 -1.58203,1.9453125 -0.51563,1.1015625 -0.63281,2.203125 -0.63281,3.0351562 0,0.7851563 0.11718,1.99218754 0.65625,3.11718754 0.59765,1.21874996 1.45312,1.87499996 1.55859,1.87499996 0.0586,0 0.0937,-0.035156 0.0937,-0.1054687 z m 0,0"
         style="fill:#000000;fill-opacity:1;fill-rule:nonzero;stroke:none" />
      <path
         id="path41"
         d="m 275.55298,-0.58694531 c -0.0351,0.15234375 -0.0937,0.375 -0.0937,0.421875 0,0.1875 0.14063,0.26953125 0.29297,0.26953125 0.11719,0 0.29297,-0.0703125 0.36328,-0.26953125 0.0117,-0.0234375 0.12891,-0.4921875 0.1875,-0.73828125 l 0.22266,-0.90234374 c 0.0586,-0.2226563 0.11719,-0.4335938 0.17578,-0.6679688 0.0352,-0.1640625 0.11719,-0.4570312 0.12891,-0.4921875 0.14062,-0.3164062 0.66797,-1.21875 1.61719,-1.21875 0.44531,0 0.53906,0.3632813 0.53906,0.6914063 0,0.6210937 -0.49219,1.8984375 -0.64453,2.3320312 -0.0937,0.22265629 -0.10547,0.33984379 -0.10547,0.45703129 0,0.46875 0.35156,0.80859375 0.82031,0.80859375 0.9375,0 1.30078,-1.45312504 1.30078,-1.53515624 0,-0.09375 -0.082,-0.09375 -0.11719,-0.09375 -0.0937,0 -0.0937,0.023437 -0.15234,0.1757812 -0.19922,0.67968754 -0.52734,1.24218754 -1.00781,1.24218754 -0.17578,0 -0.2461,-0.10546875 -0.2461,-0.328125 0,-0.2578125 0.0937,-0.4921875 0.1875,-0.71484374 0.1875,-0.5273438 0.59766,-1.6171875 0.59766,-2.1914063 0,-0.6679687 -0.42187,-1.0664062 -1.13672,-1.0664062 -0.90234,0 -1.38281,0.6445312 -1.55859,0.8671875 -0.0469,-0.5507813 -0.45703,-0.8671875 -0.91406,-0.8671875 -0.45704,0 -0.64454,0.3867187 -0.75,0.5742187 -0.15235,0.3398438 -0.29297,0.9257813 -0.29297,0.9609375 0,0.1054688 0.0937,0.1054688 0.11718,0.1054688 0.0937,0 0.10547,-0.011719 0.16407,-0.234375 0.17578,-0.703125 0.375,-1.1835938 0.72656,-1.1835938 0.19922,0 0.31641,0.1289063 0.31641,0.4570313 0,0.2109375 -0.0352,0.3164062 -0.16407,0.8320312 z m 7.125,0.57421875 c 0,-0.65625 -0.25781,-1.04296874 -0.64453,-1.04296874 -0.32812,0 -0.52734,0.24609374 -0.52734,0.52734374 0,0.26953125 0.19922,0.52734375 0.52734,0.52734375 0.11719,0 0.2461,-0.03515625 0.35157,-0.12890625 0.0234,-0.0234375 0.0351,-0.0351563 0.0469,-0.0351563 0.0117,0 0.0234,0.0117188 0.0234,0.15234375 0,0.73828125 -0.35156,1.33593741 -0.67969,1.66406241 -0.10547,0.1054688 -0.10547,0.1289063 -0.10547,0.1640625 0,0.070312 0.0469,0.1054688 0.0937,0.1054688 0.11719,0 0.91406,-0.7617188 0.91406,-1.93359371 z m 6.33399,-6.21093754 c 0,-0.1875 -0.12891,-0.3632812 -0.375,-0.3632812 -0.22266,0 -0.52735,0.234375 -0.52735,0.5273437 0,0.1992188 0.14063,0.3632813 0.375,0.3632813 0.26954,0 0.52735,-0.2578125 0.52735,-0.5273438 z m -1.99219,6.72656254 c -0.19922,0.74999996 -0.66797,1.32421876 -1.23047,1.32421876 -0.0586,0 -0.21094,0 -0.38672,-0.09375 0.29297,-0.070312 0.44532,-0.328125 0.44532,-0.5273438 0,-0.1640625 -0.10547,-0.35156246 -0.375,-0.35156246 -0.2461,0 -0.53907,0.21093746 -0.53907,0.57421876 0,0.3984375 0.39844,0.609375 0.87891,0.609375 0.69141,0 1.61719,-0.5273438 1.875,-1.51171876 l 0.91406,-3.64453124 c 0.0469,-0.1992188 0.0469,-0.3398438 0.0469,-0.375 0,-0.5625 -0.42188,-0.9140625 -0.91407,-0.9140625 -1.01953,0 -1.58203,1.453125 -1.58203,1.5351562 0,0.1054688 0.0937,0.1054688 0.11719,0.1054688 0.0937,0 0.0937,-0.011719 0.17578,-0.1992188 0.2461,-0.609375 0.71485,-1.21875 1.25391,-1.21875 0.14062,0 0.3164,0.035156 0.3164,0.4570313 0,0.234375 -0.0234,0.3398437 -0.0586,0.5039062 z m 4.18652,-0.515625 c 0,-0.65625 -0.25781,-1.04296874 -0.64453,-1.04296874 -0.32812,0 -0.52734,0.24609374 -0.52734,0.52734374 0,0.26953125 0.19922,0.52734375 0.52734,0.52734375 0.11719,0 0.2461,-0.03515625 0.35157,-0.12890625 0.0234,-0.0234375 0.0351,-0.0351563 0.0469,-0.0351563 0.0117,0 0.0234,0.0117188 0.0234,0.15234375 0,0.73828125 -0.35156,1.33593741 -0.67969,1.66406241 -0.10547,0.1054688 -0.10547,0.1289063 -0.10547,0.1640625 0,0.070312 0.0469,0.1054688 0.0937,0.1054688 0.11719,0 0.91406,-0.7617188 0.91406,-1.93359371 z m 7.13086,-2.34375004 c 0,-1.5585937 -0.92578,-2.0507812 -1.65234,-2.0507812 -1.37109,0 -2.68359,1.4296875 -2.68359,2.8359375 0,0.92578124 0.59765,1.67578124 1.61718,1.67578124 0.6211,0 1.33594,-0.22265625 2.09766,-0.83203125 0.12891,0.52734375 0.45703,0.83203125 0.90234,0.83203125 0.52735,0 0.84375,-0.5390625 0.84375,-0.703125 0,-0.0703125 -0.0586,-0.10546875 -0.1289,-0.10546875 -0.0586,0 -0.0937,0.0351563 -0.12891,0.10546875 -0.17578,0.4921875 -0.52734,0.4921875 -0.55078,0.4921875 -0.31641,0 -0.31641,-0.78515625 -0.31641,-1.01953124 0,-0.2109375 0,-0.234375 0.10547,-0.3515625 0.9375,-1.171875 1.14844,-2.3320313 1.14844,-2.34375 0,-0.011719 -0.0117,-0.09375 -0.11719,-0.09375 -0.10547,0 -0.10547,0.023437 -0.15234,0.2109375 -0.1875,0.6210937 -0.51563,1.3828125 -0.98438,1.96875 z m -0.65625,1.37109379 c -0.8789,0.76171875 -1.65234,0.87890625 -2.05078,0.87890625 -0.59765,0 -0.89062,-0.45703125 -0.89062,-1.08984374 0,-0.4921875 0.25781,-1.5585938 0.57422,-2.0742188 0.46875,-0.7265625 1.00781,-0.9140625 1.35937,-0.9140625 0.98438,0 0.98438,1.3007813 0.98438,2.0859375 0,0.3632813 0,0.9375 0.0234,1.11328129 z m 0,0"
         style="fill:#000000;fill-opacity:1;fill-rule:nonzero;stroke:none" />
      <path
         id="path42"
         d="m 302.92212,-2.4971016 c 0,-0.7734375 -0.11718,-1.9804687 -0.65625,-3.1054687 -0.59765,-1.21875 -1.46484,-1.875 -1.55859,-1.875 -0.0586,0 -0.10547,0.046875 -0.10547,0.1054687 0,0.035156 0,0.046875 0.19922,0.234375 0.97266,0.984375 1.53516,2.5664063 1.53516,4.640625 0,1.71093754 -0.36328,3.45703129 -1.59375,4.7226563 -0.14063,0.1171875 -0.14063,0.1289062 -0.14063,0.1640625 0,0.058594 0.0469,0.1054687 0.10547,0.1054687 0.0937,0 0.99609,-0.6796875 1.58203,-1.94531246 0.50391,-1.1015625 0.63281,-2.20312504 0.63281,-3.04687504 z m 0,0"
         style="fill:#000000;fill-opacity:1;fill-rule:nonzero;stroke:none" />
      <path
         id="path43"
         d="m 312.14185,-2.2978828 c 0.16406,0 0.35156,0 0.35156,-0.1992188 0,-0.1992187 -0.1875,-0.1992187 -0.35156,-0.1992187 h -4.23047 c 0.12891,-1.3242188 1.26563,-2.2851563 2.67188,-2.2851563 h 1.55859 c 0.16406,0 0.35156,0 0.35156,-0.1992187 0,-0.1992188 -0.1875,-0.1992188 -0.35156,-0.1992188 h -1.57031 c -1.71094,0 -3.05859,1.2890625 -3.05859,2.8828125 0,1.59375004 1.34765,2.89453129 3.05859,2.89453129 h 1.57031 c 0.16406,0 0.35156,0 0.35156,-0.19921875 0,-0.19921875 -0.1875,-0.19921875 -0.35156,-0.19921875 h -1.55859 c -1.40625,0 -2.54297,-0.9609375 -2.67188,-2.29687499 z m 0,0"
         style="fill:#000000;fill-opacity:1;fill-rule:nonzero;stroke:none" />
      <path
         id="path44"
         d="m 325.21705,-5.6494453 c 0.25781,-0.4335938 0.49218,-0.796875 1.125,-0.84375 0.082,-0.011719 0.1875,-0.011719 0.1875,-0.1992188 0,-0.046875 -0.0469,-0.1171875 -0.11719,-0.1171875 -0.24609,0 -0.52734,0.035156 -0.77344,0.035156 -0.33984,0 -0.70312,-0.035156 -1.03125,-0.035156 -0.0586,0 -0.1875,0 -0.1875,0.1992188 0,0.1054687 0.082,0.1171875 0.14063,0.1171875 0.24609,0.011719 0.59765,0.082031 0.59765,0.3867187 0,0.1054688 -0.0586,0.1875 -0.14062,0.328125 l -2.6836,4.6875 -0.36328,-4.9335937 c -0.0117,-0.1992188 -0.0352,-0.4570313 0.69141,-0.46875 0.16406,0 0.26953,0 0.26953,-0.1992188 0,-0.1054687 -0.10547,-0.1171875 -0.15234,-0.1171875 -0.39844,0 -0.8086,0.035156 -1.20703,0.035156 -0.23438,0 -0.82032,-0.035156 -1.05469,-0.035156 -0.0586,0 -0.1875,0 -0.1875,0.1992188 0,0.1171875 0.10547,0.1171875 0.24609,0.1171875 0.4336,0 0.50391,0.058594 0.52735,0.2460937 l 0.0586,0.7617188 -2.51953,4.3945312 -0.38672,-5.0507812 c 0,-0.1171875 0,-0.3398438 0.76172,-0.3515625 0.0937,0 0.21094,0 0.21094,-0.1992188 0,-0.1171875 -0.11719,-0.1171875 -0.14063,-0.1171875 -0.39844,0 -0.82031,0.035156 -1.23047,0.035156 -0.33984,0 -0.70312,-0.035156 -1.04297,-0.035156 -0.0469,0 -0.17578,0 -0.17578,0.1992188 0,0.1171875 0.082,0.1171875 0.2461,0.1171875 0.5039,0 0.5039,0.082031 0.52734,0.3632812 l 0.44531,6.09375004 c 0.0117,0.17578125 0.0234,0.2578125 0.16406,0.2578125 0.11719,0 0.15235,-0.0585938 0.23438,-0.2109375 l 2.92969,-5.08593754 0.375,5.03906254 c 0.0117,0.19921875 0.0352,0.2578125 0.15234,0.2578125 0.12891,0 0.1875,-0.10546875 0.24609,-0.1875 z m 0,0"
         style="fill:#000000;fill-opacity:1;fill-rule:nonzero;stroke:none" />
      <path
         id="path45"
         d="m 332.74048,-8.3096016 c 0.0703,-0.2578125 0.082,-0.3164062 0.59766,-0.3164062 0.15234,0 0.23438,0 0.23438,-0.1523438 0,-0.023437 -0.0234,-0.09375 -0.10547,-0.09375 -0.21094,0 -0.71485,0.023437 -0.91407,0.023437 -0.11718,0 -0.36328,0 -0.48046,-0.011719 -0.14063,0 -0.30469,-0.011719 -0.44532,-0.011719 -0.0352,0 -0.14062,0 -0.14062,0.1523438 0,0.09375 0.082,0.09375 0.22265,0.09375 0,0 0.14063,0 0.25782,0.011719 0.15234,0.011719 0.16406,0.035156 0.16406,0.1054688 0,0 0,0.046875 -0.0234,0.1523437 l -0.41015,1.640625 h -2.34375 l 0.41015,-1.6171875 c 0.0586,-0.234375 0.0703,-0.2929687 0.60938,-0.2929687 0.11718,0 0.21093,0 0.21093,-0.1523438 0,-0.023437 -0.0234,-0.09375 -0.11718,-0.09375 -0.19922,0 -0.70313,0.023437 -0.91407,0.023437 -0.11718,0 -0.35156,0 -0.48046,-0.011719 -0.12891,0 -0.30469,-0.011719 -0.4336,-0.011719 -0.0469,0 -0.15234,0 -0.15234,0.1523438 0,0.09375 0.0937,0.09375 0.22265,0.09375 0.0117,0 0.14063,0 0.26954,0.011719 0.15234,0.011719 0.16406,0.035156 0.16406,0.1054688 0,0.011719 0,0.046875 -0.0352,0.1523437 l -0.92578,3.703125 c -0.0469,0.234375 -0.0703,0.2929688 -0.60937,0.2929688 -0.11719,0 -0.21094,0 -0.21094,0.140625 0,0.070312 0.0469,0.1054687 0.11719,0.1054687 0.19921,0 0.70312,-0.023437 0.90234,-0.023437 0.11719,0 0.36328,0 0.48047,0 0.14062,0.011719 0.3164,0.023437 0.44531,0.023437 0.0352,0 0.15234,0 0.15234,-0.140625 0,-0.1054687 -0.0703,-0.1054687 -0.23437,-0.1054687 -0.11719,0 -0.14063,0 -0.26953,-0.023437 -0.15235,-0.011719 -0.15235,-0.035156 -0.15235,-0.1054688 0,0 0,-0.046875 0.0352,-0.1523437 l 0.45703,-1.828125 h 2.33203 l -0.44531,1.8164062 c -0.0586,0.234375 -0.0703,0.2929688 -0.62109,0.2929688 -0.11719,0 -0.21094,0 -0.21094,0.140625 0,0.070312 0.0469,0.1054687 0.11719,0.1054687 0.19922,0 0.70312,-0.023437 0.90234,-0.023437 0.11719,0 0.36328,0 0.48047,0 0.14062,0.011719 0.31641,0.023437 0.44531,0.023437 0.0352,0 0.15235,0 0.15235,-0.140625 0,-0.1054687 -0.0703,-0.1054687 -0.23438,-0.1054687 -0.10547,0 -0.14062,0 -0.25781,-0.023437 -0.16406,-0.011719 -0.16406,-0.035156 -0.16406,-0.1054688 0,-0.035156 0.0234,-0.1054687 0.0351,-0.1523437 z m 0,0"
         style="fill:#000000;fill-opacity:1;fill-rule:nonzero;stroke:none" />
    </g>
  </g>
</svg>
