<?xml version="1.0" encoding="UTF-8" standalone="no"?>
<!-- Created with Inkscape (http://www.inkscape.org/) -->

<svg
   version="1.1"
   id="svg1"
   width="582.12115"
   height="18.222656"
   viewBox="0 0 582.12115 18.222656"
   sodipodi:docname="Formulas.pdf"
   xmlns:inkscape="http://www.inkscape.org/namespaces/inkscape"
   xmlns:sodipodi="http://sodipodi.sourceforge.net/DTD/sodipodi-0.dtd"
   xmlns="http://www.w3.org/2000/svg"
   xmlns:svg="http://www.w3.org/2000/svg">
  <defs
     id="defs1" />
  <sodipodi:namedview
     id="namedview1"
     pagecolor="#ffffff"
     bordercolor="#000000"
     borderopacity="0.25"
     inkscape:showpageshadow="2"
     inkscape:pageopacity="0.0"
     inkscape:pagecheckerboard="0"
     inkscape:deskcolor="#d1d1d1" />
  <g
     id="g1"
     inkscape:groupmode="layer"
     inkscape:label="1"
     transform="translate(-236.97266,-113.11328)">
    <g
       id="g2"
       aria-label="U&#10;AGV&#10;(m,i,α&#10;1&#10;)(n,j,α&#10;2&#10;)&#10;+U&#10;AGV&#10;(n,j,α&#10;2&#10;)(m,i,α&#10;1&#10;)&#10;≥P&#10;X&#10;(m,i,α&#10;1&#10;),x&#10;+P&#10;X&#10;(n,j,α&#10;2&#10;),x&#10;−1,∀(m,i,α&#10;1&#10;),(n,j,α&#10;2&#10;)∈W&#10;V&#10;,∀x∈X&#10;R"
       transform="matrix(1.3333333,0,0,1.3333333,236.08133,125.224)">
      <path
         id="path2"
         d="m 6.3286484,-5.7549141 c 0.09375,-0.4101562 0.28125,-0.7148437 1.078125,-0.7382812 0.046875,0 0.1640625,-0.011719 0.1640625,-0.1992188 0,-0.011719 0,-0.1171875 -0.1289062,-0.1171875 -0.328125,0 -0.6796875,0.035156 -1.0195313,0.035156 -0.3398437,0 -0.703125,-0.035156 -1.03125,-0.035156 -0.058594,0 -0.1757812,0 -0.1757812,0.1992188 0,0.1171875 0.09375,0.1171875 0.1757812,0.1171875 0.5625,0.011719 0.6796875,0.2109375 0.6796875,0.4335937 0,0.035156 -0.023437,0.1757813 -0.035156,0.2109375 l -0.890625,3.5507813 c -0.3398438,1.33593749 -1.4882813,2.20312499 -2.484375,2.20312499 -0.6796875,0 -1.21875,-0.43359375 -1.21875,-1.28906249 0,-0.023437 0,-0.3398438 0.1171875,-0.7734375 l 0.9609375,-3.8789063 c 0.09375,-0.3632812 0.1054687,-0.4570312 0.8320312,-0.4570312 0.2695313,0 0.3398438,0 0.3398438,-0.1992188 0,-0.1171875 -0.1054688,-0.1171875 -0.140625,-0.1171875 -0.2695313,0 -0.9960938,0.035156 -1.265625,0.035156 -0.2929688,0 -0.9960938,-0.035156 -1.28906251,-0.035156 -0.0820313,0 -0.1875,0 -0.1875,0.1992188 0,0.1171875 0.09375,0.1171875 0.28125001,0.1171875 0.011719,0 0.2109375,0 0.375,0.011719 0.1757812,0.023437 0.2695312,0.035156 0.2695312,0.1640625 0,0.058594 -0.1054687,0.4804688 -0.1757812,0.703125 l -0.2109375,0.8789063 c -0.09375,0.3867187 -0.57421876,2.2734375 -0.60937501,2.4609375 -0.0703125,0.28125 -0.0703125,0.4335937 -0.0703125,0.5742187 0,1.21875004 0.90234371,1.92187504 1.95703121,1.92187504 1.2539063,0 2.484375,-1.125 2.8125,-2.44921874 z m 0,0"
         style="fill:#000000;fill-opacity:1;fill-rule:nonzero;stroke:none" />
      <path
         id="path3"
         d="m 13.444859,-4.1142891 v -0.2460937 h -0.140625 c -0.46875,0 -0.515625,-0.070312 -0.585937,-0.2695313 l -1.699219,-4.3007812 c -0.03516,-0.1054688 -0.05859,-0.1523438 -0.199219,-0.1523438 -0.128906,0 -0.152343,0.046875 -0.1875,0.1523438 l -1.6171871,4.0898437 c -0.070312,0.1640625 -0.1875,0.4804688 -0.8085938,0.4804688 v 0.2460937 c 0.234375,-0.023437 0.4804688,-0.023437 0.7148438,-0.023437 0.28125,0 0.796875,0.023437 0.8320312,0.023437 v -0.2460937 c -0.3046875,0 -0.4921875,-0.140625 -0.4921875,-0.3398438 0,-0.058594 0,-0.070312 0.035156,-0.140625 l 0.328125,-0.8554687 h 1.9804694 l 0.410156,1.0195312 c 0.01172,0.035156 0.03516,0.082031 0.03516,0.1171875 0,0.1992188 -0.386719,0.1992188 -0.574219,0.1992188 v 0.2460937 l 1.042969,-0.023437 c 0.328125,0 0.855469,0.011719 0.925781,0.023437 z m -1.933593,-1.828125 H 9.7182969 l 0.9023441,-2.2734375 z m 7.769531,0.1523438 v -0.2460938 c -0.04687,0 -0.5625,0.023437 -0.902344,0.023437 -0.363281,0 -0.890625,0 -1.253906,-0.023437 v 0.2460938 h 0.257812 c 0.703125,0 0.703125,0.09375 0.703125,0.328125 v 0.4453125 c 0,0.1523437 0,0.421875 -0.398437,0.6210937 -0.339844,0.1640625 -0.738281,0.1640625 -0.820313,0.1640625 -0.796875,0 -2.085937,-0.4453125 -2.085937,-2.2617187 0,-1.8632813 1.324219,-2.2734375 2.015625,-2.2734375 0.679687,0 1.511719,0.4570312 1.699219,1.6640625 0.01172,0.082031 0.07031,0.082031 0.128906,0.082031 0.117187,0 0.117187,-0.046875 0.117187,-0.1875 v -1.6289062 c 0,-0.1171875 0,-0.1757813 -0.09375,-0.1757813 -0.02344,0 -0.05859,0 -0.117187,0.082031 l -0.375,0.5273437 c -0.339844,-0.3515625 -0.832031,-0.609375 -1.441406,-0.609375 -1.453125,0 -2.671875,1.125 -2.671875,2.5195313 0,1.3710937 1.183593,2.5195312 2.683593,2.5195312 0.386719,0 1.160157,-0.070312 1.488282,-0.5625 0.117187,0.1875 0.375,0.421875 0.445312,0.421875 0.08203,0 0.08203,-0.082031 0.08203,-0.1757812 v -1.1953125 c 0,-0.3046875 0.07031,-0.3046875 0.539063,-0.3046875 z m 6.09668,-2.8359375 v -0.2460938 c -0.210938,0.011719 -0.480469,0.023437 -0.679688,0.023437 -0.28125,0 -0.796875,-0.023437 -0.84375,-0.023437 v 0.2460938 c 0.257813,0 0.480469,0.1171875 0.480469,0.328125 0,0.046875 -0.01172,0.09375 -0.02344,0.140625 l -1.453125,3.375 -1.5,-3.5390625 c -0.04687,-0.082031 -0.04687,-0.09375 -0.04687,-0.1171875 0,-0.1875 0.363282,-0.1875 0.550782,-0.1875 v -0.2460938 l -1.03125,0.023437 c -0.351563,0 -0.878907,-0.023437 -0.902344,-0.023437 v 0.2460938 h 0.128906 c 0.375,0 0.492188,0.035156 0.585938,0.2460937 l 1.804687,4.2421875 c 0.04687,0.1171875 0.07031,0.1640625 0.199219,0.1640625 0.07031,0 0.140625,0 0.210937,-0.1523437 l 1.722657,-4.0429688 c 0.09375,-0.2109375 0.257812,-0.4453125 0.796875,-0.4570312 z m 0,0"
         style="fill:#000000;fill-opacity:1;fill-rule:nonzero;stroke:none" />
      <path
         id="path4"
         d="m 9.2759141,-2.3769844 c -1.3242188,0.9257813 -1.6757813,2.41406253 -1.6757813,3.4804688 0,0.984375 0.2929688,2.5078125 1.6757813,3.4804687 0.058594,0 0.140625,0 0.140625,-0.082031 0,-0.046875 -0.023437,-0.058594 -0.070312,-0.1054688 -0.9257813,-0.8320312 -1.265625,-2.015625 -1.265625,-3.2929687 0,-1.87500002 0.7148437,-2.8007813 1.2890625,-3.3164063 0.023437,-0.023437 0.046875,-0.046875 0.046875,-0.082031 0,-0.082031 -0.082031,-0.082031 -0.1406255,-0.082032 z m 0,0"
         style="fill:#000000;fill-opacity:1;fill-rule:nonzero;stroke:none" />
      <path
         id="path5"
         d="m 12.938023,2.2870781 c -0.03516,0.140625 -0.09375,0.375 -0.09375,0.4101563 0,0.1523437 0.128907,0.2226562 0.234375,0.2226562 0.128907,0 0.234375,-0.09375 0.269532,-0.1523437 0.03516,-0.058594 0.09375,-0.2929688 0.128906,-0.4335938 0.03516,-0.1289062 0.117187,-0.4570312 0.152344,-0.6328125 0.04687,-0.1523437 0.08203,-0.3046875 0.117187,-0.4570312 0.08203,-0.30468752 0.08203,-0.31640627 0.222656,-0.53906252 0.222657,-0.33984375 0.5625,-0.73828125 1.113282,-0.73828125 0.386718,0 0.410156,0.328125 0.410156,0.4921875 0,0.421875 -0.304688,1.19531247 -0.410156,1.48828127 -0.08203,0.1875 -0.105469,0.2578125 -0.105469,0.375 0,0.3632812 0.304687,0.5976562 0.65625,0.5976562 0.703125,0 1.007812,-0.9609375 1.007812,-1.0664062 0,-0.09375 -0.09375,-0.09375 -0.105468,-0.09375 -0.105469,0 -0.105469,0.046875 -0.140625,0.1171875 -0.152344,0.5625 -0.457032,0.84375 -0.738282,0.84375 -0.140625,0 -0.175781,-0.09375 -0.175781,-0.2460938 0,-0.1523437 0.03516,-0.2460937 0.164063,-0.5625 0.08203,-0.2109375 0.375,-0.94921872 0.375,-1.34765622 0,-0.10546875 0,-0.3984375 -0.257813,-0.59765625 -0.128906,-0.09375 -0.328125,-0.1875 -0.65625,-0.1875 -0.621094,0 -1.007812,0.41015625 -1.230469,0.703125 -0.05859,-0.59765625 -0.550781,-0.703125 -0.902343,-0.703125 -0.585938,0 -0.972657,0.3515625 -1.183594,0.6328125 -0.04687,-0.48046875 -0.457031,-0.6328125 -0.75,-0.6328125 -0.292969,0 -0.457031,0.2109375 -0.550781,0.375 -0.152344,0.2578125 -0.246094,0.65625 -0.246094,0.69140625 0,0.0820313 0.09375,0.0820313 0.117187,0.0820313 0.09375,0 0.105469,-0.0117188 0.152344,-0.19921875 0.105469,-0.421875 0.234375,-0.76171875 0.515625,-0.76171875 0.175781,0 0.222656,0.15234375 0.222656,0.33984375 0,0.140625 -0.05859,0.3984375 -0.105468,0.5859375 C 11.09818,1.0800469 11.027867,1.3612969 10.992711,1.5136406 l -0.222656,0.9023438 c -0.03516,0.082031 -0.07031,0.2578125 -0.07031,0.28125 0,0.1523437 0.117188,0.2226562 0.234375,0.2226562 0.128906,0 0.234375,-0.09375 0.269531,-0.1523437 0.03516,-0.058594 0.09375,-0.2929688 0.128907,-0.4335938 0.03516,-0.1289062 0.105468,-0.4570312 0.152343,-0.6328125 0.03516,-0.1523437 0.08203,-0.3046875 0.117188,-0.4570312 0.08203,-0.29296877 0.09375,-0.35156252 0.292969,-0.63281252 0.199218,-0.28125 0.527343,-0.64453125 1.042968,-0.64453125 0.410157,0 0.410157,0.36328125 0.410157,0.4921875 0,0.17578125 -0.01172,0.26953125 -0.117188,0.65624997 z m 5.519532,0.4453125 c 0,0.3867188 -0.07031,0.8320313 -0.550782,1.2773438 -0.02344,0.035156 -0.04687,0.058594 -0.04687,0.09375 0,0.046875 0.05859,0.09375 0.09375,0.09375 0.105469,0 0.691407,-0.5625 0.691407,-1.3945313 0,-0.421875 -0.164063,-0.75 -0.480469,-0.75 -0.234375,0 -0.398438,0.1757813 -0.398438,0.3867188 0,0.234375 0.152344,0.4101562 0.398438,0.4101562 0.164062,0 0.28125,-0.1171875 0.292969,-0.1171875 z m 3.149414,-4.2421875 c 0,-0.1054687 -0.08203,-0.2578125 -0.28125,-0.2578125 -0.1875,0 -0.386719,0.1757813 -0.386719,0.375 0,0.1171875 0.08203,0.2695313 0.269531,0.2695313 0.210938,0 0.398438,-0.1992188 0.398438,-0.3867188 z m -1.429688,3.5390625 c -0.02344,0.09375 -0.05859,0.1757813 -0.05859,0.2929688 0,0.328125 0.28125,0.5976562 0.667968,0.5976562 0.691407,0 0.996094,-0.9609375 0.996094,-1.0664062 0,-0.09375 -0.08203,-0.09375 -0.105469,-0.09375 -0.105468,0 -0.105468,0.046875 -0.140625,0.1171875 -0.152343,0.5625 -0.457031,0.84375 -0.738281,0.84375 -0.140625,0 -0.175781,-0.082031 -0.175781,-0.2460938 0,-0.1523437 0.05859,-0.2929687 0.117187,-0.4453125 0.07031,-0.1875 0.140625,-0.375 0.222657,-0.5507812 0.05859,-0.1640625 0.316406,-0.80859377 0.339843,-0.89062502 0.02344,-0.0703125 0.04687,-0.15234375 0.04687,-0.22265625 0,-0.328125 -0.28125,-0.5859375 -0.667968,-0.5859375 -0.691407,0 -1.007813,0.94921875 -1.007813,1.06640625 0,0.0820313 0.09375,0.0820313 0.117188,0.0820313 0.09375,0 0.105468,-0.0351563 0.128906,-0.10546875 0.175781,-0.59765625 0.480469,-0.85546875 0.738281,-0.85546875 0.117188,0 0.175781,0.05859375 0.175781,0.24609375 0,0.1640625 -0.03516,0.26953125 -0.210937,0.703125 z m 3.459961,0.703125 c 0,0.3867188 -0.07031,0.8320313 -0.550781,1.2773438 -0.02344,0.035156 -0.04687,0.058594 -0.04687,0.09375 0,0.046875 0.05859,0.09375 0.09375,0.09375 0.105469,0 0.691406,-0.5625 0.691406,-1.3945313 0,-0.421875 -0.164062,-0.75 -0.480469,-0.75 -0.234375,0 -0.398437,0.1757813 -0.398437,0.3867188 0,0.234375 0.152344,0.4101562 0.398437,0.4101562 0.164063,0 0.28125,-0.1171875 0.292969,-0.1171875 z m 4.696289,-0.8671875 c 0.644532,-0.65625 0.902344,-1.59374997 0.902344,-1.66406247 0,-0.09375 -0.08203,-0.09375 -0.117187,-0.09375 -0.09375,0 -0.09375,0.0234375 -0.140625,0.17578125 -0.128907,0.45703125 -0.363282,0.89062502 -0.65625,1.26562502 0,-0.1054688 -0.02344,-0.57421877 -0.03516,-0.63281252 -0.105468,-0.69140625 -0.621093,-1.13671875 -1.324218,-1.13671875 -1.019532,0 -2.003907,0.94921875 -2.003907,1.92187497 0,0.6445313 0.46875,1.21875 1.277344,1.21875 0.644531,0 1.21875,-0.2929687 1.605469,-0.5976562 0.164062,0.515625 0.515625,0.5976562 0.726562,0.5976562 0.410157,0 0.65625,-0.3398437 0.65625,-0.4921875 0,-0.082031 -0.08203,-0.082031 -0.117187,-0.082031 -0.09375,0 -0.105469,0.035156 -0.117188,0.070312 -0.105468,0.2695312 -0.316406,0.3046875 -0.398437,0.3046875 -0.09375,0 -0.222656,0 -0.257813,-0.8554688 z m -0.539062,0.234375 c -0.679688,0.5625 -1.277344,0.6210938 -1.535156,0.6210938 -0.46875,0 -0.726563,-0.3046875 -0.726563,-0.7734375 0,-0.1992188 0.105469,-0.96093752 0.46875,-1.44140627 0.316406,-0.421875 0.714844,-0.5390625 0.960938,-0.5390625 0.550781,0 0.714843,0.5390625 0.773437,0.97265625 0.03516,0.30468752 0.02344,0.79687502 0.05859,1.16015622 z m 0,0"
         style="fill:#000000;fill-opacity:1;fill-rule:nonzero;stroke:none" />
      <path
         id="path6"
         d="m 31.696813,0.68160938 c 0,-0.15234375 -0.01172,-0.15234375 -0.175782,-0.15234375 -0.351562,0.31640625 -0.902343,0.31640625 -1.007812,0.31640625 h -0.08203 V 1.0683281 h 0.08203 c 0.117187,0 0.433594,-0.011719 0.726562,-0.14062497 V 3.4120781 c 0,0.1640625 0,0.2109375 -0.527343,0.2109375 h -0.246094 v 0.2226563 c 0.269531,-0.023437 0.714844,-0.023437 1.007812,-0.023437 0.28125,0 0.726563,0 0.996094,0.023437 V 3.6230156 h -0.246094 c -0.527343,0 -0.527343,-0.046875 -0.527343,-0.2109375 z m 0,0"
         style="fill:#000000;fill-opacity:1;fill-rule:nonzero;stroke:none" />
      <path
         id="path7"
         d="m 34.236852,-2.3769844 c -0.05859,0 -0.140625,0 -0.140625,0.082031 0,0.035156 0.02344,0.058594 0.07031,0.1054687 0.597656,0.5507813 1.265625,1.48828128 1.265625,3.2929688 0,1.453125 -0.457031,2.5546875 -1.207031,3.234375 -0.117188,0.1171875 -0.128906,0.1289062 -0.128906,0.1640625 0,0.035156 0.02344,0.082031 0.09375,0.082031 0.08203,0 0.75,-0.4570312 1.207031,-1.3242187 0.304687,-0.5859375 0.503906,-1.3359375 0.503906,-2.15625 0,-0.98437502 -0.292969,-2.5078125 -1.664062,-3.4804688 z m 4.951171,0 c -1.324218,0.9257813 -1.675781,2.41406253 -1.675781,3.4804688 0,0.984375 0.292969,2.5078125 1.675781,3.4804687 0.05859,0 0.140625,0 0.140625,-0.082031 0,-0.046875 -0.02344,-0.058594 -0.07031,-0.1054688 -0.925781,-0.8320312 -1.265625,-2.015625 -1.265625,-3.2929687 0,-1.87500002 0.714844,-2.8007813 1.289062,-3.3164063 0.02344,-0.023437 0.04687,-0.046875 0.04687,-0.082031 0,-0.082031 -0.08203,-0.082031 -0.140625,-0.082031 z m 0,0"
         style="fill:#000000;fill-opacity:1;fill-rule:nonzero;stroke:none" />
      <path
         id="path8"
         d="m 40.685094,2.4159844 c -0.03516,0.082031 -0.07031,0.2578125 -0.07031,0.28125 0,0.1523437 0.117188,0.2226562 0.234375,0.2226562 0.128907,0 0.234375,-0.09375 0.269532,-0.1523437 0.03516,-0.058594 0.09375,-0.2929688 0.128906,-0.4335938 0.03516,-0.1289062 0.105469,-0.4570312 0.152344,-0.6328125 0.03516,-0.1523437 0.08203,-0.3046875 0.117187,-0.4570312 0.08203,-0.29296877 0.09375,-0.35156252 0.292969,-0.63281252 0.199219,-0.28125 0.527344,-0.64453125 1.042969,-0.64453125 0.410156,0 0.410156,0.36328125 0.410156,0.4921875 0,0.421875 -0.292969,1.19531247 -0.410156,1.48828127 -0.07031,0.1875 -0.105469,0.2578125 -0.105469,0.375 0,0.3632812 0.304687,0.5976562 0.667969,0.5976562 0.691406,0 1.007812,-0.9609375 1.007812,-1.0664062 0,-0.09375 -0.09375,-0.09375 -0.117187,-0.09375 -0.09375,0 -0.105469,0.046875 -0.128907,0.1171875 -0.164062,0.5625 -0.46875,0.84375 -0.738281,0.84375 -0.152344,0 -0.175781,-0.09375 -0.175781,-0.2460938 0,-0.1523437 0.03516,-0.2460937 0.152344,-0.5625 0.09375,-0.2109375 0.375,-0.94921872 0.375,-1.34765622 0,-0.66796875 -0.539063,-0.78515625 -0.902344,-0.78515625 -0.585938,0 -0.972656,0.3515625 -1.183594,0.6328125 -0.04687,-0.48046875 -0.457031,-0.6328125 -0.75,-0.6328125 -0.292969,0 -0.457031,0.2109375 -0.550781,0.375 -0.152344,0.2578125 -0.246094,0.65625 -0.246094,0.69140625 0,0.0820313 0.09375,0.0820313 0.117188,0.0820313 0.09375,0 0.105468,-0.0117188 0.152343,-0.19921875 0.105469,-0.421875 0.234375,-0.76171875 0.515625,-0.76171875 0.175782,0 0.222657,0.15234375 0.222657,0.33984375 0,0.140625 -0.05859,0.3984375 -0.105469,0.5859375 C 41.013219,1.0800469 40.942906,1.3612969 40.90775,1.5136406 Z m 5.545898,0.3164062 c 0,0.3867188 -0.07031,0.8320313 -0.550781,1.2773438 -0.02344,0.035156 -0.04687,0.058594 -0.04687,0.09375 0,0.046875 0.05859,0.09375 0.09375,0.09375 0.105469,0 0.691406,-0.5625 0.691406,-1.3945313 0,-0.421875 -0.164062,-0.75 -0.480469,-0.75 -0.234375,0 -0.398437,0.1757813 -0.398437,0.3867188 0,0.234375 0.152344,0.4101562 0.398437,0.4101562 0.164063,0 0.28125,-0.1171875 0.292969,-0.1171875 z m 3.946289,-4.2421875 c 0,-0.1171875 -0.09375,-0.2578125 -0.28125,-0.2578125 -0.199218,0 -0.386718,0.1875 -0.386718,0.375 0,0.1171875 0.08203,0.2695313 0.28125,0.2695313 0.1875,0 0.386718,-0.1875 0.386718,-0.3867188 z m -1.476562,4.6992188 c -0.117188,0.4804687 -0.492188,0.890625 -0.902344,0.890625 -0.08203,0 -0.175781,-0.011719 -0.246094,-0.046875 0.175782,-0.082031 0.234375,-0.2460938 0.234375,-0.3515625 0,-0.1640625 -0.128906,-0.2578125 -0.269531,-0.2578125 -0.222656,0 -0.398437,0.1875 -0.398437,0.4101562 0,0.2695313 0.269531,0.4335938 0.691406,0.4335938 0.421875,0 1.230469,-0.2460938 1.453125,-1.1015625 l 0.621094,-2.49609377 c 0.02344,-0.0703125 0.03516,-0.140625 0.03516,-0.234375 0,-0.38671875 -0.328125,-0.65625 -0.738281,-0.65625 -0.785157,0 -1.230469,0.9609375 -1.230469,1.06640625 0,0.0820313 0.105469,0.0820313 0.128906,0.0820313 0.08203,0 0.08203,-0.0117188 0.128906,-0.1171875 0.175782,-0.41015625 0.539063,-0.84375 0.949219,-0.84375 0.175781,0 0.234375,0.1171875 0.234375,0.33984375 0,0.0820313 -0.01172,0.17578125 -0.02344,0.2109375 z m 3.164062,-0.4570313 c 0,0.3867188 -0.07031,0.8320313 -0.550781,1.2773438 -0.02344,0.035156 -0.04687,0.058594 -0.04687,0.09375 0,0.046875 0.05859,0.09375 0.09375,0.09375 0.105469,0 0.691406,-0.5625 0.691406,-1.3945313 0,-0.421875 -0.164062,-0.75 -0.480468,-0.75 -0.234375,0 -0.398438,0.1757813 -0.398438,0.3867188 0,0.234375 0.152344,0.4101562 0.398438,0.4101562 0.164062,0 0.28125,-0.1171875 0.292968,-0.1171875 z M 56.56107,1.8652031 c 0.644532,-0.65625 0.902344,-1.59374997 0.902344,-1.66406247 0,-0.09375 -0.08203,-0.09375 -0.117187,-0.09375 -0.09375,0 -0.09375,0.0234375 -0.140625,0.17578125 -0.128907,0.45703125 -0.363282,0.89062502 -0.65625,1.26562502 0,-0.1054688 -0.02344,-0.57421877 -0.03516,-0.63281252 -0.105468,-0.69140625 -0.621093,-1.13671875 -1.324218,-1.13671875 -1.019532,0 -2.003907,0.94921875 -2.003907,1.92187497 0,0.6445313 0.46875,1.21875 1.277344,1.21875 0.644531,0 1.21875,-0.2929687 1.605469,-0.5976562 0.164062,0.515625 0.515625,0.5976562 0.726562,0.5976562 0.410157,0 0.65625,-0.3398437 0.65625,-0.4921875 0,-0.082031 -0.08203,-0.082031 -0.117187,-0.082031 -0.09375,0 -0.105469,0.035156 -0.117188,0.070312 -0.105468,0.2695312 -0.316406,0.3046875 -0.398437,0.3046875 -0.09375,0 -0.222656,0 -0.257813,-0.8554688 z m -0.539062,0.234375 c -0.679688,0.5625 -1.277344,0.6210938 -1.535156,0.6210938 -0.46875,0 -0.726563,-0.3046875 -0.726563,-0.7734375 0,-0.1992188 0.105469,-0.96093752 0.46875,-1.44140627 0.316406,-0.421875 0.714844,-0.5390625 0.960938,-0.5390625 0.550781,0 0.714843,0.5390625 0.773437,0.97265625 0.03516,0.30468752 0.02344,0.79687502 0.05859,1.16015622 z m 0,0"
         style="fill:#000000;fill-opacity:1;fill-rule:nonzero;stroke:none" />
      <path
         id="path9"
         d="m 60.867711,2.8847344 h -0.210938 c -0.01172,0.09375 -0.05859,0.3984375 -0.140625,0.4570312 -0.03516,0.023437 -0.457031,0.023437 -0.527343,0.023437 H 59.00443 c 0.328125,-0.2460937 0.703125,-0.515625 0.996093,-0.7148437 0.457032,-0.3164063 0.867188,-0.5976563 0.867188,-1.125 0,-0.64453127 -0.597656,-0.99609377 -1.3125,-0.99609377 -0.667969,0 -1.160156,0.38671875 -1.160156,0.87890627 0,0.2578125 0.210937,0.3046875 0.28125,0.3046875 0.140625,0 0.292968,-0.09375 0.292968,-0.2929688 0,-0.1875 -0.128906,-0.28125 -0.28125,-0.2929687 0.140625,-0.23437502 0.433594,-0.37500002 0.761719,-0.37500002 0.480469,0 0.890625,0.28125002 0.890625,0.77343752 0,0.421875 -0.292969,0.7382812 -0.679687,1.0546875 l -1.207032,1.03125 c -0.04687,0.046875 -0.05859,0.046875 -0.05859,0.082031 v 0.1523438 h 2.308593 z m 0,0"
         style="fill:#000000;fill-opacity:1;fill-rule:nonzero;stroke:none" />
      <path
         id="path10"
         d="m 62.458531,-2.3769844 c -0.05859,0 -0.140625,0 -0.140625,0.082031 0,0.035156 0.02344,0.058594 0.07031,0.1054687 0.597656,0.5507813 1.265625,1.48828128 1.265625,3.2929688 0,1.453125 -0.457031,2.5546875 -1.207031,3.234375 -0.117188,0.1171875 -0.128907,0.1289062 -0.128907,0.1640625 0,0.035156 0.02344,0.082031 0.09375,0.082031 0.08203,0 0.75,-0.4570312 1.207032,-1.3242187 0.304687,-0.5859375 0.503906,-1.3359375 0.503906,-2.15625 0,-0.98437502 -0.292969,-2.5078125 -1.664063,-3.4804688 z m 0,0"
         style="fill:#000000;fill-opacity:1;fill-rule:nonzero;stroke:none" />
      <path
         id="path11"
         d="m 71.728063,-2.2978828 h 2.777343 c 0.140625,0 0.328125,0 0.328125,-0.1992188 0,-0.1992187 -0.1875,-0.1992187 -0.328125,-0.1992187 h -2.777343 v -2.7890625 c 0,-0.1289063 0,-0.328125 -0.199219,-0.328125 -0.199219,0 -0.199219,0.1992187 -0.199219,0.328125 v 2.7890625 h -2.789062 c -0.140625,0 -0.328125,0 -0.328125,0.1992187 0,0.1992188 0.1875,0.1992188 0.328125,0.1992188 h 2.789062 v 2.80078124 c 0,0.12890625 0,0.328125 0.199219,0.328125 0.199219,0 0.199219,-0.19921875 0.199219,-0.328125 z m 0,0"
         style="fill:#000000;fill-opacity:1;fill-rule:nonzero;stroke:none" />
      <path
         id="path12"
         d="m 83.94193,-5.7549141 c 0.09375,-0.4101562 0.28125,-0.7148437 1.078125,-0.7382812 0.04687,0 0.164062,-0.011719 0.164062,-0.1992188 0,-0.011719 0,-0.1171875 -0.128906,-0.1171875 -0.328125,0 -0.679688,0.035156 -1.019531,0.035156 -0.339844,0 -0.703125,-0.035156 -1.03125,-0.035156 -0.05859,0 -0.175782,0 -0.175782,0.1992188 0,0.1171875 0.09375,0.1171875 0.175782,0.1171875 0.5625,0.011719 0.679687,0.2109375 0.679687,0.4335937 0,0.035156 -0.02344,0.1757813 -0.03516,0.2109375 l -0.890625,3.5507813 c -0.339844,1.33593749 -1.488281,2.20312499 -2.484375,2.20312499 -0.679688,0 -1.21875,-0.43359375 -1.21875,-1.28906249 0,-0.023437 0,-0.3398438 0.117187,-0.7734375 l 0.960938,-3.8789063 c 0.09375,-0.3632812 0.105469,-0.4570312 0.832031,-0.4570312 0.269531,0 0.339844,0 0.339844,-0.1992188 0,-0.1171875 -0.105469,-0.1171875 -0.140625,-0.1171875 -0.269531,0 -0.996094,0.035156 -1.265625,0.035156 -0.292969,0 -0.996094,-0.035156 -1.289063,-0.035156 -0.08203,0 -0.1875,0 -0.1875,0.1992188 0,0.1171875 0.09375,0.1171875 0.28125,0.1171875 0.01172,0 0.210938,0 0.375,0.011719 0.175782,0.023437 0.269532,0.035156 0.269532,0.1640625 0,0.058594 -0.105469,0.4804688 -0.175782,0.703125 l -0.210937,0.8789063 c -0.09375,0.3867187 -0.574219,2.2734375 -0.609375,2.4609375 -0.07031,0.28125 -0.07031,0.4335937 -0.07031,0.5742187 0,1.21875004 0.902344,1.92187504 1.957032,1.92187504 1.253906,0 2.484375,-1.125 2.8125,-2.44921874 z m 0,0"
         style="fill:#000000;fill-opacity:1;fill-rule:nonzero;stroke:none" />
      <path
         id="path13"
         d="m 91.058141,-4.1142891 v -0.2460937 h -0.140625 c -0.46875,0 -0.515625,-0.070312 -0.585938,-0.2695313 l -1.699219,-4.3007812 c -0.03516,-0.1054688 -0.05859,-0.1523438 -0.199218,-0.1523438 -0.128907,0 -0.152344,0.046875 -0.1875,0.1523438 l -1.617188,4.0898437 c -0.07031,0.1640625 -0.1875,0.4804688 -0.808594,0.4804688 v 0.2460937 c 0.234375,-0.023437 0.480469,-0.023437 0.714844,-0.023437 0.28125,0 0.796875,0.023437 0.832031,0.023437 v -0.2460937 c -0.304687,0 -0.492187,-0.140625 -0.492187,-0.3398438 0,-0.058594 0,-0.070312 0.03516,-0.140625 l 0.328125,-0.8554687 h 1.980469 l 0.410156,1.0195312 c 0.01172,0.035156 0.03516,0.082031 0.03516,0.1171875 0,0.1992188 -0.386718,0.1992188 -0.574218,0.1992188 v 0.2460937 l 1.042968,-0.023437 c 0.328125,0 0.855469,0.011719 0.925782,0.023437 z m -1.933594,-1.828125 h -1.792969 l 0.902344,-2.2734375 z m 7.77832,0.1523438 v -0.2460938 c -0.04687,0 -0.5625,0.023437 -0.902344,0.023437 -0.363281,0 -0.890625,0 -1.253906,-0.023437 v 0.2460938 h 0.257813 c 0.703125,0 0.703125,0.09375 0.703125,0.328125 v 0.4453125 c 0,0.1523437 0,0.421875 -0.398438,0.6210937 -0.339844,0.1640625 -0.738281,0.1640625 -0.820312,0.1640625 -0.796875,0 -2.085938,-0.4453125 -2.085938,-2.2617187 0,-1.8632813 1.324219,-2.2734375 2.015625,-2.2734375 0.679688,0 1.511719,0.4570312 1.699219,1.6640625 0.01172,0.082031 0.07031,0.082031 0.128906,0.082031 0.117188,0 0.117188,-0.046875 0.117188,-0.1875 v -1.6289062 c 0,-0.1171875 0,-0.1757813 -0.09375,-0.1757813 -0.02344,0 -0.05859,0 -0.117188,0.082031 l -0.375,0.5273437 c -0.339844,-0.3515625 -0.832031,-0.609375 -1.441406,-0.609375 -1.453125,0 -2.671875,1.125 -2.671875,2.5195313 0,1.3710937 1.183594,2.5195312 2.683594,2.5195312 0.386718,0 1.160156,-0.070312 1.488281,-0.5625 0.117187,0.1875 0.375,0.421875 0.445312,0.421875 0.08203,0 0.08203,-0.082031 0.08203,-0.1757812 v -1.1953125 c 0,-0.3046875 0.07031,-0.3046875 0.539062,-0.3046875 z m 6.093753,-2.8359375 v -0.2460938 c -0.21094,0.011719 -0.48047,0.023437 -0.67969,0.023437 -0.28125,0 -0.79688,-0.023437 -0.84375,-0.023437 v 0.2460938 c 0.25781,0 0.48047,0.1171875 0.48047,0.328125 0,0.046875 -0.0117,0.09375 -0.0234,0.140625 l -1.45312,3.375 -1.500004,-3.5390625 c -0.04687,-0.082031 -0.04687,-0.09375 -0.04687,-0.1171875 0,-0.1875 0.363281,-0.1875 0.550781,-0.1875 v -0.2460938 l -1.03125,0.023437 c -0.351562,0 -0.878906,-0.023437 -0.902344,-0.023437 v 0.2460938 h 0.128907 c 0.375,0 0.492187,0.035156 0.585937,0.2460937 l 1.804693,4.2421875 c 0.0469,0.1171875 0.0703,0.1640625 0.19922,0.1640625 0.0703,0 0.14062,0 0.21094,-0.1523437 l 1.72265,-4.0429688 c 0.0937,-0.2109375 0.25781,-0.4453125 0.79688,-0.4570312 z m 0,0"
         style="fill:#000000;fill-opacity:1;fill-rule:nonzero;stroke:none" />
      <path
         id="path14"
         d="m 86.889195,-2.3769844 c -1.324218,0.9257813 -1.675781,2.41406253 -1.675781,3.4804688 0,0.984375 0.292969,2.5078125 1.675781,3.4804687 0.05859,0 0.140625,0 0.140625,-0.082031 0,-0.046875 -0.02344,-0.058594 -0.07031,-0.1054688 -0.925781,-0.8320312 -1.265625,-2.015625 -1.265625,-3.2929687 0,-1.87500002 0.714844,-2.8007813 1.289062,-3.3164063 0.02344,-0.023437 0.04687,-0.046875 0.04687,-0.082031 0,-0.082031 -0.08203,-0.082031 -0.140625,-0.082031 z m 0,0"
         style="fill:#000000;fill-opacity:1;fill-rule:nonzero;stroke:none" />
      <path
         id="path15"
         d="m 88.386266,2.4159844 c -0.03516,0.082031 -0.07031,0.2578125 -0.07031,0.28125 0,0.1523437 0.117188,0.2226562 0.234375,0.2226562 0.128906,0 0.234375,-0.09375 0.269531,-0.1523437 0.03516,-0.058594 0.09375,-0.2929688 0.128907,-0.4335938 0.03516,-0.1289062 0.105468,-0.4570312 0.152343,-0.6328125 0.03516,-0.1523437 0.08203,-0.3046875 0.117188,-0.4570312 0.08203,-0.29296877 0.09375,-0.35156252 0.292969,-0.63281252 0.199218,-0.28125 0.527343,-0.64453125 1.042968,-0.64453125 0.410157,0 0.410157,0.36328125 0.410157,0.4921875 0,0.421875 -0.292969,1.19531247 -0.410157,1.48828127 -0.07031,0.1875 -0.105468,0.2578125 -0.105468,0.375 0,0.3632812 0.304687,0.5976562 0.667968,0.5976562 0.691407,0 1.007813,-0.9609375 1.007813,-1.0664062 0,-0.09375 -0.09375,-0.09375 -0.117188,-0.09375 -0.09375,0 -0.105468,0.046875 -0.128906,0.1171875 -0.164062,0.5625 -0.46875,0.84375 -0.738281,0.84375 -0.152344,0 -0.175781,-0.09375 -0.175781,-0.2460938 0,-0.1523437 0.03516,-0.2460937 0.152343,-0.5625 0.09375,-0.2109375 0.375,-0.94921872 0.375,-1.34765622 0,-0.66796875 -0.539062,-0.78515625 -0.902343,-0.78515625 -0.585938,0 -0.972657,0.3515625 -1.183594,0.6328125 -0.04687,-0.48046875 -0.457031,-0.6328125 -0.75,-0.6328125 -0.292969,0 -0.457031,0.2109375 -0.550781,0.375 -0.152344,0.2578125 -0.246094,0.65625 -0.246094,0.69140625 0,0.0820313 0.09375,0.0820313 0.117187,0.0820313 0.09375,0 0.105469,-0.0117188 0.152344,-0.19921875 0.105469,-0.421875 0.234375,-0.76171875 0.515625,-0.76171875 0.175781,0 0.222656,0.15234375 0.222656,0.33984375 0,0.140625 -0.05859,0.3984375 -0.105468,0.5859375 -0.04687,0.18749997 -0.117188,0.46874997 -0.152344,0.62109377 z m 5.542968,0.3164062 c 0,0.3867188 -0.07031,0.8320313 -0.550781,1.2773438 -0.02344,0.035156 -0.04687,0.058594 -0.04687,0.09375 0,0.046875 0.05859,0.09375 0.09375,0.09375 0.105469,0 0.691406,-0.5625 0.691406,-1.3945313 0,-0.421875 -0.164062,-0.75 -0.480468,-0.75 -0.234375,0 -0.398438,0.1757813 -0.398438,0.3867188 0,0.234375 0.152344,0.4101562 0.398438,0.4101562 0.164062,0 0.28125,-0.1171875 0.292968,-0.1171875 z m 3.946289,-4.2421875 c 0,-0.1171875 -0.09375,-0.2578125 -0.28125,-0.2578125 -0.199218,0 -0.386718,0.1875 -0.386718,0.375 0,0.1171875 0.08203,0.2695313 0.28125,0.2695313 0.1875,0 0.386718,-0.1875 0.386718,-0.3867188 z m -1.476562,4.6992188 c -0.117188,0.4804687 -0.492188,0.890625 -0.902344,0.890625 -0.08203,0 -0.175781,-0.011719 -0.246094,-0.046875 0.175782,-0.082031 0.234375,-0.2460938 0.234375,-0.3515625 0,-0.1640625 -0.128906,-0.2578125 -0.269531,-0.2578125 -0.222656,0 -0.398437,0.1875 -0.398437,0.4101562 0,0.2695313 0.269531,0.4335938 0.691406,0.4335938 0.421875,0 1.230469,-0.2460938 1.453125,-1.1015625 l 0.621094,-2.49609377 c 0.02344,-0.0703125 0.03516,-0.140625 0.03516,-0.234375 0,-0.38671875 -0.328125,-0.65625 -0.738281,-0.65625 -0.785157,0 -1.230469,0.9609375 -1.230469,1.06640625 0,0.0820313 0.105469,0.0820313 0.128906,0.0820313 0.08203,0 0.08203,-0.0117188 0.128906,-0.1171875 0.175782,-0.41015625 0.539063,-0.84375 0.949219,-0.84375 0.175781,0 0.234375,0.1171875 0.234375,0.33984375 0,0.0820313 -0.01172,0.17578125 -0.02344,0.2109375 z m 3.166992,-0.4570313 c 0,0.3867188 -0.07031,0.8320313 -0.550781,1.2773438 -0.02344,0.035156 -0.04687,0.058594 -0.04687,0.09375 0,0.046875 0.05859,0.09375 0.09375,0.09375 0.105469,0 0.691406,-0.5625 0.691406,-1.3945313 0,-0.421875 -0.164062,-0.75 -0.480469,-0.75 -0.234375,0 -0.398437,0.1757813 -0.398437,0.3867188 0,0.234375 0.152344,0.4101562 0.398437,0.4101562 0.164063,0 0.28125,-0.1171875 0.292969,-0.1171875 z m 4.696287,-0.8671875 c 0.64453,-0.65625 0.90235,-1.59374997 0.90235,-1.66406247 0,-0.09375 -0.082,-0.09375 -0.11719,-0.09375 -0.0937,0 -0.0937,0.0234375 -0.14063,0.17578125 -0.1289,0.45703125 -0.36328,0.89062502 -0.65625,1.26562502 0,-0.1054688 -0.0234,-0.57421877 -0.0352,-0.63281252 -0.10547,-0.69140625 -0.6211,-1.13671875 -1.32422,-1.13671875 -1.01953,0 -2.00391,0.94921875 -2.00391,1.92187497 0,0.6445313 0.46875,1.21875 1.27735,1.21875 0.64453,0 1.21875,-0.2929687 1.60546,-0.5976562 0.16407,0.515625 0.51563,0.5976562 0.72657,0.5976562 0.41015,0 0.65625,-0.3398437 0.65625,-0.4921875 0,-0.082031 -0.082,-0.082031 -0.11719,-0.082031 -0.0937,0 -0.10547,0.035156 -0.11719,0.070312 -0.10547,0.2695312 -0.3164,0.3046875 -0.39844,0.3046875 -0.0937,0 -0.22265,0 -0.25781,-0.8554688 z m -0.53906,0.234375 c -0.67969,0.5625 -1.27734,0.6210938 -1.53516,0.6210938 -0.46875,0 -0.72656,-0.3046875 -0.72656,-0.7734375 0,-0.1992188 0.10547,-0.96093752 0.46875,-1.44140627 0.31641,-0.421875 0.71484,-0.5390625 0.96094,-0.5390625 0.55078,0 0.71484,0.5390625 0.77344,0.97265625 0.0352,0.30468752 0.0234,0.79687502 0.0586,1.16015622 z m 0,0"
         style="fill:#000000;fill-opacity:1;fill-rule:nonzero;stroke:none" />
      <path
         id="path16"
         d="m 108.56595,2.8847344 h -0.21093 c -0.0117,0.09375 -0.0586,0.3984375 -0.14063,0.4570312 -0.0352,0.023437 -0.45703,0.023437 -0.52734,0.023437 h -0.98438 c 0.32813,-0.2460937 0.70313,-0.515625 0.9961,-0.7148437 0.45703,-0.3164063 0.86718,-0.5976563 0.86718,-1.125 0,-0.64453127 -0.59765,-0.99609377 -1.3125,-0.99609377 -0.66797,0 -1.16015,0.38671875 -1.16015,0.87890627 0,0.2578125 0.21093,0.3046875 0.28125,0.3046875 0.14062,0 0.29297,-0.09375 0.29297,-0.2929688 0,-0.1875 -0.12891,-0.28125 -0.28125,-0.2929687 0.14062,-0.23437502 0.43359,-0.37500002 0.76171,-0.37500002 0.48047,0 0.89063,0.28125002 0.89063,0.77343752 0,0.421875 -0.29297,0.7382812 -0.67969,1.0546875 l -1.20703,1.03125 c -0.0469,0.046875 -0.0586,0.046875 -0.0586,0.082031 v 0.1523438 h 2.30859 z m 0,0"
         style="fill:#000000;fill-opacity:1;fill-rule:nonzero;stroke:none" />
      <path
         id="path17"
         d="m 110.15677,-2.3769844 c -0.0586,0 -0.14062,0 -0.14062,0.082031 0,0.035156 0.0234,0.058594 0.0703,0.1054687 0.59766,0.5507813 1.26563,1.48828128 1.26563,3.2929688 0,1.453125 -0.45704,2.5546875 -1.20704,3.234375 -0.11718,0.1171875 -0.1289,0.1289062 -0.1289,0.1640625 0,0.035156 0.0234,0.082031 0.0937,0.082031 0.082,0 0.75,-0.4570312 1.20703,-1.3242187 0.30469,-0.5859375 0.50391,-1.3359375 0.50391,-2.15625 0,-0.98437502 -0.29297,-2.5078125 -1.66407,-3.4804688 z m 4.95118,0 c -1.32422,0.9257813 -1.67579,2.41406253 -1.67579,3.4804688 0,0.984375 0.29297,2.5078125 1.67579,3.4804687 0.0586,0 0.14062,0 0.14062,-0.082031 0,-0.046875 -0.0234,-0.058594 -0.0703,-0.1054688 -0.92578,-0.8320312 -1.26563,-2.015625 -1.26563,-3.2929687 0,-1.87500002 0.71485,-2.8007813 1.28907,-3.3164063 0.0234,-0.023437 0.0469,-0.046875 0.0469,-0.082031 0,-0.082031 -0.082,-0.082031 -0.14062,-0.082031 z m 0,0"
         style="fill:#000000;fill-opacity:1;fill-rule:nonzero;stroke:none" />
      <path
         id="path18"
         d="m 118.77591,2.2870781 c -0.0352,0.140625 -0.0937,0.375 -0.0937,0.4101563 0,0.1523437 0.12891,0.2226562 0.23438,0.2226562 0.12891,0 0.23437,-0.09375 0.26953,-0.1523437 0.0352,-0.058594 0.0937,-0.2929688 0.12891,-0.4335938 0.0351,-0.1289062 0.11718,-0.4570312 0.15234,-0.6328125 0.0469,-0.1523437 0.082,-0.3046875 0.11719,-0.4570312 0.082,-0.30468752 0.082,-0.31640627 0.22265,-0.53906252 0.22266,-0.33984375 0.5625,-0.73828125 1.11329,-0.73828125 0.38671,0 0.41015,0.328125 0.41015,0.4921875 0,0.421875 -0.30469,1.19531247 -0.41015,1.48828127 -0.082,0.1875 -0.10547,0.2578125 -0.10547,0.375 0,0.3632812 0.30468,0.5976562 0.65625,0.5976562 0.70312,0 1.00781,-0.9609375 1.00781,-1.0664062 0,-0.09375 -0.0937,-0.09375 -0.10547,-0.09375 -0.10547,0 -0.10547,0.046875 -0.14062,0.1171875 -0.15235,0.5625 -0.45704,0.84375 -0.73829,0.84375 -0.14062,0 -0.17578,-0.09375 -0.17578,-0.2460938 0,-0.1523437 0.0352,-0.2460937 0.16407,-0.5625 0.082,-0.2109375 0.375,-0.94921872 0.375,-1.34765622 0,-0.10546875 0,-0.3984375 -0.25782,-0.59765625 -0.1289,-0.09375 -0.32812,-0.1875 -0.65625,-0.1875 -0.62109,0 -1.00781,0.41015625 -1.23047,0.703125 -0.0586,-0.59765625 -0.55078,-0.703125 -0.90234,-0.703125 -0.58594,0 -0.97266,0.3515625 -1.18359,0.6328125 -0.0469,-0.48046875 -0.45703,-0.6328125 -0.75,-0.6328125 -0.29297,0 -0.45703,0.2109375 -0.55078,0.375 -0.15235,0.2578125 -0.2461,0.65625 -0.2461,0.69140625 0,0.0820313 0.0937,0.0820313 0.11719,0.0820313 0.0937,0 0.10547,-0.0117188 0.15234,-0.19921875 0.10547,-0.421875 0.23438,-0.76171875 0.51563,-0.76171875 0.17578,0 0.22265,0.15234375 0.22265,0.33984375 0,0.140625 -0.0586,0.3984375 -0.10546,0.5859375 -0.0469,0.18749997 -0.11719,0.46874997 -0.15235,0.62109377 L 116.608,2.4159845 c -0.0352,0.082031 -0.0703,0.2578125 -0.0703,0.28125 0,0.1523437 0.11719,0.2226562 0.23438,0.2226562 0.1289,0 0.23437,-0.09375 0.26953,-0.1523437 0.0352,-0.058594 0.0937,-0.2929688 0.12891,-0.4335938 0.0352,-0.1289062 0.10546,-0.4570312 0.15234,-0.6328125 0.0352,-0.1523438 0.082,-0.3046875 0.11719,-0.4570313 0.082,-0.29296872 0.0937,-0.35156247 0.29297,-0.63281247 0.19921,-0.28125 0.52734,-0.64453125 1.04296,-0.64453125 0.41016,0 0.41016,0.36328125 0.41016,0.4921875 0,0.17578125 -0.0117,0.26953125 -0.11719,0.65625002 z m 5.51661,0.4453125 c 0,0.3867188 -0.0703,0.8320313 -0.55079,1.2773438 -0.0234,0.035156 -0.0469,0.058594 -0.0469,0.09375 0,0.046875 0.0586,0.09375 0.0937,0.09375 0.10547,0 0.69141,-0.5625 0.69141,-1.3945313 0,-0.421875 -0.16407,-0.75 -0.48047,-0.75 -0.23438,0 -0.39844,0.1757813 -0.39844,0.3867188 0,0.234375 0.15234,0.4101562 0.39844,0.4101562 0.16406,0 0.28125,-0.1171875 0.29297,-0.1171875 z m 3.14941,-4.2421875 c 0,-0.1054687 -0.082,-0.2578125 -0.28125,-0.2578125 -0.1875,0 -0.38672,0.1757813 -0.38672,0.375 0,0.1171875 0.082,0.2695313 0.26953,0.2695313 0.21094,0 0.39844,-0.1992188 0.39844,-0.3867188 z m -1.42969,3.5390625 c -0.0234,0.09375 -0.0586,0.1757813 -0.0586,0.2929688 0,0.328125 0.28125,0.5976562 0.66797,0.5976562 0.6914,0 0.99609,-0.9609375 0.99609,-1.0664062 0,-0.09375 -0.082,-0.09375 -0.10547,-0.09375 -0.10547,0 -0.10547,0.046875 -0.14062,0.1171875 -0.15235,0.5625 -0.45703,0.84375 -0.73828,0.84375 -0.14063,0 -0.17579,-0.082031 -0.17579,-0.2460938 0,-0.1523437 0.0586,-0.2929687 0.11719,-0.4453125 0.0703,-0.1875 0.14063,-0.375 0.22266,-0.5507812 0.0586,-0.1640625 0.3164,-0.80859377 0.33984,-0.89062502 0.0234,-0.0703125 0.0469,-0.15234375 0.0469,-0.22265625 0,-0.328125 -0.28125,-0.5859375 -0.66797,-0.5859375 -0.69141,0 -1.00781,0.94921875 -1.00781,1.06640625 0,0.0820313 0.0937,0.0820313 0.11718,0.0820313 0.0937,0 0.10547,-0.0351563 0.12891,-0.10546875 0.17578,-0.59765625 0.48047,-0.85546875 0.73828,-0.85546875 0.11719,0 0.17578,0.05859375 0.17578,0.24609375 0,0.1640625 -0.0352,0.26953125 -0.21094,0.703125 z m 3.46289,0.703125 c 0,0.3867188 -0.0703,0.8320313 -0.55078,1.2773438 -0.0234,0.035156 -0.0469,0.058594 -0.0469,0.09375 0,0.046875 0.0586,0.09375 0.0937,0.09375 0.10547,0 0.6914,-0.5625 0.6914,-1.3945313 0,-0.421875 -0.16406,-0.75 -0.48047,-0.75 -0.23437,0 -0.39843,0.1757813 -0.39843,0.3867188 0,0.234375 0.15234,0.4101562 0.39843,0.4101562 0.16407,0 0.28125,-0.1171875 0.29297,-0.1171875 z m 4.69629,-0.8671875 c 0.64453,-0.65625 0.90235,-1.59374997 0.90235,-1.66406247 0,-0.09375 -0.082,-0.09375 -0.11719,-0.09375 -0.0937,0 -0.0937,0.0234375 -0.14063,0.17578125 -0.1289,0.45703125 -0.36328,0.89062502 -0.65625,1.26562502 0,-0.1054688 -0.0234,-0.57421877 -0.0351,-0.63281252 -0.10547,-0.69140625 -0.6211,-1.13671875 -1.32422,-1.13671875 -1.01953,0 -2.00391,0.94921875 -2.00391,1.92187497 0,0.6445313 0.46875,1.21875 1.27735,1.21875 0.64453,0 1.21875,-0.2929687 1.60546,-0.5976562 0.16407,0.515625 0.51563,0.5976562 0.72657,0.5976562 0.41015,0 0.65625,-0.3398437 0.65625,-0.4921875 0,-0.082031 -0.082,-0.082031 -0.11719,-0.082031 -0.0937,0 -0.10547,0.035156 -0.11719,0.070312 -0.10547,0.2695312 -0.3164,0.3046875 -0.39844,0.3046875 -0.0937,0 -0.22265,0 -0.25781,-0.8554688 z m -0.53906,0.234375 c -0.67969,0.5625 -1.27734,0.6210938 -1.53516,0.6210938 -0.46875,0 -0.72656,-0.3046875 -0.72656,-0.7734375 0,-0.1992188 0.10547,-0.96093752 0.46875,-1.44140627 0.31641,-0.421875 0.71484,-0.5390625 0.96094,-0.5390625 0.55078,0 0.71484,0.5390625 0.77344,0.97265625 0.0352,0.30468752 0.0234,0.79687502 0.0586,1.16015622 z m 0,0"
         style="fill:#000000;fill-opacity:1;fill-rule:nonzero;stroke:none" />
      <path
         id="path19"
         d="m 137.53177,0.68160938 c 0,-0.15234375 -0.0117,-0.15234375 -0.17578,-0.15234375 -0.35156,0.31640625 -0.90234,0.31640625 -1.00781,0.31640625 h -0.082 V 1.0683281 h 0.082 c 0.11719,0 0.43359,-0.011719 0.72656,-0.14062497 V 3.4120781 c 0,0.1640625 0,0.2109375 -0.52734,0.2109375 h -0.2461 v 0.2226563 c 0.26954,-0.023437 0.71485,-0.023437 1.00782,-0.023437 0.28125,0 0.72656,0 0.99609,0.023437 V 3.6230156 h -0.24609 c -0.52735,0 -0.52735,-0.046875 -0.52735,-0.2109375 z m 0,0"
         style="fill:#000000;fill-opacity:1;fill-rule:nonzero;stroke:none" />
      <path
         id="path20"
         d="m 140.07181,-2.3769844 c -0.0586,0 -0.14062,0 -0.14062,0.082031 0,0.035156 0.0234,0.058594 0.0703,0.1054687 0.59766,0.5507813 1.26563,1.48828128 1.26563,3.2929688 0,1.453125 -0.45704,2.5546875 -1.20704,3.234375 -0.11718,0.1171875 -0.1289,0.1289062 -0.1289,0.1640625 0,0.035156 0.0234,0.082031 0.0937,0.082031 0.082,0 0.75,-0.4570312 1.20703,-1.3242187 0.30469,-0.5859375 0.50391,-1.3359375 0.50391,-2.15625 0,-0.98437502 -0.29297,-2.5078125 -1.66407,-3.4804688 z m 0,0"
         style="fill:#000000;fill-opacity:1;fill-rule:nonzero;stroke:none" />
      <path
         id="path21"
         d="m 152.5347,-3.2236641 c 0.14063,-0.070312 0.19922,-0.1289062 0.19922,-0.2226562 0,-0.1054688 -0.0352,-0.1640625 -0.19922,-0.234375 l -5.48437,-2.5898438 c -0.14063,-0.070312 -0.1875,-0.070312 -0.19922,-0.070312 -0.12891,0 -0.19922,0.09375 -0.19922,0.1992188 0,0.1289062 0.0703,0.1757812 0.1875,0.2226562 l 5.22656,2.4609375 -5.21484,2.46093754 c -0.19922,0.09375 -0.19922,0.1640625 -0.19922,0.234375 0,0.10546875 0.082,0.19921875 0.19922,0.19921875 0.0234,0 0.0469,0 0.17578,-0.0703125 z m -0.15234,4.5820313 c 0.17578,0 0.35156,0 0.35156,-0.1992188 0,-0.19921871 -0.21094,-0.19921871 -0.36328,-0.19921871 h -5.36719 c -0.15234,0 -0.35156,0 -0.35156,0.19921871 0,0.1992188 0.17578,0.1992188 0.33984,0.1992188 z m 0,0"
         style="fill:#000000;fill-opacity:1;fill-rule:nonzero;stroke:none" />
      <path
         id="path22"
         d="m 159.35795,-3.1533516 h 1.6875 c 1.41796,0 2.80078,-1.03125 2.80078,-2.1445312 0,-0.7734375 -0.65625,-1.5117188 -1.96875,-1.5117188 h -3.22266 c -0.1875,0 -0.29297,0 -0.29297,0.1992188 0,0.1171875 0.082,0.1171875 0.28125,0.1171875 0.12891,0 0.31641,0.011719 0.4336,0.011719 0.15234,0.023437 0.21093,0.058594 0.21093,0.1640625 0,0.035156 0,0.070312 -0.0352,0.1875 l -1.33594,5.35546879 c -0.0937,0.38671875 -0.11719,0.46875 -0.90234,0.46875 -0.17579,0 -0.28125,0 -0.28125,0.1875 0,0.1171875 0.11718,0.1171875 0.15234,0.1171875 0.28125,0 0.98437,-0.03515625 1.26562,-0.03515625 0.21094,0 0.42188,0.01171875 0.63282,0.01171875 0.22265,0 0.44531,0.0234375 0.64453,0.0234375 0.0703,0 0.19922,0 0.19922,-0.19921875 0,-0.10546875 -0.082,-0.10546875 -0.26953,-0.10546875 -0.375,0 -0.65625,0 -0.65625,-0.1875 0,-0.0585938 0.0234,-0.10546875 0.0352,-0.1640625 z m 0.71484,-2.9648437 c 0.082,-0.3515625 0.10547,-0.375 0.53906,-0.375 h 0.94922 c 0.83203,0 1.35938,0.2695312 1.35938,0.9492187 0,0.3984375 -0.19922,1.2539063 -0.58594,1.6054688 -0.50391,0.4453125 -1.10156,0.5273437 -1.53516,0.5273437 h -1.40625 z m 0,0"
         style="fill:#000000;fill-opacity:1;fill-rule:nonzero;stroke:none" />
      <path
         id="path23"
         d="m 167.99466,-6.7744453 0.65625,-0.6679688 c 0.90235,-0.8789062 1.17188,-1.1484375 1.79297,-1.1835937 0.0937,-0.011719 0.17578,-0.011719 0.17578,-0.140625 0,-0.09375 -0.0703,-0.1054688 -0.0937,-0.1054688 -0.19921,0 -0.44531,0.023437 -0.65625,0.023437 -0.1875,0 -0.63281,-0.023437 -0.80859,-0.023437 -0.0586,0 -0.14062,0.011719 -0.14062,0.1523438 0,0 0,0.082031 0.10546,0.09375 0.0586,0.011719 0.23438,0.023437 0.23438,0.1757812 0,0.1054688 -0.10547,0.2109375 -0.17578,0.28125 -0.0586,0.046875 -0.9375,0.9140625 -1.19531,1.1835938 l -0.70313,-1.3710938 c -0.0117,-0.023437 -0.0352,-0.070312 -0.0352,-0.09375 0,-0.046875 0.12891,-0.1640625 0.36329,-0.1757812 0.0586,0 0.15234,-0.011719 0.15234,-0.1523438 0,-0.011719 -0.0117,-0.09375 -0.11719,-0.09375 -0.15234,0 -0.32812,0.011719 -0.46875,0.011719 -0.15234,0 -0.30469,0.011719 -0.45703,0.011719 -0.11719,0 -0.28125,0 -0.41016,-0.011719 -0.11718,0 -0.26953,-0.011719 -0.375,-0.011719 -0.0352,0 -0.15234,0 -0.15234,0.1523438 0,0.09375 0.0937,0.09375 0.21094,0.09375 0.39844,0 0.43359,0.070312 0.5039,0.2109375 l 0.97266,1.921875 -0.38672,0.3867187 c -0.1289,0.1289063 -0.45703,0.4453125 -0.58594,0.5742188 -0.84375,0.84375 -1.13671,1.1367187 -1.75781,1.171875 -0.10547,0 -0.17578,0 -0.17578,0.1523437 0,0.023437 0.0234,0.09375 0.0937,0.09375 0.19922,0 0.44531,-0.023437 0.64453,-0.023437 0.12891,0 0.29297,0 0.42188,0 0.11718,0.011719 0.26953,0.023437 0.38672,0.023437 0.0352,0 0.15234,0 0.15234,-0.140625 0,-0.1054687 -0.082,-0.1054687 -0.12891,-0.1054687 -0.0703,-0.011719 -0.21093,-0.035156 -0.21093,-0.1757813 0,-0.1171875 0.0937,-0.2109375 0.24609,-0.3632812 l 1.40625,-1.3828125 0.84375,1.6523437 c 0.0352,0.070312 0.0469,0.082031 0.0469,0.09375 0,0.035156 -0.1289,0.1523438 -0.375,0.1757813 -0.0586,0 -0.15234,0 -0.15234,0.1523437 0,0 0.0117,0.09375 0.11719,0.09375 0.15234,0 0.32812,-0.023437 0.46875,-0.023437 0.15234,0 0.30469,0 0.45703,0 0.11719,0 0.28125,0 0.41016,0 0.11718,0.011719 0.26953,0.023437 0.375,0.023437 0.0352,0 0.15234,0 0.15234,-0.1523437 0,-0.09375 -0.0937,-0.09375 -0.21094,-0.09375 -0.39844,0 -0.43359,-0.082031 -0.49219,-0.1992188 z m 0,0"
         style="fill:#000000;fill-opacity:1;fill-rule:nonzero;stroke:none" />
      <path
         id="path24"
         d="m 165.20267,-2.5146797 c -1.32422,0.9257813 -1.67578,2.41406251 -1.67578,3.48046876 0,0.98437504 0.29297,2.50781254 1.67578,3.48046874 0.0586,0 0.14063,0 0.14063,-0.082031 0,-0.046875 -0.0234,-0.058594 -0.0703,-0.1054688 -0.92578,-0.8320312 -1.26562,-2.015625 -1.26562,-3.29296874 0,-1.875 0.71484,-2.80078126 1.28906,-3.31640626 0.0234,-0.023437 0.0469,-0.046875 0.0469,-0.082031 0,-0.082031 -0.082,-0.082031 -0.14063,-0.082031 z m 0,0"
         style="fill:#000000;fill-opacity:1;fill-rule:nonzero;stroke:none" />
      <path
         id="path25"
         d="m 168.86771,2.1493828 c -0.0352,0.140625 -0.0937,0.375 -0.0937,0.4101563 0,0.1523437 0.12891,0.2226562 0.23438,0.2226562 0.1289,0 0.23437,-0.09375 0.26953,-0.1523437 0.0351,-0.058594 0.0937,-0.2929688 0.1289,-0.4335938 0.0352,-0.1289062 0.11719,-0.4570312 0.15235,-0.6328125 0.0469,-0.1523437 0.082,-0.3046875 0.11718,-0.4570312 0.082,-0.30468754 0.082,-0.31640629 0.22266,-0.53906254 0.22266,-0.33984375 0.5625,-0.73828125 1.11328,-0.73828125 0.38672,0 0.41016,0.328125 0.41016,0.4921875 0,0.421875 -0.30469,1.19531249 -0.41016,1.48828129 -0.082,0.1875 -0.10547,0.2578125 -0.10547,0.375 0,0.3632812 0.30469,0.5976562 0.65625,0.5976562 0.70313,0 1.00782,-0.9609375 1.00782,-1.0664062 0,-0.09375 -0.0937,-0.09375 -0.10547,-0.09375 -0.10547,0 -0.10547,0.046875 -0.14063,0.1171875 -0.15234,0.5625 -0.45703,0.84375 -0.73828,0.84375 -0.14062,0 -0.17578,-0.09375 -0.17578,-0.2460938 0,-0.1523437 0.0352,-0.2460937 0.16406,-0.5625 0.082,-0.2109375 0.375,-0.94921874 0.375,-1.34765624 0,-0.10546875 0,-0.3984375 -0.25781,-0.59765625 -0.12891,-0.09375 -0.32813,-0.1875 -0.65625,-0.1875 -0.62109,0 -1.00781,0.41015625 -1.23047,0.703125 -0.0586,-0.59765625 -0.55078,-0.703125 -0.90234,-0.703125 -0.58594,0 -0.97266,0.3515625 -1.1836,0.6328125 -0.0469,-0.48046875 -0.45703,-0.6328125 -0.75,-0.6328125 -0.29297,0 -0.45703,0.2109375 -0.55078,0.375 -0.15234,0.2578125 -0.24609,0.65625 -0.24609,0.69140625 0,0.0820313 0.0937,0.0820313 0.11719,0.0820313 0.0937,0 0.10546,-0.0117188 0.15234,-0.19921875 0.10547,-0.421875 0.23437,-0.76171875 0.51562,-0.76171875 0.17579,0 0.22266,0.15234375 0.22266,0.33984375 0,0.140625 -0.0586,0.3984375 -0.10547,0.5859375 -0.0469,0.1875 -0.11719,0.46874999 -0.15234,0.62109369 l -0.22266,0.9023439 c -0.0351,0.082031 -0.0703,0.2578125 -0.0703,0.28125 0,0.1523436 0.11719,0.2226561 0.23437,0.2226561 0.12891,0 0.23438,-0.09375 0.26954,-0.1523436 0.0351,-0.058594 0.0937,-0.2929689 0.1289,-0.4335939 0.0352,-0.1289061 0.10547,-0.4570312 0.15235,-0.6328125 0.0351,-0.1523437 0.082,-0.3046875 0.11718,-0.4570312 0.082,-0.29296874 0.0937,-0.35156249 0.29297,-0.63281249 0.19922,-0.28125 0.52735,-0.64453125 1.04297,-0.64453125 0.41016,0 0.41016,0.36328125 0.41016,0.4921875 0,0.17578125 -0.0117,0.26953125 -0.11719,0.65625 z m 5.5166,0.4453125 c 0,0.3867188 -0.0703,0.8320313 -0.55078,1.2773438 -0.0234,0.035156 -0.0469,0.058594 -0.0469,0.09375 0,0.046875 0.0586,0.09375 0.0937,0.09375 0.10547,0 0.6914,-0.5625 0.6914,-1.3945313 0,-0.421875 -0.16406,-0.75 -0.48047,-0.75 -0.23437,0 -0.39843,0.1757813 -0.39843,0.3867188 0,0.234375 0.15234,0.4101562 0.39843,0.4101562 0.16407,0 0.28125,-0.1171875 0.29297,-0.1171875 z m 3.14942,-4.2421875 c 0,-0.1054687 -0.082,-0.2578125 -0.28125,-0.2578125 -0.1875,0 -0.38672,0.1757813 -0.38672,0.375 0,0.1171875 0.082,0.2695313 0.26953,0.2695313 0.21094,0 0.39844,-0.1992188 0.39844,-0.3867188 z m -1.42969,3.5390625 c -0.0234,0.09375 -0.0586,0.1757813 -0.0586,0.2929688 0,0.328125 0.28125,0.5976562 0.66796,0.5976562 0.69141,0 0.9961,-0.9609375 0.9961,-1.0664062 0,-0.09375 -0.082,-0.09375 -0.10547,-0.09375 -0.10547,0 -0.10547,0.046875 -0.14063,0.1171875 -0.15234,0.5625 -0.45703,0.84375 -0.73828,0.84375 -0.14062,0 -0.17578,-0.082031 -0.17578,-0.2460938 0,-0.1523437 0.0586,-0.2929687 0.11719,-0.4453125 0.0703,-0.1875 0.14062,-0.375 0.22266,-0.5507812 0.0586,-0.1640625 0.3164,-0.80859379 0.33984,-0.89062504 0.0234,-0.0703125 0.0469,-0.15234375 0.0469,-0.22265625 0,-0.328125 -0.28125,-0.5859375 -0.66796,-0.5859375 -0.69141,0 -1.00782,0.94921875 -1.00782,1.06640625 0,0.0820313 0.0937,0.0820313 0.11719,0.0820313 0.0937,0 0.10547,-0.0351563 0.12891,-0.10546875 0.17578,-0.59765625 0.48047,-0.85546875 0.73828,-0.85546875 0.11719,0 0.17578,0.0585938 0.17578,0.24609375 0,0.1640625 -0.0352,0.26953125 -0.21094,0.703125 z m 3.46289,0.703125 c 0,0.3867188 -0.0703,0.8320313 -0.55078,1.2773438 -0.0234,0.035156 -0.0469,0.058594 -0.0469,0.09375 0,0.046875 0.0586,0.09375 0.0937,0.09375 0.10547,0 0.69141,-0.5625 0.69141,-1.3945313 0,-0.421875 -0.16406,-0.75 -0.48047,-0.75 -0.23437,0 -0.39844,0.1757813 -0.39844,0.3867188 0,0.234375 0.15235,0.4101562 0.39844,0.4101562 0.16406,0 0.28125,-0.1171875 0.29297,-0.1171875 z m 4.69629,-0.8671875 c 0.64453,-0.65625 0.90234,-1.59374999 0.90234,-1.66406249 0,-0.09375 -0.082,-0.09375 -0.11718,-0.09375 -0.0937,0 -0.0937,0.0234375 -0.14063,0.17578125 -0.12891,0.45703125 -0.36328,0.89062504 -0.65625,1.26562504 0,-0.1054688 -0.0234,-0.57421879 -0.0352,-0.63281254 -0.10546,-0.69140625 -0.62109,-1.13671875 -1.32421,-1.13671875 -1.01954,0 -2.00391,0.94921875 -2.00391,1.92187499 0,0.6445313 0.46875,1.21875 1.27734,1.21875 0.64453,0 1.21875,-0.2929687 1.60547,-0.5976562 0.16406,0.515625 0.51563,0.5976562 0.72656,0.5976562 0.41016,0 0.65625,-0.3398437 0.65625,-0.4921875 0,-0.082031 -0.082,-0.082031 -0.11718,-0.082031 -0.0937,0 -0.10547,0.035156 -0.11719,0.070312 -0.10547,0.2695312 -0.31641,0.3046875 -0.39844,0.3046875 -0.0937,0 -0.22265,0 -0.25781,-0.8554688 z m -0.53906,0.234375 c -0.67969,0.5625 -1.27735,0.6210938 -1.53516,0.6210938 -0.46875,0 -0.72656,-0.3046875 -0.72656,-0.7734375 0,-0.1992188 0.10547,-0.96093754 0.46875,-1.44140629 0.3164,-0.421875 0.71484,-0.5390625 0.96094,-0.5390625 0.55078,0 0.71484,0.5390625 0.77343,0.97265625 0.0352,0.30468754 0.0234,0.79687504 0.0586,1.16015624 z m 0,0"
         style="fill:#000000;fill-opacity:1;fill-rule:nonzero;stroke:none" />
      <path
         id="path26"
         d="m 187.62357,0.54391406 c 0,-0.15234375 -0.0117,-0.15234375 -0.17578,-0.15234375 -0.35156,0.31640625 -0.90234,0.31640625 -1.00781,0.31640625 h -0.082 v 0.22265625 h 0.082 c 0.11718,0 0.43359,-0.0117188 0.72656,-0.140625 V 3.2743828 c 0,0.1640625 0,0.2109375 -0.52734,0.2109375 h -0.2461 v 0.2226563 c 0.26953,-0.023437 0.71485,-0.023437 1.00781,-0.023437 0.28125,0 0.72657,0 0.9961,0.023437 V 3.4853203 h -0.2461 c -0.52734,0 -0.52734,-0.046875 -0.52734,-0.2109375 z m 0,0"
         style="fill:#000000;fill-opacity:1;fill-rule:nonzero;stroke:none" />
      <path
         id="path27"
         d="m 190.16361,-2.5146797 c -0.0586,0 -0.14063,0 -0.14063,0.082031 0,0.035156 0.0234,0.058594 0.0703,0.1054687 0.59765,0.5507813 1.26562,1.48828126 1.26562,3.29296876 0,1.45312504 -0.45703,2.55468754 -1.20703,3.23437504 -0.11719,0.1171875 -0.12891,0.1289062 -0.12891,0.1640625 0,0.035156 0.0234,0.082031 0.0937,0.082031 0.082,0 0.75,-0.4570312 1.20704,-1.3242187 0.30468,-0.5859375 0.5039,-1.3359375 0.5039,-2.15625004 0,-0.984375 -0.29297,-2.50781246 -1.66406,-3.48046876 z m 0,0"
         style="fill:#000000;fill-opacity:1;fill-rule:nonzero;stroke:none" />
      <path
         id="path28"
         d="m 194.12162,2.5946953 c 0,0.3867188 -0.0703,0.8320313 -0.55078,1.2773438 -0.0234,0.035156 -0.0469,0.058594 -0.0469,0.09375 0,0.046875 0.0586,0.09375 0.0937,0.09375 0.10547,0 0.69141,-0.5625 0.69141,-1.3945313 0,-0.421875 -0.16407,-0.75 -0.48047,-0.75 -0.23438,0 -0.39844,0.1757813 -0.39844,0.3867188 0,0.234375 0.15234,0.4101562 0.39844,0.4101562 0.16406,0 0.28125,-0.1171875 0.29297,-0.1171875 z m 2.62207,-0.6210937 c -0.0703,0.234375 -0.29297,0.609375 -0.65625,0.609375 -0.0234,0 -0.22266,0 -0.375,-0.09375 0.28125,-0.09375 0.30469,-0.3398438 0.30469,-0.3867188 0,-0.1523437 -0.11719,-0.2578125 -0.28125,-0.2578125 -0.1875,0 -0.38672,0.1640625 -0.38672,0.4335938 0,0.3398437 0.38672,0.5039062 0.72656,0.5039062 0.31641,0 0.60937,-0.1992187 0.78516,-0.4921875 0.16406,0.3632813 0.55078,0.4921875 0.82031,0.4921875 0.80859,0 1.23047,-0.8671875 1.23047,-1.0664062 0,-0.09375 -0.0937,-0.09375 -0.10547,-0.09375 -0.10547,0 -0.10547,0.035156 -0.14063,0.1171875 -0.14062,0.4804687 -0.5625,0.84375 -0.94922,0.84375 -0.28125,0 -0.42187,-0.1875 -0.42187,-0.4453125 0,-0.1875 0.16406,-0.8203125 0.36328,-1.59375004 0.12891,-0.5390625 0.44531,-0.71484375 0.67969,-0.71484375 0.0117,0 0.22265,0 0.375,0.10546875 -0.22266,0.05859375 -0.30469,0.2578125 -0.30469,0.375 0,0.15234375 0.11719,0.2578125 0.28125,0.2578125 0.15234,0 0.38672,-0.12890625 0.38672,-0.421875 0,-0.38671875 -0.44531,-0.50390625 -0.72656,-0.50390625 -0.35157,0 -0.63282,0.22265625 -0.78516,0.4921875 -0.11719,-0.29296875 -0.44531,-0.4921875 -0.83203,-0.4921875 -0.78516,0 -1.23047,0.85546875 -1.23047,1.06640625 0,0.0820313 0.10547,0.0820313 0.11719,0.0820313 0.0937,0 0.10547,-0.0234375 0.14062,-0.1171875 0.17578,-0.5390625 0.60938,-0.84375 0.94922,-0.84375 0.23438,0 0.42188,0.12890625 0.42188,0.46875 0,0.12890625 -0.082,0.48046875 -0.15235,0.71484384 z m 0,0"
         style="fill:#000000;fill-opacity:1;fill-rule:nonzero;stroke:none" />
      <path
         id="path29"
         d="m 206.32084,-2.2978828 h 2.77734 c 0.14062,0 0.32812,0 0.32812,-0.1992188 0,-0.1992187 -0.1875,-0.1992187 -0.32812,-0.1992187 h -2.77734 v -2.7890625 c 0,-0.1289063 0,-0.328125 -0.19922,-0.328125 -0.19922,0 -0.19922,0.1992187 -0.19922,0.328125 v 2.7890625 h -2.78906 c -0.14063,0 -0.32813,0 -0.32813,0.1992187 0,0.1992188 0.1875,0.1992188 0.32813,0.1992188 h 2.78906 v 2.80078124 c 0,0.12890625 0,0.328125 0.19922,0.328125 0.19922,0 0.19922,-0.19921875 0.19922,-0.328125 z m 0,0"
         style="fill:#000000;fill-opacity:1;fill-rule:nonzero;stroke:none" />
      <path
         id="path30"
         d="m 215.22709,-3.1533516 h 1.6875 c 1.41796,0 2.80078,-1.03125 2.80078,-2.1445312 0,-0.7734375 -0.65625,-1.5117188 -1.96875,-1.5117188 h -3.22266 c -0.1875,0 -0.29297,0 -0.29297,0.1992188 0,0.1171875 0.082,0.1171875 0.28125,0.1171875 0.12891,0 0.31641,0.011719 0.4336,0.011719 0.15234,0.023437 0.21093,0.058594 0.21093,0.1640625 0,0.035156 0,0.070312 -0.0351,0.1875 l -1.33594,5.35546879 c -0.0937,0.38671875 -0.11719,0.46875 -0.90234,0.46875 -0.17579,0 -0.28125,0 -0.28125,0.1875 0,0.1171875 0.11718,0.1171875 0.15234,0.1171875 0.28125,0 0.98437,-0.03515625 1.26562,-0.03515625 0.21094,0 0.42188,0.01171875 0.63282,0.01171875 0.22265,0 0.44531,0.0234375 0.64453,0.0234375 0.0703,0 0.19922,0 0.19922,-0.19921875 0,-0.10546875 -0.082,-0.10546875 -0.26953,-0.10546875 -0.375,0 -0.65625,0 -0.65625,-0.1875 0,-0.0585938 0.0234,-0.10546875 0.0351,-0.1640625 z m 0.71484,-2.9648437 c 0.082,-0.3515625 0.10547,-0.375 0.53906,-0.375 h 0.94922 c 0.83203,0 1.35938,0.2695312 1.35938,0.9492187 0,0.3984375 -0.19922,1.2539063 -0.58594,1.6054688 -0.50391,0.4453125 -1.10156,0.5273437 -1.53516,0.5273437 h -1.40625 z m 0,0"
         style="fill:#000000;fill-opacity:1;fill-rule:nonzero;stroke:none" />
      <path
         id="path31"
         d="m 223.8638,-6.7744453 0.65625,-0.6679688 c 0.90235,-0.8789062 1.17188,-1.1484375 1.79297,-1.1835937 0.0937,-0.011719 0.17578,-0.011719 0.17578,-0.140625 0,-0.09375 -0.0703,-0.1054688 -0.0937,-0.1054688 -0.19921,0 -0.44531,0.023437 -0.65625,0.023437 -0.1875,0 -0.63281,-0.023437 -0.80859,-0.023437 -0.0586,0 -0.14062,0.011719 -0.14062,0.1523438 0,0 0,0.082031 0.10546,0.09375 0.0586,0.011719 0.23438,0.023437 0.23438,0.1757812 0,0.1054688 -0.10547,0.2109375 -0.17578,0.28125 -0.0586,0.046875 -0.9375,0.9140625 -1.19531,1.1835938 l -0.70313,-1.3710938 c -0.0117,-0.023437 -0.0352,-0.070312 -0.0352,-0.09375 0,-0.046875 0.12891,-0.1640625 0.36329,-0.1757812 0.0586,0 0.15234,-0.011719 0.15234,-0.1523438 0,-0.011719 -0.0117,-0.09375 -0.11719,-0.09375 -0.15234,0 -0.32812,0.011719 -0.46875,0.011719 -0.15234,0 -0.30469,0.011719 -0.45703,0.011719 -0.11719,0 -0.28125,0 -0.41016,-0.011719 -0.11718,0 -0.26953,-0.011719 -0.375,-0.011719 -0.0351,0 -0.15234,0 -0.15234,0.1523438 0,0.09375 0.0937,0.09375 0.21094,0.09375 0.39844,0 0.43359,0.070312 0.5039,0.2109375 l 0.97266,1.921875 -0.38672,0.3867187 c -0.1289,0.1289063 -0.45703,0.4453125 -0.58594,0.5742188 -0.84375,0.84375 -1.13671,1.1367187 -1.75781,1.171875 -0.10547,0 -0.17578,0 -0.17578,0.1523437 0,0.023437 0.0234,0.09375 0.0937,0.09375 0.19922,0 0.44531,-0.023437 0.64453,-0.023437 0.12891,0 0.29297,0 0.42188,0 0.11718,0.011719 0.26953,0.023437 0.38672,0.023437 0.0351,0 0.15234,0 0.15234,-0.140625 0,-0.1054687 -0.082,-0.1054687 -0.12891,-0.1054687 -0.0703,-0.011719 -0.21093,-0.035156 -0.21093,-0.1757813 0,-0.1171875 0.0937,-0.2109375 0.24609,-0.3632812 l 1.40625,-1.3828125 0.84375,1.6523437 c 0.0352,0.070312 0.0469,0.082031 0.0469,0.09375 0,0.035156 -0.1289,0.1523438 -0.375,0.1757813 -0.0586,0 -0.15234,0 -0.15234,0.1523437 0,0 0.0117,0.09375 0.11719,0.09375 0.15234,0 0.32812,-0.023437 0.46875,-0.023437 0.15234,0 0.30469,0 0.45703,0 0.11719,0 0.28125,0 0.41016,0 0.11718,0.011719 0.26953,0.023437 0.375,0.023437 0.0351,0 0.15234,0 0.15234,-0.1523437 0,-0.09375 -0.0937,-0.09375 -0.21094,-0.09375 -0.39844,0 -0.43359,-0.082031 -0.49219,-0.1992188 z m 0,0"
         style="fill:#000000;fill-opacity:1;fill-rule:nonzero;stroke:none" />
      <path
         id="path32"
         d="m 221.07181,-2.5146797 c -1.32422,0.9257813 -1.67578,2.41406251 -1.67578,3.48046876 0,0.98437504 0.29297,2.50781254 1.67578,3.48046874 0.0586,0 0.14063,0 0.14063,-0.082031 0,-0.046875 -0.0234,-0.058594 -0.0703,-0.1054688 -0.92579,-0.8320312 -1.26563,-2.015625 -1.26563,-3.29296874 0,-1.875 0.71484,-2.80078126 1.28906,-3.31640626 0.0234,-0.023437 0.0469,-0.046875 0.0469,-0.082031 0,-0.082031 -0.082,-0.082031 -0.14063,-0.082031 z m 0,0"
         style="fill:#000000;fill-opacity:1;fill-rule:nonzero;stroke:none" />
      <path
         id="path33"
         d="m 222.56888,2.2782891 c -0.0352,0.082031 -0.0703,0.2578125 -0.0703,0.28125 0,0.1523437 0.11719,0.2226562 0.23438,0.2226562 0.1289,0 0.23437,-0.09375 0.26953,-0.1523437 0.0352,-0.058594 0.0937,-0.2929688 0.1289,-0.4335938 0.0352,-0.1289062 0.10547,-0.4570312 0.15235,-0.6328125 0.0352,-0.1523437 0.082,-0.3046875 0.11718,-0.4570312 0.082,-0.29296879 0.0937,-0.35156254 0.29297,-0.63281254 0.19922,-0.28125 0.52735,-0.64453125 1.04297,-0.64453125 0.41016,0 0.41016,0.36328125 0.41016,0.4921875 0,0.421875 -0.29297,1.19531249 -0.41016,1.48828129 -0.0703,0.1875 -0.10547,0.2578125 -0.10547,0.375 0,0.3632812 0.30469,0.5976562 0.66797,0.5976562 0.69141,0 1.00781,-0.9609375 1.00781,-1.0664062 0,-0.09375 -0.0937,-0.09375 -0.11718,-0.09375 -0.0937,0 -0.10547,0.046875 -0.12891,0.1171875 -0.16406,0.5625 -0.46875,0.84375 -0.73828,0.84375 -0.15234,0 -0.17578,-0.09375 -0.17578,-0.2460938 0,-0.1523437 0.0352,-0.2460937 0.15234,-0.5625 0.0937,-0.2109375 0.375,-0.94921874 0.375,-1.34765624 0,-0.66796875 -0.53906,-0.78515625 -0.90234,-0.78515625 -0.58594,0 -0.97266,0.3515625 -1.1836,0.6328125 -0.0469,-0.48046875 -0.45703,-0.6328125 -0.75,-0.6328125 -0.29296,0 -0.45703,0.2109375 -0.55078,0.375 -0.15234,0.2578125 -0.24609,0.65625 -0.24609,0.69140625 0,0.0820313 0.0937,0.0820313 0.11719,0.0820313 0.0937,0 0.10547,-0.0117188 0.15234,-0.19921875 0.10547,-0.421875 0.23438,-0.76171875 0.51563,-0.76171875 0.17578,0 0.22265,0.15234375 0.22265,0.33984375 0,0.140625 -0.0586,0.3984375 -0.10547,0.5859375 -0.0469,0.1875 -0.11718,0.46874999 -0.15234,0.62109369 z m 5.5459,0.3164062 c 0,0.3867188 -0.0703,0.8320313 -0.55078,1.2773438 -0.0234,0.035156 -0.0469,0.058594 -0.0469,0.09375 0,0.046875 0.0586,0.09375 0.0937,0.09375 0.10546,0 0.6914,-0.5625 0.6914,-1.3945313 0,-0.421875 -0.16406,-0.75 -0.48047,-0.75 -0.23437,0 -0.39843,0.1757813 -0.39843,0.3867188 0,0.234375 0.15234,0.4101562 0.39843,0.4101562 0.16407,0 0.28125,-0.1171875 0.29297,-0.1171875 z m 3.94629,-4.2421875 c 0,-0.1171875 -0.0937,-0.2578125 -0.28125,-0.2578125 -0.19922,0 -0.38672,0.1875 -0.38672,0.375 0,0.1171875 0.082,0.2695313 0.28125,0.2695313 0.1875,0 0.38672,-0.1875 0.38672,-0.3867188 z m -1.47656,4.6992188 c -0.11719,0.4804687 -0.49219,0.890625 -0.90235,0.890625 -0.082,0 -0.17578,-0.011719 -0.24609,-0.046875 0.17578,-0.082031 0.23438,-0.2460938 0.23438,-0.3515625 0,-0.1640625 -0.12891,-0.2578125 -0.26954,-0.2578125 -0.22265,0 -0.39843,0.1875 -0.39843,0.4101562 0,0.2695313 0.26953,0.4335938 0.6914,0.4335938 0.42188,0 1.23047,-0.2460938 1.45313,-1.1015625 l 0.62109,-2.49609379 c 0.0234,-0.0703125 0.0352,-0.140625 0.0352,-0.234375 0,-0.38671875 -0.32813,-0.65625 -0.73828,-0.65625 -0.78516,0 -1.23047,0.9609375 -1.23047,1.06640625 0,0.0820313 0.10547,0.0820313 0.1289,0.0820313 0.082,0 0.082,-0.0117188 0.12891,-0.1171875 0.17578,-0.41015625 0.53906,-0.84375 0.94922,-0.84375 0.17578,0 0.23437,0.1171875 0.23437,0.33984375 0,0.0820312 -0.0117,0.17578125 -0.0234,0.2109375 z m 3.16406,-0.4570313 c 0,0.3867188 -0.0703,0.8320313 -0.55078,1.2773438 -0.0234,0.035156 -0.0469,0.058594 -0.0469,0.09375 0,0.046875 0.0586,0.09375 0.0937,0.09375 0.10547,0 0.69141,-0.5625 0.69141,-1.3945313 0,-0.421875 -0.16406,-0.75 -0.48047,-0.75 -0.23437,0 -0.39844,0.1757813 -0.39844,0.3867188 0,0.234375 0.15235,0.4101562 0.39844,0.4101562 0.16406,0 0.28125,-0.1171875 0.29297,-0.1171875 z m 4.69629,-0.8671875 c 0.64453,-0.65625 0.90234,-1.59374999 0.90234,-1.66406249 0,-0.09375 -0.082,-0.09375 -0.11718,-0.09375 -0.0937,0 -0.0937,0.0234375 -0.14063,0.17578125 -0.12891,0.45703125 -0.36328,0.89062504 -0.65625,1.26562504 0,-0.1054688 -0.0234,-0.57421879 -0.0352,-0.63281254 -0.10546,-0.69140625 -0.62109,-1.13671875 -1.32421,-1.13671875 -1.01954,0 -2.00391,0.94921875 -2.00391,1.92187499 0,0.6445313 0.46875,1.21875 1.27734,1.21875 0.64453,0 1.21875,-0.2929687 1.60547,-0.5976562 0.16406,0.515625 0.51563,0.5976562 0.72656,0.5976562 0.41016,0 0.65625,-0.3398437 0.65625,-0.4921875 0,-0.082031 -0.082,-0.082031 -0.11718,-0.082031 -0.0937,0 -0.10547,0.035156 -0.11719,0.070312 -0.10547,0.2695312 -0.31641,0.3046875 -0.39844,0.3046875 -0.0937,0 -0.22265,0 -0.25781,-0.8554688 z m -0.53906,0.234375 c -0.67969,0.5625 -1.27735,0.6210938 -1.53516,0.6210938 -0.46875,0 -0.72656,-0.3046875 -0.72656,-0.7734375 0,-0.1992188 0.10547,-0.96093754 0.46875,-1.44140629 0.3164,-0.421875 0.71484,-0.5390625 0.96094,-0.5390625 0.55078,0 0.71484,0.5390625 0.77343,0.97265625 0.0352,0.30468754 0.0234,0.79687504 0.0586,1.16015624 z m 0,0"
         style="fill:#000000;fill-opacity:1;fill-rule:nonzero;stroke:none" />
      <path
         id="path34"
         d="m 242.7515,2.7470391 h -0.21094 c -0.0117,0.09375 -0.0586,0.3984375 -0.14062,0.4570312 -0.0352,0.023437 -0.45703,0.023437 -0.52735,0.023437 h -0.98437 c 0.32812,-0.2460937 0.70312,-0.515625 0.99609,-0.7148437 0.45703,-0.3164063 0.86719,-0.5976563 0.86719,-1.125 0,-0.64453129 -0.59766,-0.99609379 -1.3125,-0.99609379 -0.66797,0 -1.16016,0.38671875 -1.16016,0.87890629 0,0.2578125 0.21094,0.3046875 0.28125,0.3046875 0.14063,0 0.29297,-0.09375 0.29297,-0.2929688 0,-0.1875 -0.1289,-0.28125 -0.28125,-0.29296874 0.14063,-0.234375 0.4336,-0.375 0.76172,-0.375 0.48047,0 0.89063,0.28125 0.89063,0.77343754 0,0.421875 -0.29297,0.7382812 -0.67969,1.0546875 l -1.20703,1.03125 c -0.0469,0.046875 -0.0586,0.046875 -0.0586,0.082031 v 0.1523438 h 2.3086 z m 0,0"
         style="fill:#000000;fill-opacity:1;fill-rule:nonzero;stroke:none" />
      <path
         id="path35"
         d="m 244.34232,-2.5146797 c -0.0586,0 -0.14062,0 -0.14062,0.082031 0,0.035156 0.0234,0.058594 0.0703,0.1054687 0.59765,0.5507813 1.26562,1.48828126 1.26562,3.29296876 0,1.45312504 -0.45703,2.55468754 -1.20703,3.23437504 -0.11719,0.1171875 -0.1289,0.1289062 -0.1289,0.1640625 0,0.035156 0.0234,0.082031 0.0937,0.082031 0.082,0 0.75,-0.4570312 1.20703,-1.3242187 0.30468,-0.5859375 0.5039,-1.3359375 0.5039,-2.15625004 0,-0.984375 -0.29297,-2.50781246 -1.66406,-3.48046876 z m 0,0"
         style="fill:#000000;fill-opacity:1;fill-rule:nonzero;stroke:none" />
      <path
         id="path36"
         d="m 248.30033,2.5946953 c 0,0.3867188 -0.0703,0.8320313 -0.55078,1.2773438 -0.0234,0.035156 -0.0469,0.058594 -0.0469,0.09375 0,0.046875 0.0586,0.09375 0.0937,0.09375 0.10547,0 0.69141,-0.5625 0.69141,-1.3945313 0,-0.421875 -0.16406,-0.75 -0.48047,-0.75 -0.23438,0 -0.39844,0.1757813 -0.39844,0.3867188 0,0.234375 0.15235,0.4101562 0.39844,0.4101562 0.16406,0 0.28125,-0.1171875 0.29297,-0.1171875 z m 2.62207,-0.6210937 c -0.0703,0.234375 -0.29297,0.609375 -0.65625,0.609375 -0.0234,0 -0.22266,0 -0.375,-0.09375 0.28125,-0.09375 0.30469,-0.3398438 0.30469,-0.3867188 0,-0.1523437 -0.11719,-0.2578125 -0.28125,-0.2578125 -0.1875,0 -0.38672,0.1640625 -0.38672,0.4335938 0,0.3398437 0.38672,0.5039062 0.72656,0.5039062 0.31641,0 0.60937,-0.1992187 0.78516,-0.4921875 0.16406,0.3632813 0.55078,0.4921875 0.82031,0.4921875 0.80859,0 1.23047,-0.8671875 1.23047,-1.0664062 0,-0.09375 -0.0937,-0.09375 -0.10547,-0.09375 -0.10547,0 -0.10547,0.035156 -0.14063,0.1171875 -0.14062,0.4804687 -0.5625,0.84375 -0.94922,0.84375 -0.28125,0 -0.42187,-0.1875 -0.42187,-0.4453125 0,-0.1875 0.16406,-0.8203125 0.36328,-1.59375004 0.12891,-0.5390625 0.44531,-0.71484375 0.67969,-0.71484375 0.0117,0 0.22265,0 0.375,0.10546875 -0.22266,0.05859375 -0.30469,0.2578125 -0.30469,0.375 0,0.15234375 0.11719,0.2578125 0.28125,0.2578125 0.15234,0 0.38672,-0.12890625 0.38672,-0.421875 0,-0.38671875 -0.44531,-0.50390625 -0.72656,-0.50390625 -0.35157,0 -0.63282,0.22265625 -0.78516,0.4921875 -0.11719,-0.29296875 -0.44531,-0.4921875 -0.83203,-0.4921875 -0.78516,0 -1.23047,0.85546875 -1.23047,1.06640625 0,0.0820313 0.10547,0.0820313 0.11719,0.0820313 0.0937,0 0.10547,-0.0234375 0.14062,-0.1171875 0.17578,-0.5390625 0.60938,-0.84375 0.94922,-0.84375 0.23438,0 0.42188,0.12890625 0.42188,0.46875 0,0.12890625 -0.082,0.48046875 -0.15235,0.71484384 z m 0,0"
         style="fill:#000000;fill-opacity:1;fill-rule:nonzero;stroke:none" />
      <path
         id="path37"
         d="m 262.98099,-2.2978828 c 0.17578,0 0.35156,0 0.35156,-0.1992188 0,-0.1992187 -0.17578,-0.1992187 -0.35156,-0.1992187 h -5.39062 c -0.16407,0 -0.33985,0 -0.33985,0.1992187 0,0.1992188 0.17578,0.1992188 0.33985,0.1992188 z m 0,0"
         style="fill:#000000;fill-opacity:1;fill-rule:nonzero;stroke:none" />
      <path
         id="path38"
         d="m 269.31205,-6.3760078 c 0,-0.234375 0,-0.2578125 -0.23438,-0.2578125 -0.60937,0.6328125 -1.48828,0.6328125 -1.80469,0.6328125 v 0.3164062 c 0.19922,0 0.78516,0 1.30079,-0.2578125 v 5.15625004 c 0,0.3515625 -0.0352,0.48046875 -0.92579,0.48046875 h -0.3164 v 0.3046875 c 0.35156,-0.03515625 1.20703,-0.03515625 1.60547,-0.03515625 0.39843,0 1.26562,0 1.61718,0.03515625 v -0.3046875 h -0.3164 c -0.90235,0 -0.92578,-0.1171875 -0.92578,-0.48046875 z m 0,0"
         style="fill:#000000;fill-opacity:1;fill-rule:nonzero;stroke:none" />
      <path
         id="path39"
         d="m 273.39017,-0.01272656 c 0,-0.65625 -0.25781,-1.04296874 -0.64453,-1.04296874 -0.32812,0 -0.52734,0.24609374 -0.52734,0.52734374 0,0.26953125 0.19922,0.52734375 0.52734,0.52734375 0.11719,0 0.24609,-0.03515625 0.35156,-0.12890625 0.0234,-0.0234375 0.0352,-0.0351563 0.0469,-0.0351563 0.0117,0 0.0234,0.0117188 0.0234,0.15234375 0,0.73828125 -0.35157,1.33593741 -0.67969,1.66406241 -0.10547,0.1054688 -0.10547,0.1289063 -0.10547,0.1640625 0,0.070312 0.0469,0.1054688 0.0937,0.1054688 0.11719,0 0.91406,-0.7617188 0.91406,-1.93359371 z m 0,0"
         style="fill:#000000;fill-opacity:1;fill-rule:nonzero;stroke:none" />
      <path
         id="path40"
         d="m 282.93509,-6.5400703 c 0.0586,-0.1054688 0.0586,-0.1289063 0.0586,-0.1757813 0,-0.09375 -0.082,-0.1992187 -0.19922,-0.1992187 -0.12891,0 -0.19922,0.1171875 -0.23438,0.234375 l -0.82031,2.1914062 h -3.03515 l -0.82032,-2.1914062 c -0.0586,-0.140625 -0.10547,-0.234375 -0.23437,-0.234375 -0.0937,0 -0.19922,0.1054687 -0.19922,0.1992187 0,0.023437 0,0.035156 0.0586,0.1757813 l 2.48438,6.52734374 c 0.0469,0.140625 0.0937,0.234375 0.22265,0.234375 0.14063,0 0.1875,-0.1171875 0.22266,-0.2109375 z m -4.0664,2.4492187 h 2.70703 l -1.35938,3.53906254 z m 0,0"
         style="fill:#000000;fill-opacity:1;fill-rule:nonzero;stroke:none" />
      <path
         id="path41"
         d="m 286.27787,2.3896172 c 0,-0.035156 0,-0.046875 -0.16407,-0.2226563 -1.24218,-1.25390621 -1.57031,-3.12890621 -1.57031,-4.6640625 0,-1.7226562 0.38672,-3.4570312 1.60547,-4.7109375 0.12891,-0.1171875 0.12891,-0.1289062 0.12891,-0.1640625 0,-0.070312 -0.0352,-0.1054687 -0.0937,-0.1054687 -0.10547,0 -0.9961,0.6796875 -1.58203,1.9453125 -0.51563,1.1015625 -0.63282,2.203125 -0.63282,3.0351562 0,0.7851563 0.11719,1.99218754 0.65625,3.11718754 0.59766,1.21874996 1.45313,1.87499996 1.5586,1.87499996 0.0586,0 0.0937,-0.035156 0.0937,-0.1054687 z m 0,0"
         style="fill:#000000;fill-opacity:1;fill-rule:nonzero;stroke:none" />
      <path
         id="path42"
         d="m 287.73978,-0.58694531 c -0.0351,0.15234375 -0.0937,0.375 -0.0937,0.421875 0,0.1875 0.14063,0.26953125 0.29297,0.26953125 0.11719,0 0.29297,-0.0703125 0.36328,-0.26953125 0.0117,-0.0234375 0.12891,-0.4921875 0.1875,-0.73828125 l 0.22266,-0.90234374 c 0.0586,-0.2226563 0.11719,-0.4335938 0.17578,-0.6679688 0.0352,-0.1640625 0.11719,-0.4570312 0.12891,-0.4921875 0.14062,-0.3164062 0.66796,-1.21875 1.61718,-1.21875 0.44532,0 0.53907,0.3632813 0.53907,0.6914063 0,0.2578125 -0.0703,0.5390625 -0.15235,0.8320312 l -0.26953,1.1601563 -0.19922,0.74999999 c -0.0469,0.19921875 -0.14062,0.5390625 -0.14062,0.5859375 0,0.1875 0.14062,0.26953125 0.29297,0.26953125 0.30468,0 0.375,-0.24609375 0.44531,-0.5625 0.14062,-0.56250004 0.51562,-2.01562504 0.59765,-2.40234374 0.0352,-0.1289063 0.5625,-1.3242188 1.65235,-1.3242188 0.42187,0 0.53906,0.3398438 0.53906,0.6914063 0,0.5742187 -0.42187,1.7109375 -0.62109,2.2382812 -0.0937,0.234375 -0.12891,0.35156254 -0.12891,0.55078129 0,0.46875 0.35156,0.80859375 0.80859,0.80859375 0.9375,0 1.3125,-1.45312504 1.3125,-1.53515624 0,-0.09375 -0.0937,-0.09375 -0.11718,-0.09375 -0.10547,0 -0.10547,0.023437 -0.15235,0.1757812 -0.15234,0.52734379 -0.46875,1.24218754 -1.01953,1.24218754 -0.16406,0 -0.23437,-0.10546875 -0.23437,-0.328125 0,-0.2578125 0.082,-0.4921875 0.17578,-0.71484374 0.1875,-0.515625 0.60937,-1.6171875 0.60937,-2.1914063 0,-0.6445312 -0.39843,-1.0664062 -1.14843,-1.0664062 -0.75,0 -1.25391,0.4453125 -1.61719,0.9726562 -0.0117,-0.1289062 -0.0469,-0.46875 -0.32813,-0.7148437 -0.24609,-0.1992188 -0.5625,-0.2578125 -0.80859,-0.2578125 -0.90234,0 -1.38281,0.6445312 -1.55859,0.8671875 -0.0469,-0.5625 -0.46875,-0.8671875 -0.91407,-0.8671875 -0.45703,0 -0.64453,0.3867187 -0.73828,0.5742187 -0.17578,0.3398438 -0.30469,0.9375 -0.30469,0.9609375 0,0.1054688 0.0937,0.1054688 0.11719,0.1054688 0.0937,0 0.10547,-0.011719 0.16406,-0.234375 0.17579,-0.703125 0.375,-1.1835938 0.72657,-1.1835938 0.16406,0 0.3164,0.082031 0.3164,0.4570313 0,0.2109375 -0.0352,0.3164062 -0.16406,0.8320312 z m 9.89356,0.57421875 c 0,-0.65625 -0.25782,-1.04296874 -0.64454,-1.04296874 -0.32812,0 -0.52734,0.24609374 -0.52734,0.52734374 0,0.26953125 0.19922,0.52734375 0.52734,0.52734375 0.11719,0 0.2461,-0.03515625 0.35157,-0.12890625 0.0234,-0.0234375 0.0351,-0.0351563 0.0469,-0.0351563 0.0117,0 0.0234,0.0117188 0.0234,0.15234375 0,0.73828125 -0.35156,1.33593741 -0.67969,1.66406241 -0.10547,0.1054688 -0.10547,0.1289063 -0.10547,0.1640625 0,0.070312 0.0469,0.1054688 0.0937,0.1054688 0.11719,0 0.91407,-0.7617188 0.91407,-1.93359371 z m 5.21191,-6.21093754 c 0,-0.1992187 -0.12891,-0.3632812 -0.36328,-0.3632812 -0.26953,0 -0.53906,0.2578125 -0.53906,0.5273437 0,0.1875 0.14062,0.3632813 0.375,0.3632813 0.23437,0 0.52734,-0.234375 0.52734,-0.5273438 z m -0.75,3.7382813 c 0.11719,-0.28125 0.11719,-0.3046875 0.22266,-0.5742188 0.0703,-0.1992187 0.1289,-0.3398437 0.1289,-0.5273437 0,-0.4453125 -0.32812,-0.8203125 -0.82031,-0.8203125 -0.9375,0 -1.3125,1.453125 -1.3125,1.5351562 0,0.1054688 0.0937,0.1054688 0.11719,0.1054688 0.0937,0 0.10547,-0.023437 0.15234,-0.1875 0.26953,-0.9375 0.66797,-1.2304688 1.00781,-1.2304688 0.082,0 0.25782,0 0.25782,0.3164063 0,0.2109375 -0.0703,0.421875 -0.11719,0.515625 -0.082,0.2578125 -0.52734,1.4179687 -0.67969,1.8515625 -0.10547,0.2578125 -0.23437,0.58593749 -0.23437,0.79687499 0,0.46875 0.33984,0.80859375 0.82031,0.80859375 0.9375,0 1.30078,-1.44140624 1.30078,-1.53515624 0,-0.09375 -0.0937,-0.09375 -0.11719,-0.09375 -0.10547,0 -0.10547,0.023437 -0.15234,0.1757812 -0.17578,0.63281254 -0.50391,1.24218754 -1.01953,1.24218754 -0.16406,0 -0.23438,-0.10546875 -0.23438,-0.328125 0,-0.2578125 0.0586,-0.3984375 0.29297,-0.99609374 z m 3.38086,2.47265624 c 0,-0.65625 -0.25781,-1.04296874 -0.64453,-1.04296874 -0.32813,0 -0.52735,0.24609374 -0.52735,0.52734374 0,0.26953125 0.19922,0.52734375 0.52735,0.52734375 0.11719,0 0.24609,-0.03515625 0.35156,-0.12890625 0.0234,-0.0234375 0.0352,-0.0351563 0.0469,-0.0351563 0.0117,0 0.0234,0.0117188 0.0234,0.15234375 0,0.73828125 -0.35156,1.33593751 -0.67968,1.66406251 -0.10547,0.1054688 -0.10547,0.1289063 -0.10547,0.1640625 0,0.070312 0.0469,0.1054688 0.0937,0.1054688 0.11718,0 0.91406,-0.7617188 0.91406,-1.93359381 z m 7.13965,-2.34375004 c 0,-1.5585937 -0.92578,-2.0507812 -1.65235,-2.0507812 -1.37109,0 -2.68359,1.4296875 -2.68359,2.8359375 0,0.92578124 0.59766,1.67578124 1.61719,1.67578124 0.62109,0 1.33594,-0.22265625 2.09765,-0.83203125 0.12891,0.52734375 0.45704,0.83203125 0.90235,0.83203125 0.52734,0 0.84375,-0.5390625 0.84375,-0.703125 0,-0.0703125 -0.0586,-0.10546875 -0.12891,-0.10546875 -0.0586,0 -0.0937,0.0351563 -0.1289,0.10546875 -0.17579,0.4921875 -0.52735,0.4921875 -0.55079,0.4921875 -0.3164,0 -0.3164,-0.78515625 -0.3164,-1.01953124 0,-0.2109375 0,-0.234375 0.10547,-0.3515625 0.9375,-1.171875 1.14843,-2.3320313 1.14843,-2.34375 0,-0.011719 -0.0117,-0.09375 -0.11718,-0.09375 -0.10547,0 -0.10547,0.023437 -0.15235,0.2109375 -0.1875,0.6210937 -0.51562,1.3828125 -0.98437,1.96875 z m -0.65625,1.37109379 c -0.87891,0.76171875 -1.65235,0.87890625 -2.05078,0.87890625 -0.59766,0 -0.89063,-0.45703125 -0.89063,-1.08984374 0,-0.4921875 0.25781,-1.5585938 0.57422,-2.0742188 0.46875,-0.7265625 1.00781,-0.9140625 1.35938,-0.9140625 0.98437,0 0.98437,1.3007813 0.98437,2.0859375 0,0.3632813 0,0.9375 0.0234,1.11328129 z m 0,0"
         style="fill:#000000;fill-opacity:1;fill-rule:nonzero;stroke:none" />
      <path
         id="path43"
         d="m 316.60013,-2.9365547 c 0,-0.1875 -0.0117,-0.1992187 -0.21093,-0.1992187 -0.44532,0.4335937 -1.07813,0.4453125 -1.35938,0.4453125 v 0.2460937 c 0.16406,0 0.62109,0 1.00781,-0.1875 v 3.55078126 c 0,0.23437504 0,0.32812504 -0.6914,0.32812504 h -0.26953 v 0.2460937 c 0.1289,-0.011719 0.98437,-0.023437 1.24218,-0.023437 0.21094,0 1.08985,0.011719 1.24219,0.023437 V 1.2470391 h -0.25781 c -0.70313,0 -0.70313,-0.09375 -0.70313,-0.32812504 z m 0,0"
         style="fill:#000000;fill-opacity:1;fill-rule:nonzero;stroke:none" />
      <path
         id="path44"
         d="m 321.62162,-2.4971016 c 0,-0.7734375 -0.11719,-1.9804687 -0.65625,-3.1054687 -0.59766,-1.21875 -1.46485,-1.875 -1.5586,-1.875 -0.0586,0 -0.10547,0.046875 -0.10547,0.1054687 0,0.035156 0,0.046875 0.19922,0.234375 0.97266,0.984375 1.53516,2.5664063 1.53516,4.640625 0,1.71093754 -0.36328,3.45703129 -1.59375,4.7226563 -0.14063,0.1171875 -0.14063,0.1289062 -0.14063,0.1640625 0,0.058594 0.0469,0.1054687 0.10547,0.1054687 0.0937,0 0.9961,-0.6796875 1.58203,-1.94531246 0.50391,-1.1015625 0.63282,-2.20312504 0.63282,-3.04687504 z m 0,0"
         style="fill:#000000;fill-opacity:1;fill-rule:nonzero;stroke:none" />
      <path
         id="path45"
         d="m 324.6392,-0.01272656 c 0,-0.65625 -0.25782,-1.04296874 -0.64454,-1.04296874 -0.32812,0 -0.52734,0.24609374 -0.52734,0.52734374 0,0.26953125 0.19922,0.52734375 0.52734,0.52734375 0.11719,0 0.2461,-0.03515625 0.35157,-0.12890625 0.0234,-0.0234375 0.0351,-0.0351563 0.0469,-0.0351563 0.0117,0 0.0234,0.0117188 0.0234,0.15234375 0,0.73828125 -0.35156,1.33593741 -0.67969,1.66406241 -0.10547,0.1054688 -0.10547,0.1289063 -0.10547,0.1640625 0,0.070312 0.0469,0.1054688 0.0937,0.1054688 0.11719,0 0.91407,-0.7617188 0.91407,-1.93359371 z m 0,0"
         style="fill:#000000;fill-opacity:1;fill-rule:nonzero;stroke:none" />
      <path
         id="path46"
         d="m 330.33158,2.3896172 c 0,-0.035156 0,-0.046875 -0.16406,-0.2226563 -1.24219,-1.25390621 -1.57032,-3.12890621 -1.57032,-4.6640625 0,-1.7226562 0.38672,-3.4570312 1.60547,-4.7109375 0.12891,-0.1171875 0.12891,-0.1289062 0.12891,-0.1640625 0,-0.070312 -0.0352,-0.1054687 -0.0937,-0.1054687 -0.10547,0 -0.9961,0.6796875 -1.58203,1.9453125 -0.51563,1.1015625 -0.63282,2.203125 -0.63282,3.0351562 0,0.7851563 0.11719,1.99218754 0.65625,3.11718754 0.59766,1.21874996 1.45313,1.87499996 1.5586,1.87499996 0.0586,0 0.0937,-0.035156 0.0937,-0.1054687 z m 0,0"
         style="fill:#000000;fill-opacity:1;fill-rule:nonzero;stroke:none" />
      <path
         id="path47"
         d="m 331.79349,-0.58694531 c -0.0352,0.15234375 -0.0937,0.375 -0.0937,0.421875 0,0.1875 0.14063,0.26953125 0.29297,0.26953125 0.11719,0 0.29297,-0.0703125 0.36328,-0.26953125 0.0117,-0.0234375 0.12891,-0.4921875 0.1875,-0.73828125 l 0.22266,-0.90234374 c 0.0586,-0.2226563 0.11719,-0.4335938 0.17578,-0.6679688 0.0352,-0.1640625 0.11719,-0.4570312 0.12891,-0.4921875 0.14062,-0.3164062 0.66796,-1.21875 1.61718,-1.21875 0.44532,0 0.53907,0.3632813 0.53907,0.6914063 0,0.6210937 -0.49219,1.8984375 -0.64454,2.3320312 -0.0937,0.22265629 -0.10546,0.33984379 -0.10546,0.45703129 0,0.46875 0.35156,0.80859375 0.82031,0.80859375 0.9375,0 1.30078,-1.45312504 1.30078,-1.53515624 0,-0.09375 -0.082,-0.09375 -0.11719,-0.09375 -0.0937,0 -0.0937,0.023437 -0.15234,0.1757812 -0.19922,0.67968754 -0.52735,1.24218754 -1.00781,1.24218754 -0.17579,0 -0.2461,-0.10546875 -0.2461,-0.328125 0,-0.2578125 0.0937,-0.4921875 0.1875,-0.71484374 0.1875,-0.5273438 0.59766,-1.6171875 0.59766,-2.1914063 0,-0.6679687 -0.42188,-1.0664062 -1.13672,-1.0664062 -0.90234,0 -1.38281,0.6445312 -1.55859,0.8671875 -0.0469,-0.5507813 -0.45704,-0.8671875 -0.91407,-0.8671875 -0.45703,0 -0.64453,0.3867187 -0.75,0.5742187 -0.15234,0.3398438 -0.29297,0.9257813 -0.29297,0.9609375 0,0.1054688 0.0937,0.1054688 0.11719,0.1054688 0.0937,0 0.10547,-0.011719 0.16406,-0.234375 0.17579,-0.703125 0.375,-1.1835938 0.72657,-1.1835938 0.19922,0 0.3164,0.1289063 0.3164,0.4570313 0,0.2109375 -0.0351,0.3164062 -0.16406,0.8320312 z m 7.125,0.57421875 c 0,-0.65625 -0.25781,-1.04296874 -0.64453,-1.04296874 -0.32812,0 -0.52734,0.24609374 -0.52734,0.52734374 0,0.26953125 0.19922,0.52734375 0.52734,0.52734375 0.11719,0 0.24609,-0.03515625 0.35156,-0.12890625 0.0234,-0.0234375 0.0352,-0.0351563 0.0469,-0.0351563 0.0117,0 0.0234,0.0117188 0.0234,0.15234375 0,0.73828125 -0.35157,1.33593741 -0.67969,1.66406241 -0.10547,0.1054688 -0.10547,0.1289063 -0.10547,0.1640625 0,0.070312 0.0469,0.1054688 0.0937,0.1054688 0.11719,0 0.91406,-0.7617188 0.91406,-1.93359371 z m 6.33692,-6.21093754 c 0,-0.1875 -0.12891,-0.3632812 -0.375,-0.3632812 -0.22266,0 -0.52735,0.234375 -0.52735,0.5273437 0,0.1992188 0.14063,0.3632813 0.375,0.3632813 0.26953,0 0.52735,-0.2578125 0.52735,-0.5273438 z m -1.99219,6.72656254 c -0.19922,0.74999996 -0.66797,1.32421876 -1.23047,1.32421876 -0.0586,0 -0.21094,0 -0.38672,-0.09375 0.29297,-0.070312 0.44531,-0.328125 0.44531,-0.5273438 0,-0.1640625 -0.10546,-0.35156246 -0.375,-0.35156246 -0.24609,0 -0.53906,0.21093746 -0.53906,0.57421876 0,0.3984375 0.39844,0.609375 0.87891,0.609375 0.6914,0 1.61719,-0.5273438 1.875,-1.51171876 l 0.91406,-3.64453124 c 0.0469,-0.1992188 0.0469,-0.3398438 0.0469,-0.375 0,-0.5625 -0.42188,-0.9140625 -0.91407,-0.9140625 -1.01953,0 -1.58203,1.453125 -1.58203,1.5351562 0,0.1054688 0.0937,0.1054688 0.11719,0.1054688 0.0937,0 0.0937,-0.011719 0.17578,-0.1992188 0.24609,-0.609375 0.71484,-1.21875 1.25391,-1.21875 0.14062,0 0.3164,0.035156 0.3164,0.4570313 0,0.234375 -0.0234,0.3398437 -0.0586,0.5039062 z m 4.18359,-0.515625 c 0,-0.65625 -0.25781,-1.04296874 -0.64453,-1.04296874 -0.32812,0 -0.52734,0.24609374 -0.52734,0.52734374 0,0.26953125 0.19922,0.52734375 0.52734,0.52734375 0.11719,0 0.2461,-0.03515625 0.35156,-0.12890625 0.0234,-0.0234375 0.0352,-0.0351563 0.0469,-0.0351563 0.0117,0 0.0234,0.0117188 0.0234,0.15234375 0,0.73828125 -0.35157,1.33593741 -0.67969,1.66406241 -0.10547,0.1054688 -0.10547,0.1289063 -0.10547,0.1640625 0,0.070312 0.0469,0.1054688 0.0937,0.1054688 0.11719,0 0.91406,-0.7617188 0.91406,-1.93359371 z m 7.14258,-2.34375004 c 0,-1.5585937 -0.92578,-2.0507812 -1.65234,-2.0507812 -1.3711,0 -2.6836,1.4296875 -2.6836,2.8359375 0,0.92578124 0.59766,1.67578124 1.61719,1.67578124 0.62109,0 1.33594,-0.22265625 2.09766,-0.83203125 0.1289,0.52734375 0.45703,0.83203125 0.90234,0.83203125 0.52734,0 0.84375,-0.5390625 0.84375,-0.703125 0,-0.0703125 -0.0586,-0.10546875 -0.12891,-0.10546875 -0.0586,0 -0.0937,0.0351563 -0.1289,0.10546875 -0.17578,0.4921875 -0.52735,0.4921875 -0.55078,0.4921875 -0.31641,0 -0.31641,-0.78515625 -0.31641,-1.01953124 0,-0.2109375 0,-0.234375 0.10547,-0.3515625 0.9375,-1.171875 1.14844,-2.3320313 1.14844,-2.34375 0,-0.011719 -0.0117,-0.09375 -0.11719,-0.09375 -0.10547,0 -0.10547,0.023437 -0.15234,0.2109375 -0.1875,0.6210937 -0.51563,1.3828125 -0.98438,1.96875 z m -0.65625,1.37109379 c -0.87891,0.76171875 -1.65234,0.87890625 -2.05078,0.87890625 -0.59766,0 -0.89063,-0.45703125 -0.89063,-1.08984374 0,-0.4921875 0.25782,-1.5585938 0.57422,-2.0742188 0.46875,-0.7265625 1.00782,-0.9140625 1.35938,-0.9140625 0.98437,0 0.98437,1.3007813 0.98437,2.0859375 0,0.3632813 0,0.9375 0.0234,1.11328129 z m 0,0"
         style="fill:#000000;fill-opacity:1;fill-rule:nonzero;stroke:none" />
      <path
         id="path48"
         d="m 359.75736,0.22750781 h -0.23438 c -0.0234,0.15234375 -0.082,0.5625 -0.17578,0.6328125 -0.0586,0.0351563 -0.59765,0.0351563 -0.6914,0.0351563 h -1.28907 c 0.73829,-0.64453125 0.98438,-0.84375 1.39454,-1.171875 0.51562,-0.41015625 0.99609,-0.84374991 0.99609,-1.49999991 0,-0.8437501 -0.73828,-1.3593751 -1.62891,-1.3593751 -0.86718,0 -1.45312,0.609375 -1.45312,1.2421876 0,0.3632812 0.30469,0.3984375 0.375,0.3984375 0.16406,0 0.375,-0.1171875 0.375,-0.375 0,-0.1289063 -0.0586,-0.3632814 -0.42188,-0.3632814 0.22266,-0.5039062 0.69141,-0.65625 1.01953,-0.65625 0.70313,0 1.06641,0.5507813 1.06641,1.1132813 0,0.609375 -0.43359,1.08984376 -0.65625,1.33593751 l -1.6875,1.66406249 c -0.0703,0.058594 -0.0703,0.070312 -0.0703,0.2695312 h 2.88281 z m 0,0"
         style="fill:#000000;fill-opacity:1;fill-rule:nonzero;stroke:none" />
      <path
         id="path49"
         d="m 363.59525,-2.4971016 c 0,-0.7734375 -0.11719,-1.9804687 -0.65625,-3.1054687 -0.59766,-1.21875 -1.46484,-1.875 -1.55859,-1.875 -0.0586,0 -0.10547,0.046875 -0.10547,0.1054687 0,0.035156 0,0.046875 0.19922,0.234375 0.97265,0.984375 1.53515,2.5664063 1.53515,4.640625 0,1.71093754 -0.36328,3.45703129 -1.59375,4.7226563 -0.14062,0.1171875 -0.14062,0.1289062 -0.14062,0.1640625 0,0.058594 0.0469,0.1054687 0.10547,0.1054687 0.0937,0 0.99609,-0.6796875 1.58203,-1.94531246 0.5039,-1.1015625 0.63281,-2.20312504 0.63281,-3.04687504 z m 0,0"
         style="fill:#000000;fill-opacity:1;fill-rule:nonzero;stroke:none" />
      <path
         id="path50"
         d="m 372.81498,-2.2978828 c 0.16406,0 0.35156,0 0.35156,-0.1992188 0,-0.1992187 -0.1875,-0.1992187 -0.35156,-0.1992187 h -4.23047 c 0.1289,-1.3242188 1.26562,-2.2851563 2.67187,-2.2851563 h 1.5586 c 0.16406,0 0.35156,0 0.35156,-0.1992187 0,-0.1992188 -0.1875,-0.1992188 -0.35156,-0.1992188 h -1.57032 c -1.71093,0 -3.05859,1.2890625 -3.05859,2.8828125 0,1.59375004 1.34766,2.89453129 3.05859,2.89453129 h 1.57032 c 0.16406,0 0.35156,0 0.35156,-0.19921875 0,-0.19921875 -0.1875,-0.19921875 -0.35156,-0.19921875 h -1.5586 c -1.40625,0 -2.54297,-0.9609375 -2.67187,-2.29687499 z m 0,0"
         style="fill:#000000;fill-opacity:1;fill-rule:nonzero;stroke:none" />
      <path
         id="path51"
         d="m 385.89017,-5.6494453 c 0.25781,-0.4335938 0.49219,-0.796875 1.125,-0.84375 0.082,-0.011719 0.1875,-0.011719 0.1875,-0.1992188 0,-0.046875 -0.0469,-0.1171875 -0.11719,-0.1171875 -0.24609,0 -0.52734,0.035156 -0.77343,0.035156 -0.33985,0 -0.70313,-0.035156 -1.03125,-0.035156 -0.0586,0 -0.1875,0 -0.1875,0.1992188 0,0.1054687 0.082,0.1171875 0.14062,0.1171875 0.2461,0.011719 0.59766,0.082031 0.59766,0.3867187 0,0.1054688 -0.0586,0.1875 -0.14063,0.328125 l -2.68359,4.6875 -0.36328,-4.9335937 c -0.0117,-0.1992188 -0.0352,-0.4570313 0.6914,-0.46875 0.16407,0 0.26954,0 0.26954,-0.1992188 0,-0.1054687 -0.10547,-0.1171875 -0.15235,-0.1171875 -0.39844,0 -0.80859,0.035156 -1.20703,0.035156 -0.23437,0 -0.82031,-0.035156 -1.05469,-0.035156 -0.0586,0 -0.1875,0 -0.1875,0.1992188 0,0.1171875 0.10547,0.1171875 0.2461,0.1171875 0.43359,0 0.5039,0.058594 0.52734,0.2460937 l 0.0586,0.7617188 -2.51953,4.3945312 -0.38672,-5.0507812 c 0,-0.1171875 0,-0.3398438 0.76172,-0.3515625 0.0937,0 0.21094,0 0.21094,-0.1992188 0,-0.1171875 -0.11719,-0.1171875 -0.14062,-0.1171875 -0.39844,0 -0.82032,0.035156 -1.23047,0.035156 -0.33985,0 -0.70313,-0.035156 -1.04297,-0.035156 -0.0469,0 -0.17578,0 -0.17578,0.1992188 0,0.1171875 0.082,0.1171875 0.24609,0.1171875 0.50391,0 0.50391,0.082031 0.52734,0.3632812 l 0.44532,6.09375004 c 0.0117,0.17578125 0.0234,0.2578125 0.16406,0.2578125 0.11719,0 0.15234,-0.0585938 0.23437,-0.2109375 l 2.92969,-5.08593754 0.375,5.03906254 c 0.0117,0.19921875 0.0352,0.2578125 0.15235,0.2578125 0.1289,0 0.1875,-0.10546875 0.24609,-0.1875 z m 0,0"
         style="fill:#000000;fill-opacity:1;fill-rule:nonzero;stroke:none" />
      <path
         id="path52"
         d="m 392.5347,-8.0517891 c 0.25782,-0.375 0.48047,-0.5507812 0.86719,-0.5742187 0.082,-0.011719 0.15234,-0.011719 0.15234,-0.1523438 0,-0.023437 -0.0117,-0.09375 -0.0937,-0.09375 -0.16406,0 -0.38671,0.023437 -0.5625,0.023437 -0.22265,0 -0.51562,-0.023437 -0.72656,-0.023437 -0.0586,0 -0.1289,0.011719 -0.1289,0.1523438 0,0.082031 0.0937,0.09375 0.11718,0.09375 0.22266,0.011719 0.29297,0.09375 0.29297,0.1992187 0,0.1054688 -0.0469,0.1757813 -0.1289,0.28125 l -2.28516,3.375 -0.63281,-3.5625 c -0.0234,-0.058594 -0.0234,-0.082031 -0.0234,-0.1054687 0,-0.1875 0.39844,-0.1875 0.44531,-0.1875 0.11719,0 0.21094,0 0.21094,-0.1523438 0,-0.011719 -0.0117,-0.09375 -0.11719,-0.09375 -0.21094,0 -0.70312,0.023437 -0.90234,0.023437 -0.17578,0 -0.59766,-0.023437 -0.77344,-0.023437 -0.0586,0 -0.14062,0.011719 -0.14062,0.1523438 0,0.09375 0.0937,0.09375 0.17578,0.09375 0.38672,0 0.39843,0.046875 0.43359,0.2226562 l 0.76172,4.2421875 c 0.0234,0.140625 0.0352,0.1875 0.16406,0.1875 0.12891,0 0.16406,-0.046875 0.23438,-0.1523437 z m 0,0"
         style="fill:#000000;fill-opacity:1;fill-rule:nonzero;stroke:none" />
      <path
         id="path53"
         d="m 396.5015,-0.01272656 c 0,-0.65625 -0.25781,-1.04296874 -0.64453,-1.04296874 -0.32813,0 -0.52734,0.24609374 -0.52734,0.52734374 0,0.26953125 0.19921,0.52734375 0.52734,0.52734375 0.11719,0 0.24609,-0.03515625 0.35156,-0.12890625 0.0234,-0.0234375 0.0352,-0.0351563 0.0469,-0.0351563 0.0117,0 0.0234,0.0117188 0.0234,0.15234375 0,0.73828125 -0.35156,1.33593741 -0.67968,1.66406241 -0.10547,0.1054688 -0.10547,0.1289063 -0.10547,0.1640625 0,0.070312 0.0469,0.1054688 0.0937,0.1054688 0.11719,0 0.91406,-0.7617188 0.91406,-1.93359371 z m 0,0"
         style="fill:#000000;fill-opacity:1;fill-rule:nonzero;stroke:none" />
      <path
         id="path54"
         d="m 404.38529,-6.5400703 c 0.0586,-0.1054688 0.0586,-0.1289063 0.0586,-0.1757813 0,-0.09375 -0.082,-0.1992187 -0.19922,-0.1992187 -0.1289,0 -0.19921,0.1171875 -0.23437,0.234375 l -0.82031,2.1914062 h -3.03516 l -0.82031,-2.1914062 c -0.0586,-0.140625 -0.10547,-0.234375 -0.23438,-0.234375 -0.0937,0 -0.19922,0.1054687 -0.19922,0.1992187 0,0.023437 0,0.035156 0.0586,0.1757813 l 2.48437,6.52734374 c 0.0469,0.140625 0.0937,0.234375 0.22266,0.234375 0.14062,0 0.1875,-0.1171875 0.22266,-0.2109375 z m -4.06641,2.4492187 h 2.70703 l -1.35937,3.53906254 z m 0,0"
         style="fill:#000000;fill-opacity:1;fill-rule:nonzero;stroke:none" />
      <path
         id="path55"
         d="m 407.76322,-3.0127266 c 0.0586,-0.2578125 0.29297,-1.171875 0.98437,-1.171875 0.0469,0 0.29297,0 0.50391,0.1289063 -0.28125,0.046875 -0.48047,0.3046875 -0.48047,0.5390625 0,0.1640625 0.10547,0.3515625 0.375,0.3515625 0.22266,0 0.53906,-0.1875 0.53906,-0.5859375 0,-0.515625 -0.58593,-0.65625 -0.92578,-0.65625 -0.57422,0 -0.92578,0.5273437 -1.04297,0.7617187 -0.25781,-0.65625 -0.78515,-0.7617187 -1.07812,-0.7617187 -1.04297,0 -1.60547,1.2890625 -1.60547,1.5351562 0,0.1054688 0.10547,0.1054688 0.11719,0.1054688 0.082,0 0.11719,-0.023437 0.1289,-0.1171875 0.33985,-1.0546875 0.9961,-1.3007813 1.33594,-1.3007813 0.1875,0 0.53906,0.09375 0.53906,0.6679688 0,0.3046875 -0.16406,0.9726562 -0.53906,2.3671875 -0.15234,0.62109374 -0.5039,1.04296874 -0.94922,1.04296874 -0.0586,0 -0.28125,0 -0.49218,-0.12890625 0.24609,-0.0585938 0.46875,-0.26953125 0.46875,-0.5390625 0,-0.26953129 -0.22266,-0.35156249 -0.375,-0.35156249 -0.29297,0 -0.53907,0.25781249 -0.53907,0.57421874 0,0.45703125 0.49219,0.65625 0.9375,0.65625 0.65625,0 1.00782,-0.69140625 1.04297,-0.75 0.11719,0.36328125 0.48047,0.75 1.07813,0.75 1.01953,0 1.59375,-1.27734374 1.59375,-1.53515624 0,-0.09375 -0.0937,-0.09375 -0.12891,-0.09375 -0.082,0 -0.10547,0.035156 -0.12891,0.1054687 -0.32812,1.06640629 -0.99609,1.31250004 -1.32421,1.31250004 -0.38672,0 -0.53907,-0.328125 -0.53907,-0.65625 0,-0.22265625 0.0586,-0.44531254 0.16407,-0.87890624 z m 0,0"
         style="fill:#000000;fill-opacity:1;fill-rule:nonzero;stroke:none" />
      <path
         id="path56"
         d="m 418.3599,-2.2978828 c 0.16406,0 0.35156,0 0.35156,-0.1992188 0,-0.1992187 -0.1875,-0.1992187 -0.35156,-0.1992187 h -4.23047 c 0.12891,-1.3242188 1.26562,-2.2851563 2.67187,-2.2851563 h 1.5586 c 0.16406,0 0.35156,0 0.35156,-0.1992187 0,-0.1992188 -0.1875,-0.1992188 -0.35156,-0.1992188 h -1.57031 c -1.71094,0 -3.0586,1.2890625 -3.0586,2.8828125 0,1.59375004 1.34766,2.89453129 3.0586,2.89453129 h 1.57031 c 0.16406,0 0.35156,0 0.35156,-0.19921875 0,-0.19921875 -0.1875,-0.19921875 -0.35156,-0.19921875 h -1.5586 c -1.40625,0 -2.54296,-0.9609375 -2.67187,-2.29687499 z m 0,0"
         style="fill:#000000;fill-opacity:1;fill-rule:nonzero;stroke:none" />
      <path
         id="path57"
         d="m 427.13431,-4.0908516 -0.83203,-1.9921875 c -0.0351,-0.070312 -0.0469,-0.1171875 -0.0469,-0.1289062 0,-0.058594 0.16406,-0.2460938 0.58593,-0.28125 0.0937,-0.011719 0.19922,-0.023437 0.19922,-0.1875 0,-0.1289063 -0.11718,-0.1289063 -0.15234,-0.1289063 -0.41016,0 -0.83203,0.035156 -1.25391,0.035156 -0.24609,0 -0.86718,-0.035156 -1.11328,-0.035156 -0.0586,0 -0.1875,0 -0.1875,0.1992188 0,0.1171875 0.10547,0.1171875 0.23438,0.1171875 0.59765,0 0.65625,0.09375 0.75,0.3164062 l 1.17187,2.7773438 -2.09765,2.2617187 -0.12891,0.1054688 c -0.49219,0.52734374 -0.96094,0.69140624 -1.46484,0.72656249 -0.12891,0 -0.22266,0 -0.22266,0.19921875 0,0 0,0.10546875 0.12891,0.10546875 0.30468,0 0.63281,-0.03515625 0.9375,-0.03515625 0.36328,0 0.76171,0.03515625 1.11328,0.03515625 0.0586,0 0.17578,0 0.17578,-0.19921875 0,-0.10546875 -0.0937,-0.10546875 -0.11719,-0.10546875 -0.082,-0.0117188 -0.39844,-0.0351563 -0.39844,-0.31640625 0,-0.15234375 0.15235,-0.31640625 0.26953,-0.44531254 l 1.01954,-1.078125 0.89062,-0.9726562 1.00781,2.37890624 c 0.0469,0.10546875 0.0469,0.1171875 0.0469,0.140625 0,0.0820313 -0.1875,0.24609375 -0.57422,0.29296875 -0.10547,0 -0.19922,0.0117188 -0.19922,0.1875 0,0.1171875 0.11719,0.1171875 0.15234,0.1171875 0.28125,0 0.97266,-0.03515625 1.25391,-0.03515625 0.24609,0 0.85547,0.03515625 1.10156,0.03515625 0.0703,0 0.19922,0 0.19922,-0.1875 0,-0.1171875 -0.10547,-0.1171875 -0.1875,-0.1171875 -0.66797,-0.0117188 -0.67969,-0.046875 -0.85547,-0.4453125 -0.38672,-0.92578129 -1.05468,-2.47265629 -1.28906,-3.07031249 0.67969,-0.703125 1.73438,-1.8867188 2.05078,-2.1679688 0.28125,-0.234375 0.66797,-0.4804687 1.26563,-0.5039062 0.1289,-0.011719 0.21093,-0.011719 0.21093,-0.1992188 0,-0.011719 0,-0.1171875 -0.1289,-0.1171875 -0.29297,0 -0.6211,0.035156 -0.9375,0.035156 -0.36328,0 -0.73828,-0.035156 -1.10156,-0.035156 -0.0586,0 -0.1875,0 -0.1875,0.1992188 0,0.070312 0.0469,0.1054687 0.11718,0.1171875 0.0937,0.011719 0.39844,0.023437 0.39844,0.3046875 0,0.140625 -0.10547,0.2695312 -0.1875,0.3632812 z m 0,0"
         style="fill:#000000;fill-opacity:1;fill-rule:nonzero;stroke:none" />
      <path
         id="path58"
         d="m 434.22416,-8.3916328 c 0.0469,-0.1875 0.0586,-0.2109375 0.21093,-0.234375 h 0.44532 c 0.65625,0 1.45312,0 1.45312,0.7148437 0,0.2929688 -0.1289,0.7265625 -0.45703,0.984375 -0.29297,0.2226563 -0.72656,0.328125 -1.20703,0.328125 h -0.89063 z m 1.2539,1.9101562 c 0.83203,-0.1992187 1.57032,-0.703125 1.57032,-1.3242187 0,-0.5976563 -0.70313,-1.0664063 -1.72266,-1.0664063 h -2.13281 c -0.14063,0 -0.22266,0 -0.22266,0.1523438 0,0.09375 0.082,0.09375 0.22266,0.09375 0,0 0.14062,0 0.25781,0.011719 0.15234,0.011719 0.16406,0.035156 0.16406,0.1054688 0,0.011719 0,0.046875 -0.0234,0.1523437 l -0.9375,3.703125 c -0.0469,0.234375 -0.0586,0.2929688 -0.60937,0.2929688 -0.11719,0 -0.21094,0 -0.21094,0.140625 0,0.070312 0.0469,0.1054687 0.11719,0.1054687 0.12891,0 0.29297,-0.023437 0.43359,-0.023437 0.12891,0 0.32813,0 0.45703,0 0.14063,0 0.30469,0 0.44532,0 0.15234,0 0.3164,0.023437 0.46875,0.023437 0.0352,0 0.14062,0 0.14062,-0.140625 0,-0.1054687 -0.0703,-0.1054687 -0.22265,-0.1054687 -0.11719,0 -0.14063,0 -0.26954,-0.023437 -0.15234,-0.011719 -0.15234,-0.035156 -0.15234,-0.1054688 0,0 0,-0.046875 0.0234,-0.1523437 l 0.44531,-1.7578125 h 0.94922 c 0.59766,0 0.85547,0.2929687 0.85547,0.6210937 0,0.09375 -0.0586,0.328125 -0.0937,0.4921875 -0.082,0.3164063 -0.11719,0.421875 -0.11719,0.5390625 0,0.5507813 0.51563,0.7734375 1.03125,0.7734375 0.63281,0 0.91406,-0.6796875 0.91406,-0.8085937 0,-0.023437 -0.0117,-0.09375 -0.11718,-0.09375 -0.0937,0 -0.10547,0.046875 -0.12891,0.1171875 -0.0937,0.3046875 -0.35156,0.5859375 -0.64453,0.5859375 -0.17578,0 -0.31641,-0.070312 -0.31641,-0.4453125 0,-0.1757813 0.0469,-0.5390625 0.0703,-0.7265625 0.0352,-0.1875 0.0352,-0.2578125 0.0352,-0.328125 0,-0.082031 0,-0.3046875 -0.19922,-0.515625 -0.1289,-0.1523438 -0.3164,-0.2460938 -0.48047,-0.2929688 z m 0,0"
         style="fill:#000000;fill-opacity:1;fill-rule:nonzero;stroke:none" />
    </g>
  </g>
</svg>
