<?xml version="1.0" encoding="UTF-8" standalone="no"?>
<!-- Created with Inkscape (http://www.inkscape.org/) -->

<svg
   version="1.1"
   id="svg1"
   width="239.73438"
   height="18.222656"
   viewBox="0 0 239.73438 18.222656"
   sodipodi:docname="Formulas.pdf"
   xmlns:inkscape="http://www.inkscape.org/namespaces/inkscape"
   xmlns:sodipodi="http://sodipodi.sourceforge.net/DTD/sodipodi-0.dtd"
   xmlns="http://www.w3.org/2000/svg"
   xmlns:svg="http://www.w3.org/2000/svg">
  <defs
     id="defs1" />
  <sodipodi:namedview
     id="namedview1"
     pagecolor="#ffffff"
     bordercolor="#000000"
     borderopacity="0.25"
     inkscape:showpageshadow="2"
     inkscape:pageopacity="0.0"
     inkscape:pagecheckerboard="0"
     inkscape:deskcolor="#d1d1d1" />
  <g
     id="g1"
     inkscape:groupmode="layer"
     inkscape:label="1"
     transform="translate(-408.09375,-113.11328)">
    <g
       id="g2"
       aria-label="U&#10;AGV&#10;(m,i,α−1)&#10;=1,∀(m,i)∈C,∀α∈{2,3,4}"
       transform="matrix(1.3333333,0,0,1.3333333,407.20267,125.224)">
      <path
         id="path2"
         d="m 6.3284688,-5.7549141 c 0.09375,-0.4101562 0.28125,-0.7148437 1.078125,-0.7382812 0.046875,0 0.1640625,-0.011719 0.1640625,-0.1992188 0,-0.011719 0,-0.1171875 -0.1289063,-0.1171875 -0.328125,0 -0.6796875,0.035156 -1.0195312,0.035156 -0.3398438,0 -0.703125,-0.035156 -1.03125,-0.035156 -0.058594,0 -0.1757813,0 -0.1757813,0.1992188 0,0.1171875 0.09375,0.1171875 0.1757813,0.1171875 0.5625,0.011719 0.6796875,0.2109375 0.6796875,0.4335937 0,0.035156 -0.023437,0.1757813 -0.035156,0.2109375 l -0.890625,3.5507813 c -0.3398437,1.33593749 -1.4882812,2.20312499 -2.484375,2.20312499 -0.6796875,0 -1.21875,-0.43359375 -1.21875,-1.28906249 0,-0.023437 0,-0.3398438 0.1171875,-0.7734375 L 2.519875,-6.0361641 c 0.09375,-0.3632812 0.1054688,-0.4570312 0.8320313,-0.4570312 0.2695312,0 0.3398437,0 0.3398437,-0.1992188 0,-0.1171875 -0.1054687,-0.1171875 -0.140625,-0.1171875 -0.2695312,0 -0.9960937,0.035156 -1.265625,0.035156 -0.2929687,0 -0.9960937,-0.035156 -1.2890625,-0.035156 -0.0820313,0 -0.1875,0 -0.1875,0.1992188 0,0.1171875 0.09375,0.1171875 0.28125,0.1171875 0.011719,0 0.2109375,0 0.375,0.011719 0.1757813,0.023437 0.2695313,0.035156 0.2695313,0.1640625 0,0.058594 -0.1054688,0.4804688 -0.1757813,0.703125 L 1.348,-4.7353828 c -0.09375,0.3867187 -0.57421875,2.2734375 -0.609375,2.4609375 -0.0703125,0.28125 -0.0703125,0.4335937 -0.0703125,0.5742187 0,1.21875004 0.9023438,1.92187504 1.9570313,1.92187504 1.2539062,0 2.484375,-1.125 2.8125,-2.44921874 z m 0,0"
         style="fill:#000000;fill-opacity:1;fill-rule:nonzero;stroke:none" />
      <path
         id="path3"
         d="m 13.44175,-4.1142891 v -0.2460937 h -0.140625 c -0.46875,0 -0.515625,-0.070312 -0.585937,-0.2695313 l -1.699219,-4.3007812 c -0.03516,-0.1054688 -0.05859,-0.1523438 -0.199219,-0.1523438 -0.128906,0 -0.152344,0.046875 -0.1875,0.1523438 l -1.6171875,4.0898437 c -0.070312,0.1640625 -0.1875,0.4804688 -0.8085937,0.4804688 v 0.2460937 c 0.234375,-0.023437 0.4804687,-0.023437 0.7148437,-0.023437 0.28125,0 0.796875,0.023437 0.8320313,0.023437 v -0.2460937 c -0.3046875,0 -0.4921875,-0.140625 -0.4921875,-0.3398438 0,-0.058594 0,-0.070312 0.035156,-0.140625 l 0.328125,-0.8554687 h 1.9804687 l 0.410157,1.0195312 c 0.01172,0.035156 0.03516,0.082031 0.03516,0.1171875 0,0.1992188 -0.386719,0.1992188 -0.574219,0.1992188 v 0.2460937 l 1.042969,-0.023437 c 0.328125,0 0.855469,0.011719 0.925781,0.023437 z m -1.933594,-1.828125 H 9.7151875 l 0.9023435,-2.2734375 z m 7.78125,0.1523438 v -0.2460938 c -0.04687,0 -0.5625,0.023437 -0.902343,0.023437 -0.363282,0 -0.890625,0 -1.253907,-0.023437 v 0.2460938 h 0.257813 c 0.703125,0 0.703125,0.09375 0.703125,0.328125 v 0.4453125 c 0,0.1523437 0,0.421875 -0.398438,0.6210937 -0.339843,0.1640625 -0.738281,0.1640625 -0.820312,0.1640625 -0.796875,0 -2.085938,-0.4453125 -2.085938,-2.2617187 0,-1.8632813 1.324219,-2.2734375 2.015625,-2.2734375 0.679688,0 1.511719,0.4570312 1.699219,1.6640625 0.01172,0.082031 0.07031,0.082031 0.128906,0.082031 0.117188,0 0.117188,-0.046875 0.117188,-0.1875 v -1.6289062 c 0,-0.1171875 0,-0.1757813 -0.09375,-0.1757813 -0.02344,0 -0.05859,0 -0.117188,0.082031 l -0.375,0.5273437 c -0.339843,-0.3515625 -0.832031,-0.609375 -1.441406,-0.609375 -1.453125,0 -2.671875,1.125 -2.671875,2.5195313 0,1.3710937 1.183594,2.5195312 2.683594,2.5195312 0.386719,0 1.160156,-0.070312 1.488281,-0.5625 0.117188,0.1875 0.375,0.421875 0.445313,0.421875 0.08203,0 0.08203,-0.082031 0.08203,-0.1757812 v -1.1953125 c 0,-0.3046875 0.07031,-0.3046875 0.539062,-0.3046875 z m 6.09375,-2.8359375 v -0.2460938 c -0.210937,0.011719 -0.480468,0.023437 -0.679687,0.023437 -0.28125,0 -0.796875,-0.023437 -0.84375,-0.023437 v 0.2460938 c 0.257812,0 0.480469,0.1171875 0.480469,0.328125 0,0.046875 -0.01172,0.09375 -0.02344,0.140625 l -1.453125,3.375 -1.5,-3.5390625 c -0.04687,-0.082031 -0.04687,-0.09375 -0.04687,-0.1171875 0,-0.1875 0.363281,-0.1875 0.550781,-0.1875 v -0.2460938 l -1.03125,0.023437 c -0.351562,0 -0.878906,-0.023437 -0.902343,-0.023437 v 0.2460938 h 0.128906 c 0.375,0 0.492187,0.035156 0.585937,0.2460937 l 1.804688,4.2421875 c 0.04687,0.1171875 0.07031,0.1640625 0.199219,0.1640625 0.07031,0 0.140625,0 0.210937,-0.1523437 l 1.722656,-4.0429688 c 0.09375,-0.2109375 0.257813,-0.4453125 0.796875,-0.4570312 z m 0,0"
         style="fill:#000000;fill-opacity:1;fill-rule:nonzero;stroke:none" />
      <path
         id="path4"
         d="m 9.2757344,-2.3769844 c -1.3242188,0.9257813 -1.6757813,2.41406253 -1.6757813,3.4804688 0,0.984375 0.2929688,2.5078125 1.6757813,3.4804687 0.058594,0 0.140625,0 0.140625,-0.082031 0,-0.046875 -0.023437,-0.058594 -0.070312,-0.1054688 -0.9257813,-0.8320312 -1.265625,-2.015625 -1.265625,-3.2929687 0,-1.87500002 0.7148437,-2.8007813 1.2890625,-3.3164063 0.023437,-0.023437 0.046875,-0.046875 0.046875,-0.082031 0,-0.082031 -0.082031,-0.082031 -0.1406255,-0.082032 z m 0,0"
         style="fill:#000000;fill-opacity:1;fill-rule:nonzero;stroke:none" />
      <path
         id="path5"
         d="m 12.937844,2.2870781 c -0.03516,0.140625 -0.09375,0.375 -0.09375,0.4101563 0,0.1523437 0.128906,0.2226562 0.234375,0.2226562 0.128906,0 0.234375,-0.09375 0.269531,-0.1523437 0.03516,-0.058594 0.09375,-0.2929688 0.128906,-0.4335938 0.03516,-0.1289062 0.117188,-0.4570312 0.152344,-0.6328125 0.04687,-0.1523437 0.08203,-0.3046875 0.117188,-0.4570312 0.08203,-0.30468752 0.08203,-0.31640627 0.222656,-0.53906252 0.222656,-0.33984375 0.5625,-0.73828125 1.113281,-0.73828125 0.386719,0 0.410156,0.328125 0.410156,0.4921875 0,0.421875 -0.304687,1.19531247 -0.410156,1.48828127 -0.08203,0.1875 -0.105469,0.2578125 -0.105469,0.375 0,0.3632812 0.304688,0.5976562 0.65625,0.5976562 0.703125,0 1.007813,-0.9609375 1.007813,-1.0664062 0,-0.09375 -0.09375,-0.09375 -0.105469,-0.09375 -0.105469,0 -0.105469,0.046875 -0.140625,0.1171875 -0.152344,0.5625 -0.457031,0.84375 -0.738281,0.84375 -0.140625,0 -0.175781,-0.09375 -0.175781,-0.2460938 0,-0.1523437 0.03516,-0.2460937 0.164062,-0.5625 0.08203,-0.2109375 0.375,-0.94921872 0.375,-1.34765622 0,-0.10546875 0,-0.3984375 -0.257812,-0.59765625 -0.128907,-0.09375 -0.328125,-0.1875 -0.65625,-0.1875 -0.621094,0 -1.007813,0.41015625 -1.230469,0.703125 -0.05859,-0.59765625 -0.550781,-0.703125 -0.902344,-0.703125 -0.585937,0 -0.972656,0.3515625 -1.183594,0.6328125 -0.04687,-0.48046875 -0.457031,-0.6328125 -0.75,-0.6328125 -0.292968,0 -0.457031,0.2109375 -0.550781,0.375 -0.152344,0.2578125 -0.246094,0.65625 -0.246094,0.69140625 0,0.0820313 0.09375,0.0820313 0.117188,0.0820313 0.09375,0 0.105469,-0.0117188 0.152344,-0.19921875 0.105468,-0.421875 0.234375,-0.76171875 0.515625,-0.76171875 0.175781,0 0.222656,0.15234375 0.222656,0.33984375 0,0.140625 -0.05859,0.3984375 -0.105469,0.5859375 C 11.098,1.0800469 11.027688,1.3612969 10.992531,1.5136406 l -0.222656,0.9023438 c -0.03516,0.082031 -0.07031,0.2578125 -0.07031,0.28125 0,0.1523437 0.117187,0.2226562 0.234375,0.2226562 0.128906,0 0.234375,-0.09375 0.269531,-0.1523437 0.03516,-0.058594 0.09375,-0.2929688 0.128906,-0.4335938 0.03516,-0.1289062 0.105469,-0.4570312 0.152344,-0.6328125 0.03516,-0.1523437 0.08203,-0.3046875 0.117187,-0.4570312 0.08203,-0.29296877 0.09375,-0.35156252 0.292969,-0.63281252 0.199219,-0.28125 0.527344,-0.64453125 1.042969,-0.64453125 0.410156,0 0.410156,0.36328125 0.410156,0.4921875 0,0.17578125 -0.01172,0.26953125 -0.117187,0.65624997 z m 5.519531,0.4453125 c 0,0.3867188 -0.07031,0.8320313 -0.550781,1.2773438 -0.02344,0.035156 -0.04687,0.058594 -0.04687,0.09375 0,0.046875 0.05859,0.09375 0.09375,0.09375 0.105469,0 0.691406,-0.5625 0.691406,-1.3945313 0,-0.421875 -0.164062,-0.75 -0.480469,-0.75 -0.234375,0 -0.398437,0.1757813 -0.398437,0.3867188 0,0.234375 0.152344,0.4101562 0.398437,0.4101562 0.164063,0 0.28125,-0.1171875 0.292969,-0.1171875 z m 3.146484,-4.2421875 c 0,-0.1054687 -0.08203,-0.2578125 -0.28125,-0.2578125 -0.1875,0 -0.386718,0.1757813 -0.386718,0.375 0,0.1171875 0.08203,0.2695313 0.269531,0.2695313 0.210937,0 0.398437,-0.1992188 0.398437,-0.3867188 z m -1.429687,3.5390625 c -0.02344,0.09375 -0.05859,0.1757813 -0.05859,0.2929688 0,0.328125 0.28125,0.5976562 0.667969,0.5976562 0.691406,0 0.996094,-0.9609375 0.996094,-1.0664062 0,-0.09375 -0.08203,-0.09375 -0.105469,-0.09375 -0.105469,0 -0.105469,0.046875 -0.140625,0.1171875 -0.152344,0.5625 -0.457031,0.84375 -0.738281,0.84375 -0.140625,0 -0.175782,-0.082031 -0.175782,-0.2460938 0,-0.1523437 0.05859,-0.2929687 0.117188,-0.4453125 0.07031,-0.1875 0.140625,-0.375 0.222656,-0.5507812 0.05859,-0.1640625 0.316406,-0.80859377 0.339844,-0.89062502 0.02344,-0.0703125 0.04687,-0.15234375 0.04687,-0.22265625 0,-0.328125 -0.28125,-0.5859375 -0.667969,-0.5859375 -0.691406,0 -1.007812,0.94921875 -1.007812,1.06640625 0,0.0820313 0.09375,0.0820313 0.117187,0.0820313 0.09375,0 0.105469,-0.0351563 0.128906,-0.10546875 0.175782,-0.59765625 0.480469,-0.85546875 0.738282,-0.85546875 0.117187,0 0.175781,0.05859375 0.175781,0.24609375 0,0.1640625 -0.03516,0.26953125 -0.210938,0.703125 z m 3.462891,0.703125 c 0,0.3867188 -0.07031,0.8320313 -0.550782,1.2773438 -0.02344,0.035156 -0.04687,0.058594 -0.04687,0.09375 0,0.046875 0.05859,0.09375 0.09375,0.09375 0.105469,0 0.691407,-0.5625 0.691407,-1.3945313 0,-0.421875 -0.164063,-0.75 -0.480469,-0.75 -0.234375,0 -0.398438,0.1757813 -0.398438,0.3867188 0,0.234375 0.152344,0.4101562 0.398438,0.4101562 0.164062,0 0.28125,-0.1171875 0.292969,-0.1171875 z m 4.696289,-0.8671875 c 0.644531,-0.65625 0.902343,-1.59374997 0.902343,-1.66406247 0,-0.09375 -0.08203,-0.09375 -0.117187,-0.09375 -0.09375,0 -0.09375,0.0234375 -0.140625,0.17578125 -0.128906,0.45703125 -0.363281,0.89062502 -0.65625,1.26562502 0,-0.1054688 -0.02344,-0.57421877 -0.03516,-0.63281252 -0.105469,-0.69140625 -0.621094,-1.13671875 -1.324219,-1.13671875 -1.019531,0 -2.003906,0.94921875 -2.003906,1.92187497 0,0.6445313 0.46875,1.21875 1.277343,1.21875 0.644532,0 1.21875,-0.2929687 1.605469,-0.5976562 0.164063,0.515625 0.515625,0.5976562 0.726563,0.5976562 0.410156,0 0.65625,-0.3398437 0.65625,-0.4921875 0,-0.082031 -0.08203,-0.082031 -0.117188,-0.082031 -0.09375,0 -0.105469,0.035156 -0.117187,0.070312 -0.105469,0.2695312 -0.316407,0.3046875 -0.398438,0.3046875 -0.09375,0 -0.222656,0 -0.257812,-0.8554688 z m -0.539063,0.234375 c -0.679687,0.5625 -1.277344,0.6210938 -1.535156,0.6210938 -0.46875,0 -0.726563,-0.3046875 -0.726563,-0.7734375 0,-0.1992188 0.105469,-0.96093752 0.46875,-1.44140627 0.316407,-0.421875 0.714844,-0.5390625 0.960938,-0.5390625 0.550781,0 0.714844,0.5390625 0.773437,0.97265625 0.03516,0.30468752 0.02344,0.79687502 0.05859,1.16015622 z m 0,0"
         style="fill:#000000;fill-opacity:1;fill-rule:nonzero;stroke:none" />
      <path
         id="path6"
         d="m 34.90757,1.2792656 c 0.105469,0 0.269532,0 0.269532,-0.1757812 0,-0.17578127 -0.152344,-0.17578127 -0.269532,-0.17578127 h -4.160156 c -0.105469,0 -0.28125,0 -0.28125,0.17578127 0,0.1757812 0.164063,0.1757812 0.28125,0.1757812 z m 0,0"
         style="fill:#000000;fill-opacity:1;fill-rule:nonzero;stroke:none" />
      <path
         id="path7"
         d="m 38.273781,-1.5801094 c 0,-0.1875 -0.01172,-0.1992187 -0.210937,-0.1992187 -0.445313,0.4335937 -1.078125,0.4453125 -1.359375,0.4453125 v 0.2460937 c 0.164062,0 0.621094,0 1.007812,-0.1875 v 3.5507813 c 0,0.234375 0,0.328125 -0.691406,0.328125 h -0.269531 v 0.2460937 c 0.128906,-0.011719 0.984375,-0.023437 1.242187,-0.023437 0.210938,0 1.089844,0.011719 1.242188,0.023437 V 2.6034844 h -0.257813 c -0.703125,0 -0.703125,-0.09375 -0.703125,-0.328125 z m 2.270508,-0.796875 c -0.05859,0 -0.140625,0 -0.140625,0.082031 0,0.035156 0.02344,0.058594 0.07031,0.1054687 0.597656,0.5507813 1.265625,1.48828128 1.265625,3.2929688 0,1.453125 -0.457032,2.5546875 -1.207032,3.234375 -0.117187,0.1171875 -0.128906,0.1289062 -0.128906,0.1640625 0,0.035156 0.02344,0.082031 0.09375,0.082031 0.08203,0 0.75,-0.4570312 1.207031,-1.3242187 0.304688,-0.5859375 0.503907,-1.3359375 0.503907,-2.15625 0,-0.98437502 -0.292969,-2.5078125 -1.664063,-3.4804688 z m 0,0"
         style="fill:#000000;fill-opacity:1;fill-rule:nonzero;stroke:none" />
      <path
         id="path8"
         d="m 53.136086,-3.2588203 c 0.152344,0 0.339844,0 0.339844,-0.1992188 0,-0.1992187 -0.1875,-0.1992187 -0.328125,-0.1992187 h -5.964844 c -0.140625,0 -0.328125,0 -0.328125,0.1992187 0,0.1992188 0.1875,0.1992188 0.339844,0.1992188 z m 0.01172,1.9335937 c 0.140625,0 0.328125,0 0.328125,-0.1992187 0,-0.1992188 -0.1875,-0.1992188 -0.339844,-0.1992188 H 47.19468 c -0.152344,0 -0.339844,0 -0.339844,0.1992188 0,0.1992187 0.1875,0.1992187 0.328125,0.1992187 z m 6.574218,-5.0507812 c 0,-0.234375 0,-0.2578125 -0.234375,-0.2578125 -0.609375,0.6328125 -1.488281,0.6328125 -1.804687,0.6328125 v 0.3164062 c 0.199219,0 0.785156,0 1.300781,-0.2578125 v 5.15625004 c 0,0.3515625 -0.03516,0.48046875 -0.925781,0.48046875 h -0.316406 v 0.3046875 c 0.351562,-0.03515625 1.207031,-0.03515625 1.605468,-0.03515625 0.398438,0 1.265625,0 1.617188,0.03515625 v -0.3046875 h -0.316406 c -0.902344,0 -0.925782,-0.1171875 -0.925782,-0.48046875 z m 0,0"
         style="fill:#000000;fill-opacity:1;fill-rule:nonzero;stroke:none" />
      <path
         id="path9"
         d="m 63.817727,-0.01272656 c 0,-0.65625 -0.257813,-1.04296874 -0.644532,-1.04296874 -0.328125,0 -0.527343,0.24609374 -0.527343,0.52734374 0,0.26953125 0.199218,0.52734375 0.527343,0.52734375 0.117188,0 0.246094,-0.03515625 0.351563,-0.12890625 0.02344,-0.0234375 0.03516,-0.0351563 0.04687,-0.0351563 0.01172,0 0.02344,0.0117188 0.02344,0.15234375 0,0.73828125 -0.351562,1.33593741 -0.679687,1.66406241 -0.105469,0.1054688 -0.105469,0.1289063 -0.105469,0.1640625 0,0.070312 0.04687,0.1054688 0.09375,0.1054688 0.117188,0 0.914063,-0.7617188 0.914063,-1.93359371 z m 0,0"
         style="fill:#000000;fill-opacity:1;fill-rule:nonzero;stroke:none" />
      <path
         id="path10"
         d="m 75.023781,-6.5400703 c 0.05859,-0.1054688 0.05859,-0.1289063 0.05859,-0.1757813 0,-0.09375 -0.08203,-0.1992187 -0.199219,-0.1992187 -0.128906,0 -0.199218,0.1171875 -0.234375,0.234375 l -0.820312,2.1914062 H 70.793313 L 69.973,-6.6806953 c -0.05859,-0.140625 -0.105469,-0.234375 -0.234375,-0.234375 -0.09375,0 -0.199219,0.1054687 -0.199219,0.1992187 0,0.023437 0,0.035156 0.05859,0.1757813 l 2.484375,6.52734374 c 0.04687,0.140625 0.09375,0.234375 0.222656,0.234375 0.140625,0 0.1875,-0.1171875 0.222657,-0.2109375 z m -4.066406,2.4492187 h 2.707031 l -1.359375,3.53906254 z m 0,0"
         style="fill:#000000;fill-opacity:1;fill-rule:nonzero;stroke:none" />
      <path
         id="path11"
         d="m 78.366555,2.3896172 c 0,-0.035156 0,-0.046875 -0.164063,-0.2226563 -1.242187,-1.25390621 -1.570312,-3.12890621 -1.570312,-4.6640625 0,-1.7226562 0.386718,-3.4570312 1.605468,-4.7109375 0.128907,-0.1171875 0.128907,-0.1289062 0.128907,-0.1640625 0,-0.070312 -0.03516,-0.1054687 -0.09375,-0.1054687 -0.105469,0 -0.996094,0.6796875 -1.582032,1.9453125 -0.515625,1.1015625 -0.632812,2.203125 -0.632812,3.0351562 0,0.7851563 0.117187,1.99218754 0.65625,3.11718754 0.597656,1.21874996 1.453125,1.87499996 1.558594,1.87499996 0.05859,0 0.09375,-0.035156 0.09375,-0.1054687 z m 0,0"
         style="fill:#000000;fill-opacity:1;fill-rule:nonzero;stroke:none" />
      <path
         id="path12"
         d="m 79.825539,-0.58694531 c -0.03516,0.15234375 -0.09375,0.375 -0.09375,0.421875 0,0.1875 0.140625,0.26953125 0.292969,0.26953125 0.117187,0 0.292969,-0.0703125 0.363281,-0.26953125 0.01172,-0.0234375 0.128906,-0.4921875 0.1875,-0.73828125 l 0.222656,-0.90234374 c 0.05859,-0.2226563 0.117188,-0.4335938 0.175782,-0.6679688 0.03516,-0.1640625 0.117187,-0.4570312 0.128906,-0.4921875 0.140625,-0.3164062 0.667969,-1.21875 1.617187,-1.21875 0.445313,0 0.539063,0.3632813 0.539063,0.6914063 0,0.2578125 -0.07031,0.5390625 -0.152344,0.8320312 l -0.269531,1.1601563 -0.199219,0.74999999 c -0.04687,0.19921875 -0.140625,0.5390625 -0.140625,0.5859375 0,0.1875 0.140625,0.26953125 0.292969,0.26953125 0.304687,0 0.375,-0.24609375 0.445312,-0.5625 0.140625,-0.56250004 0.515625,-2.01562504 0.597657,-2.40234374 0.03516,-0.1289063 0.5625,-1.3242188 1.652343,-1.3242188 0.421875,0 0.539063,0.3398438 0.539063,0.6914063 0,0.5742187 -0.421875,1.7109375 -0.621094,2.2382812 -0.09375,0.234375 -0.128906,0.35156254 -0.128906,0.55078129 0,0.46875 0.351562,0.80859375 0.808594,0.80859375 0.9375,0 1.3125,-1.45312504 1.3125,-1.53515624 0,-0.09375 -0.09375,-0.09375 -0.117188,-0.09375 -0.105469,0 -0.105469,0.023437 -0.152344,0.1757812 -0.152343,0.52734379 -0.46875,1.24218754 -1.019531,1.24218754 -0.164062,0 -0.234375,-0.10546875 -0.234375,-0.328125 0,-0.2578125 0.08203,-0.4921875 0.175781,-0.71484374 0.1875,-0.515625 0.609375,-1.6171875 0.609375,-2.1914063 0,-0.6445312 -0.398437,-1.0664062 -1.148437,-1.0664062 -0.75,0 -1.253906,0.4453125 -1.617188,0.9726562 -0.01172,-0.1289062 -0.04687,-0.46875 -0.328125,-0.7148437 -0.246093,-0.1992188 -0.5625,-0.2578125 -0.808593,-0.2578125 -0.902344,0 -1.382813,0.6445312 -1.558594,0.8671875 -0.04687,-0.5625 -0.46875,-0.8671875 -0.914063,-0.8671875 -0.457031,0 -0.644531,0.3867187 -0.738281,0.5742187 -0.175781,0.3398438 -0.304687,0.9375 -0.304687,0.9609375 0,0.1054688 0.09375,0.1054688 0.117187,0.1054688 0.09375,0 0.105469,-0.011719 0.164063,-0.234375 0.175781,-0.703125 0.375,-1.1835938 0.726562,-1.1835938 0.164063,0 0.316406,0.082031 0.316406,0.4570313 0,0.2109375 -0.03516,0.3164062 -0.164062,0.8320312 z m 9.896484,0.57421875 c 0,-0.65625 -0.257812,-1.04296874 -0.644531,-1.04296874 -0.328125,0 -0.527344,0.24609374 -0.527344,0.52734374 0,0.26953125 0.199219,0.52734375 0.527344,0.52734375 0.117188,0 0.246094,-0.03515625 0.351563,-0.12890625 0.02344,-0.0234375 0.03516,-0.0351563 0.04687,-0.0351563 0.01172,0 0.02344,0.0117188 0.02344,0.15234375 0,0.73828125 -0.351562,1.33593741 -0.679687,1.66406241 -0.105469,0.1054688 -0.105469,0.1289063 -0.105469,0.1640625 0,0.070312 0.04687,0.1054688 0.09375,0.1054688 0.117187,0 0.914062,-0.7617188 0.914062,-1.93359371 z m 5.208985,-6.21093754 c 0,-0.1992187 -0.128906,-0.3632812 -0.363281,-0.3632812 -0.269532,0 -0.539063,0.2578125 -0.539063,0.5273437 0,0.1875 0.140625,0.3632813 0.375,0.3632813 0.234375,0 0.527344,-0.234375 0.527344,-0.5273438 z m -0.75,3.7382813 c 0.117187,-0.28125 0.117187,-0.3046875 0.222656,-0.5742188 0.07031,-0.1992187 0.128906,-0.3398437 0.128906,-0.5273437 0,-0.4453125 -0.328125,-0.8203125 -0.820312,-0.8203125 -0.9375,0 -1.3125,1.453125 -1.3125,1.5351562 0,0.1054688 0.09375,0.1054688 0.117187,0.1054688 0.09375,0 0.105469,-0.023437 0.152344,-0.1875 0.269531,-0.9375 0.667969,-1.2304688 1.007813,-1.2304688 0.08203,0 0.257812,0 0.257812,0.3164063 0,0.2109375 -0.07031,0.421875 -0.117187,0.515625 -0.08203,0.2578125 -0.527344,1.4179687 -0.679688,1.8515625 -0.105469,0.2578125 -0.234375,0.58593749 -0.234375,0.79687499 0,0.46875 0.339844,0.80859375 0.820313,0.80859375 0.9375,0 1.300781,-1.44140624 1.300781,-1.53515624 0,-0.09375 -0.09375,-0.09375 -0.117188,-0.09375 -0.105468,0 -0.105468,0.023437 -0.152343,0.1757812 -0.175782,0.63281254 -0.503907,1.24218754 -1.019532,1.24218754 -0.164062,0 -0.234375,-0.10546875 -0.234375,-0.328125 0,-0.2578125 0.05859,-0.3984375 0.292969,-0.99609374 z m 0,0"
         style="fill:#000000;fill-opacity:1;fill-rule:nonzero;stroke:none" />
      <path
         id="path13"
         d="m 98.437844,-2.4971016 c 0,-0.7734375 -0.117188,-1.9804687 -0.65625,-3.1054687 -0.597656,-1.21875 -1.464844,-1.875 -1.558594,-1.875 -0.05859,0 -0.105469,0.046875 -0.105469,0.1054687 0,0.035156 0,0.046875 0.199219,0.234375 0.972656,0.984375 1.535156,2.5664063 1.535156,4.640625 0,1.71093754 -0.363281,3.45703129 -1.59375,4.7226563 -0.140625,0.1171875 -0.140625,0.1289062 -0.140625,0.1640625 0,0.058594 0.04687,0.1054687 0.105469,0.1054687 0.09375,0 0.996094,-0.6796875 1.582031,-1.94531246 0.503907,-1.1015625 0.632813,-2.20312504 0.632813,-3.04687504 z m 0,0"
         style="fill:#000000;fill-opacity:1;fill-rule:nonzero;stroke:none" />
      <path
         id="path14"
         d="m 107.65757,-2.2978828 c 0.16406,0 0.35156,0 0.35156,-0.1992188 0,-0.1992187 -0.1875,-0.1992187 -0.35156,-0.1992187 h -4.23047 c 0.12891,-1.3242188 1.26563,-2.2851563 2.67188,-2.2851563 h 1.55859 c 0.16406,0 0.35156,0 0.35156,-0.1992187 0,-0.1992188 -0.1875,-0.1992188 -0.35156,-0.1992188 h -1.57031 c -1.71094,0 -3.0586,1.2890625 -3.0586,2.8828125 0,1.59375004 1.34766,2.89453129 3.0586,2.89453129 h 1.57031 c 0.16406,0 0.35156,0 0.35156,-0.19921875 0,-0.19921875 -0.1875,-0.19921875 -0.35156,-0.19921875 h -1.55859 c -1.40625,0 -2.54297,-0.9609375 -2.67188,-2.29687499 z m 0,0"
         style="fill:#000000;fill-opacity:1;fill-rule:nonzero;stroke:none" />
      <path
         id="path15"
         d="m 119.17417,-6.9267891 c 0,-0.023437 -0.0234,-0.09375 -0.10547,-0.09375 -0.0352,0 -0.0469,0.011719 -0.15234,0.1171875 l -0.70313,0.7617188 c -0.082,-0.140625 -0.53906,-0.8789063 -1.65234,-0.8789063 -2.21484,0 -4.45312,2.203125 -4.45312,4.5117188 0,1.64062499 1.17187,2.73046874 2.69531,2.73046874 0.86719,0 1.61719,-0.3984375 2.14453,-0.85546875 0.9375,-0.82031249 1.10156,-1.72265629 1.10156,-1.75781249 0,-0.1054688 -0.10547,-0.1054688 -0.11719,-0.1054688 -0.0586,0 -0.11718,0.023437 -0.1289,0.1054688 -0.0937,0.2929687 -0.31641,0.9960937 -1.00781,1.57031249 -0.69141,0.5625 -1.3125,0.7265625 -1.83985,0.7265625 -0.89062,0 -1.94531,-0.515625 -1.94531,-2.06249999 0,-0.5742188 0.21094,-2.1914063 1.20703,-3.3515625 0.60938,-0.703125 1.53516,-1.2070313 2.42578,-1.2070313 1.01953,0 1.60547,0.7734375 1.60547,1.921875 0,0.3984375 -0.0352,0.4101563 -0.0352,0.5039063 0,0.1054687 0.11719,0.1054687 0.15235,0.1054687 0.1289,0 0.1289,-0.023437 0.17578,-0.1992187 z m 1.73145,6.91406254 c 0,-0.65625 -0.25782,-1.04296874 -0.64453,-1.04296874 -0.32813,0 -0.52735,0.24609374 -0.52735,0.52734374 0,0.26953125 0.19922,0.52734375 0.52735,0.52734375 0.11718,0 0.24609,-0.03515625 0.35156,-0.12890625 0.0234,-0.0234375 0.0352,-0.0351563 0.0469,-0.0351563 0.0117,0 0.0234,0.0117188 0.0234,0.15234375 0,0.73828125 -0.35156,1.33593741 -0.67969,1.66406241 -0.10547,0.1054688 -0.10547,0.1289063 -0.10547,0.1640625 0,0.070312 0.0469,0.1054688 0.0937,0.1054688 0.11719,0 0.91407,-0.7617188 0.91407,-1.93359371 z m 0,0"
         style="fill:#000000;fill-opacity:1;fill-rule:nonzero;stroke:none" />
      <path
         id="path16"
         d="m 128.7982,-6.5400703 c 0.0586,-0.1054688 0.0586,-0.1289063 0.0586,-0.1757813 0,-0.09375 -0.082,-0.1992187 -0.19922,-0.1992187 -0.12891,0 -0.19922,0.1171875 -0.23437,0.234375 l -0.82032,2.1914062 h -3.03515 l -0.82032,-2.1914062 c -0.0586,-0.140625 -0.10546,-0.234375 -0.23437,-0.234375 -0.0937,0 -0.19922,0.1054687 -0.19922,0.1992187 0,0.023437 0,0.035156 0.0586,0.1757813 l 2.48438,6.52734374 c 0.0469,0.140625 0.0937,0.234375 0.22266,0.234375 0.14062,0 0.1875,-0.1171875 0.22265,-0.2109375 z m -4.06641,2.4492187 h 2.70703 l -1.35937,3.53906254 z m 0,0"
         style="fill:#000000;fill-opacity:1;fill-rule:nonzero;stroke:none" />
      <path
         id="path17"
         d="m 133.59409,-2.3564766 c 0,-1.5585937 -0.92578,-2.0507812 -1.65234,-2.0507812 -1.37109,0 -2.68359,1.4296875 -2.68359,2.8359375 0,0.92578124 0.59765,1.67578124 1.61718,1.67578124 0.6211,0 1.33594,-0.22265625 2.09766,-0.83203125 0.12891,0.52734375 0.45703,0.83203125 0.90234,0.83203125 0.52735,0 0.84375,-0.5390625 0.84375,-0.703125 0,-0.0703125 -0.0586,-0.10546875 -0.1289,-0.10546875 -0.0586,0 -0.0937,0.0351563 -0.12891,0.10546875 -0.17578,0.4921875 -0.52734,0.4921875 -0.55078,0.4921875 -0.31641,0 -0.31641,-0.78515625 -0.31641,-1.01953124 0,-0.2109375 0,-0.234375 0.10547,-0.3515625 0.9375,-1.171875 1.14844,-2.3320313 1.14844,-2.34375 0,-0.011719 -0.0117,-0.09375 -0.11719,-0.09375 -0.10547,0 -0.10547,0.023437 -0.15234,0.2109375 -0.1875,0.6210937 -0.51563,1.3828125 -0.98438,1.96875 z m -0.65625,1.37109379 c -0.8789,0.76171875 -1.65234,0.87890625 -2.05078,0.87890625 -0.59765,0 -0.89062,-0.45703125 -0.89062,-1.08984374 0,-0.4921875 0.25781,-1.5585938 0.57422,-2.0742188 0.46875,-0.7265625 1.00781,-0.9140625 1.35937,-0.9140625 0.98438,0 0.98438,1.3007813 0.98438,2.0859375 0,0.3632813 0,0.9375 0.0234,1.11328129 z m 0,0"
         style="fill:#000000;fill-opacity:1;fill-rule:nonzero;stroke:none" />
      <path
         id="path18"
         d="m 143.48472,-2.2978828 c 0.16406,0 0.35156,0 0.35156,-0.1992188 0,-0.1992187 -0.1875,-0.1992187 -0.35156,-0.1992187 h -4.23047 c 0.12891,-1.3242188 1.26563,-2.2851563 2.67188,-2.2851563 h 1.55859 c 0.16406,0 0.35156,0 0.35156,-0.1992187 0,-0.1992188 -0.1875,-0.1992188 -0.35156,-0.1992188 h -1.57031 c -1.71094,0 -3.0586,1.2890625 -3.0586,2.8828125 0,1.59375004 1.34766,2.89453129 3.0586,2.89453129 h 1.57031 c 0.16406,0 0.35156,0 0.35156,-0.19921875 0,-0.19921875 -0.1875,-0.19921875 -0.35156,-0.19921875 h -1.55859 c -1.40625,0 -2.54297,-0.9609375 -2.67188,-2.29687499 z m 6.75879,-3.84375 c 0,-0.3984375 0.25781,-1.0429688 1.33594,-1.1132813 0.0586,-0.011719 0.0937,-0.046875 0.0937,-0.1054687 0,-0.1171875 -0.082,-0.1171875 -0.1875,-0.1171875 -0.9961,0 -1.91016,0.515625 -1.91016,1.2539062 v 2.2734375 c 0,0.3867188 0,0.703125 -0.39844,1.03125 -0.35156,0.2929688 -0.72656,0.3046875 -0.94922,0.3164063 -0.0469,0.011719 -0.0937,0.046875 -0.0937,0.1054687 0,0.1054688 0.0586,0.1054688 0.16407,0.1171875 0.65625,0.035156 1.13671,0.3984375 1.24218,0.8789063 0.0352,0.1171875 0.0352,0.140625 0.0352,0.4921875 v 1.96874999 c 0,0.42187501 0,0.73828121 0.46875,1.12500001 0.39844,0.2929687 1.05469,0.4101562 1.44141,0.4101562 0.10546,0 0.1875,0 0.1875,-0.1171875 0,-0.09375 -0.0586,-0.09375 -0.16407,-0.1054687 -0.62109,-0.046875 -1.11328,-0.3632813 -1.24218,-0.8671875 -0.0234,-0.09375 -0.0234,-0.1054688 -0.0234,-0.46875001 V -1.1611641 c 0,-0.4570312 -0.082,-0.6210937 -0.39844,-0.9375 -0.21094,-0.2109375 -0.50391,-0.3164062 -0.78516,-0.3984375 0.82032,-0.2226562 1.1836,-0.6796875 1.1836,-1.2539062 z m 0,0"
         style="fill:#000000;fill-opacity:1;fill-rule:nonzero;stroke:none" />
      <path
         id="path19"
         d="m 153.68003,-0.76272656 1.05469,-1.03125004 c 1.55859,-1.3710937 2.15625,-1.9101562 2.15625,-2.90625 0,-1.1367187 -0.90234,-1.9335937 -2.12109,-1.9335937 -1.125,0 -1.85157,0.9140625 -1.85157,1.8046875 0,0.5507812 0.49219,0.5507812 0.52735,0.5507812 0.16406,0 0.51562,-0.1171875 0.51562,-0.5273437 0,-0.2578125 -0.1875,-0.515625 -0.52734,-0.515625 -0.082,0 -0.10547,0 -0.12891,0.011719 0.22266,-0.6445312 0.76172,-1.0195312 1.33594,-1.0195312 0.91406,0 1.33594,0.8085937 1.33594,1.6289062 0,0.796875 -0.49219,1.5820313 -1.04297,2.203125 l -1.91016,2.13281254 c -0.10547,0.10546875 -0.10547,0.12890625 -0.10547,0.36328125 h 3.69141 l 0.28125,-1.73437499 h -0.25781 c -0.0469,0.3046875 -0.11719,0.73828124 -0.21094,0.89062499 -0.0703,0.0820313 -0.72656,0.0820313 -0.94922,0.0820313 z m 0,0"
         style="fill:#000000;fill-opacity:1;fill-rule:nonzero;stroke:none" />
      <path
         id="path20"
         d="m 159.42515,-0.01272656 c 0,-0.65625 -0.25781,-1.04296874 -0.64453,-1.04296874 -0.32813,0 -0.52735,0.24609374 -0.52735,0.52734374 0,0.26953125 0.19922,0.52734375 0.52735,0.52734375 0.11718,0 0.24609,-0.03515625 0.35156,-0.12890625 0.0234,-0.0234375 0.0352,-0.0351563 0.0469,-0.0351563 0.0117,0 0.0234,0.0117188 0.0234,0.15234375 0,0.73828125 -0.35156,1.33593741 -0.67969,1.66406241 -0.10546,0.1054688 -0.10546,0.1289063 -0.10546,0.1640625 0,0.070312 0.0469,0.1054688 0.0937,0.1054688 0.11718,0 0.91406,-0.7617188 0.91406,-1.93359371 z m 0,0"
         style="fill:#000000;fill-opacity:1;fill-rule:nonzero;stroke:none" />
      <path
         id="path21"
         d="m 164.71909,-3.5049141 c 0.8086,-0.2695312 1.39454,-0.9726562 1.39454,-1.7578125 0,-0.8203125 -0.87891,-1.3710937 -1.83985,-1.3710937 -1.00781,0 -1.75781,0.5976562 -1.75781,1.3476562 0,0.3398438 0.21094,0.5273438 0.50391,0.5273438 0.30468,0 0.5039,-0.2226563 0.5039,-0.515625 0,-0.4921875 -0.46875,-0.4921875 -0.60937,-0.4921875 0.30468,-0.4921875 0.96093,-0.6210938 1.32422,-0.6210938 0.41015,0 0.94921,0.2226563 0.94921,1.1132813 0,0.1289062 -0.0117,0.703125 -0.26953,1.1367187 -0.30468,0.4804688 -0.64453,0.515625 -0.89062,0.515625 -0.082,0.011719 -0.31641,0.035156 -0.38672,0.035156 -0.082,0.011719 -0.15234,0.023437 -0.15234,0.1171875 0,0.1171875 0.0703,0.1171875 0.23437,0.1171875 h 0.44531 c 0.8086,0 1.1836,0.6679687 1.1836,1.6523437 0,1.34765629 -0.69141,1.64062504 -1.125,1.64062504 -0.4336,0 -1.17188,-0.17578125 -1.52344,-0.76171875 0.35156,0.0585938 0.65625,-0.1640625 0.65625,-0.53906249 0,-0.3632813 -0.26953,-0.5625 -0.5625,-0.5625 -0.23438,0 -0.55078,0.140625 -0.55078,0.5742187 0,0.91406254 0.92578,1.57031254 2.0039,1.57031254 1.21875,0 2.1211,-0.9140625 2.1211,-1.92187504 0,-0.8203125 -0.6211,-1.59375 -1.65235,-1.8046872 z m 0,0"
         style="fill:#000000;fill-opacity:1;fill-rule:nonzero;stroke:none" />
      <path
         id="path22"
         d="m 168.83238,-0.01272656 c 0,-0.65625 -0.25782,-1.04296874 -0.64454,-1.04296874 -0.32812,0 -0.52734,0.24609374 -0.52734,0.52734374 0,0.26953125 0.19922,0.52734375 0.52734,0.52734375 0.11719,0 0.2461,-0.03515625 0.35157,-0.12890625 0.0234,-0.0234375 0.0351,-0.0351563 0.0469,-0.0351563 0.0117,0 0.0234,0.0117188 0.0234,0.15234375 0,0.73828125 -0.35156,1.33593741 -0.67969,1.66406241 -0.10547,0.1054688 -0.10547,0.1289063 -0.10547,0.1640625 0,0.070312 0.0469,0.1054688 0.0937,0.1054688 0.11719,0 0.91407,-0.7617188 0.91407,-1.93359371 z m 0,0"
         style="fill:#000000;fill-opacity:1;fill-rule:nonzero;stroke:none" />
      <path
         id="path23"
         d="m 174.16441,-1.6416328 v 0.86718749 c 0,0.3515625 -0.0234,0.46875 -0.76172,0.46875 h -0.21094 v 0.3046875 c 0.41016,-0.03515625 0.9375,-0.03515625 1.34766,-0.03515625 0.42187,0 0.94922,0 1.35937,0.03515625 v -0.3046875 h -0.21094 c -0.73828,0 -0.76171,-0.1171875 -0.76171,-0.46875 V -1.6416328 h 0.99609 v -0.3164063 h -0.99609 v -4.5234375 c 0,-0.1992187 0,-0.2578125 -0.15235,-0.2578125 -0.0937,0 -0.11719,0 -0.19922,0.1171875 l -3.05859,4.6640625 v 0.3164063 z m 0.0586,-0.3164063 h -2.42578 l 2.42578,-3.7148437 z m 0,0"
         style="fill:#000000;fill-opacity:1;fill-rule:nonzero;stroke:none" />
      <path
         id="path24"
         d="m 178.37144,1.1591484 c 0,0.3984375 -0.25781,1.0429688 -1.34766,1.1132813 -0.0469,0.011719 -0.0937,0.046875 -0.0937,0.1054687 0,0.1171875 0.11719,0.1171875 0.19922,0.1171875 0.97266,0 1.89844,-0.4921875 1.91016,-1.2539062 v -2.2734375 c 0,-0.3867188 0,-0.703125 0.39843,-1.03125 0.33985,-0.2929688 0.72657,-0.3046875 0.9375,-0.3164063 0.0586,-0.011719 0.0937,-0.046875 0.0937,-0.1171875 0,-0.09375 -0.0586,-0.09375 -0.16406,-0.1054687 -0.65625,-0.035156 -1.13672,-0.3984375 -1.24219,-0.890625 -0.0234,-0.1054688 -0.0234,-0.1289063 -0.0234,-0.4804688 v -1.96875 c 0,-0.421875 0,-0.7382812 -0.48047,-1.125 -0.39844,-0.3046875 -1.08985,-0.4101562 -1.42969,-0.4101562 -0.082,0 -0.19922,0 -0.19922,0.1171875 0,0.09375 0.0586,0.09375 0.16406,0.1054687 0.6211,0.046875 1.11329,0.3632813 1.24219,0.8671875 0.0352,0.09375 0.0352,0.1054688 0.0352,0.46875 v 2.0976563 c 0,0.4570312 0.0703,0.6210937 0.39844,0.9375 0.19921,0.2109375 0.49218,0.3164062 0.77343,0.3867187 -0.82031,0.234375 -1.17187,0.6914063 -1.17187,1.265625 z m 0,0"
         style="fill:#000000;fill-opacity:1;fill-rule:nonzero;stroke:none" />
    </g>
  </g>
</svg>
