<?xml version="1.0" encoding="UTF-8" standalone="no"?>
<!-- Created with Inkscape (http://www.inkscape.org/) -->

<svg
   version="1.1"
   id="svg1"
   width="370.08984"
   height="19.75"
   viewBox="0 0 370.08984 19.75"
   sodipodi:docname="Formulas.pdf"
   xmlns:inkscape="http://www.inkscape.org/namespaces/inkscape"
   xmlns:sodipodi="http://sodipodi.sourceforge.net/DTD/sodipodi-0.dtd"
   xmlns="http://www.w3.org/2000/svg"
   xmlns:svg="http://www.w3.org/2000/svg">
  <defs
     id="defs1" />
  <sodipodi:namedview
     id="namedview1"
     pagecolor="#ffffff"
     bordercolor="#000000"
     borderopacity="0.25"
     inkscape:showpageshadow="2"
     inkscape:pageopacity="0.0"
     inkscape:pagecheckerboard="0"
     inkscape:deskcolor="#d1d1d1" />
  <g
     id="g1"
     inkscape:groupmode="layer"
     inkscape:label="1"
     transform="translate(-342.9375,-112.30859)">
    <g
       id="g2"
       aria-label="T&#10;Q&#10;(m,i+1)&#10;≥T&#10;Q&#10;(m,i)&#10;+G&#10;Q&#10;(m,i)&#10;+S&#10;Q&#10;(m,i)(m,i+1)&#10;,∀(m,i),(m,i+1)∈C"
       transform="matrix(1.3333333,0,0,1.3333333,342.624,125.224)">
      <path
         id="path2"
         d="m 4.2546563,-6.0478828 c 0.070312,-0.28125 0.1054687,-0.3398438 0.234375,-0.3632813 0.082031,-0.023437 0.4101562,-0.023437 0.6210937,-0.023437 1.0078125,0 1.453125,0.035156 1.453125,0.8203125 0,0.140625 -0.035156,0.5273438 -0.082031,0.796875 0,0.035156 -0.023437,0.1523438 -0.023437,0.1875 0,0.058594 0.023437,0.1289063 0.1171875,0.1289063 0.1054687,0 0.1289062,-0.082031 0.1523437,-0.234375 l 0.2695313,-1.734375 c 0.011719,-0.035156 0.011719,-0.140625 0.011719,-0.1640625 0,-0.1054688 -0.09375,-0.1054688 -0.2695312,-0.1054688 H 1.2195 c -0.24609375,0 -0.2578125,0 -0.31640625,0.1992188 L 0.3054375,-4.7939766 c -0.0117188,0.023437 -0.0703125,0.1640625 -0.0703125,0.1757813 0,0.070312 0.0585937,0.1171875 0.12890625,0.1171875 0.09375,0 0.10546875,-0.046875 0.1640625,-0.2109375 C 1.0671563,-6.2588203 1.3249688,-6.4346016 2.8015313,-6.4346016 H 3.18825 c 0.28125,0 0.28125,0.035156 0.28125,0.1171875 0,0.058594 -0.035156,0.1757813 -0.046875,0.2109375 l -1.3242187,5.32031254 c -0.09375,0.36328125 -0.1289063,0.48046875 -1.19531255,0.48046875 -0.3515625,0 -0.41015625,0 -0.41015625,0.1875 0,0.1171875 0.10546875,0.1171875 0.1640625,0.1171875 0.26953125,0 0.5507813,-0.0234375 0.8203125,-0.0234375 0.28125,0 0.5625,-0.01171875 0.84375,-0.01171875 0.28125,0 0.5625,0.01171875 0.8320313,0.01171875 0.28125,0 0.5859375,0.0234375 0.8671875,0.0234375 0.09375,0 0.2109375,0 0.2109375,-0.19921875 0,-0.10546875 -0.082031,-0.10546875 -0.3398438,-0.10546875 -0.2460937,0 -0.375,0 -0.6328125,-0.0234375 -0.2929687,-0.0351563 -0.3632812,-0.0585938 -0.3632812,-0.22265625 0,-0.0117188 0,-0.0585938 0.035156,-0.2109375 z m 0,0"
         style="fill:#000000;fill-opacity:1;fill-rule:nonzero;stroke:none" />
      <path
         id="path3"
         d="m 10.450945,-4.3662422 c 0,0.4453125 0.08203,0.9257813 0.65625,0.9257813 0.84375,0 1.253907,-1.1953125 1.253907,-1.3476563 0,-0.046875 -0.04687,-0.09375 -0.105469,-0.09375 -0.07031,0 -0.08203,0.058594 -0.09375,0.082031 -0.164063,0.4921875 -0.632813,0.6328125 -0.867188,0.6328125 -0.28125,0 -0.421875,-0.1171875 -0.550781,-0.6796875 1.242188,-0.4335938 2.238281,-1.6757813 2.238281,-2.90625 0,-1.0898438 -0.785156,-1.9335938 -2.015625,-1.9335938 -1.6640622,0 -3.2812497,1.5585938 -3.2812497,3.1289063 0,1.125 0.8320313,1.9101562 2.0273438,1.9101562 0.140625,0 0.3749999,-0.011719 0.7382809,-0.09375 z M 9.2439141,-4.9638984 C 8.8806328,-5.0928047 8.3650078,-5.4560859 8.3650078,-6.3818672 c 0,-0.4453125 0.140625,-1.3710937 0.7734375,-2.1679687 0.4453125,-0.5390625 1.1249997,-0.9140625 1.7695317,-0.9140625 0.761718,0 1.40625,0.5039062 1.40625,1.5234375 0,0.703125 -0.351563,2.1914062 -1.617188,2.8359375 -0.117187,-0.4453125 -0.292969,-0.7382813 -0.7148437,-0.7382813 -0.3867187,0 -0.7734375,0.328125 -0.7734375,0.703125 0,0.1171875 0.011719,0.1289063 0.035156,0.1757813 z m 1.2070309,-0.035156 c -0.152343,0.058594 -0.410156,0.1289063 -0.6914059,0.1289063 -0.1054688,0 -0.3515625,0 -0.3515625,-0.2695313 0,-0.2695312 0.28125,-0.5039062 0.5742187,-0.5039062 0.2578127,0 0.4453127,0.1054687 0.4687497,0.6445312 z m 0,0"
         style="fill:#000000;fill-opacity:1;fill-rule:nonzero;stroke:none" />
      <path
         id="path4"
         d="m 8.2946953,-1.8349922 c -1.3242187,0.92578126 -1.6757812,2.41406251 -1.6757812,3.4804688 0,0.984375 0.2929687,2.5078125 1.6757812,3.4804687 0.058594,0 0.140625,0 0.140625,-0.082031 0,-0.046875 -0.023437,-0.058594 -0.070312,-0.1054688 -0.9257812,-0.8320312 -1.265625,-2.015625 -1.265625,-3.2929687 0,-1.87500004 0.7148438,-2.8007813 1.2890625,-3.3164063 0.023437,-0.023437 0.046875,-0.046875 0.046875,-0.082031 0,-0.082031 -0.082031,-0.082031 -0.1406255,-0.082032 z m 0,0"
         style="fill:#000000;fill-opacity:1;fill-rule:nonzero;stroke:none" />
      <path
         id="path5"
         d="m 11.959734,2.8290703 c -0.03516,0.140625 -0.09375,0.375 -0.09375,0.4101563 0,0.1523437 0.128907,0.2226562 0.234375,0.2226562 0.128907,0 0.234375,-0.09375 0.269532,-0.1523437 0.03516,-0.058594 0.09375,-0.2929688 0.128906,-0.4335938 0.03516,-0.1289062 0.117187,-0.4570312 0.152344,-0.6328125 0.04687,-0.1523437 0.08203,-0.3046875 0.117187,-0.4570312 0.08203,-0.3046875 0.08203,-0.3164063 0.222656,-0.5390625 0.222657,-0.33984379 0.5625,-0.73828129 1.113282,-0.73828129 0.386718,0 0.410156,0.328125 0.410156,0.49218749 0,0.421875 -0.304688,1.1953125 -0.410156,1.4882813 -0.08203,0.1875 -0.105469,0.2578125 -0.105469,0.375 0,0.3632812 0.304687,0.5976562 0.65625,0.5976562 0.703125,0 1.007812,-0.9609375 1.007812,-1.0664062 0,-0.09375 -0.09375,-0.09375 -0.105468,-0.09375 -0.105469,0 -0.105469,0.046875 -0.140625,0.1171875 -0.152344,0.5625 -0.457032,0.84375 -0.738282,0.84375 -0.140625,0 -0.175781,-0.09375 -0.175781,-0.2460938 0,-0.1523437 0.03516,-0.2460937 0.164063,-0.5625 0.08203,-0.2109375 0.375,-0.9492187 0.375,-1.3476562 0,-0.1054688 0,-0.39843754 -0.257813,-0.59765629 -0.128906,-0.09375 -0.328125,-0.1875 -0.65625,-0.1875 -0.621094,0 -1.007812,0.41015625 -1.230469,0.70312499 -0.05859,-0.59765624 -0.550781,-0.70312499 -0.902343,-0.70312499 -0.585938,0 -0.972657,0.3515625 -1.183594,0.6328125 -0.04687,-0.48046875 -0.457031,-0.6328125 -0.75,-0.6328125 -0.2929689,0 -0.4570314,0.2109375 -0.5507814,0.375 -0.1523437,0.2578125 -0.2460937,0.65624999 -0.2460937,0.69140629 0,0.082031 0.09375,0.082031 0.1171875,0.082031 0.09375,0 0.1054687,-0.011719 0.1523437,-0.1992187 0.1054688,-0.42187504 0.234375,-0.76171879 0.5156249,-0.76171879 0.175781,0 0.222656,0.15234375 0.222656,0.33984375 0,0.140625 -0.05859,0.39843754 -0.105468,0.58593754 -0.04687,0.1875 -0.117188,0.46875 -0.152344,0.6210937 l -0.2226564,0.902344 c -0.035156,0.082031 -0.070312,0.2578125 -0.070312,0.28125 0,0.1523437 0.1171875,0.2226562 0.234375,0.2226562 0.1289064,0 0.2343754,-0.09375 0.2695314,-0.1523437 0.03516,-0.058594 0.09375,-0.2929688 0.128907,-0.4335938 0.03516,-0.1289062 0.105468,-0.4570312 0.152343,-0.6328125 0.03516,-0.1523437 0.08203,-0.3046875 0.117188,-0.4570312 0.08203,-0.2929688 0.09375,-0.3515625 0.292969,-0.6328125 0.199218,-0.28125004 0.527343,-0.64453129 1.042968,-0.64453129 0.410157,0 0.410157,0.36328125 0.410157,0.49218749 0,0.1757813 -0.01172,0.2695313 -0.117189,0.65625 z m 5.516602,0.4453125 c 0,0.3867188 -0.07031,0.8320313 -0.550781,1.2773438 -0.02344,0.035156 -0.04687,0.058594 -0.04687,0.09375 0,0.046875 0.05859,0.09375 0.09375,0.09375 0.105468,0 0.691406,-0.5625 0.691406,-1.3945313 0,-0.421875 -0.164063,-0.75 -0.480469,-0.75 -0.234375,0 -0.398437,0.1757813 -0.398437,0.3867188 0,0.234375 0.152343,0.4101562 0.398437,0.4101562 0.164063,0 0.28125,-0.1171875 0.292969,-0.1171875 z m 3.149414,-4.24218749 c 0,-0.10546871 -0.08203,-0.25781251 -0.28125,-0.25781251 -0.1875,0 -0.386719,0.1757813 -0.386719,0.37500001 0,0.1171875 0.08203,0.26953125 0.269532,0.26953125 0.210937,0 0.398437,-0.19921875 0.398437,-0.38671875 z M 19.196063,2.5712578 c -0.02344,0.09375 -0.05859,0.1757813 -0.05859,0.2929688 0,0.328125 0.28125,0.5976562 0.667969,0.5976562 0.691406,0 0.996093,-0.9609375 0.996093,-1.0664062 0,-0.09375 -0.08203,-0.09375 -0.105468,-0.09375 -0.105469,0 -0.105469,0.046875 -0.140625,0.1171875 -0.152344,0.5625 -0.457032,0.84375 -0.738282,0.84375 -0.140625,0 -0.175781,-0.082031 -0.175781,-0.2460938 0,-0.1523437 0.05859,-0.2929687 0.117188,-0.4453125 0.07031,-0.1875 0.140625,-0.375 0.222656,-0.5507812 0.05859,-0.1640625 0.316406,-0.8085938 0.339844,-0.890625 0.02344,-0.070312 0.04687,-0.15234379 0.04687,-0.22265629 0,-0.328125 -0.28125,-0.5859375 -0.667969,-0.5859375 -0.691406,0 -1.007813,0.94921879 -1.007813,1.06640629 0,0.082031 0.09375,0.082031 0.117188,0.082031 0.09375,0 0.105469,-0.035156 0.128906,-0.1054687 0.175781,-0.59765629 0.480469,-0.85546879 0.738281,-0.85546879 0.117188,0 0.175782,0.0585938 0.175782,0.24609375 0,0.1640625 -0.03516,0.26953124 -0.210938,0.70312504 z m 0,0"
         style="fill:#000000;fill-opacity:1;fill-rule:nonzero;stroke:none" />
      <path
         id="path6"
         d="m 24.410906,1.8212578 h 2.144532 c 0.08203,0 0.257812,0 0.257812,-0.1757812 0,-0.1757813 -0.164062,-0.1757813 -0.257812,-0.1757813 h -2.144532 v -2.13281249 c 0,-0.09375 0,-0.2578125 -0.164062,-0.2578125 -0.175781,0 -0.175781,0.15234375 -0.175781,0.2578125 V 1.4696953 H 21.93825 c -0.09375,0 -0.257812,0 -0.257812,0.1757813 0,0.1757812 0.152343,0.1757812 0.257812,0.1757812 h 2.132813 v 2.1328125 c 0,0.09375 0,0.2578125 0.175781,0.2578125 0.164062,0 0.164062,-0.1523437 0.164062,-0.2578125 z m 5.226563,-2.859375 c 0,-0.1875 -0.01172,-0.1992187 -0.210938,-0.1992187 -0.445312,0.43359371 -1.078125,0.44531246 -1.359375,0.44531246 v 0.24609375 c 0.164063,0 0.621094,0 1.007813,-0.1875 V 2.8173516 c 0,0.234375 0,0.328125 -0.691406,0.328125 h -0.269532 v 0.2460937 c 0.128907,-0.011719 0.984375,-0.023437 1.242188,-0.023437 0.210937,0 1.089844,0.011719 1.242187,0.023437 V 3.1454766 h -0.257812 c -0.703125,0 -0.703125,-0.09375 -0.703125,-0.328125 z m 2.267578,-0.796875 c -0.05859,0 -0.140625,0 -0.140625,0.082031 0,0.035156 0.02344,0.058594 0.07031,0.1054687 0.597657,0.5507813 1.265625,1.48828126 1.265625,3.2929688 0,1.453125 -0.457031,2.5546875 -1.207031,3.234375 -0.117187,0.1171875 -0.128906,0.1289062 -0.128906,0.1640625 0,0.035156 0.02344,0.082031 0.09375,0.082031 0.08203,0 0.75,-0.4570312 1.207031,-1.3242187 0.304688,-0.5859375 0.503906,-1.3359375 0.503906,-2.15625 0,-0.98437504 -0.292968,-2.50781254 -1.664062,-3.4804688 z m 0,0"
         style="fill:#000000;fill-opacity:1;fill-rule:nonzero;stroke:none" />
      <path
         id="path7"
         d="m 44.370867,-3.2236641 c 0.140625,-0.070312 0.199219,-0.1289062 0.199219,-0.2226562 0,-0.1054688 -0.03516,-0.1640625 -0.199219,-0.234375 l -5.484375,-2.5898438 c -0.140625,-0.070312 -0.1875,-0.070312 -0.199219,-0.070312 -0.128906,0 -0.199218,0.09375 -0.199218,0.1992188 0,0.1289062 0.07031,0.1757812 0.1875,0.2226562 l 5.226562,2.4609375 -5.214844,2.46093754 c -0.199218,0.09375 -0.199218,0.1640625 -0.199218,0.234375 0,0.10546875 0.08203,0.19921875 0.199218,0.19921875 0.02344,0 0.04687,0 0.175782,-0.0703125 z m -0.152344,4.5820313 c 0.175782,0 0.351563,0 0.351563,-0.1992188 0,-0.19921871 -0.210938,-0.19921871 -0.363281,-0.19921871 h -5.367188 c -0.152344,0 -0.351562,0 -0.351562,0.19921871 0,0.1992188 0.175781,0.1992188 0.339843,0.1992188 z m 0,0"
         style="fill:#000000;fill-opacity:1;fill-rule:nonzero;stroke:none" />
      <path
         id="path8"
         d="m 52.424578,-6.0478828 c 0.07031,-0.28125 0.105469,-0.3398438 0.234375,-0.3632813 0.08203,-0.023437 0.410156,-0.023437 0.621094,-0.023437 1.007812,0 1.453125,0.035156 1.453125,0.8203125 0,0.140625 -0.03516,0.5273438 -0.08203,0.796875 0,0.035156 -0.02344,0.1523438 -0.02344,0.1875 0,0.058594 0.02344,0.1289063 0.117188,0.1289063 0.105468,0 0.128906,-0.082031 0.152343,-0.234375 l 0.269532,-1.734375 c 0.01172,-0.035156 0.01172,-0.140625 0.01172,-0.1640625 0,-0.1054688 -0.09375,-0.1054688 -0.269531,-0.1054688 h -5.519531 c -0.246094,0 -0.257813,0 -0.316406,0.1992188 l -0.597657,1.7460937 c -0.01172,0.023437 -0.07031,0.1640625 -0.07031,0.1757813 0,0.070312 0.05859,0.1171875 0.128906,0.1171875 0.09375,0 0.105469,-0.046875 0.164063,-0.2109375 0.539062,-1.546875 0.796875,-1.7226563 2.273437,-1.7226563 h 0.386719 c 0.28125,0 0.28125,0.035156 0.28125,0.1171875 0,0.058594 -0.03516,0.1757813 -0.04687,0.2109375 l -1.324219,5.32031254 c -0.09375,0.36328125 -0.128906,0.48046875 -1.195312,0.48046875 -0.351563,0 -0.410157,0 -0.410157,0.1875 0,0.1171875 0.105469,0.1171875 0.164063,0.1171875 0.269531,0 0.550781,-0.0234375 0.820312,-0.0234375 0.28125,0 0.5625,-0.01171875 0.84375,-0.01171875 0.28125,0 0.5625,0.01171875 0.832032,0.01171875 0.28125,0 0.585937,0.0234375 0.867187,0.0234375 0.09375,0 0.210938,0 0.210938,-0.19921875 0,-0.10546875 -0.08203,-0.10546875 -0.339844,-0.10546875 -0.246094,0 -0.375,0 -0.632813,-0.0234375 -0.292968,-0.0351563 -0.363281,-0.0585938 -0.363281,-0.22265625 0,-0.0117188 0,-0.0585938 0.03516,-0.2109375 z m 0,0"
         style="fill:#000000;fill-opacity:1;fill-rule:nonzero;stroke:none" />
      <path
         id="path9"
         d="m 58.623797,-4.3662422 c 0,0.4453125 0.08203,0.9257813 0.65625,0.9257813 0.84375,0 1.253906,-1.1953125 1.253906,-1.3476563 0,-0.046875 -0.04687,-0.09375 -0.105469,-0.09375 -0.07031,0 -0.08203,0.058594 -0.09375,0.082031 -0.164062,0.4921875 -0.632812,0.6328125 -0.867187,0.6328125 -0.28125,0 -0.421875,-0.1171875 -0.550781,-0.6796875 1.242187,-0.4335938 2.238281,-1.6757813 2.238281,-2.90625 0,-1.0898438 -0.785156,-1.9335938 -2.015625,-1.9335938 -1.664063,0 -3.28125,1.5585938 -3.28125,3.1289063 0,1.125 0.832031,1.9101562 2.027344,1.9101562 0.140625,0 0.375,-0.011719 0.738281,-0.09375 z m -1.207031,-0.5976562 c -0.363282,-0.1289063 -0.878907,-0.4921875 -0.878907,-1.4179688 0,-0.4453125 0.140625,-1.3710937 0.773438,-2.1679687 0.445312,-0.5390625 1.125,-0.9140625 1.769531,-0.9140625 0.761719,0 1.40625,0.5039062 1.40625,1.5234375 0,0.703125 -0.351562,2.1914062 -1.617187,2.8359375 -0.117188,-0.4453125 -0.292969,-0.7382813 -0.714844,-0.7382813 -0.386719,0 -0.773438,0.328125 -0.773438,0.703125 0,0.1171875 0.01172,0.1289063 0.03516,0.1757813 z m 1.207031,-0.035156 c -0.152344,0.058594 -0.410156,0.1289063 -0.691406,0.1289063 -0.105469,0 -0.351563,0 -0.351563,-0.2695313 0,-0.2695312 0.28125,-0.5039062 0.574219,-0.5039062 0.257812,0 0.445312,0.1054687 0.46875,0.6445312 z m 0,0"
         style="fill:#000000;fill-opacity:1;fill-rule:nonzero;stroke:none" />
      <path
         id="path10"
         d="m 56.464617,-1.8349922 c -1.324219,0.92578126 -1.675781,2.41406251 -1.675781,3.4804688 0,0.984375 0.292969,2.5078125 1.675781,3.4804687 0.05859,0 0.140625,0 0.140625,-0.082031 0,-0.046875 -0.02344,-0.058594 -0.07031,-0.1054688 -0.925782,-0.8320312 -1.265625,-2.015625 -1.265625,-3.2929687 0,-1.87500004 0.714843,-2.8007813 1.289062,-3.3164063 0.02344,-0.023437 0.04687,-0.046875 0.04687,-0.082031 0,-0.082031 -0.08203,-0.082031 -0.140625,-0.082031 z m 0,0"
         style="fill:#000000;fill-opacity:1;fill-rule:nonzero;stroke:none" />
      <path
         id="path11"
         d="m 60.129656,2.8290703 c -0.03516,0.140625 -0.09375,0.375 -0.09375,0.4101563 0,0.1523437 0.128907,0.2226562 0.234375,0.2226562 0.128907,0 0.234375,-0.09375 0.269532,-0.1523437 0.03516,-0.058594 0.09375,-0.2929688 0.128906,-0.4335938 0.03516,-0.1289062 0.117187,-0.4570312 0.152344,-0.6328125 0.04687,-0.1523437 0.08203,-0.3046875 0.117187,-0.4570312 0.08203,-0.3046875 0.08203,-0.3164063 0.222656,-0.5390625 0.222657,-0.33984379 0.5625,-0.73828129 1.113282,-0.73828129 0.386718,0 0.410156,0.328125 0.410156,0.49218749 0,0.421875 -0.304688,1.1953125 -0.410156,1.4882813 -0.08203,0.1875 -0.105469,0.2578125 -0.105469,0.375 0,0.3632812 0.304687,0.5976562 0.65625,0.5976562 0.703125,0 1.007812,-0.9609375 1.007812,-1.0664062 0,-0.09375 -0.09375,-0.09375 -0.105468,-0.09375 -0.105469,0 -0.105469,0.046875 -0.140625,0.1171875 -0.152344,0.5625 -0.457032,0.84375 -0.738282,0.84375 -0.140625,0 -0.175781,-0.09375 -0.175781,-0.2460938 0,-0.1523437 0.03516,-0.2460937 0.164063,-0.5625 0.08203,-0.2109375 0.375,-0.9492187 0.375,-1.3476562 0,-0.1054688 0,-0.39843754 -0.257813,-0.59765629 -0.128906,-0.09375 -0.328125,-0.1875 -0.65625,-0.1875 -0.621094,0 -1.007812,0.41015625 -1.230469,0.70312499 -0.05859,-0.59765624 -0.550781,-0.70312499 -0.902343,-0.70312499 -0.585938,0 -0.972657,0.3515625 -1.183594,0.6328125 -0.04687,-0.48046875 -0.457031,-0.6328125 -0.75,-0.6328125 -0.292969,0 -0.457031,0.2109375 -0.550781,0.375 -0.152344,0.2578125 -0.246094,0.65624999 -0.246094,0.69140629 0,0.082031 0.09375,0.082031 0.117187,0.082031 0.09375,0 0.105469,-0.011719 0.152344,-0.1992187 0.105469,-0.42187504 0.234375,-0.76171879 0.515625,-0.76171879 0.175781,0 0.222656,0.15234375 0.222656,0.33984375 0,0.140625 -0.05859,0.39843754 -0.105468,0.58593754 -0.04687,0.1875 -0.117188,0.46875 -0.152344,0.6210937 l -0.222656,0.9023438 c -0.03516,0.082031 -0.07031,0.2578125 -0.07031,0.28125 0,0.1523437 0.117188,0.2226562 0.234375,0.2226562 0.128906,0 0.234375,-0.09375 0.269531,-0.1523437 0.03516,-0.058594 0.09375,-0.2929688 0.128907,-0.4335938 0.03516,-0.1289062 0.105468,-0.4570312 0.152343,-0.6328125 0.03516,-0.1523437 0.08203,-0.3046875 0.117188,-0.4570312 0.08203,-0.2929688 0.09375,-0.3515625 0.292969,-0.6328125 0.199218,-0.28125004 0.527343,-0.64453129 1.042968,-0.64453129 0.410157,0 0.410157,0.36328125 0.410157,0.49218749 0,0.1757813 -0.01172,0.2695313 -0.117188,0.65625 z m 5.519532,0.4453125 c 0,0.3867188 -0.07031,0.8320313 -0.550782,1.2773438 -0.02344,0.035156 -0.04687,0.058594 -0.04687,0.09375 0,0.046875 0.05859,0.09375 0.09375,0.09375 0.105469,0 0.691407,-0.5625 0.691407,-1.3945313 0,-0.421875 -0.164063,-0.75 -0.480469,-0.75 -0.234375,0 -0.398438,0.1757813 -0.398438,0.3867188 0,0.234375 0.152344,0.4101562 0.398438,0.4101562 0.164062,0 0.28125,-0.1171875 0.292969,-0.1171875 z m 3.149414,-4.24218749 c 0,-0.10546871 -0.08203,-0.25781251 -0.28125,-0.25781251 -0.1875,0 -0.386719,0.1757813 -0.386719,0.37500001 0,0.1171875 0.08203,0.26953125 0.269531,0.26953125 0.210938,0 0.398438,-0.19921875 0.398438,-0.38671875 z M 67.368914,2.5712578 c -0.02344,0.09375 -0.05859,0.1757813 -0.05859,0.2929688 0,0.328125 0.28125,0.5976562 0.667969,0.5976562 0.691406,0 0.996094,-0.9609375 0.996094,-1.0664062 0,-0.09375 -0.08203,-0.09375 -0.105469,-0.09375 -0.105469,0 -0.105469,0.046875 -0.140625,0.1171875 -0.152344,0.5625 -0.457031,0.84375 -0.738281,0.84375 -0.140625,0 -0.175781,-0.082031 -0.175781,-0.2460938 0,-0.1523437 0.05859,-0.2929687 0.117187,-0.4453125 0.07031,-0.1875 0.140625,-0.375 0.222656,-0.5507812 0.05859,-0.1640625 0.316407,-0.8085938 0.339844,-0.890625 0.02344,-0.070312 0.04687,-0.15234379 0.04687,-0.22265629 0,-0.328125 -0.28125,-0.5859375 -0.667969,-0.5859375 -0.691406,0 -1.007812,0.94921879 -1.007812,1.06640629 0,0.082031 0.09375,0.082031 0.117187,0.082031 0.09375,0 0.105469,-0.035156 0.128907,-0.1054687 0.175781,-0.59765629 0.480468,-0.85546879 0.738281,-0.85546879 0.117187,0 0.175781,0.0585938 0.175781,0.24609375 0,0.1640625 -0.03516,0.26953124 -0.210937,0.70312504 z m 0,0"
         style="fill:#000000;fill-opacity:1;fill-rule:nonzero;stroke:none" />
      <path
         id="path12"
         d="m 69.993914,-1.8349922 c -0.05859,0 -0.140625,0 -0.140625,0.082031 0,0.035156 0.02344,0.058594 0.07031,0.1054687 0.597656,0.5507813 1.265625,1.48828126 1.265625,3.2929688 0,1.453125 -0.457032,2.5546875 -1.207032,3.234375 -0.117187,0.1171875 -0.128906,0.1289062 -0.128906,0.1640625 0,0.035156 0.02344,0.082031 0.09375,0.082031 0.08203,0 0.75,-0.4570312 1.207031,-1.3242187 0.304688,-0.5859375 0.503907,-1.3359375 0.503907,-2.15625 0,-0.98437504 -0.292969,-2.50781254 -1.664063,-3.4804688 z m 0,0"
         style="fill:#000000;fill-opacity:1;fill-rule:nonzero;stroke:none" />
      <path
         id="path13"
         d="m 79.263445,-2.2978828 h 2.777344 c 0.140625,0 0.328125,0 0.328125,-0.1992188 0,-0.1992187 -0.1875,-0.1992187 -0.328125,-0.1992187 h -2.777344 v -2.7890625 c 0,-0.1289063 0,-0.328125 -0.199218,-0.328125 -0.199219,0 -0.199219,0.1992187 -0.199219,0.328125 v 2.7890625 h -2.789063 c -0.140625,0 -0.328125,0 -0.328125,0.1992187 0,0.1992188 0.1875,0.1992188 0.328125,0.1992188 h 2.789063 v 2.80078124 c 0,0.12890625 0,0.328125 0.199219,0.328125 0.199218,0 0.199218,-0.19921875 0.199218,-0.328125 z m 0,0"
         style="fill:#000000;fill-opacity:1;fill-rule:nonzero;stroke:none" />
      <path
         id="path14"
         d="m 92.7195,-6.9267891 c 0,-0.023437 -0.02344,-0.09375 -0.105469,-0.09375 -0.03516,0 -0.04687,0.011719 -0.152343,0.1171875 l -0.703125,0.7617188 c -0.08203,-0.140625 -0.539063,-0.8789063 -1.652344,-0.8789063 -2.214844,0 -4.453125,2.203125 -4.453125,4.5117188 0,1.58203124 1.101562,2.73046874 2.71875,2.73046874 0.433594,0 0.878906,-0.09375 1.242187,-0.24609375 0.492188,-0.19921875 0.679688,-0.41015625 0.867188,-0.609375 0.08203,0.2578125 0.351562,0.62109375 0.445312,0.62109375 0.04687,0 0.07031,-0.0234375 0.07031,-0.03515625 0.02344,-0.0234375 0.117187,-0.3984375 0.164062,-0.609375 l 0.199219,-0.77343749 c 0.03516,-0.1640625 0.08203,-0.328125 0.128906,-0.5039063 0.105469,-0.4453125 0.117188,-0.46875 0.679688,-0.4804687 0.05859,0 0.164062,-0.011719 0.164062,-0.1992188 0,-0.070312 -0.04687,-0.1054687 -0.128906,-0.1054687 -0.234375,0 -0.820312,0.023437 -1.042969,0.023437 -0.316406,0 -1.089843,-0.023437 -1.394531,-0.023437 -0.09375,0 -0.210937,0 -0.210937,0.1992187 0,0.1054688 0.08203,0.1054688 0.292968,0.1054688 0.01172,0 0.304688,0 0.527344,0.023437 0.257813,0.035156 0.316406,0.058594 0.316406,0.1875 0,0.09375 -0.117187,0.5390625 -0.210937,0.9023437 -0.28125,1.10156254 -1.582031,1.20703129 -1.921875,1.20703129 -0.960938,0 -2.003906,-0.5625 -2.003906,-2.08593749 0,-0.3164063 0.09375,-1.9570313 1.148437,-3.2460938 0.539063,-0.6796875 1.5,-1.2890625 2.484375,-1.2890625 1.019531,0 1.605469,0.7734375 1.605469,1.921875 0,0.3984375 -0.03516,0.4101563 -0.03516,0.5039063 0,0.1054687 0.117187,0.1054687 0.152343,0.1054687 0.128907,0 0.128907,-0.023437 0.175782,-0.1992187 z m 0,0"
         style="fill:#000000;fill-opacity:1;fill-rule:nonzero;stroke:none" />
      <path
         id="path15"
         d="m 96.229266,-4.3662422 c 0,0.4453125 0.08203,0.9257813 0.65625,0.9257813 0.84375,0 1.253906,-1.1953125 1.253906,-1.3476563 0,-0.046875 -0.04687,-0.09375 -0.105469,-0.09375 -0.07031,0 -0.08203,0.058594 -0.09375,0.082031 -0.164062,0.4921875 -0.632812,0.6328125 -0.867187,0.6328125 -0.28125,0 -0.421875,-0.1171875 -0.550782,-0.6796875 1.242188,-0.4335938 2.238282,-1.6757813 2.238282,-2.90625 0,-1.0898438 -0.785157,-1.9335938 -2.015625,-1.9335938 -1.664063,0 -3.28125,1.5585938 -3.28125,3.1289063 0,1.125 0.832031,1.9101562 2.027343,1.9101562 0.140625,0 0.375,-0.011719 0.738282,-0.09375 z m -1.207032,-0.5976562 c -0.363281,-0.1289063 -0.878906,-0.4921875 -0.878906,-1.4179688 0,-0.4453125 0.140625,-1.3710937 0.773438,-2.1679687 0.445312,-0.5390625 1.125,-0.9140625 1.769531,-0.9140625 0.761719,0 1.40625,0.5039062 1.40625,1.5234375 0,0.703125 -0.351563,2.1914062 -1.617188,2.8359375 -0.117187,-0.4453125 -0.292968,-0.7382813 -0.714843,-0.7382813 -0.386719,0 -0.773438,0.328125 -0.773438,0.703125 0,0.1171875 0.01172,0.1289063 0.03516,0.1757813 z m 1.207032,-0.035156 c -0.152344,0.058594 -0.410157,0.1289063 -0.691407,0.1289063 -0.105468,0 -0.351562,0 -0.351562,-0.2695313 0,-0.2695312 0.28125,-0.5039062 0.574219,-0.5039062 0.257812,0 0.445312,0.1054687 0.46875,0.6445312 z m 0,0"
         style="fill:#000000;fill-opacity:1;fill-rule:nonzero;stroke:none" />
      <path
         id="path16"
         d="m 95.455828,-1.8349922 c -1.324219,0.92578126 -1.675781,2.41406251 -1.675781,3.4804688 0,0.984375 0.292969,2.5078125 1.675781,3.4804687 0.05859,0 0.140625,0 0.140625,-0.082031 0,-0.046875 -0.02344,-0.058594 -0.07031,-0.1054688 -0.925782,-0.8320312 -1.265625,-2.015625 -1.265625,-3.2929687 0,-1.87500004 0.714843,-2.8007813 1.289062,-3.3164063 0.02344,-0.023437 0.04687,-0.046875 0.04687,-0.082031 0,-0.082031 -0.08203,-0.082031 -0.140625,-0.082031 z m 0,0"
         style="fill:#000000;fill-opacity:1;fill-rule:nonzero;stroke:none" />
      <path
         id="path17"
         d="m 99.117938,2.8290703 c -0.03516,0.140625 -0.09375,0.375 -0.09375,0.4101563 0,0.1523437 0.128906,0.2226562 0.234375,0.2226562 0.128906,0 0.234375,-0.09375 0.269531,-0.1523437 0.03516,-0.058594 0.09375,-0.2929688 0.128906,-0.4335938 0.03516,-0.1289062 0.117188,-0.4570312 0.152344,-0.6328125 0.04687,-0.1523437 0.08203,-0.3046875 0.117187,-0.4570312 0.08203,-0.3046875 0.08203,-0.3164063 0.222659,-0.5390625 0.22265,-0.33984379 0.5625,-0.73828129 1.11328,-0.73828129 0.38672,0 0.41016,0.328125 0.41016,0.49218749 0,0.421875 -0.30469,1.1953125 -0.41016,1.4882813 -0.082,0.1875 -0.10547,0.2578125 -0.10547,0.375 0,0.3632812 0.30469,0.5976562 0.65625,0.5976562 0.70313,0 1.00781,-0.9609375 1.00781,-1.0664062 0,-0.09375 -0.0937,-0.09375 -0.10547,-0.09375 -0.10546,0 -0.10546,0.046875 -0.14062,0.1171875 -0.15234,0.5625 -0.45703,0.84375 -0.73828,0.84375 -0.14063,0 -0.17578,-0.09375 -0.17578,-0.2460938 0,-0.1523437 0.0352,-0.2460937 0.16406,-0.5625 0.082,-0.2109375 0.375,-0.9492187 0.375,-1.3476562 0,-0.1054688 0,-0.39843754 -0.25781,-0.59765629 -0.12891,-0.09375 -0.32813,-0.1875 -0.65625,-0.1875 -0.6211,0 -1.00782,0.41015625 -1.23047,0.70312499 -0.0586,-0.59765624 -0.550784,-0.70312499 -0.902346,-0.70312499 -0.585938,0 -0.972656,0.3515625 -1.183594,0.6328125 -0.04687,-0.48046875 -0.457031,-0.6328125 -0.75,-0.6328125 -0.292969,0 -0.457031,0.2109375 -0.550781,0.375 -0.152344,0.2578125 -0.246094,0.65624999 -0.246094,0.69140629 0,0.082031 0.09375,0.082031 0.117188,0.082031 0.09375,0 0.105468,-0.011719 0.152343,-0.1992187 0.105469,-0.42187504 0.234375,-0.76171879 0.515625,-0.76171879 0.175782,0 0.222657,0.15234375 0.222657,0.33984375 0,0.140625 -0.05859,0.39843754 -0.105469,0.58593754 -0.04687,0.1875 -0.117188,0.46875 -0.152344,0.6210937 l -0.222656,0.9023438 c -0.03516,0.082031 -0.07031,0.2578125 -0.07031,0.28125 0,0.1523437 0.117188,0.2226562 0.234375,0.2226562 0.128907,0 0.234375,-0.09375 0.269532,-0.1523437 0.03516,-0.058594 0.09375,-0.2929688 0.128906,-0.4335938 0.03516,-0.1289062 0.105469,-0.4570312 0.152344,-0.6328125 0.03516,-0.1523437 0.08203,-0.3046875 0.117187,-0.4570312 0.08203,-0.2929688 0.09375,-0.3515625 0.292969,-0.6328125 0.199219,-0.28125004 0.527344,-0.64453129 1.042969,-0.64453129 0.410156,0 0.410156,0.36328125 0.410156,0.49218749 0,0.1757813 -0.01172,0.2695313 -0.117188,0.65625 z m 5.519532,0.4453125 c 0,0.3867188 -0.0703,0.8320313 -0.55078,1.2773438 -0.0234,0.035156 -0.0469,0.058594 -0.0469,0.09375 0,0.046875 0.0586,0.09375 0.0937,0.09375 0.10547,0 0.69141,-0.5625 0.69141,-1.3945313 0,-0.421875 -0.16406,-0.75 -0.48047,-0.75 -0.23437,0 -0.39844,0.1757813 -0.39844,0.3867188 0,0.234375 0.15235,0.4101562 0.39844,0.4101562 0.16406,0 0.28125,-0.1171875 0.29297,-0.1171875 z m 3.14648,-4.24218749 c 0,-0.10546871 -0.082,-0.25781251 -0.28125,-0.25781251 -0.1875,0 -0.38672,0.1757813 -0.38672,0.37500001 0,0.1171875 0.082,0.26953125 0.26954,0.26953125 0.21093,0 0.39843,-0.19921875 0.39843,-0.38671875 z m -1.42968,3.53906249 c -0.0234,0.09375 -0.0586,0.1757813 -0.0586,0.2929688 0,0.328125 0.28125,0.5976562 0.66797,0.5976562 0.69141,0 0.99609,-0.9609375 0.99609,-1.0664062 0,-0.09375 -0.082,-0.09375 -0.10546,-0.09375 -0.10547,0 -0.10547,0.046875 -0.14063,0.1171875 -0.15234,0.5625 -0.45703,0.84375 -0.73828,0.84375 -0.14063,0 -0.17578,-0.082031 -0.17578,-0.2460938 0,-0.1523437 0.0586,-0.2929687 0.11719,-0.4453125 0.0703,-0.1875 0.14062,-0.375 0.22265,-0.5507812 0.0586,-0.1640625 0.31641,-0.8085938 0.33985,-0.890625 0.0234,-0.070312 0.0469,-0.15234379 0.0469,-0.22265629 0,-0.328125 -0.28125,-0.5859375 -0.66797,-0.5859375 -0.6914,0 -1.00781,0.94921879 -1.00781,1.06640629 0,0.082031 0.0937,0.082031 0.11719,0.082031 0.0937,0 0.10547,-0.035156 0.1289,-0.1054687 0.17578,-0.59765629 0.48047,-0.85546879 0.73828,-0.85546879 0.11719,0 0.17579,0.0585938 0.17579,0.24609375 0,0.1640625 -0.0352,0.26953124 -0.21094,0.70312504 z m 0,0"
         style="fill:#000000;fill-opacity:1;fill-rule:nonzero;stroke:none" />
      <path
         id="path18"
         d="m 108.9822,-1.8349922 c -0.0586,0 -0.14063,0 -0.14063,0.082031 0,0.035156 0.0234,0.058594 0.0703,0.1054687 0.59766,0.5507813 1.26563,1.48828126 1.26563,3.2929688 0,1.453125 -0.45703,2.5546875 -1.20703,3.234375 -0.11719,0.1171875 -0.12891,0.1289062 -0.12891,0.1640625 0,0.035156 0.0234,0.082031 0.0937,0.082031 0.082,0 0.75,-0.4570312 1.20703,-1.3242187 0.30469,-0.5859375 0.50391,-1.3359375 0.50391,-2.15625 0,-0.98437504 -0.29297,-2.50781254 -1.66406,-3.4804688 z m 0,0"
         style="fill:#000000;fill-opacity:1;fill-rule:nonzero;stroke:none" />
      <path
         id="path19"
         d="m 118.25173,-2.2978828 h 2.77734 c 0.14063,0 0.32813,0 0.32813,-0.1992188 0,-0.1992187 -0.1875,-0.1992187 -0.32813,-0.1992187 h -2.77734 v -2.7890625 c 0,-0.1289063 0,-0.328125 -0.19922,-0.328125 -0.19922,0 -0.19922,0.1992187 -0.19922,0.328125 v 2.7890625 h -2.78906 c -0.14063,0 -0.32813,0 -0.32813,0.1992187 0,0.1992188 0.1875,0.1992188 0.32813,0.1992188 h 2.78906 v 2.80078124 c 0,0.12890625 0,0.328125 0.19922,0.328125 0.19922,0 0.19922,-0.19921875 0.19922,-0.328125 z m 0,0"
         style="fill:#000000;fill-opacity:1;fill-rule:nonzero;stroke:none" />
      <path
         id="path20"
         d="m 130.55934,-6.9267891 c 0,-0.023437 -0.0117,-0.09375 -0.10546,-0.09375 -0.0469,0 -0.0586,0.011719 -0.17579,0.140625 l -0.48046,0.5742188 c -0.25782,-0.46875 -0.77344,-0.7148438 -1.42969,-0.7148438 -1.26563,0 -2.46094,1.1367188 -2.46094,2.34375 0,0.8085938 0.52734,1.265625 1.04297,1.4179688 l 1.06641,0.28125 c 0.36328,0.082031 0.91406,0.234375 0.91406,1.0546875 0,0.890625 -0.82031,1.82812499 -1.79297,1.82812499 -0.64453,0 -1.74609,-0.2109375 -1.74609,-1.45312499 0,-0.234375 0.0469,-0.4804688 0.0586,-0.5390625 0.0117,-0.035156 0.0234,-0.046875 0.0234,-0.070312 0,-0.09375 -0.0703,-0.1054688 -0.11719,-0.1054688 -0.0586,0 -0.0703,0.011719 -0.10547,0.035156 -0.0352,0.046875 -0.59766,2.32031249 -0.59766,2.34374999 0,0.0585938 0.0469,0.10546875 0.11719,0.10546875 0.0469,0 0.0586,-0.0117188 0.17578,-0.15234375 l 0.49219,-0.57421875 c 0.42188,0.5859375 1.10156,0.7265625 1.67578,0.7265625 1.35938,0 2.53125,-1.32421874 2.53125,-2.56640624 0,-0.6796875 -0.33984,-1.0195313 -0.49219,-1.1601563 -0.22265,-0.234375 -0.375,-0.2695312 -1.26562,-0.5039062 -0.21094,-0.058594 -0.57422,-0.1523438 -0.65625,-0.1757813 -0.26953,-0.09375 -0.60938,-0.375 -0.60938,-0.9023437 0,-0.8085938 0.79688,-1.6523438 1.73438,-1.6523438 0.83203,0 1.44141,0.421875 1.44141,1.5351563 0,0.3164062 -0.0469,0.5039062 -0.0469,0.5625 0,0.011719 0,0.09375 0.12891,0.09375 0.0937,0 0.10547,-0.023437 0.14062,-0.1992188 z m 0,0"
         style="fill:#000000;fill-opacity:1;fill-rule:nonzero;stroke:none" />
      <path
         id="path21"
         d="m 134.06618,-4.3662422 c 0,0.4453125 0.082,0.9257813 0.65625,0.9257813 0.84375,0 1.25391,-1.1953125 1.25391,-1.3476563 0,-0.046875 -0.0469,-0.09375 -0.10547,-0.09375 -0.0703,0 -0.082,0.058594 -0.0937,0.082031 -0.16407,0.4921875 -0.63282,0.6328125 -0.86719,0.6328125 -0.28125,0 -0.42188,-0.1171875 -0.55078,-0.6796875 1.24219,-0.4335938 2.23828,-1.6757813 2.23828,-2.90625 0,-1.0898438 -0.78516,-1.9335938 -2.01563,-1.9335938 -1.66406,0 -3.28125,1.5585938 -3.28125,3.1289063 0,1.125 0.83204,1.9101562 2.02735,1.9101562 0.14062,0 0.375,-0.011719 0.73828,-0.09375 z m -1.20703,-0.5976562 c -0.36328,-0.1289063 -0.87891,-0.4921875 -0.87891,-1.4179688 0,-0.4453125 0.14063,-1.3710937 0.77344,-2.1679687 0.44531,-0.5390625 1.125,-0.9140625 1.76953,-0.9140625 0.76172,0 1.40625,0.5039062 1.40625,1.5234375 0,0.703125 -0.35156,2.1914062 -1.61719,2.8359375 -0.11718,-0.4453125 -0.29297,-0.7382813 -0.71484,-0.7382813 -0.38672,0 -0.77344,0.328125 -0.77344,0.703125 0,0.1171875 0.0117,0.1289063 0.0352,0.1757813 z m 1.20703,-0.035156 c -0.15234,0.058594 -0.41016,0.1289063 -0.69141,0.1289063 -0.10547,0 -0.35156,0 -0.35156,-0.2695313 0,-0.2695312 0.28125,-0.5039062 0.57422,-0.5039062 0.25781,0 0.44531,0.1054687 0.46875,0.6445312 z m 0,0"
         style="fill:#000000;fill-opacity:1;fill-rule:nonzero;stroke:none" />
      <path
         id="path22"
         d="m 132.71852,-1.8349922 c -1.32422,0.92578126 -1.67578,2.41406251 -1.67578,3.4804688 0,0.984375 0.29297,2.5078125 1.67578,3.4804687 0.0586,0 0.14063,0 0.14063,-0.082031 0,-0.046875 -0.0234,-0.058594 -0.0703,-0.1054688 -0.92579,-0.8320312 -1.26563,-2.015625 -1.26563,-3.2929687 0,-1.87500004 0.71484,-2.8007813 1.28906,-3.3164063 0.0234,-0.023437 0.0469,-0.046875 0.0469,-0.082031 0,-0.082031 -0.082,-0.082031 -0.14063,-0.082031 z m 0,0"
         style="fill:#000000;fill-opacity:1;fill-rule:nonzero;stroke:none" />
      <path
         id="path23"
         d="m 136.38356,2.8290703 c -0.0351,0.140625 -0.0937,0.375 -0.0937,0.4101563 0,0.1523437 0.12891,0.2226562 0.23438,0.2226562 0.1289,0 0.23437,-0.09375 0.26953,-0.1523437 0.0352,-0.058594 0.0937,-0.2929688 0.12891,-0.4335938 0.0352,-0.1289062 0.11718,-0.4570312 0.15234,-0.6328125 0.0469,-0.1523437 0.082,-0.3046875 0.11719,-0.4570312 0.082,-0.3046875 0.082,-0.3164063 0.22265,-0.5390625 0.22266,-0.33984379 0.5625,-0.73828129 1.11328,-0.73828129 0.38672,0 0.41016,0.328125 0.41016,0.49218749 0,0.421875 -0.30469,1.1953125 -0.41016,1.4882813 -0.082,0.1875 -0.10546,0.2578125 -0.10546,0.375 0,0.3632812 0.30468,0.5976562 0.65625,0.5976562 0.70312,0 1.00781,-0.9609375 1.00781,-1.0664062 0,-0.09375 -0.0937,-0.09375 -0.10547,-0.09375 -0.10547,0 -0.10547,0.046875 -0.14063,0.1171875 -0.15234,0.5625 -0.45703,0.84375 -0.73828,0.84375 -0.14062,0 -0.17578,-0.09375 -0.17578,-0.2460938 0,-0.1523437 0.0352,-0.2460937 0.16406,-0.5625 0.082,-0.2109375 0.375,-0.9492187 0.375,-1.3476562 0,-0.1054688 0,-0.39843754 -0.25781,-0.59765629 -0.1289,-0.09375 -0.32812,-0.1875 -0.65625,-0.1875 -0.62109,0 -1.00781,0.41015625 -1.23047,0.70312499 -0.0586,-0.59765624 -0.55078,-0.70312499 -0.90234,-0.70312499 -0.58594,0 -0.97266,0.3515625 -1.18359,0.6328125 -0.0469,-0.48046875 -0.45704,-0.6328125 -0.75,-0.6328125 -0.29297,0 -0.45704,0.2109375 -0.55079,0.375 -0.15234,0.2578125 -0.24609,0.65624999 -0.24609,0.69140629 0,0.082031 0.0937,0.082031 0.11719,0.082031 0.0937,0 0.10547,-0.011719 0.15234,-0.1992187 0.10547,-0.42187504 0.23438,-0.76171879 0.51563,-0.76171879 0.17578,0 0.22265,0.15234375 0.22265,0.33984375 0,0.140625 -0.0586,0.39843754 -0.10547,0.58593754 -0.0469,0.1875 -0.11718,0.46875 -0.15234,0.6210937 l -0.22266,0.9023438 c -0.0351,0.082031 -0.0703,0.2578125 -0.0703,0.28125 0,0.1523437 0.11719,0.2226562 0.23438,0.2226562 0.1289,0 0.23437,-0.09375 0.26953,-0.1523437 0.0351,-0.058594 0.0937,-0.2929688 0.1289,-0.4335938 0.0352,-0.1289062 0.10547,-0.4570312 0.15235,-0.6328125 0.0351,-0.1523437 0.082,-0.3046875 0.11719,-0.4570312 0.082,-0.2929688 0.0937,-0.3515625 0.29296,-0.6328125 0.19922,-0.28125004 0.52735,-0.64453129 1.04297,-0.64453129 0.41016,0 0.41016,0.36328125 0.41016,0.49218749 0,0.1757813 -0.0117,0.2695313 -0.11719,0.65625 z m 5.5166,0.4453125 c 0,0.3867188 -0.0703,0.8320313 -0.55078,1.2773438 -0.0234,0.035156 -0.0469,0.058594 -0.0469,0.09375 0,0.046875 0.0586,0.09375 0.0937,0.09375 0.10547,0 0.6914,-0.5625 0.6914,-1.3945313 0,-0.421875 -0.16406,-0.75 -0.48046,-0.75 -0.23438,0 -0.39844,0.1757813 -0.39844,0.3867188 0,0.234375 0.15234,0.4101562 0.39844,0.4101562 0.16406,0 0.28125,-0.1171875 0.29296,-0.1171875 z m 3.14942,-4.24218749 c 0,-0.10546871 -0.082,-0.25781251 -0.28125,-0.25781251 -0.1875,0 -0.38672,0.1757813 -0.38672,0.37500001 0,0.1171875 0.082,0.26953125 0.26953,0.26953125 0.21094,0 0.39844,-0.19921875 0.39844,-0.38671875 z m -1.42969,3.53906249 c -0.0234,0.09375 -0.0586,0.1757813 -0.0586,0.2929688 0,0.328125 0.28125,0.5976562 0.66797,0.5976562 0.6914,0 0.99609,-0.9609375 0.99609,-1.0664062 0,-0.09375 -0.082,-0.09375 -0.10547,-0.09375 -0.10547,0 -0.10547,0.046875 -0.14062,0.1171875 -0.15235,0.5625 -0.45704,0.84375 -0.73829,0.84375 -0.14062,0 -0.17578,-0.082031 -0.17578,-0.2460938 0,-0.1523437 0.0586,-0.2929687 0.11719,-0.4453125 0.0703,-0.1875 0.14063,-0.375 0.22266,-0.5507812 0.0586,-0.1640625 0.3164,-0.8085938 0.33984,-0.890625 0.0234,-0.070312 0.0469,-0.15234379 0.0469,-0.22265629 0,-0.328125 -0.28125,-0.5859375 -0.66797,-0.5859375 -0.69141,0 -1.00782,0.94921879 -1.00782,1.06640629 0,0.082031 0.0937,0.082031 0.11719,0.082031 0.0937,0 0.10547,-0.035156 0.12891,-0.1054687 0.17578,-0.59765629 0.48047,-0.85546879 0.73828,-0.85546879 0.11719,0 0.17578,0.0585938 0.17578,0.24609375 0,0.1640625 -0.0352,0.26953124 -0.21094,0.70312504 z m 0,0"
         style="fill:#000000;fill-opacity:1;fill-rule:nonzero;stroke:none" />
      <path
         id="path24"
         d="m 146.24782,-1.8349922 c -0.0586,0 -0.14062,0 -0.14062,0.082031 0,0.035156 0.0234,0.058594 0.0703,0.1054687 0.59765,0.5507813 1.26562,1.48828126 1.26562,3.2929688 0,1.453125 -0.45703,2.5546875 -1.20703,3.234375 -0.11719,0.1171875 -0.1289,0.1289062 -0.1289,0.1640625 0,0.035156 0.0234,0.082031 0.0937,0.082031 0.082,0 0.75,-0.4570312 1.20703,-1.3242187 0.30468,-0.5859375 0.5039,-1.3359375 0.5039,-2.15625 0,-0.98437504 -0.29297,-2.50781254 -1.66406,-3.4804688 z m 4.95117,0 c -1.32422,0.92578126 -1.67578,2.41406251 -1.67578,3.4804688 0,0.984375 0.29297,2.5078125 1.67578,3.4804687 0.0586,0 0.14063,0 0.14063,-0.082031 0,-0.046875 -0.0234,-0.058594 -0.0703,-0.1054688 -0.92578,-0.8320312 -1.26562,-2.015625 -1.26562,-3.2929687 0,-1.87500004 0.71484,-2.8007813 1.28906,-3.3164063 0.0234,-0.023437 0.0469,-0.046875 0.0469,-0.082031 0,-0.082031 -0.082,-0.082031 -0.14063,-0.082031 z m 0,0"
         style="fill:#000000;fill-opacity:1;fill-rule:nonzero;stroke:none" />
      <path
         id="path25"
         d="m 154.86403,2.8290703 c -0.0352,0.140625 -0.0937,0.375 -0.0937,0.4101563 0,0.1523437 0.12891,0.2226562 0.23438,0.2226562 0.1289,0 0.23437,-0.09375 0.26953,-0.1523437 0.0351,-0.058594 0.0937,-0.2929688 0.1289,-0.4335938 0.0352,-0.1289062 0.11719,-0.4570312 0.15235,-0.6328125 0.0469,-0.1523437 0.082,-0.3046875 0.11719,-0.4570312 0.082,-0.3046875 0.082,-0.3164063 0.22265,-0.5390625 0.22266,-0.33984379 0.5625,-0.73828129 1.11328,-0.73828129 0.38672,0 0.41016,0.328125 0.41016,0.49218749 0,0.421875 -0.30469,1.1953125 -0.41016,1.4882813 -0.082,0.1875 -0.10547,0.2578125 -0.10547,0.375 0,0.3632812 0.30469,0.5976562 0.65625,0.5976562 0.70313,0 1.00782,-0.9609375 1.00782,-1.0664062 0,-0.09375 -0.0937,-0.09375 -0.10547,-0.09375 -0.10547,0 -0.10547,0.046875 -0.14063,0.1171875 -0.15234,0.5625 -0.45703,0.84375 -0.73828,0.84375 -0.14062,0 -0.17578,-0.09375 -0.17578,-0.2460938 0,-0.1523437 0.0352,-0.2460937 0.16406,-0.5625 0.082,-0.2109375 0.375,-0.9492187 0.375,-1.3476562 0,-0.1054688 0,-0.39843754 -0.25781,-0.59765629 -0.12891,-0.09375 -0.32812,-0.1875 -0.65625,-0.1875 -0.62109,0 -1.00781,0.41015625 -1.23047,0.70312499 -0.0586,-0.59765624 -0.55078,-0.70312499 -0.90234,-0.70312499 -0.58594,0 -0.97266,0.3515625 -1.1836,0.6328125 -0.0469,-0.48046875 -0.45703,-0.6328125 -0.75,-0.6328125 -0.29296,0 -0.45703,0.2109375 -0.55078,0.375 -0.15234,0.2578125 -0.24609,0.65624999 -0.24609,0.69140629 0,0.082031 0.0937,0.082031 0.11719,0.082031 0.0937,0 0.10547,-0.011719 0.15234,-0.1992187 0.10547,-0.42187504 0.23438,-0.76171879 0.51563,-0.76171879 0.17578,0 0.22265,0.15234375 0.22265,0.33984375 0,0.140625 -0.0586,0.39843754 -0.10547,0.58593754 -0.0469,0.1875 -0.11718,0.46875 -0.15234,0.6210937 l -0.22266,0.9023438 c -0.0351,0.082031 -0.0703,0.2578125 -0.0703,0.28125 0,0.1523437 0.11719,0.2226562 0.23438,0.2226562 0.1289,0 0.23437,-0.09375 0.26953,-0.1523437 0.0351,-0.058594 0.0937,-0.2929688 0.1289,-0.4335938 0.0352,-0.1289062 0.10547,-0.4570312 0.15235,-0.6328125 0.0351,-0.1523437 0.082,-0.3046875 0.11718,-0.4570312 0.082,-0.2929688 0.0937,-0.3515625 0.29297,-0.6328125 0.19922,-0.28125004 0.52735,-0.64453129 1.04297,-0.64453129 0.41016,0 0.41016,0.36328125 0.41016,0.49218749 0,0.1757813 -0.0117,0.2695313 -0.11719,0.65625 z m 5.5166,0.4453125 c 0,0.3867188 -0.0703,0.8320313 -0.55078,1.2773438 -0.0234,0.035156 -0.0469,0.058594 -0.0469,0.09375 0,0.046875 0.0586,0.09375 0.0937,0.09375 0.10547,0 0.6914,-0.5625 0.6914,-1.3945313 0,-0.421875 -0.16406,-0.75 -0.48047,-0.75 -0.23437,0 -0.39843,0.1757813 -0.39843,0.3867188 0,0.234375 0.15234,0.4101562 0.39843,0.4101562 0.16407,0 0.28125,-0.1171875 0.29297,-0.1171875 z m 3.14942,-4.24218749 c 0,-0.10546871 -0.082,-0.25781251 -0.28125,-0.25781251 -0.1875,0 -0.38672,0.1757813 -0.38672,0.37500001 0,0.1171875 0.082,0.26953125 0.26953,0.26953125 0.21094,0 0.39844,-0.19921875 0.39844,-0.38671875 z m -1.42969,3.53906249 c -0.0234,0.09375 -0.0586,0.1757813 -0.0586,0.2929688 0,0.328125 0.28125,0.5976562 0.66796,0.5976562 0.69141,0 0.9961,-0.9609375 0.9961,-1.0664062 0,-0.09375 -0.082,-0.09375 -0.10547,-0.09375 -0.10547,0 -0.10547,0.046875 -0.14063,0.1171875 -0.15234,0.5625 -0.45703,0.84375 -0.73828,0.84375 -0.14062,0 -0.17578,-0.082031 -0.17578,-0.2460938 0,-0.1523437 0.0586,-0.2929687 0.11719,-0.4453125 0.0703,-0.1875 0.14062,-0.375 0.22266,-0.5507812 0.0586,-0.1640625 0.3164,-0.8085938 0.33984,-0.890625 0.0234,-0.070312 0.0469,-0.15234379 0.0469,-0.22265629 0,-0.328125 -0.28125,-0.5859375 -0.66796,-0.5859375 -0.69141,0 -1.00782,0.94921879 -1.00782,1.06640629 0,0.082031 0.0937,0.082031 0.11719,0.082031 0.0937,0 0.10547,-0.035156 0.12891,-0.1054687 0.17578,-0.59765629 0.48047,-0.85546879 0.73828,-0.85546879 0.11719,0 0.17578,0.0585938 0.17578,0.24609375 0,0.1640625 -0.0352,0.26953124 -0.21094,0.70312504 z m 0,0"
         style="fill:#000000;fill-opacity:1;fill-rule:nonzero;stroke:none" />
      <path
         id="path26"
         d="m 167.31813,1.8212578 h 2.14453 c 0.082,0 0.25782,0 0.25782,-0.1757812 0,-0.1757813 -0.16407,-0.1757813 -0.25782,-0.1757813 h -2.14453 v -2.13281249 c 0,-0.09375 0,-0.2578125 -0.16406,-0.2578125 -0.17578,0 -0.17578,0.15234375 -0.17578,0.2578125 V 1.4696953 h -2.13281 c -0.0937,0 -0.25782,0 -0.25782,0.1757813 0,0.1757812 0.15235,0.1757812 0.25782,0.1757812 h 2.13281 v 2.1328125 c 0,0.09375 0,0.2578125 0.17578,0.2578125 0.16406,0 0.16406,-0.1523437 0.16406,-0.2578125 z m 5.22657,-2.859375 c 0,-0.1875 -0.0117,-0.1992187 -0.21094,-0.1992187 -0.44531,0.43359371 -1.07813,0.44531246 -1.35938,0.44531246 v 0.24609375 c 0.16407,0 0.6211,0 1.00782,-0.1875 V 2.8173516 c 0,0.234375 0,0.328125 -0.69141,0.328125 h -0.26953 v 0.2460937 c 0.1289,-0.011719 0.98437,-0.023437 1.24219,-0.023437 0.21093,0 1.08984,0.011719 1.24218,0.023437 V 3.1454766 h -0.25781 c -0.70312,0 -0.70312,-0.09375 -0.70312,-0.328125 z m 2.26757,-0.796875 c -0.0586,0 -0.14062,0 -0.14062,0.082031 0,0.035156 0.0234,0.058594 0.0703,0.1054687 0.59766,0.5507813 1.26563,1.48828126 1.26563,3.2929688 0,1.453125 -0.45704,2.5546875 -1.20704,3.234375 -0.11718,0.1171875 -0.1289,0.1289062 -0.1289,0.1640625 0,0.035156 0.0234,0.082031 0.0937,0.082031 0.082,0 0.75,-0.4570312 1.20703,-1.3242187 0.30469,-0.5859375 0.50391,-1.3359375 0.50391,-2.15625 0,-0.98437504 -0.29297,-2.50781254 -1.66407,-3.4804688 z m 0,0"
         style="fill:#000000;fill-opacity:1;fill-rule:nonzero;stroke:none" />
      <path
         id="path27"
         d="m 179.82204,-0.01272656 c 0,-0.65625 -0.25781,-1.04296874 -0.64453,-1.04296874 -0.32813,0 -0.52735,0.24609374 -0.52735,0.52734374 0,0.26953125 0.19922,0.52734375 0.52735,0.52734375 0.11719,0 0.24609,-0.03515625 0.35156,-0.12890625 0.0234,-0.0234375 0.0352,-0.0351563 0.0469,-0.0351563 0.0117,0 0.0234,0.0117188 0.0234,0.15234375 0,0.73828125 -0.35156,1.33593741 -0.67968,1.66406241 -0.10547,0.1054688 -0.10547,0.1289063 -0.10547,0.1640625 0,0.070312 0.0469,0.1054688 0.0937,0.1054688 0.11718,0 0.91406,-0.7617188 0.91406,-1.93359371 z m 0,0"
         style="fill:#000000;fill-opacity:1;fill-rule:nonzero;stroke:none" />
      <path
         id="path28"
         d="m 187.70583,-6.5400703 c 0.0586,-0.1054688 0.0586,-0.1289063 0.0586,-0.1757813 0,-0.09375 -0.082,-0.1992187 -0.19922,-0.1992187 -0.1289,0 -0.19922,0.1171875 -0.23437,0.234375 l -0.82031,2.1914062 h -3.03516 l -0.82031,-2.1914062 c -0.0586,-0.140625 -0.10547,-0.234375 -0.23438,-0.234375 -0.0937,0 -0.19922,0.1054687 -0.19922,0.1992187 0,0.023437 0,0.035156 0.0586,0.1757813 l 2.48437,6.52734374 c 0.0469,0.140625 0.0937,0.234375 0.22266,0.234375 0.14062,0 0.1875,-0.1171875 0.22265,-0.2109375 z m -4.06641,2.4492187 h 2.70703 l -1.35937,3.53906254 z m 0,0"
         style="fill:#000000;fill-opacity:1;fill-rule:nonzero;stroke:none" />
      <path
         id="path29"
         d="m 191.0486,2.3896172 c 0,-0.035156 0,-0.046875 -0.16406,-0.2226563 -1.24219,-1.25390621 -1.57031,-3.12890621 -1.57031,-4.6640625 0,-1.7226562 0.38672,-3.4570312 1.60547,-4.7109375 0.1289,-0.1171875 0.1289,-0.1289062 0.1289,-0.1640625 0,-0.070312 -0.0351,-0.1054687 -0.0937,-0.1054687 -0.10547,0 -0.99609,0.6796875 -1.58203,1.9453125 -0.51562,1.1015625 -0.63281,2.203125 -0.63281,3.0351562 0,0.7851563 0.11719,1.99218754 0.65625,3.11718754 0.59765,1.21874996 1.45312,1.87499996 1.55859,1.87499996 0.0586,0 0.0937,-0.035156 0.0937,-0.1054687 z m 0,0"
         style="fill:#000000;fill-opacity:1;fill-rule:nonzero;stroke:none" />
      <path
         id="path30"
         d="m 192.51052,-0.58694531 c -0.0352,0.15234375 -0.0937,0.375 -0.0937,0.421875 0,0.1875 0.14062,0.26953125 0.29296,0.26953125 0.11719,0 0.29297,-0.0703125 0.36329,-0.26953125 0.0117,-0.0234375 0.1289,-0.4921875 0.1875,-0.73828125 l 0.22265,-0.90234374 c 0.0586,-0.2226563 0.11719,-0.4335938 0.17578,-0.6679688 0.0352,-0.1640625 0.11719,-0.4570312 0.12891,-0.4921875 0.14062,-0.3164062 0.66797,-1.21875 1.61719,-1.21875 0.44531,0 0.53906,0.3632813 0.53906,0.6914063 0,0.2578125 -0.0703,0.5390625 -0.15234,0.8320312 l -0.26954,1.1601563 -0.19921,0.74999999 c -0.0469,0.19921875 -0.14063,0.5390625 -0.14063,0.5859375 0,0.1875 0.14063,0.26953125 0.29297,0.26953125 0.30469,0 0.375,-0.24609375 0.44531,-0.5625 0.14063,-0.56250004 0.51563,-2.01562504 0.59766,-2.40234374 0.0352,-0.1289063 0.5625,-1.3242188 1.65234,-1.3242188 0.42188,0 0.53906,0.3398438 0.53906,0.6914063 0,0.5742187 -0.42187,1.7109375 -0.62109,2.2382812 -0.0937,0.234375 -0.12891,0.35156254 -0.12891,0.55078129 0,0.46875 0.35157,0.80859375 0.8086,0.80859375 0.9375,0 1.3125,-1.45312504 1.3125,-1.53515624 0,-0.09375 -0.0937,-0.09375 -0.11719,-0.09375 -0.10547,0 -0.10547,0.023437 -0.15234,0.1757812 -0.15235,0.52734379 -0.46875,1.24218754 -1.01953,1.24218754 -0.16407,0 -0.23438,-0.10546875 -0.23438,-0.328125 0,-0.2578125 0.082,-0.4921875 0.17578,-0.71484374 0.1875,-0.515625 0.60938,-1.6171875 0.60938,-2.1914063 0,-0.6445312 -0.39844,-1.0664062 -1.14844,-1.0664062 -0.75,0 -1.25391,0.4453125 -1.61719,0.9726562 -0.0117,-0.1289062 -0.0469,-0.46875 -0.32812,-0.7148437 -0.2461,-0.1992188 -0.5625,-0.2578125 -0.8086,-0.2578125 -0.90234,0 -1.38281,0.6445312 -1.55859,0.8671875 -0.0469,-0.5625 -0.46875,-0.8671875 -0.91406,-0.8671875 -0.45703,0 -0.64453,0.3867187 -0.73828,0.5742187 -0.17579,0.3398438 -0.30469,0.9375 -0.30469,0.9609375 0,0.1054688 0.0937,0.1054688 0.11719,0.1054688 0.0937,0 0.10546,-0.011719 0.16406,-0.234375 0.17578,-0.703125 0.375,-1.1835938 0.72656,-1.1835938 0.16406,0 0.31641,0.082031 0.31641,0.4570313 0,0.2109375 -0.0352,0.3164062 -0.16407,0.8320312 z m 9.89355,0.57421875 c 0,-0.65625 -0.25781,-1.04296874 -0.64453,-1.04296874 -0.32813,0 -0.52734,0.24609374 -0.52734,0.52734374 0,0.26953125 0.19921,0.52734375 0.52734,0.52734375 0.11719,0 0.24609,-0.03515625 0.35156,-0.12890625 0.0234,-0.0234375 0.0352,-0.0351563 0.0469,-0.0351563 0.0117,0 0.0234,0.0117188 0.0234,0.15234375 0,0.73828125 -0.35156,1.33593741 -0.67968,1.66406241 -0.10547,0.1054688 -0.10547,0.1289063 -0.10547,0.1640625 0,0.070312 0.0469,0.1054688 0.0937,0.1054688 0.11719,0 0.91406,-0.7617188 0.91406,-1.93359371 z m 5.21191,-6.21093754 c 0,-0.1992187 -0.1289,-0.3632812 -0.36328,-0.3632812 -0.26953,0 -0.53906,0.2578125 -0.53906,0.5273437 0,0.1875 0.14063,0.3632813 0.375,0.3632813 0.23438,0 0.52734,-0.234375 0.52734,-0.5273438 z m -0.75,3.7382813 c 0.11719,-0.28125 0.11719,-0.3046875 0.22266,-0.5742188 0.0703,-0.1992187 0.12891,-0.3398437 0.12891,-0.5273437 0,-0.4453125 -0.32813,-0.8203125 -0.82032,-0.8203125 -0.9375,0 -1.3125,1.453125 -1.3125,1.5351562 0,0.1054688 0.0937,0.1054688 0.11719,0.1054688 0.0937,0 0.10547,-0.023437 0.15235,-0.1875 0.26953,-0.9375 0.66796,-1.2304688 1.00781,-1.2304688 0.082,0 0.25781,0 0.25781,0.3164063 0,0.2109375 -0.0703,0.421875 -0.11719,0.515625 -0.082,0.2578125 -0.52734,1.4179687 -0.67968,1.8515625 -0.10547,0.2578125 -0.23438,0.58593749 -0.23438,0.79687499 0,0.46875 0.33984,0.80859375 0.82031,0.80859375 0.9375,0 1.30078,-1.44140624 1.30078,-1.53515624 0,-0.09375 -0.0937,-0.09375 -0.11718,-0.09375 -0.10547,0 -0.10547,0.023437 -0.15235,0.1757812 -0.17578,0.63281254 -0.5039,1.24218754 -1.01953,1.24218754 -0.16406,0 -0.23437,-0.10546875 -0.23437,-0.328125 0,-0.2578125 0.0586,-0.3984375 0.29297,-0.99609374 z m 0,0"
         style="fill:#000000;fill-opacity:1;fill-rule:nonzero;stroke:none" />
      <path
         id="path31"
         d="m 211.12282,-2.4971016 c 0,-0.7734375 -0.11719,-1.9804687 -0.65625,-3.1054687 -0.59766,-1.21875 -1.46484,-1.875 -1.55859,-1.875 -0.0586,0 -0.10547,0.046875 -0.10547,0.1054687 0,0.035156 0,0.046875 0.19922,0.234375 0.97265,0.984375 1.53515,2.5664063 1.53515,4.640625 0,1.71093754 -0.36328,3.45703129 -1.59375,4.7226563 -0.14062,0.1171875 -0.14062,0.1289062 -0.14062,0.1640625 0,0.058594 0.0469,0.1054687 0.10547,0.1054687 0.0937,0 0.99609,-0.6796875 1.58203,-1.94531246 0.5039,-1.1015625 0.63281,-2.20312504 0.63281,-3.04687504 z m 0,0"
         style="fill:#000000;fill-opacity:1;fill-rule:nonzero;stroke:none" />
      <path
         id="path32"
         d="m 214.1404,-0.01272656 c 0,-0.65625 -0.25781,-1.04296874 -0.64453,-1.04296874 -0.32813,0 -0.52735,0.24609374 -0.52735,0.52734374 0,0.26953125 0.19922,0.52734375 0.52735,0.52734375 0.11718,0 0.24609,-0.03515625 0.35156,-0.12890625 0.0234,-0.0234375 0.0352,-0.0351563 0.0469,-0.0351563 0.0117,0 0.0234,0.0117188 0.0234,0.15234375 0,0.73828125 -0.35156,1.33593741 -0.67969,1.66406241 -0.10546,0.1054688 -0.10546,0.1289063 -0.10546,0.1640625 0,0.070312 0.0469,0.1054688 0.0937,0.1054688 0.11718,0 0.91406,-0.7617188 0.91406,-1.93359371 z m 0,0"
         style="fill:#000000;fill-opacity:1;fill-rule:nonzero;stroke:none" />
      <path
         id="path33"
         d="m 219.83278,2.3896172 c 0,-0.035156 0,-0.046875 -0.16406,-0.2226563 -1.24219,-1.25390621 -1.57031,-3.12890621 -1.57031,-4.6640625 0,-1.7226562 0.38672,-3.4570312 1.60547,-4.7109375 0.1289,-0.1171875 0.1289,-0.1289062 0.1289,-0.1640625 0,-0.070312 -0.0352,-0.1054687 -0.0937,-0.1054687 -0.10547,0 -0.99609,0.6796875 -1.58203,1.9453125 -0.51562,1.1015625 -0.63281,2.203125 -0.63281,3.0351562 0,0.7851563 0.11719,1.99218754 0.65625,3.11718754 0.59765,1.21874996 1.45312,1.87499996 1.55859,1.87499996 0.0586,0 0.0937,-0.035156 0.0937,-0.1054687 z m 0,0"
         style="fill:#000000;fill-opacity:1;fill-rule:nonzero;stroke:none" />
      <path
         id="path34"
         d="m 221.2947,-0.58694531 c -0.0352,0.15234375 -0.0937,0.375 -0.0937,0.421875 0,0.1875 0.14062,0.26953125 0.29296,0.26953125 0.11719,0 0.29297,-0.0703125 0.36329,-0.26953125 0.0117,-0.0234375 0.1289,-0.4921875 0.1875,-0.73828125 l 0.22265,-0.90234374 c 0.0586,-0.2226563 0.11719,-0.4335938 0.17578,-0.6679688 0.0352,-0.1640625 0.11719,-0.4570312 0.12891,-0.4921875 0.14062,-0.3164062 0.66797,-1.21875 1.61719,-1.21875 0.44531,0 0.53906,0.3632813 0.53906,0.6914063 0,0.2578125 -0.0703,0.5390625 -0.15234,0.8320312 l -0.26954,1.1601563 -0.19921,0.74999999 c -0.0469,0.19921875 -0.14063,0.5390625 -0.14063,0.5859375 0,0.1875 0.14063,0.26953125 0.29297,0.26953125 0.30469,0 0.375,-0.24609375 0.44531,-0.5625 0.14063,-0.56250004 0.51563,-2.01562504 0.59766,-2.40234374 0.0351,-0.1289063 0.5625,-1.3242188 1.65234,-1.3242188 0.42188,0 0.53906,0.3398438 0.53906,0.6914063 0,0.5742187 -0.42187,1.7109375 -0.62109,2.2382812 -0.0937,0.234375 -0.12891,0.35156254 -0.12891,0.55078129 0,0.46875 0.35157,0.80859375 0.8086,0.80859375 0.9375,0 1.3125,-1.45312504 1.3125,-1.53515624 0,-0.09375 -0.0937,-0.09375 -0.11719,-0.09375 -0.10547,0 -0.10547,0.023437 -0.15234,0.1757812 -0.15235,0.52734379 -0.46875,1.24218754 -1.01953,1.24218754 -0.16407,0 -0.23438,-0.10546875 -0.23438,-0.328125 0,-0.2578125 0.082,-0.4921875 0.17578,-0.71484374 0.1875,-0.515625 0.60938,-1.6171875 0.60938,-2.1914063 0,-0.6445312 -0.39844,-1.0664062 -1.14844,-1.0664062 -0.75,0 -1.25391,0.4453125 -1.61719,0.9726562 -0.0117,-0.1289062 -0.0469,-0.46875 -0.32812,-0.7148437 -0.2461,-0.1992188 -0.5625,-0.2578125 -0.8086,-0.2578125 -0.90234,0 -1.38281,0.6445312 -1.55859,0.8671875 -0.0469,-0.5625 -0.46875,-0.8671875 -0.91406,-0.8671875 -0.45703,0 -0.64453,0.3867187 -0.73828,0.5742187 -0.17579,0.3398438 -0.30469,0.9375 -0.30469,0.9609375 0,0.1054688 0.0937,0.1054688 0.11719,0.1054688 0.0937,0 0.10546,-0.011719 0.16406,-0.234375 0.17578,-0.703125 0.375,-1.1835938 0.72656,-1.1835938 0.16406,0 0.31641,0.082031 0.31641,0.4570313 0,0.2109375 -0.0352,0.3164062 -0.16407,0.8320312 z m 9.89355,0.57421875 c 0,-0.65625 -0.25781,-1.04296874 -0.64453,-1.04296874 -0.32813,0 -0.52734,0.24609374 -0.52734,0.52734374 0,0.26953125 0.19921,0.52734375 0.52734,0.52734375 0.11719,0 0.24609,-0.03515625 0.35156,-0.12890625 0.0234,-0.0234375 0.0352,-0.0351563 0.0469,-0.0351563 0.0117,0 0.0234,0.0117188 0.0234,0.15234375 0,0.73828125 -0.35156,1.33593741 -0.67968,1.66406241 -0.10547,0.1054688 -0.10547,0.1289063 -0.10547,0.1640625 0,0.070312 0.0469,0.1054688 0.0937,0.1054688 0.11719,0 0.91406,-0.7617188 0.91406,-1.93359371 z m 5.21191,-6.21093754 c 0,-0.1992187 -0.1289,-0.3632812 -0.36328,-0.3632812 -0.26953,0 -0.53906,0.2578125 -0.53906,0.5273437 0,0.1875 0.14063,0.3632813 0.375,0.3632813 0.23438,0 0.52734,-0.234375 0.52734,-0.5273438 z m -0.75,3.7382813 c 0.11719,-0.28125 0.11719,-0.3046875 0.22266,-0.5742188 0.0703,-0.1992187 0.12891,-0.3398437 0.12891,-0.5273437 0,-0.4453125 -0.32813,-0.8203125 -0.82032,-0.8203125 -0.9375,0 -1.3125,1.453125 -1.3125,1.5351562 0,0.1054688 0.0937,0.1054688 0.11719,0.1054688 0.0937,0 0.10547,-0.023437 0.15235,-0.1875 0.26953,-0.9375 0.66796,-1.2304688 1.00781,-1.2304688 0.082,0 0.25781,0 0.25781,0.3164063 0,0.2109375 -0.0703,0.421875 -0.11719,0.515625 -0.082,0.2578125 -0.52734,1.4179687 -0.67968,1.8515625 -0.10547,0.2578125 -0.23438,0.58593749 -0.23438,0.79687499 0,0.46875 0.33984,0.80859375 0.82031,0.80859375 0.9375,0 1.30078,-1.44140624 1.30078,-1.53515624 0,-0.09375 -0.0937,-0.09375 -0.11718,-0.09375 -0.10547,0 -0.10547,0.023437 -0.15235,0.1757812 -0.17578,0.63281254 -0.5039,1.24218754 -1.01953,1.24218754 -0.16406,0 -0.23437,-0.10546875 -0.23437,-0.328125 0,-0.2578125 0.0586,-0.3984375 0.29297,-0.99609374 z m 0,0"
         style="fill:#000000;fill-opacity:1;fill-rule:nonzero;stroke:none" />
      <path
         id="path35"
         d="m 243.31423,-2.2978828 h 2.77734 c 0.14063,0 0.32813,0 0.32813,-0.1992188 0,-0.1992187 -0.1875,-0.1992187 -0.32813,-0.1992187 h -2.77734 v -2.7890625 c 0,-0.1289063 0,-0.328125 -0.19922,-0.328125 -0.19922,0 -0.19922,0.1992187 -0.19922,0.328125 v 2.7890625 h -2.78906 c -0.14063,0 -0.32813,0 -0.32813,0.1992187 0,0.1992188 0.1875,0.1992188 0.32813,0.1992188 h 2.78906 v 2.80078124 c 0,0.12890625 0,0.328125 0.19922,0.328125 0.19922,0 0.19922,-0.19921875 0.19922,-0.328125 z m 8.80371,-4.078125 c 0,-0.234375 0,-0.2578125 -0.23438,-0.2578125 -0.60937,0.6328125 -1.48828,0.6328125 -1.80468,0.6328125 v 0.3164062 c 0.19921,0 0.78515,0 1.30078,-0.2578125 v 5.15625004 c 0,0.3515625 -0.0352,0.48046875 -0.92578,0.48046875 h -0.31641 v 0.3046875 c 0.35156,-0.03515625 1.20703,-0.03515625 1.60547,-0.03515625 0.39844,0 1.26562,0 1.61719,0.03515625 v -0.3046875 h -0.31641 c -0.90234,0 -0.92578,-0.1171875 -0.92578,-0.48046875 z m 4.93652,3.8789062 c 0,-0.7734375 -0.11719,-1.9804687 -0.65625,-3.1054687 -0.59766,-1.21875 -1.46484,-1.875 -1.55859,-1.875 -0.0586,0 -0.10547,0.046875 -0.10547,0.1054687 0,0.035156 0,0.046875 0.19922,0.234375 0.97265,0.984375 1.53515,2.5664063 1.53515,4.640625 0,1.71093754 -0.36328,3.45703129 -1.59375,4.7226563 -0.14062,0.1171875 -0.14062,0.1289062 -0.14062,0.1640625 0,0.058594 0.0469,0.1054687 0.10547,0.1054687 0.0937,0 0.99609,-0.6796875 1.58203,-1.94531246 0.5039,-1.1015625 0.63281,-2.20312504 0.63281,-3.04687504 z m 0,0"
         style="fill:#000000;fill-opacity:1;fill-rule:nonzero;stroke:none" />
      <path
         id="path36"
         d="m 266.28298,-2.2978828 c 0.16406,0 0.35156,0 0.35156,-0.1992188 0,-0.1992187 -0.1875,-0.1992187 -0.35156,-0.1992187 h -4.23047 c 0.1289,-1.3242188 1.26562,-2.2851563 2.67187,-2.2851563 h 1.5586 c 0.16406,0 0.35156,0 0.35156,-0.1992187 0,-0.1992188 -0.1875,-0.1992188 -0.35156,-0.1992188 h -1.57032 c -1.71093,0 -3.05859,1.2890625 -3.05859,2.8828125 0,1.59375004 1.34766,2.89453129 3.05859,2.89453129 h 1.57032 c 0.16406,0 0.35156,0 0.35156,-0.19921875 0,-0.19921875 -0.1875,-0.19921875 -0.35156,-0.19921875 h -1.5586 c -1.40625,0 -2.54297,-0.9609375 -2.67187,-2.29687499 z m 0,0"
         style="fill:#000000;fill-opacity:1;fill-rule:nonzero;stroke:none" />
      <path
         id="path37"
         d="m 277.80251,-6.9267891 c 0,-0.023437 -0.0234,-0.09375 -0.10547,-0.09375 -0.0352,0 -0.0469,0.011719 -0.15234,0.1171875 l -0.70313,0.7617188 c -0.082,-0.140625 -0.53906,-0.8789063 -1.65234,-0.8789063 -2.21485,0 -4.45313,2.203125 -4.45313,4.5117188 0,1.64062499 1.17188,2.73046874 2.69531,2.73046874 0.86719,0 1.61719,-0.3984375 2.14454,-0.85546875 0.9375,-0.82031249 1.10156,-1.72265629 1.10156,-1.75781249 0,-0.1054688 -0.10547,-0.1054688 -0.11719,-0.1054688 -0.0586,0 -0.11719,0.023437 -0.12891,0.1054688 -0.0937,0.2929687 -0.3164,0.9960937 -1.00781,1.57031249 -0.6914,0.5625 -1.3125,0.7265625 -1.83984,0.7265625 -0.89063,0 -1.94531,-0.515625 -1.94531,-2.06249999 0,-0.5742188 0.21093,-2.1914063 1.20703,-3.3515625 0.60937,-0.703125 1.53515,-1.2070313 2.42578,-1.2070313 1.01953,0 1.60547,0.7734375 1.60547,1.921875 0,0.3984375 -0.0352,0.4101563 -0.0352,0.5039063 0,0.1054687 0.11719,0.1054687 0.15234,0.1054687 0.12891,0 0.12891,-0.023437 0.17579,-0.1992187 z m 0,0"
         style="fill:#000000;fill-opacity:1;fill-rule:nonzero;stroke:none" />
    </g>
  </g>
</svg>
