<?xml version="1.0" encoding="UTF-8" standalone="no"?>
<!-- Created with Inkscape (http://www.inkscape.org/) -->

<svg
   version="1.1"
   id="svg1"
   width="398.58594"
   height="31.441406"
   viewBox="0 0 398.58594 31.441406"
   sodipodi:docname="Formulas.pdf"
   xmlns:inkscape="http://www.inkscape.org/namespaces/inkscape"
   xmlns:sodipodi="http://sodipodi.sourceforge.net/DTD/sodipodi-0.dtd"
   xmlns="http://www.w3.org/2000/svg"
   xmlns:svg="http://www.w3.org/2000/svg">
  <defs
     id="defs1" />
  <sodipodi:namedview
     id="namedview1"
     pagecolor="#ffffff"
     bordercolor="#000000"
     borderopacity="0.25"
     inkscape:showpageshadow="2"
     inkscape:pageopacity="0.0"
     inkscape:pagecheckerboard="0"
     inkscape:deskcolor="#d1d1d1" />
  <g
     id="g1"
     inkscape:groupmode="layer"
     inkscape:label="1"
     transform="translate(-328.89062,-112.60547)">
    <g
       id="g2"
       aria-label="∑&#10;(n,j)∈C∪{0}&#10;Z&#10;(n,j)(m,i),l&#10;=&#10;∑&#10;(h,k)∈C∪{0}&#10;Z&#10;(m,i)(h,k),l&#10;∀(m,i)∈C,∀l∈B"
       transform="matrix(1.3333333,0,0,1.3333333,349.096,112.604)">
      <path
         id="path2"
         d="m 12.610617,13.946414 1.207031,-3.1875 h -0.246093 c -0.386719,1.03125 -1.453125,1.710938 -2.589844,2.015625 -0.210938,0.04687 -1.1835938,0.304688 -3.1054688,0.304688 h -6 l 5.0625,-5.9414067 c 0.070312,-0.082031 0.09375,-0.1171875 0.09375,-0.1640625 0,-0.023437 0,-0.046875 -0.070312,-0.1523437 L 2.3215547,0.48157031 h 5.4609375 c 1.3359375,0 2.2382808,0.140625 2.3320308,0.15234375 0.539063,0.0820313 1.40625,0.2578125 2.191407,0.75000004 0.246093,0.1640625 0.925781,0.609375 1.265625,1.4179687 h 0.246093 L 12.610617,0.00110156 H 0.83327344 c -0.22265625,0 -0.234375,0.01171875 -0.26953125,0.0703125 0,0.03515625 0,0.22265625 0,0.328125 L 5.8254609,7.6065703 0.66921094,13.653445 c -0.10546875,0.128907 -0.10546875,0.175782 -0.10546875,0.1875 0,0.105469 0.09375,0.105469 0.26953125,0.105469 z m 0,0"
         style="fill:#000000;fill-opacity:1;fill-rule:nonzero;stroke:none" />
      <path
         id="path3"
         d="m -13.47825,16.6095 c -1.324219,0.925781 -1.675781,2.414063 -1.675781,3.480469 0,0.984375 0.292969,2.507812 1.675781,3.480469 0.05859,0 0.140625,0 0.140625,-0.08203 0,-0.04687 -0.02344,-0.05859 -0.07031,-0.105468 -0.925782,-0.832032 -1.265625,-2.015625 -1.265625,-3.292969 0,-1.875 0.714843,-2.800781 1.289062,-3.316406 0.02344,-0.02344 0.04687,-0.04687 0.04687,-0.08203 0,-0.08203 -0.08203,-0.08203 -0.140625,-0.08203 z m 0,0"
         style="fill:#000000;fill-opacity:1;fill-rule:nonzero;stroke:none" />
      <path
         id="path4"
         d="m -11.98118,21.402469 c -0.03516,0.08203 -0.07031,0.257812 -0.07031,0.28125 0,0.152344 0.117187,0.222656 0.234375,0.222656 0.128906,0 0.234375,-0.09375 0.269531,-0.152344 0.03516,-0.05859 0.09375,-0.292968 0.128906,-0.433593 0.03516,-0.128907 0.105469,-0.457032 0.152344,-0.632813 0.03516,-0.152344 0.08203,-0.304687 0.117188,-0.457031 0.08203,-0.292969 0.09375,-0.351563 0.292968,-0.632813 0.199219,-0.28125 0.527344,-0.644531 1.0429691,-0.644531 0.4101562,0 0.4101562,0.363281 0.4101562,0.492188 0,0.421875 -0.2929687,1.195312 -0.4101562,1.488281 -0.070312,0.1875 -0.1054688,0.257812 -0.1054688,0.375 0,0.363281 0.3046875,0.597656 0.6679688,0.597656 0.6914062,0 1.0078125,-0.960937 1.0078125,-1.066406 0,-0.09375 -0.09375,-0.09375 -0.1171875,-0.09375 -0.09375,0 -0.1054688,0.04687 -0.1289063,0.117187 -0.1640625,0.5625 -0.46875,0.84375 -0.7382812,0.84375 -0.1523438,0 -0.1757813,-0.09375 -0.1757813,-0.246093 0,-0.152344 0.035156,-0.246094 0.1523438,-0.5625 0.09375,-0.210938 0.375,-0.949219 0.375,-1.347657 0,-0.667968 -0.5390625,-0.785156 -0.9023438,-0.785156 -0.5859373,0 -0.9726563,0.351563 -1.1835933,0.632813 -0.04687,-0.480469 -0.457032,-0.632813 -0.75,-0.632813 -0.292969,0 -0.457032,0.210938 -0.550782,0.375 -0.152343,0.257813 -0.246093,0.65625 -0.246093,0.691406 0,0.08203 0.09375,0.08203 0.117187,0.08203 0.09375,0 0.105469,-0.01172 0.152344,-0.199219 0.105469,-0.421875 0.234375,-0.761719 0.515625,-0.761719 0.175781,0 0.222656,0.152344 0.222656,0.339844 0,0.140625 -0.05859,0.398437 -0.105469,0.585937 -0.04687,0.1875 -0.117187,0.46875 -0.152343,0.621094 z m 5.5429691,0.316406 c 0,0.386719 -0.070312,0.832031 -0.5507813,1.277344 -0.023437,0.03516 -0.046875,0.05859 -0.046875,0.09375 0,0.04687 0.058594,0.09375 0.09375,0.09375 0.1054688,0 0.6914063,-0.5625 0.6914063,-1.394531 0,-0.421875 -0.1640625,-0.75 -0.4804688,-0.75 -0.234375,0 -0.3984375,0.175781 -0.3984375,0.386718 0,0.234375 0.1523438,0.410157 0.3984375,0.410157 0.1640625,0 0.28125,-0.117188 0.2929688,-0.117188 z m 3.946289,-4.242187 c 0,-0.117188 -0.09375,-0.257813 -0.28125,-0.257813 -0.1992187,0 -0.3867187,0.1875 -0.3867187,0.375 0,0.117188 0.082031,0.269531 0.28125,0.269531 0.1875,0 0.3867187,-0.1875 0.3867187,-0.386718 z m -1.4765625,4.699218 c -0.1171875,0.480469 -0.4921875,0.890625 -0.9023437,0.890625 -0.082031,0 -0.1757813,-0.01172 -0.2460938,-0.04687 0.1757813,-0.08203 0.234375,-0.246093 0.234375,-0.351562 0,-0.164063 -0.1289062,-0.257813 -0.2695312,-0.257813 -0.2226563,0 -0.3984375,0.1875 -0.3984375,0.410157 0,0.269531 0.2695312,0.433593 0.6914062,0.433593 0.421875,0 1.2304688,-0.246093 1.453125,-1.101562 l 0.6210938,-2.496094 c 0.023437,-0.07031 0.035156,-0.140625 0.035156,-0.234375 0,-0.386719 -0.328125,-0.65625 -0.7382812,-0.65625 -0.7851563,0 -1.2304688,0.960938 -1.2304688,1.066406 0,0.08203 0.1054688,0.08203 0.1289063,0.08203 0.082031,0 0.082031,-0.01172 0.1289062,-0.117188 0.1757813,-0.410156 0.5390625,-0.84375 0.9492188,-0.84375 0.1757812,0 0.234375,0.117188 0.234375,0.339844 0,0.08203 -0.011719,0.175781 -0.023437,0.210937 z m 0,0"
         style="fill:#000000;fill-opacity:1;fill-rule:nonzero;stroke:none" />
      <path
         id="path5"
         d="m -1.2145781,16.6095 c -0.058594,0 -0.140625,0 -0.140625,0.08203 0,0.03516 0.023437,0.05859 0.070312,0.105469 0.59765623,0.550781 1.26562498,1.488281 1.26562498,3.292969 0,1.453125 -0.45703125,2.554687 -1.20703128,3.234375 -0.1171875,0.117187 -0.1289062,0.128906 -0.1289062,0.164062 0,0.03516 0.023437,0.08203 0.09375,0.08203 0.082031,0 0.74999998,-0.457032 1.20703123,-1.324219 0.3046875,-0.585938 0.50390625,-1.335938 0.50390625,-2.15625 0,-0.984375 -0.29296875,-2.507813 -1.66406248,-3.480469 z m 0,0"
         style="fill:#000000;fill-opacity:1;fill-rule:nonzero;stroke:none" />
      <path
         id="path6"
         d="m 5.5910859,20.26575 c 0.1171875,0 0.28125,0 0.28125,-0.175781 0,-0.175781 -0.1523437,-0.175781 -0.28125,-0.175781 H 2.3684297 c 0.1054687,-1.007813 0.9492187,-1.757813 2.0390625,-1.757813 h 1.1835937 c 0.1171875,0 0.28125,0 0.28125,-0.164062 0,-0.175782 -0.1523437,-0.175782 -0.28125,-0.175782 h -1.21875 c -1.2890625,0 -2.3554687,1.019532 -2.3554687,2.273438 0,1.277344 1.078125,2.273437 2.3554687,2.273437 h 1.21875 c 0.1171875,0 0.28125,0 0.28125,-0.164062 0,-0.175781 -0.1523437,-0.175781 -0.28125,-0.175781 H 4.4074922 c -1.0898438,0 -1.9335938,-0.75 -2.0390625,-1.757813 z m 0,0"
         style="fill:#000000;fill-opacity:1;fill-rule:nonzero;stroke:none" />
      <path
         id="path7"
         d="m 12.516867,17.019656 c 0,-0.03516 -0.02344,-0.08203 -0.09375,-0.08203 -0.04687,0 -0.07031,0.01172 -0.128906,0.08203 l -0.503906,0.539063 c -0.07031,-0.08203 -0.457032,-0.621094 -1.3125,-0.621094 -1.6992191,0 -3.3515628,1.5 -3.3515628,3.070313 0,1.136718 0.890625,1.96875 2.1328125,1.96875 0.375,0 1.0546873,-0.08203 1.7695313,-0.679688 0.550781,-0.46875 0.703125,-1.078125 0.703125,-1.136719 0,-0.09375 -0.08203,-0.09375 -0.117188,-0.09375 -0.09375,0 -0.105468,0.03516 -0.128906,0.117188 -0.28125,0.949219 -1.265625,1.535156 -2.1093748,1.535156 -0.7382813,0 -1.5585938,-0.386719 -1.5585938,-1.488281 0,-0.210938 0.046875,-1.3125 0.8554688,-2.191406 0.4804687,-0.527344 1.2070312,-0.855469 1.8749998,-0.855469 0.808594,0 1.277344,0.585937 1.277344,1.371094 0,0.1875 -0.02344,0.246093 -0.02344,0.28125 0,0.09375 0.09375,0.09375 0.128907,0.09375 0.117187,0 0.117187,-0.02344 0.152343,-0.152344 z m 0,0"
         style="fill:#000000;fill-opacity:1;fill-rule:nonzero;stroke:none" />
      <path
         id="path8"
         d="m 17.667258,17.922 c 0,-0.105469 0,-0.28125 -0.175781,-0.28125 -0.164063,0 -0.164063,0.164063 -0.164063,0.28125 v 2.496094 c 0,0.1875 0,0.609375 -0.585937,0.9375 -0.433594,0.234375 -0.9375,0.28125 -1.21875,0.28125 -0.621094,0 -1.054688,-0.1875 -1.230469,-0.292969 -0.492188,-0.292969 -0.574219,-0.597656 -0.574219,-0.925781 V 17.922 c 0,-0.105469 0,-0.28125 -0.164062,-0.28125 -0.175782,0 -0.175782,0.164063 -0.175782,0.28125 v 2.507813 c 0,1.160156 1.242188,1.546875 2.132813,1.546875 0.902344,0 2.15625,-0.375 2.15625,-1.546875 z m 2.841797,-0.316406 c 0,-0.128906 0,-0.339844 0.210937,-0.539063 0.210938,-0.175781 0.480469,-0.246093 0.75,-0.269531 0.09375,0 0.152344,0 0.152344,-0.09375 0,-0.09375 -0.07031,-0.09375 -0.175781,-0.09375 -0.75,0 -1.476563,0.316406 -1.476563,0.878906 v 1.640625 c 0,0.175782 0,0.398438 -0.234375,0.597657 -0.164062,0.140625 -0.386719,0.246093 -0.738281,0.269531 -0.08203,0.01172 -0.140625,0.01172 -0.140625,0.09375 0,0.09375 0.05859,0.09375 0.117187,0.105469 0.832032,0.04687 0.984375,0.527343 0.996094,0.726562 v 1.640625 c 0,0.1875 0,0.503906 0.363281,0.738281 0.386719,0.246094 0.9375,0.28125 1.113282,0.28125 0.105468,0 0.175781,0 0.175781,-0.105468 0,-0.08203 -0.07031,-0.09375 -0.128906,-0.09375 -0.644532,-0.03516 -0.914063,-0.351563 -0.972657,-0.609375 -0.01172,-0.07031 -0.01172,-0.117188 -0.01172,-0.210938 v -1.464844 c 0,-0.199218 0,-0.457031 -0.1875,-0.644531 -0.09375,-0.09375 -0.257813,-0.257812 -0.644532,-0.363281 0.28125,-0.07031 0.75,-0.257813 0.820313,-0.738281 0.01172,-0.03516 0.01172,-0.05859 0.01172,-0.28125 z m 0,0"
         style="fill:#000000;fill-opacity:1;fill-rule:nonzero;stroke:none" />
      <path
         id="path9"
         d="m 25.887961,19.6095 c 0,-0.761719 -0.09375,-1.3125 -0.410156,-1.804687 -0.222657,-0.316407 -0.644532,-0.597657 -1.207032,-0.597657 -1.617187,0 -1.617187,1.898438 -1.617187,2.402344 0,0.503906 0,2.367188 1.617187,2.367188 1.617188,0 1.617188,-1.863282 1.617188,-2.367188 z m -1.617188,2.167969 c -0.316406,0 -0.75,-0.1875 -0.890625,-0.761719 -0.09375,-0.410156 -0.09375,-0.984375 -0.09375,-1.5 0,-0.503906 0,-1.03125 0.105469,-1.417969 0.152344,-0.550781 0.597656,-0.691406 0.878906,-0.691406 0.375,0 0.738282,0.222656 0.867188,0.632813 0.105469,0.375 0.117187,0.878906 0.117187,1.476562 0,0.515625 0,1.042969 -0.09375,1.476563 -0.140625,0.632812 -0.609375,0.785156 -0.890625,0.785156 z m 0,0"
         style="fill:#000000;fill-opacity:1;fill-rule:nonzero;stroke:none" />
      <path
         id="path10"
         d="m 28.568625,21.062625 c 0,-0.1875 0,-0.410156 0.234375,-0.609375 0.164063,-0.128906 0.386719,-0.246094 0.738281,-0.257812 0.08203,-0.01172 0.140625,-0.01172 0.140625,-0.105469 0,-0.08203 -0.07031,-0.08203 -0.128906,-0.09375 -0.820312,-0.05859 -0.972656,-0.539063 -0.984375,-0.738281 v -1.628907 c 0,-0.1875 0,-0.503906 -0.375,-0.738281 -0.386719,-0.257812 -0.925781,-0.28125 -1.101562,-0.28125 -0.105469,0 -0.175782,0 -0.175782,0.09375 0,0.09375 0.05859,0.09375 0.117188,0.09375 0.65625,0.03516 0.925781,0.351563 0.972656,0.609375 0.02344,0.07031 0.02344,0.117188 0.02344,0.222656 v 1.464844 c 0,0.199219 0,0.445313 0.175781,0.632813 0.09375,0.09375 0.257812,0.257812 0.644531,0.363281 -0.269531,0.08203 -0.738281,0.269531 -0.820312,0.738281 0,0.04687 0,0.05859 0,0.28125 v 1.464844 c 0,0.140625 0,0.351562 -0.222657,0.539062 -0.210937,0.1875 -0.46875,0.246094 -0.75,0.269532 -0.09375,0.01172 -0.140625,0.01172 -0.140625,0.09375 0,0.105468 0.07031,0.105468 0.175782,0.105468 0.738281,0 1.464843,-0.316406 1.476562,-0.878906 z m 0,0"
         style="fill:#000000;fill-opacity:1;fill-rule:nonzero;stroke:none" />
      <path
         id="path11"
         d="m 39.174094,2.9014922 c 0.01172,-0.046875 0.03516,-0.09375 0.03516,-0.1523438 0,-0.09375 -0.05859,-0.09375 -0.257812,-0.09375 h -4.195313 c -0.246094,0 -0.257812,0.011719 -0.316406,0.1992188 L 33.90066,4.6475859 c -0.02344,0.058594 -0.03516,0.1289063 -0.03516,0.140625 0,0.011719 0,0.1171875 0.117188,0.1171875 0.09375,0 0.117187,-0.070312 0.128906,-0.1054687 0.386719,-1.171875 0.902344,-1.828125 2.449219,-1.828125 h 1.628906 l -5.566406,6.2226562 c 0,0.011719 -0.04687,0.1523438 -0.04687,0.1757813 0,0.09375 0.07031,0.09375 0.257812,0.09375 h 4.324219 c 0.246094,0 0.257812,-0.011719 0.316406,-0.1992188 L 38.178,7.0616484 c 0.01172,-0.035156 0.03516,-0.1054687 0.03516,-0.1523437 0,-0.046875 -0.03516,-0.1054688 -0.128906,-0.1054688 -0.08203,0 -0.09375,0.035156 -0.164062,0.2460938 -0.433594,1.359375 -0.914063,2.0742187 -2.613282,2.0742187 h -1.699218 z m 0,0"
         style="fill:#000000;fill-opacity:1;fill-rule:nonzero;stroke:none" />
      <path
         id="path12"
         d="m 41.27468,6.0362578 c -1.324219,0.9257813 -1.675782,2.4140625 -1.675782,3.4804688 0,0.9843754 0.292969,2.5078124 1.675782,3.4804684 0.05859,0 0.140625,0 0.140625,-0.08203 0,-0.04687 -0.02344,-0.05859 -0.07031,-0.105469 -0.925781,-0.832031 -1.265625,-2.015625 -1.265625,-3.2929684 0,-1.875 0.714844,-2.8007813 1.289063,-3.3164063 0.02344,-0.023437 0.04687,-0.046875 0.04687,-0.082031 0,-0.082031 -0.08203,-0.082031 -0.140625,-0.082031 z m 0,0"
         style="fill:#000000;fill-opacity:1;fill-rule:nonzero;stroke:none" />
      <path
         id="path13"
         d="m 42.77175,10.829227 c -0.03516,0.08203 -0.07031,0.257812 -0.07031,0.28125 0,0.152343 0.117187,0.222656 0.234375,0.222656 0.128906,0 0.234375,-0.09375 0.269531,-0.152344 0.03516,-0.05859 0.09375,-0.292969 0.128906,-0.433594 0.03516,-0.128906 0.105469,-0.457031 0.152344,-0.632812 0.03516,-0.1523439 0.08203,-0.3046877 0.117187,-0.4570314 0.08203,-0.2929688 0.09375,-0.3515625 0.292969,-0.6328125 0.199219,-0.28125 0.527344,-0.6445313 1.042969,-0.6445313 0.410156,0 0.410156,0.3632813 0.410156,0.4921875 0,0.421875 -0.292969,1.1953127 -0.410156,1.4882817 -0.07031,0.1875 -0.105469,0.257812 -0.105469,0.375 0,0.363281 0.304688,0.597656 0.667969,0.597656 0.691406,0 1.007812,-0.960938 1.007812,-1.066406 0,-0.09375 -0.09375,-0.09375 -0.117187,-0.09375 -0.09375,0 -0.105469,0.04687 -0.128906,0.117187 -0.164063,0.5625 -0.46875,0.84375 -0.738282,0.84375 -0.152343,0 -0.175781,-0.09375 -0.175781,-0.246094 0,-0.152343 0.03516,-0.246093 0.152344,-0.5625 0.09375,-0.210937 0.375,-0.9492184 0.375,-1.3476559 0,-0.6679688 -0.539063,-0.7851563 -0.902344,-0.7851563 -0.585937,0 -0.972656,0.3515625 -1.183594,0.6328125 -0.04687,-0.4804687 -0.457031,-0.6328125 -0.75,-0.6328125 -0.292968,0 -0.457031,0.2109375 -0.550781,0.375 -0.152344,0.2578125 -0.246094,0.65625 -0.246094,0.6914063 0,0.082031 0.09375,0.082031 0.117188,0.082031 0.09375,0 0.105469,-0.011719 0.152344,-0.1992187 0.105468,-0.421875 0.234375,-0.7617188 0.515625,-0.7617188 0.175781,0 0.222656,0.1523438 0.222656,0.3398438 0,0.140625 -0.05859,0.3984375 -0.105469,0.5859375 -0.04687,0.1875 -0.117187,0.46875 -0.152344,0.6210937 z m 5.545898,0.316406 c 0,0.386719 -0.07031,0.832031 -0.550781,1.277344 -0.02344,0.03516 -0.04687,0.05859 -0.04687,0.09375 0,0.04687 0.05859,0.09375 0.09375,0.09375 0.105469,0 0.691406,-0.5625 0.691406,-1.394532 0,-0.421875 -0.164062,-0.75 -0.480468,-0.75 -0.234375,0 -0.398438,0.175782 -0.398438,0.386719 0,0.234375 0.152344,0.410156 0.398438,0.410156 0.164062,0 0.28125,-0.117187 0.292968,-0.117187 z m 3.94629,-4.2421877 c 0,-0.1171875 -0.09375,-0.2578125 -0.28125,-0.2578125 -0.199219,0 -0.386719,0.1875 -0.386719,0.375 0,0.1171875 0.08203,0.2695313 0.28125,0.2695313 0.1875,0 0.386719,-0.1875 0.386719,-0.3867188 z m -1.476563,4.6992187 c -0.117187,0.480469 -0.492187,0.890625 -0.902344,0.890625 -0.08203,0 -0.175781,-0.01172 -0.246093,-0.04687 0.175781,-0.08203 0.234375,-0.246094 0.234375,-0.351562 0,-0.164063 -0.128907,-0.257813 -0.269532,-0.257813 -0.222656,0 -0.398437,0.1875 -0.398437,0.410156 0,0.269532 0.269531,0.433594 0.691406,0.433594 0.421875,0 1.230469,-0.246094 1.453125,-1.101562 l 0.621094,-2.4960942 c 0.02344,-0.070312 0.03516,-0.140625 0.03516,-0.234375 0,-0.3867187 -0.328125,-0.65625 -0.738281,-0.65625 -0.785156,0 -1.230469,0.9609375 -1.230469,1.0664063 0,0.082031 0.105469,0.082031 0.128906,0.082031 0.08203,0 0.08203,-0.011719 0.128907,-0.1171875 0.175781,-0.4101562 0.539062,-0.84375 0.949218,-0.84375 0.175782,0 0.234375,0.1171875 0.234375,0.3398438 0,0.082031 -0.01172,0.1757812 -0.02344,0.2109375 z m 0,0"
         style="fill:#000000;fill-opacity:1;fill-rule:nonzero;stroke:none" />
      <path
         id="path14"
         d="m 53.538352,6.0362578 c -0.05859,0 -0.140625,0 -0.140625,0.082031 0,0.035156 0.02344,0.058594 0.07031,0.1054687 0.597656,0.5507813 1.265625,1.4882813 1.265625,3.2929688 0,1.4531257 -0.457031,2.5546877 -1.207031,3.2343757 -0.117188,0.117187 -0.128906,0.128906 -0.128906,0.164062 0,0.03516 0.02344,0.08203 0.09375,0.08203 0.08203,0 0.75,-0.457031 1.207031,-1.324218 0.304687,-0.585938 0.503906,-1.335938 0.503906,-2.1562507 0,-0.984375 -0.292969,-2.5078125 -1.664062,-3.4804688 z m 4.951171,0 c -1.324218,0.9257813 -1.675781,2.4140625 -1.675781,3.4804688 0,0.9843754 0.292969,2.5078124 1.675781,3.4804684 0.05859,0 0.140625,0 0.140625,-0.08203 0,-0.04687 -0.02344,-0.05859 -0.07031,-0.105469 -0.925781,-0.832031 -1.265625,-2.015625 -1.265625,-3.2929684 0,-1.875 0.714844,-2.8007813 1.289062,-3.3164063 0.02344,-0.023437 0.04687,-0.046875 0.04687,-0.082031 0,-0.082031 -0.08203,-0.082031 -0.140625,-0.082031 z m 0,0"
         style="fill:#000000;fill-opacity:1;fill-rule:nonzero;stroke:none" />
      <path
         id="path15"
         d="m 62.157492,10.70032 c -0.03516,0.140625 -0.09375,0.375 -0.09375,0.410157 0,0.152343 0.128906,0.222656 0.234375,0.222656 0.128906,0 0.234375,-0.09375 0.269531,-0.152344 0.03516,-0.05859 0.09375,-0.292969 0.128907,-0.433594 0.03516,-0.128906 0.117187,-0.457031 0.152343,-0.632812 0.04687,-0.1523439 0.08203,-0.3046877 0.117188,-0.4570314 0.08203,-0.3046875 0.08203,-0.3164063 0.222656,-0.5390625 0.222656,-0.3398438 0.5625,-0.7382813 1.113281,-0.7382813 0.386719,0 0.410157,0.328125 0.410157,0.4921875 0,0.421875 -0.304688,1.1953127 -0.410157,1.4882817 -0.08203,0.1875 -0.105468,0.257812 -0.105468,0.375 0,0.363281 0.304687,0.597656 0.65625,0.597656 0.703125,0 1.007812,-0.960938 1.007812,-1.066406 0,-0.09375 -0.09375,-0.09375 -0.105469,-0.09375 -0.105468,0 -0.105468,0.04687 -0.140625,0.117187 -0.152343,0.5625 -0.457031,0.84375 -0.738281,0.84375 -0.140625,0 -0.175781,-0.09375 -0.175781,-0.246094 0,-0.152343 0.03516,-0.246093 0.164062,-0.5625 0.08203,-0.210937 0.375,-0.9492184 0.375,-1.3476559 0,-0.1054688 0,-0.3984375 -0.257812,-0.5976563 -0.128906,-0.09375 -0.328125,-0.1875 -0.65625,-0.1875 -0.621094,0 -1.007813,0.4101563 -1.230469,0.703125 -0.05859,-0.5976562 -0.550781,-0.703125 -0.902344,-0.703125 -0.585937,0 -0.972656,0.3515625 -1.183593,0.6328125 -0.04687,-0.4804687 -0.457032,-0.6328125 -0.75,-0.6328125 -0.292969,0 -0.457032,0.2109375 -0.550782,0.375 -0.152343,0.2578125 -0.246093,0.65625 -0.246093,0.6914063 0,0.082031 0.09375,0.082031 0.117187,0.082031 0.09375,0 0.105469,-0.011719 0.152344,-0.1992187 0.105469,-0.421875 0.234375,-0.7617188 0.515625,-0.7617188 0.175781,0 0.222656,0.1523438 0.222656,0.3398438 0,0.140625 -0.05859,0.3984375 -0.105469,0.5859375 -0.04687,0.1875 -0.117187,0.46875 -0.152343,0.6210937 l -0.222657,0.9023444 c -0.03516,0.08203 -0.07031,0.257812 -0.07031,0.28125 0,0.152343 0.117187,0.222656 0.234375,0.222656 0.128906,0 0.234375,-0.09375 0.269531,-0.152344 0.03516,-0.05859 0.09375,-0.292969 0.128906,-0.433594 0.03516,-0.128906 0.105469,-0.457031 0.152344,-0.632812 0.03516,-0.1523441 0.08203,-0.3046879 0.117188,-0.4570316 0.08203,-0.2929688 0.09375,-0.3515625 0.292968,-0.6328125 0.199219,-0.28125 0.527344,-0.6445313 1.042969,-0.6445313 0.410156,0 0.410156,0.3632813 0.410156,0.4921875 0,0.1757813 -0.01172,0.2695313 -0.117187,0.65625 z m 5.516602,0.445313 c 0,0.386719 -0.07031,0.832031 -0.550781,1.277344 -0.02344,0.03516 -0.04687,0.05859 -0.04687,0.09375 0,0.04687 0.05859,0.09375 0.09375,0.09375 0.105468,0 0.691406,-0.5625 0.691406,-1.394532 0,-0.421875 -0.164063,-0.75 -0.480469,-0.75 -0.234375,0 -0.398437,0.175782 -0.398437,0.386719 0,0.234375 0.152343,0.410156 0.398437,0.410156 0.164063,0 0.28125,-0.117187 0.292969,-0.117187 z m 3.149414,-4.2421877 c 0,-0.1054687 -0.08203,-0.2578125 -0.28125,-0.2578125 -0.1875,0 -0.386719,0.1757813 -0.386719,0.375 0,0.1171875 0.08203,0.2695313 0.269531,0.2695313 0.210938,0 0.398438,-0.1992188 0.398438,-0.3867188 z M 69.39382,10.442508 c -0.02344,0.09375 -0.05859,0.175781 -0.05859,0.292969 0,0.328125 0.28125,0.597656 0.667968,0.597656 0.691407,0 0.996094,-0.960938 0.996094,-1.066406 0,-0.09375 -0.08203,-0.09375 -0.105469,-0.09375 -0.105468,0 -0.105468,0.04687 -0.140625,0.117187 -0.152343,0.5625 -0.457031,0.84375 -0.738281,0.84375 -0.140625,0 -0.175781,-0.08203 -0.175781,-0.246094 0,-0.152343 0.05859,-0.292968 0.117187,-0.445312 0.07031,-0.1875 0.140625,-0.375 0.222657,-0.5507814 0.05859,-0.1640625 0.316406,-0.8085938 0.339843,-0.890625 0.02344,-0.070312 0.04687,-0.1523438 0.04687,-0.2226563 0,-0.328125 -0.28125,-0.5859375 -0.667968,-0.5859375 -0.691407,0 -1.007813,0.9492188 -1.007813,1.0664063 0,0.082031 0.09375,0.082031 0.117188,0.082031 0.09375,0 0.105468,-0.035156 0.128906,-0.1054687 0.175781,-0.5976563 0.480469,-0.8554688 0.738281,-0.8554688 0.117188,0 0.175781,0.058594 0.175781,0.2460938 0,0.1640625 -0.03516,0.2695312 -0.210937,0.703125 z m 0,0"
         style="fill:#000000;fill-opacity:1;fill-rule:nonzero;stroke:none" />
      <path
         id="path16"
         d="m 72.02175,6.0362578 c -0.05859,0 -0.140625,0 -0.140625,0.082031 0,0.035156 0.02344,0.058594 0.07031,0.1054687 0.597656,0.5507813 1.265625,1.4882813 1.265625,3.2929688 0,1.4531257 -0.457032,2.5546877 -1.207032,3.2343757 -0.117187,0.117187 -0.128906,0.128906 -0.128906,0.164062 0,0.03516 0.02344,0.08203 0.09375,0.08203 0.08203,0 0.75,-0.457031 1.207031,-1.324218 0.304688,-0.585938 0.503907,-1.335938 0.503907,-2.1562507 0,-0.984375 -0.292969,-2.5078125 -1.664063,-3.4804688 z m 0,0"
         style="fill:#000000;fill-opacity:1;fill-rule:nonzero;stroke:none" />
      <path
         id="path17"
         d="m 75.979758,11.145633 c 0,0.386719 -0.07031,0.832031 -0.550781,1.277344 -0.02344,0.03516 -0.04687,0.05859 -0.04687,0.09375 0,0.04687 0.05859,0.09375 0.09375,0.09375 0.105468,0 0.691406,-0.5625 0.691406,-1.394532 0,-0.421875 -0.164063,-0.75 -0.480469,-0.75 -0.234375,0 -0.398437,0.175782 -0.398437,0.386719 0,0.234375 0.152343,0.410156 0.398437,0.410156 0.164063,0 0.28125,-0.117187 0.292969,-0.117187 z m 2.856445,-4.5117189 c 0,-0.011719 0.02344,-0.1054688 0.02344,-0.1171875 0,-0.035156 -0.02344,-0.09375 -0.105469,-0.09375 -0.140625,0 -0.726563,0.058594 -0.902344,0.070312 -0.04687,0.011719 -0.140625,0.011719 -0.140625,0.1640625 0,0.09375 0.09375,0.09375 0.175781,0.09375 0.328125,0 0.328125,0.046875 0.328125,0.1054687 0,0.046875 -0.01172,0.09375 -0.02344,0.1523438 l -0.867188,3.4453134 c -0.02344,0.07031 -0.02344,0.140625 -0.02344,0.210937 0,0.457031 0.398437,0.667969 0.726562,0.667969 0.175782,0 0.375,-0.05859 0.5625,-0.375 0.140625,-0.257814 0.246094,-0.667969 0.246094,-0.691407 0,-0.09375 -0.09375,-0.09375 -0.117187,-0.09375 -0.09375,0 -0.105469,0.04687 -0.140625,0.164062 -0.08203,0.351563 -0.222657,0.796875 -0.515625,0.796875 -0.1875,0 -0.234375,-0.175781 -0.234375,-0.339844 0,-0.07031 0.01172,-0.210936 0.03516,-0.28125 z m 0,0"
         style="fill:#000000;fill-opacity:1;fill-rule:nonzero;stroke:none" />
      <path
         id="path18"
         d="m 89.535422,6.2061797 c 0.152344,0 0.339844,0 0.339844,-0.1992188 0,-0.1992187 -0.1875,-0.1992187 -0.328125,-0.1992187 h -5.964844 c -0.140625,0 -0.328125,0 -0.328125,0.1992187 0,0.1992188 0.1875,0.1992188 0.339844,0.1992188 z m 0.01172,1.9335937 c 0.140625,0 0.328125,0 0.328125,-0.1992187 0,-0.1992188 -0.1875,-0.1992188 -0.339844,-0.1992188 h -5.941406 c -0.152344,0 -0.339844,0 -0.339844,0.1992188 0,0.1992187 0.1875,0.1992187 0.328125,0.1992187 z m 0,0"
         style="fill:#000000;fill-opacity:1;fill-rule:nonzero;stroke:none" />
      <path
         id="path19"
         d="m 121.9905,13.946414 1.20703,-3.1875 h -0.24609 c -0.38672,1.03125 -1.45313,1.710938 -2.58985,2.015625 -0.21093,0.04687 -1.18359,0.304688 -3.10546,0.304688 h -6 l 5.0625,-5.9414067 c 0.0703,-0.082031 0.0937,-0.1171875 0.0937,-0.1640625 0,-0.023437 0,-0.046875 -0.0703,-0.1523437 l -4.64062,-6.33984379 h 5.46094 c 1.33593,0 2.23828,0.140625 2.33203,0.15234375 0.53906,0.0820313 1.40625,0.2578125 2.1914,0.75000004 0.2461,0.1640625 0.92578,0.609375 1.26563,1.4179687 h 0.24609 l -1.207,-2.80078124 h -11.77734 c -0.22266,0 -0.23438,0.01171875 -0.26953,0.0703125 0,0.03515625 0,0.22265625 0,0.328125 l 5.26171,7.20703124 -5.15625,6.0468747 c -0.10546,0.128907 -0.10546,0.175782 -0.10546,0.1875 0,0.105469 0.0937,0.105469 0.26953,0.105469 z m 0,0"
         style="fill:#000000;fill-opacity:1;fill-rule:nonzero;stroke:none" />
      <path
         id="path20"
         d="m 95.681906,16.6095 c -1.324218,0.925781 -1.675781,2.414063 -1.675781,3.480469 0,0.984375 0.292969,2.507812 1.675781,3.480469 0.05859,0 0.140625,0 0.140625,-0.08203 0,-0.04687 -0.02344,-0.05859 -0.07031,-0.105468 -0.925781,-0.832032 -1.265625,-2.015625 -1.265625,-3.292969 0,-1.875 0.714844,-2.800781 1.289062,-3.316406 0.02344,-0.02344 0.04687,-0.04687 0.04687,-0.08203 0,-0.08203 -0.08203,-0.08203 -0.140625,-0.08203 z m 0,0"
         style="fill:#000000;fill-opacity:1;fill-rule:nonzero;stroke:none" />
      <path
         id="path21"
         d="m 98.503195,17.207156 c 0.01172,-0.01172 0.03516,-0.105468 0.03516,-0.117187 0,-0.03516 -0.03516,-0.09375 -0.117188,-0.09375 -0.140625,0 -0.714844,0.05859 -0.890625,0.07031 -0.05859,0.01172 -0.152344,0.01172 -0.152344,0.164063 0,0.09375 0.09375,0.09375 0.175782,0.09375 0.339843,0 0.339843,0.04687 0.339843,0.105469 0,0.04687 -0.01172,0.09375 -0.03516,0.152343 l -0.972656,3.949219 c -0.03516,0.128906 -0.03516,0.140625 -0.03516,0.152344 0,0.105469 0.08203,0.222656 0.234375,0.222656 0.07031,0 0.210937,-0.03516 0.28125,-0.1875 0.02344,-0.03516 0.08203,-0.292969 0.117187,-0.433594 l 0.164063,-0.621093 c 0.02344,-0.105469 0.09375,-0.363282 0.117187,-0.46875 0.07031,-0.269532 0.07031,-0.28125 0.199219,-0.503907 0.222656,-0.339843 0.574219,-0.738281 1.125,-0.738281 0.386719,0 0.410156,0.328125 0.410156,0.492188 0,0.421875 -0.304687,1.195312 -0.410156,1.488281 -0.08203,0.1875 -0.105469,0.257812 -0.105469,0.375 0,0.363281 0.304688,0.597656 0.65625,0.597656 0.703131,0 1.007821,-0.960937 1.007821,-1.066406 0,-0.09375 -0.0937,-0.09375 -0.11719,-0.09375 -0.0937,0 -0.10547,0.04687 -0.12891,0.117187 -0.16406,0.5625 -0.468752,0.84375 -0.738283,0.84375 -0.140625,0 -0.175782,-0.09375 -0.175782,-0.246093 0,-0.152344 0.03516,-0.246094 0.164063,-0.5625 0.08203,-0.210938 0.363282,-0.949219 0.363282,-1.347657 0,-0.105468 0,-0.398437 -0.257813,-0.597656 -0.117188,-0.09375 -0.316407,-0.1875 -0.644532,-0.1875 -0.503906,0 -0.878906,0.269531 -1.136718,0.574219 z m 3.955075,4.511719 c 0,0.386719 -0.0703,0.832031 -0.55078,1.277344 -0.0234,0.03516 -0.0469,0.05859 -0.0469,0.09375 0,0.04687 0.0586,0.09375 0.0937,0.09375 0.10547,0 0.6914,-0.5625 0.6914,-1.394531 0,-0.421875 -0.16406,-0.75 -0.48047,-0.75 -0.23437,0 -0.39843,0.175781 -0.39843,0.386718 0,0.234375 0.15234,0.410157 0.39843,0.410157 0.16407,0 0.28125,-0.117188 0.29297,-0.117188 z m 3.06739,-4.511719 c 0.0117,-0.01172 0.0352,-0.105468 0.0352,-0.117187 0,-0.03516 -0.0352,-0.09375 -0.11718,-0.09375 -0.14063,0 -0.71485,0.05859 -0.89063,0.07031 -0.0586,0.01172 -0.15234,0.01172 -0.15234,0.164063 0,0.09375 0.0937,0.09375 0.17578,0.09375 0.33984,0 0.33984,0.04687 0.33984,0.105469 0,0.04687 -0.0117,0.09375 -0.0352,0.152343 l -0.97266,3.949219 c -0.0352,0.128906 -0.0352,0.140625 -0.0352,0.152344 0,0.105469 0.082,0.222656 0.23438,0.222656 0.1875,0 0.28125,-0.140625 0.3164,-0.292969 0.0117,-0.02344 0.31641,-1.253906 0.33985,-1.347656 0.5039,0.04687 0.90234,0.199219 0.90234,0.5625 0,0.03516 0,0.07031 -0.0234,0.140625 -0.0234,0.105469 -0.0234,0.140625 -0.0234,0.222656 0,0.492188 0.39843,0.714844 0.73828,0.714844 0.67969,0 0.89062,-1.054687 0.89062,-1.066406 0,-0.09375 -0.0937,-0.09375 -0.11718,-0.09375 -0.0937,0 -0.10547,0.03516 -0.14063,0.164062 -0.082,0.304688 -0.26953,0.796875 -0.60937,0.796875 -0.1875,0 -0.2461,-0.175781 -0.2461,-0.363281 0,-0.117187 0,-0.128906 0.0469,-0.304687 0,-0.02344 0.0352,-0.140625 0.0352,-0.222657 0,-0.621093 -0.84375,-0.714843 -1.13672,-0.738281 0.19922,-0.128906 0.45704,-0.351562 0.58594,-0.457031 0.35156,-0.339844 0.70313,-0.667969 1.08985,-0.667969 0.082,0 0.17578,0.02344 0.23437,0.09375 -0.30469,0.04687 -0.36328,0.28125 -0.36328,0.386719 0,0.152344 0.11719,0.257812 0.26953,0.257812 0.19922,0 0.39844,-0.152343 0.39844,-0.445312 0,-0.222656 -0.16406,-0.480469 -0.52735,-0.480469 -0.39843,0 -0.76171,0.28125 -1.125,0.609375 -0.29296,0.28125 -0.51562,0.492188 -0.80859,0.609375 z m 0,0"
         style="fill:#000000;fill-opacity:1;fill-rule:nonzero;stroke:none" />
      <path
         id="path22"
         d="m 108.39089,16.6095 c -0.0586,0 -0.14062,0 -0.14062,0.08203 0,0.03516 0.0234,0.05859 0.0703,0.105469 0.59765,0.550781 1.26562,1.488281 1.26562,3.292969 0,1.453125 -0.45703,2.554687 -1.20703,3.234375 -0.11719,0.117187 -0.1289,0.128906 -0.1289,0.164062 0,0.03516 0.0234,0.08203 0.0937,0.08203 0.082,0 0.75,-0.457032 1.20703,-1.324219 0.30468,-0.585938 0.5039,-1.335938 0.5039,-2.15625 0,-0.984375 -0.29297,-2.507813 -1.66406,-3.480469 z m 0,0"
         style="fill:#000000;fill-opacity:1;fill-rule:nonzero;stroke:none" />
      <path
         id="path23"
         d="m 115.19363,20.26575 c 0.11718,0 0.28125,0 0.28125,-0.175781 0,-0.175781 -0.15235,-0.175781 -0.28125,-0.175781 h -3.22266 c 0.10547,-1.007813 0.94922,-1.757813 2.03906,-1.757813 h 1.1836 c 0.11718,0 0.28125,0 0.28125,-0.164062 0,-0.175782 -0.15235,-0.175782 -0.28125,-0.175782 h -1.21875 c -1.28907,0 -2.35547,1.019532 -2.35547,2.273438 0,1.277344 1.07812,2.273437 2.35547,2.273437 h 1.21875 c 0.11718,0 0.28125,0 0.28125,-0.164062 0,-0.175781 -0.15235,-0.175781 -0.28125,-0.175781 h -1.1836 c -1.08984,0 -1.93359,-0.75 -2.03906,-1.757813 z m 0,0"
         style="fill:#000000;fill-opacity:1;fill-rule:nonzero;stroke:none" />
      <path
         id="path24"
         d="m 122.12234,17.019656 c 0,-0.03516 -0.0234,-0.08203 -0.0937,-0.08203 -0.0469,0 -0.0703,0.01172 -0.12891,0.08203 l -0.50391,0.539063 c -0.0703,-0.08203 -0.45703,-0.621094 -1.3125,-0.621094 -1.69922,0 -3.35156,1.5 -3.35156,3.070313 0,1.136718 0.89063,1.96875 2.13281,1.96875 0.375,0 1.05469,-0.08203 1.76953,-0.679688 0.55079,-0.46875 0.70313,-1.078125 0.70313,-1.136719 0,-0.09375 -0.082,-0.09375 -0.11719,-0.09375 -0.0937,0 -0.10547,0.03516 -0.1289,0.117188 -0.28125,0.949219 -1.26563,1.535156 -2.10938,1.535156 -0.73828,0 -1.55859,-0.386719 -1.55859,-1.488281 0,-0.210938 0.0469,-1.3125 0.85547,-2.191406 0.48046,-0.527344 1.20703,-0.855469 1.875,-0.855469 0.80859,0 1.27734,0.585937 1.27734,1.371094 0,0.1875 -0.0234,0.246093 -0.0234,0.28125 0,0.09375 0.0937,0.09375 0.12891,0.09375 0.11719,0 0.11719,-0.02344 0.15234,-0.152344 z m 0,0"
         style="fill:#000000;fill-opacity:1;fill-rule:nonzero;stroke:none" />
      <path
         id="path25"
         d="m 127.2698,17.922 c 0,-0.105469 0,-0.28125 -0.17578,-0.28125 -0.16407,0 -0.16407,0.164063 -0.16407,0.28125 v 2.496094 c 0,0.1875 0,0.609375 -0.58593,0.9375 -0.4336,0.234375 -0.9375,0.28125 -1.21875,0.28125 -0.6211,0 -1.05469,-0.1875 -1.23047,-0.292969 -0.49219,-0.292969 -0.57422,-0.597656 -0.57422,-0.925781 V 17.922 c 0,-0.105469 0,-0.28125 -0.16406,-0.28125 -0.17579,0 -0.17579,0.164063 -0.17579,0.28125 v 2.507813 c 0,1.160156 1.24219,1.546875 2.13282,1.546875 0.90234,0 2.15625,-0.375 2.15625,-1.546875 z m 2.84179,-0.316406 c 0,-0.128906 0,-0.339844 0.21094,-0.539063 0.21094,-0.175781 0.48047,-0.246093 0.75,-0.269531 0.0937,0 0.15235,0 0.15235,-0.09375 0,-0.09375 -0.0703,-0.09375 -0.17579,-0.09375 -0.75,0 -1.47656,0.316406 -1.47656,0.878906 v 1.640625 c 0,0.175782 0,0.398438 -0.23437,0.597657 -0.16407,0.140625 -0.38672,0.246093 -0.73828,0.269531 -0.082,0.01172 -0.14063,0.01172 -0.14063,0.09375 0,0.09375 0.0586,0.09375 0.11719,0.105469 0.83203,0.04687 0.98437,0.527343 0.99609,0.726562 v 1.640625 c 0,0.1875 0,0.503906 0.36328,0.738281 0.38672,0.246094 0.9375,0.28125 1.11328,0.28125 0.10547,0 0.17579,0 0.17579,-0.105468 0,-0.08203 -0.0703,-0.09375 -0.12891,-0.09375 -0.64453,-0.03516 -0.91406,-0.351563 -0.97266,-0.609375 -0.0117,-0.07031 -0.0117,-0.117188 -0.0117,-0.210938 v -1.464844 c 0,-0.199218 0,-0.457031 -0.1875,-0.644531 -0.0937,-0.09375 -0.25781,-0.257812 -0.64453,-0.363281 0.28125,-0.07031 0.75,-0.257813 0.82032,-0.738281 0.0117,-0.03516 0.0117,-0.05859 0.0117,-0.28125 z m 0,0"
         style="fill:#000000;fill-opacity:1;fill-rule:nonzero;stroke:none" />
      <path
         id="path26"
         d="m 135.4905,19.6095 c 0,-0.761719 -0.0937,-1.3125 -0.41016,-1.804687 -0.22265,-0.316407 -0.64453,-0.597657 -1.20703,-0.597657 -1.61718,0 -1.61718,1.898438 -1.61718,2.402344 0,0.503906 0,2.367188 1.61718,2.367188 1.61719,0 1.61719,-1.863282 1.61719,-2.367188 z m -1.61719,2.167969 c -0.3164,0 -0.75,-0.1875 -0.89062,-0.761719 -0.0937,-0.410156 -0.0937,-0.984375 -0.0937,-1.5 0,-0.503906 0,-1.03125 0.10547,-1.417969 0.15234,-0.550781 0.59765,-0.691406 0.8789,-0.691406 0.375,0 0.73828,0.222656 0.86719,0.632813 0.10547,0.375 0.11719,0.878906 0.11719,1.476562 0,0.515625 0,1.042969 -0.0937,1.476563 -0.14063,0.632812 -0.60938,0.785156 -0.89063,0.785156 z m 0,0"
         style="fill:#000000;fill-opacity:1;fill-rule:nonzero;stroke:none" />
      <path
         id="path27"
         d="m 138.17116,21.062625 c 0,-0.1875 0,-0.410156 0.23438,-0.609375 0.16406,-0.128906 0.38672,-0.246094 0.73828,-0.257812 0.082,-0.01172 0.14063,-0.01172 0.14063,-0.105469 0,-0.08203 -0.0703,-0.08203 -0.12891,-0.09375 -0.82031,-0.05859 -0.97266,-0.539063 -0.98438,-0.738281 v -1.628907 c 0,-0.1875 0,-0.503906 -0.375,-0.738281 -0.38671,-0.257812 -0.92578,-0.28125 -1.10156,-0.28125 -0.10547,0 -0.17578,0 -0.17578,0.09375 0,0.09375 0.0586,0.09375 0.11719,0.09375 0.65625,0.03516 0.92578,0.351563 0.97265,0.609375 0.0234,0.07031 0.0234,0.117188 0.0234,0.222656 v 1.464844 c 0,0.199219 0,0.445313 0.17578,0.632813 0.0937,0.09375 0.25782,0.257812 0.64453,0.363281 -0.26953,0.08203 -0.73828,0.269531 -0.82031,0.738281 0,0.04687 0,0.05859 0,0.28125 v 1.464844 c 0,0.140625 0,0.351562 -0.22265,0.539062 -0.21094,0.1875 -0.46875,0.246094 -0.75,0.269532 -0.0937,0.01172 -0.14063,0.01172 -0.14063,0.09375 0,0.105468 0.0703,0.105468 0.17578,0.105468 0.73828,0 1.46485,-0.316406 1.47656,-0.878906 z m 0,0"
         style="fill:#000000;fill-opacity:1;fill-rule:nonzero;stroke:none" />
      <path
         id="path28"
         d="m 148.77663,2.9014922 c 0.0117,-0.046875 0.0352,-0.09375 0.0352,-0.1523438 0,-0.09375 -0.0586,-0.09375 -0.25781,-0.09375 h -4.19532 c -0.24609,0 -0.25781,0.011719 -0.3164,0.1992188 l -0.53906,1.7929687 c -0.0234,0.058594 -0.0352,0.1289063 -0.0352,0.140625 0,0.011719 0,0.1171875 0.11719,0.1171875 0.0937,0 0.11718,-0.070312 0.1289,-0.1054687 0.38672,-1.171875 0.90235,-1.828125 2.44922,-1.828125 h 1.62891 l -5.56641,6.2226562 c 0,0.011719 -0.0469,0.1523438 -0.0469,0.1757813 0,0.09375 0.0703,0.09375 0.25781,0.09375 h 4.32422 c 0.24609,0 0.25781,-0.011719 0.3164,-0.1992188 l 0.70313,-2.203125 c 0.0117,-0.035156 0.0352,-0.1054687 0.0352,-0.1523437 0,-0.046875 -0.0352,-0.1054688 -0.12891,-0.1054688 -0.082,0 -0.0937,0.035156 -0.16406,0.2460938 -0.4336,1.359375 -0.91407,2.0742187 -2.61328,2.0742187 h -1.69922 z m 0,0"
         style="fill:#000000;fill-opacity:1;fill-rule:nonzero;stroke:none" />
      <path
         id="path29"
         d="m 150.88015,6.0362578 c -1.32422,0.9257813 -1.67578,2.4140625 -1.67578,3.4804688 0,0.9843754 0.29297,2.5078124 1.67578,3.4804684 0.0586,0 0.14062,0 0.14062,-0.08203 0,-0.04687 -0.0234,-0.05859 -0.0703,-0.105469 -0.92578,-0.832031 -1.26562,-2.015625 -1.26562,-3.2929684 0,-1.875 0.71484,-2.8007813 1.28906,-3.3164063 0.0234,-0.023437 0.0469,-0.046875 0.0469,-0.082031 0,-0.082031 -0.082,-0.082031 -0.14062,-0.082031 z m 0,0"
         style="fill:#000000;fill-opacity:1;fill-rule:nonzero;stroke:none" />
      <path
         id="path30"
         d="m 154.54226,10.70032 c -0.0352,0.140625 -0.0937,0.375 -0.0937,0.410157 0,0.152343 0.1289,0.222656 0.23437,0.222656 0.12891,0 0.23438,-0.09375 0.26953,-0.152344 0.0352,-0.05859 0.0937,-0.292969 0.12891,-0.433594 0.0352,-0.128906 0.11719,-0.457031 0.15234,-0.632812 0.0469,-0.1523439 0.082,-0.3046877 0.11719,-0.4570314 0.082,-0.3046875 0.082,-0.3164063 0.22266,-0.5390625 0.22265,-0.3398438 0.5625,-0.7382813 1.11328,-0.7382813 0.38672,0 0.41016,0.328125 0.41016,0.4921875 0,0.421875 -0.30469,1.1953127 -0.41016,1.4882817 -0.082,0.1875 -0.10547,0.257812 -0.10547,0.375 0,0.363281 0.30469,0.597656 0.65625,0.597656 0.70313,0 1.00781,-0.960938 1.00781,-1.066406 0,-0.09375 -0.0937,-0.09375 -0.10547,-0.09375 -0.10546,0 -0.10546,0.04687 -0.14062,0.117187 -0.15234,0.5625 -0.45703,0.84375 -0.73828,0.84375 -0.14063,0 -0.17578,-0.09375 -0.17578,-0.246094 0,-0.152343 0.0352,-0.246093 0.16406,-0.5625 0.082,-0.210937 0.375,-0.9492184 0.375,-1.3476559 0,-0.1054688 0,-0.3984375 -0.25781,-0.5976563 -0.12891,-0.09375 -0.32813,-0.1875 -0.65625,-0.1875 -0.6211,0 -1.00782,0.4101563 -1.23047,0.703125 -0.0586,-0.5976562 -0.55078,-0.703125 -0.90235,-0.703125 -0.58593,0 -0.97265,0.3515625 -1.18359,0.6328125 -0.0469,-0.4804687 -0.45703,-0.6328125 -0.75,-0.6328125 -0.29297,0 -0.45703,0.2109375 -0.55078,0.375 -0.15234,0.2578125 -0.24609,0.65625 -0.24609,0.6914063 0,0.082031 0.0937,0.082031 0.11718,0.082031 0.0937,0 0.10547,-0.011719 0.15235,-0.1992187 0.10547,-0.421875 0.23437,-0.7617188 0.51562,-0.7617188 0.17578,0 0.22266,0.1523438 0.22266,0.3398438 0,0.140625 -0.0586,0.3984375 -0.10547,0.5859375 -0.0469,0.1875 -0.11719,0.46875 -0.15234,0.6210937 l -0.22266,0.9023444 c -0.0352,0.08203 -0.0703,0.257812 -0.0703,0.28125 0,0.152343 0.11718,0.222656 0.23437,0.222656 0.12891,0 0.23438,-0.09375 0.26953,-0.152344 0.0352,-0.05859 0.0937,-0.292969 0.12891,-0.433594 0.0352,-0.128906 0.10547,-0.457031 0.15234,-0.632812 0.0352,-0.1523441 0.082,-0.3046879 0.11719,-0.4570316 0.082,-0.2929688 0.0937,-0.3515625 0.29297,-0.6328125 0.19922,-0.28125 0.52734,-0.6445313 1.04297,-0.6445313 0.41015,0 0.41015,0.3632813 0.41015,0.4921875 0,0.1757813 -0.0117,0.2695313 -0.11718,0.65625 z m 5.51953,0.445313 c 0,0.386719 -0.0703,0.832031 -0.55078,1.277344 -0.0234,0.03516 -0.0469,0.05859 -0.0469,0.09375 0,0.04687 0.0586,0.09375 0.0937,0.09375 0.10547,0 0.69141,-0.5625 0.69141,-1.394532 0,-0.421875 -0.16406,-0.75 -0.48047,-0.75 -0.23437,0 -0.39844,0.175782 -0.39844,0.386719 0,0.234375 0.15235,0.410156 0.39844,0.410156 0.16406,0 0.28125,-0.117187 0.29297,-0.117187 z m 3.14941,-4.2421877 c 0,-0.1054687 -0.082,-0.2578125 -0.28125,-0.2578125 -0.1875,0 -0.38672,0.1757813 -0.38672,0.375 0,0.1171875 0.082,0.2695313 0.26954,0.2695313 0.21093,0 0.39843,-0.1992188 0.39843,-0.3867188 z m -1.42968,3.5390627 c -0.0234,0.09375 -0.0586,0.175781 -0.0586,0.292969 0,0.328125 0.28125,0.597656 0.66797,0.597656 0.69141,0 0.99609,-0.960938 0.99609,-1.066406 0,-0.09375 -0.082,-0.09375 -0.10546,-0.09375 -0.10547,0 -0.10547,0.04687 -0.14063,0.117187 -0.15234,0.5625 -0.45703,0.84375 -0.73828,0.84375 -0.14063,0 -0.17578,-0.08203 -0.17578,-0.246094 0,-0.152343 0.0586,-0.292968 0.11719,-0.445312 0.0703,-0.1875 0.14062,-0.375 0.22265,-0.5507814 0.0586,-0.1640625 0.31641,-0.8085938 0.33985,-0.890625 0.0234,-0.070312 0.0469,-0.1523438 0.0469,-0.2226563 0,-0.328125 -0.28125,-0.5859375 -0.66797,-0.5859375 -0.6914,0 -1.00781,0.9492188 -1.00781,1.0664063 0,0.082031 0.0937,0.082031 0.11719,0.082031 0.0937,0 0.10547,-0.035156 0.1289,-0.1054687 0.17578,-0.5976563 0.48047,-0.8554688 0.73828,-0.8554688 0.11719,0 0.17579,0.058594 0.17579,0.2460938 0,0.1640625 -0.0352,0.2695312 -0.21094,0.703125 z m 0,0"
         style="fill:#000000;fill-opacity:1;fill-rule:nonzero;stroke:none" />
      <path
         id="path31"
         d="m 164.40652,6.0362578 c -0.0586,0 -0.14063,0 -0.14063,0.082031 0,0.035156 0.0234,0.058594 0.0703,0.1054687 0.59766,0.5507813 1.26563,1.4882813 1.26563,3.2929688 0,1.4531257 -0.45703,2.5546877 -1.20703,3.2343757 -0.11719,0.117187 -0.12891,0.128906 -0.12891,0.164062 0,0.03516 0.0234,0.08203 0.0937,0.08203 0.082,0 0.75,-0.457031 1.20703,-1.324218 0.30469,-0.585938 0.50391,-1.335938 0.50391,-2.1562507 0,-0.984375 -0.29297,-2.5078125 -1.66406,-3.4804688 z m 4.95117,0 c -1.32422,0.9257813 -1.67578,2.4140625 -1.67578,3.4804688 0,0.9843754 0.29297,2.5078124 1.67578,3.4804684 0.0586,0 0.14062,0 0.14062,-0.08203 0,-0.04687 -0.0234,-0.05859 -0.0703,-0.105469 -0.92578,-0.832031 -1.26562,-2.015625 -1.26562,-3.2929684 0,-1.875 0.71484,-2.8007813 1.28906,-3.3164063 0.0234,-0.023437 0.0469,-0.046875 0.0469,-0.082031 0,-0.082031 -0.082,-0.082031 -0.14062,-0.082031 z m 0,0"
         style="fill:#000000;fill-opacity:1;fill-rule:nonzero;stroke:none" />
      <path
         id="path32"
         d="m 172.18191,6.6339141 c 0.0117,-0.011719 0.0352,-0.1054688 0.0352,-0.1171875 0,-0.035156 -0.0352,-0.09375 -0.11718,-0.09375 -0.14063,0 -0.71485,0.058594 -0.89063,0.070312 -0.0586,0.011719 -0.15234,0.011719 -0.15234,0.1640625 0,0.09375 0.0937,0.09375 0.17578,0.09375 0.33984,0 0.33984,0.046875 0.33984,0.1054687 0,0.046875 -0.0117,0.09375 -0.0351,0.1523438 l -0.97266,3.9492194 c -0.0352,0.128906 -0.0352,0.140625 -0.0352,0.152344 0,0.105468 0.082,0.222656 0.23438,0.222656 0.0703,0 0.21094,-0.03516 0.28125,-0.1875 0.0234,-0.03516 0.082,-0.292969 0.11719,-0.433594 l 0.16406,-0.621094 c 0.0234,-0.1054689 0.0937,-0.3632814 0.11719,-0.4687502 0.0703,-0.2695312 0.0703,-0.28125 0.19921,-0.5039062 0.22266,-0.3398438 0.57422,-0.7382813 1.125,-0.7382813 0.38672,0 0.41016,0.328125 0.41016,0.4921875 0,0.421875 -0.30469,1.1953132 -0.41016,1.4882822 -0.082,0.1875 -0.10546,0.257812 -0.10546,0.375 0,0.363281 0.30468,0.597656 0.65625,0.597656 0.70312,0 1.00781,-0.960938 1.00781,-1.066406 0,-0.09375 -0.0937,-0.09375 -0.11719,-0.09375 -0.0937,0 -0.10547,0.04687 -0.12891,0.117187 -0.16406,0.5625 -0.46875,0.84375 -0.73828,0.84375 -0.14062,0 -0.17578,-0.09375 -0.17578,-0.246094 0,-0.152343 0.0352,-0.246093 0.16406,-0.5625 0.082,-0.210937 0.36329,-0.9492189 0.36329,-1.3476564 0,-0.1054688 0,-0.3984375 -0.25782,-0.5976563 -0.11718,-0.09375 -0.3164,-0.1875 -0.64453,-0.1875 -0.5039,0 -0.8789,0.2695313 -1.13672,0.5742188 z m 3.95507,4.5117189 c 0,0.386719 -0.0703,0.832031 -0.55078,1.277344 -0.0234,0.03516 -0.0469,0.05859 -0.0469,0.09375 0,0.04687 0.0586,0.09375 0.0937,0.09375 0.10547,0 0.6914,-0.5625 0.6914,-1.394532 0,-0.421875 -0.16406,-0.75 -0.48046,-0.75 -0.23438,0 -0.39844,0.175782 -0.39844,0.386719 0,0.234375 0.15234,0.410156 0.39844,0.410156 0.16406,0 0.28125,-0.117187 0.29296,-0.117187 z m 3.06739,-4.5117189 c 0.0117,-0.011719 0.0351,-0.1054688 0.0351,-0.1171875 0,-0.035156 -0.0351,-0.09375 -0.11718,-0.09375 -0.14063,0 -0.71485,0.058594 -0.89063,0.070312 -0.0586,0.011719 -0.15234,0.011719 -0.15234,0.1640625 0,0.09375 0.0937,0.09375 0.17578,0.09375 0.33984,0 0.33984,0.046875 0.33984,0.1054687 0,0.046875 -0.0117,0.09375 -0.0351,0.1523438 l -0.97266,3.9492194 c -0.0352,0.128906 -0.0352,0.140625 -0.0352,0.152344 0,0.105468 0.082,0.222656 0.23438,0.222656 0.1875,0 0.28125,-0.140625 0.3164,-0.292969 0.0117,-0.02344 0.31641,-1.2539067 0.33985,-1.3476567 0.5039,0.046875 0.90234,0.1992188 0.90234,0.5625007 0,0.03516 0,0.07031 -0.0234,0.140625 -0.0234,0.105469 -0.0234,0.140625 -0.0234,0.222656 0,0.492188 0.39843,0.714844 0.73828,0.714844 0.67969,0 0.89062,-1.054688 0.89062,-1.066406 0,-0.09375 -0.0937,-0.09375 -0.11718,-0.09375 -0.0937,0 -0.10547,0.03516 -0.14063,0.164062 -0.082,0.304688 -0.26953,0.796875 -0.60937,0.796875 -0.1875,0 -0.2461,-0.175781 -0.2461,-0.363281 0,-0.117188 0,-0.128906 0.0469,-0.304688 0,-0.02344 0.0351,-0.140625 0.0351,-0.222656 0,-0.6210942 -0.84375,-0.7148442 -1.13672,-0.7382817 0.19922,-0.1289062 0.45704,-0.3515625 0.58594,-0.4570312 0.35156,-0.3398438 0.70313,-0.6679688 1.08985,-0.6679688 0.082,0 0.17578,0.023437 0.23437,0.09375 -0.30469,0.046875 -0.36328,0.28125 -0.36328,0.3867188 0,0.1523437 0.11719,0.2578125 0.26953,0.2578125 0.19922,0 0.39844,-0.1523438 0.39844,-0.4453125 0,-0.2226563 -0.16406,-0.4804688 -0.52735,-0.4804688 -0.39843,0 -0.76171,0.28125 -1.125,0.609375 -0.29296,0.28125 -0.51562,0.4921875 -0.80859,0.609375 z m 0,0"
         style="fill:#000000;fill-opacity:1;fill-rule:nonzero;stroke:none" />
      <path
         id="path33"
         d="m 182.06667,6.0362578 c -0.0586,0 -0.14062,0 -0.14062,0.082031 0,0.035156 0.0234,0.058594 0.0703,0.1054687 0.59766,0.5507813 1.26562,1.4882813 1.26562,3.2929688 0,1.4531257 -0.45703,2.5546877 -1.20703,3.2343757 -0.11718,0.117187 -0.1289,0.128906 -0.1289,0.164062 0,0.03516 0.0234,0.08203 0.0937,0.08203 0.082,0 0.75,-0.457031 1.20703,-1.324218 0.30469,-0.585938 0.5039,-1.335938 0.5039,-2.1562507 0,-0.984375 -0.29296,-2.5078125 -1.66406,-3.4804688 z m 0,0"
         style="fill:#000000;fill-opacity:1;fill-rule:nonzero;stroke:none" />
      <path
         id="path34"
         d="m 186.02468,11.145633 c 0,0.386719 -0.0703,0.832031 -0.55078,1.277344 -0.0234,0.03516 -0.0469,0.05859 -0.0469,0.09375 0,0.04687 0.0586,0.09375 0.0937,0.09375 0.10547,0 0.69141,-0.5625 0.69141,-1.394532 0,-0.421875 -0.16406,-0.75 -0.48047,-0.75 -0.23437,0 -0.39844,0.175782 -0.39844,0.386719 0,0.234375 0.15235,0.410156 0.39844,0.410156 0.16406,0 0.28125,-0.117187 0.29297,-0.117187 z m 2.85645,-4.5117189 c 0,-0.011719 0.0234,-0.1054688 0.0234,-0.1171875 0,-0.035156 -0.0234,-0.09375 -0.10547,-0.09375 -0.14062,0 -0.72656,0.058594 -0.90234,0.070312 -0.0469,0.011719 -0.14062,0.011719 -0.14062,0.1640625 0,0.09375 0.0937,0.09375 0.17578,0.09375 0.32812,0 0.32812,0.046875 0.32812,0.1054687 0,0.046875 -0.0117,0.09375 -0.0234,0.1523438 l -0.86718,3.4453134 c -0.0234,0.07031 -0.0234,0.140625 -0.0234,0.210937 0,0.457031 0.39844,0.667969 0.72656,0.667969 0.17578,0 0.375,-0.05859 0.5625,-0.375 0.14063,-0.257814 0.2461,-0.667969 0.2461,-0.691407 0,-0.09375 -0.0937,-0.09375 -0.11719,-0.09375 -0.0937,0 -0.10547,0.04687 -0.14063,0.164062 -0.082,0.351563 -0.22265,0.796875 -0.51562,0.796875 -0.1875,0 -0.23438,-0.175781 -0.23438,-0.339844 0,-0.07031 0.0117,-0.210936 0.0352,-0.28125 z m 0,0"
         style="fill:#000000;fill-opacity:1;fill-rule:nonzero;stroke:none" />
      <path
         id="path35"
         d="m 205.41921,2.9249297 c 0.0586,-0.1054688 0.0586,-0.1289063 0.0586,-0.1757813 0,-0.09375 -0.082,-0.1992187 -0.19921,-0.1992187 -0.12891,0 -0.19922,0.1171875 -0.23438,0.234375 l -0.82031,2.1914062 h -3.03516 l -0.82031,-2.1914062 c -0.0586,-0.140625 -0.10547,-0.234375 -0.23438,-0.234375 -0.0937,0 -0.19921,0.1054687 -0.19921,0.1992187 0,0.023437 0,0.035156 0.0586,0.1757813 l 2.48437,6.5273437 c 0.0469,0.140625 0.0937,0.234375 0.22266,0.234375 0.14063,0 0.1875,-0.1171875 0.22266,-0.2109375 z m -4.06641,2.4492187 h 2.70704 l -1.35938,3.5390625 z m 0,0"
         style="fill:#000000;fill-opacity:1;fill-rule:nonzero;stroke:none" />
      <path
         id="path36"
         d="m 208.76198,11.854617 c 0,-0.03516 0,-0.04687 -0.16406,-0.222656 -1.24219,-1.253906 -1.57031,-3.1289063 -1.57031,-4.6640626 0,-1.7226562 0.38672,-3.4570312 1.60547,-4.7109375 0.1289,-0.1171875 0.1289,-0.1289062 0.1289,-0.1640625 0,-0.070312 -0.0351,-0.1054687 -0.0937,-0.1054687 -0.10546,0 -0.99609,0.6796875 -1.58203,1.9453125 -0.51562,1.1015625 -0.63281,2.203125 -0.63281,3.0351562 0,0.7851563 0.11719,1.9921875 0.65625,3.1171876 0.59766,1.21875 1.45313,1.875 1.55859,1.875 0.0586,0 0.0937,-0.03516 0.0937,-0.105469 z m 0,0"
         style="fill:#000000;fill-opacity:1;fill-rule:nonzero;stroke:none" />
      <path
         id="path37"
         d="m 210.2239,8.8780547 c -0.0352,0.1523437 -0.0937,0.375 -0.0937,0.421875 0,0.1875 0.14062,0.2695312 0.29297,0.2695312 0.11718,0 0.29297,-0.070312 0.36328,-0.2695312 0.0117,-0.023437 0.1289,-0.4921875 0.1875,-0.7382813 l 0.22265,-0.9023437 c 0.0586,-0.2226563 0.11719,-0.4335938 0.17579,-0.6679688 0.0351,-0.1640625 0.11718,-0.4570312 0.1289,-0.4921875 0.14063,-0.3164062 0.66797,-1.21875 1.61719,-1.21875 0.44531,0 0.53906,0.3632813 0.53906,0.6914063 0,0.2578125 -0.0703,0.5390625 -0.15234,0.8320312 l -0.26953,1.1601563 -0.19922,0.75 c -0.0469,0.1992187 -0.14063,0.5390625 -0.14063,0.5859375 0,0.1875 0.14063,0.2695312 0.29297,0.2695312 0.30469,0 0.375,-0.2460937 0.44531,-0.5625 0.14063,-0.5625 0.51563,-2.015625 0.59766,-2.4023437 0.0352,-0.1289063 0.5625,-1.3242188 1.65234,-1.3242188 0.42188,0 0.53907,0.3398438 0.53907,0.6914063 0,0.5742187 -0.42188,1.7109375 -0.6211,2.2382812 -0.0937,0.234375 -0.1289,0.3515625 -0.1289,0.5507813 0,0.46875 0.35156,0.8085937 0.80859,0.8085937 0.9375,0 1.3125,-1.453125 1.3125,-1.5351562 0,-0.09375 -0.0937,-0.09375 -0.11719,-0.09375 -0.10547,0 -0.10547,0.023437 -0.15234,0.1757812 -0.15234,0.5273438 -0.46875,1.2421875 -1.01953,1.2421875 -0.16406,0 -0.23438,-0.1054687 -0.23438,-0.328125 0,-0.2578125 0.082,-0.4921875 0.17578,-0.7148437 0.1875,-0.515625 0.60938,-1.6171875 0.60938,-2.1914063 0,-0.6445312 -0.39844,-1.0664062 -1.14844,-1.0664062 -0.75,0 -1.2539,0.4453125 -1.61719,0.9726562 -0.0117,-0.1289062 -0.0469,-0.46875 -0.32812,-0.7148437 -0.24609,-0.1992188 -0.5625,-0.2578125 -0.80859,-0.2578125 -0.90235,0 -1.38282,0.6445312 -1.5586,0.8671875 -0.0469,-0.5625 -0.46875,-0.8671875 -0.91406,-0.8671875 -0.45703,0 -0.64453,0.3867187 -0.73828,0.5742187 -0.17578,0.3398438 -0.30469,0.9375 -0.30469,0.9609375 0,0.1054688 0.0937,0.1054688 0.11719,0.1054688 0.0937,0 0.10547,-0.011719 0.16406,-0.234375 0.17578,-0.703125 0.375,-1.1835938 0.72656,-1.1835938 0.16407,0 0.31641,0.082031 0.31641,0.4570313 0,0.2109375 -0.0352,0.3164062 -0.16406,0.8320312 z m 9.89355,0.5742187 c 0,-0.65625 -0.25781,-1.0429687 -0.64453,-1.0429687 -0.32812,0 -0.52734,0.2460937 -0.52734,0.5273437 0,0.2695313 0.19922,0.5273438 0.52734,0.5273438 0.11719,0 0.2461,-0.035156 0.35156,-0.1289063 0.0234,-0.023437 0.0352,-0.035156 0.0469,-0.035156 0.0117,0 0.0234,0.011719 0.0234,0.1523437 0,0.7382814 -0.35157,1.3359374 -0.67969,1.6640624 -0.10547,0.105469 -0.10547,0.128906 -0.10547,0.164062 0,0.07031 0.0469,0.105469 0.0937,0.105469 0.11719,0 0.91406,-0.761719 0.91406,-1.9335934 z m 5.21192,-6.2109375 c 0,-0.1992187 -0.12891,-0.3632812 -0.36328,-0.3632812 -0.26954,0 -0.53907,0.2578125 -0.53907,0.5273437 0,0.1875 0.14063,0.3632813 0.375,0.3632813 0.23438,0 0.52735,-0.234375 0.52735,-0.5273438 z m -0.75,3.7382813 c 0.11718,-0.28125 0.11718,-0.3046875 0.22265,-0.5742188 0.0703,-0.1992187 0.12891,-0.3398437 0.12891,-0.5273437 0,-0.4453125 -0.32813,-0.8203125 -0.82031,-0.8203125 -0.9375,0 -1.3125,1.453125 -1.3125,1.5351562 0,0.1054688 0.0937,0.1054688 0.11718,0.1054688 0.0937,0 0.10547,-0.023437 0.15235,-0.1875 0.26953,-0.9375 0.66797,-1.2304688 1.00781,-1.2304688 0.082,0 0.25781,0 0.25781,0.3164063 0,0.2109375 -0.0703,0.421875 -0.11718,0.515625 -0.082,0.2578125 -0.52735,1.4179687 -0.67969,1.8515625 -0.10547,0.2578125 -0.23438,0.5859375 -0.23438,0.796875 0,0.46875 0.33985,0.8085937 0.82032,0.8085937 0.9375,0 1.30078,-1.4414062 1.30078,-1.5351562 0,-0.09375 -0.0937,-0.09375 -0.11719,-0.09375 -0.10547,0 -0.10547,0.023437 -0.15234,0.1757812 -0.17579,0.6328125 -0.50391,1.2421875 -1.01954,1.2421875 -0.16406,0 -0.23437,-0.1054687 -0.23437,-0.328125 0,-0.2578125 0.0586,-0.3984375 0.29297,-0.9960937 z m 0,0"
         style="fill:#000000;fill-opacity:1;fill-rule:nonzero;stroke:none" />
      <path
         id="path38"
         d="m 228.8362,6.9678984 c 0,-0.7734375 -0.11718,-1.9804687 -0.65625,-3.1054687 -0.59765,-1.21875 -1.46484,-1.875 -1.55859,-1.875 -0.0586,0 -0.10547,0.046875 -0.10547,0.1054687 0,0.035156 0,0.046875 0.19922,0.234375 0.97266,0.984375 1.53516,2.5664063 1.53516,4.640625 0,1.7109375 -0.36329,3.4570316 -1.59375,4.7226566 -0.14063,0.117187 -0.14063,0.128906 -0.14063,0.164062 0,0.05859 0.0469,0.105469 0.10547,0.105469 0.0937,0 0.99609,-0.679688 1.58203,-1.945313 0.50391,-1.1015621 0.63281,-2.2031246 0.63281,-3.0468746 z m 0,0"
         style="fill:#000000;fill-opacity:1;fill-rule:nonzero;stroke:none" />
      <path
         id="path39"
         d="m 238.053,7.1671172 c 0.16406,0 0.35156,0 0.35156,-0.1992188 0,-0.1992187 -0.1875,-0.1992187 -0.35156,-0.1992187 h -4.23047 c 0.12891,-1.3242188 1.26563,-2.2851563 2.67188,-2.2851563 h 1.55859 c 0.16406,0 0.35156,0 0.35156,-0.1992187 0,-0.1992188 -0.1875,-0.1992188 -0.35156,-0.1992188 h -1.57031 c -1.71094,0 -3.0586,1.2890625 -3.0586,2.8828125 0,1.59375 1.34766,2.8945313 3.0586,2.8945313 h 1.57031 c 0.16406,0 0.35156,0 0.35156,-0.1992188 0,-0.1992187 -0.1875,-0.1992187 -0.35156,-0.1992187 h -1.55859 c -1.40625,0 -2.54297,-0.9609375 -2.67188,-2.296875 z m 0,0"
         style="fill:#000000;fill-opacity:1;fill-rule:nonzero;stroke:none" />
      <path
         id="path40"
         d="m 249.57253,2.5382109 c 0,-0.023437 -0.0234,-0.09375 -0.10547,-0.09375 -0.0352,0 -0.0469,0.011719 -0.15234,0.1171875 l -0.70313,0.7617188 c -0.082,-0.140625 -0.53906,-0.8789063 -1.65234,-0.8789063 -2.21484,0 -4.45312,2.203125 -4.45312,4.5117188 0,1.640625 1.17187,2.7304687 2.69531,2.7304687 0.86719,0 1.61719,-0.3984375 2.14453,-0.8554687 0.9375,-0.8203125 1.10156,-1.7226563 1.10156,-1.7578125 0,-0.1054688 -0.10547,-0.1054688 -0.11719,-0.1054688 -0.0586,0 -0.11718,0.023437 -0.1289,0.1054688 -0.0937,0.2929687 -0.31641,0.9960937 -1.00781,1.5703125 -0.69141,0.5625 -1.3125,0.7265625 -1.83985,0.7265625 -0.89062,0 -1.94531,-0.515625 -1.94531,-2.0625 0,-0.5742188 0.21094,-2.1914063 1.20703,-3.3515625 0.60938,-0.703125 1.53516,-1.2070313 2.42578,-1.2070313 1.01953,0 1.60547,0.7734375 1.60547,1.921875 0,0.3984375 -0.0352,0.4101563 -0.0352,0.5039063 0,0.1054687 0.11719,0.1054687 0.15235,0.1054687 0.1289,0 0.1289,-0.023437 0.17578,-0.1992187 z m 1.71973,6.9140625 c 0,-0.65625 -0.25781,-1.0429687 -0.64453,-1.0429687 -0.32813,0 -0.52735,0.2460937 -0.52735,0.5273437 0,0.2695313 0.19922,0.5273438 0.52735,0.5273438 0.11718,0 0.24609,-0.035156 0.35156,-0.1289063 0.0234,-0.023437 0.0352,-0.035156 0.0469,-0.035156 0.0117,0 0.0234,0.011719 0.0234,0.1523437 0,0.7382814 -0.35156,1.3359374 -0.67969,1.6640624 -0.10546,0.105469 -0.10546,0.128906 -0.10546,0.164062 0,0.07031 0.0469,0.105469 0.0937,0.105469 0.11718,0 0.91406,-0.761719 0.91406,-1.9335934 z m 0,0"
         style="fill:#000000;fill-opacity:1;fill-rule:nonzero;stroke:none" />
      <path
         id="path41"
         d="m 260.85476,2.9249297 c 0.0586,-0.1054688 0.0586,-0.1289063 0.0586,-0.1757813 0,-0.09375 -0.082,-0.1992187 -0.19922,-0.1992187 -0.1289,0 -0.19922,0.1171875 -0.23437,0.234375 l -0.82031,2.1914062 h -3.03516 l -0.82031,-2.1914062 c -0.0586,-0.140625 -0.10547,-0.234375 -0.23438,-0.234375 -0.0937,0 -0.19922,0.1054687 -0.19922,0.1992187 0,0.023437 0,0.035156 0.0586,0.1757813 l 2.48437,6.5273437 c 0.0469,0.140625 0.0937,0.234375 0.22266,0.234375 0.14062,0 0.1875,-0.1171875 0.22265,-0.2109375 z m -4.06641,2.4492187 h 2.70703 l -1.35937,3.5390625 z m 0,0"
         style="fill:#000000;fill-opacity:1;fill-rule:nonzero;stroke:none" />
      <path
         id="path42"
         d="m 263.47097,2.6553984 c 0,0 0,-0.1054687 -0.12891,-0.1054687 -0.22265,0 -0.94922,0.082031 -1.20703,0.1054687 -0.082,0 -0.19922,0.011719 -0.19922,0.1992188 0,0.1171875 0.10547,0.1171875 0.25782,0.1171875 0.46875,0 0.48046,0.082031 0.48046,0.1640625 l -0.0234,0.1992187 -1.25391,4.9804688 c -0.0352,0.1171875 -0.0586,0.1875 -0.0586,0.3398437 0,0.5742188 0.44531,0.9140625 0.91406,0.9140625 0.32812,0 0.57422,-0.1992187 0.75,-0.5507812 0.17578,-0.3867188 0.29297,-0.9609375 0.29297,-0.984375 0,-0.09375 -0.0937,-0.09375 -0.11719,-0.09375 -0.10547,0 -0.11719,0.035156 -0.14062,0.1757812 -0.17579,0.6445313 -0.36329,1.2421875 -0.76172,1.2421875 -0.29297,0 -0.29297,-0.328125 -0.29297,-0.4570312 0,-0.2460938 0.0117,-0.2929688 0.0586,-0.4804688 z m 0,0"
         style="fill:#000000;fill-opacity:1;fill-rule:nonzero;stroke:none" />
      <path
         id="path43"
         d="m 272.30105,7.1671172 c 0.16406,0 0.35156,0 0.35156,-0.1992188 0,-0.1992187 -0.1875,-0.1992187 -0.35156,-0.1992187 h -4.23047 c 0.1289,-1.3242188 1.26562,-2.2851563 2.67187,-2.2851563 h 1.5586 c 0.16406,0 0.35156,0 0.35156,-0.1992187 0,-0.1992188 -0.1875,-0.1992188 -0.35156,-0.1992188 h -1.57032 c -1.71093,0 -3.05859,1.2890625 -3.05859,2.8828125 0,1.59375 1.34766,2.8945313 3.05859,2.8945313 h 1.57032 c 0.16406,0 0.35156,0 0.35156,-0.1992188 0,-0.1992187 -0.1875,-0.1992187 -0.35156,-0.1992187 h -1.5586 c -1.40625,0 -2.54297,-0.9609375 -2.67187,-2.296875 z m 0,0"
         style="fill:#000000;fill-opacity:1;fill-rule:nonzero;stroke:none" />
      <path
         id="path44"
         d="m 277.84402,8.6905547 c -0.0937,0.3867187 -0.11719,0.46875 -0.90235,0.46875 -0.17578,0 -0.26953,0 -0.26953,0.1992187 0,0.1054688 0.082,0.1054688 0.26953,0.1054688 h 3.55078 c 1.57032,0 2.75391,-1.171875 2.75391,-2.15625 0,-0.7148438 -0.58594,-1.2890625 -1.54688,-1.3945313 1.03125,-0.1992187 2.08594,-0.9375 2.08594,-1.875 0,-0.7382812 -0.65625,-1.3828125 -1.85156,-1.3828125 h -3.35156 c -0.1875,0 -0.29297,0 -0.29297,0.1992188 0,0.1171875 0.0937,0.1171875 0.28125,0.1171875 0.0234,0 0.21094,0 0.375,0.011719 0.1875,0.023437 0.26953,0.035156 0.26953,0.1640625 0,0.035156 -0.0117,0.070312 -0.0352,0.1875 z m 1.5,-2.8710938 0.62109,-2.4726562 c 0.0937,-0.3515625 0.10547,-0.375 0.53906,-0.375 h 1.28906 c 0.86719,0 1.07813,0.5859375 1.07813,1.0195312 0,0.8789063 -0.85547,1.828125 -2.07422,1.828125 z m -0.44532,3.3398438 c -0.14062,0 -0.15234,0 -0.22265,-0.011719 -0.0937,-0.011719 -0.12891,-0.023437 -0.12891,-0.1054687 0,-0.023437 0,-0.046875 0.0586,-0.2226563 l 0.67969,-2.7773437 h 1.88672 c 0.96094,0 1.14844,0.7265625 1.14844,1.1601562 0,0.984375 -0.89063,1.9570313 -2.0625,1.9570313 z m 0,0"
         style="fill:#000000;fill-opacity:1;fill-rule:nonzero;stroke:none" />
    </g>
  </g>
</svg>
