<?xml version="1.0" encoding="UTF-8" standalone="no"?>
<!-- Created with Inkscape (http://www.inkscape.org/) -->

<svg
   version="1.1"
   id="svg1"
   width="252.53125"
   height="18.222656"
   viewBox="0 0 252.53125 18.222656"
   sodipodi:docname="Formulas.pdf"
   xmlns:inkscape="http://www.inkscape.org/namespaces/inkscape"
   xmlns:sodipodi="http://sodipodi.sourceforge.net/DTD/sodipodi-0.dtd"
   xmlns="http://www.w3.org/2000/svg"
   xmlns:svg="http://www.w3.org/2000/svg">
  <defs
     id="defs1" />
  <sodipodi:namedview
     id="namedview1"
     pagecolor="#ffffff"
     bordercolor="#000000"
     borderopacity="0.25"
     inkscape:showpageshadow="2"
     inkscape:pageopacity="0.0"
     inkscape:pagecheckerboard="0"
     inkscape:deskcolor="#d1d1d1" />
  <g
     id="g1"
     inkscape:groupmode="layer"
     inkscape:label="1"
     transform="translate(-401.54297,-113.11328)">
    <g
       id="g2"
       aria-label="T&#10;Y&#10;(m,i)&#10;≥T&#10;Start&#10;(m,i,3)&#10;+t&#10;AGV&#10;(m,i,2)(m,i,3)&#10;,∀(m,i)∈D"
       transform="matrix(1.3333333,0,0,1.3333333,401.232,125.224)">
      <path
         id="path2"
         d="m 4.2527578,-6.0478828 c 0.070312,-0.28125 0.1054688,-0.3398438 0.234375,-0.3632813 0.082031,-0.023437 0.4101563,-0.023437 0.6210938,-0.023437 1.0078125,0 1.453125,0.035156 1.453125,0.8203125 0,0.140625 -0.035156,0.5273438 -0.082031,0.796875 0,0.035156 -0.023437,0.1523438 -0.023437,0.1875 0,0.058594 0.023437,0.1289063 0.1171875,0.1289063 0.1054688,0 0.1289063,-0.082031 0.1523438,-0.234375 l 0.2695312,-1.734375 c 0.011719,-0.035156 0.011719,-0.140625 0.011719,-0.1640625 0,-0.1054688 -0.09375,-0.1054688 -0.2695313,-0.1054688 H 1.2176016 c -0.24609379,0 -0.25781254,0 -0.31640629,0.1992188 l -0.59765625,1.7460937 c -0.0117188,0.023437 -0.0703125,0.1640625 -0.0703125,0.1757813 0,0.070312 0.0585938,0.1171875 0.12890625,0.1171875 0.09375,0 0.10546875,-0.046875 0.1640625,-0.2109375 0.53906249,-1.546875 0.79687499,-1.7226563 2.27343749,-1.7226563 h 0.3867188 c 0.28125,0 0.28125,0.035156 0.28125,0.1171875 0,0.058594 -0.035156,0.1757813 -0.046875,0.2109375 l -1.3242188,5.32031254 c -0.09375,0.36328125 -0.1289062,0.48046875 -1.19531249,0.48046875 -0.3515625,0 -0.41015625,0 -0.41015625,0.1875 0,0.1171875 0.10546875,0.1171875 0.1640625,0.1171875 0.26953125,0 0.55078124,-0.0234375 0.82031254,-0.0234375 0.28125,0 0.5625,-0.01171875 0.84375,-0.01171875 0.28125,0 0.5625,0.01171875 0.8320312,0.01171875 0.28125,0 0.5859375,0.0234375 0.8671875,0.0234375 0.09375,0 0.2109375,0 0.2109375,-0.19921875 0,-0.10546875 -0.082031,-0.10546875 -0.3398437,-0.10546875 -0.2460938,0 -0.375,0 -0.6328125,-0.0234375 -0.2929688,-0.0351563 -0.3632813,-0.0585938 -0.3632813,-0.22265625 0,-0.0117188 0,-0.0585938 0.035156,-0.2109375 z m 0,0"
         style="fill:#000000;fill-opacity:1;fill-rule:nonzero;stroke:none" />
      <path
         id="path3"
         d="m 11.928539,-8.0400703 c 0.140625,-0.140625 0.28125,-0.2695313 0.433594,-0.375 0.28125,-0.1875 0.539062,-0.1992188 0.632812,-0.2109375 0.07031,-0.011719 0.164063,-0.011719 0.164063,-0.1523438 0,-0.046875 -0.04687,-0.09375 -0.105469,-0.09375 -0.175781,0 -0.386719,0.023437 -0.5625,0.023437 -0.222656,0 -0.515625,-0.023437 -0.726562,-0.023437 -0.03516,0 -0.140625,0 -0.140625,0.1523438 0,0.082031 0.09375,0.09375 0.128906,0.09375 0.199219,0.011719 0.199219,0.09375 0.199219,0.1289062 0,0.070312 -0.03516,0.1171875 -0.09375,0.1875 -0.03516,0.058594 -0.07031,0.1054688 -0.117188,0.1523438 l -1.734375,1.8164062 -0.9257812,-2.0390625 c -0.046875,-0.09375 -0.046875,-0.1171875 -0.046875,-0.1171875 0,-0.1289062 0.328125,-0.1289062 0.375,-0.1289062 0.09375,0 0.1757813,0 0.1757813,-0.1523438 0,-0.011719 0,-0.09375 -0.1054688,-0.09375 -0.2109375,0 -0.7265625,0.023437 -0.9375,0.023437 -0.1757812,0 -0.6210937,-0.023437 -0.796875,-0.023437 -0.046875,0 -0.1289062,0.011719 -0.1289062,0.1523438 0,0.09375 0.082031,0.09375 0.1875,0.09375 0.3984375,0 0.421875,0.058594 0.4921875,0.2109375 l 1.0898437,2.390625 -0.3164062,1.2773437 c -0.09375,0.3515625 -0.09375,0.375 -0.6445313,0.3867188 -0.1171875,0 -0.2109375,0 -0.2109375,0.140625 0,0.070312 0.046875,0.1054687 0.1171875,0.1054687 0.1289063,0 0.2929688,-0.023437 0.4335938,-0.023437 0.1289062,0 0.328125,0 0.4570312,0 0.140625,0 0.3046875,0 0.4453125,0 0.1523438,0 0.3164063,0.023437 0.4687497,0.023437 0.03516,0 0.152344,0 0.152344,-0.1523437 0,-0.09375 -0.08203,-0.09375 -0.234375,-0.09375 -0.1171874,0 -0.1406249,0 -0.2695312,-0.023437 -0.1289062,-0.011719 -0.1523437,-0.023437 -0.1523437,-0.09375 0,-0.046875 0.082031,-0.375 0.1289062,-0.5625 0.058594,-0.2226563 0.2109375,-0.8320313 0.2226563,-0.8554688 0.023437,-0.1054687 0.023437,-0.1171875 0.09375,-0.1875 z m 0,0"
         style="fill:#000000;fill-opacity:1;fill-rule:nonzero;stroke:none" />
      <path
         id="path4"
         d="m 8.2957266,-2.5146797 c -1.3242188,0.9257813 -1.6757813,2.41406251 -1.6757813,3.48046876 0,0.98437504 0.2929688,2.50781254 1.6757813,3.48046874 0.058594,0 0.140625,0 0.140625,-0.082031 0,-0.046875 -0.023437,-0.058594 -0.070312,-0.1054688 -0.9257813,-0.8320312 -1.265625,-2.015625 -1.265625,-3.29296874 0,-1.875 0.7148437,-2.80078126 1.2890625,-3.31640626 0.023437,-0.023437 0.046875,-0.046875 0.046875,-0.082031 0,-0.082031 -0.082031,-0.082031 -0.1406255,-0.082032 z m 0,0"
         style="fill:#000000;fill-opacity:1;fill-rule:nonzero;stroke:none" />
      <path
         id="path5"
         d="m 11.957836,2.1493828 c -0.03516,0.140625 -0.09375,0.375 -0.09375,0.4101563 0,0.1523437 0.128906,0.2226562 0.234375,0.2226562 0.128906,0 0.234375,-0.09375 0.269531,-0.1523437 0.03516,-0.058594 0.09375,-0.2929688 0.128906,-0.4335938 0.03516,-0.1289062 0.117188,-0.4570312 0.152344,-0.6328125 0.04687,-0.1523437 0.08203,-0.3046875 0.117188,-0.4570312 0.08203,-0.30468754 0.08203,-0.31640629 0.222656,-0.53906254 0.222656,-0.33984375 0.5625,-0.73828125 1.113281,-0.73828125 0.386719,0 0.410156,0.328125 0.410156,0.4921875 0,0.421875 -0.304687,1.19531249 -0.410156,1.48828129 -0.08203,0.1875 -0.105469,0.2578125 -0.105469,0.375 0,0.3632812 0.304688,0.5976562 0.65625,0.5976562 0.703125,0 1.007813,-0.9609375 1.007813,-1.0664062 0,-0.09375 -0.09375,-0.09375 -0.105469,-0.09375 -0.105469,0 -0.105469,0.046875 -0.140625,0.1171875 -0.152344,0.5625 -0.457031,0.84375 -0.738281,0.84375 -0.140625,0 -0.175781,-0.09375 -0.175781,-0.2460938 0,-0.1523437 0.03516,-0.2460937 0.164062,-0.5625 0.08203,-0.2109375 0.375,-0.94921874 0.375,-1.34765624 0,-0.10546875 0,-0.3984375 -0.257812,-0.59765625 -0.128907,-0.09375 -0.328125,-0.1875 -0.65625,-0.1875 -0.621094,0 -1.007813,0.41015625 -1.230469,0.703125 -0.05859,-0.59765625 -0.550781,-0.703125 -0.902344,-0.703125 -0.585937,0 -0.972656,0.3515625 -1.183594,0.6328125 -0.04687,-0.48046875 -0.457031,-0.6328125 -0.75,-0.6328125 -0.2929683,0 -0.4570308,0.2109375 -0.5507808,0.375 -0.1523438,0.2578125 -0.2460938,0.65625 -0.2460938,0.69140625 0,0.0820313 0.09375,0.0820313 0.1171875,0.0820313 0.09375,0 0.1054688,-0.0117188 0.1523438,-0.19921875 0.1054687,-0.421875 0.234375,-0.76171875 0.5156253,-0.76171875 0.175781,0 0.222656,0.15234375 0.222656,0.33984375 0,0.140625 -0.05859,0.3984375 -0.105469,0.5859375 -0.04687,0.1875 -0.117187,0.46874999 -0.152344,0.62109369 L 9.7898672,2.2782891 c -0.035156,0.082031 -0.070312,0.2578125 -0.070312,0.28125 0,0.1523437 0.1171875,0.2226562 0.234375,0.2226562 0.1289068,0 0.2343758,-0.09375 0.2695318,-0.1523437 0.03516,-0.058594 0.09375,-0.2929688 0.128906,-0.4335938 0.03516,-0.1289062 0.105469,-0.4570312 0.152344,-0.6328125 0.03516,-0.1523437 0.08203,-0.3046875 0.117187,-0.4570312 0.08203,-0.29296879 0.09375,-0.35156254 0.292969,-0.63281254 0.199218,-0.28125 0.527343,-0.64453125 1.042968,-0.64453125 0.410157,0 0.410157,0.36328125 0.410157,0.4921875 0,0.17578125 -0.01172,0.26953125 -0.117187,0.65625 z m 5.519531,0.4453125 c 0,0.3867188 -0.07031,0.8320313 -0.550781,1.2773438 -0.02344,0.035156 -0.04687,0.058594 -0.04687,0.09375 0,0.046875 0.05859,0.09375 0.09375,0.09375 0.105469,0 0.691406,-0.5625 0.691406,-1.3945313 0,-0.421875 -0.164062,-0.75 -0.480469,-0.75 -0.234375,0 -0.398437,0.1757813 -0.398437,0.3867188 0,0.234375 0.152344,0.4101562 0.398437,0.4101562 0.164063,0 0.28125,-0.1171875 0.292969,-0.1171875 z m 3.146485,-4.2421875 c 0,-0.1054687 -0.08203,-0.2578125 -0.28125,-0.2578125 -0.1875,0 -0.386719,0.1757813 -0.386719,0.375 0,0.1171875 0.08203,0.2695313 0.269531,0.2695313 0.210938,0 0.398438,-0.1992188 0.398438,-0.3867188 z m -1.429688,3.5390625 c -0.02344,0.09375 -0.05859,0.1757813 -0.05859,0.2929688 0,0.328125 0.28125,0.5976562 0.667969,0.5976562 0.691406,0 0.996094,-0.9609375 0.996094,-1.0664062 0,-0.09375 -0.08203,-0.09375 -0.105469,-0.09375 -0.105469,0 -0.105469,0.046875 -0.140625,0.1171875 -0.152344,0.5625 -0.457031,0.84375 -0.738281,0.84375 -0.140625,0 -0.175781,-0.082031 -0.175781,-0.2460938 0,-0.1523437 0.05859,-0.2929687 0.117187,-0.4453125 0.07031,-0.1875 0.140625,-0.375 0.222656,-0.5507812 0.05859,-0.1640625 0.316407,-0.80859379 0.339844,-0.89062504 0.02344,-0.0703125 0.04687,-0.15234375 0.04687,-0.22265625 0,-0.328125 -0.28125,-0.5859375 -0.667969,-0.5859375 -0.691406,0 -1.007812,0.94921875 -1.007812,1.06640625 0,0.0820313 0.09375,0.0820313 0.117187,0.0820313 0.09375,0 0.105469,-0.0351563 0.128907,-0.10546875 0.175781,-0.59765625 0.480468,-0.85546875 0.738281,-0.85546875 0.117187,0 0.175781,0.0585938 0.175781,0.24609375 0,0.1640625 -0.03516,0.26953125 -0.210937,0.703125 z m 0,0"
         style="fill:#000000;fill-opacity:1;fill-rule:nonzero;stroke:none" />
      <path
         id="path6"
         d="m 21.822094,-2.5146797 c -0.05859,0 -0.140625,0 -0.140625,0.082031 0,0.035156 0.02344,0.058594 0.07031,0.1054687 0.597657,0.5507813 1.265625,1.48828126 1.265625,3.29296876 0,1.45312504 -0.457031,2.55468754 -1.207031,3.23437504 -0.117187,0.1171875 -0.128906,0.1289062 -0.128906,0.1640625 0,0.035156 0.02344,0.082031 0.09375,0.082031 0.08203,0 0.75,-0.4570312 1.207031,-1.3242187 0.304688,-0.5859375 0.503906,-1.3359375 0.503906,-2.15625004 0,-0.984375 -0.292968,-2.50781246 -1.664062,-3.48046876 z m 0,0"
         style="fill:#000000;fill-opacity:1;fill-rule:nonzero;stroke:none" />
      <path
         id="path7"
         d="m 34.282055,-3.2236641 c 0.140625,-0.070312 0.199218,-0.1289062 0.199218,-0.2226562 0,-0.1054688 -0.03516,-0.1640625 -0.199218,-0.234375 L 28.79768,-6.2705391 c -0.140625,-0.070312 -0.1875,-0.070312 -0.199219,-0.070312 -0.128906,0 -0.199219,0.09375 -0.199219,0.1992188 0,0.1289062 0.07031,0.1757812 0.1875,0.2226562 l 5.226563,2.4609375 -5.214844,2.46093754 c -0.199219,0.09375 -0.199219,0.1640625 -0.199219,0.234375 0,0.10546875 0.08203,0.19921875 0.199219,0.19921875 0.02344,0 0.04687,0 0.175781,-0.0703125 z m -0.152344,4.5820313 c 0.175781,0 0.351562,0 0.351562,-0.1992188 0,-0.19921871 -0.210937,-0.19921871 -0.363281,-0.19921871 h -5.367187 c -0.152344,0 -0.351563,0 -0.351563,0.19921871 0,0.1992188 0.175781,0.1992188 0.339844,0.1992188 z m 0,0"
         style="fill:#000000;fill-opacity:1;fill-rule:nonzero;stroke:none" />
      <path
         id="path8"
         d="m 42.338695,-6.0478828 c 0.07031,-0.28125 0.105469,-0.3398438 0.234375,-0.3632813 0.08203,-0.023437 0.410157,-0.023437 0.621094,-0.023437 1.007813,0 1.453125,0.035156 1.453125,0.8203125 0,0.140625 -0.03516,0.5273438 -0.08203,0.796875 0,0.035156 -0.02344,0.1523438 -0.02344,0.1875 0,0.058594 0.02344,0.1289063 0.117188,0.1289063 0.105469,0 0.128906,-0.082031 0.152344,-0.234375 l 0.269531,-1.734375 c 0.01172,-0.035156 0.01172,-0.140625 0.01172,-0.1640625 0,-0.1054688 -0.09375,-0.1054688 -0.269532,-0.1054688 h -5.519531 c -0.246094,0 -0.257812,0 -0.316406,0.1992188 l -0.597656,1.7460937 c -0.01172,0.023437 -0.07031,0.1640625 -0.07031,0.1757813 0,0.070312 0.05859,0.1171875 0.128906,0.1171875 0.09375,0 0.105469,-0.046875 0.164063,-0.2109375 0.539062,-1.546875 0.796875,-1.7226563 2.273437,-1.7226563 h 0.386719 c 0.28125,0 0.28125,0.035156 0.28125,0.1171875 0,0.058594 -0.03516,0.1757813 -0.04687,0.2109375 l -1.324219,5.32031254 c -0.09375,0.36328125 -0.128906,0.48046875 -1.195312,0.48046875 -0.351563,0 -0.410156,0 -0.410156,0.1875 0,0.1171875 0.105468,0.1171875 0.164062,0.1171875 0.269531,0 0.550781,-0.0234375 0.820313,-0.0234375 0.28125,0 0.5625,-0.01171875 0.84375,-0.01171875 0.28125,0 0.5625,0.01171875 0.832031,0.01171875 0.28125,0 0.585937,0.0234375 0.867187,0.0234375 0.09375,0 0.210938,0 0.210938,-0.19921875 0,-0.10546875 -0.08203,-0.10546875 -0.339844,-0.10546875 -0.246094,0 -0.375,0 -0.632812,-0.0234375 -0.292969,-0.0351563 -0.363282,-0.0585938 -0.363282,-0.22265625 0,-0.0117188 0,-0.0585938 0.03516,-0.2109375 z m 0,0"
         style="fill:#000000;fill-opacity:1;fill-rule:nonzero;stroke:none" />
      <path
         id="path9"
         d="m 49.191234,-5.4033516 c 0,-0.6328125 -0.433593,-1.21875 -1.136718,-1.3828125 l -1.03125,-0.234375 c -0.609375,-0.140625 -0.796875,-0.5859375 -0.796875,-0.8671875 0,-0.46875 0.421875,-0.9023437 1.054687,-0.9023437 0.9375,0 1.347656,0.6210937 1.464844,1.359375 0.01172,0.1054687 0.01172,0.140625 0.117187,0.140625 0.117188,0 0.117188,-0.046875 0.117188,-0.1875 v -1.359375 c 0,-0.1171875 0,-0.1757813 -0.09375,-0.1757813 -0.05859,0 -0.07031,0.011719 -0.117188,0.09375 l -0.257812,0.3867188 c -0.457031,-0.46875 -1.03125,-0.4804688 -1.230469,-0.4804688 -0.878906,0 -1.5,0.6210938 -1.5,1.3242188 0,0.3984375 0.175781,0.6914062 0.421875,0.9257812 0.28125,0.28125 0.503906,0.328125 1.265625,0.4921875 0.632813,0.140625 0.773438,0.1640625 0.972656,0.3632813 0.164063,0.1640625 0.304688,0.3867187 0.304688,0.703125 0,0.4804687 -0.398438,0.9726562 -1.078125,0.9726562 -0.667969,0 -1.605469,-0.2578125 -1.652344,-1.3125 -0.01172,-0.1054687 -0.01172,-0.1523437 -0.117187,-0.1523437 -0.117188,0 -0.117188,0.046875 -0.117188,0.1875 v 1.3476562 c 0,0.1289063 0,0.1875 0.09375,0.1875 0.05859,0 0.07031,-0.023437 0.117188,-0.082031 0.05859,-0.082031 0.199218,-0.3046875 0.257812,-0.3984375 0.433594,0.3867187 0.972656,0.4804687 1.417969,0.4804687 0.925781,0 1.523437,-0.6914062 1.523437,-1.4296877 z m 3.111329,0.4101563 v -0.3867188 h -0.234375 v 0.375 c 0,0.4804688 -0.222657,0.7382813 -0.492188,0.7382813 -0.480469,0 -0.480469,-0.5859375 -0.480469,-0.7148438 v -1.8867187 h 1.078125 v -0.2460938 h -1.078125 v -1.2890625 h -0.246093 c 0,0.6328125 -0.292969,1.3242188 -0.960938,1.3359375 v 0.1992188 h 0.65625 v 1.8867187 c 0,0.7734375 0.585938,0.9375 0.972656,0.9375 0.46875,0 0.785157,-0.3984375 0.785157,-0.9492187 z m 4.294921,0.2460937 v -0.375 h -0.246093 v 0.375 c 0,0.070312 0,0.3984375 -0.257813,0.3984375 -0.257812,0 -0.257812,-0.328125 -0.257812,-0.4101562 v -1.21875 c 0,-0.375 0,-0.6445313 -0.316407,-0.9023438 -0.28125,-0.234375 -0.621093,-0.3398437 -1.03125,-0.3398437 -0.667968,0 -1.125,0.2460937 -1.125,0.6679687 0,0.2226563 0.152344,0.3398438 0.328125,0.3398438 0.1875,0 0.328125,-0.1289063 0.328125,-0.3164063 0,-0.1289062 -0.05859,-0.2695312 -0.246093,-0.328125 0.257812,-0.1757812 0.65625,-0.1757812 0.703125,-0.1757812 0.386718,0 0.808593,0.2578125 0.808593,0.84375 v 0.2226562 c -0.375,0.011719 -0.84375,0.035156 -1.347656,0.2226563 -0.632812,0.2226562 -0.820312,0.609375 -0.820312,0.9257812 0,0.5976563 0.726562,0.7734375 1.21875,0.7734375 0.5625,0 0.878906,-0.3164062 1.03125,-0.5859375 0.02344,0.28125 0.210937,0.5507813 0.539062,0.5507813 0,0 0.691406,0 0.691406,-0.6679688 z m -1.3125,-0.3515625 c 0,0.6679688 -0.585937,0.8554688 -0.890625,0.8554688 -0.363281,0 -0.691406,-0.234375 -0.691406,-0.5742188 0,-0.3867187 0.328125,-0.9257812 1.582031,-0.9726562 z m 4.321289,-1.640625 c 0,-0.2460937 -0.222656,-0.4453125 -0.550781,-0.4453125 -0.351562,0 -0.726562,0.2109375 -0.9375,0.7382813 h -0.01172 v -0.7382813 l -0.996093,0.070312 v 0.2578125 c 0.46875,0 0.527343,0.046875 0.527343,0.3867188 v 1.8046875 c 0,0.3046875 -0.07031,0.3046875 -0.527343,0.3046875 v 0.2460937 c 0.03516,0 0.515625,-0.023437 0.796875,-0.023437 l 0.902343,0.023437 v -0.2460937 h -0.140625 c -0.515625,0 -0.515625,-0.082031 -0.515625,-0.3164063 v -1.03125 c 0,-0.5859375 0.28125,-1.2890625 0.9375,-1.2890625 -0.05859,0.046875 -0.117187,0.140625 -0.117187,0.2578125 0,0.2226563 0.175781,0.3164063 0.316406,0.3164063 0.164063,0 0.316406,-0.1054688 0.316406,-0.3164063 z m 2.885743,1.7460938 v -0.3867188 h -0.234375 v 0.375 c 0,0.4804688 -0.222657,0.7382813 -0.492188,0.7382813 -0.480469,0 -0.480469,-0.5859375 -0.480469,-0.7148438 v -1.8867187 h 1.078125 v -0.2460938 h -1.078125 v -1.2890625 h -0.246093 c 0,0.6328125 -0.292969,1.3242188 -0.960938,1.3359375 v 0.1992188 h 0.65625 v 1.8867187 c 0,0.7734375 0.585938,0.9375 0.972656,0.9375 0.46875,0 0.785157,-0.3984375 0.785157,-0.9492187 z m 0,0"
         style="fill:#000000;fill-opacity:1;fill-rule:nonzero;stroke:none" />
      <path
         id="path10"
         d="m 46.378734,-2.3769844 c -1.324218,0.9257813 -1.675781,2.41406253 -1.675781,3.4804688 0,0.984375 0.292969,2.5078125 1.675781,3.4804687 0.05859,0 0.140625,0 0.140625,-0.082031 0,-0.046875 -0.02344,-0.058594 -0.07031,-0.1054688 -0.925781,-0.8320312 -1.265625,-2.015625 -1.265625,-3.2929687 0,-1.87500002 0.714844,-2.8007813 1.289062,-3.3164063 0.02344,-0.023437 0.04687,-0.046875 0.04687,-0.082031 0,-0.082031 -0.08203,-0.082031 -0.140625,-0.082031 z m 0,0"
         style="fill:#000000;fill-opacity:1;fill-rule:nonzero;stroke:none" />
      <path
         id="path11"
         d="m 50.043773,2.2870781 c -0.03516,0.140625 -0.09375,0.375 -0.09375,0.4101563 0,0.1523437 0.128907,0.2226562 0.234375,0.2226562 0.128907,0 0.234375,-0.09375 0.269532,-0.1523437 0.03516,-0.058594 0.09375,-0.2929688 0.128906,-0.4335938 0.03516,-0.1289062 0.117187,-0.4570312 0.152344,-0.6328125 0.04687,-0.1523437 0.08203,-0.3046875 0.117187,-0.4570312 0.08203,-0.30468752 0.08203,-0.31640627 0.222656,-0.53906252 0.222657,-0.33984375 0.5625,-0.73828125 1.113282,-0.73828125 0.386718,0 0.410156,0.328125 0.410156,0.4921875 0,0.421875 -0.304688,1.19531247 -0.410156,1.48828127 -0.08203,0.1875 -0.105469,0.2578125 -0.105469,0.375 0,0.3632812 0.304687,0.5976562 0.65625,0.5976562 0.703125,0 1.007812,-0.9609375 1.007812,-1.0664062 0,-0.09375 -0.09375,-0.09375 -0.105468,-0.09375 -0.105469,0 -0.105469,0.046875 -0.140625,0.1171875 -0.152344,0.5625 -0.457032,0.84375 -0.738282,0.84375 -0.140625,0 -0.175781,-0.09375 -0.175781,-0.2460938 0,-0.1523437 0.03516,-0.2460937 0.164063,-0.5625 0.08203,-0.2109375 0.375,-0.94921872 0.375,-1.34765622 0,-0.10546875 0,-0.3984375 -0.257813,-0.59765625 -0.128906,-0.09375 -0.328125,-0.1875 -0.65625,-0.1875 -0.621094,0 -1.007812,0.41015625 -1.230469,0.703125 -0.05859,-0.59765625 -0.550781,-0.703125 -0.902343,-0.703125 -0.585938,0 -0.972657,0.3515625 -1.183594,0.6328125 -0.04687,-0.48046875 -0.457031,-0.6328125 -0.75,-0.6328125 -0.292969,0 -0.457031,0.2109375 -0.550781,0.375 -0.152344,0.2578125 -0.246094,0.65625 -0.246094,0.69140625 0,0.0820313 0.09375,0.0820313 0.117187,0.0820313 0.09375,0 0.105469,-0.0117188 0.152344,-0.19921875 0.105469,-0.421875 0.234375,-0.76171875 0.515625,-0.76171875 0.175781,0 0.222656,0.15234375 0.222656,0.33984375 0,0.140625 -0.05859,0.3984375 -0.105468,0.5859375 C 48.20393,1.0800469 48.133617,1.3612969 48.098461,1.5136406 l -0.222656,0.9023438 c -0.03516,0.082031 -0.07031,0.2578125 -0.07031,0.28125 0,0.1523437 0.117188,0.2226562 0.234375,0.2226562 0.128906,0 0.234375,-0.09375 0.269531,-0.1523437 0.03516,-0.058594 0.09375,-0.2929688 0.128907,-0.4335938 0.03516,-0.1289062 0.105468,-0.4570312 0.152343,-0.6328125 0.03516,-0.1523437 0.08203,-0.3046875 0.117188,-0.4570312 0.08203,-0.29296877 0.09375,-0.35156252 0.292969,-0.63281252 0.199218,-0.28125 0.527343,-0.64453125 1.042968,-0.64453125 0.410157,0 0.410157,0.36328125 0.410157,0.4921875 0,0.17578125 -0.01172,0.26953125 -0.117188,0.65624997 z m 5.516602,0.4453125 c 0,0.3867188 -0.07031,0.8320313 -0.550781,1.2773438 -0.02344,0.035156 -0.04687,0.058594 -0.04687,0.09375 0,0.046875 0.05859,0.09375 0.09375,0.09375 0.105469,0 0.691406,-0.5625 0.691406,-1.3945313 0,-0.421875 -0.164062,-0.75 -0.480469,-0.75 -0.234375,0 -0.398437,0.1757813 -0.398437,0.3867188 0,0.234375 0.152344,0.4101562 0.398437,0.4101562 0.164063,0 0.28125,-0.1171875 0.292969,-0.1171875 z m 3.149414,-4.2421875 c 0,-0.1054687 -0.08203,-0.2578125 -0.28125,-0.2578125 -0.1875,0 -0.386719,0.1757813 -0.386719,0.375 0,0.1171875 0.08203,0.2695313 0.269532,0.2695313 0.210937,0 0.398437,-0.1992188 0.398437,-0.3867188 z m -1.429687,3.5390625 c -0.02344,0.09375 -0.05859,0.1757813 -0.05859,0.2929688 0,0.328125 0.28125,0.5976562 0.667969,0.5976562 0.691406,0 0.996093,-0.9609375 0.996093,-1.0664062 0,-0.09375 -0.08203,-0.09375 -0.105468,-0.09375 -0.105469,0 -0.105469,0.046875 -0.140625,0.1171875 -0.152344,0.5625 -0.457032,0.84375 -0.738282,0.84375 -0.140625,0 -0.175781,-0.082031 -0.175781,-0.2460938 0,-0.1523437 0.05859,-0.2929687 0.117188,-0.4453125 0.07031,-0.1875 0.140625,-0.375 0.222656,-0.5507812 0.05859,-0.1640625 0.316406,-0.80859377 0.339844,-0.89062502 0.02344,-0.0703125 0.04687,-0.15234375 0.04687,-0.22265625 0,-0.328125 -0.28125,-0.5859375 -0.667969,-0.5859375 -0.691406,0 -1.007813,0.94921875 -1.007813,1.06640625 0,0.0820313 0.09375,0.0820313 0.117188,0.0820313 0.09375,0 0.105469,-0.0351563 0.128906,-0.10546875 0.175781,-0.59765625 0.480469,-0.85546875 0.738281,-0.85546875 0.117188,0 0.175782,0.05859375 0.175782,0.24609375 0,0.1640625 -0.03516,0.26953125 -0.210938,0.703125 z m 3.46289,0.703125 c 0,0.3867188 -0.07031,0.8320313 -0.550781,1.2773438 -0.02344,0.035156 -0.04687,0.058594 -0.04687,0.09375 0,0.046875 0.05859,0.09375 0.09375,0.09375 0.105469,0 0.691406,-0.5625 0.691406,-1.3945313 0,-0.421875 -0.164062,-0.75 -0.480469,-0.75 -0.234375,0 -0.398437,0.1757813 -0.398437,0.3867188 0,0.234375 0.152344,0.4101562 0.398437,0.4101562 0.164063,0 0.28125,-0.1171875 0.292969,-0.1171875 z m 0,0"
         style="fill:#000000;fill-opacity:1;fill-rule:nonzero;stroke:none" />
      <path
         id="path12"
         d="m 63.537914,0.51754688 c 0.550781,0 0.9375,0.375 0.9375,1.12500002 0,0.8671875 -0.503906,1.125 -0.902344,1.125 -0.28125,0 -0.890625,-0.082031 -1.183593,-0.4921875 0.328125,-0.011719 0.398437,-0.2460938 0.398437,-0.3867188 0,-0.2226562 -0.164062,-0.3867187 -0.386719,-0.3867187 -0.1875,0 -0.386718,0.1171875 -0.386718,0.4101562 0,0.65625 0.726562,1.078125 1.570312,1.078125 0.972656,0 1.640625,-0.6445312 1.640625,-1.3476562 0,-0.5390625 -0.445312,-1.08984377 -1.21875,-1.24218752 0.738281,-0.26953125 0.996094,-0.796875 0.996094,-1.21875 0,-0.55078128 -0.632813,-0.96093748 -1.40625,-0.96093748 -0.773438,0 -1.359375,0.375 -1.359375,0.93749998 0,0.234375 0.152344,0.36328125 0.363281,0.36328125 0.210938,0 0.351563,-0.1640625 0.351563,-0.3515625 0,-0.19921873 -0.140625,-0.35156253 -0.351563,-0.36328123 0.234375,-0.3046875 0.714844,-0.3867188 0.972656,-0.3867188 0.316407,0 0.761719,0.1523438 0.761719,0.76171878 0,0.29296875 -0.105469,0.609375 -0.28125,0.83203125 -0.234375,0.2578125 -0.421875,0.28125 -0.773437,0.29296875 -0.175782,0.0234375 -0.1875,0.0234375 -0.222657,0.0234375 -0.01172,0 -0.07031,0.0117188 -0.07031,0.09375 0,0.09375 0.05859,0.09375 0.175781,0.09375 z m 2.704102,-2.89453128 c -0.05859,0 -0.140625,0 -0.140625,0.082031 0,0.035156 0.02344,0.058594 0.07031,0.1054687 0.597656,0.5507813 1.265625,1.48828128 1.265625,3.2929688 0,1.453125 -0.457031,2.5546875 -1.207031,3.234375 -0.117188,0.1171875 -0.128906,0.1289062 -0.128906,0.1640625 0,0.035156 0.02344,0.082031 0.09375,0.082031 0.08203,0 0.75,-0.4570312 1.207031,-1.3242187 0.304687,-0.5859375 0.503906,-1.3359375 0.503906,-2.15625 0,-0.98437502 -0.292969,-2.5078125 -1.664062,-3.4804688 z m 0,0"
         style="fill:#000000;fill-opacity:1;fill-rule:nonzero;stroke:none" />
      <path
         id="path13"
         d="m 75.514477,-2.2978828 h 2.777343 c 0.140625,0 0.328125,0 0.328125,-0.1992188 0,-0.1992187 -0.1875,-0.1992187 -0.328125,-0.1992187 h -2.777343 v -2.7890625 c 0,-0.1289063 0,-0.328125 -0.199219,-0.328125 -0.199219,0 -0.199219,0.1992187 -0.199219,0.328125 v 2.7890625 h -2.789062 c -0.140625,0 -0.328125,0 -0.328125,0.1992187 0,0.1992188 0.1875,0.1992188 0.328125,0.1992188 h 2.789062 v 2.80078124 c 0,0.12890625 0,0.328125 0.199219,0.328125 0.199219,0 0.199219,-0.19921875 0.199219,-0.328125 z m 0,0"
         style="fill:#000000;fill-opacity:1;fill-rule:nonzero;stroke:none" />
      <path
         id="path14"
         d="m 83.451,-3.9853828 h 0.9375 c 0.199219,0 0.304688,0 0.304688,-0.1992188 0,-0.1054687 -0.105469,-0.1054687 -0.28125,-0.1054687 h -0.878907 c 0.363282,-1.4179688 0.410157,-1.6171875 0.410157,-1.6757813 0,-0.1757812 -0.117188,-0.2695312 -0.292969,-0.2695312 -0.02344,0 -0.304688,0.011719 -0.398438,0.3515625 l -0.386718,1.59375 h -0.9375 c -0.199219,0 -0.292969,0 -0.292969,0.1875 0,0.1171875 0.07031,0.1171875 0.269531,0.1171875 h 0.878906 c -0.714843,2.8242187 -0.75,2.99999999 -0.75,3.17578124 0,0.5390625 0.375,0.9140625 0.914063,0.9140625 1.007812,0 1.582031,-1.45312504 1.582031,-1.53515624 0,-0.09375 -0.08203,-0.09375 -0.117187,-0.09375 -0.09375,0 -0.105469,0.023437 -0.152344,0.140625 -0.433594,1.03124999 -0.960938,1.27734374 -1.300781,1.27734374 -0.199219,0 -0.304688,-0.12890625 -0.304688,-0.45703125 0,-0.24609375 0.02344,-0.31640625 0.05859,-0.48046879 z m 0,0"
         style="fill:#000000;fill-opacity:1;fill-rule:nonzero;stroke:none" />
      <path
         id="path15"
         d="m 90.552563,-4.1142891 v -0.2460937 h -0.140625 c -0.46875,0 -0.515625,-0.070312 -0.585938,-0.2695313 l -1.699219,-4.3007812 c -0.03516,-0.1054688 -0.05859,-0.1523438 -0.199218,-0.1523438 -0.128907,0 -0.152344,0.046875 -0.1875,0.1523438 l -1.617188,4.0898437 c -0.07031,0.1640625 -0.1875,0.4804688 -0.808594,0.4804688 v 0.2460937 c 0.234375,-0.023437 0.480469,-0.023437 0.714844,-0.023437 0.28125,0 0.796875,0.023437 0.832031,0.023437 v -0.2460937 c -0.304687,0 -0.492187,-0.140625 -0.492187,-0.3398438 0,-0.058594 0,-0.070312 0.03516,-0.140625 l 0.328125,-0.8554687 h 1.980469 l 0.410156,1.0195312 c 0.01172,0.035156 0.03516,0.082031 0.03516,0.1171875 0,0.1992188 -0.386718,0.1992188 -0.574218,0.1992188 v 0.2460937 l 1.042968,-0.023437 c 0.328125,0 0.855469,0.011719 0.925782,0.023437 z m -1.933594,-1.828125 H 86.826 l 0.902344,-2.2734375 z m 7.77832,0.1523438 v -0.2460938 c -0.04687,0 -0.5625,0.023437 -0.902344,0.023437 -0.363281,0 -0.890625,0 -1.253906,-0.023437 v 0.2460938 h 0.257813 c 0.703125,0 0.703125,0.09375 0.703125,0.328125 v 0.4453125 c 0,0.1523437 0,0.421875 -0.398438,0.6210937 -0.339844,0.1640625 -0.738281,0.1640625 -0.820312,0.1640625 -0.796875,0 -2.085938,-0.4453125 -2.085938,-2.2617187 0,-1.8632813 1.324219,-2.2734375 2.015625,-2.2734375 0.679688,0 1.511719,0.4570312 1.699219,1.6640625 0.01172,0.082031 0.07031,0.082031 0.128906,0.082031 0.117188,0 0.117188,-0.046875 0.117188,-0.1875 v -1.6289062 c 0,-0.1171875 0,-0.1757813 -0.09375,-0.1757813 -0.02344,0 -0.05859,0 -0.117188,0.082031 l -0.375,0.5273437 c -0.339844,-0.3515625 -0.832031,-0.609375 -1.441406,-0.609375 -1.453125,0 -2.671875,1.125 -2.671875,2.5195313 0,1.3710937 1.183594,2.5195312 2.683594,2.5195312 0.386718,0 1.160156,-0.070312 1.488281,-0.5625 0.117187,0.1875 0.375,0.421875 0.445312,0.421875 0.08203,0 0.08203,-0.082031 0.08203,-0.1757812 v -1.1953125 c 0,-0.3046875 0.07031,-0.3046875 0.539062,-0.3046875 z m 6.093751,-2.8359375 v -0.2460938 c -0.21094,0.011719 -0.48047,0.023437 -0.67969,0.023437 -0.28125,0 -0.79687,-0.023437 -0.84375,-0.023437 v 0.2460938 c 0.25781,0 0.48047,0.1171875 0.48047,0.328125 0,0.046875 -0.0117,0.09375 -0.0234,0.140625 l -1.453122,3.375 -1.5,-3.5390625 c -0.04687,-0.082031 -0.04687,-0.09375 -0.04687,-0.1171875 0,-0.1875 0.363281,-0.1875 0.550781,-0.1875 v -0.2460938 l -1.03125,0.023437 c -0.351562,0 -0.878906,-0.023437 -0.902344,-0.023437 v 0.2460938 h 0.128907 c 0.375,0 0.492187,0.035156 0.585937,0.2460937 l 1.804688,4.2421875 c 0.04687,0.1171875 0.07031,0.1640625 0.199218,0.1640625 0.07031,0 0.140625,0 0.210938,-0.1523437 l 1.722657,-4.0429688 c 0.0937,-0.2109375 0.25782,-0.4453125 0.79688,-0.4570312 z m 0,0"
         style="fill:#000000;fill-opacity:1;fill-rule:nonzero;stroke:none" />
      <path
         id="path16"
         d="m 87.470531,-2.3769844 c -1.324218,0.9257813 -1.675781,2.41406253 -1.675781,3.4804688 0,0.984375 0.292969,2.5078125 1.675781,3.4804687 0.05859,0 0.140625,0 0.140625,-0.082031 0,-0.046875 -0.02344,-0.058594 -0.07031,-0.1054688 -0.925781,-0.8320312 -1.265625,-2.015625 -1.265625,-3.2929687 0,-1.87500002 0.714844,-2.8007813 1.289062,-3.3164063 0.02344,-0.023437 0.04687,-0.046875 0.04687,-0.082031 0,-0.082031 -0.08203,-0.082031 -0.140625,-0.082031 z m 0,0"
         style="fill:#000000;fill-opacity:1;fill-rule:nonzero;stroke:none" />
      <path
         id="path17"
         d="m 91.132641,2.2870781 c -0.03516,0.140625 -0.09375,0.375 -0.09375,0.4101563 0,0.1523437 0.128906,0.2226562 0.234375,0.2226562 0.128906,0 0.234375,-0.09375 0.269531,-0.1523437 0.03516,-0.058594 0.09375,-0.2929688 0.128906,-0.4335938 0.03516,-0.1289062 0.117188,-0.4570312 0.152344,-0.6328125 0.04687,-0.1523437 0.08203,-0.3046875 0.117187,-0.4570312 0.08203,-0.30468752 0.08203,-0.31640627 0.222657,-0.53906252 0.222656,-0.33984375 0.5625,-0.73828125 1.113281,-0.73828125 0.386719,0 0.410156,0.328125 0.410156,0.4921875 0,0.421875 -0.304687,1.19531247 -0.410156,1.48828127 -0.08203,0.1875 -0.105469,0.2578125 -0.105469,0.375 0,0.3632812 0.304688,0.5976562 0.65625,0.5976562 0.703125,0 1.007813,-0.9609375 1.007813,-1.0664062 0,-0.09375 -0.09375,-0.09375 -0.105469,-0.09375 -0.105469,0 -0.105469,0.046875 -0.140625,0.1171875 -0.152344,0.5625 -0.457031,0.84375 -0.738281,0.84375 -0.140625,0 -0.175782,-0.09375 -0.175782,-0.2460938 0,-0.1523437 0.03516,-0.2460937 0.164063,-0.5625 0.08203,-0.2109375 0.375,-0.94921872 0.375,-1.34765622 0,-0.10546875 0,-0.3984375 -0.257813,-0.59765625 -0.128906,-0.09375 -0.328125,-0.1875 -0.65625,-0.1875 -0.621093,0 -1.007812,0.41015625 -1.230468,0.703125 -0.05859,-0.59765625 -0.550782,-0.703125 -0.902344,-0.703125 -0.585938,0 -0.972656,0.3515625 -1.183594,0.6328125 -0.04687,-0.48046875 -0.457031,-0.6328125 -0.75,-0.6328125 -0.292969,0 -0.457031,0.2109375 -0.550781,0.375 -0.152344,0.2578125 -0.246094,0.65625 -0.246094,0.69140625 0,0.0820313 0.09375,0.0820313 0.117188,0.0820313 0.09375,0 0.105468,-0.0117188 0.152343,-0.19921875 0.105469,-0.421875 0.234375,-0.76171875 0.515625,-0.76171875 0.175782,0 0.222657,0.15234375 0.222657,0.33984375 0,0.140625 -0.05859,0.3984375 -0.105469,0.5859375 -0.04687,0.18749997 -0.117188,0.46874997 -0.152344,0.62109377 l -0.222656,0.9023438 c -0.03516,0.082031 -0.07031,0.2578125 -0.07031,0.28125 0,0.1523437 0.117188,0.2226562 0.234375,0.2226562 0.128907,0 0.234375,-0.09375 0.269532,-0.1523437 0.03516,-0.058594 0.09375,-0.2929688 0.128906,-0.4335938 0.03516,-0.1289062 0.105469,-0.4570312 0.152344,-0.6328125 0.03516,-0.1523438 0.08203,-0.3046875 0.117187,-0.4570313 0.08203,-0.29296872 0.09375,-0.35156247 0.292969,-0.63281247 0.199219,-0.28125 0.527344,-0.64453125 1.042969,-0.64453125 0.410156,0 0.410156,0.36328125 0.410156,0.4921875 0,0.17578125 -0.01172,0.26953125 -0.117188,0.65625002 z m 5.519531,0.4453125 c 0,0.3867188 -0.07031,0.8320313 -0.550781,1.2773438 -0.02344,0.035156 -0.04687,0.058594 -0.04687,0.09375 0,0.046875 0.05859,0.09375 0.09375,0.09375 0.105468,0 0.691406,-0.5625 0.691406,-1.3945313 0,-0.421875 -0.164063,-0.75 -0.480469,-0.75 -0.234375,0 -0.398437,0.1757813 -0.398437,0.3867188 0,0.234375 0.152343,0.4101562 0.398437,0.4101562 0.164063,0 0.28125,-0.1171875 0.292969,-0.1171875 z m 3.149414,-4.2421875 c 0,-0.1054687 -0.08203,-0.2578125 -0.28125,-0.2578125 -0.1875,0 -0.386719,0.1757813 -0.386719,0.375 0,0.1171875 0.08203,0.2695313 0.269531,0.2695313 0.210938,0 0.398438,-0.1992188 0.398438,-0.3867188 z m -1.429688,3.5390625 c -0.02344,0.09375 -0.05859,0.1757813 -0.05859,0.2929688 0,0.328125 0.28125,0.5976562 0.667968,0.5976562 0.691407,0 0.996094,-0.9609375 0.996094,-1.0664062 0,-0.09375 -0.08203,-0.09375 -0.105469,-0.09375 -0.105468,0 -0.105468,0.046875 -0.140625,0.1171875 -0.152343,0.5625 -0.457031,0.84375 -0.738281,0.84375 -0.140625,0 -0.175781,-0.082031 -0.175781,-0.2460938 0,-0.1523437 0.05859,-0.2929687 0.117187,-0.4453125 0.07031,-0.1875 0.140625,-0.375 0.222657,-0.5507812 0.05859,-0.1640625 0.316406,-0.80859377 0.339843,-0.89062502 0.02344,-0.0703125 0.04687,-0.15234375 0.04687,-0.22265625 0,-0.328125 -0.28125,-0.5859375 -0.667968,-0.5859375 -0.691407,0 -1.007813,0.94921875 -1.007813,1.06640625 0,0.0820313 0.09375,0.0820313 0.117188,0.0820313 0.09375,0 0.105468,-0.0351563 0.128906,-0.10546875 0.175781,-0.59765625 0.480469,-0.85546875 0.738281,-0.85546875 0.117188,0 0.175781,0.05859375 0.175781,0.24609375 0,0.1640625 -0.03516,0.26953125 -0.210937,0.703125 z m 3.459962,0.703125 c 0,0.3867188 -0.0703,0.8320313 -0.55078,1.2773438 -0.0234,0.035156 -0.0469,0.058594 -0.0469,0.09375 0,0.046875 0.0586,0.09375 0.0937,0.09375 0.10547,0 0.69141,-0.5625 0.69141,-1.3945313 0,-0.421875 -0.16406,-0.75 -0.48047,-0.75 -0.23437,0 -0.39844,0.1757813 -0.39844,0.3867188 0,0.234375 0.15235,0.4101562 0.39844,0.4101562 0.16406,0 0.28125,-0.1171875 0.29297,-0.1171875 z m 0,0"
         style="fill:#000000;fill-opacity:1;fill-rule:nonzero;stroke:none" />
      <path
         id="path18"
         d="m 106.2469,1.5839531 h -0.23438 c -0.0234,0.1523438 -0.082,0.5625 -0.17578,0.6328125 -0.0586,0.035156 -0.59765,0.035156 -0.6914,0.035156 h -1.28907 c 0.73828,-0.6445313 0.98438,-0.84375 1.39453,-1.171875 0.51563,-0.41015627 0.9961,-0.84375002 0.9961,-1.50000002 0,-0.84374998 -0.73828,-1.35937498 -1.62891,-1.35937498 -0.86719,0 -1.45312,0.609375 -1.45312,1.24218748 0,0.36328125 0.30468,0.3984375 0.375,0.3984375 0.16406,0 0.375,-0.1171875 0.375,-0.375 0,-0.12890625 -0.0586,-0.36328125 -0.42188,-0.36328125 0.22266,-0.50390623 0.69141,-0.65625003 1.01953,-0.65625003 0.70313,0 1.06641,0.55078128 1.06641,1.11328128 0,0.609375 -0.43359,1.08984375 -0.65625,1.3359375 l -1.6875,1.66406252 c -0.0703,0.058594 -0.0703,0.070312 -0.0703,0.2695312 h 2.88281 z m 1.08398,-3.9609375 c -0.0586,0 -0.14062,0 -0.14062,0.082031 0,0.035156 0.0234,0.058594 0.0703,0.1054687 0.59766,0.5507813 1.26563,1.48828128 1.26563,3.2929688 0,1.453125 -0.45704,2.5546875 -1.20704,3.234375 -0.11718,0.1171875 -0.1289,0.1289062 -0.1289,0.1640625 0,0.035156 0.0234,0.082031 0.0937,0.082031 0.082,0 0.75,-0.4570312 1.20703,-1.3242187 0.30469,-0.5859375 0.50391,-1.3359375 0.50391,-2.15625 0,-0.98437502 -0.29297,-2.5078125 -1.66407,-3.4804688 z m 4.95117,0 c -1.32421,0.9257813 -1.67578,2.41406253 -1.67578,3.4804688 0,0.984375 0.29297,2.5078125 1.67578,3.4804687 0.0586,0 0.14063,0 0.14063,-0.082031 0,-0.046875 -0.0234,-0.058594 -0.0703,-0.1054688 -0.92578,-0.8320312 -1.26563,-2.015625 -1.26563,-3.2929687 0,-1.87500002 0.71485,-2.8007813 1.28906,-3.3164063 0.0234,-0.023437 0.0469,-0.046875 0.0469,-0.082031 0,-0.082031 -0.082,-0.082031 -0.14063,-0.082031 z m 0,0"
         style="fill:#000000;fill-opacity:1;fill-rule:nonzero;stroke:none" />
      <path
         id="path19"
         d="m 115.95295,2.2870781 c -0.0352,0.140625 -0.0937,0.375 -0.0937,0.4101563 0,0.1523437 0.12891,0.2226562 0.23438,0.2226562 0.1289,0 0.23437,-0.09375 0.26953,-0.1523437 0.0352,-0.058594 0.0937,-0.2929688 0.12891,-0.4335938 0.0352,-0.1289062 0.11718,-0.4570312 0.15234,-0.6328125 0.0469,-0.1523437 0.082,-0.3046875 0.11719,-0.4570312 0.082,-0.30468752 0.082,-0.31640627 0.22265,-0.53906252 0.22266,-0.33984375 0.5625,-0.73828125 1.11328,-0.73828125 0.38672,0 0.41016,0.328125 0.41016,0.4921875 0,0.421875 -0.30469,1.19531247 -0.41016,1.48828127 -0.082,0.1875 -0.10546,0.2578125 -0.10546,0.375 0,0.3632812 0.30468,0.5976562 0.65625,0.5976562 0.70312,0 1.00781,-0.9609375 1.00781,-1.0664062 0,-0.09375 -0.0937,-0.09375 -0.10547,-0.09375 -0.10547,0 -0.10547,0.046875 -0.14063,0.1171875 -0.15234,0.5625 -0.45703,0.84375 -0.73828,0.84375 -0.14062,0 -0.17578,-0.09375 -0.17578,-0.2460938 0,-0.1523437 0.0352,-0.2460937 0.16406,-0.5625 0.082,-0.2109375 0.375,-0.94921872 0.375,-1.34765622 0,-0.10546875 0,-0.3984375 -0.25781,-0.59765625 -0.1289,-0.09375 -0.32812,-0.1875 -0.65625,-0.1875 -0.62109,0 -1.00781,0.41015625 -1.23047,0.703125 -0.0586,-0.59765625 -0.55078,-0.703125 -0.90234,-0.703125 -0.58594,0 -0.97266,0.3515625 -1.18359,0.6328125 -0.0469,-0.48046875 -0.45704,-0.6328125 -0.75,-0.6328125 -0.29297,0 -0.45704,0.2109375 -0.55079,0.375 -0.15234,0.2578125 -0.24609,0.65625 -0.24609,0.69140625 0,0.0820313 0.0937,0.0820313 0.11719,0.0820313 0.0937,0 0.10547,-0.0117188 0.15234,-0.19921875 0.10547,-0.421875 0.23438,-0.76171875 0.51563,-0.76171875 0.17578,0 0.22265,0.15234375 0.22265,0.33984375 0,0.140625 -0.0586,0.3984375 -0.10547,0.5859375 -0.0469,0.18749997 -0.11718,0.46874997 -0.15234,0.62109377 l -0.22266,0.9023438 c -0.0352,0.082031 -0.0703,0.2578125 -0.0703,0.28125 0,0.1523437 0.11719,0.2226562 0.23438,0.2226562 0.1289,0 0.23437,-0.09375 0.26953,-0.1523437 0.0352,-0.058594 0.0937,-0.2929688 0.1289,-0.4335938 0.0352,-0.1289062 0.10547,-0.4570312 0.15235,-0.6328125 0.0352,-0.1523438 0.082,-0.3046875 0.11719,-0.4570313 0.082,-0.29296872 0.0937,-0.35156247 0.29296,-0.63281247 0.19922,-0.28125 0.52735,-0.64453125 1.04297,-0.64453125 0.41016,0 0.41016,0.36328125 0.41016,0.4921875 0,0.17578125 -0.0117,0.26953125 -0.11719,0.65625002 z m 5.5166,0.4453125 c 0,0.3867188 -0.0703,0.8320313 -0.55078,1.2773438 -0.0234,0.035156 -0.0469,0.058594 -0.0469,0.09375 0,0.046875 0.0586,0.09375 0.0937,0.09375 0.10547,0 0.6914,-0.5625 0.6914,-1.3945313 0,-0.421875 -0.16406,-0.75 -0.48046,-0.75 -0.23438,0 -0.39844,0.1757813 -0.39844,0.3867188 0,0.234375 0.15234,0.4101562 0.39844,0.4101562 0.16406,0 0.28125,-0.1171875 0.29296,-0.1171875 z m 3.14942,-4.2421875 c 0,-0.1054687 -0.082,-0.2578125 -0.28125,-0.2578125 -0.1875,0 -0.38672,0.1757813 -0.38672,0.375 0,0.1171875 0.082,0.2695313 0.26953,0.2695313 0.21094,0 0.39844,-0.1992188 0.39844,-0.3867188 z m -1.42969,3.5390625 c -0.0234,0.09375 -0.0586,0.1757813 -0.0586,0.2929688 0,0.328125 0.28125,0.5976562 0.66797,0.5976562 0.6914,0 0.99609,-0.9609375 0.99609,-1.0664062 0,-0.09375 -0.082,-0.09375 -0.10547,-0.09375 -0.10547,0 -0.10547,0.046875 -0.14062,0.1171875 -0.15235,0.5625 -0.45703,0.84375 -0.73828,0.84375 -0.14063,0 -0.17579,-0.082031 -0.17579,-0.2460938 0,-0.1523437 0.0586,-0.2929687 0.11719,-0.4453125 0.0703,-0.1875 0.14063,-0.375 0.22266,-0.5507812 0.0586,-0.1640625 0.3164,-0.80859377 0.33984,-0.89062502 0.0234,-0.0703125 0.0469,-0.15234375 0.0469,-0.22265625 0,-0.328125 -0.28125,-0.5859375 -0.66797,-0.5859375 -0.69141,0 -1.00781,0.94921875 -1.00781,1.06640625 0,0.0820313 0.0937,0.0820313 0.11718,0.0820313 0.0937,0 0.10547,-0.0351563 0.12891,-0.10546875 0.17578,-0.59765625 0.48047,-0.85546875 0.73828,-0.85546875 0.11719,0 0.17578,0.05859375 0.17578,0.24609375 0,0.1640625 -0.0352,0.26953125 -0.21094,0.703125 z m 3.46289,0.703125 c 0,0.3867188 -0.0703,0.8320313 -0.55078,1.2773438 -0.0234,0.035156 -0.0469,0.058594 -0.0469,0.09375 0,0.046875 0.0586,0.09375 0.0937,0.09375 0.10546,0 0.6914,-0.5625 0.6914,-1.3945313 0,-0.421875 -0.16406,-0.75 -0.48047,-0.75 -0.23437,0 -0.39843,0.1757813 -0.39843,0.3867188 0,0.234375 0.15234,0.4101562 0.39843,0.4101562 0.16407,0 0.28125,-0.1171875 0.29297,-0.1171875 z m 0,0"
         style="fill:#000000;fill-opacity:1;fill-rule:nonzero;stroke:none" />
      <path
         id="path20"
         d="m 129.44709,0.51754688 c 0.55079,0 0.9375,0.375 0.9375,1.12500002 0,0.8671875 -0.5039,1.125 -0.90234,1.125 -0.28125,0 -0.89062,-0.082031 -1.18359,-0.4921875 0.32812,-0.011719 0.39843,-0.2460938 0.39843,-0.3867188 0,-0.2226562 -0.16406,-0.3867187 -0.38671,-0.3867187 -0.1875,0 -0.38672,0.1171875 -0.38672,0.4101562 0,0.65625 0.72656,1.078125 1.57031,1.078125 0.97266,0 1.64062,-0.6445312 1.64062,-1.3476562 0,-0.5390625 -0.44531,-1.08984377 -1.21875,-1.24218752 0.73829,-0.26953125 0.9961,-0.796875 0.9961,-1.21875 0,-0.55078128 -0.63281,-0.96093748 -1.40625,-0.96093748 -0.77344,0 -1.35938,0.375 -1.35938,0.93749998 0,0.234375 0.15235,0.36328125 0.36328,0.36328125 0.21094,0 0.35157,-0.1640625 0.35157,-0.3515625 0,-0.19921873 -0.14063,-0.35156253 -0.35157,-0.36328123 0.23438,-0.3046875 0.71485,-0.3867188 0.97266,-0.3867188 0.31641,0 0.76172,0.1523438 0.76172,0.76171878 0,0.29296875 -0.10547,0.609375 -0.28125,0.83203125 -0.23438,0.2578125 -0.42188,0.28125 -0.77344,0.29296875 -0.17578,0.0234375 -0.1875,0.0234375 -0.22265,0.0234375 -0.0117,0 -0.0703,0.0117188 -0.0703,0.09375 0,0.09375 0.0586,0.09375 0.17578,0.09375 z m 2.70411,-2.89453128 c -0.0586,0 -0.14063,0 -0.14063,0.082031 0,0.035156 0.0234,0.058594 0.0703,0.1054687 0.59766,0.5507813 1.26563,1.48828128 1.26563,3.2929688 0,1.453125 -0.45703,2.5546875 -1.20703,3.234375 -0.11719,0.1171875 -0.12891,0.1289062 -0.12891,0.1640625 0,0.035156 0.0234,0.082031 0.0937,0.082031 0.082,0 0.75,-0.4570312 1.20703,-1.3242187 0.30469,-0.5859375 0.50391,-1.3359375 0.50391,-2.15625 0,-0.98437502 -0.29297,-2.5078125 -1.66406,-3.4804688 z m 0,0"
         style="fill:#000000;fill-opacity:1;fill-rule:nonzero;stroke:none" />
      <path
         id="path21"
         d="m 137.15803,-0.01272656 c 0,-0.65625 -0.25781,-1.04296874 -0.64453,-1.04296874 -0.32812,0 -0.52734,0.24609374 -0.52734,0.52734374 0,0.26953125 0.19922,0.52734375 0.52734,0.52734375 0.11719,0 0.24609,-0.03515625 0.35156,-0.12890625 0.0234,-0.0234375 0.0352,-0.0351563 0.0469,-0.0351563 0.0117,0 0.0234,0.0117188 0.0234,0.15234375 0,0.73828125 -0.35157,1.33593741 -0.67969,1.66406241 -0.10547,0.1054688 -0.10547,0.1289063 -0.10547,0.1640625 0,0.070312 0.0469,0.1054688 0.0937,0.1054688 0.11719,0 0.91406,-0.7617188 0.91406,-1.93359371 z m 0,0"
         style="fill:#000000;fill-opacity:1;fill-rule:nonzero;stroke:none" />
      <path
         id="path22"
         d="m 145.04475,-6.5400703 c 0.0586,-0.1054688 0.0586,-0.1289063 0.0586,-0.1757813 0,-0.09375 -0.082,-0.1992187 -0.19921,-0.1992187 -0.12891,0 -0.19922,0.1171875 -0.23438,0.234375 l -0.82031,2.1914062 h -3.03516 l -0.82031,-2.1914062 c -0.0586,-0.140625 -0.10547,-0.234375 -0.23438,-0.234375 -0.0937,0 -0.19921,0.1054687 -0.19921,0.1992187 0,0.023437 0,0.035156 0.0586,0.1757813 l 2.48437,6.52734374 c 0.0469,0.140625 0.0937,0.234375 0.22266,0.234375 0.14063,0 0.1875,-0.1171875 0.22266,-0.2109375 z m -4.06641,2.4492187 h 2.70704 l -1.35938,3.53906254 z m 0,0"
         style="fill:#000000;fill-opacity:1;fill-rule:nonzero;stroke:none" />
      <path
         id="path23"
         d="m 148.38752,2.3896172 c 0,-0.035156 0,-0.046875 -0.16406,-0.2226563 -1.24219,-1.25390621 -1.57031,-3.12890621 -1.57031,-4.6640625 0,-1.7226562 0.38672,-3.4570312 1.60547,-4.7109375 0.1289,-0.1171875 0.1289,-0.1289062 0.1289,-0.1640625 0,-0.070312 -0.0351,-0.1054687 -0.0937,-0.1054687 -0.10547,0 -0.99609,0.6796875 -1.58203,1.9453125 -0.51562,1.1015625 -0.63281,2.203125 -0.63281,3.0351562 0,0.7851563 0.11719,1.99218754 0.65625,3.11718754 0.59766,1.21874996 1.45312,1.87499996 1.55859,1.87499996 0.0586,0 0.0937,-0.035156 0.0937,-0.1054687 z m 0,0"
         style="fill:#000000;fill-opacity:1;fill-rule:nonzero;stroke:none" />
      <path
         id="path24"
         d="m 149.84651,-0.58694531 c -0.0352,0.15234375 -0.0937,0.375 -0.0937,0.421875 0,0.1875 0.14062,0.26953125 0.29297,0.26953125 0.11718,0 0.29297,-0.0703125 0.36328,-0.26953125 0.0117,-0.0234375 0.1289,-0.4921875 0.1875,-0.73828125 l 0.22265,-0.90234374 c 0.0586,-0.2226563 0.11719,-0.4335938 0.17579,-0.6679688 0.0352,-0.1640625 0.11718,-0.4570312 0.1289,-0.4921875 0.14063,-0.3164062 0.66797,-1.21875 1.61719,-1.21875 0.44531,0 0.53906,0.3632813 0.53906,0.6914063 0,0.2578125 -0.0703,0.5390625 -0.15234,0.8320312 l -0.26953,1.1601563 -0.19922,0.74999999 c -0.0469,0.19921875 -0.14063,0.5390625 -0.14063,0.5859375 0,0.1875 0.14063,0.26953125 0.29297,0.26953125 0.30469,0 0.375,-0.24609375 0.44531,-0.5625 0.14063,-0.56250004 0.51563,-2.01562504 0.59766,-2.40234374 0.0352,-0.1289063 0.5625,-1.3242188 1.65234,-1.3242188 0.42188,0 0.53907,0.3398438 0.53907,0.6914063 0,0.5742187 -0.42188,1.7109375 -0.6211,2.2382812 -0.0937,0.234375 -0.1289,0.35156254 -0.1289,0.55078129 0,0.46875 0.35156,0.80859375 0.80859,0.80859375 0.9375,0 1.3125,-1.45312504 1.3125,-1.53515624 0,-0.09375 -0.0937,-0.09375 -0.11719,-0.09375 -0.10547,0 -0.10547,0.023437 -0.15234,0.1757812 -0.15234,0.52734379 -0.46875,1.24218754 -1.01953,1.24218754 -0.16406,0 -0.23438,-0.10546875 -0.23438,-0.328125 0,-0.2578125 0.082,-0.4921875 0.17578,-0.71484374 0.1875,-0.515625 0.60938,-1.6171875 0.60938,-2.1914063 0,-0.6445312 -0.39844,-1.0664062 -1.14844,-1.0664062 -0.75,0 -1.2539,0.4453125 -1.61719,0.9726562 -0.0117,-0.1289062 -0.0469,-0.46875 -0.32812,-0.7148437 -0.24609,-0.1992188 -0.5625,-0.2578125 -0.80859,-0.2578125 -0.90235,0 -1.38282,0.6445312 -1.5586,0.8671875 -0.0469,-0.5625 -0.46875,-0.8671875 -0.91406,-0.8671875 -0.45703,0 -0.64453,0.3867187 -0.73828,0.5742187 -0.17578,0.3398438 -0.30469,0.9375 -0.30469,0.9609375 0,0.1054688 0.0937,0.1054688 0.11719,0.1054688 0.0937,0 0.10547,-0.011719 0.16406,-0.234375 0.17578,-0.703125 0.375,-1.1835938 0.72656,-1.1835938 0.16407,0 0.31641,0.082031 0.31641,0.4570313 0,0.2109375 -0.0352,0.3164062 -0.16406,0.8320312 z m 9.89648,0.57421875 c 0,-0.65625 -0.25781,-1.04296874 -0.64453,-1.04296874 -0.32812,0 -0.52734,0.24609374 -0.52734,0.52734374 0,0.26953125 0.19922,0.52734375 0.52734,0.52734375 0.11719,0 0.24609,-0.03515625 0.35156,-0.12890625 0.0234,-0.0234375 0.0352,-0.0351563 0.0469,-0.0351563 0.0117,0 0.0234,0.0117188 0.0234,0.15234375 0,0.73828125 -0.35157,1.33593741 -0.67969,1.66406241 -0.10547,0.1054688 -0.10547,0.1289063 -0.10547,0.1640625 0,0.070312 0.0469,0.1054688 0.0937,0.1054688 0.11719,0 0.91406,-0.7617188 0.91406,-1.93359371 z m 5.21192,-6.21093754 c 0,-0.1992187 -0.12891,-0.3632812 -0.36328,-0.3632812 -0.26954,0 -0.53907,0.2578125 -0.53907,0.5273437 0,0.1875 0.14063,0.3632813 0.375,0.3632813 0.23438,0 0.52735,-0.234375 0.52735,-0.5273438 z m -0.75,3.7382813 c 0.11718,-0.28125 0.11718,-0.3046875 0.22265,-0.5742188 0.0703,-0.1992187 0.12891,-0.3398437 0.12891,-0.5273437 0,-0.4453125 -0.32813,-0.8203125 -0.82031,-0.8203125 -0.9375,0 -1.3125,1.453125 -1.3125,1.5351562 0,0.1054688 0.0937,0.1054688 0.11718,0.1054688 0.0937,0 0.10547,-0.023437 0.15235,-0.1875 0.26953,-0.9375 0.66797,-1.2304688 1.00781,-1.2304688 0.082,0 0.25781,0 0.25781,0.3164063 0,0.2109375 -0.0703,0.421875 -0.11718,0.515625 -0.082,0.2578125 -0.52735,1.4179687 -0.67969,1.8515625 -0.10547,0.2578125 -0.23438,0.58593749 -0.23438,0.79687499 0,0.46875 0.33985,0.80859375 0.82032,0.80859375 0.9375,0 1.30078,-1.44140624 1.30078,-1.53515624 0,-0.09375 -0.0937,-0.09375 -0.11719,-0.09375 -0.10547,0 -0.10547,0.023437 -0.15234,0.1757812 -0.17579,0.63281254 -0.50391,1.24218754 -1.01954,1.24218754 -0.16406,0 -0.23437,-0.10546875 -0.23437,-0.328125 0,-0.2578125 0.0586,-0.3984375 0.29297,-0.99609374 z m 0,0"
         style="fill:#000000;fill-opacity:1;fill-rule:nonzero;stroke:none" />
      <path
         id="path25"
         d="m 168.45881,-2.4971016 c 0,-0.7734375 -0.11718,-1.9804687 -0.65625,-3.1054687 -0.59765,-1.21875 -1.46484,-1.875 -1.55859,-1.875 -0.0586,0 -0.10547,0.046875 -0.10547,0.1054687 0,0.035156 0,0.046875 0.19922,0.234375 0.97266,0.984375 1.53516,2.5664063 1.53516,4.640625 0,1.71093754 -0.36329,3.45703129 -1.59375,4.7226563 -0.14063,0.1171875 -0.14063,0.1289062 -0.14063,0.1640625 0,0.058594 0.0469,0.1054687 0.10547,0.1054687 0.0937,0 0.99609,-0.6796875 1.58203,-1.94531246 0.50391,-1.1015625 0.63281,-2.20312504 0.63281,-3.04687504 z m 0,0"
         style="fill:#000000;fill-opacity:1;fill-rule:nonzero;stroke:none" />
      <path
         id="path26"
         d="m 177.67854,-2.2978828 c 0.16406,0 0.35156,0 0.35156,-0.1992188 0,-0.1992187 -0.1875,-0.1992187 -0.35156,-0.1992187 h -4.23047 c 0.12891,-1.3242188 1.26563,-2.2851563 2.67188,-2.2851563 h 1.55859 c 0.16406,0 0.35156,0 0.35156,-0.1992187 0,-0.1992188 -0.1875,-0.1992188 -0.35156,-0.1992188 h -1.57031 c -1.71094,0 -3.0586,1.2890625 -3.0586,2.8828125 0,1.59375004 1.34766,2.89453129 3.0586,2.89453129 h 1.57031 c 0.16406,0 0.35156,0 0.35156,-0.19921875 0,-0.19921875 -0.1875,-0.19921875 -0.35156,-0.19921875 h -1.55859 c -1.40625,0 -2.54297,-0.9609375 -2.67188,-2.29687499 z m 0,0"
         style="fill:#000000;fill-opacity:1;fill-rule:nonzero;stroke:none" />
      <path
         id="path27"
         d="m 183.20979,-0.77444531 c -0.0937,0.38671875 -0.11719,0.46875 -0.90234,0.46875 -0.17579,0 -0.28125,0 -0.28125,0.1875 0,0.1171875 0.0937,0.1171875 0.28125,0.1171875 h 3.29296 c 2.07422,0 4.03125,-2.09765629 4.03125,-4.28906249 0,-1.3945313 -0.84375,-2.5195313 -2.33203,-2.5195313 h -3.35156 c -0.1875,0 -0.29297,0 -0.29297,0.1992188 0,0.1171875 0.082,0.1171875 0.28125,0.1171875 0.12891,0 0.31641,0.011719 0.4336,0.011719 0.15234,0.023437 0.21093,0.058594 0.21093,0.1640625 0,0.035156 0,0.070312 -0.0352,0.1875 z m 2.15625,-5.34374999 c 0.082,-0.3515625 0.10547,-0.375 0.53906,-0.375 h 1.06641 c 0.97265,0 1.79297,0.5273437 1.79297,1.8398437 0,0.4921875 -0.19922,2.1210938 -1.04297,3.2226563 -0.28125,0.3632812 -1.07813,1.12499999 -2.29688,1.12499999 h -1.125 c -0.14062,0 -0.16406,0 -0.22265,-0.0117188 -0.0937,-0.0117188 -0.12891,-0.0234375 -0.12891,-0.10546875 0,-0.0234375 0,-0.046875 0.0469,-0.22265625 z m 0,0"
         style="fill:#000000;fill-opacity:1;fill-rule:nonzero;stroke:none" />
    </g>
  </g>
</svg>
