<?xml version="1.0" encoding="UTF-8" standalone="no"?>
<!-- Created with Inkscape (http://www.inkscape.org/) -->

<svg
   version="1.1"
   id="svg1"
   width="403.02344"
   height="31.957031"
   viewBox="0 0 403.02344 31.957031"
   sodipodi:docname="Formulas.pdf"
   xmlns:inkscape="http://www.inkscape.org/namespaces/inkscape"
   xmlns:sodipodi="http://sodipodi.sourceforge.net/DTD/sodipodi-0.dtd"
   xmlns="http://www.w3.org/2000/svg"
   xmlns:svg="http://www.w3.org/2000/svg">
  <defs
     id="defs1" />
  <sodipodi:namedview
     id="namedview1"
     pagecolor="#ffffff"
     bordercolor="#000000"
     borderopacity="0.25"
     inkscape:showpageshadow="2"
     inkscape:pageopacity="0.0"
     inkscape:pagecheckerboard="0"
     inkscape:deskcolor="#d1d1d1" />
  <g
     id="g1"
     inkscape:groupmode="layer"
     inkscape:label="1"
     transform="translate(-326.29687,-109.94922)">
    <g
       id="g2"
       aria-label="T&#10;Q&#10;(n,j)&#10;+M&#10;(&#10;1−&#10;∑&#10;l∈B&#10;≥T&#10;Start&#10;+t&#10;AGV&#10;(m,i,3)(m,i,4)&#10;)&#10;,∀(m,i)∈D,∀(n,j)∈D"
       transform="matrix(1.3333333,0,0,1.3333333,325.984,125.224)">
      <path
         id="path2"
         d="m 4.2541875,-6.0478828 c 0.070312,-0.28125 0.1054687,-0.3398438 0.234375,-0.3632813 0.082031,-0.023437 0.4101562,-0.023437 0.6210937,-0.023437 1.0078125,0 1.453125,0.035156 1.453125,0.8203125 0,0.140625 -0.035156,0.5273438 -0.082031,0.796875 0,0.035156 -0.023437,0.1523438 -0.023437,0.1875 0,0.058594 0.023437,0.1289063 0.1171875,0.1289063 0.1054687,0 0.1289062,-0.082031 0.1523437,-0.234375 l 0.2695313,-1.734375 c 0.011719,-0.035156 0.011719,-0.140625 0.011719,-0.1640625 0,-0.1054688 -0.09375,-0.1054688 -0.2695312,-0.1054688 H 1.2190312 c -0.2460937,0 -0.25781245,0 -0.3164062,0.1992188 l -0.59765625,1.7460937 c -0.0117188,0.023437 -0.0703125,0.1640625 -0.0703125,0.1757813 0,0.070312 0.0585938,0.1171875 0.12890625,0.1171875 0.09375,0 0.10546875,-0.046875 0.1640625,-0.2109375 0.5390625,-1.546875 0.796875,-1.7226563 2.2734375,-1.7226563 h 0.3867187 c 0.28125,0 0.28125,0.035156 0.28125,0.1171875 0,0.058594 -0.035156,0.1757813 -0.046875,0.2109375 l -1.3242187,5.32031254 c -0.09375,0.36328125 -0.1289063,0.48046875 -1.1953125,0.48046875 -0.3515625,0 -0.41015625,0 -0.41015625,0.1875 0,0.1171875 0.10546875,0.1171875 0.1640625,0.1171875 0.26953125,0 0.55078125,-0.0234375 0.82031245,-0.0234375 0.28125,0 0.5625,-0.01171875 0.84375,-0.01171875 0.28125,0 0.5625,0.01171875 0.8320313,0.01171875 0.28125,0 0.5859375,0.0234375 0.8671875,0.0234375 0.09375,0 0.2109375,0 0.2109375,-0.19921875 0,-0.10546875 -0.082031,-0.10546875 -0.3398438,-0.10546875 -0.2460937,0 -0.375,0 -0.6328125,-0.0234375 -0.2929687,-0.0351563 -0.3632812,-0.0585938 -0.3632812,-0.22265625 0,-0.0117188 0,-0.0585938 0.035156,-0.2109375 z m 0,0"
         style="fill:#000000;fill-opacity:1;fill-rule:nonzero;stroke:none" />
      <path
         id="path3"
         d="m 10.453406,-4.3662422 c 0,0.4453125 0.08203,0.9257813 0.65625,0.9257813 0.84375,0 1.253906,-1.1953125 1.253906,-1.3476563 0,-0.046875 -0.04687,-0.09375 -0.105468,-0.09375 -0.07031,0 -0.08203,0.058594 -0.09375,0.082031 -0.164063,0.4921875 -0.632813,0.6328125 -0.867188,0.6328125 -0.28125,0 -0.421875,-0.1171875 -0.550781,-0.6796875 1.242187,-0.4335938 2.238281,-1.6757813 2.238281,-2.90625 0,-1.0898438 -0.785156,-1.9335938 -2.015625,-1.9335938 -1.6640623,0 -3.2812498,1.5585938 -3.2812498,3.1289063 0,1.125 0.8320313,1.9101562 2.0273438,1.9101562 0.140625,0 0.375,-0.011719 0.738281,-0.09375 z M 9.246375,-4.9638984 C 8.8830937,-5.0928047 8.3674687,-5.4560859 8.3674687,-6.3818672 c 0,-0.4453125 0.140625,-1.3710937 0.7734375,-2.1679687 0.4453125,-0.5390625 1.1249998,-0.9140625 1.7695308,-0.9140625 0.761719,0 1.40625,0.5039062 1.40625,1.5234375 0,0.703125 -0.351562,2.1914062 -1.617187,2.8359375 -0.117188,-0.4453125 -0.292969,-0.7382813 -0.7148438,-0.7382813 -0.3867187,0 -0.7734375,0.328125 -0.7734375,0.703125 0,0.1171875 0.011719,0.1289063 0.035156,0.1757813 z m 1.207031,-0.035156 c -0.152344,0.058594 -0.410156,0.1289063 -0.691406,0.1289063 -0.1054688,0 -0.3515625,0 -0.3515625,-0.2695313 0,-0.2695312 0.28125,-0.5039062 0.5742187,-0.5039062 0.2578128,0 0.4453128,0.1054687 0.4687498,0.6445312 z m 0,0"
         style="fill:#000000;fill-opacity:1;fill-rule:nonzero;stroke:none" />
      <path
         id="path4"
         d="m 8.2942266,-1.8349922 c -1.3242188,0.92578126 -1.6757813,2.41406251 -1.6757813,3.4804688 0,0.984375 0.2929688,2.5078125 1.6757813,3.4804687 0.058594,0 0.140625,0 0.140625,-0.082031 0,-0.046875 -0.023437,-0.058594 -0.070312,-0.1054688 -0.9257813,-0.8320312 -1.265625,-2.015625 -1.265625,-3.2929687 0,-1.87500004 0.7148437,-2.8007813 1.2890625,-3.3164063 0.023437,-0.023437 0.046875,-0.046875 0.046875,-0.082031 0,-0.082031 -0.082031,-0.082031 -0.1406255,-0.082032 z m 0,0"
         style="fill:#000000;fill-opacity:1;fill-rule:nonzero;stroke:none" />
      <path
         id="path5"
         d="m 9.7912969,2.9579766 c -0.035156,0.082031 -0.070312,0.2578125 -0.070312,0.28125 0,0.1523437 0.1171875,0.2226562 0.234375,0.2226562 0.1289071,0 0.2343751,-0.09375 0.2695321,-0.1523437 0.03516,-0.058594 0.09375,-0.2929688 0.128906,-0.4335938 0.03516,-0.1289062 0.105469,-0.4570312 0.152344,-0.6328125 0.03516,-0.1523437 0.08203,-0.3046875 0.117187,-0.4570312 0.08203,-0.2929688 0.09375,-0.3515625 0.292969,-0.6328125 0.199219,-0.28125004 0.527344,-0.64453129 1.042969,-0.64453129 0.410156,0 0.410156,0.36328125 0.410156,0.49218749 0,0.421875 -0.292969,1.1953125 -0.410156,1.4882813 -0.07031,0.1875 -0.105469,0.2578125 -0.105469,0.375 0,0.3632812 0.304687,0.5976562 0.667969,0.5976562 0.691406,0 1.007812,-0.9609375 1.007812,-1.0664062 0,-0.09375 -0.09375,-0.09375 -0.117187,-0.09375 -0.09375,0 -0.105469,0.046875 -0.128907,0.1171875 -0.164062,0.5625 -0.46875,0.84375 -0.738281,0.84375 -0.152344,0 -0.175782,-0.09375 -0.175782,-0.2460938 0,-0.1523437 0.03516,-0.2460937 0.152344,-0.5625 0.09375,-0.2109375 0.375,-0.9492187 0.375,-1.3476562 0,-0.66796879 -0.539063,-0.78515629 -0.902344,-0.78515629 -0.585938,0 -0.972656,0.3515625 -1.183593,0.6328125 -0.04687,-0.48046875 -0.457032,-0.6328125 -0.75,-0.6328125 -0.2929691,0 -0.4570316,0.2109375 -0.5507816,0.375 -0.1523438,0.2578125 -0.2460938,0.65624999 -0.2460938,0.69140629 0,0.082031 0.09375,0.082031 0.1171875,0.082031 0.09375,0 0.1054688,-0.011719 0.1523438,-0.1992187 0.1054687,-0.42187504 0.234375,-0.76171879 0.5156251,-0.76171879 0.175782,0 0.222657,0.15234375 0.222657,0.33984375 0,0.140625 -0.05859,0.39843754 -0.105469,0.58593754 -0.04687,0.1875 -0.117188,0.46875 -0.152344,0.6210937 z m 5.5458981,0.3164062 c 0,0.3867188 -0.07031,0.8320313 -0.550781,1.2773438 -0.02344,0.035156 -0.04687,0.058594 -0.04687,0.09375 0,0.046875 0.05859,0.09375 0.09375,0.09375 0.105469,0 0.691406,-0.5625 0.691406,-1.3945313 0,-0.421875 -0.164062,-0.75 -0.480468,-0.75 -0.234375,0 -0.398438,0.1757813 -0.398438,0.3867188 0,0.234375 0.152344,0.4101562 0.398438,0.4101562 0.164062,0 0.28125,-0.1171875 0.292968,-0.1171875 z m 3.946289,-4.24218749 c 0,-0.11718751 -0.09375,-0.25781251 -0.28125,-0.25781251 -0.199218,0 -0.386718,0.1875 -0.386718,0.37500001 0,0.1171875 0.08203,0.26953125 0.28125,0.26953125 0.1875,0 0.386718,-0.1875 0.386718,-0.38671875 z M 17.806922,3.7314141 c -0.117188,0.4804687 -0.492188,0.890625 -0.902344,0.890625 -0.08203,0 -0.175781,-0.011719 -0.246094,-0.046875 0.175782,-0.082031 0.234375,-0.2460938 0.234375,-0.3515625 0,-0.1640625 -0.128906,-0.2578125 -0.269531,-0.2578125 -0.222656,0 -0.398437,0.1875 -0.398437,0.4101562 0,0.2695313 0.269531,0.4335938 0.691406,0.4335938 0.421875,0 1.230469,-0.2460938 1.453125,-1.1015625 l 0.621094,-2.4960938 c 0.02344,-0.070312 0.03516,-0.140625 0.03516,-0.23437499 0,-0.38671875 -0.328125,-0.65625 -0.738281,-0.65625 -0.785157,0 -1.230469,0.96093749 -1.230469,1.06640629 0,0.082031 0.105469,0.082031 0.128906,0.082031 0.08203,0 0.08203,-0.011719 0.128906,-0.1171875 0.175782,-0.41015624 0.539063,-0.84374999 0.949219,-0.84374999 0.175781,0 0.234375,0.1171875 0.234375,0.33984375 0,0.0820313 -0.01172,0.17578124 -0.02344,0.21093754 z m 0,0"
         style="fill:#000000;fill-opacity:1;fill-rule:nonzero;stroke:none" />
      <path
         id="path6"
         d="m 20.557898,-1.8349922 c -0.05859,0 -0.140625,0 -0.140625,0.082031 0,0.035156 0.02344,0.058594 0.07031,0.1054687 0.597656,0.5507813 1.265625,1.48828126 1.265625,3.2929688 0,1.453125 -0.457031,2.5546875 -1.207031,3.234375 -0.117188,0.1171875 -0.128907,0.1289062 -0.128907,0.1640625 0,0.035156 0.02344,0.082031 0.09375,0.082031 0.08203,0 0.75,-0.4570312 1.207032,-1.3242187 0.304687,-0.5859375 0.503906,-1.3359375 0.503906,-2.15625 0,-0.98437504 -0.292969,-2.50781254 -1.664063,-3.4804688 z m 0,0"
         style="fill:#000000;fill-opacity:1;fill-rule:nonzero;stroke:none" />
      <path
         id="path7"
         d="m 29.830359,-2.2978828 h 2.777344 c 0.140625,0 0.328125,0 0.328125,-0.1992188 0,-0.1992187 -0.1875,-0.1992187 -0.328125,-0.1992187 h -2.777344 v -2.7890625 c 0,-0.1289063 0,-0.328125 -0.199218,-0.328125 -0.199219,0 -0.199219,0.1992187 -0.199219,0.328125 v 2.7890625 h -2.789063 c -0.140625,0 -0.328125,0 -0.328125,0.1992187 0,0.1992188 0.1875,0.1992188 0.328125,0.1992188 h 2.789063 v 2.80078124 c 0,0.12890625 0,0.328125 0.199219,0.328125 0.199218,0 0.199218,-0.19921875 0.199218,-0.328125 z m 0,0"
         style="fill:#000000;fill-opacity:1;fill-rule:nonzero;stroke:none" />
      <path
         id="path8"
         d="m 44.935828,-6.0361641 c 0.09375,-0.3632812 0.105469,-0.4570312 0.855469,-0.4570312 0.234375,0 0.316406,0 0.316406,-0.1992188 0,-0.1171875 -0.09375,-0.1171875 -0.269531,-0.1171875 h -1.3125 c -0.257813,0 -0.269531,0 -0.386719,0.1992188 l -3.632812,5.67187499 -0.773438,-5.63671879 c -0.03516,-0.234375 -0.05859,-0.234375 -0.316406,-0.234375 h -1.359375 c -0.1875,0 -0.304688,0 -0.304688,0.1992188 0,0.1171875 0.09375,0.1171875 0.292969,0.1171875 0.128906,0 0.304688,0.011719 0.421875,0.011719 0.164063,0.023437 0.222656,0.058594 0.222656,0.1640625 0,0.035156 -0.01172,0.070312 -0.03516,0.1875 l -1.265625,5.0742188 c -0.105469,0.39843749 -0.269531,0.71484374 -1.078125,0.74999999 -0.04687,0 -0.175781,0 -0.175781,0.1875 0,0.08203125 0.05859,0.1171875 0.140625,0.1171875 0.316406,0 0.667969,-0.03515625 0.996094,-0.03515625 0.339843,0 0.691406,0.03515625 1.019531,0.03515625 0.04687,0 0.175781,0 0.175781,-0.19921875 0,-0.10546875 -0.105469,-0.10546875 -0.175781,-0.10546875 -0.5625,-0.0117188 -0.679688,-0.2109375 -0.679688,-0.4453125 0,-0.0703125 0.01172,-0.1171875 0.04687,-0.22265625 l 1.347657,-5.43750004 h 0.01172 l 0.855469,6.17578129 c 0.02344,0.12890625 0.03516,0.234375 0.152344,0.234375 0.105469,0 0.175781,-0.10546875 0.222656,-0.17578125 l 4.019531,-6.30468754 h 0.01172 l -1.429687,5.70703129 c -0.09375,0.38671875 -0.117188,0.46875 -0.902344,0.46875 -0.164063,0 -0.28125,0 -0.28125,0.1875 0,0.1171875 0.128906,0.1171875 0.152344,0.1171875 0.28125,0 0.960937,-0.03515625 1.230468,-0.03515625 0.410157,0 0.84375,0.03515625 1.253907,0.03515625 0.05859,0 0.1875,0 0.1875,-0.19921875 0,-0.10546875 -0.09375,-0.10546875 -0.28125,-0.10546875 -0.363282,0 -0.644532,0 -0.644532,-0.1875 0,-0.0351563 0,-0.0585938 0.04687,-0.234375 z m 0,0"
         style="fill:#000000;fill-opacity:1;fill-rule:nonzero;stroke:none" />
      <path
         id="path9"
         d="m 51.597937,6.3564141 c 0.01172,0.011719 0.105469,0.1054687 0.117188,0.1054687 h 0.222656 c 0.02344,0 0.105469,-0.011719 0.105469,-0.09375 0,-0.046875 -0.02344,-0.058594 -0.03516,-0.09375 C 51.644812,5.9111016 51.10575,5.3720391 50.484656,4.2704766 49.41825,2.3603203 49.019812,-0.10061719 49.019812,-2.4912422 c 0,-4.4179687 1.253907,-7.0195312 2.988282,-8.7890628 0.03516,-0.02344 0.03516,-0.05859 0.03516,-0.08203 0,-0.09375 -0.07031,-0.09375 -0.1875,-0.09375 -0.128906,0 -0.152344,0 -0.246094,0.08203 -0.9375,0.820313 -2.003906,2.2031253 -2.695312,4.3007816 -0.421875,1.3125 -0.65625,2.9179687 -0.65625,4.5703125 0,2.36718746 0.433593,5.0273437 1.992187,7.3476562 0.269531,0.3867188 0.632813,0.796875 0.632813,0.796875 0.105468,0.1289063 0.246093,0.28125 0.328125,0.3515625 z m 0,0"
         style="fill:#000000;fill-opacity:1;fill-rule:nonzero;stroke:none" />
      <path
         id="path10"
         d="m 55.345008,-6.3760078 c 0,-0.234375 0,-0.2578125 -0.234375,-0.2578125 -0.609375,0.6328125 -1.488281,0.6328125 -1.804688,0.6328125 v 0.3164062 c 0.199219,0 0.785157,0 1.300782,-0.2578125 v 5.15625004 c 0,0.3515625 -0.03516,0.48046875 -0.925782,0.48046875 h -0.316406 v 0.3046875 c 0.351563,-0.03515625 1.207031,-0.03515625 1.605469,-0.03515625 0.398437,0 1.265625,0 1.617187,0.03515625 v -0.3046875 h -0.316406 c -0.902344,0 -0.925781,-0.1171875 -0.925781,-0.48046875 z m 0,0"
         style="fill:#000000;fill-opacity:1;fill-rule:nonzero;stroke:none" />
      <path
         id="path11"
         d="m 66.173133,-2.2978828 c 0.175781,0 0.351562,0 0.351562,-0.1992188 0,-0.1992187 -0.175781,-0.1992187 -0.351562,-0.1992187 h -5.390625 c -0.164063,0 -0.339844,0 -0.339844,0.1992187 0,0.1992188 0.175781,0.1992188 0.339844,0.1992188 z m 0,0"
         style="fill:#000000;fill-opacity:1;fill-rule:nonzero;stroke:none" />
      <path
         id="path12"
         d="m 82.180945,4.4814141 1.207032,-3.1875 h -0.246094 c -0.386719,1.03125 -1.453125,1.7109375 -2.589844,2.015625 -0.210937,0.046875 -1.183594,0.3046875 -3.105469,0.3046875 h -6 l 5.0625,-5.9414063 c 0.07031,-0.082031 0.09375,-0.1171875 0.09375,-0.1640625 0,-0.023437 0,-0.046875 -0.07031,-0.1523437 l -4.640625,-6.3398438 h 5.460937 c 1.335938,0 2.238282,0.140625 2.332032,0.1523438 0.539062,0.082031 1.40625,0.2578125 2.191406,0.75 0.246094,0.1640625 0.925781,0.609375 1.265625,1.4179687 h 0.246094 L 82.180945,-9.4638984 H 70.403602 c -0.222657,0 -0.234375,0.011719 -0.269532,0.070312 0,0.035156 0,0.2226562 0,0.328125 l 5.261719,7.2070312 -5.15625,6.046875 c -0.105469,0.1289063 -0.105469,0.1757813 -0.105469,0.1875 0,0.1054688 0.09375,0.1054688 0.269532,0.1054688 z m 0,0"
         style="fill:#000000;fill-opacity:1;fill-rule:nonzero;stroke:none" />
      <path
         id="path13"
         d="m 71.593055,7.3554375 c 0,-0.011719 0.02344,-0.1054687 0.02344,-0.1171875 0,-0.035156 -0.02344,-0.09375 -0.105469,-0.09375 -0.140625,0 -0.726562,0.058594 -0.902343,0.070312 -0.04687,0.011719 -0.140625,0.011719 -0.140625,0.1640625 0,0.09375 0.09375,0.09375 0.175781,0.09375 0.328125,0 0.328125,0.046875 0.328125,0.1054688 0,0.046875 -0.01172,0.09375 -0.02344,0.1523437 l -0.867188,3.445313 c -0.02344,0.07031 -0.02344,0.140625 -0.02344,0.210938 0,0.457031 0.398438,0.667968 0.726563,0.667968 0.175781,0 0.375,-0.05859 0.5625,-0.375 0.140625,-0.257812 0.246094,-0.667968 0.246094,-0.691406 0,-0.09375 -0.09375,-0.09375 -0.117188,-0.09375 -0.09375,0 -0.105469,0.04687 -0.140625,0.164063 -0.08203,0.351562 -0.222656,0.796875 -0.515625,0.796875 -0.1875,0 -0.234375,-0.175782 -0.234375,-0.339844 0,-0.07031 0.01172,-0.210938 0.03516,-0.28125 z m 0,0"
         style="fill:#000000;fill-opacity:1;fill-rule:nonzero;stroke:none" />
      <path
         id="path14"
         d="m 76.50907,10.414031 c 0.117188,0 0.28125,0 0.28125,-0.175781 0,-0.175781 -0.152343,-0.175781 -0.28125,-0.175781 h -3.222656 c 0.105469,-1.0078127 0.949219,-1.7578127 2.039063,-1.7578127 h 1.183593 c 0.117188,0 0.28125,0 0.28125,-0.1640625 0,-0.1757813 -0.152343,-0.1757813 -0.28125,-0.1757813 h -1.21875 c -1.289062,0 -2.355468,1.0195313 -2.355468,2.2734375 0,1.277344 1.078125,2.273438 2.355468,2.273438 h 1.21875 c 0.117188,0 0.28125,0 0.28125,-0.164063 0,-0.175781 -0.152343,-0.175781 -0.28125,-0.175781 h -1.183593 c -1.089844,0 -1.933594,-0.75 -2.039063,-1.757813 z m 0,0"
         style="fill:#000000;fill-opacity:1;fill-rule:nonzero;stroke:none" />
      <path
         id="path15"
         d="m 78.876258,11.445281 c -0.05859,0.234375 -0.07031,0.292969 -0.609375,0.292969 -0.117188,0 -0.210938,0 -0.210938,0.140625 0,0.105469 0.08203,0.105469 0.210938,0.105469 h 2.695312 c 1.171875,0 2.074219,-0.796875 2.074219,-1.488281 0,-0.5039067 -0.457031,-0.9257817 -1.195312,-0.9960942 0.84375,-0.1640625 1.546875,-0.6914063 1.546875,-1.2890625 0,-0.5273438 -0.539063,-0.984375 -1.441407,-0.984375 h -2.542968 c -0.128907,0 -0.222657,0 -0.222657,0.1523437 0,0.09375 0.08203,0.09375 0.222657,0.09375 0.01172,0 0.140625,0 0.269531,0.011719 0.140625,0.011719 0.164062,0.035156 0.164062,0.1054687 0,0.011719 0,0.046875 -0.03516,0.1523438 z M 79.989539,9.4062188 80.423133,7.707 c 0.04687,-0.2109375 0.05859,-0.234375 0.351562,-0.234375 h 1.054688 c 0.714844,0 0.878906,0.46875 0.878906,0.7382813 0,0.5625 -0.632812,1.1953125 -1.570312,1.1953125 z M 79.661414,11.73825 c -0.222656,0 -0.222656,-0.01172 -0.222656,-0.07031 0,-0.01172 0,-0.04687 0.02344,-0.152344 l 0.480469,-1.9101565 h 1.476563 c 0.65625,0 0.914062,0.4335935 0.914062,0.8437505 0,0.679687 -0.714844,1.289062 -1.558594,1.289062 z m 0,0"
         style="fill:#000000;fill-opacity:1;fill-rule:nonzero;stroke:none" />
      <path
         id="path16"
         d="m 93.445594,-3.2236641 c 0.140625,-0.070312 0.199218,-0.1289062 0.199218,-0.2226562 0,-0.1054688 -0.03516,-0.1640625 -0.199218,-0.234375 l -5.484375,-2.5898438 c -0.140625,-0.070312 -0.1875,-0.070312 -0.199219,-0.070312 -0.128906,0 -0.199219,0.09375 -0.199219,0.1992188 0,0.1289062 0.07031,0.1757812 0.1875,0.2226562 l 5.226563,2.4609375 -5.214844,2.46093754 c -0.199219,0.09375 -0.199219,0.1640625 -0.199219,0.234375 0,0.10546875 0.08203,0.19921875 0.199219,0.19921875 0.02344,0 0.04687,0 0.175781,-0.0703125 z M 93.29325,1.3583672 c 0.175781,0 0.351562,0 0.351562,-0.1992188 0,-0.19921871 -0.210937,-0.19921871 -0.363281,-0.19921871 h -5.367187 c -0.152344,0 -0.351563,0 -0.351563,0.19921871 0,0.1992188 0.175781,0.1992188 0.339844,0.1992188 z m 0,0"
         style="fill:#000000;fill-opacity:1;fill-rule:nonzero;stroke:none" />
      <path
         id="path17"
         d="m 101.50223,-6.0478828 c 0.0703,-0.28125 0.10547,-0.3398438 0.23438,-0.3632813 0.082,-0.023437 0.41016,-0.023437 0.62109,-0.023437 1.00782,0 1.45313,0.035156 1.45313,0.8203125 0,0.140625 -0.0352,0.5273438 -0.082,0.796875 0,0.035156 -0.0234,0.1523438 -0.0234,0.1875 0,0.058594 0.0234,0.1289063 0.11719,0.1289063 0.10547,0 0.1289,-0.082031 0.15234,-0.234375 l 0.26953,-1.734375 c 0.0117,-0.035156 0.0117,-0.140625 0.0117,-0.1640625 0,-0.1054688 -0.0937,-0.1054688 -0.26953,-0.1054688 h -5.519532 c -0.246094,0 -0.257812,0 -0.316406,0.1992188 l -0.597656,1.7460937 c -0.01172,0.023437 -0.07031,0.1640625 -0.07031,0.1757813 0,0.070312 0.05859,0.1171875 0.128906,0.1171875 0.09375,0 0.105469,-0.046875 0.164063,-0.2109375 0.539062,-1.546875 0.796875,-1.7226563 2.273435,-1.7226563 h 0.38672 c 0.28125,0 0.28125,0.035156 0.28125,0.1171875 0,0.058594 -0.0352,0.1757813 -0.0469,0.2109375 l -1.324213,5.32031254 c -0.09375,0.36328125 -0.128906,0.48046875 -1.195312,0.48046875 -0.351563,0 -0.410156,0 -0.410156,0.1875 0,0.1171875 0.105468,0.1171875 0.164062,0.1171875 0.269531,0 0.550781,-0.0234375 0.820313,-0.0234375 0.28125,0 0.5625,-0.01171875 0.84375,-0.01171875 0.28125,0 0.562496,0.01171875 0.832026,0.01171875 0.28125,0 0.58594,0.0234375 0.86719,0.0234375 0.0937,0 0.21094,0 0.21094,-0.19921875 0,-0.10546875 -0.082,-0.10546875 -0.33985,-0.10546875 -0.24609,0 -0.375,0 -0.63281,-0.0234375 -0.29297,-0.0351563 -0.36328,-0.0585938 -0.36328,-0.22265625 0,-0.0117188 0,-0.0585938 0.0352,-0.2109375 z m 0,0"
         style="fill:#000000;fill-opacity:1;fill-rule:nonzero;stroke:none" />
      <path
         id="path18"
         d="m 108.35477,-5.4033516 c 0,-0.6328125 -0.43359,-1.21875 -1.13672,-1.3828125 l -1.03125,-0.234375 c -0.60937,-0.140625 -0.79687,-0.5859375 -0.79687,-0.8671875 0,-0.46875 0.42187,-0.9023437 1.05469,-0.9023437 0.9375,0 1.34765,0.6210937 1.46484,1.359375 0.0117,0.1054687 0.0117,0.140625 0.11719,0.140625 0.11719,0 0.11719,-0.046875 0.11719,-0.1875 v -1.359375 c 0,-0.1171875 0,-0.1757813 -0.0937,-0.1757813 -0.0586,0 -0.0703,0.011719 -0.11719,0.09375 l -0.25781,0.3867188 c -0.45704,-0.46875 -1.03125,-0.4804688 -1.23047,-0.4804688 -0.87891,0 -1.5,0.6210938 -1.5,1.3242188 0,0.3984375 0.17578,0.6914062 0.42187,0.9257812 0.28125,0.28125 0.50391,0.328125 1.26563,0.4921875 0.63281,0.140625 0.77343,0.1640625 0.97265,0.3632813 0.16407,0.1640625 0.30469,0.3867187 0.30469,0.703125 0,0.4804687 -0.39844,0.9726562 -1.07812,0.9726562 -0.66797,0 -1.60547,-0.2578125 -1.65235,-1.3125 -0.0117,-0.1054687 -0.0117,-0.1523437 -0.11719,-0.1523437 -0.11718,0 -0.11718,0.046875 -0.11718,0.1875 v 1.3476562 c 0,0.1289063 0,0.1875 0.0937,0.1875 0.0586,0 0.0703,-0.023437 0.11718,-0.082031 0.0586,-0.082031 0.19922,-0.3046875 0.25782,-0.3984375 0.43359,0.3867187 0.97265,0.4804687 1.41797,0.4804687 0.92578,0 1.52343,-0.6914062 1.52343,-1.4296877 z m 3.11133,0.4101563 v -0.3867188 h -0.23437 v 0.375 c 0,0.4804688 -0.22266,0.7382813 -0.49219,0.7382813 -0.48047,0 -0.48047,-0.5859375 -0.48047,-0.7148438 v -1.8867187 h 1.07813 v -0.2460938 h -1.07813 v -1.2890625 h -0.24609 c 0,0.6328125 -0.29297,1.3242188 -0.96094,1.3359375 v 0.1992188 h 0.65625 v 1.8867187 c 0,0.7734375 0.58594,0.9375 0.97266,0.9375 0.46875,0 0.78515,-0.3984375 0.78515,-0.9492187 z m 4.29492,0.2460937 v -0.375 h -0.24609 v 0.375 c 0,0.070312 0,0.3984375 -0.25781,0.3984375 -0.25782,0 -0.25782,-0.328125 -0.25782,-0.4101562 v -1.21875 c 0,-0.375 0,-0.6445313 -0.3164,-0.9023438 -0.28125,-0.234375 -0.6211,-0.3398437 -1.03125,-0.3398437 -0.66797,0 -1.125,0.2460937 -1.125,0.6679687 0,0.2226563 0.15234,0.3398438 0.32812,0.3398438 0.1875,0 0.32813,-0.1289063 0.32813,-0.3164063 0,-0.1289062 -0.0586,-0.2695312 -0.2461,-0.328125 0.25782,-0.1757812 0.65625,-0.1757812 0.70313,-0.1757812 0.38672,0 0.80859,0.2578125 0.80859,0.84375 v 0.2226562 c -0.375,0.011719 -0.84375,0.035156 -1.34765,0.2226563 -0.63282,0.2226562 -0.82032,0.609375 -0.82032,0.9257812 0,0.5976563 0.72657,0.7734375 1.21875,0.7734375 0.5625,0 0.87891,-0.3164062 1.03125,-0.5859375 0.0234,0.28125 0.21094,0.5507813 0.53907,0.5507813 0,0 0.6914,0 0.6914,-0.6679688 z m -1.3125,-0.3515625 c 0,0.6679688 -0.58593,0.8554688 -0.89062,0.8554688 -0.36328,0 -0.69141,-0.234375 -0.69141,-0.5742188 0,-0.3867187 0.32813,-0.9257812 1.58203,-0.9726562 z m 4.31836,-1.640625 c 0,-0.2460937 -0.22265,-0.4453125 -0.55078,-0.4453125 -0.35156,0 -0.72656,0.2109375 -0.9375,0.7382813 h -0.0117 v -0.7382813 l -0.99609,0.070312 v 0.2578125 c 0.46875,0 0.52734,0.046875 0.52734,0.3867188 v 1.8046875 c 0,0.3046875 -0.0703,0.3046875 -0.52734,0.3046875 v 0.2460937 c 0.0352,0 0.51562,-0.023437 0.79687,-0.023437 l 0.90235,0.023437 v -0.2460937 h -0.14063 c -0.51562,0 -0.51562,-0.082031 -0.51562,-0.3164063 v -1.03125 c 0,-0.5859375 0.28125,-1.2890625 0.9375,-1.2890625 -0.0586,0.046875 -0.11719,0.140625 -0.11719,0.2578125 0,0.2226563 0.17578,0.3164063 0.31641,0.3164063 0.16406,0 0.3164,-0.1054688 0.3164,-0.3164063 z m 2.88867,1.7460938 v -0.3867188 h -0.23437 v 0.375 c 0,0.4804688 -0.22266,0.7382813 -0.49219,0.7382813 -0.48047,0 -0.48047,-0.5859375 -0.48047,-0.7148438 v -1.8867187 h 1.07813 v -0.2460938 h -1.07813 v -1.2890625 h -0.24609 c 0,0.6328125 -0.29297,1.3242188 -0.96094,1.3359375 v 0.1992188 h 0.65625 v 1.8867187 c 0,0.7734375 0.58594,0.9375 0.97266,0.9375 0.46875,0 0.78515,-0.3984375 0.78515,-0.9492187 z m 0,0"
         style="fill:#000000;fill-opacity:1;fill-rule:nonzero;stroke:none" />
      <path
         id="path19"
         d="m 128.94169,-2.2978828 h 2.77734 c 0.14063,0 0.32813,0 0.32813,-0.1992188 0,-0.1992187 -0.1875,-0.1992187 -0.32813,-0.1992187 h -2.77734 v -2.7890625 c 0,-0.1289063 0,-0.328125 -0.19922,-0.328125 -0.19922,0 -0.19922,0.1992187 -0.19922,0.328125 v 2.7890625 h -2.78906 c -0.14063,0 -0.32813,0 -0.32813,0.1992187 0,0.1992188 0.1875,0.1992188 0.32813,0.1992188 h 2.78906 v 2.80078124 c 0,0.12890625 0,0.328125 0.19922,0.328125 0.19922,0 0.19922,-0.19921875 0.19922,-0.328125 z m 0,0"
         style="fill:#000000;fill-opacity:1;fill-rule:nonzero;stroke:none" />
      <path
         id="path20"
         d="m 136.87821,-3.9853828 h 0.9375 c 0.19922,0 0.30469,0 0.30469,-0.1992188 0,-0.1054687 -0.10547,-0.1054687 -0.28125,-0.1054687 h -0.87891 c 0.36328,-1.4179688 0.41016,-1.6171875 0.41016,-1.6757813 0,-0.1757812 -0.11719,-0.2695312 -0.29297,-0.2695312 -0.0234,0 -0.30469,0.011719 -0.39844,0.3515625 l -0.38672,1.59375 h -0.9375 c -0.19922,0 -0.29297,0 -0.29297,0.1875 0,0.1171875 0.0703,0.1171875 0.26954,0.1171875 h 0.8789 c -0.71484,2.8242187 -0.75,2.99999999 -0.75,3.17578124 0,0.5390625 0.375,0.9140625 0.91406,0.9140625 1.00782,0 1.58204,-1.45312504 1.58204,-1.53515624 0,-0.09375 -0.082,-0.09375 -0.11719,-0.09375 -0.0937,0 -0.10547,0.023437 -0.15235,0.140625 -0.43359,1.03124999 -0.96093,1.27734374 -1.30078,1.27734374 -0.19922,0 -0.30468,-0.12890625 -0.30468,-0.45703125 0,-0.24609375 0.0234,-0.31640625 0.0586,-0.48046879 z m 0,0"
         style="fill:#000000;fill-opacity:1;fill-rule:nonzero;stroke:none" />
      <path
         id="path21"
         d="m 143.97977,-4.1142891 v -0.2460937 h -0.14062 c -0.46875,0 -0.51563,-0.070312 -0.58594,-0.2695313 l -1.69922,-4.3007812 c -0.0351,-0.1054688 -0.0586,-0.1523438 -0.19922,-0.1523438 -0.1289,0 -0.15234,0.046875 -0.1875,0.1523438 l -1.61718,4.0898437 c -0.0703,0.1640625 -0.1875,0.4804688 -0.8086,0.4804688 v 0.2460937 c 0.23438,-0.023437 0.48047,-0.023437 0.71485,-0.023437 0.28125,0 0.79687,0.023437 0.83203,0.023437 v -0.2460937 c -0.30469,0 -0.49219,-0.140625 -0.49219,-0.3398438 0,-0.058594 0,-0.070312 0.0352,-0.140625 l 0.32812,-0.8554687 h 1.98047 l 0.41016,1.0195312 c 0.0117,0.035156 0.0351,0.082031 0.0351,0.1171875 0,0.1992188 -0.38672,0.1992188 -0.57422,0.1992188 v 0.2460937 l 1.04297,-0.023437 c 0.32813,0 0.85547,0.011719 0.92578,0.023437 z m -1.93359,-1.828125 h -1.79297 l 0.90234,-2.2734375 z m 7.77246,0.1523438 v -0.2460938 c -0.0469,0 -0.5625,0.023437 -0.90234,0.023437 -0.36328,0 -0.89063,0 -1.25391,-0.023437 v 0.2460938 h 0.25781 c 0.70313,0 0.70313,0.09375 0.70313,0.328125 v 0.4453125 c 0,0.1523437 0,0.421875 -0.39844,0.6210937 -0.33984,0.1640625 -0.73828,0.1640625 -0.82031,0.1640625 -0.79688,0 -2.08594,-0.4453125 -2.08594,-2.2617187 0,-1.8632813 1.32422,-2.2734375 2.01563,-2.2734375 0.67968,0 1.51171,0.4570312 1.69921,1.6640625 0.0117,0.082031 0.0703,0.082031 0.12891,0.082031 0.11719,0 0.11719,-0.046875 0.11719,-0.1875 v -1.6289062 c 0,-0.1171875 0,-0.1757813 -0.0937,-0.1757813 -0.0234,0 -0.0586,0 -0.11719,0.082031 l -0.375,0.5273437 c -0.33984,-0.3515625 -0.83203,-0.609375 -1.44141,-0.609375 -1.45312,0 -2.67187,1.125 -2.67187,2.5195313 0,1.3710937 1.18359,2.5195312 2.68359,2.5195312 0.38672,0 1.16016,-0.070312 1.48828,-0.5625 0.11719,0.1875 0.375,0.421875 0.44532,0.421875 0.082,0 0.082,-0.082031 0.082,-0.1757812 v -1.1953125 c 0,-0.3046875 0.0703,-0.3046875 0.53906,-0.3046875 z m 6.09375,-2.8359375 v -0.2460938 c -0.21094,0.011719 -0.48047,0.023437 -0.67969,0.023437 -0.28125,0 -0.79687,-0.023437 -0.84375,-0.023437 v 0.2460938 c 0.25782,0 0.48047,0.1171875 0.48047,0.328125 0,0.046875 -0.0117,0.09375 -0.0234,0.140625 l -1.45312,3.375 -1.5,-3.5390625 c -0.0469,-0.082031 -0.0469,-0.09375 -0.0469,-0.1171875 0,-0.1875 0.36329,-0.1875 0.55079,-0.1875 v -0.2460938 l -1.03125,0.023437 c -0.35157,0 -0.87891,-0.023437 -0.90235,-0.023437 v 0.2460938 h 0.12891 c 0.375,0 0.49219,0.035156 0.58594,0.2460937 l 1.80468,4.2421875 c 0.0469,0.1171875 0.0703,0.1640625 0.19922,0.1640625 0.0703,0 0.14063,0 0.21094,-0.1523437 l 1.72266,-4.0429688 c 0.0937,-0.2109375 0.25781,-0.4453125 0.79687,-0.4570312 z m 0,0"
         style="fill:#000000;fill-opacity:1;fill-rule:nonzero;stroke:none" />
      <path
         id="path22"
         d="m 140.89774,-2.3769844 c -1.32422,0.9257813 -1.67578,2.41406253 -1.67578,3.4804688 0,0.984375 0.29297,2.5078125 1.67578,3.4804687 0.0586,0 0.14063,0 0.14063,-0.082031 0,-0.046875 -0.0234,-0.058594 -0.0703,-0.1054688 -0.92578,-0.8320312 -1.26562,-2.015625 -1.26562,-3.2929687 0,-1.87500002 0.71484,-2.8007813 1.28906,-3.3164063 0.0234,-0.023437 0.0469,-0.046875 0.0469,-0.082031 0,-0.082031 -0.082,-0.082031 -0.14063,-0.082031 z m 0,0"
         style="fill:#000000;fill-opacity:1;fill-rule:nonzero;stroke:none" />
      <path
         id="path23"
         d="m 144.56278,2.2870781 c -0.0352,0.140625 -0.0937,0.375 -0.0937,0.4101563 0,0.1523437 0.12891,0.2226562 0.23438,0.2226562 0.1289,0 0.23437,-0.09375 0.26953,-0.1523437 0.0352,-0.058594 0.0937,-0.2929688 0.1289,-0.4335938 0.0352,-0.1289062 0.11719,-0.4570312 0.15235,-0.6328125 0.0469,-0.1523437 0.082,-0.3046875 0.11718,-0.4570312 0.082,-0.30468752 0.082,-0.31640627 0.22266,-0.53906252 0.22266,-0.33984375 0.5625,-0.73828125 1.11328,-0.73828125 0.38672,0 0.41016,0.328125 0.41016,0.4921875 0,0.421875 -0.30469,1.19531247 -0.41016,1.48828127 -0.082,0.1875 -0.10547,0.2578125 -0.10547,0.375 0,0.3632812 0.30469,0.5976562 0.65625,0.5976562 0.70313,0 1.00782,-0.9609375 1.00782,-1.0664062 0,-0.09375 -0.0937,-0.09375 -0.10547,-0.09375 -0.10547,0 -0.10547,0.046875 -0.14063,0.1171875 -0.15234,0.5625 -0.45703,0.84375 -0.73828,0.84375 -0.14062,0 -0.17578,-0.09375 -0.17578,-0.2460938 0,-0.1523437 0.0352,-0.2460937 0.16406,-0.5625 0.082,-0.2109375 0.375,-0.94921872 0.375,-1.34765622 0,-0.10546875 0,-0.3984375 -0.25781,-0.59765625 -0.12891,-0.09375 -0.32813,-0.1875 -0.65625,-0.1875 -0.62109,0 -1.00781,0.41015625 -1.23047,0.703125 -0.0586,-0.59765625 -0.55078,-0.703125 -0.90234,-0.703125 -0.58594,0 -0.97266,0.3515625 -1.1836,0.6328125 -0.0469,-0.48046875 -0.45703,-0.6328125 -0.75,-0.6328125 -0.29297,0 -0.45703,0.2109375 -0.55078,0.375 -0.15234,0.2578125 -0.24609,0.65625 -0.24609,0.69140625 0,0.0820313 0.0937,0.0820313 0.11719,0.0820313 0.0937,0 0.10546,-0.0117188 0.15234,-0.19921875 0.10547,-0.421875 0.23437,-0.76171875 0.51562,-0.76171875 0.17579,0 0.22266,0.15234375 0.22266,0.33984375 0,0.140625 -0.0586,0.3984375 -0.10547,0.5859375 -0.0469,0.18749997 -0.11719,0.46874997 -0.15234,0.62109377 l -0.22266,0.9023438 c -0.0352,0.082031 -0.0703,0.2578125 -0.0703,0.28125 0,0.1523437 0.11719,0.2226562 0.23437,0.2226562 0.12891,0 0.23438,-0.09375 0.26954,-0.1523437 0.0352,-0.058594 0.0937,-0.2929688 0.1289,-0.4335938 0.0352,-0.1289062 0.10547,-0.4570312 0.15235,-0.6328125 0.0352,-0.1523438 0.082,-0.3046875 0.11718,-0.4570313 0.082,-0.29296872 0.0937,-0.35156247 0.29297,-0.63281247 0.19922,-0.28125 0.52735,-0.64453125 1.04297,-0.64453125 0.41016,0 0.41016,0.36328125 0.41016,0.4921875 0,0.17578125 -0.0117,0.26953125 -0.11719,0.65625002 z m 5.5166,0.4453125 c 0,0.3867188 -0.0703,0.8320313 -0.55078,1.2773438 -0.0234,0.035156 -0.0469,0.058594 -0.0469,0.09375 0,0.046875 0.0586,0.09375 0.0937,0.09375 0.10547,0 0.6914,-0.5625 0.6914,-1.3945313 0,-0.421875 -0.16406,-0.75 -0.48047,-0.75 -0.23437,0 -0.39843,0.1757813 -0.39843,0.3867188 0,0.234375 0.15234,0.4101562 0.39843,0.4101562 0.16407,0 0.28125,-0.1171875 0.29297,-0.1171875 z m 3.14942,-4.2421875 c 0,-0.1054687 -0.082,-0.2578125 -0.28125,-0.2578125 -0.1875,0 -0.38672,0.1757813 -0.38672,0.375 0,0.1171875 0.082,0.2695313 0.26953,0.2695313 0.21094,0 0.39844,-0.1992188 0.39844,-0.3867188 z m -1.42969,3.5390625 c -0.0234,0.09375 -0.0586,0.1757813 -0.0586,0.2929688 0,0.328125 0.28125,0.5976562 0.66796,0.5976562 0.69141,0 0.9961,-0.9609375 0.9961,-1.0664062 0,-0.09375 -0.082,-0.09375 -0.10547,-0.09375 -0.10547,0 -0.10547,0.046875 -0.14063,0.1171875 -0.15234,0.5625 -0.45703,0.84375 -0.73828,0.84375 -0.14062,0 -0.17578,-0.082031 -0.17578,-0.2460938 0,-0.1523437 0.0586,-0.2929687 0.11719,-0.4453125 0.0703,-0.1875 0.14062,-0.375 0.22266,-0.5507812 0.0586,-0.1640625 0.3164,-0.80859377 0.33984,-0.89062502 0.0234,-0.0703125 0.0469,-0.15234375 0.0469,-0.22265625 0,-0.328125 -0.28125,-0.5859375 -0.66796,-0.5859375 -0.69141,0 -1.00782,0.94921875 -1.00782,1.06640625 0,0.0820313 0.0937,0.0820313 0.11719,0.0820313 0.0937,0 0.10547,-0.0351563 0.12891,-0.10546875 0.17578,-0.59765625 0.48047,-0.85546875 0.73828,-0.85546875 0.11719,0 0.17578,0.05859375 0.17578,0.24609375 0,0.1640625 -0.0352,0.26953125 -0.21094,0.703125 z m 3.46289,0.703125 c 0,0.3867188 -0.0703,0.8320313 -0.55078,1.2773438 -0.0234,0.035156 -0.0469,0.058594 -0.0469,0.09375 0,0.046875 0.0586,0.09375 0.0937,0.09375 0.10547,0 0.69141,-0.5625 0.69141,-1.3945313 0,-0.421875 -0.16406,-0.75 -0.48047,-0.75 -0.23437,0 -0.39844,0.1757813 -0.39844,0.3867188 0,0.234375 0.15235,0.4101562 0.39844,0.4101562 0.16406,0 0.28125,-0.1171875 0.29297,-0.1171875 z m 0,0"
         style="fill:#000000;fill-opacity:1;fill-rule:nonzero;stroke:none" />
      <path
         id="path24"
         d="m 158.05692,0.51754688 c 0.55078,0 0.9375,0.375 0.9375,1.12500002 0,0.8671875 -0.5039,1.125 -0.90234,1.125 -0.28125,0 -0.89063,-0.082031 -1.1836,-0.4921875 0.32813,-0.011719 0.39844,-0.2460938 0.39844,-0.3867188 0,-0.2226562 -0.16406,-0.3867187 -0.38672,-0.3867187 -0.1875,0 -0.38672,0.1171875 -0.38672,0.4101562 0,0.65625 0.72657,1.078125 1.57032,1.078125 0.97265,0 1.64062,-0.6445312 1.64062,-1.3476562 0,-0.5390625 -0.44531,-1.08984377 -1.21875,-1.24218752 0.73828,-0.26953125 0.9961,-0.796875 0.9961,-1.21875 0,-0.55078128 -0.63282,-0.96093748 -1.40625,-0.96093748 -0.77344,0 -1.35938,0.375 -1.35938,0.93749998 0,0.234375 0.15234,0.36328125 0.36328,0.36328125 0.21094,0 0.35156,-0.1640625 0.35156,-0.3515625 0,-0.19921873 -0.14062,-0.35156253 -0.35156,-0.36328123 0.23438,-0.3046875 0.71485,-0.3867188 0.97266,-0.3867188 0.3164,0 0.76172,0.1523438 0.76172,0.76171878 0,0.29296875 -0.10547,0.609375 -0.28125,0.83203125 -0.23438,0.2578125 -0.42188,0.28125 -0.77344,0.29296875 -0.17578,0.0234375 -0.1875,0.0234375 -0.22266,0.0234375 -0.0117,0 -0.0703,0.0117188 -0.0703,0.09375 0,0.09375 0.0586,0.09375 0.17578,0.09375 z m 2.7041,-2.89453128 c -0.0586,0 -0.14062,0 -0.14062,0.082031 0,0.035156 0.0234,0.058594 0.0703,0.1054687 0.59766,0.5507813 1.26563,1.48828128 1.26563,3.2929688 0,1.453125 -0.45704,2.5546875 -1.20704,3.234375 -0.11718,0.1171875 -0.1289,0.1289062 -0.1289,0.1640625 0,0.035156 0.0234,0.082031 0.0937,0.082031 0.082,0 0.75,-0.4570312 1.20703,-1.3242187 0.30469,-0.5859375 0.50391,-1.3359375 0.50391,-2.15625 0,-0.98437502 -0.29297,-2.5078125 -1.66407,-3.4804688 z m 4.94825,0 c -1.32422,0.9257813 -1.67579,2.41406253 -1.67579,3.4804688 0,0.984375 0.29297,2.5078125 1.67579,3.4804687 0.0586,0 0.14062,0 0.14062,-0.082031 0,-0.046875 -0.0234,-0.058594 -0.0703,-0.1054688 -0.92578,-0.8320312 -1.26563,-2.015625 -1.26563,-3.2929687 0,-1.87500002 0.71485,-2.8007813 1.28907,-3.3164063 0.0234,-0.023437 0.0469,-0.046875 0.0469,-0.082031 0,-0.082031 -0.082,-0.082031 -0.14062,-0.082031 z m 0,0"
         style="fill:#000000;fill-opacity:1;fill-rule:nonzero;stroke:none" />
      <path
         id="path25"
         d="m 169.38016,2.2870781 c -0.0351,0.140625 -0.0937,0.375 -0.0937,0.4101563 0,0.1523437 0.12891,0.2226562 0.23438,0.2226562 0.12891,0 0.23437,-0.09375 0.26953,-0.1523437 0.0352,-0.058594 0.0937,-0.2929688 0.12891,-0.4335938 0.0351,-0.1289062 0.11718,-0.4570312 0.15234,-0.6328125 0.0469,-0.1523437 0.082,-0.3046875 0.11719,-0.4570312 0.082,-0.30468752 0.082,-0.31640627 0.22265,-0.53906252 0.22266,-0.33984375 0.5625,-0.73828125 1.11329,-0.73828125 0.38671,0 0.41015,0.328125 0.41015,0.4921875 0,0.421875 -0.30469,1.19531247 -0.41015,1.48828127 -0.082,0.1875 -0.10547,0.2578125 -0.10547,0.375 0,0.3632812 0.30468,0.5976562 0.65625,0.5976562 0.70312,0 1.00781,-0.9609375 1.00781,-1.0664062 0,-0.09375 -0.0937,-0.09375 -0.10547,-0.09375 -0.10547,0 -0.10547,0.046875 -0.14062,0.1171875 -0.15235,0.5625 -0.45704,0.84375 -0.73829,0.84375 -0.14062,0 -0.17578,-0.09375 -0.17578,-0.2460938 0,-0.1523437 0.0352,-0.2460937 0.16407,-0.5625 0.082,-0.2109375 0.375,-0.94921872 0.375,-1.34765622 0,-0.10546875 0,-0.3984375 -0.25782,-0.59765625 -0.1289,-0.09375 -0.32812,-0.1875 -0.65625,-0.1875 -0.62109,0 -1.00781,0.41015625 -1.23047,0.703125 -0.0586,-0.59765625 -0.55078,-0.703125 -0.90234,-0.703125 -0.58594,0 -0.97266,0.3515625 -1.18359,0.6328125 -0.0469,-0.48046875 -0.45703,-0.6328125 -0.75,-0.6328125 -0.29297,0 -0.45703,0.2109375 -0.55078,0.375 -0.15235,0.2578125 -0.2461,0.65625 -0.2461,0.69140625 0,0.0820313 0.0937,0.0820313 0.11719,0.0820313 0.0937,0 0.10547,-0.0117188 0.15234,-0.19921875 0.10547,-0.421875 0.23438,-0.76171875 0.51563,-0.76171875 0.17578,0 0.22265,0.15234375 0.22265,0.33984375 0,0.140625 -0.0586,0.3984375 -0.10546,0.5859375 -0.0469,0.18749997 -0.11719,0.46874997 -0.15235,0.62109377 l -0.22265,0.9023438 c -0.0352,0.082031 -0.0703,0.2578125 -0.0703,0.28125 0,0.1523437 0.11719,0.2226562 0.23438,0.2226562 0.1289,0 0.23437,-0.09375 0.26953,-0.1523437 0.0352,-0.058594 0.0937,-0.2929688 0.12891,-0.4335938 0.0352,-0.1289062 0.10546,-0.4570312 0.15234,-0.6328125 0.0352,-0.1523438 0.082,-0.3046875 0.11719,-0.4570313 0.082,-0.29296872 0.0937,-0.35156247 0.29297,-0.63281247 0.19921,-0.28125 0.52734,-0.64453125 1.04296,-0.64453125 0.41016,0 0.41016,0.36328125 0.41016,0.4921875 0,0.17578125 -0.0117,0.26953125 -0.11719,0.65625002 z m 5.51661,0.4453125 c 0,0.3867188 -0.0703,0.8320313 -0.55079,1.2773438 -0.0234,0.035156 -0.0469,0.058594 -0.0469,0.09375 0,0.046875 0.0586,0.09375 0.0937,0.09375 0.10547,0 0.69141,-0.5625 0.69141,-1.3945313 0,-0.421875 -0.16407,-0.75 -0.48047,-0.75 -0.23438,0 -0.39844,0.1757813 -0.39844,0.3867188 0,0.234375 0.15234,0.4101562 0.39844,0.4101562 0.16406,0 0.28125,-0.1171875 0.29297,-0.1171875 z m 3.14941,-4.2421875 c 0,-0.1054687 -0.082,-0.2578125 -0.28125,-0.2578125 -0.1875,0 -0.38672,0.1757813 -0.38672,0.375 0,0.1171875 0.082,0.2695313 0.26953,0.2695313 0.21094,0 0.39844,-0.1992188 0.39844,-0.3867188 z m -1.42969,3.5390625 c -0.0234,0.09375 -0.0586,0.1757813 -0.0586,0.2929688 0,0.328125 0.28125,0.5976562 0.66797,0.5976562 0.6914,0 0.99609,-0.9609375 0.99609,-1.0664062 0,-0.09375 -0.082,-0.09375 -0.10547,-0.09375 -0.10547,0 -0.10547,0.046875 -0.14062,0.1171875 -0.15235,0.5625 -0.45703,0.84375 -0.73828,0.84375 -0.14063,0 -0.17579,-0.082031 -0.17579,-0.2460938 0,-0.1523437 0.0586,-0.2929687 0.11719,-0.4453125 0.0703,-0.1875 0.14063,-0.375 0.22266,-0.5507812 0.0586,-0.1640625 0.3164,-0.80859377 0.33984,-0.89062502 0.0234,-0.0703125 0.0469,-0.15234375 0.0469,-0.22265625 0,-0.328125 -0.28125,-0.5859375 -0.66797,-0.5859375 -0.69141,0 -1.00781,0.94921875 -1.00781,1.06640625 0,0.0820313 0.0937,0.0820313 0.11718,0.0820313 0.0937,0 0.10547,-0.0351563 0.12891,-0.10546875 0.17578,-0.59765625 0.48047,-0.85546875 0.73828,-0.85546875 0.11719,0 0.17578,0.05859375 0.17578,0.24609375 0,0.1640625 -0.0351,0.26953125 -0.21094,0.703125 z m 3.46289,0.703125 c 0,0.3867188 -0.0703,0.8320313 -0.55078,1.2773438 -0.0234,0.035156 -0.0469,0.058594 -0.0469,0.09375 0,0.046875 0.0586,0.09375 0.0937,0.09375 0.10547,0 0.6914,-0.5625 0.6914,-1.3945313 0,-0.421875 -0.16406,-0.75 -0.48047,-0.75 -0.23437,0 -0.39843,0.1757813 -0.39843,0.3867188 0,0.234375 0.15234,0.4101562 0.39843,0.4101562 0.16407,0 0.28125,-0.1171875 0.29297,-0.1171875 z m 0,0"
         style="fill:#000000;fill-opacity:1;fill-rule:nonzero;stroke:none" />
      <path
         id="path26"
         d="M 184.66727,1.7011406 V 1.4550469 h -0.77343 v -3.1054688 c 0,-0.1523437 0,-0.1992187 -0.15235,-0.1992187 -0.0937,0 -0.11719,0 -0.1875,0.09375 l -2.30859,3.2109375 v 0.2460937 h 2.05078 v 0.5742188 c 0,0.234375 0,0.328125 -0.5625,0.328125 h -0.1875 v 0.2460937 c 0.35156,-0.011719 0.79687,-0.023437 1.04297,-0.023437 0.25781,0 0.70312,0.011719 1.05469,0.023437 V 2.6034844 h -0.1875 c -0.5625,0 -0.5625,-0.09375 -0.5625,-0.328125 V 1.7011406 Z m -1.32422,-2.8007812 v 2.5546875 h -1.83984 z m 2.23536,-1.2773438 c -0.0586,0 -0.14063,0 -0.14063,0.082031 0,0.035156 0.0234,0.058594 0.0703,0.1054687 0.59766,0.5507813 1.26563,1.48828128 1.26563,3.2929688 0,1.453125 -0.45703,2.5546875 -1.20703,3.234375 -0.11719,0.1171875 -0.12891,0.1289062 -0.12891,0.1640625 0,0.035156 0.0234,0.082031 0.0937,0.082031 0.082,0 0.75,-0.4570312 1.20703,-1.3242187 0.30469,-0.5859375 0.50391,-1.3359375 0.50391,-2.15625 0,-0.98437502 -0.29297,-2.5078125 -1.66406,-3.4804688 z m 0,0"
         style="fill:#000000;fill-opacity:1;fill-rule:nonzero;stroke:none" />
      <path
         id="path27"
         d="m 192.70927,-2.5029609 c 0,-2.859375 -0.66797,-5.8945313 -2.63672,-8.1328121 -0.14063,-0.164063 -0.50391,-0.550782 -0.75,-0.761719 -0.0586,-0.05859 -0.082,-0.05859 -0.21094,-0.05859 -0.10547,0 -0.1875,0 -0.1875,0.09375 0,0.04687 0.0352,0.08203 0.0586,0.105469 0.33985,0.351562 0.87891,0.902344 1.48828,1.9921873 1.07813,1.9101563 1.47657,4.3710938 1.47657,6.7617188 0,4.3242187 -1.19532,6.9609375 -2.98828,8.7890625 -0.0234,0.023437 -0.0352,0.046875 -0.0352,0.082031 0,0.09375 0.082,0.09375 0.1875,0.09375 0.12891,0 0.15234,0 0.23437,-0.082031 0.94922,-0.8085938 2.01563,-2.1914063 2.70704,-4.3007813 0.43359,-1.35937499 0.65625,-2.97656249 0.65625,-4.5820312 z m 0,0"
         style="fill:#000000;fill-opacity:1;fill-rule:nonzero;stroke:none" />
      <path
         id="path28"
         d="m 196.53837,-0.01272656 c 0,-0.65625 -0.25782,-1.04296874 -0.64453,-1.04296874 -0.32813,0 -0.52735,0.24609374 -0.52735,0.52734374 0,0.26953125 0.19922,0.52734375 0.52735,0.52734375 0.11718,0 0.24609,-0.03515625 0.35156,-0.12890625 0.0234,-0.0234375 0.0352,-0.0351563 0.0469,-0.0351563 0.0117,0 0.0234,0.0117188 0.0234,0.15234375 0,0.73828125 -0.35156,1.33593741 -0.67969,1.66406241 -0.10547,0.1054688 -0.10547,0.1289063 -0.10547,0.1640625 0,0.070312 0.0469,0.1054688 0.0937,0.1054688 0.11719,0 0.91407,-0.7617188 0.91407,-1.93359371 z m 0,0"
         style="fill:#000000;fill-opacity:1;fill-rule:nonzero;stroke:none" />
      <path
         id="path29"
         d="m 204.42216,-6.5400703 c 0.0586,-0.1054688 0.0586,-0.1289063 0.0586,-0.1757813 0,-0.09375 -0.082,-0.1992187 -0.19922,-0.1992187 -0.12891,0 -0.19922,0.1171875 -0.23437,0.234375 l -0.82032,2.1914062 h -3.03515 l -0.82032,-2.1914062 c -0.0586,-0.140625 -0.10546,-0.234375 -0.23437,-0.234375 -0.0937,0 -0.19922,0.1054687 -0.19922,0.1992187 0,0.023437 0,0.035156 0.0586,0.1757813 l 2.48438,6.52734374 c 0.0469,0.140625 0.0937,0.234375 0.22266,0.234375 0.14062,0 0.1875,-0.1171875 0.22265,-0.2109375 z m -4.06641,2.4492187 h 2.70703 l -1.35937,3.53906254 z m 0,0"
         style="fill:#000000;fill-opacity:1;fill-rule:nonzero;stroke:none" />
      <path
         id="path30"
         d="m 207.76493,2.3896172 c 0,-0.035156 0,-0.046875 -0.16406,-0.2226563 -1.24219,-1.25390621 -1.57032,-3.12890621 -1.57032,-4.6640625 0,-1.7226562 0.38672,-3.4570312 1.60547,-4.7109375 0.12891,-0.1171875 0.12891,-0.1289062 0.12891,-0.1640625 0,-0.070312 -0.0352,-0.1054687 -0.0937,-0.1054687 -0.10547,0 -0.99609,0.6796875 -1.58203,1.9453125 -0.51563,1.1015625 -0.63281,2.203125 -0.63281,3.0351562 0,0.7851563 0.11718,1.99218754 0.65625,3.11718754 0.59765,1.21874996 1.45312,1.87499996 1.55859,1.87499996 0.0586,0 0.0937,-0.035156 0.0937,-0.1054687 z m 0,0"
         style="fill:#000000;fill-opacity:1;fill-rule:nonzero;stroke:none" />
      <path
         id="path31"
         d="m 209.22684,-0.58694531 c -0.0352,0.15234375 -0.0937,0.375 -0.0937,0.421875 0,0.1875 0.14063,0.26953125 0.29297,0.26953125 0.11719,0 0.29297,-0.0703125 0.36328,-0.26953125 0.0117,-0.0234375 0.12891,-0.4921875 0.1875,-0.73828125 l 0.22266,-0.90234374 c 0.0586,-0.2226563 0.11719,-0.4335938 0.17578,-0.6679688 0.0352,-0.1640625 0.11719,-0.4570312 0.12891,-0.4921875 0.14062,-0.3164062 0.66797,-1.21875 1.61718,-1.21875 0.44532,0 0.53907,0.3632813 0.53907,0.6914063 0,0.2578125 -0.0703,0.5390625 -0.15235,0.8320312 l -0.26953,1.1601563 -0.19922,0.74999999 c -0.0469,0.19921875 -0.14062,0.5390625 -0.14062,0.5859375 0,0.1875 0.14062,0.26953125 0.29297,0.26953125 0.30468,0 0.375,-0.24609375 0.44531,-0.5625 0.14062,-0.56250004 0.51562,-2.01562504 0.59766,-2.40234374 0.0352,-0.1289063 0.5625,-1.3242188 1.65234,-1.3242188 0.42187,0 0.53906,0.3398438 0.53906,0.6914063 0,0.5742187 -0.42187,1.7109375 -0.62109,2.2382812 -0.0937,0.234375 -0.12891,0.35156254 -0.12891,0.55078129 0,0.46875 0.35156,0.80859375 0.8086,0.80859375 0.9375,0 1.3125,-1.45312504 1.3125,-1.53515624 0,-0.09375 -0.0937,-0.09375 -0.11719,-0.09375 -0.10547,0 -0.10547,0.023437 -0.15235,0.1757812 -0.15234,0.52734379 -0.46875,1.24218754 -1.01953,1.24218754 -0.16406,0 -0.23437,-0.10546875 -0.23437,-0.328125 0,-0.2578125 0.082,-0.4921875 0.17578,-0.71484374 0.1875,-0.515625 0.60937,-1.6171875 0.60937,-2.1914063 0,-0.6445312 -0.39843,-1.0664062 -1.14843,-1.0664062 -0.75,0 -1.25391,0.4453125 -1.61719,0.9726562 -0.0117,-0.1289062 -0.0469,-0.46875 -0.32813,-0.7148437 -0.24609,-0.1992188 -0.5625,-0.2578125 -0.80859,-0.2578125 -0.90234,0 -1.38281,0.6445312 -1.55859,0.8671875 -0.0469,-0.5625 -0.46875,-0.8671875 -0.91407,-0.8671875 -0.45703,0 -0.64453,0.3867187 -0.73828,0.5742187 -0.17578,0.3398438 -0.30468,0.9375 -0.30468,0.9609375 0,0.1054688 0.0937,0.1054688 0.11718,0.1054688 0.0937,0 0.10547,-0.011719 0.16407,-0.234375 0.17578,-0.703125 0.375,-1.1835938 0.72656,-1.1835938 0.16406,0 0.3164,0.082031 0.3164,0.4570313 0,0.2109375 -0.0352,0.3164062 -0.16406,0.8320312 z m 9.89356,0.57421875 c 0,-0.65625 -0.25781,-1.04296874 -0.64453,-1.04296874 -0.32813,0 -0.52735,0.24609374 -0.52735,0.52734374 0,0.26953125 0.19922,0.52734375 0.52735,0.52734375 0.11718,0 0.24609,-0.03515625 0.35156,-0.12890625 0.0234,-0.0234375 0.0352,-0.0351563 0.0469,-0.0351563 0.0117,0 0.0234,0.0117188 0.0234,0.15234375 0,0.73828125 -0.35156,1.33593741 -0.67969,1.66406241 -0.10546,0.1054688 -0.10546,0.1289063 -0.10546,0.1640625 0,0.070312 0.0469,0.1054688 0.0937,0.1054688 0.11718,0 0.91406,-0.7617188 0.91406,-1.93359371 z m 5.21191,-6.21093754 c 0,-0.1992187 -0.1289,-0.3632812 -0.36328,-0.3632812 -0.26953,0 -0.53906,0.2578125 -0.53906,0.5273437 0,0.1875 0.14062,0.3632813 0.375,0.3632813 0.23437,0 0.52734,-0.234375 0.52734,-0.5273438 z m -0.75,3.7382813 c 0.11719,-0.28125 0.11719,-0.3046875 0.22266,-0.5742188 0.0703,-0.1992187 0.1289,-0.3398437 0.1289,-0.5273437 0,-0.4453125 -0.32812,-0.8203125 -0.82031,-0.8203125 -0.9375,0 -1.3125,1.453125 -1.3125,1.5351562 0,0.1054688 0.0937,0.1054688 0.11719,0.1054688 0.0937,0 0.10547,-0.023437 0.15234,-0.1875 0.26953,-0.9375 0.66797,-1.2304688 1.00782,-1.2304688 0.082,0 0.25781,0 0.25781,0.3164063 0,0.2109375 -0.0703,0.421875 -0.11719,0.515625 -0.082,0.2578125 -0.52734,1.4179687 -0.67969,1.8515625 -0.10547,0.2578125 -0.23437,0.58593749 -0.23437,0.79687499 0,0.46875 0.33984,0.80859375 0.82031,0.80859375 0.9375,0 1.30078,-1.44140624 1.30078,-1.53515624 0,-0.09375 -0.0937,-0.09375 -0.11719,-0.09375 -0.10546,0 -0.10546,0.023437 -0.15234,0.1757812 -0.17578,0.63281254 -0.50391,1.24218754 -1.01953,1.24218754 -0.16406,0 -0.23438,-0.10546875 -0.23438,-0.328125 0,-0.2578125 0.0586,-0.3984375 0.29297,-0.99609374 z m 0,0"
         style="fill:#000000;fill-opacity:1;fill-rule:nonzero;stroke:none" />
      <path
         id="path32"
         d="m 227.83622,-2.4971016 c 0,-0.7734375 -0.11719,-1.9804687 -0.65625,-3.1054687 -0.59766,-1.21875 -1.46485,-1.875 -1.5586,-1.875 -0.0586,0 -0.10546,0.046875 -0.10546,0.1054687 0,0.035156 0,0.046875 0.19921,0.234375 0.97266,0.984375 1.53516,2.5664063 1.53516,4.640625 0,1.71093754 -0.36328,3.45703129 -1.59375,4.7226563 -0.14062,0.1171875 -0.14062,0.1289062 -0.14062,0.1640625 0,0.058594 0.0469,0.1054687 0.10546,0.1054687 0.0937,0 0.9961,-0.6796875 1.58204,-1.94531246 0.5039,-1.1015625 0.63281,-2.20312504 0.63281,-3.04687504 z m 0,0"
         style="fill:#000000;fill-opacity:1;fill-rule:nonzero;stroke:none" />
      <path
         id="path33"
         d="m 237.05595,-2.2978828 c 0.16406,0 0.35156,0 0.35156,-0.1992188 0,-0.1992187 -0.1875,-0.1992187 -0.35156,-0.1992187 h -4.23047 c 0.1289,-1.3242188 1.26562,-2.2851563 2.67187,-2.2851563 h 1.5586 c 0.16406,0 0.35156,0 0.35156,-0.1992187 0,-0.1992188 -0.1875,-0.1992188 -0.35156,-0.1992188 h -1.57032 c -1.71093,0 -3.05859,1.2890625 -3.05859,2.8828125 0,1.59375004 1.34766,2.89453129 3.05859,2.89453129 h 1.57032 c 0.16406,0 0.35156,0 0.35156,-0.19921875 0,-0.19921875 -0.1875,-0.19921875 -0.35156,-0.19921875 h -1.5586 c -1.40625,0 -2.54297,-0.9609375 -2.67187,-2.29687499 z m 0,0"
         style="fill:#000000;fill-opacity:1;fill-rule:nonzero;stroke:none" />
      <path
         id="path34"
         d="m 242.5872,-0.77444531 c -0.0937,0.38671875 -0.11719,0.46875 -0.90235,0.46875 -0.17578,0 -0.28125,0 -0.28125,0.1875 0,0.1171875 0.0937,0.1171875 0.28125,0.1171875 h 3.29297 c 2.07422,0 4.03125,-2.09765629 4.03125,-4.28906249 0,-1.3945313 -0.84375,-2.5195313 -2.33203,-2.5195313 h -3.35156 c -0.1875,0 -0.29297,0 -0.29297,0.1992188 0,0.1171875 0.082,0.1171875 0.28125,0.1171875 0.1289,0 0.3164,0.011719 0.43359,0.011719 0.15235,0.023437 0.21094,0.058594 0.21094,0.1640625 0,0.035156 0,0.070312 -0.0352,0.1875 z m 2.15625,-5.34374999 c 0.082,-0.3515625 0.10546,-0.375 0.53906,-0.375 h 1.0664 c 0.97266,0 1.79297,0.5273437 1.79297,1.8398437 0,0.4921875 -0.19922,2.1210938 -1.04297,3.2226563 -0.28125,0.3632812 -1.07812,1.12499999 -2.29687,1.12499999 h -1.125 c -0.14063,0 -0.16406,0 -0.22266,-0.0117188 -0.0937,-0.0117188 -0.1289,-0.0234375 -0.1289,-0.10546875 0,-0.0234375 0,-0.046875 0.0469,-0.22265625 z m 6.79687,6.10546874 c 0,-0.65625 -0.25781,-1.04296874 -0.64453,-1.04296874 -0.32813,0 -0.52734,0.24609374 -0.52734,0.52734374 0,0.26953125 0.19921,0.52734375 0.52734,0.52734375 0.11719,0 0.24609,-0.03515625 0.35156,-0.12890625 0.0234,-0.0234375 0.0352,-0.0351563 0.0469,-0.0351563 0.0117,0 0.0234,0.0117188 0.0234,0.15234375 0,0.73828125 -0.35156,1.33593741 -0.67968,1.66406241 -0.10547,0.1054688 -0.10547,0.1289063 -0.10547,0.1640625 0,0.070312 0.0469,0.1054688 0.0937,0.1054688 0.11719,0 0.91406,-0.7617188 0.91406,-1.93359371 z m 0,0"
         style="fill:#000000;fill-opacity:1;fill-rule:nonzero;stroke:none" />
      <path
         id="path35"
         d="m 259.44169,-6.5400703 c 0.0586,-0.1054688 0.0586,-0.1289063 0.0586,-0.1757813 0,-0.09375 -0.082,-0.1992187 -0.19922,-0.1992187 -0.1289,0 -0.19922,0.1171875 -0.23437,0.234375 l -0.82032,2.1914062 h -3.03515 l -0.82031,-2.1914062 c -0.0586,-0.140625 -0.10547,-0.234375 -0.23438,-0.234375 -0.0937,0 -0.19922,0.1054687 -0.19922,0.1992187 0,0.023437 0,0.035156 0.0586,0.1757813 l 2.48437,6.52734374 c 0.0469,0.140625 0.0937,0.234375 0.22266,0.234375 0.14062,0 0.1875,-0.1171875 0.22265,-0.2109375 z m -4.06641,2.4492187 h 2.70703 l -1.35937,3.53906254 z m 0,0"
         style="fill:#000000;fill-opacity:1;fill-rule:nonzero;stroke:none" />
      <path
         id="path36"
         d="m 262.78739,2.3896172 c 0,-0.035156 0,-0.046875 -0.16406,-0.2226563 -1.24219,-1.25390621 -1.57031,-3.12890621 -1.57031,-4.6640625 0,-1.7226562 0.38671,-3.4570312 1.60546,-4.7109375 0.12891,-0.1171875 0.12891,-0.1289062 0.12891,-0.1640625 0,-0.070312 -0.0352,-0.1054687 -0.0937,-0.1054687 -0.10547,0 -0.99609,0.6796875 -1.58203,1.9453125 -0.51563,1.1015625 -0.63281,2.203125 -0.63281,3.0351562 0,0.7851563 0.11718,1.99218754 0.65625,3.11718754 0.59765,1.21874996 1.45312,1.87499996 1.55859,1.87499996 0.0586,0 0.0937,-0.035156 0.0937,-0.1054687 z m 0,0"
         style="fill:#000000;fill-opacity:1;fill-rule:nonzero;stroke:none" />
      <path
         id="path37"
         d="m 264.24637,-0.58694531 c -0.0351,0.15234375 -0.0937,0.375 -0.0937,0.421875 0,0.1875 0.14063,0.26953125 0.29297,0.26953125 0.11719,0 0.29297,-0.0703125 0.36328,-0.26953125 0.0117,-0.0234375 0.12891,-0.4921875 0.1875,-0.73828125 l 0.22266,-0.90234374 c 0.0586,-0.2226563 0.11719,-0.4335938 0.17578,-0.6679688 0.0352,-0.1640625 0.11719,-0.4570312 0.12891,-0.4921875 0.14062,-0.3164062 0.66797,-1.21875 1.61719,-1.21875 0.44531,0 0.53906,0.3632813 0.53906,0.6914063 0,0.6210937 -0.49219,1.8984375 -0.64453,2.3320312 -0.0937,0.22265629 -0.10547,0.33984379 -0.10547,0.45703129 0,0.46875 0.35156,0.80859375 0.82031,0.80859375 0.9375,0 1.30078,-1.45312504 1.30078,-1.53515624 0,-0.09375 -0.082,-0.09375 -0.11719,-0.09375 -0.0937,0 -0.0937,0.023437 -0.15234,0.1757812 -0.19922,0.67968754 -0.52734,1.24218754 -1.00781,1.24218754 -0.17578,0 -0.2461,-0.10546875 -0.2461,-0.328125 0,-0.2578125 0.0937,-0.4921875 0.1875,-0.71484374 0.1875,-0.5273438 0.59766,-1.6171875 0.59766,-2.1914063 0,-0.6679687 -0.42187,-1.0664062 -1.13672,-1.0664062 -0.90234,0 -1.38281,0.6445312 -1.55859,0.8671875 -0.0469,-0.5507813 -0.45703,-0.8671875 -0.91406,-0.8671875 -0.45704,0 -0.64454,0.3867187 -0.75,0.5742187 -0.15235,0.3398438 -0.29297,0.9257813 -0.29297,0.9609375 0,0.1054688 0.0937,0.1054688 0.11718,0.1054688 0.0937,0 0.10547,-0.011719 0.16407,-0.234375 0.17578,-0.703125 0.375,-1.1835938 0.72656,-1.1835938 0.19922,0 0.31641,0.1289063 0.31641,0.4570313 0,0.2109375 -0.0352,0.3164062 -0.16407,0.8320312 z m 7.125,0.57421875 c 0,-0.65625 -0.25781,-1.04296874 -0.64453,-1.04296874 -0.32812,0 -0.52734,0.24609374 -0.52734,0.52734374 0,0.26953125 0.19922,0.52734375 0.52734,0.52734375 0.11719,0 0.2461,-0.03515625 0.35157,-0.12890625 0.0234,-0.0234375 0.0351,-0.0351563 0.0469,-0.0351563 0.0117,0 0.0234,0.0117188 0.0234,0.15234375 0,0.73828125 -0.35156,1.33593741 -0.67969,1.66406241 -0.10547,0.1054688 -0.10547,0.1289063 -0.10547,0.1640625 0,0.070312 0.0469,0.1054688 0.0937,0.1054688 0.11719,0 0.91406,-0.7617188 0.91406,-1.93359371 z m 6.33692,-6.21093754 c 0,-0.1875 -0.12891,-0.3632812 -0.375,-0.3632812 -0.22266,0 -0.52734,0.234375 -0.52734,0.5273437 0,0.1992188 0.14062,0.3632813 0.375,0.3632813 0.26953,0 0.52734,-0.2578125 0.52734,-0.5273438 z m -1.99219,6.72656254 c -0.19922,0.74999996 -0.66797,1.32421876 -1.23047,1.32421876 -0.0586,0 -0.21093,0 -0.38672,-0.09375 0.29297,-0.070312 0.44532,-0.328125 0.44532,-0.5273438 0,-0.1640625 -0.10547,-0.35156246 -0.375,-0.35156246 -0.2461,0 -0.53907,0.21093746 -0.53907,0.57421876 0,0.3984375 0.39844,0.609375 0.87891,0.609375 0.69141,0 1.61719,-0.5273438 1.875,-1.51171876 l 0.91406,-3.64453124 c 0.0469,-0.1992188 0.0469,-0.3398438 0.0469,-0.375 0,-0.5625 -0.42188,-0.9140625 -0.91406,-0.9140625 -1.01954,0 -1.58204,1.453125 -1.58204,1.5351562 0,0.1054688 0.0937,0.1054688 0.11719,0.1054688 0.0937,0 0.0937,-0.011719 0.17578,-0.1992188 0.2461,-0.609375 0.71485,-1.21875 1.25391,-1.21875 0.14062,0 0.31641,0.035156 0.31641,0.4570313 0,0.234375 -0.0234,0.3398437 -0.0586,0.5039062 z m 0,0"
         style="fill:#000000;fill-opacity:1;fill-rule:nonzero;stroke:none" />
      <path
         id="path38"
         d="m 281.32938,-2.4971016 c 0,-0.7734375 -0.11718,-1.9804687 -0.65625,-3.1054687 -0.59765,-1.21875 -1.46484,-1.875 -1.55859,-1.875 -0.0586,0 -0.10547,0.046875 -0.10547,0.1054687 0,0.035156 0,0.046875 0.19922,0.234375 0.97266,0.984375 1.53516,2.5664063 1.53516,4.640625 0,1.71093754 -0.36329,3.45703129 -1.59375,4.7226563 -0.14063,0.1171875 -0.14063,0.1289062 -0.14063,0.1640625 0,0.058594 0.0469,0.1054687 0.10547,0.1054687 0.0937,0 0.99609,-0.6796875 1.58203,-1.94531246 0.50391,-1.1015625 0.63281,-2.20312504 0.63281,-3.04687504 z m 0,0"
         style="fill:#000000;fill-opacity:1;fill-rule:nonzero;stroke:none" />
      <path
         id="path39"
         d="m 290.55204,-2.2978828 c 0.16406,0 0.35156,0 0.35156,-0.1992188 0,-0.1992187 -0.1875,-0.1992187 -0.35156,-0.1992187 h -4.23047 c 0.12891,-1.3242188 1.26563,-2.2851563 2.67188,-2.2851563 h 1.55859 c 0.16406,0 0.35156,0 0.35156,-0.1992187 0,-0.1992188 -0.1875,-0.1992188 -0.35156,-0.1992188 h -1.57031 c -1.71094,0 -3.0586,1.2890625 -3.0586,2.8828125 0,1.59375004 1.34766,2.89453129 3.0586,2.89453129 h 1.57031 c 0.16406,0 0.35156,0 0.35156,-0.19921875 0,-0.19921875 -0.1875,-0.19921875 -0.35156,-0.19921875 h -1.55859 c -1.40625,0 -2.54297,-0.9609375 -2.67188,-2.29687499 z m 0,0"
         style="fill:#000000;fill-opacity:1;fill-rule:nonzero;stroke:none" />
      <path
         id="path40"
         d="m 296.08036,-0.77444531 c -0.0937,0.38671875 -0.11719,0.46875 -0.90234,0.46875 -0.17579,0 -0.28125,0 -0.28125,0.1875 0,0.1171875 0.0937,0.1171875 0.28125,0.1171875 h 3.29296 c 2.07422,0 4.03125,-2.09765629 4.03125,-4.28906249 0,-1.3945313 -0.84375,-2.5195313 -2.33203,-2.5195313 h -3.35156 c -0.1875,0 -0.29297,0 -0.29297,0.1992188 0,0.1171875 0.082,0.1171875 0.28125,0.1171875 0.12891,0 0.31641,0.011719 0.4336,0.011719 0.15234,0.023437 0.21093,0.058594 0.21093,0.1640625 0,0.035156 0,0.070312 -0.0352,0.1875 z m 2.15625,-5.34374999 c 0.082,-0.3515625 0.10547,-0.375 0.53906,-0.375 h 1.06641 c 0.97265,0 1.79297,0.5273437 1.79297,1.8398437 0,0.4921875 -0.19922,2.1210938 -1.04297,3.2226563 -0.28125,0.3632812 -1.07813,1.12499999 -2.29688,1.12499999 h -1.125 c -0.14062,0 -0.16406,0 -0.22265,-0.0117188 -0.0937,-0.0117188 -0.12891,-0.0234375 -0.12891,-0.10546875 0,-0.0234375 0,-0.046875 0.0469,-0.22265625 z m 0,0"
         style="fill:#000000;fill-opacity:1;fill-rule:nonzero;stroke:none" />
    </g>
  </g>
</svg>
