<?xml version="1.0" encoding="UTF-8" standalone="no"?>
<!-- Created with Inkscape (http://www.inkscape.org/) -->

<svg
   version="1.1"
   id="svg1"
   width="421.47656"
   height="18.128906"
   viewBox="0 0 421.47656 18.128906"
   sodipodi:docname="Formulas.pdf"
   xmlns:inkscape="http://www.inkscape.org/namespaces/inkscape"
   xmlns:sodipodi="http://sodipodi.sourceforge.net/DTD/sodipodi-0.dtd"
   xmlns="http://www.w3.org/2000/svg"
   xmlns:svg="http://www.w3.org/2000/svg">
  <defs
     id="defs1" />
  <sodipodi:namedview
     id="namedview1"
     pagecolor="#ffffff"
     bordercolor="#000000"
     borderopacity="0.25"
     inkscape:showpageshadow="2"
     inkscape:pageopacity="0.0"
     inkscape:pagecheckerboard="0"
     inkscape:deskcolor="#d1d1d1" />
  <g
     id="g1"
     inkscape:groupmode="layer"
     inkscape:label="1"
     transform="translate(-316.93359,-113.20703)">
    <g
       id="g2"
       aria-label="T&#10;Start&#10;(m,i,α)&#10;≥T&#10;Y&#10;(m,i)&#10;+G&#10;Y&#10;(m,i)&#10;,∀(m,i)∈D,α∈{4}or∀(m,i)∈L,α∈{1}"
       transform="matrix(1.3333333,0,0,1.3333333,316.62,125.224)">
      <path
         id="path2"
         d="m 4.2547266,-6.0478828 c 0.070312,-0.28125 0.1054687,-0.3398438 0.234375,-0.3632813 0.082031,-0.023437 0.4101562,-0.023437 0.6210937,-0.023437 1.0078125,0 1.453125,0.035156 1.453125,0.8203125 0,0.140625 -0.035156,0.5273438 -0.082031,0.796875 0,0.035156 -0.023437,0.1523438 -0.023437,0.1875 0,0.058594 0.023437,0.1289063 0.1171875,0.1289063 0.1054687,0 0.1289062,-0.082031 0.1523437,-0.234375 l 0.2695313,-1.734375 c 0.011719,-0.035156 0.011719,-0.140625 0.011719,-0.1640625 0,-0.1054688 -0.09375,-0.1054688 -0.2695312,-0.1054688 H 1.2195703 c -0.24609374,0 -0.25781249,0 -0.31640624,0.1992188 l -0.59765625,1.7460937 c -0.0117188,0.023437 -0.0703125,0.1640625 -0.0703125,0.1757813 0,0.070312 0.0585938,0.1171875 0.12890625,0.1171875 0.09375,0 0.10546875,-0.046875 0.1640625,-0.2109375 0.53906254,-1.546875 0.79687504,-1.7226563 2.27343754,-1.7226563 h 0.3867187 c 0.28125,0 0.28125,0.035156 0.28125,0.1171875 0,0.058594 -0.035156,0.1757813 -0.046875,0.2109375 l -1.3242187,5.32031254 c -0.09375,0.36328125 -0.1289063,0.48046875 -1.19531254,0.48046875 -0.3515625,0 -0.41015625,0 -0.41015625,0.1875 0,0.1171875 0.10546875,0.1171875 0.1640625,0.1171875 0.26953125,0 0.55078129,-0.0234375 0.82031249,-0.0234375 0.28125,0 0.5625,-0.01171875 0.84375,-0.01171875 0.28125,0 0.5625,0.01171875 0.8320313,0.01171875 0.28125,0 0.5859375,0.0234375 0.8671875,0.0234375 0.09375,0 0.2109375,0 0.2109375,-0.19921875 0,-0.10546875 -0.082031,-0.10546875 -0.3398438,-0.10546875 -0.2460937,0 -0.375,0 -0.6328125,-0.0234375 -0.2929687,-0.0351563 -0.3632812,-0.0585938 -0.3632812,-0.22265625 0,-0.0117188 0,-0.0585938 0.035156,-0.2109375 z m 0,0"
         style="fill:#000000;fill-opacity:1;fill-rule:nonzero;stroke:none" />
      <path
         id="path3"
         d="m 11.107266,-5.4033516 c 0,-0.6328125 -0.433594,-1.21875 -1.1367191,-1.3828125 l -1.03125,-0.234375 c -0.609375,-0.140625 -0.796875,-0.5859375 -0.796875,-0.8671875 0,-0.46875 0.421875,-0.9023437 1.0546875,-0.9023437 0.9374996,0 1.3476566,0.6210937 1.4648436,1.359375 0.01172,0.1054687 0.01172,0.140625 0.117188,0.140625 0.117187,0 0.117187,-0.046875 0.117187,-0.1875 v -1.359375 c 0,-0.1171875 0,-0.1757813 -0.09375,-0.1757813 -0.05859,0 -0.07031,0.011719 -0.117187,0.09375 l -0.257813,0.3867188 c -0.4570311,-0.46875 -1.0312499,-0.4804688 -1.2304686,-0.4804688 -0.8789063,0 -1.5,0.6210938 -1.5,1.3242188 0,0.3984375 0.1757812,0.6914062 0.421875,0.9257812 0.28125,0.28125 0.5039062,0.328125 1.265625,0.4921875 0.6328126,0.140625 0.7734376,0.1640625 0.9726566,0.3632813 0.164062,0.1640625 0.304687,0.3867187 0.304687,0.703125 0,0.4804687 -0.398437,0.9726562 -1.0781249,0.9726562 -0.6679687,0 -1.6054687,-0.2578125 -1.6523437,-1.3125 -0.011719,-0.1054687 -0.011719,-0.1523437 -0.1171875,-0.1523437 -0.1171875,0 -0.1171875,0.046875 -0.1171875,0.1875 v 1.3476562 c 0,0.1289063 0,0.1875 0.09375,0.1875 0.058594,0 0.070312,-0.023437 0.1171875,-0.082031 0.058594,-0.082031 0.1992187,-0.3046875 0.2578125,-0.3984375 0.4335937,0.3867187 0.9726562,0.4804687 1.4179687,0.4804687 0.9257809,0 1.5234379,-0.6914062 1.5234379,-1.4296877 z m 3.111328,0.4101563 v -0.3867188 h -0.234375 v 0.375 c 0,0.4804688 -0.222656,0.7382813 -0.492188,0.7382813 -0.480468,0 -0.480468,-0.5859375 -0.480468,-0.7148438 v -1.8867187 h 1.078125 v -0.2460938 h -1.078125 v -1.2890625 h -0.246094 c 0,0.6328125 -0.292969,1.3242188 -0.960938,1.3359375 v 0.1992188 h 0.65625 v 1.8867187 c 0,0.7734375 0.585938,0.9375 0.972657,0.9375 0.46875,0 0.785156,-0.3984375 0.785156,-0.9492187 z m 4.294922,0.2460937 v -0.375 h -0.246094 v 0.375 c 0,0.070312 0,0.3984375 -0.257813,0.3984375 -0.257812,0 -0.257812,-0.328125 -0.257812,-0.4101562 v -1.21875 c 0,-0.375 0,-0.6445313 -0.316406,-0.9023438 -0.28125,-0.234375 -0.621094,-0.3398437 -1.03125,-0.3398437 -0.667969,0 -1.125,0.2460937 -1.125,0.6679687 0,0.2226563 0.152343,0.3398438 0.328125,0.3398438 0.1875,0 0.328125,-0.1289063 0.328125,-0.3164063 0,-0.1289062 -0.05859,-0.2695312 -0.246094,-0.328125 0.257812,-0.1757812 0.65625,-0.1757812 0.703125,-0.1757812 0.386719,0 0.808594,0.2578125 0.808594,0.84375 v 0.2226562 c -0.375,0.011719 -0.84375,0.035156 -1.347657,0.2226563 -0.632812,0.2226562 -0.820312,0.609375 -0.820312,0.9257812 0,0.5976563 0.726562,0.7734375 1.21875,0.7734375 0.5625,0 0.878906,-0.3164062 1.03125,-0.5859375 0.02344,0.28125 0.210937,0.5507813 0.539062,0.5507813 0,0 0.691407,0 0.691407,-0.6679688 z m -1.3125,-0.3515625 c 0,0.6679688 -0.585938,0.8554688 -0.890625,0.8554688 -0.363282,0 -0.691407,-0.234375 -0.691407,-0.5742188 0,-0.3867187 0.328125,-0.9257812 1.582032,-0.9726562 z m 4.318359,-1.640625 c 0,-0.2460937 -0.222656,-0.4453125 -0.550781,-0.4453125 -0.351563,0 -0.726563,0.2109375 -0.9375,0.7382813 h -0.01172 v -0.7382813 l -0.996094,0.070312 v 0.2578125 c 0.46875,0 0.527344,0.046875 0.527344,0.3867188 v 1.8046875 c 0,0.3046875 -0.07031,0.3046875 -0.527344,0.3046875 v 0.2460937 c 0.03516,0 0.515625,-0.023437 0.796875,-0.023437 l 0.902344,0.023437 v -0.2460937 h -0.140625 c -0.515625,0 -0.515625,-0.082031 -0.515625,-0.3164063 v -1.03125 c 0,-0.5859375 0.28125,-1.2890625 0.9375,-1.2890625 -0.05859,0.046875 -0.117187,0.140625 -0.117187,0.2578125 0,0.2226563 0.175781,0.3164063 0.316406,0.3164063 0.164062,0 0.316406,-0.1054688 0.316406,-0.3164063 z m 2.888672,1.7460938 v -0.3867188 h -0.234375 v 0.375 c 0,0.4804688 -0.222656,0.7382813 -0.492188,0.7382813 -0.480468,0 -0.480468,-0.5859375 -0.480468,-0.7148438 v -1.8867187 h 1.078125 v -0.2460938 h -1.078125 v -1.2890625 h -0.246094 c 0,0.6328125 -0.292969,1.3242188 -0.960938,1.3359375 v 0.1992188 h 0.65625 v 1.8867187 c 0,0.7734375 0.585938,0.9375 0.972657,0.9375 0.46875,0 0.785156,-0.3984375 0.785156,-0.9492187 z m 0,0"
         style="fill:#000000;fill-opacity:1;fill-rule:nonzero;stroke:none" />
      <path
         id="path4"
         d="m 8.2947656,-2.3769844 c -1.3242187,0.9257813 -1.6757812,2.41406253 -1.6757812,3.4804688 0,0.984375 0.2929687,2.5078125 1.6757812,3.4804687 0.058594,0 0.140625,0 0.140625,-0.082031 0,-0.046875 -0.023437,-0.058594 -0.070312,-0.1054688 -0.9257812,-0.8320312 -1.265625,-2.015625 -1.265625,-3.2929687 0,-1.87500002 0.7148438,-2.8007813 1.2890625,-3.3164063 0.023437,-0.023437 0.046875,-0.046875 0.046875,-0.082031 0,-0.082031 -0.082031,-0.082031 -0.1406255,-0.082032 z m 0,0"
         style="fill:#000000;fill-opacity:1;fill-rule:nonzero;stroke:none" />
      <path
         id="path5"
         d="m 11.959805,2.2870781 c -0.03516,0.140625 -0.09375,0.375 -0.09375,0.4101563 0,0.1523437 0.128906,0.2226562 0.234375,0.2226562 0.128906,0 0.234375,-0.09375 0.269531,-0.1523437 0.03516,-0.058594 0.09375,-0.2929688 0.128906,-0.4335938 0.03516,-0.1289062 0.117188,-0.4570312 0.152344,-0.6328125 0.04687,-0.1523437 0.08203,-0.3046875 0.117187,-0.4570312 0.08203,-0.30468752 0.08203,-0.31640627 0.222657,-0.53906252 0.222656,-0.33984375 0.5625,-0.73828125 1.113281,-0.73828125 0.386719,0 0.410156,0.328125 0.410156,0.4921875 0,0.421875 -0.304687,1.19531247 -0.410156,1.48828127 -0.08203,0.1875 -0.105469,0.2578125 -0.105469,0.375 0,0.3632812 0.304688,0.5976562 0.65625,0.5976562 0.703125,0 1.007813,-0.9609375 1.007813,-1.0664062 0,-0.09375 -0.09375,-0.09375 -0.105469,-0.09375 -0.105469,0 -0.105469,0.046875 -0.140625,0.1171875 -0.152344,0.5625 -0.457031,0.84375 -0.738281,0.84375 -0.140625,0 -0.175782,-0.09375 -0.175782,-0.2460938 0,-0.1523437 0.03516,-0.2460937 0.164063,-0.5625 0.08203,-0.2109375 0.375,-0.94921872 0.375,-1.34765622 0,-0.10546875 0,-0.3984375 -0.257813,-0.59765625 -0.128906,-0.09375 -0.328125,-0.1875 -0.65625,-0.1875 -0.621093,0 -1.007812,0.41015625 -1.230468,0.703125 -0.05859,-0.59765625 -0.550782,-0.703125 -0.902344,-0.703125 -0.585938,0 -0.972656,0.3515625 -1.183594,0.6328125 -0.04687,-0.48046875 -0.457031,-0.6328125 -0.75,-0.6328125 -0.2929686,0 -0.4570311,0.2109375 -0.5507811,0.375 -0.1523437,0.2578125 -0.2460937,0.65625 -0.2460937,0.69140625 0,0.0820313 0.09375,0.0820313 0.1171875,0.0820313 0.09375,0 0.1054687,-0.0117188 0.1523437,-0.19921875 0.1054688,-0.421875 0.234375,-0.76171875 0.5156246,-0.76171875 0.175782,0 0.222657,0.15234375 0.222657,0.33984375 0,0.140625 -0.05859,0.3984375 -0.105469,0.5859375 C 10.119961,1.0800469 10.049648,1.3612969 10.014492,1.5136406 L 9.7918359,2.4159844 c -0.035156,0.082031 -0.070312,0.2578125 -0.070312,0.28125 0,0.1523437 0.1171875,0.2226562 0.234375,0.2226562 0.1289071,0 0.2343751,-0.09375 0.2695321,-0.1523437 0.03516,-0.058594 0.09375,-0.2929688 0.128906,-0.4335938 0.03516,-0.1289062 0.105469,-0.4570312 0.152344,-0.6328125 0.03516,-0.1523437 0.08203,-0.3046875 0.117187,-0.4570312 0.08203,-0.29296877 0.09375,-0.35156252 0.292969,-0.63281252 0.199219,-0.28125 0.527344,-0.64453125 1.042969,-0.64453125 0.410156,0 0.410156,0.36328125 0.410156,0.4921875 0,0.17578125 -0.01172,0.26953125 -0.117188,0.65624997 z m 5.516601,0.4453125 c 0,0.3867188 -0.07031,0.8320313 -0.550781,1.2773438 -0.02344,0.035156 -0.04687,0.058594 -0.04687,0.09375 0,0.046875 0.05859,0.09375 0.09375,0.09375 0.105469,0 0.691406,-0.5625 0.691406,-1.3945313 0,-0.421875 -0.164062,-0.75 -0.480468,-0.75 -0.234375,0 -0.398438,0.1757813 -0.398438,0.3867188 0,0.234375 0.152344,0.4101562 0.398438,0.4101562 0.164062,0 0.28125,-0.1171875 0.292968,-0.1171875 z m 3.149414,-4.2421875 c 0,-0.1054687 -0.08203,-0.2578125 -0.28125,-0.2578125 -0.1875,0 -0.386718,0.1757813 -0.386718,0.375 0,0.1171875 0.08203,0.2695313 0.269531,0.2695313 0.210937,0 0.398437,-0.1992188 0.398437,-0.3867188 z m -1.429687,3.5390625 c -0.02344,0.09375 -0.05859,0.1757813 -0.05859,0.2929688 0,0.328125 0.28125,0.5976562 0.667969,0.5976562 0.691406,0 0.996094,-0.9609375 0.996094,-1.0664062 0,-0.09375 -0.08203,-0.09375 -0.105469,-0.09375 -0.105469,0 -0.105469,0.046875 -0.140625,0.1171875 -0.152344,0.5625 -0.457031,0.84375 -0.738281,0.84375 -0.140625,0 -0.175782,-0.082031 -0.175782,-0.2460938 0,-0.1523437 0.05859,-0.2929687 0.117188,-0.4453125 0.07031,-0.1875 0.140625,-0.375 0.222656,-0.5507812 0.05859,-0.1640625 0.316406,-0.80859377 0.339844,-0.89062502 0.02344,-0.0703125 0.04687,-0.15234375 0.04687,-0.22265625 0,-0.328125 -0.28125,-0.5859375 -0.667969,-0.5859375 -0.691406,0 -1.007812,0.94921875 -1.007812,1.06640625 0,0.0820313 0.09375,0.0820313 0.117187,0.0820313 0.09375,0 0.105469,-0.0351563 0.128906,-0.10546875 0.175782,-0.59765625 0.480469,-0.85546875 0.738282,-0.85546875 0.117187,0 0.175781,0.05859375 0.175781,0.24609375 0,0.1640625 -0.03516,0.26953125 -0.210938,0.703125 z m 3.46289,0.703125 c 0,0.3867188 -0.07031,0.8320313 -0.550781,1.2773438 -0.02344,0.035156 -0.04687,0.058594 -0.04687,0.09375 0,0.046875 0.05859,0.09375 0.09375,0.09375 0.105469,0 0.691406,-0.5625 0.691406,-1.3945313 0,-0.421875 -0.164062,-0.75 -0.480468,-0.75 -0.234375,0 -0.398438,0.1757813 -0.398438,0.3867188 0,0.234375 0.152344,0.4101562 0.398438,0.4101562 0.164062,0 0.28125,-0.1171875 0.292968,-0.1171875 z m 4.69629,-0.8671875 c 0.644531,-0.65625 0.902343,-1.59374997 0.902343,-1.66406247 0,-0.09375 -0.08203,-0.09375 -0.117187,-0.09375 -0.09375,0 -0.09375,0.0234375 -0.140625,0.17578125 -0.128906,0.45703125 -0.363281,0.89062502 -0.65625,1.26562502 0,-0.1054688 -0.02344,-0.57421877 -0.03516,-0.63281252 -0.105469,-0.69140625 -0.621094,-1.13671875 -1.324219,-1.13671875 -1.019531,0 -2.003906,0.94921875 -2.003906,1.92187497 0,0.6445313 0.46875,1.21875 1.277343,1.21875 0.644532,0 1.21875,-0.2929687 1.605469,-0.5976562 0.164063,0.515625 0.515625,0.5976562 0.726563,0.5976562 0.410156,0 0.65625,-0.3398437 0.65625,-0.4921875 0,-0.082031 -0.08203,-0.082031 -0.117188,-0.082031 -0.09375,0 -0.105469,0.035156 -0.117187,0.070312 -0.105469,0.2695312 -0.316407,0.3046875 -0.398438,0.3046875 -0.09375,0 -0.222656,0 -0.257812,-0.8554688 z m -0.539063,0.234375 c -0.679687,0.5625 -1.277344,0.6210938 -1.535156,0.6210938 -0.46875,0 -0.726563,-0.3046875 -0.726563,-0.7734375 0,-0.1992188 0.105469,-0.96093752 0.46875,-1.44140627 0.316407,-0.421875 0.714844,-0.5390625 0.960938,-0.5390625 0.550781,0 0.714844,0.5390625 0.773437,0.97265625 0.03516,0.30468752 0.02344,0.79687502 0.05859,1.16015622 z m 0,0"
         style="fill:#000000;fill-opacity:1;fill-rule:nonzero;stroke:none" />
      <path
         id="path6"
         d="m 29.368008,-2.3769844 c -0.05859,0 -0.140625,0 -0.140625,0.082031 0,0.035156 0.02344,0.058594 0.07031,0.1054687 0.597657,0.5507813 1.265625,1.48828128 1.265625,3.2929688 0,1.453125 -0.457031,2.5546875 -1.207031,3.234375 -0.117187,0.1171875 -0.128906,0.1289062 -0.128906,0.1640625 0,0.035156 0.02344,0.082031 0.09375,0.082031 0.08203,0 0.75,-0.4570312 1.207031,-1.3242187 0.304688,-0.5859375 0.503906,-1.3359375 0.503906,-2.15625 0,-0.98437502 -0.292968,-2.5078125 -1.664062,-3.4804688 z m 0,0"
         style="fill:#000000;fill-opacity:1;fill-rule:nonzero;stroke:none" />
      <path
         id="path7"
         d="m 41.827969,-3.2236641 c 0.140625,-0.070312 0.199219,-0.1289062 0.199219,-0.2226562 0,-0.1054688 -0.03516,-0.1640625 -0.199219,-0.234375 l -5.484375,-2.5898438 c -0.140625,-0.070312 -0.1875,-0.070312 -0.199219,-0.070312 -0.128906,0 -0.199219,0.09375 -0.199219,0.1992188 0,0.1289062 0.07031,0.1757812 0.1875,0.2226562 l 5.226563,2.4609375 -5.214844,2.46093754 c -0.199219,0.09375 -0.199219,0.1640625 -0.199219,0.234375 0,0.10546875 0.08203,0.19921875 0.199219,0.19921875 0.02344,0 0.04687,0 0.175781,-0.0703125 z m -0.152344,4.5820313 c 0.175781,0 0.351563,0 0.351563,-0.1992188 0,-0.19921871 -0.210938,-0.19921871 -0.363282,-0.19921871 h -5.367187 c -0.152344,0 -0.351563,0 -0.351563,0.19921871 0,0.1992188 0.175782,0.1992188 0.339844,0.1992188 z m 0,0"
         style="fill:#000000;fill-opacity:1;fill-rule:nonzero;stroke:none" />
      <path
         id="path8"
         d="m 49.884609,-6.0478828 c 0.07031,-0.28125 0.105469,-0.3398438 0.234375,-0.3632813 0.08203,-0.023437 0.410157,-0.023437 0.621094,-0.023437 1.007813,0 1.453125,0.035156 1.453125,0.8203125 0,0.140625 -0.03516,0.5273438 -0.08203,0.796875 0,0.035156 -0.02344,0.1523438 -0.02344,0.1875 0,0.058594 0.02344,0.1289063 0.117188,0.1289063 0.105469,0 0.128906,-0.082031 0.152344,-0.234375 l 0.269531,-1.734375 c 0.01172,-0.035156 0.01172,-0.140625 0.01172,-0.1640625 0,-0.1054688 -0.09375,-0.1054688 -0.269532,-0.1054688 h -5.519531 c -0.246094,0 -0.257812,0 -0.316406,0.1992188 l -0.597656,1.7460937 c -0.01172,0.023437 -0.07031,0.1640625 -0.07031,0.1757813 0,0.070312 0.05859,0.1171875 0.128906,0.1171875 0.09375,0 0.105469,-0.046875 0.164063,-0.2109375 0.539062,-1.546875 0.796875,-1.7226563 2.273437,-1.7226563 h 0.386719 c 0.28125,0 0.28125,0.035156 0.28125,0.1171875 0,0.058594 -0.03516,0.1757813 -0.04687,0.2109375 l -1.324219,5.32031254 c -0.09375,0.36328125 -0.128906,0.48046875 -1.195312,0.48046875 -0.351563,0 -0.410156,0 -0.410156,0.1875 0,0.1171875 0.105468,0.1171875 0.164062,0.1171875 0.269531,0 0.550781,-0.0234375 0.820313,-0.0234375 0.28125,0 0.5625,-0.01171875 0.84375,-0.01171875 0.28125,0 0.5625,0.01171875 0.832031,0.01171875 0.28125,0 0.585937,0.0234375 0.867187,0.0234375 0.09375,0 0.210938,0 0.210938,-0.19921875 0,-0.10546875 -0.08203,-0.10546875 -0.339844,-0.10546875 -0.246094,0 -0.375,0 -0.632812,-0.0234375 -0.292969,-0.0351563 -0.363282,-0.0585938 -0.363282,-0.22265625 0,-0.0117188 0,-0.0585938 0.03516,-0.2109375 z m 0,0"
         style="fill:#000000;fill-opacity:1;fill-rule:nonzero;stroke:none" />
      <path
         id="path9"
         d="m 57.557461,-8.0400703 c 0.140625,-0.140625 0.28125,-0.2695313 0.433594,-0.375 0.28125,-0.1875 0.539062,-0.1992188 0.632812,-0.2109375 0.07031,-0.011719 0.164063,-0.011719 0.164063,-0.1523438 0,-0.046875 -0.04687,-0.09375 -0.105469,-0.09375 -0.175781,0 -0.386719,0.023437 -0.5625,0.023437 -0.222656,0 -0.515625,-0.023437 -0.726563,-0.023437 -0.03516,0 -0.140625,0 -0.140625,0.1523438 0,0.082031 0.09375,0.09375 0.128907,0.09375 0.199218,0.011719 0.199218,0.09375 0.199218,0.1289062 0,0.070312 -0.03516,0.1171875 -0.09375,0.1875 -0.03516,0.058594 -0.07031,0.1054688 -0.117187,0.1523438 l -1.734375,1.8164062 -0.925781,-2.0390625 c -0.04687,-0.09375 -0.04687,-0.1171875 -0.04687,-0.1171875 0,-0.1289062 0.328125,-0.1289062 0.375,-0.1289062 0.09375,0 0.175781,0 0.175781,-0.1523438 0,-0.011719 0,-0.09375 -0.105469,-0.09375 -0.210937,0 -0.726562,0.023437 -0.9375,0.023437 -0.175781,0 -0.621094,-0.023437 -0.796875,-0.023437 -0.04687,0 -0.128906,0.011719 -0.128906,0.1523438 0,0.09375 0.08203,0.09375 0.1875,0.09375 0.398437,0 0.421875,0.058594 0.492187,0.2109375 l 1.089844,2.390625 -0.316406,1.2773437 c -0.09375,0.3515625 -0.09375,0.375 -0.644531,0.3867188 -0.117188,0 -0.210938,0 -0.210938,0.140625 0,0.070312 0.04687,0.1054687 0.117188,0.1054687 0.128906,0 0.292968,-0.023437 0.433593,-0.023437 0.128907,0 0.328125,0 0.457032,0 0.140625,0 0.304687,0 0.445312,0 0.152344,0 0.316406,0.023437 0.46875,0.023437 0.03516,0 0.152344,0 0.152344,-0.1523437 0,-0.09375 -0.08203,-0.09375 -0.234375,-0.09375 -0.117188,0 -0.140625,0 -0.269531,-0.023437 -0.128907,-0.011719 -0.152344,-0.023437 -0.152344,-0.09375 0,-0.046875 0.08203,-0.375 0.128906,-0.5625 0.05859,-0.2226563 0.210938,-0.8320313 0.222656,-0.8554688 0.02344,-0.1054687 0.02344,-0.1171875 0.09375,-0.1875 z m 0,0"
         style="fill:#000000;fill-opacity:1;fill-rule:nonzero;stroke:none" />
      <path
         id="path10"
         d="m 53.924648,-2.5146797 c -1.324218,0.9257813 -1.675781,2.41406251 -1.675781,3.48046876 0,0.98437504 0.292969,2.50781254 1.675781,3.48046874 0.05859,0 0.140625,0 0.140625,-0.082031 0,-0.046875 -0.02344,-0.058594 -0.07031,-0.1054688 -0.925781,-0.8320312 -1.265625,-2.015625 -1.265625,-3.29296874 0,-1.875 0.714844,-2.80078126 1.289062,-3.31640626 0.02344,-0.023437 0.04687,-0.046875 0.04687,-0.082031 0,-0.082031 -0.08203,-0.082031 -0.140625,-0.082031 z m 0,0"
         style="fill:#000000;fill-opacity:1;fill-rule:nonzero;stroke:none" />
      <path
         id="path11"
         d="m 57.589688,2.1493828 c -0.03516,0.140625 -0.09375,0.375 -0.09375,0.4101563 0,0.1523437 0.128906,0.2226562 0.234375,0.2226562 0.128906,0 0.234375,-0.09375 0.269531,-0.1523437 0.03516,-0.058594 0.09375,-0.2929688 0.128906,-0.4335938 0.03516,-0.1289062 0.117188,-0.4570312 0.152344,-0.6328125 0.04687,-0.1523437 0.08203,-0.3046875 0.117187,-0.4570312 0.08203,-0.30468754 0.08203,-0.31640629 0.222657,-0.53906254 0.222656,-0.33984375 0.5625,-0.73828125 1.113281,-0.73828125 0.386719,0 0.410156,0.328125 0.410156,0.4921875 0,0.421875 -0.304687,1.19531249 -0.410156,1.48828129 -0.08203,0.1875 -0.105469,0.2578125 -0.105469,0.375 0,0.3632812 0.304688,0.5976562 0.65625,0.5976562 0.703125,0 1.007813,-0.9609375 1.007813,-1.0664062 0,-0.09375 -0.09375,-0.09375 -0.105469,-0.09375 -0.105469,0 -0.105469,0.046875 -0.140625,0.1171875 -0.152344,0.5625 -0.457031,0.84375 -0.738281,0.84375 -0.140625,0 -0.175782,-0.09375 -0.175782,-0.2460938 0,-0.1523437 0.03516,-0.2460937 0.164063,-0.5625 0.08203,-0.2109375 0.375,-0.94921874 0.375,-1.34765624 0,-0.10546875 0,-0.3984375 -0.257813,-0.59765625 -0.128906,-0.09375 -0.328125,-0.1875 -0.65625,-0.1875 -0.621093,0 -1.007812,0.41015625 -1.230468,0.703125 -0.05859,-0.59765625 -0.550782,-0.703125 -0.902344,-0.703125 -0.585938,0 -0.972656,0.3515625 -1.183594,0.6328125 -0.04687,-0.48046875 -0.457031,-0.6328125 -0.75,-0.6328125 -0.292969,0 -0.457031,0.2109375 -0.550781,0.375 -0.152344,0.2578125 -0.246094,0.65625 -0.246094,0.69140625 0,0.0820313 0.09375,0.0820313 0.117188,0.0820313 0.09375,0 0.105468,-0.0117188 0.152343,-0.19921875 0.105469,-0.421875 0.234375,-0.76171875 0.515625,-0.76171875 0.175782,0 0.222657,0.15234375 0.222657,0.33984375 0,0.140625 -0.05859,0.3984375 -0.105469,0.5859375 -0.04687,0.1875 -0.117188,0.46874999 -0.152344,0.62109369 l -0.222656,0.9023439 c -0.03516,0.082031 -0.07031,0.2578125 -0.07031,0.28125 0,0.1523436 0.117188,0.2226561 0.234375,0.2226561 0.128907,0 0.234375,-0.09375 0.269532,-0.1523436 0.03516,-0.058594 0.09375,-0.2929689 0.128906,-0.4335939 0.03516,-0.1289061 0.105469,-0.4570312 0.152344,-0.6328125 0.03516,-0.1523437 0.08203,-0.3046875 0.117187,-0.4570312 0.08203,-0.29296874 0.09375,-0.35156249 0.292969,-0.63281249 0.199219,-0.28125 0.527344,-0.64453125 1.042969,-0.64453125 0.410156,0 0.410156,0.36328125 0.410156,0.4921875 0,0.17578125 -0.01172,0.26953125 -0.117188,0.65625 z m 5.516601,0.4453125 c 0,0.3867188 -0.07031,0.8320313 -0.550781,1.2773438 -0.02344,0.035156 -0.04687,0.058594 -0.04687,0.09375 0,0.046875 0.05859,0.09375 0.09375,0.09375 0.105469,0 0.691406,-0.5625 0.691406,-1.3945313 0,-0.421875 -0.164062,-0.75 -0.480469,-0.75 -0.234375,0 -0.398437,0.1757813 -0.398437,0.3867188 0,0.234375 0.152344,0.4101562 0.398437,0.4101562 0.164063,0 0.28125,-0.1171875 0.292969,-0.1171875 z m 3.149414,-4.2421875 c 0,-0.1054687 -0.08203,-0.2578125 -0.28125,-0.2578125 -0.1875,0 -0.386719,0.1757813 -0.386719,0.375 0,0.1171875 0.08203,0.2695313 0.269532,0.2695313 0.210937,0 0.398437,-0.1992188 0.398437,-0.3867188 z m -1.429687,3.5390625 c -0.02344,0.09375 -0.05859,0.1757813 -0.05859,0.2929688 0,0.328125 0.28125,0.5976562 0.667969,0.5976562 0.691406,0 0.996093,-0.9609375 0.996093,-1.0664062 0,-0.09375 -0.08203,-0.09375 -0.105468,-0.09375 -0.105469,0 -0.105469,0.046875 -0.140625,0.1171875 -0.152344,0.5625 -0.457032,0.84375 -0.738282,0.84375 -0.140625,0 -0.175781,-0.082031 -0.175781,-0.2460938 0,-0.1523437 0.05859,-0.2929687 0.117188,-0.4453125 0.07031,-0.1875 0.140625,-0.375 0.222656,-0.5507812 0.05859,-0.1640625 0.316406,-0.80859379 0.339844,-0.89062504 0.02344,-0.0703125 0.04687,-0.15234375 0.04687,-0.22265625 0,-0.328125 -0.28125,-0.5859375 -0.667969,-0.5859375 -0.691406,0 -1.007813,0.94921875 -1.007813,1.06640625 0,0.0820313 0.09375,0.0820313 0.117188,0.0820313 0.09375,0 0.105469,-0.0351563 0.128906,-0.10546875 0.175781,-0.59765625 0.480469,-0.85546875 0.738281,-0.85546875 0.117188,0 0.175782,0.0585938 0.175782,0.24609375 0,0.1640625 -0.03516,0.26953125 -0.210938,0.703125 z m 0,0"
         style="fill:#000000;fill-opacity:1;fill-rule:nonzero;stroke:none" />
      <path
         id="path12"
         d="m 67.453945,-2.5146797 c -0.05859,0 -0.140625,0 -0.140625,0.082031 0,0.035156 0.02344,0.058594 0.07031,0.1054687 0.597656,0.5507813 1.265625,1.48828126 1.265625,3.29296876 0,1.45312504 -0.457031,2.55468754 -1.207031,3.23437504 -0.117188,0.1171875 -0.128907,0.1289062 -0.128907,0.1640625 0,0.035156 0.02344,0.082031 0.09375,0.082031 0.08203,0 0.75,-0.4570312 1.207032,-1.3242187 0.304687,-0.5859375 0.503906,-1.3359375 0.503906,-2.15625004 0,-0.984375 -0.292969,-2.50781246 -1.664063,-3.48046876 z m 0,0"
         style="fill:#000000;fill-opacity:1;fill-rule:nonzero;stroke:none" />
      <path
         id="path13"
         d="m 76.723477,-2.2978828 h 2.777343 c 0.140625,0 0.328125,0 0.328125,-0.1992188 0,-0.1992187 -0.1875,-0.1992187 -0.328125,-0.1992187 h -2.777343 v -2.7890625 c 0,-0.1289063 0,-0.328125 -0.199219,-0.328125 -0.199219,0 -0.199219,0.1992187 -0.199219,0.328125 v 2.7890625 h -2.789062 c -0.140625,0 -0.328125,0 -0.328125,0.1992187 0,0.1992188 0.1875,0.1992188 0.328125,0.1992188 h 2.789062 v 2.80078124 c 0,0.12890625 0,0.328125 0.199219,0.328125 0.199219,0 0.199219,-0.19921875 0.199219,-0.328125 z m 0,0"
         style="fill:#000000;fill-opacity:1;fill-rule:nonzero;stroke:none" />
      <path
         id="path14"
         d="m 90.179531,-6.9267891 c 0,-0.023437 -0.02344,-0.09375 -0.105468,-0.09375 -0.03516,0 -0.04687,0.011719 -0.152344,0.1171875 l -0.703125,0.7617188 c -0.08203,-0.140625 -0.539063,-0.8789063 -1.652344,-0.8789063 -2.214844,0 -4.453125,2.203125 -4.453125,4.5117188 0,1.58203124 1.101563,2.73046874 2.71875,2.73046874 0.433594,0 0.878906,-0.09375 1.242188,-0.24609375 0.492187,-0.19921875 0.679687,-0.41015625 0.867187,-0.609375 0.08203,0.2578125 0.351563,0.62109375 0.445313,0.62109375 0.04687,0 0.07031,-0.0234375 0.07031,-0.03515625 0.02344,-0.0234375 0.117188,-0.3984375 0.164063,-0.609375 l 0.199218,-0.77343749 c 0.03516,-0.1640625 0.08203,-0.328125 0.128907,-0.5039063 0.105468,-0.4453125 0.117187,-0.46875 0.679687,-0.4804687 0.05859,0 0.164063,-0.011719 0.164063,-0.1992188 0,-0.070312 -0.04687,-0.1054687 -0.128907,-0.1054687 -0.234375,0 -0.820312,0.023437 -1.042968,0.023437 -0.316407,0 -1.089844,-0.023437 -1.394532,-0.023437 -0.09375,0 -0.210937,0 -0.210937,0.1992187 0,0.1054688 0.08203,0.1054688 0.292969,0.1054688 0.01172,0 0.304687,0 0.527343,0.023437 0.257813,0.035156 0.316407,0.058594 0.316407,0.1875 0,0.09375 -0.117188,0.5390625 -0.210938,0.9023437 -0.28125,1.10156254 -1.582031,1.20703129 -1.921875,1.20703129 -0.960937,0 -2.003906,-0.5625 -2.003906,-2.08593749 0,-0.3164063 0.09375,-1.9570313 1.148437,-3.2460938 0.539063,-0.6796875 1.5,-1.2890625 2.484375,-1.2890625 1.019532,0 1.605469,0.7734375 1.605469,1.921875 0,0.3984375 -0.03516,0.4101563 -0.03516,0.5039063 0,0.1054687 0.117187,0.1054687 0.152344,0.1054687 0.128906,0 0.128906,-0.023437 0.175781,-0.1992187 z m 0,0"
         style="fill:#000000;fill-opacity:1;fill-rule:nonzero;stroke:none" />
      <path
         id="path15"
         d="m 95.16293,-8.0400703 c 0.140625,-0.140625 0.28125,-0.2695313 0.433593,-0.375 0.28125,-0.1875 0.539063,-0.1992188 0.632813,-0.2109375 0.07031,-0.011719 0.164062,-0.011719 0.164062,-0.1523438 0,-0.046875 -0.04687,-0.09375 -0.105468,-0.09375 -0.175782,0 -0.386719,0.023437 -0.5625,0.023437 -0.222657,0 -0.515625,-0.023437 -0.726563,-0.023437 -0.03516,0 -0.140625,0 -0.140625,0.1523438 0,0.082031 0.09375,0.09375 0.128906,0.09375 0.199219,0.011719 0.199219,0.09375 0.199219,0.1289062 0,0.070312 -0.03516,0.1171875 -0.09375,0.1875 -0.03516,0.058594 -0.07031,0.1054688 -0.117187,0.1523438 l -1.734375,1.8164062 -0.925782,-2.0390625 c -0.04687,-0.09375 -0.04687,-0.1171875 -0.04687,-0.1171875 0,-0.1289062 0.328125,-0.1289062 0.375,-0.1289062 0.09375,0 0.175782,0 0.175782,-0.1523438 0,-0.011719 0,-0.09375 -0.105469,-0.09375 -0.210938,0 -0.726563,0.023437 -0.9375,0.023437 -0.175781,0 -0.621094,-0.023437 -0.796875,-0.023437 -0.04687,0 -0.128906,0.011719 -0.128906,0.1523438 0,0.09375 0.08203,0.09375 0.1875,0.09375 0.398437,0 0.421875,0.058594 0.492187,0.2109375 l 1.089844,2.390625 -0.316406,1.2773437 c -0.09375,0.3515625 -0.09375,0.375 -0.644532,0.3867188 -0.117187,0 -0.210937,0 -0.210937,0.140625 0,0.070312 0.04687,0.1054687 0.117187,0.1054687 0.128907,0 0.292969,-0.023437 0.433594,-0.023437 0.128906,0 0.328125,0 0.457031,0 0.140625,0 0.304688,0 0.445313,0 0.152344,0 0.316406,0.023437 0.46875,0.023437 0.03516,0 0.152344,0 0.152344,-0.1523437 0,-0.09375 -0.08203,-0.09375 -0.234375,-0.09375 -0.117188,0 -0.140625,0 -0.269532,-0.023437 -0.128906,-0.011719 -0.152343,-0.023437 -0.152343,-0.09375 0,-0.046875 0.08203,-0.375 0.128906,-0.5625 0.05859,-0.2226563 0.210937,-0.8320313 0.222656,-0.8554688 0.02344,-0.1054687 0.02344,-0.1171875 0.09375,-0.1875 z m 0,0"
         style="fill:#000000;fill-opacity:1;fill-rule:nonzero;stroke:none" />
      <path
         id="path16"
         d="m 92.91293,-2.5146797 c -1.324219,0.9257813 -1.675782,2.41406251 -1.675782,3.48046876 0,0.98437504 0.292969,2.50781254 1.675782,3.48046874 0.05859,0 0.140625,0 0.140625,-0.082031 0,-0.046875 -0.02344,-0.058594 -0.07031,-0.1054688 C 92.057464,3.4267268 91.71762,2.243133 91.71762,0.96578926 c 0,-1.875 0.714844,-2.80078126 1.289063,-3.31640626 0.02344,-0.023437 0.04687,-0.046875 0.04687,-0.082031 0,-0.082031 -0.08203,-0.082031 -0.140625,-0.082031 z m 0,0"
         style="fill:#000000;fill-opacity:1;fill-rule:nonzero;stroke:none" />
      <path
         id="path17"
         d="m 96.577969,2.1493828 c -0.03516,0.140625 -0.09375,0.375 -0.09375,0.4101563 0,0.1523437 0.128906,0.2226562 0.234375,0.2226562 0.128906,0 0.234375,-0.09375 0.269531,-0.1523437 0.03516,-0.058594 0.09375,-0.2929688 0.128906,-0.4335938 0.03516,-0.1289062 0.117188,-0.4570312 0.152344,-0.6328125 0.04687,-0.1523437 0.08203,-0.3046875 0.117188,-0.4570312 0.08203,-0.30468754 0.08203,-0.31640629 0.222656,-0.53906254 0.222656,-0.33984375 0.5625,-0.73828125 1.113281,-0.73828125 0.386719,0 0.410156,0.328125 0.410156,0.4921875 0,0.421875 -0.304687,1.19531249 -0.410156,1.48828129 -0.08203,0.1875 -0.105469,0.2578125 -0.105469,0.375 0,0.3632812 0.304688,0.5976562 0.65625,0.5976562 0.703125,0 1.007809,-0.9609375 1.007809,-1.0664062 0,-0.09375 -0.0937,-0.09375 -0.10546,-0.09375 -0.10547,0 -0.10547,0.046875 -0.14063,0.1171875 -0.152344,0.5625 -0.457031,0.84375 -0.738281,0.84375 -0.140625,0 -0.175781,-0.09375 -0.175781,-0.2460938 0,-0.1523437 0.03516,-0.2460937 0.164062,-0.5625 0.08203,-0.2109375 0.375,-0.94921874 0.375,-1.34765624 0,-0.10546875 0,-0.3984375 -0.257812,-0.59765625 -0.128907,-0.09375 -0.328125,-0.1875 -0.65625,-0.1875 -0.621094,0 -1.007813,0.41015625 -1.230469,0.703125 -0.05859,-0.59765625 -0.550781,-0.703125 -0.902344,-0.703125 -0.585937,0 -0.972656,0.3515625 -1.183594,0.6328125 -0.04687,-0.48046875 -0.457031,-0.6328125 -0.75,-0.6328125 -0.292968,0 -0.457031,0.2109375 -0.550781,0.375 -0.152344,0.2578125 -0.246094,0.65625 -0.246094,0.69140625 0,0.0820313 0.09375,0.0820313 0.117188,0.0820313 0.09375,0 0.105469,-0.0117188 0.152344,-0.19921875 0.105468,-0.421875 0.234375,-0.76171875 0.515625,-0.76171875 0.175781,0 0.222656,0.15234375 0.222656,0.33984375 0,0.140625 -0.05859,0.3984375 -0.105469,0.5859375 -0.04687,0.1875 -0.117187,0.46874999 -0.152344,0.62109369 L 94.41,2.2782891 c -0.03516,0.082031 -0.07031,0.2578125 -0.07031,0.28125 0,0.1523437 0.117187,0.2226562 0.234375,0.2226562 0.128906,0 0.234375,-0.09375 0.269531,-0.1523437 0.03516,-0.058594 0.09375,-0.2929688 0.128906,-0.4335938 0.03516,-0.1289062 0.105469,-0.4570312 0.152344,-0.6328125 0.03516,-0.1523437 0.08203,-0.3046875 0.117187,-0.4570312 0.08203,-0.29296879 0.09375,-0.35156254 0.292969,-0.63281254 0.199219,-0.28125 0.527344,-0.64453125 1.042969,-0.64453125 0.410156,0 0.410156,0.36328125 0.410156,0.4921875 0,0.17578125 -0.01172,0.26953125 -0.117187,0.65625 z m 5.516601,0.4453125 c 0,0.3867188 -0.0703,0.8320313 -0.55078,1.2773438 -0.0234,0.035156 -0.0469,0.058594 -0.0469,0.09375 0,0.046875 0.0586,0.09375 0.0937,0.09375 0.10547,0 0.69141,-0.5625 0.69141,-1.3945313 0,-0.421875 -0.16406,-0.75 -0.48047,-0.75 -0.23437,0 -0.39844,0.1757813 -0.39844,0.3867188 0,0.234375 0.15235,0.4101562 0.39844,0.4101562 0.16406,0 0.28125,-0.1171875 0.29297,-0.1171875 z m 3.14941,-4.2421875 c 0,-0.1054687 -0.082,-0.2578125 -0.28125,-0.2578125 -0.1875,0 -0.38671,0.1757813 -0.38671,0.375 0,0.1171875 0.082,0.2695313 0.26953,0.2695313 0.21093,0 0.39843,-0.1992188 0.39843,-0.3867188 z m -1.42968,3.5390625 c -0.0234,0.09375 -0.0586,0.1757813 -0.0586,0.2929688 0,0.328125 0.28125,0.5976562 0.66797,0.5976562 0.69141,0 0.9961,-0.9609375 0.9961,-1.0664062 0,-0.09375 -0.082,-0.09375 -0.10547,-0.09375 -0.10547,0 -0.10547,0.046875 -0.14063,0.1171875 -0.15234,0.5625 -0.45703,0.84375 -0.73828,0.84375 -0.14062,0 -0.17578,-0.082031 -0.17578,-0.2460938 0,-0.1523437 0.0586,-0.2929687 0.11719,-0.4453125 0.0703,-0.1875 0.14062,-0.375 0.22265,-0.5507812 0.0586,-0.1640625 0.31641,-0.80859379 0.33985,-0.89062504 0.0234,-0.0703125 0.0469,-0.15234375 0.0469,-0.22265625 0,-0.328125 -0.28125,-0.5859375 -0.66797,-0.5859375 -0.6914,0 -1.00781,0.94921875 -1.00781,1.06640625 0,0.0820313 0.0937,0.0820313 0.11719,0.0820313 0.0937,0 0.10547,-0.0351563 0.1289,-0.10546875 0.17579,-0.59765625 0.48047,-0.85546875 0.73829,-0.85546875 0.11718,0 0.17578,0.0585938 0.17578,0.24609375 0,0.1640625 -0.0352,0.26953125 -0.21094,0.703125 z m 0,0"
         style="fill:#000000;fill-opacity:1;fill-rule:nonzero;stroke:none" />
      <path
         id="path18"
         d="m 106.44223,-2.5146797 c -0.0586,0 -0.14063,0 -0.14063,0.082031 0,0.035156 0.0234,0.058594 0.0703,0.1054687 0.59766,0.5507813 1.26563,1.48828126 1.26563,3.29296876 0,1.45312504 -0.45703,2.55468754 -1.20703,3.23437504 -0.11719,0.1171875 -0.12891,0.1289062 -0.12891,0.1640625 0,0.035156 0.0234,0.082031 0.0937,0.082031 0.082,0 0.75,-0.4570312 1.20703,-1.3242187 0.30469,-0.5859375 0.50391,-1.3359375 0.50391,-2.15625004 0,-0.984375 -0.29297,-2.50781246 -1.66406,-3.48046876 z m 0,0"
         style="fill:#000000;fill-opacity:1;fill-rule:nonzero;stroke:none" />
      <path
         id="path19"
         d="m 111.44613,-0.01272656 c 0,-0.65625 -0.25781,-1.04296874 -0.64453,-1.04296874 -0.32812,0 -0.52734,0.24609374 -0.52734,0.52734374 0,0.26953125 0.19922,0.52734375 0.52734,0.52734375 0.11719,0 0.2461,-0.03515625 0.35156,-0.12890625 0.0234,-0.0234375 0.0352,-0.0351563 0.0469,-0.0351563 0.0117,0 0.0234,0.0117188 0.0234,0.15234375 0,0.73828125 -0.35157,1.33593741 -0.67969,1.66406241 -0.10547,0.1054688 -0.10547,0.1289063 -0.10547,0.1640625 0,0.070312 0.0469,0.1054688 0.0937,0.1054688 0.11719,0 0.91406,-0.7617188 0.91406,-1.93359371 z m 0,0"
         style="fill:#000000;fill-opacity:1;fill-rule:nonzero;stroke:none" />
      <path
         id="path20"
         d="m 122.65219,-6.5400703 c 0.0586,-0.1054688 0.0586,-0.1289063 0.0586,-0.1757813 0,-0.09375 -0.082,-0.1992187 -0.19922,-0.1992187 -0.1289,0 -0.19922,0.1171875 -0.23437,0.234375 l -0.82031,2.1914062 h -3.03516 l -0.82031,-2.1914062 c -0.0586,-0.140625 -0.10547,-0.234375 -0.23438,-0.234375 -0.0937,0 -0.19922,0.1054687 -0.19922,0.1992187 0,0.023437 0,0.035156 0.0586,0.1757813 l 2.48437,6.52734374 c 0.0469,0.140625 0.0937,0.234375 0.22266,0.234375 0.14062,0 0.1875,-0.1171875 0.22265,-0.2109375 z m -4.06641,2.4492187 h 2.70703 l -1.35937,3.53906254 z m 0,0"
         style="fill:#000000;fill-opacity:1;fill-rule:nonzero;stroke:none" />
      <path
         id="path21"
         d="m 125.99789,2.3896172 c 0,-0.035156 0,-0.046875 -0.16406,-0.2226563 -1.24219,-1.25390621 -1.57031,-3.12890621 -1.57031,-4.6640625 0,-1.7226562 0.38671,-3.4570312 1.60546,-4.7109375 0.12891,-0.1171875 0.12891,-0.1289062 0.12891,-0.1640625 0,-0.070312 -0.0352,-0.1054687 -0.0937,-0.1054687 -0.10547,0 -0.99609,0.6796875 -1.58203,1.9453125 -0.51563,1.1015625 -0.63281,2.203125 -0.63281,3.0351562 0,0.7851563 0.11718,1.99218754 0.65625,3.11718754 0.59765,1.21874996 1.45312,1.87499996 1.55859,1.87499996 0.0586,0 0.0937,-0.035156 0.0937,-0.1054687 z m 0,0"
         style="fill:#000000;fill-opacity:1;fill-rule:nonzero;stroke:none" />
      <path
         id="path22"
         d="m 127.45688,-0.58694531 c -0.0352,0.15234375 -0.0937,0.375 -0.0937,0.421875 0,0.1875 0.14062,0.26953125 0.29296,0.26953125 0.11719,0 0.29297,-0.0703125 0.36329,-0.26953125 0.0117,-0.0234375 0.1289,-0.4921875 0.1875,-0.73828125 l 0.22265,-0.90234374 c 0.0586,-0.2226563 0.11719,-0.4335938 0.17578,-0.6679688 0.0352,-0.1640625 0.11719,-0.4570312 0.12891,-0.4921875 0.14062,-0.3164062 0.66797,-1.21875 1.61719,-1.21875 0.44531,0 0.53906,0.3632813 0.53906,0.6914063 0,0.2578125 -0.0703,0.5390625 -0.15234,0.8320312 l -0.26954,1.1601563 -0.19921,0.74999999 c -0.0469,0.19921875 -0.14063,0.5390625 -0.14063,0.5859375 0,0.1875 0.14063,0.26953125 0.29297,0.26953125 0.30469,0 0.375,-0.24609375 0.44531,-0.5625 0.14063,-0.56250004 0.51563,-2.01562504 0.59766,-2.40234374 0.0352,-0.1289063 0.5625,-1.3242188 1.65234,-1.3242188 0.42188,0 0.53906,0.3398438 0.53906,0.6914063 0,0.5742187 -0.42187,1.7109375 -0.62109,2.2382812 -0.0937,0.234375 -0.12891,0.35156254 -0.12891,0.55078129 0,0.46875 0.35157,0.80859375 0.8086,0.80859375 0.9375,0 1.3125,-1.45312504 1.3125,-1.53515624 0,-0.09375 -0.0937,-0.09375 -0.11719,-0.09375 -0.10547,0 -0.10547,0.023437 -0.15234,0.1757812 -0.15235,0.52734379 -0.46875,1.24218754 -1.01953,1.24218754 -0.16407,0 -0.23438,-0.10546875 -0.23438,-0.328125 0,-0.2578125 0.082,-0.4921875 0.17578,-0.71484374 0.1875,-0.515625 0.60938,-1.6171875 0.60938,-2.1914063 0,-0.6445312 -0.39844,-1.0664062 -1.14844,-1.0664062 -0.75,0 -1.25391,0.4453125 -1.61719,0.9726562 -0.0117,-0.1289062 -0.0469,-0.46875 -0.32812,-0.7148437 -0.2461,-0.1992188 -0.5625,-0.2578125 -0.8086,-0.2578125 -0.90234,0 -1.38281,0.6445312 -1.55859,0.8671875 -0.0469,-0.5625 -0.46875,-0.8671875 -0.91406,-0.8671875 -0.45703,0 -0.64453,0.3867187 -0.73828,0.5742187 -0.17579,0.3398438 -0.30469,0.9375 -0.30469,0.9609375 0,0.1054688 0.0937,0.1054688 0.11719,0.1054688 0.0937,0 0.10546,-0.011719 0.16406,-0.234375 0.17578,-0.703125 0.375,-1.1835938 0.72656,-1.1835938 0.16406,0 0.31641,0.082031 0.31641,0.4570313 0,0.2109375 -0.0352,0.3164062 -0.16407,0.8320312 z m 9.89648,0.57421875 c 0,-0.65625 -0.25781,-1.04296874 -0.64453,-1.04296874 -0.32813,0 -0.52735,0.24609374 -0.52735,0.52734374 0,0.26953125 0.19922,0.52734375 0.52735,0.52734375 0.11719,0 0.24609,-0.03515625 0.35156,-0.12890625 0.0234,-0.0234375 0.0352,-0.0351563 0.0469,-0.0351563 0.0117,0 0.0234,0.0117188 0.0234,0.15234375 0,0.73828125 -0.35156,1.33593741 -0.67968,1.66406241 -0.10547,0.1054688 -0.10547,0.1289063 -0.10547,0.1640625 0,0.070312 0.0469,0.1054688 0.0937,0.1054688 0.11718,0 0.91406,-0.7617188 0.91406,-1.93359371 z m 5.20898,-6.21093754 c 0,-0.1992187 -0.1289,-0.3632812 -0.36328,-0.3632812 -0.26953,0 -0.53906,0.2578125 -0.53906,0.5273437 0,0.1875 0.14063,0.3632813 0.375,0.3632813 0.23438,0 0.52734,-0.234375 0.52734,-0.5273438 z m -0.75,3.7382813 c 0.11719,-0.28125 0.11719,-0.3046875 0.22266,-0.5742188 0.0703,-0.1992187 0.12891,-0.3398437 0.12891,-0.5273437 0,-0.4453125 -0.32813,-0.8203125 -0.82032,-0.8203125 -0.9375,0 -1.3125,1.453125 -1.3125,1.5351562 0,0.1054688 0.0937,0.1054688 0.11719,0.1054688 0.0937,0 0.10547,-0.023437 0.15235,-0.1875 0.26953,-0.9375 0.66796,-1.2304688 1.00781,-1.2304688 0.082,0 0.25781,0 0.25781,0.3164063 0,0.2109375 -0.0703,0.421875 -0.11719,0.515625 -0.082,0.2578125 -0.52734,1.4179687 -0.67968,1.8515625 -0.10547,0.2578125 -0.23438,0.58593749 -0.23438,0.79687499 0,0.46875 0.33984,0.80859375 0.82031,0.80859375 0.9375,0 1.30078,-1.44140624 1.30078,-1.53515624 0,-0.09375 -0.0937,-0.09375 -0.11718,-0.09375 -0.10547,0 -0.10547,0.023437 -0.15235,0.1757812 -0.17578,0.63281254 -0.5039,1.24218754 -1.01953,1.24218754 -0.16406,0 -0.23437,-0.10546875 -0.23437,-0.328125 0,-0.2578125 0.0586,-0.3984375 0.29297,-0.99609374 z m 0,0"
         style="fill:#000000;fill-opacity:1;fill-rule:nonzero;stroke:none" />
      <path
         id="path23"
         d="m 146.06918,-2.4971016 c 0,-0.7734375 -0.11719,-1.9804687 -0.65625,-3.1054687 -0.59766,-1.21875 -1.46484,-1.875 -1.55859,-1.875 -0.0586,0 -0.10547,0.046875 -0.10547,0.1054687 0,0.035156 0,0.046875 0.19922,0.234375 0.97265,0.984375 1.53515,2.5664063 1.53515,4.640625 0,1.71093754 -0.36328,3.45703129 -1.59375,4.7226563 -0.14062,0.1171875 -0.14062,0.1289062 -0.14062,0.1640625 0,0.058594 0.0469,0.1054687 0.10547,0.1054687 0.0937,0 0.99609,-0.6796875 1.58203,-1.94531246 0.5039,-1.1015625 0.63281,-2.20312504 0.63281,-3.04687504 z m 0,0"
         style="fill:#000000;fill-opacity:1;fill-rule:nonzero;stroke:none" />
      <path
         id="path24"
         d="m 155.28891,-2.2978828 c 0.16406,0 0.35156,0 0.35156,-0.1992188 0,-0.1992187 -0.1875,-0.1992187 -0.35156,-0.1992187 h -4.23047 c 0.1289,-1.3242188 1.26562,-2.2851563 2.67187,-2.2851563 h 1.5586 c 0.16406,0 0.35156,0 0.35156,-0.1992187 0,-0.1992188 -0.1875,-0.1992188 -0.35156,-0.1992188 h -1.57032 c -1.71093,0 -3.05859,1.2890625 -3.05859,2.8828125 0,1.59375004 1.34766,2.89453129 3.05859,2.89453129 h 1.57032 c 0.16406,0 0.35156,0 0.35156,-0.19921875 0,-0.19921875 -0.1875,-0.19921875 -0.35156,-0.19921875 h -1.5586 c -1.40625,0 -2.54297,-0.9609375 -2.67187,-2.29687499 z m 0,0"
         style="fill:#000000;fill-opacity:1;fill-rule:nonzero;stroke:none" />
      <path
         id="path25"
         d="m 160.81723,-0.77444531 c -0.0937,0.38671875 -0.11719,0.46875 -0.90235,0.46875 -0.17578,0 -0.28125,0 -0.28125,0.1875 0,0.1171875 0.0937,0.1171875 0.28125,0.1171875 h 3.29297 c 2.07422,0 4.03125,-2.09765629 4.03125,-4.28906249 0,-1.3945313 -0.84375,-2.5195313 -2.33203,-2.5195313 h -3.35156 c -0.1875,0 -0.29297,0 -0.29297,0.1992188 0,0.1171875 0.082,0.1171875 0.28125,0.1171875 0.12891,0 0.31641,0.011719 0.43359,0.011719 0.15235,0.023437 0.21094,0.058594 0.21094,0.1640625 0,0.035156 0,0.070312 -0.0352,0.1875 z m 2.15625,-5.34374999 c 0.082,-0.3515625 0.10547,-0.375 0.53906,-0.375 h 1.06641 c 0.97265,0 1.79296,0.5273437 1.79296,1.8398437 0,0.4921875 -0.19921,2.1210938 -1.04296,3.2226563 -0.28125,0.3632812 -1.07813,1.12499999 -2.29688,1.12499999 h -1.125 c -0.14062,0 -0.16406,0 -0.22266,-0.0117188 -0.0937,-0.0117188 -0.1289,-0.0234375 -0.1289,-0.10546875 0,-0.0234375 0,-0.046875 0.0469,-0.22265625 z m 6.79687,6.10546874 c 0,-0.65625 -0.25781,-1.04296874 -0.64453,-1.04296874 -0.32812,0 -0.52734,0.24609374 -0.52734,0.52734374 0,0.26953125 0.19922,0.52734375 0.52734,0.52734375 0.11719,0 0.24609,-0.03515625 0.35156,-0.12890625 0.0234,-0.0234375 0.0352,-0.0351563 0.0469,-0.0351563 0.0117,0 0.0234,0.0117188 0.0234,0.15234375 0,0.73828125 -0.35157,1.33593741 -0.67969,1.66406241 -0.10547,0.1054688 -0.10547,0.1289063 -0.10547,0.1640625 0,0.070312 0.0469,0.1054688 0.0937,0.1054688 0.11719,0 0.91406,-0.7617188 0.91406,-1.93359371 z m 7.14258,-2.34375004 c 0,-1.5585937 -0.92578,-2.0507812 -1.65234,-2.0507812 -1.3711,0 -2.6836,1.4296875 -2.6836,2.8359375 0,0.92578124 0.59766,1.67578124 1.61719,1.67578124 0.62109,0 1.33594,-0.22265625 2.09766,-0.83203125 0.1289,0.52734375 0.45703,0.83203125 0.90234,0.83203125 0.52734,0 0.84375,-0.5390625 0.84375,-0.703125 0,-0.0703125 -0.0586,-0.10546875 -0.12891,-0.10546875 -0.0586,0 -0.0937,0.0351563 -0.1289,0.10546875 -0.17578,0.4921875 -0.52735,0.4921875 -0.55078,0.4921875 -0.31641,0 -0.31641,-0.78515625 -0.31641,-1.01953124 0,-0.2109375 0,-0.234375 0.10547,-0.3515625 0.9375,-1.171875 1.14844,-2.3320313 1.14844,-2.34375 0,-0.011719 -0.0117,-0.09375 -0.11719,-0.09375 -0.10547,0 -0.10547,0.023437 -0.15235,0.2109375 -0.1875,0.6210937 -0.51562,1.3828125 -0.98437,1.96875 z m -0.65625,1.37109379 c -0.87891,0.76171875 -1.65234,0.87890625 -2.05078,0.87890625 -0.59766,0 -0.89063,-0.45703125 -0.89063,-1.08984374 0,-0.4921875 0.25782,-1.5585938 0.57422,-2.0742188 0.46875,-0.7265625 1.00781,-0.9140625 1.35938,-0.9140625 0.98437,0 0.98437,1.3007813 0.98437,2.0859375 0,0.3632813 0,0.9375 0.0234,1.11328129 z m 0,0"
         style="fill:#000000;fill-opacity:1;fill-rule:nonzero;stroke:none" />
      <path
         id="path26"
         d="m 186.82699,-2.2978828 c 0.16406,0 0.35156,0 0.35156,-0.1992188 0,-0.1992187 -0.1875,-0.1992187 -0.35156,-0.1992187 h -4.23047 c 0.12891,-1.3242188 1.26563,-2.2851563 2.67188,-2.2851563 h 1.55859 c 0.16406,0 0.35156,0 0.35156,-0.1992187 0,-0.1992188 -0.1875,-0.1992188 -0.35156,-0.1992188 h -1.57031 c -1.71094,0 -3.05859,1.2890625 -3.05859,2.8828125 0,1.59375004 1.34765,2.89453129 3.05859,2.89453129 h 1.57031 c 0.16406,0 0.35156,0 0.35156,-0.19921875 0,-0.19921875 -0.1875,-0.19921875 -0.35156,-0.19921875 h -1.55859 c -1.40625,0 -2.54297,-0.9609375 -2.67188,-2.29687499 z m 6.75879,-3.84375 c 0,-0.3984375 0.25781,-1.0429688 1.33594,-1.1132813 0.0586,-0.011719 0.0937,-0.046875 0.0937,-0.1054687 0,-0.1171875 -0.082,-0.1171875 -0.1875,-0.1171875 -0.99609,0 -1.91016,0.515625 -1.91016,1.2539062 v 2.2734375 c 0,0.3867188 0,0.703125 -0.39843,1.03125 -0.35157,0.2929688 -0.72657,0.3046875 -0.94922,0.3164063 -0.0469,0.011719 -0.0937,0.046875 -0.0937,0.1054687 0,0.1054688 0.0586,0.1054688 0.16406,0.1171875 0.65625,0.035156 1.13672,0.3984375 1.24219,0.8789063 0.0352,0.1171875 0.0352,0.140625 0.0352,0.4921875 v 1.96874999 c 0,0.42187501 0,0.73828121 0.46875,1.12500001 0.39844,0.2929687 1.05469,0.4101562 1.44141,0.4101562 0.10547,0 0.1875,0 0.1875,-0.1171875 0,-0.09375 -0.0586,-0.09375 -0.16406,-0.1054687 -0.6211,-0.046875 -1.11328,-0.3632813 -1.24219,-0.8671875 -0.0234,-0.09375 -0.0234,-0.1054688 -0.0234,-0.46875001 V -1.1611641 c 0,-0.4570312 -0.082,-0.6210937 -0.39844,-0.9375 -0.21093,-0.2109375 -0.5039,-0.3164062 -0.78515,-0.3984375 0.82031,-0.2226562 1.18359,-0.6796875 1.18359,-1.2539062 z m 0,0"
         style="fill:#000000;fill-opacity:1;fill-rule:nonzero;stroke:none" />
      <path
         id="path27"
         d="m 198.68637,-1.6416328 v 0.86718749 c 0,0.3515625 -0.0234,0.46875 -0.76172,0.46875 h -0.21094 v 0.3046875 c 0.41016,-0.03515625 0.9375,-0.03515625 1.34766,-0.03515625 0.42187,0 0.94922,0 1.35937,0.03515625 v -0.3046875 h -0.21094 c -0.73828,0 -0.76171,-0.1171875 -0.76171,-0.46875 V -1.6416328 h 0.99609 v -0.3164063 h -0.99609 v -4.5234375 c 0,-0.1992187 0,-0.2578125 -0.15235,-0.2578125 -0.0937,0 -0.11719,0 -0.19922,0.1171875 l -3.05859,4.6640625 v 0.3164063 z m 0.0586,-0.3164063 h -2.42578 l 2.42578,-3.7148437 z m 0,0"
         style="fill:#000000;fill-opacity:1;fill-rule:nonzero;stroke:none" />
      <path
         id="path28"
         d="m 202.8934,1.1591484 c 0,0.3984375 -0.25781,1.0429688 -1.34766,1.1132813 -0.0469,0.011719 -0.0937,0.046875 -0.0937,0.1054687 0,0.1171875 0.11719,0.1171875 0.19922,0.1171875 0.97266,0 1.89844,-0.4921875 1.91016,-1.2539062 v -2.2734375 c 0,-0.3867188 0,-0.703125 0.39843,-1.03125 0.33985,-0.2929688 0.72657,-0.3046875 0.9375,-0.3164063 0.0586,-0.011719 0.0937,-0.046875 0.0937,-0.1171875 0,-0.09375 -0.0586,-0.09375 -0.16406,-0.1054687 -0.65625,-0.035156 -1.13672,-0.3984375 -1.24219,-0.890625 -0.0234,-0.1054688 -0.0234,-0.1289063 -0.0234,-0.4804688 v -1.96875 c 0,-0.421875 0,-0.7382812 -0.48047,-1.125 -0.39844,-0.3046875 -1.08985,-0.4101562 -1.42969,-0.4101562 -0.082,0 -0.19922,0 -0.19922,0.1171875 0,0.09375 0.0586,0.09375 0.16406,0.1054687 0.6211,0.046875 1.11329,0.3632813 1.24219,0.8671875 0.0352,0.09375 0.0352,0.1054688 0.0352,0.46875 v 2.0976563 c 0,0.4570312 0.0703,0.6210937 0.39844,0.9375 0.19921,0.2109375 0.49218,0.3164062 0.77343,0.3867187 -0.82031,0.234375 -1.17187,0.6914063 -1.17187,1.265625 z m 0,0"
         style="fill:#000000;fill-opacity:1;fill-rule:nonzero;stroke:none" />
      <path
         id="path29"
         d="m 217.03793,-2.7197578 c 0,-1.03125 -0.70313,-1.6875 -1.59375,-1.6875 -1.33594,0 -2.67188,1.4179687 -2.67188,2.8359375 0,0.98437499 0.66797,1.67578124 1.59375,1.67578124 1.32422,0 2.67188,-1.37109374 2.67188,-2.82421874 z m -2.66016,2.61328124 c -0.43359,0 -0.86718,-0.31640625 -0.86718,-1.08984374 0,-0.4921875 0.25781,-1.5585938 0.57421,-2.0742188 0.50391,-0.7617187 1.06641,-0.9140625 1.34766,-0.9140625 0.57422,0 0.87891,0.4804688 0.87891,1.078125 0,0.3867188 -0.19922,1.4296875 -0.58594,2.0742188 -0.33984,0.58593749 -0.89063,0.92578124 -1.34766,0.92578124 z m 3.68262,-0.48046875 c -0.0352,0.15234375 -0.0937,0.375 -0.0937,0.421875 0,0.1875 0.14063,0.26953125 0.29297,0.26953125 0.11719,0 0.29297,-0.0703125 0.36328,-0.26953125 0.0234,-0.046875 0.36328,-1.39453129 0.39844,-1.58203129 0.082,-0.328125 0.25781,-1.0195312 0.3164,-1.2890625 0.0469,-0.1289062 0.32813,-0.5976562 0.5625,-0.8203125 0.082,-0.070312 0.375,-0.328125 0.79688,-0.328125 0.25781,0 0.41016,0.1171875 0.42187,0.1171875 -0.30468,0.046875 -0.51562,0.2929688 -0.51562,0.5507813 0,0.1640625 0.10547,0.3515625 0.375,0.3515625 0.26953,0 0.55078,-0.234375 0.55078,-0.5859375 0,-0.3515625 -0.32812,-0.65625 -0.83203,-0.65625 -0.64453,0 -1.08984,0.4921875 -1.27734,0.7734375 -0.082,-0.4570313 -0.4336,-0.7734375 -0.90235,-0.7734375 -0.45703,0 -0.64453,0.3867187 -0.73828,0.5742187 -0.17578,0.3398438 -0.30469,0.9375 -0.30469,0.9609375 0,0.1054688 0.0937,0.1054688 0.11719,0.1054688 0.0937,0 0.10547,-0.011719 0.16406,-0.234375 0.17578,-0.703125 0.375,-1.1835938 0.72657,-1.1835938 0.17578,0 0.3164,0.082031 0.3164,0.4570313 0,0.2109375 -0.0351,0.3164062 -0.16406,0.8320312 z m 0,0"
         style="fill:#000000;fill-opacity:1;fill-rule:nonzero;stroke:none" />
      <path
         id="path30"
         d="m 232.42758,-6.5400703 c 0.0586,-0.1054688 0.0586,-0.1289063 0.0586,-0.1757813 0,-0.09375 -0.082,-0.1992187 -0.19922,-0.1992187 -0.1289,0 -0.19922,0.1171875 -0.23437,0.234375 l -0.82031,2.1914062 h -3.03516 l -0.82031,-2.1914062 c -0.0586,-0.140625 -0.10547,-0.234375 -0.23438,-0.234375 -0.0937,0 -0.19922,0.1054687 -0.19922,0.1992187 0,0.023437 0,0.035156 0.0586,0.1757813 l 2.48437,6.52734374 c 0.0469,0.140625 0.0937,0.234375 0.22266,0.234375 0.14062,0 0.1875,-0.1171875 0.22265,-0.2109375 z m -4.06641,2.4492187 h 2.70703 l -1.35937,3.53906254 z m 0,0"
         style="fill:#000000;fill-opacity:1;fill-rule:nonzero;stroke:none" />
      <path
         id="path31"
         d="m 235.77035,2.3896172 c 0,-0.035156 0,-0.046875 -0.16406,-0.2226563 -1.24219,-1.25390621 -1.57031,-3.12890621 -1.57031,-4.6640625 0,-1.7226562 0.38672,-3.4570312 1.60547,-4.7109375 0.1289,-0.1171875 0.1289,-0.1289062 0.1289,-0.1640625 0,-0.070312 -0.0352,-0.1054687 -0.0937,-0.1054687 -0.10547,0 -0.99609,0.6796875 -1.58203,1.9453125 -0.51562,1.1015625 -0.63281,2.203125 -0.63281,3.0351562 0,0.7851563 0.11719,1.99218754 0.65625,3.11718754 0.59765,1.21874996 1.45312,1.87499996 1.55859,1.87499996 0.0586,0 0.0937,-0.035156 0.0937,-0.1054687 z m 0,0"
         style="fill:#000000;fill-opacity:1;fill-rule:nonzero;stroke:none" />
      <path
         id="path32"
         d="m 237.23227,-0.58694531 c -0.0352,0.15234375 -0.0937,0.375 -0.0937,0.421875 0,0.1875 0.14062,0.26953125 0.29296,0.26953125 0.11719,0 0.29297,-0.0703125 0.36329,-0.26953125 0.0117,-0.0234375 0.1289,-0.4921875 0.1875,-0.73828125 l 0.22265,-0.90234374 c 0.0586,-0.2226563 0.11719,-0.4335938 0.17578,-0.6679688 0.0352,-0.1640625 0.11719,-0.4570312 0.12891,-0.4921875 0.14062,-0.3164062 0.66797,-1.21875 1.61719,-1.21875 0.44531,0 0.53906,0.3632813 0.53906,0.6914063 0,0.2578125 -0.0703,0.5390625 -0.15234,0.8320312 l -0.26954,1.1601563 -0.19921,0.74999999 c -0.0469,0.19921875 -0.14063,0.5390625 -0.14063,0.5859375 0,0.1875 0.14063,0.26953125 0.29297,0.26953125 0.30469,0 0.375,-0.24609375 0.44531,-0.5625 0.14063,-0.56250004 0.51563,-2.01562504 0.59766,-2.40234374 0.0351,-0.1289063 0.5625,-1.3242188 1.65234,-1.3242188 0.42188,0 0.53906,0.3398438 0.53906,0.6914063 0,0.5742187 -0.42187,1.7109375 -0.62109,2.2382812 -0.0937,0.234375 -0.12891,0.35156254 -0.12891,0.55078129 0,0.46875 0.35157,0.80859375 0.8086,0.80859375 0.9375,0 1.3125,-1.45312504 1.3125,-1.53515624 0,-0.09375 -0.0937,-0.09375 -0.11719,-0.09375 -0.10547,0 -0.10547,0.023437 -0.15234,0.1757812 -0.15235,0.52734379 -0.46875,1.24218754 -1.01953,1.24218754 -0.16407,0 -0.23438,-0.10546875 -0.23438,-0.328125 0,-0.2578125 0.082,-0.4921875 0.17578,-0.71484374 0.1875,-0.515625 0.60938,-1.6171875 0.60938,-2.1914063 0,-0.6445312 -0.39844,-1.0664062 -1.14844,-1.0664062 -0.75,0 -1.25391,0.4453125 -1.61719,0.9726562 -0.0117,-0.1289062 -0.0469,-0.46875 -0.32812,-0.7148437 -0.2461,-0.1992188 -0.5625,-0.2578125 -0.8086,-0.2578125 -0.90234,0 -1.38281,0.6445312 -1.55859,0.8671875 -0.0469,-0.5625 -0.46875,-0.8671875 -0.91406,-0.8671875 -0.45703,0 -0.64453,0.3867187 -0.73828,0.5742187 -0.17579,0.3398438 -0.30469,0.9375 -0.30469,0.9609375 0,0.1054688 0.0937,0.1054688 0.11719,0.1054688 0.0937,0 0.10546,-0.011719 0.16406,-0.234375 0.17578,-0.703125 0.375,-1.1835938 0.72656,-1.1835938 0.16406,0 0.31641,0.082031 0.31641,0.4570313 0,0.2109375 -0.0352,0.3164062 -0.16407,0.8320312 z m 9.89355,0.57421875 c 0,-0.65625 -0.25781,-1.04296874 -0.64453,-1.04296874 -0.32813,0 -0.52734,0.24609374 -0.52734,0.52734374 0,0.26953125 0.19921,0.52734375 0.52734,0.52734375 0.11719,0 0.24609,-0.03515625 0.35156,-0.12890625 0.0234,-0.0234375 0.0352,-0.0351563 0.0469,-0.0351563 0.0117,0 0.0234,0.0117188 0.0234,0.15234375 0,0.73828125 -0.35156,1.33593741 -0.67968,1.66406241 -0.10547,0.1054688 -0.10547,0.1289063 -0.10547,0.1640625 0,0.070312 0.0469,0.1054688 0.0937,0.1054688 0.11719,0 0.91406,-0.7617188 0.91406,-1.93359371 z m 5.21191,-6.21093754 c 0,-0.1992187 -0.1289,-0.3632812 -0.36328,-0.3632812 -0.26953,0 -0.53906,0.2578125 -0.53906,0.5273437 0,0.1875 0.14063,0.3632813 0.375,0.3632813 0.23438,0 0.52734,-0.234375 0.52734,-0.5273438 z m -0.75,3.7382813 c 0.11719,-0.28125 0.11719,-0.3046875 0.22266,-0.5742188 0.0703,-0.1992187 0.12891,-0.3398437 0.12891,-0.5273437 0,-0.4453125 -0.32813,-0.8203125 -0.82032,-0.8203125 -0.9375,0 -1.3125,1.453125 -1.3125,1.5351562 0,0.1054688 0.0937,0.1054688 0.11719,0.1054688 0.0937,0 0.10547,-0.023437 0.15235,-0.1875 0.26953,-0.9375 0.66796,-1.2304688 1.00781,-1.2304688 0.082,0 0.25781,0 0.25781,0.3164063 0,0.2109375 -0.0703,0.421875 -0.11719,0.515625 -0.082,0.2578125 -0.52734,1.4179687 -0.67968,1.8515625 -0.10547,0.2578125 -0.23438,0.58593749 -0.23438,0.79687499 0,0.46875 0.33984,0.80859375 0.82031,0.80859375 0.9375,0 1.30078,-1.44140624 1.30078,-1.53515624 0,-0.09375 -0.0937,-0.09375 -0.11718,-0.09375 -0.10547,0 -0.10547,0.023437 -0.15235,0.1757812 -0.17578,0.63281254 -0.5039,1.24218754 -1.01953,1.24218754 -0.16406,0 -0.23437,-0.10546875 -0.23437,-0.328125 0,-0.2578125 0.0586,-0.3984375 0.29297,-0.99609374 z m 0,0"
         style="fill:#000000;fill-opacity:1;fill-rule:nonzero;stroke:none" />
      <path
         id="path33"
         d="m 255.84164,-2.4971016 c 0,-0.7734375 -0.11719,-1.9804687 -0.65625,-3.1054687 -0.59766,-1.21875 -1.46484,-1.875 -1.55859,-1.875 -0.0586,0 -0.10547,0.046875 -0.10547,0.1054687 0,0.035156 0,0.046875 0.19922,0.234375 0.97265,0.984375 1.53515,2.5664063 1.53515,4.640625 0,1.71093754 -0.36328,3.45703129 -1.59375,4.7226563 -0.14062,0.1171875 -0.14062,0.1289062 -0.14062,0.1640625 0,0.058594 0.0469,0.1054687 0.10547,0.1054687 0.0937,0 0.99609,-0.6796875 1.58203,-1.94531246 0.5039,-1.1015625 0.63281,-2.20312504 0.63281,-3.04687504 z m 0,0"
         style="fill:#000000;fill-opacity:1;fill-rule:nonzero;stroke:none" />
      <path
         id="path34"
         d="m 265.06137,-2.2978828 c 0.16406,0 0.35156,0 0.35156,-0.1992188 0,-0.1992187 -0.1875,-0.1992187 -0.35156,-0.1992187 h -4.23047 c 0.1289,-1.3242188 1.26562,-2.2851563 2.67187,-2.2851563 h 1.5586 c 0.16406,0 0.35156,0 0.35156,-0.1992187 0,-0.1992188 -0.1875,-0.1992188 -0.35156,-0.1992188 h -1.57032 c -1.71093,0 -3.05859,1.2890625 -3.05859,2.8828125 0,1.59375004 1.34766,2.89453129 3.05859,2.89453129 h 1.57032 c 0.16406,0 0.35156,0 0.35156,-0.19921875 0,-0.19921875 -0.1875,-0.19921875 -0.35156,-0.19921875 h -1.5586 c -1.40625,0 -2.54297,-0.9609375 -2.67187,-2.29687499 z m 0,0"
         style="fill:#000000;fill-opacity:1;fill-rule:nonzero;stroke:none" />
      <path
         id="path35"
         d="m 272.73715,-6.0244453 c 0.0937,-0.3632813 0.11719,-0.46875 1.05469,-0.46875 0.30468,0 0.375,0 0.375,-0.1875 0,-0.1289063 -0.10547,-0.1289063 -0.15235,-0.1289063 -0.32812,0 -1.14844,0.035156 -1.47656,0.035156 -0.30469,0 -1.03125,-0.035156 -1.32422,-0.035156 -0.0703,0 -0.1875,0 -0.1875,0.1992188 0,0.1171875 0.082,0.1171875 0.28125,0.1171875 0.0117,0 0.19922,0 0.375,0.011719 0.17578,0.023437 0.26953,0.035156 0.26953,0.1640625 0,0.035156 -0.0117,0.070312 -0.0469,0.1875 l -1.33594,5.35546879 c -0.0937,0.38671875 -0.11719,0.46875 -0.90234,0.46875 -0.16407,0 -0.26954,0 -0.26954,0.19921875 0,0.10546875 0.0937,0.10546875 0.26954,0.10546875 h 4.61718 c 0.23438,0 0.2461,0 0.30469,-0.1640625 L 275.37384,-2.32132 c 0.0469,-0.1054688 0.0469,-0.1289063 0.0469,-0.140625 0,-0.035156 -0.0352,-0.1054688 -0.1289,-0.1054688 -0.082,0 -0.0937,0.046875 -0.16407,0.2109375 -0.33984,0.9140625 -0.77343,2.05078129 -2.49609,2.05078129 h -0.9375 c -0.14063,0 -0.16406,0 -0.22266,-0.0117188 -0.10547,-0.0117188 -0.1289,-0.0234375 -0.1289,-0.10546875 0,-0.0234375 0,-0.046875 0.0469,-0.22265625 z m 5.07715,6.01171874 c 0,-0.65625 -0.25782,-1.04296874 -0.64453,-1.04296874 -0.32813,0 -0.52735,0.24609374 -0.52735,0.52734374 0,0.26953125 0.19922,0.52734375 0.52735,0.52734375 0.11718,0 0.24609,-0.03515625 0.35156,-0.12890625 0.0234,-0.0234375 0.0352,-0.0351563 0.0469,-0.0351563 0.0117,0 0.0234,0.0117188 0.0234,0.15234375 0,0.73828125 -0.35156,1.33593741 -0.67969,1.66406241 -0.10547,0.1054688 -0.10547,0.1289063 -0.10547,0.1640625 0,0.070312 0.0469,0.1054688 0.0937,0.1054688 0.11719,0 0.91407,-0.7617188 0.91407,-1.93359371 z m 10.44726,-2.34375004 c 0,-1.5585937 -0.92578,-2.0507812 -1.65234,-2.0507812 -1.37109,0 -2.68359,1.4296875 -2.68359,2.8359375 0,0.92578124 0.59765,1.67578124 1.61718,1.67578124 0.6211,0 1.33594,-0.22265625 2.09766,-0.83203125 0.12891,0.52734375 0.45703,0.83203125 0.90234,0.83203125 0.52735,0 0.84375,-0.5390625 0.84375,-0.703125 0,-0.0703125 -0.0586,-0.10546875 -0.1289,-0.10546875 -0.0586,0 -0.0937,0.0351563 -0.12891,0.10546875 -0.17578,0.4921875 -0.52734,0.4921875 -0.55078,0.4921875 -0.31641,0 -0.31641,-0.78515625 -0.31641,-1.01953124 0,-0.2109375 0,-0.234375 0.10547,-0.3515625 0.9375,-1.171875 1.14844,-2.3320313 1.14844,-2.34375 0,-0.011719 -0.0117,-0.09375 -0.11719,-0.09375 -0.10547,0 -0.10547,0.023437 -0.15234,0.2109375 -0.1875,0.6210937 -0.51563,1.3828125 -0.98438,1.96875 z m -0.65625,1.37109379 c -0.8789,0.76171875 -1.65234,0.87890625 -2.05078,0.87890625 -0.59765,0 -0.89062,-0.45703125 -0.89062,-1.08984374 0,-0.4921875 0.25781,-1.5585938 0.57422,-2.0742188 0.46875,-0.7265625 1.00781,-0.9140625 1.35937,-0.9140625 0.98438,0 0.98438,1.3007813 0.98438,2.0859375 0,0.3632813 0,0.9375 0.0234,1.11328129 z m 0,0"
         style="fill:#000000;fill-opacity:1;fill-rule:nonzero;stroke:none" />
      <path
         id="path36"
         d="m 298.17855,-2.2978828 c 0.16407,0 0.35157,0 0.35157,-0.1992188 0,-0.1992187 -0.1875,-0.1992187 -0.35157,-0.1992187 h -4.23046 c 0.1289,-1.3242188 1.26562,-2.2851563 2.67187,-2.2851563 h 1.55859 c 0.16407,0 0.35157,0 0.35157,-0.1992187 0,-0.1992188 -0.1875,-0.1992188 -0.35157,-0.1992188 h -1.57031 c -1.71094,0 -3.05859,1.2890625 -3.05859,2.8828125 0,1.59375004 1.34765,2.89453129 3.05859,2.89453129 h 1.57031 c 0.16407,0 0.35157,0 0.35157,-0.19921875 0,-0.19921875 -0.1875,-0.19921875 -0.35157,-0.19921875 h -1.55859 c -1.40625,0 -2.54297,-0.9609375 -2.67187,-2.29687499 z m 6.75879,-3.84375 c 0,-0.3984375 0.25782,-1.0429688 1.33594,-1.1132813 0.0586,-0.011719 0.0937,-0.046875 0.0937,-0.1054687 0,-0.1171875 -0.082,-0.1171875 -0.1875,-0.1171875 -0.99609,0 -1.91015,0.515625 -1.91015,1.2539062 v 2.2734375 c 0,0.3867188 0,0.703125 -0.39844,1.03125 -0.35156,0.2929688 -0.72656,0.3046875 -0.94922,0.3164063 -0.0469,0.011719 -0.0937,0.046875 -0.0937,0.1054687 0,0.1054688 0.0586,0.1054688 0.16406,0.1171875 0.65625,0.035156 1.13672,0.3984375 1.24219,0.8789063 0.0352,0.1171875 0.0352,0.140625 0.0352,0.4921875 v 1.96874999 c 0,0.42187501 0,0.73828121 0.46875,1.12500001 0.39843,0.2929687 1.05468,0.4101562 1.4414,0.4101562 0.10547,0 0.1875,0 0.1875,-0.1171875 0,-0.09375 -0.0586,-0.09375 -0.16406,-0.1054687 -0.62109,-0.046875 -1.11328,-0.3632813 -1.24219,-0.8671875 -0.0234,-0.09375 -0.0234,-0.1054688 -0.0234,-0.46875001 V -1.1611641 c 0,-0.4570312 -0.082,-0.6210937 -0.39843,-0.9375 -0.21094,-0.2109375 -0.50391,-0.3164062 -0.78516,-0.3984375 0.82031,-0.2226562 1.18359,-0.6796875 1.18359,-1.2539062 z m 0,0"
         style="fill:#000000;fill-opacity:1;fill-rule:nonzero;stroke:none" />
      <path
         id="path37"
         d="m 310.03793,-6.3760078 c 0,-0.234375 0,-0.2578125 -0.23438,-0.2578125 -0.60937,0.6328125 -1.48828,0.6328125 -1.80468,0.6328125 v 0.3164062 c 0.19922,0 0.78515,0 1.30078,-0.2578125 v 5.15625004 c 0,0.3515625 -0.0352,0.48046875 -0.92578,0.48046875 h -0.31641 v 0.3046875 c 0.35156,-0.03515625 1.20703,-0.03515625 1.60547,-0.03515625 0.39844,0 1.26562,0 1.61719,0.03515625 v -0.3046875 h -0.31641 c -0.90234,0 -0.92578,-0.1171875 -0.92578,-0.48046875 z m 0,0"
         style="fill:#000000;fill-opacity:1;fill-rule:nonzero;stroke:none" />
      <path
         id="path38"
         d="m 314.24496,1.1591484 c 0,0.3984375 -0.25781,1.0429688 -1.34766,1.1132813 -0.0469,0.011719 -0.0937,0.046875 -0.0937,0.1054687 0,0.1171875 0.11719,0.1171875 0.19922,0.1171875 0.97266,0 1.89844,-0.4921875 1.91016,-1.2539062 v -2.2734375 c 0,-0.3867188 0,-0.703125 0.39844,-1.03125 0.33984,-0.2929688 0.72656,-0.3046875 0.9375,-0.3164063 0.0586,-0.011719 0.0937,-0.046875 0.0937,-0.1171875 0,-0.09375 -0.0586,-0.09375 -0.16407,-0.1054687 -0.65625,-0.035156 -1.13671,-0.3984375 -1.24218,-0.890625 -0.0234,-0.1054688 -0.0234,-0.1289063 -0.0234,-0.4804688 v -1.96875 c 0,-0.421875 0,-0.7382812 -0.48047,-1.125 -0.39844,-0.3046875 -1.08984,-0.4101562 -1.42969,-0.4101562 -0.082,0 -0.19922,0 -0.19922,0.1171875 0,0.09375 0.0586,0.09375 0.16407,0.1054687 0.62109,0.046875 1.11328,0.3632813 1.24218,0.8671875 0.0352,0.09375 0.0352,0.1054688 0.0352,0.46875 v 2.0976563 c 0,0.4570312 0.0703,0.6210937 0.39844,0.9375 0.19922,0.2109375 0.49219,0.3164062 0.77344,0.3867187 -0.82032,0.234375 -1.17188,0.6914063 -1.17188,1.265625 z m 0,0"
         style="fill:#000000;fill-opacity:1;fill-rule:nonzero;stroke:none" />
    </g>
  </g>
</svg>
