<?xml version="1.0" encoding="UTF-8" standalone="no"?>
<!-- Created with Inkscape (http://www.inkscape.org/) -->

<svg
   version="1.1"
   id="svg1"
   width="547.87885"
   height="23.890625"
   viewBox="0 0 547.87885 23.890625"
   sodipodi:docname="Formulas.pdf"
   xmlns:inkscape="http://www.inkscape.org/namespaces/inkscape"
   xmlns:sodipodi="http://sodipodi.sourceforge.net/DTD/sodipodi-0.dtd"
   xmlns="http://www.w3.org/2000/svg"
   xmlns:svg="http://www.w3.org/2000/svg">
  <defs
     id="defs1" />
  <sodipodi:namedview
     id="namedview1"
     pagecolor="#ffffff"
     bordercolor="#000000"
     borderopacity="0.25"
     inkscape:showpageshadow="2"
     inkscape:pageopacity="0.0"
     inkscape:pagecheckerboard="0"
     inkscape:deskcolor="#d1d1d1" />
  <g
     id="g1"
     inkscape:groupmode="layer"
     inkscape:label="1"
     transform="translate(-253.70312,-109.94922)">
    <g
       id="g2"
       aria-label="T&#10;Start&#10;(n,j,α&#10;2&#10;)&#10;+M&#10;(&#10;1−U&#10;AGV&#10;(m,i,α&#10;1&#10;)(n,j,α&#10;2&#10;)&#10;)&#10;≥T&#10;Start&#10;(m,i,α&#10;1&#10;)&#10;+t&#10;AGV&#10;(m,i,α&#10;1&#10;−1)(m,i,α&#10;1&#10;)&#10;,∀(m,i,α&#10;1&#10;),(n,j,α&#10;2&#10;)∈W&#10;T"
       transform="matrix(1.3333333,0,0,1.3333333,253.392,125.224)">
      <path
         id="path2"
         d="m 4.252875,-6.0478828 c 0.070312,-0.28125 0.1054688,-0.3398438 0.234375,-0.3632813 0.082031,-0.023437 0.4101563,-0.023437 0.6210938,-0.023437 1.0078125,0 1.453125,0.035156 1.453125,0.8203125 0,0.140625 -0.035156,0.5273438 -0.082031,0.796875 0,0.035156 -0.023437,0.1523438 -0.023437,0.1875 0,0.058594 0.023437,0.1289063 0.1171875,0.1289063 0.1054688,0 0.1289063,-0.082031 0.1523438,-0.234375 l 0.2695312,-1.734375 c 0.011719,-0.035156 0.011719,-0.140625 0.011719,-0.1640625 0,-0.1054688 -0.09375,-0.1054688 -0.2695313,-0.1054688 H 1.2177188 c -0.2460938,0 -0.25781255,0 -0.3164063,0.1992188 l -0.59765625,1.7460937 c -0.0117188,0.023437 -0.0703125,0.1640625 -0.0703125,0.1757813 0,0.070312 0.0585938,0.1171875 0.12890625,0.1171875 0.09375,0 0.10546875,-0.046875 0.1640625,-0.2109375 0.5390625,-1.546875 0.796875,-1.7226563 2.2734375,-1.7226563 h 0.3867188 c 0.28125,0 0.28125,0.035156 0.28125,0.1171875 0,0.058594 -0.035156,0.1757813 -0.046875,0.2109375 L 2.096625,-0.78616406 c -0.09375,0.36328125 -0.1289062,0.48046875 -1.1953125,0.48046875 -0.3515625,0 -0.41015625,0 -0.41015625,0.1875 0,0.1171875 0.10546875,0.1171875 0.1640625,0.1171875 0.26953125,0 0.55078125,-0.0234375 0.82031255,-0.0234375 0.28125,0 0.5625,-0.01171875 0.84375,-0.01171875 0.28125,0 0.5625,0.01171875 0.8320312,0.01171875 0.28125,0 0.5859375,0.0234375 0.8671875,0.0234375 0.09375,0 0.2109375,0 0.2109375,-0.19921875 0,-0.10546875 -0.082031,-0.10546875 -0.3398437,-0.10546875 -0.2460938,0 -0.375,0 -0.6328125,-0.0234375 C 2.9638125,-0.36428906 2.8935,-0.38772656 2.8935,-0.55178906 c 0,-0.0117188 0,-0.0585938 0.035156,-0.2109375 z m 0,0"
         style="fill:#000000;fill-opacity:1;fill-rule:nonzero;stroke:none" />
      <path
         id="path3"
         d="m 11.108344,-5.4033516 c 0,-0.6328125 -0.433594,-1.21875 -1.136719,-1.3828125 l -1.03125,-0.234375 C 8.331,-7.1611641 8.1435,-7.6064766 8.1435,-7.8877266 c 0,-0.46875 0.421875,-0.9023437 1.0546875,-0.9023437 0.9375005,0 1.3476565,0.6210937 1.4648435,1.359375 0.01172,0.1054687 0.01172,0.140625 0.117188,0.140625 0.117187,0 0.117187,-0.046875 0.117187,-0.1875 v -1.359375 c 0,-0.1171875 0,-0.1757813 -0.09375,-0.1757813 -0.05859,0 -0.07031,0.011719 -0.117187,0.09375 l -0.257813,0.3867188 c -0.457031,-0.46875 -1.0312497,-0.4804688 -1.2304685,-0.4804688 -0.8789062,0 -1.5,0.6210938 -1.5,1.3242188 0,0.3984375 0.1757813,0.6914062 0.421875,0.9257812 0.28125,0.28125 0.5039063,0.328125 1.265625,0.4921875 0.6328125,0.140625 0.7734375,0.1640625 0.9726565,0.3632813 0.164062,0.1640625 0.304687,0.3867187 0.304687,0.703125 0,0.4804687 -0.398437,0.9726562 -1.0781247,0.9726562 -0.6679688,0 -1.6054688,-0.2578125 -1.6523438,-1.3125 -0.011719,-0.1054687 -0.011719,-0.1523437 -0.1171875,-0.1523437 -0.1171875,0 -0.1171875,0.046875 -0.1171875,0.1875 v 1.3476562 c 0,0.1289063 0,0.1875 0.09375,0.1875 0.058594,0 0.070312,-0.023437 0.1171875,-0.082031 0.058594,-0.082031 0.1992188,-0.3046875 0.2578125,-0.3984375 0.4335938,0.3867187 0.9726563,0.4804687 1.4179688,0.4804687 0.9257817,0 1.5234377,-0.6914062 1.5234377,-1.4296877 z m 3.111328,0.4101563 v -0.3867188 h -0.234375 v 0.375 c 0,0.4804688 -0.222656,0.7382813 -0.492188,0.7382813 -0.480468,0 -0.480468,-0.5859375 -0.480468,-0.7148438 v -1.8867187 h 1.078125 v -0.2460938 h -1.078125 v -1.2890625 h -0.246094 c 0,0.6328125 -0.292969,1.3242188 -0.960938,1.3359375 v 0.1992188 h 0.65625 v 1.8867187 c 0,0.7734375 0.585938,0.9375 0.972657,0.9375 0.46875,0 0.785156,-0.3984375 0.785156,-0.9492187 z m 4.291992,0.2460937 v -0.375 H 18.26557 v 0.375 c 0,0.070312 0,0.3984375 -0.257812,0.3984375 -0.257813,0 -0.257813,-0.328125 -0.257813,-0.4101562 v -1.21875 c 0,-0.375 0,-0.6445313 -0.316406,-0.9023438 -0.28125,-0.234375 -0.621094,-0.3398437 -1.03125,-0.3398437 -0.667969,0 -1.125,0.2460937 -1.125,0.6679687 0,0.2226563 0.152344,0.3398438 0.328125,0.3398438 0.1875,0 0.328125,-0.1289063 0.328125,-0.3164063 0,-0.1289062 -0.05859,-0.2695312 -0.246094,-0.328125 0.257813,-0.1757812 0.65625,-0.1757812 0.703125,-0.1757812 0.386719,0 0.808594,0.2578125 0.808594,0.84375 v 0.2226562 c -0.375,0.011719 -0.84375,0.035156 -1.347656,0.2226563 -0.632813,0.2226562 -0.820313,0.609375 -0.820313,0.9257812 0,0.5976563 0.726563,0.7734375 1.21875,0.7734375 0.5625,0 0.878907,-0.3164062 1.03125,-0.5859375 0.02344,0.28125 0.210938,0.5507813 0.539063,0.5507813 0,0 0.691406,0 0.691406,-0.6679688 z m -1.3125,-0.3515625 c 0,0.6679688 -0.585937,0.8554688 -0.890625,0.8554688 -0.363281,0 -0.691406,-0.234375 -0.691406,-0.5742188 0,-0.3867187 0.328125,-0.9257812 1.582031,-0.9726562 z m 4.321289,-1.640625 c 0,-0.2460937 -0.222656,-0.4453125 -0.550781,-0.4453125 -0.351563,0 -0.726563,0.2109375 -0.9375,0.7382813 h -0.01172 v -0.7382813 l -0.996094,0.070312 v 0.2578125 c 0.46875,0 0.527344,0.046875 0.527344,0.3867188 v 1.8046875 c 0,0.3046875 -0.07031,0.3046875 -0.527344,0.3046875 v 0.2460937 c 0.03516,0 0.515625,-0.023437 0.796875,-0.023437 l 0.902344,0.023437 v -0.2460937 h -0.140625 c -0.515625,0 -0.515625,-0.082031 -0.515625,-0.3164063 v -1.03125 c 0,-0.5859375 0.28125,-1.2890625 0.9375,-1.2890625 -0.05859,0.046875 -0.117187,0.140625 -0.117187,0.2578125 0,0.2226563 0.175781,0.3164063 0.316406,0.3164063 0.164062,0 0.316406,-0.1054688 0.316406,-0.3164063 z m 2.885742,1.7460938 V -5.3799141 H 24.17182 v 0.375 c 0,0.4804688 -0.222656,0.7382813 -0.492187,0.7382813 -0.480469,0 -0.480469,-0.5859375 -0.480469,-0.7148438 v -1.8867187 h 1.078125 V -7.1142891 H 23.199164 V -8.4033516 H 22.95307 c 0,0.6328125 -0.292968,1.3242188 -0.960937,1.3359375 v 0.1992188 h 0.65625 v 1.8867187 c 0,0.7734375 0.585937,0.9375 0.972656,0.9375 0.46875,0 0.785156,-0.3984375 0.785156,-0.9492187 z m 0,0"
         style="fill:#000000;fill-opacity:1;fill-rule:nonzero;stroke:none" />
      <path
         id="path4"
         d="M 8.2958438,-2.3769844 C 6.971625,-1.4512031 6.6200625,0.03707813 6.6200625,1.1034844 c 0,0.984375 0.2929688,2.5078125 1.6757813,3.4804687 0.058594,0 0.140625,0 0.140625,-0.082031 0,-0.046875 -0.023437,-0.058594 -0.070312,-0.1054688 -0.9257813,-0.8320312 -1.265625,-2.015625 -1.265625,-3.2929687 0,-1.87500002 0.7148437,-2.8007813 1.2890625,-3.3164063 0.023437,-0.023437 0.046875,-0.046875 0.046875,-0.082031 0,-0.082031 -0.082031,-0.082031 -0.1406255,-0.082032 z m 0,0"
         style="fill:#000000;fill-opacity:1;fill-rule:nonzero;stroke:none" />
      <path
         id="path5"
         d="m 9.7899844,2.4159844 c -0.035156,0.082031 -0.070312,0.2578125 -0.070312,0.28125 0,0.1523437 0.1171875,0.2226562 0.234375,0.2226562 0.1289066,0 0.2343756,-0.09375 0.2695316,-0.1523437 0.03516,-0.058594 0.09375,-0.2929688 0.128906,-0.4335938 0.03516,-0.1289062 0.105469,-0.4570312 0.152344,-0.6328125 0.03516,-0.1523437 0.08203,-0.3046875 0.117188,-0.4570312 0.08203,-0.29296877 0.09375,-0.35156252 0.292968,-0.63281252 0.199219,-0.28125 0.527344,-0.64453125 1.042969,-0.64453125 0.410156,0 0.410156,0.36328125 0.410156,0.4921875 0,0.421875 -0.292968,1.19531247 -0.410156,1.48828127 -0.07031,0.1875 -0.105469,0.2578125 -0.105469,0.375 0,0.3632812 0.304688,0.5976562 0.667969,0.5976562 0.691406,0 1.007813,-0.9609375 1.007813,-1.0664062 0,-0.09375 -0.09375,-0.09375 -0.117188,-0.09375 -0.09375,0 -0.105469,0.046875 -0.128906,0.1171875 -0.164064,0.5625 -0.46875,0.84375 -0.738282,0.84375 -0.152343,0 -0.175782,-0.09375 -0.175782,-0.2460938 0,-0.1523437 0.03516,-0.2460937 0.152344,-0.5625 0.09375,-0.2109375 0.375,-0.94921872 0.375,-1.34765622 0,-0.66796875 -0.539062,-0.78515625 -0.902344,-0.78515625 -0.585936,0 -0.972656,0.3515625 -1.183593,0.6328125 -0.04687,-0.48046875 -0.457032,-0.6328125 -0.75,-0.6328125 -0.2929686,0 -0.4570311,0.2109375 -0.5507811,0.375 -0.1523438,0.2578125 -0.2460938,0.65625 -0.2460938,0.69140625 0,0.0820313 0.09375,0.0820313 0.1171875,0.0820313 0.09375,0 0.1054688,-0.0117188 0.1523438,-0.19921875 0.1054687,-0.421875 0.234375,-0.76171875 0.5156246,-0.76171875 0.175781,0 0.222656,0.15234375 0.222656,0.33984375 0,0.140625 -0.05859,0.3984375 -0.105469,0.5859375 -0.04687,0.18749997 -0.117186,0.46874997 -0.152343,0.62109377 z m 5.5458986,0.3164062 c 0,0.3867188 -0.07031,0.8320313 -0.550781,1.2773438 -0.02344,0.035156 -0.04687,0.058594 -0.04687,0.09375 0,0.046875 0.05859,0.09375 0.09375,0.09375 0.105468,0 0.691406,-0.5625 0.691406,-1.3945313 0,-0.421875 -0.164063,-0.75 -0.480469,-0.75 -0.234375,0 -0.398437,0.1757813 -0.398437,0.3867188 0,0.234375 0.152343,0.4101562 0.398437,0.4101562 0.164063,0 0.28125,-0.1171875 0.292969,-0.1171875 z m 3.946289,-4.2421875 c 0,-0.1171875 -0.09375,-0.2578125 -0.28125,-0.2578125 -0.199219,0 -0.386719,0.1875 -0.386719,0.375 0,0.1171875 0.08203,0.2695313 0.28125,0.2695313 0.1875,0 0.386719,-0.1875 0.386719,-0.3867188 z m -1.476563,4.6992188 c -0.117187,0.4804687 -0.492187,0.890625 -0.902343,0.890625 -0.08203,0 -0.175782,-0.011719 -0.246094,-0.046875 0.175781,-0.082031 0.234375,-0.2460938 0.234375,-0.3515625 0,-0.1640625 -0.128906,-0.2578125 -0.269531,-0.2578125 -0.222657,0 -0.398438,0.1875 -0.398438,0.4101562 0,0.2695313 0.269531,0.4335938 0.691406,0.4335938 0.421875,0 1.230469,-0.2460938 1.453125,-1.1015625 l 0.621094,-2.49609377 c 0.02344,-0.0703125 0.03516,-0.140625 0.03516,-0.234375 0,-0.38671875 -0.328125,-0.65625 -0.738281,-0.65625 -0.785156,0 -1.230469,0.9609375 -1.230469,1.06640625 0,0.0820313 0.105469,0.0820313 0.128907,0.0820313 0.08203,0 0.08203,-0.0117188 0.128906,-0.1171875 0.175781,-0.41015625 0.539062,-0.84375 0.949219,-0.84375 0.175781,0 0.234375,0.1171875 0.234375,0.33984375 0,0.0820313 -0.01172,0.17578125 -0.02344,0.2109375 z m 3.164063,-0.4570313 c 0,0.3867188 -0.07031,0.8320313 -0.550781,1.2773438 -0.02344,0.035156 -0.04687,0.058594 -0.04687,0.09375 0,0.046875 0.05859,0.09375 0.09375,0.09375 0.105468,0 0.691406,-0.5625 0.691406,-1.3945313 0,-0.421875 -0.164063,-0.75 -0.480469,-0.75 -0.234375,0 -0.398437,0.1757813 -0.398437,0.3867188 0,0.234375 0.152343,0.4101562 0.398437,0.4101562 0.164063,0 0.28125,-0.1171875 0.292969,-0.1171875 z m 4.696289,-0.8671875 c 0.644531,-0.65625 0.902344,-1.59374997 0.902344,-1.66406247 0,-0.09375 -0.08203,-0.09375 -0.117188,-0.09375 -0.09375,0 -0.09375,0.0234375 -0.140625,0.17578125 -0.128906,0.45703125 -0.363281,0.89062502 -0.65625,1.26562502 0,-0.1054688 -0.02344,-0.57421877 -0.03516,-0.63281252 -0.105469,-0.69140625 -0.621094,-1.13671875 -1.324219,-1.13671875 -1.019531,0 -2.003906,0.94921875 -2.003906,1.92187497 0,0.6445313 0.46875,1.21875 1.277344,1.21875 0.644531,0 1.21875,-0.2929687 1.605468,-0.5976562 0.164063,0.515625 0.515625,0.5976562 0.726563,0.5976562 0.410156,0 0.65625,-0.3398437 0.65625,-0.4921875 0,-0.082031 -0.08203,-0.082031 -0.117188,-0.082031 -0.09375,0 -0.105468,0.035156 -0.117187,0.070312 -0.105469,0.2695312 -0.316406,0.3046875 -0.398438,0.3046875 -0.09375,0 -0.222656,0 -0.257812,-0.8554688 z m -0.539063,0.234375 c -0.679687,0.5625 -1.277343,0.6210938 -1.535156,0.6210938 -0.46875,0 -0.726562,-0.3046875 -0.726562,-0.7734375 0,-0.1992188 0.105468,-0.96093752 0.46875,-1.44140627 0.316406,-0.421875 0.714843,-0.5390625 0.960937,-0.5390625 0.550781,0 0.714844,0.5390625 0.773438,0.97265625 0.03516,0.30468752 0.02344,0.79687502 0.05859,1.16015622 z m 0,0"
         style="fill:#000000;fill-opacity:1;fill-rule:nonzero;stroke:none" />
      <path
         id="path6"
         d="m 29.972602,2.8847344 h -0.210938 c -0.01172,0.09375 -0.05859,0.3984375 -0.140625,0.4570312 -0.03516,0.023437 -0.457031,0.023437 -0.527344,0.023437 H 28.10932 c 0.328125,-0.2460937 0.703125,-0.515625 0.996094,-0.7148437 0.457031,-0.3164063 0.867188,-0.5976563 0.867188,-1.125 0,-0.64453127 -0.597657,-0.99609377 -1.3125,-0.99609377 -0.667969,0 -1.160157,0.38671875 -1.160157,0.87890627 0,0.2578125 0.210938,0.3046875 0.28125,0.3046875 0.140625,0 0.292969,-0.09375 0.292969,-0.2929688 0,-0.1875 -0.128906,-0.28125 -0.28125,-0.2929687 0.140625,-0.23437502 0.433594,-0.37500002 0.761719,-0.37500002 0.480469,0 0.890625,0.28125002 0.890625,0.77343752 0,0.421875 -0.292969,0.7382812 -0.679688,1.0546875 l -1.207031,1.03125 c -0.04687,0.046875 -0.05859,0.046875 -0.05859,0.082031 v 0.1523438 h 2.308594 z m 0,0"
         style="fill:#000000;fill-opacity:1;fill-rule:nonzero;stroke:none" />
      <path
         id="path7"
         d="m 31.563422,-2.3769844 c -0.05859,0 -0.140625,0 -0.140625,0.082031 0,0.035156 0.02344,0.058594 0.07031,0.1054687 0.597657,0.5507813 1.265625,1.48828128 1.265625,3.2929688 0,1.453125 -0.457031,2.5546875 -1.207031,3.234375 -0.117187,0.1171875 -0.128906,0.1289062 -0.128906,0.1640625 0,0.035156 0.02344,0.082031 0.09375,0.082031 0.08203,0 0.75,-0.4570312 1.207031,-1.3242187 0.304688,-0.5859375 0.503906,-1.3359375 0.503906,-2.15625 0,-0.98437502 -0.292968,-2.5078125 -1.664062,-3.4804688 z m 0,0"
         style="fill:#000000;fill-opacity:1;fill-rule:nonzero;stroke:none" />
      <path
         id="path8"
         d="m 40.832953,-2.2978828 h 2.777344 c 0.140625,0 0.328125,0 0.328125,-0.1992188 0,-0.1992187 -0.1875,-0.1992187 -0.328125,-0.1992187 h -2.777344 v -2.7890625 c 0,-0.1289063 0,-0.328125 -0.199219,-0.328125 -0.199218,0 -0.199218,0.1992187 -0.199218,0.328125 v 2.7890625 h -2.789063 c -0.140625,0 -0.328125,0 -0.328125,0.1992187 0,0.1992188 0.1875,0.1992188 0.328125,0.1992188 h 2.789063 v 2.80078124 c 0,0.12890625 0,0.328125 0.199218,0.328125 0.199219,0 0.199219,-0.19921875 0.199219,-0.328125 z m 0,0"
         style="fill:#000000;fill-opacity:1;fill-rule:nonzero;stroke:none" />
      <path
         id="path9"
         d="m 55.941352,-6.0361641 c 0.09375,-0.3632812 0.105468,-0.4570312 0.855468,-0.4570312 0.234375,0 0.316407,0 0.316407,-0.1992188 0,-0.1171875 -0.09375,-0.1171875 -0.269532,-0.1171875 h -1.3125 c -0.257812,0 -0.269531,0 -0.386718,0.1992188 l -3.632813,5.67187499 -0.773437,-5.63671879 c -0.03516,-0.234375 -0.05859,-0.234375 -0.316407,-0.234375 h -1.359375 c -0.1875,0 -0.304687,0 -0.304687,0.1992188 0,0.1171875 0.09375,0.1171875 0.292969,0.1171875 0.128906,0 0.304687,0.011719 0.421875,0.011719 0.164062,0.023437 0.222656,0.058594 0.222656,0.1640625 0,0.035156 -0.01172,0.070312 -0.03516,0.1875 l -1.265625,5.0742188 c -0.105469,0.39843749 -0.269532,0.71484374 -1.078125,0.74999999 -0.04687,0 -0.175782,0 -0.175782,0.1875 0,0.08203125 0.05859,0.1171875 0.140625,0.1171875 0.316407,0 0.667969,-0.03515625 0.996094,-0.03515625 0.339844,0 0.691406,0.03515625 1.019531,0.03515625 0.04687,0 0.175782,0 0.175782,-0.19921875 0,-0.10546875 -0.105469,-0.10546875 -0.175782,-0.10546875 -0.5625,-0.0117188 -0.679687,-0.2109375 -0.679687,-0.4453125 0,-0.0703125 0.01172,-0.1171875 0.04687,-0.22265625 l 1.347656,-5.43750004 h 0.01172 l 0.855469,6.17578129 c 0.02344,0.12890625 0.03516,0.234375 0.152343,0.234375 0.105469,0 0.175782,-0.10546875 0.222657,-0.17578125 l 4.019531,-6.30468754 h 0.01172 l -1.429688,5.70703129 c -0.09375,0.38671875 -0.117187,0.46875 -0.902344,0.46875 -0.164062,0 -0.28125,0 -0.28125,0.1875 0,0.1171875 0.128907,0.1171875 0.152344,0.1171875 0.28125,0 0.960938,-0.03515625 1.230469,-0.03515625 0.410156,0 0.84375,0.03515625 1.253906,0.03515625 0.05859,0 0.1875,0 0.1875,-0.19921875 0,-0.10546875 -0.09375,-0.10546875 -0.28125,-0.10546875 -0.363281,0 -0.644531,0 -0.644531,-0.1875 0,-0.0351563 0,-0.0585938 0.04687,-0.234375 z m 0,0"
         style="fill:#000000;fill-opacity:1;fill-rule:nonzero;stroke:none" />
      <path
         id="path10"
         d="m 62.603461,6.3564141 c 0.01172,0.011719 0.105469,0.1054687 0.117187,0.1054687 h 0.222657 c 0.02344,0 0.105468,-0.011719 0.105468,-0.09375 0,-0.046875 -0.02344,-0.058594 -0.03516,-0.09375 -0.363277,-0.3632812 -0.90234,-0.9023437 -1.523433,-2.0039062 -1.066407,-1.9101563 -1.464844,-4.37109379 -1.464844,-6.7617188 0,-4.4179687 1.253906,-7.0195312 2.988281,-8.7890628 0.03516,-0.02344 0.03516,-0.05859 0.03516,-0.08203 0,-0.09375 -0.07031,-0.09375 -0.1875,-0.09375 -0.128906,0 -0.152343,0 -0.246093,0.08203 -0.9375,0.820313 -2.003907,2.2031253 -2.695313,4.3007816 -0.421875,1.3125 -0.65625,2.9179687 -0.65625,4.5703125 0,2.36718746 0.433594,5.0273437 1.992188,7.3476562 0.269531,0.3867188 0.632812,0.796875 0.632812,0.796875 0.105469,0.1289063 0.246094,0.28125 0.328125,0.3515625 z m 0,0"
         style="fill:#000000;fill-opacity:1;fill-rule:nonzero;stroke:none" />
      <path
         id="path11"
         d="m 66.350531,-6.3760078 c 0,-0.234375 0,-0.2578125 -0.234375,-0.2578125 -0.609375,0.6328125 -1.488281,0.6328125 -1.804687,0.6328125 v 0.3164062 c 0.199219,0 0.785156,0 1.300781,-0.2578125 v 5.15625004 c 0,0.3515625 -0.03516,0.48046875 -0.925781,0.48046875 h -0.316406 v 0.3046875 c 0.351562,-0.03515625 1.207031,-0.03515625 1.605468,-0.03515625 0.398438,0 1.265625,0 1.617188,0.03515625 v -0.3046875 h -0.316406 c -0.902344,0 -0.925782,-0.1171875 -0.925782,-0.48046875 z m 0,0"
         style="fill:#000000;fill-opacity:1;fill-rule:nonzero;stroke:none" />
      <path
         id="path12"
         d="m 77.178656,-2.2978828 c 0.175782,0 0.351563,0 0.351563,-0.1992188 0,-0.1992187 -0.175781,-0.1992187 -0.351563,-0.1992187 h -5.390625 c -0.164062,0 -0.339843,0 -0.339843,0.1992187 0,0.1992188 0.175781,0.1992188 0.339843,0.1992188 z m 0,0"
         style="fill:#000000;fill-opacity:1;fill-rule:nonzero;stroke:none" />
      <path
         id="path13"
         d="m 86.905219,-5.7549141 c 0.09375,-0.4101562 0.28125,-0.7148437 1.078125,-0.7382812 0.04687,0 0.164062,-0.011719 0.164062,-0.1992188 0,-0.011719 0,-0.1171875 -0.128906,-0.1171875 -0.328125,0 -0.679687,0.035156 -1.019531,0.035156 -0.339844,0 -0.703125,-0.035156 -1.03125,-0.035156 -0.05859,0 -0.175781,0 -0.175781,0.1992188 0,0.1171875 0.09375,0.1171875 0.175781,0.1171875 0.5625,0.011719 0.679687,0.2109375 0.679687,0.4335937 0,0.035156 -0.02344,0.1757813 -0.03516,0.2109375 l -0.890625,3.5507813 c -0.339844,1.33593749 -1.488281,2.20312499 -2.484375,2.20312499 -0.679687,0 -1.21875,-0.43359375 -1.21875,-1.28906249 0,-0.023437 0,-0.3398438 0.117188,-0.7734375 l 0.960937,-3.8789063 c 0.09375,-0.3632812 0.105469,-0.4570312 0.832031,-0.4570312 0.269532,0 0.339844,0 0.339844,-0.1992188 0,-0.1171875 -0.105469,-0.1171875 -0.140625,-0.1171875 -0.269531,0 -0.996094,0.035156 -1.265625,0.035156 -0.292969,0 -0.996094,-0.035156 -1.289062,-0.035156 -0.08203,0 -0.1875,0 -0.1875,0.1992188 0,0.1171875 0.09375,0.1171875 0.28125,0.1171875 0.01172,0 0.210937,0 0.375,0.011719 0.175781,0.023437 0.269531,0.035156 0.269531,0.1640625 0,0.058594 -0.105469,0.4804688 -0.175781,0.703125 l -0.210938,0.8789063 c -0.09375,0.3867187 -0.574219,2.2734375 -0.609375,2.4609375 -0.07031,0.28125 -0.07031,0.4335937 -0.07031,0.5742187 0,1.21875004 0.902343,1.92187504 1.957031,1.92187504 1.253906,0 2.484375,-1.125 2.8125,-2.44921874 z m 0,0"
         style="fill:#000000;fill-opacity:1;fill-rule:nonzero;stroke:none" />
      <path
         id="path14"
         d="m 94.02143,-4.1142891 v -0.2460937 h -0.140625 c -0.46875,0 -0.515625,-0.070312 -0.585938,-0.2695313 l -1.699219,-4.3007812 c -0.03516,-0.1054688 -0.05859,-0.1523438 -0.199218,-0.1523438 -0.128907,0 -0.152344,0.046875 -0.1875,0.1523438 l -1.617188,4.0898437 c -0.07031,0.1640625 -0.1875,0.4804688 -0.808594,0.4804688 v 0.2460937 c 0.234375,-0.023437 0.480469,-0.023437 0.714844,-0.023437 0.28125,0 0.796875,0.023437 0.832031,0.023437 v -0.2460937 c -0.304687,0 -0.492187,-0.140625 -0.492187,-0.3398438 0,-0.058594 0,-0.070312 0.03516,-0.140625 l 0.328125,-0.8554687 h 1.980469 l 0.410156,1.0195312 c 0.01172,0.035156 0.03516,0.082031 0.03516,0.1171875 0,0.1992188 -0.386718,0.1992188 -0.574218,0.1992188 v 0.2460937 l 1.042968,-0.023437 c 0.328125,0 0.855469,0.011719 0.925782,0.023437 z m -1.933594,-1.828125 h -1.792969 l 0.902344,-2.2734375 z m 7.772461,0.1523438 v -0.2460938 c -0.04687,0 -0.5625,0.023437 -0.902344,0.023437 -0.363281,0 -0.890625,0 -1.253906,-0.023437 v 0.2460938 h 0.257812 c 0.703125,0 0.703125,0.09375 0.703125,0.328125 v 0.4453125 c 0,0.1523437 0,0.421875 -0.398437,0.6210937 -0.339844,0.1640625 -0.738281,0.1640625 -0.820313,0.1640625 -0.796875,0 -2.085937,-0.4453125 -2.085937,-2.2617187 0,-1.8632813 1.324219,-2.2734375 2.015625,-2.2734375 0.679687,0 1.511719,0.4570312 1.699219,1.6640625 0.01172,0.082031 0.07031,0.082031 0.128906,0.082031 0.117187,0 0.117187,-0.046875 0.117187,-0.1875 v -1.6289062 c 0,-0.1171875 0,-0.1757813 -0.09375,-0.1757813 -0.02344,0 -0.05859,0 -0.117187,0.082031 l -0.375,0.5273437 c -0.339844,-0.3515625 -0.832031,-0.609375 -1.441406,-0.609375 -1.453125,0 -2.671875,1.125 -2.671875,2.5195313 0,1.3710937 1.183593,2.5195312 2.683593,2.5195312 0.386719,0 1.160157,-0.070312 1.488282,-0.5625 0.117187,0.1875 0.375,0.421875 0.445312,0.421875 0.08203,0 0.08203,-0.082031 0.08203,-0.1757812 v -1.1953125 c 0,-0.3046875 0.07031,-0.3046875 0.539063,-0.3046875 z m 6.093753,-2.8359375 v -0.2460938 c -0.21094,0.011719 -0.48047,0.023437 -0.67969,0.023437 -0.28125,0 -0.79688,-0.023437 -0.84375,-0.023437 v 0.2460938 c 0.25781,0 0.48047,0.1171875 0.48047,0.328125 0,0.046875 -0.0117,0.09375 -0.0234,0.140625 l -1.45312,3.375 -1.5,-3.5390625 c -0.0469,-0.082031 -0.0469,-0.09375 -0.0469,-0.1171875 0,-0.1875 0.36328,-0.1875 0.55078,-0.1875 v -0.2460938 l -1.03125,0.023437 c -0.35156,0 -0.8789,-0.023437 -0.90234,-0.023437 v 0.2460938 h 0.1289 c 0.375,0 0.49219,0.035156 0.58594,0.2460937 l 1.80469,4.2421875 c 0.0469,0.1171875 0.0703,0.1640625 0.19922,0.1640625 0.0703,0 0.14062,0 0.21094,-0.1523437 l 1.72265,-4.0429688 c 0.0937,-0.2109375 0.25781,-0.4453125 0.79688,-0.4570312 z m 0,0"
         style="fill:#000000;fill-opacity:1;fill-rule:nonzero;stroke:none" />
      <path
         id="path15"
         d="m 89.852484,-2.3769844 c -1.324218,0.9257813 -1.675781,2.41406253 -1.675781,3.4804688 0,0.984375 0.292969,2.5078125 1.675781,3.4804687 0.05859,0 0.140625,0 0.140625,-0.082031 0,-0.046875 -0.02344,-0.058594 -0.07031,-0.1054688 -0.925781,-0.8320312 -1.265625,-2.015625 -1.265625,-3.2929687 0,-1.87500002 0.714844,-2.8007813 1.289062,-3.3164063 0.02344,-0.023437 0.04687,-0.046875 0.04687,-0.082031 0,-0.082031 -0.08203,-0.082031 -0.140625,-0.082031 z m 0,0"
         style="fill:#000000;fill-opacity:1;fill-rule:nonzero;stroke:none" />
      <path
         id="path16"
         d="m 93.517523,2.2870781 c -0.03516,0.140625 -0.09375,0.375 -0.09375,0.4101563 0,0.1523437 0.128907,0.2226562 0.234375,0.2226562 0.128907,0 0.234375,-0.09375 0.269532,-0.1523437 0.03516,-0.058594 0.09375,-0.2929688 0.128906,-0.4335938 0.03516,-0.1289062 0.117187,-0.4570312 0.152344,-0.6328125 0.04687,-0.1523437 0.08203,-0.3046875 0.117187,-0.4570312 0.08203,-0.30468752 0.08203,-0.31640627 0.222656,-0.53906252 0.222657,-0.33984375 0.5625,-0.73828125 1.113282,-0.73828125 0.386718,0 0.410156,0.328125 0.410156,0.4921875 0,0.421875 -0.304688,1.19531247 -0.410156,1.48828127 -0.08203,0.1875 -0.105469,0.2578125 -0.105469,0.375 0,0.3632812 0.304687,0.5976562 0.65625,0.5976562 0.703125,0 1.007812,-0.9609375 1.007812,-1.0664062 0,-0.09375 -0.09375,-0.09375 -0.105468,-0.09375 -0.105469,0 -0.105469,0.046875 -0.140625,0.1171875 -0.152344,0.5625 -0.457032,0.84375 -0.738282,0.84375 -0.140625,0 -0.175781,-0.09375 -0.175781,-0.2460938 0,-0.1523437 0.03516,-0.2460937 0.164063,-0.5625 0.08203,-0.2109375 0.375,-0.94921872 0.375,-1.34765622 0,-0.10546875 0,-0.3984375 -0.257813,-0.59765625 -0.128906,-0.09375 -0.328125,-0.1875 -0.65625,-0.1875 -0.621094,0 -1.007812,0.41015625 -1.230469,0.703125 -0.05859,-0.59765625 -0.550781,-0.703125 -0.902343,-0.703125 -0.585938,0 -0.972657,0.3515625 -1.183594,0.6328125 -0.04687,-0.48046875 -0.457031,-0.6328125 -0.75,-0.6328125 -0.292969,0 -0.457031,0.2109375 -0.550781,0.375 -0.152344,0.2578125 -0.246094,0.65625 -0.246094,0.69140625 0,0.0820313 0.09375,0.0820313 0.117187,0.0820313 0.09375,0 0.105469,-0.0117188 0.152344,-0.19921875 0.105469,-0.421875 0.234375,-0.76171875 0.515625,-0.76171875 0.175781,0 0.222656,0.15234375 0.222656,0.33984375 0,0.140625 -0.05859,0.3984375 -0.105468,0.5859375 C 91.67768,1.0800469 91.607367,1.3612969 91.572211,1.5136406 l -0.222656,0.9023438 c -0.03516,0.082031 -0.07031,0.2578125 -0.07031,0.28125 0,0.1523437 0.117188,0.2226562 0.234375,0.2226562 0.128906,0 0.234375,-0.09375 0.269531,-0.1523437 0.03516,-0.058594 0.09375,-0.2929688 0.128907,-0.4335938 0.03516,-0.1289062 0.105468,-0.4570312 0.152343,-0.6328125 0.03516,-0.1523437 0.08203,-0.3046875 0.117188,-0.4570312 0.08203,-0.29296877 0.09375,-0.35156252 0.292969,-0.63281252 0.199218,-0.28125 0.527343,-0.64453125 1.042968,-0.64453125 0.410157,0 0.410157,0.36328125 0.410157,0.4921875 0,0.17578125 -0.01172,0.26953125 -0.117188,0.65624997 z m 5.516602,0.4453125 c 0,0.3867188 -0.07031,0.8320313 -0.550781,1.2773438 -0.02344,0.035156 -0.04687,0.058594 -0.04687,0.09375 0,0.046875 0.05859,0.09375 0.09375,0.09375 0.105469,0 0.691406,-0.5625 0.691406,-1.3945313 0,-0.421875 -0.164062,-0.75 -0.480469,-0.75 -0.234375,0 -0.398437,0.1757813 -0.398437,0.3867188 0,0.234375 0.152344,0.4101562 0.398437,0.4101562 0.164063,0 0.28125,-0.1171875 0.292969,-0.1171875 z m 3.149415,-4.2421875 c 0,-0.1054687 -0.082,-0.2578125 -0.28125,-0.2578125 -0.1875,0 -0.38672,0.1757813 -0.38672,0.375 0,0.1171875 0.082,0.2695313 0.26953,0.2695313 0.21094,0 0.39844,-0.1992188 0.39844,-0.3867188 z m -1.42969,3.5390625 c -0.0234,0.09375 -0.0586,0.1757813 -0.0586,0.2929688 0,0.328125 0.28125,0.5976562 0.66797,0.5976562 0.6914,0 0.99609,-0.9609375 0.99609,-1.0664062 0,-0.09375 -0.082,-0.09375 -0.10547,-0.09375 -0.10547,0 -0.10547,0.046875 -0.14062,0.1171875 -0.15235,0.5625 -0.45703,0.84375 -0.73828,0.84375 -0.14063,0 -0.17579,-0.082031 -0.17579,-0.2460938 0,-0.1523437 0.0586,-0.2929687 0.11719,-0.4453125 0.0703,-0.1875 0.14063,-0.375 0.22266,-0.5507812 0.0586,-0.1640625 0.3164,-0.80859377 0.33984,-0.89062502 0.0234,-0.0703125 0.0469,-0.15234375 0.0469,-0.22265625 0,-0.328125 -0.28125,-0.5859375 -0.66797,-0.5859375 -0.69141,0 -1.00781,0.94921875 -1.00781,1.06640625 0,0.0820313 0.0937,0.0820313 0.11718,0.0820313 0.0937,0 0.10547,-0.0351563 0.12891,-0.10546875 0.17578,-0.59765625 0.48047,-0.85546875 0.73828,-0.85546875 0.11719,0 0.17578,0.05859375 0.17578,0.24609375 0,0.1640625 -0.0352,0.26953125 -0.21094,0.703125 z m 3.46289,0.703125 c 0,0.3867188 -0.0703,0.8320313 -0.55078,1.2773438 -0.0234,0.035156 -0.0469,0.058594 -0.0469,0.09375 0,0.046875 0.0586,0.09375 0.0937,0.09375 0.10546,0 0.6914,-0.5625 0.6914,-1.3945313 0,-0.421875 -0.16406,-0.75 -0.48047,-0.75 -0.23437,0 -0.39843,0.1757813 -0.39843,0.3867188 0,0.234375 0.15234,0.4101562 0.39843,0.4101562 0.16407,0 0.28125,-0.1171875 0.29297,-0.1171875 z m 4.69629,-0.8671875 c 0.64453,-0.65625 0.90235,-1.59374997 0.90235,-1.66406247 0,-0.09375 -0.082,-0.09375 -0.11719,-0.09375 -0.0937,0 -0.0937,0.0234375 -0.14063,0.17578125 -0.1289,0.45703125 -0.36328,0.89062502 -0.65625,1.26562502 0,-0.1054688 -0.0234,-0.57421877 -0.0352,-0.63281252 -0.10547,-0.69140625 -0.6211,-1.13671875 -1.32422,-1.13671875 -1.01953,0 -2.00391,0.94921875 -2.00391,1.92187497 0,0.6445313 0.46875,1.21875 1.27735,1.21875 0.64453,0 1.21875,-0.2929687 1.60546,-0.5976562 0.16407,0.515625 0.51563,0.5976562 0.72657,0.5976562 0.41015,0 0.65625,-0.3398437 0.65625,-0.4921875 0,-0.082031 -0.082,-0.082031 -0.11719,-0.082031 -0.0937,0 -0.10547,0.035156 -0.11719,0.070312 -0.10547,0.2695312 -0.3164,0.3046875 -0.39844,0.3046875 -0.0937,0 -0.22265,0 -0.25781,-0.8554688 z m -0.53906,0.234375 c -0.67969,0.5625 -1.27734,0.6210938 -1.53516,0.6210938 -0.46875,0 -0.72656,-0.3046875 -0.72656,-0.7734375 0,-0.1992188 0.10547,-0.96093752 0.46875,-1.44140627 0.31641,-0.421875 0.71484,-0.5390625 0.96094,-0.5390625 0.55078,0 0.71484,0.5390625 0.77344,0.97265625 0.0352,0.30468752 0.0234,0.79687502 0.0586,1.16015622 z m 0,0"
         style="fill:#000000;fill-opacity:1;fill-rule:nonzero;stroke:none" />
      <path
         id="path17"
         d="m 112.27338,0.68160938 c 0,-0.15234375 -0.0117,-0.15234375 -0.17578,-0.15234375 -0.35156,0.31640625 -0.90234,0.31640625 -1.00781,0.31640625 h -0.082 V 1.0683281 h 0.082 c 0.11719,0 0.43359,-0.011719 0.72656,-0.14062497 V 3.4120781 c 0,0.1640625 0,0.2109375 -0.52734,0.2109375 h -0.2461 v 0.2226563 c 0.26954,-0.023437 0.71485,-0.023437 1.00782,-0.023437 0.28125,0 0.72656,0 0.99609,0.023437 V 3.6230156 h -0.24609 c -0.52735,0 -0.52735,-0.046875 -0.52735,-0.2109375 z m 0,0"
         style="fill:#000000;fill-opacity:1;fill-rule:nonzero;stroke:none" />
      <path
         id="path18"
         d="m 114.81342,-2.3769844 c -0.0586,0 -0.14062,0 -0.14062,0.082031 0,0.035156 0.0234,0.058594 0.0703,0.1054687 0.59766,0.5507813 1.26562,1.48828128 1.26562,3.2929688 0,1.453125 -0.45703,2.5546875 -1.20703,3.234375 -0.11718,0.1171875 -0.1289,0.1289062 -0.1289,0.1640625 0,0.035156 0.0234,0.082031 0.0937,0.082031 0.082,0 0.75,-0.4570312 1.20703,-1.3242187 0.30469,-0.5859375 0.5039,-1.3359375 0.5039,-2.15625 0,-0.98437502 -0.29296,-2.5078125 -1.66406,-3.4804688 z m 4.95117,0 c -1.32421,0.9257813 -1.67578,2.41406253 -1.67578,3.4804688 0,0.984375 0.29297,2.5078125 1.67578,3.4804687 0.0586,0 0.14063,0 0.14063,-0.082031 0,-0.046875 -0.0234,-0.058594 -0.0703,-0.1054688 -0.92578,-0.8320312 -1.26563,-2.015625 -1.26563,-3.2929687 0,-1.87500002 0.71485,-2.8007813 1.28906,-3.3164063 0.0234,-0.023437 0.0469,-0.046875 0.0469,-0.082031 0,-0.082031 -0.082,-0.082031 -0.14063,-0.082031 z m 0,0"
         style="fill:#000000;fill-opacity:1;fill-rule:nonzero;stroke:none" />
      <path
         id="path19"
         d="m 121.26459,2.4159844 c -0.0352,0.082031 -0.0703,0.2578125 -0.0703,0.28125 0,0.1523437 0.11719,0.2226562 0.23438,0.2226562 0.1289,0 0.23437,-0.09375 0.26953,-0.1523437 0.0352,-0.058594 0.0937,-0.2929688 0.1289,-0.4335938 0.0352,-0.1289062 0.10547,-0.4570312 0.15235,-0.6328125 0.0352,-0.1523437 0.082,-0.3046875 0.11719,-0.4570312 0.082,-0.29296877 0.0937,-0.35156252 0.29296,-0.63281252 0.19922,-0.28125 0.52735,-0.64453125 1.04297,-0.64453125 0.41016,0 0.41016,0.36328125 0.41016,0.4921875 0,0.421875 -0.29297,1.19531247 -0.41016,1.48828127 -0.0703,0.1875 -0.10547,0.2578125 -0.10547,0.375 0,0.3632812 0.30469,0.5976562 0.66797,0.5976562 0.69141,0 1.00782,-0.9609375 1.00782,-1.0664062 0,-0.09375 -0.0937,-0.09375 -0.11719,-0.09375 -0.0937,0 -0.10547,0.046875 -0.12891,0.1171875 -0.16406,0.5625 -0.46875,0.84375 -0.73828,0.84375 -0.15234,0 -0.17578,-0.09375 -0.17578,-0.2460938 0,-0.1523437 0.0352,-0.2460937 0.15234,-0.5625 0.0937,-0.2109375 0.375,-0.94921872 0.375,-1.34765622 0,-0.66796875 -0.53906,-0.78515625 -0.90234,-0.78515625 -0.58594,0 -0.97266,0.3515625 -1.18359,0.6328125 -0.0469,-0.48046875 -0.45704,-0.6328125 -0.75,-0.6328125 -0.29297,0 -0.45704,0.2109375 -0.55079,0.375 -0.15234,0.2578125 -0.24609,0.65625 -0.24609,0.69140625 0,0.0820313 0.0937,0.0820313 0.11719,0.0820313 0.0937,0 0.10547,-0.0117188 0.15234,-0.19921875 0.10547,-0.421875 0.23438,-0.76171875 0.51563,-0.76171875 0.17578,0 0.22265,0.15234375 0.22265,0.33984375 0,0.140625 -0.0586,0.3984375 -0.10547,0.5859375 -0.0469,0.18749997 -0.11718,0.46874997 -0.15234,0.62109377 z m 5.54297,0.3164062 c 0,0.3867188 -0.0703,0.8320313 -0.55078,1.2773438 -0.0234,0.035156 -0.0469,0.058594 -0.0469,0.09375 0,0.046875 0.0586,0.09375 0.0937,0.09375 0.10547,0 0.6914,-0.5625 0.6914,-1.3945313 0,-0.421875 -0.16406,-0.75 -0.48047,-0.75 -0.23437,0 -0.39843,0.1757813 -0.39843,0.3867188 0,0.234375 0.15234,0.4101562 0.39843,0.4101562 0.16407,0 0.28125,-0.1171875 0.29297,-0.1171875 z m 3.94629,-4.2421875 c 0,-0.1171875 -0.0937,-0.2578125 -0.28125,-0.2578125 -0.19922,0 -0.38672,0.1875 -0.38672,0.375 0,0.1171875 0.082,0.2695313 0.28125,0.2695313 0.1875,0 0.38672,-0.1875 0.38672,-0.3867188 z m -1.47656,4.6992188 c -0.11719,0.4804687 -0.49219,0.890625 -0.90234,0.890625 -0.082,0 -0.17579,-0.011719 -0.2461,-0.046875 0.17578,-0.082031 0.23438,-0.2460938 0.23438,-0.3515625 0,-0.1640625 -0.12891,-0.2578125 -0.26953,-0.2578125 -0.22266,0 -0.39844,0.1875 -0.39844,0.4101562 0,0.2695313 0.26953,0.4335938 0.6914,0.4335938 0.42188,0 1.23047,-0.2460938 1.45313,-1.1015625 l 0.62109,-2.49609377 c 0.0234,-0.0703125 0.0352,-0.140625 0.0352,-0.234375 0,-0.38671875 -0.32813,-0.65625 -0.73828,-0.65625 -0.78516,0 -1.23047,0.9609375 -1.23047,1.06640625 0,0.0820313 0.10547,0.0820313 0.12891,0.0820313 0.082,0 0.082,-0.0117188 0.1289,-0.1171875 0.17578,-0.41015625 0.53906,-0.84375 0.94922,-0.84375 0.17578,0 0.23438,0.1171875 0.23438,0.33984375 0,0.0820313 -0.0117,0.17578125 -0.0234,0.2109375 z m 3.16699,-0.4570313 c 0,0.3867188 -0.0703,0.8320313 -0.55078,1.2773438 -0.0234,0.035156 -0.0469,0.058594 -0.0469,0.09375 0,0.046875 0.0586,0.09375 0.0937,0.09375 0.10546,0 0.6914,-0.5625 0.6914,-1.3945313 0,-0.421875 -0.16406,-0.75 -0.48047,-0.75 -0.23437,0 -0.39843,0.1757813 -0.39843,0.3867188 0,0.234375 0.15234,0.4101562 0.39843,0.4101562 0.16407,0 0.28125,-0.1171875 0.29297,-0.1171875 z m 4.69336,-0.8671875 c 0.64453,-0.65625 0.90234,-1.59374997 0.90234,-1.66406247 0,-0.09375 -0.082,-0.09375 -0.11718,-0.09375 -0.0937,0 -0.0937,0.0234375 -0.14063,0.17578125 -0.1289,0.45703125 -0.36328,0.89062502 -0.65625,1.26562502 0,-0.1054688 -0.0234,-0.57421877 -0.0352,-0.63281252 -0.10547,-0.69140625 -0.6211,-1.13671875 -1.32422,-1.13671875 -1.01953,0 -2.00391,0.94921875 -2.00391,1.92187497 0,0.6445313 0.46875,1.21875 1.27734,1.21875 0.64454,0 1.21875,-0.2929687 1.60547,-0.5976562 0.16407,0.515625 0.51563,0.5976562 0.72657,0.5976562 0.41015,0 0.65625,-0.3398437 0.65625,-0.4921875 0,-0.082031 -0.082,-0.082031 -0.11719,-0.082031 -0.0937,0 -0.10547,0.035156 -0.11719,0.070312 -0.10547,0.2695312 -0.31641,0.3046875 -0.39844,0.3046875 -0.0937,0 -0.22265,0 -0.25781,-0.8554688 z m -0.53906,0.234375 c -0.67969,0.5625 -1.27735,0.6210938 -1.53516,0.6210938 -0.46875,0 -0.72656,-0.3046875 -0.72656,-0.7734375 0,-0.1992188 0.10547,-0.96093752 0.46875,-1.44140627 0.31641,-0.421875 0.71484,-0.5390625 0.96094,-0.5390625 0.55078,0 0.71484,0.5390625 0.77343,0.97265625 0.0352,0.30468752 0.0234,0.79687502 0.0586,1.16015622 z m 0,0"
         style="fill:#000000;fill-opacity:1;fill-rule:nonzero;stroke:none" />
      <path
         id="path20"
         d="m 141.44428,2.8847344 h -0.21094 c -0.0117,0.09375 -0.0586,0.3984375 -0.14062,0.4570312 -0.0352,0.023437 -0.45703,0.023437 -0.52734,0.023437 H 139.581 c 0.32813,-0.2460937 0.70313,-0.515625 0.99609,-0.7148437 0.45704,-0.3164063 0.86719,-0.5976563 0.86719,-1.125 0,-0.64453127 -0.59765,-0.99609377 -1.3125,-0.99609377 -0.66797,0 -1.16015,0.38671875 -1.16015,0.87890627 0,0.2578125 0.21093,0.3046875 0.28125,0.3046875 0.14062,0 0.29296,-0.09375 0.29296,-0.2929688 0,-0.1875 -0.1289,-0.28125 -0.28125,-0.2929687 0.14063,-0.23437502 0.4336,-0.37500002 0.76172,-0.37500002 0.48047,0 0.89063,0.28125002 0.89063,0.77343752 0,0.421875 -0.29297,0.7382812 -0.67969,1.0546875 l -1.20703,1.03125 c -0.0469,0.046875 -0.0586,0.046875 -0.0586,0.082031 v 0.1523438 h 2.30859 z m 0,0"
         style="fill:#000000;fill-opacity:1;fill-rule:nonzero;stroke:none" />
      <path
         id="path21"
         d="m 143.0351,-2.3769844 c -0.0586,0 -0.14062,0 -0.14062,0.082031 0,0.035156 0.0234,0.058594 0.0703,0.1054687 0.59766,0.5507813 1.26562,1.48828128 1.26562,3.2929688 0,1.453125 -0.45703,2.5546875 -1.20703,3.234375 -0.11718,0.1171875 -0.1289,0.1289062 -0.1289,0.1640625 0,0.035156 0.0234,0.082031 0.0937,0.082031 0.082,0 0.75,-0.4570312 1.20703,-1.3242187 0.30469,-0.5859375 0.5039,-1.3359375 0.5039,-2.15625 0,-0.98437502 -0.29296,-2.5078125 -1.66406,-3.4804688 z m 0,0"
         style="fill:#000000;fill-opacity:1;fill-rule:nonzero;stroke:none" />
      <path
         id="path22"
         d="m 150.16303,-2.5029609 c 0,-2.859375 -0.66797,-5.8945313 -2.63672,-8.1328121 -0.14062,-0.164063 -0.5039,-0.550782 -0.75,-0.761719 -0.0586,-0.05859 -0.082,-0.05859 -0.21093,-0.05859 -0.10547,0 -0.1875,0 -0.1875,0.09375 0,0.04687 0.0351,0.08203 0.0586,0.105469 0.33984,0.351562 0.87891,0.902344 1.48828,1.9921873 1.07813,1.9101563 1.47656,4.3710938 1.47656,6.7617188 0,4.3242187 -1.19531,6.9609375 -2.98828,8.7890625 -0.0234,0.023437 -0.0351,0.046875 -0.0351,0.082031 0,0.09375 0.082,0.09375 0.1875,0.09375 0.1289,0 0.15234,0 0.23437,-0.082031 0.94922,-0.8085938 2.01563,-2.1914063 2.70703,-4.3007813 0.4336,-1.35937499 0.65625,-2.97656249 0.65625,-4.5820312 z m 0,0"
         style="fill:#000000;fill-opacity:1;fill-rule:nonzero;stroke:none" />
      <path
         id="path23"
         d="m 161.44819,-3.2236641 c 0.14062,-0.070312 0.19922,-0.1289062 0.19922,-0.2226562 0,-0.1054688 -0.0352,-0.1640625 -0.19922,-0.234375 l -5.48438,-2.5898438 c -0.14062,-0.070312 -0.1875,-0.070312 -0.19922,-0.070312 -0.1289,0 -0.19921,0.09375 -0.19921,0.1992188 0,0.1289062 0.0703,0.1757812 0.1875,0.2226562 l 5.22656,2.4609375 -5.21485,2.46093754 c -0.19921,0.09375 -0.19921,0.1640625 -0.19921,0.234375 0,0.10546875 0.082,0.19921875 0.19921,0.19921875 0.0234,0 0.0469,0 0.17579,-0.0703125 z m -0.15235,4.5820313 c 0.17579,0 0.35157,0 0.35157,-0.1992188 0,-0.19921871 -0.21094,-0.19921871 -0.36328,-0.19921871 h -5.36719 c -0.15235,0 -0.35156,0 -0.35156,0.19921871 0,0.1992188 0.17578,0.1992188 0.33984,0.1992188 z m 0,0"
         style="fill:#000000;fill-opacity:1;fill-rule:nonzero;stroke:none" />
      <path
         id="path24"
         d="m 169.5019,-6.0478828 c 0.0703,-0.28125 0.10547,-0.3398438 0.23437,-0.3632813 0.082,-0.023437 0.41016,-0.023437 0.6211,-0.023437 1.00781,0 1.45312,0.035156 1.45312,0.8203125 0,0.140625 -0.0351,0.5273438 -0.082,0.796875 0,0.035156 -0.0234,0.1523438 -0.0234,0.1875 0,0.058594 0.0234,0.1289063 0.11719,0.1289063 0.10547,0 0.12891,-0.082031 0.15234,-0.234375 l 0.26954,-1.734375 c 0.0117,-0.035156 0.0117,-0.140625 0.0117,-0.1640625 0,-0.1054688 -0.0937,-0.1054688 -0.26953,-0.1054688 h -5.51953 c -0.24609,0 -0.25781,0 -0.3164,0.1992188 l -0.59766,1.7460937 c -0.0117,0.023437 -0.0703,0.1640625 -0.0703,0.1757813 0,0.070312 0.0586,0.1171875 0.1289,0.1171875 0.0937,0 0.10547,-0.046875 0.16407,-0.2109375 0.53906,-1.546875 0.79687,-1.7226563 2.27343,-1.7226563 h 0.38672 c 0.28125,0 0.28125,0.035156 0.28125,0.1171875 0,0.058594 -0.0351,0.1757813 -0.0469,0.2109375 l -1.32422,5.32031254 c -0.0937,0.36328125 -0.12891,0.48046875 -1.19531,0.48046875 -0.35157,0 -0.41016,0 -0.41016,0.1875 0,0.1171875 0.10547,0.1171875 0.16406,0.1171875 0.26953,0 0.55078,-0.0234375 0.82031,-0.0234375 0.28125,0 0.5625,-0.01171875 0.84375,-0.01171875 0.28125,0 0.5625,0.01171875 0.83204,0.01171875 0.28125,0 0.58593,0.0234375 0.86718,0.0234375 0.0937,0 0.21094,0 0.21094,-0.19921875 0,-0.10546875 -0.082,-0.10546875 -0.33984,-0.10546875 -0.2461,0 -0.375,0 -0.63282,-0.0234375 -0.29296,-0.0351563 -0.36328,-0.0585938 -0.36328,-0.22265625 0,-0.0117188 0,-0.0585938 0.0352,-0.2109375 z m 0,0"
         style="fill:#000000;fill-opacity:1;fill-rule:nonzero;stroke:none" />
      <path
         id="path25"
         d="m 176.35737,-5.4033516 c 0,-0.6328125 -0.4336,-1.21875 -1.13672,-1.3828125 l -1.03125,-0.234375 c -0.60938,-0.140625 -0.79688,-0.5859375 -0.79688,-0.8671875 0,-0.46875 0.42188,-0.9023437 1.05469,-0.9023437 0.9375,0 1.34766,0.6210937 1.46484,1.359375 0.0117,0.1054687 0.0117,0.140625 0.11719,0.140625 0.11719,0 0.11719,-0.046875 0.11719,-0.1875 v -1.359375 c 0,-0.1171875 0,-0.1757813 -0.0937,-0.1757813 -0.0586,0 -0.0703,0.011719 -0.11719,0.09375 l -0.25781,0.3867188 c -0.45703,-0.46875 -1.03125,-0.4804688 -1.23047,-0.4804688 -0.87891,0 -1.5,0.6210938 -1.5,1.3242188 0,0.3984375 0.17578,0.6914062 0.42188,0.9257812 0.28125,0.28125 0.5039,0.328125 1.26562,0.4921875 0.63281,0.140625 0.77344,0.1640625 0.97266,0.3632813 0.16406,0.1640625 0.30468,0.3867187 0.30468,0.703125 0,0.4804687 -0.39843,0.9726562 -1.07812,0.9726562 -0.66797,0 -1.60547,-0.2578125 -1.65234,-1.3125 -0.0117,-0.1054687 -0.0117,-0.1523437 -0.11719,-0.1523437 -0.11719,0 -0.11719,0.046875 -0.11719,0.1875 v 1.3476562 c 0,0.1289063 0,0.1875 0.0937,0.1875 0.0586,0 0.0703,-0.023437 0.11719,-0.082031 0.0586,-0.082031 0.19922,-0.3046875 0.25781,-0.3984375 0.43359,0.3867187 0.97266,0.4804687 1.41797,0.4804687 0.92578,0 1.52344,-0.6914062 1.52344,-1.4296877 z m 3.11133,0.4101563 v -0.3867188 h -0.23438 v 0.375 c 0,0.4804688 -0.22266,0.7382813 -0.49219,0.7382813 -0.48047,0 -0.48047,-0.5859375 -0.48047,-0.7148438 v -1.8867187 h 1.07813 v -0.2460938 h -1.07813 v -1.2890625 h -0.24609 c 0,0.6328125 -0.29297,1.3242188 -0.96094,1.3359375 v 0.1992188 h 0.65625 v 1.8867187 c 0,0.7734375 0.58594,0.9375 0.97266,0.9375 0.46875,0 0.78516,-0.3984375 0.78516,-0.9492187 z m 4.29199,0.2460937 v -0.375 h -0.2461 v 0.375 c 0,0.070312 0,0.3984375 -0.25781,0.3984375 -0.25781,0 -0.25781,-0.328125 -0.25781,-0.4101562 v -1.21875 c 0,-0.375 0,-0.6445313 -0.31641,-0.9023438 -0.28125,-0.234375 -0.62109,-0.3398437 -1.03125,-0.3398437 -0.66797,0 -1.125,0.2460937 -1.125,0.6679687 0,0.2226563 0.15235,0.3398438 0.32813,0.3398438 0.1875,0 0.32812,-0.1289063 0.32812,-0.3164063 0,-0.1289062 -0.0586,-0.2695312 -0.24609,-0.328125 0.25781,-0.1757812 0.65625,-0.1757812 0.70312,-0.1757812 0.38672,0 0.8086,0.2578125 0.8086,0.84375 v 0.2226562 c -0.375,0.011719 -0.84375,0.035156 -1.34766,0.2226563 -0.63281,0.2226562 -0.82031,0.609375 -0.82031,0.9257812 0,0.5976563 0.72656,0.7734375 1.21875,0.7734375 0.5625,0 0.87891,-0.3164062 1.03125,-0.5859375 0.0234,0.28125 0.21094,0.5507813 0.53906,0.5507813 0,0 0.69141,0 0.69141,-0.6679688 z m -1.3125,-0.3515625 c 0,0.6679688 -0.58594,0.8554688 -0.89063,0.8554688 -0.36328,0 -0.6914,-0.234375 -0.6914,-0.5742188 0,-0.3867187 0.32812,-0.9257812 1.58203,-0.9726562 z m 4.32129,-1.640625 c 0,-0.2460937 -0.22266,-0.4453125 -0.55078,-0.4453125 -0.35157,0 -0.72657,0.2109375 -0.9375,0.7382813 h -0.0117 v -0.7382813 l -0.9961,0.070312 v 0.2578125 c 0.46875,0 0.52735,0.046875 0.52735,0.3867188 v 1.8046875 c 0,0.3046875 -0.0703,0.3046875 -0.52735,0.3046875 v 0.2460937 c 0.0352,0 0.51563,-0.023437 0.79688,-0.023437 l 0.90234,0.023437 V -4.3603833 H 185.832 c -0.51563,0 -0.51563,-0.082031 -0.51563,-0.3164063 v -1.03125 c 0,-0.5859375 0.28125,-1.2890625 0.9375,-1.2890625 -0.0586,0.046875 -0.11719,0.140625 -0.11719,0.2578125 0,0.2226563 0.17579,0.3164063 0.31641,0.3164063 0.16406,0 0.31641,-0.1054688 0.31641,-0.3164063 z m 2.88574,1.7460938 v -0.3867188 h -0.23438 v 0.375 c 0,0.4804688 -0.22265,0.7382813 -0.49218,0.7382813 -0.48047,0 -0.48047,-0.5859375 -0.48047,-0.7148438 v -1.8867187 h 1.07812 v -0.2460938 h -1.07812 v -1.2890625 h -0.2461 c 0,0.6328125 -0.29296,1.3242188 -0.96093,1.3359375 v 0.1992188 h 0.65625 v 1.8867187 c 0,0.7734375 0.58593,0.9375 0.97265,0.9375 0.46875,0 0.78516,-0.3984375 0.78516,-0.9492187 z m 0,0"
         style="fill:#000000;fill-opacity:1;fill-rule:nonzero;stroke:none" />
      <path
         id="path26"
         d="m 173.54194,-2.3769844 c -1.32422,0.9257813 -1.67578,2.41406253 -1.67578,3.4804688 0,0.984375 0.29297,2.5078125 1.67578,3.4804687 0.0586,0 0.14062,0 0.14062,-0.082031 0,-0.046875 -0.0234,-0.058594 -0.0703,-0.1054688 -0.92578,-0.8320312 -1.26562,-2.015625 -1.26562,-3.2929687 0,-1.87500002 0.71484,-2.8007813 1.28906,-3.3164063 0.0234,-0.023437 0.0469,-0.046875 0.0469,-0.082031 0,-0.082031 -0.082,-0.082031 -0.14062,-0.082031 z m 0,0"
         style="fill:#000000;fill-opacity:1;fill-rule:nonzero;stroke:none" />
      <path
         id="path27"
         d="m 177.20698,2.2870781 c -0.0352,0.140625 -0.0937,0.375 -0.0937,0.4101563 0,0.1523437 0.1289,0.2226562 0.23437,0.2226562 0.12891,0 0.23438,-0.09375 0.26953,-0.1523437 0.0352,-0.058594 0.0937,-0.2929688 0.12891,-0.4335938 0.0352,-0.1289062 0.11719,-0.4570312 0.15234,-0.6328125 0.0469,-0.1523437 0.082,-0.3046875 0.11719,-0.4570312 0.082,-0.30468752 0.082,-0.31640627 0.22266,-0.53906252 0.22265,-0.33984375 0.5625,-0.73828125 1.11328,-0.73828125 0.38672,0 0.41015,0.328125 0.41015,0.4921875 0,0.421875 -0.30468,1.19531247 -0.41015,1.48828127 -0.082,0.1875 -0.10547,0.2578125 -0.10547,0.375 0,0.3632812 0.30469,0.5976562 0.65625,0.5976562 0.70312,0 1.00781,-0.9609375 1.00781,-1.0664062 0,-0.09375 -0.0937,-0.09375 -0.10547,-0.09375 -0.10547,0 -0.10547,0.046875 -0.14062,0.1171875 -0.15235,0.5625 -0.45703,0.84375 -0.73828,0.84375 -0.14063,0 -0.17578,-0.09375 -0.17578,-0.2460938 0,-0.1523437 0.0351,-0.2460937 0.16406,-0.5625 0.082,-0.2109375 0.375,-0.94921872 0.375,-1.34765622 0,-0.10546875 0,-0.3984375 -0.25781,-0.59765625 -0.12891,-0.09375 -0.32813,-0.1875 -0.65625,-0.1875 -0.6211,0 -1.00782,0.41015625 -1.23047,0.703125 -0.0586,-0.59765625 -0.55078,-0.703125 -0.90235,-0.703125 -0.58593,0 -0.97265,0.3515625 -1.18359,0.6328125 -0.0469,-0.48046875 -0.45703,-0.6328125 -0.75,-0.6328125 -0.29297,0 -0.45703,0.2109375 -0.55078,0.375 -0.15235,0.2578125 -0.2461,0.65625 -0.2461,0.69140625 0,0.0820313 0.0937,0.0820313 0.11719,0.0820313 0.0937,0 0.10547,-0.0117188 0.15235,-0.19921875 0.10546,-0.421875 0.23437,-0.76171875 0.51562,-0.76171875 0.17578,0 0.22266,0.15234375 0.22266,0.33984375 0,0.140625 -0.0586,0.3984375 -0.10547,0.5859375 -0.0469,0.18749997 -0.11719,0.46874997 -0.15235,0.62109377 l -0.22265,0.9023438 c -0.0352,0.082031 -0.0703,0.2578125 -0.0703,0.28125 0,0.1523437 0.11718,0.2226562 0.23437,0.2226562 0.12891,0 0.23438,-0.09375 0.26953,-0.1523437 0.0352,-0.058594 0.0937,-0.2929688 0.12891,-0.4335938 0.0352,-0.1289062 0.10547,-0.4570312 0.15234,-0.6328125 0.0352,-0.1523438 0.082,-0.3046875 0.11719,-0.4570313 0.082,-0.29296872 0.0937,-0.35156247 0.29297,-0.63281247 0.19922,-0.28125 0.52734,-0.64453125 1.04297,-0.64453125 0.41015,0 0.41015,0.36328125 0.41015,0.4921875 0,0.17578125 -0.0117,0.26953125 -0.11718,0.65625002 z m 5.5166,0.4453125 c 0,0.3867188 -0.0703,0.8320313 -0.55078,1.2773438 -0.0234,0.035156 -0.0469,0.058594 -0.0469,0.09375 0,0.046875 0.0586,0.09375 0.0937,0.09375 0.10547,0 0.69141,-0.5625 0.69141,-1.3945313 0,-0.421875 -0.16406,-0.75 -0.48047,-0.75 -0.23438,0 -0.39844,0.1757813 -0.39844,0.3867188 0,0.234375 0.15235,0.4101562 0.39844,0.4101562 0.16406,0 0.28125,-0.1171875 0.29297,-0.1171875 z m 3.14941,-4.2421875 c 0,-0.1054687 -0.082,-0.2578125 -0.28125,-0.2578125 -0.1875,0 -0.38672,0.1757813 -0.38672,0.375 0,0.1171875 0.082,0.2695313 0.26953,0.2695313 0.21094,0 0.39844,-0.1992188 0.39844,-0.3867188 z m -1.42969,3.5390625 c -0.0234,0.09375 -0.0586,0.1757813 -0.0586,0.2929688 0,0.328125 0.28125,0.5976562 0.66797,0.5976562 0.69141,0 0.99609,-0.9609375 0.99609,-1.0664062 0,-0.09375 -0.082,-0.09375 -0.10547,-0.09375 -0.10546,0 -0.10546,0.046875 -0.14062,0.1171875 -0.15234,0.5625 -0.45703,0.84375 -0.73828,0.84375 -0.14063,0 -0.17578,-0.082031 -0.17578,-0.2460938 0,-0.1523437 0.0586,-0.2929687 0.11718,-0.4453125 0.0703,-0.1875 0.14063,-0.375 0.22266,-0.5507812 0.0586,-0.1640625 0.31641,-0.80859377 0.33984,-0.89062502 0.0234,-0.0703125 0.0469,-0.15234375 0.0469,-0.22265625 0,-0.328125 -0.28125,-0.5859375 -0.66797,-0.5859375 -0.69141,0 -1.00781,0.94921875 -1.00781,1.06640625 0,0.0820313 0.0937,0.0820313 0.11719,0.0820313 0.0937,0 0.10546,-0.0351563 0.1289,-0.10546875 0.17578,-0.59765625 0.48047,-0.85546875 0.73828,-0.85546875 0.11719,0 0.17578,0.05859375 0.17578,0.24609375 0,0.1640625 -0.0351,0.26953125 -0.21093,0.703125 z m 3.4629,0.703125 c 0,0.3867188 -0.0703,0.8320313 -0.55079,1.2773438 -0.0234,0.035156 -0.0469,0.058594 -0.0469,0.09375 0,0.046875 0.0586,0.09375 0.0937,0.09375 0.10547,0 0.69141,-0.5625 0.69141,-1.3945313 0,-0.421875 -0.16407,-0.75 -0.48047,-0.75 -0.23438,0 -0.39844,0.1757813 -0.39844,0.3867188 0,0.234375 0.15234,0.4101562 0.39844,0.4101562 0.16406,0 0.28125,-0.1171875 0.29297,-0.1171875 z m 4.69628,-0.8671875 c 0.64454,-0.65625 0.90235,-1.59374997 0.90235,-1.66406247 0,-0.09375 -0.082,-0.09375 -0.11719,-0.09375 -0.0937,0 -0.0937,0.0234375 -0.14062,0.17578125 -0.12891,0.45703125 -0.36329,0.89062502 -0.65625,1.26562502 0,-0.1054688 -0.0234,-0.57421877 -0.0352,-0.63281252 -0.10547,-0.69140625 -0.62109,-1.13671875 -1.32422,-1.13671875 -1.01953,0 -2.00391,0.94921875 -2.00391,1.92187497 0,0.6445313 0.46875,1.21875 1.27735,1.21875 0.64453,0 1.21875,-0.2929687 1.60547,-0.5976562 0.16406,0.515625 0.51562,0.5976562 0.72656,0.5976562 0.41016,0 0.65625,-0.3398437 0.65625,-0.4921875 0,-0.082031 -0.082,-0.082031 -0.11719,-0.082031 -0.0937,0 -0.10547,0.035156 -0.11719,0.070312 -0.10546,0.2695312 -0.3164,0.3046875 -0.39843,0.3046875 -0.0937,0 -0.22266,0 -0.25782,-0.8554688 z m -0.53906,0.234375 c -0.67969,0.5625 -1.27734,0.6210938 -1.53515,0.6210938 -0.46875,0 -0.72657,-0.3046875 -0.72657,-0.7734375 0,-0.1992188 0.10547,-0.96093752 0.46875,-1.44140627 0.31641,-0.421875 0.71485,-0.5390625 0.96094,-0.5390625 0.55078,0 0.71484,0.5390625 0.77344,0.97265625 0.0352,0.30468752 0.0234,0.79687502 0.0586,1.16015622 z m 0,0"
         style="fill:#000000;fill-opacity:1;fill-rule:nonzero;stroke:none" />
      <path
         id="path28"
         d="m 195.96284,0.68160938 c 0,-0.15234375 -0.0117,-0.15234375 -0.17579,-0.15234375 -0.35156,0.31640625 -0.90234,0.31640625 -1.00781,0.31640625 h -0.082 V 1.0683281 h 0.082 c 0.11719,0 0.4336,-0.011719 0.72656,-0.14062497 V 3.4120781 c 0,0.1640625 0,0.2109375 -0.52734,0.2109375 h -0.24609 v 0.2226563 c 0.26953,-0.023437 0.71484,-0.023437 1.00781,-0.023437 0.28125,0 0.72656,0 0.99609,0.023437 V 3.6230156 h -0.24609 c -0.52734,0 -0.52734,-0.046875 -0.52734,-0.2109375 z m 0,0"
         style="fill:#000000;fill-opacity:1;fill-rule:nonzero;stroke:none" />
      <path
         id="path29"
         d="m 198.5058,-2.3769844 c -0.0586,0 -0.14062,0 -0.14062,0.082031 0,0.035156 0.0234,0.058594 0.0703,0.1054687 0.59766,0.5507813 1.26563,1.48828128 1.26563,3.2929688 0,1.453125 -0.45703,2.5546875 -1.20703,3.234375 -0.11719,0.1171875 -0.12891,0.1289062 -0.12891,0.1640625 0,0.035156 0.0234,0.082031 0.0937,0.082031 0.082,0 0.75,-0.4570312 1.20703,-1.3242187 0.30469,-0.5859375 0.50391,-1.3359375 0.50391,-2.15625 0,-0.98437502 -0.29297,-2.5078125 -1.66407,-3.4804688 z m 0,0"
         style="fill:#000000;fill-opacity:1;fill-rule:nonzero;stroke:none" />
      <path
         id="path30"
         d="m 207.77534,-2.2978828 h 2.77734 c 0.14062,0 0.32812,0 0.32812,-0.1992188 0,-0.1992187 -0.1875,-0.1992187 -0.32812,-0.1992187 h -2.77734 v -2.7890625 c 0,-0.1289063 0,-0.328125 -0.19922,-0.328125 -0.19922,0 -0.19922,0.1992187 -0.19922,0.328125 v 2.7890625 h -2.78906 c -0.14063,0 -0.32813,0 -0.32813,0.1992187 0,0.1992188 0.1875,0.1992188 0.32813,0.1992188 h 2.78906 v 2.80078124 c 0,0.12890625 0,0.328125 0.19922,0.328125 0.19922,0 0.19922,-0.19921875 0.19922,-0.328125 z m 0,0"
         style="fill:#000000;fill-opacity:1;fill-rule:nonzero;stroke:none" />
      <path
         id="path31"
         d="m 215.71186,-3.9853828 h 0.9375 c 0.19922,0 0.30469,0 0.30469,-0.1992188 0,-0.1054687 -0.10547,-0.1054687 -0.28125,-0.1054687 h -0.87891 c 0.36328,-1.4179688 0.41016,-1.6171875 0.41016,-1.6757813 0,-0.1757812 -0.11719,-0.2695312 -0.29297,-0.2695312 -0.0234,0 -0.30469,0.011719 -0.39844,0.3515625 l -0.38672,1.59375 h -0.9375 c -0.19922,0 -0.29297,0 -0.29297,0.1875 0,0.1171875 0.0703,0.1171875 0.26953,0.1171875 h 0.87891 c -0.71484,2.8242187 -0.75,2.99999999 -0.75,3.17578124 0,0.5390625 0.375,0.9140625 0.91406,0.9140625 1.00782,0 1.58203,-1.45312504 1.58203,-1.53515624 0,-0.09375 -0.082,-0.09375 -0.11718,-0.09375 -0.0937,0 -0.10547,0.023437 -0.15235,0.140625 -0.43359,1.03124999 -0.96093,1.27734374 -1.30078,1.27734374 -0.19922,0 -0.30469,-0.12890625 -0.30469,-0.45703125 0,-0.24609375 0.0234,-0.31640625 0.0586,-0.48046879 z m 0,0"
         style="fill:#000000;fill-opacity:1;fill-rule:nonzero;stroke:none" />
      <path
         id="path32"
         d="m 222.81049,-4.1142891 v -0.2460937 h -0.14062 c -0.46875,0 -0.51563,-0.070312 -0.58594,-0.2695313 l -1.69922,-4.3007812 c -0.0352,-0.1054688 -0.0586,-0.1523438 -0.19922,-0.1523438 -0.1289,0 -0.15234,0.046875 -0.1875,0.1523438 l -1.61719,4.0898437 c -0.0703,0.1640625 -0.1875,0.4804688 -0.80859,0.4804688 v 0.2460937 c 0.23438,-0.023437 0.48047,-0.023437 0.71484,-0.023437 0.28125,0 0.79688,0.023437 0.83204,0.023437 v -0.2460937 c -0.30469,0 -0.49219,-0.140625 -0.49219,-0.3398438 0,-0.058594 0,-0.070312 0.0351,-0.140625 l 0.32813,-0.8554687 h 1.98047 l 0.41015,1.0195312 c 0.0117,0.035156 0.0352,0.082031 0.0352,0.1171875 0,0.1992188 -0.38672,0.1992188 -0.57422,0.1992188 v 0.2460937 l 1.04297,-0.023437 c 0.32813,0 0.85547,0.011719 0.92578,0.023437 z m -1.93359,-1.828125 h -1.79297 l 0.90234,-2.2734375 z m 7.78125,0.1523438 v -0.2460938 c -0.0469,0 -0.5625,0.023437 -0.90235,0.023437 -0.36328,0 -0.89062,0 -1.2539,-0.023437 v 0.2460938 h 0.25781 c 0.70313,0 0.70313,0.09375 0.70313,0.328125 v 0.4453125 c 0,0.1523437 0,0.421875 -0.39844,0.6210937 -0.33985,0.1640625 -0.73828,0.1640625 -0.82031,0.1640625 -0.79688,0 -2.08594,-0.4453125 -2.08594,-2.2617187 0,-1.8632813 1.32422,-2.2734375 2.01562,-2.2734375 0.67969,0 1.51172,0.4570312 1.69922,1.6640625 0.0117,0.082031 0.0703,0.082031 0.12891,0.082031 0.11719,0 0.11719,-0.046875 0.11719,-0.1875 v -1.6289062 c 0,-0.1171875 0,-0.1757813 -0.0937,-0.1757813 -0.0234,0 -0.0586,0 -0.11719,0.082031 l -0.375,0.5273437 c -0.33985,-0.3515625 -0.83203,-0.609375 -1.44141,-0.609375 -1.45312,0 -2.67187,1.125 -2.67187,2.5195313 0,1.3710937 1.18359,2.5195312 2.68359,2.5195312 0.38672,0 1.16016,-0.070312 1.48828,-0.5625 0.11719,0.1875 0.375,0.421875 0.44531,0.421875 0.082,0 0.082,-0.082031 0.082,-0.1757812 v -1.1953125 c 0,-0.3046875 0.0703,-0.3046875 0.53906,-0.3046875 z m 6.09375,-2.8359375 v -0.2460938 c -0.21094,0.011719 -0.48047,0.023437 -0.67969,0.023437 -0.28125,0 -0.79687,-0.023437 -0.84375,-0.023437 v 0.2460938 c 0.25781,0 0.48047,0.1171875 0.48047,0.328125 0,0.046875 -0.0117,0.09375 -0.0234,0.140625 l -1.45312,3.375 -1.5,-3.5390625 c -0.0469,-0.082031 -0.0469,-0.09375 -0.0469,-0.1171875 0,-0.1875 0.36328,-0.1875 0.55078,-0.1875 v -0.2460938 l -1.03125,0.023437 c -0.35156,0 -0.8789,-0.023437 -0.90234,-0.023437 v 0.2460938 h 0.12891 c 0.375,0 0.49218,0.035156 0.58593,0.2460937 l 1.80469,4.2421875 c 0.0469,0.1171875 0.0703,0.1640625 0.19922,0.1640625 0.0703,0 0.14062,0 0.21094,-0.1523437 l 1.72265,-4.0429688 c 0.0937,-0.2109375 0.25782,-0.4453125 0.79688,-0.4570312 z m 0,0"
         style="fill:#000000;fill-opacity:1;fill-rule:nonzero;stroke:none" />
      <path
         id="path33"
         d="m 219.72846,-2.3769844 c -1.32422,0.9257813 -1.67578,2.41406253 -1.67578,3.4804688 0,0.984375 0.29297,2.5078125 1.67578,3.4804687 0.0586,0 0.14063,0 0.14063,-0.082031 0,-0.046875 -0.0234,-0.058594 -0.0703,-0.1054688 -0.92578,-0.8320312 -1.26562,-2.015625 -1.26562,-3.2929687 0,-1.87500002 0.71484,-2.8007813 1.28906,-3.3164063 0.0234,-0.023437 0.0469,-0.046875 0.0469,-0.082031 0,-0.082031 -0.082,-0.082031 -0.14063,-0.082031 z m 0,0"
         style="fill:#000000;fill-opacity:1;fill-rule:nonzero;stroke:none" />
      <path
         id="path34"
         d="m 223.3935,2.2870781 c -0.0352,0.140625 -0.0937,0.375 -0.0937,0.4101563 0,0.1523437 0.12891,0.2226562 0.23438,0.2226562 0.1289,0 0.23437,-0.09375 0.26953,-0.1523437 0.0351,-0.058594 0.0937,-0.2929688 0.1289,-0.4335938 0.0352,-0.1289062 0.11719,-0.4570312 0.15235,-0.6328125 0.0469,-0.1523437 0.082,-0.3046875 0.11718,-0.4570312 0.082,-0.30468752 0.082,-0.31640627 0.22266,-0.53906252 0.22266,-0.33984375 0.5625,-0.73828125 1.11328,-0.73828125 0.38672,0 0.41016,0.328125 0.41016,0.4921875 0,0.421875 -0.30469,1.19531247 -0.41016,1.48828127 -0.082,0.1875 -0.10547,0.2578125 -0.10547,0.375 0,0.3632812 0.30469,0.5976562 0.65625,0.5976562 0.70313,0 1.00782,-0.9609375 1.00782,-1.0664062 0,-0.09375 -0.0937,-0.09375 -0.10547,-0.09375 -0.10547,0 -0.10547,0.046875 -0.14063,0.1171875 -0.15234,0.5625 -0.45703,0.84375 -0.73828,0.84375 -0.14062,0 -0.17578,-0.09375 -0.17578,-0.2460938 0,-0.1523437 0.0352,-0.2460937 0.16406,-0.5625 0.082,-0.2109375 0.375,-0.94921872 0.375,-1.34765622 0,-0.10546875 0,-0.3984375 -0.25781,-0.59765625 -0.12891,-0.09375 -0.32813,-0.1875 -0.65625,-0.1875 -0.62109,0 -1.00781,0.41015625 -1.23047,0.703125 -0.0586,-0.59765625 -0.55078,-0.703125 -0.90234,-0.703125 -0.58594,0 -0.97266,0.3515625 -1.1836,0.6328125 -0.0469,-0.48046875 -0.45703,-0.6328125 -0.75,-0.6328125 -0.29297,0 -0.45703,0.2109375 -0.55078,0.375 -0.15234,0.2578125 -0.24609,0.65625 -0.24609,0.69140625 0,0.0820313 0.0937,0.0820313 0.11719,0.0820313 0.0937,0 0.10546,-0.0117188 0.15234,-0.19921875 0.10547,-0.421875 0.23437,-0.76171875 0.51562,-0.76171875 0.17579,0 0.22266,0.15234375 0.22266,0.33984375 0,0.140625 -0.0586,0.3984375 -0.10547,0.5859375 -0.0469,0.18749997 -0.11719,0.46874997 -0.15234,0.62109377 l -0.22266,0.9023438 c -0.0351,0.082031 -0.0703,0.2578125 -0.0703,0.28125 0,0.1523437 0.11719,0.2226562 0.23437,0.2226562 0.12891,0 0.23438,-0.09375 0.26954,-0.1523437 0.0351,-0.058594 0.0937,-0.2929688 0.1289,-0.4335938 0.0352,-0.1289062 0.10547,-0.4570312 0.15235,-0.6328125 0.0351,-0.1523438 0.082,-0.3046875 0.11718,-0.4570313 0.082,-0.29296872 0.0937,-0.35156247 0.29297,-0.63281247 0.19922,-0.28125 0.52735,-0.64453125 1.04297,-0.64453125 0.41016,0 0.41016,0.36328125 0.41016,0.4921875 0,0.17578125 -0.0117,0.26953125 -0.11719,0.65625002 z m 5.51953,0.4453125 c 0,0.3867188 -0.0703,0.8320313 -0.55078,1.2773438 -0.0234,0.035156 -0.0469,0.058594 -0.0469,0.09375 0,0.046875 0.0586,0.09375 0.0937,0.09375 0.10546,0 0.6914,-0.5625 0.6914,-1.3945313 0,-0.421875 -0.16406,-0.75 -0.48047,-0.75 -0.23437,0 -0.39843,0.1757813 -0.39843,0.3867188 0,0.234375 0.15234,0.4101562 0.39843,0.4101562 0.16407,0 0.28125,-0.1171875 0.29297,-0.1171875 z m 3.14942,-4.2421875 c 0,-0.1054687 -0.082,-0.2578125 -0.28125,-0.2578125 -0.1875,0 -0.38672,0.1757813 -0.38672,0.375 0,0.1171875 0.082,0.2695313 0.26953,0.2695313 0.21094,0 0.39844,-0.1992188 0.39844,-0.3867188 z m -1.42969,3.5390625 c -0.0234,0.09375 -0.0586,0.1757813 -0.0586,0.2929688 0,0.328125 0.28125,0.5976562 0.66797,0.5976562 0.69141,0 0.9961,-0.9609375 0.9961,-1.0664062 0,-0.09375 -0.082,-0.09375 -0.10547,-0.09375 -0.10547,0 -0.10547,0.046875 -0.14063,0.1171875 -0.15234,0.5625 -0.45703,0.84375 -0.73828,0.84375 -0.14062,0 -0.17578,-0.082031 -0.17578,-0.2460938 0,-0.1523437 0.0586,-0.2929687 0.11719,-0.4453125 0.0703,-0.1875 0.14062,-0.375 0.22265,-0.5507812 0.0586,-0.1640625 0.31641,-0.80859377 0.33985,-0.89062502 0.0234,-0.0703125 0.0469,-0.15234375 0.0469,-0.22265625 0,-0.328125 -0.28125,-0.5859375 -0.66797,-0.5859375 -0.6914,0 -1.00781,0.94921875 -1.00781,1.06640625 0,0.0820313 0.0937,0.0820313 0.11719,0.0820313 0.0937,0 0.10547,-0.0351563 0.12891,-0.10546875 0.17578,-0.59765625 0.48046,-0.85546875 0.73828,-0.85546875 0.11718,0 0.17578,0.05859375 0.17578,0.24609375 0,0.1640625 -0.0352,0.26953125 -0.21094,0.703125 z m 3.45996,0.703125 c 0,0.3867188 -0.0703,0.8320313 -0.55078,1.2773438 -0.0234,0.035156 -0.0469,0.058594 -0.0469,0.09375 0,0.046875 0.0586,0.09375 0.0937,0.09375 0.10547,0 0.69141,-0.5625 0.69141,-1.3945313 0,-0.421875 -0.16406,-0.75 -0.48047,-0.75 -0.23437,0 -0.39844,0.1757813 -0.39844,0.3867188 0,0.234375 0.15235,0.4101562 0.39844,0.4101562 0.16406,0 0.28125,-0.1171875 0.29297,-0.1171875 z m 4.69629,-0.8671875 c 0.64453,-0.65625 0.90234,-1.59374997 0.90234,-1.66406247 0,-0.09375 -0.082,-0.09375 -0.11719,-0.09375 -0.0937,0 -0.0937,0.0234375 -0.14062,0.17578125 -0.12891,0.45703125 -0.36328,0.89062502 -0.65625,1.26562502 0,-0.1054688 -0.0234,-0.57421877 -0.0352,-0.63281252 -0.10547,-0.69140625 -0.62109,-1.13671875 -1.32422,-1.13671875 -1.01953,0 -2.0039,0.94921875 -2.0039,1.92187497 0,0.6445313 0.46875,1.21875 1.27734,1.21875 0.64453,0 1.21875,-0.2929687 1.60547,-0.5976562 0.16406,0.515625 0.51563,0.5976562 0.72656,0.5976562 0.41016,0 0.65625,-0.3398437 0.65625,-0.4921875 0,-0.082031 -0.082,-0.082031 -0.11718,-0.082031 -0.0937,0 -0.10547,0.035156 -0.11719,0.070312 -0.10547,0.2695312 -0.31641,0.3046875 -0.39844,0.3046875 -0.0937,0 -0.22266,0 -0.25781,-0.8554688 z m -0.53906,0.234375 c -0.67969,0.5625 -1.27735,0.6210938 -1.53516,0.6210938 -0.46875,0 -0.72656,-0.3046875 -0.72656,-0.7734375 0,-0.1992188 0.10547,-0.96093752 0.46875,-1.44140627 0.3164,-0.421875 0.71484,-0.5390625 0.96093,-0.5390625 0.55079,0 0.71485,0.5390625 0.77344,0.97265625 0.0352,0.30468752 0.0234,0.79687502 0.0586,1.16015622 z m 0,0"
         style="fill:#000000;fill-opacity:1;fill-rule:nonzero;stroke:none" />
      <path
         id="path35"
         d="m 242.15229,0.68160938 c 0,-0.15234375 -0.0117,-0.15234375 -0.17578,-0.15234375 -0.35156,0.31640625 -0.90235,0.31640625 -1.00781,0.31640625 h -0.082 V 1.0683281 h 0.082 c 0.11718,0 0.43359,-0.011719 0.72656,-0.14062497 V 3.4120781 c 0,0.1640625 0,0.2109375 -0.52735,0.2109375 h -0.24609 v 0.2226563 c 0.26953,-0.023437 0.71484,-0.023437 1.00781,-0.023437 0.28125,0 0.72657,0 0.9961,0.023437 V 3.6230156 h -0.2461 c -0.52734,0 -0.52734,-0.046875 -0.52734,-0.2109375 z m 0,0"
         style="fill:#000000;fill-opacity:1;fill-rule:nonzero;stroke:none" />
      <path
         id="path36"
         d="m 249.25092,1.2792656 c 0.10547,0 0.26953,0 0.26953,-0.1757812 0,-0.17578127 -0.15234,-0.17578127 -0.26953,-0.17578127 h -4.16015 c -0.10547,0 -0.28125,0 -0.28125,0.17578127 0,0.1757812 0.16406,0.1757812 0.28125,0.1757812 z m 0,0"
         style="fill:#000000;fill-opacity:1;fill-rule:nonzero;stroke:none" />
      <path
         id="path37"
         d="m 252.61713,-1.5801094 c 0,-0.1875 -0.0117,-0.1992187 -0.21093,-0.1992187 -0.44532,0.4335937 -1.07813,0.4453125 -1.35938,0.4453125 v 0.2460937 c 0.16406,0 0.62109,0 1.00781,-0.1875 v 3.5507813 c 0,0.234375 0,0.328125 -0.6914,0.328125 h -0.26953 v 0.2460937 c 0.1289,-0.011719 0.98437,-0.023437 1.24218,-0.023437 0.21094,0 1.08985,0.011719 1.24219,0.023437 V 2.6034844 h -0.25781 c -0.70313,0 -0.70313,-0.09375 -0.70313,-0.328125 z m 2.26758,-0.796875 c -0.0586,0 -0.14062,0 -0.14062,0.082031 0,0.035156 0.0234,0.058594 0.0703,0.1054687 0.59765,0.5507813 1.26562,1.48828128 1.26562,3.2929688 0,1.453125 -0.45703,2.5546875 -1.20703,3.234375 -0.11719,0.1171875 -0.1289,0.1289062 -0.1289,0.1640625 0,0.035156 0.0234,0.082031 0.0937,0.082031 0.082,0 0.75,-0.4570312 1.20703,-1.3242187 0.30468,-0.5859375 0.5039,-1.3359375 0.5039,-2.15625 0,-0.98437502 -0.29297,-2.5078125 -1.66406,-3.4804688 z m 4.95117,0 c -1.32422,0.9257813 -1.67578,2.41406253 -1.67578,3.4804688 0,0.984375 0.29297,2.5078125 1.67578,3.4804687 0.0586,0 0.14063,0 0.14063,-0.082031 0,-0.046875 -0.0234,-0.058594 -0.0703,-0.1054688 -0.92579,-0.8320312 -1.26563,-2.015625 -1.26563,-3.2929687 0,-1.87500002 0.71484,-2.8007813 1.28906,-3.3164063 0.0234,-0.023437 0.0469,-0.046875 0.0469,-0.082031 0,-0.082031 -0.082,-0.082031 -0.14063,-0.082031 z m 0,0"
         style="fill:#000000;fill-opacity:1;fill-rule:nonzero;stroke:none" />
      <path
         id="path38"
         d="m 263.50678,2.2870781 c -0.0351,0.140625 -0.0937,0.375 -0.0937,0.4101563 0,0.1523437 0.12891,0.2226562 0.23438,0.2226562 0.1289,0 0.23437,-0.09375 0.26953,-0.1523437 0.0351,-0.058594 0.0937,-0.2929688 0.1289,-0.4335938 0.0352,-0.1289062 0.11719,-0.4570312 0.15235,-0.6328125 0.0469,-0.1523437 0.082,-0.3046875 0.11719,-0.4570312 0.082,-0.30468752 0.082,-0.31640627 0.22265,-0.53906252 0.22266,-0.33984375 0.5625,-0.73828125 1.11328,-0.73828125 0.38672,0 0.41016,0.328125 0.41016,0.4921875 0,0.421875 -0.30469,1.19531247 -0.41016,1.48828127 -0.082,0.1875 -0.10547,0.2578125 -0.10547,0.375 0,0.3632812 0.30469,0.5976562 0.65625,0.5976562 0.70313,0 1.00782,-0.9609375 1.00782,-1.0664062 0,-0.09375 -0.0937,-0.09375 -0.10547,-0.09375 -0.10547,0 -0.10547,0.046875 -0.14063,0.1171875 -0.15234,0.5625 -0.45703,0.84375 -0.73828,0.84375 -0.14062,0 -0.17578,-0.09375 -0.17578,-0.2460938 0,-0.1523437 0.0352,-0.2460937 0.16406,-0.5625 0.082,-0.2109375 0.375,-0.94921872 0.375,-1.34765622 0,-0.10546875 0,-0.3984375 -0.25781,-0.59765625 -0.12891,-0.09375 -0.32812,-0.1875 -0.65625,-0.1875 -0.62109,0 -1.00781,0.41015625 -1.23047,0.703125 -0.0586,-0.59765625 -0.55078,-0.703125 -0.90234,-0.703125 -0.58594,0 -0.97266,0.3515625 -1.1836,0.6328125 -0.0469,-0.48046875 -0.45703,-0.6328125 -0.75,-0.6328125 -0.29296,0 -0.45703,0.2109375 -0.55078,0.375 -0.15234,0.2578125 -0.24609,0.65625 -0.24609,0.69140625 0,0.0820313 0.0937,0.0820313 0.11719,0.0820313 0.0937,0 0.10547,-0.0117188 0.15234,-0.19921875 0.10547,-0.421875 0.23438,-0.76171875 0.51563,-0.76171875 0.17578,0 0.22265,0.15234375 0.22265,0.33984375 0,0.140625 -0.0586,0.3984375 -0.10547,0.5859375 -0.0469,0.18749997 -0.11718,0.46874997 -0.15234,0.62109377 l -0.22266,0.9023438 c -0.0352,0.082031 -0.0703,0.2578125 -0.0703,0.28125 0,0.1523437 0.11719,0.2226562 0.23438,0.2226562 0.1289,0 0.23437,-0.09375 0.26953,-0.1523437 0.0352,-0.058594 0.0937,-0.2929688 0.1289,-0.4335938 0.0352,-0.1289062 0.10547,-0.4570312 0.15235,-0.6328125 0.0352,-0.1523438 0.082,-0.3046875 0.11718,-0.4570313 0.082,-0.29296872 0.0937,-0.35156247 0.29297,-0.63281247 0.19922,-0.28125 0.52735,-0.64453125 1.04297,-0.64453125 0.41016,0 0.41016,0.36328125 0.41016,0.4921875 0,0.17578125 -0.0117,0.26953125 -0.11719,0.65625002 z m 5.5166,0.4453125 c 0,0.3867188 -0.0703,0.8320313 -0.55078,1.2773438 -0.0234,0.035156 -0.0469,0.058594 -0.0469,0.09375 0,0.046875 0.0586,0.09375 0.0937,0.09375 0.10547,0 0.6914,-0.5625 0.6914,-1.3945313 0,-0.421875 -0.16406,-0.75 -0.48047,-0.75 -0.23437,0 -0.39843,0.1757813 -0.39843,0.3867188 0,0.234375 0.15234,0.4101562 0.39843,0.4101562 0.16407,0 0.28125,-0.1171875 0.29297,-0.1171875 z m 3.14942,-4.2421875 c 0,-0.1054687 -0.082,-0.2578125 -0.28125,-0.2578125 -0.1875,0 -0.38672,0.1757813 -0.38672,0.375 0,0.1171875 0.082,0.2695313 0.26953,0.2695313 0.21094,0 0.39844,-0.1992188 0.39844,-0.3867188 z m -1.42969,3.5390625 c -0.0234,0.09375 -0.0586,0.1757813 -0.0586,0.2929688 0,0.328125 0.28125,0.5976562 0.66796,0.5976562 0.69141,0 0.9961,-0.9609375 0.9961,-1.0664062 0,-0.09375 -0.082,-0.09375 -0.10547,-0.09375 -0.10547,0 -0.10547,0.046875 -0.14063,0.1171875 -0.15234,0.5625 -0.45703,0.84375 -0.73828,0.84375 -0.14062,0 -0.17578,-0.082031 -0.17578,-0.2460938 0,-0.1523437 0.0586,-0.2929687 0.11719,-0.4453125 0.0703,-0.1875 0.14062,-0.375 0.22266,-0.5507812 0.0586,-0.1640625 0.3164,-0.80859377 0.33984,-0.89062502 0.0234,-0.0703125 0.0469,-0.15234375 0.0469,-0.22265625 0,-0.328125 -0.28125,-0.5859375 -0.66796,-0.5859375 -0.69141,0 -1.00782,0.94921875 -1.00782,1.06640625 0,0.0820313 0.0937,0.0820313 0.11719,0.0820313 0.0937,0 0.10547,-0.0351563 0.12891,-0.10546875 0.17578,-0.59765625 0.48047,-0.85546875 0.73828,-0.85546875 0.11719,0 0.17578,0.05859375 0.17578,0.24609375 0,0.1640625 -0.0352,0.26953125 -0.21094,0.703125 z m 3.46289,0.703125 c 0,0.3867188 -0.0703,0.8320313 -0.55078,1.2773438 -0.0234,0.035156 -0.0469,0.058594 -0.0469,0.09375 0,0.046875 0.0586,0.09375 0.0937,0.09375 0.10547,0 0.69141,-0.5625 0.69141,-1.3945313 0,-0.421875 -0.16406,-0.75 -0.48047,-0.75 -0.23437,0 -0.39844,0.1757813 -0.39844,0.3867188 0,0.234375 0.15235,0.4101562 0.39844,0.4101562 0.16406,0 0.28125,-0.1171875 0.29297,-0.1171875 z m 4.69629,-0.8671875 c 0.64453,-0.65625 0.90234,-1.59374997 0.90234,-1.66406247 0,-0.09375 -0.082,-0.09375 -0.11718,-0.09375 -0.0937,0 -0.0937,0.0234375 -0.14063,0.17578125 -0.12891,0.45703125 -0.36328,0.89062502 -0.65625,1.26562502 0,-0.1054688 -0.0234,-0.57421877 -0.0352,-0.63281252 -0.10546,-0.69140625 -0.62109,-1.13671875 -1.32421,-1.13671875 -1.01954,0 -2.00391,0.94921875 -2.00391,1.92187497 0,0.6445313 0.46875,1.21875 1.27734,1.21875 0.64453,0 1.21875,-0.2929687 1.60547,-0.5976562 0.16406,0.515625 0.51563,0.5976562 0.72656,0.5976562 0.41016,0 0.65625,-0.3398437 0.65625,-0.4921875 0,-0.082031 -0.082,-0.082031 -0.11718,-0.082031 -0.0937,0 -0.10547,0.035156 -0.11719,0.070312 -0.10547,0.2695312 -0.31641,0.3046875 -0.39844,0.3046875 -0.0937,0 -0.22265,0 -0.25781,-0.8554688 z m -0.53906,0.234375 c -0.67969,0.5625 -1.27735,0.6210938 -1.53516,0.6210938 -0.46875,0 -0.72656,-0.3046875 -0.72656,-0.7734375 0,-0.1992188 0.10547,-0.96093752 0.46875,-1.44140627 0.3164,-0.421875 0.71484,-0.5390625 0.96094,-0.5390625 0.55078,0 0.71484,0.5390625 0.77343,0.97265625 0.0352,0.30468752 0.0234,0.79687502 0.0586,1.16015622 z m 0,0"
         style="fill:#000000;fill-opacity:1;fill-rule:nonzero;stroke:none" />
      <path
         id="path39"
         d="m 282.26264,0.68160938 c 0,-0.15234375 -0.0117,-0.15234375 -0.17578,-0.15234375 -0.35156,0.31640625 -0.90234,0.31640625 -1.00781,0.31640625 h -0.082 V 1.0683281 h 0.082 c 0.11718,0 0.43359,-0.011719 0.72656,-0.14062497 V 3.4120781 c 0,0.1640625 0,0.2109375 -0.52734,0.2109375 h -0.2461 v 0.2226563 c 0.26953,-0.023437 0.71485,-0.023437 1.00781,-0.023437 0.28125,0 0.72657,0 0.9961,0.023437 V 3.6230156 h -0.2461 c -0.52734,0 -0.52734,-0.046875 -0.52734,-0.2109375 z m 0,0"
         style="fill:#000000;fill-opacity:1;fill-rule:nonzero;stroke:none" />
      <path
         id="path40"
         d="m 284.80561,-2.3769844 c -0.0586,0 -0.14063,0 -0.14063,0.082031 0,0.035156 0.0234,0.058594 0.0703,0.1054687 0.59765,0.5507813 1.26562,1.48828128 1.26562,3.2929688 0,1.453125 -0.45703,2.5546875 -1.20703,3.234375 -0.11719,0.1171875 -0.12891,0.1289062 -0.12891,0.1640625 0,0.035156 0.0234,0.082031 0.0937,0.082031 0.082,0 0.75,-0.4570312 1.20704,-1.3242187 0.30468,-0.5859375 0.5039,-1.3359375 0.5039,-2.15625 0,-0.98437502 -0.29297,-2.5078125 -1.66406,-3.4804688 z m 0,0"
         style="fill:#000000;fill-opacity:1;fill-rule:nonzero;stroke:none" />
      <path
         id="path41"
         d="m 289.80952,-0.01272656 c 0,-0.65625 -0.25782,-1.04296874 -0.64454,-1.04296874 -0.32812,0 -0.52734,0.24609374 -0.52734,0.52734374 0,0.26953125 0.19922,0.52734375 0.52734,0.52734375 0.11719,0 0.2461,-0.03515625 0.35157,-0.12890625 0.0234,-0.0234375 0.0351,-0.0351563 0.0469,-0.0351563 0.0117,0 0.0234,0.0117188 0.0234,0.15234375 0,0.73828125 -0.35156,1.33593741 -0.67969,1.66406241 -0.10547,0.1054688 -0.10547,0.1289063 -0.10547,0.1640625 0,0.070312 0.0469,0.1054688 0.0937,0.1054688 0.11719,0 0.91407,-0.7617188 0.91407,-1.93359371 z m 0,0"
         style="fill:#000000;fill-opacity:1;fill-rule:nonzero;stroke:none" />
      <path
         id="path42"
         d="m 301.01557,-6.5400703 c 0.0586,-0.1054688 0.0586,-0.1289063 0.0586,-0.1757813 0,-0.09375 -0.082,-0.1992187 -0.19921,-0.1992187 -0.12891,0 -0.19922,0.1171875 -0.23438,0.234375 l -0.82031,2.1914062 h -3.03516 l -0.82031,-2.1914062 c -0.0586,-0.140625 -0.10547,-0.234375 -0.23438,-0.234375 -0.0937,0 -0.19921,0.1054687 -0.19921,0.1992187 0,0.023437 0,0.035156 0.0586,0.1757813 l 2.48437,6.52734374 c 0.0469,0.140625 0.0937,0.234375 0.22266,0.234375 0.14063,0 0.1875,-0.1171875 0.22266,-0.2109375 z m -4.06641,2.4492187 h 2.70704 l -1.35938,3.53906254 z m 0,0"
         style="fill:#000000;fill-opacity:1;fill-rule:nonzero;stroke:none" />
      <path
         id="path43"
         d="m 304.35834,2.3896172 c 0,-0.035156 0,-0.046875 -0.16406,-0.2226563 -1.24219,-1.25390621 -1.57031,-3.12890621 -1.57031,-4.6640625 0,-1.7226562 0.38672,-3.4570312 1.60547,-4.7109375 0.1289,-0.1171875 0.1289,-0.1289062 0.1289,-0.1640625 0,-0.070312 -0.0351,-0.1054687 -0.0937,-0.1054687 -0.10546,0 -0.99609,0.6796875 -1.58203,1.9453125 -0.51562,1.1015625 -0.63281,2.203125 -0.63281,3.0351562 0,0.7851563 0.11719,1.99218754 0.65625,3.11718754 0.59766,1.21874996 1.45313,1.87499996 1.55859,1.87499996 0.0586,0 0.0937,-0.035156 0.0937,-0.1054687 z m 0,0"
         style="fill:#000000;fill-opacity:1;fill-rule:nonzero;stroke:none" />
      <path
         id="path44"
         d="m 305.82026,-0.58694531 c -0.0352,0.15234375 -0.0937,0.375 -0.0937,0.421875 0,0.1875 0.14062,0.26953125 0.29297,0.26953125 0.11718,0 0.29297,-0.0703125 0.36328,-0.26953125 0.0117,-0.0234375 0.1289,-0.4921875 0.1875,-0.73828125 l 0.22265,-0.90234374 c 0.0586,-0.2226563 0.11719,-0.4335938 0.17579,-0.6679688 0.0351,-0.1640625 0.11718,-0.4570312 0.1289,-0.4921875 0.14063,-0.3164062 0.66797,-1.21875 1.61719,-1.21875 0.44531,0 0.53906,0.3632813 0.53906,0.6914063 0,0.2578125 -0.0703,0.5390625 -0.15234,0.8320312 l -0.26953,1.1601563 -0.19922,0.74999999 c -0.0469,0.19921875 -0.14063,0.5390625 -0.14063,0.5859375 0,0.1875 0.14063,0.26953125 0.29297,0.26953125 0.30469,0 0.375,-0.24609375 0.44531,-0.5625 0.14063,-0.56250004 0.51563,-2.01562504 0.59766,-2.40234374 0.0352,-0.1289063 0.5625,-1.3242188 1.65234,-1.3242188 0.42188,0 0.53907,0.3398438 0.53907,0.6914063 0,0.5742187 -0.42188,1.7109375 -0.6211,2.2382812 -0.0937,0.234375 -0.1289,0.35156254 -0.1289,0.55078129 0,0.46875 0.35156,0.80859375 0.80859,0.80859375 0.9375,0 1.3125,-1.45312504 1.3125,-1.53515624 0,-0.09375 -0.0937,-0.09375 -0.11719,-0.09375 -0.10547,0 -0.10547,0.023437 -0.15234,0.1757812 -0.15234,0.52734379 -0.46875,1.24218754 -1.01953,1.24218754 -0.16406,0 -0.23438,-0.10546875 -0.23438,-0.328125 0,-0.2578125 0.082,-0.4921875 0.17578,-0.71484374 0.1875,-0.515625 0.60938,-1.6171875 0.60938,-2.1914063 0,-0.6445312 -0.39844,-1.0664062 -1.14844,-1.0664062 -0.75,0 -1.2539,0.4453125 -1.61719,0.9726562 -0.0117,-0.1289062 -0.0469,-0.46875 -0.32812,-0.7148437 -0.24609,-0.1992188 -0.5625,-0.2578125 -0.80859,-0.2578125 -0.90235,0 -1.38282,0.6445312 -1.5586,0.8671875 -0.0469,-0.5625 -0.46875,-0.8671875 -0.91406,-0.8671875 -0.45703,0 -0.64453,0.3867187 -0.73828,0.5742187 -0.17578,0.3398438 -0.30469,0.9375 -0.30469,0.9609375 0,0.1054688 0.0937,0.1054688 0.11719,0.1054688 0.0937,0 0.10547,-0.011719 0.16406,-0.234375 0.17578,-0.703125 0.375,-1.1835938 0.72656,-1.1835938 0.16407,0 0.31641,0.082031 0.31641,0.4570313 0,0.2109375 -0.0352,0.3164062 -0.16406,0.8320312 z m 9.89648,0.57421875 c 0,-0.65625 -0.25781,-1.04296874 -0.64453,-1.04296874 -0.32812,0 -0.52734,0.24609374 -0.52734,0.52734374 0,0.26953125 0.19922,0.52734375 0.52734,0.52734375 0.11719,0 0.24609,-0.03515625 0.35156,-0.12890625 0.0234,-0.0234375 0.0352,-0.0351563 0.0469,-0.0351563 0.0117,0 0.0234,0.0117188 0.0234,0.15234375 0,0.73828125 -0.35157,1.33593741 -0.67969,1.66406241 -0.10547,0.1054688 -0.10547,0.1289063 -0.10547,0.1640625 0,0.070312 0.0469,0.1054688 0.0937,0.1054688 0.11719,0 0.91406,-0.7617188 0.91406,-1.93359371 z m 5.20899,-6.21093754 c 0,-0.1992187 -0.12891,-0.3632812 -0.36328,-0.3632812 -0.26954,0 -0.53907,0.2578125 -0.53907,0.5273437 0,0.1875 0.14063,0.3632813 0.375,0.3632813 0.23438,0 0.52735,-0.234375 0.52735,-0.5273438 z m -0.75,3.7382813 c 0.11718,-0.28125 0.11718,-0.3046875 0.22265,-0.5742188 0.0703,-0.1992187 0.12891,-0.3398437 0.12891,-0.5273437 0,-0.4453125 -0.32813,-0.8203125 -0.82031,-0.8203125 -0.9375,0 -1.3125,1.453125 -1.3125,1.5351562 0,0.1054688 0.0937,0.1054688 0.11718,0.1054688 0.0937,0 0.10547,-0.023437 0.15235,-0.1875 0.26953,-0.9375 0.66797,-1.2304688 1.00781,-1.2304688 0.082,0 0.25781,0 0.25781,0.3164063 0,0.2109375 -0.0703,0.421875 -0.11718,0.515625 -0.082,0.2578125 -0.52735,1.4179687 -0.67969,1.8515625 -0.10547,0.2578125 -0.23438,0.58593749 -0.23438,0.79687499 0,0.46875 0.33985,0.80859375 0.82032,0.80859375 0.9375,0 1.30078,-1.44140624 1.30078,-1.53515624 0,-0.09375 -0.0937,-0.09375 -0.11719,-0.09375 -0.10547,0 -0.10547,0.023437 -0.15234,0.1757812 -0.17579,0.63281254 -0.50391,1.24218754 -1.01954,1.24218754 -0.16406,0 -0.23437,-0.10546875 -0.23437,-0.328125 0,-0.2578125 0.0586,-0.3984375 0.29297,-0.99609374 z m 3.38086,2.47265624 c 0,-0.65625 -0.25782,-1.04296874 -0.64454,-1.04296874 -0.32812,0 -0.52734,0.24609374 -0.52734,0.52734374 0,0.26953125 0.19922,0.52734375 0.52734,0.52734375 0.11719,0 0.2461,-0.03515625 0.35157,-0.12890625 0.0234,-0.0234375 0.0351,-0.0351563 0.0469,-0.0351563 0.0117,0 0.0234,0.0117188 0.0234,0.15234375 0,0.73828125 -0.35156,1.33593751 -0.67969,1.66406251 -0.10547,0.1054688 -0.10547,0.1289063 -0.10547,0.1640625 0,0.070312 0.0469,0.1054688 0.0937,0.1054688 0.11719,0 0.91407,-0.7617188 0.91407,-1.93359381 z m 7.14257,-2.34375004 c 0,-1.5585937 -0.92578,-2.0507812 -1.65234,-2.0507812 -1.37109,0 -2.68359,1.4296875 -2.68359,2.8359375 0,0.92578124 0.59765,1.67578124 1.61718,1.67578124 0.6211,0 1.33594,-0.22265625 2.09766,-0.83203125 0.12891,0.52734375 0.45703,0.83203125 0.90234,0.83203125 0.52735,0 0.84375,-0.5390625 0.84375,-0.703125 0,-0.0703125 -0.0586,-0.10546875 -0.1289,-0.10546875 -0.0586,0 -0.0937,0.0351563 -0.12891,0.10546875 -0.17578,0.4921875 -0.52734,0.4921875 -0.55078,0.4921875 -0.31641,0 -0.31641,-0.78515625 -0.31641,-1.01953124 0,-0.2109375 0,-0.234375 0.10547,-0.3515625 0.9375,-1.171875 1.14844,-2.3320313 1.14844,-2.34375 0,-0.011719 -0.0117,-0.09375 -0.11719,-0.09375 -0.10547,0 -0.10547,0.023437 -0.15234,0.2109375 -0.1875,0.6210937 -0.51563,1.3828125 -0.98438,1.96875 z m -0.65625,1.37109379 c -0.8789,0.76171875 -1.65234,0.87890625 -2.05078,0.87890625 -0.59765,0 -0.89062,-0.45703125 -0.89062,-1.08984374 0,-0.4921875 0.25781,-1.5585938 0.57422,-2.0742188 0.46875,-0.7265625 1.00781,-0.9140625 1.35937,-0.9140625 0.98438,0 0.98438,1.3007813 0.98438,2.0859375 0,0.3632813 0,0.9375 0.0234,1.11328129 z m 0,0"
         style="fill:#000000;fill-opacity:1;fill-rule:nonzero;stroke:none" />
      <path
         id="path45"
         d="m 334.68061,-2.9365547 c 0,-0.1875 -0.0117,-0.1992187 -0.21094,-0.1992187 -0.44531,0.4335937 -1.07812,0.4453125 -1.35937,0.4453125 v 0.2460937 c 0.16406,0 0.62109,0 1.00781,-0.1875 v 3.55078126 c 0,0.23437504 0,0.32812504 -0.69141,0.32812504 h -0.26953 v 0.2460937 c 0.12891,-0.011719 0.98438,-0.023437 1.24219,-0.023437 0.21094,0 1.08984,0.011719 1.24219,0.023437 V 1.2470391 h -0.25782 c -0.70312,0 -0.70312,-0.09375 -0.70312,-0.32812504 z m 0,0"
         style="fill:#000000;fill-opacity:1;fill-rule:nonzero;stroke:none" />
      <path
         id="path46"
         d="m 339.70209,-2.4971016 c 0,-0.7734375 -0.11718,-1.9804687 -0.65625,-3.1054687 -0.59765,-1.21875 -1.46484,-1.875 -1.55859,-1.875 -0.0586,0 -0.10547,0.046875 -0.10547,0.1054687 0,0.035156 0,0.046875 0.19922,0.234375 0.97266,0.984375 1.53516,2.5664063 1.53516,4.640625 0,1.71093754 -0.36328,3.45703129 -1.59375,4.7226563 -0.14063,0.1171875 -0.14063,0.1289062 -0.14063,0.1640625 0,0.058594 0.0469,0.1054687 0.10547,0.1054687 0.0937,0 0.99609,-0.6796875 1.58203,-1.94531246 0.50391,-1.1015625 0.63281,-2.20312504 0.63281,-3.04687504 z m 0,0"
         style="fill:#000000;fill-opacity:1;fill-rule:nonzero;stroke:none" />
      <path
         id="path47"
         d="m 342.71967,-0.01272656 c 0,-0.65625 -0.25781,-1.04296874 -0.64453,-1.04296874 -0.32812,0 -0.52734,0.24609374 -0.52734,0.52734374 0,0.26953125 0.19922,0.52734375 0.52734,0.52734375 0.11719,0 0.24609,-0.03515625 0.35156,-0.12890625 0.0234,-0.0234375 0.0352,-0.0351563 0.0469,-0.0351563 0.0117,0 0.0234,0.0117188 0.0234,0.15234375 0,0.73828125 -0.35157,1.33593741 -0.67969,1.66406241 -0.10547,0.1054688 -0.10547,0.1289063 -0.10547,0.1640625 0,0.070312 0.0469,0.1054688 0.0937,0.1054688 0.11719,0 0.91406,-0.7617188 0.91406,-1.93359371 z m 0,0"
         style="fill:#000000;fill-opacity:1;fill-rule:nonzero;stroke:none" />
      <path
         id="path48"
         d="m 348.41498,2.3896172 c 0,-0.035156 0,-0.046875 -0.16406,-0.2226563 -1.24219,-1.25390621 -1.57031,-3.12890621 -1.57031,-4.6640625 0,-1.7226562 0.38672,-3.4570312 1.60547,-4.7109375 0.1289,-0.1171875 0.1289,-0.1289062 0.1289,-0.1640625 0,-0.070312 -0.0351,-0.1054687 -0.0937,-0.1054687 -0.10546,0 -0.99609,0.6796875 -1.58203,1.9453125 -0.51562,1.1015625 -0.63281,2.203125 -0.63281,3.0351562 0,0.7851563 0.11719,1.99218754 0.65625,3.11718754 0.59766,1.21874996 1.45313,1.87499996 1.55859,1.87499996 0.0586,0 0.0937,-0.035156 0.0937,-0.1054687 z m 0,0"
         style="fill:#000000;fill-opacity:1;fill-rule:nonzero;stroke:none" />
      <path
         id="path49"
         d="m 349.87397,-0.58694531 c -0.0352,0.15234375 -0.0937,0.375 -0.0937,0.421875 0,0.1875 0.14062,0.26953125 0.29297,0.26953125 0.11719,0 0.29297,-0.0703125 0.36328,-0.26953125 0.0117,-0.0234375 0.12891,-0.4921875 0.1875,-0.73828125 l 0.22266,-0.90234374 c 0.0586,-0.2226563 0.11718,-0.4335938 0.17578,-0.6679688 0.0352,-0.1640625 0.11718,-0.4570312 0.1289,-0.4921875 0.14063,-0.3164062 0.66797,-1.21875 1.61719,-1.21875 0.44531,0 0.53906,0.3632813 0.53906,0.6914063 0,0.6210937 -0.49218,1.8984375 -0.64453,2.3320312 -0.0937,0.22265629 -0.10547,0.33984379 -0.10547,0.45703129 0,0.46875 0.35157,0.80859375 0.82032,0.80859375 0.9375,0 1.30078,-1.45312504 1.30078,-1.53515624 0,-0.09375 -0.082,-0.09375 -0.11719,-0.09375 -0.0937,0 -0.0937,0.023437 -0.15234,0.1757812 -0.19922,0.67968754 -0.52735,1.24218754 -1.00782,1.24218754 -0.17578,0 -0.24609,-0.10546875 -0.24609,-0.328125 0,-0.2578125 0.0937,-0.4921875 0.1875,-0.71484374 0.1875,-0.5273438 0.59766,-1.6171875 0.59766,-2.1914063 0,-0.6679687 -0.42188,-1.0664062 -1.13672,-1.0664062 -0.90235,0 -1.38282,0.6445312 -1.5586,0.8671875 -0.0469,-0.5507813 -0.45703,-0.8671875 -0.91406,-0.8671875 -0.45703,0 -0.64453,0.3867187 -0.75,0.5742187 -0.15234,0.3398438 -0.29297,0.9257813 -0.29297,0.9609375 0,0.1054688 0.0937,0.1054688 0.11719,0.1054688 0.0937,0 0.10547,-0.011719 0.16406,-0.234375 0.17578,-0.703125 0.375,-1.1835938 0.72656,-1.1835938 0.19922,0 0.31641,0.1289063 0.31641,0.4570313 0,0.2109375 -0.0352,0.3164062 -0.16406,0.8320312 z m 7.125,0.57421875 c 0,-0.65625 -0.25781,-1.04296874 -0.64453,-1.04296874 -0.32813,0 -0.52735,0.24609374 -0.52735,0.52734374 0,0.26953125 0.19922,0.52734375 0.52735,0.52734375 0.11719,0 0.24609,-0.03515625 0.35156,-0.12890625 0.0234,-0.0234375 0.0352,-0.0351563 0.0469,-0.0351563 0.0117,0 0.0234,0.0117188 0.0234,0.15234375 0,0.73828125 -0.35156,1.33593741 -0.67968,1.66406241 -0.10547,0.1054688 -0.10547,0.1289063 -0.10547,0.1640625 0,0.070312 0.0469,0.1054688 0.0937,0.1054688 0.11718,0 0.91406,-0.7617188 0.91406,-1.93359371 z m 6.33691,-6.21093754 c 0,-0.1875 -0.1289,-0.3632812 -0.375,-0.3632812 -0.22265,0 -0.52734,0.234375 -0.52734,0.5273437 0,0.1992188 0.14062,0.3632813 0.375,0.3632813 0.26953,0 0.52734,-0.2578125 0.52734,-0.5273438 z m -1.99218,6.72656254 c -0.19922,0.74999996 -0.66797,1.32421876 -1.23047,1.32421876 -0.0586,0 -0.21094,0 -0.38672,-0.09375 0.29297,-0.070312 0.44531,-0.328125 0.44531,-0.5273438 0,-0.1640625 -0.10547,-0.35156246 -0.375,-0.35156246 -0.24609,0 -0.53906,0.21093746 -0.53906,0.57421876 0,0.3984375 0.39844,0.609375 0.8789,0.609375 0.69141,0 1.61719,-0.5273438 1.875,-1.51171876 l 0.91407,-3.64453124 c 0.0469,-0.1992188 0.0469,-0.3398438 0.0469,-0.375 0,-0.5625 -0.42187,-0.9140625 -0.91406,-0.9140625 -1.01953,0 -1.58203,1.453125 -1.58203,1.5351562 0,0.1054688 0.0937,0.1054688 0.11719,0.1054688 0.0937,0 0.0937,-0.011719 0.17578,-0.1992188 0.24609,-0.609375 0.71484,-1.21875 1.2539,-1.21875 0.14063,0 0.31641,0.035156 0.31641,0.4570313 0,0.234375 -0.0234,0.3398437 -0.0586,0.5039062 z m 4.18359,-0.515625 c 0,-0.65625 -0.25781,-1.04296874 -0.64453,-1.04296874 -0.32813,0 -0.52735,0.24609374 -0.52735,0.52734374 0,0.26953125 0.19922,0.52734375 0.52735,0.52734375 0.11719,0 0.24609,-0.03515625 0.35156,-0.12890625 0.0234,-0.0234375 0.0352,-0.0351563 0.0469,-0.0351563 0.0117,0 0.0234,0.0117188 0.0234,0.15234375 0,0.73828125 -0.35156,1.33593741 -0.67968,1.66406241 -0.10547,0.1054688 -0.10547,0.1289063 -0.10547,0.1640625 0,0.070312 0.0469,0.1054688 0.0937,0.1054688 0.11718,0 0.91406,-0.7617188 0.91406,-1.93359371 z m 7.14258,-2.34375004 c 0,-1.5585937 -0.92578,-2.0507812 -1.65235,-2.0507812 -1.37109,0 -2.68359,1.4296875 -2.68359,2.8359375 0,0.92578124 0.59766,1.67578124 1.61719,1.67578124 0.62109,0 1.33593,-0.22265625 2.09765,-0.83203125 0.12891,0.52734375 0.45703,0.83203125 0.90235,0.83203125 0.52734,0 0.84375,-0.5390625 0.84375,-0.703125 0,-0.0703125 -0.0586,-0.10546875 -0.12891,-0.10546875 -0.0586,0 -0.0937,0.0351563 -0.12891,0.10546875 -0.17578,0.4921875 -0.52734,0.4921875 -0.55078,0.4921875 -0.3164,0 -0.3164,-0.78515625 -0.3164,-1.01953124 0,-0.2109375 0,-0.234375 0.10547,-0.3515625 0.9375,-1.171875 1.14843,-2.3320313 1.14843,-2.34375 0,-0.011719 -0.0117,-0.09375 -0.11718,-0.09375 -0.10547,0 -0.10547,0.023437 -0.15235,0.2109375 -0.1875,0.6210937 -0.51562,1.3828125 -0.98437,1.96875 z m -0.65625,1.37109379 c -0.87891,0.76171875 -1.65235,0.87890625 -2.05078,0.87890625 -0.59766,0 -0.89063,-0.45703125 -0.89063,-1.08984374 0,-0.4921875 0.25781,-1.5585938 0.57422,-2.0742188 0.46875,-0.7265625 1.00781,-0.9140625 1.35937,-0.9140625 0.98438,0 0.98438,1.3007813 0.98438,2.0859375 0,0.3632813 0,0.9375 0.0234,1.11328129 z m 0,0"
         style="fill:#000000;fill-opacity:1;fill-rule:nonzero;stroke:none" />
      <path
         id="path50"
         d="m 377.83784,0.22750781 h -0.23438 c -0.0234,0.15234375 -0.082,0.5625 -0.17578,0.6328125 -0.0586,0.0351563 -0.59766,0.0351563 -0.69141,0.0351563 h -1.28906 c 0.73828,-0.64453125 0.98438,-0.84375 1.39453,-1.171875 0.51563,-0.41015625 0.9961,-0.84374991 0.9961,-1.49999991 0,-0.8437501 -0.73829,-1.3593751 -1.62891,-1.3593751 -0.86719,0 -1.45313,0.609375 -1.45313,1.2421876 0,0.3632812 0.30469,0.3984375 0.375,0.3984375 0.16407,0 0.375,-0.1171875 0.375,-0.375 0,-0.1289063 -0.0586,-0.3632814 -0.42187,-0.3632814 0.22266,-0.5039062 0.69141,-0.65625 1.01953,-0.65625 0.70313,0 1.06641,0.5507813 1.06641,1.1132813 0,0.609375 -0.4336,1.08984376 -0.65625,1.33593751 l -1.6875,1.66406249 c -0.0703,0.058594 -0.0703,0.070312 -0.0703,0.2695312 h 2.88282 z m 0,0"
         style="fill:#000000;fill-opacity:1;fill-rule:nonzero;stroke:none" />
      <path
         id="path51"
         d="m 381.67573,-2.4971016 c 0,-0.7734375 -0.11719,-1.9804687 -0.65625,-3.1054687 -0.59766,-1.21875 -1.46485,-1.875 -1.5586,-1.875 -0.0586,0 -0.10547,0.046875 -0.10547,0.1054687 0,0.035156 0,0.046875 0.19922,0.234375 0.97266,0.984375 1.53516,2.5664063 1.53516,4.640625 0,1.71093754 -0.36328,3.45703129 -1.59375,4.7226563 -0.14063,0.1171875 -0.14063,0.1289062 -0.14063,0.1640625 0,0.058594 0.0469,0.1054687 0.10547,0.1054687 0.0937,0 0.9961,-0.6796875 1.58203,-1.94531246 0.50391,-1.1015625 0.63282,-2.20312504 0.63282,-3.04687504 z m 0,0"
         style="fill:#000000;fill-opacity:1;fill-rule:nonzero;stroke:none" />
      <path
         id="path52"
         d="m 390.89545,-2.2978828 c 0.16407,0 0.35157,0 0.35157,-0.1992188 0,-0.1992187 -0.1875,-0.1992187 -0.35157,-0.1992187 h -4.23047 c 0.12891,-1.3242188 1.26563,-2.2851563 2.67188,-2.2851563 h 1.55859 c 0.16407,0 0.35157,0 0.35157,-0.1992187 0,-0.1992188 -0.1875,-0.1992188 -0.35157,-0.1992188 h -1.57031 c -1.71094,0 -3.05859,1.2890625 -3.05859,2.8828125 0,1.59375004 1.34765,2.89453129 3.05859,2.89453129 h 1.57031 c 0.16407,0 0.35157,0 0.35157,-0.19921875 0,-0.19921875 -0.1875,-0.19921875 -0.35157,-0.19921875 h -1.55859 c -1.40625,0 -2.54297,-0.9609375 -2.67188,-2.29687499 z m 0,0"
         style="fill:#000000;fill-opacity:1;fill-rule:nonzero;stroke:none" />
      <path
         id="path53"
         d="m 403.97065,-5.6494453 c 0.25781,-0.4335938 0.49219,-0.796875 1.125,-0.84375 0.082,-0.011719 0.1875,-0.011719 0.1875,-0.1992188 0,-0.046875 -0.0469,-0.1171875 -0.11719,-0.1171875 -0.24609,0 -0.52734,0.035156 -0.77344,0.035156 -0.33984,0 -0.70312,-0.035156 -1.03125,-0.035156 -0.0586,0 -0.1875,0 -0.1875,0.1992188 0,0.1054687 0.082,0.1171875 0.14063,0.1171875 0.24609,0.011719 0.59765,0.082031 0.59765,0.3867187 0,0.1054688 -0.0586,0.1875 -0.14062,0.328125 l -2.68359,4.6875 -0.36329,-4.9335937 c -0.0117,-0.1992188 -0.0352,-0.4570313 0.69141,-0.46875 0.16406,0 0.26953,0 0.26953,-0.1992188 0,-0.1054687 -0.10547,-0.1171875 -0.15234,-0.1171875 -0.39844,0 -0.8086,0.035156 -1.20703,0.035156 -0.23438,0 -0.82032,-0.035156 -1.05469,-0.035156 -0.0586,0 -0.1875,0 -0.1875,0.1992188 0,0.1171875 0.10547,0.1171875 0.24609,0.1171875 0.4336,0 0.50391,0.058594 0.52735,0.2460937 l 0.0586,0.7617188 -2.51953,4.3945312 -0.38672,-5.0507812 c 0,-0.1171875 0,-0.3398438 0.76172,-0.3515625 0.0937,0 0.21094,0 0.21094,-0.1992188 0,-0.1171875 -0.11719,-0.1171875 -0.14063,-0.1171875 -0.39844,0 -0.82031,0.035156 -1.23047,0.035156 -0.33984,0 -0.70312,-0.035156 -1.04297,-0.035156 -0.0469,0 -0.17578,0 -0.17578,0.1992188 0,0.1171875 0.082,0.1171875 0.2461,0.1171875 0.5039,0 0.5039,0.082031 0.52734,0.3632812 l 0.44531,6.09375004 c 0.0117,0.17578125 0.0234,0.2578125 0.16407,0.2578125 0.11718,0 0.15234,-0.0585938 0.23437,-0.2109375 l 2.92969,-5.08593754 0.375,5.03906254 c 0.0117,0.19921875 0.0352,0.2578125 0.15234,0.2578125 0.12891,0 0.1875,-0.10546875 0.2461,-0.1875 z m 0,0"
         style="fill:#000000;fill-opacity:1;fill-rule:nonzero;stroke:none" />
      <path
         id="path54"
         d="m 409.02143,-8.3330391 c 0.0469,-0.1992187 0.0703,-0.2226562 0.22266,-0.234375 0.0351,-0.011719 0.26953,-0.011719 0.41015,-0.011719 0.4336,0 0.60938,0 0.78516,0.058594 0.3164,0.09375 0.32812,0.3046875 0.32812,0.5507813 0,0.1054687 0,0.1992187 -0.0469,0.5625 l -0.0117,0.082031 c 0,0.070312 0.0469,0.1054688 0.11719,0.1054688 0.10547,0 0.11718,-0.070312 0.1289,-0.1757813 l 0.1875,-1.3359375 c 0,-0.09375 -0.082,-0.09375 -0.21093,-0.09375 h -4.28907 c -0.17578,0 -0.1875,0 -0.23437,0.140625 l -0.4336,1.2421875 c -0.0117,0.023437 -0.0352,0.082031 -0.0352,0.1171875 0,0.035156 0.0117,0.1054688 0.11719,0.1054688 0.082,0 0.10546,-0.035156 0.14062,-0.1757813 0.41016,-1.1132812 0.63281,-1.1835937 1.69922,-1.1835937 h 0.29297 c 0.21094,0 0.21094,0.011719 0.21094,0.070312 0,0.011719 0,0.046875 -0.0234,0.1523437 l -0.92578,3.6679688 c -0.0586,0.2578125 -0.082,0.328125 -0.8086,0.328125 -0.25781,0 -0.3164,0 -0.3164,0.1523437 0,0.011719 0.0117,0.09375 0.11718,0.09375 0.19922,0 0.41016,-0.023437 0.59766,-0.023437 0.19922,0 0.41016,0 0.59766,0 0.19922,0 0.43359,0 0.63281,0 0.1875,0.011719 0.39844,0.023437 0.58594,0.023437 0.0586,0 0.16406,0 0.16406,-0.1523437 0,-0.09375 -0.0703,-0.09375 -0.29297,-0.09375 -0.12891,0 -0.26953,-0.011719 -0.39844,-0.023437 -0.24609,-0.011719 -0.25781,-0.046875 -0.25781,-0.1289063 0,-0.046875 0,-0.058594 0.0352,-0.1640625 z m 0,0"
         style="fill:#000000;fill-opacity:1;fill-rule:nonzero;stroke:none" />
    </g>
  </g>
</svg>
