<?xml version="1.0" encoding="UTF-8" standalone="no"?>
<!-- Created with Inkscape (http://www.inkscape.org/) -->

<svg
   version="1.1"
   id="svg1"
   width="158.75781"
   height="31.425781"
   viewBox="0 0 158.75781 31.425781"
   sodipodi:docname="Formulas.pdf"
   xmlns:inkscape="http://www.inkscape.org/namespaces/inkscape"
   xmlns:sodipodi="http://sodipodi.sourceforge.net/DTD/sodipodi-0.dtd"
   xmlns="http://www.w3.org/2000/svg"
   xmlns:svg="http://www.w3.org/2000/svg">
  <defs
     id="defs1" />
  <sodipodi:namedview
     id="namedview1"
     pagecolor="#ffffff"
     bordercolor="#000000"
     borderopacity="0.25"
     inkscape:showpageshadow="2"
     inkscape:pageopacity="0.0"
     inkscape:pagecheckerboard="0"
     inkscape:deskcolor="#d1d1d1" />
  <g
     id="g1"
     inkscape:groupmode="layer"
     inkscape:label="1"
     transform="translate(-448.80469,-112.60547)">
    <g
       id="g2"
       aria-label="∑&#10;(m,i)∈C&#10;Z&#10;0,(m,i),l&#10;=1,∀l∈B"
       transform="matrix(1.3333333,0,0,1.3333333,458.184,112.604)">
      <path
         id="path2"
         d="m 12.60907,13.946414 1.207032,-3.1875 h -0.246094 c -0.386719,1.03125 -1.453125,1.710938 -2.589844,2.015625 -0.210937,0.04687 -1.1835937,0.304688 -3.1054687,0.304688 h -6 l 5.0625,-5.9414067 c 0.070312,-0.082031 0.09375,-0.1171875 0.09375,-0.1640625 0,-0.023437 0,-0.046875 -0.070312,-0.1523437 L 2.3200078,0.48157031 h 5.4609375 c 1.3359375,0 2.2382817,0.140625 2.3320317,0.15234375 0.539062,0.0820313 1.40625,0.2578125 2.191406,0.75000004 0.246094,0.1640625 0.925781,0.609375 1.265625,1.4179687 h 0.246094 L 12.60907,0.00110156 H 0.83172656 c -0.22265625,0 -0.234375,0.01171875 -0.26953125,0.0703125 0,0.03515625 0,0.22265625 0,0.328125 L 5.8239141,7.6065703 0.66766406,13.653445 c -0.10546875,0.128907 -0.10546875,0.175782 -0.10546875,0.1875 0,0.105469 0.09375,0.105469 0.26953125,0.105469 z m 0,0"
         style="fill:#000000;fill-opacity:1;fill-rule:nonzero;stroke:none" />
      <path
         id="path3"
         d="m -5.3587031,16.6095 c -1.3242188,0.925781 -1.6757813,2.414063 -1.6757813,3.480469 0,0.984375 0.2929688,2.507812 1.6757813,3.480469 0.058594,0 0.140625,0 0.140625,-0.08203 0,-0.04687 -0.023437,-0.05859 -0.070312,-0.105468 -0.9257813,-0.832032 -1.265625,-2.015625 -1.265625,-3.292969 0,-1.875 0.7148437,-2.800781 1.2890625,-3.316406 0.023437,-0.02344 0.046875,-0.04687 0.046875,-0.08203 0,-0.08203 -0.082031,-0.08203 -0.140625,-0.08203 z m 0,0"
         style="fill:#000000;fill-opacity:1;fill-rule:nonzero;stroke:none" />
      <path
         id="path4"
         d="m -1.6936641,21.273563 c -0.035156,0.140625 -0.09375,0.375 -0.09375,0.410156 0,0.152344 0.1289063,0.222656 0.234375,0.222656 0.1289063,0 0.234375,-0.09375 0.2695313,-0.152344 0.035156,-0.05859 0.09375,-0.292968 0.1289062,-0.433593 0.035156,-0.128907 0.1171875,-0.457032 0.1523438,-0.632813 0.046875,-0.152344 0.0820312,-0.304687 0.11718749,-0.457031 0.0820313,-0.304688 0.0820313,-0.316406 0.22265625,-0.539063 0.22265625,-0.339843 0.5625,-0.738281 1.11328125,-0.738281 0.38671875,0 0.41015625,0.328125 0.41015625,0.492188 0,0.421875 -0.3046875,1.195312 -0.41015625,1.488281 -0.0820313,0.1875 -0.10546875,0.257812 -0.10546875,0.375 0,0.363281 0.3046875,0.597656 0.65624996,0.597656 0.703125,0 1.0078125,-0.960937 1.0078125,-1.066406 0,-0.09375 -0.09375,-0.09375 -0.1054687,-0.09375 -0.1054688,0 -0.1054688,0.04687 -0.140625,0.117187 -0.1523438,0.5625 -0.4570313,0.84375 -0.7382813,0.84375 -0.14062496,0 -0.17578121,-0.09375 -0.17578121,-0.246093 0,-0.152344 0.0351563,-0.246094 0.16406251,-0.5625 0.082031,-0.210938 0.375,-0.949219 0.375,-1.347657 0,-0.105468 0,-0.398437 -0.2578125,-0.597656 -0.1289063,-0.09375 -0.32812501,-0.1875 -0.65625001,-0.1875 -0.62109375,0 -1.0078125,0.410156 -1.23046875,0.703125 -0.0585938,-0.597656 -0.55078124,-0.703125 -0.90234374,-0.703125 -0.5859375,0 -0.9726563,0.351563 -1.1835938,0.632813 -0.046875,-0.480469 -0.4570312,-0.632813 -0.75,-0.632813 -0.2929687,0 -0.4570312,0.210938 -0.5507812,0.375 -0.1523438,0.257813 -0.2460938,0.65625 -0.2460938,0.691406 0,0.08203 0.09375,0.08203 0.1171875,0.08203 0.09375,0 0.1054688,-0.01172 0.1523438,-0.199219 0.1054687,-0.421875 0.234375,-0.761719 0.515625,-0.761719 0.1757812,0 0.2226562,0.152344 0.2226562,0.339844 0,0.140625 -0.058594,0.398437 -0.1054687,0.585937 -0.046875,0.1875 -0.1171875,0.46875 -0.1523438,0.621094 l -0.2226562,0.902344 c -0.035156,0.08203 -0.070312,0.257812 -0.070312,0.28125 0,0.152344 0.1171875,0.222656 0.234375,0.222656 0.1289062,0 0.234375,-0.09375 0.2695312,-0.152344 0.035156,-0.05859 0.09375,-0.292968 0.1289063,-0.433593 0.035156,-0.128907 0.1054687,-0.457032 0.1523437,-0.632813 0.035156,-0.152344 0.082031,-0.304687 0.1171875,-0.457031 0.082031,-0.292969 0.09375,-0.351563 0.2929688,-0.632813 0.1992187,-0.28125 0.5273437,-0.644531 1.0429687,-0.644531 0.4101563,0 0.4101563,0.363281 0.4101563,0.492188 0,0.175781 -0.011719,0.269531 -0.1171875,0.65625 z m 5.5166016,0.445312 c 0,0.386719 -0.070312,0.832031 -0.5507812,1.277344 -0.023437,0.03516 -0.046875,0.05859 -0.046875,0.09375 0,0.04687 0.058594,0.09375 0.09375,0.09375 0.1054687,0 0.6914062,-0.5625 0.6914062,-1.394531 0,-0.421875 -0.1640625,-0.75 -0.4804687,-0.75 -0.234375,0 -0.3984375,0.175781 -0.3984375,0.386718 0,0.234375 0.1523437,0.410157 0.3984375,0.410157 0.1640625,0 0.28125,-0.117188 0.2929687,-0.117188 z m 3.1494141,-4.242187 c 0,-0.105469 -0.082031,-0.257813 -0.28125,-0.257813 -0.1875,0 -0.3867188,0.175781 -0.3867188,0.375 0,0.117188 0.082031,0.269531 0.2695313,0.269531 0.2109375,0 0.3984375,-0.199218 0.3984375,-0.386718 z M 5.5426641,21.01575 c -0.023437,0.09375 -0.058594,0.175781 -0.058594,0.292969 0,0.328125 0.28125,0.597656 0.6679688,0.597656 0.6914062,0 0.9960937,-0.960937 0.9960937,-1.066406 0,-0.09375 -0.082031,-0.09375 -0.1054687,-0.09375 -0.1054688,0 -0.1054688,0.04687 -0.140625,0.117187 -0.1523438,0.5625 -0.4570313,0.84375 -0.7382813,0.84375 -0.140625,0 -0.1757812,-0.08203 -0.1757812,-0.246093 0,-0.152344 0.058594,-0.292969 0.1171875,-0.445313 0.070312,-0.1875 0.140625,-0.375 0.2226562,-0.550781 0.058594,-0.164063 0.3164063,-0.808594 0.3398438,-0.890625 0.023437,-0.07031 0.046875,-0.152344 0.046875,-0.222656 0,-0.328125 -0.28125,-0.585938 -0.6679688,-0.585938 -0.6914062,0 -1.0078125,0.949219 -1.0078125,1.066406 0,0.08203 0.09375,0.08203 0.1171875,0.08203 0.09375,0 0.1054688,-0.03516 0.1289063,-0.105469 0.1757812,-0.597656 0.4804687,-0.855469 0.7382812,-0.855469 0.1171875,0 0.1757813,0.05859 0.1757813,0.246094 0,0.164062 -0.035156,0.269531 -0.2109375,0.703125 z m 0,0"
         style="fill:#000000;fill-opacity:1;fill-rule:nonzero;stroke:none" />
      <path
         id="path5"
         d="m 8.1705938,16.6095 c -0.058594,0 -0.140625,0 -0.140625,0.08203 0,0.03516 0.023437,0.05859 0.070312,0.105469 0.5976562,0.550781 1.265625,1.488281 1.265625,3.292969 0,1.453125 -0.4570313,2.554687 -1.2070313,3.234375 -0.1171875,0.117187 -0.1289062,0.128906 -0.1289062,0.164062 0,0.03516 0.023437,0.08203 0.09375,0.08203 0.082031,0 0.75,-0.457032 1.2070312,-1.324219 0.3046875,-0.585938 0.5039063,-1.335938 0.5039063,-2.15625 0,-0.984375 -0.2929688,-2.507813 -1.6640625,-3.480469 z m 0,0"
         style="fill:#000000;fill-opacity:1;fill-rule:nonzero;stroke:none" />
      <path
         id="path6"
         d="m 14.973328,20.26575 c 0.117188,0 0.28125,0 0.28125,-0.175781 0,-0.175781 -0.152344,-0.175781 -0.28125,-0.175781 h -3.222656 c 0.105469,-1.007813 0.949219,-1.757813 2.039062,-1.757813 h 1.183594 c 0.117188,0 0.28125,0 0.28125,-0.164062 0,-0.175782 -0.152344,-0.175782 -0.28125,-0.175782 h -1.21875 c -1.289062,0 -2.355469,1.019532 -2.355469,2.273438 0,1.277344 1.078125,2.273437 2.355469,2.273437 h 1.21875 c 0.117188,0 0.28125,0 0.28125,-0.164062 0,-0.175781 -0.152344,-0.175781 -0.28125,-0.175781 h -1.183594 c -1.089843,0 -1.933593,-0.75 -2.039062,-1.757813 z m 0,0"
         style="fill:#000000;fill-opacity:1;fill-rule:nonzero;stroke:none" />
      <path
         id="path7"
         d="m 21.902039,17.019656 c 0,-0.03516 -0.02344,-0.08203 -0.09375,-0.08203 -0.04687,0 -0.07031,0.01172 -0.128906,0.08203 l -0.503906,0.539063 c -0.07031,-0.08203 -0.457032,-0.621094 -1.3125,-0.621094 -1.699219,0 -3.351563,1.5 -3.351563,3.070313 0,1.136718 0.890625,1.96875 2.132813,1.96875 0.375,0 1.054687,-0.08203 1.769531,-0.679688 0.550781,-0.46875 0.703125,-1.078125 0.703125,-1.136719 0,-0.09375 -0.08203,-0.09375 -0.117188,-0.09375 -0.09375,0 -0.105468,0.03516 -0.128906,0.117188 -0.28125,0.949219 -1.265625,1.535156 -2.109375,1.535156 -0.738281,0 -1.558594,-0.386719 -1.558594,-1.488281 0,-0.210938 0.04687,-1.3125 0.855469,-2.191406 0.480469,-0.527344 1.207031,-0.855469 1.875,-0.855469 0.808594,0 1.277344,0.585937 1.277344,1.371094 0,0.1875 -0.02344,0.246093 -0.02344,0.28125 0,0.09375 0.09375,0.09375 0.128907,0.09375 0.117187,0 0.117187,-0.02344 0.152343,-0.152344 z m 0,0"
         style="fill:#000000;fill-opacity:1;fill-rule:nonzero;stroke:none" />
      <path
         id="path8"
         d="m 31.054383,2.9014922 c 0.01172,-0.046875 0.03516,-0.09375 0.03516,-0.1523438 0,-0.09375 -0.05859,-0.09375 -0.257812,-0.09375 h -4.195313 c -0.246094,0 -0.257812,0.011719 -0.316406,0.1992188 l -0.539063,1.7929687 c -0.02344,0.058594 -0.03516,0.1289063 -0.03516,0.140625 0,0.011719 0,0.1171875 0.117188,0.1171875 0.09375,0 0.117187,-0.070312 0.128906,-0.1054687 0.386719,-1.171875 0.902344,-1.828125 2.449219,-1.828125 h 1.628906 l -5.566406,6.2226562 c 0,0.011719 -0.04687,0.1523438 -0.04687,0.1757813 0,0.09375 0.07031,0.09375 0.257812,0.09375 h 4.324219 c 0.246094,0 0.257812,-0.011719 0.316406,-0.1992188 l 0.703125,-2.203125 c 0.01172,-0.035156 0.03516,-0.1054687 0.03516,-0.1523437 0,-0.046875 -0.03516,-0.1054688 -0.128906,-0.1054688 -0.08203,0 -0.09375,0.035156 -0.164062,0.2460938 -0.433594,1.359375 -0.914063,2.0742187 -2.613282,2.0742187 h -1.699218 z m 0,0"
         style="fill:#000000;fill-opacity:1;fill-rule:nonzero;stroke:none" />
      <path
         id="path9"
         d="m 34.279969,9.0362578 c 0,-0.7617187 -0.09375,-1.3125 -0.410156,-1.8046875 -0.222657,-0.3164062 -0.644532,-0.5976562 -1.207032,-0.5976562 -1.617187,0 -1.617187,1.8984375 -1.617187,2.4023437 0,0.5039063 0,2.3671872 1.617187,2.3671872 1.617188,0 1.617188,-1.8632809 1.617188,-2.3671872 z m -1.617188,2.1679692 c -0.316406,0 -0.75,-0.1875 -0.890625,-0.761719 -0.09375,-0.410156 -0.09375,-0.9843752 -0.09375,-1.5000002 0,-0.5039062 0,-1.03125 0.105469,-1.4179687 0.152344,-0.5507813 0.597656,-0.6914063 0.878906,-0.6914063 0.375,0 0.738282,0.2226563 0.867188,0.6328125 0.105469,0.375 0.117187,0.8789063 0.117187,1.4765625 0,0.515625 0,1.0429688 -0.09375,1.4765622 -0.140625,0.632813 -0.609375,0.785157 -0.890625,0.785157 z m 0,0"
         style="fill:#000000;fill-opacity:1;fill-rule:nonzero;stroke:none" />
      <path
         id="path10"
         d="m 36.131531,11.145633 c 0,0.386719 -0.07031,0.832031 -0.550781,1.277344 -0.02344,0.03516 -0.04687,0.05859 -0.04687,0.09375 0,0.04687 0.05859,0.09375 0.09375,0.09375 0.105469,0 0.691406,-0.5625 0.691406,-1.394532 0,-0.421875 -0.164062,-0.75 -0.480468,-0.75 -0.234375,0 -0.398438,0.175782 -0.398438,0.386719 0,0.234375 0.152344,0.410156 0.398438,0.410156 0.164062,0 0.28125,-0.117187 0.292968,-0.117187 z m 0,0"
         style="fill:#000000;fill-opacity:1;fill-rule:nonzero;stroke:none" />
      <path
         id="path11"
         d="m 39.494813,6.0362578 c -1.324219,0.9257813 -1.675782,2.4140625 -1.675782,3.4804688 0,0.9843754 0.292969,2.5078124 1.675782,3.4804684 0.05859,0 0.140625,0 0.140625,-0.08203 0,-0.04687 -0.02344,-0.05859 -0.07031,-0.105469 C 38.639344,11.977664 38.2995,10.79407 38.2995,9.5167266 c 0,-1.875 0.714844,-2.8007813 1.289063,-3.3164063 0.02344,-0.023437 0.04687,-0.046875 0.04687,-0.082031 0,-0.082031 -0.08203,-0.082031 -0.140625,-0.082031 z m 0,0"
         style="fill:#000000;fill-opacity:1;fill-rule:nonzero;stroke:none" />
      <path
         id="path12"
         d="m 43.156922,10.70032 c -0.03516,0.140625 -0.09375,0.375 -0.09375,0.410157 0,0.152343 0.128906,0.222656 0.234375,0.222656 0.128906,0 0.234375,-0.09375 0.269531,-0.152344 0.03516,-0.05859 0.09375,-0.292969 0.128906,-0.433594 0.03516,-0.128906 0.117188,-0.457031 0.152344,-0.632812 0.04687,-0.1523439 0.08203,-0.3046877 0.117188,-0.4570314 0.08203,-0.3046875 0.08203,-0.3164063 0.222656,-0.5390625 0.222656,-0.3398438 0.5625,-0.7382813 1.113281,-0.7382813 0.386719,0 0.410156,0.328125 0.410156,0.4921875 0,0.421875 -0.304687,1.1953127 -0.410156,1.4882817 -0.08203,0.1875 -0.105469,0.257812 -0.105469,0.375 0,0.363281 0.304688,0.597656 0.65625,0.597656 0.703125,0 1.007813,-0.960938 1.007813,-1.066406 0,-0.09375 -0.09375,-0.09375 -0.105469,-0.09375 -0.105469,0 -0.105469,0.04687 -0.140625,0.117187 -0.152344,0.5625 -0.457031,0.84375 -0.738281,0.84375 -0.140625,0 -0.175781,-0.09375 -0.175781,-0.246094 0,-0.152343 0.03516,-0.246093 0.164062,-0.5625 0.08203,-0.210937 0.375,-0.9492184 0.375,-1.3476559 0,-0.1054688 0,-0.3984375 -0.257812,-0.5976563 -0.128907,-0.09375 -0.328125,-0.1875 -0.65625,-0.1875 -0.621094,0 -1.007813,0.4101563 -1.230469,0.703125 -0.05859,-0.5976562 -0.550781,-0.703125 -0.902344,-0.703125 -0.585937,0 -0.972656,0.3515625 -1.183594,0.6328125 -0.04687,-0.4804687 -0.457031,-0.6328125 -0.75,-0.6328125 -0.292968,0 -0.457031,0.2109375 -0.550781,0.375 -0.152344,0.2578125 -0.246094,0.65625 -0.246094,0.6914063 0,0.082031 0.09375,0.082031 0.117188,0.082031 0.09375,0 0.105469,-0.011719 0.152344,-0.1992187 0.105468,-0.421875 0.234375,-0.7617188 0.515625,-0.7617188 0.175781,0 0.222656,0.1523438 0.222656,0.3398438 0,0.140625 -0.05859,0.3984375 -0.105469,0.5859375 -0.04687,0.1875 -0.117187,0.46875 -0.152344,0.6210937 l -0.222656,0.9023444 c -0.03516,0.08203 -0.07031,0.257812 -0.07031,0.28125 0,0.152343 0.117187,0.222656 0.234375,0.222656 0.128906,0 0.234375,-0.09375 0.269531,-0.152344 0.03516,-0.05859 0.09375,-0.292969 0.128906,-0.433594 0.03516,-0.128906 0.105469,-0.457031 0.152344,-0.632812 0.03516,-0.1523441 0.08203,-0.3046879 0.117187,-0.4570316 0.08203,-0.2929688 0.09375,-0.3515625 0.292969,-0.6328125 0.199219,-0.28125 0.527344,-0.6445313 1.042969,-0.6445313 0.410156,0 0.410156,0.3632813 0.410156,0.4921875 0,0.1757813 -0.01172,0.2695313 -0.117187,0.65625 z m 5.519531,0.445313 c 0,0.386719 -0.07031,0.832031 -0.550781,1.277344 -0.02344,0.03516 -0.04687,0.05859 -0.04687,0.09375 0,0.04687 0.05859,0.09375 0.09375,0.09375 0.105469,0 0.691406,-0.5625 0.691406,-1.394532 0,-0.421875 -0.164062,-0.75 -0.480469,-0.75 -0.234375,0 -0.398437,0.175782 -0.398437,0.386719 0,0.234375 0.152344,0.410156 0.398437,0.410156 0.164063,0 0.28125,-0.117187 0.292969,-0.117187 z m 3.146485,-4.2421877 c 0,-0.1054687 -0.08203,-0.2578125 -0.28125,-0.2578125 -0.1875,0 -0.386719,0.1757813 -0.386719,0.375 0,0.1171875 0.08203,0.2695313 0.269531,0.2695313 0.210938,0 0.398438,-0.1992188 0.398438,-0.3867188 z M 50.39325,10.442508 c -0.02344,0.09375 -0.05859,0.175781 -0.05859,0.292969 0,0.328125 0.28125,0.597656 0.667969,0.597656 0.691406,0 0.996094,-0.960938 0.996094,-1.066406 0,-0.09375 -0.08203,-0.09375 -0.105469,-0.09375 -0.105469,0 -0.105469,0.04687 -0.140625,0.117187 -0.152344,0.5625 -0.457031,0.84375 -0.738281,0.84375 -0.140625,0 -0.175781,-0.08203 -0.175781,-0.246094 0,-0.152343 0.05859,-0.292968 0.117187,-0.445312 0.07031,-0.1875 0.140625,-0.375 0.222656,-0.5507814 0.05859,-0.1640625 0.316407,-0.8085938 0.339844,-0.890625 0.02344,-0.070312 0.04687,-0.1523438 0.04687,-0.2226563 0,-0.328125 -0.28125,-0.5859375 -0.667969,-0.5859375 -0.691406,0 -1.007812,0.9492188 -1.007812,1.0664063 0,0.082031 0.09375,0.082031 0.117187,0.082031 0.09375,0 0.105469,-0.035156 0.128907,-0.1054687 0.175781,-0.5976563 0.480468,-0.8554688 0.738281,-0.8554688 0.117187,0 0.175781,0.058594 0.175781,0.2460938 0,0.1640625 -0.03516,0.2695312 -0.210937,0.703125 z m 0,0"
         style="fill:#000000;fill-opacity:1;fill-rule:nonzero;stroke:none" />
      <path
         id="path13"
         d="m 53.02118,6.0362578 c -0.05859,0 -0.140625,0 -0.140625,0.082031 0,0.035156 0.02344,0.058594 0.07031,0.1054687 0.597656,0.5507813 1.265625,1.4882813 1.265625,3.2929688 0,1.4531257 -0.457031,2.5546877 -1.207031,3.2343757 -0.117188,0.117187 -0.128906,0.128906 -0.128906,0.164062 0,0.03516 0.02344,0.08203 0.09375,0.08203 0.08203,0 0.75,-0.457031 1.207031,-1.324218 0.304687,-0.585938 0.503906,-1.335938 0.503906,-2.1562507 0,-0.984375 -0.292969,-2.5078125 -1.664062,-3.4804688 z m 0,0"
         style="fill:#000000;fill-opacity:1;fill-rule:nonzero;stroke:none" />
      <path
         id="path14"
         d="m 56.979188,11.145633 c 0,0.386719 -0.07031,0.832031 -0.550782,1.277344 -0.02344,0.03516 -0.04687,0.05859 -0.04687,0.09375 0,0.04687 0.05859,0.09375 0.09375,0.09375 0.105469,0 0.691407,-0.5625 0.691407,-1.394532 0,-0.421875 -0.164063,-0.75 -0.480469,-0.75 -0.234375,0 -0.398438,0.175782 -0.398438,0.386719 0,0.234375 0.152344,0.410156 0.398438,0.410156 0.164062,0 0.28125,-0.117187 0.292969,-0.117187 z m 2.856445,-4.5117189 c 0,-0.011719 0.02344,-0.1054688 0.02344,-0.1171875 0,-0.035156 -0.02344,-0.09375 -0.105468,-0.09375 -0.140625,0 -0.726563,0.058594 -0.902344,0.070312 -0.04687,0.011719 -0.140625,0.011719 -0.140625,0.1640625 0,0.09375 0.09375,0.09375 0.175781,0.09375 0.328125,0 0.328125,0.046875 0.328125,0.1054687 0,0.046875 -0.01172,0.09375 -0.02344,0.1523438 l -0.867188,3.4453134 c -0.02344,0.07031 -0.02344,0.140625 -0.02344,0.210937 0,0.457031 0.398437,0.667969 0.726562,0.667969 0.175781,0 0.375,-0.05859 0.5625,-0.375 0.140625,-0.257814 0.246094,-0.667969 0.246094,-0.691407 0,-0.09375 -0.09375,-0.09375 -0.117188,-0.09375 -0.09375,0 -0.105468,0.04687 -0.140625,0.164062 -0.08203,0.351563 -0.222656,0.796875 -0.515625,0.796875 -0.1875,0 -0.234375,-0.175781 -0.234375,-0.339844 0,-0.07031 0.01172,-0.210936 0.03516,-0.28125 z m 0,0"
         style="fill:#000000;fill-opacity:1;fill-rule:nonzero;stroke:none" />
      <path
         id="path15"
         d="m 70.537781,6.2061797 c 0.152344,0 0.339844,0 0.339844,-0.1992188 0,-0.1992187 -0.1875,-0.1992187 -0.328125,-0.1992187 h -5.964844 c -0.140625,0 -0.328125,0 -0.328125,0.1992187 0,0.1992188 0.1875,0.1992188 0.339844,0.1992188 z m 0.01172,1.9335937 c 0.140625,0 0.328125,0 0.328125,-0.1992187 0,-0.1992188 -0.1875,-0.1992188 -0.339844,-0.1992188 h -5.941406 c -0.152344,0 -0.339844,0 -0.339844,0.1992188 0,0.1992187 0.1875,0.1992187 0.328125,0.1992187 z M 77.12372,3.0889922 c 0,-0.234375 0,-0.2578125 -0.234375,-0.2578125 -0.609375,0.6328125 -1.488281,0.6328125 -1.804688,0.6328125 v 0.3164062 c 0.199219,0 0.785157,0 1.300782,-0.2578125 v 5.15625 c 0,0.3515625 -0.03516,0.4804688 -0.925782,0.4804688 H 75.14325 v 0.3046875 c 0.351563,-0.035156 1.207031,-0.035156 1.605469,-0.035156 0.398437,0 1.265625,0 1.617187,0.035156 V 9.1593047 H 78.0495 c -0.902344,0 -0.925781,-0.1171875 -0.925781,-0.4804688 z m 0,0"
         style="fill:#000000;fill-opacity:1;fill-rule:nonzero;stroke:none" />
      <path
         id="path16"
         d="m 81.219422,9.4522734 c 0,-0.65625 -0.257813,-1.0429687 -0.644531,-1.0429687 -0.328125,0 -0.527344,0.2460937 -0.527344,0.5273437 0,0.2695313 0.199219,0.5273438 0.527344,0.5273438 0.117187,0 0.246093,-0.035156 0.351562,-0.1289063 0.02344,-0.023437 0.03516,-0.035156 0.04687,-0.035156 0.01172,0 0.02344,0.011719 0.02344,0.1523437 0,0.7382814 -0.351563,1.3359374 -0.679688,1.6640624 -0.105469,0.105469 -0.105469,0.128906 -0.105469,0.164062 0,0.07031 0.04687,0.105469 0.09375,0.105469 0.117188,0 0.914063,-0.761719 0.914063,-1.9335934 z m 0,0"
         style="fill:#000000;fill-opacity:1;fill-rule:nonzero;stroke:none" />
      <path
         id="path17"
         d="m 89.103211,2.9249297 c 0.05859,-0.1054688 0.05859,-0.1289063 0.05859,-0.1757813 0,-0.09375 -0.08203,-0.1992187 -0.199219,-0.1992187 -0.128906,0 -0.199219,0.1171875 -0.234375,0.234375 L 87.907898,4.9757109 H 84.872742 L 84.05243,2.7843047 c -0.05859,-0.140625 -0.105469,-0.234375 -0.234375,-0.234375 -0.09375,0 -0.199219,0.1054687 -0.199219,0.1992187 0,0.023437 0,0.035156 0.05859,0.1757813 l 2.484375,6.5273437 c 0.04687,0.140625 0.09375,0.234375 0.222656,0.234375 0.140625,0 0.1875,-0.1171875 0.222656,-0.2109375 z m -4.066406,2.4492187 h 2.707031 l -1.359375,3.5390625 z m 0,0"
         style="fill:#000000;fill-opacity:1;fill-rule:nonzero;stroke:none" />
      <path
         id="path18"
         d="m 91.719422,2.6553984 c 0,0 0,-0.1054687 -0.128906,-0.1054687 -0.222657,0 -0.949219,0.082031 -1.207032,0.1054687 -0.08203,0 -0.199218,0.011719 -0.199218,0.1992188 0,0.1171875 0.105468,0.1171875 0.257812,0.1171875 0.46875,0 0.480469,0.082031 0.480469,0.1640625 l -0.02344,0.1992187 -1.253906,4.9804688 c -0.03516,0.1171875 -0.05859,0.1875 -0.05859,0.3398437 0,0.5742188 0.445313,0.9140625 0.914063,0.9140625 0.328125,0 0.574219,-0.1992187 0.75,-0.5507812 0.175781,-0.3867188 0.292969,-0.9609375 0.292969,-0.984375 0,-0.09375 -0.09375,-0.09375 -0.117188,-0.09375 -0.105469,0 -0.117187,0.035156 -0.140625,0.1757812 -0.175781,0.6445313 -0.363281,1.2421875 -0.761719,1.2421875 -0.292968,0 -0.292968,-0.328125 -0.292968,-0.4570312 0,-0.2460938 0.01172,-0.2929688 0.05859,-0.4804688 z m 0,0"
         style="fill:#000000;fill-opacity:1;fill-rule:nonzero;stroke:none" />
      <path
         id="path19"
         d="m 100.5495,7.1671172 c 0.16406,0 0.35156,0 0.35156,-0.1992188 0,-0.1992187 -0.1875,-0.1992187 -0.35156,-0.1992187 h -4.230469 c 0.128907,-1.3242188 1.265625,-2.2851563 2.671875,-2.2851563 h 1.558594 c 0.16406,0 0.35156,0 0.35156,-0.1992187 0,-0.1992188 -0.1875,-0.1992188 -0.35156,-0.1992188 h -1.570312 c -1.710938,0 -3.058594,1.2890625 -3.058594,2.8828125 0,1.59375 1.347656,2.8945313 3.058594,2.8945313 h 1.570312 c 0.16406,0 0.35156,0 0.35156,-0.1992188 0,-0.1992187 -0.1875,-0.1992187 -0.35156,-0.1992187 h -1.558594 c -1.40625,0 -2.542968,-0.9609375 -2.671875,-2.296875 z m 0,0"
         style="fill:#000000;fill-opacity:1;fill-rule:nonzero;stroke:none" />
      <path
         id="path20"
         d="m 106.09247,8.6905547 c -0.0937,0.3867187 -0.11719,0.46875 -0.90234,0.46875 -0.17579,0 -0.26954,0 -0.26954,0.1992187 0,0.1054688 0.082,0.1054688 0.26954,0.1054688 h 3.55078 c 1.57031,0 2.7539,-1.171875 2.7539,-2.15625 0,-0.7148438 -0.58593,-1.2890625 -1.54687,-1.3945313 1.03125,-0.1992187 2.08594,-0.9375 2.08594,-1.875 0,-0.7382812 -0.65625,-1.3828125 -1.85157,-1.3828125 h -3.35156 c -0.1875,0 -0.29297,0 -0.29297,0.1992188 0,0.1171875 0.0937,0.1171875 0.28125,0.1171875 0.0234,0 0.21094,0 0.375,0.011719 0.1875,0.023437 0.26953,0.035156 0.26953,0.1640625 0,0.035156 -0.0117,0.070312 -0.0352,0.1875 z m 1.5,-2.8710938 0.62109,-2.4726562 c 0.0937,-0.3515625 0.10547,-0.375 0.53907,-0.375 h 1.28906 c 0.86719,0 1.07812,0.5859375 1.07812,1.0195312 0,0.8789063 -0.85547,1.828125 -2.07422,1.828125 z m -0.44531,3.3398438 c -0.14063,0 -0.15235,0 -0.22266,-0.011719 -0.0937,-0.011719 -0.12891,-0.023437 -0.12891,-0.1054687 0,-0.023437 0,-0.046875 0.0586,-0.2226563 l 0.67969,-2.7773437 h 1.88671 c 0.96094,0 1.14844,0.7265625 1.14844,1.1601562 0,0.984375 -0.89062,1.9570313 -2.0625,1.9570313 z m 0,0"
         style="fill:#000000;fill-opacity:1;fill-rule:nonzero;stroke:none" />
    </g>
  </g>
</svg>
