<?xml version="1.0" encoding="UTF-8" standalone="no"?>
<!-- Created with Inkscape (http://www.inkscape.org/) -->

<svg
   version="1.1"
   id="svg1"
   width="263.67188"
   height="14.679688"
   viewBox="0 0 263.67188 14.679688"
   sodipodi:docname="Formulas.pdf"
   xmlns:inkscape="http://www.inkscape.org/namespaces/inkscape"
   xmlns:sodipodi="http://sodipodi.sourceforge.net/DTD/sodipodi-0.dtd"
   xmlns="http://www.w3.org/2000/svg"
   xmlns:svg="http://www.w3.org/2000/svg">
  <defs
     id="defs1" />
  <sodipodi:namedview
     id="namedview1"
     pagecolor="#ffffff"
     bordercolor="#000000"
     borderopacity="0.25"
     inkscape:showpageshadow="2"
     inkscape:pageopacity="0.0"
     inkscape:pagecheckerboard="0"
     inkscape:deskcolor="#d1d1d1" />
  <g
     id="g1"
     inkscape:groupmode="layer"
     inkscape:label="1"
     transform="translate(-396.19922,-115.25391)">
    <g
       id="g2"
       aria-label="Z&#10;(m,i)(n,j),l&#10;∈{0,1},∀(m,i),(n,j)∈C,∀l∈B"
       transform="matrix(1.3333333,0,0,1.3333333,395.43333,125.224)">
      <path
         id="path2"
         d="m 7.1720703,-6.5635078 c 0.011719,-0.046875 0.035156,-0.09375 0.035156,-0.1523438 0,-0.09375 -0.058594,-0.09375 -0.2578125,-0.09375 H 2.7541016 c -0.2460938,0 -0.2578125,0.011719 -0.3164063,0.1992188 l -0.5390625,1.7929687 c -0.023437,0.058594 -0.035156,0.1289063 -0.035156,0.140625 0,0.011719 0,0.1171875 0.1171875,0.1171875 0.09375,0 0.1171875,-0.070312 0.1289062,-0.1054687 0.3867188,-1.171875 0.9023438,-1.828125 2.4492188,-1.828125 h 1.6289062 l -5.56640624,6.22265624 c 0,0.0117188 -0.046875,0.15234375 -0.046875,0.17578125 0,0.09375 0.0703125,0.09375 0.2578125,0.09375 H 5.1564453 c 0.2460938,0 0.2578125,-0.01171875 0.3164063,-0.19921875 l 0.703125,-2.20312504 c 0.011719,-0.035156 0.035156,-0.1054687 0.035156,-0.1523437 0,-0.046875 -0.035156,-0.1054688 -0.1289062,-0.1054688 -0.082031,0 -0.09375,0.035156 -0.1640625,0.2460938 -0.4335938,1.359375 -0.9140625,2.07421874 -2.6132813,2.07421874 H 1.6056641 Z m 0,0"
         style="fill:#000000;fill-opacity:1;fill-rule:nonzero;stroke:none" />
      <path
         id="path3"
         d="M 9.2726562,-3.4287422 C 7.9484375,-2.5029609 7.596875,-1.0146797 7.596875,0.05172656 c 0,0.98437504 0.2929687,2.50781254 1.6757812,3.48046874 0.058594,0 0.140625,0 0.140625,-0.082031 0,-0.046875 -0.023437,-0.058594 -0.070312,-0.1054688 -0.9257812,-0.8320312 -1.265625,-2.015625 -1.265625,-3.29296874 0,-1.87499996 0.7148438,-2.80078126 1.2890625,-3.31640626 0.023437,-0.023437 0.046875,-0.046875 0.046875,-0.082031 0,-0.082031 -0.082031,-0.082031 -0.1406255,-0.082032 z m 0,0"
         style="fill:#000000;fill-opacity:1;fill-rule:nonzero;stroke:none" />
      <path
         id="path4"
         d="m 12.937695,1.2353203 c -0.03516,0.140625 -0.09375,0.375 -0.09375,0.4101563 0,0.1523437 0.128907,0.2226562 0.234375,0.2226562 0.128907,0 0.234375,-0.09375 0.269532,-0.1523437 0.03516,-0.058594 0.09375,-0.2929688 0.128906,-0.4335938 0.03516,-0.1289062 0.117187,-0.45703124 0.152344,-0.63281249 0.04687,-0.15234375 0.08203,-0.3046875 0.117187,-0.45703125 0.08203,-0.3046875 0.08203,-0.31640625 0.222656,-0.5390625 0.222657,-0.33984375 0.5625,-0.73828126 1.113282,-0.73828126 0.386718,0 0.410156,0.32812501 0.410156,0.49218751 0,0.421875 -0.304688,1.1953125 -0.410156,1.48828125 -0.08203,0.18750004 -0.105469,0.25781254 -0.105469,0.37500004 0,0.3632812 0.304687,0.5976562 0.65625,0.5976562 0.703125,0 1.007812,-0.96093749 1.007812,-1.06640624 0,-0.09375 -0.09375,-0.09375 -0.105468,-0.09375 -0.105469,0 -0.105469,0.046875 -0.140625,0.1171875 -0.152344,0.56250004 -0.457032,0.84375004 -0.738282,0.84375004 -0.140625,0 -0.175781,-0.09375 -0.175781,-0.2460938 0,-0.1523437 0.03516,-0.2460937 0.164063,-0.56249999 0.08203,-0.2109375 0.375,-0.94921875 0.375,-1.34765625 0,-0.10546875 0,-0.3984375 -0.257813,-0.59765626 -0.128906,-0.09375 -0.328125,-0.1875 -0.65625,-0.1875 -0.621094,0 -1.007812,0.41015626 -1.230469,0.70312501 -0.05859,-0.59765621 -0.550781,-0.70312501 -0.902343,-0.70312501 -0.585938,0 -0.972657,0.35156251 -1.183594,0.63281251 -0.04687,-0.48046871 -0.457031,-0.63281251 -0.75,-0.63281251 -0.292969,0 -0.457031,0.2109375 -0.550781,0.37500001 -0.152344,0.2578125 -0.246094,0.65625 -0.246094,0.69140625 0,0.0820313 0.09375,0.0820313 0.117187,0.0820313 0.09375,0 0.105469,-0.0117188 0.152344,-0.19921875 0.105469,-0.421875 0.234375,-0.76171881 0.515625,-0.76171881 0.175781,0 0.222656,0.15234381 0.222656,0.33984381 0,0.140625 -0.05859,0.3984375 -0.105468,0.5859375 -0.04687,0.1875 -0.117188,0.46875 -0.152344,0.62109375 L 10.769727,1.3642266 c -0.03516,0.082031 -0.07031,0.2578125 -0.07031,0.28125 0,0.1523437 0.117188,0.2226562 0.234375,0.2226562 0.128906,0 0.234375,-0.09375 0.269531,-0.1523437 0.03516,-0.058594 0.09375,-0.2929688 0.128907,-0.4335938 0.03516,-0.1289062 0.105468,-0.45703124 0.152343,-0.63281249 0.03516,-0.15234375 0.08203,-0.3046875 0.117188,-0.45703125 0.08203,-0.29296875 0.09375,-0.3515625 0.292969,-0.6328125 0.199218,-0.28125 0.527343,-0.64453126 1.042968,-0.64453126 0.410157,0 0.410157,0.36328126 0.410157,0.49218751 0,0.17578125 -0.01172,0.26953125 -0.117188,0.65625 z m 5.516602,0.4453125 c 0,0.3867188 -0.07031,0.8320313 -0.550781,1.2773438 -0.02344,0.035156 -0.04687,0.058594 -0.04687,0.09375 0,0.046875 0.05859,0.09375 0.09375,0.09375 0.105468,0 0.691406,-0.5625 0.691406,-1.3945313 0,-0.421875 -0.164063,-0.75 -0.480469,-0.75 -0.234375,0 -0.398437,0.1757813 -0.398437,0.3867188 0,0.234375 0.152343,0.4101562 0.398437,0.4101562 0.164063,0 0.28125,-0.1171875 0.292969,-0.1171875 z m 3.149414,-4.2421875 c 0,-0.1054687 -0.08203,-0.2578125 -0.28125,-0.2578125 -0.1875,0 -0.386719,0.1757813 -0.386719,0.375 0,0.1171875 0.08203,0.2695313 0.269531,0.2695313 0.210938,0 0.398438,-0.1992188 0.398438,-0.3867188 z m -1.429688,3.53906251 c -0.02344,0.09375 -0.05859,0.17578129 -0.05859,0.29296879 0,0.328125 0.28125,0.5976562 0.667968,0.5976562 0.691407,0 0.996094,-0.96093749 0.996094,-1.06640624 0,-0.09375 -0.08203,-0.09375 -0.105469,-0.09375 -0.105468,0 -0.105468,0.046875 -0.140625,0.1171875 C 21.381058,1.3876641 21.07637,1.6689141 20.79512,1.6689141 c -0.140625,0 -0.175781,-0.082031 -0.175781,-0.2460938 0,-0.1523437 0.05859,-0.2929687 0.117187,-0.44531249 0.07031,-0.1875 0.140625,-0.375 0.222657,-0.55078125 0.05859,-0.1640625 0.316406,-0.80859375 0.339843,-0.890625 0.02344,-0.0703125 0.04687,-0.15234375 0.04687,-0.22265625 0,-0.32812501 -0.28125,-0.58593751 -0.667968,-0.58593751 -0.691407,0 -1.007813,0.94921876 -1.007813,1.06640626 0,0.0820313 0.09375,0.0820313 0.117188,0.0820313 0.09375,0 0.105468,-0.0351563 0.128906,-0.10546875 0.175781,-0.59765625 0.480469,-0.85546881 0.738281,-0.85546881 0.117188,0 0.175781,0.058594 0.175781,0.24609381 0,0.1640625 -0.03516,0.26953125 -0.210937,0.703125 z m 0,0"
         style="fill:#000000;fill-opacity:1;fill-rule:nonzero;stroke:none" />
      <path
         id="path5"
         d="m 22.801953,-3.4287422 c -0.05859,0 -0.140625,0 -0.140625,0.082031 0,0.035156 0.02344,0.058594 0.07031,0.1054687 0.597656,0.5507813 1.265625,1.4882813 1.265625,3.29296876 0,1.45312504 -0.457032,2.55468754 -1.207032,3.23437504 -0.117187,0.1171875 -0.128906,0.1289062 -0.128906,0.1640625 0,0.035156 0.02344,0.082031 0.09375,0.082031 0.08203,0 0.75,-0.4570312 1.207031,-1.3242187 0.304688,-0.5859375 0.503907,-1.33593754 0.503907,-2.15625004 0,-0.984375 -0.292969,-2.50781246 -1.664063,-3.48046876 z m 4.951172,0 c -1.324219,0.9257813 -1.675781,2.4140625 -1.675781,3.48046876 0,0.98437504 0.292968,2.50781254 1.675781,3.48046874 0.05859,0 0.140625,0 0.140625,-0.082031 0,-0.046875 -0.02344,-0.058594 -0.07031,-0.1054688 -0.925781,-0.8320312 -1.265625,-2.015625 -1.265625,-3.29296874 0,-1.87499996 0.714844,-2.80078126 1.289063,-3.31640626 0.02344,-0.023437 0.04687,-0.046875 0.04687,-0.082031 0,-0.082031 -0.08203,-0.082031 -0.140625,-0.082031 z m 0,0"
         style="fill:#000000;fill-opacity:1;fill-rule:nonzero;stroke:none" />
      <path
         id="path6"
         d="m 29.250195,1.3642266 c -0.03516,0.082031 -0.07031,0.2578125 -0.07031,0.28125 0,0.1523437 0.117187,0.2226562 0.234375,0.2226562 0.128906,0 0.234375,-0.09375 0.269531,-0.1523437 0.03516,-0.058594 0.09375,-0.2929688 0.128906,-0.4335938 0.03516,-0.1289062 0.105469,-0.45703124 0.152344,-0.63281249 0.03516,-0.15234375 0.08203,-0.3046875 0.117188,-0.45703125 0.08203,-0.29296875 0.09375,-0.3515625 0.292968,-0.6328125 0.199219,-0.28125 0.527344,-0.64453126 1.042969,-0.64453126 0.410156,0 0.410156,0.36328126 0.410156,0.49218751 0,0.421875 -0.292968,1.1953125 -0.410156,1.48828125 -0.07031,0.18750004 -0.105469,0.25781254 -0.105469,0.37500004 0,0.3632812 0.304688,0.5976562 0.667969,0.5976562 0.691406,0 1.007813,-0.96093749 1.007813,-1.06640624 0,-0.09375 -0.09375,-0.09375 -0.117188,-0.09375 -0.09375,0 -0.105469,0.046875 -0.128906,0.1171875 -0.164063,0.56250004 -0.46875,0.84375004 -0.738281,0.84375004 -0.152344,0 -0.175782,-0.09375 -0.175782,-0.2460938 0,-0.1523437 0.03516,-0.2460937 0.152344,-0.56249999 0.09375,-0.2109375 0.375,-0.94921875 0.375,-1.34765625 0,-0.66796876 -0.539062,-0.78515626 -0.902344,-0.78515626 -0.585937,0 -0.972656,0.35156251 -1.183593,0.63281251 -0.04687,-0.48046871 -0.457032,-0.63281251 -0.75,-0.63281251 -0.292969,0 -0.457032,0.2109375 -0.550782,0.37500001 -0.152343,0.2578125 -0.246093,0.65625 -0.246093,0.69140625 0,0.0820313 0.09375,0.0820313 0.117187,0.0820313 0.09375,0 0.105469,-0.0117188 0.152344,-0.19921875 0.105469,-0.421875 0.234375,-0.76171871 0.515625,-0.76171871 0.175781,0 0.222656,0.15234371 0.222656,0.33984371 0,0.140625 -0.05859,0.3984375 -0.105469,0.5859375 -0.04687,0.1875 -0.117187,0.46875 -0.152343,0.62109375 z m 5.545899,0.3164062 c 0,0.3867188 -0.07031,0.8320313 -0.550782,1.2773438 -0.02344,0.035156 -0.04687,0.058594 -0.04687,0.09375 0,0.046875 0.05859,0.09375 0.09375,0.09375 0.105469,0 0.691407,-0.5625 0.691407,-1.3945313 0,-0.421875 -0.164063,-0.75 -0.480469,-0.75 -0.234375,0 -0.398438,0.1757813 -0.398438,0.3867188 0,0.234375 0.152344,0.4101562 0.398438,0.4101562 0.164062,0 0.28125,-0.1171875 0.292969,-0.1171875 z m 3.946289,-4.2421875 c 0,-0.1171875 -0.09375,-0.2578125 -0.28125,-0.2578125 -0.199219,0 -0.386719,0.1875 -0.386719,0.375 0,0.1171875 0.08203,0.2695313 0.28125,0.2695313 0.1875,0 0.386719,-0.1875 0.386719,-0.3867188 z M 37.26582,2.1376641 c -0.117187,0.4804687 -0.492187,0.890625 -0.902343,0.890625 -0.08203,0 -0.175782,-0.011719 -0.246094,-0.046875 0.175781,-0.082031 0.234375,-0.2460938 0.234375,-0.3515625 0,-0.1640625 -0.128906,-0.2578125 -0.269531,-0.2578125 -0.222657,0 -0.398438,0.1875 -0.398438,0.4101562 0,0.2695313 0.269531,0.4335938 0.691406,0.4335938 0.421875,0 1.230469,-0.2460938 1.453125,-1.1015625 l 0.621094,-2.49609379 c 0.02344,-0.0703125 0.03516,-0.140625 0.03516,-0.234375 0,-0.38671871 -0.328125,-0.65625001 -0.738281,-0.65625001 -0.785156,0 -1.230469,0.96093751 -1.230469,1.06640626 0,0.0820313 0.105469,0.0820313 0.128907,0.0820313 0.08203,0 0.08203,-0.0117188 0.128906,-0.1171875 0.175781,-0.41015625 0.539062,-0.84375006 0.949219,-0.84375006 0.175781,0 0.234375,0.11718756 0.234375,0.33984381 0,0.0820313 -0.01172,0.17578125 -0.02344,0.2109375 z m 0,0"
         style="fill:#000000;fill-opacity:1;fill-rule:nonzero;stroke:none" />
      <path
         id="path7"
         d="m 40.019727,-3.4287422 c -0.05859,0 -0.140625,0 -0.140625,0.082031 0,0.035156 0.02344,0.058594 0.07031,0.1054687 0.597656,0.5507813 1.265625,1.4882813 1.265625,3.29296876 0,1.45312504 -0.457031,2.55468754 -1.207031,3.23437504 -0.117188,0.1171875 -0.128906,0.1289062 -0.128906,0.1640625 0,0.035156 0.02344,0.082031 0.09375,0.082031 0.08203,0 0.75,-0.4570312 1.207031,-1.3242187 0.304687,-0.5859375 0.503906,-1.33593754 0.503906,-2.15625004 0,-0.984375 -0.292969,-2.50781246 -1.664062,-3.48046876 z m 0,0"
         style="fill:#000000;fill-opacity:1;fill-rule:nonzero;stroke:none" />
      <path
         id="path8"
         d="m 43.977734,1.6806328 c 0,0.3867188 -0.07031,0.8320313 -0.550781,1.2773438 -0.02344,0.035156 -0.04687,0.058594 -0.04687,0.09375 0,0.046875 0.05859,0.09375 0.09375,0.09375 0.105469,0 0.691406,-0.5625 0.691406,-1.3945313 0,-0.421875 -0.164062,-0.75 -0.480468,-0.75 -0.234375,0 -0.398438,0.1757813 -0.398438,0.3867188 0,0.234375 0.152344,0.4101562 0.398438,0.4101562 0.164062,0 0.28125,-0.1171875 0.292968,-0.1171875 z m 2.856446,-4.5117187 c 0,-0.011719 0.02344,-0.1054688 0.02344,-0.1171875 0,-0.035156 -0.02344,-0.09375 -0.105469,-0.09375 -0.140625,0 -0.726562,0.058594 -0.902343,0.070312 -0.04687,0.011719 -0.140625,0.011719 -0.140625,0.1640625 0,0.09375 0.09375,0.09375 0.175781,0.09375 0.328125,0 0.328125,0.046875 0.328125,0.1054687 0,0.046875 -0.01172,0.09375 -0.02344,0.1523438 l -0.867187,3.44531246 c -0.02344,0.0703125 -0.02344,0.14062504 -0.02344,0.21093754 0,0.4570312 0.398438,0.6679687 0.726563,0.6679687 0.175781,0 0.375,-0.058594 0.5625,-0.375 0.140625,-0.2578125 0.246094,-0.66796874 0.246094,-0.69140624 0,-0.09375 -0.09375,-0.09375 -0.117188,-0.09375 -0.09375,0 -0.105469,0.046875 -0.140625,0.1640625 -0.08203,0.35156254 -0.222656,0.79687504 -0.515625,0.79687504 -0.1875,0 -0.234375,-0.1757813 -0.234375,-0.3398438 0,-0.070312 0.01172,-0.2109375 0.03516,-0.28125 z m 0,0"
         style="fill:#000000;fill-opacity:1;fill-rule:nonzero;stroke:none" />
      <path
         id="path9"
         d="m 56.150586,-2.2978828 c 0.164062,0 0.351562,0 0.351562,-0.1992188 0,-0.1992187 -0.1875,-0.1992187 -0.351562,-0.1992187 h -4.230469 c 0.128906,-1.3242188 1.265625,-2.2851563 2.671875,-2.2851563 h 1.558594 c 0.164062,0 0.351562,0 0.351562,-0.1992187 0,-0.1992188 -0.1875,-0.1992188 -0.351562,-0.1992188 h -1.570313 c -1.710937,0 -3.058593,1.2890625 -3.058593,2.8828125 0,1.59375004 1.347656,2.89453129 3.058593,2.89453129 h 1.570313 c 0.164062,0 0.351562,0 0.351562,-0.19921875 0,-0.19921875 -0.1875,-0.19921875 -0.351562,-0.19921875 h -1.558594 c -1.40625,0 -2.542969,-0.9609375 -2.671875,-2.29687499 z m 6.758789,-3.84375 c 0,-0.3984375 0.257812,-1.0429688 1.335937,-1.1132813 0.05859,-0.011719 0.09375,-0.046875 0.09375,-0.1054687 0,-0.1171875 -0.08203,-0.1171875 -0.1875,-0.1171875 -0.996093,0 -1.910156,0.515625 -1.910156,1.2539062 v 2.2734375 c 0,0.3867188 0,0.703125 -0.398437,1.03125 -0.351563,0.2929688 -0.726563,0.3046875 -0.949219,0.3164063 -0.04687,0.011719 -0.09375,0.046875 -0.09375,0.1054687 0,0.1054688 0.05859,0.1054688 0.164062,0.1171875 0.65625,0.035156 1.136719,0.3984375 1.242188,0.8789063 0.03516,0.1171875 0.03516,0.140625 0.03516,0.4921875 v 1.96874999 c 0,0.42187501 0,0.73828121 0.46875,1.12500001 0.398438,0.2929687 1.054688,0.4101562 1.441406,0.4101562 0.105469,0 0.1875,0 0.1875,-0.1171875 0,-0.09375 -0.05859,-0.09375 -0.164062,-0.1054687 -0.621094,-0.046875 -1.113281,-0.3632813 -1.242188,-0.8671875 -0.02344,-0.09375 -0.02344,-0.1054688 -0.02344,-0.46875001 V -1.1611641 c 0,-0.4570312 -0.08203,-0.6210937 -0.398438,-0.9375 C 62.3,-2.3096016 62.007031,-2.4150703 61.725781,-2.4971016 c 0.820313,-0.2226562 1.183594,-0.6796875 1.183594,-1.2539062 z m 0,0"
         style="fill:#000000;fill-opacity:1;fill-rule:nonzero;stroke:none" />
      <path
         id="path10"
         d="m 69.665234,-3.1885078 c 0,-0.796875 -0.04687,-1.59375 -0.398437,-2.3320313 -0.457031,-0.9609375 -1.277344,-1.1132812 -1.6875,-1.1132812 -0.597656,0 -1.335938,0.2578125 -1.734375,1.1835937 -0.328125,0.6914063 -0.375,1.4648438 -0.375,2.2617188 0,0.75 0.04687,1.640625 0.445312,2.40234374 0.433594,0.80859375 1.160157,1.0078125 1.652344,1.0078125 0.539063,0 1.289063,-0.2109375 1.734375,-1.16015625 0.316406,-0.69140629 0.363281,-1.46484379 0.363281,-2.24999999 z m -2.097656,3.18749999 c -0.386719,0 -0.984375,-0.24609375 -1.160156,-1.20703129 -0.105469,-0.5976562 -0.105469,-1.5117187 -0.105469,-2.0976562 0,-0.6445313 0,-1.3007813 0.08203,-1.8398438 0.1875,-1.1835937 0.925782,-1.265625 1.183594,-1.265625 0.328125,0 0.984375,0.1757813 1.171875,1.1601563 0.09375,0.5625 0.09375,1.3125 0.09375,1.9453125 0,0.75 0,1.4179687 -0.105469,2.0625 -0.152343,0.93749999 -0.714843,1.24218749 -1.160155,1.24218749 z m 0,0"
         style="fill:#000000;fill-opacity:1;fill-rule:nonzero;stroke:none" />
      <path
         id="path11"
         d="m 72.091016,-0.01272656 c 0,-0.65625 -0.257813,-1.04296874 -0.644532,-1.04296874 -0.328125,0 -0.527343,0.24609374 -0.527343,0.52734374 0,0.26953125 0.199218,0.52734375 0.527343,0.52734375 0.117188,0 0.246094,-0.03515625 0.351563,-0.12890625 0.02344,-0.0234375 0.03516,-0.0351563 0.04687,-0.0351563 0.01172,0 0.02344,0.0117188 0.02344,0.15234375 0,0.73828125 -0.351562,1.33593741 -0.679687,1.66406241 -0.105469,0.1054688 -0.105469,0.1289063 -0.105469,0.1640625 0,0.070312 0.04687,0.1054688 0.09375,0.1054688 0.117188,0 0.914063,-0.7617188 0.914063,-1.93359371 z m 0,0"
         style="fill:#000000;fill-opacity:1;fill-rule:nonzero;stroke:none" />
      <path
         id="path12"
         d="m 77.420117,-6.3760078 c 0,-0.234375 0,-0.2578125 -0.234375,-0.2578125 -0.609375,0.6328125 -1.488281,0.6328125 -1.804687,0.6328125 v 0.3164062 c 0.199218,0 0.785156,0 1.300781,-0.2578125 v 5.15625004 c 0,0.3515625 -0.03516,0.48046875 -0.925781,0.48046875 h -0.316407 v 0.3046875 c 0.351563,-0.03515625 1.207032,-0.03515625 1.605469,-0.03515625 0.398438,0 1.265625,0 1.617188,0.03515625 v -0.3046875 h -0.316407 c -0.902343,0 -0.925781,-0.1171875 -0.925781,-0.48046875 z m 0,0"
         style="fill:#000000;fill-opacity:1;fill-rule:nonzero;stroke:none" />
      <path
         id="path13"
         d="m 81.627148,1.1591484 c 0,0.3984375 -0.257812,1.0429688 -1.347656,1.1132813 -0.04687,0.011719 -0.09375,0.046875 -0.09375,0.1054687 0,0.1171875 0.117188,0.1171875 0.199219,0.1171875 0.972656,0 1.898437,-0.4921875 1.910156,-1.2539062 v -2.2734375 c 0,-0.3867188 0,-0.703125 0.398438,-1.03125 0.339843,-0.2929688 0.726562,-0.3046875 0.9375,-0.3164063 0.05859,-0.011719 0.09375,-0.046875 0.09375,-0.1171875 0,-0.09375 -0.05859,-0.09375 -0.164063,-0.1054687 -0.65625,-0.035156 -1.136719,-0.3984375 -1.242187,-0.890625 -0.02344,-0.1054688 -0.02344,-0.1289063 -0.02344,-0.4804688 v -1.96875 c 0,-0.421875 0,-0.7382812 -0.480469,-1.125 -0.398437,-0.3046875 -1.089843,-0.4101562 -1.429687,-0.4101562 -0.08203,0 -0.199219,0 -0.199219,0.1171875 0,0.09375 0.05859,0.09375 0.164063,0.1054687 0.621093,0.046875 1.113281,0.3632813 1.242187,0.8671875 0.03516,0.09375 0.03516,0.1054688 0.03516,0.46875 v 2.0976563 c 0,0.4570312 0.07031,0.6210937 0.398438,0.9375 0.199219,0.2109375 0.492187,0.3164062 0.773437,0.3867187 -0.820312,0.234375 -1.171875,0.6914063 -1.171875,1.265625 z m 0,0"
         style="fill:#000000;fill-opacity:1;fill-rule:nonzero;stroke:none" />
      <path
         id="path14"
         d="m 86.481641,-0.01272656 c 0,-0.65625 -0.257813,-1.04296874 -0.644532,-1.04296874 -0.328125,0 -0.527343,0.24609374 -0.527343,0.52734374 0,0.26953125 0.199218,0.52734375 0.527343,0.52734375 0.117188,0 0.246094,-0.03515625 0.351563,-0.12890625 0.02344,-0.0234375 0.03516,-0.0351563 0.04687,-0.0351563 0.01172,0 0.02344,0.0117188 0.02344,0.15234375 0,0.73828125 -0.351562,1.33593741 -0.679687,1.66406241 -0.105469,0.1054688 -0.105469,0.1289063 -0.105469,0.1640625 0,0.070312 0.04687,0.1054688 0.09375,0.1054688 0.117188,0 0.914063,-0.7617188 0.914063,-1.93359371 z m 0,0"
         style="fill:#000000;fill-opacity:1;fill-rule:nonzero;stroke:none" />
      <path
         id="path15"
         d="m 94.36543,-6.5400703 c 0.05859,-0.1054688 0.05859,-0.1289063 0.05859,-0.1757813 0,-0.09375 -0.08203,-0.1992187 -0.199218,-0.1992187 -0.128907,0 -0.199219,0.1171875 -0.234375,0.234375 l -0.820313,2.1914062 h -3.035156 l -0.820313,-2.1914062 c -0.05859,-0.140625 -0.105468,-0.234375 -0.234375,-0.234375 -0.09375,0 -0.199218,0.1054687 -0.199218,0.1992187 0,0.023437 0,0.035156 0.05859,0.1757813 l 2.484375,6.52734374 c 0.04687,0.140625 0.09375,0.234375 0.222657,0.234375 0.140625,0 0.1875,-0.1171875 0.222656,-0.2109375 z m -4.066407,2.4492187 h 2.707032 l -1.359375,3.53906254 z m 0,0"
         style="fill:#000000;fill-opacity:1;fill-rule:nonzero;stroke:none" />
      <path
         id="path16"
         d="m 97.708203,2.3896172 c 0,-0.035156 0,-0.046875 -0.164062,-0.2226563 -1.242188,-1.25390621 -1.570313,-3.12890621 -1.570313,-4.6640625 0,-1.7226562 0.386719,-3.4570312 1.605469,-4.7109375 0.128906,-0.1171875 0.128906,-0.1289062 0.128906,-0.1640625 0,-0.070312 -0.03516,-0.1054687 -0.09375,-0.1054687 -0.105469,0 -0.996094,0.6796875 -1.582031,1.9453125 -0.515625,1.1015625 -0.632813,2.203125 -0.632813,3.0351562 0,0.7851563 0.117188,1.99218754 0.65625,3.11718754 0.597657,1.21874996 1.453125,1.87499996 1.558594,1.87499996 0.05859,0 0.09375,-0.035156 0.09375,-0.1054687 z m 0,0"
         style="fill:#000000;fill-opacity:1;fill-rule:nonzero;stroke:none" />
      <path
         id="path17"
         d="m 99.170117,-0.58694531 c -0.03516,0.15234375 -0.09375,0.375 -0.09375,0.421875 0,0.1875 0.140625,0.26953125 0.292969,0.26953125 0.117187,0 0.292969,-0.0703125 0.363281,-0.26953125 0.01172,-0.0234375 0.128906,-0.4921875 0.1875,-0.73828125 l 0.222653,-0.90234374 c 0.0586,-0.2226563 0.11719,-0.4335938 0.17578,-0.6679688 0.0352,-0.1640625 0.11719,-0.4570312 0.12891,-0.4921875 0.14063,-0.3164062 0.66797,-1.21875 1.61719,-1.21875 0.44531,0 0.53906,0.3632813 0.53906,0.6914063 0,0.2578125 -0.0703,0.5390625 -0.15234,0.8320312 l -0.26953,1.1601563 -0.19922,0.74999999 c -0.0469,0.19921875 -0.14063,0.5390625 -0.14063,0.5859375 0,0.1875 0.14063,0.26953125 0.29297,0.26953125 0.30469,0 0.375,-0.24609375 0.44531,-0.5625 0.14063,-0.56250004 0.51563,-2.01562504 0.59766,-2.40234374 0.0352,-0.1289063 0.5625,-1.3242188 1.65234,-1.3242188 0.42188,0 0.53907,0.3398438 0.53907,0.6914063 0,0.5742187 -0.42188,1.7109375 -0.6211,2.2382812 -0.0937,0.234375 -0.1289,0.35156254 -0.1289,0.55078129 0,0.46875 0.35156,0.80859375 0.80859,0.80859375 0.9375,0 1.3125,-1.45312504 1.3125,-1.53515624 0,-0.09375 -0.0937,-0.09375 -0.11719,-0.09375 -0.10547,0 -0.10547,0.023437 -0.15234,0.1757812 -0.15235,0.52734379 -0.46875,1.24218754 -1.01953,1.24218754 -0.16407,0 -0.23438,-0.10546875 -0.23438,-0.328125 0,-0.2578125 0.082,-0.4921875 0.17578,-0.71484374 0.1875,-0.515625 0.60938,-1.6171875 0.60938,-2.1914063 0,-0.6445312 -0.39844,-1.0664062 -1.14844,-1.0664062 -0.75,0 -1.25391,0.4453125 -1.61719,0.9726562 -0.0117,-0.1289062 -0.0469,-0.46875 -0.32812,-0.7148437 -0.2461,-0.1992188 -0.5625,-0.2578125 -0.8086,-0.2578125 -0.90234,0 -1.38281,0.6445312 -1.55859,0.8671875 -0.0469,-0.5625 -0.46875,-0.8671875 -0.914062,-0.8671875 -0.457031,0 -0.644531,0.3867187 -0.738281,0.5742187 -0.175781,0.3398438 -0.304687,0.9375 -0.304687,0.9609375 0,0.1054688 0.09375,0.1054688 0.117187,0.1054688 0.09375,0 0.105469,-0.011719 0.164063,-0.234375 0.175781,-0.703125 0.375,-1.1835938 0.726562,-1.1835938 0.164063,0 0.316406,0.082031 0.316406,0.4570313 0,0.2109375 -0.03516,0.3164062 -0.164062,0.8320312 z m 9.893553,0.57421875 c 0,-0.65625 -0.25781,-1.04296874 -0.64453,-1.04296874 -0.32812,0 -0.52734,0.24609374 -0.52734,0.52734374 0,0.26953125 0.19922,0.52734375 0.52734,0.52734375 0.11719,0 0.24609,-0.03515625 0.35156,-0.12890625 0.0234,-0.0234375 0.0352,-0.0351563 0.0469,-0.0351563 0.0117,0 0.0234,0.0117188 0.0234,0.15234375 0,0.73828125 -0.35157,1.33593741 -0.67969,1.66406241 -0.10547,0.1054688 -0.10547,0.1289063 -0.10547,0.1640625 0,0.070312 0.0469,0.1054688 0.0937,0.1054688 0.11719,0 0.91406,-0.7617188 0.91406,-1.93359371 z m 5.21192,-6.21093754 c 0,-0.1992187 -0.12891,-0.3632812 -0.36329,-0.3632812 -0.26953,0 -0.53906,0.2578125 -0.53906,0.5273437 0,0.1875 0.14063,0.3632813 0.375,0.3632813 0.23438,0 0.52735,-0.234375 0.52735,-0.5273438 z m -0.75,3.7382813 c 0.11718,-0.28125 0.11718,-0.3046875 0.22265,-0.5742188 0.0703,-0.1992187 0.12891,-0.3398437 0.12891,-0.5273437 0,-0.4453125 -0.32813,-0.8203125 -0.82031,-0.8203125 -0.9375,0 -1.3125,1.453125 -1.3125,1.5351562 0,0.1054688 0.0937,0.1054688 0.11718,0.1054688 0.0937,0 0.10547,-0.023437 0.15235,-0.1875 0.26953,-0.9375 0.66797,-1.2304688 1.00781,-1.2304688 0.082,0 0.25781,0 0.25781,0.3164063 0,0.2109375 -0.0703,0.421875 -0.11719,0.515625 -0.082,0.2578125 -0.52734,1.4179687 -0.67968,1.8515625 -0.10547,0.2578125 -0.23438,0.58593749 -0.23438,0.79687499 0,0.46875 0.33985,0.80859375 0.82031,0.80859375 0.9375,0 1.30079,-1.44140624 1.30079,-1.53515624 0,-0.09375 -0.0937,-0.09375 -0.11719,-0.09375 -0.10547,0 -0.10547,0.023437 -0.15235,0.1757812 -0.17578,0.63281254 -0.5039,1.24218754 -1.01953,1.24218754 -0.16406,0 -0.23437,-0.10546875 -0.23437,-0.328125 0,-0.2578125 0.0586,-0.3984375 0.29297,-0.99609374 z m 0,0"
         style="fill:#000000;fill-opacity:1;fill-rule:nonzero;stroke:none" />
      <path
         id="path18"
         d="m 117.77949,-2.4971016 c 0,-0.7734375 -0.11719,-1.9804687 -0.65625,-3.1054687 -0.59765,-1.21875 -1.46484,-1.875 -1.55859,-1.875 -0.0586,0 -0.10547,0.046875 -0.10547,0.1054687 0,0.035156 0,0.046875 0.19922,0.234375 0.97265,0.984375 1.53515,2.5664063 1.53515,4.640625 0,1.71093754 -0.36328,3.45703129 -1.59375,4.7226563 -0.14062,0.1171875 -0.14062,0.1289062 -0.14062,0.1640625 0,0.058594 0.0469,0.1054687 0.10547,0.1054687 0.0937,0 0.99609,-0.6796875 1.58203,-1.94531246 0.50391,-1.1015625 0.63281,-2.20312504 0.63281,-3.04687504 z m 0,0"
         style="fill:#000000;fill-opacity:1;fill-rule:nonzero;stroke:none" />
      <path
         id="path19"
         d="m 120.8,-0.01272656 c 0,-0.65625 -0.25781,-1.04296874 -0.64453,-1.04296874 -0.32813,0 -0.52735,0.24609374 -0.52735,0.52734374 0,0.26953125 0.19922,0.52734375 0.52735,0.52734375 0.11719,0 0.24609,-0.03515625 0.35156,-0.12890625 0.0234,-0.0234375 0.0352,-0.0351563 0.0469,-0.0351563 0.0117,0 0.0234,0.0117188 0.0234,0.15234375 0,0.73828125 -0.35156,1.33593741 -0.67968,1.66406241 -0.10547,0.1054688 -0.10547,0.1289063 -0.10547,0.1640625 0,0.070312 0.0469,0.1054688 0.0937,0.1054688 0.11718,0 0.91406,-0.7617188 0.91406,-1.93359371 z m 0,0"
         style="fill:#000000;fill-opacity:1;fill-rule:nonzero;stroke:none" />
      <path
         id="path20"
         d="m 126.49238,2.3896172 c 0,-0.035156 0,-0.046875 -0.16406,-0.2226563 -1.24219,-1.25390621 -1.57031,-3.12890621 -1.57031,-4.6640625 0,-1.7226562 0.38672,-3.4570312 1.60547,-4.7109375 0.1289,-0.1171875 0.1289,-0.1289062 0.1289,-0.1640625 0,-0.070312 -0.0352,-0.1054687 -0.0937,-0.1054687 -0.10547,0 -0.99609,0.6796875 -1.58203,1.9453125 -0.51562,1.1015625 -0.63281,2.203125 -0.63281,3.0351562 0,0.7851563 0.11719,1.99218754 0.65625,3.11718754 0.59766,1.21874996 1.45312,1.87499996 1.55859,1.87499996 0.0586,0 0.0937,-0.035156 0.0937,-0.1054687 z m 0,0"
         style="fill:#000000;fill-opacity:1;fill-rule:nonzero;stroke:none" />
      <path
         id="path21"
         d="m 127.9543,-0.58694531 c -0.0352,0.15234375 -0.0937,0.375 -0.0937,0.421875 0,0.1875 0.14062,0.26953125 0.29297,0.26953125 0.11718,0 0.29296,-0.0703125 0.36328,-0.26953125 0.0117,-0.0234375 0.1289,-0.4921875 0.1875,-0.73828125 L 128.927,-1.8056953 c 0.0586,-0.2226563 0.11719,-0.4335938 0.17578,-0.6679688 0.0352,-0.1640625 0.11719,-0.4570312 0.12891,-0.4921875 0.14063,-0.3164062 0.66797,-1.21875 1.61719,-1.21875 0.44531,0 0.53906,0.3632813 0.53906,0.6914063 0,0.6210937 -0.49219,1.8984375 -0.64453,2.3320312 -0.0937,0.22265629 -0.10547,0.33984379 -0.10547,0.45703129 0,0.46875 0.35156,0.80859375 0.82031,0.80859375 0.9375,0 1.30078,-1.45312504 1.30078,-1.53515624 0,-0.09375 -0.082,-0.09375 -0.11718,-0.09375 -0.0937,0 -0.0937,0.023437 -0.15235,0.1757812 -0.19922,0.67968754 -0.52734,1.24218754 -1.00781,1.24218754 -0.17578,0 -0.24609,-0.10546875 -0.24609,-0.328125 0,-0.2578125 0.0937,-0.4921875 0.1875,-0.71484374 0.1875,-0.5273438 0.59765,-1.6171875 0.59765,-2.1914063 0,-0.6679687 -0.42187,-1.0664062 -1.13672,-1.0664062 -0.90234,0 -1.38281,0.6445312 -1.55859,0.8671875 -0.0469,-0.5507813 -0.45703,-0.8671875 -0.91406,-0.8671875 -0.45703,0 -0.64453,0.3867187 -0.75,0.5742187 -0.15235,0.3398438 -0.29297,0.9257813 -0.29297,0.9609375 0,0.1054688 0.0937,0.1054688 0.11719,0.1054688 0.0937,0 0.10547,-0.011719 0.16406,-0.234375 0.17578,-0.703125 0.375,-1.1835938 0.72656,-1.1835938 0.19922,0 0.31641,0.1289063 0.31641,0.4570313 0,0.2109375 -0.0352,0.3164062 -0.16406,0.8320312 z m 7.125,0.57421875 c 0,-0.65625 -0.25782,-1.04296874 -0.64453,-1.04296874 -0.32813,0 -0.52735,0.24609374 -0.52735,0.52734374 0,0.26953125 0.19922,0.52734375 0.52735,0.52734375 0.11718,0 0.24609,-0.03515625 0.35156,-0.12890625 0.0234,-0.0234375 0.0352,-0.0351563 0.0469,-0.0351563 0.0117,0 0.0234,0.0117188 0.0234,0.15234375 0,0.73828125 -0.35156,1.33593741 -0.67969,1.66406241 -0.10547,0.1054688 -0.10547,0.1289063 -0.10547,0.1640625 0,0.070312 0.0469,0.1054688 0.0937,0.1054688 0.11719,0 0.91407,-0.7617188 0.91407,-1.93359371 z m 6.33398,-6.21093754 c 0,-0.1875 -0.12891,-0.3632812 -0.375,-0.3632812 -0.22266,0 -0.52734,0.234375 -0.52734,0.5273437 0,0.1992188 0.14062,0.3632813 0.375,0.3632813 0.26953,0 0.52734,-0.2578125 0.52734,-0.5273438 z m -1.99219,6.72656254 c -0.19922,0.74999996 -0.66797,1.32421876 -1.23047,1.32421876 -0.0586,0 -0.21093,0 -0.38671,-0.09375 0.29296,-0.070312 0.44531,-0.328125 0.44531,-0.5273438 0,-0.1640625 -0.10547,-0.35156246 -0.375,-0.35156246 -0.2461,0 -0.53906,0.21093746 -0.53906,0.57421876 0,0.3984375 0.39843,0.609375 0.8789,0.609375 0.69141,0 1.61719,-0.5273438 1.875,-1.51171876 l 0.91406,-3.64453124 c 0.0469,-0.1992188 0.0469,-0.3398438 0.0469,-0.375 0,-0.5625 -0.42188,-0.9140625 -0.91406,-0.9140625 -1.01953,0 -1.58203,1.453125 -1.58203,1.5351562 0,0.1054688 0.0937,0.1054688 0.11718,0.1054688 0.0937,0 0.0937,-0.011719 0.17578,-0.1992188 0.2461,-0.609375 0.71485,-1.21875 1.25391,-1.21875 0.14063,0 0.31641,0.035156 0.31641,0.4570313 0,0.234375 -0.0234,0.3398437 -0.0586,0.5039062 z m 0,0"
         style="fill:#000000;fill-opacity:1;fill-rule:nonzero;stroke:none" />
      <path
         id="path22"
         d="m 145.0373,-2.4971016 c 0,-0.7734375 -0.11718,-1.9804687 -0.65625,-3.1054687 -0.59765,-1.21875 -1.46484,-1.875 -1.55859,-1.875 -0.0586,0 -0.10547,0.046875 -0.10547,0.1054687 0,0.035156 0,0.046875 0.19922,0.234375 0.97266,0.984375 1.53516,2.5664063 1.53516,4.640625 0,1.71093754 -0.36328,3.45703129 -1.59375,4.7226563 -0.14063,0.1171875 -0.14063,0.1289062 -0.14063,0.1640625 0,0.058594 0.0469,0.1054687 0.10547,0.1054687 0.0937,0 0.99609,-0.6796875 1.58203,-1.94531246 0.50391,-1.1015625 0.63281,-2.20312504 0.63281,-3.04687504 z m 0,0"
         style="fill:#000000;fill-opacity:1;fill-rule:nonzero;stroke:none" />
      <path
         id="path23"
         d="m 154.25703,-2.2978828 c 0.16406,0 0.35156,0 0.35156,-0.1992188 0,-0.1992187 -0.1875,-0.1992187 -0.35156,-0.1992187 h -4.23047 c 0.12891,-1.3242188 1.26563,-2.2851563 2.67188,-2.2851563 h 1.55859 c 0.16406,0 0.35156,0 0.35156,-0.1992187 0,-0.1992188 -0.1875,-0.1992188 -0.35156,-0.1992188 h -1.57031 c -1.71094,0 -3.0586,1.2890625 -3.0586,2.8828125 0,1.59375004 1.34766,2.89453129 3.0586,2.89453129 h 1.57031 c 0.16406,0 0.35156,0 0.35156,-0.19921875 0,-0.19921875 -0.1875,-0.19921875 -0.35156,-0.19921875 h -1.55859 c -1.40625,0 -2.54297,-0.9609375 -2.67188,-2.29687499 z m 0,0"
         style="fill:#000000;fill-opacity:1;fill-rule:nonzero;stroke:none" />
      <path
         id="path24"
         d="m 165.77656,-6.9267891 c 0,-0.023437 -0.0234,-0.09375 -0.10547,-0.09375 -0.0351,0 -0.0469,0.011719 -0.15234,0.1171875 l -0.70313,0.7617188 c -0.082,-0.140625 -0.53906,-0.8789063 -1.65234,-0.8789063 -2.21484,0 -4.45312,2.203125 -4.45312,4.5117188 0,1.64062499 1.17187,2.73046874 2.69531,2.73046874 0.86719,0 1.61719,-0.3984375 2.14453,-0.85546875 0.9375,-0.82031249 1.10156,-1.72265629 1.10156,-1.75781249 0,-0.1054688 -0.10547,-0.1054688 -0.11719,-0.1054688 -0.0586,0 -0.11718,0.023437 -0.1289,0.1054688 -0.0937,0.2929687 -0.31641,0.9960937 -1.00781,1.57031249 -0.69141,0.5625 -1.3125,0.7265625 -1.83985,0.7265625 -0.89062,0 -1.94531,-0.515625 -1.94531,-2.06249999 0,-0.5742188 0.21094,-2.1914063 1.20703,-3.3515625 0.60938,-0.703125 1.53516,-1.2070313 2.42578,-1.2070313 1.01953,0 1.60547,0.7734375 1.60547,1.921875 0,0.3984375 -0.0352,0.4101563 -0.0352,0.5039063 0,0.1054687 0.11719,0.1054687 0.15235,0.1054687 0.1289,0 0.1289,-0.023437 0.17578,-0.1992187 z m 1.71973,6.91406254 c 0,-0.65625 -0.25781,-1.04296874 -0.64453,-1.04296874 -0.32813,0 -0.52735,0.24609374 -0.52735,0.52734374 0,0.26953125 0.19922,0.52734375 0.52735,0.52734375 0.11719,0 0.24609,-0.03515625 0.35156,-0.12890625 0.0234,-0.0234375 0.0352,-0.0351563 0.0469,-0.0351563 0.0117,0 0.0234,0.0117188 0.0234,0.15234375 0,0.73828125 -0.35156,1.33593741 -0.67968,1.66406241 -0.10547,0.1054688 -0.10547,0.1289063 -0.10547,0.1640625 0,0.070312 0.0469,0.1054688 0.0937,0.1054688 0.11718,0 0.91406,-0.7617188 0.91406,-1.93359371 z m 0,0"
         style="fill:#000000;fill-opacity:1;fill-rule:nonzero;stroke:none" />
      <path
         id="path25"
         d="m 175.39766,-6.5400703 c 0.0586,-0.1054688 0.0586,-0.1289063 0.0586,-0.1757813 0,-0.09375 -0.082,-0.1992187 -0.19922,-0.1992187 -0.12891,0 -0.19922,0.1171875 -0.23437,0.234375 l -0.82032,2.1914062 h -3.03515 l -0.82032,-2.1914062 c -0.0586,-0.140625 -0.10546,-0.234375 -0.23437,-0.234375 -0.0937,0 -0.19922,0.1054687 -0.19922,0.1992187 0,0.023437 0,0.035156 0.0586,0.1757813 l 2.48438,6.52734374 c 0.0469,0.140625 0.0937,0.234375 0.22266,0.234375 0.14062,0 0.1875,-0.1171875 0.22265,-0.2109375 z m -4.06641,2.4492187 h 2.70703 l -1.35937,3.53906254 z m 0,0"
         style="fill:#000000;fill-opacity:1;fill-rule:nonzero;stroke:none" />
      <path
         id="path26"
         d="m 178.01387,-6.8096016 c 0,0 0,-0.1054687 -0.12891,-0.1054687 -0.22266,0 -0.94922,0.082031 -1.20703,0.1054687 -0.082,0 -0.19922,0.011719 -0.19922,0.1992188 0,0.1171875 0.10547,0.1171875 0.25781,0.1171875 0.46875,0 0.48047,0.082031 0.48047,0.1640625 l -0.0234,0.1992187 -1.2539,4.9804688 c -0.0352,0.1171875 -0.0586,0.18749999 -0.0586,0.33984374 0,0.57421875 0.44532,0.9140625 0.91407,0.9140625 0.32812,0 0.57422,-0.19921875 0.75,-0.55078125 0.17578,-0.38671875 0.29297,-0.96093749 0.29297,-0.98437499 0,-0.09375 -0.0937,-0.09375 -0.11719,-0.09375 -0.10547,0 -0.11719,0.035156 -0.14063,0.1757812 -0.17578,0.64453129 -0.36328,1.24218754 -0.76172,1.24218754 -0.29296,0 -0.29296,-0.328125 -0.29296,-0.45703125 0,-0.24609375 0.0117,-0.29296875 0.0586,-0.48046879 z m 0,0"
         style="fill:#000000;fill-opacity:1;fill-rule:nonzero;stroke:none" />
      <path
         id="path27"
         d="m 186.84395,-2.2978828 c 0.16406,0 0.35156,0 0.35156,-0.1992188 0,-0.1992187 -0.1875,-0.1992187 -0.35156,-0.1992187 h -4.23047 c 0.1289,-1.3242188 1.26562,-2.2851563 2.67187,-2.2851563 h 1.5586 c 0.16406,0 0.35156,0 0.35156,-0.1992187 0,-0.1992188 -0.1875,-0.1992188 -0.35156,-0.1992188 h -1.57032 c -1.71093,0 -3.05859,1.2890625 -3.05859,2.8828125 0,1.59375004 1.34766,2.89453129 3.05859,2.89453129 h 1.57032 c 0.16406,0 0.35156,0 0.35156,-0.19921875 0,-0.19921875 -0.1875,-0.19921875 -0.35156,-0.19921875 h -1.5586 c -1.40625,0 -2.54297,-0.9609375 -2.67187,-2.29687499 z m 0,0"
         style="fill:#000000;fill-opacity:1;fill-rule:nonzero;stroke:none" />
      <path
         id="path28"
         d="m 192.38691,-0.77444531 c -0.0937,0.38671875 -0.11718,0.46875 -0.90234,0.46875 -0.17578,0 -0.26953,0 -0.26953,0.19921875 0,0.10546875 0.082,0.10546875 0.26953,0.10546875 h 3.55078 c 1.57031,0 2.75391,-1.17187499 2.75391,-2.15624999 0,-0.7148438 -0.58594,-1.2890625 -1.54688,-1.3945313 1.03125,-0.1992187 2.08594,-0.9375 2.08594,-1.875 0,-0.7382812 -0.65625,-1.3828125 -1.85156,-1.3828125 h -3.35156 c -0.1875,0 -0.29297,0 -0.29297,0.1992188 0,0.1171875 0.0937,0.1171875 0.28125,0.1171875 0.0234,0 0.21093,0 0.375,0.011719 0.1875,0.023437 0.26953,0.035156 0.26953,0.1640625 0,0.035156 -0.0117,0.070312 -0.0352,0.1875 z m 1.5,-2.87109379 0.6211,-2.4726562 c 0.0937,-0.3515625 0.10547,-0.375 0.53906,-0.375 h 1.28906 c 0.86719,0 1.07813,0.5859375 1.07813,1.0195312 0,0.8789063 -0.85547,1.828125 -2.07422,1.828125 z m -0.44531,3.33984379 c -0.14062,0 -0.15234,0 -0.22265,-0.0117188 -0.0937,-0.0117188 -0.12891,-0.0234375 -0.12891,-0.10546875 0,-0.0234375 0,-0.046875 0.0586,-0.22265625 l 0.67969,-2.77734369 h 1.88672 c 0.96094,0 1.14844,0.7265625 1.14844,1.1601562 0,0.984375 -0.89063,1.95703124 -2.0625,1.95703124 z m 0,0"
         style="fill:#000000;fill-opacity:1;fill-rule:nonzero;stroke:none" />
    </g>
  </g>
</svg>
