<?xml version="1.0" encoding="UTF-8" standalone="no"?>
<!-- Created with Inkscape (http://www.inkscape.org/) -->

<svg
   version="1.1"
   id="svg1"
   width="289.21875"
   height="18.222656"
   viewBox="0 0 289.21875 18.222656"
   sodipodi:docname="Formulas.pdf"
   xmlns:inkscape="http://www.inkscape.org/namespaces/inkscape"
   xmlns:sodipodi="http://sodipodi.sourceforge.net/DTD/sodipodi-0.dtd"
   xmlns="http://www.w3.org/2000/svg"
   xmlns:svg="http://www.w3.org/2000/svg">
  <defs
     id="defs1" />
  <sodipodi:namedview
     id="namedview1"
     pagecolor="#ffffff"
     bordercolor="#000000"
     borderopacity="0.25"
     inkscape:showpageshadow="2"
     inkscape:pageopacity="0.0"
     inkscape:pagecheckerboard="0"
     inkscape:deskcolor="#d1d1d1" />
  <g
     id="g1"
     inkscape:groupmode="layer"
     inkscape:label="1"
     transform="translate(-383.32422,-113.11328)">
    <g
       id="g2"
       aria-label="U&#10;AGV&#10;(m,i,α&#10;1&#10;)(n,j,α&#10;2&#10;)&#10;∈{0,1},∀(m,i,α&#10;1&#10;)(n,j,α&#10;2&#10;)∈W&#10;T"
       transform="matrix(1.3333333,0,0,1.3333333,382.43467,125.224)">
      <path
         id="path2"
         d="m 6.3273203,-5.7549141 c 0.09375,-0.4101562 0.28125,-0.7148437 1.078125,-0.7382812 0.046875,0 0.1640625,-0.011719 0.1640625,-0.1992188 0,-0.011719 0,-0.1171875 -0.1289062,-0.1171875 -0.328125,0 -0.6796875,0.035156 -1.0195313,0.035156 -0.3398437,0 -0.703125,-0.035156 -1.03125,-0.035156 -0.058594,0 -0.1757812,0 -0.1757812,0.1992188 0,0.1171875 0.09375,0.1171875 0.1757812,0.1171875 0.5625,0.011719 0.6796875,0.2109375 0.6796875,0.4335937 0,0.035156 -0.023437,0.1757813 -0.035156,0.2109375 l -0.890625,3.5507813 c -0.3398438,1.33593749 -1.4882813,2.20312499 -2.484375,2.20312499 -0.6796875,0 -1.21875,-0.43359375 -1.21875,-1.28906249 0,-0.023437 0,-0.3398438 0.1171875,-0.7734375 l 0.9609375,-3.8789063 c 0.09375,-0.3632812 0.1054687,-0.4570312 0.8320312,-0.4570312 0.2695313,0 0.3398438,0 0.3398438,-0.1992188 0,-0.1171875 -0.1054688,-0.1171875 -0.140625,-0.1171875 -0.2695313,0 -0.9960938,0.035156 -1.265625,0.035156 -0.2929688,0 -0.9960938,-0.035156 -1.28906254,-0.035156 -0.0820313,0 -0.1875,0 -0.1875,0.1992188 0,0.1171875 0.09375,0.1171875 0.28125004,0.1171875 0.011719,0 0.2109375,0 0.375,0.011719 0.1757812,0.023437 0.2695312,0.035156 0.2695312,0.1640625 0,0.058594 -0.1054687,0.4804688 -0.1757812,0.703125 l -0.2109375,0.8789063 c -0.09375,0.3867187 -0.57421879,2.2734375 -0.60937504,2.4609375 -0.0703125,0.28125 -0.0703125,0.4335937 -0.0703125,0.5742187 0,1.21875004 0.90234374,1.92187504 1.95703124,1.92187504 1.2539063,0 2.484375,-1.125 2.8125,-2.44921874 z m 0,0"
         style="fill:#000000;fill-opacity:1;fill-rule:nonzero;stroke:none" />
      <path
         id="path3"
         d="m 13.443531,-4.1142891 v -0.2460937 h -0.140625 c -0.46875,0 -0.515625,-0.070312 -0.585937,-0.2695313 L 11.01775,-8.9306953 c -0.03516,-0.1054688 -0.05859,-0.1523438 -0.199219,-0.1523438 -0.128906,0 -0.152343,0.046875 -0.1875,0.1523438 l -1.6171872,4.0898437 c -0.070312,0.1640625 -0.1875,0.4804688 -0.8085938,0.4804688 v 0.2460937 c 0.234375,-0.023437 0.4804688,-0.023437 0.7148438,-0.023437 0.28125,0 0.796875,0.023437 0.8320312,0.023437 v -0.2460937 c -0.3046875,0 -0.4921875,-0.140625 -0.4921875,-0.3398438 0,-0.058594 0,-0.070312 0.035156,-0.140625 l 0.328125,-0.8554687 h 1.9804695 l 0.410156,1.0195312 c 0.01172,0.035156 0.03516,0.082031 0.03516,0.1171875 0,0.1992188 -0.386719,0.1992188 -0.574219,0.1992188 v 0.2460937 l 1.042969,-0.023437 c 0.328125,0 0.855469,0.011719 0.925781,0.023437 z m -1.933593,-1.828125 H 9.7169688 l 0.9023442,-2.2734375 z m 7.77246,0.1523438 v -0.2460938 c -0.04687,0 -0.5625,0.023437 -0.902343,0.023437 -0.363282,0 -0.890625,0 -1.253907,-0.023437 v 0.2460938 h 0.257813 c 0.703125,0 0.703125,0.09375 0.703125,0.328125 v 0.4453125 c 0,0.1523437 0,0.421875 -0.398438,0.6210937 -0.339843,0.1640625 -0.738281,0.1640625 -0.820312,0.1640625 -0.796875,0 -2.085938,-0.4453125 -2.085938,-2.2617187 0,-1.8632813 1.324219,-2.2734375 2.015625,-2.2734375 0.679688,0 1.511719,0.4570312 1.699219,1.6640625 0.01172,0.082031 0.07031,0.082031 0.128906,0.082031 0.117188,0 0.117188,-0.046875 0.117188,-0.1875 v -1.6289062 c 0,-0.1171875 0,-0.1757813 -0.09375,-0.1757813 -0.02344,0 -0.05859,0 -0.117188,0.082031 l -0.375,0.5273437 c -0.339843,-0.3515625 -0.832031,-0.609375 -1.441406,-0.609375 -1.453125,0 -2.671875,1.125 -2.671875,2.5195313 0,1.3710937 1.183594,2.5195312 2.683594,2.5195312 0.386719,0 1.160156,-0.070312 1.488281,-0.5625 0.117188,0.1875 0.375,0.421875 0.445313,0.421875 0.08203,0 0.08203,-0.082031 0.08203,-0.1757812 v -1.1953125 c 0,-0.3046875 0.07031,-0.3046875 0.539062,-0.3046875 z m 6.09375,-2.8359375 v -0.2460938 c -0.210937,0.011719 -0.480468,0.023437 -0.679687,0.023437 -0.28125,0 -0.796875,-0.023437 -0.84375,-0.023437 v 0.2460938 c 0.257812,0 0.480469,0.1171875 0.480469,0.328125 0,0.046875 -0.01172,0.09375 -0.02344,0.140625 l -1.453125,3.375 -1.5,-3.5390625 c -0.04687,-0.082031 -0.04687,-0.09375 -0.04687,-0.1171875 0,-0.1875 0.363281,-0.1875 0.550781,-0.1875 v -0.2460938 l -1.03125,0.023437 c -0.351562,0 -0.878906,-0.023437 -0.902343,-0.023437 v 0.2460938 h 0.128906 c 0.375,0 0.492187,0.035156 0.585937,0.2460937 l 1.804688,4.2421875 c 0.04687,0.1171875 0.07031,0.1640625 0.199219,0.1640625 0.07031,0 0.140625,0 0.210937,-0.1523437 l 1.722656,-4.0429688 c 0.09375,-0.2109375 0.257813,-0.4453125 0.796875,-0.4570312 z m 0,0"
         style="fill:#000000;fill-opacity:1;fill-rule:nonzero;stroke:none" />
      <path
         id="path4"
         d="m 9.2745859,-2.3769844 c -1.3242187,0.9257813 -1.6757812,2.41406253 -1.6757812,3.4804688 0,0.984375 0.2929687,2.5078125 1.6757812,3.4804687 0.058594,0 0.140625,0 0.140625,-0.082031 0,-0.046875 -0.023437,-0.058594 -0.070312,-0.1054688 -0.9257812,-0.8320312 -1.265625,-2.015625 -1.265625,-3.2929687 0,-1.87500002 0.7148438,-2.8007813 1.2890625,-3.3164063 0.023437,-0.023437 0.046875,-0.046875 0.046875,-0.082031 0,-0.082031 -0.082031,-0.082031 -0.1406255,-0.082032 z m 0,0"
         style="fill:#000000;fill-opacity:1;fill-rule:nonzero;stroke:none" />
      <path
         id="path5"
         d="m 12.939625,2.2870781 c -0.03516,0.140625 -0.09375,0.375 -0.09375,0.4101563 0,0.1523437 0.128906,0.2226562 0.234375,0.2226562 0.128906,0 0.234375,-0.09375 0.269531,-0.1523437 0.03516,-0.058594 0.09375,-0.2929688 0.128907,-0.4335938 0.03516,-0.1289062 0.117187,-0.4570312 0.152343,-0.6328125 0.04687,-0.1523437 0.08203,-0.3046875 0.117188,-0.4570312 0.08203,-0.30468752 0.08203,-0.31640627 0.222656,-0.53906252 0.222656,-0.33984375 0.5625,-0.73828125 1.113281,-0.73828125 0.386719,0 0.410157,0.328125 0.410157,0.4921875 0,0.421875 -0.304688,1.19531247 -0.410157,1.48828127 -0.08203,0.1875 -0.105468,0.2578125 -0.105468,0.375 0,0.3632812 0.304687,0.5976562 0.65625,0.5976562 0.703125,0 1.007812,-0.9609375 1.007812,-1.0664062 0,-0.09375 -0.09375,-0.09375 -0.105469,-0.09375 -0.105468,0 -0.105468,0.046875 -0.140625,0.1171875 -0.152343,0.5625 -0.457031,0.84375 -0.738281,0.84375 -0.140625,0 -0.175781,-0.09375 -0.175781,-0.2460938 0,-0.1523437 0.03516,-0.2460937 0.164062,-0.5625 0.08203,-0.2109375 0.375,-0.94921872 0.375,-1.34765622 0,-0.10546875 0,-0.3984375 -0.257812,-0.59765625 -0.128906,-0.09375 -0.328125,-0.1875 -0.65625,-0.1875 -0.621094,0 -1.007813,0.41015625 -1.230469,0.703125 -0.05859,-0.59765625 -0.550781,-0.703125 -0.902344,-0.703125 -0.585937,0 -0.972656,0.3515625 -1.183593,0.6328125 -0.04687,-0.48046875 -0.457032,-0.6328125 -0.75,-0.6328125 -0.292969,0 -0.457032,0.2109375 -0.550782,0.375 -0.152343,0.2578125 -0.246093,0.65625 -0.246093,0.69140625 0,0.0820313 0.09375,0.0820313 0.117187,0.0820313 0.09375,0 0.105469,-0.0117188 0.152344,-0.19921875 0.105469,-0.421875 0.234375,-0.76171875 0.515625,-0.76171875 0.175781,0 0.222656,0.15234375 0.222656,0.33984375 0,0.140625 -0.05859,0.3984375 -0.105469,0.5859375 -0.04687,0.18749997 -0.117187,0.46874997 -0.152343,0.62109377 l -0.222657,0.9023438 c -0.03516,0.082031 -0.07031,0.2578125 -0.07031,0.28125 0,0.1523437 0.117187,0.2226562 0.234375,0.2226562 0.128906,0 0.234375,-0.09375 0.269531,-0.1523437 0.03516,-0.058594 0.09375,-0.2929688 0.128906,-0.4335938 0.03516,-0.1289062 0.105469,-0.4570312 0.152344,-0.6328125 0.03516,-0.1523438 0.08203,-0.3046875 0.117188,-0.4570313 0.08203,-0.29296872 0.09375,-0.35156247 0.292968,-0.63281247 0.199219,-0.28125 0.527344,-0.64453125 1.042969,-0.64453125 0.410156,0 0.410156,0.36328125 0.410156,0.4921875 0,0.17578125 -0.01172,0.26953125 -0.117187,0.65625002 z m 5.516602,0.4453125 c 0,0.3867188 -0.07031,0.8320313 -0.550782,1.2773438 -0.02344,0.035156 -0.04687,0.058594 -0.04687,0.09375 0,0.046875 0.05859,0.09375 0.09375,0.09375 0.105469,0 0.691407,-0.5625 0.691407,-1.3945313 0,-0.421875 -0.164063,-0.75 -0.480469,-0.75 -0.234375,0 -0.398438,0.1757813 -0.398438,0.3867188 0,0.234375 0.152344,0.4101562 0.398438,0.4101562 0.164062,0 0.28125,-0.1171875 0.292969,-0.1171875 z m 3.149414,-4.2421875 c 0,-0.1054687 -0.08203,-0.2578125 -0.28125,-0.2578125 -0.1875,0 -0.386719,0.1757813 -0.386719,0.375 0,0.1171875 0.08203,0.2695313 0.269531,0.2695313 0.210938,0 0.398438,-0.1992188 0.398438,-0.3867188 z m -1.429688,3.5390625 c -0.02344,0.09375 -0.05859,0.1757813 -0.05859,0.2929688 0,0.328125 0.28125,0.5976562 0.667969,0.5976562 0.691406,0 0.996094,-0.9609375 0.996094,-1.0664062 0,-0.09375 -0.08203,-0.09375 -0.105469,-0.09375 -0.105469,0 -0.105469,0.046875 -0.140625,0.1171875 -0.152344,0.5625 -0.457031,0.84375 -0.738281,0.84375 -0.140625,0 -0.175781,-0.082031 -0.175781,-0.2460938 0,-0.1523437 0.05859,-0.2929687 0.117187,-0.4453125 0.07031,-0.1875 0.140625,-0.375 0.222656,-0.5507812 0.05859,-0.1640625 0.316407,-0.80859377 0.339844,-0.89062502 0.02344,-0.0703125 0.04687,-0.15234375 0.04687,-0.22265625 0,-0.328125 -0.28125,-0.5859375 -0.667969,-0.5859375 -0.691406,0 -1.007812,0.94921875 -1.007812,1.06640625 0,0.0820313 0.09375,0.0820313 0.117187,0.0820313 0.09375,0 0.105469,-0.0351563 0.128907,-0.10546875 0.175781,-0.59765625 0.480468,-0.85546875 0.738281,-0.85546875 0.117187,0 0.175781,0.05859375 0.175781,0.24609375 0,0.1640625 -0.03516,0.26953125 -0.210937,0.703125 z m 3.462891,0.703125 c 0,0.3867188 -0.07031,0.8320313 -0.550781,1.2773438 -0.02344,0.035156 -0.04687,0.058594 -0.04687,0.09375 0,0.046875 0.05859,0.09375 0.09375,0.09375 0.105468,0 0.691406,-0.5625 0.691406,-1.3945313 0,-0.421875 -0.164063,-0.75 -0.480469,-0.75 -0.234375,0 -0.398437,0.1757813 -0.398437,0.3867188 0,0.234375 0.152343,0.4101562 0.398437,0.4101562 0.164063,0 0.28125,-0.1171875 0.292969,-0.1171875 z m 4.696289,-0.8671875 c 0.644531,-0.65625 0.902344,-1.59374997 0.902344,-1.66406247 0,-0.09375 -0.08203,-0.09375 -0.117188,-0.09375 -0.09375,0 -0.09375,0.0234375 -0.140625,0.17578125 -0.128906,0.45703125 -0.363281,0.89062502 -0.65625,1.26562502 0,-0.1054688 -0.02344,-0.57421877 -0.03516,-0.63281252 -0.105469,-0.69140625 -0.621094,-1.13671875 -1.324219,-1.13671875 -1.019531,0 -2.003906,0.94921875 -2.003906,1.92187497 0,0.6445313 0.46875,1.21875 1.277344,1.21875 0.644531,0 1.21875,-0.2929687 1.605468,-0.5976562 0.164063,0.515625 0.515625,0.5976562 0.726563,0.5976562 0.410156,0 0.65625,-0.3398437 0.65625,-0.4921875 0,-0.082031 -0.08203,-0.082031 -0.117188,-0.082031 -0.09375,0 -0.105468,0.035156 -0.117187,0.070312 -0.105469,0.2695312 -0.316406,0.3046875 -0.398438,0.3046875 -0.09375,0 -0.222656,0 -0.257812,-0.8554688 z m -0.539063,0.234375 c -0.679687,0.5625 -1.277343,0.6210938 -1.535156,0.6210938 -0.46875,0 -0.726562,-0.3046875 -0.726562,-0.7734375 0,-0.1992188 0.105468,-0.96093752 0.46875,-1.44140627 0.316406,-0.421875 0.714843,-0.5390625 0.960937,-0.5390625 0.550781,0 0.714844,0.5390625 0.773438,0.97265625 0.03516,0.30468752 0.02344,0.79687502 0.05859,1.16015622 z m 0,0"
         style="fill:#000000;fill-opacity:1;fill-rule:nonzero;stroke:none" />
      <path
         id="path6"
         d="m 31.695484,0.68160938 c 0,-0.15234375 -0.01172,-0.15234375 -0.175781,-0.15234375 -0.351562,0.31640625 -0.902344,0.31640625 -1.007812,0.31640625 h -0.08203 V 1.0683281 h 0.08203 c 0.117187,0 0.433593,-0.011719 0.726562,-0.14062497 V 3.4120781 c 0,0.1640625 0,0.2109375 -0.527344,0.2109375 h -0.246093 v 0.2226563 c 0.269531,-0.023437 0.714843,-0.023437 1.007812,-0.023437 0.28125,0 0.726563,0 0.996094,0.023437 V 3.6230156 h -0.246094 c -0.527344,0 -0.527344,-0.046875 -0.527344,-0.2109375 z m 0,0"
         style="fill:#000000;fill-opacity:1;fill-rule:nonzero;stroke:none" />
      <path
         id="path7"
         d="m 34.235523,-2.3769844 c -0.05859,0 -0.140625,0 -0.140625,0.082031 0,0.035156 0.02344,0.058594 0.07031,0.1054687 0.597656,0.5507813 1.265625,1.48828128 1.265625,3.2929688 0,1.453125 -0.457031,2.5546875 -1.207031,3.234375 -0.117188,0.1171875 -0.128907,0.1289062 -0.128907,0.1640625 0,0.035156 0.02344,0.082031 0.09375,0.082031 0.08203,0 0.75,-0.4570312 1.207032,-1.3242187 0.304687,-0.5859375 0.503906,-1.3359375 0.503906,-2.15625 0,-0.98437502 -0.292969,-2.5078125 -1.664063,-3.4804688 z m 4.951172,0 c -1.324218,0.9257813 -1.675781,2.41406253 -1.675781,3.4804688 0,0.984375 0.292969,2.5078125 1.675781,3.4804687 0.05859,0 0.140625,0 0.140625,-0.082031 0,-0.046875 -0.02344,-0.058594 -0.07031,-0.1054688 -0.925781,-0.8320312 -1.265625,-2.015625 -1.265625,-3.2929687 0,-1.87500002 0.714844,-2.8007813 1.289062,-3.3164063 0.02344,-0.023437 0.04687,-0.046875 0.04687,-0.082031 0,-0.082031 -0.08203,-0.082031 -0.140625,-0.082031 z m 0,0"
         style="fill:#000000;fill-opacity:1;fill-rule:nonzero;stroke:none" />
      <path
         id="path8"
         d="m 40.686695,2.4159844 c -0.03516,0.082031 -0.07031,0.2578125 -0.07031,0.28125 0,0.1523437 0.117187,0.2226562 0.234375,0.2226562 0.128906,0 0.234375,-0.09375 0.269531,-0.1523437 0.03516,-0.058594 0.09375,-0.2929688 0.128906,-0.4335938 0.03516,-0.1289062 0.105469,-0.4570312 0.152344,-0.6328125 0.03516,-0.1523437 0.08203,-0.3046875 0.117188,-0.4570312 0.08203,-0.29296877 0.09375,-0.35156252 0.292968,-0.63281252 0.199219,-0.28125 0.527344,-0.64453125 1.042969,-0.64453125 0.410156,0 0.410156,0.36328125 0.410156,0.4921875 0,0.421875 -0.292968,1.19531247 -0.410156,1.48828127 -0.07031,0.1875 -0.105469,0.2578125 -0.105469,0.375 0,0.3632812 0.304688,0.5976562 0.667969,0.5976562 0.691406,0 1.007813,-0.9609375 1.007813,-1.0664062 0,-0.09375 -0.09375,-0.09375 -0.117188,-0.09375 -0.09375,0 -0.105469,0.046875 -0.128906,0.1171875 -0.164063,0.5625 -0.46875,0.84375 -0.738281,0.84375 -0.152344,0 -0.175782,-0.09375 -0.175782,-0.2460938 0,-0.1523437 0.03516,-0.2460937 0.152344,-0.5625 0.09375,-0.2109375 0.375,-0.94921872 0.375,-1.34765622 0,-0.66796875 -0.539062,-0.78515625 -0.902344,-0.78515625 -0.585937,0 -0.972656,0.3515625 -1.183593,0.6328125 -0.04687,-0.48046875 -0.457032,-0.6328125 -0.75,-0.6328125 -0.292969,0 -0.457032,0.2109375 -0.550782,0.375 -0.152343,0.2578125 -0.246093,0.65625 -0.246093,0.69140625 0,0.0820313 0.09375,0.0820313 0.117187,0.0820313 0.09375,0 0.105469,-0.0117188 0.152344,-0.19921875 0.105469,-0.421875 0.234375,-0.76171875 0.515625,-0.76171875 0.175781,0 0.222656,0.15234375 0.222656,0.33984375 0,0.140625 -0.05859,0.3984375 -0.105469,0.5859375 C 41.01482,1.0800469 40.944508,1.3612969 40.909352,1.5136406 Z m 5.542969,0.3164062 c 0,0.3867188 -0.07031,0.8320313 -0.550781,1.2773438 -0.02344,0.035156 -0.04687,0.058594 -0.04687,0.09375 0,0.046875 0.05859,0.09375 0.09375,0.09375 0.105469,0 0.691406,-0.5625 0.691406,-1.3945313 0,-0.421875 -0.164062,-0.75 -0.480469,-0.75 -0.234375,0 -0.398437,0.1757813 -0.398437,0.3867188 0,0.234375 0.152344,0.4101562 0.398437,0.4101562 0.164063,0 0.28125,-0.1171875 0.292969,-0.1171875 z m 3.946289,-4.2421875 c 0,-0.1171875 -0.09375,-0.2578125 -0.28125,-0.2578125 -0.199219,0 -0.386719,0.1875 -0.386719,0.375 0,0.1171875 0.08203,0.2695313 0.28125,0.2695313 0.1875,0 0.386719,-0.1875 0.386719,-0.3867188 z m -1.476562,4.6992188 c -0.117188,0.4804687 -0.492188,0.890625 -0.902344,0.890625 -0.08203,0 -0.175781,-0.011719 -0.246094,-0.046875 0.175781,-0.082031 0.234375,-0.2460938 0.234375,-0.3515625 0,-0.1640625 -0.128906,-0.2578125 -0.269531,-0.2578125 -0.222656,0 -0.398438,0.1875 -0.398438,0.4101562 0,0.2695313 0.269532,0.4335938 0.691407,0.4335938 0.421875,0 1.230468,-0.2460938 1.453125,-1.1015625 l 0.621093,-2.49609377 c 0.02344,-0.0703125 0.03516,-0.140625 0.03516,-0.234375 0,-0.38671875 -0.328125,-0.65625 -0.738282,-0.65625 -0.785156,0 -1.230468,0.9609375 -1.230468,1.06640625 0,0.0820313 0.105468,0.0820313 0.128906,0.0820313 0.08203,0 0.08203,-0.0117188 0.128906,-0.1171875 0.175781,-0.41015625 0.539063,-0.84375 0.949219,-0.84375 0.175781,0 0.234375,0.1171875 0.234375,0.33984375 0,0.0820313 -0.01172,0.17578125 -0.02344,0.2109375 z m 3.166992,-0.4570313 c 0,0.3867188 -0.07031,0.8320313 -0.550781,1.2773438 -0.02344,0.035156 -0.04687,0.058594 -0.04687,0.09375 0,0.046875 0.05859,0.09375 0.09375,0.09375 0.105468,0 0.691406,-0.5625 0.691406,-1.3945313 0,-0.421875 -0.164063,-0.75 -0.480469,-0.75 -0.234375,0 -0.398437,0.1757813 -0.398437,0.3867188 0,0.234375 0.152343,0.4101562 0.398437,0.4101562 0.164063,0 0.28125,-0.1171875 0.292969,-0.1171875 z m 4.696289,-0.8671875 c 0.644531,-0.65625 0.902344,-1.59374997 0.902344,-1.66406247 0,-0.09375 -0.08203,-0.09375 -0.117188,-0.09375 -0.09375,0 -0.09375,0.0234375 -0.140625,0.17578125 -0.128906,0.45703125 -0.363281,0.89062502 -0.65625,1.26562502 0,-0.1054688 -0.02344,-0.57421877 -0.03516,-0.63281252 -0.105469,-0.69140625 -0.621094,-1.13671875 -1.324219,-1.13671875 -1.019531,0 -2.003906,0.94921875 -2.003906,1.92187497 0,0.6445313 0.46875,1.21875 1.277344,1.21875 0.644531,0 1.21875,-0.2929687 1.605468,-0.5976562 0.164063,0.515625 0.515625,0.5976562 0.726563,0.5976562 0.410156,0 0.65625,-0.3398437 0.65625,-0.4921875 0,-0.082031 -0.08203,-0.082031 -0.117188,-0.082031 -0.09375,0 -0.105468,0.035156 -0.117187,0.070312 -0.105469,0.2695312 -0.316406,0.3046875 -0.398438,0.3046875 -0.09375,0 -0.222656,0 -0.257812,-0.8554688 z m -0.539063,0.234375 c -0.679687,0.5625 -1.277343,0.6210938 -1.535156,0.6210938 -0.46875,0 -0.726562,-0.3046875 -0.726562,-0.7734375 0,-0.1992188 0.105468,-0.96093752 0.46875,-1.44140627 0.316406,-0.421875 0.714843,-0.5390625 0.960937,-0.5390625 0.550781,0 0.714844,0.5390625 0.773438,0.97265625 0.03516,0.30468752 0.02344,0.79687502 0.05859,1.16015622 z m 0,0"
         style="fill:#000000;fill-opacity:1;fill-rule:nonzero;stroke:none" />
      <path
         id="path9"
         d="m 60.866383,2.8847344 h -0.210938 c -0.01172,0.09375 -0.05859,0.3984375 -0.140625,0.4570312 -0.03516,0.023437 -0.457031,0.023437 -0.527343,0.023437 h -0.984375 c 0.328125,-0.2460937 0.703125,-0.515625 0.996093,-0.7148437 0.457032,-0.3164063 0.867188,-0.5976563 0.867188,-1.125 0,-0.64453127 -0.597656,-0.99609377 -1.3125,-0.99609377 -0.667969,0 -1.160156,0.38671875 -1.160156,0.87890627 0,0.2578125 0.210937,0.3046875 0.28125,0.3046875 0.140625,0 0.292968,-0.09375 0.292968,-0.2929688 0,-0.1875 -0.128906,-0.28125 -0.28125,-0.2929687 0.140625,-0.23437502 0.433594,-0.37500002 0.761719,-0.37500002 0.480469,0 0.890625,0.28125002 0.890625,0.77343752 0,0.421875 -0.292969,0.7382812 -0.679687,1.0546875 l -1.207032,1.03125 c -0.04687,0.046875 -0.05859,0.046875 -0.05859,0.082031 v 0.1523438 h 2.308593 z m 0,0"
         style="fill:#000000;fill-opacity:1;fill-rule:nonzero;stroke:none" />
      <path
         id="path10"
         d="m 62.460133,-2.3769844 c -0.05859,0 -0.140625,0 -0.140625,0.082031 0,0.035156 0.02344,0.058594 0.07031,0.1054687 0.597657,0.5507813 1.265625,1.48828128 1.265625,3.2929688 0,1.453125 -0.457031,2.5546875 -1.207031,3.234375 -0.117187,0.1171875 -0.128906,0.1289062 -0.128906,0.1640625 0,0.035156 0.02344,0.082031 0.09375,0.082031 0.08203,0 0.75,-0.4570312 1.207031,-1.3242187 0.304688,-0.5859375 0.503906,-1.3359375 0.503906,-2.15625 0,-0.98437502 -0.292968,-2.5078125 -1.664062,-3.4804688 z m 0,0"
         style="fill:#000000;fill-opacity:1;fill-rule:nonzero;stroke:none" />
      <path
         id="path11"
         d="m 73.666188,-2.2978828 c 0.164062,0 0.351562,0 0.351562,-0.1992188 0,-0.1992187 -0.1875,-0.1992187 -0.351562,-0.1992187 h -4.230469 c 0.128906,-1.3242188 1.265625,-2.2851563 2.671875,-2.2851563 h 1.558594 c 0.164062,0 0.351562,0 0.351562,-0.1992187 0,-0.1992188 -0.1875,-0.1992188 -0.351562,-0.1992188 h -1.570313 c -1.710937,0 -3.058594,1.2890625 -3.058594,2.8828125 0,1.59375004 1.347657,2.89453129 3.058594,2.89453129 h 1.570313 c 0.164062,0 0.351562,0 0.351562,-0.19921875 0,-0.19921875 -0.1875,-0.19921875 -0.351562,-0.19921875 h -1.558594 c -1.40625,0 -2.542969,-0.9609375 -2.671875,-2.29687499 z m 6.758789,-3.84375 c 0,-0.3984375 0.257812,-1.0429688 1.335937,-1.1132813 0.05859,-0.011719 0.09375,-0.046875 0.09375,-0.1054687 0,-0.1171875 -0.08203,-0.1171875 -0.1875,-0.1171875 -0.996094,0 -1.910156,0.515625 -1.910156,1.2539062 v 2.2734375 c 0,0.3867188 0,0.703125 -0.398438,1.03125 -0.351562,0.2929688 -0.726562,0.3046875 -0.949218,0.3164063 -0.04687,0.011719 -0.09375,0.046875 -0.09375,0.1054687 0,0.1054688 0.05859,0.1054688 0.164062,0.1171875 0.65625,0.035156 1.136719,0.3984375 1.242188,0.8789063 0.03516,0.1171875 0.03516,0.140625 0.03516,0.4921875 v 1.96874999 c 0,0.42187501 0,0.73828121 0.46875,1.12500001 0.398437,0.2929687 1.054687,0.4101562 1.441406,0.4101562 0.105469,0 0.1875,0 0.1875,-0.1171875 0,-0.09375 -0.05859,-0.09375 -0.164062,-0.1054687 -0.621094,-0.046875 -1.113282,-0.3632813 -1.242188,-0.8671875 -0.02344,-0.09375 -0.02344,-0.1054688 -0.02344,-0.46875001 V -1.1611641 c 0,-0.4570312 -0.08203,-0.6210937 -0.398438,-0.9375 -0.210937,-0.2109375 -0.503906,-0.3164062 -0.785156,-0.3984375 0.820312,-0.2226562 1.183594,-0.6796875 1.183594,-1.2539062 z m 0,0"
         style="fill:#000000;fill-opacity:1;fill-rule:nonzero;stroke:none" />
      <path
         id="path12"
         d="m 87.177906,-3.1885078 c 0,-0.796875 -0.04687,-1.59375 -0.398437,-2.3320313 -0.457031,-0.9609375 -1.277344,-1.1132812 -1.6875,-1.1132812 -0.597656,0 -1.335938,0.2578125 -1.734375,1.1835937 -0.328125,0.6914063 -0.375,1.4648438 -0.375,2.2617188 0,0.75 0.04687,1.640625 0.445312,2.40234374 0.433594,0.80859375 1.160157,1.0078125 1.652344,1.0078125 0.539063,0 1.289063,-0.2109375 1.734375,-1.16015625 0.316406,-0.69140629 0.363281,-1.46484379 0.363281,-2.24999999 z m -2.097656,3.18749999 c -0.386719,0 -0.984375,-0.24609375 -1.160156,-1.20703129 -0.105469,-0.5976562 -0.105469,-1.5117187 -0.105469,-2.0976562 0,-0.6445313 0,-1.3007813 0.08203,-1.8398438 0.1875,-1.1835937 0.925782,-1.265625 1.183594,-1.265625 0.328125,0 0.984375,0.1757813 1.171875,1.1601563 0.09375,0.5625 0.09375,1.3125 0.09375,1.9453125 0,0.75 0,1.4179687 -0.105469,2.0625 -0.152343,0.93749999 -0.714843,1.24218749 -1.160155,1.24218749 z m 0,0"
         style="fill:#000000;fill-opacity:1;fill-rule:nonzero;stroke:none" />
      <path
         id="path13"
         d="m 89.603688,-0.01272656 c 0,-0.65625 -0.257813,-1.04296874 -0.644532,-1.04296874 -0.328125,0 -0.527343,0.24609374 -0.527343,0.52734374 0,0.26953125 0.199218,0.52734375 0.527343,0.52734375 0.117188,0 0.246094,-0.03515625 0.351563,-0.12890625 0.02344,-0.0234375 0.03516,-0.0351563 0.04687,-0.0351563 0.01172,0 0.02344,0.0117188 0.02344,0.15234375 0,0.73828125 -0.351562,1.33593741 -0.679687,1.66406241 -0.105469,0.1054688 -0.105469,0.1289063 -0.105469,0.1640625 0,0.070312 0.04687,0.1054688 0.09375,0.1054688 0.117188,0 0.914063,-0.7617188 0.914063,-1.93359371 z m 0,0"
         style="fill:#000000;fill-opacity:1;fill-rule:nonzero;stroke:none" />
      <path
         id="path14"
         d="m 94.932789,-6.3760078 c 0,-0.234375 0,-0.2578125 -0.234375,-0.2578125 -0.609375,0.6328125 -1.488281,0.6328125 -1.804687,0.6328125 v 0.3164062 c 0.199218,0 0.785156,0 1.300781,-0.2578125 v 5.15625004 c 0,0.3515625 -0.03516,0.48046875 -0.925781,0.48046875 H 92.95232 v 0.3046875 c 0.351563,-0.03515625 1.207032,-0.03515625 1.605469,-0.03515625 0.398438,0 1.265625,0 1.617188,0.03515625 v -0.3046875 H 95.85857 c -0.902343,0 -0.925781,-0.1171875 -0.925781,-0.48046875 z m 0,0"
         style="fill:#000000;fill-opacity:1;fill-rule:nonzero;stroke:none" />
      <path
         id="path15"
         d="m 99.14275,1.1591484 c 0,0.3984375 -0.257812,1.0429688 -1.347656,1.1132813 -0.04687,0.011719 -0.09375,0.046875 -0.09375,0.1054687 0,0.1171875 0.117187,0.1171875 0.199219,0.1171875 0.972656,0 1.898437,-0.4921875 1.910156,-1.2539062 v -2.2734375 c 0,-0.3867188 0,-0.703125 0.398441,-1.03125 0.33984,-0.2929688 0.72656,-0.3046875 0.9375,-0.3164063 0.0586,-0.011719 0.0937,-0.046875 0.0937,-0.1171875 0,-0.09375 -0.0586,-0.09375 -0.16407,-0.1054687 -0.65625,-0.035156 -1.136715,-0.3984375 -1.242184,-0.890625 -0.02344,-0.1054688 -0.02344,-0.1289063 -0.02344,-0.4804688 v -1.96875 c 0,-0.421875 0,-0.7382812 -0.480469,-1.125 -0.398437,-0.3046875 -1.089844,-0.4101562 -1.429687,-0.4101562 -0.08203,0 -0.199219,0 -0.199219,0.1171875 0,0.09375 0.05859,0.09375 0.164062,0.1054687 0.621094,0.046875 1.113282,0.3632813 1.242188,0.8671875 0.03516,0.09375 0.03516,0.1054688 0.03516,0.46875 v 2.0976563 c 0,0.4570312 0.07031,0.6210937 0.398438,0.9375 0.199218,0.2109375 0.492191,0.3164062 0.773441,0.3867187 -0.820316,0.234375 -1.171879,0.6914063 -1.171879,1.265625 z m 0,0"
         style="fill:#000000;fill-opacity:1;fill-rule:nonzero;stroke:none" />
      <path
         id="path16"
         d="m 103.99431,-0.01272656 c 0,-0.65625 -0.25781,-1.04296874 -0.64453,-1.04296874 -0.32812,0 -0.52734,0.24609374 -0.52734,0.52734374 0,0.26953125 0.19922,0.52734375 0.52734,0.52734375 0.11719,0 0.2461,-0.03515625 0.35156,-0.12890625 0.0234,-0.0234375 0.0352,-0.0351563 0.0469,-0.0351563 0.0117,0 0.0234,0.0117188 0.0234,0.15234375 0,0.73828125 -0.35157,1.33593741 -0.67969,1.66406241 -0.10547,0.1054688 -0.10547,0.1289063 -0.10547,0.1640625 0,0.070312 0.0469,0.1054688 0.0937,0.1054688 0.11719,0 0.91406,-0.7617188 0.91406,-1.93359371 z m 0,0"
         style="fill:#000000;fill-opacity:1;fill-rule:nonzero;stroke:none" />
      <path
         id="path17"
         d="m 111.8781,-6.5400703 c 0.0586,-0.1054688 0.0586,-0.1289063 0.0586,-0.1757813 0,-0.09375 -0.082,-0.1992187 -0.19922,-0.1992187 -0.12891,0 -0.19922,0.1171875 -0.23438,0.234375 l -0.82031,2.1914062 h -3.03516 l -0.82031,-2.1914062 c -0.0586,-0.140625 -0.10547,-0.234375 -0.23437,-0.234375 -0.0937,0 -0.19922,0.1054687 -0.19922,0.1992187 0,0.023437 0,0.035156 0.0586,0.1757813 l 2.48438,6.52734374 c 0.0469,0.140625 0.0937,0.234375 0.22265,0.234375 0.14063,0 0.1875,-0.1171875 0.22266,-0.2109375 z m -4.0664,2.4492187 h 2.70703 l -1.35938,3.53906254 z m 0,0"
         style="fill:#000000;fill-opacity:1;fill-rule:nonzero;stroke:none" />
      <path
         id="path18"
         d="m 115.2238,2.3896172 c 0,-0.035156 0,-0.046875 -0.16406,-0.2226563 -1.24219,-1.25390621 -1.57031,-3.12890621 -1.57031,-4.6640625 0,-1.7226562 0.38672,-3.4570312 1.60547,-4.7109375 0.1289,-0.1171875 0.1289,-0.1289062 0.1289,-0.1640625 0,-0.070312 -0.0352,-0.1054687 -0.0937,-0.1054687 -0.10546,0 -0.99609,0.6796875 -1.58203,1.9453125 -0.51562,1.1015625 -0.63281,2.203125 -0.63281,3.0351562 0,0.7851563 0.11719,1.99218754 0.65625,3.11718754 0.59766,1.21874996 1.45313,1.87499996 1.55859,1.87499996 0.0586,0 0.0937,-0.035156 0.0937,-0.1054687 z m 0,0"
         style="fill:#000000;fill-opacity:1;fill-rule:nonzero;stroke:none" />
      <path
         id="path19"
         d="m 116.68279,-0.58694531 c -0.0352,0.15234375 -0.0937,0.375 -0.0937,0.421875 0,0.1875 0.14062,0.26953125 0.29297,0.26953125 0.11719,0 0.29297,-0.0703125 0.36328,-0.26953125 0.0117,-0.0234375 0.12891,-0.4921875 0.1875,-0.73828125 l 0.22266,-0.90234374 c 0.0586,-0.2226563 0.11718,-0.4335938 0.17578,-0.6679688 0.0352,-0.1640625 0.11718,-0.4570312 0.1289,-0.4921875 0.14063,-0.3164062 0.66797,-1.21875 1.61719,-1.21875 0.44531,0 0.53906,0.3632813 0.53906,0.6914063 0,0.2578125 -0.0703,0.5390625 -0.15234,0.8320312 l -0.26953,1.1601563 -0.19922,0.74999999 c -0.0469,0.19921875 -0.14063,0.5390625 -0.14063,0.5859375 0,0.1875 0.14063,0.26953125 0.29297,0.26953125 0.30469,0 0.375,-0.24609375 0.44532,-0.5625 0.14062,-0.56250004 0.51562,-2.01562504 0.59765,-2.40234374 0.0352,-0.1289063 0.5625,-1.3242188 1.65235,-1.3242188 0.42187,0 0.53906,0.3398438 0.53906,0.6914063 0,0.5742187 -0.42188,1.7109375 -0.6211,2.2382812 -0.0937,0.234375 -0.1289,0.35156254 -0.1289,0.55078129 0,0.46875 0.35156,0.80859375 0.80859,0.80859375 0.9375,0 1.3125,-1.45312504 1.3125,-1.53515624 0,-0.09375 -0.0937,-0.09375 -0.11719,-0.09375 -0.10546,0 -0.10546,0.023437 -0.15234,0.1757812 -0.15234,0.52734379 -0.46875,1.24218754 -1.01953,1.24218754 -0.16406,0 -0.23438,-0.10546875 -0.23438,-0.328125 0,-0.2578125 0.082,-0.4921875 0.17579,-0.71484374 0.1875,-0.515625 0.60937,-1.6171875 0.60937,-2.1914063 0,-0.6445312 -0.39844,-1.0664062 -1.14844,-1.0664062 -0.75,0 -1.2539,0.4453125 -1.61718,0.9726562 -0.0117,-0.1289062 -0.0469,-0.46875 -0.32813,-0.7148437 -0.24609,-0.1992188 -0.5625,-0.2578125 -0.80859,-0.2578125 -0.90235,0 -1.38282,0.6445312 -1.5586,0.8671875 -0.0469,-0.5625 -0.46875,-0.8671875 -0.91406,-0.8671875 -0.45703,0 -0.64453,0.3867187 -0.73828,0.5742187 -0.17578,0.3398438 -0.30469,0.9375 -0.30469,0.9609375 0,0.1054688 0.0937,0.1054688 0.11719,0.1054688 0.0937,0 0.10547,-0.011719 0.16406,-0.234375 0.17578,-0.703125 0.375,-1.1835938 0.72656,-1.1835938 0.16407,0 0.31641,0.082031 0.31641,0.4570313 0,0.2109375 -0.0352,0.3164062 -0.16406,0.8320312 z m 9.89648,0.57421875 c 0,-0.65625 -0.25781,-1.04296874 -0.64453,-1.04296874 -0.32812,0 -0.52734,0.24609374 -0.52734,0.52734374 0,0.26953125 0.19922,0.52734375 0.52734,0.52734375 0.11719,0 0.2461,-0.03515625 0.35156,-0.12890625 0.0234,-0.0234375 0.0352,-0.0351563 0.0469,-0.0351563 0.0117,0 0.0234,0.0117188 0.0234,0.15234375 0,0.73828125 -0.35157,1.33593741 -0.67969,1.66406241 -0.10547,0.1054688 -0.10547,0.1289063 -0.10547,0.1640625 0,0.070312 0.0469,0.1054688 0.0937,0.1054688 0.11719,0 0.91406,-0.7617188 0.91406,-1.93359371 z m 5.20899,-6.21093754 c 0,-0.1992187 -0.12891,-0.3632812 -0.36328,-0.3632812 -0.26953,0 -0.53907,0.2578125 -0.53907,0.5273437 0,0.1875 0.14063,0.3632813 0.375,0.3632813 0.23438,0 0.52735,-0.234375 0.52735,-0.5273438 z m -0.75,3.7382813 c 0.11719,-0.28125 0.11719,-0.3046875 0.22265,-0.5742188 0.0703,-0.1992187 0.12891,-0.3398437 0.12891,-0.5273437 0,-0.4453125 -0.32812,-0.8203125 -0.82031,-0.8203125 -0.9375,0 -1.3125,1.453125 -1.3125,1.5351562 0,0.1054688 0.0937,0.1054688 0.11719,0.1054688 0.0937,0 0.10546,-0.023437 0.15234,-0.1875 0.26953,-0.9375 0.66797,-1.2304688 1.00781,-1.2304688 0.082,0 0.25781,0 0.25781,0.3164063 0,0.2109375 -0.0703,0.421875 -0.11718,0.515625 -0.082,0.2578125 -0.52735,1.4179687 -0.67969,1.8515625 -0.10547,0.2578125 -0.23438,0.58593749 -0.23438,0.79687499 0,0.46875 0.33985,0.80859375 0.82032,0.80859375 0.9375,0 1.30078,-1.44140624 1.30078,-1.53515624 0,-0.09375 -0.0937,-0.09375 -0.11719,-0.09375 -0.10547,0 -0.10547,0.023437 -0.15234,0.1757812 -0.17578,0.63281254 -0.50391,1.24218754 -1.01953,1.24218754 -0.16407,0 -0.23438,-0.10546875 -0.23438,-0.328125 0,-0.2578125 0.0586,-0.3984375 0.29297,-0.99609374 z m 3.38086,2.47265624 c 0,-0.65625 -0.25782,-1.04296874 -0.64453,-1.04296874 -0.32813,0 -0.52735,0.24609374 -0.52735,0.52734374 0,0.26953125 0.19922,0.52734375 0.52735,0.52734375 0.11718,0 0.24609,-0.03515625 0.35156,-0.12890625 0.0234,-0.0234375 0.0352,-0.0351563 0.0469,-0.0351563 0.0117,0 0.0234,0.0117188 0.0234,0.15234375 0,0.73828125 -0.35156,1.33593751 -0.67969,1.66406251 -0.10547,0.1054688 -0.10547,0.1289063 -0.10547,0.1640625 0,0.070312 0.0469,0.1054688 0.0937,0.1054688 0.11719,0 0.91407,-0.7617188 0.91407,-1.93359381 z m 7.14258,-2.34375004 c 0,-1.5585937 -0.92579,-2.0507812 -1.65235,-2.0507812 -1.37109,0 -2.68359,1.4296875 -2.68359,2.8359375 0,0.92578124 0.59765,1.67578124 1.61719,1.67578124 0.62109,0 1.33593,-0.22265625 2.09765,-0.83203125 0.12891,0.52734375 0.45703,0.83203125 0.90235,0.83203125 0.52734,0 0.84375,-0.5390625 0.84375,-0.703125 0,-0.0703125 -0.0586,-0.10546875 -0.12891,-0.10546875 -0.0586,0 -0.0937,0.0351563 -0.12891,0.10546875 -0.17578,0.4921875 -0.52734,0.4921875 -0.55078,0.4921875 -0.3164,0 -0.3164,-0.78515625 -0.3164,-1.01953124 0,-0.2109375 0,-0.234375 0.10546,-0.3515625 0.9375,-1.171875 1.14844,-2.3320313 1.14844,-2.34375 0,-0.011719 -0.0117,-0.09375 -0.11719,-0.09375 -0.10546,0 -0.10546,0.023437 -0.15234,0.2109375 -0.1875,0.6210937 -0.51562,1.3828125 -0.98437,1.96875 z m -0.65625,1.37109379 c -0.87891,0.76171875 -1.65235,0.87890625 -2.05079,0.87890625 -0.59765,0 -0.89062,-0.45703125 -0.89062,-1.08984374 0,-0.4921875 0.25781,-1.5585938 0.57422,-2.0742188 0.46875,-0.7265625 1.00781,-0.9140625 1.35937,-0.9140625 0.98438,0 0.98438,1.3007813 0.98438,2.0859375 0,0.3632813 0,0.9375 0.0234,1.11328129 z m 0,0"
         style="fill:#000000;fill-opacity:1;fill-rule:nonzero;stroke:none" />
      <path
         id="path20"
         d="m 145.54314,-2.9365547 c 0,-0.1875 -0.0117,-0.1992187 -0.21094,-0.1992187 -0.44531,0.4335937 -1.07812,0.4453125 -1.35937,0.4453125 v 0.2460937 c 0.16406,0 0.62109,0 1.00781,-0.1875 v 3.55078126 c 0,0.23437504 0,0.32812504 -0.69141,0.32812504 h -0.26953 v 0.2460937 c 0.12891,-0.011719 0.98438,-0.023437 1.24219,-0.023437 0.21094,0 1.08984,0.011719 1.24219,0.023437 V 1.2470391 h -0.25781 c -0.70313,0 -0.70313,-0.09375 -0.70313,-0.32812504 z m 0,0"
         style="fill:#000000;fill-opacity:1;fill-rule:nonzero;stroke:none" />
      <path
         id="path21"
         d="m 150.56463,-2.4971016 c 0,-0.7734375 -0.11719,-1.9804687 -0.65625,-3.1054687 -0.59766,-1.21875 -1.46485,-1.875 -1.5586,-1.875 -0.0586,0 -0.10547,0.046875 -0.10547,0.1054687 0,0.035156 0,0.046875 0.19922,0.234375 0.97266,0.984375 1.53516,2.5664063 1.53516,4.640625 0,1.71093754 -0.36328,3.45703129 -1.59375,4.7226563 -0.14063,0.1171875 -0.14063,0.1289062 -0.14063,0.1640625 0,0.058594 0.0469,0.1054687 0.10547,0.1054687 0.0937,0 0.9961,-0.6796875 1.58203,-1.94531246 0.50391,-1.1015625 0.63282,-2.20312504 0.63282,-3.04687504 z m 4.27441,4.8867188 c 0,-0.035156 0,-0.046875 -0.16406,-0.2226563 -1.24219,-1.25390621 -1.57032,-3.12890621 -1.57032,-4.6640625 0,-1.7226562 0.38672,-3.4570312 1.60547,-4.7109375 0.12891,-0.1171875 0.12891,-0.1289062 0.12891,-0.1640625 0,-0.070312 -0.0352,-0.1054687 -0.0937,-0.1054687 -0.10547,0 -0.99609,0.6796875 -1.58203,1.9453125 -0.51563,1.1015625 -0.63281,2.203125 -0.63281,3.0351562 0,0.7851563 0.11718,1.99218754 0.65625,3.11718754 0.59765,1.21874996 1.45312,1.87499996 1.55859,1.87499996 0.0586,0 0.0937,-0.035156 0.0937,-0.1054687 z m 0,0"
         style="fill:#000000;fill-opacity:1;fill-rule:nonzero;stroke:none" />
      <path
         id="path22"
         d="m 156.30974,-0.58694531 c -0.0352,0.15234375 -0.0937,0.375 -0.0937,0.421875 0,0.1875 0.14063,0.26953125 0.29297,0.26953125 0.11719,0 0.29297,-0.0703125 0.36328,-0.26953125 0.0117,-0.0234375 0.12891,-0.4921875 0.1875,-0.73828125 l 0.22266,-0.90234374 c 0.0586,-0.2226563 0.11719,-0.4335938 0.17578,-0.6679688 0.0352,-0.1640625 0.11719,-0.4570312 0.12891,-0.4921875 0.14062,-0.3164062 0.66796,-1.21875 1.61718,-1.21875 0.44532,0 0.53907,0.3632813 0.53907,0.6914063 0,0.6210937 -0.49219,1.8984375 -0.64454,2.3320312 -0.0937,0.22265629 -0.10546,0.33984379 -0.10546,0.45703129 0,0.46875 0.35156,0.80859375 0.82031,0.80859375 0.9375,0 1.30078,-1.45312504 1.30078,-1.53515624 0,-0.09375 -0.082,-0.09375 -0.11719,-0.09375 -0.0937,0 -0.0937,0.023437 -0.15234,0.1757812 -0.19922,0.67968754 -0.52735,1.24218754 -1.00781,1.24218754 -0.17579,0 -0.2461,-0.10546875 -0.2461,-0.328125 0,-0.2578125 0.0937,-0.4921875 0.1875,-0.71484374 0.1875,-0.5273438 0.59766,-1.6171875 0.59766,-2.1914063 0,-0.6679687 -0.42188,-1.0664062 -1.13672,-1.0664062 -0.90234,0 -1.38281,0.6445312 -1.55859,0.8671875 -0.0469,-0.5507813 -0.45704,-0.8671875 -0.91407,-0.8671875 -0.45703,0 -0.64453,0.3867187 -0.75,0.5742187 -0.15234,0.3398438 -0.29297,0.9257813 -0.29297,0.9609375 0,0.1054688 0.0937,0.1054688 0.11719,0.1054688 0.0937,0 0.10547,-0.011719 0.16406,-0.234375 0.17579,-0.703125 0.375,-1.1835938 0.72657,-1.1835938 0.19922,0 0.3164,0.1289063 0.3164,0.4570313 0,0.2109375 -0.0352,0.3164062 -0.16406,0.8320312 z m 7.125,0.57421875 c 0,-0.65625 -0.25781,-1.04296874 -0.64453,-1.04296874 -0.32812,0 -0.52734,0.24609374 -0.52734,0.52734374 0,0.26953125 0.19922,0.52734375 0.52734,0.52734375 0.11719,0 0.24609,-0.03515625 0.35156,-0.12890625 0.0234,-0.0234375 0.0352,-0.0351563 0.0469,-0.0351563 0.0117,0 0.0234,0.0117188 0.0234,0.15234375 0,0.73828125 -0.35157,1.33593741 -0.67969,1.66406241 -0.10547,0.1054688 -0.10547,0.1289063 -0.10547,0.1640625 0,0.070312 0.0469,0.1054688 0.0937,0.1054688 0.11719,0 0.91406,-0.7617188 0.91406,-1.93359371 z m 6.33692,-6.21093754 c 0,-0.1875 -0.12891,-0.3632812 -0.375,-0.3632812 -0.22266,0 -0.52735,0.234375 -0.52735,0.5273437 0,0.1992188 0.14063,0.3632813 0.375,0.3632813 0.26953,0 0.52735,-0.2578125 0.52735,-0.5273438 z m -1.99219,6.72656254 C 167.58025,1.2528984 167.1115,1.8271172 166.549,1.8271172 c -0.0586,0 -0.21094,0 -0.38672,-0.09375 0.29297,-0.070312 0.44531,-0.328125 0.44531,-0.5273438 0,-0.1640625 -0.10546,-0.35156246 -0.375,-0.35156246 -0.24609,0 -0.53906,0.21093746 -0.53906,0.57421876 0,0.3984375 0.39844,0.609375 0.87891,0.609375 0.6914,0 1.61719,-0.5273438 1.875,-1.51171876 l 0.91406,-3.64453124 c 0.0469,-0.1992188 0.0469,-0.3398438 0.0469,-0.375 0,-0.5625 -0.42188,-0.9140625 -0.91407,-0.9140625 -1.01953,0 -1.58203,1.453125 -1.58203,1.5351562 0,0.1054688 0.0937,0.1054688 0.11719,0.1054688 0.0937,0 0.0937,-0.011719 0.17578,-0.1992188 0.24609,-0.609375 0.71484,-1.21875 1.25391,-1.21875 0.14062,0 0.3164,0.035156 0.3164,0.4570313 0,0.234375 -0.0234,0.3398437 -0.0586,0.5039062 z m 4.18359,-0.515625 c 0,-0.65625 -0.25781,-1.04296874 -0.64453,-1.04296874 -0.32812,0 -0.52734,0.24609374 -0.52734,0.52734374 0,0.26953125 0.19922,0.52734375 0.52734,0.52734375 0.11719,0 0.2461,-0.03515625 0.35156,-0.12890625 0.0234,-0.0234375 0.0352,-0.0351563 0.0469,-0.0351563 0.0117,0 0.0234,0.0117188 0.0234,0.15234375 0,0.73828125 -0.35157,1.33593741 -0.67969,1.66406241 -0.10547,0.1054688 -0.10547,0.1289063 -0.10547,0.1640625 0,0.070312 0.0469,0.1054688 0.0937,0.1054688 0.11719,0 0.91406,-0.7617188 0.91406,-1.93359371 z m 7.13379,-2.34375004 c 0,-1.5585937 -0.92578,-2.0507812 -1.65234,-2.0507812 -1.3711,0 -2.6836,1.4296875 -2.6836,2.8359375 0,0.92578124 0.59766,1.67578124 1.61719,1.67578124 0.6211,0 1.33594,-0.22265625 2.09766,-0.83203125 0.1289,0.52734375 0.45703,0.83203125 0.90234,0.83203125 0.52735,0 0.84375,-0.5390625 0.84375,-0.703125 0,-0.0703125 -0.0586,-0.10546875 -0.1289,-0.10546875 -0.0586,0 -0.0937,0.0351563 -0.12891,0.10546875 -0.17578,0.4921875 -0.52734,0.4921875 -0.55078,0.4921875 -0.31641,0 -0.31641,-0.78515625 -0.31641,-1.01953124 0,-0.2109375 0,-0.234375 0.10547,-0.3515625 0.9375,-1.171875 1.14844,-2.3320313 1.14844,-2.34375 0,-0.011719 -0.0117,-0.09375 -0.11719,-0.09375 -0.10547,0 -0.10547,0.023437 -0.15234,0.2109375 -0.1875,0.6210937 -0.51563,1.3828125 -0.98438,1.96875 z m -0.65625,1.37109379 c -0.8789,0.76171875 -1.65234,0.87890625 -2.05078,0.87890625 -0.59766,0 -0.89062,-0.45703125 -0.89062,-1.08984374 0,-0.4921875 0.25781,-1.5585938 0.57421,-2.0742188 0.46875,-0.7265625 1.00782,-0.9140625 1.35938,-0.9140625 0.98437,0 0.98437,1.3007813 0.98437,2.0859375 0,0.3632813 0,0.9375 0.0234,1.11328129 z m 0,0"
         style="fill:#000000;fill-opacity:1;fill-rule:nonzero;stroke:none" />
      <path
         id="path23"
         d="m 184.27361,0.22750781 h -0.23438 c -0.0234,0.15234375 -0.082,0.5625 -0.17578,0.6328125 -0.0586,0.0351563 -0.59765,0.0351563 -0.6914,0.0351563 h -1.28907 c 0.73829,-0.64453125 0.98438,-0.84375 1.39454,-1.171875 0.51562,-0.41015625 0.99609,-0.84374991 0.99609,-1.49999991 0,-0.8437501 -0.73828,-1.3593751 -1.62891,-1.3593751 -0.86718,0 -1.45312,0.609375 -1.45312,1.2421876 0,0.3632812 0.30469,0.3984375 0.375,0.3984375 0.16406,0 0.375,-0.1171875 0.375,-0.375 0,-0.1289063 -0.0586,-0.3632814 -0.42188,-0.3632814 0.22266,-0.5039062 0.69141,-0.65625 1.01953,-0.65625 0.70313,0 1.06641,0.5507813 1.06641,1.1132813 0,0.609375 -0.43359,1.08984376 -0.65625,1.33593751 l -1.6875,1.66406249 c -0.0703,0.058594 -0.0703,0.070312 -0.0703,0.2695312 h 2.88281 z m 0,0"
         style="fill:#000000;fill-opacity:1;fill-rule:nonzero;stroke:none" />
      <path
         id="path24"
         d="m 188.1115,-2.4971016 c 0,-0.7734375 -0.11719,-1.9804687 -0.65625,-3.1054687 -0.59766,-1.21875 -1.46484,-1.875 -1.55859,-1.875 -0.0586,0 -0.10547,0.046875 -0.10547,0.1054687 0,0.035156 0,0.046875 0.19922,0.234375 0.97265,0.984375 1.53515,2.5664063 1.53515,4.640625 0,1.71093754 -0.36328,3.45703129 -1.59375,4.7226563 -0.14062,0.1171875 -0.14062,0.1289062 -0.14062,0.1640625 0,0.058594 0.0469,0.1054687 0.10547,0.1054687 0.0937,0 0.99609,-0.6796875 1.58203,-1.94531246 0.5039,-1.1015625 0.63281,-2.20312504 0.63281,-3.04687504 z m 0,0"
         style="fill:#000000;fill-opacity:1;fill-rule:nonzero;stroke:none" />
      <path
         id="path25"
         d="m 197.33123,-2.2978828 c 0.16406,0 0.35156,0 0.35156,-0.1992188 0,-0.1992187 -0.1875,-0.1992187 -0.35156,-0.1992187 h -4.23047 c 0.1289,-1.3242188 1.26562,-2.2851563 2.67187,-2.2851563 h 1.5586 c 0.16406,0 0.35156,0 0.35156,-0.1992187 0,-0.1992188 -0.1875,-0.1992188 -0.35156,-0.1992188 h -1.57032 c -1.71093,0 -3.05859,1.2890625 -3.05859,2.8828125 0,1.59375004 1.34766,2.89453129 3.05859,2.89453129 h 1.57032 c 0.16406,0 0.35156,0 0.35156,-0.19921875 0,-0.19921875 -0.1875,-0.19921875 -0.35156,-0.19921875 h -1.5586 c -1.40625,0 -2.54297,-0.9609375 -2.67187,-2.29687499 z m 0,0"
         style="fill:#000000;fill-opacity:1;fill-rule:nonzero;stroke:none" />
      <path
         id="path26"
         d="m 210.40935,-5.6494453 c 0.25781,-0.4335938 0.49219,-0.796875 1.125,-0.84375 0.082,-0.011719 0.1875,-0.011719 0.1875,-0.1992188 0,-0.046875 -0.0469,-0.1171875 -0.11719,-0.1171875 -0.24609,0 -0.52734,0.035156 -0.77343,0.035156 -0.33985,0 -0.70313,-0.035156 -1.03125,-0.035156 -0.0586,0 -0.1875,0 -0.1875,0.1992188 0,0.1054687 0.082,0.1171875 0.14062,0.1171875 0.2461,0.011719 0.59766,0.082031 0.59766,0.3867187 0,0.1054688 -0.0586,0.1875 -0.14063,0.328125 l -2.68359,4.6875 -0.36328,-4.9335937 c -0.0117,-0.1992188 -0.0352,-0.4570313 0.6914,-0.46875 0.16407,0 0.26954,0 0.26954,-0.1992188 0,-0.1054687 -0.10547,-0.1171875 -0.15235,-0.1171875 -0.39844,0 -0.80859,0.035156 -1.20703,0.035156 -0.23437,0 -0.82031,-0.035156 -1.05469,-0.035156 -0.0586,0 -0.1875,0 -0.1875,0.1992188 0,0.1171875 0.10547,0.1171875 0.2461,0.1171875 0.43359,0 0.5039,0.058594 0.52734,0.2460937 l 0.0586,0.7617188 -2.51953,4.3945312 -0.38672,-5.0507812 c 0,-0.1171875 0,-0.3398438 0.76172,-0.3515625 0.0937,0 0.21094,0 0.21094,-0.1992188 0,-0.1171875 -0.11719,-0.1171875 -0.14062,-0.1171875 -0.39844,0 -0.82032,0.035156 -1.23047,0.035156 -0.33985,0 -0.70313,-0.035156 -1.04297,-0.035156 -0.0469,0 -0.17578,0 -0.17578,0.1992188 0,0.1171875 0.082,0.1171875 0.24609,0.1171875 0.50391,0 0.50391,0.082031 0.52734,0.3632812 l 0.44532,6.09375004 c 0.0117,0.17578125 0.0234,0.2578125 0.16406,0.2578125 0.11719,0 0.15234,-0.0585938 0.23437,-0.2109375 l 2.92969,-5.08593754 0.375,5.03906254 c 0.0117,0.19921875 0.0352,0.2578125 0.15235,0.2578125 0.1289,0 0.1875,-0.10546875 0.24609,-0.1875 z m 0,0"
         style="fill:#000000;fill-opacity:1;fill-rule:nonzero;stroke:none" />
      <path
         id="path27"
         d="m 215.46013,-8.3330391 c 0.0469,-0.1992187 0.0703,-0.2226562 0.22266,-0.234375 0.0352,-0.011719 0.26953,-0.011719 0.41016,-0.011719 0.43359,0 0.60937,0 0.78515,0.058594 0.31641,0.09375 0.32813,0.3046875 0.32813,0.5507813 0,0.1054687 0,0.1992187 -0.0469,0.5625 l -0.0117,0.082031 c 0,0.070312 0.0469,0.1054688 0.11719,0.1054688 0.10547,0 0.11719,-0.070312 0.12891,-0.1757813 l 0.1875,-1.3359375 c 0,-0.09375 -0.082,-0.09375 -0.21094,-0.09375 h -4.28906 c -0.17578,0 -0.1875,0 -0.23438,0.140625 l -0.43359,1.2421875 c -0.0117,0.023437 -0.0352,0.082031 -0.0352,0.1171875 0,0.035156 0.0117,0.1054688 0.11719,0.1054688 0.082,0 0.10547,-0.035156 0.14062,-0.1757813 0.41016,-1.1132812 0.63282,-1.1835937 1.69922,-1.1835937 h 0.29297 c 0.21094,0 0.21094,0.011719 0.21094,0.070312 0,0.011719 0,0.046875 -0.0234,0.1523437 l -0.92578,3.6679688 c -0.0586,0.2578125 -0.082,0.328125 -0.80859,0.328125 -0.25782,0 -0.31641,0 -0.31641,0.1523437 0,0.011719 0.0117,0.09375 0.11719,0.09375 0.19922,0 0.41015,-0.023437 0.59765,-0.023437 0.19922,0 0.41016,0 0.59766,0 0.19922,0 0.43359,0 0.63281,0 0.1875,0.011719 0.39844,0.023437 0.58594,0.023437 0.0586,0 0.16406,0 0.16406,-0.1523437 0,-0.09375 -0.0703,-0.09375 -0.29297,-0.09375 -0.1289,0 -0.26953,-0.011719 -0.39843,-0.023437 -0.2461,-0.011719 -0.25782,-0.046875 -0.25782,-0.1289063 0,-0.046875 0,-0.058594 0.0352,-0.1640625 z m 0,0"
         style="fill:#000000;fill-opacity:1;fill-rule:nonzero;stroke:none" />
    </g>
  </g>
</svg>
