<?xml version="1.0" encoding="UTF-8" standalone="no"?>
<!-- Created with Inkscape (http://www.inkscape.org/) -->

<svg
   version="1.1"
   id="svg1"
   width="311.46875"
   height="19.75"
   viewBox="0 0 311.46875 19.75"
   sodipodi:docname="Formulas.pdf"
   xmlns:inkscape="http://www.inkscape.org/namespaces/inkscape"
   xmlns:sodipodi="http://sodipodi.sourceforge.net/DTD/sodipodi-0.dtd"
   xmlns="http://www.w3.org/2000/svg"
   xmlns:svg="http://www.w3.org/2000/svg">
  <defs
     id="defs1" />
  <sodipodi:namedview
     id="namedview1"
     pagecolor="#ffffff"
     bordercolor="#000000"
     borderopacity="0.25"
     inkscape:showpageshadow="2"
     inkscape:pageopacity="0.0"
     inkscape:pagecheckerboard="0"
     inkscape:deskcolor="#d1d1d1" />
  <g
     id="g1"
     inkscape:groupmode="layer"
     inkscape:label="1"
     transform="translate(-371.9375,-112.30859)">
    <g
       id="g2"
       aria-label="T&#10;Q&#10;(m,i)&#10;,T&#10;Y&#10;(m,i)&#10;,T&#10;Start&#10;(m,i,α)&#10;≥0,∀(m,i)∈C,∀α∈{1,2,3,4}"
       transform="matrix(1.3333333,0,0,1.3333333,371.624,125.224)">
      <path
         id="path2"
         d="m 4.2546562,-6.0478828 c 0.070312,-0.28125 0.1054688,-0.3398438 0.234375,-0.3632813 0.082031,-0.023437 0.4101563,-0.023437 0.6210938,-0.023437 1.0078125,0 1.453125,0.035156 1.453125,0.8203125 0,0.140625 -0.035156,0.5273438 -0.082031,0.796875 0,0.035156 -0.023437,0.1523438 -0.023437,0.1875 0,0.058594 0.023437,0.1289063 0.1171875,0.1289063 0.1054688,0 0.1289063,-0.082031 0.1523438,-0.234375 l 0.2695312,-1.734375 c 0.011719,-0.035156 0.011719,-0.140625 0.011719,-0.1640625 0,-0.1054688 -0.09375,-0.1054688 -0.2695313,-0.1054688 H 1.2195 c -0.24609375,0 -0.2578125,0 -0.31640625,0.1992188 L 0.3054375,-4.7939766 c -0.0117188,0.023437 -0.0703125,0.1640625 -0.0703125,0.1757813 0,0.070312 0.0585937,0.1171875 0.12890625,0.1171875 0.09375,0 0.10546875,-0.046875 0.1640625,-0.2109375 C 1.0671562,-6.2588203 1.3249687,-6.4346016 2.8015312,-6.4346016 H 3.18825 c 0.28125,0 0.28125,0.035156 0.28125,0.1171875 0,0.058594 -0.035156,0.1757813 -0.046875,0.2109375 l -1.3242188,5.32031254 c -0.09375,0.36328125 -0.1289062,0.48046875 -1.19531245,0.48046875 -0.3515625,0 -0.41015625,0 -0.41015625,0.1875 0,0.1171875 0.10546875,0.1171875 0.1640625,0.1171875 0.26953125,0 0.5507812,-0.0234375 0.8203125,-0.0234375 0.28125,0 0.5625,-0.01171875 0.84375,-0.01171875 0.28125,0 0.5625,0.01171875 0.8320312,0.01171875 0.28125,0 0.5859375,0.0234375 0.8671875,0.0234375 0.09375,0 0.2109375,0 0.2109375,-0.19921875 0,-0.10546875 -0.082031,-0.10546875 -0.3398437,-0.10546875 -0.2460938,0 -0.375,0 -0.6328125,-0.0234375 -0.2929688,-0.0351563 -0.3632813,-0.0585938 -0.3632813,-0.22265625 0,-0.0117188 0,-0.0585938 0.035156,-0.2109375 z m 0,0"
         style="fill:#000000;fill-opacity:1;fill-rule:nonzero;stroke:none" />
      <path
         id="path3"
         d="m 10.450945,-4.3662422 c 0,0.4453125 0.08203,0.9257813 0.65625,0.9257813 0.84375,0 1.253907,-1.1953125 1.253907,-1.3476563 0,-0.046875 -0.04687,-0.09375 -0.105469,-0.09375 -0.07031,0 -0.08203,0.058594 -0.09375,0.082031 -0.164063,0.4921875 -0.632813,0.6328125 -0.867188,0.6328125 -0.28125,0 -0.421875,-0.1171875 -0.550781,-0.6796875 1.242188,-0.4335938 2.238281,-1.6757813 2.238281,-2.90625 0,-1.0898438 -0.785156,-1.9335938 -2.015625,-1.9335938 -1.6640622,0 -3.2812497,1.5585938 -3.2812497,3.1289063 0,1.125 0.8320313,1.9101562 2.0273438,1.9101562 0.140625,0 0.3749999,-0.011719 0.7382809,-0.09375 z M 9.2439141,-4.9638984 C 8.8806328,-5.0928047 8.3650078,-5.4560859 8.3650078,-6.3818672 c 0,-0.4453125 0.140625,-1.3710937 0.7734375,-2.1679687 0.4453125,-0.5390625 1.1249997,-0.9140625 1.7695317,-0.9140625 0.761718,0 1.40625,0.5039062 1.40625,1.5234375 0,0.703125 -0.351563,2.1914062 -1.617188,2.8359375 -0.117187,-0.4453125 -0.292969,-0.7382813 -0.7148437,-0.7382813 -0.3867187,0 -0.7734375,0.328125 -0.7734375,0.703125 0,0.1171875 0.011719,0.1289063 0.035156,0.1757813 z m 1.2070309,-0.035156 c -0.152343,0.058594 -0.410156,0.1289063 -0.6914059,0.1289063 -0.1054688,0 -0.3515625,0 -0.3515625,-0.2695313 0,-0.2695312 0.28125,-0.5039062 0.5742187,-0.5039062 0.2578127,0 0.4453127,0.1054687 0.4687497,0.6445312 z m 0,0"
         style="fill:#000000;fill-opacity:1;fill-rule:nonzero;stroke:none" />
      <path
         id="path4"
         d="m 8.2946953,-1.8349922 c -1.3242187,0.92578126 -1.6757812,2.41406251 -1.6757812,3.4804688 0,0.984375 0.2929687,2.5078125 1.6757812,3.4804687 0.058594,0 0.140625,0 0.140625,-0.082031 0,-0.046875 -0.023437,-0.058594 -0.070312,-0.1054688 -0.9257812,-0.8320312 -1.265625,-2.015625 -1.265625,-3.2929687 0,-1.87500004 0.7148438,-2.8007813 1.2890625,-3.3164063 0.023437,-0.023437 0.046875,-0.046875 0.046875,-0.082031 0,-0.082031 -0.082031,-0.082031 -0.1406255,-0.082032 z m 0,0"
         style="fill:#000000;fill-opacity:1;fill-rule:nonzero;stroke:none" />
      <path
         id="path5"
         d="m 11.959734,2.8290703 c -0.03516,0.140625 -0.09375,0.375 -0.09375,0.4101563 0,0.1523437 0.128907,0.2226562 0.234375,0.2226562 0.128907,0 0.234375,-0.09375 0.269532,-0.1523437 0.03516,-0.058594 0.09375,-0.2929688 0.128906,-0.4335938 0.03516,-0.1289062 0.117187,-0.4570312 0.152344,-0.6328125 0.04687,-0.1523437 0.08203,-0.3046875 0.117187,-0.4570312 0.08203,-0.3046875 0.08203,-0.3164063 0.222656,-0.5390625 0.222657,-0.33984379 0.5625,-0.73828129 1.113282,-0.73828129 0.386718,0 0.410156,0.328125 0.410156,0.49218749 0,0.421875 -0.304688,1.1953125 -0.410156,1.4882813 -0.08203,0.1875 -0.105469,0.2578125 -0.105469,0.375 0,0.3632812 0.304687,0.5976562 0.65625,0.5976562 0.703125,0 1.007812,-0.9609375 1.007812,-1.0664062 0,-0.09375 -0.09375,-0.09375 -0.105468,-0.09375 -0.105469,0 -0.105469,0.046875 -0.140625,0.1171875 -0.152344,0.5625 -0.457032,0.84375 -0.738282,0.84375 -0.140625,0 -0.175781,-0.09375 -0.175781,-0.2460938 0,-0.1523437 0.03516,-0.2460937 0.164063,-0.5625 0.08203,-0.2109375 0.375,-0.9492187 0.375,-1.3476562 0,-0.1054688 0,-0.39843754 -0.257813,-0.59765629 -0.128906,-0.09375 -0.328125,-0.1875 -0.65625,-0.1875 -0.621094,0 -1.007812,0.41015625 -1.230469,0.70312499 -0.05859,-0.59765624 -0.550781,-0.70312499 -0.902343,-0.70312499 -0.585938,0 -0.972657,0.3515625 -1.183594,0.6328125 -0.04687,-0.48046875 -0.457031,-0.6328125 -0.75,-0.6328125 -0.2929689,0 -0.4570314,0.2109375 -0.5507814,0.375 -0.1523437,0.2578125 -0.2460937,0.65624999 -0.2460937,0.69140629 0,0.082031 0.09375,0.082031 0.1171875,0.082031 0.09375,0 0.1054687,-0.011719 0.1523437,-0.1992187 0.1054688,-0.42187504 0.234375,-0.76171879 0.5156249,-0.76171879 0.175781,0 0.222656,0.15234375 0.222656,0.33984375 0,0.140625 -0.05859,0.39843754 -0.105468,0.58593754 -0.04687,0.1875 -0.117188,0.46875 -0.152344,0.6210937 l -0.2226564,0.902344 c -0.035156,0.082031 -0.070312,0.2578125 -0.070312,0.28125 0,0.1523437 0.1171875,0.2226562 0.234375,0.2226562 0.1289064,0 0.2343754,-0.09375 0.2695314,-0.1523437 0.03516,-0.058594 0.09375,-0.2929688 0.128907,-0.4335938 0.03516,-0.1289062 0.105468,-0.4570312 0.152343,-0.6328125 0.03516,-0.1523437 0.08203,-0.3046875 0.117188,-0.4570312 0.08203,-0.2929688 0.09375,-0.3515625 0.292969,-0.6328125 0.199218,-0.28125004 0.527343,-0.64453129 1.042968,-0.64453129 0.410157,0 0.410157,0.36328125 0.410157,0.49218749 0,0.1757813 -0.01172,0.2695313 -0.117189,0.65625 z m 5.516602,0.4453125 c 0,0.3867188 -0.07031,0.8320313 -0.550781,1.2773438 -0.02344,0.035156 -0.04687,0.058594 -0.04687,0.09375 0,0.046875 0.05859,0.09375 0.09375,0.09375 0.105468,0 0.691406,-0.5625 0.691406,-1.3945313 0,-0.421875 -0.164063,-0.75 -0.480469,-0.75 -0.234375,0 -0.398437,0.1757813 -0.398437,0.3867188 0,0.234375 0.152343,0.4101562 0.398437,0.4101562 0.164063,0 0.28125,-0.1171875 0.292969,-0.1171875 z m 3.149414,-4.24218749 c 0,-0.10546871 -0.08203,-0.25781251 -0.28125,-0.25781251 -0.1875,0 -0.386719,0.1757813 -0.386719,0.37500001 0,0.1171875 0.08203,0.26953125 0.269531,0.26953125 0.210938,0 0.398438,-0.19921875 0.398438,-0.38671875 z M 19.196062,2.5712578 c -0.02344,0.09375 -0.05859,0.1757813 -0.05859,0.2929688 0,0.328125 0.28125,0.5976562 0.667968,0.5976562 0.691407,0 0.996094,-0.9609375 0.996094,-1.0664062 0,-0.09375 -0.08203,-0.09375 -0.105469,-0.09375 -0.105468,0 -0.105468,0.046875 -0.140625,0.1171875 -0.152343,0.5625 -0.457031,0.84375 -0.738281,0.84375 -0.140625,0 -0.175781,-0.082031 -0.175781,-0.2460938 0,-0.1523437 0.05859,-0.2929687 0.117187,-0.4453125 0.07031,-0.1875 0.140625,-0.375 0.222657,-0.5507812 0.05859,-0.1640625 0.316406,-0.8085938 0.339843,-0.890625 0.02344,-0.070312 0.04687,-0.15234379 0.04687,-0.22265629 0,-0.328125 -0.28125,-0.5859375 -0.667968,-0.5859375 -0.691407,0 -1.007813,0.94921879 -1.007813,1.06640629 0,0.082031 0.09375,0.082031 0.117188,0.082031 0.09375,0 0.105468,-0.035156 0.128906,-0.1054687 0.175781,-0.59765629 0.480469,-0.85546879 0.738281,-0.85546879 0.117188,0 0.175781,0.0585938 0.175781,0.24609375 0,0.1640625 -0.03516,0.26953124 -0.210937,0.70312504 z m 0,0"
         style="fill:#000000;fill-opacity:1;fill-rule:nonzero;stroke:none" />
      <path
         id="path6"
         d="m 21.821062,-1.8349922 c -0.05859,0 -0.140625,0 -0.140625,0.082031 0,0.035156 0.02344,0.058594 0.07031,0.1054687 0.597656,0.5507813 1.265625,1.48828126 1.265625,3.2929688 0,1.453125 -0.457031,2.5546875 -1.207031,3.234375 -0.117188,0.1171875 -0.128907,0.1289062 -0.128907,0.1640625 0,0.035156 0.02344,0.082031 0.09375,0.082031 0.08203,0 0.75,-0.4570312 1.207032,-1.3242187 0.304687,-0.5859375 0.503906,-1.3359375 0.503906,-2.15625 0,-0.98437504 -0.292969,-2.50781254 -1.664063,-3.4804688 z m 0,0"
         style="fill:#000000;fill-opacity:1;fill-rule:nonzero;stroke:none" />
      <path
         id="path7"
         d="m 26.827898,-0.01272656 c 0,-0.65625 -0.257812,-1.04296874 -0.644531,-1.04296874 -0.328125,0 -0.527344,0.24609374 -0.527344,0.52734374 0,0.26953125 0.199219,0.52734375 0.527344,0.52734375 0.117188,0 0.246094,-0.03515625 0.351563,-0.12890625 0.02344,-0.0234375 0.03516,-0.0351563 0.04687,-0.0351563 0.01172,0 0.02344,0.0117188 0.02344,0.15234375 0,0.73828125 -0.351562,1.33593741 -0.679687,1.66406241 -0.105469,0.1054688 -0.105469,0.1289063 -0.105469,0.1640625 0,0.070312 0.04687,0.1054688 0.09375,0.1054688 0.117187,0 0.914062,-0.7617188 0.914062,-1.93359371 z M 33.4695,-6.0478828 c 0.07031,-0.28125 0.105469,-0.3398438 0.234375,-0.3632813 0.08203,-0.023437 0.410156,-0.023437 0.621094,-0.023437 1.007812,0 1.453125,0.035156 1.453125,0.8203125 0,0.140625 -0.03516,0.5273438 -0.08203,0.796875 0,0.035156 -0.02344,0.1523438 -0.02344,0.1875 0,0.058594 0.02344,0.1289063 0.117187,0.1289063 0.105469,0 0.128907,-0.082031 0.152344,-0.234375 l 0.269531,-1.734375 c 0.01172,-0.035156 0.01172,-0.140625 0.01172,-0.1640625 0,-0.1054688 -0.09375,-0.1054688 -0.269531,-0.1054688 h -5.519531 c -0.246094,0 -0.257813,0 -0.316407,0.1992188 l -0.597656,1.7460937 c -0.01172,0.023437 -0.07031,0.1640625 -0.07031,0.1757813 0,0.070312 0.05859,0.1171875 0.128906,0.1171875 0.09375,0 0.105469,-0.046875 0.164062,-0.2109375 0.539063,-1.546875 0.796875,-1.7226563 2.273438,-1.7226563 h 0.386719 c 0.28125,0 0.28125,0.035156 0.28125,0.1171875 0,0.058594 -0.03516,0.1757813 -0.04687,0.2109375 l -1.324219,5.32031254 c -0.09375,0.36328125 -0.128906,0.48046875 -1.195313,0.48046875 -0.351562,0 -0.410156,0 -0.410156,0.1875 0,0.1171875 0.105469,0.1171875 0.164063,0.1171875 0.269531,0 0.550781,-0.0234375 0.820312,-0.0234375 0.28125,0 0.5625,-0.01171875 0.84375,-0.01171875 0.28125,0 0.5625,0.01171875 0.832031,0.01171875 0.28125,0 0.585938,0.0234375 0.867188,0.0234375 0.09375,0 0.210937,0 0.210937,-0.19921875 0,-0.10546875 -0.08203,-0.10546875 -0.339843,-0.10546875 -0.246094,0 -0.375,0 -0.632813,-0.0234375 -0.292969,-0.0351563 -0.363281,-0.0585938 -0.363281,-0.22265625 0,-0.0117188 0,-0.0585938 0.03516,-0.2109375 z m 0,0"
         style="fill:#000000;fill-opacity:1;fill-rule:nonzero;stroke:none" />
      <path
         id="path8"
         d="m 41.157,-8.0400703 c 0.140625,-0.140625 0.28125,-0.2695313 0.433594,-0.375 0.28125,-0.1875 0.539062,-0.1992188 0.632812,-0.2109375 0.07031,-0.011719 0.164063,-0.011719 0.164063,-0.1523438 0,-0.046875 -0.04687,-0.09375 -0.105469,-0.09375 -0.175781,0 -0.386719,0.023437 -0.5625,0.023437 -0.222656,0 -0.515625,-0.023437 -0.726563,-0.023437 -0.03516,0 -0.140625,0 -0.140625,0.1523438 0,0.082031 0.09375,0.09375 0.128907,0.09375 0.199218,0.011719 0.199218,0.09375 0.199218,0.1289062 0,0.070312 -0.03516,0.1171875 -0.09375,0.1875 -0.03516,0.058594 -0.07031,0.1054688 -0.117187,0.1523438 l -1.734375,1.8164062 -0.925781,-2.0390625 c -0.04687,-0.09375 -0.04687,-0.1171875 -0.04687,-0.1171875 0,-0.1289062 0.328125,-0.1289062 0.375,-0.1289062 0.09375,0 0.175781,0 0.175781,-0.1523438 0,-0.011719 0,-0.09375 -0.105469,-0.09375 -0.210937,0 -0.726562,0.023437 -0.9375,0.023437 -0.175781,0 -0.621094,-0.023437 -0.796875,-0.023437 -0.04687,0 -0.128906,0.011719 -0.128906,0.1523438 0,0.09375 0.08203,0.09375 0.1875,0.09375 0.398437,0 0.421875,0.058594 0.492187,0.2109375 l 1.089844,2.390625 -0.316406,1.2773437 c -0.09375,0.3515625 -0.09375,0.375 -0.644531,0.3867188 -0.117188,0 -0.210938,0 -0.210938,0.140625 0,0.070312 0.04687,0.1054687 0.117188,0.1054687 0.128906,0 0.292968,-0.023437 0.433593,-0.023437 0.128907,0 0.328125,0 0.457032,0 0.140625,0 0.304687,0 0.445312,0 0.152344,0 0.316406,0.023437 0.46875,0.023437 0.03516,0 0.152344,0 0.152344,-0.1523437 0,-0.09375 -0.08203,-0.09375 -0.234375,-0.09375 -0.117188,0 -0.140625,0 -0.269531,-0.023437 -0.128907,-0.011719 -0.152344,-0.023437 -0.152344,-0.09375 0,-0.046875 0.08203,-0.375 0.128906,-0.5625 0.05859,-0.2226563 0.210938,-0.8320313 0.222656,-0.8554688 0.02344,-0.1054687 0.02344,-0.1171875 0.09375,-0.1875 z m 0,0"
         style="fill:#000000;fill-opacity:1;fill-rule:nonzero;stroke:none" />
      <path
         id="path9"
         d="m 37.524187,-2.5146797 c -1.324218,0.9257813 -1.675781,2.41406251 -1.675781,3.48046876 0,0.98437504 0.292969,2.50781254 1.675781,3.48046874 0.05859,0 0.140625,0 0.140625,-0.082031 0,-0.046875 -0.02344,-0.058594 -0.07031,-0.1054688 -0.925781,-0.8320312 -1.265625,-2.015625 -1.265625,-3.29296874 0,-1.875 0.714844,-2.80078126 1.289062,-3.31640626 0.02344,-0.023437 0.04687,-0.046875 0.04687,-0.082031 0,-0.082031 -0.08203,-0.082031 -0.140625,-0.082031 z m 0,0"
         style="fill:#000000;fill-opacity:1;fill-rule:nonzero;stroke:none" />
      <path
         id="path10"
         d="m 41.186297,2.1493828 c -0.03516,0.140625 -0.09375,0.375 -0.09375,0.4101563 0,0.1523437 0.128906,0.2226562 0.234375,0.2226562 0.128906,0 0.234375,-0.09375 0.269531,-0.1523437 0.03516,-0.058594 0.09375,-0.2929688 0.128906,-0.4335938 0.03516,-0.1289062 0.117188,-0.4570312 0.152344,-0.6328125 0.04687,-0.1523437 0.08203,-0.3046875 0.117188,-0.4570312 0.08203,-0.30468754 0.08203,-0.31640629 0.222656,-0.53906254 0.222656,-0.33984375 0.5625,-0.73828125 1.113281,-0.73828125 0.386719,0 0.410156,0.328125 0.410156,0.4921875 0,0.421875 -0.304687,1.19531249 -0.410156,1.48828129 -0.08203,0.1875 -0.105469,0.2578125 -0.105469,0.375 0,0.3632812 0.304688,0.5976562 0.65625,0.5976562 0.703125,0 1.007813,-0.9609375 1.007813,-1.0664062 0,-0.09375 -0.09375,-0.09375 -0.105469,-0.09375 -0.105469,0 -0.105469,0.046875 -0.140625,0.1171875 -0.152344,0.5625 -0.457031,0.84375 -0.738281,0.84375 -0.140625,0 -0.175781,-0.09375 -0.175781,-0.2460938 0,-0.1523437 0.03516,-0.2460937 0.164062,-0.5625 0.08203,-0.2109375 0.375,-0.94921874 0.375,-1.34765624 0,-0.10546875 0,-0.3984375 -0.257812,-0.59765625 -0.128907,-0.09375 -0.328125,-0.1875 -0.65625,-0.1875 -0.621094,0 -1.007813,0.41015625 -1.230469,0.703125 -0.05859,-0.59765625 -0.550781,-0.703125 -0.902344,-0.703125 -0.585937,0 -0.972656,0.3515625 -1.183594,0.6328125 -0.04687,-0.48046875 -0.457031,-0.6328125 -0.75,-0.6328125 -0.292968,0 -0.457031,0.2109375 -0.550781,0.375 -0.152344,0.2578125 -0.246094,0.65625 -0.246094,0.69140625 0,0.0820313 0.09375,0.0820313 0.117188,0.0820313 0.09375,0 0.105469,-0.0117188 0.152344,-0.19921875 0.105468,-0.421875 0.234375,-0.76171875 0.515625,-0.76171875 0.175781,0 0.222656,0.15234375 0.222656,0.33984375 0,0.140625 -0.05859,0.3984375 -0.105469,0.5859375 -0.04687,0.1875 -0.117187,0.46874999 -0.152344,0.62109369 l -0.222656,0.9023439 c -0.03516,0.082031 -0.07031,0.2578125 -0.07031,0.28125 0,0.1523436 0.117187,0.2226561 0.234375,0.2226561 0.128906,0 0.234375,-0.09375 0.269531,-0.1523436 0.03516,-0.058594 0.09375,-0.2929689 0.128906,-0.4335939 0.03516,-0.1289061 0.105469,-0.4570312 0.152344,-0.6328125 0.03516,-0.1523437 0.08203,-0.3046875 0.117187,-0.4570312 0.08203,-0.29296874 0.09375,-0.35156249 0.292969,-0.63281249 0.199219,-0.28125 0.527344,-0.64453125 1.042969,-0.64453125 0.410156,0 0.410156,0.36328125 0.410156,0.4921875 0,0.17578125 -0.01172,0.26953125 -0.117187,0.65625 z m 5.519531,0.4453125 c 0,0.3867188 -0.07031,0.8320313 -0.550781,1.2773438 -0.02344,0.035156 -0.04687,0.058594 -0.04687,0.09375 0,0.046875 0.05859,0.09375 0.09375,0.09375 0.105469,0 0.691406,-0.5625 0.691406,-1.3945313 0,-0.421875 -0.164062,-0.75 -0.480469,-0.75 -0.234375,0 -0.398437,0.1757813 -0.398437,0.3867188 0,0.234375 0.152344,0.4101562 0.398437,0.4101562 0.164063,0 0.28125,-0.1171875 0.292969,-0.1171875 z m 3.149414,-4.2421875 c 0,-0.1054687 -0.08203,-0.2578125 -0.28125,-0.2578125 -0.1875,0 -0.386719,0.1757813 -0.386719,0.375 0,0.1171875 0.08203,0.2695313 0.269532,0.2695313 0.210937,0 0.398437,-0.1992188 0.398437,-0.3867188 z m -1.429687,3.5390625 c -0.02344,0.09375 -0.05859,0.1757813 -0.05859,0.2929688 0,0.328125 0.28125,0.5976562 0.667969,0.5976562 0.691406,0 0.996093,-0.9609375 0.996093,-1.0664062 0,-0.09375 -0.08203,-0.09375 -0.105468,-0.09375 -0.105469,0 -0.105469,0.046875 -0.140625,0.1171875 -0.152344,0.5625 -0.457032,0.84375 -0.738282,0.84375 -0.140625,0 -0.175781,-0.082031 -0.175781,-0.2460938 0,-0.1523437 0.05859,-0.2929687 0.117188,-0.4453125 0.07031,-0.1875 0.140625,-0.375 0.222656,-0.5507812 0.05859,-0.1640625 0.316406,-0.80859379 0.339844,-0.89062504 0.02344,-0.0703125 0.04687,-0.15234375 0.04687,-0.22265625 0,-0.328125 -0.28125,-0.5859375 -0.667969,-0.5859375 -0.691406,0 -1.007813,0.94921875 -1.007813,1.06640625 0,0.0820313 0.09375,0.0820313 0.117188,0.0820313 0.09375,0 0.105469,-0.0351563 0.128906,-0.10546875 0.175781,-0.59765625 0.480469,-0.85546875 0.738281,-0.85546875 0.117188,0 0.175782,0.0585938 0.175782,0.24609375 0,0.1640625 -0.03516,0.26953125 -0.210938,0.703125 z m 0,0"
         style="fill:#000000;fill-opacity:1;fill-rule:nonzero;stroke:none" />
      <path
         id="path11"
         d="m 51.050555,-2.5146797 c -0.05859,0 -0.140625,0 -0.140625,0.082031 0,0.035156 0.02344,0.058594 0.07031,0.1054687 0.597656,0.5507813 1.265625,1.48828126 1.265625,3.29296876 0,1.45312504 -0.457031,2.55468754 -1.207031,3.23437504 -0.117188,0.1171875 -0.128906,0.1289062 -0.128906,0.1640625 0,0.035156 0.02344,0.082031 0.09375,0.082031 0.08203,0 0.75,-0.4570312 1.207031,-1.3242187 0.304687,-0.5859375 0.503906,-1.3359375 0.503906,-2.15625004 0,-0.984375 -0.292969,-2.50781246 -1.664062,-3.48046876 z m 0,0"
         style="fill:#000000;fill-opacity:1;fill-rule:nonzero;stroke:none" />
      <path
         id="path12"
         d="m 56.057391,-0.01272656 c 0,-0.65625 -0.257813,-1.04296874 -0.644532,-1.04296874 -0.328125,0 -0.527343,0.24609374 -0.527343,0.52734374 0,0.26953125 0.199218,0.52734375 0.527343,0.52734375 0.117188,0 0.246094,-0.03515625 0.351563,-0.12890625 0.02344,-0.0234375 0.03516,-0.0351563 0.04687,-0.0351563 0.01172,0 0.02344,0.0117188 0.02344,0.15234375 0,0.73828125 -0.351562,1.33593741 -0.679687,1.66406241 -0.105469,0.1054688 -0.105469,0.1289063 -0.105469,0.1640625 0,0.070312 0.04687,0.1054688 0.09375,0.1054688 0.117188,0 0.914063,-0.7617188 0.914063,-1.93359371 z m 6.638671,-6.03515624 c 0.07031,-0.28125 0.105469,-0.3398438 0.234375,-0.3632813 0.08203,-0.023437 0.410157,-0.023437 0.621094,-0.023437 1.007813,0 1.453125,0.035156 1.453125,0.8203125 0,0.140625 -0.03516,0.5273438 -0.08203,0.796875 0,0.035156 -0.02344,0.1523438 -0.02344,0.1875 0,0.058594 0.02344,0.1289063 0.117188,0.1289063 0.105469,0 0.128906,-0.082031 0.152344,-0.234375 l 0.269531,-1.734375 c 0.01172,-0.035156 0.01172,-0.140625 0.01172,-0.1640625 0,-0.1054688 -0.09375,-0.1054688 -0.269532,-0.1054688 h -5.519531 c -0.246094,0 -0.257812,0 -0.316406,0.1992188 l -0.597656,1.7460937 c -0.01172,0.023437 -0.07031,0.1640625 -0.07031,0.1757813 0,0.070312 0.05859,0.1171875 0.128906,0.1171875 0.09375,0 0.105469,-0.046875 0.164063,-0.2109375 0.539062,-1.546875 0.796875,-1.7226563 2.273437,-1.7226563 h 0.386719 c 0.28125,0 0.28125,0.035156 0.28125,0.1171875 0,0.058594 -0.03516,0.1757813 -0.04687,0.2109375 l -1.324219,5.32031254 c -0.09375,0.36328125 -0.128906,0.48046875 -1.195312,0.48046875 -0.351563,0 -0.410156,0 -0.410156,0.1875 0,0.1171875 0.105468,0.1171875 0.164062,0.1171875 0.269531,0 0.550781,-0.0234375 0.820313,-0.0234375 0.28125,0 0.5625,-0.01171875 0.84375,-0.01171875 0.28125,0 0.5625,0.01171875 0.832031,0.01171875 0.28125,0 0.585937,0.0234375 0.867187,0.0234375 0.09375,0 0.210938,0 0.210938,-0.19921875 0,-0.10546875 -0.08203,-0.10546875 -0.339844,-0.10546875 -0.246094,0 -0.375,0 -0.632812,-0.0234375 -0.292969,-0.0351563 -0.363282,-0.0585938 -0.363282,-0.22265625 0,-0.0117188 0,-0.0585938 0.03516,-0.2109375 z m 0,0"
         style="fill:#000000;fill-opacity:1;fill-rule:nonzero;stroke:none" />
      <path
         id="path13"
         d="m 69.56618,-5.4033516 c 0,-0.6328125 -0.433594,-1.21875 -1.136719,-1.3828125 l -1.03125,-0.234375 c -0.609375,-0.140625 -0.796875,-0.5859375 -0.796875,-0.8671875 0,-0.46875 0.421875,-0.9023437 1.054687,-0.9023437 0.9375,0 1.347657,0.6210937 1.464844,1.359375 0.01172,0.1054687 0.01172,0.140625 0.117188,0.140625 0.117187,0 0.117187,-0.046875 0.117187,-0.1875 v -1.359375 c 0,-0.1171875 0,-0.1757813 -0.09375,-0.1757813 -0.05859,0 -0.07031,0.011719 -0.117187,0.09375 l -0.257813,0.3867188 c -0.457031,-0.46875 -1.03125,-0.4804688 -1.230469,-0.4804688 -0.878906,0 -1.5,0.6210938 -1.5,1.3242188 0,0.3984375 0.175782,0.6914062 0.421875,0.9257812 0.28125,0.28125 0.503907,0.328125 1.265625,0.4921875 0.632813,0.140625 0.773438,0.1640625 0.972657,0.3632813 0.164062,0.1640625 0.304687,0.3867187 0.304687,0.703125 0,0.4804687 -0.398437,0.9726562 -1.078125,0.9726562 -0.667969,0 -1.605469,-0.2578125 -1.652344,-1.3125 -0.01172,-0.1054687 -0.01172,-0.1523437 -0.117187,-0.1523437 -0.117188,0 -0.117188,0.046875 -0.117188,0.1875 v 1.3476562 c 0,0.1289063 0,0.1875 0.09375,0.1875 0.05859,0 0.07031,-0.023437 0.117188,-0.082031 0.05859,-0.082031 0.199219,-0.3046875 0.257812,-0.3984375 0.433594,0.3867187 0.972657,0.4804687 1.417969,0.4804687 0.925781,0 1.523438,-0.6914062 1.523438,-1.4296877 z m 3.111328,0.4101563 v -0.3867188 h -0.234375 v 0.375 c 0,0.4804688 -0.222656,0.7382813 -0.492188,0.7382813 -0.480468,0 -0.480468,-0.5859375 -0.480468,-0.7148438 v -1.8867187 h 1.078125 v -0.2460938 h -1.078125 v -1.2890625 h -0.246094 c 0,0.6328125 -0.292969,1.3242188 -0.960938,1.3359375 v 0.1992188 h 0.65625 v 1.8867187 c 0,0.7734375 0.585938,0.9375 0.972657,0.9375 0.46875,0 0.785156,-0.3984375 0.785156,-0.9492187 z m 4.291992,0.2460937 v -0.375 h -0.246094 v 0.375 c 0,0.070312 0,0.3984375 -0.257812,0.3984375 -0.257813,0 -0.257813,-0.328125 -0.257813,-0.4101562 v -1.21875 c 0,-0.375 0,-0.6445313 -0.316406,-0.9023438 -0.28125,-0.234375 -0.621094,-0.3398437 -1.03125,-0.3398437 -0.667969,0 -1.125,0.2460937 -1.125,0.6679687 0,0.2226563 0.152344,0.3398438 0.328125,0.3398438 0.1875,0 0.328125,-0.1289063 0.328125,-0.3164063 0,-0.1289062 -0.05859,-0.2695312 -0.246094,-0.328125 0.257813,-0.1757812 0.65625,-0.1757812 0.703125,-0.1757812 0.386719,0 0.808594,0.2578125 0.808594,0.84375 v 0.2226562 c -0.375,0.011719 -0.84375,0.035156 -1.347656,0.2226563 -0.632813,0.2226562 -0.820313,0.609375 -0.820313,0.9257812 0,0.5976563 0.726563,0.7734375 1.21875,0.7734375 0.5625,0 0.878906,-0.3164062 1.03125,-0.5859375 0.02344,0.28125 0.210938,0.5507813 0.539063,0.5507813 0,0 0.691406,0 0.691406,-0.6679688 z M 75.657,-5.0986641 c 0,0.6679688 -0.585938,0.8554688 -0.890625,0.8554688 -0.363281,0 -0.691406,-0.234375 -0.691406,-0.5742188 0,-0.3867187 0.328125,-0.9257812 1.582031,-0.9726562 z m 4.321289,-1.640625 c 0,-0.2460937 -0.222656,-0.4453125 -0.550781,-0.4453125 -0.351563,0 -0.726563,0.2109375 -0.9375,0.7382813 h -0.01172 v -0.7382813 l -0.996094,0.070312 v 0.2578125 c 0.46875,0 0.527344,0.046875 0.527344,0.3867188 v 1.8046875 c 0,0.3046875 -0.07031,0.3046875 -0.527344,0.3046875 v 0.2460937 c 0.03516,0 0.515625,-0.023437 0.796875,-0.023437 l 0.902344,0.023437 v -0.2460937 h -0.140625 c -0.515625,0 -0.515625,-0.082031 -0.515625,-0.3164063 v -1.03125 c 0,-0.5859375 0.28125,-1.2890625 0.9375,-1.2890625 -0.05859,0.046875 -0.117187,0.140625 -0.117187,0.2578125 0,0.2226563 0.175781,0.3164063 0.316406,0.3164063 0.164062,0 0.316406,-0.1054688 0.316406,-0.3164063 z m 2.885742,1.7460938 v -0.3867188 h -0.234375 v 0.375 c 0,0.4804688 -0.222656,0.7382813 -0.492187,0.7382813 -0.480469,0 -0.480469,-0.5859375 -0.480469,-0.7148438 v -1.8867187 h 1.078125 V -7.1142891 H 81.657 v -1.2890625 h -0.246094 c 0,0.6328125 -0.292969,1.3242188 -0.960937,1.3359375 v 0.1992188 h 0.65625 v 1.8867187 c 0,0.7734375 0.585937,0.9375 0.972656,0.9375 0.46875,0 0.785156,-0.3984375 0.785156,-0.9492187 z m 0,0"
         style="fill:#000000;fill-opacity:1;fill-rule:nonzero;stroke:none" />
      <path
         id="path14"
         d="m 66.75368,-2.3769844 c -1.324219,0.9257813 -1.675782,2.41406253 -1.675782,3.4804688 0,0.984375 0.292969,2.5078125 1.675782,3.4804687 0.05859,0 0.140625,0 0.140625,-0.082031 0,-0.046875 -0.02344,-0.058594 -0.07031,-0.1054688 -0.925781,-0.8320312 -1.265625,-2.015625 -1.265625,-3.2929687 0,-1.87500002 0.714844,-2.8007813 1.289063,-3.3164063 0.02344,-0.023437 0.04687,-0.046875 0.04687,-0.082031 0,-0.082031 -0.08203,-0.082031 -0.140625,-0.082031 z m 0,0"
         style="fill:#000000;fill-opacity:1;fill-rule:nonzero;stroke:none" />
      <path
         id="path15"
         d="m 70.415789,2.2870781 c -0.03516,0.140625 -0.09375,0.375 -0.09375,0.4101563 0,0.1523437 0.128906,0.2226562 0.234375,0.2226562 0.128906,0 0.234375,-0.09375 0.269531,-0.1523437 0.03516,-0.058594 0.09375,-0.2929688 0.128907,-0.4335938 0.03516,-0.1289062 0.117187,-0.4570312 0.152343,-0.6328125 0.04687,-0.1523437 0.08203,-0.3046875 0.117188,-0.4570312 0.08203,-0.30468752 0.08203,-0.31640627 0.222656,-0.53906252 0.222656,-0.33984375 0.5625,-0.73828125 1.113281,-0.73828125 0.386719,0 0.410157,0.328125 0.410157,0.4921875 0,0.421875 -0.304688,1.19531247 -0.410157,1.48828127 -0.08203,0.1875 -0.105468,0.2578125 -0.105468,0.375 0,0.3632812 0.304687,0.5976562 0.65625,0.5976562 0.703125,0 1.007812,-0.9609375 1.007812,-1.0664062 0,-0.09375 -0.09375,-0.09375 -0.105469,-0.09375 -0.105468,0 -0.105468,0.046875 -0.140625,0.1171875 -0.152343,0.5625 -0.457031,0.84375 -0.738281,0.84375 -0.140625,0 -0.175781,-0.09375 -0.175781,-0.2460938 0,-0.1523437 0.03516,-0.2460937 0.164062,-0.5625 0.08203,-0.2109375 0.375,-0.94921872 0.375,-1.34765622 0,-0.10546875 0,-0.3984375 -0.257812,-0.59765625 -0.128906,-0.09375 -0.328125,-0.1875 -0.65625,-0.1875 -0.621094,0 -1.007813,0.41015625 -1.230469,0.703125 -0.05859,-0.59765625 -0.550781,-0.703125 -0.902344,-0.703125 -0.585937,0 -0.972656,0.3515625 -1.183593,0.6328125 -0.04687,-0.48046875 -0.457032,-0.6328125 -0.75,-0.6328125 -0.292969,0 -0.457032,0.2109375 -0.550782,0.375 -0.152343,0.2578125 -0.246093,0.65625 -0.246093,0.69140625 0,0.0820313 0.09375,0.0820313 0.117187,0.0820313 0.09375,0 0.105469,-0.0117188 0.152344,-0.19921875 0.105469,-0.421875 0.234375,-0.76171875 0.515625,-0.76171875 0.175781,0 0.222656,0.15234375 0.222656,0.33984375 0,0.140625 -0.05859,0.3984375 -0.105469,0.5859375 C 68.575945,1.0800469 68.505633,1.3612969 68.470477,1.5136406 L 68.24782,2.4159844 c -0.03516,0.082031 -0.07031,0.2578125 -0.07031,0.28125 0,0.1523437 0.117187,0.2226562 0.234375,0.2226562 0.128906,0 0.234375,-0.09375 0.269531,-0.1523437 0.03516,-0.058594 0.09375,-0.2929688 0.128906,-0.4335938 0.03516,-0.1289062 0.105469,-0.4570312 0.152344,-0.6328125 0.03516,-0.1523437 0.08203,-0.3046875 0.117188,-0.4570312 0.08203,-0.29296877 0.09375,-0.35156252 0.292968,-0.63281252 0.199219,-0.28125 0.527344,-0.64453125 1.042969,-0.64453125 0.410156,0 0.410156,0.36328125 0.410156,0.4921875 0,0.17578125 -0.01172,0.26953125 -0.117187,0.65624997 z m 5.519531,0.4453125 c 0,0.3867188 -0.07031,0.8320313 -0.550781,1.2773438 -0.02344,0.035156 -0.04687,0.058594 -0.04687,0.09375 0,0.046875 0.05859,0.09375 0.09375,0.09375 0.105469,0 0.691406,-0.5625 0.691406,-1.3945313 0,-0.421875 -0.164062,-0.75 -0.480468,-0.75 -0.234375,0 -0.398438,0.1757813 -0.398438,0.3867188 0,0.234375 0.152344,0.4101562 0.398438,0.4101562 0.164062,0 0.28125,-0.1171875 0.292968,-0.1171875 z m 3.149414,-4.2421875 c 0,-0.1054687 -0.08203,-0.2578125 -0.28125,-0.2578125 -0.1875,0 -0.386718,0.1757813 -0.386718,0.375 0,0.1171875 0.08203,0.2695313 0.269531,0.2695313 0.210937,0 0.398437,-0.1992188 0.398437,-0.3867188 z m -1.429687,3.5390625 c -0.02344,0.09375 -0.05859,0.1757813 -0.05859,0.2929688 0,0.328125 0.28125,0.5976562 0.667969,0.5976562 0.691406,0 0.996094,-0.9609375 0.996094,-1.0664062 0,-0.09375 -0.08203,-0.09375 -0.105469,-0.09375 -0.105469,0 -0.105469,0.046875 -0.140625,0.1171875 -0.152344,0.5625 -0.457031,0.84375 -0.738281,0.84375 -0.140625,0 -0.175782,-0.082031 -0.175782,-0.2460938 0,-0.1523437 0.05859,-0.2929687 0.117188,-0.4453125 0.07031,-0.1875 0.140625,-0.375 0.222656,-0.5507812 0.05859,-0.1640625 0.316406,-0.80859377 0.339844,-0.89062502 0.02344,-0.0703125 0.04687,-0.15234375 0.04687,-0.22265625 0,-0.328125 -0.28125,-0.5859375 -0.667969,-0.5859375 -0.691406,0 -1.007812,0.94921875 -1.007812,1.06640625 0,0.0820313 0.09375,0.0820313 0.117187,0.0820313 0.09375,0 0.105469,-0.0351563 0.128906,-0.10546875 0.175782,-0.59765625 0.480469,-0.85546875 0.738282,-0.85546875 0.117187,0 0.175781,0.05859375 0.175781,0.24609375 0,0.1640625 -0.03516,0.26953125 -0.210938,0.703125 z m 3.459961,0.703125 c 0,0.3867188 -0.07031,0.8320313 -0.550781,1.2773438 -0.02344,0.035156 -0.04687,0.058594 -0.04687,0.09375 0,0.046875 0.05859,0.09375 0.09375,0.09375 0.105468,0 0.691406,-0.5625 0.691406,-1.3945313 0,-0.421875 -0.164063,-0.75 -0.480469,-0.75 -0.234375,0 -0.398437,0.1757813 -0.398437,0.3867188 0,0.234375 0.152343,0.4101562 0.398437,0.4101562 0.164063,0 0.28125,-0.1171875 0.292969,-0.1171875 z m 4.696289,-0.8671875 c 0.644531,-0.65625 0.902344,-1.59374997 0.902344,-1.66406247 0,-0.09375 -0.08203,-0.09375 -0.117188,-0.09375 -0.09375,0 -0.09375,0.0234375 -0.140625,0.17578125 -0.128906,0.45703125 -0.363281,0.89062502 -0.65625,1.26562502 0,-0.1054688 -0.02344,-0.57421877 -0.03516,-0.63281252 -0.105469,-0.69140625 -0.621094,-1.13671875 -1.324219,-1.13671875 -1.019531,0 -2.003906,0.94921875 -2.003906,1.92187497 0,0.6445313 0.46875,1.21875 1.277344,1.21875 0.644531,0 1.21875,-0.2929687 1.605468,-0.5976562 0.164063,0.515625 0.515625,0.5976562 0.726563,0.5976562 0.410156,0 0.65625,-0.3398437 0.65625,-0.4921875 0,-0.082031 -0.08203,-0.082031 -0.117188,-0.082031 -0.09375,0 -0.105468,0.035156 -0.117187,0.070312 -0.105469,0.2695312 -0.316406,0.3046875 -0.398438,0.3046875 -0.09375,0 -0.222656,0 -0.257812,-0.8554688 z m -0.539063,0.234375 c -0.679687,0.5625 -1.277343,0.6210938 -1.535156,0.6210938 -0.46875,0 -0.726562,-0.3046875 -0.726562,-0.7734375 0,-0.1992188 0.105468,-0.96093752 0.46875,-1.44140627 0.316406,-0.421875 0.714843,-0.5390625 0.960937,-0.5390625 0.550781,0 0.714844,0.5390625 0.773438,0.97265625 0.03516,0.30468752 0.02344,0.79687502 0.05859,1.16015622 z m 0,0"
         style="fill:#000000;fill-opacity:1;fill-rule:nonzero;stroke:none" />
      <path
         id="path16"
         d="m 87.826922,-2.3769844 c -0.05859,0 -0.140625,0 -0.140625,0.082031 0,0.035156 0.02344,0.058594 0.07031,0.1054687 0.597657,0.5507813 1.265625,1.48828128 1.265625,3.2929688 0,1.453125 -0.457031,2.5546875 -1.207031,3.234375 -0.117187,0.1171875 -0.128906,0.1289062 -0.128906,0.1640625 0,0.035156 0.02344,0.082031 0.09375,0.082031 0.08203,0 0.75,-0.4570312 1.207031,-1.3242187 0.304688,-0.5859375 0.503906,-1.3359375 0.503906,-2.15625 0,-0.98437502 -0.292968,-2.5078125 -1.664062,-3.4804688 z m 0,0"
         style="fill:#000000;fill-opacity:1;fill-rule:nonzero;stroke:none" />
      <path
         id="path17"
         d="m 100.28688,-3.2236641 c 0.14063,-0.070312 0.19922,-0.1289062 0.19922,-0.2226562 0,-0.1054688 -0.0351,-0.1640625 -0.19922,-0.234375 l -5.484372,-2.5898438 c -0.140625,-0.070312 -0.1875,-0.070312 -0.199219,-0.070312 -0.128906,0 -0.199219,0.09375 -0.199219,0.1992188 0,0.1289062 0.07031,0.1757812 0.1875,0.2226562 l 5.226563,2.4609375 -5.214844,2.46093754 c -0.199219,0.09375 -0.199219,0.1640625 -0.199219,0.234375 0,0.10546875 0.08203,0.19921875 0.199219,0.19921875 0.02344,0 0.04687,0 0.175781,-0.0703125 z m -0.15234,4.5820313 c 0.17578,0 0.35156,0 0.35156,-0.1992188 0,-0.19921871 -0.21094,-0.19921871 -0.36328,-0.19921871 h -5.367187 c -0.152344,0 -0.351563,0 -0.351563,0.19921871 0,0.1992188 0.175782,0.1992188 0.339844,0.1992188 z m 0,0"
         style="fill:#000000;fill-opacity:1;fill-rule:nonzero;stroke:none" />
      <path
         id="path18"
         d="m 108.66872,-3.1885078 c 0,-0.796875 -0.0469,-1.59375 -0.39844,-2.3320313 -0.45703,-0.9609375 -1.27734,-1.1132812 -1.6875,-1.1132812 -0.59766,0 -1.33594,0.2578125 -1.73437,1.1835937 -0.32813,0.6914063 -0.375,1.4648438 -0.375,2.2617188 0,0.75 0.0469,1.640625 0.44531,2.40234374 0.43359,0.80859375 1.16015,1.0078125 1.65234,1.0078125 0.53906,0 1.28906,-0.2109375 1.73438,-1.16015625 0.3164,-0.69140629 0.36328,-1.46484379 0.36328,-2.24999999 z m -2.09766,3.18749999 c -0.38672,0 -0.98437,-0.24609375 -1.16015,-1.20703129 -0.10547,-0.5976562 -0.10547,-1.5117187 -0.10547,-2.0976562 0,-0.6445313 0,-1.3007813 0.082,-1.8398438 0.1875,-1.1835937 0.92578,-1.265625 1.18359,-1.265625 0.32813,0 0.98438,0.1757813 1.17188,1.1601563 0.0937,0.5625 0.0937,1.3125 0.0937,1.9453125 0,0.75 0,1.4179687 -0.10547,2.0625 -0.15235,0.93749999 -0.71485,1.24218749 -1.16016,1.24218749 z m 0,0"
         style="fill:#000000;fill-opacity:1;fill-rule:nonzero;stroke:none" />
      <path
         id="path19"
         d="m 111.09743,-0.01272656 c 0,-0.65625 -0.25781,-1.04296874 -0.64453,-1.04296874 -0.32813,0 -0.52735,0.24609374 -0.52735,0.52734374 0,0.26953125 0.19922,0.52734375 0.52735,0.52734375 0.11719,0 0.24609,-0.03515625 0.35156,-0.12890625 0.0234,-0.0234375 0.0352,-0.0351563 0.0469,-0.0351563 0.0117,0 0.0234,0.0117188 0.0234,0.15234375 0,0.73828125 -0.35156,1.33593741 -0.67968,1.66406241 -0.10547,0.1054688 -0.10547,0.1289063 -0.10547,0.1640625 0,0.070312 0.0469,0.1054688 0.0937,0.1054688 0.11718,0 0.91406,-0.7617188 0.91406,-1.93359371 z m 0,0"
         style="fill:#000000;fill-opacity:1;fill-rule:nonzero;stroke:none" />
      <path
         id="path20"
         d="m 118.98122,-6.5400703 c 0.0586,-0.1054688 0.0586,-0.1289063 0.0586,-0.1757813 0,-0.09375 -0.082,-0.1992187 -0.19922,-0.1992187 -0.1289,0 -0.19922,0.1171875 -0.23437,0.234375 l -0.82031,2.1914062 h -3.03516 l -0.82031,-2.1914062 c -0.0586,-0.140625 -0.10547,-0.234375 -0.23438,-0.234375 -0.0937,0 -0.19922,0.1054687 -0.19922,0.1992187 0,0.023437 0,0.035156 0.0586,0.1757813 l 2.48437,6.52734374 c 0.0469,0.140625 0.0937,0.234375 0.22266,0.234375 0.14062,0 0.1875,-0.1171875 0.22265,-0.2109375 z m -4.06641,2.4492187 h 2.70703 l -1.35937,3.53906254 z m 0,0"
         style="fill:#000000;fill-opacity:1;fill-rule:nonzero;stroke:none" />
      <path
         id="path21"
         d="m 122.32399,2.3896172 c 0,-0.035156 0,-0.046875 -0.16406,-0.2226563 -1.24219,-1.25390621 -1.57031,-3.12890621 -1.57031,-4.6640625 0,-1.7226562 0.38672,-3.4570312 1.60547,-4.7109375 0.1289,-0.1171875 0.1289,-0.1289062 0.1289,-0.1640625 0,-0.070312 -0.0352,-0.1054687 -0.0937,-0.1054687 -0.10547,0 -0.99609,0.6796875 -1.58203,1.9453125 -0.51562,1.1015625 -0.63281,2.203125 -0.63281,3.0351562 0,0.7851563 0.11719,1.99218754 0.65625,3.11718754 0.59765,1.21874996 1.45312,1.87499996 1.55859,1.87499996 0.0586,0 0.0937,-0.035156 0.0937,-0.1054687 z m 0,0"
         style="fill:#000000;fill-opacity:1;fill-rule:nonzero;stroke:none" />
      <path
         id="path22"
         d="m 123.78591,-0.58694531 c -0.0352,0.15234375 -0.0937,0.375 -0.0937,0.421875 0,0.1875 0.14062,0.26953125 0.29296,0.26953125 0.11719,0 0.29297,-0.0703125 0.36329,-0.26953125 0.0117,-0.0234375 0.1289,-0.4921875 0.1875,-0.73828125 l 0.22265,-0.90234374 c 0.0586,-0.2226563 0.11719,-0.4335938 0.17578,-0.6679688 0.0352,-0.1640625 0.11719,-0.4570312 0.12891,-0.4921875 0.14062,-0.3164062 0.66797,-1.21875 1.61719,-1.21875 0.44531,0 0.53906,0.3632813 0.53906,0.6914063 0,0.2578125 -0.0703,0.5390625 -0.15234,0.8320312 l -0.26954,1.1601563 -0.19921,0.74999999 c -0.0469,0.19921875 -0.14063,0.5390625 -0.14063,0.5859375 0,0.1875 0.14063,0.26953125 0.29297,0.26953125 0.30469,0 0.375,-0.24609375 0.44531,-0.5625 0.14063,-0.56250004 0.51563,-2.01562504 0.59766,-2.40234374 0.0352,-0.1289063 0.5625,-1.3242188 1.65234,-1.3242188 0.42188,0 0.53906,0.3398438 0.53906,0.6914063 0,0.5742187 -0.42187,1.7109375 -0.62109,2.2382812 -0.0937,0.234375 -0.12891,0.35156254 -0.12891,0.55078129 0,0.46875 0.35157,0.80859375 0.8086,0.80859375 0.9375,0 1.3125,-1.45312504 1.3125,-1.53515624 0,-0.09375 -0.0937,-0.09375 -0.11719,-0.09375 -0.10547,0 -0.10547,0.023437 -0.15234,0.1757812 -0.15235,0.52734379 -0.46875,1.24218754 -1.01953,1.24218754 -0.16407,0 -0.23438,-0.10546875 -0.23438,-0.328125 0,-0.2578125 0.082,-0.4921875 0.17578,-0.71484374 0.1875,-0.515625 0.60938,-1.6171875 0.60938,-2.1914063 0,-0.6445312 -0.39844,-1.0664062 -1.14844,-1.0664062 -0.75,0 -1.25391,0.4453125 -1.61719,0.9726562 -0.0117,-0.1289062 -0.0469,-0.46875 -0.32812,-0.7148437 -0.2461,-0.1992188 -0.5625,-0.2578125 -0.8086,-0.2578125 -0.90234,0 -1.38281,0.6445312 -1.55859,0.8671875 -0.0469,-0.5625 -0.46875,-0.8671875 -0.91406,-0.8671875 -0.45703,0 -0.64453,0.3867187 -0.73828,0.5742187 -0.17579,0.3398438 -0.30469,0.9375 -0.30469,0.9609375 0,0.1054688 0.0937,0.1054688 0.11719,0.1054688 0.0937,0 0.10546,-0.011719 0.16406,-0.234375 0.17578,-0.703125 0.375,-1.1835938 0.72656,-1.1835938 0.16406,0 0.31641,0.082031 0.31641,0.4570313 0,0.2109375 -0.0352,0.3164062 -0.16407,0.8320312 z m 9.89355,0.57421875 c 0,-0.65625 -0.25781,-1.04296874 -0.64453,-1.04296874 -0.32813,0 -0.52734,0.24609374 -0.52734,0.52734374 0,0.26953125 0.19921,0.52734375 0.52734,0.52734375 0.11719,0 0.24609,-0.03515625 0.35156,-0.12890625 0.0234,-0.0234375 0.0352,-0.0351563 0.0469,-0.0351563 0.0117,0 0.0234,0.0117188 0.0234,0.15234375 0,0.73828125 -0.35156,1.33593741 -0.67968,1.66406241 -0.10547,0.1054688 -0.10547,0.1289063 -0.10547,0.1640625 0,0.070312 0.0469,0.1054688 0.0937,0.1054688 0.11719,0 0.91406,-0.7617188 0.91406,-1.93359371 z m 5.21191,-6.21093754 c 0,-0.1992187 -0.1289,-0.3632812 -0.36328,-0.3632812 -0.26953,0 -0.53906,0.2578125 -0.53906,0.5273437 0,0.1875 0.14063,0.3632813 0.375,0.3632813 0.23438,0 0.52734,-0.234375 0.52734,-0.5273438 z m -0.75,3.7382813 c 0.11719,-0.28125 0.11719,-0.3046875 0.22266,-0.5742188 0.0703,-0.1992187 0.12891,-0.3398437 0.12891,-0.5273437 0,-0.4453125 -0.32813,-0.8203125 -0.82032,-0.8203125 -0.9375,0 -1.3125,1.453125 -1.3125,1.5351562 0,0.1054688 0.0937,0.1054688 0.11719,0.1054688 0.0937,0 0.10547,-0.023437 0.15235,-0.1875 0.26953,-0.9375 0.66796,-1.2304688 1.00781,-1.2304688 0.082,0 0.25781,0 0.25781,0.3164063 0,0.2109375 -0.0703,0.421875 -0.11719,0.515625 -0.082,0.2578125 -0.52734,1.4179687 -0.67968,1.8515625 -0.10547,0.2578125 -0.23438,0.58593749 -0.23438,0.79687499 0,0.46875 0.33984,0.80859375 0.82031,0.80859375 0.9375,0 1.30078,-1.44140624 1.30078,-1.53515624 0,-0.09375 -0.0937,-0.09375 -0.11718,-0.09375 -0.10547,0 -0.10547,0.023437 -0.15235,0.1757812 -0.17578,0.63281254 -0.5039,1.24218754 -1.01953,1.24218754 -0.16406,0 -0.23437,-0.10546875 -0.23437,-0.328125 0,-0.2578125 0.0586,-0.3984375 0.29297,-0.99609374 z m 0,0"
         style="fill:#000000;fill-opacity:1;fill-rule:nonzero;stroke:none" />
      <path
         id="path23"
         d="m 142.39528,-2.4971016 c 0,-0.7734375 -0.11719,-1.9804687 -0.65625,-3.1054687 -0.59766,-1.21875 -1.46484,-1.875 -1.55859,-1.875 -0.0586,0 -0.10547,0.046875 -0.10547,0.1054687 0,0.035156 0,0.046875 0.19922,0.234375 0.97265,0.984375 1.53515,2.5664063 1.53515,4.640625 0,1.71093754 -0.36328,3.45703129 -1.59375,4.7226563 -0.14062,0.1171875 -0.14062,0.1289062 -0.14062,0.1640625 0,0.058594 0.0469,0.1054687 0.10547,0.1054687 0.0937,0 0.99609,-0.6796875 1.58203,-1.94531246 0.5039,-1.1015625 0.63281,-2.20312504 0.63281,-3.04687504 z m 0,0"
         style="fill:#000000;fill-opacity:1;fill-rule:nonzero;stroke:none" />
      <path
         id="path24"
         d="m 151.61501,-2.2978828 c 0.16406,0 0.35156,0 0.35156,-0.1992188 0,-0.1992187 -0.1875,-0.1992187 -0.35156,-0.1992187 h -4.23047 c 0.12891,-1.3242188 1.26562,-2.2851563 2.67187,-2.2851563 h 1.5586 c 0.16406,0 0.35156,0 0.35156,-0.1992187 0,-0.1992188 -0.1875,-0.1992188 -0.35156,-0.1992188 h -1.57031 c -1.71094,0 -3.0586,1.2890625 -3.0586,2.8828125 0,1.59375004 1.34766,2.89453129 3.0586,2.89453129 h 1.57031 c 0.16406,0 0.35156,0 0.35156,-0.19921875 0,-0.19921875 -0.1875,-0.19921875 -0.35156,-0.19921875 h -1.5586 c -1.40625,0 -2.54296,-0.9609375 -2.67187,-2.29687499 z m 0,0"
         style="fill:#000000;fill-opacity:1;fill-rule:nonzero;stroke:none" />
      <path
         id="path25"
         d="m 163.13454,-6.9267891 c 0,-0.023437 -0.0234,-0.09375 -0.10547,-0.09375 -0.0352,0 -0.0469,0.011719 -0.15234,0.1171875 l -0.70313,0.7617188 c -0.082,-0.140625 -0.53906,-0.8789063 -1.65234,-0.8789063 -2.21485,0 -4.45313,2.203125 -4.45313,4.5117188 0,1.64062499 1.17188,2.73046874 2.69532,2.73046874 0.86718,0 1.61718,-0.3984375 2.14453,-0.85546875 0.9375,-0.82031249 1.10156,-1.72265629 1.10156,-1.75781249 0,-0.1054688 -0.10547,-0.1054688 -0.11719,-0.1054688 -0.0586,0 -0.11719,0.023437 -0.1289,0.1054688 -0.0937,0.2929687 -0.31641,0.9960937 -1.00782,1.57031249 -0.6914,0.5625 -1.3125,0.7265625 -1.83984,0.7265625 -0.89063,0 -1.94531,-0.515625 -1.94531,-2.06249999 0,-0.5742188 0.21093,-2.1914063 1.20703,-3.3515625 0.60937,-0.703125 1.53515,-1.2070313 2.42578,-1.2070313 1.01953,0 1.60547,0.7734375 1.60547,1.921875 0,0.3984375 -0.0352,0.4101563 -0.0352,0.5039063 0,0.1054687 0.11719,0.1054687 0.15235,0.1054687 0.1289,0 0.1289,-0.023437 0.17578,-0.1992187 z m 1.71973,6.91406254 c 0,-0.65625 -0.25782,-1.04296874 -0.64454,-1.04296874 -0.32812,0 -0.52734,0.24609374 -0.52734,0.52734374 0,0.26953125 0.19922,0.52734375 0.52734,0.52734375 0.11719,0 0.2461,-0.03515625 0.35157,-0.12890625 0.0234,-0.0234375 0.0352,-0.0351563 0.0469,-0.0351563 0.0117,0 0.0234,0.0117188 0.0234,0.15234375 0,0.73828125 -0.35156,1.33593741 -0.67969,1.66406241 -0.10547,0.1054688 -0.10547,0.1289063 -0.10547,0.1640625 0,0.070312 0.0469,0.1054688 0.0937,0.1054688 0.11719,0 0.91407,-0.7617188 0.91407,-1.93359371 z m 0,0"
         style="fill:#000000;fill-opacity:1;fill-rule:nonzero;stroke:none" />
      <path
         id="path26"
         d="m 172.75563,-6.5400703 c 0.0586,-0.1054688 0.0586,-0.1289063 0.0586,-0.1757813 0,-0.09375 -0.082,-0.1992187 -0.19922,-0.1992187 -0.12891,0 -0.19922,0.1171875 -0.23438,0.234375 l -0.82031,2.1914062 h -3.03516 l -0.82031,-2.1914062 c -0.0586,-0.140625 -0.10547,-0.234375 -0.23437,-0.234375 -0.0937,0 -0.19922,0.1054687 -0.19922,0.1992187 0,0.023437 0,0.035156 0.0586,0.1757813 l 2.48438,6.52734374 c 0.0469,0.140625 0.0937,0.234375 0.22265,0.234375 0.14063,0 0.1875,-0.1171875 0.22266,-0.2109375 z m -4.0664,2.4492187 h 2.70703 l -1.35938,3.53906254 z m 0,0"
         style="fill:#000000;fill-opacity:1;fill-rule:nonzero;stroke:none" />
      <path
         id="path27"
         d="m 177.55153,-2.3564766 c 0,-1.5585937 -0.92578,-2.0507812 -1.65234,-2.0507812 -1.3711,0 -2.6836,1.4296875 -2.6836,2.8359375 0,0.92578124 0.59766,1.67578124 1.61719,1.67578124 0.62109,0 1.33594,-0.22265625 2.09766,-0.83203125 0.1289,0.52734375 0.45703,0.83203125 0.90234,0.83203125 0.52734,0 0.84375,-0.5390625 0.84375,-0.703125 0,-0.0703125 -0.0586,-0.10546875 -0.12891,-0.10546875 -0.0586,0 -0.0937,0.0351563 -0.1289,0.10546875 -0.17578,0.4921875 -0.52735,0.4921875 -0.55078,0.4921875 -0.31641,0 -0.31641,-0.78515625 -0.31641,-1.01953124 0,-0.2109375 0,-0.234375 0.10547,-0.3515625 0.9375,-1.171875 1.14844,-2.3320313 1.14844,-2.34375 0,-0.011719 -0.0117,-0.09375 -0.11719,-0.09375 -0.10547,0 -0.10547,0.023437 -0.15234,0.2109375 -0.1875,0.6210937 -0.51563,1.3828125 -0.98438,1.96875 z m -0.65625,1.37109379 c -0.87891,0.76171875 -1.65234,0.87890625 -2.05078,0.87890625 -0.59766,0 -0.89063,-0.45703125 -0.89063,-1.08984374 0,-0.4921875 0.25782,-1.5585938 0.57422,-2.0742188 0.46875,-0.7265625 1.00782,-0.9140625 1.35938,-0.9140625 0.98437,0 0.98437,1.3007813 0.98437,2.0859375 0,0.3632813 0,0.9375 0.0234,1.11328129 z m 0,0"
         style="fill:#000000;fill-opacity:1;fill-rule:nonzero;stroke:none" />
      <path
         id="path28"
         d="m 187.44509,-2.2978828 c 0.16406,0 0.35156,0 0.35156,-0.1992188 0,-0.1992187 -0.1875,-0.1992187 -0.35156,-0.1992187 h -4.23047 c 0.1289,-1.3242188 1.26562,-2.2851563 2.67187,-2.2851563 h 1.5586 c 0.16406,0 0.35156,0 0.35156,-0.1992187 0,-0.1992188 -0.1875,-0.1992188 -0.35156,-0.1992188 h -1.57032 c -1.71093,0 -3.05859,1.2890625 -3.05859,2.8828125 0,1.59375004 1.34766,2.89453129 3.05859,2.89453129 h 1.57032 c 0.16406,0 0.35156,0 0.35156,-0.19921875 0,-0.19921875 -0.1875,-0.19921875 -0.35156,-0.19921875 h -1.5586 c -1.40625,0 -2.54297,-0.9609375 -2.67187,-2.29687499 z m 6.75878,-3.84375 c 0,-0.3984375 0.25782,-1.0429688 1.33594,-1.1132813 0.0586,-0.011719 0.0937,-0.046875 0.0937,-0.1054687 0,-0.1171875 -0.082,-0.1171875 -0.1875,-0.1171875 -0.99609,0 -1.91015,0.515625 -1.91015,1.2539062 v 2.2734375 c 0,0.3867188 0,0.703125 -0.39844,1.03125 -0.35156,0.2929688 -0.72656,0.3046875 -0.94922,0.3164063 -0.0469,0.011719 -0.0937,0.046875 -0.0937,0.1054687 0,0.1054688 0.0586,0.1054688 0.16406,0.1171875 0.65625,0.035156 1.13672,0.3984375 1.24219,0.8789063 0.0352,0.1171875 0.0352,0.140625 0.0352,0.4921875 v 1.96874999 c 0,0.42187501 0,0.73828121 0.46875,1.12500001 0.39843,0.2929687 1.05468,0.4101562 1.4414,0.4101562 0.10547,0 0.1875,0 0.1875,-0.1171875 0,-0.09375 -0.0586,-0.09375 -0.16406,-0.1054687 -0.62109,-0.046875 -1.11328,-0.3632813 -1.24219,-0.8671875 -0.0234,-0.09375 -0.0234,-0.1054688 -0.0234,-0.46875001 V -1.1611641 c 0,-0.4570312 -0.082,-0.6210937 -0.39843,-0.9375 -0.21094,-0.2109375 -0.50391,-0.3164062 -0.78516,-0.3984375 0.82031,-0.2226562 1.18359,-0.6796875 1.18359,-1.2539062 z m 0,0"
         style="fill:#000000;fill-opacity:1;fill-rule:nonzero;stroke:none" />
      <path
         id="path29"
         d="m 199.30446,-6.3760078 c 0,-0.234375 0,-0.2578125 -0.23437,-0.2578125 -0.60938,0.6328125 -1.48829,0.6328125 -1.80469,0.6328125 v 0.3164062 c 0.19922,0 0.78515,0 1.30078,-0.2578125 v 5.15625004 c 0,0.3515625 -0.0352,0.48046875 -0.92578,0.48046875 h -0.31641 v 0.3046875 c 0.35156,-0.03515625 1.20703,-0.03515625 1.60547,-0.03515625 0.39844,0 1.26563,0 1.61719,0.03515625 v -0.3046875 h -0.31641 c -0.90234,0 -0.92578,-0.1171875 -0.92578,-0.48046875 z m 0,0"
         style="fill:#000000;fill-opacity:1;fill-rule:nonzero;stroke:none" />
      <path
         id="path30"
         d="m 203.38259,-0.01272656 c 0,-0.65625 -0.25782,-1.04296874 -0.64454,-1.04296874 -0.32812,0 -0.52734,0.24609374 -0.52734,0.52734374 0,0.26953125 0.19922,0.52734375 0.52734,0.52734375 0.11719,0 0.2461,-0.03515625 0.35157,-0.12890625 0.0234,-0.0234375 0.0352,-0.0351563 0.0469,-0.0351563 0.0117,0 0.0234,0.0117188 0.0234,0.15234375 0,0.73828125 -0.35156,1.33593741 -0.67969,1.66406241 -0.10547,0.1054688 -0.10547,0.1289063 -0.10547,0.1640625 0,0.070312 0.0469,0.1054688 0.0937,0.1054688 0.11719,0 0.91407,-0.7617188 0.91407,-1.93359371 z m 0,0"
         style="fill:#000000;fill-opacity:1;fill-rule:nonzero;stroke:none" />
      <path
         id="path31"
         d="m 207.04762,-0.76272656 1.05469,-1.03125004 c 1.5586,-1.3710937 2.15625,-1.9101562 2.15625,-2.90625 0,-1.1367187 -0.90234,-1.9335937 -2.12109,-1.9335937 -1.125,0 -1.85156,0.9140625 -1.85156,1.8046875 0,0.5507812 0.49218,0.5507812 0.52734,0.5507812 0.16406,0 0.51562,-0.1171875 0.51562,-0.5273437 0,-0.2578125 -0.1875,-0.515625 -0.52734,-0.515625 -0.082,0 -0.10547,0 -0.12891,0.011719 0.22266,-0.6445312 0.76172,-1.0195312 1.33594,-1.0195312 0.91406,0 1.33594,0.8085937 1.33594,1.6289062 0,0.796875 -0.49219,1.5820313 -1.04297,2.203125 l -1.91016,2.13281254 c -0.10546,0.10546875 -0.10546,0.12890625 -0.10546,0.36328125 h 3.6914 l 0.28125,-1.73437499 h -0.25781 c -0.0469,0.3046875 -0.11719,0.73828124 -0.21094,0.89062499 -0.0703,0.0820313 -0.72656,0.0820313 -0.94922,0.0820313 z m 0,0"
         style="fill:#000000;fill-opacity:1;fill-rule:nonzero;stroke:none" />
      <path
         id="path32"
         d="m 212.79274,-0.01272656 c 0,-0.65625 -0.25781,-1.04296874 -0.64453,-1.04296874 -0.32812,0 -0.52734,0.24609374 -0.52734,0.52734374 0,0.26953125 0.19922,0.52734375 0.52734,0.52734375 0.11719,0 0.24609,-0.03515625 0.35156,-0.12890625 0.0234,-0.0234375 0.0352,-0.0351563 0.0469,-0.0351563 0.0117,0 0.0234,0.0117188 0.0234,0.15234375 0,0.73828125 -0.35157,1.33593741 -0.67969,1.66406241 -0.10547,0.1054688 -0.10547,0.1289063 -0.10547,0.1640625 0,0.070312 0.0469,0.1054688 0.0937,0.1054688 0.11719,0 0.91406,-0.7617188 0.91406,-1.93359371 z m 0,0"
         style="fill:#000000;fill-opacity:1;fill-rule:nonzero;stroke:none" />
      <path
         id="path33"
         d="m 218.08669,-3.5049141 c 0.80859,-0.2695312 1.39453,-0.9726562 1.39453,-1.7578125 0,-0.8203125 -0.87891,-1.3710937 -1.83985,-1.3710937 -1.00781,0 -1.75781,0.5976562 -1.75781,1.3476562 0,0.3398438 0.21094,0.5273438 0.50391,0.5273438 0.30469,0 0.5039,-0.2226563 0.5039,-0.515625 0,-0.4921875 -0.46875,-0.4921875 -0.60937,-0.4921875 0.30469,-0.4921875 0.96094,-0.6210938 1.32422,-0.6210938 0.41015,0 0.94922,0.2226563 0.94922,1.1132813 0,0.1289062 -0.0117,0.703125 -0.26953,1.1367187 -0.30469,0.4804688 -0.64454,0.515625 -0.89063,0.515625 -0.082,0.011719 -0.31641,0.035156 -0.38672,0.035156 -0.082,0.011719 -0.15234,0.023437 -0.15234,0.1171875 0,0.1171875 0.0703,0.1171875 0.23437,0.1171875 h 0.44532 c 0.80859,0 1.18359,0.6679687 1.18359,1.6523437 0,1.34765629 -0.69141,1.64062504 -1.125,1.64062504 -0.43359,0 -1.17188,-0.17578125 -1.52344,-0.76171875 0.35156,0.0585938 0.65625,-0.1640625 0.65625,-0.53906249 0,-0.3632813 -0.26953,-0.5625 -0.5625,-0.5625 -0.23437,0 -0.55078,0.140625 -0.55078,0.5742187 0,0.91406254 0.92578,1.57031254 2.00391,1.57031254 1.21875,0 2.12109,-0.9140625 2.12109,-1.92187504 0,-0.8203125 -0.62109,-1.59375 -1.65234,-1.8046872 z m 0,0"
         style="fill:#000000;fill-opacity:1;fill-rule:nonzero;stroke:none" />
      <path
         id="path34"
         d="m 222.19997,-0.01272656 c 0,-0.65625 -0.25781,-1.04296874 -0.64453,-1.04296874 -0.32813,0 -0.52735,0.24609374 -0.52735,0.52734374 0,0.26953125 0.19922,0.52734375 0.52735,0.52734375 0.11718,0 0.24609,-0.03515625 0.35156,-0.12890625 0.0234,-0.0234375 0.0352,-0.0351563 0.0469,-0.0351563 0.0117,0 0.0234,0.0117188 0.0234,0.15234375 0,0.73828125 -0.35156,1.33593741 -0.67969,1.66406241 -0.10546,0.1054688 -0.10546,0.1289063 -0.10546,0.1640625 0,0.070312 0.0469,0.1054688 0.0937,0.1054688 0.11718,0 0.91406,-0.7617188 0.91406,-1.93359371 z m 0,0"
         style="fill:#000000;fill-opacity:1;fill-rule:nonzero;stroke:none" />
      <path
         id="path35"
         d="m 227.532,-1.6416328 v 0.86718749 c 0,0.3515625 -0.0234,0.46875 -0.76172,0.46875 h -0.21094 v 0.3046875 c 0.41016,-0.03515625 0.9375,-0.03515625 1.34766,-0.03515625 0.42187,0 0.94922,0 1.35937,0.03515625 v -0.3046875 h -0.21093 c -0.73828,0 -0.76172,-0.1171875 -0.76172,-0.46875 V -1.6416328 h 0.99609 v -0.3164063 h -0.99609 v -4.5234375 c 0,-0.1992187 0,-0.2578125 -0.15235,-0.2578125 -0.0937,0 -0.11718,0 -0.19921,0.1171875 l -3.0586,4.6640625 v 0.3164063 z m 0.0586,-0.3164063 h -2.42578 l 2.42578,-3.7148437 z m 0,0"
         style="fill:#000000;fill-opacity:1;fill-rule:nonzero;stroke:none" />
      <path
         id="path36"
         d="m 231.73903,1.1591484 c 0,0.3984375 -0.25781,1.0429688 -1.34766,1.1132813 -0.0469,0.011719 -0.0937,0.046875 -0.0937,0.1054687 0,0.1171875 0.11719,0.1171875 0.19922,0.1171875 0.97266,0 1.89844,-0.4921875 1.91016,-1.2539062 v -2.2734375 c 0,-0.3867188 0,-0.703125 0.39844,-1.03125 0.33984,-0.2929688 0.72656,-0.3046875 0.9375,-0.3164063 0.0586,-0.011719 0.0937,-0.046875 0.0937,-0.1171875 0,-0.09375 -0.0586,-0.09375 -0.16407,-0.1054687 -0.65625,-0.035156 -1.13671,-0.3984375 -1.24218,-0.890625 -0.0234,-0.1054688 -0.0234,-0.1289063 -0.0234,-0.4804688 v -1.96875 c 0,-0.421875 0,-0.7382812 -0.48047,-1.125 -0.39844,-0.3046875 -1.08984,-0.4101562 -1.42969,-0.4101562 -0.082,0 -0.19922,0 -0.19922,0.1171875 0,0.09375 0.0586,0.09375 0.16407,0.1054687 0.62109,0.046875 1.11328,0.3632813 1.24218,0.8671875 0.0352,0.09375 0.0352,0.1054688 0.0352,0.46875 v 2.0976563 c 0,0.4570312 0.0703,0.6210937 0.39844,0.9375 0.19922,0.2109375 0.49219,0.3164062 0.77344,0.3867187 -0.82032,0.234375 -1.17188,0.6914063 -1.17188,1.265625 z m 0,0"
         style="fill:#000000;fill-opacity:1;fill-rule:nonzero;stroke:none" />
    </g>
  </g>
</svg>
