<?xml version="1.0" encoding="UTF-8" standalone="no"?>
<!-- Created with Inkscape (http://www.inkscape.org/) -->

<svg
   version="1.1"
   id="svg1"
   width="244.18359"
   height="31.441406"
   viewBox="0 0 244.18359 31.441406"
   sodipodi:docname="Formulas.pdf"
   xmlns:inkscape="http://www.inkscape.org/namespaces/inkscape"
   xmlns:sodipodi="http://sodipodi.sourceforge.net/DTD/sodipodi-0.dtd"
   xmlns="http://www.w3.org/2000/svg"
   xmlns:svg="http://www.w3.org/2000/svg">
  <defs
     id="defs1" />
  <sodipodi:namedview
     id="namedview1"
     pagecolor="#ffffff"
     bordercolor="#000000"
     borderopacity="0.25"
     inkscape:showpageshadow="2"
     inkscape:pageopacity="0.0"
     inkscape:pagecheckerboard="0"
     inkscape:deskcolor="#d1d1d1" />
  <g
     id="g1"
     inkscape:groupmode="layer"
     inkscape:label="1"
     transform="translate(-405.98437,-112.60547)">
    <g
       id="g2"
       aria-label="∑&#10;l∈B&#10;∑&#10;(n,j)∈D∪{0}&#10;Z&#10;(m,i)(n,j),l&#10;=1,∀(m,i)∈L"
       transform="matrix(1.3333333,0,0,1.3333333,405.33733,112.604)">
      <path
         id="path2"
         d="m 12.608328,13.946414 1.207031,-3.1875 h -0.246093 c -0.386719,1.03125 -1.453125,1.710938 -2.589844,2.015625 -0.210938,0.04687 -1.1835939,0.304688 -3.1054689,0.304688 h -6 l 5.0625,-5.9414067 c 0.070312,-0.082031 0.09375,-0.1171875 0.09375,-0.1640625 0,-0.023437 0,-0.046875 -0.070312,-0.1523437 L 2.3192656,0.48157031 h 5.4609375 c 1.3359375,0 2.2382809,0.140625 2.3320309,0.15234375 0.539063,0.0820313 1.40625,0.2578125 2.191407,0.75000004 0.246093,0.1640625 0.925781,0.609375 1.265625,1.4179687 h 0.246093 L 12.608328,0.00110156 H 0.83098437 c -0.22265625,0 -0.234375,0.01171875 -0.26953125,0.0703125 0,0.03515625 0,0.22265625 0,0.328125 L 5.8231719,7.6065703 0.66692187,13.653445 c -0.10546875,0.128907 -0.10546875,0.175782 -0.10546875,0.1875 0,0.105469 0.09375,0.105469 0.26953125,0.105469 z m 0,0"
         style="fill:#000000;fill-opacity:1;fill-rule:nonzero;stroke:none" />
      <path
         id="path3"
         d="m 2.0204375,16.820438 c 0,-0.01172 0.023437,-0.105469 0.023437,-0.117188 0,-0.03516 -0.023437,-0.09375 -0.1054688,-0.09375 -0.140625,0 -0.7265625,0.05859 -0.9023437,0.07031 -0.046875,0.01172 -0.140625,0.01172 -0.140625,0.164062 0,0.09375 0.09375,0.09375 0.1757812,0.09375 0.328125,0 0.328125,0.04687 0.328125,0.105469 0,0.04687 -0.011719,0.09375 -0.023437,0.152344 L 0.50871875,20.64075 c -0.0234375,0.07031 -0.0234375,0.140625 -0.0234375,0.210938 0,0.457031 0.3984375,0.667968 0.72656245,0.667968 0.1757813,0 0.375,-0.05859 0.5625,-0.375 0.140625,-0.257812 0.2460938,-0.667968 0.2460938,-0.691406 0,-0.09375 -0.09375,-0.09375 -0.1171875,-0.09375 -0.09375,0 -0.1054688,0.04687 -0.140625,0.164063 -0.082031,0.351562 -0.2226563,0.796875 -0.515625,0.796875 -0.1875,0 -0.234375,-0.175782 -0.234375,-0.339844 0,-0.07031 0.011719,-0.210938 0.035156,-0.28125 z m 0,0"
         style="fill:#000000;fill-opacity:1;fill-rule:nonzero;stroke:none" />
      <path
         id="path4"
         d="m 6.9364531,19.879031 c 0.1171875,0 0.28125,0 0.28125,-0.175781 0,-0.175781 -0.1523437,-0.175781 -0.28125,-0.175781 H 3.7137969 c 0.1054687,-1.007813 0.9492187,-1.757813 2.0390625,-1.757813 h 1.1835937 c 0.1171875,0 0.28125,0 0.28125,-0.164062 0,-0.175781 -0.1523437,-0.175781 -0.28125,-0.175781 h -1.21875 c -1.2890625,0 -2.3554687,1.019531 -2.3554687,2.273437 0,1.277344 1.078125,2.273438 2.3554687,2.273438 h 1.21875 c 0.1171875,0 0.28125,0 0.28125,-0.164063 0,-0.175781 -0.1523437,-0.175781 -0.28125,-0.175781 H 5.7528594 c -1.0898438,0 -1.9335938,-0.75 -2.0390625,-1.757813 z m 0,0"
         style="fill:#000000;fill-opacity:1;fill-rule:nonzero;stroke:none" />
      <path
         id="path5"
         d="m 9.3036406,20.910281 c -0.058594,0.234375 -0.070312,0.292969 -0.609375,0.292969 -0.1171875,0 -0.2109375,0 -0.2109375,0.140625 0,0.105469 0.082031,0.105469 0.2109375,0.105469 h 2.6953124 c 1.171875,0 2.074219,-0.796875 2.074219,-1.488281 0,-0.503907 -0.457031,-0.925782 -1.195313,-0.996094 0.84375,-0.164063 1.546875,-0.691406 1.546875,-1.289063 0,-0.527343 -0.539062,-0.984375 -1.441406,-0.984375 H 9.8309844 c -0.1289063,0 -0.2226563,0 -0.2226563,0.152344 0,0.09375 0.082031,0.09375 0.2226563,0.09375 0.011719,0 0.140625,0 0.2695316,0.01172 0.140625,0.01172 0.164062,0.03516 0.164062,0.105469 0,0.01172 0,0.04687 -0.03516,0.152343 z M 10.416922,18.871219 10.850516,17.172 c 0.04687,-0.210937 0.05859,-0.234375 0.351562,-0.234375 h 1.054688 c 0.714843,0 0.878906,0.46875 0.878906,0.738281 0,0.5625 -0.632813,1.195313 -1.570313,1.195313 z m -0.328125,2.332031 c -0.2226564,0 -0.2226564,-0.01172 -0.2226564,-0.07031 0,-0.01172 0,-0.04687 0.023437,-0.152344 L 10.370046,19.07044 h 1.476562 c 0.65625,0 0.914063,0.433593 0.914063,0.84375 0,0.679687 -0.714843,1.289062 -1.558593,1.289062 z m 0,0"
         style="fill:#000000;fill-opacity:1;fill-rule:nonzero;stroke:none" />
      <path
         id="path6"
         d="m 44.872977,13.946414 1.207031,-3.1875 h -0.246094 c -0.386719,1.03125 -1.453125,1.710938 -2.589844,2.015625 -0.210937,0.04687 -1.183593,0.304688 -3.105468,0.304688 h -6 l 5.0625,-5.9414067 c 0.07031,-0.082031 0.09375,-0.1171875 0.09375,-0.1640625 0,-0.023437 0,-0.046875 -0.07031,-0.1523437 L 34.583914,0.48157031 h 5.460938 c 1.335937,0 2.238281,0.140625 2.332031,0.15234375 0.539062,0.0820313 1.40625,0.2578125 2.191406,0.75000004 0.246094,0.1640625 0.925781,0.609375 1.265625,1.4179687 h 0.246094 L 44.872977,0.00110156 H 33.095633 c -0.222656,0 -0.234375,0.01171875 -0.269531,0.0703125 0,0.03515625 0,0.22265625 0,0.328125 L 38.08782,7.6065703 32.93157,13.653445 c -0.105468,0.128907 -0.105468,0.175782 -0.105468,0.1875 0,0.105469 0.09375,0.105469 0.269531,0.105469 z m 0,0"
         style="fill:#000000;fill-opacity:1;fill-rule:nonzero;stroke:none" />
      <path
         id="path7"
         d="m 18.523367,16.6095 c -1.324219,0.925781 -1.675781,2.414063 -1.675781,3.480469 0,0.984375 0.292969,2.507812 1.675781,3.480469 0.05859,0 0.140625,0 0.140625,-0.08203 0,-0.04687 -0.02344,-0.05859 -0.07031,-0.105468 -0.925782,-0.832032 -1.265625,-2.015625 -1.265625,-3.292969 0,-1.875 0.714843,-2.800781 1.289062,-3.316406 0.02344,-0.02344 0.04687,-0.04687 0.04687,-0.08203 0,-0.08203 -0.08203,-0.08203 -0.140625,-0.08203 z m 0,0"
         style="fill:#000000;fill-opacity:1;fill-rule:nonzero;stroke:none" />
      <path
         id="path8"
         d="m 20.020437,21.402469 c -0.03516,0.08203 -0.07031,0.257812 -0.07031,0.28125 0,0.152344 0.117187,0.222656 0.234375,0.222656 0.128906,0 0.234375,-0.09375 0.269531,-0.152344 0.03516,-0.05859 0.09375,-0.292968 0.128906,-0.433593 0.03516,-0.128907 0.105469,-0.457032 0.152344,-0.632813 0.03516,-0.152344 0.08203,-0.304687 0.117188,-0.457031 0.08203,-0.292969 0.09375,-0.351563 0.292968,-0.632813 0.199219,-0.28125 0.527344,-0.644531 1.042969,-0.644531 0.410156,0 0.410156,0.363281 0.410156,0.492188 0,0.421875 -0.292968,1.195312 -0.410156,1.488281 -0.07031,0.1875 -0.105469,0.257812 -0.105469,0.375 0,0.363281 0.304688,0.597656 0.667969,0.597656 0.691406,0 1.007813,-0.960937 1.007813,-1.066406 0,-0.09375 -0.09375,-0.09375 -0.117188,-0.09375 -0.09375,0 -0.105469,0.04687 -0.128906,0.117187 -0.164063,0.5625 -0.46875,0.84375 -0.738281,0.84375 -0.152344,0 -0.175782,-0.09375 -0.175782,-0.246093 0,-0.152344 0.03516,-0.246094 0.152344,-0.5625 0.09375,-0.210938 0.375,-0.949219 0.375,-1.347657 0,-0.667968 -0.539062,-0.785156 -0.902344,-0.785156 -0.585937,0 -0.972656,0.351563 -1.183593,0.632813 -0.04687,-0.480469 -0.457032,-0.632813 -0.75,-0.632813 -0.292969,0 -0.457032,0.210938 -0.550782,0.375 -0.152343,0.257813 -0.246093,0.65625 -0.246093,0.691406 0,0.08203 0.09375,0.08203 0.117187,0.08203 0.09375,0 0.105469,-0.01172 0.152344,-0.199219 0.105469,-0.421875 0.234375,-0.761719 0.515625,-0.761719 0.175781,0 0.222656,0.152344 0.222656,0.339844 0,0.140625 -0.05859,0.398437 -0.105469,0.585937 -0.04687,0.1875 -0.117187,0.46875 -0.152343,0.621094 z m 5.545899,0.316406 c 0,0.386719 -0.07031,0.832031 -0.550781,1.277344 -0.02344,0.03516 -0.04687,0.05859 -0.04687,0.09375 0,0.04687 0.05859,0.09375 0.09375,0.09375 0.105468,0 0.691406,-0.5625 0.691406,-1.394531 0,-0.421875 -0.164063,-0.75 -0.480469,-0.75 -0.234375,0 -0.398437,0.175781 -0.398437,0.386718 0,0.234375 0.152343,0.410157 0.398437,0.410157 0.164063,0 0.28125,-0.117188 0.292969,-0.117188 z m 3.946289,-4.242187 c 0,-0.117188 -0.09375,-0.257813 -0.28125,-0.257813 -0.199219,0 -0.386719,0.1875 -0.386719,0.375 0,0.117188 0.08203,0.269531 0.28125,0.269531 0.1875,0 0.386719,-0.1875 0.386719,-0.386718 z m -1.476563,4.699218 c -0.117187,0.480469 -0.492187,0.890625 -0.902343,0.890625 -0.08203,0 -0.175782,-0.01172 -0.246094,-0.04687 0.175781,-0.08203 0.234375,-0.246093 0.234375,-0.351562 0,-0.164063 -0.128906,-0.257813 -0.269531,-0.257813 -0.222657,0 -0.398438,0.1875 -0.398438,0.410157 0,0.269531 0.269531,0.433593 0.691406,0.433593 0.421875,0 1.230469,-0.246093 1.453125,-1.101562 l 0.621094,-2.496094 c 0.02344,-0.07031 0.03516,-0.140625 0.03516,-0.234375 0,-0.386719 -0.328125,-0.65625 -0.738281,-0.65625 -0.785156,0 -1.230469,0.960938 -1.230469,1.066406 0,0.08203 0.105469,0.08203 0.128907,0.08203 0.08203,0 0.08203,-0.01172 0.128906,-0.117188 0.175781,-0.410156 0.539062,-0.84375 0.949219,-0.84375 0.175781,0 0.234375,0.117188 0.234375,0.339844 0,0.08203 -0.01172,0.175781 -0.02344,0.210937 z m 0,0"
         style="fill:#000000;fill-opacity:1;fill-rule:nonzero;stroke:none" />
      <path
         id="path9"
         d="m 30.787039,16.6095 c -0.05859,0 -0.140625,0 -0.140625,0.08203 0,0.03516 0.02344,0.05859 0.07031,0.105469 0.597656,0.550781 1.265625,1.488281 1.265625,3.292969 0,1.453125 -0.457032,2.554687 -1.207032,3.234375 -0.117187,0.117187 -0.128906,0.128906 -0.128906,0.164062 0,0.03516 0.02344,0.08203 0.09375,0.08203 0.08203,0 0.75,-0.457032 1.207031,-1.324219 0.304688,-0.585938 0.503907,-1.335938 0.503907,-2.15625 0,-0.984375 -0.292969,-2.507813 -1.664063,-3.480469 z m 0,0"
         style="fill:#000000;fill-opacity:1;fill-rule:nonzero;stroke:none" />
      <path
         id="path10"
         d="m 37.592703,20.26575 c 0.117188,0 0.28125,0 0.28125,-0.175781 0,-0.175781 -0.152344,-0.175781 -0.28125,-0.175781 h -3.222656 c 0.105469,-1.007813 0.949219,-1.757813 2.039062,-1.757813 h 1.183594 c 0.117188,0 0.28125,0 0.28125,-0.164062 0,-0.175782 -0.152344,-0.175782 -0.28125,-0.175782 h -1.21875 c -1.289062,0 -2.355469,1.019532 -2.355469,2.273438 0,1.277344 1.078125,2.273437 2.355469,2.273437 h 1.21875 c 0.117188,0 0.28125,0 0.28125,-0.164062 0,-0.175781 -0.152344,-0.175781 -0.28125,-0.175781 h -1.183594 c -1.089843,0 -1.933593,-0.75 -2.039062,-1.757813 z m 0,0"
         style="fill:#000000;fill-opacity:1;fill-rule:nonzero;stroke:none" />
      <path
         id="path11"
         d="m 39.948172,21.297 c -0.04687,0.234375 -0.05859,0.292969 -0.609375,0.292969 -0.128906,0 -0.210938,0 -0.210938,0.152344 0,0.09375 0.08203,0.09375 0.210938,0.09375 h 2.496094 c 1.546875,0 3.023437,-1.417969 3.023437,-2.941407 0,-1.019531 -0.703125,-1.816406 -1.839844,-1.816406 h -2.53125 c -0.140625,0 -0.222656,0 -0.222656,0.152344 0,0.09375 0.07031,0.09375 0.222656,0.09375 0.117188,0 0.140625,0 0.269532,0.01172 0.140625,0.01172 0.152343,0.03516 0.152343,0.105468 0,0.01172 0,0.04687 -0.02344,0.152344 z m 1.570312,-3.738281 c 0.04687,-0.210938 0.05859,-0.234375 0.351563,-0.234375 h 0.890625 c 0.785156,0 1.441406,0.386719 1.441406,1.335937 0,0.164063 -0.07031,1.371094 -0.773437,2.167969 -0.269532,0.304688 -0.867188,0.761719 -1.722657,0.761719 h -0.949218 c -0.222657,0 -0.222657,-0.01172 -0.222657,-0.07031 0,-0.01172 0,-0.04687 0.02344,-0.152343 z m 0,0"
         style="fill:#000000;fill-opacity:1;fill-rule:nonzero;stroke:none" />
      <path
         id="path12"
         d="m 50.193289,17.922 c 0,-0.105469 0,-0.28125 -0.175781,-0.28125 -0.164063,0 -0.164063,0.164063 -0.164063,0.28125 v 2.496094 c 0,0.1875 0,0.609375 -0.585937,0.9375 -0.433594,0.234375 -0.9375,0.28125 -1.21875,0.28125 -0.621094,0 -1.054688,-0.1875 -1.230469,-0.292969 C 46.326102,21.050906 46.24407,20.746219 46.24407,20.418094 V 17.922 c 0,-0.105469 0,-0.28125 -0.164062,-0.28125 -0.175781,0 -0.175781,0.164063 -0.175781,0.28125 v 2.507813 c 0,1.160156 1.242187,1.546875 2.132812,1.546875 0.902344,0 2.15625,-0.375 2.15625,-1.546875 z m 2.844727,-0.316406 c 0,-0.128906 0,-0.339844 0.210937,-0.539063 0.210938,-0.175781 0.480469,-0.246093 0.75,-0.269531 0.09375,0 0.152344,0 0.152344,-0.09375 0,-0.09375 -0.07031,-0.09375 -0.175781,-0.09375 -0.75,0 -1.476563,0.316406 -1.476563,0.878906 v 1.640625 c 0,0.175782 0,0.398438 -0.234375,0.597657 -0.164062,0.140625 -0.386719,0.246093 -0.738281,0.269531 -0.08203,0.01172 -0.140625,0.01172 -0.140625,0.09375 0,0.09375 0.05859,0.09375 0.117187,0.105469 0.832032,0.04687 0.984375,0.527343 0.996094,0.726562 v 1.640625 c 0,0.1875 0,0.503906 0.363281,0.738281 0.386719,0.246094 0.9375,0.28125 1.113282,0.28125 0.105468,0 0.175781,0 0.175781,-0.105468 0,-0.08203 -0.07031,-0.09375 -0.128906,-0.09375 -0.644532,-0.03516 -0.914063,-0.351563 -0.972657,-0.609375 -0.01172,-0.07031 -0.01172,-0.117188 -0.01172,-0.210938 v -1.464844 c 0,-0.199218 0,-0.457031 -0.1875,-0.644531 -0.09375,-0.09375 -0.257813,-0.257812 -0.644532,-0.363281 0.28125,-0.07031 0.75,-0.257813 0.820313,-0.738281 0.01172,-0.03516 0.01172,-0.05859 0.01172,-0.28125 z m 0,0"
         style="fill:#000000;fill-opacity:1;fill-rule:nonzero;stroke:none" />
      <path
         id="path13"
         d="m 58.413992,19.6095 c 0,-0.761719 -0.09375,-1.3125 -0.410156,-1.804687 -0.222656,-0.316407 -0.644531,-0.597657 -1.207031,-0.597657 -1.617188,0 -1.617188,1.898438 -1.617188,2.402344 0,0.503906 0,2.367188 1.617188,2.367188 1.617187,0 1.617187,-1.863282 1.617187,-2.367188 z m -1.617187,2.167969 c -0.316407,0 -0.75,-0.1875 -0.890625,-0.761719 -0.09375,-0.410156 -0.09375,-0.984375 -0.09375,-1.5 0,-0.503906 0,-1.03125 0.105468,-1.417969 0.152344,-0.550781 0.597657,-0.691406 0.878907,-0.691406 0.375,0 0.738281,0.222656 0.867187,0.632813 0.105469,0.375 0.117188,0.878906 0.117188,1.476562 0,0.515625 0,1.042969 -0.09375,1.476563 -0.140625,0.632812 -0.609375,0.785156 -0.890625,0.785156 z m 0,0"
         style="fill:#000000;fill-opacity:1;fill-rule:nonzero;stroke:none" />
      <path
         id="path14"
         d="m 61.097586,21.062625 c 0,-0.1875 0,-0.410156 0.234375,-0.609375 0.164062,-0.128906 0.386719,-0.246094 0.738281,-0.257812 0.08203,-0.01172 0.140625,-0.01172 0.140625,-0.105469 0,-0.08203 -0.07031,-0.08203 -0.128906,-0.09375 -0.820313,-0.05859 -0.972656,-0.539063 -0.984375,-0.738281 v -1.628907 c 0,-0.1875 0,-0.503906 -0.375,-0.738281 -0.386719,-0.257812 -0.925781,-0.28125 -1.101563,-0.28125 -0.105468,0 -0.175781,0 -0.175781,0.09375 0,0.09375 0.05859,0.09375 0.117188,0.09375 0.65625,0.03516 0.925781,0.351563 0.972656,0.609375 0.02344,0.07031 0.02344,0.117188 0.02344,0.222656 v 1.464844 c 0,0.199219 0,0.445313 0.175782,0.632813 0.09375,0.09375 0.257812,0.257812 0.644531,0.363281 -0.269531,0.08203 -0.738281,0.269531 -0.820313,0.738281 0,0.04687 0,0.05859 0,0.28125 v 1.464844 c 0,0.140625 0,0.351562 -0.222656,0.539062 -0.210937,0.1875 -0.46875,0.246094 -0.75,0.269532 -0.09375,0.01172 -0.140625,0.01172 -0.140625,0.09375 0,0.105468 0.07031,0.105468 0.175781,0.105468 0.738282,0 1.464844,-0.316406 1.476563,-0.878906 z m 0,0"
         style="fill:#000000;fill-opacity:1;fill-rule:nonzero;stroke:none" />
      <path
         id="path15"
         d="m 71.703055,2.9014922 c 0.01172,-0.046875 0.03516,-0.09375 0.03516,-0.1523438 0,-0.09375 -0.05859,-0.09375 -0.257813,-0.09375 H 67.28509 c -0.246094,0 -0.257813,0.011719 -0.316406,0.1992188 l -0.539063,1.7929687 c -0.02344,0.058594 -0.03516,0.1289063 -0.03516,0.140625 0,0.011719 0,0.1171875 0.117187,0.1171875 0.09375,0 0.117188,-0.070312 0.128907,-0.1054687 0.386718,-1.171875 0.902343,-1.828125 2.449218,-1.828125 h 1.628907 l -5.566407,6.2226562 c 0,0.011719 -0.04687,0.1523438 -0.04687,0.1757813 0,0.09375 0.07031,0.09375 0.257813,0.09375 h 4.324219 c 0.246093,0 0.257812,-0.011719 0.316406,-0.1992188 l 0.703125,-2.203125 c 0.01172,-0.035156 0.03516,-0.1054687 0.03516,-0.1523437 0,-0.046875 -0.03516,-0.1054688 -0.128906,-0.1054688 -0.08203,0 -0.09375,0.035156 -0.164063,0.2460938 -0.433593,1.359375 -0.914062,2.0742187 -2.613281,2.0742187 h -1.699219 z m 0,0"
         style="fill:#000000;fill-opacity:1;fill-rule:nonzero;stroke:none" />
      <path
         id="path16"
         d="m 73.803641,6.0362578 c -1.324219,0.9257813 -1.675782,2.4140625 -1.675782,3.4804688 0,0.9843754 0.292969,2.5078124 1.675782,3.4804684 0.05859,0 0.140625,0 0.140625,-0.08203 0,-0.04687 -0.02344,-0.05859 -0.07031,-0.105469 -0.925781,-0.832031 -1.265625,-2.015625 -1.265625,-3.2929684 0,-1.875 0.714844,-2.8007813 1.289063,-3.3164063 0.02344,-0.023437 0.04687,-0.046875 0.04687,-0.082031 0,-0.082031 -0.08203,-0.082031 -0.140625,-0.082031 z m 0,0"
         style="fill:#000000;fill-opacity:1;fill-rule:nonzero;stroke:none" />
      <path
         id="path17"
         d="m 77.46868,10.70032 c -0.03516,0.140625 -0.09375,0.375 -0.09375,0.410157 0,0.152343 0.128906,0.222656 0.234375,0.222656 0.128906,0 0.234375,-0.09375 0.269531,-0.152344 0.03516,-0.05859 0.09375,-0.292969 0.128906,-0.433594 0.03516,-0.128906 0.117188,-0.457031 0.152344,-0.632812 0.04687,-0.1523439 0.08203,-0.3046877 0.117187,-0.4570314 0.08203,-0.3046875 0.08203,-0.3164063 0.222657,-0.5390625 0.222656,-0.3398438 0.5625,-0.7382813 1.113281,-0.7382813 0.386719,0 0.410156,0.328125 0.410156,0.4921875 0,0.421875 -0.304687,1.1953127 -0.410156,1.4882817 -0.08203,0.1875 -0.105469,0.257812 -0.105469,0.375 0,0.363281 0.304688,0.597656 0.65625,0.597656 0.703125,0 1.007813,-0.960938 1.007813,-1.066406 0,-0.09375 -0.09375,-0.09375 -0.105469,-0.09375 -0.105469,0 -0.105469,0.04687 -0.140625,0.117187 -0.152344,0.5625 -0.457031,0.84375 -0.738281,0.84375 -0.140625,0 -0.175782,-0.09375 -0.175782,-0.246094 0,-0.152343 0.03516,-0.246093 0.164063,-0.5625 0.08203,-0.210937 0.375,-0.9492184 0.375,-1.3476559 0,-0.1054688 0,-0.3984375 -0.257813,-0.5976563 -0.128906,-0.09375 -0.328125,-0.1875 -0.65625,-0.1875 -0.621093,0 -1.007812,0.4101563 -1.230468,0.703125 -0.05859,-0.5976562 -0.550782,-0.703125 -0.902344,-0.703125 -0.585938,0 -0.972656,0.3515625 -1.183594,0.6328125 -0.04687,-0.4804687 -0.457031,-0.6328125 -0.75,-0.6328125 -0.292969,0 -0.457031,0.2109375 -0.550781,0.375 -0.152344,0.2578125 -0.246094,0.65625 -0.246094,0.6914063 0,0.082031 0.09375,0.082031 0.117188,0.082031 0.09375,0 0.105468,-0.011719 0.152343,-0.1992187 0.105469,-0.421875 0.234375,-0.7617188 0.515625,-0.7617188 0.175782,0 0.222657,0.1523438 0.222657,0.3398438 0,0.140625 -0.05859,0.3984375 -0.105469,0.5859375 -0.04687,0.1875 -0.117188,0.46875 -0.152344,0.6210937 l -0.222656,0.9023444 c -0.03516,0.08203 -0.07031,0.257812 -0.07031,0.28125 0,0.152343 0.117188,0.222656 0.234375,0.222656 0.128907,0 0.234375,-0.09375 0.269532,-0.152344 0.03516,-0.05859 0.09375,-0.292969 0.128906,-0.433594 0.03516,-0.128906 0.105469,-0.457031 0.152344,-0.632812 0.03516,-0.1523441 0.08203,-0.3046879 0.117187,-0.4570316 0.08203,-0.2929688 0.09375,-0.3515625 0.292969,-0.6328125 0.199219,-0.28125 0.527344,-0.6445313 1.042969,-0.6445313 0.410156,0 0.410156,0.3632813 0.410156,0.4921875 0,0.1757813 -0.01172,0.2695313 -0.117188,0.65625 z m 5.516601,0.445313 c 0,0.386719 -0.07031,0.832031 -0.550781,1.277344 -0.02344,0.03516 -0.04687,0.05859 -0.04687,0.09375 0,0.04687 0.05859,0.09375 0.09375,0.09375 0.105469,0 0.691406,-0.5625 0.691406,-1.394532 0,-0.421875 -0.164062,-0.75 -0.480469,-0.75 -0.234375,0 -0.398437,0.175782 -0.398437,0.386719 0,0.234375 0.152344,0.410156 0.398437,0.410156 0.164063,0 0.28125,-0.117187 0.292969,-0.117187 z m 3.149414,-4.2421877 c 0,-0.1054687 -0.08203,-0.2578125 -0.28125,-0.2578125 -0.1875,0 -0.386718,0.1757813 -0.386718,0.375 0,0.1171875 0.08203,0.2695313 0.269531,0.2695313 0.210937,0 0.398437,-0.1992188 0.398437,-0.3867188 z m -1.429687,3.5390627 c -0.02344,0.09375 -0.05859,0.175781 -0.05859,0.292969 0,0.328125 0.28125,0.597656 0.667969,0.597656 0.691406,0 0.996094,-0.960938 0.996094,-1.066406 0,-0.09375 -0.08203,-0.09375 -0.105469,-0.09375 -0.105469,0 -0.105469,0.04687 -0.140625,0.117187 -0.152344,0.5625 -0.457031,0.84375 -0.738281,0.84375 -0.140625,0 -0.175782,-0.08203 -0.175782,-0.246094 0,-0.152343 0.05859,-0.292968 0.117188,-0.445312 0.07031,-0.1875 0.140625,-0.375 0.222656,-0.5507814 0.05859,-0.1640625 0.316406,-0.8085938 0.339844,-0.890625 0.02344,-0.070312 0.04687,-0.1523438 0.04687,-0.2226563 0,-0.328125 -0.28125,-0.5859375 -0.667969,-0.5859375 -0.691406,0 -1.007812,0.9492188 -1.007812,1.0664063 0,0.082031 0.09375,0.082031 0.117187,0.082031 0.09375,0 0.105469,-0.035156 0.128906,-0.1054687 0.175782,-0.5976563 0.480469,-0.8554688 0.738282,-0.8554688 0.117187,0 0.175781,0.058594 0.175781,0.2460938 0,0.1640625 -0.03516,0.2695312 -0.210938,0.703125 z m 0,0"
         style="fill:#000000;fill-opacity:1;fill-rule:nonzero;stroke:none" />
      <path
         id="path18"
         d="m 87.332937,6.0362578 c -0.05859,0 -0.140625,0 -0.140625,0.082031 0,0.035156 0.02344,0.058594 0.07031,0.1054687 0.597656,0.5507813 1.265625,1.4882813 1.265625,3.2929688 0,1.4531257 -0.457031,2.5546877 -1.207031,3.2343757 -0.117188,0.117187 -0.128907,0.128906 -0.128907,0.164062 0,0.03516 0.02344,0.08203 0.09375,0.08203 0.08203,0 0.75,-0.457031 1.207032,-1.324218 0.304687,-0.585938 0.503906,-1.335938 0.503906,-2.1562507 0,-0.984375 -0.292969,-2.5078125 -1.664063,-3.4804688 z m 4.948243,0 c -1.324219,0.9257813 -1.675782,2.4140625 -1.675782,3.4804688 0,0.9843754 0.292969,2.5078124 1.675782,3.4804684 0.05859,0 0.140625,0 0.140625,-0.08203 0,-0.04687 -0.02344,-0.05859 -0.07031,-0.105469 -0.925781,-0.832031 -1.265625,-2.015625 -1.265625,-3.2929684 0,-1.875 0.714844,-2.8007813 1.289063,-3.3164063 0.02344,-0.023437 0.04687,-0.046875 0.04687,-0.082031 0,-0.082031 -0.08203,-0.082031 -0.140625,-0.082031 z m 0,0"
         style="fill:#000000;fill-opacity:1;fill-rule:nonzero;stroke:none" />
      <path
         id="path19"
         d="m 93.78118,10.829227 c -0.03516,0.08203 -0.07031,0.257812 -0.07031,0.28125 0,0.152343 0.117188,0.222656 0.234375,0.222656 0.128906,0 0.234375,-0.09375 0.269531,-0.152344 0.03516,-0.05859 0.09375,-0.292969 0.128907,-0.433594 0.03516,-0.128906 0.105468,-0.457031 0.152343,-0.632812 0.03516,-0.1523439 0.08203,-0.3046877 0.117188,-0.4570314 0.08203,-0.2929688 0.09375,-0.3515625 0.292969,-0.6328125 0.199218,-0.28125 0.527343,-0.6445313 1.042968,-0.6445313 0.410157,0 0.410157,0.3632813 0.410157,0.4921875 0,0.421875 -0.292969,1.1953127 -0.410157,1.4882817 -0.07031,0.1875 -0.105468,0.257812 -0.105468,0.375 0,0.363281 0.304687,0.597656 0.667968,0.597656 0.691407,0 1.007813,-0.960938 1.007813,-1.066406 0,-0.09375 -0.09375,-0.09375 -0.117188,-0.09375 -0.09375,0 -0.105468,0.04687 -0.128906,0.117187 -0.164062,0.5625 -0.46875,0.84375 -0.738281,0.84375 -0.152344,0 -0.175781,-0.09375 -0.175781,-0.246094 0,-0.152343 0.03516,-0.246093 0.152343,-0.5625 0.09375,-0.210937 0.375,-0.9492184 0.375,-1.3476559 0,-0.6679688 -0.539062,-0.7851563 -0.902343,-0.7851563 -0.585938,0 -0.972657,0.3515625 -1.183594,0.6328125 -0.04687,-0.4804687 -0.457031,-0.6328125 -0.75,-0.6328125 -0.292969,0 -0.457031,0.2109375 -0.550781,0.375 -0.152344,0.2578125 -0.246094,0.65625 -0.246094,0.6914063 0,0.082031 0.09375,0.082031 0.117187,0.082031 0.09375,0 0.105469,-0.011719 0.152344,-0.1992187 0.105469,-0.421875 0.234375,-0.7617188 0.515625,-0.7617188 0.175781,0 0.222656,0.1523438 0.222656,0.3398438 0,0.140625 -0.05859,0.3984375 -0.105468,0.5859375 -0.04687,0.1875 -0.117188,0.46875 -0.152344,0.6210937 z m 5.545898,0.316406 c 0,0.386719 -0.07031,0.832031 -0.550781,1.277344 -0.02344,0.03516 -0.04687,0.05859 -0.04687,0.09375 0,0.04687 0.05859,0.09375 0.09375,0.09375 0.105469,0 0.691406,-0.5625 0.691406,-1.394532 0,-0.421875 -0.164062,-0.75 -0.480469,-0.75 -0.234375,0 -0.398437,0.175782 -0.398437,0.386719 0,0.234375 0.152344,0.410156 0.398437,0.410156 0.164063,0 0.28125,-0.117187 0.292969,-0.117187 z m 3.946292,-4.2421877 c 0,-0.1171875 -0.0937,-0.2578125 -0.28125,-0.2578125 -0.19922,0 -0.38672,0.1875 -0.38672,0.375 0,0.1171875 0.082,0.2695313 0.28125,0.2695313 0.1875,0 0.38672,-0.1875 0.38672,-0.3867188 z m -1.47657,4.6992187 c -0.11718,0.480469 -0.49218,0.890625 -0.90234,0.890625 -0.082,0 -0.17578,-0.01172 -0.24609,-0.04687 0.17578,-0.08203 0.23437,-0.246094 0.23437,-0.351562 0,-0.164063 -0.1289,-0.257813 -0.26953,-0.257813 -0.22266,0 -0.39844,0.1875 -0.39844,0.410156 0,0.269532 0.26953,0.433594 0.69141,0.433594 0.42187,0 1.23047,-0.246094 1.45312,-1.101562 l 0.6211,-2.4960942 c 0.0234,-0.070312 0.0352,-0.140625 0.0352,-0.234375 0,-0.3867187 -0.32812,-0.65625 -0.73828,-0.65625 -0.78515,0 -1.23047,0.9609375 -1.23047,1.0664063 0,0.082031 0.10547,0.082031 0.12891,0.082031 0.082,0 0.082,-0.011719 0.12891,-0.1171875 0.17578,-0.4101562 0.53906,-0.84375 0.94922,-0.84375 0.17578,0 0.23437,0.1171875 0.23437,0.3398438 0,0.082031 -0.0117,0.1757812 -0.0234,0.2109375 z m 0,0"
         style="fill:#000000;fill-opacity:1;fill-rule:nonzero;stroke:none" />
      <path
         id="path20"
         d="m 104.54778,6.0362578 c -0.0586,0 -0.14062,0 -0.14062,0.082031 0,0.035156 0.0234,0.058594 0.0703,0.1054687 0.59765,0.5507813 1.26562,1.4882813 1.26562,3.2929688 0,1.4531257 -0.45703,2.5546877 -1.20703,3.2343757 -0.11719,0.117187 -0.1289,0.128906 -0.1289,0.164062 0,0.03516 0.0234,0.08203 0.0937,0.08203 0.082,0 0.75,-0.457031 1.20703,-1.324218 0.30468,-0.585938 0.5039,-1.335938 0.5039,-2.1562507 0,-0.984375 -0.29297,-2.5078125 -1.66406,-3.4804688 z m 0,0"
         style="fill:#000000;fill-opacity:1;fill-rule:nonzero;stroke:none" />
      <path
         id="path21"
         d="m 108.50579,11.145633 c 0,0.386719 -0.0703,0.832031 -0.55078,1.277344 -0.0234,0.03516 -0.0469,0.05859 -0.0469,0.09375 0,0.04687 0.0586,0.09375 0.0937,0.09375 0.10547,0 0.69141,-0.5625 0.69141,-1.394532 0,-0.421875 -0.16406,-0.75 -0.48047,-0.75 -0.23437,0 -0.39844,0.175782 -0.39844,0.386719 0,0.234375 0.15235,0.410156 0.39844,0.410156 0.16406,0 0.28125,-0.117187 0.29297,-0.117187 z m 2.85644,-4.5117189 c 0,-0.011719 0.0234,-0.1054688 0.0234,-0.1171875 0,-0.035156 -0.0234,-0.09375 -0.10547,-0.09375 -0.14062,0 -0.72656,0.058594 -0.90234,0.070312 -0.0469,0.011719 -0.14063,0.011719 -0.14063,0.1640625 0,0.09375 0.0937,0.09375 0.17579,0.09375 0.32812,0 0.32812,0.046875 0.32812,0.1054687 0,0.046875 -0.0117,0.09375 -0.0234,0.1523438 l -0.86718,3.4453134 c -0.0234,0.07031 -0.0234,0.140625 -0.0234,0.210937 0,0.457031 0.39844,0.667969 0.72656,0.667969 0.17578,0 0.375,-0.05859 0.5625,-0.375 0.14063,-0.257814 0.24609,-0.667969 0.24609,-0.691407 0,-0.09375 -0.0937,-0.09375 -0.11718,-0.09375 -0.0937,0 -0.10547,0.04687 -0.14063,0.164062 -0.082,0.351563 -0.22265,0.796875 -0.51562,0.796875 -0.1875,0 -0.23438,-0.175781 -0.23438,-0.339844 0,-0.07031 0.0117,-0.210936 0.0352,-0.28125 z m 0,0"
         style="fill:#000000;fill-opacity:1;fill-rule:nonzero;stroke:none" />
      <path
         id="path22"
         d="m 122.06438,6.2061797 c 0.15235,0 0.33985,0 0.33985,-0.1992188 0,-0.1992187 -0.1875,-0.1992187 -0.32813,-0.1992187 h -5.96484 c -0.14063,0 -0.32813,0 -0.32813,0.1992187 0,0.1992188 0.1875,0.1992188 0.33985,0.1992188 z m 0.0117,1.9335937 c 0.14063,0 0.32813,0 0.32813,-0.1992187 0,-0.1992188 -0.1875,-0.1992188 -0.33985,-0.1992188 h -5.9414 c -0.15235,0 -0.33985,0 -0.33985,0.1992188 0,0.1992187 0.1875,0.1992187 0.32813,0.1992187 z m 6.57422,-5.0507812 c 0,-0.234375 0,-0.2578125 -0.23437,-0.2578125 -0.60938,0.6328125 -1.48829,0.6328125 -1.80469,0.6328125 v 0.3164062 c 0.19922,0 0.78515,0 1.30078,-0.2578125 v 5.15625 c 0,0.3515625 -0.0352,0.4804688 -0.92578,0.4804688 h -0.31641 v 0.3046875 c 0.35156,-0.035156 1.20703,-0.035156 1.60547,-0.035156 0.39844,0 1.26563,0 1.61719,0.035156 V 9.1593047 h -0.31641 c -0.90234,0 -0.92578,-0.1171875 -0.92578,-0.4804688 z m 0,0"
         style="fill:#000000;fill-opacity:1;fill-rule:nonzero;stroke:none" />
      <path
         id="path23"
         d="m 132.74602,9.4522734 c 0,-0.65625 -0.25781,-1.0429687 -0.64453,-1.0429687 -0.32812,0 -0.52734,0.2460937 -0.52734,0.5273437 0,0.2695313 0.19922,0.5273438 0.52734,0.5273438 0.11719,0 0.2461,-0.035156 0.35156,-0.1289063 0.0234,-0.023437 0.0352,-0.035156 0.0469,-0.035156 0.0117,0 0.0234,0.011719 0.0234,0.1523437 0,0.7382814 -0.35157,1.3359374 -0.67969,1.6640624 -0.10547,0.105469 -0.10547,0.128906 -0.10547,0.164062 0,0.07031 0.0469,0.105469 0.0937,0.105469 0.11719,0 0.91406,-0.761719 0.91406,-1.9335934 z m 0,0"
         style="fill:#000000;fill-opacity:1;fill-rule:nonzero;stroke:none" />
      <path
         id="path24"
         d="m 140.62981,2.9249297 c 0.0586,-0.1054688 0.0586,-0.1289063 0.0586,-0.1757813 0,-0.09375 -0.082,-0.1992187 -0.19922,-0.1992187 -0.12891,0 -0.19922,0.1171875 -0.23438,0.234375 l -0.82031,2.1914062 h -3.03516 l -0.82031,-2.1914062 c -0.0586,-0.140625 -0.10547,-0.234375 -0.23437,-0.234375 -0.0937,0 -0.19922,0.1054687 -0.19922,0.1992187 0,0.023437 0,0.035156 0.0586,0.1757813 l 2.48438,6.5273437 c 0.0469,0.140625 0.0937,0.234375 0.22265,0.234375 0.14063,0 0.1875,-0.1171875 0.22266,-0.2109375 z m -4.0664,2.4492187 h 2.70703 l -1.35938,3.5390625 z m 0,0"
         style="fill:#000000;fill-opacity:1;fill-rule:nonzero;stroke:none" />
      <path
         id="path25"
         d="m 143.97259,11.854617 c 0,-0.03516 0,-0.04687 -0.16407,-0.222656 -1.24218,-1.253906 -1.57031,-3.1289063 -1.57031,-4.6640626 0,-1.7226562 0.38672,-3.4570312 1.60547,-4.7109375 0.12891,-0.1171875 0.12891,-0.1289062 0.12891,-0.1640625 0,-0.070312 -0.0352,-0.1054687 -0.0937,-0.1054687 -0.10547,0 -0.9961,0.6796875 -1.58204,1.9453125 -0.51562,1.1015625 -0.63281,2.203125 -0.63281,3.0351562 0,0.7851563 0.11719,1.9921875 0.65625,3.1171876 0.59766,1.21875 1.45313,1.875 1.5586,1.875 0.0586,0 0.0937,-0.03516 0.0937,-0.105469 z m 0,0"
         style="fill:#000000;fill-opacity:1;fill-rule:nonzero;stroke:none" />
      <path
         id="path26"
         d="m 145.4345,8.8780547 c -0.0352,0.1523437 -0.0937,0.375 -0.0937,0.421875 0,0.1875 0.14062,0.2695312 0.29297,0.2695312 0.11719,0 0.29297,-0.070312 0.36328,-0.2695312 0.0117,-0.023437 0.12891,-0.4921875 0.1875,-0.7382813 l 0.22266,-0.9023437 c 0.0586,-0.2226563 0.11718,-0.4335938 0.17578,-0.6679688 0.0351,-0.1640625 0.11718,-0.4570312 0.1289,-0.4921875 0.14063,-0.3164062 0.66797,-1.21875 1.61719,-1.21875 0.44531,0 0.53906,0.3632813 0.53906,0.6914063 0,0.2578125 -0.0703,0.5390625 -0.15234,0.8320312 l -0.26953,1.1601563 -0.19922,0.75 c -0.0469,0.1992187 -0.14063,0.5390625 -0.14063,0.5859375 0,0.1875 0.14063,0.2695312 0.29297,0.2695312 0.30469,0 0.375,-0.2460937 0.44532,-0.5625 0.14062,-0.5625 0.51562,-2.015625 0.59765,-2.4023437 0.0352,-0.1289063 0.5625,-1.3242188 1.65235,-1.3242188 0.42187,0 0.53906,0.3398438 0.53906,0.6914063 0,0.5742187 -0.42188,1.7109375 -0.6211,2.2382812 -0.0937,0.234375 -0.1289,0.3515625 -0.1289,0.5507813 0,0.46875 0.35156,0.8085937 0.80859,0.8085937 0.9375,0 1.3125,-1.453125 1.3125,-1.5351562 0,-0.09375 -0.0937,-0.09375 -0.11719,-0.09375 -0.10546,0 -0.10546,0.023437 -0.15234,0.1757812 -0.15234,0.5273438 -0.46875,1.2421875 -1.01953,1.2421875 -0.16406,0 -0.23438,-0.1054687 -0.23438,-0.328125 0,-0.2578125 0.082,-0.4921875 0.17579,-0.7148437 0.1875,-0.515625 0.60937,-1.6171875 0.60937,-2.1914063 0,-0.6445312 -0.39844,-1.0664062 -1.14844,-1.0664062 -0.75,0 -1.2539,0.4453125 -1.61718,0.9726562 -0.0117,-0.1289062 -0.0469,-0.46875 -0.32813,-0.7148437 -0.24609,-0.1992188 -0.5625,-0.2578125 -0.80859,-0.2578125 -0.90235,0 -1.38282,0.6445312 -1.5586,0.8671875 -0.0469,-0.5625 -0.46875,-0.8671875 -0.91406,-0.8671875 -0.45703,0 -0.64453,0.3867187 -0.73828,0.5742187 -0.17578,0.3398438 -0.30469,0.9375 -0.30469,0.9609375 0,0.1054688 0.0937,0.1054688 0.11719,0.1054688 0.0937,0 0.10547,-0.011719 0.16406,-0.234375 0.17578,-0.703125 0.375,-1.1835938 0.72656,-1.1835938 0.16407,0 0.31641,0.082031 0.31641,0.4570313 0,0.2109375 -0.0352,0.3164062 -0.16406,0.8320312 z m 9.89355,0.5742187 c 0,-0.65625 -0.25781,-1.0429687 -0.64453,-1.0429687 -0.32812,0 -0.52734,0.2460937 -0.52734,0.5273437 0,0.2695313 0.19922,0.5273438 0.52734,0.5273438 0.11719,0 0.2461,-0.035156 0.35157,-0.1289063 0.0234,-0.023437 0.0352,-0.035156 0.0469,-0.035156 0.0117,0 0.0234,0.011719 0.0234,0.1523437 0,0.7382814 -0.35156,1.3359374 -0.67969,1.6640624 -0.10547,0.105469 -0.10547,0.128906 -0.10547,0.164062 0,0.07031 0.0469,0.105469 0.0937,0.105469 0.11719,0 0.91406,-0.761719 0.91406,-1.9335934 z m 5.21192,-6.2109375 c 0,-0.1992187 -0.12891,-0.3632812 -0.36328,-0.3632812 -0.26953,0 -0.53907,0.2578125 -0.53907,0.5273437 0,0.1875 0.14063,0.3632813 0.375,0.3632813 0.23438,0 0.52735,-0.234375 0.52735,-0.5273438 z m -0.75,3.7382813 c 0.11719,-0.28125 0.11719,-0.3046875 0.22265,-0.5742188 0.0703,-0.1992187 0.12891,-0.3398437 0.12891,-0.5273437 0,-0.4453125 -0.32812,-0.8203125 -0.82031,-0.8203125 -0.9375,0 -1.3125,1.453125 -1.3125,1.5351562 0,0.1054688 0.0937,0.1054688 0.11719,0.1054688 0.0937,0 0.10546,-0.023437 0.15234,-0.1875 0.26953,-0.9375 0.66797,-1.2304688 1.00781,-1.2304688 0.082,0 0.25781,0 0.25781,0.3164063 0,0.2109375 -0.0703,0.421875 -0.11718,0.515625 -0.082,0.2578125 -0.52735,1.4179687 -0.67969,1.8515625 -0.10547,0.2578125 -0.23438,0.5859375 -0.23438,0.796875 0,0.46875 0.33985,0.8085937 0.82032,0.8085937 0.9375,0 1.30078,-1.4414062 1.30078,-1.5351562 0,-0.09375 -0.0937,-0.09375 -0.11719,-0.09375 -0.10547,0 -0.10547,0.023437 -0.15234,0.1757812 -0.17578,0.6328125 -0.50391,1.2421875 -1.01953,1.2421875 -0.16407,0 -0.23438,-0.1054687 -0.23438,-0.328125 0,-0.2578125 0.0586,-0.3984375 0.29297,-0.9960937 z m 0,0"
         style="fill:#000000;fill-opacity:1;fill-rule:nonzero;stroke:none" />
      <path
         id="path27"
         d="m 164.0468,6.9678984 c 0,-0.7734375 -0.11718,-1.9804687 -0.65625,-3.1054687 -0.59765,-1.21875 -1.46484,-1.875 -1.55859,-1.875 -0.0586,0 -0.10547,0.046875 -0.10547,0.1054687 0,0.035156 0,0.046875 0.19922,0.234375 0.97266,0.984375 1.53516,2.5664063 1.53516,4.640625 0,1.7109375 -0.36328,3.4570316 -1.59375,4.7226566 -0.14063,0.117187 -0.14063,0.128906 -0.14063,0.164062 0,0.05859 0.0469,0.105469 0.10547,0.105469 0.0937,0 0.99609,-0.679688 1.58203,-1.945313 0.50391,-1.1015621 0.63281,-2.2031246 0.63281,-3.0468746 z m 0,0"
         style="fill:#000000;fill-opacity:1;fill-rule:nonzero;stroke:none" />
      <path
         id="path28"
         d="m 173.26653,7.1671172 c 0.16406,0 0.35156,0 0.35156,-0.1992188 0,-0.1992187 -0.1875,-0.1992187 -0.35156,-0.1992187 h -4.23047 c 0.12891,-1.3242188 1.26563,-2.2851563 2.67188,-2.2851563 h 1.55859 c 0.16406,0 0.35156,0 0.35156,-0.1992187 0,-0.1992188 -0.1875,-0.1992188 -0.35156,-0.1992188 h -1.57031 c -1.71094,0 -3.0586,1.2890625 -3.0586,2.8828125 0,1.59375 1.34766,2.8945313 3.0586,2.8945313 h 1.57031 c 0.16406,0 0.35156,0 0.35156,-0.1992188 0,-0.1992187 -0.1875,-0.1992187 -0.35156,-0.1992187 h -1.55859 c -1.40625,0 -2.54297,-0.9609375 -2.67188,-2.296875 z m 0,0"
         style="fill:#000000;fill-opacity:1;fill-rule:nonzero;stroke:none" />
      <path
         id="path29"
         d="m 180.93938,3.4405547 c 0.0937,-0.3632813 0.11719,-0.46875 1.05469,-0.46875 0.30469,0 0.375,0 0.375,-0.1875 0,-0.1289063 -0.10547,-0.1289063 -0.15234,-0.1289063 -0.32813,0 -1.14844,0.035156 -1.47657,0.035156 -0.30468,0 -1.03125,-0.035156 -1.32421,-0.035156 -0.0703,0 -0.1875,0 -0.1875,0.1992188 0,0.1171875 0.082,0.1171875 0.28125,0.1171875 0.0117,0 0.19921,0 0.375,0.011719 0.17578,0.023437 0.26953,0.035156 0.26953,0.1640625 0,0.035156 -0.0117,0.070312 -0.0469,0.1875 l -1.33594,5.3554688 c -0.0937,0.3867187 -0.11718,0.46875 -0.90234,0.46875 -0.16406,0 -0.26953,0 -0.26953,0.1992187 0,0.1054688 0.0937,0.1054688 0.26953,0.1054688 h 4.61719 c 0.23437,0 0.24609,0 0.30469,-0.1640625 l 0.78515,-2.15625 c 0.0469,-0.1054688 0.0469,-0.1289063 0.0469,-0.140625 0,-0.035156 -0.0352,-0.1054688 -0.12891,-0.1054688 -0.082,0 -0.0937,0.046875 -0.16406,0.2109375 -0.33985,0.9140625 -0.77344,2.0507813 -2.4961,2.0507813 h -0.9375 c -0.14062,0 -0.16406,0 -0.22265,-0.011719 -0.10547,-0.011719 -0.12891,-0.023437 -0.12891,-0.1054687 0,-0.023437 0,-0.046875 0.0469,-0.2226563 z m 0,0"
         style="fill:#000000;fill-opacity:1;fill-rule:nonzero;stroke:none" />
    </g>
  </g>
</svg>
