<?xml version="1.0" encoding="UTF-8" standalone="no"?>
<!-- Created with Inkscape (http://www.inkscape.org/) -->

<svg
   version="1.1"
   id="svg1"
   width="397.13672"
   height="29.300781"
   viewBox="0 0 397.13672 29.300781"
   sodipodi:docname="Formulas.pdf"
   xmlns:inkscape="http://www.inkscape.org/namespaces/inkscape"
   xmlns:sodipodi="http://sodipodi.sourceforge.net/DTD/sodipodi-0.dtd"
   xmlns="http://www.w3.org/2000/svg"
   xmlns:svg="http://www.w3.org/2000/svg">
  <defs
     id="defs1" />
  <sodipodi:namedview
     id="namedview1"
     pagecolor="#ffffff"
     bordercolor="#000000"
     borderopacity="0.25"
     inkscape:showpageshadow="2"
     inkscape:pageopacity="0.0"
     inkscape:pagecheckerboard="0"
     inkscape:deskcolor="#d1d1d1" />
  <g
     id="g1"
     inkscape:groupmode="layer"
     inkscape:label="1"
     transform="translate(-329.27344,-112.60547)">
    <g
       id="g2"
       aria-label="P&#10;X&#10;(m,i,4),x&#10;=P&#10;X&#10;(n,j,0),x&#10;,&#10;∑&#10;l∈B&#10;Z&#10;(m,i)(n,j),l&#10;=1,∀(m,i),(n,j)∈C,∀x∈X&#10;R"
       transform="matrix(1.3333333,0,0,1.3333333,328.74267,125.224)">
      <path
         id="path2"
         d="m 3.0230781,-3.1533516 h 1.6875 c 1.4179688,0 2.8007813,-1.03125 2.8007813,-2.1445312 0,-0.7734375 -0.65625,-1.5117188 -1.96875,-1.5117188 H 2.3199531 c -0.1875,0 -0.2929687,0 -0.2929687,0.1992188 0,0.1171875 0.082031,0.1171875 0.28125,0.1171875 0.1289062,0 0.3164062,0.011719 0.4335937,0.011719 0.1523438,0.023437 0.2109375,0.058594 0.2109375,0.1640625 0,0.035156 0,0.070312 -0.035156,0.1875 l -1.3359375,5.35546879 c -0.09375,0.38671875 -0.1171875,0.46875 -0.90234377,0.46875 -0.17578125,0 -0.28125,0 -0.28125,0.1875 0,0.1171875 0.1171875,0.1171875 0.15234375,0.1171875 0.28125,0 0.98437502,-0.03515625 1.26562502,-0.03515625 0.2109375,0 0.421875,0.01171875 0.6328125,0.01171875 0.2226562,0 0.4453125,0.0234375 0.6445312,0.0234375 0.070312,0 0.1992188,0 0.1992188,-0.19921875 0,-0.10546875 -0.082031,-0.10546875 -0.2695313,-0.10546875 -0.375,0 -0.65625,0 -0.65625,-0.1875 0,-0.0585938 0.023437,-0.10546875 0.035156,-0.1640625 z m 0.7148438,-2.9648437 c 0.082031,-0.3515625 0.1054687,-0.375 0.5390625,-0.375 h 0.9492187 c 0.8320313,0 1.359375,0.2695312 1.359375,0.9492187 0,0.3984375 -0.1992187,1.2539063 -0.5859375,1.6054688 -0.5039062,0.4453125 -1.1015625,0.5273437 -1.5351562,0.5273437 h -1.40625 z m 0,0"
         style="fill:#000000;fill-opacity:1;fill-rule:nonzero;stroke:none" />
      <path
         id="path3"
         d="m 11.659797,-6.7744453 0.65625,-0.6679688 c 0.902344,-0.8789062 1.171875,-1.1484375 1.792969,-1.1835937 0.09375,-0.011719 0.175781,-0.011719 0.175781,-0.140625 0,-0.09375 -0.07031,-0.1054688 -0.09375,-0.1054688 -0.199219,0 -0.445313,0.023437 -0.65625,0.023437 -0.1875,0 -0.632813,-0.023437 -0.808594,-0.023437 -0.05859,0 -0.140625,0.011719 -0.140625,0.1523438 0,0 0,0.082031 0.105469,0.09375 0.05859,0.011719 0.234375,0.023437 0.234375,0.1757812 0,0.1054688 -0.105469,0.2109375 -0.175781,0.28125 -0.05859,0.046875 -0.9375,0.9140625 -1.195313,1.1835938 l -0.703125,-1.3710938 c -0.01172,-0.023437 -0.03516,-0.070312 -0.03516,-0.09375 0,-0.046875 0.128906,-0.1640625 0.363281,-0.1757812 0.05859,0 0.152344,-0.011719 0.152344,-0.1523438 0,-0.011719 -0.01172,-0.09375 -0.117188,-0.09375 -0.152343,0 -0.328125,0.011719 -0.46875,0.011719 -0.152343,0 -0.304687,0.011719 -0.457031,0.011719 -0.117187,0 -0.28125,0 -0.4101561,-0.011719 -0.1171875,0 -0.2695313,-0.011719 -0.375,-0.011719 -0.035156,0 -0.1523438,0 -0.1523438,0.1523438 0,0.09375 0.09375,0.09375 0.2109375,0.09375 0.3984375,0 0.4335938,0.070312 0.5039064,0.2109375 l 0.972656,1.921875 -0.386719,0.3867187 c -0.128906,0.1289063 -0.457031,0.4453125 -0.585937,0.5742188 -0.8437501,0.84375 -1.1367189,1.1367187 -1.7578126,1.171875 -0.1054688,0 -0.1757813,0 -0.1757813,0.1523437 0,0.023437 0.023437,0.09375 0.09375,0.09375 0.1992188,0 0.4453125,-0.023437 0.6445313,-0.023437 0.1289062,0 0.2929687,0 0.421875,0 0.1171875,0.011719 0.2695312,0.023437 0.3867187,0.023437 0.035156,0 0.1523438,0 0.1523438,-0.140625 0,-0.1054687 -0.082031,-0.1054687 -0.1289063,-0.1054687 -0.070312,-0.011719 -0.2109375,-0.035156 -0.2109375,-0.1757813 0,-0.1171875 0.09375,-0.2109375 0.2460938,-0.3632812 l 1.4062501,-1.3828125 0.84375,1.6523437 c 0.03516,0.070312 0.04687,0.082031 0.04687,0.09375 0,0.035156 -0.128906,0.1523438 -0.375,0.1757813 -0.05859,0 -0.152344,0 -0.152344,0.1523437 0,0 0.01172,0.09375 0.117188,0.09375 0.152343,0 0.328125,-0.023437 0.46875,-0.023437 0.152343,0 0.304687,0 0.457031,0 0.117187,0 0.28125,0 0.410156,0 0.117188,0.011719 0.269531,0.023437 0.375,0.023437 0.03516,0 0.152344,0 0.152344,-0.1523437 0,-0.09375 -0.09375,-0.09375 -0.210938,-0.09375 -0.398437,0 -0.433593,-0.082031 -0.492187,-0.1992188 z m 0,0"
         style="fill:#000000;fill-opacity:1;fill-rule:nonzero;stroke:none" />
      <path
         id="path4"
         d="m 8.8678047,-2.5146797 c -1.3242188,0.9257813 -1.6757813,2.41406251 -1.6757813,3.48046876 0,0.98437504 0.2929688,2.50781254 1.6757813,3.48046874 0.058594,0 0.140625,0 0.140625,-0.082031 0,-0.046875 -0.023437,-0.058594 -0.070312,-0.1054688 -0.9257813,-0.8320312 -1.265625,-2.015625 -1.265625,-3.29296874 0,-1.875 0.7148437,-2.80078126 1.2890625,-3.31640626 0.023437,-0.023437 0.046875,-0.046875 0.046875,-0.082031 0,-0.082031 -0.082031,-0.082031 -0.1406255,-0.082032 z m 0,0"
         style="fill:#000000;fill-opacity:1;fill-rule:nonzero;stroke:none" />
      <path
         id="path5"
         d="m 12.532844,2.1493828 c -0.03516,0.140625 -0.09375,0.375 -0.09375,0.4101563 0,0.1523437 0.128906,0.2226562 0.234375,0.2226562 0.128906,0 0.234375,-0.09375 0.269531,-0.1523437 0.03516,-0.058594 0.09375,-0.2929688 0.128906,-0.4335938 0.03516,-0.1289062 0.117188,-0.4570312 0.152344,-0.6328125 0.04687,-0.1523437 0.08203,-0.3046875 0.117188,-0.4570312 0.08203,-0.30468754 0.08203,-0.31640629 0.222656,-0.53906254 0.222656,-0.33984375 0.5625,-0.73828125 1.113281,-0.73828125 0.386719,0 0.410156,0.328125 0.410156,0.4921875 0,0.421875 -0.304687,1.19531249 -0.410156,1.48828129 -0.08203,0.1875 -0.105469,0.2578125 -0.105469,0.375 0,0.3632812 0.304688,0.5976562 0.65625,0.5976562 0.703125,0 1.007813,-0.9609375 1.007813,-1.0664062 0,-0.09375 -0.09375,-0.09375 -0.105469,-0.09375 -0.105469,0 -0.105469,0.046875 -0.140625,0.1171875 -0.152344,0.5625 -0.457031,0.84375 -0.738281,0.84375 -0.140625,0 -0.175781,-0.09375 -0.175781,-0.2460938 0,-0.1523437 0.03516,-0.2460937 0.164062,-0.5625 0.08203,-0.2109375 0.375,-0.94921874 0.375,-1.34765624 0,-0.10546875 0,-0.3984375 -0.257812,-0.59765625 -0.128907,-0.09375 -0.328125,-0.1875 -0.65625,-0.1875 -0.621094,0 -1.007813,0.41015625 -1.230469,0.703125 -0.05859,-0.59765625 -0.550781,-0.703125 -0.902344,-0.703125 -0.585937,0 -0.972656,0.3515625 -1.183594,0.6328125 -0.04687,-0.48046875 -0.457031,-0.6328125 -0.75,-0.6328125 -0.292968,0 -0.457031,0.2109375 -0.550781,0.375 -0.1523437,0.2578125 -0.2460937,0.65625 -0.2460937,0.69140625 0,0.0820313 0.09375,0.0820313 0.1171875,0.0820313 0.09375,0 0.1054692,-0.0117188 0.1523442,-0.19921875 0.105468,-0.421875 0.234375,-0.76171875 0.515625,-0.76171875 0.175781,0 0.222656,0.15234375 0.222656,0.33984375 0,0.140625 -0.05859,0.3984375 -0.105469,0.5859375 -0.04687,0.1875 -0.117187,0.46874999 -0.152344,0.62109369 l -0.222656,0.9023439 c -0.03516,0.082031 -0.07031,0.2578125 -0.07031,0.28125 0,0.1523436 0.117187,0.2226561 0.234375,0.2226561 0.128906,0 0.234375,-0.09375 0.269531,-0.1523436 0.03516,-0.058594 0.09375,-0.2929689 0.128906,-0.4335939 0.03516,-0.1289061 0.105469,-0.4570312 0.152344,-0.6328125 0.03516,-0.1523437 0.08203,-0.3046875 0.117187,-0.4570312 0.08203,-0.29296874 0.09375,-0.35156249 0.292969,-0.63281249 0.199219,-0.28125 0.527344,-0.64453125 1.042969,-0.64453125 0.410156,0 0.410156,0.36328125 0.410156,0.4921875 0,0.17578125 -0.01172,0.26953125 -0.117187,0.65625 z m 5.516601,0.4453125 c 0,0.3867188 -0.07031,0.8320313 -0.550781,1.2773438 -0.02344,0.035156 -0.04687,0.058594 -0.04687,0.09375 0,0.046875 0.05859,0.09375 0.09375,0.09375 0.105469,0 0.691406,-0.5625 0.691406,-1.3945313 0,-0.421875 -0.164062,-0.75 -0.480468,-0.75 -0.234375,0 -0.398438,0.1757813 -0.398438,0.3867188 0,0.234375 0.152344,0.4101562 0.398438,0.4101562 0.164062,0 0.28125,-0.1171875 0.292968,-0.1171875 z m 3.149414,-4.2421875 c 0,-0.1054687 -0.08203,-0.2578125 -0.28125,-0.2578125 -0.1875,0 -0.386718,0.1757813 -0.386718,0.375 0,0.1171875 0.08203,0.2695313 0.269531,0.2695313 0.210937,0 0.398437,-0.1992188 0.398437,-0.3867188 z m -1.429687,3.5390625 c -0.02344,0.09375 -0.05859,0.1757813 -0.05859,0.2929688 0,0.328125 0.28125,0.5976562 0.667969,0.5976562 0.691406,0 0.996094,-0.9609375 0.996094,-1.0664062 0,-0.09375 -0.08203,-0.09375 -0.105469,-0.09375 -0.105469,0 -0.105469,0.046875 -0.140625,0.1171875 -0.152344,0.5625 -0.457031,0.84375 -0.738281,0.84375 -0.140625,0 -0.175782,-0.082031 -0.175782,-0.2460938 0,-0.1523437 0.05859,-0.2929687 0.117188,-0.4453125 0.07031,-0.1875 0.140625,-0.375 0.222656,-0.5507812 0.05859,-0.1640625 0.316406,-0.80859379 0.339844,-0.89062504 0.02344,-0.0703125 0.04687,-0.15234375 0.04687,-0.22265625 0,-0.328125 -0.28125,-0.5859375 -0.667969,-0.5859375 -0.691406,0 -1.007812,0.94921875 -1.007812,1.06640625 0,0.0820313 0.09375,0.0820313 0.117187,0.0820313 0.09375,0 0.105469,-0.0351563 0.128906,-0.10546875 0.175782,-0.59765625 0.480469,-0.85546875 0.738282,-0.85546875 0.117187,0 0.175781,0.0585938 0.175781,0.24609375 0,0.1640625 -0.03516,0.26953125 -0.210938,0.703125 z m 3.462891,0.703125 c 0,0.3867188 -0.07031,0.8320313 -0.550782,1.2773438 -0.02344,0.035156 -0.04687,0.058594 -0.04687,0.09375 0,0.046875 0.05859,0.09375 0.09375,0.09375 0.105469,0 0.691407,-0.5625 0.691407,-1.3945313 0,-0.421875 -0.164063,-0.75 -0.480469,-0.75 -0.234375,0 -0.398438,0.1757813 -0.398438,0.3867188 0,0.234375 0.152344,0.4101562 0.398438,0.4101562 0.164062,0 0.28125,-0.1171875 0.292969,-0.1171875 z m 0,0"
         style="fill:#000000;fill-opacity:1;fill-rule:nonzero;stroke:none" />
      <path
         id="path6"
         d="M 27.819953,1.5634453 V 1.3173516 h -0.773437 v -3.1054688 c 0,-0.1523437 0,-0.1992187 -0.152344,-0.1992187 -0.09375,0 -0.117188,0 -0.1875,0.09375 l -2.308594,3.2109375 v 0.2460937 h 2.050781 v 0.5742188 c 0,0.234375 0,0.328125 -0.5625,0.328125 h -0.1875 v 0.2460937 c 0.351563,-0.011719 0.796875,-0.023437 1.042969,-0.023437 0.257813,0 0.703125,0.011719 1.054688,0.023437 V 2.4657891 h -0.1875 c -0.5625,0 -0.5625,-0.09375 -0.5625,-0.328125 V 1.5634453 Z m -1.324219,-2.8007812 v 2.5546875 h -1.839843 z m 2.235352,-1.2773438 c -0.05859,0 -0.140625,0 -0.140625,0.082031 0,0.035156 0.02344,0.058594 0.07031,0.1054687 0.597657,0.5507813 1.265625,1.48828126 1.265625,3.29296876 0,1.45312504 -0.457031,2.55468754 -1.207031,3.23437504 -0.117187,0.1171875 -0.128906,0.1289062 -0.128906,0.1640625 0,0.035156 0.02344,0.082031 0.09375,0.082031 0.08203,0 0.75,-0.4570312 1.207031,-1.3242187 0.304688,-0.5859375 0.503906,-1.3359375 0.503906,-2.15625004 0,-0.984375 -0.292968,-2.50781246 -1.664062,-3.48046876 z m 0,0"
         style="fill:#000000;fill-opacity:1;fill-rule:nonzero;stroke:none" />
      <path
         id="path7"
         d="m 32.692023,2.5946953 c 0,0.3867188 -0.07031,0.8320313 -0.550781,1.2773438 -0.02344,0.035156 -0.04687,0.058594 -0.04687,0.09375 0,0.046875 0.05859,0.09375 0.09375,0.09375 0.105469,0 0.691406,-0.5625 0.691406,-1.3945313 0,-0.421875 -0.164062,-0.75 -0.480468,-0.75 -0.234375,0 -0.398438,0.1757813 -0.398438,0.3867188 0,0.234375 0.152344,0.4101562 0.398438,0.4101562 0.164062,0 0.28125,-0.1171875 0.292968,-0.1171875 z m 2.622071,-0.6210937 c -0.07031,0.234375 -0.292969,0.609375 -0.65625,0.609375 -0.02344,0 -0.222656,0 -0.375,-0.09375 0.28125,-0.09375 0.304687,-0.3398438 0.304687,-0.3867188 0,-0.1523437 -0.117187,-0.2578125 -0.28125,-0.2578125 -0.1875,0 -0.386718,0.1640625 -0.386718,0.4335938 0,0.3398437 0.386718,0.5039062 0.726562,0.5039062 0.316406,0 0.609375,-0.1992187 0.785156,-0.4921875 0.164063,0.3632813 0.550782,0.4921875 0.820313,0.4921875 0.808594,0 1.230469,-0.8671875 1.230469,-1.0664062 0,-0.09375 -0.09375,-0.09375 -0.105469,-0.09375 -0.105469,0 -0.105469,0.035156 -0.140625,0.1171875 -0.140625,0.4804687 -0.5625,0.84375 -0.949219,0.84375 -0.28125,0 -0.421875,-0.1875 -0.421875,-0.4453125 0,-0.1875 0.164063,-0.8203125 0.363281,-1.59375004 0.128907,-0.5390625 0.445313,-0.71484375 0.679688,-0.71484375 0.01172,0 0.222656,0 0.375,0.10546875 -0.222656,0.05859375 -0.304688,0.2578125 -0.304688,0.375 0,0.15234375 0.117188,0.2578125 0.28125,0.2578125 0.152344,0 0.386719,-0.12890625 0.386719,-0.421875 0,-0.38671875 -0.445312,-0.50390625 -0.726562,-0.50390625 -0.351563,0 -0.632813,0.22265625 -0.785157,0.4921875 -0.117187,-0.29296875 -0.445312,-0.4921875 -0.832031,-0.4921875 -0.785156,0 -1.230469,0.85546875 -1.230469,1.06640625 0,0.0820313 0.105469,0.0820313 0.117188,0.0820313 0.09375,0 0.105469,-0.0234375 0.140625,-0.1171875 0.175781,-0.5390625 0.609375,-0.84375 0.949219,-0.84375 0.234375,0 0.421875,0.12890625 0.421875,0.46875 0,0.12890625 -0.08203,0.48046875 -0.152344,0.71484384 z m 0,0"
         style="fill:#000000;fill-opacity:1;fill-rule:nonzero;stroke:none" />
      <path
         id="path8"
         d="m 48.207648,-3.2588203 c 0.152344,0 0.339844,0 0.339844,-0.1992188 0,-0.1992187 -0.1875,-0.1992187 -0.328125,-0.1992187 h -5.964844 c -0.140625,0 -0.328125,0 -0.328125,0.1992187 0,0.1992188 0.1875,0.1992188 0.339844,0.1992188 z m 0.01172,1.9335937 c 0.140625,0 0.328125,0 0.328125,-0.1992187 0,-0.1992188 -0.1875,-0.1992188 -0.339844,-0.1992188 h -5.941406 c -0.152344,0 -0.339844,0 -0.339844,0.1992188 0,0.1992187 0.1875,0.1992187 0.328125,0.1992187 z m 0,0"
         style="fill:#000000;fill-opacity:1;fill-rule:nonzero;stroke:none" />
      <path
         id="path9"
         d="m 54.901984,-3.1533516 h 1.6875 c 1.417969,0 2.800782,-1.03125 2.800782,-2.1445312 0,-0.7734375 -0.65625,-1.5117188 -1.96875,-1.5117188 h -3.222657 c -0.1875,0 -0.292968,0 -0.292968,0.1992188 0,0.1171875 0.08203,0.1171875 0.28125,0.1171875 0.128906,0 0.316406,0.011719 0.433593,0.011719 0.152344,0.023437 0.210938,0.058594 0.210938,0.1640625 0,0.035156 0,0.070312 -0.03516,0.1875 l -1.335938,5.35546879 c -0.09375,0.38671875 -0.117187,0.46875 -0.902344,0.46875 -0.175781,0 -0.28125,0 -0.28125,0.1875 0,0.1171875 0.117188,0.1171875 0.152344,0.1171875 0.28125,0 0.984375,-0.03515625 1.265625,-0.03515625 0.210938,0 0.421875,0.01171875 0.632813,0.01171875 0.222656,0 0.445312,0.0234375 0.644531,0.0234375 0.07031,0 0.199219,0 0.199219,-0.19921875 0,-0.10546875 -0.08203,-0.10546875 -0.269532,-0.10546875 -0.375,0 -0.65625,0 -0.65625,-0.1875 0,-0.0585938 0.02344,-0.10546875 0.03516,-0.1640625 z m 0.714844,-2.9648437 c 0.08203,-0.3515625 0.105469,-0.375 0.539063,-0.375 h 0.949218 c 0.832032,0 1.359375,0.2695312 1.359375,0.9492187 0,0.3984375 -0.199218,1.2539063 -0.585937,1.6054688 -0.503906,0.4453125 -1.101563,0.5273437 -1.535156,0.5273437 h -1.40625 z m 0,0"
         style="fill:#000000;fill-opacity:1;fill-rule:nonzero;stroke:none" />
      <path
         id="path10"
         d="m 63.538703,-6.7744453 0.65625,-0.6679688 c 0.902344,-0.8789062 1.171875,-1.1484375 1.792969,-1.1835937 0.09375,-0.011719 0.175781,-0.011719 0.175781,-0.140625 0,-0.09375 -0.07031,-0.1054688 -0.09375,-0.1054688 -0.199219,0 -0.445312,0.023437 -0.65625,0.023437 -0.1875,0 -0.632812,-0.023437 -0.808594,-0.023437 -0.05859,0 -0.140625,0.011719 -0.140625,0.1523438 0,0 0,0.082031 0.105469,0.09375 0.05859,0.011719 0.234375,0.023437 0.234375,0.1757812 0,0.1054688 -0.105469,0.2109375 -0.175781,0.28125 -0.05859,0.046875 -0.9375,0.9140625 -1.195313,1.1835938 l -0.703125,-1.3710938 c -0.01172,-0.023437 -0.03516,-0.070312 -0.03516,-0.09375 0,-0.046875 0.128906,-0.1640625 0.363281,-0.1757812 0.05859,0 0.152344,-0.011719 0.152344,-0.1523438 0,-0.011719 -0.01172,-0.09375 -0.117187,-0.09375 -0.152344,0 -0.328125,0.011719 -0.46875,0.011719 -0.152344,0 -0.304688,0.011719 -0.457032,0.011719 -0.117187,0 -0.28125,0 -0.410156,-0.011719 -0.117187,0 -0.269531,-0.011719 -0.375,-0.011719 -0.03516,0 -0.152344,0 -0.152344,0.1523438 0,0.09375 0.09375,0.09375 0.210938,0.09375 0.398437,0 0.433594,0.070312 0.503906,0.2109375 l 0.972656,1.921875 -0.386718,0.3867187 c -0.128907,0.1289063 -0.457032,0.4453125 -0.585938,0.5742188 -0.84375,0.84375 -1.136719,1.1367187 -1.757812,1.171875 -0.105469,0 -0.175782,0 -0.175782,0.1523437 0,0.023437 0.02344,0.09375 0.09375,0.09375 0.199219,0 0.445313,-0.023437 0.644532,-0.023437 0.128906,0 0.292968,0 0.421875,0 0.117187,0.011719 0.269531,0.023437 0.386718,0.023437 0.03516,0 0.152344,0 0.152344,-0.140625 0,-0.1054687 -0.08203,-0.1054687 -0.128906,-0.1054687 -0.07031,-0.011719 -0.210938,-0.035156 -0.210938,-0.1757813 0,-0.1171875 0.09375,-0.2109375 0.246094,-0.3632812 l 1.40625,-1.3828125 0.84375,1.6523437 c 0.03516,0.070312 0.04687,0.082031 0.04687,0.09375 0,0.035156 -0.128906,0.1523438 -0.375,0.1757813 -0.05859,0 -0.152344,0 -0.152344,0.1523437 0,0 0.01172,0.09375 0.117188,0.09375 0.152344,0 0.328125,-0.023437 0.46875,-0.023437 0.152344,0 0.304687,0 0.457031,0 0.117188,0 0.28125,0 0.410156,0 0.117188,0.011719 0.269532,0.023437 0.375,0.023437 0.03516,0 0.152344,0 0.152344,-0.1523437 0,-0.09375 -0.09375,-0.09375 -0.210937,-0.09375 -0.398438,0 -0.433594,-0.082031 -0.492188,-0.1992188 z m 0,0"
         style="fill:#000000;fill-opacity:1;fill-rule:nonzero;stroke:none" />
      <path
         id="path11"
         d="m 60.749641,-2.5146797 c -1.324219,0.9257813 -1.675782,2.41406251 -1.675782,3.48046876 0,0.98437504 0.292969,2.50781254 1.675782,3.48046874 0.05859,0 0.140625,0 0.140625,-0.082031 0,-0.046875 -0.02344,-0.058594 -0.07031,-0.1054688 -0.925781,-0.8320312 -1.265625,-2.015625 -1.265625,-3.29296874 0,-1.875 0.714844,-2.80078126 1.289063,-3.31640626 0.02344,-0.023437 0.04687,-0.046875 0.04687,-0.082031 0,-0.082031 -0.08203,-0.082031 -0.140625,-0.082031 z m 0,0"
         style="fill:#000000;fill-opacity:1;fill-rule:nonzero;stroke:none" />
      <path
         id="path12"
         d="m 62.243781,2.2782891 c -0.03516,0.082031 -0.07031,0.2578125 -0.07031,0.28125 0,0.1523437 0.117187,0.2226562 0.234375,0.2226562 0.128906,0 0.234375,-0.09375 0.269531,-0.1523437 0.03516,-0.058594 0.09375,-0.2929688 0.128906,-0.4335938 0.03516,-0.1289062 0.105469,-0.4570312 0.152344,-0.6328125 0.03516,-0.1523437 0.08203,-0.3046875 0.117188,-0.4570312 0.08203,-0.29296879 0.09375,-0.35156254 0.292968,-0.63281254 0.199219,-0.28125 0.527344,-0.64453125 1.042969,-0.64453125 0.410156,0 0.410156,0.36328125 0.410156,0.4921875 0,0.421875 -0.292968,1.19531249 -0.410156,1.48828129 -0.07031,0.1875 -0.105469,0.2578125 -0.105469,0.375 0,0.3632812 0.304688,0.5976562 0.667969,0.5976562 0.691406,0 1.007813,-0.9609375 1.007813,-1.0664062 0,-0.09375 -0.09375,-0.09375 -0.117188,-0.09375 -0.09375,0 -0.105469,0.046875 -0.128906,0.1171875 -0.164063,0.5625 -0.46875,0.84375 -0.738281,0.84375 -0.152344,0 -0.175782,-0.09375 -0.175782,-0.2460938 0,-0.1523437 0.03516,-0.2460937 0.152344,-0.5625 0.09375,-0.2109375 0.375,-0.94921874 0.375,-1.34765624 0,-0.66796875 -0.539062,-0.78515625 -0.902344,-0.78515625 -0.585937,0 -0.972656,0.3515625 -1.183593,0.6328125 -0.04687,-0.48046875 -0.457032,-0.6328125 -0.75,-0.6328125 -0.292969,0 -0.457032,0.2109375 -0.550782,0.375 -0.152343,0.2578125 -0.246093,0.65625 -0.246093,0.69140625 0,0.0820313 0.09375,0.0820313 0.117187,0.0820313 0.09375,0 0.105469,-0.0117188 0.152344,-0.19921875 0.105469,-0.421875 0.234375,-0.76171875 0.515625,-0.76171875 0.175781,0 0.222656,0.15234375 0.222656,0.33984375 0,0.140625 -0.05859,0.3984375 -0.105469,0.5859375 -0.04687,0.1875 -0.117187,0.46874999 -0.152343,0.62109369 z m 5.545899,0.3164062 c 0,0.3867188 -0.07031,0.8320313 -0.550782,1.2773438 -0.02344,0.035156 -0.04687,0.058594 -0.04687,0.09375 0,0.046875 0.05859,0.09375 0.09375,0.09375 0.105469,0 0.691407,-0.5625 0.691407,-1.3945313 0,-0.421875 -0.164063,-0.75 -0.480469,-0.75 -0.234375,0 -0.398438,0.1757813 -0.398438,0.3867188 0,0.234375 0.152344,0.4101562 0.398438,0.4101562 0.164062,0 0.28125,-0.1171875 0.292969,-0.1171875 z m 3.946289,-4.2421875 c 0,-0.1171875 -0.09375,-0.2578125 -0.28125,-0.2578125 -0.199219,0 -0.386719,0.1875 -0.386719,0.375 0,0.1171875 0.08203,0.2695313 0.28125,0.2695313 0.1875,0 0.386719,-0.1875 0.386719,-0.3867188 z m -1.476563,4.6992188 c -0.117187,0.4804687 -0.492187,0.890625 -0.902343,0.890625 -0.08203,0 -0.175782,-0.011719 -0.246094,-0.046875 0.175781,-0.082031 0.234375,-0.2460938 0.234375,-0.3515625 0,-0.1640625 -0.128906,-0.2578125 -0.269531,-0.2578125 -0.222657,0 -0.398438,0.1875 -0.398438,0.4101562 0,0.2695313 0.269531,0.4335938 0.691406,0.4335938 0.421875,0 1.230469,-0.2460938 1.453125,-1.1015625 L 71.443,0.53219531 c 0.02344,-0.0703125 0.03516,-0.140625 0.03516,-0.234375 0,-0.38671875 -0.328125,-0.65625 -0.738281,-0.65625 -0.785156,0 -1.230469,0.9609375 -1.230469,1.06640625 0,0.0820313 0.105469,0.0820313 0.128907,0.0820313 0.08203,0 0.08203,-0.0117188 0.128906,-0.1171875 0.175781,-0.41015625 0.539062,-0.84375 0.949219,-0.84375 0.175781,0 0.234375,0.1171875 0.234375,0.33984375 0,0.0820312 -0.01172,0.17578125 -0.02344,0.2109375 z m 3.164063,-0.4570313 c 0,0.3867188 -0.07031,0.8320313 -0.550781,1.2773438 -0.02344,0.035156 -0.04687,0.058594 -0.04687,0.09375 0,0.046875 0.05859,0.09375 0.09375,0.09375 0.105468,0 0.691406,-0.5625 0.691406,-1.3945313 0,-0.421875 -0.164063,-0.75 -0.480469,-0.75 -0.234375,0 -0.398437,0.1757813 -0.398437,0.3867188 0,0.234375 0.152343,0.4101562 0.398437,0.4101562 0.164063,0 0.28125,-0.1171875 0.292969,-0.1171875 z m 0,0"
         style="fill:#000000;fill-opacity:1;fill-rule:nonzero;stroke:none" />
      <path
         id="path13"
         d="m 77.91468,0.48532031 c 0,-0.76171875 -0.09375,-1.3125 -0.410157,-1.80468751 -0.222656,-0.3164062 -0.644531,-0.5976562 -1.207031,-0.5976562 -1.617187,0 -1.617187,1.89843746 -1.617187,2.40234371 0,0.50390625 0,2.36718749 1.617187,2.36718749 1.617188,0 1.617188,-1.86328124 1.617188,-2.36718749 z M 76.297492,2.6532891 c -0.316406,0 -0.75,-0.1875 -0.890625,-0.7617188 -0.09375,-0.4101562 -0.09375,-0.98437499 -0.09375,-1.49999999 0,-0.50390625 0,-1.03125 0.105469,-1.41796871 0.152344,-0.5507813 0.597656,-0.6914063 0.878906,-0.6914063 0.375,0 0.738281,0.2226563 0.867188,0.6328125 0.105468,0.37500001 0.117187,0.87890626 0.117187,1.47656251 0,0.515625 0,1.04296879 -0.09375,1.47656249 -0.140625,0.6328125 -0.609375,0.7851563 -0.890625,0.7851563 z m 2.619141,-5.1679688 c -0.05859,0 -0.140625,0 -0.140625,0.082031 0,0.035156 0.02344,0.058594 0.07031,0.1054687 0.597657,0.5507813 1.265625,1.48828126 1.265625,3.29296876 0,1.45312504 -0.457031,2.55468754 -1.207031,3.23437504 -0.117187,0.1171875 -0.128906,0.1289062 -0.128906,0.1640625 0,0.035156 0.02344,0.082031 0.09375,0.082031 0.08203,0 0.75,-0.4570312 1.207031,-1.3242187 0.304688,-0.5859375 0.503906,-1.3359375 0.503906,-2.15625004 0,-0.984375 -0.292968,-2.50781246 -1.664062,-3.48046876 z m 0,0"
         style="fill:#000000;fill-opacity:1;fill-rule:nonzero;stroke:none" />
      <path
         id="path14"
         d="m 82.87757,2.5946953 c 0,0.3867188 -0.07031,0.8320313 -0.550781,1.2773438 -0.02344,0.035156 -0.04687,0.058594 -0.04687,0.09375 0,0.046875 0.05859,0.09375 0.09375,0.09375 0.105469,0 0.691406,-0.5625 0.691406,-1.3945313 0,-0.421875 -0.164062,-0.75 -0.480468,-0.75 -0.234375,0 -0.398438,0.1757813 -0.398438,0.3867188 0,0.234375 0.152344,0.4101562 0.398438,0.4101562 0.164062,0 0.28125,-0.1171875 0.292968,-0.1171875 z m 2.622071,-0.6210937 c -0.07031,0.234375 -0.292969,0.609375 -0.65625,0.609375 -0.02344,0 -0.222657,0 -0.375,-0.09375 0.28125,-0.09375 0.304687,-0.3398438 0.304687,-0.3867188 0,-0.1523437 -0.117187,-0.2578125 -0.28125,-0.2578125 -0.1875,0 -0.386719,0.1640625 -0.386719,0.4335938 0,0.3398437 0.386719,0.5039062 0.726563,0.5039062 0.316406,0 0.609375,-0.1992187 0.785156,-0.4921875 0.164063,0.3632813 0.550781,0.4921875 0.820313,0.4921875 0.808593,0 1.230468,-0.8671875 1.230468,-1.0664062 0,-0.09375 -0.09375,-0.09375 -0.105468,-0.09375 -0.105469,0 -0.105469,0.035156 -0.140625,0.1171875 -0.140625,0.4804687 -0.5625,0.84375 -0.949219,0.84375 -0.28125,0 -0.421875,-0.1875 -0.421875,-0.4453125 0,-0.1875 0.164062,-0.8203125 0.363281,-1.59375004 0.128906,-0.5390625 0.445313,-0.71484375 0.679688,-0.71484375 0.01172,0 0.222656,0 0.375,0.10546875 -0.222657,0.05859375 -0.304688,0.2578125 -0.304688,0.375 0,0.15234375 0.117188,0.2578125 0.28125,0.2578125 0.152344,0 0.386719,-0.12890625 0.386719,-0.421875 0,-0.38671875 -0.445313,-0.50390625 -0.726563,-0.50390625 -0.351562,0 -0.632812,0.22265625 -0.785156,0.4921875 -0.117187,-0.29296875 -0.445312,-0.4921875 -0.832031,-0.4921875 -0.785156,0 -1.230469,0.85546875 -1.230469,1.06640625 0,0.0820313 0.105469,0.0820313 0.117188,0.0820313 0.09375,0 0.105468,-0.0234375 0.140625,-0.1171875 0.175781,-0.5390625 0.609375,-0.84375 0.949218,-0.84375 0.234375,0 0.421875,0.12890625 0.421875,0.46875 0,0.12890625 -0.08203,0.48046875 -0.152343,0.71484384 z m 0,0"
         style="fill:#000000;fill-opacity:1;fill-rule:nonzero;stroke:none" />
      <path
         id="path15"
         d="m 90.811164,-0.01272656 c 0,-0.65625 -0.257812,-1.04296874 -0.644531,-1.04296874 -0.328125,0 -0.527344,0.24609374 -0.527344,0.52734374 0,0.26953125 0.199219,0.52734375 0.527344,0.52734375 0.117187,0 0.246094,-0.03515625 0.351562,-0.12890625 0.02344,-0.0234375 0.03516,-0.0351563 0.04687,-0.0351563 0.01172,0 0.02344,0.0117188 0.02344,0.15234375 0,0.73828125 -0.351563,1.33593741 -0.679688,1.66406241 -0.105468,0.1054688 -0.105468,0.1289063 -0.105468,0.1640625 0,0.070312 0.04687,0.1054688 0.09375,0.1054688 0.117187,0 0.914062,-0.7617188 0.914062,-1.93359371 z m 0,0"
         style="fill:#000000;fill-opacity:1;fill-rule:nonzero;stroke:none" />
      <path
         id="path16"
         d="m 105.81995,4.4814141 1.20703,-3.1875 h -0.24609 c -0.38672,1.03125 -1.45312,1.7109375 -2.58984,2.015625 -0.21094,0.046875 -1.1836,0.3046875 -3.10547,0.3046875 h -6.000002 l 5.062502,-5.9414063 c 0.0703,-0.082031 0.0937,-0.1171875 0.0937,-0.1640625 0,-0.023437 0,-0.046875 -0.0703,-0.1523437 l -4.640629,-6.3398438 h 5.460939 c 1.33594,0 2.23828,0.140625 2.33203,0.1523438 0.53906,0.082031 1.40625,0.2578125 2.19141,0.75 0.24609,0.1640625 0.92578,0.609375 1.26562,1.4179687 h 0.24609 l -1.20703,-2.8007812 H 94.042609 c -0.222656,0 -0.234375,0.011719 -0.269531,0.070312 0,0.035156 0,0.2226562 0,0.328125 l 5.261719,7.2070312 -5.15625,6.046875 c -0.105469,0.1289063 -0.105469,0.1757813 -0.105469,0.1875 0,0.1054688 0.09375,0.1054688 0.269531,0.1054688 z m 0,0"
         style="fill:#000000;fill-opacity:1;fill-rule:nonzero;stroke:none" />
      <path
         id="path17"
         d="m 95.232063,7.3554375 c 0,-0.011719 0.02344,-0.1054687 0.02344,-0.1171875 0,-0.035156 -0.02344,-0.09375 -0.105469,-0.09375 -0.140625,0 -0.726562,0.058594 -0.902343,0.070312 -0.04687,0.011719 -0.140625,0.011719 -0.140625,0.1640625 0,0.09375 0.09375,0.09375 0.175781,0.09375 0.328125,0 0.328125,0.046875 0.328125,0.1054688 0,0.046875 -0.01172,0.09375 -0.02344,0.1523437 l -0.867188,3.445313 c -0.02344,0.07031 -0.02344,0.140625 -0.02344,0.210938 0,0.457031 0.398438,0.667968 0.726563,0.667968 0.175781,0 0.375,-0.05859 0.5625,-0.375 0.140625,-0.257812 0.246094,-0.667968 0.246094,-0.691406 0,-0.09375 -0.09375,-0.09375 -0.117188,-0.09375 -0.09375,0 -0.105469,0.04687 -0.140625,0.164063 -0.08203,0.351562 -0.222656,0.796875 -0.515625,0.796875 -0.1875,0 -0.234375,-0.175782 -0.234375,-0.339844 0,-0.07031 0.01172,-0.210938 0.03516,-0.28125 z m 0,0"
         style="fill:#000000;fill-opacity:1;fill-rule:nonzero;stroke:none" />
      <path
         id="path18"
         d="m 100.14808,10.414031 c 0.11719,0 0.28125,0 0.28125,-0.175781 0,-0.175781 -0.15235,-0.175781 -0.28125,-0.175781 h -3.222658 c 0.105469,-1.0078127 0.949219,-1.7578127 2.039062,-1.7578127 h 1.183596 c 0.11719,0 0.28125,0 0.28125,-0.1640625 0,-0.1757813 -0.15235,-0.1757813 -0.28125,-0.1757813 h -1.218752 c -1.289062,0 -2.355469,1.0195313 -2.355469,2.2734375 0,1.277344 1.078125,2.273438 2.355469,2.273438 h 1.218752 c 0.11719,0 0.28125,0 0.28125,-0.164063 0,-0.175781 -0.15235,-0.175781 -0.28125,-0.175781 h -1.183596 c -1.089843,0 -1.933593,-0.75 -2.039062,-1.757813 z m 0,0"
         style="fill:#000000;fill-opacity:1;fill-rule:nonzero;stroke:none" />
      <path
         id="path19"
         d="m 102.51527,11.445281 c -0.0586,0.234375 -0.0703,0.292969 -0.60938,0.292969 -0.11719,0 -0.21094,0 -0.21094,0.140625 0,0.105469 0.082,0.105469 0.21094,0.105469 h 2.69531 c 1.17188,0 2.07422,-0.796875 2.07422,-1.488281 0,-0.5039067 -0.45703,-0.9257817 -1.19531,-0.9960942 0.84375,-0.1640625 1.54687,-0.6914063 1.54687,-1.2890625 0,-0.5273438 -0.53906,-0.984375 -1.4414,-0.984375 h -2.54297 c -0.12891,0 -0.22266,0 -0.22266,0.1523437 0,0.09375 0.082,0.09375 0.22266,0.09375 0.0117,0 0.14062,0 0.26953,0.011719 0.14063,0.011719 0.16406,0.035156 0.16406,0.1054687 0,0.011719 0,0.046875 -0.0352,0.1523438 z M 103.62855,9.4062188 104.06214,7.707 c 0.0469,-0.2109375 0.0586,-0.234375 0.35156,-0.234375 h 1.05469 c 0.71484,0 0.87891,0.46875 0.87891,0.7382813 0,0.5625 -0.63282,1.1953125 -1.57032,1.1953125 z m -0.32813,2.3320312 c -0.22265,0 -0.22265,-0.01172 -0.22265,-0.07031 0,-0.01172 0,-0.04687 0.0234,-0.152344 l 0.48047,-1.9101565 h 1.47656 c 0.65625,0 0.91407,0.4335935 0.91407,0.8437505 0,0.679687 -0.71485,1.289062 -1.5586,1.289062 z m 0,0"
         style="fill:#000000;fill-opacity:1;fill-rule:nonzero;stroke:none" />
      <path
         id="path20"
         d="m 116.43421,-6.5635078 c 0.0117,-0.046875 0.0352,-0.09375 0.0352,-0.1523438 0,-0.09375 -0.0586,-0.09375 -0.25782,-0.09375 h -4.19531 c -0.24609,0 -0.25781,0.011719 -0.3164,0.1992188 l -0.53907,1.7929687 c -0.0234,0.058594 -0.0352,0.1289063 -0.0352,0.140625 0,0.011719 0,0.1171875 0.11718,0.1171875 0.0937,0 0.11719,-0.070312 0.12891,-0.1054687 0.38672,-1.171875 0.90234,-1.828125 2.44922,-1.828125 h 1.62891 l -5.56641,6.22265624 c 0,0.0117188 -0.0469,0.15234375 -0.0469,0.17578125 0,0.09375 0.0703,0.09375 0.25782,0.09375 h 4.32422 c 0.24609,0 0.25781,-0.01171875 0.3164,-0.19921875 l 0.70313,-2.20312504 c 0.0117,-0.035156 0.0352,-0.1054687 0.0352,-0.1523437 0,-0.046875 -0.0352,-0.1054688 -0.1289,-0.1054688 -0.082,0 -0.0937,0.035156 -0.16407,0.2460938 -0.43359,1.359375 -0.91406,2.07421874 -2.61328,2.07421874 h -1.69922 z m 0,0"
         style="fill:#000000;fill-opacity:1;fill-rule:nonzero;stroke:none" />
      <path
         id="path21"
         d="m 118.5348,-3.4287422 c -1.32422,0.9257813 -1.67578,2.4140625 -1.67578,3.48046876 0,0.98437504 0.29296,2.50781254 1.67578,3.48046874 0.0586,0 0.14062,0 0.14062,-0.082031 0,-0.046875 -0.0234,-0.058594 -0.0703,-0.1054688 -0.92578,-0.8320312 -1.26563,-2.015625 -1.26563,-3.29296874 0,-1.87499996 0.71485,-2.80078126 1.28907,-3.31640626 0.0234,-0.023437 0.0469,-0.046875 0.0469,-0.082031 0,-0.082031 -0.082,-0.082031 -0.14062,-0.082031 z m 0,0"
         style="fill:#000000;fill-opacity:1;fill-rule:nonzero;stroke:none" />
      <path
         id="path22"
         d="m 122.19984,1.2353203 c -0.0352,0.140625 -0.0937,0.375 -0.0937,0.4101563 0,0.1523437 0.1289,0.2226562 0.23437,0.2226562 0.12891,0 0.23438,-0.09375 0.26953,-0.1523437 0.0352,-0.058594 0.0937,-0.2929688 0.12891,-0.4335938 0.0352,-0.1289062 0.11719,-0.45703124 0.15234,-0.63281249 0.0469,-0.15234375 0.082,-0.3046875 0.11719,-0.45703125 0.082,-0.3046875 0.082,-0.31640625 0.22266,-0.5390625 0.22265,-0.33984375 0.5625,-0.73828126 1.11328,-0.73828126 0.38672,0 0.41015,0.32812501 0.41015,0.49218751 0,0.421875 -0.30468,1.1953125 -0.41015,1.48828125 -0.082,0.18750004 -0.10547,0.25781254 -0.10547,0.37500004 0,0.3632812 0.30469,0.5976562 0.65625,0.5976562 0.70312,0 1.00781,-0.96093749 1.00781,-1.06640624 0,-0.09375 -0.0937,-0.09375 -0.10547,-0.09375 -0.10547,0 -0.10547,0.046875 -0.14062,0.1171875 -0.15235,0.56250004 -0.45703,0.84375004 -0.73828,0.84375004 -0.14063,0 -0.17579,-0.09375 -0.17579,-0.2460938 0,-0.1523437 0.0352,-0.2460937 0.16407,-0.56249999 0.082,-0.2109375 0.375,-0.94921875 0.375,-1.34765625 0,-0.10546875 0,-0.3984375 -0.25782,-0.59765626 -0.1289,-0.09375 -0.32812,-0.1875 -0.65625,-0.1875 -0.62109,0 -1.00781,0.41015626 -1.23046,0.70312501 -0.0586,-0.59765621 -0.55079,-0.70312501 -0.90235,-0.70312501 -0.58594,0 -0.97265,0.35156251 -1.18359,0.63281251 -0.0469,-0.48046871 -0.45703,-0.63281251 -0.75,-0.63281251 -0.29297,0 -0.45703,0.2109375 -0.55078,0.37500001 -0.15235,0.2578125 -0.2461,0.65625 -0.2461,0.69140625 0,0.0820313 0.0937,0.0820313 0.11719,0.0820313 0.0937,0 0.10547,-0.0117188 0.15234,-0.19921875 0.10547,-0.421875 0.23438,-0.76171881 0.51563,-0.76171881 0.17578,0 0.22266,0.15234381 0.22266,0.33984381 0,0.140625 -0.0586,0.3984375 -0.10547,0.5859375 -0.0469,0.1875 -0.11719,0.46875 -0.15235,0.62109375 l -0.22265,0.90234374 c -0.0352,0.082031 -0.0703,0.2578125 -0.0703,0.28125 0,0.1523437 0.11719,0.2226562 0.23438,0.2226562 0.12891,0 0.23437,-0.09375 0.26953,-0.1523437 0.0352,-0.058594 0.0937,-0.2929688 0.12891,-0.4335938 0.0352,-0.1289062 0.10547,-0.45703119 0.15234,-0.63281244 0.0352,-0.15234375 0.082,-0.3046875 0.11719,-0.45703125 0.082,-0.29296875 0.0937,-0.3515625 0.29297,-0.6328125 0.19922,-0.28125 0.52734,-0.64453131 1.04297,-0.64453131 0.41015,0 0.41015,0.36328131 0.41015,0.49218756 0,0.17578125 -0.0117,0.26953125 -0.11719,0.65625 z m 5.51953,0.4453125 c 0,0.3867188 -0.0703,0.8320313 -0.55078,1.2773438 -0.0234,0.035156 -0.0469,0.058594 -0.0469,0.09375 0,0.046875 0.0586,0.09375 0.0937,0.09375 0.10547,0 0.69141,-0.5625 0.69141,-1.3945313 0,-0.421875 -0.16407,-0.75 -0.48047,-0.75 -0.23438,0 -0.39844,0.1757813 -0.39844,0.3867188 0,0.234375 0.15234,0.4101562 0.39844,0.4101562 0.16406,0 0.28125,-0.1171875 0.29297,-0.1171875 z m 3.14648,-4.2421875 c 0,-0.1054687 -0.082,-0.2578125 -0.28125,-0.2578125 -0.1875,0 -0.38672,0.1757813 -0.38672,0.375 0,0.1171875 0.082,0.2695313 0.26953,0.2695313 0.21094,0 0.39844,-0.1992188 0.39844,-0.3867188 z m -1.42969,3.53906251 c -0.0234,0.09375 -0.0586,0.17578129 -0.0586,0.29296879 0,0.328125 0.28125,0.5976562 0.66797,0.5976562 0.69141,0 0.99609,-0.96093749 0.99609,-1.06640624 0,-0.09375 -0.082,-0.09375 -0.10547,-0.09375 -0.10546,0 -0.10546,0.046875 -0.14062,0.1171875 -0.15234,0.56250004 -0.45703,0.84375004 -0.73828,0.84375004 -0.14063,0 -0.17578,-0.082031 -0.17578,-0.2460938 0,-0.1523437 0.0586,-0.2929687 0.11718,-0.44531249 0.0703,-0.1875 0.14063,-0.375 0.22266,-0.55078125 0.0586,-0.1640625 0.31641,-0.80859375 0.33984,-0.890625 0.0234,-0.0703125 0.0469,-0.15234375 0.0469,-0.22265625 0,-0.32812501 -0.28125,-0.58593751 -0.66797,-0.58593751 -0.69141,0 -1.00781,0.94921876 -1.00781,1.06640626 0,0.0820313 0.0937,0.0820313 0.11719,0.0820313 0.0937,0 0.10546,-0.0351563 0.1289,-0.10546875 0.17578,-0.59765625 0.48047,-0.85546881 0.73828,-0.85546881 0.11719,0 0.17578,0.058594 0.17578,0.24609381 0,0.1640625 -0.0351,0.26953125 -0.21093,0.703125 z m 0,0"
         style="fill:#000000;fill-opacity:1;fill-rule:nonzero;stroke:none" />
      <path
         id="path23"
         d="m 132.06409,-3.4287422 c -0.0586,0 -0.14062,0 -0.14062,0.082031 0,0.035156 0.0234,0.058594 0.0703,0.1054687 0.59766,0.5507813 1.26563,1.4882813 1.26563,3.29296876 0,1.45312504 -0.45703,2.55468754 -1.20703,3.23437504 -0.11719,0.1171875 -0.12891,0.1289062 -0.12891,0.1640625 0,0.035156 0.0234,0.082031 0.0937,0.082031 0.082,0 0.75,-0.4570312 1.20703,-1.3242187 0.30469,-0.5859375 0.50391,-1.33593754 0.50391,-2.15625004 0,-0.984375 -0.29297,-2.50781246 -1.66407,-3.48046876 z m 4.95118,0 c -1.32422,0.9257813 -1.67579,2.4140625 -1.67579,3.48046876 0,0.98437504 0.29297,2.50781254 1.67579,3.48046874 0.0586,0 0.14062,0 0.14062,-0.082031 0,-0.046875 -0.0234,-0.058594 -0.0703,-0.1054688 -0.92578,-0.8320312 -1.26563,-2.015625 -1.26563,-3.29296874 0,-1.87499996 0.71485,-2.80078126 1.28907,-3.31640626 0.0234,-0.023437 0.0469,-0.046875 0.0469,-0.082031 0,-0.082031 -0.082,-0.082031 -0.14062,-0.082031 z m 0,0"
         style="fill:#000000;fill-opacity:1;fill-rule:nonzero;stroke:none" />
      <path
         id="path24"
         d="m 138.51234,1.3642266 c -0.0352,0.082031 -0.0703,0.2578125 -0.0703,0.28125 0,0.1523437 0.11719,0.2226562 0.23438,0.2226562 0.1289,0 0.23437,-0.09375 0.26953,-0.1523437 0.0352,-0.058594 0.0937,-0.2929688 0.12891,-0.4335938 0.0352,-0.1289062 0.10546,-0.45703124 0.15234,-0.63281249 0.0352,-0.15234375 0.082,-0.3046875 0.11719,-0.45703125 0.082,-0.29296875 0.0937,-0.3515625 0.29297,-0.6328125 0.19921,-0.28125 0.52734,-0.64453126 1.04296,-0.64453126 0.41016,0 0.41016,0.36328126 0.41016,0.49218751 0,0.421875 -0.29297,1.1953125 -0.41016,1.48828125 -0.0703,0.18750004 -0.10546,0.25781254 -0.10546,0.37500004 0,0.3632812 0.30468,0.5976562 0.66796,0.5976562 0.69141,0 1.00782,-0.96093749 1.00782,-1.06640624 0,-0.09375 -0.0937,-0.09375 -0.11719,-0.09375 -0.0937,0 -0.10547,0.046875 -0.12891,0.1171875 -0.16406,0.56250004 -0.46875,0.84375004 -0.73828,0.84375004 -0.15234,0 -0.17578,-0.09375 -0.17578,-0.2460938 0,-0.1523437 0.0352,-0.2460937 0.15234,-0.56249999 0.0937,-0.2109375 0.375,-0.94921875 0.375,-1.34765625 0,-0.66796876 -0.53906,-0.78515626 -0.90234,-0.78515626 -0.58594,0 -0.97266,0.35156251 -1.18359,0.63281251 -0.0469,-0.48046871 -0.45703,-0.63281251 -0.75,-0.63281251 -0.29297,0 -0.45703,0.2109375 -0.55078,0.37500001 -0.15235,0.2578125 -0.2461,0.65625 -0.2461,0.69140625 0,0.0820313 0.0937,0.0820313 0.11719,0.0820313 0.0937,0 0.10547,-0.0117188 0.15234,-0.19921875 0.10547,-0.421875 0.23438,-0.76171871 0.51563,-0.76171871 0.17578,0 0.22265,0.15234371 0.22265,0.33984371 0,0.140625 -0.0586,0.3984375 -0.10546,0.5859375 -0.0469,0.1875 -0.11719,0.46875 -0.15235,0.62109375 z m 5.54589,0.3164062 c 0,0.3867188 -0.0703,0.8320313 -0.55078,1.2773438 -0.0234,0.035156 -0.0469,0.058594 -0.0469,0.09375 0,0.046875 0.0586,0.09375 0.0937,0.09375 0.10547,0 0.6914,-0.5625 0.6914,-1.3945313 0,-0.421875 -0.16406,-0.75 -0.48046,-0.75 -0.23438,0 -0.39844,0.1757813 -0.39844,0.3867188 0,0.234375 0.15234,0.4101562 0.39844,0.4101562 0.16406,0 0.28125,-0.1171875 0.29296,-0.1171875 z m 3.94629,-4.2421875 c 0,-0.1171875 -0.0937,-0.2578125 -0.28125,-0.2578125 -0.19922,0 -0.38672,0.1875 -0.38672,0.375 0,0.1171875 0.082,0.2695313 0.28125,0.2695313 0.1875,0 0.38672,-0.1875 0.38672,-0.3867188 z m -1.47656,4.6992188 c -0.11719,0.4804687 -0.49219,0.890625 -0.90234,0.890625 -0.082,0 -0.17578,-0.011719 -0.2461,-0.046875 0.17578,-0.082031 0.23438,-0.2460938 0.23438,-0.3515625 0,-0.1640625 -0.12891,-0.2578125 -0.26953,-0.2578125 -0.22266,0 -0.39844,0.1875 -0.39844,0.4101562 0,0.2695313 0.26953,0.4335938 0.69141,0.4335938 0.42187,0 1.23046,-0.2460938 1.45312,-1.1015625 l 0.62109,-2.49609379 c 0.0234,-0.0703125 0.0352,-0.140625 0.0352,-0.234375 0,-0.38671871 -0.32812,-0.65625001 -0.73828,-0.65625001 -0.78516,0 -1.23047,0.96093751 -1.23047,1.06640626 0,0.0820313 0.10547,0.0820313 0.12891,0.0820313 0.082,0 0.082,-0.0117188 0.1289,-0.1171875 0.17578,-0.41015625 0.53907,-0.84375006 0.94922,-0.84375006 0.17578,0 0.23438,0.11718756 0.23438,0.33984381 0,0.0820313 -0.0117,0.17578125 -0.0234,0.2109375 z m 0,0"
         style="fill:#000000;fill-opacity:1;fill-rule:nonzero;stroke:none" />
      <path
         id="path25"
         d="m 149.28187,-3.4287422 c -0.0586,0 -0.14063,0 -0.14063,0.082031 0,0.035156 0.0234,0.058594 0.0703,0.1054687 0.59766,0.5507813 1.26563,1.4882813 1.26563,3.29296876 0,1.45312504 -0.45703,2.55468754 -1.20703,3.23437504 -0.11719,0.1171875 -0.12891,0.1289062 -0.12891,0.1640625 0,0.035156 0.0234,0.082031 0.0937,0.082031 0.082,0 0.75,-0.4570312 1.20703,-1.3242187 0.30469,-0.5859375 0.50391,-1.33593754 0.50391,-2.15625004 0,-0.984375 -0.29297,-2.50781246 -1.66406,-3.48046876 z m 0,0"
         style="fill:#000000;fill-opacity:1;fill-rule:nonzero;stroke:none" />
      <path
         id="path26"
         d="m 153.23988,1.6806328 c 0,0.3867188 -0.0703,0.8320313 -0.55079,1.2773438 -0.0234,0.035156 -0.0469,0.058594 -0.0469,0.09375 0,0.046875 0.0586,0.09375 0.0937,0.09375 0.10547,0 0.69141,-0.5625 0.69141,-1.3945313 0,-0.421875 -0.16407,-0.75 -0.48047,-0.75 -0.23438,0 -0.39844,0.1757813 -0.39844,0.3867188 0,0.234375 0.15234,0.4101562 0.39844,0.4101562 0.16406,0 0.28125,-0.1171875 0.29297,-0.1171875 z m 2.85644,-4.5117187 c 0,-0.011719 0.0234,-0.1054688 0.0234,-0.1171875 0,-0.035156 -0.0234,-0.09375 -0.10547,-0.09375 -0.14063,0 -0.72656,0.058594 -0.90234,0.070312 -0.0469,0.011719 -0.14063,0.011719 -0.14063,0.1640625 0,0.09375 0.0937,0.09375 0.17578,0.09375 0.32813,0 0.32813,0.046875 0.32813,0.1054687 0,0.046875 -0.0117,0.09375 -0.0234,0.1523438 l -0.86719,3.44531246 c -0.0234,0.0703125 -0.0234,0.14062504 -0.0234,0.21093754 0,0.4570312 0.39844,0.6679687 0.72657,0.6679687 0.17578,0 0.375,-0.058594 0.5625,-0.375 0.14062,-0.2578125 0.24609,-0.66796874 0.24609,-0.69140624 0,-0.09375 -0.0937,-0.09375 -0.11719,-0.09375 -0.0937,0 -0.10547,0.046875 -0.14062,0.1640625 -0.082,0.35156254 -0.22266,0.79687504 -0.51563,0.79687504 -0.1875,0 -0.23437,-0.1757813 -0.23437,-0.3398438 0,-0.070312 0.0117,-0.2109375 0.0351,-0.28125 z m 0,0"
         style="fill:#000000;fill-opacity:1;fill-rule:nonzero;stroke:none" />
      <path
         id="path27"
         d="m 166.79554,-3.2588203 c 0.15234,0 0.33984,0 0.33984,-0.1992188 0,-0.1992187 -0.1875,-0.1992187 -0.32812,-0.1992187 h -5.96485 c -0.14062,0 -0.32812,0 -0.32812,0.1992187 0,0.1992188 0.1875,0.1992188 0.33984,0.1992188 z m 0.0117,1.9335937 c 0.14062,0 0.32812,0 0.32812,-0.1992187 0,-0.1992188 -0.1875,-0.1992188 -0.33984,-0.1992188 h -5.94141 c -0.15234,0 -0.33984,0 -0.33984,0.1992188 0,0.1992187 0.1875,0.1992187 0.32812,0.1992187 z m 6.57715,-5.0507812 c 0,-0.234375 0,-0.2578125 -0.23438,-0.2578125 -0.60937,0.6328125 -1.48828,0.6328125 -1.80469,0.6328125 v 0.3164062 c 0.19922,0 0.78516,0 1.30079,-0.2578125 v 5.15625004 c 0,0.3515625 -0.0352,0.48046875 -0.92579,0.48046875 h -0.3164 v 0.3046875 c 0.35156,-0.03515625 1.20703,-0.03515625 1.60547,-0.03515625 0.39843,0 1.26562,0 1.61718,0.03515625 v -0.3046875 h -0.3164 c -0.90235,0 -0.92578,-0.1171875 -0.92578,-0.48046875 z m 0,0"
         style="fill:#000000;fill-opacity:1;fill-rule:nonzero;stroke:none" />
      <path
         id="path28"
         d="m 177.47718,-0.01272656 c 0,-0.65625 -0.25781,-1.04296874 -0.64453,-1.04296874 -0.32813,0 -0.52735,0.24609374 -0.52735,0.52734374 0,0.26953125 0.19922,0.52734375 0.52735,0.52734375 0.11719,0 0.24609,-0.03515625 0.35156,-0.12890625 0.0234,-0.0234375 0.0352,-0.0351563 0.0469,-0.0351563 0.0117,0 0.0234,0.0117188 0.0234,0.15234375 0,0.73828125 -0.35156,1.33593741 -0.67968,1.66406241 -0.10547,0.1054688 -0.10547,0.1289063 -0.10547,0.1640625 0,0.070312 0.0469,0.1054688 0.0937,0.1054688 0.11718,0 0.91406,-0.7617188 0.91406,-1.93359371 z m 0,0"
         style="fill:#000000;fill-opacity:1;fill-rule:nonzero;stroke:none" />
      <path
         id="path29"
         d="m 185.3639,-6.5400703 c 0.0586,-0.1054688 0.0586,-0.1289063 0.0586,-0.1757813 0,-0.09375 -0.082,-0.1992187 -0.19922,-0.1992187 -0.1289,0 -0.19922,0.1171875 -0.23437,0.234375 l -0.82031,2.1914062 h -3.03516 l -0.82031,-2.1914062 c -0.0586,-0.140625 -0.10547,-0.234375 -0.23438,-0.234375 -0.0937,0 -0.19922,0.1054687 -0.19922,0.1992187 0,0.023437 0,0.035156 0.0586,0.1757813 l 2.48437,6.52734374 c 0.0469,0.140625 0.0937,0.234375 0.22266,0.234375 0.14062,0 0.1875,-0.1171875 0.22265,-0.2109375 z m -4.06641,2.4492187 h 2.70703 l -1.35937,3.53906254 z m 0,0"
         style="fill:#000000;fill-opacity:1;fill-rule:nonzero;stroke:none" />
      <path
         id="path30"
         d="m 188.70667,2.3896172 c 0,-0.035156 0,-0.046875 -0.16406,-0.2226563 -1.24219,-1.25390621 -1.57031,-3.12890621 -1.57031,-4.6640625 0,-1.7226562 0.38672,-3.4570312 1.60547,-4.7109375 0.1289,-0.1171875 0.1289,-0.1289062 0.1289,-0.1640625 0,-0.070312 -0.0352,-0.1054687 -0.0937,-0.1054687 -0.10547,0 -0.99609,0.6796875 -1.58203,1.9453125 -0.51562,1.1015625 -0.63281,2.203125 -0.63281,3.0351562 0,0.7851563 0.11719,1.99218754 0.65625,3.11718754 0.59765,1.21874996 1.45312,1.87499996 1.55859,1.87499996 0.0586,0 0.0937,-0.035156 0.0937,-0.1054687 z m 0,0"
         style="fill:#000000;fill-opacity:1;fill-rule:nonzero;stroke:none" />
      <path
         id="path31"
         d="m 190.16566,-0.58694531 c -0.0352,0.15234375 -0.0937,0.375 -0.0937,0.421875 0,0.1875 0.14062,0.26953125 0.29297,0.26953125 0.11718,0 0.29296,-0.0703125 0.36328,-0.26953125 0.0117,-0.0234375 0.1289,-0.4921875 0.1875,-0.73828125 l 0.22265,-0.90234374 c 0.0586,-0.2226563 0.11719,-0.4335938 0.17578,-0.6679688 0.0352,-0.1640625 0.11719,-0.4570312 0.12891,-0.4921875 0.14063,-0.3164062 0.66797,-1.21875 1.61719,-1.21875 0.44531,0 0.53906,0.3632813 0.53906,0.6914063 0,0.2578125 -0.0703,0.5390625 -0.15234,0.8320312 l -0.26953,1.1601563 -0.19922,0.74999999 c -0.0469,0.19921875 -0.14063,0.5390625 -0.14063,0.5859375 0,0.1875 0.14063,0.26953125 0.29297,0.26953125 0.30469,0 0.375,-0.24609375 0.44531,-0.5625 0.14063,-0.56250004 0.51563,-2.01562504 0.59766,-2.40234374 0.0352,-0.1289063 0.5625,-1.3242188 1.65234,-1.3242188 0.42188,0 0.53907,0.3398438 0.53907,0.6914063 0,0.5742187 -0.42188,1.7109375 -0.6211,2.2382812 -0.0937,0.234375 -0.1289,0.35156254 -0.1289,0.55078129 0,0.46875 0.35156,0.80859375 0.80859,0.80859375 0.9375,0 1.3125,-1.45312504 1.3125,-1.53515624 0,-0.09375 -0.0937,-0.09375 -0.11719,-0.09375 -0.10547,0 -0.10547,0.023437 -0.15234,0.1757812 -0.15235,0.52734379 -0.46875,1.24218754 -1.01953,1.24218754 -0.16407,0 -0.23438,-0.10546875 -0.23438,-0.328125 0,-0.2578125 0.082,-0.4921875 0.17578,-0.71484374 0.1875,-0.515625 0.60938,-1.6171875 0.60938,-2.1914063 0,-0.6445312 -0.39844,-1.0664062 -1.14844,-1.0664062 -0.75,0 -1.25391,0.4453125 -1.61719,0.9726562 -0.0117,-0.1289062 -0.0469,-0.46875 -0.32812,-0.7148437 -0.2461,-0.1992188 -0.5625,-0.2578125 -0.8086,-0.2578125 -0.90234,0 -1.38281,0.6445312 -1.55859,0.8671875 -0.0469,-0.5625 -0.46875,-0.8671875 -0.91406,-0.8671875 -0.45703,0 -0.64453,0.3867187 -0.73828,0.5742187 -0.17578,0.3398438 -0.30469,0.9375 -0.30469,0.9609375 0,0.1054688 0.0937,0.1054688 0.11719,0.1054688 0.0937,0 0.10547,-0.011719 0.16406,-0.234375 0.17578,-0.703125 0.375,-1.1835938 0.72656,-1.1835938 0.16406,0 0.31641,0.082031 0.31641,0.4570313 0,0.2109375 -0.0352,0.3164062 -0.16406,0.8320312 z m 9.89648,0.57421875 c 0,-0.65625 -0.25781,-1.04296874 -0.64453,-1.04296874 -0.32813,0 -0.52734,0.24609374 -0.52734,0.52734374 0,0.26953125 0.19921,0.52734375 0.52734,0.52734375 0.11719,0 0.24609,-0.03515625 0.35156,-0.12890625 0.0234,-0.0234375 0.0352,-0.0351563 0.0469,-0.0351563 0.0117,0 0.0234,0.0117188 0.0234,0.15234375 0,0.73828125 -0.35156,1.33593741 -0.67968,1.66406241 -0.10547,0.1054688 -0.10547,0.1289063 -0.10547,0.1640625 0,0.070312 0.0469,0.1054688 0.0937,0.1054688 0.11719,0 0.91406,-0.7617188 0.91406,-1.93359371 z m 5.21191,-6.21093754 c 0,-0.1992187 -0.1289,-0.3632812 -0.36328,-0.3632812 -0.26953,0 -0.53906,0.2578125 -0.53906,0.5273437 0,0.1875 0.14063,0.3632813 0.375,0.3632813 0.23438,0 0.52734,-0.234375 0.52734,-0.5273438 z m -0.75,3.7382813 c 0.11719,-0.28125 0.11719,-0.3046875 0.22266,-0.5742188 0.0703,-0.1992187 0.12891,-0.3398437 0.12891,-0.5273437 0,-0.4453125 -0.32813,-0.8203125 -0.82032,-0.8203125 -0.9375,0 -1.3125,1.453125 -1.3125,1.5351562 0,0.1054688 0.0937,0.1054688 0.11719,0.1054688 0.0937,0 0.10547,-0.023437 0.15235,-0.1875 0.26953,-0.9375 0.66796,-1.2304688 1.00781,-1.2304688 0.082,0 0.25781,0 0.25781,0.3164063 0,0.2109375 -0.0703,0.421875 -0.11719,0.515625 -0.082,0.2578125 -0.52734,1.4179687 -0.67968,1.8515625 -0.10547,0.2578125 -0.23438,0.58593749 -0.23438,0.79687499 0,0.46875 0.33984,0.80859375 0.82031,0.80859375 0.9375,0 1.30078,-1.44140624 1.30078,-1.53515624 0,-0.09375 -0.0937,-0.09375 -0.11718,-0.09375 -0.10547,0 -0.10547,0.023437 -0.15235,0.1757812 -0.17578,0.63281254 -0.5039,1.24218754 -1.01953,1.24218754 -0.16406,0 -0.23437,-0.10546875 -0.23437,-0.328125 0,-0.2578125 0.0586,-0.3984375 0.29297,-0.99609374 z m 0,0"
         style="fill:#000000;fill-opacity:1;fill-rule:nonzero;stroke:none" />
      <path
         id="path32"
         d="m 208.77796,-2.4971016 c 0,-0.7734375 -0.11719,-1.9804687 -0.65625,-3.1054687 -0.59766,-1.21875 -1.46484,-1.875 -1.55859,-1.875 -0.0586,0 -0.10547,0.046875 -0.10547,0.1054687 0,0.035156 0,0.046875 0.19922,0.234375 0.97265,0.984375 1.53515,2.5664063 1.53515,4.640625 0,1.71093754 -0.36328,3.45703129 -1.59375,4.7226563 -0.14062,0.1171875 -0.14062,0.1289062 -0.14062,0.1640625 0,0.058594 0.0469,0.1054687 0.10547,0.1054687 0.0937,0 0.99609,-0.6796875 1.58203,-1.94531246 0.5039,-1.1015625 0.63281,-2.20312504 0.63281,-3.04687504 z m 0,0"
         style="fill:#000000;fill-opacity:1;fill-rule:nonzero;stroke:none" />
      <path
         id="path33"
         d="m 211.79847,-0.01272656 c 0,-0.65625 -0.25781,-1.04296874 -0.64453,-1.04296874 -0.32813,0 -0.52735,0.24609374 -0.52735,0.52734374 0,0.26953125 0.19922,0.52734375 0.52735,0.52734375 0.11719,0 0.24609,-0.03515625 0.35156,-0.12890625 0.0234,-0.0234375 0.0352,-0.0351563 0.0469,-0.0351563 0.0117,0 0.0234,0.0117188 0.0234,0.15234375 0,0.73828125 -0.35156,1.33593741 -0.67968,1.66406241 -0.10547,0.1054688 -0.10547,0.1289063 -0.10547,0.1640625 0,0.070312 0.0469,0.1054688 0.0937,0.1054688 0.11718,0 0.91406,-0.7617188 0.91406,-1.93359371 z m 0,0"
         style="fill:#000000;fill-opacity:1;fill-rule:nonzero;stroke:none" />
      <path
         id="path34"
         d="m 217.49085,2.3896172 c 0,-0.035156 0,-0.046875 -0.16406,-0.2226563 -1.24219,-1.25390621 -1.57031,-3.12890621 -1.57031,-4.6640625 0,-1.7226562 0.38672,-3.4570312 1.60547,-4.7109375 0.1289,-0.1171875 0.1289,-0.1289062 0.1289,-0.1640625 0,-0.070312 -0.0351,-0.1054687 -0.0937,-0.1054687 -0.10547,0 -0.99609,0.6796875 -1.58203,1.9453125 -0.51562,1.1015625 -0.63281,2.203125 -0.63281,3.0351562 0,0.7851563 0.11719,1.99218754 0.65625,3.11718754 0.59765,1.21874996 1.45312,1.87499996 1.55859,1.87499996 0.0586,0 0.0937,-0.035156 0.0937,-0.1054687 z m 0,0"
         style="fill:#000000;fill-opacity:1;fill-rule:nonzero;stroke:none" />
      <path
         id="path35"
         d="m 218.94984,-0.58694531 c -0.0352,0.15234375 -0.0937,0.375 -0.0937,0.421875 0,0.1875 0.14062,0.26953125 0.29296,0.26953125 0.11719,0 0.29297,-0.0703125 0.36329,-0.26953125 0.0117,-0.0234375 0.1289,-0.4921875 0.1875,-0.73828125 l 0.22265,-0.90234374 c 0.0586,-0.2226563 0.11719,-0.4335938 0.17578,-0.6679688 0.0352,-0.1640625 0.11719,-0.4570312 0.12891,-0.4921875 0.14062,-0.3164062 0.66797,-1.21875 1.61719,-1.21875 0.44531,0 0.53906,0.3632813 0.53906,0.6914063 0,0.6210937 -0.49219,1.8984375 -0.64453,2.3320312 -0.0937,0.22265629 -0.10547,0.33984379 -0.10547,0.45703129 0,0.46875 0.35156,0.80859375 0.82031,0.80859375 0.9375,0 1.30078,-1.45312504 1.30078,-1.53515624 0,-0.09375 -0.082,-0.09375 -0.11718,-0.09375 -0.0937,0 -0.0937,0.023437 -0.15235,0.1757812 -0.19922,0.67968754 -0.52734,1.24218754 -1.00781,1.24218754 -0.17578,0 -0.24609,-0.10546875 -0.24609,-0.328125 0,-0.2578125 0.0937,-0.4921875 0.1875,-0.71484374 0.1875,-0.5273438 0.59765,-1.6171875 0.59765,-2.1914063 0,-0.6679687 -0.42187,-1.0664062 -1.13672,-1.0664062 -0.90234,0 -1.38281,0.6445312 -1.55859,0.8671875 -0.0469,-0.5507813 -0.45703,-0.8671875 -0.91406,-0.8671875 -0.45703,0 -0.64453,0.3867187 -0.75,0.5742187 -0.15235,0.3398438 -0.29297,0.9257813 -0.29297,0.9609375 0,0.1054688 0.0937,0.1054688 0.11719,0.1054688 0.0937,0 0.10546,-0.011719 0.16406,-0.234375 0.17578,-0.703125 0.375,-1.1835938 0.72656,-1.1835938 0.19922,0 0.31641,0.1289063 0.31641,0.4570313 0,0.2109375 -0.0352,0.3164062 -0.16407,0.8320312 z m 7.12793,0.57421875 c 0,-0.65625 -0.25782,-1.04296874 -0.64454,-1.04296874 -0.32812,0 -0.52734,0.24609374 -0.52734,0.52734374 0,0.26953125 0.19922,0.52734375 0.52734,0.52734375 0.11719,0 0.2461,-0.03515625 0.35157,-0.12890625 0.0234,-0.0234375 0.0352,-0.0351563 0.0469,-0.0351563 0.0117,0 0.0234,0.0117188 0.0234,0.15234375 0,0.73828125 -0.35156,1.33593741 -0.67969,1.66406241 -0.10547,0.1054688 -0.10547,0.1289063 -0.10547,0.1640625 0,0.070312 0.0469,0.1054688 0.0937,0.1054688 0.11719,0 0.91407,-0.7617188 0.91407,-1.93359371 z m 6.33398,-6.21093754 c 0,-0.1875 -0.12891,-0.3632812 -0.375,-0.3632812 -0.22266,0 -0.52734,0.234375 -0.52734,0.5273437 0,0.1992188 0.14062,0.3632813 0.375,0.3632813 0.26953,0 0.52734,-0.2578125 0.52734,-0.5273438 z m -1.99219,6.72656254 c -0.19922,0.74999996 -0.66797,1.32421876 -1.23047,1.32421876 -0.0586,0 -0.21093,0 -0.38671,-0.09375 0.29296,-0.070312 0.44531,-0.328125 0.44531,-0.5273438 0,-0.1640625 -0.10547,-0.35156246 -0.375,-0.35156246 -0.2461,0 -0.53906,0.21093746 -0.53906,0.57421876 0,0.3984375 0.39843,0.609375 0.8789,0.609375 0.69141,0 1.61719,-0.5273438 1.875,-1.51171876 l 0.91406,-3.64453124 c 0.0469,-0.1992188 0.0469,-0.3398438 0.0469,-0.375 0,-0.5625 -0.42188,-0.9140625 -0.91406,-0.9140625 -1.01953,0 -1.58203,1.453125 -1.58203,1.5351562 0,0.1054688 0.0937,0.1054688 0.11718,0.1054688 0.0937,0 0.0937,-0.011719 0.17578,-0.1992188 0.2461,-0.609375 0.71485,-1.21875 1.25391,-1.21875 0.14063,0 0.31641,0.035156 0.31641,0.4570313 0,0.234375 -0.0234,0.3398437 -0.0586,0.5039062 z m 0,0"
         style="fill:#000000;fill-opacity:1;fill-rule:nonzero;stroke:none" />
      <path
         id="path36"
         d="m 236.03577,-2.4971016 c 0,-0.7734375 -0.11718,-1.9804687 -0.65625,-3.1054687 -0.59765,-1.21875 -1.46484,-1.875 -1.55859,-1.875 -0.0586,0 -0.10547,0.046875 -0.10547,0.1054687 0,0.035156 0,0.046875 0.19922,0.234375 0.97266,0.984375 1.53516,2.5664063 1.53516,4.640625 0,1.71093754 -0.36329,3.45703129 -1.59375,4.7226563 -0.14063,0.1171875 -0.14063,0.1289062 -0.14063,0.1640625 0,0.058594 0.0469,0.1054687 0.10547,0.1054687 0.0937,0 0.99609,-0.6796875 1.58203,-1.94531246 0.50391,-1.1015625 0.63281,-2.20312504 0.63281,-3.04687504 z m 0,0"
         style="fill:#000000;fill-opacity:1;fill-rule:nonzero;stroke:none" />
      <path
         id="path37"
         d="m 245.2555,-2.2978828 c 0.16406,0 0.35156,0 0.35156,-0.1992188 0,-0.1992187 -0.1875,-0.1992187 -0.35156,-0.1992187 h -4.23047 c 0.12891,-1.3242188 1.26563,-2.2851563 2.67188,-2.2851563 h 1.55859 c 0.16406,0 0.35156,0 0.35156,-0.1992187 0,-0.1992188 -0.1875,-0.1992188 -0.35156,-0.1992188 h -1.57031 c -1.71094,0 -3.0586,1.2890625 -3.0586,2.8828125 0,1.59375004 1.34766,2.89453129 3.0586,2.89453129 h 1.57031 c 0.16406,0 0.35156,0 0.35156,-0.19921875 0,-0.19921875 -0.1875,-0.19921875 -0.35156,-0.19921875 h -1.55859 c -1.40625,0 -2.54297,-0.9609375 -2.67188,-2.29687499 z m 0,0"
         style="fill:#000000;fill-opacity:1;fill-rule:nonzero;stroke:none" />
      <path
         id="path38"
         d="m 256.7721,-6.9267891 c 0,-0.023437 -0.0234,-0.09375 -0.10547,-0.09375 -0.0351,0 -0.0469,0.011719 -0.15234,0.1171875 l -0.70313,0.7617188 c -0.082,-0.140625 -0.53906,-0.8789063 -1.65234,-0.8789063 -2.21484,0 -4.45312,2.203125 -4.45312,4.5117188 0,1.64062499 1.17187,2.73046874 2.69531,2.73046874 0.86719,0 1.61719,-0.3984375 2.14453,-0.85546875 0.9375,-0.82031249 1.10156,-1.72265629 1.10156,-1.75781249 0,-0.1054688 -0.10547,-0.1054688 -0.11719,-0.1054688 -0.0586,0 -0.11718,0.023437 -0.1289,0.1054688 -0.0937,0.2929687 -0.31641,0.9960937 -1.00781,1.57031249 -0.69141,0.5625 -1.3125,0.7265625 -1.83985,0.7265625 -0.89062,0 -1.94531,-0.515625 -1.94531,-2.06249999 0,-0.5742188 0.21094,-2.1914063 1.20703,-3.3515625 0.60938,-0.703125 1.53516,-1.2070313 2.42578,-1.2070313 1.01953,0 1.60547,0.7734375 1.60547,1.921875 0,0.3984375 -0.0352,0.4101563 -0.0352,0.5039063 0,0.1054687 0.11719,0.1054687 0.15235,0.1054687 0.1289,0 0.1289,-0.023437 0.17578,-0.1992187 z m 1.73145,6.91406254 c 0,-0.65625 -0.25782,-1.04296874 -0.64453,-1.04296874 -0.32813,0 -0.52735,0.24609374 -0.52735,0.52734374 0,0.26953125 0.19922,0.52734375 0.52735,0.52734375 0.11718,0 0.24609,-0.03515625 0.35156,-0.12890625 0.0234,-0.0234375 0.0351,-0.0351563 0.0469,-0.0351563 0.0117,0 0.0234,0.0117188 0.0234,0.15234375 0,0.73828125 -0.35156,1.33593741 -0.67969,1.66406241 -0.10547,0.1054688 -0.10547,0.1289063 -0.10547,0.1640625 0,0.070312 0.0469,0.1054688 0.0937,0.1054688 0.11719,0 0.91407,-0.7617188 0.91407,-1.93359371 z m 0,0"
         style="fill:#000000;fill-opacity:1;fill-rule:nonzero;stroke:none" />
      <path
         id="path39"
         d="m 266.39613,-6.5400703 c 0.0586,-0.1054688 0.0586,-0.1289063 0.0586,-0.1757813 0,-0.09375 -0.082,-0.1992187 -0.19922,-0.1992187 -0.12891,0 -0.19922,0.1171875 -0.23437,0.234375 l -0.82032,2.1914062 h -3.03515 l -0.82032,-2.1914062 c -0.0586,-0.140625 -0.10546,-0.234375 -0.23437,-0.234375 -0.0937,0 -0.19922,0.1054687 -0.19922,0.1992187 0,0.023437 0,0.035156 0.0586,0.1757813 l 2.48438,6.52734374 c 0.0469,0.140625 0.0937,0.234375 0.22266,0.234375 0.14062,0 0.1875,-0.1171875 0.22265,-0.2109375 z m -4.06641,2.4492187 h 2.70703 l -1.35937,3.53906254 z m 0,0"
         style="fill:#000000;fill-opacity:1;fill-rule:nonzero;stroke:none" />
      <path
         id="path40"
         d="m 269.77405,-3.0127266 c 0.0586,-0.2578125 0.29297,-1.171875 0.98438,-1.171875 0.0469,0 0.29297,0 0.50391,0.1289063 -0.28125,0.046875 -0.48047,0.3046875 -0.48047,0.5390625 0,0.1640625 0.10547,0.3515625 0.375,0.3515625 0.22265,0 0.53906,-0.1875 0.53906,-0.5859375 0,-0.515625 -0.58594,-0.65625 -0.92578,-0.65625 -0.57422,0 -0.92578,0.5273437 -1.04297,0.7617187 -0.25781,-0.65625 -0.78516,-0.7617187 -1.07813,-0.7617187 -1.04296,0 -1.60546,1.2890625 -1.60546,1.5351562 0,0.1054688 0.10546,0.1054688 0.11718,0.1054688 0.082,0 0.11719,-0.023437 0.12891,-0.1171875 0.33984,-1.0546875 0.99609,-1.3007813 1.33594,-1.3007813 0.1875,0 0.53906,0.09375 0.53906,0.6679688 0,0.3046875 -0.16406,0.9726562 -0.53906,2.3671875 -0.15235,0.62109374 -0.50391,1.04296874 -0.94922,1.04296874 -0.0586,0 -0.28125,0 -0.49219,-0.12890625 0.24609,-0.0585938 0.46875,-0.26953125 0.46875,-0.5390625 0,-0.26953129 -0.22266,-0.35156249 -0.375,-0.35156249 -0.29297,0 -0.53906,0.25781249 -0.53906,0.57421874 0,0.45703125 0.49219,0.65625 0.9375,0.65625 0.65625,0 1.00781,-0.69140625 1.04297,-0.75 0.11718,0.36328125 0.48047,0.75 1.07812,0.75 1.01953,0 1.59375,-1.27734374 1.59375,-1.53515624 0,-0.09375 -0.0937,-0.09375 -0.1289,-0.09375 -0.082,0 -0.10547,0.035156 -0.12891,0.1054687 -0.32813,1.06640629 -0.99609,1.31250004 -1.32422,1.31250004 -0.38672,0 -0.53906,-0.328125 -0.53906,-0.65625 0,-0.22265625 0.0586,-0.44531254 0.16406,-0.87890624 z m 0,0"
         style="fill:#000000;fill-opacity:1;fill-rule:nonzero;stroke:none" />
      <path
         id="path41"
         d="m 280.3678,-2.2978828 c 0.16407,0 0.35157,0 0.35157,-0.1992188 0,-0.1992187 -0.1875,-0.1992187 -0.35157,-0.1992187 h -4.23046 c 0.1289,-1.3242188 1.26562,-2.2851563 2.67187,-2.2851563 h 1.55859 c 0.16407,0 0.35157,0 0.35157,-0.1992187 0,-0.1992188 -0.1875,-0.1992188 -0.35157,-0.1992188 h -1.57031 c -1.71094,0 -3.05859,1.2890625 -3.05859,2.8828125 0,1.59375004 1.34765,2.89453129 3.05859,2.89453129 h 1.57031 c 0.16407,0 0.35157,0 0.35157,-0.19921875 0,-0.19921875 -0.1875,-0.19921875 -0.35157,-0.19921875 h -1.55859 c -1.40625,0 -2.54297,-0.9609375 -2.67187,-2.29687499 z m 0,0"
         style="fill:#000000;fill-opacity:1;fill-rule:nonzero;stroke:none" />
      <path
         id="path42"
         d="m 289.14515,-4.0908516 -0.83203,-1.9921875 c -0.0352,-0.070312 -0.0469,-0.1171875 -0.0469,-0.1289062 0,-0.058594 0.16406,-0.2460938 0.58594,-0.28125 0.0937,-0.011719 0.19922,-0.023437 0.19922,-0.1875 0,-0.1289063 -0.11719,-0.1289063 -0.15235,-0.1289063 -0.41015,0 -0.83203,0.035156 -1.2539,0.035156 -0.2461,0 -0.86719,-0.035156 -1.11328,-0.035156 -0.0586,0 -0.1875,0 -0.1875,0.1992188 0,0.1171875 0.10547,0.1171875 0.23437,0.1171875 0.59766,0 0.65625,0.09375 0.75,0.3164062 l 1.17188,2.7773438 -2.09766,2.2617187 -0.12891,0.1054688 c -0.49218,0.52734374 -0.96093,0.69140624 -1.46484,0.72656249 -0.12891,0 -0.22266,0 -0.22266,0.19921875 0,0 0,0.10546875 0.12891,0.10546875 0.30469,0 0.63281,-0.03515625 0.9375,-0.03515625 0.36328,0 0.76172,0.03515625 1.11328,0.03515625 0.0586,0 0.17578,0 0.17578,-0.19921875 0,-0.10546875 -0.0937,-0.10546875 -0.11718,-0.10546875 -0.082,-0.0117188 -0.39844,-0.0351563 -0.39844,-0.31640625 0,-0.15234375 0.15234,-0.31640625 0.26953,-0.44531254 l 1.01953,-1.078125 0.89063,-0.9726562 1.00781,2.37890624 c 0.0469,0.10546875 0.0469,0.1171875 0.0469,0.140625 0,0.0820313 -0.1875,0.24609375 -0.57422,0.29296875 -0.10546,0 -0.19921,0.0117188 -0.19921,0.1875 0,0.1171875 0.11718,0.1171875 0.15234,0.1171875 0.28125,0 0.97266,-0.03515625 1.25391,-0.03515625 0.24609,0 0.85546,0.03515625 1.10156,0.03515625 0.0703,0 0.19922,0 0.19922,-0.1875 0,-0.1171875 -0.10547,-0.1171875 -0.1875,-0.1171875 -0.66797,-0.0117188 -0.67969,-0.046875 -0.85547,-0.4453125 -0.38672,-0.92578129 -1.05469,-2.47265629 -1.28906,-3.07031249 0.67968,-0.703125 1.73437,-1.8867188 2.05078,-2.1679688 0.28125,-0.234375 0.66797,-0.4804687 1.26562,-0.5039062 0.12891,-0.011719 0.21094,-0.011719 0.21094,-0.1992188 0,-0.011719 0,-0.1171875 -0.12891,-0.1171875 -0.29297,0 -0.62109,0.035156 -0.9375,0.035156 -0.36328,0 -0.73828,-0.035156 -1.10156,-0.035156 -0.0586,0 -0.1875,0 -0.1875,0.1992188 0,0.070312 0.0469,0.1054687 0.11719,0.1171875 0.0937,0.011719 0.39844,0.023437 0.39844,0.3046875 0,0.140625 -0.10547,0.2695312 -0.1875,0.3632812 z m 0,0"
         style="fill:#000000;fill-opacity:1;fill-rule:nonzero;stroke:none" />
      <path
         id="path43"
         d="m 295.21546,-6.3056953 h 0.25781 l 1.04297,1.6171875 c 0.0703,0.1171875 0.23438,0.3867187 0.31641,0.4921875 0.0469,0.082031 0.0703,0.082031 0.23437,0.082031 h 0.96094 c 0.11719,0 0.22266,0 0.22266,-0.1289062 0,-0.046875 -0.0352,-0.1054688 -0.10547,-0.1171875 -0.25781,-0.058594 -0.59766,-0.515625 -0.76172,-0.7382813 -0.0469,-0.070312 -0.39844,-0.5273437 -0.86719,-1.2773437 0.6211,-0.1171875 1.21875,-0.3867188 1.21875,-1.2070313 0,-0.9726562 -1.01953,-1.3125 -1.83984,-1.3125 h -2.19141 c -0.1289,0 -0.23437,0 -0.23437,0.1289063 0,0.1171875 0.1289,0.1171875 0.1875,0.1171875 0.39843,0 0.42187,0.046875 0.42187,0.3984375 v 3.4921875 c 0,0.3515625 -0.0234,0.3984375 -0.42187,0.3984375 -0.0586,0 -0.1875,0 -0.1875,0.1171875 0,0.1289062 0.10547,0.1289062 0.23437,0.1289062 h 1.91016 c 0.11719,0 0.22265,0 0.22265,-0.1289062 0,-0.1171875 -0.11718,-0.1171875 -0.1875,-0.1171875 -0.39843,0 -0.43359,-0.058594 -0.43359,-0.3984375 z m 1.34766,-0.3398438 c 0.19922,-0.2578125 0.22265,-0.6328125 0.22265,-0.9375 0,-0.328125 -0.0469,-0.703125 -0.26953,-0.984375 0.29297,0.058594 0.97266,0.28125 0.97266,0.984375 0,0.4453125 -0.19922,0.8085938 -0.92578,0.9375 z m -1.34766,-1.6289062 c 0,-0.140625 0,-0.375 0.43359,-0.375 0.59766,0 0.89063,0.2460937 0.89063,1.0664062 0,0.9023438 -0.22266,1.03125 -1.32422,1.03125 z m -0.9375,3.9140625 c 0.0469,-0.1289063 0.0469,-0.3164063 0.0469,-0.3867188 v -3.515625 c 0,-0.070312 0,-0.2578125 -0.0469,-0.3867187 h 0.78516 c -0.082,0.1171875 -0.082,0.2578125 -0.082,0.3632812 v 3.5390625 c 0,0.070312 0,0.2578125 0.0469,0.3867188 z m 1.47656,-1.9453125 c 0.0469,0 0.082,-0.011719 0.14063,-0.011719 0.10547,0 0.25781,-0.011719 0.36328,-0.023437 0.0937,0.1640625 0.85547,1.40625 1.42969,1.9804688 h -0.67969 z m 0,0"
         style="fill:#000000;fill-opacity:1;fill-rule:nonzero;stroke:none" />
    </g>
  </g>
</svg>
