<svg xmlns="http://www.w3.org/2000/svg" width="744.105" height="64.973"><g aria-label="U AGV (m,i,α 1)(n,j,α 2) +U AGV (n,j,α 2)(m,i,α 1) +3−P Y(m,i,α 1),y −P Y(n,j,α 2),y −x ′∑ x=1 (P X(m,i,α 1−1),x +P X(n,j,α 2),x −P X(m,i,α 1),x −P X(n,j,α 2−1),x )≥0, ∀(m,i,α 1),(n,j,α 2)∈W H∀y∈Y R,∀x ′∈X R"><path d="M6.327-5.754c.094-.41.281-.715 1.078-.739.047 0 .164-.011.164-.199 0-.011 0-.117-.129-.117-.328 0-.68.035-1.02.035-.34 0-.702-.035-1.03-.035-.06 0-.176 0-.176.2 0 .116.093.116.175.116.563.012.68.211.68.434 0 .035-.023.176-.035.211l-.89 3.55C4.803-.96 3.654-.093 2.658-.093c-.68 0-1.219-.434-1.219-1.29 0-.023 0-.339.117-.773l.961-3.879c.094-.363.106-.457.832-.457.27 0 .34 0 .34-.199 0-.117-.105-.117-.14-.117-.27 0-.996.035-1.266.035-.293 0-.996-.035-1.289-.035-.082 0-.188 0-.188.2 0 .116.094.116.282.116.011 0 .21 0 .375.012.175.024.27.035.27.164 0 .059-.106.48-.177.703l-.21.88c-.094.386-.575 2.273-.61 2.46-.07.281-.07.434-.07.574 0 1.22.902 1.922 1.957 1.922 1.254 0 2.484-1.125 2.812-2.449zM13.443-4.114v-.246h-.14c-.47 0-.516-.07-.586-.27l-1.7-4.3c-.035-.106-.058-.152-.199-.152-.129 0-.152.046-.187.152L9.014-4.84c-.07.164-.188.48-.81.48v.246c.235-.023.481-.023.716-.023.281 0 .797.023.832.023v-.246c-.305 0-.492-.14-.492-.34 0-.058 0-.07.035-.14l.328-.856h1.98l.41 1.02c.012.035.036.082.036.117 0 .2-.387.2-.575.2v.245l1.043-.023c.329 0 .856.012.926.023zM11.51-5.942H9.717l.902-2.273zm7.778.153v-.247c-.047 0-.563.024-.902.024-.364 0-.891 0-1.254-.024v.247h.257c.704 0 .704.093.704.328v.445c0 .152 0 .422-.399.621-.34.164-.738.164-.82.164-.797 0-2.086-.445-2.086-2.262 0-1.863 1.324-2.273 2.016-2.273.68 0 1.511.457 1.699 1.664.011.082.07.082.129.082.117 0 .117-.047.117-.187v-1.63c0-.116 0-.175-.094-.175-.023 0-.058 0-.117.082l-.375.527a1.98 1.98 0 0 0-1.441-.61c-1.454 0-2.672 1.126-2.672 2.52 0 1.372 1.183 2.52 2.683 2.52.387 0 1.16-.07 1.489-.563.117.188.375.422.445.422.082 0 .082-.082.082-.175v-1.196c0-.304.07-.304.539-.304zm6.094-2.836v-.246c-.211.011-.48.023-.68.023-.281 0-.797-.023-.844-.023v.246c.258 0 .48.117.48.328 0 .047-.011.094-.023.14l-1.453 3.375-1.5-3.539c-.047-.082-.047-.093-.047-.117 0-.187.364-.187.551-.187v-.246l-1.031.023c-.352 0-.88-.023-.903-.023v.246h.13c.374 0 .492.035.585.246l1.805 4.242c.047.117.07.164.2.164.07 0 .14 0 .21-.152l1.723-4.043c.094-.211.258-.446.797-.457zM9.274-2.376C7.95-1.451 7.598.038 7.598 1.104c0 .985.293 2.508 1.676 3.48.059 0 .14 0 .14-.081 0-.047-.023-.059-.07-.106C8.42 3.565 8.08 2.381 8.08 1.104c0-1.875.715-2.8 1.289-3.316.023-.024.047-.047.047-.082 0-.082-.082-.082-.14-.082zM12.94 2.288c-.036.14-.094.375-.094.41 0 .152.128.223.234.223a.342.342 0 0 0 .27-.153c.035-.058.093-.293.128-.433.036-.13.118-.457.153-.633.047-.153.082-.305.117-.457.082-.305.082-.317.223-.54.222-.34.562-.738 1.113-.738.387 0 .41.329.41.493 0 .421-.305 1.195-.41 1.488-.082.187-.106.258-.106.375 0 .363.305.598.657.598.703 0 1.007-.961 1.007-1.067 0-.094-.093-.094-.105-.094-.106 0-.106.047-.14.118-.153.562-.458.843-.739.843-.14 0-.176-.093-.176-.246 0-.152.035-.246.164-.562.082-.211.375-.95.375-1.348 0-.105 0-.398-.257-.598-.13-.093-.329-.187-.657-.187-.62 0-1.008.41-1.23.703-.059-.598-.551-.703-.903-.703-.585 0-.972.351-1.183.633-.047-.48-.457-.633-.75-.633s-.457.21-.55.375a2.437 2.437 0 0 0-.247.691c0 .082.094.082.117.082.094 0 .106-.011.153-.199.105-.422.234-.762.515-.762.176 0 .223.153.223.34 0 .14-.059.399-.106.586-.047.188-.117.469-.152.621l-.223.903c-.035.082-.07.257-.07.28 0 .153.117.224.234.224a.342.342 0 0 0 .27-.153c.035-.058.094-.293.129-.433.035-.13.105-.457.152-.633.035-.153.082-.305.117-.457.082-.293.094-.352.293-.633.2-.281.528-.645 1.043-.645.41 0 .41.364.41.493 0 .175-.011.27-.117.656zm5.516.445c0 .387-.07.832-.55 1.277-.024.036-.048.059-.048.094 0 .047.059.094.094.094.105 0 .691-.563.691-1.395 0-.422-.164-.75-.48-.75a.385.385 0 0 0-.399.387c0 .234.153.41.399.41.164 0 .281-.117.293-.117zm3.15-4.242a.265.265 0 0 0-.282-.258c-.187 0-.387.176-.387.375 0 .117.082.27.27.27.21 0 .398-.2.398-.387zm-1.43 3.539c-.024.094-.059.176-.059.293 0 .328.281.598.668.598.691 0 .996-.961.996-1.067 0-.094-.082-.094-.105-.094-.106 0-.106.047-.141.118-.152.562-.457.843-.738.843-.14 0-.176-.082-.176-.246 0-.152.059-.293.117-.445.07-.188.14-.375.223-.55.058-.165.316-.81.34-.891a.756.756 0 0 0 .046-.223c0-.328-.28-.586-.667-.586-.692 0-1.008.95-1.008 1.066 0 .082.093.082.117.082.094 0 .105-.035.129-.105.176-.598.48-.856.738-.856.117 0 .176.059.176.247 0 .164-.035.269-.211.703zm3.463.703c0 .387-.07.832-.551 1.277-.024.036-.047.059-.047.094 0 .047.058.094.094.094.105 0 .691-.563.691-1.395 0-.422-.164-.75-.48-.75a.385.385 0 0 0-.399.387c0 .234.152.41.399.41.164 0 .28-.117.293-.117zm4.696-.867c.644-.656.902-1.594.902-1.664 0-.094-.082-.094-.117-.094-.094 0-.094.023-.14.176-.13.457-.364.89-.657 1.265 0-.105-.023-.574-.035-.632-.106-.692-.621-1.137-1.324-1.137-1.02 0-2.004.95-2.004 1.922 0 .644.469 1.219 1.277 1.219.645 0 1.219-.293 1.606-.598.164.516.515.598.726.598.41 0 .656-.34.656-.493 0-.082-.082-.082-.117-.082-.094 0-.105.035-.117.07-.105.27-.316.305-.398.305-.094 0-.223 0-.258-.855zm-.54.234c-.679.563-1.277.621-1.534.621-.47 0-.727-.304-.727-.773 0-.2.105-.961.469-1.442.316-.421.715-.539.96-.539.551 0 .716.54.774.973.035.305.024.797.059 1.16zM31.695.682c0-.152-.012-.152-.176-.152-.351.316-.902.316-1.007.316h-.082v.223h.082a1.9 1.9 0 0 0 .726-.14v2.484c0 .164 0 .21-.527.21h-.246v.223c.27-.023.715-.023 1.007-.023.282 0 .727 0 .997.023v-.222h-.247c-.527 0-.527-.047-.527-.211zM34.235-2.376c-.058 0-.14 0-.14.082 0 .035.023.058.07.105.598.55 1.265 1.488 1.265 3.293 0 1.453-.457 2.555-1.207 3.235-.117.117-.128.128-.128.164 0 .035.023.082.093.082.082 0 .75-.457 1.207-1.325a4.722 4.722 0 0 0 .504-2.156c0-.984-.293-2.508-1.664-3.48zm4.951 0c-1.324.925-1.675 2.414-1.675 3.48 0 .985.293 2.508 1.675 3.48.059 0 .141 0 .141-.081 0-.047-.023-.059-.07-.106-.926-.832-1.266-2.016-1.266-3.293 0-1.875.715-2.8 1.29-3.316.023-.024.046-.047.046-.082 0-.082-.082-.082-.14-.082zM40.686 2.417c-.035.082-.07.257-.07.28 0 .153.117.224.234.224a.342.342 0 0 0 .27-.153c.035-.058.094-.293.129-.433.035-.13.105-.457.152-.633.035-.153.082-.305.117-.457.082-.293.094-.352.293-.633.2-.281.528-.645 1.043-.645.41 0 .41.364.41.493 0 .421-.292 1.195-.41 1.488-.07.187-.105.258-.105.375 0 .363.305.598.668.598.691 0 1.008-.961 1.008-1.067 0-.094-.094-.094-.118-.094-.093 0-.105.047-.128.118-.165.562-.47.843-.739.843-.152 0-.176-.093-.176-.246 0-.152.036-.246.153-.562.094-.211.375-.95.375-1.348 0-.668-.54-.785-.903-.785-.585 0-.972.351-1.183.633-.047-.48-.457-.633-.75-.633s-.457.21-.55.375a2.437 2.437 0 0 0-.247.691c0 .082.094.082.117.082.094 0 .106-.011.153-.199.105-.422.234-.762.515-.762.176 0 .223.153.223.34 0 .14-.059.399-.106.586-.047.188-.117.469-.152.621zm5.543.316c0 .387-.07.832-.55 1.277-.024.036-.047.059-.047.094 0 .047.058.094.093.094.106 0 .692-.563.692-1.395 0-.422-.164-.75-.48-.75a.385.385 0 0 0-.4.387c0 .234.153.41.4.41.163 0 .28-.117.292-.117zm3.947-4.242c0-.117-.094-.258-.282-.258-.199 0-.386.188-.386.375 0 .117.082.27.28.27.188 0 .388-.188.388-.387zm-1.477 4.7c-.117.48-.492.89-.902.89a.576.576 0 0 1-.246-.047.397.397 0 0 0 .234-.352c0-.164-.129-.258-.27-.258a.405.405 0 0 0-.398.41c0 .27.27.434.691.434.422 0 1.23-.246 1.454-1.101l.62-2.496a.705.705 0 0 0 .036-.235c0-.387-.328-.656-.738-.656-.786 0-1.23.96-1.23 1.066 0 .082.105.082.128.082.082 0 .082-.011.129-.117.176-.41.539-.844.95-.844.175 0 .233.118.233.34a.873.873 0 0 1-.023.211zm3.167-.458c0 .387-.07.832-.55 1.277-.024.036-.048.059-.048.094 0 .047.059.094.094.094.106 0 .692-.563.692-1.395 0-.422-.165-.75-.48-.75a.385.385 0 0 0-.4.387c0 .234.153.41.4.41.163 0 .28-.117.292-.117zm4.696-.867c.645-.656.903-1.594.903-1.664 0-.094-.082-.094-.118-.094-.093 0-.093.023-.14.176-.129.457-.363.89-.656 1.265 0-.105-.024-.574-.036-.632-.105-.692-.62-1.137-1.324-1.137-1.02 0-2.004.95-2.004 1.922 0 .644.47 1.219 1.278 1.219.644 0 1.218-.293 1.605-.598.164.516.516.598.727.598.41 0 .656-.34.656-.493 0-.082-.082-.082-.117-.082-.094 0-.106.035-.117.07-.106.27-.317.305-.399.305-.094 0-.223 0-.258-.855zm-.539.234c-.68.563-1.277.621-1.535.621-.469 0-.726-.304-.726-.773 0-.2.105-.961.468-1.442.317-.421.715-.539.961-.539.551 0 .715.54.774.973.035.305.023.797.058 1.16zM60.866 2.885h-.21c-.013.094-.06.399-.142.457-.035.024-.457.024-.527.024h-.984c.328-.246.703-.516.996-.715.457-.316.867-.598.867-1.125 0-.645-.598-.996-1.312-.996-.668 0-1.16.387-1.16.879 0 .258.21.305.28.305.141 0 .294-.094.294-.293 0-.188-.13-.282-.282-.293.141-.235.434-.375.762-.375.48 0 .89.28.89.773 0 .422-.292.738-.679 1.055l-1.207 1.03c-.047.048-.059.048-.059.083v.152h2.309zM62.46-2.376c-.059 0-.14 0-.14.082 0 .035.023.058.07.105.597.55 1.265 1.488 1.265 3.293 0 1.453-.457 2.555-1.207 3.235-.117.117-.129.128-.129.164 0 .035.024.082.094.082.082 0 .75-.457 1.207-1.325a4.722 4.722 0 0 0 .504-2.156c0-.984-.293-2.508-1.664-3.48zM71.73-2.297h2.777c.14 0 .328 0 .328-.2 0-.199-.188-.199-.328-.199h-2.778v-2.789c0-.129 0-.328-.199-.328-.2 0-.2.2-.2.328v2.79h-2.788c-.14 0-.328 0-.328.199s.187.199.328.199h2.789v2.8c0 .13 0 .329.2.329.198 0 .198-.2.198-.328zM83.94-5.754c.094-.41.282-.715 1.078-.739.047 0 .164-.011.164-.199 0-.011 0-.117-.128-.117-.329 0-.68.035-1.02.035-.34 0-.703-.035-1.031-.035-.059 0-.176 0-.176.2 0 .116.094.116.176.116.562.012.68.211.68.434 0 .035-.024.176-.036.211l-.89 3.55c-.34 1.337-1.489 2.204-2.485 2.204-.68 0-1.218-.434-1.218-1.29 0-.023 0-.339.117-.773l.96-3.879c.094-.363.106-.457.833-.457.27 0 .34 0 .34-.199 0-.117-.106-.117-.141-.117-.27 0-.996.035-1.266.035-.293 0-.996-.035-1.289-.035-.082 0-.187 0-.187.2 0 .116.093.116.281.116.012 0 .21 0 .375.012.176.024.27.035.27.164 0 .059-.106.48-.176.703l-.211.88c-.094.386-.574 2.273-.61 2.46-.07.281-.07.434-.07.574 0 1.22.902 1.922 1.957 1.922 1.254 0 2.485-1.125 2.813-2.449zM91.056-4.114v-.246h-.14c-.469 0-.516-.07-.586-.27l-1.7-4.3c-.034-.106-.058-.152-.199-.152-.128 0-.152.046-.187.152l-1.617 4.09c-.07.164-.188.48-.809.48v.246c.235-.023.48-.023.715-.023.281 0 .797.023.832.023v-.246c-.305 0-.492-.14-.492-.34 0-.058 0-.07.035-.14l.328-.856h1.98l.41 1.02c.013.035.036.082.036.117 0 .2-.387.2-.574.2v.245l1.043-.023c.328 0 .855.012.925.023zm-1.933-1.828H87.33l.902-2.273zm7.772.153v-.247c-.047 0-.562.024-.902.024-.363 0-.89 0-1.254-.024v.247h.258c.703 0 .703.093.703.328v.445c0 .152 0 .422-.398.621-.34.164-.739.164-.82.164-.798 0-2.087-.445-2.087-2.262 0-1.863 1.325-2.273 2.016-2.273.68 0 1.512.457 1.7 1.664.01.082.07.082.128.082.117 0 .117-.047.117-.187v-1.63c0-.116 0-.175-.093-.175-.024 0-.06 0-.118.082l-.375.527a1.98 1.98 0 0 0-1.441-.61c-1.453 0-2.672 1.126-2.672 2.52 0 1.372 1.184 2.52 2.684 2.52.386 0 1.16-.07 1.488-.563.117.188.375.422.445.422.082 0 .082-.082.082-.175v-1.196c0-.304.07-.304.54-.304zm6.094-2.836v-.246c-.21.011-.48.023-.68.023-.28 0-.796-.023-.843-.023v.246c.257 0 .48.117.48.328 0 .047-.012.094-.023.14l-1.453 3.375-1.5-3.539c-.047-.082-.047-.093-.047-.117 0-.187.363-.187.55-.187v-.246l-1.03.023c-.352 0-.88-.023-.903-.023v.246h.129c.375 0 .492.035.586.246l1.804 4.242c.047.117.07.164.2.164.07 0 .14 0 .21-.152l1.723-4.043c.094-.211.258-.446.797-.457zM86.888-2.376c-1.325.925-1.676 2.414-1.676 3.48 0 .985.293 2.508 1.676 3.48.058 0 .14 0 .14-.081 0-.047-.023-.059-.07-.106-.926-.832-1.266-2.016-1.266-3.293 0-1.875.715-2.8 1.29-3.316.023-.024.046-.047.046-.082 0-.082-.082-.082-.14-.082zM88.385 2.417c-.036.082-.07.257-.07.28 0 .153.116.224.234.224a.342.342 0 0 0 .27-.153c.034-.058.093-.293.128-.433.035-.13.106-.457.152-.633.036-.153.082-.305.118-.457.082-.293.093-.352.293-.633.199-.281.527-.645 1.043-.645.41 0 .41.364.41.493 0 .421-.293 1.195-.41 1.488-.07.187-.106.258-.106.375 0 .363.305.598.668.598.691 0 1.008-.961 1.008-1.067 0-.094-.094-.094-.117-.094-.094 0-.106.047-.13.118-.163.562-.468.843-.737.843-.153 0-.176-.093-.176-.246 0-.152.035-.246.152-.562.094-.211.375-.95.375-1.348 0-.668-.539-.785-.902-.785-.586 0-.973.351-1.184.633-.047-.48-.457-.633-.75-.633s-.457.21-.55.375a2.437 2.437 0 0 0-.247.691c0 .082.094.082.117.082.094 0 .106-.011.153-.199.105-.422.234-.762.515-.762.176 0 .223.153.223.34 0 .14-.059.399-.105.586-.047.188-.118.469-.153.621Zm5.545.316c0 .387-.07.832-.55 1.277-.024.036-.047.059-.047.094 0 .047.058.094.094.094.105 0 .691-.563.691-1.395 0-.422-.164-.75-.48-.75a.385.385 0 0 0-.399.387c0 .234.152.41.399.41.164 0 .28-.117.293-.117zm3.944-4.242c0-.117-.094-.258-.281-.258-.2 0-.387.188-.387.375 0 .117.082.27.281.27.188 0 .387-.188.387-.387zm-1.477 4.7c-.117.48-.492.89-.902.89a.576.576 0 0 1-.246-.047.397.397 0 0 0 .234-.352c0-.164-.129-.258-.27-.258a.405.405 0 0 0-.398.41c0 .27.27.434.692.434.422 0 1.23-.246 1.453-1.101L97.58.67a.705.705 0 0 0 .036-.235c0-.387-.328-.656-.738-.656-.785 0-1.23.96-1.23 1.066 0 .082.105.082.128.082.082 0 .082-.011.13-.117.175-.41.538-.844.948-.844.176 0 .235.118.235.34a.873.873 0 0 1-.024.211zm3.167-.458c0 .387-.07.832-.55 1.277-.024.036-.047.059-.047.094 0 .047.058.094.093.094.106 0 .692-.563.692-1.395 0-.422-.164-.75-.48-.75a.385.385 0 0 0-.4.387c0 .234.153.41.4.41.163 0 .28-.117.292-.117zm4.697-.867c.644-.656.902-1.594.902-1.664 0-.094-.082-.094-.117-.094-.094 0-.094.023-.14.176-.13.457-.364.89-.657 1.265 0-.105-.024-.574-.035-.632-.106-.692-.621-1.137-1.325-1.137-1.02 0-2.003.95-2.003 1.922 0 .644.468 1.219 1.277 1.219.644 0 1.219-.293 1.605-.598.164.516.516.598.727.598.41 0 .656-.34.656-.493 0-.082-.082-.082-.117-.082-.094 0-.105.035-.117.07-.106.27-.317.305-.399.305-.093 0-.222 0-.257-.855zm-.54.234c-.68.563-1.277.621-1.535.621-.468 0-.726-.304-.726-.773 0-.2.105-.961.469-1.442.316-.421.714-.539.96-.539.551 0 .715.54.774.973.035.305.023.797.059 1.16zM108.564 2.885h-.21c-.012.094-.06.399-.141.457-.035.024-.457.024-.528.024h-.984c.328-.246.703-.516.996-.715.457-.316.867-.598.867-1.125 0-.645-.597-.996-1.312-.996-.668 0-1.16.387-1.16.879 0 .258.21.305.28.305.142 0 .294-.094.294-.293 0-.188-.13-.282-.281-.293.14-.235.433-.375.761-.375.48 0 .89.28.89.773 0 .422-.292.738-.679 1.055l-1.207 1.03c-.047.048-.058.048-.058.083v.152h2.308zM110.158-2.376c-.059 0-.14 0-.14.082 0 .035.023.058.07.105.597.55 1.265 1.488 1.265 3.293 0 1.453-.457 2.555-1.207 3.235-.117.117-.129.128-.129.164 0 .035.024.082.094.082.082 0 .75-.457 1.207-1.325a4.722 4.722 0 0 0 .504-2.156c0-.984-.293-2.508-1.664-3.48zm4.951 0c-1.324.925-1.676 2.414-1.676 3.48 0 .985.293 2.508 1.676 3.48.059 0 .14 0 .14-.081 0-.047-.023-.059-.07-.106-.925-.832-1.265-2.016-1.265-3.293 0-1.875.715-2.8 1.289-3.316.023-.024.047-.047.047-.082 0-.082-.082-.082-.14-.082zM118.774 2.288a5.24 5.24 0 0 0-.093.41c0 .152.128.223.234.223a.342.342 0 0 0 .27-.153c.035-.058.093-.293.128-.433.036-.13.118-.457.153-.633.047-.153.082-.305.117-.457.082-.305.082-.317.223-.54.222-.34.562-.738 1.113-.738.387 0 .41.329.41.493 0 .421-.305 1.195-.41 1.488-.082.187-.106.258-.106.375 0 .363.305.598.657.598.703 0 1.007-.961 1.007-1.067 0-.094-.093-.094-.105-.094-.106 0-.106.047-.14.118-.153.562-.458.843-.739.843-.14 0-.176-.093-.176-.246 0-.152.035-.246.164-.562.082-.211.375-.95.375-1.348 0-.105 0-.398-.257-.598-.13-.093-.329-.187-.657-.187-.62 0-1.008.41-1.23.703-.059-.598-.551-.703-.903-.703-.585 0-.972.351-1.183.633-.047-.48-.457-.633-.75-.633s-.457.21-.55.375a2.437 2.437 0 0 0-.247.691c0 .082.094.082.117.082.094 0 .106-.011.153-.199.105-.422.234-.762.515-.762.176 0 .223.153.223.34 0 .14-.059.399-.106.586-.047.188-.117.469-.152.621l-.223.903c-.035.082-.07.257-.07.28 0 .153.117.224.234.224a.342.342 0 0 0 .27-.153c.035-.058.094-.293.129-.433.035-.13.105-.457.152-.633.035-.153.082-.305.117-.457.082-.293.094-.352.293-.633.2-.281.528-.645 1.043-.645.41 0 .41.364.41.493 0 .175-.011.27-.117.656zm5.517.445c0 .387-.07.832-.55 1.277-.024.036-.048.059-.048.094 0 .047.059.094.094.094.105 0 .691-.563.691-1.395 0-.422-.164-.75-.48-.75a.385.385 0 0 0-.399.387c0 .234.153.41.399.41.164 0 .281-.117.293-.117zm3.15-4.242a.265.265 0 0 0-.282-.258c-.187 0-.387.176-.387.375 0 .117.082.27.27.27.21 0 .398-.2.398-.387zm-1.43 3.539c-.024.094-.059.176-.059.293 0 .328.281.598.668.598.691 0 .996-.961.996-1.067 0-.094-.082-.094-.105-.094-.106 0-.106.047-.141.118-.152.562-.457.843-.738.843-.141 0-.176-.082-.176-.246 0-.152.058-.293.117-.445.07-.188.14-.375.223-.55.058-.165.316-.81.34-.891a.758.758 0 0 0 .046-.223c0-.328-.28-.586-.667-.586-.692 0-1.008.95-1.008 1.066 0 .082.093.082.117.082.094 0 .105-.035.129-.105.176-.598.48-.856.738-.856.117 0 .176.059.176.247 0 .164-.035.269-.211.703zm3.462.703c0 .387-.07.832-.55 1.277-.024.036-.047.059-.047.094 0 .047.058.094.093.094.106 0 .692-.563.692-1.395 0-.422-.164-.75-.48-.75a.385.385 0 0 0-.399.387c0 .234.152.41.398.41.164 0 .282-.117.293-.117zm4.697-.867c.644-.656.902-1.594.902-1.664 0-.094-.082-.094-.117-.094-.094 0-.094.023-.14.176-.13.457-.364.89-.657 1.265 0-.105-.023-.574-.035-.632-.106-.692-.621-1.137-1.324-1.137-1.02 0-2.004.95-2.004 1.922 0 .644.468 1.219 1.277 1.219.645 0 1.219-.293 1.606-.598.164.516.515.598.726.598.41 0 .656-.34.656-.493 0-.082-.082-.082-.117-.082-.094 0-.105.035-.117.07-.105.27-.316.305-.398.305-.094 0-.223 0-.258-.855zm-.54.234c-.679.563-1.277.621-1.534.621-.47 0-.727-.304-.727-.773 0-.2.105-.961.469-1.442.316-.421.715-.539.96-.539.551 0 .716.54.774.973.035.305.023.797.059 1.16zM137.53.682c0-.152-.012-.152-.176-.152-.351.316-.902.316-1.007.316h-.082v.223h.082a1.9 1.9 0 0 0 .726-.14v2.484c0 .164 0 .21-.527.21h-.246v.223c.27-.023.714-.023 1.007-.023.282 0 .727 0 .997.023v-.222h-.247c-.527 0-.527-.047-.527-.211zM140.073-2.376c-.059 0-.14 0-.14.082 0 .035.023.058.07.105.597.55 1.265 1.488 1.265 3.293 0 1.453-.457 2.555-1.207 3.235-.117.117-.129.128-.129.164 0 .035.024.082.094.082.082 0 .75-.457 1.207-1.325a4.722 4.722 0 0 0 .504-2.156c0-.984-.293-2.508-1.664-3.48zM149.343-2.297h2.777c.14 0 .328 0 .328-.2 0-.199-.187-.199-.328-.199h-2.777v-2.789c0-.129 0-.328-.2-.328-.199 0-.199.2-.199.328v2.79h-2.789c-.14 0-.328 0-.328.199s.187.199.328.199h2.79v2.8c0 .13 0 .329.198.329.2 0 .2-.2.2-.328zm8.768-1.207c.809-.27 1.395-.973 1.395-1.758 0-.82-.88-1.371-1.84-1.371-1.008 0-1.758.597-1.758 1.347 0 .34.211.528.504.528.305 0 .504-.223.504-.516 0-.492-.469-.492-.61-.492.305-.492.961-.621 1.325-.621.41 0 .949.223.949 1.113 0 .13-.012.703-.27 1.137-.304.48-.644.516-.89.516a4.735 4.735 0 0 1-.387.035c-.082.011-.152.023-.152.117 0 .117.07.117.234.117h.445c.809 0 1.184.668 1.184 1.652 0 1.348-.691 1.641-1.125 1.641-.434 0-1.172-.176-1.523-.762.351.059.656-.164.656-.539 0-.363-.27-.562-.563-.562-.234 0-.55.14-.55.574 0 .914.925 1.57 2.003 1.57 1.22 0 2.122-.914 2.122-1.922 0-.82-.622-1.593-1.653-1.804zM168.983-2.297c.176 0 .352 0 .352-.2 0-.199-.176-.199-.352-.199h-5.39c-.164 0-.34 0-.34.2 0 .199.176.199.34.199zM175.408-3.153h1.688c1.418 0 2.8-1.031 2.8-2.144 0-.774-.656-1.512-1.968-1.512h-3.223c-.188 0-.293 0-.293.2 0 .116.082.116.281.116.13 0 .317.012.434.012.152.024.21.059.21.164 0 .035 0 .07-.034.188l-1.336 5.355c-.094.387-.118.469-.903.469-.176 0-.281 0-.281.187 0 .118.117.118.152.118.282 0 .985-.036 1.266-.036.21 0 .422.012.633.012.222 0 .445.024.644.024.07 0 .2 0 .2-.2 0-.105-.082-.105-.27-.105-.375 0-.656 0-.656-.188 0-.058.023-.105.035-.164zm.715-2.965c.082-.351.105-.375.539-.375h.95c.831 0 1.359.27 1.359.95 0 .398-.2 1.254-.586 1.605-.504.445-1.102.527-1.536.527h-1.406zM184.889-8.04c.14-.14.28-.269.433-.374.281-.188.54-.2.633-.211.07-.012.164-.012.164-.153 0-.047-.047-.093-.105-.093-.176 0-.387.023-.563.023-.223 0-.516-.023-.727-.023-.035 0-.14 0-.14.152 0 .082.094.094.129.094.199.011.199.093.199.129 0 .07-.035.117-.094.187a.753.753 0 0 1-.117.152l-1.734 1.817-.926-2.04c-.047-.093-.047-.116-.047-.116 0-.13.328-.13.375-.13.094 0 .176 0 .176-.152 0-.011 0-.093-.106-.093-.21 0-.726.023-.937.023-.176 0-.621-.023-.797-.023-.047 0-.129.011-.129.152 0 .094.082.094.188.094.398 0 .421.058.492.21l1.09 2.391-.317 1.278c-.094.351-.094.375-.644.386-.118 0-.211 0-.211.14 0 .071.047.106.117.106.129 0 .293-.023.433-.023h.903c.152 0 .316.023.469.023.035 0 .152 0 .152-.152 0-.094-.082-.094-.234-.094-.118 0-.141 0-.27-.023-.129-.012-.152-.024-.152-.094 0-.047.082-.375.129-.562.058-.223.21-.832.222-.856.024-.105.024-.117.094-.187zM181.253-2.517c-1.324.926-1.676 2.414-1.676 3.48 0 .985.293 2.508 1.676 3.481.058 0 .14 0 .14-.082 0-.047-.023-.059-.07-.106-.926-.832-1.266-2.015-1.266-3.292 0-1.875.715-2.801 1.29-3.317.023-.023.046-.047.046-.082 0-.082-.082-.082-.14-.082zM184.918 2.147c-.035.14-.094.375-.094.41 0 .153.129.223.234.223a.342.342 0 0 0 .27-.152c.035-.059.094-.293.129-.434.035-.129.117-.457.152-.633.047-.152.082-.305.117-.457.082-.305.082-.316.223-.539.223-.34.563-.738 1.113-.738.387 0 .41.328.41.492 0 .422-.304 1.195-.41 1.488-.082.188-.105.258-.105.375 0 .364.305.598.656.598.703 0 1.008-.961 1.008-1.066 0-.094-.094-.094-.105-.094-.106 0-.106.047-.141.117-.152.562-.457.844-.738.844-.141 0-.176-.094-.176-.246 0-.153.035-.246.164-.563.082-.21.375-.95.375-1.348 0-.105 0-.398-.258-.597-.129-.094-.328-.188-.656-.188-.621 0-1.008.41-1.23.703-.06-.597-.551-.703-.903-.703-.586 0-.973.352-1.184.633-.046-.48-.457-.633-.75-.633s-.457.211-.55.375a2.437 2.437 0 0 0-.246.692c0 .082.093.082.117.082.093 0 .105-.012.152-.2.106-.421.234-.761.516-.761.175 0 .222.152.222.34 0 .14-.058.398-.105.586-.047.187-.117.468-.152.62l-.223.903c-.035.082-.07.258-.07.281 0 .153.117.223.234.223a.342.342 0 0 0 .27-.152c.035-.059.093-.293.128-.434.036-.129.106-.457.153-.633.035-.152.082-.305.117-.457.082-.293.094-.351.293-.633.2-.28.527-.644 1.043-.644.41 0 .41.363.41.492 0 .176-.012.27-.117.656zm5.52.445c0 .387-.071.832-.551 1.278-.024.035-.047.058-.047.094 0 .046.058.093.093.093.106 0 .692-.562.692-1.394 0-.422-.164-.75-.48-.75a.385.385 0 0 0-.4.386c0 .235.153.41.4.41.163 0 .28-.117.292-.117zm3.149-4.242a.265.265 0 0 0-.281-.258c-.188 0-.387.176-.387.375 0 .118.082.27.27.27.21 0 .398-.2.398-.387zm-1.43 3.54c-.023.093-.059.175-.059.292 0 .328.282.598.668.598.692 0 .997-.961.997-1.066 0-.094-.082-.094-.106-.094-.105 0-.105.047-.14.117-.153.562-.458.844-.739.844-.14 0-.176-.082-.176-.246 0-.153.059-.293.118-.446.07-.187.14-.375.222-.55.059-.165.317-.81.34-.891a.758.758 0 0 0 .047-.223c0-.328-.281-.586-.668-.586-.691 0-1.008.95-1.008 1.067 0 .082.094.082.117.082.094 0 .106-.035.13-.106.175-.597.48-.855.738-.855.117 0 .175.058.175.246 0 .164-.035.27-.21.703zm3.46.702c0 .387-.07.832-.55 1.278-.024.035-.048.058-.048.094 0 .046.059.093.094.093.106 0 .691-.562.691-1.394 0-.422-.164-.75-.48-.75a.385.385 0 0 0-.398.386c0 .235.152.41.398.41.164 0 .281-.117.293-.117zm4.696-.867c.645-.656.903-1.594.903-1.664 0-.094-.082-.094-.118-.094-.093 0-.093.024-.14.176-.13.457-.363.89-.656 1.266 0-.106-.024-.574-.036-.633-.105-.691-.62-1.137-1.324-1.137-1.02 0-2.004.95-2.004 1.922 0 .645.469 1.219 1.278 1.219.644 0 1.218-.293 1.605-.598.164.516.516.598.727.598.41 0 .656-.34.656-.492 0-.082-.082-.082-.117-.082-.094 0-.106.035-.117.07-.106.27-.317.305-.399.305-.094 0-.223 0-.258-.856zm-.539.235c-.68.562-1.277.62-1.535.62-.469 0-.726-.304-.726-.773 0-.199.105-.96.468-1.441.317-.422.715-.54.961-.54.551 0 .715.54.774.973.035.305.023.797.058 1.16zM203.677.545c0-.153-.012-.153-.176-.153-.352.317-.903.317-1.008.317h-.082V.93h.082a1.9 1.9 0 0 0 .727-.14v2.484c0 .164 0 .211-.528.211h-.246v.223c.27-.024.715-.024 1.008-.024.281 0 .726 0 .996.024v-.223h-.246c-.527 0-.527-.047-.527-.211zM206.217-2.517c-.059 0-.141 0-.141.082 0 .035.023.059.07.106.598.55 1.266 1.488 1.266 3.293 0 1.453-.457 2.554-1.207 3.234-.117.117-.129.129-.129.164s.023.082.094.082c.082 0 .75-.457 1.207-1.324a4.722 4.722 0 0 0 .504-2.156c0-.985-.293-2.508-1.664-3.481zM210.172 2.592c0 .387-.07.832-.551 1.278-.023.035-.047.058-.047.094 0 .046.059.093.094.093.105 0 .691-.562.691-1.394 0-.422-.164-.75-.48-.75a.385.385 0 0 0-.399.386c0 .235.153.41.399.41.164 0 .28-.117.293-.117zm4.766-2.507c.024-.106.024-.118.024-.153a.215.215 0 0 0-.223-.222.35.35 0 0 0-.293.164c-.023.035-.07.257-.105.398l-.153.586a52.074 52.074 0 0 1-.281 1.125s-.305.598-.855.598c-.47 0-.47-.446-.47-.575 0-.375.153-.82.364-1.359.082-.223.117-.305.117-.422 0-.328-.281-.586-.656-.586-.703 0-1.02.95-1.02 1.067 0 .082.094.082.118.082.093 0 .105-.035.129-.106.175-.586.468-.855.75-.855.117 0 .175.082.175.246 0 .164-.058.316-.093.41-.34.844-.41 1.102-.41 1.406 0 .117 0 .446.269.68.223.176.516.21.703.21.281 0 .528-.105.762-.315-.094.386-.176.68-.469 1.03-.187.212-.457.446-.832.446-.047 0-.375 0-.527-.234.375-.035.375-.375.375-.387 0-.223-.2-.258-.27-.258-.176 0-.398.14-.398.457 0 .352.328.61.832.61.703 0 1.558-.54 1.77-1.407zM224.627-2.297c.176 0 .351 0 .351-.2 0-.199-.175-.199-.351-.199h-5.39c-.165 0-.34 0-.34.2 0 .199.175.199.34.199zM231.052-3.153h1.687c1.418 0 2.8-1.031 2.8-2.144 0-.774-.655-1.512-1.968-1.512h-3.223c-.187 0-.292 0-.292.2 0 .116.082.116.28.116.13 0 .317.012.434.012.153.024.211.059.211.164 0 .035 0 .07-.035.188L229.61-.774c-.093.387-.117.469-.902.469-.176 0-.281 0-.281.187 0 .118.117.118.152.118.281 0 .984-.036 1.266-.036.21 0 .421.012.632.012.223 0 .446.024.645.024.07 0 .2 0 .2-.2 0-.105-.083-.105-.27-.105-.375 0-.657 0-.657-.188 0-.058.024-.105.036-.164zm.714-2.965c.082-.351.106-.375.54-.375h.949c.832 0 1.36.27 1.36.95 0 .398-.2 1.254-.587 1.605-.504.445-1.101.527-1.535.527h-1.406zM240.53-8.04c.14-.14.28-.269.433-.374.281-.188.539-.2.633-.211.07-.012.164-.012.164-.153 0-.047-.047-.093-.106-.093-.176 0-.387.023-.562.023-.223 0-.516-.023-.727-.023-.035 0-.14 0-.14.152 0 .082.093.094.128.094.2.011.2.093.2.129 0 .07-.036.117-.094.187a.753.753 0 0 1-.117.152l-1.735 1.817-.925-2.04c-.047-.093-.047-.116-.047-.116 0-.13.328-.13.375-.13.093 0 .175 0 .175-.152 0-.011 0-.093-.105-.093-.211 0-.727.023-.938.023-.175 0-.62-.023-.796-.023-.047 0-.13.011-.13.152 0 .094.083.094.188.094.399 0 .422.058.492.21l1.09 2.391-.316 1.278c-.094.351-.094.375-.645.386-.117 0-.21 0-.21.14 0 .071.046.106.117.106.128 0 .292-.023.433-.023h.902c.153 0 .317.023.47.023.034 0 .152 0 .152-.152 0-.094-.082-.094-.235-.094-.117 0-.14 0-.27-.023-.128-.012-.152-.024-.152-.094 0-.047.082-.375.13-.562.058-.223.21-.832.222-.856.023-.105.023-.117.094-.187zM236.896-2.517c-1.324.926-1.675 2.414-1.675 3.48 0 .985.293 2.508 1.675 3.481.059 0 .141 0 .141-.082 0-.047-.023-.059-.07-.106-.926-.832-1.266-2.015-1.266-3.292 0-1.875.715-2.801 1.29-3.317.022-.023.046-.047.046-.082 0-.082-.082-.082-.14-.082zM238.393 2.276c-.035.082-.07.258-.07.281 0 .153.117.223.234.223a.342.342 0 0 0 .27-.152c.035-.059.094-.293.129-.434.035-.129.105-.457.152-.633.035-.152.082-.305.117-.457.082-.293.094-.351.293-.633.2-.28.528-.644 1.043-.644.41 0 .41.363.41.492 0 .422-.292 1.195-.41 1.488-.07.188-.105.258-.105.375 0 .364.305.598.668.598.691 0 1.008-.961 1.008-1.066 0-.094-.094-.094-.118-.094-.093 0-.105.047-.128.117-.164.562-.47.844-.739.844-.152 0-.175-.094-.175-.246 0-.153.035-.246.152-.563.094-.21.375-.95.375-1.348 0-.668-.54-.785-.902-.785-.586 0-.973.352-1.184.633-.047-.48-.457-.633-.75-.633s-.457.211-.55.375a2.437 2.437 0 0 0-.247.692c0 .082.094.082.117.082.094 0 .106-.012.153-.2.105-.421.234-.761.515-.761.176 0 .223.152.223.34 0 .14-.059.398-.106.586-.046.187-.117.468-.152.62zm5.543.316c0 .387-.07.832-.55 1.278-.024.035-.047.058-.047.094 0 .046.058.093.093.093.106 0 .692-.562.692-1.394 0-.422-.164-.75-.48-.75a.385.385 0 0 0-.4.386c0 .235.153.41.4.41.163 0 .28-.117.292-.117zm3.947-4.242c0-.117-.094-.258-.282-.258-.199 0-.386.188-.386.375 0 .118.082.27.28.27.188 0 .388-.188.388-.387zm-1.477 4.7c-.117.48-.492.89-.902.89a.576.576 0 0 1-.246-.047.397.397 0 0 0 .234-.351c0-.164-.129-.258-.27-.258a.405.405 0 0 0-.398.41c0 .27.27.434.691.434.422 0 1.23-.247 1.454-1.102l.62-2.496a.706.706 0 0 0 .036-.234c0-.387-.328-.657-.738-.657-.786 0-1.23.961-1.23 1.067 0 .082.105.082.128.082.082 0 .082-.012.129-.117.176-.41.539-.844.95-.844.175 0 .234.117.234.34a.874.874 0 0 1-.024.21zm3.167-.458c0 .387-.07.832-.55 1.278-.024.035-.048.058-.048.094 0 .046.059.093.094.093.106 0 .692-.562.692-1.394 0-.422-.165-.75-.481-.75a.385.385 0 0 0-.398.386c0 .235.152.41.398.41.164 0 .281-.117.293-.117zm4.696-.867c.645-.656.903-1.594.903-1.664 0-.094-.082-.094-.117-.094-.094 0-.094.024-.141.176-.129.457-.363.89-.656 1.266 0-.106-.024-.574-.036-.633-.105-.691-.62-1.137-1.324-1.137-1.02 0-2.004.95-2.004 1.922 0 .645.47 1.219 1.278 1.219.644 0 1.218-.293 1.605-.598.164.516.516.598.727.598.41 0 .656-.34.656-.492 0-.082-.082-.082-.117-.082-.094 0-.106.035-.117.07-.106.27-.317.305-.399.305-.094 0-.223 0-.258-.856zm-.539.235c-.68.562-1.277.62-1.535.62-.469 0-.726-.304-.726-.773 0-.199.105-.96.468-1.441.317-.422.715-.54.961-.54.551 0 .715.54.774.973.035.305.023.797.058 1.16zM258.573 2.745h-.21c-.013.094-.06.398-.141.457-.036.023-.458.023-.528.023h-.984c.328-.246.703-.515.996-.715.457-.316.867-.597.867-1.125 0-.644-.598-.996-1.312-.996-.668 0-1.16.387-1.16.88 0 .257.21.304.28.304.141 0 .294-.094.294-.293 0-.188-.13-.281-.282-.293.141-.234.434-.375.762-.375.48 0 .89.281.89.773 0 .422-.292.739-.679 1.055l-1.207 1.031c-.047.047-.059.047-.059.082v.153h2.309zM260.164-2.517c-.059 0-.14 0-.14.082 0 .035.023.059.07.106.597.55 1.265 1.488 1.265 3.293 0 1.453-.457 2.554-1.207 3.234-.117.117-.129.129-.129.164s.024.082.094.082c.082 0 .75-.457 1.207-1.324a4.722 4.722 0 0 0 .504-2.156c0-.985-.293-2.508-1.664-3.481zM264.122 2.592c0 .387-.07.832-.55 1.278-.024.035-.048.058-.048.094 0 .046.059.093.094.093.105 0 .691-.562.691-1.394 0-.422-.164-.75-.48-.75a.385.385 0 0 0-.399.386c0 .235.153.41.399.41.164 0 .281-.117.293-.117zm4.767-2.507c.023-.106.023-.118.023-.153a.215.215 0 0 0-.223-.222.35.35 0 0 0-.293.164c-.023.035-.07.257-.105.398l-.153.586a52.669 52.669 0 0 1-.28 1.125s-.305.598-.856.598c-.469 0-.469-.446-.469-.575 0-.375.152-.82.363-1.359.082-.223.117-.305.117-.422 0-.328-.28-.586-.656-.586-.703 0-1.02.95-1.02 1.067 0 .082.094.082.118.082.094 0 .105-.035.129-.106.176-.586.469-.855.75-.855.117 0 .176.082.176.246 0 .164-.059.316-.094.41-.34.844-.41 1.102-.41 1.406 0 .117 0 .446.27.68.222.176.515.21.702.21.282 0 .528-.105.762-.315-.094.386-.176.68-.469 1.03-.187.212-.457.446-.832.446-.047 0-.375 0-.527-.234.375-.035.375-.375.375-.387 0-.223-.2-.258-.27-.258-.175 0-.398.14-.398.457 0 .352.328.61.832.61.703 0 1.559-.54 1.77-1.407zM278.577-2.297c.176 0 .352 0 .352-.2 0-.199-.176-.199-.352-.199h-5.39c-.165 0-.34 0-.34.2 0 .199.175.199.34.199zM287.407-13.193c-.07.235-.293.61-.656.61-.024 0-.223 0-.375-.094a.421.421 0 0 0 .305-.387c0-.152-.118-.258-.282-.258-.187 0-.386.164-.386.434 0 .34.386.504.726.504.317 0 .61-.2.785-.492.164.363.551.492.82.492.81 0 1.231-.867 1.231-1.067 0-.093-.094-.093-.105-.093-.106 0-.106.035-.141.117-.14.48-.563.844-.95.844-.28 0-.421-.188-.421-.446 0-.187.164-.82.363-1.593.129-.54.445-.715.68-.715.012 0 .222 0 .375.105a.404.404 0 0 0-.305.375c0 .153.117.258.281.258a.405.405 0 0 0 .387-.422c0-.387-.445-.504-.726-.504-.352 0-.633.223-.786.492-.117-.293-.445-.492-.832-.492-.785 0-1.23.856-1.23 1.067 0 .082.105.082.117.082.094 0 .106-.024.14-.118.176-.539.61-.843.95-.843.234 0 .422.129.422.468 0 .13-.082.48-.153.715zM291.983-17.78s.047-.094.047-.176c0-.176-.152-.293-.305-.293-.21 0-.257.164-.28.234l-.774 2.156c-.012.059-.012.07-.012.082 0 .082.2.13.211.13.047 0 .047-.024.082-.083zM294.693 4.482l1.207-3.187h-.246c-.387 1.03-1.453 1.71-2.59 2.015-.21.047-1.183.305-3.105.305h-6l5.062-5.942c.07-.082.094-.117.094-.164 0-.023 0-.046-.07-.152l-4.64-6.34h5.46c1.336 0 2.238.14 2.332.153.54.082 1.406.257 2.191.75.247.164.926.609 1.266 1.418h.246l-1.207-2.801h-11.777c-.223 0-.235.011-.27.07v.328l5.262 7.207-5.156 6.047c-.106.129-.106.176-.106.188 0 .105.094.105.27.105zM283.713 10.898c-.07.234-.293.61-.657.61-.023 0-.222 0-.375-.094a.421.421 0 0 0 .305-.387c0-.152-.117-.258-.281-.258-.188 0-.387.164-.387.434 0 .34.387.504.727.504.316 0 .61-.2.785-.493.164.364.55.493.82.493.809 0 1.23-.868 1.23-1.067 0-.093-.093-.093-.105-.093-.105 0-.105.035-.14.117-.141.48-.563.843-.95.843-.28 0-.421-.187-.421-.445 0-.187.164-.82.363-1.594.129-.539.445-.714.68-.714.011 0 .222 0 .374.105a.404.404 0 0 0-.304.375c0 .152.117.258.281.258a.405.405 0 0 0 .387-.422c0-.387-.446-.504-.727-.504-.351 0-.633.223-.785.492-.117-.293-.445-.492-.832-.492-.785 0-1.23.856-1.23 1.066 0 .082.105.082.117.082.093 0 .105-.023.14-.117.176-.539.61-.843.95-.843.234 0 .421.128.421.468 0 .13-.082.48-.152.715zM291.851 9.293c.106 0 .27 0 .27-.176 0-.164-.176-.164-.258-.164h-4.617c-.094 0-.258 0-.258.164 0 .176.152.176.258.176zm.012 1.535c.082 0 .258 0 .258-.164 0-.176-.164-.176-.27-.176h-4.605c-.106 0-.258 0-.258.176 0 .164.164.164.258.164zm3.08-3.621c0-.188-.012-.2-.212-.2-.445.434-1.078.446-1.36.446v.246c.165 0 .622 0 1.009-.188v3.551c0 .235 0 .328-.692.328h-.27v.246c.13-.011.985-.023 1.243-.023.21 0 1.09.012 1.242.023v-.246h-.258c-.703 0-.703-.093-.703-.328zM303.377 6.357a.95.95 0 0 0 .117.106h.223c.023 0 .105-.012.105-.094 0-.047-.023-.059-.035-.094-.363-.363-.902-.902-1.523-2.004-1.067-1.91-1.465-4.371-1.465-6.762 0-4.418 1.254-7.02 2.988-8.789.035-.023.035-.058.035-.082 0-.093-.07-.093-.187-.093-.13 0-.153 0-.246.082-.938.82-2.004 2.203-2.696 4.3-.422 1.313-.656 2.918-.656 4.57 0 2.368.434 5.028 1.992 7.348.27.387.633.797.633.797.105.13.246.281.328.352zM307.215-3.153h1.687c1.418 0 2.801-1.031 2.801-2.144 0-.774-.656-1.512-1.969-1.512h-3.222c-.188 0-.293 0-.293.2 0 .116.082.116.28.116.13 0 .317.012.434.012.153.024.211.059.211.164 0 .035 0 .07-.035.188l-1.336 5.355c-.093.387-.117.469-.902.469-.176 0-.281 0-.281.187 0 .118.117.118.152.118.281 0 .984-.036 1.266-.036.21 0 .421.012.632.012.223 0 .446.024.645.024.07 0 .2 0 .2-.2 0-.105-.083-.105-.27-.105-.375 0-.657 0-.657-.188 0-.058.024-.105.036-.164zm.715-2.965c.082-.351.105-.375.539-.375h.949c.832 0 1.36.27 1.36.95 0 .398-.2 1.254-.587 1.605-.504.445-1.101.527-1.535.527h-1.406zM315.851-6.774l.657-.668c.902-.879 1.172-1.148 1.793-1.183.093-.012.175-.012.175-.141 0-.094-.07-.105-.093-.105-.2 0-.446.023-.657.023-.187 0-.632-.023-.808-.023-.059 0-.14.011-.14.152 0 0 0 .082.105.094.058.011.234.023.234.175 0 .106-.105.211-.176.282-.058.047-.937.914-1.195 1.183l-.703-1.37a.307.307 0 0 1-.035-.095c0-.046.129-.164.363-.175.059 0 .152-.012.152-.153 0-.011-.011-.093-.117-.093-.152 0-.328.011-.469.011-.152 0-.304.012-.457.012-.117 0-.28 0-.41-.012-.117 0-.27-.011-.375-.011-.035 0-.152 0-.152.152 0 .094.094.094.21.094.4 0 .434.07.505.21l.972 1.922-.386.387c-.13.13-.457.445-.586.574-.844.844-1.137 1.137-1.758 1.172-.106 0-.176 0-.176.153 0 .023.024.093.094.093.2 0 .445-.023.644-.023h.422c.117.012.27.023.387.023.035 0 .152 0 .152-.14 0-.106-.082-.106-.129-.106-.07-.011-.21-.035-.21-.176 0-.117.093-.21.246-.363l1.406-1.383.844 1.653c.035.07.046.082.046.093 0 .036-.128.153-.375.176-.058 0-.152 0-.152.153 0 0 .012.093.117.093.153 0 .328-.023.47-.023h.866c.117.012.27.023.375.023.035 0 .153 0 .153-.152 0-.094-.094-.094-.211-.094-.399 0-.434-.082-.493-.199zM313.062-2.517c-1.324.926-1.675 2.414-1.675 3.48 0 .985.293 2.508 1.675 3.481.059 0 .141 0 .141-.082 0-.047-.023-.059-.07-.106-.926-.832-1.266-2.015-1.266-3.292 0-1.875.715-2.801 1.29-3.317.023-.023.046-.047.046-.082 0-.082-.082-.082-.14-.082zM316.724 2.147a5.24 5.24 0 0 0-.093.41c0 .153.129.223.234.223a.342.342 0 0 0 .27-.152c.035-.059.093-.293.129-.434.035-.129.117-.457.152-.633.047-.152.082-.305.117-.457.082-.305.082-.316.223-.539.222-.34.562-.738 1.113-.738.387 0 .41.328.41.492 0 .422-.305 1.195-.41 1.488-.082.188-.105.258-.105.375 0 .364.304.598.656.598.703 0 1.008-.961 1.008-1.066 0-.094-.094-.094-.106-.094-.105 0-.105.047-.14.117-.153.562-.458.844-.739.844-.14 0-.176-.094-.176-.246 0-.153.036-.246.165-.563.082-.21.375-.95.375-1.348 0-.105 0-.398-.258-.597-.13-.094-.328-.188-.657-.188-.62 0-1.007.41-1.23.703-.059-.597-.55-.703-.902-.703-.586 0-.973.352-1.184.633-.047-.48-.457-.633-.75-.633s-.457.211-.55.375a2.437 2.437 0 0 0-.247.692c0 .082.094.082.117.082.094 0 .106-.012.153-.2.105-.421.234-.761.515-.761.176 0 .223.152.223.34 0 .14-.059.398-.105.586-.047.187-.118.468-.153.62l-.222.903c-.036.082-.07.258-.07.281 0 .153.116.223.234.223a.342.342 0 0 0 .27-.152c.034-.059.093-.293.128-.434.035-.129.106-.457.152-.633.036-.152.082-.305.118-.457.082-.293.093-.351.293-.633.199-.28.527-.644 1.043-.644.41 0 .41.363.41.492 0 .176-.012.27-.118.656zm5.52.445c0 .387-.07.832-.55 1.278-.024.035-.048.058-.048.094 0 .046.059.093.094.093.105 0 .691-.562.691-1.394 0-.422-.164-.75-.48-.75a.385.385 0 0 0-.399.386c0 .235.153.41.399.41.164 0 .281-.117.293-.117zm3.15-4.242a.265.265 0 0 0-.282-.258c-.187 0-.387.176-.387.375 0 .118.082.27.27.27.21 0 .398-.2.398-.387zm-1.43 3.54c-.024.093-.059.175-.059.292 0 .328.281.598.668.598.691 0 .996-.961.996-1.066 0-.094-.082-.094-.105-.094-.106 0-.106.047-.14.117-.153.562-.458.844-.74.844-.14 0-.175-.082-.175-.246 0-.153.059-.293.117-.446.07-.187.14-.375.223-.55.058-.165.316-.81.34-.891a.758.758 0 0 0 .047-.223c0-.328-.282-.586-.668-.586-.692 0-1.008.95-1.008 1.067 0 .082.094.082.117.082.094 0 .105-.035.129-.106.176-.597.48-.855.738-.855.117 0 .176.058.176.246 0 .164-.035.27-.211.703zm3.46.702c0 .387-.07.832-.551 1.278-.024.035-.047.058-.047.094 0 .046.059.093.094.093.105 0 .691-.562.691-1.394 0-.422-.164-.75-.48-.75a.385.385 0 0 0-.399.386c0 .235.153.41.399.41.164 0 .28-.117.293-.117zm4.696-.867c.644-.656.902-1.594.902-1.664 0-.094-.082-.094-.117-.094-.094 0-.094.024-.14.176-.13.457-.364.89-.657 1.266 0-.106-.023-.574-.035-.633-.105-.691-.621-1.137-1.324-1.137-1.02 0-2.004.95-2.004 1.922 0 .645.469 1.219 1.277 1.219.645 0 1.22-.293 1.606-.598.164.516.515.598.726.598.41 0 .657-.34.657-.492 0-.082-.082-.082-.118-.082-.093 0-.105.035-.117.07-.105.27-.316.305-.398.305-.094 0-.223 0-.258-.856zm-.54.235c-.679.562-1.276.62-1.534.62-.469 0-.727-.304-.727-.773 0-.199.106-.96.469-1.441.316-.422.715-.54.96-.54.552 0 .716.54.774.973.035.305.024.797.059 1.16zM335.483.542c0-.153-.011-.153-.176-.153-.351.317-.902.317-1.007.317h-.082v.222h.082a1.9 1.9 0 0 0 .726-.14v2.484c0 .164 0 .211-.527.211h-.246v.223c.27-.024.715-.024 1.008-.024.28 0 .726 0 .996.024v-.223h-.246c-.528 0-.528-.047-.528-.21zM342.582 1.14c.105 0 .27 0 .27-.176s-.153-.176-.27-.176h-4.16c-.106 0-.282 0-.282.176 0 .175.165.175.282.175zM345.948-1.72c0-.188-.012-.2-.21-.2-.446.434-1.079.446-1.36.446v.246c.164 0 .62 0 1.008-.187v3.55c0 .235 0 .329-.692.329h-.27v.246a36.15 36.15 0 0 1 1.243-.024c.21 0 1.09.012 1.242.024v-.246h-.258c-.703 0-.703-.094-.703-.329zm2.27-.797c-.058 0-.14 0-.14.082 0 .035.023.059.07.106.598.55 1.266 1.488 1.266 3.293 0 1.453-.457 2.554-1.207 3.234-.117.117-.129.129-.129.164s.023.082.094.082c.082 0 .75-.457 1.207-1.324a4.722 4.722 0 0 0 .504-2.156c0-.985-.293-2.508-1.664-3.481zM352.177 2.592c0 .387-.07.832-.551 1.278-.024.035-.047.058-.047.094 0 .046.059.093.094.093.105 0 .691-.562.691-1.394 0-.422-.164-.75-.48-.75a.385.385 0 0 0-.399.386c0 .235.152.41.399.41.164 0 .28-.117.293-.117zm2.622-.62c-.07.234-.293.609-.657.609-.023 0-.222 0-.375-.094a.421.421 0 0 0 .305-.387c0-.152-.117-.258-.281-.258-.188 0-.387.164-.387.434 0 .34.387.504.727.504.316 0 .61-.2.785-.492.164.363.55.492.82.492.809 0 1.23-.867 1.23-1.066 0-.094-.093-.094-.105-.094-.105 0-.105.035-.14.117-.141.48-.563.844-.95.844-.28 0-.422-.188-.422-.446 0-.187.165-.82.364-1.593.129-.54.445-.715.68-.715.011 0 .222 0 .374.105a.404.404 0 0 0-.304.375c0 .153.117.258.281.258a.405.405 0 0 0 .387-.422c0-.387-.446-.504-.727-.504-.351 0-.633.223-.785.492-.117-.292-.445-.492-.832-.492-.785 0-1.23.856-1.23 1.067 0 .082.105.082.117.082.093 0 .105-.024.14-.117.176-.54.61-.844.95-.844.234 0 .421.129.421.469 0 .128-.082.48-.152.714zM364.376-2.297h2.777c.14 0 .328 0 .328-.2 0-.199-.187-.199-.328-.199h-2.777v-2.789c0-.129 0-.328-.2-.328-.199 0-.199.2-.199.328v2.79h-2.789c-.14 0-.328 0-.328.199s.188.199.328.199h2.79v2.8c0 .13 0 .329.199.329s.199-.2.199-.328zM373.282-3.153h1.688c1.418 0 2.8-1.031 2.8-2.144 0-.774-.656-1.512-1.968-1.512h-3.223c-.188 0-.293 0-.293.2 0 .116.082.116.281.116.13 0 .317.012.434.012.152.024.21.059.21.164 0 .035 0 .07-.034.188L371.84-.774c-.094.387-.118.469-.903.469-.176 0-.281 0-.281.187 0 .118.117.118.152.118.282 0 .985-.036 1.266-.036.21 0 .422.012.633.012.222 0 .445.024.644.024.07 0 .2 0 .2-.2 0-.105-.082-.105-.27-.105-.375 0-.656 0-.656-.188 0-.058.023-.105.035-.164zm.715-2.965c.082-.351.105-.375.539-.375h.95c.831 0 1.359.27 1.359.95 0 .398-.2 1.254-.586 1.605-.504.445-1.102.527-1.536.527h-1.406zM381.919-6.774l.656-.668c.902-.879 1.172-1.148 1.793-1.183.094-.012.176-.012.176-.141 0-.094-.07-.105-.094-.105-.2 0-.445.023-.656.023-.188 0-.633-.023-.809-.023-.058 0-.14.011-.14.152 0 0 0 .082.105.094.059.011.234.023.234.175 0 .106-.105.211-.175.282-.059.047-.938.914-1.196 1.183l-.703-1.37c-.011-.024-.035-.071-.035-.095 0-.046.129-.164.363-.175.059 0 .153-.012.153-.153 0-.011-.012-.093-.118-.093-.152 0-.328.011-.468.011-.153 0-.305.012-.457.012-.117 0-.282 0-.41-.012-.118 0-.27-.011-.375-.011-.036 0-.153 0-.153.152 0 .094.094.094.211.094.399 0 .434.07.504.21l.973 1.922-.387.387c-.129.13-.457.445-.586.574-.844.844-1.137 1.137-1.758 1.172-.105 0-.176 0-.176.153 0 .023.024.093.094.093.2 0 .445-.023.645-.023h.422c.117.012.27.023.386.023.035 0 .153 0 .153-.14 0-.106-.082-.106-.13-.106-.07-.011-.21-.035-.21-.176 0-.117.093-.21.246-.363l1.406-1.383.844 1.653c.035.07.047.082.047.093 0 .036-.13.153-.375.176-.059 0-.153 0-.153.153 0 0 .012.093.118.093.152 0 .328-.023.468-.023h.867c.118.012.27.023.376.023.035 0 .152 0 .152-.152 0-.094-.094-.094-.211-.094-.398 0-.434-.082-.492-.199zM379.13-2.517c-1.324.926-1.676 2.414-1.676 3.48 0 .985.293 2.508 1.676 3.481.058 0 .14 0 .14-.082 0-.047-.023-.059-.07-.106-.926-.832-1.266-2.015-1.266-3.292 0-1.875.715-2.801 1.29-3.317.023-.023.046-.047.046-.082 0-.082-.082-.082-.14-.082zM380.624 2.276c-.035.082-.07.258-.07.281 0 .153.117.223.234.223a.342.342 0 0 0 .27-.152c.035-.059.093-.293.128-.434.036-.129.106-.457.153-.633.035-.152.082-.305.117-.457.082-.293.094-.351.293-.633.2-.28.527-.644 1.043-.644.41 0 .41.363.41.492 0 .422-.293 1.195-.41 1.488-.07.188-.106.258-.106.375 0 .364.305.598.668.598.692 0 1.008-.961 1.008-1.066 0-.094-.094-.094-.117-.094-.094 0-.106.047-.129.117-.164.562-.469.844-.738.844-.153 0-.176-.094-.176-.246 0-.153.035-.246.152-.563.094-.21.375-.95.375-1.348 0-.668-.539-.785-.902-.785-.586 0-.973.352-1.184.633-.046-.48-.457-.633-.75-.633s-.457.211-.55.375a2.437 2.437 0 0 0-.246.692c0 .082.093.082.117.082.093 0 .105-.012.152-.2.106-.421.234-.761.516-.761.175 0 .222.152.222.34 0 .14-.058.398-.105.586-.047.187-.117.468-.152.62zm5.546.316c0 .387-.07.832-.551 1.278-.023.035-.047.058-.047.094 0 .046.059.093.094.093.105 0 .691-.562.691-1.394 0-.422-.164-.75-.48-.75a.385.385 0 0 0-.399.386c0 .235.153.41.399.41.164 0 .281-.117.293-.117zm3.946-4.242c0-.117-.094-.258-.281-.258-.2 0-.387.188-.387.375 0 .118.082.27.281.27.188 0 .387-.188.387-.387zm-1.477 4.7c-.117.48-.492.89-.902.89a.576.576 0 0 1-.246-.047.397.397 0 0 0 .234-.351c0-.164-.128-.258-.27-.258a.405.405 0 0 0-.398.41c0 .27.27.434.692.434.422 0 1.23-.247 1.453-1.102l.621-2.496a.706.706 0 0 0 .035-.234c0-.387-.328-.657-.738-.657-.785 0-1.23.961-1.23 1.067 0 .082.105.082.128.082.082 0 .082-.012.13-.117.175-.41.538-.844.948-.844.176 0 .235.117.235.34a.874.874 0 0 1-.024.21zm3.165-.458c0 .387-.07.832-.551 1.278-.024.035-.047.058-.047.094 0 .046.058.093.094.093.105 0 .691-.562.691-1.394 0-.422-.164-.75-.48-.75a.385.385 0 0 0-.399.386c0 .235.152.41.399.41.164 0 .28-.117.292-.117zm4.696-.867c.644-.656.902-1.594.902-1.664 0-.094-.082-.094-.117-.094-.094 0-.094.024-.14.176-.13.457-.364.89-.657 1.266 0-.106-.023-.574-.035-.633-.106-.691-.621-1.137-1.324-1.137-1.02 0-2.004.95-2.004 1.922 0 .645.469 1.219 1.277 1.219.645 0 1.219-.293 1.606-.598.164.516.515.598.726.598.41 0 .656-.34.656-.492 0-.082-.082-.082-.117-.082-.093 0-.105.035-.117.07-.105.27-.316.305-.398.305-.094 0-.223 0-.258-.856zm-.54.235c-.679.562-1.277.62-1.534.62-.47 0-.727-.304-.727-.773 0-.199.106-.96.469-1.441.316-.422.715-.54.96-.54.552 0 .716.54.774.973.035.305.024.797.059 1.16zM400.806 2.745h-.21c-.012.094-.06.398-.141.457-.035.023-.457.023-.527.023h-.985c.328-.246.703-.515.996-.715.457-.316.867-.597.867-1.125 0-.644-.597-.996-1.312-.996-.668 0-1.16.387-1.16.88 0 .257.21.304.281.304.14 0 .293-.094.293-.293 0-.188-.129-.281-.281-.293.14-.234.433-.375.762-.375.48 0 .89.281.89.773 0 .422-.293.739-.68 1.055l-1.207 1.031c-.046.047-.058.047-.058.082v.153h2.308zM402.397-2.517c-.058 0-.14 0-.14.082 0 .035.023.059.07.106.598.55 1.266 1.488 1.266 3.293 0 1.453-.457 2.554-1.207 3.234-.118.117-.13.129-.13.164s.024.082.094.082c.082 0 .75-.457 1.207-1.324a4.722 4.722 0 0 0 .504-2.156c0-.985-.293-2.508-1.664-3.481zM406.355 2.592c0 .387-.07.832-.55 1.278-.024.035-.047.058-.047.094 0 .046.058.093.093.093.106 0 .692-.562.692-1.394 0-.422-.164-.75-.48-.75a.385.385 0 0 0-.4.386c0 .235.153.41.4.41.163 0 .28-.117.292-.117zm2.622-.62c-.07.234-.293.609-.656.609-.023 0-.223 0-.375-.094a.421.421 0 0 0 .305-.387c0-.152-.117-.258-.281-.258-.188 0-.387.164-.387.434 0 .34.387.504.726.504.317 0 .61-.2.786-.492.164.363.55.492.82.492.808 0 1.23-.867 1.23-1.066 0-.094-.093-.094-.105-.094-.106 0-.106.035-.14.117-.141.48-.563.844-.95.844-.281 0-.422-.188-.422-.446 0-.187.164-.82.363-1.593.13-.54.446-.715.68-.715.012 0 .223 0 .375.105a.404.404 0 0 0-.305.375c0 .153.118.258.282.258a.405.405 0 0 0 .386-.422c0-.387-.445-.504-.726-.504-.352 0-.633.223-.785.492-.118-.292-.446-.492-.832-.492-.786 0-1.23.856-1.23 1.067 0 .082.105.082.116.082.094 0 .106-.024.141-.117.176-.54.61-.844.95-.844.234 0 .421.129.421.469 0 .128-.082.48-.152.714zM421.036-2.297c.176 0 .352 0 .352-.2 0-.199-.176-.199-.352-.199h-5.39c-.165 0-.34 0-.34.2 0 .199.175.199.34.199zM427.46-3.153h1.688c1.418 0 2.801-1.031 2.801-2.144 0-.774-.656-1.512-1.969-1.512h-3.222c-.188 0-.293 0-.293.2 0 .116.082.116.28.116.13 0 .317.012.435.012.152.024.21.059.21.164 0 .035 0 .07-.035.188L426.02-.774c-.093.387-.117.469-.902.469-.176 0-.281 0-.281.187 0 .118.117.118.152.118.281 0 .984-.036 1.266-.036.21 0 .422.012.633.012.222 0 .445.024.644.024.07 0 .2 0 .2-.2 0-.105-.083-.105-.27-.105-.375 0-.657 0-.657-.188 0-.058.024-.105.036-.164zm.716-2.965c.082-.351.105-.375.539-.375h.949c.832 0 1.36.27 1.36.95 0 .398-.2 1.254-.587 1.605-.504.445-1.101.527-1.535.527h-1.406zM436.095-6.774l.656-.668c.902-.879 1.172-1.148 1.793-1.183.093-.012.176-.012.176-.141 0-.094-.07-.105-.094-.105-.2 0-.445.023-.656.023-.188 0-.633-.023-.809-.023-.059 0-.14.011-.14.152 0 0 0 .082.105.094.058.011.234.023.234.175 0 .106-.105.211-.176.282-.058.047-.937.914-1.195 1.183l-.703-1.37c-.012-.024-.035-.071-.035-.095 0-.046.129-.164.363-.175.059 0 .152-.012.152-.153 0-.011-.011-.093-.117-.093-.152 0-.328.011-.468.011-.153 0-.305.012-.458.012-.117 0-.28 0-.41-.012-.117 0-.27-.011-.375-.011-.035 0-.152 0-.152.152 0 .094.094.094.21.094.4 0 .435.07.505.21l.972 1.922-.386.387c-.13.13-.457.445-.586.574-.844.844-1.137 1.137-1.758 1.172-.105 0-.176 0-.176.153 0 .023.024.093.094.093.2 0 .445-.023.644-.023h.422c.118.012.27.023.387.023.035 0 .152 0 .152-.14 0-.106-.082-.106-.129-.106-.07-.011-.21-.035-.21-.176 0-.117.093-.21.246-.363l1.406-1.383.844 1.653c.035.07.047.082.047.093 0 .036-.13.153-.375.176-.059 0-.153 0-.153.153 0 0 .012.093.117.093.153 0 .329-.023.47-.023h.866c.118.012.27.023.375.023.036 0 .153 0 .153-.152 0-.094-.094-.094-.211-.094-.399 0-.434-.082-.492-.199zM433.305-2.517c-1.324.926-1.675 2.414-1.675 3.48 0 .985.293 2.508 1.676 3.481.058 0 .14 0 .14-.082 0-.047-.023-.059-.07-.106-.926-.832-1.266-2.015-1.266-3.292 0-1.875.715-2.801 1.29-3.317.023-.023.046-.047.046-.082 0-.082-.082-.082-.14-.082zM436.97 2.147a5.24 5.24 0 0 0-.093.41c0 .153.129.223.234.223a.342.342 0 0 0 .27-.152c.035-.059.093-.293.129-.434.035-.129.117-.457.152-.633.047-.152.082-.305.117-.457.082-.305.082-.316.223-.539.223-.34.562-.738 1.113-.738.387 0 .41.328.41.492 0 .422-.304 1.195-.41 1.488-.082.188-.105.258-.105.375 0 .364.304.598.656.598.703 0 1.008-.961 1.008-1.066 0-.094-.094-.094-.106-.094-.105 0-.105.047-.14.117-.153.562-.457.844-.739.844-.14 0-.175-.094-.175-.246 0-.153.035-.246.164-.563.082-.21.375-.95.375-1.348 0-.105 0-.398-.258-.597-.13-.094-.328-.188-.656-.188-.622 0-1.008.41-1.23.703-.06-.597-.552-.703-.903-.703-.586 0-.973.352-1.184.633-.047-.48-.457-.633-.75-.633s-.457.211-.55.375a2.437 2.437 0 0 0-.247.692c0 .082.094.082.117.082.094 0 .106-.012.153-.2.105-.421.234-.761.515-.761.176 0 .223.152.223.34 0 .14-.059.398-.105.586-.047.187-.118.468-.153.62l-.222.903c-.036.082-.07.258-.07.281 0 .153.117.223.234.223a.342.342 0 0 0 .27-.152c.034-.059.093-.293.128-.434.035-.129.106-.457.152-.633.036-.152.082-.305.118-.457.082-.293.093-.351.293-.633.199-.28.527-.644 1.043-.644.41 0 .41.363.41.492 0 .176-.012.27-.117.656zm5.517.445c0 .387-.07.832-.55 1.278-.024.035-.048.058-.048.094 0 .046.06.093.094.093.106 0 .692-.562.692-1.394 0-.422-.164-.75-.48-.75a.385.385 0 0 0-.4.386c0 .235.153.41.4.41.163 0 .28-.117.292-.117zm3.15-4.242a.265.265 0 0 0-.282-.258c-.187 0-.386.176-.386.375 0 .118.082.27.27.27.21 0 .398-.2.398-.387zm-1.43 3.54c-.024.093-.059.175-.059.292 0 .328.282.598.668.598.692 0 .996-.961.996-1.066 0-.094-.082-.094-.105-.094-.106 0-.106.047-.14.117-.153.562-.458.844-.739.844-.14 0-.176-.082-.176-.246 0-.153.059-.293.117-.446.07-.187.141-.375.223-.55.059-.165.316-.81.34-.891a.758.758 0 0 0 .047-.223c0-.328-.281-.586-.668-.586-.692 0-1.008.95-1.008 1.067 0 .082.094.082.117.082.094 0 .106-.035.13-.106.175-.597.48-.855.737-.855.118 0 .176.058.176.246 0 .164-.035.27-.21.703zm3.463.702c0 .387-.07.832-.551 1.278-.023.035-.047.058-.047.094 0 .046.059.093.094.093.105 0 .691-.562.691-1.394 0-.422-.164-.75-.48-.75a.385.385 0 0 0-.399.386c0 .235.153.41.399.41.164 0 .281-.117.293-.117zm4.696-.867c.645-.656.902-1.594.902-1.664 0-.094-.082-.094-.117-.094-.094 0-.094.024-.14.176-.13.457-.364.89-.657 1.266 0-.106-.023-.574-.035-.633-.105-.691-.621-1.137-1.324-1.137-1.02 0-2.004.95-2.004 1.922 0 .645.469 1.219 1.277 1.219.645 0 1.22-.293 1.606-.598.164.516.515.598.726.598.41 0 .657-.34.657-.492 0-.082-.082-.082-.118-.082-.093 0-.105.035-.117.07-.105.27-.316.305-.398.305-.094 0-.223 0-.258-.856zm-.539.235c-.68.562-1.277.62-1.535.62-.469 0-.727-.304-.727-.773 0-.199.106-.96.469-1.441.316-.422.715-.54.961-.54.55 0 .715.54.773.973.036.305.024.797.059 1.16zM455.726.542c0-.153-.011-.153-.175-.153-.352.317-.903.317-1.008.317h-.082v.222h.082a1.9 1.9 0 0 0 .726-.14v2.484c0 .164 0 .211-.527.211h-.246v.223c.27-.024.715-.024 1.008-.024.281 0 .726 0 .996.024v-.223h-.246c-.528 0-.528-.047-.528-.21zM458.266-2.517c-.058 0-.14 0-.14.082 0 .035.023.059.07.106.598.55 1.266 1.488 1.266 3.293 0 1.453-.457 2.554-1.207 3.234-.117.117-.13.129-.13.164s.024.082.094.082c.082 0 .75-.457 1.208-1.324a4.722 4.722 0 0 0 .503-2.156c0-.985-.293-2.508-1.664-3.481zM462.224 2.592c0 .387-.07.832-.55 1.278-.024.035-.047.058-.047.094 0 .046.058.093.093.093.106 0 .692-.562.692-1.394 0-.422-.164-.75-.48-.75a.385.385 0 0 0-.399.386c0 .235.152.41.398.41.164 0 .282-.117.293-.117zm2.623-.62c-.07.234-.293.609-.657.609-.023 0-.222 0-.375-.094a.421.421 0 0 0 .305-.387c0-.152-.117-.258-.281-.258-.188 0-.387.164-.387.434 0 .34.387.504.727.504.316 0 .609-.2.785-.492.164.363.55.492.82.492.809 0 1.23-.867 1.23-1.066 0-.094-.093-.094-.105-.094-.105 0-.105.035-.14.117-.141.48-.563.844-.95.844-.281 0-.422-.188-.422-.446 0-.187.164-.82.364-1.593.128-.54.445-.715.68-.715.011 0 .222 0 .374.105a.404.404 0 0 0-.304.375c0 .153.117.258.28.258a.405.405 0 0 0 .388-.422c0-.387-.446-.504-.727-.504-.352 0-.633.223-.785.492-.117-.292-.445-.492-.832-.492-.785 0-1.23.856-1.23 1.067 0 .082.105.082.117.082.093 0 .105-.024.14-.117.176-.54.61-.844.95-.844.234 0 .421.129.421.469 0 .128-.082.48-.152.714zM476.905-2.297c.176 0 .352 0 .352-.2 0-.199-.176-.199-.352-.199h-5.39c-.165 0-.34 0-.34.2 0 .199.175.199.34.199zM483.33-3.153h1.687c1.418 0 2.801-1.031 2.801-2.144 0-.774-.656-1.512-1.969-1.512h-3.222c-.188 0-.293 0-.293.2 0 .116.082.116.281.116.129 0 .316.012.434.012.152.024.21.059.21.164 0 .035 0 .07-.035.188L481.89-.774c-.094.387-.118.469-.903.469-.176 0-.281 0-.281.187 0 .118.117.118.152.118.282 0 .985-.036 1.266-.036.21 0 .422.012.633.012.222 0 .445.024.644.024.07 0 .2 0 .2-.2 0-.105-.083-.105-.27-.105-.375 0-.656 0-.656-.188 0-.058.023-.105.035-.164zm.715-2.965c.082-.351.105-.375.539-.375h.949c.832 0 1.36.27 1.36.95 0 .398-.2 1.254-.587 1.605-.503.445-1.101.527-1.535.527h-1.406zM491.964-6.774l.656-.668c.902-.879 1.172-1.148 1.793-1.183.094-.012.176-.012.176-.141 0-.094-.07-.105-.094-.105-.2 0-.445.023-.656.023-.188 0-.633-.023-.809-.023-.058 0-.14.011-.14.152 0 0 0 .082.105.094.059.011.234.023.234.175 0 .106-.105.211-.175.282-.059.047-.938.914-1.196 1.183l-.703-1.37c-.012-.024-.035-.071-.035-.095 0-.046.129-.164.363-.175.059 0 .153-.012.153-.153 0-.011-.012-.093-.118-.093-.152 0-.328.011-.468.011-.153 0-.305.012-.457.012-.118 0-.282 0-.41-.012-.118 0-.27-.011-.376-.011-.035 0-.152 0-.152.152 0 .094.094.094.211.094.398 0 .434.07.504.21l.973 1.922-.387.387c-.129.13-.457.445-.586.574-.844.844-1.137 1.137-1.758 1.172-.105 0-.176 0-.176.153 0 .023.024.093.094.093.2 0 .445-.023.645-.023h.421c.118.012.27.023.387.023.035 0 .153 0 .153-.14 0-.106-.082-.106-.13-.106-.07-.011-.21-.035-.21-.176 0-.117.093-.21.246-.363l1.406-1.383.844 1.653c.035.07.047.082.047.093 0 .036-.13.153-.375.176-.059 0-.153 0-.153.153 0 0 .012.093.118.093.152 0 .328-.023.468-.023h.867c.118.012.27.023.375.023.036 0 .153 0 .153-.152 0-.094-.094-.094-.211-.094-.399 0-.434-.082-.492-.199zM489.175-2.517c-1.325.926-1.676 2.414-1.676 3.48 0 .985.293 2.508 1.676 3.481.058 0 .14 0 .14-.082 0-.047-.023-.059-.07-.106-.926-.832-1.266-2.015-1.266-3.292 0-1.875.715-2.801 1.29-3.317.023-.023.046-.047.046-.082 0-.082-.082-.082-.14-.082zM490.672 2.276c-.035.082-.07.258-.07.281 0 .153.117.223.234.223a.342.342 0 0 0 .27-.152c.035-.059.093-.293.128-.434.035-.129.106-.457.153-.633.035-.152.082-.305.117-.457.082-.293.093-.351.293-.633.199-.28.527-.644 1.043-.644.41 0 .41.363.41.492 0 .422-.293 1.195-.41 1.488-.07.188-.106.258-.106.375 0 .364.305.598.668.598.692 0 1.008-.961 1.008-1.066 0-.094-.094-.094-.117-.094-.094 0-.106.047-.13.117-.163.562-.468.844-.737.844-.153 0-.176-.094-.176-.246 0-.153.035-.246.152-.563.094-.21.375-.95.375-1.348 0-.668-.539-.785-.902-.785-.586 0-.973.352-1.184.633-.047-.48-.457-.633-.75-.633s-.457.211-.55.375a2.437 2.437 0 0 0-.247.692c0 .082.094.082.118.082.093 0 .105-.012.152-.2.105-.421.234-.761.516-.761.175 0 .222.152.222.34 0 .14-.058.398-.105.586-.047.187-.117.468-.153.62zm5.543.316c0 .387-.07.832-.551 1.278-.023.035-.047.058-.047.094 0 .046.059.093.094.093.105 0 .691-.562.691-1.394 0-.422-.164-.75-.48-.75a.385.385 0 0 0-.399.386c0 .235.153.41.399.41.164 0 .28-.117.293-.117zm3.946-4.242c0-.117-.094-.258-.281-.258-.2 0-.387.188-.387.375 0 .118.082.27.281.27.188 0 .387-.188.387-.387zm-1.477 4.7c-.117.48-.492.89-.902.89a.576.576 0 0 1-.246-.047.397.397 0 0 0 .234-.351c0-.164-.129-.258-.27-.258a.405.405 0 0 0-.398.41c0 .27.27.434.692.434.422 0 1.23-.247 1.453-1.102l.621-2.496a.706.706 0 0 0 .035-.234c0-.387-.328-.657-.738-.657-.785 0-1.23.961-1.23 1.067 0 .082.105.082.128.082.082 0 .082-.012.13-.117.175-.41.538-.844.948-.844.176 0 .235.117.235.34a.874.874 0 0 1-.024.21zm3.167-.458c0 .387-.07.832-.55 1.278-.024.035-.047.058-.047.094 0 .046.058.093.093.093.106 0 .692-.562.692-1.394 0-.422-.164-.75-.48-.75a.385.385 0 0 0-.4.386c0 .235.153.41.4.41.163 0 .28-.117.292-.117zm4.697-.867c.644-.656.902-1.594.902-1.664 0-.094-.082-.094-.117-.094-.094 0-.094.024-.14.176-.13.457-.364.89-.657 1.266 0-.106-.023-.574-.035-.633-.106-.691-.621-1.137-1.324-1.137-1.02 0-2.004.95-2.004 1.922 0 .645.468 1.219 1.277 1.219.645 0 1.219-.293 1.605-.598.165.516.516.598.727.598.41 0 .656-.34.656-.492 0-.082-.082-.082-.117-.082-.094 0-.105.035-.117.07-.106.27-.317.305-.399.305-.093 0-.222 0-.257-.856zm-.54.235c-.68.562-1.277.62-1.535.62-.468 0-.726-.304-.726-.773 0-.199.105-.96.469-1.441.316-.422.714-.54.96-.54.551 0 .715.54.774.973.035.305.023.797.059 1.16zM510.851 2.745h-.21c-.012.094-.06.398-.141.457-.035.023-.457.023-.528.023h-.984c.328-.246.703-.515.996-.715.457-.316.867-.597.867-1.125 0-.644-.597-.996-1.312-.996-.668 0-1.16.387-1.16.88 0 .257.21.304.281.304.14 0 .293-.094.293-.293 0-.188-.129-.281-.281-.293.14-.234.433-.375.761-.375.48 0 .891.281.891.773 0 .422-.293.739-.68 1.055l-1.207 1.031c-.047.047-.058.047-.058.082v.153h2.308zM517.004 1.14c.105 0 .27 0 .27-.176s-.153-.176-.27-.176h-4.16c-.106 0-.282 0-.282.176 0 .175.164.175.282.175zM520.37-1.72c0-.188-.012-.2-.211-.2-.445.434-1.078.446-1.36.446v.246c.165 0 .622 0 1.008-.187v3.55c0 .235 0 .329-.69.329h-.27v.246c.128-.012.984-.024 1.242-.024.21 0 1.09.012 1.242.024v-.246h-.258c-.703 0-.703-.094-.703-.329zm2.268-.797c-.06 0-.141 0-.141.082 0 .035.023.059.07.106.598.55 1.266 1.488 1.266 3.293 0 1.453-.457 2.554-1.207 3.234-.117.117-.13.129-.13.164s.024.082.095.082c.082 0 .75-.457 1.207-1.324a4.722 4.722 0 0 0 .504-2.156c0-.985-.293-2.508-1.665-3.481zM526.598 2.592c0 .387-.07.832-.55 1.278-.024.035-.047.058-.047.094 0 .046.058.093.093.093.106 0 .692-.562.692-1.394 0-.422-.164-.75-.48-.75a.385.385 0 0 0-.399.386c0 .235.152.41.398.41.164 0 .282-.117.293-.117zm2.623-.62c-.07.234-.293.609-.657.609-.023 0-.222 0-.375-.094a.421.421 0 0 0 .305-.387c0-.152-.117-.258-.281-.258-.188 0-.387.164-.387.434 0 .34.387.504.727.504.316 0 .609-.2.785-.492.164.363.55.492.82.492.809 0 1.23-.867 1.23-1.066 0-.094-.093-.094-.105-.094-.105 0-.105.035-.14.117-.141.48-.563.844-.95.844-.281 0-.422-.188-.422-.446 0-.187.164-.82.364-1.593.129-.54.445-.715.68-.715.011 0 .222 0 .374.105a.404.404 0 0 0-.304.375c0 .153.117.258.28.258a.405.405 0 0 0 .388-.422c0-.387-.446-.504-.727-.504-.352 0-.633.223-.785.492-.117-.292-.445-.492-.832-.492-.785 0-1.23.856-1.23 1.067 0 .082.105.082.117.082.093 0 .105-.024.14-.117.176-.54.61-.844.95-.844.234 0 .421.129.421.469 0 .128-.082.48-.152.714zM536.653-2.502c0-2.86-.668-5.895-2.637-8.133a8.97 8.97 0 0 0-.75-.762c-.058-.058-.082-.058-.21-.058-.106 0-.188 0-.188.093 0 .047.035.082.059.106.34.351.879.902 1.488 1.992 1.078 1.91 1.476 4.371 1.476 6.762 0 4.324-1.195 6.96-2.988 8.789a.107.107 0 0 0-.035.082c0 .094.082.094.187.094.13 0 .153 0 .235-.082.95-.81 2.015-2.192 2.707-4.301.433-1.36.656-2.977.656-4.582zM547.935-3.223c.141-.07.2-.129.2-.223 0-.105-.036-.164-.2-.234l-5.484-2.59c-.14-.07-.187-.07-.2-.07-.128 0-.198.094-.198.199 0 .129.07.176.187.223l5.227 2.46-5.215 2.462c-.2.093-.2.164-.2.234 0 .105.083.2.2.2.023 0 .047 0 .176-.071zm-.152 4.582c.176 0 .352 0 .352-.2 0-.198-.211-.198-.364-.198h-5.367c-.152 0-.351 0-.351.199s.175.199.34.199zM556.32-3.188c0-.797-.047-1.594-.398-2.332-.457-.96-1.278-1.113-1.688-1.113-.597 0-1.336.258-1.734 1.183-.328.692-.375 1.465-.375 2.262 0 .75.047 1.64.445 2.402a1.837 1.837 0 0 0 1.652 1.008c.54 0 1.29-.21 1.735-1.16.316-.691.363-1.465.363-2.25zM554.222 0c-.386 0-.984-.246-1.16-1.207-.105-.598-.105-1.512-.105-2.098 0-.645 0-1.3.082-1.84.187-1.183.926-1.266 1.183-1.266.329 0 .985.176 1.172 1.16.094.563.094 1.313.094 1.946 0 .75 0 1.418-.105 2.062-.153.938-.715 1.243-1.16 1.243zM558.746-.012c0-.656-.258-1.043-.645-1.043a.51.51 0 0 0-.527.527c0 .27.2.528.527.528a.524.524 0 0 0 .352-.13c.023-.023.035-.034.047-.034.012 0 .023.011.023.152 0 .738-.351 1.336-.68 1.664-.105.105-.105.129-.105.164 0 .07.047.106.094.106.117 0 .914-.762.914-1.934zM358.464 21.445c.058-.106.058-.129.058-.176 0-.094-.082-.199-.199-.199-.129 0-.2.117-.234.234l-.82 2.192h-3.036l-.82-2.192c-.059-.14-.106-.234-.234-.234-.094 0-.2.105-.2.2 0 .023 0 .034.059.175l2.484 6.527c.047.14.094.235.223.235.14 0 .187-.118.223-.211zm-4.067 2.45h2.707l-1.359 3.538zM361.81 30.375c0-.036 0-.047-.165-.223-1.242-1.254-1.57-3.129-1.57-4.664 0-1.723.387-3.457 1.606-4.711.128-.117.128-.129.128-.164 0-.07-.035-.106-.093-.106-.106 0-.996.68-1.582 1.946-.516 1.101-.633 2.203-.633 3.035 0 .785.117 1.992.656 3.117.598 1.219 1.453 1.875 1.559 1.875.058 0 .093-.035.093-.105zM363.268 27.398c-.035.152-.093.375-.093.422 0 .187.14.27.293.27.117 0 .293-.07.363-.27.012-.023.129-.492.187-.738l.223-.903c.059-.222.117-.433.176-.668.035-.164.117-.457.129-.492.14-.316.668-1.219 1.617-1.219.445 0 .539.364.539.692 0 .258-.07.539-.152.832l-.27 1.16-.2.75c-.046.2-.14.54-.14.586 0 .187.14.27.293.27.305 0 .375-.247.446-.563.14-.563.515-2.016.597-2.402.035-.13.563-1.325 1.653-1.325.421 0 .539.34.539.692 0 .574-.422 1.71-.621 2.238-.094.234-.13.352-.13.55 0 .47.352.81.81.81.937 0 1.312-1.454 1.312-1.536 0-.093-.094-.093-.117-.093-.106 0-.106.023-.153.175-.152.528-.469 1.243-1.02 1.243-.163 0-.234-.106-.234-.329 0-.257.082-.492.176-.714.188-.516.61-1.618.61-2.192 0-.644-.399-1.066-1.149-1.066s-1.254.445-1.617.972c-.012-.128-.047-.468-.328-.714-.246-.2-.563-.258-.809-.258-.902 0-1.383.644-1.558.867-.047-.563-.47-.867-.915-.867-.457 0-.644.386-.738.574-.176.34-.305.937-.305.96 0 .106.094.106.118.106.093 0 .105-.011.164-.234.176-.703.375-1.184.726-1.184.164 0 .317.082.317.457 0 .211-.035.317-.164.832zm9.897.574c0-.656-.258-1.043-.645-1.043a.51.51 0 0 0-.527.528c0 .27.2.527.527.527a.524.524 0 0 0 .352-.129c.023-.023.035-.035.047-.035.012 0 .023.012.023.152 0 .739-.351 1.336-.68 1.664-.105.106-.105.13-.105.164 0 .07.047.106.094.106.117 0 .914-.762.914-1.934zm5.209-6.21c0-.2-.129-.364-.363-.364-.27 0-.54.258-.54.527 0 .188.141.364.376.364.234 0 .527-.235.527-.528zm-.75 3.738c.117-.282.117-.305.223-.575.07-.199.128-.34.128-.527a.8.8 0 0 0-.82-.82c-.937 0-1.312 1.453-1.312 1.535 0 .105.093.105.117.105.094 0 .105-.023.152-.187.27-.938.668-1.23 1.008-1.23.082 0 .258 0 .258.316 0 .21-.07.422-.117.515-.082.258-.528 1.418-.68 1.852-.106.258-.234.586-.234.797 0 .469.34.808.82.808.937 0 1.3-1.44 1.3-1.535 0-.093-.093-.093-.117-.093-.105 0-.105.023-.152.175-.176.633-.504 1.243-1.02 1.243-.164 0-.234-.106-.234-.329 0-.257.059-.398.293-.996zm3.38 2.472c0-.656-.257-1.043-.644-1.043a.51.51 0 0 0-.527.528c0 .27.2.527.527.527a.524.524 0 0 0 .352-.129c.023-.023.035-.035.047-.035.011 0 .023.012.023.152 0 .739-.352 1.336-.68 1.664-.105.106-.105.13-.105.164 0 .07.047.106.094.106.117 0 .914-.762.914-1.934zm7.143-2.343c0-1.559-.925-2.051-1.652-2.051-1.371 0-2.684 1.43-2.684 2.836 0 .925.598 1.675 1.618 1.675.62 0 1.335-.222 2.097-.832.13.528.457.832.903.832.527 0 .843-.539.843-.703 0-.07-.058-.105-.129-.105-.058 0-.093.035-.129.105-.175.493-.527.493-.55.493-.317 0-.317-.786-.317-1.02 0-.21 0-.234.106-.352.937-1.171 1.148-2.332 1.148-2.343 0-.012-.011-.094-.117-.094-.105 0-.105.023-.152.21-.188.622-.516 1.384-.985 1.97zm-.656 1.37c-.879.762-1.652.88-2.05.88-.598 0-.891-.457-.891-1.09 0-.492.257-1.559.574-2.075.469-.726 1.008-.914 1.36-.914.984 0 .984 1.301.984 2.086 0 .364 0 .938.023 1.114zM392.129 25.051c0-.187-.012-.199-.211-.199-.446.434-1.078.445-1.36.445v.247c.164 0 .622 0 1.008-.188v3.55c0 .235 0 .329-.691.329h-.27v.246c.13-.012.985-.023 1.242-.023.211 0 1.09.011 1.243.023v-.246h-.258c-.703 0-.703-.094-.703-.328zM397.15 25.488c0-.774-.117-1.98-.656-3.106-.598-1.218-1.465-1.875-1.559-1.875a.105.105 0 0 0-.105.106c0 .035 0 .047.2.234.972.985 1.534 2.567 1.534 4.64 0 1.712-.363 3.458-1.593 4.724-.141.117-.141.128-.141.164 0 .058.047.105.105.105.094 0 .996-.68 1.582-1.945.504-1.102.633-2.203.633-3.047zM400.168 27.972c0-.656-.258-1.043-.645-1.043a.51.51 0 0 0-.527.528c0 .27.2.527.527.527a.524.524 0 0 0 .352-.129c.023-.023.035-.035.047-.035.011 0 .023.012.023.152 0 .739-.351 1.336-.68 1.664-.105.106-.105.13-.105.164 0 .07.047.106.094.106.117 0 .914-.762.914-1.934zM405.863 30.375c0-.036 0-.047-.164-.223-1.242-1.254-1.57-3.129-1.57-4.664 0-1.723.386-3.457 1.605-4.711.13-.117.13-.129.13-.164 0-.07-.036-.106-.095-.106-.105 0-.996.68-1.582 1.946-.515 1.101-.632 2.203-.632 3.035 0 .785.117 1.992.656 3.117.597 1.219 1.453 1.875 1.558 1.875.059 0 .094-.035.094-.105zM407.322 27.398c-.035.152-.094.375-.094.422 0 .187.141.27.293.27.118 0 .293-.07.364-.27.011-.023.129-.492.187-.738l.223-.903c.058-.222.117-.433.176-.668.035-.164.117-.457.128-.492.141-.316.668-1.219 1.618-1.219.445 0 .539.364.539.692 0 .62-.492 1.898-.645 2.332-.093.223-.105.34-.105.457 0 .469.351.808.82.808.938 0 1.3-1.453 1.3-1.535 0-.093-.081-.093-.116-.093-.094 0-.094.023-.153.175-.199.68-.527 1.243-1.008 1.243-.175 0-.246-.106-.246-.329 0-.257.094-.492.188-.714.187-.528.598-1.618.598-2.192 0-.668-.422-1.066-1.137-1.066-.903 0-1.383.644-1.559.867-.047-.55-.457-.867-.914-.867s-.644.386-.75.574c-.152.34-.293.926-.293.96 0 .106.094.106.117.106.094 0 .106-.011.164-.234.176-.703.375-1.184.727-1.184.2 0 .316.13.316.457 0 .211-.035.317-.164.832zm7.125.574c0-.656-.258-1.043-.644-1.043a.51.51 0 0 0-.528.528c0 .27.2.527.528.527a.524.524 0 0 0 .351-.129c.024-.023.035-.035.047-.035.012 0 .023.012.023.152 0 .739-.351 1.336-.68 1.664-.105.106-.105.13-.105.164 0 .07.047.106.094.106.117 0 .914-.762.914-1.934zm6.337-6.21a.354.354 0 0 0-.375-.364c-.223 0-.527.234-.527.527 0 .2.14.364.375.364.27 0 .527-.258.527-.528zm-1.992 6.726c-.2.75-.668 1.324-1.23 1.324-.06 0-.212 0-.387-.094a.57.57 0 0 0 .445-.527c0-.164-.106-.352-.375-.352a.56.56 0 0 0-.54.575c0 .398.4.61.88.61.691 0 1.617-.528 1.875-1.513l.914-3.644c.047-.2.047-.34.047-.375 0-.563-.422-.914-.914-.914-1.02 0-1.582 1.453-1.582 1.535 0 .105.093.105.117.105.094 0 .094-.011.176-.199.246-.61.714-1.219 1.254-1.219.14 0 .316.036.316.457 0 .235-.023.34-.059.504zm4.183-.516c0-.656-.257-1.043-.644-1.043a.51.51 0 0 0-.527.528c0 .27.199.527.527.527a.524.524 0 0 0 .351-.129c.024-.023.036-.035.047-.035.012 0 .024.012.024.152 0 .739-.352 1.336-.68 1.664-.105.106-.105.13-.105.164 0 .07.046.106.093.106.117 0 .914-.762.914-1.934zm7.143-2.343c0-1.559-.926-2.051-1.652-2.051-1.371 0-2.684 1.43-2.684 2.836 0 .925.598 1.675 1.617 1.675.621 0 1.336-.222 2.098-.832.129.528.457.832.902.832.528 0 .844-.539.844-.703 0-.07-.059-.105-.129-.105-.059 0-.094.035-.129.105-.176.493-.527.493-.55.493-.317 0-.317-.786-.317-1.02 0-.21 0-.234.105-.352.938-1.171 1.149-2.332 1.149-2.343 0-.012-.012-.094-.117-.094-.106 0-.106.023-.153.21-.187.622-.515 1.384-.984 1.97zm-.656 1.37c-.88.762-1.653.88-2.051.88-.598 0-.89-.457-.89-1.09 0-.492.257-1.559.574-2.075.468-.726 1.007-.914 1.359-.914.984 0 .984 1.301.984 2.086 0 .364 0 .938.024 1.114zM435.286 28.215h-.234c-.024.153-.082.563-.176.633-.059.035-.598.035-.692.035h-1.289c.739-.644.985-.843 1.395-1.171.516-.41.996-.844.996-1.5 0-.844-.738-1.36-1.629-1.36-.867 0-1.453.61-1.453 1.242 0 .364.305.399.375.399a.368.368 0 0 0 .375-.375c0-.13-.059-.363-.422-.363a1.098 1.098 0 0 1 1.02-.657c.703 0 1.066.551 1.066 1.114 0 .609-.434 1.09-.656 1.335l-1.688 1.665c-.07.058-.07.07-.07.27h2.883zM439.124 25.488c0-.774-.117-1.98-.656-3.106-.598-1.218-1.465-1.875-1.559-1.875a.105.105 0 0 0-.105.106c0 .035 0 .047.199.234.972.985 1.535 2.567 1.535 4.64 0 1.712-.363 3.458-1.594 4.724-.14.117-.14.128-.14.164 0 .058.046.105.105.105.094 0 .996-.68 1.582-1.945.504-1.102.633-2.203.633-3.047zM448.344 25.687c.164 0 .351 0 .351-.2 0-.198-.187-.198-.351-.198h-4.23c.128-1.325 1.265-2.285 2.671-2.285h1.559c.164 0 .351 0 .351-.2 0-.199-.187-.199-.351-.199h-1.57c-1.712 0-3.06 1.29-3.06 2.883 0 1.594 1.348 2.894 3.06 2.894h1.57c.164 0 .351 0 .351-.199s-.187-.199-.351-.199h-1.559c-1.406 0-2.543-.96-2.672-2.297zM461.422 22.336c.258-.434.492-.797 1.125-.844.082-.012.187-.012.187-.2 0-.046-.047-.117-.117-.117-.246 0-.527.036-.773.036-.34 0-.704-.036-1.032-.036-.058 0-.187 0-.187.2 0 .105.082.117.14.117.247.012.598.082.598.387 0 .105-.058.187-.14.328l-2.684 4.687-.363-4.933c-.012-.2-.036-.457.691-.47.164 0 .27 0 .27-.198 0-.106-.106-.118-.153-.118-.398 0-.808.036-1.207.036-.234 0-.82-.036-1.055-.036-.058 0-.187 0-.187.2 0 .117.105.117.246.117.434 0 .504.058.527.246l.059.762-2.52 4.394-.386-5.05c0-.118 0-.34.762-.352.093 0 .21 0 .21-.2 0-.117-.117-.117-.14-.117-.399 0-.82.036-1.23.036-.34 0-.704-.036-1.044-.036-.047 0-.175 0-.175.2 0 .117.082.117.246.117.504 0 .504.082.527.363l.445 6.094c.012.176.024.258.164.258.118 0 .153-.059.235-.211l2.93-5.086.374 5.039c.012.2.036.258.153.258.129 0 .187-.106.246-.188zM468.942 20.173c.07-.257.082-.316.598-.316.152 0 .234 0 .234-.152a.102.102 0 0 0-.105-.094c-.211 0-.715.023-.914.023-.117 0-.364 0-.48-.011-.141 0-.305-.012-.446-.012-.035 0-.14 0-.14.152 0 .094.081.094.222.094 0 0 .14 0 .258.012.152.012.164.035.164.105 0 0 0 .047-.024.153l-.41 1.64h-2.343l.41-1.617c.058-.234.07-.293.61-.293.116 0 .21 0 .21-.152 0-.024-.023-.094-.117-.094-.2 0-.703.023-.914.023-.117 0-.352 0-.48-.011-.13 0-.305-.012-.434-.012-.047 0-.153 0-.153.152 0 .094.094.094.223.094.012 0 .14 0 .27.012.152.012.164.035.164.105 0 .012 0 .047-.036.153l-.925 3.703c-.047.234-.07.293-.61.293-.117 0-.21 0-.21.14 0 .07.046.106.117.106.199 0 .703-.024.902-.024h.48c.141.012.317.024.446.024.035 0 .152 0 .152-.14 0-.106-.07-.106-.234-.106-.118 0-.14 0-.27-.024-.152-.011-.152-.035-.152-.105 0 0 0-.047.035-.153l.457-1.828h2.332l-.445 1.817c-.059.234-.07.293-.621.293-.118 0-.211 0-.211.14 0 .07.047.106.117.106.2 0 .703-.024.902-.024h.48c.141.012.317.024.446.024.035 0 .152 0 .152-.14 0-.106-.07-.106-.234-.106-.105 0-.14 0-.258-.024-.164-.011-.164-.035-.164-.105 0-.035.024-.106.035-.153zM477.784 21.445c.059-.106.059-.129.059-.176 0-.094-.082-.199-.2-.199-.129 0-.199.117-.234.234l-.82 2.192h-3.035l-.82-2.192c-.06-.14-.106-.234-.235-.234-.094 0-.2.105-.2.2 0 .023 0 .034.06.175l2.484 6.527c.047.14.093.235.222.235.14 0 .188-.118.223-.211zm-4.066 2.45h2.707l-1.36 3.538zM482.677 24.187c.046-.14.046-.152.046-.223 0-.187-.14-.269-.292-.269a.444.444 0 0 0-.352.2c-.023.058-.094.362-.14.538-.071.258-.141.528-.2.797l-.445 1.793c-.035.152-.469.856-1.125.856-.504 0-.621-.446-.621-.809 0-.457.175-1.078.515-1.957.153-.41.2-.516.2-.715a.8.8 0 0 0-.82-.82c-.95 0-1.313 1.453-1.313 1.535 0 .105.093.105.117.105.094 0 .105-.023.152-.187.27-.938.668-1.23 1.008-1.23.082 0 .258 0 .258.316 0 .246-.106.515-.176.703-.398 1.055-.574 1.617-.574 2.086 0 .89.621 1.183 1.219 1.183.386 0 .726-.164.996-.445-.13.516-.246 1.008-.645 1.535-.258.34-.633.633-1.09.633-.14 0-.597-.035-.761-.422.164 0 .293 0 .433-.117.094-.094.2-.223.2-.41 0-.316-.27-.352-.376-.352-.222 0-.55.164-.55.645 0 .504.433.867 1.054.867 1.02 0 2.051-.902 2.332-2.027zM491.305 25.687c.164 0 .351 0 .351-.2 0-.198-.187-.198-.351-.198h-4.23c.128-1.325 1.265-2.285 2.67-2.285h1.56c.164 0 .351 0 .351-.2 0-.199-.187-.199-.351-.199h-1.57c-1.712 0-3.06 1.29-3.06 2.883 0 1.594 1.348 2.894 3.06 2.894h1.57c.164 0 .351 0 .351-.199s-.187-.199-.351-.199h-1.56c-1.405 0-2.542-.96-2.671-2.297zM501.195 22.312l.14-.14c.305-.293.634-.633 1.313-.68.106-.012.2-.012.2-.188 0-.082-.06-.129-.13-.129-.257 0-.55.036-.82.036-.328 0-.68-.036-.996-.036-.058 0-.187 0-.187.2 0 .105.093.117.152.117.07 0 .352.012.352.222 0 .176-.223.434-.27.481l-2.309 2.66-1.09-2.953c-.07-.14-.07-.164-.07-.176 0-.234.493-.234.598-.234.129 0 .234 0 .234-.2 0-.117-.117-.117-.152-.117-.281 0-.973.036-1.254.036-.246 0-.867-.036-1.113-.036-.059 0-.188 0-.188.2 0 .117.094.117.223.117.598 0 .645.082.727.34l1.23 3.27c.012.034.035.14.035.175 0 .023-.398 1.629-.445 1.805-.129.55-.14.586-.938.597-.187 0-.27 0-.27.2 0 .105.118.105.141.105.282 0 .973-.035 1.254-.035.282 0 .996.035 1.278.035.07 0 .187 0 .187-.2 0-.105-.082-.105-.281-.105-.012 0-.2 0-.375-.023-.21-.024-.27-.035-.27-.164 0-.07.094-.41.141-.621l.352-1.407c.047-.187.058-.222.14-.304zM508.947 23.736c0-.047 0-.129-.117-.129-.106 0-.117.059-.117.129-.035.398-.27.574-.48.574-.4 0-.458-.41-.54-1.043-.082-.562-.094-.668-.304-.902a1.46 1.46 0 0 0-.633-.375c.62-.14 1.254-.55 1.254-1.125 0-.692-.926-1.254-2.004-1.254h-2.344v.246h.164c.54 0 .55.07.55.316v3.633c0 .235-.01.317-.55.317h-.164v.246l1.031-.024 1.031.024v-.246h-.164c-.539 0-.55-.07-.55-.317v-1.722h.925c.13 0 .493 0 .797.28.246.224.246.4.246.856 0 .457 0 .739.317 1.008.304.246.715.281.902.281.598 0 .75-.562.75-.773zm-1.687-2.871c0 .785-.61 1.02-1.348 1.02h-.902v-1.758c0-.188.011-.246.187-.258.059-.012.293-.012.434-.012.68 0 1.629 0 1.629 1.008zM511.56 27.972c0-.656-.257-1.043-.644-1.043a.51.51 0 0 0-.527.528c0 .27.199.527.527.527a.524.524 0 0 0 .351-.129c.024-.023.036-.035.047-.035.012 0 .024.012.024.152 0 .739-.352 1.336-.68 1.664-.105.106-.105.13-.105.164 0 .07.046.106.093.106.117 0 .914-.762.914-1.934zM521.105 21.445c.059-.106.059-.129.059-.176 0-.094-.082-.199-.2-.199-.128 0-.199.117-.234.234l-.82 2.192h-3.035l-.82-2.192c-.06-.14-.106-.234-.235-.234-.094 0-.2.105-.2.2 0 .023 0 .034.06.175l2.484 6.527c.047.14.094.235.223.235.14 0 .187-.118.222-.211zm-4.066 2.45h2.707l-1.36 3.538zM524.483 24.972c.059-.258.293-1.172.985-1.172.047 0 .293 0 .504.13-.282.046-.48.304-.48.538 0 .164.105.352.374.352.223 0 .54-.188.54-.586 0-.516-.587-.656-.927-.656-.574 0-.925.527-1.043.761-.257-.656-.785-.761-1.078-.761-1.043 0-1.605 1.289-1.605 1.535 0 .105.105.105.117.105.082 0 .117-.023.129-.117.34-1.054.996-1.3 1.336-1.3.187 0 .539.093.539.667 0 .305-.164.973-.54 2.368-.152.62-.503 1.043-.948 1.043-.059 0-.282 0-.493-.13.246-.058.47-.269.47-.538 0-.27-.224-.352-.376-.352-.293 0-.539.258-.539.574 0 .457.492.656.938.656.656 0 1.007-.69 1.043-.75.117.364.48.75 1.078.75 1.02 0 1.593-1.277 1.593-1.535 0-.093-.093-.093-.128-.093-.082 0-.106.035-.13.105-.328 1.066-.995 1.313-1.324 1.313-.386 0-.539-.329-.539-.657 0-.222.059-.445.164-.879zM528.878 21.076a.606.606 0 0 0 .058-.223c0-.21-.199-.387-.41-.387-.27 0-.351.223-.387.329l-.914 3.023a.447.447 0 0 0-.035.117c0 .082.211.153.27.153.047 0 .058-.024.105-.13zM537.872 25.687c.164 0 .351 0 .351-.2 0-.198-.187-.198-.351-.198h-4.23c.128-1.325 1.265-2.285 2.671-2.285h1.559c.164 0 .351 0 .351-.2 0-.199-.187-.199-.351-.199h-1.57c-1.711 0-3.059 1.29-3.059 2.883 0 1.594 1.348 2.894 3.059 2.894h1.57c.164 0 .351 0 .351-.199s-.187-.199-.351-.199h-1.559c-1.406 0-2.543-.96-2.672-2.297zM546.65 23.894l-.833-1.992a.42.42 0 0 1-.047-.129c0-.059.164-.246.586-.281.094-.012.2-.024.2-.188 0-.129-.118-.129-.153-.129-.41 0-.832.036-1.254.036-.246 0-.867-.036-1.113-.036-.059 0-.188 0-.188.2 0 .117.106.117.235.117.597 0 .656.094.75.316l1.172 2.778-2.098 2.261-.129.106c-.492.527-.96.691-1.465.726-.129 0-.222 0-.222.2 0 0 0 .105.129.105.304 0 .632-.035.937-.035.363 0 .762.035 1.113.035.059 0 .176 0 .176-.2 0-.105-.094-.105-.117-.105-.082-.011-.399-.035-.399-.316 0-.152.153-.316.27-.445l1.02-1.079.89-.972 1.008 2.379c.047.105.047.117.047.14 0 .082-.188.246-.574.293-.106 0-.2.012-.2.188 0 .117.118.117.153.117.281 0 .972-.035 1.254-.035.246 0 .855.035 1.101.035.07 0 .2 0 .2-.187 0-.118-.106-.118-.188-.118-.668-.011-.68-.047-.856-.445-.386-.926-1.054-2.473-1.289-3.07.68-.703 1.735-1.887 2.051-2.168.281-.235.668-.48 1.266-.504.129-.012.21-.012.21-.2 0-.011 0-.117-.128-.117-.293 0-.621.036-.938.036-.363 0-.738-.036-1.101-.036-.059 0-.188 0-.188.2 0 .07.047.105.118.117.093.012.398.023.398.305 0 .14-.106.269-.188.363zM556.552 23.736c0-.047 0-.129-.118-.129-.105 0-.117.059-.117.129-.035.398-.27.574-.48.574-.399 0-.457-.41-.54-1.043-.081-.562-.093-.668-.304-.902a1.46 1.46 0 0 0-.633-.375c.621-.14 1.254-.55 1.254-1.125 0-.692-.926-1.254-2.004-1.254h-2.344v.246h.165c.539 0 .55.07.55.316v3.633c0 .235-.011.317-.55.317h-.165v.246l1.032-.024 1.03.024v-.246h-.163c-.54 0-.55-.07-.55-.317v-1.722h.925c.129 0 .492 0 .797.28.246.224.246.4.246.856 0 .457 0 .739.316 1.008.305.246.715.281.903.281.597 0 .75-.562.75-.773zm-1.688-2.871c0 .785-.61 1.02-1.348 1.02h-.902v-1.758c0-.188.012-.246.188-.258.058-.012.293-.012.433-.012.68 0 1.63 0 1.63 1.008zm0 0" style="fill:#000;fill-opacity:1;fill-rule:nonzero;stroke:none" transform="matrix(1.33333 0 0 1.33333 -.89 24.333)"/></g></svg>