<svg width="210mm" height="297mm" version="1.1" viewBox="0 0 210 297" xmlns="http://www.w3.org/2000/svg">
<g transform="matrix(.4 0 0 .4 7 35)" aria-label="U
AGV
(m,i,α
1
)(n,j,α
2
)
+U
AGV
(n,j,α
2
)(m,i,α
1
)
+3−P
Y
(m,i,α
1
),y
−P
Y
(n,j,α
2
),y
−
x
′
∑
x=1
(
P
X
(m,i,α
1
−1),x
+P
X
(n,j,α
2
),x
−P
X
(m,i,α
1
),x
−P
X
(n,j,α
2
−1),x
)
≥0,
∀(m,i,α
1
),(n,j,α
2
)∈W
H
∀y∈Y
R
,∀x
′
∈X
R">
<path d="m6-6c0.09-0.4 0.3-0.7 1-0.7 0.05 0 0.2-0.01 0.2-0.2 0-0.01 0-0.1-0.1-0.1-0.3 0-0.7 0.04-1 0.04-0.3 0-0.7-0.04-1-0.04-0.06 0-0.2 0-0.2 0.2 0 0.1 0.09 0.1 0.2 0.1 0.6 0.01 0.7 0.2 0.7 0.4 0 0.04-0.02 0.2-0.04 0.2l-0.9 4c-0.3 1-1 2-2 2-0.7 0-1-0.4-1-1 0-0.02 0-0.3 0.1-0.8l1-4c0.09-0.4 0.1-0.5 0.8-0.5 0.3 0 0.3 0 0.3-0.2 0-0.1-0.1-0.1-0.1-0.1-0.3 0-1 0.04-1 0.04-0.3 0-1-0.04-1-0.04-0.08 0-0.2 0-0.2 0.2 0 0.1 0.09 0.1 0.3 0.1 0.01 0 0.2 0 0.4 0.01 0.2 0.02 0.3 0.04 0.3 0.2 0 0.06-0.1 0.5-0.2 0.7l-0.2 0.9c-0.09 0.4-0.6 2-0.6 2-0.07 0.3-0.07 0.4-0.07 0.6 0 1 0.9 2 2 2 1 0 2-1 3-2z"/>
<path d="m13-4v-0.2h-0.1c-0.5 0-0.5-0.07-0.6-0.3l-2-4c-0.04-0.1-0.06-0.2-0.2-0.2-0.1 0-0.2 0.05-0.2 0.2l-2 4c-0.07 0.2-0.2 0.5-0.8 0.5v0.2c0.2-0.02 0.5-0.02 0.7-0.02 0.3 0 0.8 0.02 0.8 0.02v-0.2c-0.3 0-0.5-0.1-0.5-0.3 0-0.06 0-0.07 0.04-0.1l0.3-0.9h2l0.4 1c0.01 0.04 0.04 0.08 0.04 0.1 0 0.2-0.4 0.2-0.6 0.2v0.2l1-0.02c0.3 0 0.9 0.01 0.9 0.02zm-2-2h-2l0.9-2zm8 0.2v-0.2c-0.05 0-0.6 0.02-0.9 0.02-0.4 0-0.9 0-1-0.02v0.2h0.3c0.7 0 0.7 0.09 0.7 0.3v0.4c0 0.2 0 0.4-0.4 0.6-0.3 0.2-0.7 0.2-0.8 0.2-0.8 0-2-0.4-2-2 0-2 1-2 2-2 0.7 0 2 0.5 2 2 0.01 0.08 0.07 0.08 0.1 0.08 0.1 0 0.1-0.05 0.1-0.2v-2c0-0.1 0-0.2-0.09-0.2-0.02 0-0.06 0-0.1 0.08l-0.4 0.5c-0.3-0.4-0.8-0.6-1-0.6-1 0-3 1-3 3 0 1 1 3 3 3 0.4 0 1-0.07 1-0.6 0.1 0.2 0.4 0.4 0.4 0.4 0.08 0 0.08-0.08 0.08-0.2v-1c0-0.3 0.07-0.3 0.5-0.3zm6-3v-0.2c-0.2 0.01-0.5 0.02-0.7 0.02-0.3 0-0.8-0.02-0.8-0.02v0.2c0.3 0 0.5 0.1 0.5 0.3 0 0.05-0.01 0.09-0.02 0.1l-1 3-2-4c-0.05-0.08-0.05-0.09-0.05-0.1 0-0.2 0.4-0.2 0.6-0.2v-0.2l-1 0.02c-0.4 0-0.9-0.02-0.9-0.02v0.2h0.1c0.4 0 0.5 0.04 0.6 0.2l2 4c0.05 0.1 0.07 0.2 0.2 0.2 0.07 0 0.1 0 0.2-0.2l2-4c0.09-0.2 0.3-0.4 0.8-0.5z"/>
<path d="m9-2c-1 0.9-2 2-2 3 0 1 0.3 3 2 3 0.06 0 0.1 0 0.1-0.08 0-0.05-0.02-0.06-0.07-0.1-0.9-0.8-1-2-1-3 0-2 0.7-3 1-3 0.02-0.02 0.05-0.05 0.05-0.08 0-0.08-0.08-0.08-0.1-0.08z"/>
<path d="m13 2c-0.04 0.1-0.09 0.4-0.09 0.4 0 0.2 0.1 0.2 0.2 0.2 0.1 0 0.2-0.09 0.3-0.2 0.04-0.06 0.09-0.3 0.1-0.4 0.04-0.1 0.1-0.5 0.2-0.6 0.05-0.2 0.08-0.3 0.1-0.5 0.08-0.3 0.08-0.3 0.2-0.5 0.2-0.3 0.6-0.7 1-0.7 0.4 0 0.4 0.3 0.4 0.5 0 0.4-0.3 1-0.4 1-0.08 0.2-0.1 0.3-0.1 0.4 0 0.4 0.3 0.6 0.7 0.6 0.7 0 1-1 1-1 0-0.09-0.09-0.09-0.1-0.09-0.1 0-0.1 0.05-0.1 0.1-0.2 0.6-0.5 0.8-0.7 0.8-0.1 0-0.2-0.09-0.2-0.2 0-0.2 0.04-0.2 0.2-0.6 0.08-0.2 0.4-0.9 0.4-1 0-0.1 0-0.4-0.3-0.6-0.1-0.09-0.3-0.2-0.7-0.2-0.6 0-1 0.4-1 0.7-0.06-0.6-0.6-0.7-0.9-0.7-0.6 0-1 0.4-1 0.6-0.05-0.5-0.5-0.6-0.8-0.6-0.3 0-0.5 0.2-0.6 0.4-0.2 0.3-0.2 0.7-0.2 0.7 0 0.08 0.09 0.08 0.1 0.08 0.09 0 0.1-0.01 0.2-0.2 0.1-0.4 0.2-0.8 0.5-0.8 0.2 0 0.2 0.2 0.2 0.3 0 0.1-0.06 0.4-0.1 0.6-0.05 0.2-0.1 0.5-0.2 0.6l-0.2 0.9c-0.04 0.08-0.07 0.3-0.07 0.3 0 0.2 0.1 0.2 0.2 0.2 0.1 0 0.2-0.09 0.3-0.2 0.04-0.06 0.09-0.3 0.1-0.4 0.04-0.1 0.1-0.5 0.2-0.6 0.04-0.2 0.08-0.3 0.1-0.5 0.08-0.3 0.09-0.4 0.3-0.6 0.2-0.3 0.5-0.6 1-0.6 0.4 0 0.4 0.4 0.4 0.5 0 0.2-0.01 0.3-0.1 0.7zm6 0.4c0 0.4-0.07 0.8-0.6 1-0.02 0.04-0.05 0.06-0.05 0.09 0 0.05 0.06 0.09 0.09 0.09 0.1 0 0.7-0.6 0.7-1 0-0.4-0.2-0.8-0.5-0.8-0.2 0-0.4 0.2-0.4 0.4 0 0.2 0.2 0.4 0.4 0.4 0.2 0 0.3-0.1 0.3-0.1zm3-4c0-0.1-0.08-0.3-0.3-0.3-0.2 0-0.4 0.2-0.4 0.4 0 0.1 0.08 0.3 0.3 0.3 0.2 0 0.4-0.2 0.4-0.4zm-1 4c-0.02 0.09-0.06 0.2-0.06 0.3 0 0.3 0.3 0.6 0.7 0.6 0.7 0 1-1 1-1 0-0.09-0.08-0.09-0.1-0.09-0.1 0-0.1 0.05-0.1 0.1-0.2 0.6-0.5 0.8-0.7 0.8-0.1 0-0.2-0.08-0.2-0.2 0-0.2 0.06-0.3 0.1-0.4 0.07-0.2 0.1-0.4 0.2-0.6 0.06-0.2 0.3-0.8 0.3-0.9 0.02-0.07 0.05-0.2 0.05-0.2 0-0.3-0.3-0.6-0.7-0.6-0.7 0-1 0.9-1 1 0 0.08 0.09 0.08 0.1 0.08 0.09 0 0.1-0.04 0.1-0.1 0.2-0.6 0.5-0.9 0.7-0.9 0.1 0 0.2 0.06 0.2 0.2 0 0.2-0.04 0.3-0.2 0.7zm3 0.7c0 0.4-0.07 0.8-0.6 1-0.02 0.04-0.05 0.06-0.05 0.09 0 0.05 0.06 0.09 0.09 0.09 0.1 0 0.7-0.6 0.7-1 0-0.4-0.2-0.8-0.5-0.8-0.2 0-0.4 0.2-0.4 0.4 0 0.2 0.2 0.4 0.4 0.4 0.2 0 0.3-0.1 0.3-0.1zm5-0.9c0.6-0.7 0.9-2 0.9-2 0-0.09-0.08-0.09-0.1-0.09-0.09 0-0.09 0.02-0.1 0.2-0.1 0.5-0.4 0.9-0.7 1 0-0.1-0.02-0.6-0.04-0.6-0.1-0.7-0.6-1-1-1-1 0-2 0.9-2 2 0 0.6 0.5 1 1 1 0.6 0 1-0.3 2-0.6 0.2 0.5 0.5 0.6 0.7 0.6 0.4 0 0.7-0.3 0.7-0.5 0-0.08-0.08-0.08-0.1-0.08-0.09 0-0.1 0.04-0.1 0.07-0.1 0.3-0.3 0.3-0.4 0.3-0.09 0-0.2 0-0.3-0.9zm-0.5 0.2c-0.7 0.6-1 0.6-2 0.6-0.5 0-0.7-0.3-0.7-0.8 0-0.2 0.1-1 0.5-1 0.3-0.4 0.7-0.5 1-0.5 0.6 0 0.7 0.5 0.8 1 0.04 0.3 0.02 0.8 0.06 1z"/>
<path d="m32 0.7c0-0.2-0.01-0.2-0.2-0.2-0.4 0.3-0.9 0.3-1 0.3h-0.08v0.2h0.08c0.1 0 0.4-0.01 0.7-0.1v2c0 0.2 0 0.2-0.5 0.2h-0.2v0.2c0.3-0.02 0.7-0.02 1-0.02 0.3 0 0.7 0 1 0.02v-0.2h-0.2c-0.5 0-0.5-0.05-0.5-0.2z"/>
<path d="m34-2c-0.06 0-0.1 0-0.1 0.08 0 0.04 0.02 0.06 0.07 0.1 0.6 0.6 1 1 1 3 0 1-0.5 3-1 3-0.1 0.1-0.1 0.1-0.1 0.2 0 0.04 0.02 0.08 0.09 0.08 0.08 0 0.8-0.5 1-1 0.3-0.6 0.5-1 0.5-2 0-1-0.3-3-2-3zm5 0c-1 0.9-2 2-2 3 0 1 0.3 3 2 3 0.06 0 0.1 0 0.1-0.08 0-0.05-0.02-0.06-0.07-0.1-0.9-0.8-1-2-1-3 0-2 0.7-3 1-3 0.02-0.02 0.05-0.05 0.05-0.08 0-0.08-0.08-0.08-0.1-0.08z"/>
<path d="m41 2c-0.04 0.08-0.07 0.3-0.07 0.3 0 0.2 0.1 0.2 0.2 0.2 0.1 0 0.2-0.09 0.3-0.2 0.04-0.06 0.09-0.3 0.1-0.4 0.04-0.1 0.1-0.5 0.2-0.6 0.04-0.2 0.08-0.3 0.1-0.5 0.08-0.3 0.09-0.4 0.3-0.6 0.2-0.3 0.5-0.6 1-0.6 0.4 0 0.4 0.4 0.4 0.5 0 0.4-0.3 1-0.4 1-0.07 0.2-0.1 0.3-0.1 0.4 0 0.4 0.3 0.6 0.7 0.6 0.7 0 1-1 1-1 0-0.09-0.09-0.09-0.1-0.09-0.09 0-0.1 0.05-0.1 0.1-0.2 0.6-0.5 0.8-0.7 0.8-0.2 0-0.2-0.09-0.2-0.2 0-0.2 0.04-0.2 0.2-0.6 0.09-0.2 0.4-0.9 0.4-1 0-0.7-0.5-0.8-0.9-0.8-0.6 0-1 0.4-1 0.6-0.05-0.5-0.5-0.6-0.8-0.6-0.3 0-0.5 0.2-0.6 0.4-0.2 0.3-0.2 0.7-0.2 0.7 0 0.08 0.09 0.08 0.1 0.08 0.09 0 0.1-0.01 0.2-0.2 0.1-0.4 0.2-0.8 0.5-0.8 0.2 0 0.2 0.2 0.2 0.3 0 0.1-0.06 0.4-0.1 0.6-0.05 0.2-0.1 0.5-0.2 0.6zm6 0.3c0 0.4-0.07 0.8-0.6 1-0.02 0.04-0.05 0.06-0.05 0.09 0 0.05 0.06 0.09 0.09 0.09 0.1 0 0.7-0.6 0.7-1 0-0.4-0.2-0.8-0.5-0.8-0.2 0-0.4 0.2-0.4 0.4 0 0.2 0.2 0.4 0.4 0.4 0.2 0 0.3-0.1 0.3-0.1zm4-4c0-0.1-0.09-0.3-0.3-0.3-0.2 0-0.4 0.2-0.4 0.4 0 0.1 0.08 0.3 0.3 0.3 0.2 0 0.4-0.2 0.4-0.4zm-1 5c-0.1 0.5-0.5 0.9-0.9 0.9-0.08 0-0.2-0.01-0.2-0.05 0.2-0.08 0.2-0.2 0.2-0.4 0-0.2-0.1-0.3-0.3-0.3-0.2 0-0.4 0.2-0.4 0.4 0 0.3 0.3 0.4 0.7 0.4s1-0.2 1-1l0.6-2c0.02-0.07 0.04-0.1 0.04-0.2 0-0.4-0.3-0.7-0.7-0.7-0.8 0-1 1-1 1 0 0.08 0.1 0.08 0.1 0.08 0.08 0 0.08-0.01 0.1-0.1 0.2-0.4 0.5-0.8 0.9-0.8 0.2 0 0.2 0.1 0.2 0.3 0 0.08-0.01 0.2-0.02 0.2zm3-0.5c0 0.4-0.07 0.8-0.6 1-0.02 0.04-0.05 0.06-0.05 0.09 0 0.05 0.06 0.09 0.09 0.09 0.1 0 0.7-0.6 0.7-1 0-0.4-0.2-0.8-0.5-0.8-0.2 0-0.4 0.2-0.4 0.4 0 0.2 0.2 0.4 0.4 0.4 0.2 0 0.3-0.1 0.3-0.1zm5-0.9c0.6-0.7 0.9-2 0.9-2 0-0.09-0.08-0.09-0.1-0.09-0.09 0-0.09 0.02-0.1 0.2-0.1 0.5-0.4 0.9-0.7 1 0-0.1-0.02-0.6-0.04-0.6-0.1-0.7-0.6-1-1-1-1 0-2 0.9-2 2 0 0.6 0.5 1 1 1 0.6 0 1-0.3 2-0.6 0.2 0.5 0.5 0.6 0.7 0.6 0.4 0 0.7-0.3 0.7-0.5 0-0.08-0.08-0.08-0.1-0.08-0.09 0-0.1 0.04-0.1 0.07-0.1 0.3-0.3 0.3-0.4 0.3-0.09 0-0.2 0-0.3-0.9zm-0.5 0.2c-0.7 0.6-1 0.6-2 0.6-0.5 0-0.7-0.3-0.7-0.8 0-0.2 0.1-1 0.5-1 0.3-0.4 0.7-0.5 1-0.5 0.6 0 0.7 0.5 0.8 1 0.04 0.3 0.02 0.8 0.06 1z"/>
<path d="m61 3h-0.2c-0.01 0.09-0.06 0.4-0.1 0.5-0.04 0.02-0.5 0.02-0.5 0.02h-1c0.3-0.2 0.7-0.5 1-0.7 0.5-0.3 0.9-0.6 0.9-1 0-0.6-0.6-1-1-1-0.7 0-1 0.4-1 0.9 0 0.3 0.2 0.3 0.3 0.3 0.1 0 0.3-0.09 0.3-0.3 0-0.2-0.1-0.3-0.3-0.3 0.1-0.2 0.4-0.4 0.8-0.4 0.5 0 0.9 0.3 0.9 0.8 0 0.4-0.3 0.7-0.7 1l-1 1c-0.05 0.05-0.06 0.05-0.06 0.08v0.2h2z"/>
<path d="m62-2c-0.06 0-0.1 0-0.1 0.08 0 0.04 0.02 0.06 0.07 0.1 0.6 0.6 1 1 1 3 0 1-0.5 3-1 3-0.1 0.1-0.1 0.1-0.1 0.2 0 0.04 0.02 0.08 0.09 0.08 0.08 0 0.8-0.5 1-1 0.3-0.6 0.5-1 0.5-2 0-1-0.3-3-2-3z"/>
<path d="m72-2h3c0.1 0 0.3 0 0.3-0.2 0-0.2-0.2-0.2-0.3-0.2h-3v-3c0-0.1 0-0.3-0.2-0.3-0.2 0-0.2 0.2-0.2 0.3v3h-3c-0.1 0-0.3 0-0.3 0.2 0 0.2 0.2 0.2 0.3 0.2h3v3c0 0.1 0 0.3 0.2 0.3 0.2 0 0.2-0.2 0.2-0.3z"/>
<path d="m84-6c0.09-0.4 0.3-0.7 1-0.7 0.05 0 0.2-0.01 0.2-0.2 0-0.01 0-0.1-0.1-0.1-0.3 0-0.7 0.04-1 0.04-0.3 0-0.7-0.04-1-0.04-0.06 0-0.2 0-0.2 0.2 0 0.1 0.09 0.1 0.2 0.1 0.6 0.01 0.7 0.2 0.7 0.4 0 0.04-0.02 0.2-0.04 0.2l-0.9 4c-0.3 1-1 2-2 2-0.7 0-1-0.4-1-1 0-0.02 0-0.3 0.1-0.8l1-4c0.09-0.4 0.1-0.5 0.8-0.5 0.3 0 0.3 0 0.3-0.2 0-0.1-0.1-0.1-0.1-0.1-0.3 0-1 0.04-1 0.04-0.3 0-1-0.04-1-0.04-0.08 0-0.2 0-0.2 0.2 0 0.1 0.09 0.1 0.3 0.1 0.01 0 0.2 0 0.4 0.01 0.2 0.02 0.3 0.04 0.3 0.2 0 0.06-0.1 0.5-0.2 0.7l-0.2 0.9c-0.09 0.4-0.6 2-0.6 2-0.07 0.3-0.07 0.4-0.07 0.6 0 1 0.9 2 2 2 1 0 2-1 3-2z"/>
<path d="m91-4v-0.2h-0.1c-0.5 0-0.5-0.07-0.6-0.3l-2-4c-0.04-0.1-0.06-0.2-0.2-0.2-0.1 0-0.2 0.05-0.2 0.2l-2 4c-0.07 0.2-0.2 0.5-0.8 0.5v0.2c0.2-0.02 0.5-0.02 0.7-0.02 0.3 0 0.8 0.02 0.8 0.02v-0.2c-0.3 0-0.5-0.1-0.5-0.3 0-0.06 0-0.07 0.04-0.1l0.3-0.9h2l0.4 1c0.01 0.04 0.04 0.08 0.04 0.1 0 0.2-0.4 0.2-0.6 0.2v0.2l1-0.02c0.3 0 0.9 0.01 0.9 0.02zm-2-2h-2l0.9-2zm8 0.2v-0.2c-0.05 0-0.6 0.02-0.9 0.02-0.4 0-0.9 0-1-0.02v0.2h0.3c0.7 0 0.7 0.09 0.7 0.3v0.4c0 0.2 0 0.4-0.4 0.6-0.3 0.2-0.7 0.2-0.8 0.2-0.8 0-2-0.4-2-2 0-2 1-2 2-2 0.7 0 2 0.5 2 2 0.01 0.08 0.07 0.08 0.1 0.08 0.1 0 0.1-0.05 0.1-0.2v-2c0-0.1 0-0.2-0.09-0.2-0.02 0-0.06 0-0.1 0.08l-0.4 0.5c-0.3-0.4-0.8-0.6-1-0.6-1 0-3 1-3 3 0 1 1 3 3 3 0.4 0 1-0.07 1-0.6 0.1 0.2 0.4 0.4 0.4 0.4 0.08 0 0.08-0.08 0.08-0.2v-1c0-0.3 0.07-0.3 0.5-0.3zm6-3v-0.2c-0.2 0.01-0.5 0.02-0.7 0.02-0.3 0-0.8-0.02-0.8-0.02v0.2c0.3 0 0.5 0.1 0.5 0.3 0 0.05-0.01 0.09-0.02 0.1l-1 3-1-4c-0.05-0.08-0.05-0.09-0.05-0.1 0-0.2 0.4-0.2 0.6-0.2v-0.2l-1 0.02c-0.4 0-0.9-0.02-0.9-0.02v0.2h0.1c0.4 0 0.5 0.04 0.6 0.2l2 4c0.05 0.1 0.07 0.2 0.2 0.2 0.07 0 0.1 0 0.2-0.2l2-4c0.09-0.2 0.3-0.4 0.8-0.5z"/>
<path d="m87-2c-1 0.9-2 2-2 3 0 1 0.3 3 2 3 0.06 0 0.1 0 0.1-0.08 0-0.05-0.02-0.06-0.07-0.1-0.9-0.8-1-2-1-3 0-2 0.7-3 1-3 0.02-0.02 0.05-0.05 0.05-0.08 0-0.08-0.08-0.08-0.1-0.08z"/>
<path d="m88 2c-0.04 0.08-0.07 0.3-0.07 0.3 0 0.2 0.1 0.2 0.2 0.2 0.1 0 0.2-0.09 0.3-0.2 0.04-0.06 0.09-0.3 0.1-0.4 0.04-0.1 0.1-0.5 0.2-0.6 0.04-0.2 0.08-0.3 0.1-0.5 0.08-0.3 0.09-0.4 0.3-0.6 0.2-0.3 0.5-0.6 1-0.6 0.4 0 0.4 0.4 0.4 0.5 0 0.4-0.3 1-0.4 1-0.07 0.2-0.1 0.3-0.1 0.4 0 0.4 0.3 0.6 0.7 0.6 0.7 0 1-1 1-1 0-0.09-0.09-0.09-0.1-0.09-0.09 0-0.1 0.05-0.1 0.1-0.2 0.6-0.5 0.8-0.7 0.8-0.2 0-0.2-0.09-0.2-0.2 0-0.2 0.04-0.2 0.2-0.6 0.09-0.2 0.4-0.9 0.4-1 0-0.7-0.5-0.8-0.9-0.8-0.6 0-1 0.4-1 0.6-0.05-0.5-0.5-0.6-0.8-0.6s-0.5 0.2-0.6 0.4c-0.2 0.3-0.2 0.7-0.2 0.7 0 0.08 0.09 0.08 0.1 0.08 0.09 0 0.1-0.01 0.2-0.2 0.1-0.4 0.2-0.8 0.5-0.8 0.2 0 0.2 0.2 0.2 0.3 0 0.1-0.06 0.4-0.1 0.6-0.05 0.2-0.1 0.5-0.2 0.6zm6 0.3c0 0.4-0.07 0.8-0.6 1-0.02 0.04-0.05 0.06-0.05 0.09 0 0.05 0.06 0.09 0.09 0.09 0.1 0 0.7-0.6 0.7-1 0-0.4-0.2-0.8-0.5-0.8-0.2 0-0.4 0.2-0.4 0.4 0 0.2 0.2 0.4 0.4 0.4 0.2 0 0.3-0.1 0.3-0.1zm4-4c0-0.1-0.09-0.3-0.3-0.3-0.2 0-0.4 0.2-0.4 0.4 0 0.1 0.08 0.3 0.3 0.3 0.2 0 0.4-0.2 0.4-0.4zm-1 5c-0.1 0.5-0.5 0.9-0.9 0.9-0.08 0-0.2-0.01-0.2-0.05 0.2-0.08 0.2-0.2 0.2-0.4 0-0.2-0.1-0.3-0.3-0.3-0.2 0-0.4 0.2-0.4 0.4 0 0.3 0.3 0.4 0.7 0.4s1-0.2 1-1l0.6-2c0.02-0.07 0.04-0.1 0.04-0.2 0-0.4-0.3-0.7-0.7-0.7-0.8 0-1 1-1 1 0 0.08 0.1 0.08 0.1 0.08 0.08 0 0.08-0.01 0.1-0.1 0.2-0.4 0.5-0.8 0.9-0.8 0.2 0 0.2 0.1 0.2 0.3 0 0.08-0.01 0.2-0.02 0.2zm3-0.5c0 0.4-0.07 0.8-0.6 1-0.02 0.04-0.05 0.06-0.05 0.09 0 0.05 0.06 0.09 0.09 0.09 0.1 0 0.7-0.6 0.7-1 0-0.4-0.2-0.8-0.5-0.8-0.2 0-0.4 0.2-0.4 0.4 0 0.2 0.2 0.4 0.4 0.4 0.2 0 0.3-0.1 0.3-0.1zm5-0.9c0.6-0.7 0.9-2 0.9-2 0-0.09-0.08-0.09-0.1-0.09-0.09 0-0.09 0.02-0.1 0.2-0.1 0.5-0.4 0.9-0.7 1 0-0.1-0.02-0.6-0.04-0.6-0.1-0.7-0.6-1-1-1-1 0-2 0.9-2 2 0 0.6 0.5 1 1 1 0.6 0 1-0.3 2-0.6 0.2 0.5 0.5 0.6 0.7 0.6 0.4 0 0.7-0.3 0.7-0.5 0-0.08-0.08-0.08-0.1-0.08-0.09 0-0.1 0.04-0.1 0.07-0.1 0.3-0.3 0.3-0.4 0.3-0.09 0-0.2 0-0.3-0.9zm-0.5 0.2c-0.7 0.6-1 0.6-2 0.6-0.5 0-0.7-0.3-0.7-0.8 0-0.2 0.1-1 0.5-1 0.3-0.4 0.7-0.5 1-0.5 0.6 0 0.7 0.5 0.8 1 0.04 0.3 0.02 0.8 0.06 1z"/>
<path d="m109 3h-0.2c-0.01 0.09-0.06 0.4-0.1 0.5-0.04 0.02-0.5 0.02-0.5 0.02h-1c0.3-0.2 0.7-0.5 1-0.7 0.5-0.3 0.9-0.6 0.9-1 0-0.6-0.6-1-1-1-0.7 0-1 0.4-1 0.9 0 0.3 0.2 0.3 0.3 0.3 0.1 0 0.3-0.09 0.3-0.3 0-0.2-0.1-0.3-0.3-0.3 0.1-0.2 0.4-0.4 0.8-0.4 0.5 0 0.9 0.3 0.9 0.8 0 0.4-0.3 0.7-0.7 1l-1 1c-0.05 0.05-0.06 0.05-0.06 0.08v0.2h2z"/>
<path d="m110-2c-0.06 0-0.1 0-0.1 0.08 0 0.04 0.02 0.06 0.07 0.1 0.6 0.6 1 1 1 3 0 1-0.5 3-1 3-0.1 0.1-0.1 0.1-0.1 0.2 0 0.04 0.02 0.08 0.09 0.08 0.08 0 0.8-0.5 1-1 0.3-0.6 0.5-1 0.5-2 0-1-0.3-3-2-3zm5 0c-1 0.9-2 2-2 3 0 1 0.3 3 2 3 0.06 0 0.1 0 0.1-0.08 0-0.05-0.02-0.06-0.07-0.1-0.9-0.8-1-2-1-3 0-2 0.7-3 1-3 0.02-0.02 0.05-0.05 0.05-0.08 0-0.08-0.08-0.08-0.1-0.08z"/>
<path d="m119 2c-0.04 0.1-0.09 0.4-0.09 0.4 0 0.2 0.1 0.2 0.2 0.2 0.1 0 0.2-0.09 0.3-0.2 0.04-0.06 0.09-0.3 0.1-0.4 0.04-0.1 0.1-0.5 0.2-0.6 0.05-0.2 0.08-0.3 0.1-0.5 0.08-0.3 0.08-0.3 0.2-0.5 0.2-0.3 0.6-0.7 1-0.7 0.4 0 0.4 0.3 0.4 0.5 0 0.4-0.3 1-0.4 1-0.08 0.2-0.1 0.3-0.1 0.4 0 0.4 0.3 0.6 0.7 0.6 0.7 0 1-1 1-1 0-0.09-0.09-0.09-0.1-0.09-0.1 0-0.1 0.05-0.1 0.1-0.2 0.6-0.5 0.8-0.7 0.8-0.1 0-0.2-0.09-0.2-0.2 0-0.2 0.04-0.2 0.2-0.6 0.08-0.2 0.4-0.9 0.4-1 0-0.1 0-0.4-0.3-0.6-0.1-0.09-0.3-0.2-0.7-0.2-0.6 0-1 0.4-1 0.7-0.06-0.6-0.6-0.7-0.9-0.7-0.6 0-1 0.4-1 0.6-0.05-0.5-0.5-0.6-0.8-0.6s-0.5 0.2-0.6 0.4c-0.2 0.3-0.2 0.7-0.2 0.7 0 0.08 0.09 0.08 0.1 0.08 0.09 0 0.1-0.01 0.2-0.2 0.1-0.4 0.2-0.8 0.5-0.8 0.2 0 0.2 0.2 0.2 0.3 0 0.1-0.06 0.4-0.1 0.6-0.05 0.2-0.1 0.5-0.2 0.6l-0.2 0.9c-0.04 0.08-0.07 0.3-0.07 0.3 0 0.2 0.1 0.2 0.2 0.2 0.1 0 0.2-0.09 0.3-0.2 0.04-0.06 0.09-0.3 0.1-0.4 0.04-0.1 0.1-0.5 0.2-0.6 0.04-0.2 0.08-0.3 0.1-0.5 0.08-0.3 0.09-0.4 0.3-0.6 0.2-0.3 0.5-0.6 1-0.6 0.4 0 0.4 0.4 0.4 0.5 0 0.2-0.01 0.3-0.1 0.7zm6 0.4c0 0.4-0.07 0.8-0.6 1-0.02 0.04-0.05 0.06-0.05 0.09 0 0.05 0.06 0.09 0.09 0.09 0.1 0 0.7-0.6 0.7-1 0-0.4-0.2-0.8-0.5-0.8-0.2 0-0.4 0.2-0.4 0.4 0 0.2 0.2 0.4 0.4 0.4 0.2 0 0.3-0.1 0.3-0.1zm3-4c0-0.1-0.08-0.3-0.3-0.3-0.2 0-0.4 0.2-0.4 0.4 0 0.1 0.08 0.3 0.3 0.3 0.2 0 0.4-0.2 0.4-0.4zm-1 4c-0.02 0.09-0.06 0.2-0.06 0.3 0 0.3 0.3 0.6 0.7 0.6 0.7 0 1-1 1-1 0-0.09-0.08-0.09-0.1-0.09-0.1 0-0.1 0.05-0.1 0.1-0.2 0.6-0.5 0.8-0.7 0.8-0.1 0-0.2-0.08-0.2-0.2 0-0.2 0.06-0.3 0.1-0.4 0.07-0.2 0.1-0.4 0.2-0.6 0.06-0.2 0.3-0.8 0.3-0.9 0.02-0.07 0.05-0.2 0.05-0.2 0-0.3-0.3-0.6-0.7-0.6-0.7 0-1 0.9-1 1 0 0.08 0.09 0.08 0.1 0.08 0.09 0 0.1-0.04 0.1-0.1 0.2-0.6 0.5-0.9 0.7-0.9 0.1 0 0.2 0.06 0.2 0.2 0 0.2-0.04 0.3-0.2 0.7zm3 0.7c0 0.4-0.07 0.8-0.6 1-0.02 0.04-0.05 0.06-0.05 0.09 0 0.05 0.06 0.09 0.09 0.09 0.1 0 0.7-0.6 0.7-1 0-0.4-0.2-0.8-0.5-0.8-0.2 0-0.4 0.2-0.4 0.4 0 0.2 0.2 0.4 0.4 0.4 0.2 0 0.3-0.1 0.3-0.1zm5-0.9c0.6-0.7 0.9-2 0.9-2 0-0.09-0.08-0.09-0.1-0.09-0.09 0-0.09 0.02-0.1 0.2-0.1 0.5-0.4 0.9-0.7 1 0-0.1-0.02-0.6-0.04-0.6-0.1-0.7-0.6-1-1-1-1 0-2 0.9-2 2 0 0.6 0.5 1 1 1 0.6 0 1-0.3 2-0.6 0.2 0.5 0.5 0.6 0.7 0.6 0.4 0 0.7-0.3 0.7-0.5 0-0.08-0.08-0.08-0.1-0.08-0.09 0-0.1 0.04-0.1 0.07-0.1 0.3-0.3 0.3-0.4 0.3-0.09 0-0.2 0-0.3-0.9zm-0.5 0.2c-0.7 0.6-1 0.6-2 0.6-0.5 0-0.7-0.3-0.7-0.8 0-0.2 0.1-1 0.5-1 0.3-0.4 0.7-0.5 1-0.5 0.6 0 0.7 0.5 0.8 1 0.04 0.3 0.02 0.8 0.06 1z"/>
<path d="m138 0.7c0-0.2-0.01-0.2-0.2-0.2-0.4 0.3-0.9 0.3-1 0.3h-0.08v0.2h0.08c0.1 0 0.4-0.01 0.7-0.1v2c0 0.2 0 0.2-0.5 0.2h-0.2v0.2c0.3-0.02 0.7-0.02 1-0.02 0.3 0 0.7 0 1 0.02v-0.2h-0.2c-0.5 0-0.5-0.05-0.5-0.2z"/>
<path d="m140-2c-0.06 0-0.1 0-0.1 0.08 0 0.04 0.02 0.06 0.07 0.1 0.6 0.6 1 1 1 3 0 1-0.5 3-1 3-0.1 0.1-0.1 0.1-0.1 0.2 0 0.04 0.02 0.08 0.09 0.08 0.08 0 0.8-0.5 1-1 0.3-0.6 0.5-1 0.5-2 0-1-0.3-3-2-3z"/>
<path d="m149-2h3c0.1 0 0.3 0 0.3-0.2 0-0.2-0.2-0.2-0.3-0.2h-3v-3c0-0.1 0-0.3-0.2-0.3s-0.2 0.2-0.2 0.3v3h-3c-0.1 0-0.3 0-0.3 0.2 0 0.2 0.2 0.2 0.3 0.2h3v3c0 0.1 0 0.3 0.2 0.3s0.2-0.2 0.2-0.3zm9-1c0.8-0.3 1-1 1-2 0-0.8-0.9-1-2-1-1 0-2 0.6-2 1 0 0.3 0.2 0.5 0.5 0.5 0.3 0 0.5-0.2 0.5-0.5 0-0.5-0.5-0.5-0.6-0.5 0.3-0.5 1-0.6 1-0.6 0.4 0 0.9 0.2 0.9 1 0 0.1-0.01 0.7-0.3 1-0.3 0.5-0.6 0.5-0.9 0.5-0.08 0.01-0.3 0.04-0.4 0.04-0.08 0.01-0.2 0.02-0.2 0.1 0 0.1 0.07 0.1 0.2 0.1h0.4c0.8 0 1 0.7 1 2 0 1-0.7 2-1 2-0.4 0-1-0.2-2-0.8 0.4 0.06 0.7-0.2 0.7-0.5 0-0.4-0.3-0.6-0.6-0.6-0.2 0-0.6 0.1-0.6 0.6 0 0.9 0.9 2 2 2 1 0 2-0.9 2-2 0-0.8-0.6-2-2-2z"/>
<path d="m169-2c0.2 0 0.4 0 0.4-0.2 0-0.2-0.2-0.2-0.4-0.2h-5c-0.2 0-0.3 0-0.3 0.2 0 0.2 0.2 0.2 0.3 0.2z"/>
<path d="m175-3h2c1 0 3-1 3-2 0-0.8-0.7-2-2-2h-3c-0.2 0-0.3 0-0.3 0.2 0 0.1 0.08 0.1 0.3 0.1 0.1 0 0.3 0.01 0.4 0.01 0.2 0.02 0.2 0.06 0.2 0.2 0 0.04 0 0.07-0.04 0.2l-1 5c-0.09 0.4-0.1 0.5-0.9 0.5-0.2 0-0.3 0-0.3 0.2 0 0.1 0.1 0.1 0.2 0.1 0.3 0 1-0.04 1-0.04 0.2 0 0.4 0.01 0.6 0.01 0.2 0 0.4 0.02 0.6 0.02 0.07 0 0.2 0 0.2-0.2 0-0.1-0.08-0.1-0.3-0.1-0.4 0-0.7 0-0.7-0.2 0-0.06 0.02-0.1 0.04-0.2zm0.7-3c0.08-0.4 0.1-0.4 0.5-0.4h0.9c0.8 0 1 0.3 1 0.9 0 0.4-0.2 1-0.6 2-0.5 0.4-1 0.5-2 0.5h-1z"/>
<path d="m185-8c0.1-0.1 0.3-0.3 0.4-0.4 0.3-0.2 0.5-0.2 0.6-0.2 0.07-0.01 0.2-0.01 0.2-0.2 0-0.05-0.05-0.09-0.1-0.09-0.2 0-0.4 0.02-0.6 0.02-0.2 0-0.5-0.02-0.7-0.02-0.04 0-0.1 0-0.1 0.2 0 0.08 0.09 0.09 0.1 0.09 0.2 0.01 0.2 0.09 0.2 0.1 0 0.07-0.04 0.1-0.09 0.2-0.04 0.06-0.07 0.1-0.1 0.2l-2 2-0.9-2c-0.05-0.09-0.05-0.1-0.05-0.1 0-0.1 0.3-0.1 0.4-0.1 0.09 0 0.2 0 0.2-0.2 0-0.01 0-0.09-0.1-0.09-0.2 0-0.7 0.02-0.9 0.02-0.2 0-0.6-0.02-0.8-0.02-0.05 0-0.1 0.01-0.1 0.2 0 0.09 0.08 0.09 0.2 0.09 0.4 0 0.4 0.06 0.5 0.2l1 2-0.3 1c-0.09 0.4-0.09 0.4-0.6 0.4-0.1 0-0.2 0-0.2 0.1 0 0.07 0.05 0.1 0.1 0.1 0.1 0 0.3-0.02 0.4-0.02h0.5 0.4c0.2 0 0.3 0.02 0.5 0.02 0.04 0 0.2 0 0.2-0.2 0-0.09-0.08-0.09-0.2-0.09-0.1 0-0.1 0-0.3-0.02-0.1-0.01-0.2-0.02-0.2-0.09 0-0.05 0.08-0.4 0.1-0.6 0.06-0.2 0.2-0.8 0.2-0.9 0.02-0.1 0.02-0.1 0.09-0.2z"/>
<path d="m181-3c-1 0.9-2 2-2 3 0 1 0.3 3 2 3 0.06 0 0.1 0 0.1-0.08 0-0.05-0.02-0.06-0.07-0.1-0.9-0.8-1-2-1-3 0-2 0.7-3 1-3 0.02-0.02 0.05-0.05 0.05-0.08 0-0.08-0.08-0.08-0.1-0.08z"/>
<path d="m185 2c-0.04 0.1-0.09 0.4-0.09 0.4 0 0.2 0.1 0.2 0.2 0.2 0.1 0 0.2-0.09 0.3-0.2 0.04-0.06 0.09-0.3 0.1-0.4 0.04-0.1 0.1-0.5 0.2-0.6 0.05-0.2 0.08-0.3 0.1-0.5 0.08-0.3 0.08-0.3 0.2-0.5 0.2-0.3 0.6-0.7 1-0.7 0.4 0 0.4 0.3 0.4 0.5 0 0.4-0.3 1-0.4 1-0.08 0.2-0.1 0.3-0.1 0.4 0 0.4 0.3 0.6 0.7 0.6 0.7 0 1-1 1-1 0-0.09-0.09-0.09-0.1-0.09-0.1 0-0.1 0.05-0.1 0.1-0.2 0.6-0.5 0.8-0.7 0.8-0.1 0-0.2-0.09-0.2-0.2 0-0.2 0.04-0.2 0.2-0.6 0.08-0.2 0.4-0.9 0.4-1 0-0.1 0-0.4-0.3-0.6-0.1-0.09-0.3-0.2-0.7-0.2-0.6 0-1 0.4-1 0.7-0.06-0.6-0.6-0.7-0.9-0.7-0.6 0-1 0.4-1 0.6-0.05-0.5-0.5-0.6-0.8-0.6s-0.5 0.2-0.6 0.4c-0.2 0.3-0.2 0.7-0.2 0.7 0 0.08 0.09 0.08 0.1 0.08 0.09 0 0.1-0.01 0.2-0.2 0.1-0.4 0.2-0.8 0.5-0.8 0.2 0 0.2 0.2 0.2 0.3 0 0.1-0.06 0.4-0.1 0.6-0.05 0.2-0.1 0.5-0.2 0.6l-0.2 0.9c-0.04 0.08-0.07 0.3-0.07 0.3 0 0.2 0.1 0.2 0.2 0.2 0.1 0 0.2-0.09 0.3-0.2 0.04-0.06 0.09-0.3 0.1-0.4 0.04-0.1 0.1-0.5 0.2-0.6 0.04-0.2 0.08-0.3 0.1-0.5 0.08-0.3 0.09-0.4 0.3-0.6 0.2-0.3 0.5-0.6 1-0.6 0.4 0 0.4 0.4 0.4 0.5 0 0.2-0.01 0.3-0.1 0.7zm6 0.4c0 0.4-0.07 0.8-0.6 1-0.02 0.04-0.05 0.06-0.05 0.09 0 0.05 0.06 0.09 0.09 0.09 0.1 0 0.7-0.6 0.7-1 0-0.4-0.2-0.8-0.5-0.8-0.2 0-0.4 0.2-0.4 0.4 0 0.2 0.2 0.4 0.4 0.4 0.2 0 0.3-0.1 0.3-0.1zm3-4c0-0.1-0.08-0.3-0.3-0.3-0.2 0-0.4 0.2-0.4 0.4 0 0.1 0.08 0.3 0.3 0.3 0.2 0 0.4-0.2 0.4-0.4zm-1 4c-0.02 0.09-0.06 0.2-0.06 0.3 0 0.3 0.3 0.6 0.7 0.6 0.7 0 1-1 1-1 0-0.09-0.08-0.09-0.1-0.09-0.1 0-0.1 0.05-0.1 0.1-0.2 0.6-0.5 0.8-0.7 0.8-0.1 0-0.2-0.08-0.2-0.2 0-0.2 0.06-0.3 0.1-0.4 0.07-0.2 0.1-0.4 0.2-0.6 0.06-0.2 0.3-0.8 0.3-0.9 0.02-0.07 0.05-0.2 0.05-0.2 0-0.3-0.3-0.6-0.7-0.6-0.7 0-1 0.9-1 1 0 0.08 0.09 0.08 0.1 0.08 0.09 0 0.1-0.04 0.1-0.1 0.2-0.6 0.5-0.9 0.7-0.9 0.1 0 0.2 0.06 0.2 0.2 0 0.2-0.04 0.3-0.2 0.7zm3 0.7c0 0.4-0.07 0.8-0.6 1-0.02 0.04-0.05 0.06-0.05 0.09 0 0.05 0.06 0.09 0.09 0.09 0.1 0 0.7-0.6 0.7-1 0-0.4-0.2-0.8-0.5-0.8-0.2 0-0.4 0.2-0.4 0.4 0 0.2 0.2 0.4 0.4 0.4 0.2 0 0.3-0.1 0.3-0.1zm5-0.9c0.6-0.7 0.9-2 0.9-2 0-0.09-0.08-0.09-0.1-0.09-0.09 0-0.09 0.02-0.1 0.2-0.1 0.5-0.4 0.9-0.7 1 0-0.1-0.02-0.6-0.04-0.6-0.1-0.7-0.6-1-1-1-1 0-2 0.9-2 2 0 0.6 0.5 1 1 1 0.6 0 1-0.3 2-0.6 0.2 0.5 0.5 0.6 0.7 0.6 0.4 0 0.7-0.3 0.7-0.5 0-0.08-0.08-0.08-0.1-0.08-0.09 0-0.1 0.04-0.1 0.07-0.1 0.3-0.3 0.3-0.4 0.3-0.09 0-0.2 0-0.3-0.9zm-0.5 0.2c-0.7 0.6-1 0.6-2 0.6-0.5 0-0.7-0.3-0.7-0.8 0-0.2 0.1-1 0.5-1 0.3-0.4 0.7-0.5 1-0.5 0.6 0 0.7 0.5 0.8 1 0.04 0.3 0.02 0.8 0.06 1z"/>
<path d="m204 0.5c0-0.2-0.01-0.2-0.2-0.2-0.4 0.3-0.9 0.3-1 0.3h-0.08v0.2h0.08c0.1 0 0.4-0.01 0.7-0.1v2c0 0.2 0 0.2-0.5 0.2h-0.2v0.2c0.3-0.02 0.7-0.02 1-0.02 0.3 0 0.7 0 1 0.02v-0.2h-0.2c-0.5 0-0.5-0.05-0.5-0.2z"/>
<path d="m206-3c-0.06 0-0.1 0-0.1 0.08 0 0.04 0.02 0.06 0.07 0.1 0.6 0.6 1 1 1 3 0 1-0.5 3-1 3-0.1 0.1-0.1 0.1-0.1 0.2 0 0.04 0.02 0.08 0.09 0.08 0.08 0 0.8-0.5 1-1 0.3-0.6 0.5-1 0.5-2 0-1-0.3-3-2-3z"/>
<path d="m210 3c0 0.4-0.07 0.8-0.6 1-0.02 0.04-0.05 0.06-0.05 0.09 0 0.05 0.06 0.09 0.09 0.09 0.1 0 0.7-0.6 0.7-1 0-0.4-0.2-0.8-0.5-0.8-0.2 0-0.4 0.2-0.4 0.4 0 0.2 0.2 0.4 0.4 0.4 0.2 0 0.3-0.1 0.3-0.1zm5-3c0.02-0.1 0.02-0.1 0.02-0.2 0-0.1-0.1-0.2-0.2-0.2-0.08 0-0.2 0.04-0.3 0.2-0.02 0.04-0.07 0.3-0.1 0.4l-0.2 0.6c-0.04 0.2-0.3 1-0.3 1 0 0-0.3 0.6-0.9 0.6-0.5 0-0.5-0.4-0.5-0.6 0-0.4 0.2-0.8 0.4-1 0.08-0.2 0.1-0.3 0.1-0.4 0-0.3-0.3-0.6-0.7-0.6-0.7 0-1 0.9-1 1 0 0.08 0.09 0.08 0.1 0.08 0.09 0 0.1-0.04 0.1-0.1 0.2-0.6 0.5-0.9 0.8-0.9 0.1 0 0.2 0.08 0.2 0.2s-0.06 0.3-0.09 0.4c-0.3 0.8-0.4 1-0.4 1 0 0.1 0 0.4 0.3 0.7 0.2 0.2 0.5 0.2 0.7 0.2 0.3 0 0.5-0.1 0.8-0.3-0.09 0.4-0.2 0.7-0.5 1-0.2 0.2-0.5 0.4-0.8 0.4-0.05 0-0.4 0-0.5-0.2 0.4-0.04 0.4-0.4 0.4-0.4 0-0.2-0.2-0.3-0.3-0.3-0.2 0-0.4 0.1-0.4 0.5 0 0.4 0.3 0.6 0.8 0.6 0.7 0 2-0.5 2-1z"/>
<path d="m225-2c0.2 0 0.4 0 0.4-0.2 0-0.2-0.2-0.2-0.4-0.2h-5c-0.2 0-0.3 0-0.3 0.2 0 0.2 0.2 0.2 0.3 0.2z"/>
<path d="m231-3h2c1 0 3-1 3-2 0-0.8-0.7-2-2-2h-3c-0.2 0-0.3 0-0.3 0.2 0 0.1 0.08 0.1 0.3 0.1 0.1 0 0.3 0.01 0.4 0.01 0.2 0.02 0.2 0.06 0.2 0.2 0 0.04 0 0.07-0.04 0.2l-1 5c-0.09 0.4-0.1 0.5-0.9 0.5-0.2 0-0.3 0-0.3 0.2 0 0.1 0.1 0.1 0.2 0.1 0.3 0 1-0.04 1-0.04 0.2 0 0.4 0.01 0.6 0.01 0.2 0 0.4 0.02 0.6 0.02 0.07 0 0.2 0 0.2-0.2 0-0.1-0.08-0.1-0.3-0.1-0.4 0-0.7 0-0.7-0.2 0-0.06 0.02-0.1 0.04-0.2zm0.7-3c0.08-0.4 0.1-0.4 0.5-0.4h0.9c0.8 0 1 0.3 1 0.9 0 0.4-0.2 1-0.6 2-0.5 0.4-1 0.5-2 0.5h-1z"/>
<path d="m241-8c0.1-0.1 0.3-0.3 0.4-0.4 0.3-0.2 0.5-0.2 0.6-0.2 0.07-0.01 0.2-0.01 0.2-0.2 0-0.05-0.05-0.09-0.1-0.09-0.2 0-0.4 0.02-0.6 0.02-0.2 0-0.5-0.02-0.7-0.02-0.04 0-0.1 0-0.1 0.2 0 0.08 0.09 0.09 0.1 0.09 0.2 0.01 0.2 0.09 0.2 0.1 0 0.07-0.04 0.1-0.09 0.2-0.04 0.06-0.07 0.1-0.1 0.2l-2 2-0.9-2c-0.05-0.09-0.05-0.1-0.05-0.1 0-0.1 0.3-0.1 0.4-0.1 0.09 0 0.2 0 0.2-0.2 0-0.01 0-0.09-0.1-0.09-0.2 0-0.7 0.02-0.9 0.02-0.2 0-0.6-0.02-0.8-0.02-0.05 0-0.1 0.01-0.1 0.2 0 0.09 0.08 0.09 0.2 0.09 0.4 0 0.4 0.06 0.5 0.2l1 2-0.3 1c-0.09 0.4-0.09 0.4-0.6 0.4-0.1 0-0.2 0-0.2 0.1 0 0.07 0.05 0.1 0.1 0.1 0.1 0 0.3-0.02 0.4-0.02h0.5 0.4c0.2 0 0.3 0.02 0.5 0.02 0.04 0 0.2 0 0.2-0.2 0-0.09-0.08-0.09-0.2-0.09-0.1 0-0.1 0-0.3-0.02-0.1-0.01-0.2-0.02-0.2-0.09 0-0.05 0.08-0.4 0.1-0.6 0.06-0.2 0.2-0.8 0.2-0.9 0.02-0.1 0.02-0.1 0.09-0.2z"/>
<path d="m237-3c-1 0.9-2 2-2 3 0 1 0.3 3 2 3 0.06 0 0.1 0 0.1-0.08 0-0.05-0.02-0.06-0.07-0.1-0.9-0.8-1-2-1-3 0-2 0.7-3 1-3 0.02-0.02 0.05-0.05 0.05-0.08 0-0.08-0.08-0.08-0.1-0.08z"/>
<path d="m238 2c-0.04 0.08-0.07 0.3-0.07 0.3 0 0.2 0.1 0.2 0.2 0.2 0.1 0 0.2-0.09 0.3-0.2 0.04-0.06 0.09-0.3 0.1-0.4 0.04-0.1 0.1-0.5 0.2-0.6 0.04-0.2 0.08-0.3 0.1-0.5 0.08-0.3 0.09-0.4 0.3-0.6 0.2-0.3 0.5-0.6 1-0.6 0.4 0 0.4 0.4 0.4 0.5 0 0.4-0.3 1-0.4 1-0.07 0.2-0.1 0.3-0.1 0.4 0 0.4 0.3 0.6 0.7 0.6 0.7 0 1-1 1-1 0-0.09-0.09-0.09-0.1-0.09-0.09 0-0.1 0.05-0.1 0.1-0.2 0.6-0.5 0.8-0.7 0.8-0.2 0-0.2-0.09-0.2-0.2 0-0.2 0.04-0.2 0.2-0.6 0.09-0.2 0.4-0.9 0.4-1 0-0.7-0.5-0.8-0.9-0.8-0.6 0-1 0.4-1 0.6-0.05-0.5-0.5-0.6-0.8-0.6s-0.5 0.2-0.6 0.4c-0.2 0.3-0.2 0.7-0.2 0.7 0 0.08 0.09 0.08 0.1 0.08 0.09 0 0.1-0.01 0.2-0.2 0.1-0.4 0.2-0.8 0.5-0.8 0.2 0 0.2 0.2 0.2 0.3 0 0.1-0.06 0.4-0.1 0.6-0.05 0.2-0.1 0.5-0.2 0.6zm6 0.3c0 0.4-0.07 0.8-0.6 1-0.02 0.04-0.05 0.06-0.05 0.09 0 0.05 0.06 0.09 0.09 0.09 0.1 0 0.7-0.6 0.7-1 0-0.4-0.2-0.8-0.5-0.8-0.2 0-0.4 0.2-0.4 0.4 0 0.2 0.2 0.4 0.4 0.4 0.2 0 0.3-0.1 0.3-0.1zm4-4c0-0.1-0.09-0.3-0.3-0.3-0.2 0-0.4 0.2-0.4 0.4 0 0.1 0.08 0.3 0.3 0.3 0.2 0 0.4-0.2 0.4-0.4zm-1 5c-0.1 0.5-0.5 0.9-0.9 0.9-0.08 0-0.2-0.01-0.2-0.05 0.2-0.08 0.2-0.2 0.2-0.4 0-0.2-0.1-0.3-0.3-0.3-0.2 0-0.4 0.2-0.4 0.4 0 0.3 0.3 0.4 0.7 0.4 0.4 0 1-0.2 1-1l0.6-2c0.02-0.07 0.04-0.1 0.04-0.2 0-0.4-0.3-0.7-0.7-0.7-0.8 0-1 1-1 1 0 0.08 0.1 0.08 0.1 0.08 0.08 0 0.08-0.01 0.1-0.1 0.2-0.4 0.5-0.8 0.9-0.8 0.2 0 0.2 0.1 0.2 0.3 0 0.08-0.01 0.2-0.02 0.2zm3-0.5c0 0.4-0.07 0.8-0.6 1-0.02 0.04-0.05 0.06-0.05 0.09 0 0.05 0.06 0.09 0.09 0.09 0.1 0 0.7-0.6 0.7-1 0-0.4-0.2-0.8-0.5-0.8-0.2 0-0.4 0.2-0.4 0.4 0 0.2 0.2 0.4 0.4 0.4 0.2 0 0.3-0.1 0.3-0.1zm5-0.9c0.6-0.7 0.9-2 0.9-2 0-0.09-0.08-0.09-0.1-0.09-0.09 0-0.09 0.02-0.1 0.2-0.1 0.5-0.4 0.9-0.7 1 0-0.1-0.02-0.6-0.04-0.6-0.1-0.7-0.6-1-1-1-1 0-2 0.9-2 2 0 0.6 0.5 1 1 1 0.6 0 1-0.3 2-0.6 0.2 0.5 0.5 0.6 0.7 0.6 0.4 0 0.7-0.3 0.7-0.5 0-0.08-0.08-0.08-0.1-0.08-0.09 0-0.1 0.04-0.1 0.07-0.1 0.3-0.3 0.3-0.4 0.3-0.09 0-0.2 0-0.3-0.9zm-0.5 0.2c-0.7 0.6-1 0.6-2 0.6-0.5 0-0.7-0.3-0.7-0.8 0-0.2 0.1-1 0.5-1 0.3-0.4 0.7-0.5 1-0.5 0.6 0 0.7 0.5 0.8 1 0.04 0.3 0.02 0.8 0.06 1z"/>
<path d="m259 3h-0.2c-0.01 0.09-0.06 0.4-0.1 0.5-0.04 0.02-0.5 0.02-0.5 0.02h-1c0.3-0.2 0.7-0.5 1-0.7 0.5-0.3 0.9-0.6 0.9-1 0-0.6-0.6-1-1-1-0.7 0-1 0.4-1 0.9 0 0.3 0.2 0.3 0.3 0.3 0.1 0 0.3-0.09 0.3-0.3 0-0.2-0.1-0.3-0.3-0.3 0.1-0.2 0.4-0.4 0.8-0.4 0.5 0 0.9 0.3 0.9 0.8 0 0.4-0.3 0.7-0.7 1l-1 1c-0.05 0.05-0.06 0.05-0.06 0.08v0.2h2z"/>
<path d="m260-3c-0.06 0-0.1 0-0.1 0.08 0 0.04 0.02 0.06 0.07 0.1 0.6 0.6 1 1 1 3 0 1-0.5 3-1 3-0.1 0.1-0.1 0.1-0.1 0.2 0 0.04 0.02 0.08 0.09 0.08 0.08 0 0.8-0.5 1-1 0.3-0.6 0.5-1 0.5-2 0-1-0.3-3-2-3z"/>
<path d="m264 3c0 0.4-0.07 0.8-0.6 1-0.02 0.04-0.05 0.06-0.05 0.09 0 0.05 0.06 0.09 0.09 0.09 0.1 0 0.7-0.6 0.7-1 0-0.4-0.2-0.8-0.5-0.8-0.2 0-0.4 0.2-0.4 0.4 0 0.2 0.2 0.4 0.4 0.4 0.2 0 0.3-0.1 0.3-0.1zm5-3c0.02-0.1 0.02-0.1 0.02-0.2 0-0.1-0.1-0.2-0.2-0.2-0.08 0-0.2 0.04-0.3 0.2-0.02 0.04-0.07 0.3-0.1 0.4l-0.2 0.6c-0.04 0.2-0.3 1-0.3 1 0 0-0.3 0.6-0.9 0.6-0.5 0-0.5-0.4-0.5-0.6 0-0.4 0.2-0.8 0.4-1 0.08-0.2 0.1-0.3 0.1-0.4 0-0.3-0.3-0.6-0.7-0.6-0.7 0-1 0.9-1 1 0 0.08 0.09 0.08 0.1 0.08 0.09 0 0.1-0.04 0.1-0.1 0.2-0.6 0.5-0.9 0.8-0.9 0.1 0 0.2 0.08 0.2 0.2s-0.06 0.3-0.09 0.4c-0.3 0.8-0.4 1-0.4 1 0 0.1 0 0.4 0.3 0.7 0.2 0.2 0.5 0.2 0.7 0.2 0.3 0 0.5-0.1 0.8-0.3-0.09 0.4-0.2 0.7-0.5 1-0.2 0.2-0.5 0.4-0.8 0.4-0.05 0-0.4 0-0.5-0.2 0.4-0.04 0.4-0.4 0.4-0.4 0-0.2-0.2-0.3-0.3-0.3-0.2 0-0.4 0.1-0.4 0.5 0 0.4 0.3 0.6 0.8 0.6 0.7 0 2-0.5 2-1z"/>
<path d="m279-2c0.2 0 0.4 0 0.4-0.2 0-0.2-0.2-0.2-0.4-0.2h-5c-0.2 0-0.3 0-0.3 0.2 0 0.2 0.2 0.2 0.3 0.2z"/>
<path d="m287-13c-0.07 0.2-0.3 0.6-0.7 0.6-0.02 0-0.2 0-0.4-0.09 0.3-0.09 0.3-0.3 0.3-0.4 0-0.2-0.1-0.3-0.3-0.3-0.2 0-0.4 0.2-0.4 0.4 0 0.3 0.4 0.5 0.7 0.5 0.3 0 0.6-0.2 0.8-0.5 0.2 0.4 0.6 0.5 0.8 0.5 0.8 0 1-0.9 1-1 0-0.09-0.09-0.09-0.1-0.09-0.1 0-0.1 0.04-0.1 0.1-0.1 0.5-0.6 0.8-0.9 0.8-0.3 0-0.4-0.2-0.4-0.4 0-0.2 0.2-0.8 0.4-2 0.1-0.5 0.4-0.7 0.7-0.7 0.01 0 0.2 0 0.4 0.1-0.2 0.06-0.3 0.3-0.3 0.4 0 0.2 0.1 0.3 0.3 0.3 0.2 0 0.4-0.1 0.4-0.4 0-0.4-0.4-0.5-0.7-0.5-0.4 0-0.6 0.2-0.8 0.5-0.1-0.3-0.4-0.5-0.8-0.5-0.8 0-1 0.9-1 1 0 0.08 0.1 0.08 0.1 0.08 0.09 0 0.1-0.02 0.1-0.1 0.2-0.5 0.6-0.8 0.9-0.8 0.2 0 0.4 0.1 0.4 0.5 0 0.1-0.08 0.5-0.2 0.7z"/>
<path d="m292-18s0.05-0.09 0.05-0.2c0-0.2-0.2-0.3-0.3-0.3-0.2 0-0.3 0.2-0.3 0.2l-0.8 2c-0.01 0.06-0.01 0.07-0.01 0.08 0 0.08 0.2 0.1 0.2 0.1 0.05 0 0.05-0.02 0.08-0.08z"/>
<path d="m295 4 1-3h-0.2c-0.4 1-1 2-3 2-0.2 0.05-1 0.3-3 0.3h-6l5-6c0.07-0.08 0.09-0.1 0.09-0.2 0-0.02 0-0.05-0.07-0.2l-5-6h5c1 0 2 0.1 2 0.2 0.5 0.08 1 0.3 2 0.8 0.2 0.2 0.9 0.6 1 1h0.2l-1-3h-12c-0.2 0-0.2 0.01-0.3 0.07v0.3l5 7-5 6c-0.1 0.1-0.1 0.2-0.1 0.2 0 0.1 0.09 0.1 0.3 0.1z"/>
<path d="m284 11c-0.07 0.2-0.3 0.6-0.7 0.6-0.02 0-0.2 0-0.4-0.09 0.3-0.09 0.3-0.3 0.3-0.4 0-0.2-0.1-0.3-0.3-0.3-0.2 0-0.4 0.2-0.4 0.4 0 0.3 0.4 0.5 0.7 0.5 0.3 0 0.6-0.2 0.8-0.5 0.2 0.4 0.6 0.5 0.8 0.5 0.8 0 1-0.9 1-1 0-0.09-0.09-0.09-0.1-0.09-0.1 0-0.1 0.04-0.1 0.1-0.1 0.5-0.6 0.8-0.9 0.8-0.3 0-0.4-0.2-0.4-0.4 0-0.2 0.2-0.8 0.4-2 0.1-0.5 0.4-0.7 0.7-0.7 0.01 0 0.2 0 0.4 0.1-0.2 0.06-0.3 0.3-0.3 0.4 0 0.2 0.1 0.3 0.3 0.3 0.2 0 0.4-0.1 0.4-0.4 0-0.4-0.4-0.5-0.7-0.5-0.4 0-0.6 0.2-0.8 0.5-0.1-0.3-0.4-0.5-0.8-0.5-0.8 0-1 0.9-1 1 0 0.08 0.1 0.08 0.1 0.08 0.09 0 0.1-0.02 0.1-0.1 0.2-0.5 0.6-0.8 0.9-0.8 0.2 0 0.4 0.1 0.4 0.5 0 0.1-0.08 0.5-0.2 0.7z"/>
<path d="m292 9c0.1 0 0.3 0 0.3-0.2 0-0.2-0.2-0.2-0.3-0.2h-5c-0.09 0-0.3 0-0.3 0.2 0 0.2 0.2 0.2 0.3 0.2zm0.01 2c0.08 0 0.3 0 0.3-0.2 0-0.2-0.2-0.2-0.3-0.2h-5c-0.1 0-0.3 0-0.3 0.2 0 0.2 0.2 0.2 0.3 0.2zm3-4c0-0.2-0.01-0.2-0.2-0.2-0.4 0.4-1 0.4-1 0.4v0.2c0.2 0 0.6 0 1-0.2v4c0 0.2 0 0.3-0.7 0.3h-0.3v0.2c0.1-0.01 1-0.02 1-0.02 0.2 0 1 0.01 1 0.02v-0.2h-0.3c-0.7 0-0.7-0.09-0.7-0.3z"/>
<path d="m303 6c0.01 0.01 0.1 0.1 0.1 0.1h0.2c0.02 0 0.1-0.01 0.1-0.09 0-0.05-0.02-0.06-0.04-0.09-0.4-0.4-0.9-0.9-2-2-1-2-1-4-1-7 0-4 1-7 3-9 0.04-0.02 0.04-0.06 0.04-0.08 0-0.09-0.07-0.09-0.2-0.09-0.1 0-0.2 0-0.2 0.08-0.9 0.8-2 2-3 4-0.4 1-0.7 3-0.7 5 0 2 0.4 5 2 7 0.3 0.4 0.6 0.8 0.6 0.8 0.1 0.1 0.2 0.3 0.3 0.4z"/>
<path d="m307-3h2c1 0 3-1 3-2 0-0.8-0.7-2-2-2h-3c-0.2 0-0.3 0-0.3 0.2 0 0.1 0.08 0.1 0.3 0.1 0.1 0 0.3 0.01 0.4 0.01 0.2 0.02 0.2 0.06 0.2 0.2 0 0.04 0 0.07-0.04 0.2l-1 5c-0.09 0.4-0.1 0.5-0.9 0.5-0.2 0-0.3 0-0.3 0.2 0 0.1 0.1 0.1 0.2 0.1 0.3 0 1-0.04 1-0.04 0.2 0 0.4 0.01 0.6 0.01 0.2 0 0.4 0.02 0.6 0.02 0.07 0 0.2 0 0.2-0.2 0-0.1-0.08-0.1-0.3-0.1-0.4 0-0.7 0-0.7-0.2 0-0.06 0.02-0.1 0.04-0.2zm0.7-3c0.08-0.4 0.1-0.4 0.5-0.4h0.9c0.8 0 1 0.3 1 0.9 0 0.4-0.2 1-0.6 2-0.5 0.4-1 0.5-2 0.5h-1z"/>
<path d="m316-7 0.7-0.7c0.9-0.9 1-1 2-1 0.09-0.01 0.2-0.01 0.2-0.1 0-0.09-0.07-0.1-0.09-0.1-0.2 0-0.4 0.02-0.7 0.02-0.2 0-0.6-0.02-0.8-0.02-0.06 0-0.1 0.01-0.1 0.2 0 0 0 0.08 0.1 0.09 0.06 0.01 0.2 0.02 0.2 0.2 0 0.1-0.1 0.2-0.2 0.3-0.06 0.05-0.9 0.9-1 1l-0.7-1c-0.01-0.02-0.04-0.07-0.04-0.09 0-0.05 0.1-0.2 0.4-0.2 0.06 0 0.2-0.01 0.2-0.2 0-0.01-0.01-0.09-0.1-0.09-0.2 0-0.3 0.01-0.5 0.01-0.2 0-0.3 0.01-0.5 0.01-0.1 0-0.3 0-0.4-0.01-0.1 0-0.3-0.01-0.4-0.01-0.04 0-0.2 0-0.2 0.2 0 0.09 0.09 0.09 0.2 0.09 0.4 0 0.4 0.07 0.5 0.2l1 2-0.4 0.4c-0.1 0.1-0.5 0.4-0.6 0.6-0.8 0.8-1 1-2 1-0.1 0-0.2 0-0.2 0.2 0 0.02 0.02 0.09 0.09 0.09 0.2 0 0.4-0.02 0.6-0.02h0.4c0.1 0.01 0.3 0.02 0.4 0.02 0.04 0 0.2 0 0.2-0.1 0-0.1-0.08-0.1-0.1-0.1-0.07-0.01-0.2-0.04-0.2-0.2 0-0.1 0.09-0.2 0.2-0.4l1-1 0.8 2c0.04 0.07 0.05 0.08 0.05 0.09 0 0.04-0.1 0.2-0.4 0.2-0.06 0-0.2 0-0.2 0.2 0 0 0.01 0.09 0.1 0.09 0.2 0 0.3-0.02 0.5-0.02h0.5 0.4c0.1 0.01 0.3 0.02 0.4 0.02 0.04 0 0.2 0 0.2-0.2 0-0.09-0.09-0.09-0.2-0.09-0.4 0-0.4-0.08-0.5-0.2z"/>
<path d="m313-3c-1 0.9-2 2-2 3 0 1 0.3 3 2 3 0.06 0 0.1 0 0.1-0.08 0-0.05-0.02-0.06-0.07-0.1-0.9-0.8-1-2-1-3 0-2 0.7-3 1-3 0.02-0.02 0.05-0.05 0.05-0.08 0-0.08-0.08-0.08-0.1-0.08z"/>
<path d="m317 2c-0.04 0.1-0.09 0.4-0.09 0.4 0 0.2 0.1 0.2 0.2 0.2 0.1 0 0.2-0.09 0.3-0.2 0.04-0.06 0.09-0.3 0.1-0.4 0.04-0.1 0.1-0.5 0.2-0.6 0.05-0.2 0.08-0.3 0.1-0.5 0.08-0.3 0.08-0.3 0.2-0.5 0.2-0.3 0.6-0.7 1-0.7 0.4 0 0.4 0.3 0.4 0.5 0 0.4-0.3 1-0.4 1-0.08 0.2-0.1 0.3-0.1 0.4 0 0.4 0.3 0.6 0.7 0.6 0.7 0 1-1 1-1 0-0.09-0.09-0.09-0.1-0.09-0.1 0-0.1 0.05-0.1 0.1-0.2 0.6-0.5 0.8-0.7 0.8-0.1 0-0.2-0.09-0.2-0.2 0-0.2 0.04-0.2 0.2-0.6 0.08-0.2 0.4-0.9 0.4-1 0-0.1 0-0.4-0.3-0.6-0.1-0.09-0.3-0.2-0.7-0.2-0.6 0-1 0.4-1 0.7-0.06-0.6-0.6-0.7-0.9-0.7-0.6 0-1 0.4-1 0.6-0.05-0.5-0.5-0.6-0.8-0.6s-0.5 0.2-0.6 0.4c-0.2 0.3-0.2 0.7-0.2 0.7 0 0.08 0.09 0.08 0.1 0.08 0.09 0 0.1-0.01 0.2-0.2 0.1-0.4 0.2-0.8 0.5-0.8 0.2 0 0.2 0.2 0.2 0.3 0 0.1-0.06 0.4-0.1 0.6-0.05 0.2-0.1 0.5-0.2 0.6l-0.2 0.9c-0.04 0.08-0.07 0.3-0.07 0.3 0 0.2 0.1 0.2 0.2 0.2 0.1 0 0.2-0.09 0.3-0.2 0.04-0.06 0.09-0.3 0.1-0.4 0.04-0.1 0.1-0.5 0.2-0.6 0.04-0.2 0.08-0.3 0.1-0.5 0.08-0.3 0.09-0.4 0.3-0.6 0.2-0.3 0.5-0.6 1-0.6 0.4 0 0.4 0.4 0.4 0.5 0 0.2-0.01 0.3-0.1 0.7zm6 0.4c0 0.4-0.07 0.8-0.6 1-0.02 0.04-0.05 0.06-0.05 0.09 0 0.05 0.06 0.09 0.09 0.09 0.1 0 0.7-0.6 0.7-1 0-0.4-0.2-0.8-0.5-0.8-0.2 0-0.4 0.2-0.4 0.4 0 0.2 0.2 0.4 0.4 0.4 0.2 0 0.3-0.1 0.3-0.1zm3-4c0-0.1-0.08-0.3-0.3-0.3-0.2 0-0.4 0.2-0.4 0.4 0 0.1 0.08 0.3 0.3 0.3 0.2 0 0.4-0.2 0.4-0.4zm-1 4c-0.02 0.09-0.06 0.2-0.06 0.3 0 0.3 0.3 0.6 0.7 0.6 0.7 0 1-1 1-1 0-0.09-0.08-0.09-0.1-0.09-0.1 0-0.1 0.05-0.1 0.1-0.2 0.6-0.5 0.8-0.7 0.8-0.1 0-0.2-0.08-0.2-0.2 0-0.2 0.06-0.3 0.1-0.4 0.07-0.2 0.1-0.4 0.2-0.6 0.06-0.2 0.3-0.8 0.3-0.9 0.02-0.07 0.05-0.2 0.05-0.2 0-0.3-0.3-0.6-0.7-0.6-0.7 0-1 0.9-1 1 0 0.08 0.09 0.08 0.1 0.08 0.09 0 0.1-0.04 0.1-0.1 0.2-0.6 0.5-0.9 0.7-0.9 0.1 0 0.2 0.06 0.2 0.2 0 0.2-0.04 0.3-0.2 0.7zm3 0.7c0 0.4-0.07 0.8-0.6 1-0.02 0.04-0.05 0.06-0.05 0.09 0 0.05 0.06 0.09 0.09 0.09 0.1 0 0.7-0.6 0.7-1 0-0.4-0.2-0.8-0.5-0.8-0.2 0-0.4 0.2-0.4 0.4 0 0.2 0.2 0.4 0.4 0.4 0.2 0 0.3-0.1 0.3-0.1zm5-0.9c0.6-0.7 0.9-2 0.9-2 0-0.09-0.08-0.09-0.1-0.09-0.09 0-0.09 0.02-0.1 0.2-0.1 0.5-0.4 0.9-0.7 1 0-0.1-0.02-0.6-0.04-0.6-0.1-0.7-0.6-1-1-1-1 0-2 0.9-2 2 0 0.6 0.5 1 1 1 0.6 0 1-0.3 2-0.6 0.2 0.5 0.5 0.6 0.7 0.6 0.4 0 0.7-0.3 0.7-0.5 0-0.08-0.08-0.08-0.1-0.08-0.09 0-0.1 0.04-0.1 0.07-0.1 0.3-0.3 0.3-0.4 0.3-0.09 0-0.2 0-0.3-0.9zm-0.5 0.2c-0.7 0.6-1 0.6-2 0.6-0.5 0-0.7-0.3-0.7-0.8 0-0.2 0.1-1 0.5-1 0.3-0.4 0.7-0.5 1-0.5 0.6 0 0.7 0.5 0.8 1 0.04 0.3 0.02 0.8 0.06 1z"/>
<path d="m335 0.5c0-0.2-0.01-0.2-0.2-0.2-0.4 0.3-0.9 0.3-1 0.3h-0.08v0.2h0.08c0.1 0 0.4-0.01 0.7-0.1v2c0 0.2 0 0.2-0.5 0.2h-0.2v0.2c0.3-0.02 0.7-0.02 1-0.02 0.3 0 0.7 0 1 0.02v-0.2h-0.2c-0.5 0-0.5-0.05-0.5-0.2z"/>
<path d="m343 1c0.1 0 0.3 0 0.3-0.2 0-0.2-0.2-0.2-0.3-0.2h-4c-0.1 0-0.3 0-0.3 0.2 0 0.2 0.2 0.2 0.3 0.2z"/>
<path d="m346-2c0-0.2-0.01-0.2-0.2-0.2-0.4 0.4-1 0.4-1 0.4v0.2c0.2 0 0.6 0 1-0.2v4c0 0.2 0 0.3-0.7 0.3h-0.3v0.2c0.1-0.01 1-0.02 1-0.02 0.2 0 1 0.01 1 0.02v-0.2h-0.3c-0.7 0-0.7-0.09-0.7-0.3zm2-0.8c-0.06 0-0.1 0-0.1 0.08 0 0.04 0.02 0.06 0.07 0.1 0.6 0.6 1 1 1 3 0 1-0.5 3-1 3-0.1 0.1-0.1 0.1-0.1 0.2 0 0.04 0.02 0.08 0.09 0.08 0.08 0 0.8-0.5 1-1 0.3-0.6 0.5-1 0.5-2 0-1-0.3-3-2-3z"/>
<path d="m352 3c0 0.4-0.07 0.8-0.6 1-0.02 0.04-0.05 0.06-0.05 0.09 0 0.05 0.06 0.09 0.09 0.09 0.1 0 0.7-0.6 0.7-1 0-0.4-0.2-0.8-0.5-0.8-0.2 0-0.4 0.2-0.4 0.4 0 0.2 0.2 0.4 0.4 0.4 0.2 0 0.3-0.1 0.3-0.1zm3-0.6c-0.07 0.2-0.3 0.6-0.7 0.6-0.02 0-0.2 0-0.4-0.09 0.3-0.09 0.3-0.3 0.3-0.4 0-0.2-0.1-0.3-0.3-0.3-0.2 0-0.4 0.2-0.4 0.4 0 0.3 0.4 0.5 0.7 0.5 0.3 0 0.6-0.2 0.8-0.5 0.2 0.4 0.6 0.5 0.8 0.5 0.8 0 1-0.9 1-1 0-0.09-0.09-0.09-0.1-0.09-0.1 0-0.1 0.04-0.1 0.1-0.1 0.5-0.6 0.8-0.9 0.8-0.3 0-0.4-0.2-0.4-0.4 0-0.2 0.2-0.8 0.4-2 0.1-0.5 0.4-0.7 0.7-0.7 0.01 0 0.2 0 0.4 0.1-0.2 0.06-0.3 0.3-0.3 0.4 0 0.2 0.1 0.3 0.3 0.3 0.2 0 0.4-0.1 0.4-0.4 0-0.4-0.4-0.5-0.7-0.5-0.4 0-0.6 0.2-0.8 0.5-0.1-0.3-0.4-0.5-0.8-0.5-0.8 0-1 0.9-1 1 0 0.08 0.1 0.08 0.1 0.08 0.09 0 0.1-0.02 0.1-0.1 0.2-0.5 0.6-0.8 0.9-0.8 0.2 0 0.4 0.1 0.4 0.5 0 0.1-0.08 0.5-0.2 0.7z"/>
<path d="m364-2h3c0.1 0 0.3 0 0.3-0.2 0-0.2-0.2-0.2-0.3-0.2h-3v-3c0-0.1 0-0.3-0.2-0.3-0.2 0-0.2 0.2-0.2 0.3v3h-3c-0.1 0-0.3 0-0.3 0.2 0 0.2 0.2 0.2 0.3 0.2h3v3c0 0.1 0 0.3 0.2 0.3 0.2 0 0.2-0.2 0.2-0.3z"/>
<path d="m373-3h2c1 0 3-1 3-2 0-0.8-0.7-2-2-2h-3c-0.2 0-0.3 0-0.3 0.2 0 0.1 0.08 0.1 0.3 0.1 0.1 0 0.3 0.01 0.4 0.01 0.2 0.02 0.2 0.06 0.2 0.2 0 0.04 0 0.07-0.04 0.2l-1 5c-0.09 0.4-0.1 0.5-0.9 0.5-0.2 0-0.3 0-0.3 0.2 0 0.1 0.1 0.1 0.2 0.1 0.3 0 1-0.04 1-0.04 0.2 0 0.4 0.01 0.6 0.01 0.2 0 0.4 0.02 0.6 0.02 0.07 0 0.2 0 0.2-0.2 0-0.1-0.08-0.1-0.3-0.1-0.4 0-0.7 0-0.7-0.2 0-0.06 0.02-0.1 0.04-0.2zm0.7-3c0.08-0.4 0.1-0.4 0.5-0.4h0.9c0.8 0 1 0.3 1 0.9 0 0.4-0.2 1-0.6 2-0.5 0.4-1 0.5-2 0.5h-1z"/>
<path d="m382-7 0.7-0.7c0.9-0.9 1-1 2-1 0.09-0.01 0.2-0.01 0.2-0.1 0-0.09-0.07-0.1-0.09-0.1-0.2 0-0.4 0.02-0.7 0.02-0.2 0-0.6-0.02-0.8-0.02-0.06 0-0.1 0.01-0.1 0.2 0 0 0 0.08 0.1 0.09 0.06 0.01 0.2 0.02 0.2 0.2 0 0.1-0.1 0.2-0.2 0.3-0.06 0.05-0.9 0.9-1 1l-0.7-1c-0.01-0.02-0.04-0.07-0.04-0.09 0-0.05 0.1-0.2 0.4-0.2 0.06 0 0.2-0.01 0.2-0.2 0-0.01-0.01-0.09-0.1-0.09-0.2 0-0.3 0.01-0.5 0.01-0.2 0-0.3 0.01-0.5 0.01-0.1 0-0.3 0-0.4-0.01-0.1 0-0.3-0.01-0.4-0.01-0.04 0-0.2 0-0.2 0.2 0 0.09 0.09 0.09 0.2 0.09 0.4 0 0.4 0.07 0.5 0.2l1 2-0.4 0.4c-0.1 0.1-0.5 0.4-0.6 0.6-0.8 0.8-1 1-2 1-0.1 0-0.2 0-0.2 0.2 0 0.02 0.02 0.09 0.09 0.09 0.2 0 0.4-0.02 0.6-0.02h0.4c0.1 0.01 0.3 0.02 0.4 0.02 0.04 0 0.2 0 0.2-0.1 0-0.1-0.08-0.1-0.1-0.1-0.07-0.01-0.2-0.04-0.2-0.2 0-0.1 0.09-0.2 0.2-0.4l1-1 0.8 2c0.04 0.07 0.05 0.08 0.05 0.09 0 0.04-0.1 0.2-0.4 0.2-0.06 0-0.2 0-0.2 0.2 0 0 0.01 0.09 0.1 0.09 0.2 0 0.3-0.02 0.5-0.02h0.5 0.4c0.1 0.01 0.3 0.02 0.4 0.02 0.04 0 0.2 0 0.2-0.2 0-0.09-0.09-0.09-0.2-0.09-0.4 0-0.4-0.08-0.5-0.2z"/>
<path d="m379-3c-1 0.9-2 2-2 3 0 1 0.3 3 2 3 0.06 0 0.1 0 0.1-0.08 0-0.05-0.02-0.06-0.07-0.1-0.9-0.8-1-2-1-3 0-2 0.7-3 1-3 0.02-0.02 0.05-0.05 0.05-0.08 0-0.08-0.08-0.08-0.1-0.08z"/>
<path d="m381 2c-0.04 0.08-0.07 0.3-0.07 0.3 0 0.2 0.1 0.2 0.2 0.2 0.1 0 0.2-0.09 0.3-0.2 0.04-0.06 0.09-0.3 0.1-0.4 0.04-0.1 0.1-0.5 0.2-0.6 0.04-0.2 0.08-0.3 0.1-0.5 0.08-0.3 0.09-0.4 0.3-0.6 0.2-0.3 0.5-0.6 1-0.6 0.4 0 0.4 0.4 0.4 0.5 0 0.4-0.3 1-0.4 1-0.07 0.2-0.1 0.3-0.1 0.4 0 0.4 0.3 0.6 0.7 0.6 0.7 0 1-1 1-1 0-0.09-0.09-0.09-0.1-0.09-0.09 0-0.1 0.05-0.1 0.1-0.2 0.6-0.5 0.8-0.7 0.8-0.2 0-0.2-0.09-0.2-0.2 0-0.2 0.04-0.2 0.2-0.6 0.09-0.2 0.4-0.9 0.4-1 0-0.7-0.5-0.8-0.9-0.8-0.6 0-1 0.4-1 0.6-0.05-0.5-0.5-0.6-0.8-0.6s-0.5 0.2-0.6 0.4c-0.2 0.3-0.2 0.7-0.2 0.7 0 0.08 0.09 0.08 0.1 0.08 0.09 0 0.1-0.01 0.2-0.2 0.1-0.4 0.2-0.8 0.5-0.8 0.2 0 0.2 0.2 0.2 0.3 0 0.1-0.06 0.4-0.1 0.6-0.05 0.2-0.1 0.5-0.2 0.6zm6 0.3c0 0.4-0.07 0.8-0.6 1-0.02 0.04-0.05 0.06-0.05 0.09 0 0.05 0.06 0.09 0.09 0.09 0.1 0 0.7-0.6 0.7-1 0-0.4-0.2-0.8-0.5-0.8-0.2 0-0.4 0.2-0.4 0.4 0 0.2 0.2 0.4 0.4 0.4 0.2 0 0.3-0.1 0.3-0.1zm4-4c0-0.1-0.09-0.3-0.3-0.3-0.2 0-0.4 0.2-0.4 0.4 0 0.1 0.08 0.3 0.3 0.3 0.2 0 0.4-0.2 0.4-0.4zm-1 5c-0.1 0.5-0.5 0.9-0.9 0.9-0.08 0-0.2-0.01-0.2-0.05 0.2-0.08 0.2-0.2 0.2-0.4 0-0.2-0.1-0.3-0.3-0.3-0.2 0-0.4 0.2-0.4 0.4 0 0.3 0.3 0.4 0.7 0.4 0.4 0 1-0.2 1-1l0.6-2c0.02-0.07 0.04-0.1 0.04-0.2 0-0.4-0.3-0.7-0.7-0.7-0.8 0-1 1-1 1 0 0.08 0.1 0.08 0.1 0.08 0.08 0 0.08-0.01 0.1-0.1 0.2-0.4 0.5-0.8 0.9-0.8 0.2 0 0.2 0.1 0.2 0.3 0 0.08-0.01 0.2-0.02 0.2zm3-0.5c0 0.4-0.07 0.8-0.6 1-0.02 0.04-0.05 0.06-0.05 0.09 0 0.05 0.06 0.09 0.09 0.09 0.1 0 0.7-0.6 0.7-1 0-0.4-0.2-0.8-0.5-0.8-0.2 0-0.4 0.2-0.4 0.4 0 0.2 0.2 0.4 0.4 0.4 0.2 0 0.3-0.1 0.3-0.1zm5-0.9c0.6-0.7 0.9-2 0.9-2 0-0.09-0.08-0.09-0.1-0.09-0.09 0-0.09 0.02-0.1 0.2-0.1 0.5-0.4 0.9-0.7 1 0-0.1-0.02-0.6-0.04-0.6-0.1-0.7-0.6-1-1-1-1 0-2 0.9-2 2 0 0.6 0.5 1 1 1 0.6 0 1-0.3 2-0.6 0.2 0.5 0.5 0.6 0.7 0.6 0.4 0 0.7-0.3 0.7-0.5 0-0.08-0.08-0.08-0.1-0.08-0.09 0-0.1 0.04-0.1 0.07-0.1 0.3-0.3 0.3-0.4 0.3-0.09 0-0.2 0-0.3-0.9zm-0.5 0.2c-0.7 0.6-1 0.6-2 0.6-0.5 0-0.7-0.3-0.7-0.8 0-0.2 0.1-1 0.5-1 0.3-0.4 0.7-0.5 1-0.5 0.6 0 0.7 0.5 0.8 1 0.04 0.3 0.02 0.8 0.06 1z"/>
<path d="m401 3h-0.2c-0.01 0.09-0.06 0.4-0.1 0.5-0.04 0.02-0.5 0.02-0.5 0.02h-1c0.3-0.2 0.7-0.5 1-0.7 0.5-0.3 0.9-0.6 0.9-1 0-0.6-0.6-1-1-1-0.7 0-1 0.4-1 0.9 0 0.3 0.2 0.3 0.3 0.3 0.1 0 0.3-0.09 0.3-0.3 0-0.2-0.1-0.3-0.3-0.3 0.1-0.2 0.4-0.4 0.8-0.4 0.5 0 0.9 0.3 0.9 0.8 0 0.4-0.3 0.7-0.7 1l-1 1c-0.05 0.05-0.06 0.05-0.06 0.08v0.2h2z"/>
<path d="m402-3c-0.06 0-0.1 0-0.1 0.08 0 0.04 0.02 0.06 0.07 0.1 0.6 0.6 1 1 1 3 0 1-0.5 3-1 3-0.1 0.1-0.1 0.1-0.1 0.2 0 0.04 0.02 0.08 0.09 0.08 0.08 0 0.8-0.5 1-1 0.3-0.6 0.5-1 0.5-2 0-1-0.3-3-2-3z"/>
<path d="m406 3c0 0.4-0.07 0.8-0.6 1-0.02 0.04-0.05 0.06-0.05 0.09 0 0.05 0.06 0.09 0.09 0.09 0.1 0 0.7-0.6 0.7-1 0-0.4-0.2-0.8-0.5-0.8-0.2 0-0.4 0.2-0.4 0.4 0 0.2 0.2 0.4 0.4 0.4 0.2 0 0.3-0.1 0.3-0.1zm3-0.6c-0.07 0.2-0.3 0.6-0.7 0.6-0.02 0-0.2 0-0.4-0.09 0.3-0.09 0.3-0.3 0.3-0.4 0-0.2-0.1-0.3-0.3-0.3-0.2 0-0.4 0.2-0.4 0.4 0 0.3 0.4 0.5 0.7 0.5 0.3 0 0.6-0.2 0.8-0.5 0.2 0.4 0.6 0.5 0.8 0.5 0.8 0 1-0.9 1-1 0-0.09-0.09-0.09-0.1-0.09-0.1 0-0.1 0.04-0.1 0.1-0.1 0.5-0.6 0.8-0.9 0.8-0.3 0-0.4-0.2-0.4-0.4 0-0.2 0.2-0.8 0.4-2 0.1-0.5 0.4-0.7 0.7-0.7 0.01 0 0.2 0 0.4 0.1-0.2 0.06-0.3 0.3-0.3 0.4 0 0.2 0.1 0.3 0.3 0.3 0.2 0 0.4-0.1 0.4-0.4 0-0.4-0.4-0.5-0.7-0.5-0.4 0-0.6 0.2-0.8 0.5-0.1-0.3-0.4-0.5-0.8-0.5-0.8 0-1 0.9-1 1 0 0.08 0.1 0.08 0.1 0.08 0.09 0 0.1-0.02 0.1-0.1 0.2-0.5 0.6-0.8 0.9-0.8 0.2 0 0.4 0.1 0.4 0.5 0 0.1-0.08 0.5-0.2 0.7z"/>
<path d="m421-2c0.2 0 0.4 0 0.4-0.2 0-0.2-0.2-0.2-0.4-0.2h-5c-0.2 0-0.3 0-0.3 0.2 0 0.2 0.2 0.2 0.3 0.2z"/>
<path d="m427-3h2c1 0 3-1 3-2 0-0.8-0.7-2-2-2h-3c-0.2 0-0.3 0-0.3 0.2 0 0.1 0.08 0.1 0.3 0.1 0.1 0 0.3 0.01 0.4 0.01 0.2 0.02 0.2 0.06 0.2 0.2 0 0.04 0 0.07-0.04 0.2l-1 5c-0.09 0.4-0.1 0.5-0.9 0.5-0.2 0-0.3 0-0.3 0.2 0 0.1 0.1 0.1 0.2 0.1 0.3 0 1-0.04 1-0.04 0.2 0 0.4 0.01 0.6 0.01 0.2 0 0.4 0.02 0.6 0.02 0.07 0 0.2 0 0.2-0.2 0-0.1-0.08-0.1-0.3-0.1-0.4 0-0.7 0-0.7-0.2 0-0.06 0.02-0.1 0.04-0.2zm0.7-3c0.08-0.4 0.1-0.4 0.5-0.4h0.9c0.8 0 1 0.3 1 0.9 0 0.4-0.2 1-0.6 2-0.5 0.4-1 0.5-2 0.5h-1z"/>
<path d="m436-7 0.7-0.7c0.9-0.9 1-1 2-1 0.09-0.01 0.2-0.01 0.2-0.1 0-0.09-0.07-0.1-0.09-0.1-0.2 0-0.4 0.02-0.7 0.02-0.2 0-0.6-0.02-0.8-0.02-0.06 0-0.1 0.01-0.1 0.2 0 0 0 0.08 0.1 0.09 0.06 0.01 0.2 0.02 0.2 0.2 0 0.1-0.1 0.2-0.2 0.3-0.06 0.05-0.9 0.9-1 1l-0.7-1c-0.01-0.02-0.04-0.07-0.04-0.09 0-0.05 0.1-0.2 0.4-0.2 0.06 0 0.2-0.01 0.2-0.2 0-0.01-0.01-0.09-0.1-0.09-0.2 0-0.3 0.01-0.5 0.01-0.2 0-0.3 0.01-0.5 0.01-0.1 0-0.3 0-0.4-0.01-0.1 0-0.3-0.01-0.4-0.01-0.04 0-0.2 0-0.2 0.2 0 0.09 0.09 0.09 0.2 0.09 0.4 0 0.4 0.07 0.5 0.2l1 2-0.4 0.4c-0.1 0.1-0.5 0.4-0.6 0.6-0.8 0.8-1 1-2 1-0.1 0-0.2 0-0.2 0.2 0 0.02 0.02 0.09 0.09 0.09 0.2 0 0.4-0.02 0.6-0.02h0.4c0.1 0.01 0.3 0.02 0.4 0.02 0.04 0 0.2 0 0.2-0.1 0-0.1-0.08-0.1-0.1-0.1-0.07-0.01-0.2-0.04-0.2-0.2 0-0.1 0.09-0.2 0.2-0.4l1-1 0.8 2c0.04 0.07 0.05 0.08 0.05 0.09 0 0.04-0.1 0.2-0.4 0.2-0.06 0-0.2 0-0.2 0.2 0 0 0.01 0.09 0.1 0.09 0.2 0 0.3-0.02 0.5-0.02h0.5 0.4c0.1 0.01 0.3 0.02 0.4 0.02 0.04 0 0.2 0 0.2-0.2 0-0.09-0.09-0.09-0.2-0.09-0.4 0-0.4-0.08-0.5-0.2z"/>
<path d="m433-3c-1 0.9-2 2-2 3 0 1 0.3 3 2 3 0.06 0 0.1 0 0.1-0.08 0-0.05-0.02-0.06-0.07-0.1-0.9-0.8-1-2-1-3 0-2 0.7-3 1-3 0.02-0.02 0.05-0.05 0.05-0.08 0-0.08-0.08-0.08-0.1-0.08z"/>
<path d="m437 2c-0.04 0.1-0.09 0.4-0.09 0.4 0 0.2 0.1 0.2 0.2 0.2 0.1 0 0.2-0.09 0.3-0.2 0.04-0.06 0.09-0.3 0.1-0.4 0.04-0.1 0.1-0.5 0.2-0.6 0.05-0.2 0.08-0.3 0.1-0.5 0.08-0.3 0.08-0.3 0.2-0.5 0.2-0.3 0.6-0.7 1-0.7 0.4 0 0.4 0.3 0.4 0.5 0 0.4-0.3 1-0.4 1-0.08 0.2-0.1 0.3-0.1 0.4 0 0.4 0.3 0.6 0.7 0.6 0.7 0 1-1 1-1 0-0.09-0.09-0.09-0.1-0.09-0.1 0-0.1 0.05-0.1 0.1-0.2 0.6-0.5 0.8-0.7 0.8-0.1 0-0.2-0.09-0.2-0.2 0-0.2 0.04-0.2 0.2-0.6 0.08-0.2 0.4-0.9 0.4-1 0-0.1 0-0.4-0.3-0.6-0.1-0.09-0.3-0.2-0.7-0.2-0.6 0-1 0.4-1 0.7-0.06-0.6-0.6-0.7-0.9-0.7-0.6 0-1 0.4-1 0.6-0.05-0.5-0.5-0.6-0.8-0.6s-0.5 0.2-0.6 0.4c-0.2 0.3-0.2 0.7-0.2 0.7 0 0.08 0.09 0.08 0.1 0.08 0.09 0 0.1-0.01 0.2-0.2 0.1-0.4 0.2-0.8 0.5-0.8 0.2 0 0.2 0.2 0.2 0.3 0 0.1-0.06 0.4-0.1 0.6-0.05 0.2-0.1 0.5-0.2 0.6l-0.2 0.9c-0.04 0.08-0.07 0.3-0.07 0.3 0 0.2 0.1 0.2 0.2 0.2 0.1 0 0.2-0.09 0.3-0.2 0.04-0.06 0.09-0.3 0.1-0.4 0.04-0.1 0.1-0.5 0.2-0.6 0.04-0.2 0.08-0.3 0.1-0.5 0.08-0.3 0.09-0.4 0.3-0.6 0.2-0.3 0.5-0.6 1-0.6 0.4 0 0.4 0.4 0.4 0.5 0 0.2-0.01 0.3-0.1 0.7zm6 0.4c0 0.4-0.07 0.8-0.6 1-0.02 0.04-0.05 0.06-0.05 0.09 0 0.05 0.06 0.09 0.09 0.09 0.1 0 0.7-0.6 0.7-1 0-0.4-0.2-0.8-0.5-0.8-0.2 0-0.4 0.2-0.4 0.4 0 0.2 0.2 0.4 0.4 0.4 0.2 0 0.3-0.1 0.3-0.1zm3-4c0-0.1-0.08-0.3-0.3-0.3-0.2 0-0.4 0.2-0.4 0.4 0 0.1 0.08 0.3 0.3 0.3 0.2 0 0.4-0.2 0.4-0.4zm-1 4c-0.02 0.09-0.06 0.2-0.06 0.3 0 0.3 0.3 0.6 0.7 0.6 0.7 0 1-1 1-1 0-0.09-0.08-0.09-0.1-0.09-0.1 0-0.1 0.05-0.1 0.1-0.2 0.6-0.5 0.8-0.7 0.8-0.1 0-0.2-0.08-0.2-0.2 0-0.2 0.06-0.3 0.1-0.4 0.07-0.2 0.1-0.4 0.2-0.6 0.06-0.2 0.3-0.8 0.3-0.9 0.02-0.07 0.05-0.2 0.05-0.2 0-0.3-0.3-0.6-0.7-0.6-0.7 0-1 0.9-1 1 0 0.08 0.09 0.08 0.1 0.08 0.09 0 0.1-0.04 0.1-0.1 0.2-0.6 0.5-0.9 0.7-0.9 0.1 0 0.2 0.06 0.2 0.2 0 0.2-0.04 0.3-0.2 0.7zm3 0.7c0 0.4-0.07 0.8-0.6 1-0.02 0.04-0.05 0.06-0.05 0.09 0 0.05 0.06 0.09 0.09 0.09 0.1 0 0.7-0.6 0.7-1 0-0.4-0.2-0.8-0.5-0.8-0.2 0-0.4 0.2-0.4 0.4 0 0.2 0.2 0.4 0.4 0.4 0.2 0 0.3-0.1 0.3-0.1zm5-0.9c0.6-0.7 0.9-2 0.9-2 0-0.09-0.08-0.09-0.1-0.09-0.09 0-0.09 0.02-0.1 0.2-0.1 0.5-0.4 0.9-0.7 1 0-0.1-0.02-0.6-0.04-0.6-0.1-0.7-0.6-1-1-1-1 0-2 0.9-2 2 0 0.6 0.5 1 1 1 0.6 0 1-0.3 2-0.6 0.2 0.5 0.5 0.6 0.7 0.6 0.4 0 0.7-0.3 0.7-0.5 0-0.08-0.08-0.08-0.1-0.08-0.09 0-0.1 0.04-0.1 0.07-0.1 0.3-0.3 0.3-0.4 0.3-0.09 0-0.2 0-0.3-0.9zm-0.5 0.2c-0.7 0.6-1 0.6-2 0.6-0.5 0-0.7-0.3-0.7-0.8 0-0.2 0.1-1 0.5-1 0.3-0.4 0.7-0.5 1-0.5 0.6 0 0.7 0.5 0.8 1 0.04 0.3 0.02 0.8 0.06 1z"/>
<path d="m456 0.5c0-0.2-0.01-0.2-0.2-0.2-0.4 0.3-0.9 0.3-1 0.3h-0.08v0.2h0.08c0.1 0 0.4-0.01 0.7-0.1v2c0 0.2 0 0.2-0.5 0.2h-0.2v0.2c0.3-0.02 0.7-0.02 1-0.02 0.3 0 0.7 0 1 0.02v-0.2h-0.2c-0.5 0-0.5-0.05-0.5-0.2z"/>
<path d="m458-3c-0.06 0-0.1 0-0.1 0.08 0 0.04 0.02 0.06 0.07 0.1 0.6 0.6 1 1 1 3 0 1-0.5 3-1 3-0.1 0.1-0.1 0.1-0.1 0.2 0 0.04 0.02 0.08 0.09 0.08 0.08 0 0.8-0.5 1-1 0.3-0.6 0.5-1 0.5-2 0-1-0.3-3-2-3z"/>
<path d="m462 3c0 0.4-0.07 0.8-0.6 1-0.02 0.04-0.05 0.06-0.05 0.09 0 0.05 0.06 0.09 0.09 0.09 0.1 0 0.7-0.6 0.7-1 0-0.4-0.2-0.8-0.5-0.8-0.2 0-0.4 0.2-0.4 0.4 0 0.2 0.2 0.4 0.4 0.4 0.2 0 0.3-0.1 0.3-0.1zm3-0.6c-0.07 0.2-0.3 0.6-0.7 0.6-0.02 0-0.2 0-0.4-0.09 0.3-0.09 0.3-0.3 0.3-0.4 0-0.2-0.1-0.3-0.3-0.3-0.2 0-0.4 0.2-0.4 0.4 0 0.3 0.4 0.5 0.7 0.5 0.3 0 0.6-0.2 0.8-0.5 0.2 0.4 0.6 0.5 0.8 0.5 0.8 0 1-0.9 1-1 0-0.09-0.09-0.09-0.1-0.09-0.1 0-0.1 0.04-0.1 0.1-0.1 0.5-0.6 0.8-0.9 0.8-0.3 0-0.4-0.2-0.4-0.4 0-0.2 0.2-0.8 0.4-2 0.1-0.5 0.4-0.7 0.7-0.7 0.01 0 0.2 0 0.4 0.1-0.2 0.06-0.3 0.3-0.3 0.4 0 0.2 0.1 0.3 0.3 0.3 0.2 0 0.4-0.1 0.4-0.4 0-0.4-0.4-0.5-0.7-0.5-0.4 0-0.6 0.2-0.8 0.5-0.1-0.3-0.4-0.5-0.8-0.5-0.8 0-1 0.9-1 1 0 0.08 0.1 0.08 0.1 0.08 0.09 0 0.1-0.02 0.1-0.1 0.2-0.5 0.6-0.8 0.9-0.8 0.2 0 0.4 0.1 0.4 0.5 0 0.1-0.08 0.5-0.2 0.7z"/>
<path d="m477-2c0.2 0 0.4 0 0.4-0.2 0-0.2-0.2-0.2-0.4-0.2h-5c-0.2 0-0.3 0-0.3 0.2 0 0.2 0.2 0.2 0.3 0.2z"/>
<path d="m483-3h2c1 0 3-1 3-2 0-0.8-0.7-2-2-2h-3c-0.2 0-0.3 0-0.3 0.2 0 0.1 0.08 0.1 0.3 0.1 0.1 0 0.3 0.01 0.4 0.01 0.2 0.02 0.2 0.06 0.2 0.2 0 0.04 0 0.07-0.04 0.2l-1 5c-0.09 0.4-0.1 0.5-0.9 0.5-0.2 0-0.3 0-0.3 0.2 0 0.1 0.1 0.1 0.2 0.1 0.3 0 1-0.04 1-0.04 0.2 0 0.4 0.01 0.6 0.01 0.2 0 0.4 0.02 0.6 0.02 0.07 0 0.2 0 0.2-0.2 0-0.1-0.08-0.1-0.3-0.1-0.4 0-0.7 0-0.7-0.2 0-0.06 0.02-0.1 0.04-0.2zm0.7-3c0.08-0.4 0.1-0.4 0.5-0.4h0.9c0.8 0 1 0.3 1 0.9 0 0.4-0.2 1-0.6 2-0.5 0.4-1 0.5-2 0.5h-1z"/>
<path d="m492-7 0.7-0.7c0.9-0.9 1-1 2-1 0.09-0.01 0.2-0.01 0.2-0.1 0-0.09-0.07-0.1-0.09-0.1-0.2 0-0.4 0.02-0.7 0.02-0.2 0-0.6-0.02-0.8-0.02-0.06 0-0.1 0.01-0.1 0.2 0 0 0 0.08 0.1 0.09 0.06 0.01 0.2 0.02 0.2 0.2 0 0.1-0.1 0.2-0.2 0.3-0.06 0.05-0.9 0.9-1 1l-0.7-1c-0.01-0.02-0.04-0.07-0.04-0.09 0-0.05 0.1-0.2 0.4-0.2 0.06 0 0.2-0.01 0.2-0.2 0-0.01-0.01-0.09-0.1-0.09-0.2 0-0.3 0.01-0.5 0.01-0.2 0-0.3 0.01-0.5 0.01-0.1 0-0.3 0-0.4-0.01-0.1 0-0.3-0.01-0.4-0.01-0.04 0-0.2 0-0.2 0.2 0 0.09 0.09 0.09 0.2 0.09 0.4 0 0.4 0.07 0.5 0.2l1 2-0.4 0.4c-0.1 0.1-0.5 0.4-0.6 0.6-0.8 0.8-1 1-2 1-0.1 0-0.2 0-0.2 0.2 0 0.02 0.02 0.09 0.09 0.09 0.2 0 0.4-0.02 0.6-0.02h0.4c0.1 0.01 0.3 0.02 0.4 0.02 0.04 0 0.2 0 0.2-0.1 0-0.1-0.08-0.1-0.1-0.1-0.07-0.01-0.2-0.04-0.2-0.2 0-0.1 0.09-0.2 0.2-0.4l1-1 0.8 2c0.04 0.07 0.05 0.08 0.05 0.09 0 0.04-0.1 0.2-0.4 0.2-0.06 0-0.2 0-0.2 0.2 0 0 0.01 0.09 0.1 0.09 0.2 0 0.3-0.02 0.5-0.02h0.5 0.4c0.1 0.01 0.3 0.02 0.4 0.02 0.04 0 0.2 0 0.2-0.2 0-0.09-0.09-0.09-0.2-0.09-0.4 0-0.4-0.08-0.5-0.2z"/>
<path d="m489-3c-1 0.9-2 2-2 3 0 1 0.3 3 2 3 0.06 0 0.1 0 0.1-0.08 0-0.05-0.02-0.06-0.07-0.1-0.9-0.8-1-2-1-3 0-2 0.7-3 1-3 0.02-0.02 0.05-0.05 0.05-0.08 0-0.08-0.08-0.08-0.1-0.08z"/>
<path d="m491 2c-0.04 0.08-0.07 0.3-0.07 0.3 0 0.2 0.1 0.2 0.2 0.2 0.1 0 0.2-0.09 0.3-0.2 0.04-0.06 0.09-0.3 0.1-0.4 0.04-0.1 0.1-0.5 0.2-0.6 0.04-0.2 0.08-0.3 0.1-0.5 0.08-0.3 0.09-0.4 0.3-0.6 0.2-0.3 0.5-0.6 1-0.6 0.4 0 0.4 0.4 0.4 0.5 0 0.4-0.3 1-0.4 1-0.07 0.2-0.1 0.3-0.1 0.4 0 0.4 0.3 0.6 0.7 0.6 0.7 0 1-1 1-1 0-0.09-0.09-0.09-0.1-0.09-0.09 0-0.1 0.05-0.1 0.1-0.2 0.6-0.5 0.8-0.7 0.8-0.2 0-0.2-0.09-0.2-0.2 0-0.2 0.04-0.2 0.2-0.6 0.09-0.2 0.4-0.9 0.4-1 0-0.7-0.5-0.8-0.9-0.8-0.6 0-1 0.4-1 0.6-0.05-0.5-0.5-0.6-0.8-0.6s-0.5 0.2-0.6 0.4c-0.2 0.3-0.2 0.7-0.2 0.7 0 0.08 0.09 0.08 0.1 0.08 0.09 0 0.1-0.01 0.2-0.2 0.1-0.4 0.2-0.8 0.5-0.8 0.2 0 0.2 0.2 0.2 0.3 0 0.1-0.06 0.4-0.1 0.6-0.05 0.2-0.1 0.5-0.2 0.6zm6 0.3c0 0.4-0.07 0.8-0.6 1-0.02 0.04-0.05 0.06-0.05 0.09 0 0.05 0.06 0.09 0.09 0.09 0.1 0 0.7-0.6 0.7-1 0-0.4-0.2-0.8-0.5-0.8-0.2 0-0.4 0.2-0.4 0.4 0 0.2 0.2 0.4 0.4 0.4 0.2 0 0.3-0.1 0.3-0.1zm4-4c0-0.1-0.09-0.3-0.3-0.3-0.2 0-0.4 0.2-0.4 0.4 0 0.1 0.08 0.3 0.3 0.3 0.2 0 0.4-0.2 0.4-0.4zm-1 5c-0.1 0.5-0.5 0.9-0.9 0.9-0.08 0-0.2-0.01-0.2-0.05 0.2-0.08 0.2-0.2 0.2-0.4 0-0.2-0.1-0.3-0.3-0.3-0.2 0-0.4 0.2-0.4 0.4 0 0.3 0.3 0.4 0.7 0.4 0.4 0 1-0.2 1-1l0.6-2c0.02-0.07 0.04-0.1 0.04-0.2 0-0.4-0.3-0.7-0.7-0.7-0.8 0-1 1-1 1 0 0.08 0.1 0.08 0.1 0.08 0.08 0 0.08-0.01 0.1-0.1 0.2-0.4 0.5-0.8 0.9-0.8 0.2 0 0.2 0.1 0.2 0.3 0 0.08-0.01 0.2-0.02 0.2zm3-0.5c0 0.4-0.07 0.8-0.6 1-0.02 0.04-0.05 0.06-0.05 0.09 0 0.05 0.06 0.09 0.09 0.09 0.1 0 0.7-0.6 0.7-1 0-0.4-0.2-0.8-0.5-0.8-0.2 0-0.4 0.2-0.4 0.4 0 0.2 0.2 0.4 0.4 0.4 0.2 0 0.3-0.1 0.3-0.1zm5-0.9c0.6-0.7 0.9-2 0.9-2 0-0.09-0.08-0.09-0.1-0.09-0.09 0-0.09 0.02-0.1 0.2-0.1 0.5-0.4 0.9-0.7 1 0-0.1-0.02-0.6-0.04-0.6-0.1-0.7-0.6-1-1-1-1 0-2 0.9-2 2 0 0.6 0.5 1 1 1 0.6 0 1-0.3 2-0.6 0.2 0.5 0.5 0.6 0.7 0.6 0.4 0 0.7-0.3 0.7-0.5 0-0.08-0.08-0.08-0.1-0.08-0.09 0-0.1 0.04-0.1 0.07-0.1 0.3-0.3 0.3-0.4 0.3-0.09 0-0.2 0-0.3-0.9zm-0.5 0.2c-0.7 0.6-1 0.6-2 0.6-0.5 0-0.7-0.3-0.7-0.8 0-0.2 0.1-1 0.5-1 0.3-0.4 0.7-0.5 1-0.5 0.6 0 0.7 0.5 0.8 1 0.04 0.3 0.02 0.8 0.06 1z"/>
<path d="m511 3h-0.2c-0.01 0.09-0.06 0.4-0.1 0.5-0.04 0.02-0.5 0.02-0.5 0.02h-1c0.3-0.2 0.7-0.5 1-0.7 0.5-0.3 0.9-0.6 0.9-1 0-0.6-0.6-1-1-1-0.7 0-1 0.4-1 0.9 0 0.3 0.2 0.3 0.3 0.3 0.1 0 0.3-0.09 0.3-0.3 0-0.2-0.1-0.3-0.3-0.3 0.1-0.2 0.4-0.4 0.8-0.4 0.5 0 0.9 0.3 0.9 0.8 0 0.4-0.3 0.7-0.7 1l-1 1c-0.05 0.05-0.06 0.05-0.06 0.08v0.2h2z"/>
<path d="m517 1c0.1 0 0.3 0 0.3-0.2 0-0.2-0.2-0.2-0.3-0.2h-4c-0.1 0-0.3 0-0.3 0.2 0 0.2 0.2 0.2 0.3 0.2z"/>
<path d="m520-2c0-0.2-0.01-0.2-0.2-0.2-0.4 0.4-1 0.4-1 0.4v0.2c0.2 0 0.6 0 1-0.2v4c0 0.2 0 0.3-0.7 0.3h-0.3v0.2c0.1-0.01 1-0.02 1-0.02 0.2 0 1 0.01 1 0.02v-0.2h-0.3c-0.7 0-0.7-0.09-0.7-0.3zm2-0.8c-0.06 0-0.1 0-0.1 0.08 0 0.04 0.02 0.06 0.07 0.1 0.6 0.6 1 1 1 3 0 1-0.5 3-1 3-0.1 0.1-0.1 0.1-0.1 0.2 0 0.04 0.02 0.08 0.09 0.08 0.08 0 0.8-0.5 1-1 0.3-0.6 0.5-1 0.5-2 0-1-0.3-3-2-3z"/>
<path d="m527 3c0 0.4-0.07 0.8-0.6 1-0.02 0.04-0.05 0.06-0.05 0.09 0 0.05 0.06 0.09 0.09 0.09 0.1 0 0.7-0.6 0.7-1 0-0.4-0.2-0.8-0.5-0.8-0.2 0-0.4 0.2-0.4 0.4 0 0.2 0.2 0.4 0.4 0.4 0.2 0 0.3-0.1 0.3-0.1zm3-0.6c-0.07 0.2-0.3 0.6-0.7 0.6-0.02 0-0.2 0-0.4-0.09 0.3-0.09 0.3-0.3 0.3-0.4 0-0.2-0.1-0.3-0.3-0.3-0.2 0-0.4 0.2-0.4 0.4 0 0.3 0.4 0.5 0.7 0.5 0.3 0 0.6-0.2 0.8-0.5 0.2 0.4 0.6 0.5 0.8 0.5 0.8 0 1-0.9 1-1 0-0.09-0.09-0.09-0.1-0.09-0.1 0-0.1 0.04-0.1 0.1-0.1 0.5-0.6 0.8-0.9 0.8-0.3 0-0.4-0.2-0.4-0.4 0-0.2 0.2-0.8 0.4-2 0.1-0.5 0.4-0.7 0.7-0.7 0.01 0 0.2 0 0.4 0.1-0.2 0.06-0.3 0.3-0.3 0.4 0 0.2 0.1 0.3 0.3 0.3 0.2 0 0.4-0.1 0.4-0.4 0-0.4-0.4-0.5-0.7-0.5-0.4 0-0.6 0.2-0.8 0.5-0.1-0.3-0.4-0.5-0.8-0.5-0.8 0-1 0.9-1 1 0 0.08 0.1 0.08 0.1 0.08 0.09 0 0.1-0.02 0.1-0.1 0.2-0.5 0.6-0.8 0.9-0.8 0.2 0 0.4 0.1 0.4 0.5 0 0.1-0.08 0.5-0.2 0.7z"/>
<path d="m537-3c0-3-0.7-6-3-8-0.1-0.2-0.5-0.6-0.8-0.8-0.06-0.06-0.08-0.06-0.2-0.06-0.1 0-0.2 0-0.2 0.09 0 0.05 0.04 0.08 0.06 0.1 0.3 0.4 0.9 0.9 1 2 1 2 1 4 1 7 0 4-1 7-3 9-0.02 0.02-0.04 0.05-0.04 0.08 0 0.09 0.08 0.09 0.2 0.09 0.1 0 0.2 0 0.2-0.08 0.9-0.8 2-2 3-4 0.4-1 0.7-3 0.7-5z"/>
<path d="m548-3c0.1-0.07 0.2-0.1 0.2-0.2 0-0.1-0.04-0.2-0.2-0.2l-5-3c-0.1-0.07-0.2-0.07-0.2-0.07-0.1 0-0.2 0.09-0.2 0.2 0 0.1 0.07 0.2 0.2 0.2l5 2-5 2c-0.2 0.09-0.2 0.2-0.2 0.2 0 0.1 0.08 0.2 0.2 0.2 0.02 0 0.05 0 0.2-0.07zm-0.2 5c0.2 0 0.4 0 0.4-0.2 0-0.2-0.2-0.2-0.4-0.2h-5c-0.2 0-0.4 0-0.4 0.2 0 0.2 0.2 0.2 0.3 0.2z"/>
<path d="m556-3c0-0.8-0.05-2-0.4-2-0.5-1-1-1-2-1-0.6 0-1 0.3-2 1-0.3 0.7-0.4 1-0.4 2 0 0.8 0.05 2 0.4 2 0.4 0.8 1 1 2 1 0.5 0 1-0.2 2-1 0.3-0.7 0.4-1 0.4-2zm-2 3c-0.4 0-1-0.2-1-1-0.1-0.6-0.1-2-0.1-2 0-0.6 0-1 0.08-2 0.2-1 0.9-1 1-1 0.3 0 1 0.2 1 1 0.09 0.6 0.09 1 0.09 2 0 0.8 0 1-0.1 2-0.2 0.9-0.7 1-1 1z"/>
<path d="m559-0.01c0-0.7-0.3-1-0.6-1-0.3 0-0.5 0.2-0.5 0.5 0 0.3 0.2 0.5 0.5 0.5 0.1 0 0.2-0.04 0.4-0.1 0.02-0.02 0.04-0.04 0.05-0.04s0.02 0.01 0.02 0.2c0 0.7-0.4 1-0.7 2-0.1 0.1-0.1 0.1-0.1 0.2 0 0.07 0.05 0.1 0.09 0.1 0.1 0 0.9-0.8 0.9-2z"/>
<path d="m358 21c0.06-0.1 0.06-0.1 0.06-0.2 0-0.09-0.08-0.2-0.2-0.2-0.1 0-0.2 0.1-0.2 0.2l-0.8 2h-3l-0.8-2c-0.06-0.1-0.1-0.2-0.2-0.2-0.09 0-0.2 0.1-0.2 0.2 0 0.02 0 0.04 0.06 0.2l2 7c0.05 0.1 0.09 0.2 0.2 0.2 0.1 0 0.2-0.1 0.2-0.2zm-4 2h3l-1 4z"/>
<path d="m362 30c0-0.04 0-0.05-0.2-0.2-1-1-2-3-2-5 0-2 0.4-3 2-5 0.1-0.1 0.1-0.1 0.1-0.2 0-0.07-0.04-0.1-0.09-0.1-0.1 0-1 0.7-2 2-0.5 1-0.6 2-0.6 3 0 0.8 0.1 2 0.7 3 0.6 1 1 2 2 2 0.06 0 0.09-0.04 0.09-0.1z"/>
<path d="m363 27c-0.04 0.2-0.09 0.4-0.09 0.4 0 0.2 0.1 0.3 0.3 0.3 0.1 0 0.3-0.07 0.4-0.3 0.01-0.02 0.1-0.5 0.2-0.7l0.2-0.9c0.06-0.2 0.1-0.4 0.2-0.7 0.04-0.2 0.1-0.5 0.1-0.5 0.1-0.3 0.7-1 2-1 0.4 0 0.5 0.4 0.5 0.7 0 0.3-0.07 0.5-0.2 0.8l-0.3 1-0.2 0.8c-0.05 0.2-0.1 0.5-0.1 0.6 0 0.2 0.1 0.3 0.3 0.3 0.3 0 0.4-0.2 0.4-0.6 0.1-0.6 0.5-2 0.6-2 0.04-0.1 0.6-1 2-1 0.4 0 0.5 0.3 0.5 0.7 0 0.6-0.4 2-0.6 2-0.09 0.2-0.1 0.4-0.1 0.6 0 0.5 0.4 0.8 0.8 0.8 0.9 0 1-1 1-2 0-0.09-0.09-0.09-0.1-0.09-0.1 0-0.1 0.02-0.2 0.2-0.2 0.5-0.5 1-1 1-0.2 0-0.2-0.1-0.2-0.3 0-0.3 0.08-0.5 0.2-0.7 0.2-0.5 0.6-2 0.6-2 0-0.6-0.4-1-1-1s-1 0.4-2 1c-0.01-0.1-0.05-0.5-0.3-0.7-0.2-0.2-0.6-0.3-0.8-0.3-0.9 0-1 0.6-2 0.9-0.05-0.6-0.5-0.9-0.9-0.9-0.5 0-0.6 0.4-0.7 0.6-0.2 0.3-0.3 0.9-0.3 1 0 0.1 0.09 0.1 0.1 0.1 0.09 0 0.1-0.01 0.2-0.2 0.2-0.7 0.4-1 0.7-1 0.2 0 0.3 0.08 0.3 0.5 0 0.2-0.04 0.3-0.2 0.8zm10 0.6c0-0.7-0.3-1-0.6-1-0.3 0-0.5 0.2-0.5 0.5 0 0.3 0.2 0.5 0.5 0.5 0.1 0 0.2-0.04 0.4-0.1 0.02-0.02 0.04-0.04 0.05-0.04 0.01 0 0.02 0.01 0.02 0.2 0 0.7-0.4 1-0.7 2-0.1 0.1-0.1 0.1-0.1 0.2 0 0.07 0.05 0.1 0.09 0.1 0.1 0 0.9-0.8 0.9-2zm5-6c0-0.2-0.1-0.4-0.4-0.4-0.3 0-0.5 0.3-0.5 0.5 0 0.2 0.1 0.4 0.4 0.4 0.2 0 0.5-0.2 0.5-0.5zm-0.8 4c0.1-0.3 0.1-0.3 0.2-0.6 0.07-0.2 0.1-0.3 0.1-0.5 0-0.4-0.3-0.8-0.8-0.8-0.9 0-1 1-1 2 0 0.1 0.09 0.1 0.1 0.1 0.09 0 0.1-0.02 0.2-0.2 0.3-0.9 0.7-1 1-1 0.08 0 0.3 0 0.3 0.3 0 0.2-0.07 0.4-0.1 0.5-0.08 0.3-0.5 1-0.7 2-0.1 0.3-0.2 0.6-0.2 0.8 0 0.5 0.3 0.8 0.8 0.8 0.9 0 1-1 1-2s-0.09-0.09-0.1-0.09c-0.1 0-0.1 0.02-0.2 0.2-0.2 0.6-0.5 1-1 1-0.2 0-0.2-0.1-0.2-0.3 0-0.3 0.06-0.4 0.3-1zm3 2c0-0.7-0.3-1-0.6-1-0.3 0-0.5 0.2-0.5 0.5 0 0.3 0.2 0.5 0.5 0.5 0.1 0 0.2-0.04 0.4-0.1 0.02-0.02 0.04-0.04 0.05-0.04s0.02 0.01 0.02 0.2c0 0.7-0.4 1-0.7 2-0.1 0.1-0.1 0.1-0.1 0.2 0 0.07 0.05 0.1 0.09 0.1 0.1 0 0.9-0.8 0.9-2zm7-2c0-2-0.9-2-2-2-1 0-3 1-3 3 0 0.9 0.6 2 2 2 0.6 0 1-0.2 2-0.8 0.1 0.5 0.5 0.8 0.9 0.8 0.5 0 0.8-0.5 0.8-0.7 0-0.07-0.06-0.1-0.1-0.1-0.06 0-0.09 0.04-0.1 0.1-0.2 0.5-0.5 0.5-0.6 0.5-0.3 0-0.3-0.8-0.3-1 0-0.2 0-0.2 0.1-0.4 0.9-1 1-2 1-2 0-0.01-0.01-0.09-0.1-0.09-0.1 0-0.1 0.02-0.2 0.2-0.2 0.6-0.5 1-1 2zm-0.7 1c-0.9 0.8-2 0.9-2 0.9-0.6 0-0.9-0.5-0.9-1 0-0.5 0.3-2 0.6-2 0.5-0.7 1-0.9 1-0.9 1 0 1 1 1 2 0 0.4 0 0.9 0.02 1z"/>
<path d="m392 25c0-0.2-0.01-0.2-0.2-0.2-0.4 0.4-1 0.4-1 0.4v0.2c0.2 0 0.6 0 1-0.2v4c0 0.2 0 0.3-0.7 0.3h-0.3v0.2c0.1-0.01 1-0.02 1-0.02 0.2 0 1 0.01 1 0.02v-0.2h-0.3c-0.7 0-0.7-0.09-0.7-0.3z"/>
<path d="m397 25c0-0.8-0.1-2-0.7-3-0.6-1-1-2-2-2-0.06 0-0.1 0.05-0.1 0.1 0 0.04 0 0.05 0.2 0.2 1 1 2 3 2 5 0 2-0.4 3-2 5-0.1 0.1-0.1 0.1-0.1 0.2 0 0.06 0.05 0.1 0.1 0.1 0.09 0 1-0.7 2-2 0.5-1 0.6-2 0.6-3z"/>
<path d="m400 28c0-0.7-0.3-1-0.6-1-0.3 0-0.5 0.2-0.5 0.5 0 0.3 0.2 0.5 0.5 0.5 0.1 0 0.2-0.04 0.4-0.1 0.02-0.02 0.04-0.04 0.05-0.04 0.01 0 0.02 0.01 0.02 0.2 0 0.7-0.4 1-0.7 2-0.1 0.1-0.1 0.1-0.1 0.2 0 0.07 0.05 0.1 0.09 0.1 0.1 0 0.9-0.8 0.9-2z"/>
<path d="m406 30c0-0.04 0-0.05-0.2-0.2-1-1-2-3-2-5 0-2 0.4-3 2-5 0.1-0.1 0.1-0.1 0.1-0.2 0-0.07-0.04-0.1-0.09-0.1-0.1 0-1 0.7-2 2-0.5 1-0.6 2-0.6 3 0 0.8 0.1 2 0.7 3 0.6 1 1 2 2 2 0.06 0 0.09-0.04 0.09-0.1z"/>
<path d="m407 27c-0.04 0.2-0.09 0.4-0.09 0.4 0 0.2 0.1 0.3 0.3 0.3 0.1 0 0.3-0.07 0.4-0.3 0.01-0.02 0.1-0.5 0.2-0.7l0.2-0.9c0.06-0.2 0.1-0.4 0.2-0.7 0.04-0.2 0.1-0.5 0.1-0.5 0.1-0.3 0.7-1 2-1 0.4 0 0.5 0.4 0.5 0.7 0 0.6-0.5 2-0.6 2-0.09 0.2-0.1 0.3-0.1 0.5 0 0.5 0.4 0.8 0.8 0.8 0.9 0 1-1 1-2 0-0.09-0.08-0.09-0.1-0.09-0.09 0-0.09 0.02-0.2 0.2-0.2 0.7-0.5 1-1 1-0.2 0-0.2-0.1-0.2-0.3 0-0.3 0.09-0.5 0.2-0.7 0.2-0.5 0.6-2 0.6-2 0-0.7-0.4-1-1-1-0.9 0-1 0.6-2 0.9-0.05-0.6-0.5-0.9-0.9-0.9s-0.6 0.4-0.8 0.6c-0.2 0.3-0.3 0.9-0.3 1 0 0.1 0.09 0.1 0.1 0.1 0.09 0 0.1-0.01 0.2-0.2 0.2-0.7 0.4-1 0.7-1 0.2 0 0.3 0.1 0.3 0.5 0 0.2-0.04 0.3-0.2 0.8zm7 0.6c0-0.7-0.3-1-0.6-1-0.3 0-0.5 0.2-0.5 0.5 0 0.3 0.2 0.5 0.5 0.5 0.1 0 0.2-0.04 0.4-0.1 0.02-0.02 0.04-0.04 0.05-0.04s0.02 0.01 0.02 0.2c0 0.7-0.4 1-0.7 2-0.1 0.1-0.1 0.1-0.1 0.2 0 0.07 0.05 0.1 0.09 0.1 0.1 0 0.9-0.8 0.9-2zm6-6c0-0.2-0.1-0.4-0.4-0.4-0.2 0-0.5 0.2-0.5 0.5 0 0.2 0.1 0.4 0.4 0.4 0.3 0 0.5-0.3 0.5-0.5zm-2 7c-0.2 0.8-0.7 1-1 1-0.06 0-0.2 0-0.4-0.09 0.3-0.07 0.4-0.3 0.4-0.5 0-0.2-0.1-0.4-0.4-0.4-0.2 0-0.5 0.2-0.5 0.6 0 0.4 0.4 0.6 0.9 0.6 0.7 0 2-0.5 2-2l0.9-4c0.05-0.2 0.05-0.3 0.05-0.4 0-0.6-0.4-0.9-0.9-0.9-1 0-2 1-2 2 0 0.1 0.09 0.1 0.1 0.1 0.09 0 0.09-0.01 0.2-0.2 0.2-0.6 0.7-1 1-1 0.1 0 0.3 0.04 0.3 0.5 0 0.2-0.02 0.3-0.06 0.5zm4-0.5c0-0.7-0.3-1-0.6-1-0.3 0-0.5 0.2-0.5 0.5 0 0.3 0.2 0.5 0.5 0.5 0.1 0 0.2-0.04 0.4-0.1 0.02-0.02 0.04-0.04 0.05-0.04s0.02 0.01 0.02 0.2c0 0.7-0.4 1-0.7 2-0.1 0.1-0.1 0.1-0.1 0.2 0 0.07 0.05 0.1 0.09 0.1 0.1 0 0.9-0.8 0.9-2zm7-2c0-2-0.9-2-2-2-1 0-3 1-3 3 0 0.9 0.6 2 2 2 0.6 0 1-0.2 2-0.8 0.1 0.5 0.5 0.8 0.9 0.8 0.5 0 0.8-0.5 0.8-0.7 0-0.07-0.06-0.1-0.1-0.1-0.06 0-0.09 0.04-0.1 0.1-0.2 0.5-0.5 0.5-0.6 0.5-0.3 0-0.3-0.8-0.3-1 0-0.2 0-0.2 0.1-0.4 0.9-1 1-2 1-2 0-0.01-0.01-0.09-0.1-0.09-0.1 0-0.1 0.02-0.2 0.2-0.2 0.6-0.5 1-1 2zm-0.7 1c-0.9 0.8-2 0.9-2 0.9-0.6 0-0.9-0.5-0.9-1 0-0.5 0.3-2 0.6-2 0.5-0.7 1-0.9 1-0.9 1 0 1 1 1 2 0 0.4 0 0.9 0.02 1z"/>
<path d="m435 28h-0.2c-0.02 0.2-0.08 0.6-0.2 0.6-0.06 0.04-0.6 0.04-0.7 0.04h-1c0.7-0.6 1-0.8 1-1 0.5-0.4 1-0.8 1-2 0-0.8-0.7-1-2-1-0.9 0-1 0.6-1 1 0 0.4 0.3 0.4 0.4 0.4 0.2 0 0.4-0.1 0.4-0.4 0-0.1-0.06-0.4-0.4-0.4 0.2-0.5 0.7-0.7 1-0.7 0.7 0 1 0.6 1 1 0 0.6-0.4 1-0.7 1l-2 2c-0.07 0.06-0.07 0.07-0.07 0.3h3z"/>
<path d="m439 25c0-0.8-0.1-2-0.7-3-0.6-1-1-2-2-2-0.06 0-0.1 0.05-0.1 0.1 0 0.04 0 0.05 0.2 0.2 1 1 2 3 2 5 0 2-0.4 3-2 5-0.1 0.1-0.1 0.1-0.1 0.2 0 0.06 0.05 0.1 0.1 0.1 0.09 0 1-0.7 2-2 0.5-1 0.6-2 0.6-3z"/>
<path d="m448 26c0.2 0 0.4 0 0.4-0.2s-0.2-0.2-0.4-0.2h-4c0.1-1 1-2 3-2h2c0.2 0 0.4 0 0.4-0.2s-0.2-0.2-0.4-0.2h-2c-2 0-3 1-3 3s1 3 3 3h2c0.2 0 0.4 0 0.4-0.2 0-0.2-0.2-0.2-0.4-0.2h-2c-1 0-3-1-3-2z"/>
<path d="m461 22c0.3-0.4 0.5-0.8 1-0.8 0.08-0.01 0.2-0.01 0.2-0.2 0-0.05-0.05-0.1-0.1-0.1-0.2 0-0.5 0.04-0.8 0.04-0.3 0-0.7-0.04-1-0.04-0.06 0-0.2 0-0.2 0.2 0 0.1 0.08 0.1 0.1 0.1 0.2 0.01 0.6 0.08 0.6 0.4 0 0.1-0.06 0.2-0.1 0.3l-3 5-0.4-5c-0.01-0.2-0.04-0.5 0.7-0.5 0.2 0 0.3 0 0.3-0.2 0-0.1-0.1-0.1-0.2-0.1-0.4 0-0.8 0.04-1 0.04-0.2 0-0.8-0.04-1-0.04-0.06 0-0.2 0-0.2 0.2 0 0.1 0.1 0.1 0.2 0.1 0.4 0 0.5 0.06 0.5 0.2l0.06 0.8-3 4-0.4-5c0-0.1 0-0.3 0.8-0.4 0.09 0 0.2 0 0.2-0.2 0-0.1-0.1-0.1-0.1-0.1-0.4 0-0.8 0.04-1 0.04-0.3 0-0.7-0.04-1-0.04-0.05 0-0.2 0-0.2 0.2 0 0.1 0.08 0.1 0.2 0.1 0.5 0 0.5 0.08 0.5 0.4l0.4 6c0.01 0.2 0.02 0.3 0.2 0.3 0.1 0 0.2-0.06 0.2-0.2l3-5 0.4 5c0.01 0.2 0.04 0.3 0.2 0.3 0.1 0 0.2-0.1 0.2-0.2z"/>
<path d="m469 20c0.07-0.3 0.08-0.3 0.6-0.3 0.2 0 0.2 0 0.2-0.2 0-0.02-0.02-0.09-0.1-0.09-0.2 0-0.7 0.02-0.9 0.02-0.1 0-0.4 0-0.5-0.01-0.1 0-0.3-0.01-0.4-0.01-0.04 0-0.1 0-0.1 0.2 0 0.09 0.08 0.09 0.2 0.09 0 0 0.1 0 0.3 0.01 0.2 0.01 0.2 0.04 0.2 0.1 0 0 0 0.05-0.02 0.2l-0.4 2h-2l0.4-2c0.06-0.2 0.07-0.3 0.6-0.3 0.1 0 0.2 0 0.2-0.2 0-0.02-0.02-0.09-0.1-0.09-0.2 0-0.7 0.02-0.9 0.02-0.1 0-0.4 0-0.5-0.01-0.1 0-0.3-0.01-0.4-0.01-0.05 0-0.2 0-0.2 0.2 0 0.09 0.09 0.09 0.2 0.09 0.01 0 0.1 0 0.3 0.01 0.2 0.01 0.2 0.04 0.2 0.1 0 0.01 0 0.05-0.04 0.2l-0.9 4c-0.05 0.2-0.07 0.3-0.6 0.3-0.1 0-0.2 0-0.2 0.1 0 0.07 0.05 0.1 0.1 0.1 0.2 0 0.7-0.02 0.9-0.02h0.5c0.1 0.01 0.3 0.02 0.4 0.02 0.04 0 0.2 0 0.2-0.1 0-0.1-0.07-0.1-0.2-0.1-0.1 0-0.1 0-0.3-0.02-0.2-0.01-0.2-0.04-0.2-0.1 0 0 0-0.05 0.04-0.2l0.5-2h2l-0.4 2c-0.06 0.2-0.07 0.3-0.6 0.3-0.1 0-0.2 0-0.2 0.1 0 0.07 0.05 0.1 0.1 0.1 0.2 0 0.7-0.02 0.9-0.02h0.5c0.1 0.01 0.3 0.02 0.4 0.02 0.04 0 0.2 0 0.2-0.1 0-0.1-0.07-0.1-0.2-0.1-0.1 0-0.1 0-0.3-0.02-0.2-0.01-0.2-0.04-0.2-0.1 0-0.04 0.02-0.1 0.04-0.2z"/>
<path d="m478 21c0.06-0.1 0.06-0.1 0.06-0.2 0-0.09-0.08-0.2-0.2-0.2-0.1 0-0.2 0.1-0.2 0.2l-0.8 2h-3l-0.8-2c-0.06-0.1-0.1-0.2-0.2-0.2-0.09 0-0.2 0.1-0.2 0.2 0 0.02 0 0.04 0.06 0.2l2 7c0.05 0.1 0.09 0.2 0.2 0.2 0.1 0 0.2-0.1 0.2-0.2zm-4 2h3l-1 4z"/>
<path d="m483 24c0.05-0.1 0.05-0.2 0.05-0.2 0-0.2-0.1-0.3-0.3-0.3-0.1 0-0.3 0.06-0.4 0.2-0.02 0.06-0.09 0.4-0.1 0.5-0.07 0.3-0.1 0.5-0.2 0.8l-0.4 2c-0.04 0.2-0.5 0.9-1 0.9-0.5 0-0.6-0.4-0.6-0.8 0-0.5 0.2-1 0.5-2 0.2-0.4 0.2-0.5 0.2-0.7 0-0.4-0.3-0.8-0.8-0.8-0.9 0-1 1-1 2 0 0.1 0.09 0.1 0.1 0.1 0.09 0 0.1-0.02 0.2-0.2 0.3-0.9 0.7-1 1-1 0.08 0 0.3 0 0.3 0.3 0 0.2-0.1 0.5-0.2 0.7-0.4 1-0.6 2-0.6 2 0 0.9 0.6 1 1 1 0.4 0 0.7-0.2 1-0.4-0.1 0.5-0.2 1-0.6 2-0.3 0.3-0.6 0.6-1 0.6-0.1 0-0.6-0.04-0.8-0.4 0.2 0 0.3 0 0.4-0.1 0.09-0.09 0.2-0.2 0.2-0.4 0-0.3-0.3-0.4-0.4-0.4-0.2 0-0.6 0.2-0.6 0.6 0 0.5 0.4 0.9 1 0.9 1 0 2-0.9 2-2z"/>
<path d="m491 26c0.2 0 0.4 0 0.4-0.2s-0.2-0.2-0.4-0.2h-4c0.1-1 1-2 3-2h2c0.2 0 0.4 0 0.4-0.2s-0.2-0.2-0.4-0.2h-2c-2 0-3 1-3 3s1 3 3 3h2c0.2 0 0.4 0 0.4-0.2 0-0.2-0.2-0.2-0.4-0.2h-2c-1 0-3-1-3-2z"/>
<path d="m501 22 0.1-0.1c0.3-0.3 0.6-0.6 1-0.7 0.1-0.01 0.2-0.01 0.2-0.2 0-0.08-0.06-0.1-0.1-0.1-0.3 0-0.6 0.04-0.8 0.04-0.3 0-0.7-0.04-1-0.04-0.06 0-0.2 0-0.2 0.2 0 0.1 0.09 0.1 0.2 0.1 0.07 0 0.4 0.01 0.4 0.2 0 0.2-0.2 0.4-0.3 0.5l-2 3-1-3c-0.07-0.1-0.07-0.2-0.07-0.2 0-0.2 0.5-0.2 0.6-0.2 0.1 0 0.2 0 0.2-0.2 0-0.1-0.1-0.1-0.2-0.1-0.3 0-1 0.04-1 0.04-0.2 0-0.9-0.04-1-0.04-0.06 0-0.2 0-0.2 0.2 0 0.1 0.09 0.1 0.2 0.1 0.6 0 0.6 0.08 0.7 0.3l1 3c0.01 0.04 0.04 0.1 0.04 0.2 0 0.02-0.4 2-0.4 2-0.1 0.6-0.1 0.6-0.9 0.6-0.2 0-0.3 0-0.3 0.2 0 0.1 0.1 0.1 0.1 0.1 0.3 0 1-0.04 1-0.04s1 0.04 1 0.04c0.07 0 0.2 0 0.2-0.2 0-0.1-0.08-0.1-0.3-0.1-0.01 0-0.2 0-0.4-0.02-0.2-0.02-0.3-0.04-0.3-0.2 0-0.07 0.09-0.4 0.1-0.6l0.4-1c0.05-0.2 0.06-0.2 0.1-0.3z"/>
<path d="m509 24c0-0.05 0-0.1-0.1-0.1-0.1 0-0.1 0.06-0.1 0.1-0.04 0.4-0.3 0.6-0.5 0.6-0.4 0-0.5-0.4-0.5-1-0.08-0.6-0.09-0.7-0.3-0.9-0.07-0.07-0.3-0.3-0.6-0.4 0.6-0.1 1-0.6 1-1 0-0.7-0.9-1-2-1h-2v0.2h0.2c0.5 0 0.6 0.07 0.6 0.3v4c0 0.2-0.01 0.3-0.6 0.3h-0.2v0.2l1-0.02 1 0.02v-0.2h-0.2c-0.5 0-0.6-0.07-0.6-0.3v-2h0.9c0.1 0 0.5 0 0.8 0.3 0.2 0.2 0.2 0.4 0.2 0.9s0 0.7 0.3 1c0.3 0.2 0.7 0.3 0.9 0.3 0.6 0 0.8-0.6 0.8-0.8zm-2-3c0 0.8-0.6 1-1 1h-0.9v-2c0-0.2 0.01-0.2 0.2-0.3 0.06-0.01 0.3-0.01 0.4-0.01 0.7 0 2 0 2 1z"/>
<path d="m512 28c0-0.7-0.3-1-0.6-1-0.3 0-0.5 0.2-0.5 0.5 0 0.3 0.2 0.5 0.5 0.5 0.1 0 0.2-0.04 0.4-0.1 0.02-0.02 0.04-0.04 0.05-0.04s0.02 0.01 0.02 0.2c0 0.7-0.4 1-0.7 2-0.1 0.1-0.1 0.1-0.1 0.2 0 0.07 0.05 0.1 0.09 0.1 0.1 0 0.9-0.8 0.9-2z"/>
<path d="m521 21c0.06-0.1 0.06-0.1 0.06-0.2 0-0.09-0.08-0.2-0.2-0.2-0.1 0-0.2 0.1-0.2 0.2l-0.8 2h-3l-0.8-2c-0.06-0.1-0.1-0.2-0.2-0.2-0.09 0-0.2 0.1-0.2 0.2 0 0.02 0 0.04 0.06 0.2l2 7c0.05 0.1 0.09 0.2 0.2 0.2 0.1 0 0.2-0.1 0.2-0.2zm-4 2h3l-1 4z"/>
<path d="m524 25c0.06-0.3 0.3-1 1-1 0.05 0 0.3 0 0.5 0.1-0.3 0.05-0.5 0.3-0.5 0.5 0 0.2 0.1 0.4 0.4 0.4 0.2 0 0.5-0.2 0.5-0.6 0-0.5-0.6-0.7-0.9-0.7-0.6 0-0.9 0.5-1 0.8-0.3-0.7-0.8-0.8-1-0.8-1 0-2 1-2 2 0 0.1 0.1 0.1 0.1 0.1 0.08 0 0.1-0.02 0.1-0.1 0.3-1 1-1 1-1 0.2 0 0.5 0.09 0.5 0.7 0 0.3-0.2 1-0.5 2-0.2 0.6-0.5 1-0.9 1-0.06 0-0.3 0-0.5-0.1 0.2-0.06 0.5-0.3 0.5-0.5s-0.2-0.4-0.4-0.4c-0.3 0-0.5 0.3-0.5 0.6 0 0.5 0.5 0.7 0.9 0.7 0.7 0 1-0.7 1-0.8 0.1 0.4 0.5 0.8 1 0.8 1 0 2-1 2-2 0-0.09-0.09-0.09-0.1-0.09-0.08 0-0.1 0.04-0.1 0.1-0.3 1-1 1-1 1-0.4 0-0.5-0.3-0.5-0.7 0-0.2 0.06-0.4 0.2-0.9z"/>
<path d="m529 21c0.05-0.1 0.06-0.2 0.06-0.2 0-0.2-0.2-0.4-0.4-0.4-0.3 0-0.4 0.2-0.4 0.3l-0.9 3c-0.01 0.01-0.04 0.1-0.04 0.1 0 0.08 0.2 0.2 0.3 0.2 0.05 0 0.06-0.02 0.1-0.1z"/>
<path d="m538 26c0.2 0 0.4 0 0.4-0.2s-0.2-0.2-0.4-0.2h-4c0.1-1 1-2 3-2h2c0.2 0 0.4 0 0.4-0.2s-0.2-0.2-0.4-0.2h-2c-2 0-3 1-3 3s1 3 3 3h2c0.2 0 0.4 0 0.4-0.2 0-0.2-0.2-0.2-0.4-0.2h-2c-1 0-3-1-3-2z"/>
<path d="m547 24-0.8-2c-0.04-0.07-0.05-0.1-0.05-0.1 0-0.06 0.2-0.2 0.6-0.3 0.09-0.01 0.2-0.02 0.2-0.2 0-0.1-0.1-0.1-0.2-0.1-0.4 0-0.8 0.04-1 0.04-0.2 0-0.9-0.04-1-0.04-0.06 0-0.2 0-0.2 0.2 0 0.1 0.1 0.1 0.2 0.1 0.6 0 0.7 0.09 0.8 0.3l1 3-2 2-0.1 0.1c-0.5 0.5-1 0.7-1 0.7-0.1 0-0.2 0-0.2 0.2 0 0 0 0.1 0.1 0.1 0.3 0 0.6-0.04 0.9-0.04 0.4 0 0.8 0.04 1 0.04 0.06 0 0.2 0 0.2-0.2 0-0.1-0.09-0.1-0.1-0.1-0.08-0.01-0.4-0.04-0.4-0.3 0-0.2 0.2-0.3 0.3-0.4l2-2 1 2c0.05 0.1 0.05 0.1 0.05 0.1 0 0.08-0.2 0.2-0.6 0.3-0.1 0-0.2 0.01-0.2 0.2 0 0.1 0.1 0.1 0.2 0.1 0.3 0 1-0.04 1-0.04 0.2 0 0.9 0.04 1 0.04 0.07 0 0.2 0 0.2-0.2 0-0.1-0.1-0.1-0.2-0.1-0.7-0.01-0.7-0.05-0.9-0.4-0.4-0.9-1-2-1-3 0.7-0.7 2-2 2-2 0.3-0.2 0.7-0.5 1-0.5 0.1-0.01 0.2-0.01 0.2-0.2 0-0.01 0-0.1-0.1-0.1-0.3 0-0.6 0.04-0.9 0.04-0.4 0-0.7-0.04-1-0.04-0.06 0-0.2 0-0.2 0.2 0 0.07 0.05 0.1 0.1 0.1 0.09 0.01 0.4 0.02 0.4 0.3 0 0.1-0.1 0.3-0.2 0.4z"/>
<path d="m557 24c0-0.05 0-0.1-0.1-0.1-0.1 0-0.1 0.06-0.1 0.1-0.04 0.4-0.3 0.6-0.5 0.6-0.4 0-0.5-0.4-0.5-1-0.08-0.6-0.09-0.7-0.3-0.9-0.07-0.07-0.3-0.3-0.6-0.4 0.6-0.1 1-0.6 1-1 0-0.7-0.9-1-2-1h-2v0.2h0.2c0.5 0 0.6 0.07 0.6 0.3v4c0 0.2-0.01 0.3-0.6 0.3h-0.2v0.2l1-0.02 1 0.02v-0.2h-0.2c-0.5 0-0.6-0.07-0.6-0.3v-2h0.9c0.1 0 0.5 0 0.8 0.3 0.2 0.2 0.2 0.4 0.2 0.9s0 0.7 0.3 1c0.3 0.2 0.7 0.3 0.9 0.3 0.6 0 0.8-0.6 0.8-0.8zm-2-3c0 0.8-0.6 1-1 1h-0.9v-2c0-0.2 0.01-0.2 0.2-0.3 0.06-0.01 0.3-0.01 0.4-0.01 0.7 0 2 0 2 1z"/>
</g>
</svg>
