<?xml version="1.0" encoding="UTF-8" standalone="no"?>
<!-- Created with Inkscape (http://www.inkscape.org/) -->

<svg
   version="1.1"
   id="svg1"
   width="816"
   height="1056"
   viewBox="0 0 816 1056"
   sodipodi:docname="Formulas.pdf"
   xmlns:inkscape="http://www.inkscape.org/namespaces/inkscape"
   xmlns:sodipodi="http://sodipodi.sourceforge.net/DTD/sodipodi-0.dtd"
   xmlns="http://www.w3.org/2000/svg"
   xmlns:svg="http://www.w3.org/2000/svg">
  <defs
     id="defs1" />
  <sodipodi:namedview
     id="namedview1"
     pagecolor="#ffffff"
     bordercolor="#000000"
     borderopacity="0.25"
     inkscape:showpageshadow="2"
     inkscape:pageopacity="0.0"
     inkscape:pagecheckerboard="0"
     inkscape:deskcolor="#d1d1d1">
    <inkscape:page
       x="0"
       y="0"
       inkscape:label="1"
       id="page1"
       width="816"
       height="1056"
       margin="0"
       bleed="0" />
  </sodipodi:namedview>
  <g
     id="g1"
     inkscape:groupmode="layer"
     inkscape:label="1">
    <g
       id="g2"
       aria-label="∑&#10;l∈B&#10;∑&#10;(n,j)∈C&#10;∪&#10;{0}&#10;Z&#10;(m,i)(n,j),l&#10;=1,∀(m,i)∈C(4)"
       transform="matrix(1.3333333,0,0,1.3333333,282.72,183.00667)">
      <path
         id="path2"
         d="m 12.608438,13.946172 1.207031,-3.1875 h -0.246094 c -0.386719,1.03125 -1.453125,1.710937 -2.589844,2.015625 -0.210937,0.04687 -1.1835935,0.304687 -3.1054685,0.304687 h -6 l 5.0625,-5.9414059 c 0.070312,-0.082031 0.09375,-0.1171875 0.09375,-0.1640625 0,-0.023437 0,-0.046875 -0.070312,-0.1523437 L 2.319375,0.48132813 h 5.4609375 c 1.3359375,0 2.2382815,0.140625 2.3320315,0.15234375 0.539062,0.0820313 1.40625,0.2578125 2.191406,0.75000002 0.246094,0.1640625 0.925781,0.609375 1.265625,1.4179687 h 0.246094 L 12.608438,8.59375e-4 H 0.83109375 c -0.22265625,0 -0.234375,0.011718755 -0.26953125,0.070312505 0,0.03515625 0,0.22265625 0,0.328125 L 5.8232813,7.6063281 0.66703125,13.653203 c -0.10546875,0.128906 -0.10546875,0.175781 -0.10546875,0.1875 0,0.105469 0.09375,0.105469 0.26953125,0.105469 z m 0,0"
         style="fill:#000000;fill-opacity:1;fill-rule:nonzero;stroke:none" />
      <path
         id="path3"
         d="m 2.0205469,16.820195 c 0,-0.01172 0.023437,-0.105468 0.023437,-0.117187 0,-0.03516 -0.023437,-0.09375 -0.1054688,-0.09375 -0.140625,0 -0.7265625,0.05859 -0.9023437,0.07031 -0.046875,0.01172 -0.14062502,0.01172 -0.14062502,0.164063 0,0.09375 0.09375,0.09375 0.17578122,0.09375 0.328125,0 0.328125,0.04687 0.328125,0.105469 0,0.04687 -0.011719,0.09375 -0.023437,0.152343 l -0.86718747,3.445313 c -0.0234375,0.07031 -0.0234375,0.140625 -0.0234375,0.210937 0,0.457032 0.3984375,0.667969 0.72656247,0.667969 0.1757813,0 0.375,-0.05859 0.5625,-0.375 0.140625,-0.257812 0.2460938,-0.667969 0.2460938,-0.691406 0,-0.09375 -0.09375,-0.09375 -0.1171875,-0.09375 -0.09375,0 -0.1054688,0.04687 -0.140625,0.164062 -0.082031,0.351563 -0.2226563,0.796875 -0.515625,0.796875 -0.1875,0 -0.234375,-0.175781 -0.234375,-0.339843 0,-0.07031 0.011719,-0.210938 0.035156,-0.28125 z m 0,0"
         style="fill:#000000;fill-opacity:1;fill-rule:nonzero;stroke:none" />
      <path
         id="path4"
         d="m 6.9365625,19.878789 c 0.1171875,0 0.28125,0 0.28125,-0.175781 0,-0.175781 -0.1523437,-0.175781 -0.28125,-0.175781 H 3.7139063 C 3.819375,18.519414 4.663125,17.769414 5.7529688,17.769414 h 1.1835937 c 0.1171875,0 0.28125,0 0.28125,-0.164062 0,-0.175782 -0.1523437,-0.175782 -0.28125,-0.175782 h -1.21875 c -1.2890625,0 -2.3554687,1.019532 -2.3554687,2.273438 0,1.277344 1.078125,2.273437 2.3554687,2.273437 h 1.21875 c 0.1171875,0 0.28125,0 0.28125,-0.164062 0,-0.175781 -0.1523437,-0.175781 -0.28125,-0.175781 H 5.7529688 c -1.0898438,0 -1.9335938,-0.75 -2.0390625,-1.757813 z m 0,0"
         style="fill:#000000;fill-opacity:1;fill-rule:nonzero;stroke:none" />
      <path
         id="path5"
         d="m 9.30375,20.910039 c -0.058594,0.234375 -0.070312,0.292969 -0.609375,0.292969 -0.1171875,0 -0.2109375,0 -0.2109375,0.140625 0,0.105469 0.082031,0.105469 0.2109375,0.105469 h 2.695313 c 1.171875,0 2.074218,-0.796875 2.074218,-1.488282 0,-0.503906 -0.457031,-0.925781 -1.195312,-0.996093 0.84375,-0.164063 1.546875,-0.691407 1.546875,-1.289063 0,-0.527344 -0.539063,-0.984375 -1.441406,-0.984375 H 9.8310938 c -0.1289063,0 -0.2226563,0 -0.2226563,0.152344 0,0.09375 0.082031,0.09375 0.2226563,0.09375 0.011719,0 0.140625,0 0.2695312,0.01172 0.140625,0.01172 0.164063,0.03516 0.164063,0.105468 0,0.01172 0,0.04687 -0.03516,0.152344 z m 1.113281,-2.039062 0.433594,-1.699219 c 0.04687,-0.210938 0.05859,-0.234375 0.351563,-0.234375 h 1.054687 c 0.714844,0 0.878906,0.46875 0.878906,0.738281 0,0.5625 -0.632812,1.195313 -1.570312,1.195313 z m -0.328125,2.332031 c -0.222656,0 -0.222656,-0.01172 -0.222656,-0.07031 0,-0.01172 0,-0.04687 0.023437,-0.152343 l 0.480469,-1.910157 h 1.476563 c 0.65625,0 0.914062,0.433594 0.914062,0.84375 0,0.679688 -0.714843,1.289063 -1.558593,1.289063 z m 0,0"
         style="fill:#000000;fill-opacity:1;fill-rule:nonzero;stroke:none" />
      <path
         id="path6"
         d="m 45.936563,13.946172 1.207031,-3.1875 H 46.8975 c -0.386719,1.03125 -1.453125,1.710937 -2.589844,2.015625 -0.210937,0.04687 -1.183593,0.304687 -3.105468,0.304687 h -6 l 5.0625,-5.9414059 c 0.07031,-0.082031 0.09375,-0.1171875 0.09375,-0.1640625 0,-0.023437 0,-0.046875 -0.07031,-0.1523437 L 35.6475,0.48132813 h 5.460938 c 1.335937,0 2.238281,0.140625 2.332031,0.15234375 0.539062,0.0820313 1.40625,0.2578125 2.191406,0.75000002 0.246094,0.1640625 0.925781,0.609375 1.265625,1.4179687 h 0.246094 L 45.936563,8.59375e-4 H 34.159219 c -0.222656,0 -0.234375,0.011718755 -0.269531,0.070312505 0,0.03515625 0,0.22265625 0,0.328125 l 5.261718,7.20703122 -5.15625,6.0468749 c -0.105468,0.128906 -0.105468,0.175781 -0.105468,0.1875 0,0.105469 0.09375,0.105469 0.269531,0.105469 z m 0,0"
         style="fill:#000000;fill-opacity:1;fill-rule:nonzero;stroke:none" />
      <path
         id="path7"
         d="m 18.523477,16.609258 c -1.324219,0.925781 -1.675782,2.414062 -1.675782,3.480469 0,0.984375 0.292969,2.507812 1.675782,3.480468 0.05859,0 0.140625,0 0.140625,-0.08203 0,-0.04687 -0.02344,-0.05859 -0.07031,-0.105469 -0.925781,-0.832031 -1.265625,-2.015625 -1.265625,-3.292968 0,-1.875 0.714844,-2.800782 1.289063,-3.316407 0.02344,-0.02344 0.04687,-0.04687 0.04687,-0.08203 0,-0.08203 -0.08203,-0.08203 -0.140625,-0.08203 z m 0,0"
         style="fill:#000000;fill-opacity:1;fill-rule:nonzero;stroke:none" />
      <path
         id="path8"
         d="m 20.020547,21.402227 c -0.03516,0.08203 -0.07031,0.257812 -0.07031,0.28125 0,0.152343 0.117188,0.222656 0.234375,0.222656 0.128907,0 0.234375,-0.09375 0.269532,-0.152344 0.03516,-0.05859 0.09375,-0.292969 0.128906,-0.433594 0.03516,-0.128906 0.105469,-0.457031 0.152344,-0.632812 0.03516,-0.152344 0.08203,-0.304688 0.117187,-0.457031 0.08203,-0.292969 0.09375,-0.351563 0.292969,-0.632813 0.199219,-0.28125 0.527344,-0.644531 1.042969,-0.644531 0.410156,0 0.410156,0.363281 0.410156,0.492187 0,0.421875 -0.292969,1.195313 -0.410156,1.488282 -0.07031,0.1875 -0.105469,0.257812 -0.105469,0.375 0,0.363281 0.304687,0.597656 0.667969,0.597656 0.691406,0 1.007812,-0.960938 1.007812,-1.066406 0,-0.09375 -0.09375,-0.09375 -0.117187,-0.09375 -0.09375,0 -0.105469,0.04687 -0.128907,0.117187 -0.164062,0.5625 -0.46875,0.84375 -0.738281,0.84375 -0.152344,0 -0.175781,-0.09375 -0.175781,-0.246094 0,-0.152343 0.03516,-0.246093 0.152344,-0.5625 0.09375,-0.210937 0.375,-0.949218 0.375,-1.347656 0,-0.667969 -0.539063,-0.785156 -0.902344,-0.785156 -0.585938,0 -0.972656,0.351562 -1.183594,0.632812 -0.04687,-0.480468 -0.457031,-0.632812 -0.75,-0.632812 -0.292969,0 -0.457031,0.210937 -0.550781,0.375 -0.152344,0.257812 -0.246094,0.65625 -0.246094,0.691406 0,0.08203 0.09375,0.08203 0.117188,0.08203 0.09375,0 0.105468,-0.01172 0.152343,-0.199218 0.105469,-0.421875 0.234375,-0.761719 0.515625,-0.761719 0.175782,0 0.222657,0.152344 0.222657,0.339844 0,0.140625 -0.05859,0.398437 -0.105469,0.585937 -0.04687,0.1875 -0.117188,0.46875 -0.152344,0.621094 z m 5.542969,0.316406 c 0,0.386719 -0.07031,0.832031 -0.550782,1.277344 -0.02344,0.03516 -0.04687,0.05859 -0.04687,0.09375 0,0.04687 0.05859,0.09375 0.09375,0.09375 0.105469,0 0.691407,-0.5625 0.691407,-1.394532 0,-0.421875 -0.164063,-0.75 -0.480469,-0.75 -0.234375,0 -0.398438,0.175782 -0.398438,0.386719 0,0.234375 0.152344,0.410156 0.398438,0.410156 0.164062,0 0.28125,-0.117187 0.292969,-0.117187 z m 3.946289,-4.242188 c 0,-0.117187 -0.09375,-0.257812 -0.28125,-0.257812 -0.199219,0 -0.386719,0.1875 -0.386719,0.375 0,0.117187 0.08203,0.269531 0.28125,0.269531 0.1875,0 0.386719,-0.1875 0.386719,-0.386719 z m -1.476563,4.699219 c -0.117187,0.480469 -0.492187,0.890625 -0.902344,0.890625 -0.08203,0 -0.175781,-0.01172 -0.246093,-0.04687 0.175781,-0.08203 0.234375,-0.246094 0.234375,-0.351562 0,-0.164063 -0.128907,-0.257813 -0.269532,-0.257813 -0.222656,0 -0.398437,0.1875 -0.398437,0.410156 0,0.269532 0.269531,0.433594 0.691406,0.433594 0.421875,0 1.230469,-0.246094 1.453125,-1.101562 l 0.621094,-2.496094 c 0.02344,-0.07031 0.03516,-0.140625 0.03516,-0.234375 0,-0.386719 -0.328125,-0.65625 -0.738281,-0.65625 -0.785156,0 -1.230469,0.960937 -1.230469,1.066406 0,0.08203 0.105469,0.08203 0.128906,0.08203 0.08203,0 0.08203,-0.01172 0.128907,-0.117187 0.175781,-0.410156 0.539062,-0.84375 0.949218,-0.84375 0.175782,0 0.234375,0.117187 0.234375,0.339844 0,0.08203 -0.01172,0.175781 -0.02344,0.210937 z m 0,0"
         style="fill:#000000;fill-opacity:1;fill-rule:nonzero;stroke:none" />
      <path
         id="path9"
         d="m 30.787148,16.609258 c -0.05859,0 -0.140625,0 -0.140625,0.08203 0,0.03516 0.02344,0.05859 0.07031,0.105469 0.597656,0.550781 1.265625,1.488281 1.265625,3.292969 0,1.453125 -0.457031,2.554687 -1.207031,3.234375 -0.117188,0.117187 -0.128907,0.128906 -0.128907,0.164062 0,0.03516 0.02344,0.08203 0.09375,0.08203 0.08203,0 0.75,-0.457031 1.207032,-1.324218 0.304687,-0.585938 0.503906,-1.335938 0.503906,-2.15625 0,-0.984375 -0.292969,-2.507813 -1.664063,-3.480469 z m 0,0"
         style="fill:#000000;fill-opacity:1;fill-rule:nonzero;stroke:none" />
      <path
         id="path10"
         d="m 37.592813,20.265508 c 0.117187,0 0.28125,0 0.28125,-0.175781 0,-0.175782 -0.152344,-0.175782 -0.28125,-0.175782 h -3.222657 c 0.105469,-1.007812 0.949219,-1.757812 2.039063,-1.757812 h 1.183594 c 0.117187,0 0.28125,0 0.28125,-0.164063 0,-0.175781 -0.152344,-0.175781 -0.28125,-0.175781 h -1.21875 c -1.289063,0 -2.355469,1.019531 -2.355469,2.273438 0,1.277343 1.078125,2.273437 2.355469,2.273437 h 1.21875 c 0.117187,0 0.28125,0 0.28125,-0.164062 0,-0.175782 -0.152344,-0.175782 -0.28125,-0.175782 h -1.183594 c -1.089844,0 -1.933594,-0.75 -2.039063,-1.757812 z m 0,0"
         style="fill:#000000;fill-opacity:1;fill-rule:nonzero;stroke:none" />
      <path
         id="path11"
         d="m 44.518594,17.019414 c 0,-0.03516 -0.02344,-0.08203 -0.09375,-0.08203 -0.04687,0 -0.07031,0.01172 -0.128906,0.08203 l -0.503907,0.539063 c -0.07031,-0.08203 -0.457031,-0.621094 -1.3125,-0.621094 -1.699218,0 -3.351562,1.5 -3.351562,3.070312 0,1.136719 0.890625,1.96875 2.132812,1.96875 0.375,0 1.054688,-0.08203 1.769532,-0.679687 0.550781,-0.46875 0.703125,-1.078125 0.703125,-1.136719 0,-0.09375 -0.08203,-0.09375 -0.117188,-0.09375 -0.09375,0 -0.105469,0.03516 -0.128906,0.117188 -0.28125,0.949218 -1.265625,1.535156 -2.109375,1.535156 -0.738281,0 -1.558594,-0.386719 -1.558594,-1.488281 0,-0.210938 0.04687,-1.3125 0.855469,-2.191407 0.480469,-0.527343 1.207031,-0.855468 1.875,-0.855468 0.808594,0 1.277344,0.585937 1.277344,1.371093 0,0.1875 -0.02344,0.246094 -0.02344,0.28125 0,0.09375 0.09375,0.09375 0.128906,0.09375 0.117188,0 0.117188,-0.02344 0.152344,-0.152343 z m 0,0"
         style="fill:#000000;fill-opacity:1;fill-rule:nonzero;stroke:none" />
      <path
         id="path12"
         d="m 51.754922,21.106328 c 0,1.289063 -1.230469,1.910156 -2.226563,1.910156 -1.03125,0 -2.238281,-0.621093 -2.238281,-1.910156 v -4.125 c 0,-0.09375 0,-0.375 -0.269531,-0.375 -0.28125,0 -0.28125,0.28125 -0.28125,0.375 v 4.183594 c 0,1.40625 1.300781,2.414062 2.777344,2.414062 1.5,0 2.789062,-1.019531 2.789062,-2.414062 v -4.183594 c 0,-0.09375 0,-0.375 -0.28125,-0.375 -0.269531,0 -0.269531,0.28125 -0.269531,0.375 z m 0,0"
         style="fill:#000000;fill-opacity:1;fill-rule:nonzero;stroke:none" />
      <path
         id="path13"
         d="m 55.165078,17.605352 c 0,-0.128907 0,-0.339844 0.210938,-0.539063 0.210937,-0.175781 0.480468,-0.246094 0.75,-0.269531 0.09375,0 0.152343,0 0.152343,-0.09375 0,-0.09375 -0.07031,-0.09375 -0.175781,-0.09375 -0.75,0 -1.476562,0.316406 -1.476562,0.878906 v 1.640625 c 0,0.175781 0,0.398438 -0.234375,0.597656 -0.164063,0.140625 -0.386719,0.246094 -0.738282,0.269532 -0.08203,0.01172 -0.140625,0.01172 -0.140625,0.09375 0,0.09375 0.05859,0.09375 0.117188,0.105468 0.832031,0.04687 0.984375,0.527344 0.996094,0.726563 v 1.640625 c 0,0.1875 0,0.503906 0.363281,0.738281 0.386719,0.246094 0.9375,0.28125 1.113281,0.28125 0.105469,0 0.175781,0 0.175781,-0.105469 0,-0.08203 -0.07031,-0.09375 -0.128906,-0.09375 -0.644531,-0.03516 -0.914062,-0.351562 -0.972656,-0.609375 -0.01172,-0.07031 -0.01172,-0.117187 -0.01172,-0.210937 v -1.464844 c 0,-0.199219 0,-0.457031 -0.1875,-0.644531 -0.09375,-0.09375 -0.257812,-0.257813 -0.644531,-0.363281 0.28125,-0.07031 0.75,-0.257813 0.820312,-0.738282 0.01172,-0.03516 0.01172,-0.05859 0.01172,-0.28125 z m 0,0"
         style="fill:#000000;fill-opacity:1;fill-rule:nonzero;stroke:none" />
      <path
         id="path14"
         d="m 60.535195,19.609258 c 0,-0.761719 -0.09375,-1.3125 -0.410156,-1.804688 -0.222656,-0.316406 -0.644531,-0.597656 -1.207031,-0.597656 -1.617188,0 -1.617188,1.898438 -1.617188,2.402344 0,0.503906 0,2.367187 1.617188,2.367187 1.617187,0 1.617187,-1.863281 1.617187,-2.367187 z m -1.617187,2.167969 c -0.316406,0 -0.75,-0.1875 -0.890625,-0.761719 -0.09375,-0.410156 -0.09375,-0.984375 -0.09375,-1.5 0,-0.503906 0,-1.03125 0.105469,-1.417969 0.152343,-0.550781 0.597656,-0.691406 0.878906,-0.691406 0.375,0 0.738281,0.222656 0.867187,0.632812 0.105469,0.375 0.117188,0.878907 0.117188,1.476563 0,0.515625 0,1.042969 -0.09375,1.476562 -0.140625,0.632813 -0.609375,0.785157 -0.890625,0.785157 z m 0,0"
         style="fill:#000000;fill-opacity:1;fill-rule:nonzero;stroke:none" />
      <path
         id="path15"
         d="m 63.218789,21.062383 c 0,-0.1875 0,-0.410156 0.234375,-0.609375 0.164063,-0.128906 0.386719,-0.246094 0.738281,-0.257813 0.08203,-0.01172 0.140625,-0.01172 0.140625,-0.105468 0,-0.08203 -0.07031,-0.08203 -0.128906,-0.09375 -0.820312,-0.05859 -0.972656,-0.539063 -0.984375,-0.738282 v -1.628906 c 0,-0.1875 0,-0.503906 -0.375,-0.738281 -0.386719,-0.257813 -0.925781,-0.28125 -1.101562,-0.28125 -0.105469,0 -0.175782,0 -0.175782,0.09375 0,0.09375 0.05859,0.09375 0.117188,0.09375 0.65625,0.03516 0.925781,0.351562 0.972656,0.609375 0.02344,0.07031 0.02344,0.117187 0.02344,0.222656 v 1.464844 c 0,0.199219 0,0.445312 0.175781,0.632812 0.09375,0.09375 0.257812,0.257813 0.644531,0.363282 -0.269531,0.08203 -0.738281,0.269531 -0.820312,0.738281 0,0.04687 0,0.05859 0,0.28125 v 1.464844 c 0,0.140625 0,0.351562 -0.222657,0.539062 -0.210937,0.1875 -0.46875,0.246094 -0.75,0.269531 -0.09375,0.01172 -0.140625,0.01172 -0.140625,0.09375 0,0.105469 0.07031,0.105469 0.175782,0.105469 0.738281,0 1.464843,-0.316406 1.476562,-0.878906 z m 0,0"
         style="fill:#000000;fill-opacity:1;fill-rule:nonzero;stroke:none" />
      <path
         id="path16"
         d="m 73.824258,2.90125 c 0.01172,-0.046875 0.03516,-0.09375 0.03516,-0.1523437 0,-0.09375 -0.05859,-0.09375 -0.257812,-0.09375 h -4.195313 c -0.246094,0 -0.257812,0.011719 -0.316406,0.1992187 L 68.55082,4.6473438 c -0.02344,0.058594 -0.03516,0.1289062 -0.03516,0.140625 0,0.011719 0,0.1171875 0.117188,0.1171875 0.09375,0 0.117187,-0.070312 0.128906,-0.1054688 0.386719,-1.171875 0.902344,-1.828125 2.449219,-1.828125 h 1.628906 l -5.566406,6.2226563 c 0,0.011719 -0.04687,0.1523437 -0.04687,0.1757812 0,0.09375 0.07031,0.09375 0.257812,0.09375 h 4.324219 c 0.246094,0 0.257812,-0.011719 0.316406,-0.1992187 l 0.703125,-2.203125 c 0.01172,-0.035156 0.03516,-0.1054688 0.03516,-0.1523438 0,-0.046875 -0.03516,-0.1054687 -0.128906,-0.1054687 -0.08203,0 -0.09375,0.035156 -0.164062,0.2460937 -0.433594,1.359375 -0.914063,2.0742188 -2.613282,2.0742188 h -1.699218 z m 0,0"
         style="fill:#000000;fill-opacity:1;fill-rule:nonzero;stroke:none" />
      <path
         id="path17"
         d="m 75.924844,6.0360156 c -1.324219,0.9257813 -1.675781,2.4140625 -1.675781,3.4804688 0,0.9843746 0.292968,2.5078126 1.675781,3.4804686 0.05859,0 0.140625,0 0.140625,-0.08203 0,-0.04687 -0.02344,-0.05859 -0.07031,-0.105469 -0.925781,-0.832031 -1.265625,-2.015625 -1.265625,-3.2929686 0,-1.875 0.714844,-2.8007813 1.289063,-3.3164063 0.02344,-0.023437 0.04687,-0.046875 0.04687,-0.082031 0,-0.082031 -0.08203,-0.082031 -0.140625,-0.082031 z m 0,0"
         style="fill:#000000;fill-opacity:1;fill-rule:nonzero;stroke:none" />
      <path
         id="path18"
         d="m 79.589883,10.700078 c -0.03516,0.140625 -0.09375,0.375 -0.09375,0.410156 0,0.152344 0.128906,0.222657 0.234375,0.222657 0.128906,0 0.234375,-0.09375 0.269531,-0.152344 0.03516,-0.05859 0.09375,-0.292969 0.128906,-0.433594 0.03516,-0.128906 0.117188,-0.457031 0.152344,-0.632812 0.04687,-0.1523441 0.08203,-0.3046879 0.117188,-0.4570316 0.08203,-0.3046875 0.08203,-0.3164063 0.222656,-0.5390625 0.222656,-0.3398438 0.5625,-0.7382813 1.113281,-0.7382813 0.386719,0 0.410156,0.328125 0.410156,0.4921875 0,0.421875 -0.304687,1.1953129 -0.410156,1.4882809 -0.08203,0.1875 -0.105469,0.257813 -0.105469,0.375 0,0.363282 0.304688,0.597657 0.65625,0.597657 0.703125,0 1.007813,-0.960938 1.007813,-1.066407 0,-0.09375 -0.09375,-0.09375 -0.105469,-0.09375 -0.105469,0 -0.105469,0.04687 -0.140625,0.117188 -0.152344,0.5625 -0.457031,0.84375 -0.738281,0.84375 -0.140625,0 -0.175781,-0.09375 -0.175781,-0.246094 0,-0.152344 0.03516,-0.246094 0.164062,-0.5625 0.08203,-0.210937 0.375,-0.9492186 0.375,-1.3476561 0,-0.1054688 0,-0.3984375 -0.257812,-0.5976563 -0.128907,-0.09375 -0.328125,-0.1875 -0.65625,-0.1875 -0.621094,0 -1.007813,0.4101563 -1.230469,0.703125 -0.05859,-0.5976562 -0.550781,-0.703125 -0.902344,-0.703125 -0.585937,0 -0.972656,0.3515625 -1.183594,0.6328125 -0.04687,-0.4804687 -0.457031,-0.6328125 -0.75,-0.6328125 -0.292968,0 -0.457031,0.2109375 -0.550781,0.375 -0.152344,0.2578125 -0.246094,0.65625 -0.246094,0.6914063 0,0.082031 0.09375,0.082031 0.117188,0.082031 0.09375,0 0.105469,-0.011719 0.152344,-0.1992187 0.105468,-0.421875 0.234375,-0.7617188 0.515625,-0.7617188 0.175781,0 0.222656,0.1523438 0.222656,0.3398438 0,0.140625 -0.05859,0.3984375 -0.105469,0.5859375 -0.04687,0.1875 -0.117187,0.46875 -0.152344,0.6210937 l -0.222656,0.9023436 c -0.03516,0.08203 -0.07031,0.257813 -0.07031,0.28125 0,0.152344 0.117187,0.222657 0.234375,0.222657 0.128906,0 0.234375,-0.09375 0.269531,-0.152344 0.03516,-0.05859 0.09375,-0.292969 0.128906,-0.433594 0.03516,-0.128906 0.105469,-0.457031 0.152344,-0.632812 0.03516,-0.1523443 0.08203,-0.3046881 0.117187,-0.4570318 0.08203,-0.2929688 0.09375,-0.3515625 0.292969,-0.6328125 0.199219,-0.28125 0.527344,-0.6445313 1.042969,-0.6445313 0.410156,0 0.410156,0.3632813 0.410156,0.4921875 0,0.1757813 -0.01172,0.2695313 -0.117187,0.65625 z m 5.516601,0.445313 c 0,0.386718 -0.07031,0.832031 -0.550781,1.277343 -0.02344,0.03516 -0.04687,0.05859 -0.04687,0.09375 0,0.04687 0.05859,0.09375 0.09375,0.09375 0.105469,0 0.691406,-0.5625 0.691406,-1.394531 0,-0.421875 -0.164062,-0.75 -0.480468,-0.75 -0.234375,0 -0.398438,0.175781 -0.398438,0.386719 0,0.234375 0.152344,0.410156 0.398438,0.410156 0.164062,0 0.28125,-0.117187 0.292968,-0.117187 z m 3.149414,-4.2421879 c 0,-0.1054687 -0.08203,-0.2578125 -0.28125,-0.2578125 -0.1875,0 -0.386718,0.1757813 -0.386718,0.375 0,0.1171875 0.08203,0.2695313 0.269531,0.2695313 0.210937,0 0.398437,-0.1992188 0.398437,-0.3867188 z m -1.429687,3.5390629 c -0.02344,0.09375 -0.05859,0.175781 -0.05859,0.292968 0,0.328125 0.28125,0.597657 0.667969,0.597657 0.691406,0 0.996094,-0.960938 0.996094,-1.066407 0,-0.09375 -0.08203,-0.09375 -0.105469,-0.09375 -0.105469,0 -0.105469,0.04687 -0.140625,0.117188 -0.152344,0.5625 -0.457031,0.84375 -0.738281,0.84375 -0.140625,0 -0.175782,-0.08203 -0.175782,-0.246094 0,-0.152344 0.05859,-0.292969 0.117188,-0.445312 0.07031,-0.1875 0.140625,-0.375 0.222656,-0.5507816 0.05859,-0.1640625 0.316406,-0.8085938 0.339844,-0.890625 0.02344,-0.070312 0.04687,-0.1523438 0.04687,-0.2226563 0,-0.328125 -0.28125,-0.5859375 -0.667969,-0.5859375 -0.691406,0 -1.007812,0.9492188 -1.007812,1.0664063 0,0.082031 0.09375,0.082031 0.117187,0.082031 0.09375,0 0.105469,-0.035156 0.128906,-0.1054687 0.175782,-0.5976563 0.480469,-0.8554688 0.738282,-0.8554688 0.117187,0 0.175781,0.058594 0.175781,0.2460938 0,0.1640625 -0.03516,0.2695312 -0.210938,0.703125 z m 0,0"
         style="fill:#000000;fill-opacity:1;fill-rule:nonzero;stroke:none" />
      <path
         id="path19"
         d="m 89.454141,6.0360156 c -0.05859,0 -0.140625,0 -0.140625,0.082031 0,0.035156 0.02344,0.058594 0.07031,0.1054687 0.597656,0.5507813 1.265625,1.4882813 1.265625,3.2929688 0,1.4531249 -0.457031,2.5546879 -1.207031,3.2343749 -0.117188,0.117188 -0.128906,0.128907 -0.128906,0.164063 0,0.03516 0.02344,0.08203 0.09375,0.08203 0.08203,0 0.75,-0.457031 1.207031,-1.324219 0.304687,-0.585937 0.503906,-1.335937 0.503906,-2.1562499 0,-0.984375 -0.292969,-2.5078125 -1.664062,-3.4804688 z m 4.948242,0 c -1.324219,0.9257813 -1.675781,2.4140625 -1.675781,3.4804688 0,0.9843746 0.292968,2.5078126 1.675781,3.4804686 0.05859,0 0.140625,0 0.140625,-0.08203 0,-0.04687 -0.02344,-0.05859 -0.07031,-0.105469 -0.925781,-0.832031 -1.265625,-2.015625 -1.265625,-3.2929686 0,-1.875 0.714844,-2.8007813 1.289063,-3.3164063 0.02344,-0.023437 0.04687,-0.046875 0.04687,-0.082031 0,-0.082031 -0.08203,-0.082031 -0.140625,-0.082031 z m 0,0"
         style="fill:#000000;fill-opacity:1;fill-rule:nonzero;stroke:none" />
      <path
         id="path20"
         d="m 95.902383,10.828984 c -0.03516,0.08203 -0.07031,0.257813 -0.07031,0.28125 0,0.152344 0.117188,0.222657 0.234375,0.222657 0.128907,0 0.234375,-0.09375 0.269532,-0.152344 0.03516,-0.05859 0.09375,-0.292969 0.128906,-0.433594 0.03516,-0.128906 0.105469,-0.457031 0.152344,-0.632812 0.03516,-0.1523441 0.08203,-0.3046879 0.117187,-0.4570316 0.08203,-0.2929688 0.09375,-0.3515625 0.292969,-0.6328125 0.199219,-0.28125 0.527344,-0.6445313 1.042969,-0.6445313 0.410156,0 0.410156,0.3632813 0.410156,0.4921875 0,0.421875 -0.292969,1.1953129 -0.410156,1.4882809 -0.07031,0.1875 -0.105469,0.257813 -0.105469,0.375 0,0.363282 0.304687,0.597657 0.667969,0.597657 0.691406,0 1.007812,-0.960938 1.007812,-1.066407 0,-0.09375 -0.09375,-0.09375 -0.117187,-0.09375 -0.09375,0 -0.105469,0.04687 -0.128907,0.117188 -0.164062,0.5625 -0.46875,0.84375 -0.738281,0.84375 -0.152344,0 -0.175781,-0.09375 -0.175781,-0.246094 0,-0.152344 0.03516,-0.246094 0.152344,-0.5625 0.09375,-0.210937 0.375,-0.9492186 0.375,-1.3476561 0,-0.6679688 -0.539063,-0.7851563 -0.902344,-0.7851563 -0.585938,0 -0.972656,0.3515625 -1.183594,0.6328125 -0.04687,-0.4804687 -0.457031,-0.6328125 -0.75,-0.6328125 -0.292969,0 -0.457031,0.2109375 -0.550781,0.375 -0.152344,0.2578125 -0.246094,0.65625 -0.246094,0.6914063 0,0.082031 0.09375,0.082031 0.117188,0.082031 0.09375,0 0.105468,-0.011719 0.152343,-0.1992187 0.105469,-0.421875 0.234375,-0.7617188 0.515625,-0.7617188 0.175782,0 0.222657,0.1523438 0.222657,0.3398438 0,0.140625 -0.05859,0.3984375 -0.105469,0.5859375 -0.04687,0.1875 -0.117188,0.46875 -0.152344,0.6210937 z m 5.545897,0.316407 c 0,0.386718 -0.0703,0.832031 -0.55078,1.277343 -0.0234,0.03516 -0.0469,0.05859 -0.0469,0.09375 0,0.04687 0.0586,0.09375 0.0937,0.09375 0.10546,0 0.6914,-0.5625 0.6914,-1.394531 0,-0.421875 -0.16406,-0.75 -0.48047,-0.75 -0.23437,0 -0.39843,0.175781 -0.39843,0.386719 0,0.234375 0.15234,0.410156 0.39843,0.410156 0.16407,0 0.28125,-0.117187 0.29297,-0.117187 z m 3.94629,-4.2421879 c 0,-0.1171875 -0.0937,-0.2578125 -0.28125,-0.2578125 -0.19922,0 -0.38672,0.1875 -0.38672,0.375 0,0.1171875 0.082,0.2695313 0.28125,0.2695313 0.1875,0 0.38672,-0.1875 0.38672,-0.3867188 z m -1.47656,4.6992189 c -0.11719,0.480469 -0.49219,0.890625 -0.90235,0.890625 -0.082,0 -0.17578,-0.01172 -0.24609,-0.04687 0.17578,-0.08203 0.23438,-0.246094 0.23438,-0.351563 0,-0.164062 -0.12891,-0.257812 -0.26954,-0.257812 -0.22265,0 -0.39843,0.1875 -0.39843,0.410156 0,0.269531 0.26953,0.433594 0.6914,0.433594 0.42188,0 1.23047,-0.246094 1.45313,-1.101563 l 0.62109,-2.4960934 c 0.0234,-0.070312 0.0352,-0.140625 0.0352,-0.234375 0,-0.3867187 -0.32813,-0.65625 -0.73828,-0.65625 -0.78516,0 -1.23047,0.9609375 -1.23047,1.0664063 0,0.082031 0.10547,0.082031 0.1289,0.082031 0.082,0 0.082,-0.011719 0.12891,-0.1171875 0.17578,-0.4101562 0.53906,-0.84375 0.94922,-0.84375 0.17578,0 0.23437,0.1171875 0.23437,0.3398438 0,0.082031 -0.0117,0.1757812 -0.0234,0.2109375 z m 0,0"
         style="fill:#000000;fill-opacity:1;fill-rule:nonzero;stroke:none" />
      <path
         id="path21"
         d="m 106.66898,6.0360156 c -0.0586,0 -0.14062,0 -0.14062,0.082031 0,0.035156 0.0234,0.058594 0.0703,0.1054687 0.59766,0.5507813 1.26563,1.4882813 1.26563,3.2929688 0,1.4531249 -0.45703,2.5546879 -1.20703,3.2343749 -0.11719,0.117188 -0.12891,0.128907 -0.12891,0.164063 0,0.03516 0.0234,0.08203 0.0937,0.08203 0.082,0 0.75,-0.457031 1.20703,-1.324219 0.30469,-0.585937 0.50391,-1.335937 0.50391,-2.1562499 0,-0.984375 -0.29297,-2.5078125 -1.66407,-3.4804688 z m 0,0"
         style="fill:#000000;fill-opacity:1;fill-rule:nonzero;stroke:none" />
      <path
         id="path22"
         d="m 110.62699,11.145391 c 0,0.386718 -0.0703,0.832031 -0.55078,1.277343 -0.0234,0.03516 -0.0469,0.05859 -0.0469,0.09375 0,0.04687 0.0586,0.09375 0.0937,0.09375 0.10546,0 0.6914,-0.5625 0.6914,-1.394531 0,-0.421875 -0.16406,-0.75 -0.48047,-0.75 -0.23437,0 -0.39843,0.175781 -0.39843,0.386719 0,0.234375 0.15234,0.410156 0.39843,0.410156 0.16407,0 0.28125,-0.117187 0.29297,-0.117187 z m 2.85645,-4.5117191 c 0,-0.011719 0.0234,-0.1054688 0.0234,-0.1171875 0,-0.035156 -0.0234,-0.09375 -0.10547,-0.09375 -0.14063,0 -0.72657,0.058594 -0.90235,0.070312 -0.0469,0.011719 -0.14062,0.011719 -0.14062,0.1640625 0,0.09375 0.0937,0.09375 0.17578,0.09375 0.32812,0 0.32812,0.046875 0.32812,0.1054687 0,0.046875 -0.0117,0.09375 -0.0234,0.1523438 l -0.86719,3.4453126 c -0.0234,0.07031 -0.0234,0.140625 -0.0234,0.210938 0,0.457031 0.39844,0.667969 0.72656,0.667969 0.17579,0 0.375,-0.05859 0.5625,-0.375 0.14063,-0.257813 0.2461,-0.667969 0.2461,-0.691407 0,-0.09375 -0.0937,-0.09375 -0.11719,-0.09375 -0.0937,0 -0.10547,0.04687 -0.14062,0.164063 -0.082,0.351562 -0.22266,0.796875 -0.51563,0.796875 -0.1875,0 -0.23437,-0.175781 -0.23437,-0.339844 0,-0.07031 0.0117,-0.210937 0.0352,-0.28125 z m 0,0"
         style="fill:#000000;fill-opacity:1;fill-rule:nonzero;stroke:none" />
      <path
         id="path23"
         d="m 124.18559,6.2059375 c 0.15234,0 0.33984,0 0.33984,-0.1992187 0,-0.1992188 -0.1875,-0.1992188 -0.32813,-0.1992188 h -5.96484 c -0.14062,0 -0.32812,0 -0.32812,0.1992188 0,0.1992187 0.1875,0.1992187 0.33984,0.1992187 z m 0.0117,1.9335938 c 0.14063,0 0.32813,0 0.32813,-0.1992188 0,-0.1992187 -0.1875,-0.1992187 -0.33984,-0.1992187 h -5.94141 c -0.15234,0 -0.33984,0 -0.33984,0.1992187 0,0.1992188 0.1875,0.1992188 0.32812,0.1992188 z M 130.77152,3.08875 c 0,-0.234375 0,-0.2578125 -0.23437,-0.2578125 C 129.92777,3.46375 129.04887,3.46375 128.73246,3.46375 v 0.3164063 c 0.19922,0 0.78516,0 1.30078,-0.2578125 v 5.15625 c 0,0.3515625 -0.0352,0.4804687 -0.92578,0.4804687 h -0.31641 V 9.46375 c 0.35157,-0.035156 1.20704,-0.035156 1.60547,-0.035156 0.39844,0 1.26563,0 1.61719,0.035156 V 9.1590625 h -0.31641 c -0.90234,0 -0.92578,-0.1171875 -0.92578,-0.4804687 z m 0,0"
         style="fill:#000000;fill-opacity:1;fill-rule:nonzero;stroke:none" />
      <path
         id="path24"
         d="m 134.86723,9.4520313 c 0,-0.65625 -0.25782,-1.0429688 -0.64453,-1.0429688 -0.32813,0 -0.52735,0.2460938 -0.52735,0.5273438 0,0.2695312 0.19922,0.5273437 0.52735,0.5273437 0.11718,0 0.24609,-0.035156 0.35156,-0.1289062 0.0234,-0.023437 0.0351,-0.035156 0.0469,-0.035156 0.0117,0 0.0234,0.011719 0.0234,0.1523438 0,0.7382814 -0.35156,1.3359374 -0.67969,1.6640624 -0.10547,0.105469 -0.10547,0.128906 -0.10547,0.164062 0,0.07031 0.0469,0.105469 0.0937,0.105469 0.11719,0 0.91407,-0.761719 0.91407,-1.9335934 z m 0,0"
         style="fill:#000000;fill-opacity:1;fill-rule:nonzero;stroke:none" />
      <path
         id="path25"
         d="m 142.75102,2.9246875 c 0.0586,-0.1054687 0.0586,-0.1289062 0.0586,-0.1757812 0,-0.09375 -0.082,-0.1992188 -0.19922,-0.1992188 -0.12891,0 -0.19922,0.1171875 -0.23437,0.234375 l -0.82032,2.1914063 h -3.03515 l -0.82032,-2.1914063 c -0.0586,-0.140625 -0.10546,-0.234375 -0.23437,-0.234375 -0.0937,0 -0.19922,0.1054688 -0.19922,0.1992188 0,0.023437 0,0.035156 0.0586,0.1757812 l 2.48438,6.5273438 c 0.0469,0.140625 0.0937,0.234375 0.22266,0.234375 0.14062,0 0.1875,-0.1171875 0.22265,-0.2109375 z m -4.06641,2.4492188 h 2.70703 l -1.35937,3.5390625 z m 0,0"
         style="fill:#000000;fill-opacity:1;fill-rule:nonzero;stroke:none" />
      <path
         id="path26"
         d="m 146.09379,11.854375 c 0,-0.03516 0,-0.04687 -0.16406,-0.222656 -1.24219,-1.253906 -1.57032,-3.1289065 -1.57032,-4.6640627 0,-1.7226563 0.38672,-3.4570313 1.60547,-4.7109375 0.12891,-0.1171875 0.12891,-0.1289063 0.12891,-0.1640625 0,-0.070312 -0.0352,-0.1054688 -0.0937,-0.1054688 -0.10547,0 -0.99609,0.6796875 -1.58203,1.9453125 -0.51563,1.1015625 -0.63281,2.203125 -0.63281,3.0351563 0,0.7851562 0.11718,1.9921875 0.65625,3.1171877 0.59765,1.21875 1.45312,1.875 1.55859,1.875 0.0586,0 0.0937,-0.03516 0.0937,-0.105469 z m 0,0"
         style="fill:#000000;fill-opacity:1;fill-rule:nonzero;stroke:none" />
      <path
         id="path27"
         d="m 147.5557,8.8778125 c -0.0352,0.1523438 -0.0937,0.375 -0.0937,0.421875 0,0.1875 0.14063,0.2695313 0.29297,0.2695313 0.11719,0 0.29297,-0.070312 0.36328,-0.2695313 0.0117,-0.023437 0.12891,-0.4921875 0.1875,-0.7382812 l 0.22266,-0.9023438 c 0.0586,-0.2226562 0.11719,-0.4335937 0.17578,-0.6679687 0.0352,-0.1640625 0.11719,-0.4570313 0.12891,-0.4921875 0.14062,-0.3164063 0.66797,-1.21875 1.61718,-1.21875 0.44532,0 0.53907,0.3632812 0.53907,0.6914062 0,0.2578125 -0.0703,0.5390625 -0.15235,0.8320313 l -0.26953,1.1601562 -0.19922,0.75 c -0.0469,0.1992188 -0.14062,0.5390625 -0.14062,0.5859375 0,0.1875 0.14062,0.2695313 0.29297,0.2695313 0.30468,0 0.375,-0.2460938 0.44531,-0.5625 0.14062,-0.5625 0.51562,-2.015625 0.59766,-2.4023438 0.0351,-0.1289062 0.5625,-1.3242187 1.65234,-1.3242187 0.42187,0 0.53906,0.3398437 0.53906,0.6914062 0,0.5742188 -0.42187,1.7109375 -0.62109,2.2382813 -0.0937,0.234375 -0.12891,0.3515625 -0.12891,0.5507812 0,0.46875 0.35156,0.8085938 0.8086,0.8085938 0.9375,0 1.3125,-1.453125 1.3125,-1.5351563 0,-0.09375 -0.0937,-0.09375 -0.11719,-0.09375 -0.10547,0 -0.10547,0.023437 -0.15235,0.1757813 -0.15234,0.5273437 -0.46875,1.2421875 -1.01953,1.2421875 -0.16406,0 -0.23437,-0.1054688 -0.23437,-0.328125 0,-0.2578125 0.082,-0.4921875 0.17578,-0.7148438 0.1875,-0.515625 0.60937,-1.6171875 0.60937,-2.1914062 0,-0.6445313 -0.39843,-1.0664063 -1.14843,-1.0664063 -0.75,0 -1.25391,0.4453125 -1.61719,0.9726563 -0.0117,-0.1289063 -0.0469,-0.46875 -0.32813,-0.7148438 C 151.04789,5.1160938 150.73148,5.0575 150.48539,5.0575 c -0.90234,0 -1.38281,0.6445313 -1.55859,0.8671875 -0.0469,-0.5625 -0.46875,-0.8671875 -0.91407,-0.8671875 -0.45703,0 -0.64453,0.3867188 -0.73828,0.5742188 -0.17578,0.3398437 -0.30468,0.9375 -0.30468,0.9609375 0,0.1054687 0.0937,0.1054687 0.11718,0.1054687 0.0937,0 0.10547,-0.011719 0.16407,-0.234375 0.17578,-0.703125 0.375,-1.1835937 0.72656,-1.1835937 0.16406,0 0.3164,0.082031 0.3164,0.4570312 0,0.2109375 -0.0352,0.3164063 -0.16406,0.8320313 z m 9.89649,0.5742188 c 0,-0.65625 -0.25781,-1.0429688 -0.64453,-1.0429688 -0.32813,0 -0.52735,0.2460938 -0.52735,0.5273438 0,0.2695312 0.19922,0.5273437 0.52735,0.5273437 0.11718,0 0.24609,-0.035156 0.35156,-0.1289062 0.0234,-0.023437 0.0352,-0.035156 0.0469,-0.035156 0.0117,0 0.0234,0.011719 0.0234,0.1523438 0,0.7382814 -0.35156,1.3359374 -0.67969,1.6640624 -0.10546,0.105469 -0.10546,0.128906 -0.10546,0.164062 0,0.07031 0.0469,0.105469 0.0937,0.105469 0.11718,0 0.91406,-0.761719 0.91406,-1.9335934 z m 5.20898,-6.2109375 c 0,-0.1992188 -0.1289,-0.3632813 -0.36328,-0.3632813 -0.26953,0 -0.53906,0.2578125 -0.53906,0.5273438 0,0.1875 0.14062,0.3632812 0.375,0.3632812 0.23437,0 0.52734,-0.234375 0.52734,-0.5273437 z m -0.75,3.7382812 c 0.11719,-0.28125 0.11719,-0.3046875 0.22266,-0.5742187 0.0703,-0.1992188 0.1289,-0.3398438 0.1289,-0.5273438 0,-0.4453125 -0.32812,-0.8203125 -0.82031,-0.8203125 -0.9375,0 -1.3125,1.453125 -1.3125,1.5351563 0,0.1054687 0.0937,0.1054687 0.11719,0.1054687 0.0937,0 0.10547,-0.023437 0.15234,-0.1875 0.26953,-0.9375 0.66797,-1.2304687 1.00782,-1.2304687 0.082,0 0.25781,0 0.25781,0.3164062 0,0.2109375 -0.0703,0.421875 -0.11719,0.515625 -0.082,0.2578125 -0.52734,1.4179688 -0.67969,1.8515625 -0.10547,0.2578125 -0.23437,0.5859375 -0.23437,0.796875 0,0.46875 0.33984,0.8085938 0.82031,0.8085938 0.9375,0 1.30078,-1.4414063 1.30078,-1.5351563 0,-0.09375 -0.0937,-0.09375 -0.11719,-0.09375 -0.10546,0 -0.10546,0.023437 -0.15234,0.1757813 -0.17578,0.6328125 -0.50391,1.2421875 -1.01953,1.2421875 -0.16406,0 -0.23438,-0.1054688 -0.23438,-0.328125 0,-0.2578125 0.0586,-0.3984375 0.29297,-0.9960938 z m 0,0"
         style="fill:#000000;fill-opacity:1;fill-rule:nonzero;stroke:none" />
      <path
         id="path28"
         d="m 166.16801,6.9676563 c 0,-0.7734375 -0.11719,-1.9804688 -0.65625,-3.1054688 -0.59766,-1.21875 -1.46485,-1.875 -1.5586,-1.875 -0.0586,0 -0.10546,0.046875 -0.10546,0.1054688 0,0.035156 0,0.046875 0.19921,0.234375 0.97266,0.984375 1.53516,2.5664062 1.53516,4.640625 0,1.7109375 -0.36328,3.4570317 -1.59375,4.7226567 -0.14062,0.117187 -0.14062,0.128906 -0.14062,0.164062 0,0.05859 0.0469,0.105469 0.10546,0.105469 0.0937,0 0.9961,-0.679688 1.58204,-1.945313 0.5039,-1.1015622 0.63281,-2.2031247 0.63281,-3.0468747 z m 0,0"
         style="fill:#000000;fill-opacity:1;fill-rule:nonzero;stroke:none" />
      <path
         id="path29"
         d="m 175.38773,7.166875 c 0.16407,0 0.35157,0 0.35157,-0.1992187 0,-0.1992188 -0.1875,-0.1992188 -0.35157,-0.1992188 h -4.23046 c 0.1289,-1.3242187 1.26562,-2.2851562 2.67187,-2.2851562 h 1.55859 c 0.16407,0 0.35157,0 0.35157,-0.1992188 0,-0.1992187 -0.1875,-0.1992187 -0.35157,-0.1992187 h -1.57031 c -1.71094,0 -3.05859,1.2890625 -3.05859,2.8828125 0,1.59375 1.34765,2.8945312 3.05859,2.8945312 h 1.57031 c 0.16407,0 0.35157,0 0.35157,-0.1992187 0,-0.1992188 -0.1875,-0.1992188 -0.35157,-0.1992188 h -1.55859 c -1.40625,0 -2.54297,-0.9609375 -2.67187,-2.296875 z m 0,0"
         style="fill:#000000;fill-opacity:1;fill-rule:nonzero;stroke:none" />
      <path
         id="path30"
         d="m 186.90434,2.5379688 c 0,-0.023437 -0.0234,-0.09375 -0.10547,-0.09375 -0.0352,0 -0.0469,0.011719 -0.15235,0.1171875 L 185.9434,3.323125 c -0.082,-0.140625 -0.53906,-0.8789062 -1.65235,-0.8789062 -2.21484,0 -4.45312,2.203125 -4.45312,4.5117187 0,1.640625 1.17187,2.7304688 2.69531,2.7304688 0.86719,0 1.61719,-0.3984375 2.14453,-0.8554688 0.9375,-0.8203125 1.10157,-1.7226562 1.10157,-1.7578125 0,-0.1054687 -0.10547,-0.1054687 -0.11719,-0.1054687 -0.0586,0 -0.11719,0.023437 -0.12891,0.1054687 -0.0937,0.2929688 -0.3164,0.9960938 -1.00781,1.5703125 -0.69141,0.5625 -1.3125,0.7265625 -1.83984,0.7265625 -0.89063,0 -1.94532,-0.515625 -1.94532,-2.0625 0,-0.5742187 0.21094,-2.1914062 1.20703,-3.3515625 0.60938,-0.703125 1.53516,-1.2070312 2.42579,-1.2070312 1.01953,0 1.60546,0.7734375 1.60546,1.921875 0,0.3984375 -0.0352,0.4101562 -0.0352,0.5039062 0,0.1054688 0.11719,0.1054688 0.15234,0.1054688 0.12891,0 0.12891,-0.023437 0.17578,-0.1992188 z m 0,0"
         style="fill:#000000;fill-opacity:1;fill-rule:nonzero;stroke:none" />
      <path
         id="path31"
         d="m 256.00102,11.854375 c 0,-0.03516 0,-0.04687 -0.16407,-0.222656 -1.24218,-1.253906 -1.57031,-3.1289065 -1.57031,-4.6640627 0,-1.7226563 0.38672,-3.4570313 1.60547,-4.7109375 0.12891,-0.1171875 0.12891,-0.1289063 0.12891,-0.1640625 0,-0.070312 -0.0352,-0.1054688 -0.0937,-0.1054688 -0.10547,0 -0.9961,0.6796875 -1.58204,1.9453125 -0.51562,1.1015625 -0.63281,2.203125 -0.63281,3.0351563 0,0.7851562 0.11719,1.9921875 0.65625,3.1171877 0.59766,1.21875 1.45313,1.875 1.5586,1.875 0.0586,0 0.0937,-0.03516 0.0937,-0.105469 z m 5.26757,-4.03125 V 7.5067188 H 260.2725 V 2.9832813 c 0,-0.1992188 0,-0.2578125 -0.15234,-0.2578125 -0.0937,0 -0.11719,0 -0.19922,0.1171875 l -3.0586,4.6640625 V 7.823125 h 2.64844 v 0.8671875 c 0,0.3515625 -0.0234,0.46875 -0.76172,0.46875 h -0.21093 V 9.46375 c 0.41015,-0.035156 0.9375,-0.035156 1.34765,-0.035156 0.42188,0 0.94922,0 1.35938,0.035156 V 9.1590625 h -0.21094 c -0.73828,0 -0.76172,-0.1171875 -0.76172,-0.46875 V 7.823125 Z m -1.69921,-0.3164062 h -2.42579 l 2.42579,-3.7148438 z m 4.87792,-0.5390625 c 0,-0.7734375 -0.11718,-1.9804688 -0.65625,-3.1054688 -0.59765,-1.21875 -1.46484,-1.875 -1.55859,-1.875 -0.0586,0 -0.10547,0.046875 -0.10547,0.1054688 0,0.035156 0,0.046875 0.19922,0.234375 0.97266,0.984375 1.53516,2.5664062 1.53516,4.640625 0,1.7109375 -0.36328,3.4570317 -1.59375,4.7226567 -0.14063,0.117187 -0.14063,0.128906 -0.14063,0.164062 0,0.05859 0.0469,0.105469 0.10547,0.105469 0.0937,0 0.99609,-0.679688 1.58203,-1.945313 0.50391,-1.1015622 0.63281,-2.2031247 0.63281,-3.0468747 z m 0,0"
         style="fill:#000000;fill-opacity:1;fill-rule:nonzero;stroke:none" />
    </g>
  </g>
</svg>
